<?xml version="1.0" encoding="utf-8"?> <!-- Generator: IcoMoon.io --> <!DOCTYPE svg PUBLIC "-//W3C//DTD SVG 1.1//EN" "http://www.w3.org/Graphics/SVG/1.1/DTD/svg11.dtd"> <svg fill="#000000" xmlns:xlink="http://www.w3.org/1999/xlink" xmlns="http://www.w3.org/2000/svg" viewBox="0 0 512 512" height="512" width="512"><path d="M 256,512C 114.625,512,0,397.391,0,256S 114.625,0, 256,0 c 141.391,0, 256,114.609, 256,256S 397.391,512, 256,512z M 256,64C 149.969,64, 64,149.969, 64,256s 85.969,192, 192,192 c 106.047,0, 192-85.969, 192-192S 362.047,64, 256,64z M 288,384l-64,0 l0-96 l-96,0 l0-64 l 96,0 l0-96 l 64,0 l0,96 l 96,0 l0,64 l-96,0 L 288,384 z"></path></svg>