<?xml version="1.0" encoding="UTF-8" standalone="no"?>
<!-- Generator: Adobe Illustrator 16.0.0, SVG Export Plug-In . SVG Version: 6.00 Build 0)  -->

<svg
   xmlns:dc="http://purl.org/dc/elements/1.1/"
   xmlns:cc="http://creativecommons.org/ns#"
   xmlns:rdf="http://www.w3.org/1999/02/22-rdf-syntax-ns#"
   xmlns:svg="http://www.w3.org/2000/svg"
   xmlns="http://www.w3.org/2000/svg"
   xmlns:sodipodi="http://sodipodi.sourceforge.net/DTD/sodipodi-0.dtd"
   xmlns:inkscape="http://www.inkscape.org/namespaces/inkscape"
   version="1.1"
   id="Layer_1"
   x="0px"
   y="0px"
   width="500px"
   height="500px"
   viewBox="0 0 500 500"
   enable-background="new 0 0 500 500"
   xml:space="preserve"
   inkscape:version="0.48.4 r9939"
   sodipodi:docname="cancel.svg"><metadata
     id="metadata13"><rdf:RDF><cc:Work
         rdf:about=""><dc:format>image/svg+xml</dc:format><dc:type
           rdf:resource="http://purl.org/dc/dcmitype/StillImage" /><dc:title></dc:title></cc:Work></rdf:RDF></metadata><defs
     id="defs11" /><sodipodi:namedview
     pagecolor="#ffffff"
     bordercolor="#666666"
     borderopacity="1"
     objecttolerance="10"
     gridtolerance="10"
     guidetolerance="10"
     inkscape:pageopacity="0"
     inkscape:pageshadow="2"
     inkscape:window-width="1535"
     inkscape:window-height="1176"
     id="namedview9"
     showgrid="false"
     inkscape:zoom="0.6675088"
     inkscape:cx="175.54843"
     inkscape:cy="42.190213"
     inkscape:window-x="65"
     inkscape:window-y="24"
     inkscape:window-maximized="1"
     inkscape:current-layer="Layer_1" /><g
     id="g3"><path
       d="M250.002,7.717C116.406,7.717,7.721,116.406,7.721,250c0,133.592,108.686,242.283,242.281,242.283   S492.279,383.592,492.279,250C492.279,116.406,383.598,7.717,250.002,7.717z M250.002,432.744   c-100.764,0-182.744-81.978-182.744-182.744s81.98-182.742,182.744-182.742c100.765,0,182.744,81.976,182.744,182.742   S350.767,432.744,250.002,432.744z"
       id="path7" /></g><rect
     style="fill:#000000"
     id="rect3071"
     width="211.86441"
     height="52.966103"
     x="221.73326"
     y="101.535"
     transform="matrix(0.76765412,0.64086438,-0.64086438,0.76765412,0,0)" /><rect
     style="fill:#000000"
     id="rect3073"
     width="273.30508"
     height="52.966103"
     x="-168.65862"
     y="377.20779"
     transform="matrix(0.61166939,-0.79111349,0.79111349,0.61166939,0,0)" /></svg>