<?xml version="1.0" encoding="utf-8"?> <!-- Generator: IcoMoon.io --> <!DOCTYPE svg PUBLIC "-//W3C//DTD SVG 1.1//EN" "http://www.w3.org/Graphics/SVG/1.1/DTD/svg11.dtd"> <svg fill="#000000" xmlns:xlink="http://www.w3.org/1999/xlink" xmlns="http://www.w3.org/2000/svg" width="32" height="32" viewBox="0 0 32 32"><g><path d="M 20,0l0,3.875 c0,1.602-0.625,3.109-1.754,4.238L 6.93,19.367C 5.141,21.152, 4.156,23.496, 4.047,26L0,26 l 6,6l 6-6L 8.043,26 c 0.105-1.438, 0.684-2.773, 1.711-3.805l 11.316-11.25C 22.961,9.055, 24,6.547, 24,3.875L 24,0 L 20,0 zM 23.953,26c-0.109-2.504-1.098-4.848-2.887-6.641l-2.23-2.215L 16,19.965l 2.242,2.23 c 1.031,1.027, 1.609,2.367, 1.715,3.805L 16,26 l 6,6l 6-6L 23.953,26 z"></path></g></svg>