<?xml version="1.0"?>
<svg xmlns="http://www.w3.org/2000/svg"
xmlns:xlink="http://www.w3.org/1999/xlink" xmlns:cml="http://www.xml-cml.org/schema" width="280" height="258.564" x="0" y="0" font-family="sans-serif" stroke="rgb(0,0,0)" stroke-width="1" >
<line x1="200.0" y1="109.3" x2="180.0" y2="143.9"/>
<line x1="200.0" y1="109.3" x2="185.2" y2="83.6"/>
<line x1="140.0" y1="143.9" x2="180.0" y2="143.9"/>
<line x1="140.0" y1="143.9" x2="125.2" y2="169.6"/>
<line x1="200.0" y1="37.0" x2="229.6" y2="37.0"/>
<line x1="200.0" y1="43.0" x2="229.6" y2="43.0"/>
<line x1="200.0" y1="40.0" x2="185.2" y2="65.6"/>
<line x1="180.0" y1="216.2" x2="150.4" y2="216.2"/>
<line x1="180.0" y1="210.2" x2="150.4" y2="210.2"/>
<line x1="180.0" y1="213.2" x2="194.8" y2="187.6"/>
<line x1="180.0" y1="143.9" x2="194.8" y2="169.6"/>
<line x1="80.0" y1="149.0" x2="80.0" y2="168.2"/>
<line x1="50.4" y1="178.6" x2="69.6" y2="178.6"/>
<line x1="77.0" y1="208.2" x2="77.0" y2="189.0"/>
<line x1="83.0" y1="208.2" x2="83.0" y2="189.0"/>
<line x1="109.6" y1="178.6" x2="90.4" y2="178.6"/>
<text x="234.000000" y="44.800000" fill="rgb(255,12,12)"  stroke="rgb(255,12,12)" stroke-width="1" font-size="16" >O</text>
<text x="136.400000" y="218.005081" fill="rgb(255,12,12)"  stroke="rgb(255,12,12)" stroke-width="1" font-size="16" >O</text>
<text x="75.200000" y="132.164065" fill="rgb(255,12,12)"  stroke="rgb(255,12,12)" stroke-width="1" font-size="32" >-</text>
<text x="74.000000" y="146.884065" fill="rgb(255,12,12)"  stroke="rgb(255,12,12)" stroke-width="1" font-size="16" >O</text>
<text x="35.200000" y="197.764065" fill="rgb(255,12,12)"  stroke="rgb(255,12,12)" stroke-width="1" font-size="32" >-</text>
<text x="36.400000" y="183.364065" fill="rgb(255,12,12)"  stroke="rgb(255,12,12)" stroke-width="1" font-size="16" >O</text>
<text x="74.000000" y="223.364065" fill="rgb(255,12,12)"  stroke="rgb(255,12,12)" stroke-width="1" font-size="16" >O</text>
<text x="176.400000" y="82.961016" fill="rgb(255,12,12)"  stroke="rgb(255,12,12)" stroke-width="1" font-size="16" >O</text>
<text x="194.000000" y="186.884065" fill="rgb(255,12,12)"  stroke="rgb(255,12,12)" stroke-width="1" font-size="16" >O</text>
<text x="114.000000" y="183.364065" fill="rgb(255,12,12)"  stroke="rgb(255,12,12)" stroke-width="1" font-size="16" >O</text>
<text x="74.000000" y="183.364065" fill="rgb(255,127,0)"  stroke="rgb(255,127,0)" stroke-width="1" font-size="16" >P</text>
<text font-size="18.000000" fill ="black" font-family="sans-serif"
x="140.000000" y="20.000000" ></text>
<title> - OBDepict</title>
</svg>
