<?xml version="1.0"?>
<svg xmlns="http://www.w3.org/2000/svg"
xmlns:xlink="http://www.w3.org/1999/xlink" xmlns:cml="http://www.xml-cml.org/schema" width="351.566" height="530.696" x="0" y="0" font-family="sans-serif" stroke="rgb(0,0,0)" stroke-width="1" >
<line x1="233.2" y1="49.5" x2="221.2" y2="76.5"/>
<line x1="221.2" y1="76.5" x2="181.4" y2="80.7"/>
<line x1="181.4" y1="80.7" x2="165.2" y2="117.3"/>
<line x1="162.4" y1="348.6" x2="154.1" y2="387.7"/>
<line x1="162.4" y1="348.6" x2="200.5" y2="336.2"/>
<line x1="154.1" y1="387.7" x2="116.1" y2="400.1"/>
<line x1="165.2" y1="117.3" x2="188.7" y2="149.6"/>
<line x1="200.5" y1="336.2" x2="208.8" y2="297.1"/>
<line x1="116.1" y1="400.1" x2="107.8" y2="439.2"/>
<line x1="188.7" y1="149.6" x2="172.4" y2="186.2"/>
<line x1="208.8" y1="297.1" x2="246.8" y2="284.7"/>
<line x1="107.8" y1="439.2" x2="69.7" y2="451.6"/>
<line x1="235.7" y1="214.3" x2="247.7" y2="187.3"/>
<line x1="236.0" y1="217.3" x2="196.2" y2="221.5"/>
<line x1="235.4" y1="211.4" x2="195.6" y2="215.5"/>
<line x1="235.7" y1="214.3" x2="259.2" y2="246.7"/>
<line x1="195.9" y1="218.5" x2="183.9" y2="245.6"/>
<line x1="195.9" y1="218.5" x2="172.4" y2="186.2"/>
<line x1="151.9" y1="201.5" x2="151.5" y2="200.9"/>
<line x1="155.4" y1="199.5" x2="154.5" y2="198.2"/>
<line x1="158.9" y1="197.5" x2="157.5" y2="195.5"/>
<line x1="162.3" y1="195.5" x2="160.5" y2="192.9"/>
<line x1="165.8" y1="193.4" x2="163.5" y2="190.2"/>
<line x1="169.3" y1="191.4" x2="166.5" y2="187.5"/>
<line x1="172.8" y1="189.4" x2="169.5" y2="184.8"/>
<line x1="172.4" y1="186.2" x2="145.4" y2="174.1"/>
<line x1="282.2" y1="308.3" x2="282.2" y2="337.9"/>
<line x1="276.2" y1="308.3" x2="276.2" y2="337.9"/>
<line x1="72.7" y1="452.2" x2="66.5" y2="481.1"/>
<line x1="66.8" y1="450.9" x2="60.6" y2="479.9"/>
<line x1="69.7" y1="451.6" x2="47.7" y2="431.8"/>
<line x1="299.2" y1="246.7" x2="311.6" y2="284.7"/>
<line x1="311.6" y1="284.7" x2="279.2" y2="308.3"/>
<line x1="279.2" y1="308.3" x2="246.8" y2="284.7"/>
<line x1="246.8" y1="284.7" x2="259.2" y2="246.7"/>
<line x1="255.5" y1="281.3" x2="264.2" y2="254.6"/>
<line x1="259.2" y1="246.7" x2="299.2" y2="246.7"/>
<text x="231.479085" y="48.320000" fill="rgb(102,102,102)"  stroke="rgb(102,102,102)" stroke-width="1" font-size="16" >CH</text>
<text x="255.479085" y="56.000000" fill="rgb(102,102,102)"  stroke="rgb(102,102,102)" stroke-width="1" font-size="13" >3</text>
<text x="120.259404" y="178.217807" fill="rgb(255,12,12)"  stroke="rgb(255,12,12)" stroke-width="1" font-size="16" >HO</text>
<text x="273.204918" y="353.061165" fill="rgb(255,12,12)"  stroke="rgb(255,12,12)" stroke-width="1" font-size="16" >O</text>
<text x="57.809325" y="495.496090" fill="rgb(255,12,12)"  stroke="rgb(255,12,12)" stroke-width="1" font-size="16" >O</text>
<text x="24.400000" y="433.124962" fill="rgb(255,12,12)"  stroke="rgb(255,12,12)" stroke-width="1" font-size="16" >HO</text>
<text x="245.962974" y="186.124996" fill="rgb(191,191,191)"  stroke="rgb(191,191,191)" stroke-width="1" font-size="16" >H</text>
<text x="176.043167" y="259.869771" fill="rgb(191,191,191)"  stroke="rgb(191,191,191)" stroke-width="1" font-size="16" >H</text>
<text x="136.440543" y="214.478683" fill="rgb(191,191,191)"  stroke="rgb(191,191,191)" stroke-width="1" font-size="16" >H</text>
<text font-size="18.000000" fill ="black" font-family="sans-serif"
x="140.000000" y="20.000000" ></text>
<title> - OBDepict</title>
</svg>
