<?xml version="1.0"?>
<svg xmlns="http://www.w3.org/2000/svg"
xmlns:xlink="http://www.w3.org/1999/xlink" xmlns:cml="http://www.xml-cml.org/schema" width="290.617" height="244.68" x="0" y="0" font-family="sans-serif" stroke="rgb(0,0,0)" stroke-width="1" >
<line x1="73.5" y1="179.5" x2="79.8" y2="140.0"/>
<line x1="73.5" y1="179.5" x2="96.5" y2="198.1"/>
<polygon points="141.334547 120.000000 173.975563 143.464102 177.975563 136.535898 " />
<line x1="176.0" y1="140.0" x2="201.6" y2="125.2"/>
<polygon points="54.674004 130.625301 78.381667 143.747294 81.180085 136.252706 " />
<line x1="54.3" y1="97.7" x2="54.4" y2="96.9"/>
<line x1="58.2" y1="98.5" x2="58.4" y2="96.9"/>
<line x1="62.2" y1="99.4" x2="62.4" y2="97.0"/>
<line x1="66.1" y1="100.2" x2="66.4" y2="97.0"/>
<line x1="70.0" y1="101.0" x2="70.4" y2="97.0"/>
<line x1="74.0" y1="101.8" x2="74.5" y2="97.0"/>
<line x1="77.9" y1="102.6" x2="78.5" y2="97.0"/>
<line x1="79.8" y1="100.0" x2="67.7" y2="73.0"/>
<polygon points="112.251103 61.424965 113.910546 88.470967 121.735727 86.807673 " />
<line x1="117.8" y1="87.6" x2="139.8" y2="67.8"/>
<line x1="141.3" y1="120.0" x2="167.0" y2="105.2"/>
<line x1="240.2" y1="80.0" x2="221.0" y2="80.0"/>
<line x1="210.6" y1="50.4" x2="210.6" y2="69.6"/>
<line x1="181.0" y1="77.0" x2="200.2" y2="77.0"/>
<line x1="181.0" y1="83.0" x2="200.2" y2="83.0"/>
<line x1="210.6" y1="109.6" x2="210.6" y2="90.4"/>
<line x1="79.8" y1="140.0" x2="79.8" y2="100.0"/>
<line x1="79.8" y1="100.0" x2="117.8" y2="87.6"/>
<line x1="117.8" y1="87.6" x2="141.3" y2="120.0"/>
<line x1="141.3" y1="120.0" x2="123.9" y2="143.9"/>
<line x1="107.9" y1="149.1" x2="79.8" y2="140.0"/>
<text x="98.609336" y="209.480349" fill="rgb(255,12,12)"  stroke="rgb(255,12,12)" stroke-width="1" font-size="16" >OH</text>
<text x="47.911410" y="71.778182" fill="rgb(255,12,12)"  stroke="rgb(255,12,12)" stroke-width="1" font-size="16" >HO</text>
<text x="141.548929" y="69.194096" fill="rgb(255,12,12)"  stroke="rgb(255,12,12)" stroke-width="1" font-size="16" >OH</text>
<text x="169.975563" y="108.320000" fill="rgb(255,12,12)"  stroke="rgb(255,12,12)" stroke-width="1" font-size="16" >OH</text>
<text x="244.616579" y="84.800000" fill="rgb(255,12,12)"  stroke="rgb(255,12,12)" stroke-width="1" font-size="16" >OH</text>
<text x="204.616579" y="48.320000" fill="rgb(255,12,12)"  stroke="rgb(255,12,12)" stroke-width="1" font-size="16" >OH</text>
<text x="167.016579" y="84.800000" fill="rgb(255,12,12)"  stroke="rgb(255,12,12)" stroke-width="1" font-size="16" >O</text>
<text x="204.616579" y="124.800000" fill="rgb(255,12,12)"  stroke="rgb(255,12,12)" stroke-width="1" font-size="16" >O</text>
<text x="111.823136" y="157.160680" fill="rgb(255,12,12)"  stroke="rgb(255,12,12)" stroke-width="1" font-size="16" >O</text>
<text x="204.616579" y="88.320000" fill="rgb(255,127,0)"  stroke="rgb(255,127,0)" stroke-width="1" font-size="16" >P</text>
<text x="38.707933" y="134.327911" fill="rgb(191,191,191)"  stroke="rgb(191,191,191)" stroke-width="1" font-size="16" >H</text>
<text x="36.400000" y="104.138861" fill="rgb(191,191,191)"  stroke="rgb(191,191,191)" stroke-width="1" font-size="16" >H</text>
<text x="105.906669" y="56.833416" fill="rgb(191,191,191)"  stroke="rgb(191,191,191)" stroke-width="1" font-size="16" >H</text>
<text font-size="18.000000" fill ="black" font-family="sans-serif"
x="140.000000" y="20.000000" ></text>
<title> - OBDepict</title>
</svg>
