<?xml version="1.0"?>
<svg xmlns="http://www.w3.org/2000/svg"
xmlns:xlink="http://www.w3.org/1999/xlink" xmlns:cml="http://www.xml-cml.org/schema" width="287.846" height="243.923" x="0" y="0" font-family="sans-serif" stroke="rgb(0,0,0)" stroke-width="1" >
<line x1="109.3" y1="100.0" x2="143.9" y2="120.0"/>
<line x1="109.3" y1="100.0" x2="74.6" y2="120.0"/>
<line x1="174.9" y1="101.7" x2="175.3" y2="102.3"/>
<line x1="171.2" y1="103.3" x2="172.0" y2="104.7"/>
<line x1="167.6" y1="105.0" x2="168.8" y2="107.0"/>
<line x1="163.9" y1="106.6" x2="165.5" y2="109.4"/>
<line x1="160.2" y1="108.3" x2="162.2" y2="111.7"/>
<line x1="156.6" y1="109.9" x2="159.0" y2="114.1"/>
<line x1="152.9" y1="111.6" x2="155.7" y2="116.4"/>
<line x1="198.6" y1="134.6" x2="178.6" y2="169.3"/>
<line x1="198.6" y1="134.6" x2="178.6" y2="100.0"/>
<line x1="77.6" y1="120.0" x2="77.6" y2="149.6"/>
<line x1="71.6" y1="120.0" x2="71.6" y2="149.6"/>
<line x1="74.6" y1="120.0" x2="49.0" y2="105.2"/>
<line x1="181.2" y1="167.8" x2="196.0" y2="193.4"/>
<line x1="176.0" y1="170.8" x2="190.8" y2="196.4"/>
<line x1="178.6" y1="169.3" x2="149.0" y2="169.3"/>
<line x1="213.2" y1="80.0" x2="178.6" y2="100.0"/>
<line x1="214.7" y1="77.4" x2="240.3" y2="92.2"/>
<line x1="211.7" y1="82.6" x2="237.3" y2="97.4"/>
<line x1="213.2" y1="80.0" x2="213.2" y2="50.4"/>
<line x1="178.6" y1="100.0" x2="163.8" y2="74.4"/>
<text x="68.641016" y="164.800000" fill="rgb(255,12,12)"  stroke="rgb(255,12,12)" stroke-width="1" font-size="16" >O</text>
<text x="35.200000" y="93.600000" fill="rgb(255,12,12)"  stroke="rgb(255,12,12)" stroke-width="1" font-size="32" >-</text>
<text x="36.400000" y="108.320000" fill="rgb(255,12,12)"  stroke="rgb(255,12,12)" stroke-width="1" font-size="16" >O</text>
<text x="192.564065" y="208.723048" fill="rgb(255,12,12)"  stroke="rgb(255,12,12)" stroke-width="1" font-size="16" >O</text>
<text x="133.764065" y="188.482032" fill="rgb(255,12,12)"  stroke="rgb(255,12,12)" stroke-width="1" font-size="32" >-</text>
<text x="134.964065" y="174.082032" fill="rgb(255,12,12)"  stroke="rgb(255,12,12)" stroke-width="1" font-size="16" >O</text>
<text x="241.846097" y="104.800000" fill="rgb(255,12,12)"  stroke="rgb(255,12,12)" stroke-width="1" font-size="16" >O</text>
<text x="208.405081" y="33.600000" fill="rgb(255,12,12)"  stroke="rgb(255,12,12)" stroke-width="1" font-size="32" >-</text>
<text x="207.205081" y="48.320000" fill="rgb(255,12,12)"  stroke="rgb(255,12,12)" stroke-width="1" font-size="16" >O</text>
<text x="142.964065" y="73.678984" fill="rgb(255,12,12)"  stroke="rgb(255,12,12)" stroke-width="1" font-size="16" >HO</text>
<text font-size="18.000000" fill ="black" font-family="sans-serif"
x="140.000000" y="20.000000" ></text>
<title> - OBDepict</title>
</svg>
