<?xml version="1.0"?>
<svg xmlns="http://www.w3.org/2000/svg"
xmlns:xlink="http://www.w3.org/1999/xlink" xmlns:cml="http://www.xml-cml.org/schema" width="489.655" height="289.162" x="0" y="0" font-family="sans-serif" stroke="rgb(0,0,0)" stroke-width="1" >
<polygon points="345.473 238.139 361.859 217.758 354.93 213.758 " />
<line x1="358.4" y1="215.8" x2="372.7" y2="240.5"/>
<polygon points="404.719785 218.853135 395.262458 194.472564 388.334255 198.472564 " />
<line x1="391.8" y1="196.5" x2="420.3" y2="196.5"/>
<polygon points="171.221960 190.342846 145.379103 186.342846 145.379103 194.342846 " />
<line x1="145.4" y1="190.3" x2="159.7" y2="215.1"/>
<line x1="304.7" y1="74.1" x2="304.9" y2="74.8"/>
<line x1="297.2" y1="75.7" x2="297.6" y2="77.2"/>
<line x1="289.6" y1="77.3" x2="290.2" y2="79.6"/>
<line x1="282.1" y1="78.9" x2="282.9" y2="82.0"/>
<line x1="274.5" y1="80.5" x2="275.6" y2="84.4"/>
<line x1="267.0" y1="82.1" x2="268.2" y2="86.8"/>
<line x1="259.4" y1="83.7" x2="260.9" y2="89.1"/>
<line x1="257.2" y1="87.2" x2="264.5" y2="59.7"/>
<line x1="124.7" y1="230.8" x2="124.0" y2="231.2"/>
<line x1="123.1" y1="227.3" x2="121.7" y2="228.1"/>
<line x1="121.5" y1="223.7" x2="119.4" y2="224.9"/>
<line x1="119.9" y1="220.2" x2="117.1" y2="221.8"/>
<line x1="118.3" y1="216.6" x2="114.9" y2="218.6"/>
<line x1="116.8" y1="213.1" x2="112.6" y2="215.5"/>
<line x1="115.2" y1="209.6" x2="110.3" y2="212.4"/>
<line x1="112.0" y1="209.6" x2="97.7" y2="234.3"/>
<line x1="300.3" y1="196.9" x2="300.3" y2="196.1"/>
<line x1="304.2" y1="197.3" x2="304.2" y2="195.7"/>
<line x1="308.0" y1="197.7" x2="308.0" y2="195.3"/>
<line x1="311.9" y1="198.1" x2="311.9" y2="194.9"/>
<line x1="315.7" y1="198.5" x2="315.7" y2="194.5"/>
<line x1="319.6" y1="198.9" x2="319.6" y2="194.1"/>
<line x1="323.4" y1="199.3" x2="323.4" y2="193.7"/>
<line x1="325.0" y1="196.5" x2="310.7" y2="221.2"/>
<polygon points="226.582004 52.294856 216.029677 76.221863 223.757084 78.292415 " />
<line x1="219.9" y1="77.3" x2="199.7" y2="57.1"/>
<polygon points="186.384137 183.235686 147.814148 148.598004 142.944057 154.944830 " />
<line x1="145.4" y1="151.8" x2="152.8" y2="124.2"/>
<line x1="281.8" y1="104.7" x2="282.5" y2="105.2"/>
<line x1="279.2" y1="107.5" x2="280.4" y2="108.5"/>
<line x1="276.5" y1="110.3" x2="278.4" y2="111.8"/>
<line x1="273.8" y1="113.1" x2="276.4" y2="115.1"/>
<line x1="271.2" y1="115.9" x2="274.4" y2="118.4"/>
<line x1="268.5" y1="118.8" x2="272.3" y2="121.7"/>
<line x1="265.9" y1="121.6" x2="270.3" y2="125.0"/>
<line x1="267.1" y1="124.5" x2="281.4" y2="149.2"/>
<polygon points="417.641214 157.901135 391.798357 153.901135 391.798357 161.901135 " />
<line x1="391.8" y1="157.9" x2="411.1" y2="124.5"/>
<polygon points="99.053837 110.105132 108.511164 134.485703 115.439367 130.485703 " />
<line x1="112.0" y1="132.5" x2="131.3" y2="99.1"/>
<line x1="233.9" y1="175.7" x2="233.1" y2="175.5"/>
<line x1="235.2" y1="172.1" x2="233.7" y2="171.7"/>
<line x1="236.6" y1="168.5" x2="234.3" y2="167.9"/>
<line x1="238.0" y1="164.9" x2="234.9" y2="164.0"/>
<line x1="239.4" y1="161.2" x2="235.5" y2="160.2"/>
<line x1="240.8" y1="157.6" x2="236.1" y2="156.4"/>
<line x1="242.2" y1="154.0" x2="236.8" y2="152.5"/>
<line x1="239.9" y1="151.8" x2="267.1" y2="179.0"/>
<line x1="408.5" y1="126.0" x2="394.2" y2="101.3"/>
<line x1="413.7" y1="123.0" x2="399.4" y2="98.3"/>
<line x1="411.1" y1="124.5" x2="439.6" y2="124.5"/>
<line x1="131.3" y1="96.1" x2="159.8" y2="96.1"/>
<line x1="131.3" y1="102.1" x2="159.8" y2="102.1"/>
<line x1="131.3" y1="99.1" x2="117.0" y2="74.4"/>
<line x1="266.4" y1="176.1" x2="293.9" y2="168.8"/>
<line x1="267.9" y1="181.9" x2="295.5" y2="174.6"/>
<line x1="267.1" y1="179.0" x2="259.7" y2="206.6"/>
<line x1="78.6" y1="190.3" x2="64.3" y2="215.1"/>
<line x1="78.6" y1="190.3" x2="50.0" y2="190.3"/>
<line x1="312.3" y1="136.7" x2="313.0" y2="136.3"/>
<line x1="313.9" y1="140.3" x2="315.3" y2="139.5"/>
<line x1="315.5" y1="143.8" x2="317.5" y2="142.6"/>
<line x1="317.0" y1="147.3" x2="319.8" y2="145.7"/>
<line x1="318.6" y1="150.9" x2="322.1" y2="148.9"/>
<line x1="320.2" y1="154.4" x2="324.4" y2="152.0"/>
<line x1="321.8" y1="158.0" x2="326.6" y2="155.2"/>
<line x1="325.0" y1="157.9" x2="296.4" y2="157.9"/>
<polygon points="174.345602 86.257598 189.790835 107.359685 195.447689 101.702831 " />
<line x1="192.6" y1="104.5" x2="165.0" y2="111.9"/>
<line x1="145.4" y1="190.3" x2="112.0" y2="209.6"/>
<line x1="112.0" y1="209.6" x2="78.6" y2="190.3"/>
<line x1="78.6" y1="190.3" x2="78.6" y2="161.8"/>
<line x1="87.3" y1="146.8" x2="112.0" y2="132.5"/>
<line x1="112.0" y1="132.5" x2="145.4" y2="151.8"/>
<line x1="145.4" y1="151.8" x2="145.4" y2="190.3"/>
<line x1="358.4" y1="215.8" x2="325.0" y2="196.5"/>
<line x1="325.0" y1="196.5" x2="325.0" y2="157.9"/>
<line x1="325.0" y1="157.9" x2="349.7" y2="143.6"/>
<line x1="367.1" y1="143.6" x2="391.8" y2="157.9"/>
<line x1="391.8" y1="157.9" x2="391.8" y2="196.5"/>
<line x1="391.8" y1="196.5" x2="358.4" y2="215.8"/>
<line x1="257.2" y1="87.2" x2="219.9" y2="77.3"/>
<line x1="219.9" y1="77.3" x2="192.6" y2="104.5"/>
<line x1="192.6" y1="104.5" x2="200.0" y2="132.1"/>
<line x1="212.3" y1="144.4" x2="239.9" y2="151.8"/>
<line x1="239.9" y1="151.8" x2="267.1" y2="124.5"/>
<line x1="267.1" y1="124.5" x2="257.2" y2="87.2"/>
<text x="371.680234" y="253.962115" fill="rgb(255,12,12)"  stroke="rgb(255,12,12)" stroke-width="1" font-size="16" >OH</text>
<text x="424.369785" y="204.792564" fill="rgb(255,12,12)"  stroke="rgb(255,12,12)" stroke-width="1" font-size="16" >OH</text>
<text x="158.664817" y="228.546683" fill="rgb(255,12,12)"  stroke="rgb(255,12,12)" stroke-width="1" font-size="16" >OH</text>
<text x="261.133540" y="58.303020" fill="rgb(255,12,12)"  stroke="rgb(255,12,12)" stroke-width="1" font-size="16" >OH</text>
<text x="77.089551" y="247.832397" fill="rgb(255,12,12)"  stroke="rgb(255,12,12)" stroke-width="1" font-size="16" >HO</text>
<text x="290.104969" y="234.676401" fill="rgb(255,12,12)"  stroke="rgb(255,12,12)" stroke-width="1" font-size="16" >HO</text>
<text x="177.019262" y="58.303020" fill="rgb(255,12,12)"  stroke="rgb(255,12,12)" stroke-width="1" font-size="16" >HO</text>
<text x="388.198357" y="99.413461" fill="rgb(255,12,12)"  stroke="rgb(255,12,12)" stroke-width="1" font-size="16" >O</text>
<text x="444.855500" y="118.097298" fill="rgb(255,12,12)"  stroke="rgb(255,12,12)" stroke-width="1" font-size="32" >-</text>
<text x="443.655500" y="132.817298" fill="rgb(255,12,12)"  stroke="rgb(255,12,12)" stroke-width="1" font-size="16" >O</text>
<text x="163.832408" y="107.401866" fill="rgb(255,12,12)"  stroke="rgb(255,12,12)" stroke-width="1" font-size="16" >O</text>
<text x="107.175266" y="59.278029" fill="rgb(255,12,12)"  stroke="rgb(255,12,12)" stroke-width="1" font-size="32" >-</text>
<text x="108.375266" y="73.998029" fill="rgb(255,12,12)"  stroke="rgb(255,12,12)" stroke-width="1" font-size="16" >O</text>
<text x="298.390679" y="177.382515" fill="rgb(255,12,12)"  stroke="rgb(255,12,12)" stroke-width="1" font-size="16" >O</text>
<text x="252.350520" y="235.502675" fill="rgb(255,12,12)"  stroke="rgb(255,12,12)" stroke-width="1" font-size="32" >-</text>
<text x="253.550520" y="221.102675" fill="rgb(255,12,12)"  stroke="rgb(255,12,12)" stroke-width="1" font-size="16" >O</text>
<text x="24.400000" y="195.142846" fill="rgb(255,12,12)"  stroke="rgb(255,12,12)" stroke-width="1" font-size="16" >HO</text>
<text x="74.971429" y="160.091417" fill="rgb(255,12,12)"  stroke="rgb(255,12,12)" stroke-width="1" font-size="16" >O</text>
<text x="151.762123" y="122.834278" fill="rgb(255,12,12)"  stroke="rgb(255,12,12)" stroke-width="1" font-size="16" >O</text>
<text x="282.819254" y="162.701135" fill="rgb(255,12,12)"  stroke="rgb(255,12,12)" stroke-width="1" font-size="16" >O</text>
<text x="352.394520" y="146.935421" fill="rgb(255,12,12)"  stroke="rgb(255,12,12)" stroke-width="1" font-size="16" >O</text>
<text x="199.002282" y="146.588397" fill="rgb(255,12,12)"  stroke="rgb(255,12,12)" stroke-width="1" font-size="16" >O</text>
<text x="335.508806" y="253.962115" fill="rgb(191,191,191)"  stroke="rgb(191,191,191)" stroke-width="1" font-size="16" >H</text>
<text x="405.084071" y="234.676401" fill="rgb(191,191,191)"  stroke="rgb(191,191,191)" stroke-width="1" font-size="16" >H</text>
<text x="177.950531" y="198.662846" fill="rgb(191,191,191)"  stroke="rgb(191,191,191)" stroke-width="1" font-size="16" >H</text>
<text x="325.664798" y="75.594119" fill="rgb(191,191,191)"  stroke="rgb(191,191,191)" stroke-width="1" font-size="16" >H</text>
<text x="125.260980" y="247.832397" fill="rgb(191,191,191)"  stroke="rgb(191,191,191)" stroke-width="1" font-size="16" >H</text>
<text x="282.819254" y="201.272564" fill="rgb(191,191,191)"  stroke="rgb(191,191,191)" stroke-width="1" font-size="16" >H</text>
<text x="223.876401" y="48.320000" fill="rgb(191,191,191)"  stroke="rgb(191,191,191)" stroke-width="1" font-size="16" >H</text>
<text x="200.580646" y="203.533013" fill="rgb(191,191,191)"  stroke="rgb(191,191,191)" stroke-width="1" font-size="16" >H</text>
<text x="284.614338" y="102.216527" fill="rgb(191,191,191)"  stroke="rgb(191,191,191)" stroke-width="1" font-size="16" >H</text>
<text x="424.369785" y="166.221135" fill="rgb(191,191,191)"  stroke="rgb(191,191,191)" stroke-width="1" font-size="16" >H</text>
<text x="89.089551" y="107.401866" fill="rgb(191,191,191)"  stroke="rgb(191,191,191)" stroke-width="1" font-size="16" >H</text>
<text x="226.276401" y="193.828556" fill="rgb(191,191,191)"  stroke="rgb(191,191,191)" stroke-width="1" font-size="16" >H</text>
<text x="55.685714" y="228.546683" fill="rgb(191,191,191)"  stroke="rgb(191,191,191)" stroke-width="1" font-size="16" >H</text>
<text x="302.104969" y="132.817298" fill="rgb(191,191,191)"  stroke="rgb(191,191,191)" stroke-width="1" font-size="16" >H</text>
<text x="161.745143" y="85.577139" fill="rgb(191,191,191)"  stroke="rgb(191,191,191)" stroke-width="1" font-size="16" >H</text>
<text font-size="18.000000" fill ="black" font-family="sans-serif"
x="140.000000" y="20.000000" ></text>
<title> - OBDepict</title>
</svg>
