<?xml version="1.0"?>
<svg xmlns="http://www.w3.org/2000/svg"
xmlns:xlink="http://www.w3.org/1999/xlink" xmlns:cml="http://www.xml-cml.org/schema" width="707.081" height="417.36" x="0" y="0" font-family="sans-serif" stroke="rgb(0,0,0)" stroke-width="1" >
<line x1="60.0" y1="244.5" x2="100.0" y2="244.5"/>
<line x1="60.0" y1="244.5" x2="45.2" y2="218.9"/>
<line x1="141.6" y1="94.6" x2="176.2" y2="114.6"/>
<line x1="141.6" y1="94.6" x2="115.9" y2="109.4"/>
<line x1="641.9" y1="312.8" x2="602.4" y2="306.5"/>
<line x1="641.9" y1="312.8" x2="660.5" y2="289.8"/>
<line x1="477.4" y1="361.1" x2="445.1" y2="337.6"/>
<line x1="477.4" y1="361.1" x2="504.5" y2="349.1"/>
<line x1="236.2" y1="226.6" x2="274.8" y2="236.9"/>
<line x1="236.2" y1="226.6" x2="215.3" y2="247.5"/>
<line x1="397.8" y1="289.1" x2="397.8" y2="289.9"/>
<line x1="393.8" y1="288.7" x2="393.8" y2="290.3"/>
<line x1="389.8" y1="288.3" x2="389.8" y2="290.7"/>
<line x1="385.8" y1="287.9" x2="385.8" y2="291.1"/>
<line x1="381.8" y1="287.5" x2="381.8" y2="291.5"/>
<line x1="377.8" y1="287.1" x2="377.8" y2="291.9"/>
<line x1="373.8" y1="286.7" x2="373.8" y2="292.3"/>
<line x1="361.8" y1="289.5" x2="347.0" y2="315.1"/>
<line x1="86.9" y1="222.5" x2="87.5" y2="222.1"/>
<line x1="88.5" y1="226.2" x2="89.9" y2="225.4"/>
<line x1="90.2" y1="229.8" x2="92.2" y2="228.6"/>
<line x1="91.8" y1="233.5" x2="94.6" y2="231.9"/>
<line x1="93.5" y1="237.2" x2="96.9" y2="235.2"/>
<line x1="95.1" y1="240.8" x2="99.3" y2="238.4"/>
<line x1="96.8" y1="244.5" x2="101.6" y2="241.7"/>
<polygon points="152.993856 128.041016 178.203337 118.105118 174.203337 111.176915 " />
<polygon points="612.004531 331.553822 606.134592 305.100395 598.665948 307.967338 " />
<line x1="442.8" y1="363.1" x2="442.0" y2="363.0"/>
<line x1="443.6" y1="359.1" x2="442.0" y2="359.0"/>
<line x1="444.4" y1="355.2" x2="442.0" y2="355.0"/>
<line x1="445.2" y1="351.3" x2="442.1" y2="350.9"/>
<line x1="446.1" y1="347.3" x2="442.1" y2="346.9"/>
<line x1="446.9" y1="343.4" x2="442.1" y2="342.9"/>
<line x1="447.7" y1="339.5" x2="442.1" y2="338.9"/>
<polygon points="255.889908 255.859322 277.668797 239.737287 272.011943 234.080433 " />
<line x1="74.4" y1="284.9" x2="74.4" y2="284.1"/>
<line x1="78.4" y1="285.3" x2="78.4" y2="283.7"/>
<line x1="82.4" y1="285.7" x2="82.4" y2="283.3"/>
<line x1="86.4" y1="286.1" x2="86.4" y2="282.9"/>
<line x1="90.4" y1="286.5" x2="90.4" y2="282.5"/>
<line x1="94.4" y1="286.9" x2="94.4" y2="282.1"/>
<line x1="98.4" y1="287.3" x2="98.4" y2="281.7"/>
<line x1="100.0" y1="284.5" x2="85.2" y2="310.1"/>
<polygon points="172.993856 66.600000 194.203337 83.464102 198.203337 76.535898 " />
<line x1="196.2" y1="80.0" x2="196.2" y2="50.4"/>
<polygon points="635.127696 271.218776 609.283387 263.075579 608.031911 270.977086 " />
<line x1="608.7" y1="267.0" x2="627.3" y2="244.0"/>
<line x1="122.2" y1="326.9" x2="121.5" y2="326.5"/>
<line x1="124.5" y1="323.6" x2="123.1" y2="322.8"/>
<line x1="126.9" y1="320.3" x2="124.8" y2="319.1"/>
<line x1="129.2" y1="317.1" x2="126.5" y2="315.5"/>
<line x1="131.6" y1="313.8" x2="128.1" y2="311.8"/>
<line x1="133.9" y1="310.5" x2="129.8" y2="308.1"/>
<line x1="136.3" y1="307.3" x2="131.4" y2="304.5"/>
<line x1="134.6" y1="304.5" x2="149.4" y2="330.1"/>
<polygon points="236.203337 53.200000 232.203337 80.000000 240.203337 80.000000 " />
<line x1="236.2" y1="80.0" x2="261.8" y2="65.2"/>
<polygon points="594.437597 221.026005 574.463226 239.336236 580.680394 244.370799 " />
<line x1="577.6" y1="241.9" x2="567.0" y2="214.2"/>
<polygon points="316.893814 162.032253 319.966461 188.954342 327.693868 186.883789 " />
<line x1="323.8" y1="187.9" x2="344.8" y2="167.0"/>
<polygon points="182.682032 307.697089 172.746134 282.487608 165.817931 286.487608 " />
<line x1="169.3" y1="284.5" x2="198.9" y2="284.5"/>
<line x1="278.2" y1="101.5" x2="278.6" y2="102.2"/>
<line x1="274.5" y1="103.1" x2="275.3" y2="104.5"/>
<line x1="270.8" y1="104.8" x2="272.0" y2="106.9"/>
<line x1="267.2" y1="106.5" x2="268.8" y2="109.2"/>
<line x1="263.5" y1="108.1" x2="265.5" y2="111.6"/>
<line x1="259.9" y1="109.8" x2="262.3" y2="113.9"/>
<line x1="256.2" y1="111.4" x2="259.0" y2="116.3"/>
<line x1="256.2" y1="114.6" x2="281.8" y2="129.4"/>
<line x1="530.7" y1="232.4" x2="531.4" y2="232.1"/>
<line x1="531.7" y1="236.3" x2="533.2" y2="235.7"/>
<line x1="532.8" y1="240.2" x2="535.0" y2="239.3"/>
<line x1="533.9" y1="244.1" x2="536.8" y2="242.9"/>
<line x1="534.9" y1="247.9" x2="538.7" y2="246.5"/>
<line x1="536.0" y1="251.8" x2="540.5" y2="250.1"/>
<line x1="537.0" y1="255.7" x2="542.3" y2="253.7"/>
<line x1="540.2" y1="256.2" x2="511.0" y2="251.6"/>
<line x1="369.9" y1="197.8" x2="370.5" y2="198.4"/>
<line x1="366.8" y1="200.4" x2="368.0" y2="201.5"/>
<line x1="363.7" y1="202.9" x2="365.4" y2="204.6"/>
<line x1="360.6" y1="205.5" x2="362.9" y2="207.7"/>
<line x1="357.5" y1="208.0" x2="360.3" y2="210.8"/>
<line x1="354.4" y1="210.5" x2="357.8" y2="213.9"/>
<line x1="351.3" y1="213.1" x2="355.2" y2="217.1"/>
<line x1="352.1" y1="216.2" x2="380.7" y2="223.9"/>
<line x1="260.4" y1="192.0" x2="260.6" y2="191.3"/>
<line x1="264.1" y1="193.5" x2="264.5" y2="191.9"/>
<line x1="267.9" y1="194.9" x2="268.5" y2="192.6"/>
<line x1="271.6" y1="196.3" x2="272.5" y2="193.2"/>
<line x1="275.4" y1="197.7" x2="276.4" y2="193.9"/>
<line x1="279.2" y1="199.1" x2="280.4" y2="194.5"/>
<line x1="282.9" y1="200.6" x2="284.4" y2="195.2"/>
<line x1="285.2" y1="198.3" x2="277.5" y2="169.7"/>
<polygon points="489.551735 313.838255 466.695663 299.283531 463.441770 306.591895 " />
<line x1="465.1" y1="302.9" x2="489.0" y2="285.5"/>
<line x1="455.1" y1="253.9" x2="455.7" y2="254.5"/>
<line x1="452.2" y1="256.6" x2="453.4" y2="257.7"/>
<line x1="449.2" y1="259.3" x2="451.0" y2="260.9"/>
<line x1="446.2" y1="262.0" x2="448.6" y2="264.2"/>
<line x1="443.2" y1="264.7" x2="446.2" y2="267.4"/>
<line x1="440.3" y1="267.4" x2="443.8" y2="270.7"/>
<line x1="437.3" y1="270.1" x2="441.5" y2="273.9"/>
<line x1="438.3" y1="273.2" x2="429.2" y2="245.1"/>
<polygon points="165.783930 217.916886 165.316253 245.009713 173.247812 243.965503 " />
<line x1="169.3" y1="244.5" x2="197.9" y2="252.1"/>
<line x1="236.2" y1="149.3" x2="218.2" y2="172.8"/>
<line x1="236.2" y1="149.3" x2="264.8" y2="156.9"/>
<line x1="534.0" y1="295.7" x2="533.2" y2="325.3"/>
<line x1="534.0" y1="295.7" x2="506.9" y2="283.7"/>
<line x1="332.3" y1="278.6" x2="331.6" y2="278.3"/>
<line x1="334.2" y1="275.1" x2="332.8" y2="274.5"/>
<line x1="336.1" y1="271.6" x2="333.9" y2="270.6"/>
<line x1="338.0" y1="268.0" x2="335.1" y2="266.8"/>
<line x1="339.9" y1="264.5" x2="336.2" y2="262.9"/>
<line x1="341.8" y1="260.9" x2="337.4" y2="259.1"/>
<line x1="343.7" y1="257.4" x2="338.6" y2="255.2"/>
<line x1="341.8" y1="254.8" x2="371.4" y2="254.8"/>
<line x1="401.8" y1="289.5" x2="387.0" y2="263.8"/>
<line x1="438.3" y1="273.2" x2="401.8" y2="289.5"/>
<line x1="401.8" y1="289.5" x2="404.9" y2="318.9"/>
<line x1="416.1" y1="331.4" x2="445.1" y2="337.6"/>
<line x1="445.1" y1="337.6" x2="465.1" y2="302.9"/>
<line x1="465.1" y1="302.9" x2="438.3" y2="273.2"/>
<line x1="236.2" y1="80.0" x2="256.2" y2="114.6"/>
<line x1="256.2" y1="114.6" x2="236.2" y2="149.3"/>
<line x1="236.2" y1="149.3" x2="206.6" y2="149.3"/>
<line x1="191.0" y1="140.3" x2="176.2" y2="114.6"/>
<line x1="176.2" y1="114.6" x2="196.2" y2="80.0"/>
<line x1="196.2" y1="80.0" x2="236.2" y2="80.0"/>
<line x1="577.6" y1="241.9" x2="540.2" y2="256.2"/>
<line x1="540.2" y1="256.2" x2="534.0" y2="295.7"/>
<line x1="534.0" y1="295.7" x2="557.0" y2="314.3"/>
<line x1="574.8" y1="317.1" x2="602.4" y2="306.5"/>
<line x1="602.4" y1="306.5" x2="608.7" y2="267.0"/>
<line x1="608.7" y1="267.0" x2="577.6" y2="241.9"/>
<line x1="100.0" y1="244.5" x2="100.0" y2="284.5"/>
<line x1="100.0" y1="284.5" x2="134.6" y2="304.5"/>
<line x1="134.6" y1="304.5" x2="169.3" y2="284.5"/>
<line x1="169.3" y1="284.5" x2="169.3" y2="244.5"/>
<line x1="169.3" y1="244.5" x2="143.6" y2="229.7"/>
<line x1="125.6" y1="229.7" x2="100.0" y2="244.5"/>
<line x1="274.8" y1="236.9" x2="285.2" y2="198.3"/>
<line x1="285.2" y1="198.3" x2="323.8" y2="187.9"/>
<line x1="323.8" y1="187.9" x2="352.1" y2="216.2"/>
<line x1="352.1" y1="216.2" x2="341.8" y2="254.8"/>
<line x1="341.8" y1="254.8" x2="313.2" y2="262.5"/>
<line x1="295.8" y1="257.8" x2="274.8" y2="236.9"/>
<text x="24.400000" y="218.166592" fill="rgb(255,12,12)"  stroke="rgb(255,12,12)" stroke-width="1" font-size="16" >HO</text>
<text x="91.321304" y="119.441016" fill="rgb(255,12,12)"  stroke="rgb(255,12,12)" stroke-width="1" font-size="16" >HO</text>
<text x="661.080619" y="290.025407" fill="rgb(255,12,12)"  stroke="rgb(255,12,12)" stroke-width="1" font-size="16" >OH</text>
<text x="507.971215" y="353.140674" fill="rgb(255,12,12)"  stroke="rgb(255,12,12)" stroke-width="1" font-size="16" >OH</text>
<text x="326.161674" y="328.922402" fill="rgb(255,12,12)"  stroke="rgb(255,12,12)" stroke-width="1" font-size="16" >HO</text>
<text x="64.400000" y="323.928624" fill="rgb(255,12,12)"  stroke="rgb(255,12,12)" stroke-width="1" font-size="16" >HO</text>
<text x="190.203337" y="48.320000" fill="rgb(255,12,12)"  stroke="rgb(255,12,12)" stroke-width="1" font-size="16" >OH</text>
<text x="627.830464" y="244.260494" fill="rgb(255,12,12)"  stroke="rgb(255,12,12)" stroke-width="1" font-size="16" >OH</text>
<text x="148.641016" y="343.928624" fill="rgb(255,12,12)"  stroke="rgb(255,12,12)" stroke-width="1" font-size="16" >OH</text>
<text x="264.844353" y="68.320000" fill="rgb(255,12,12)"  stroke="rgb(255,12,12)" stroke-width="1" font-size="16" >OH</text>
<text x="547.637092" y="212.830300" fill="rgb(255,12,12)"  stroke="rgb(255,12,12)" stroke-width="1" font-size="16" >HO</text>
<text x="346.114436" y="167.954794" fill="rgb(255,12,12)"  stroke="rgb(255,12,12)" stroke-width="1" font-size="16" >OH</text>
<text x="203.282032" y="289.287608" fill="rgb(255,12,12)"  stroke="rgb(255,12,12)" stroke-width="1" font-size="16" >OH</text>
<text x="284.844353" y="139.441016" fill="rgb(255,12,12)"  stroke="rgb(255,12,12)" stroke-width="1" font-size="16" >OH</text>
<text x="485.121060" y="258.250857" fill="rgb(255,12,12)"  stroke="rgb(255,12,12)" stroke-width="1" font-size="16" >HO</text>
<text x="384.751469" y="231.356098" fill="rgb(255,12,12)"  stroke="rgb(255,12,12)" stroke-width="1" font-size="16" >OH</text>
<text x="410.342812" y="243.489659" fill="rgb(255,12,12)"  stroke="rgb(255,12,12)" stroke-width="1" font-size="16" >HO</text>
<text x="201.919065" y="259.640370" fill="rgb(255,12,12)"  stroke="rgb(255,12,12)" stroke-width="1" font-size="16" >O</text>
<text x="128.641016" y="232.807608" fill="rgb(255,12,12)"  stroke="rgb(255,12,12)" stroke-width="1" font-size="16" >O</text>
<text x="192.603337" y="154.082032" fill="rgb(255,12,12)"  stroke="rgb(255,12,12)" stroke-width="1" font-size="16" >O</text>
<text x="561.457053" y="325.668584" fill="rgb(255,12,12)"  stroke="rgb(255,12,12)" stroke-width="1" font-size="16" >O</text>
<text x="299.524641" y="269.993131" fill="rgb(255,12,12)"  stroke="rgb(255,12,12)" stroke-width="1" font-size="16" >O</text>
<text x="268.840370" y="167.954794" fill="rgb(255,12,12)"  stroke="rgb(255,12,12)" stroke-width="1" font-size="16" >O</text>
<text x="493.829396" y="287.746303" fill="rgb(255,12,12)"  stroke="rgb(255,12,12)" stroke-width="1" font-size="16" >O</text>
<text x="402.342812" y="334.062262" fill="rgb(255,12,12)"  stroke="rgb(255,12,12)" stroke-width="1" font-size="16" >O</text>
<text x="375.761674" y="263.160370" fill="rgb(255,12,12)"  stroke="rgb(255,12,12)" stroke-width="1" font-size="16" >O</text>
<text x="76.400000" y="218.166592" fill="rgb(191,191,191)"  stroke="rgb(191,191,191)" stroke-width="1" font-size="16" >H</text>
<text x="137.962320" y="139.441016" fill="rgb(191,191,191)"  stroke="rgb(191,191,191)" stroke-width="1" font-size="16" >H</text>
<text x="610.734988" y="348.677083" fill="rgb(191,191,191)"  stroke="rgb(191,191,191)" stroke-width="1" font-size="16" >H</text>
<text x="437.287578" y="382.159605" fill="rgb(191,191,191)"  stroke="rgb(191,191,191)" stroke-width="1" font-size="16" >H</text>
<text x="242.956098" y="269.993131" fill="rgb(191,191,191)"  stroke="rgb(191,191,191)" stroke-width="1" font-size="16" >H</text>
<text x="56.400000" y="292.807608" fill="rgb(191,191,191)"  stroke="rgb(191,191,191)" stroke-width="1" font-size="16" >H</text>
<text x="157.962320" y="68.320000" fill="rgb(191,191,191)"  stroke="rgb(191,191,191)" stroke-width="1" font-size="16" >H</text>
<text x="642.165182" y="278.083711" fill="rgb(191,191,191)"  stroke="rgb(191,191,191)" stroke-width="1" font-size="16" >H</text>
<text x="111.041016" y="343.928624" fill="rgb(191,191,191)"  stroke="rgb(191,191,191)" stroke-width="1" font-size="16" >H</text>
<text x="230.203337" y="48.320000" fill="rgb(191,191,191)"  stroke="rgb(191,191,191)" stroke-width="1" font-size="16" >H</text>
<text x="596.744626" y="219.087679" fill="rgb(191,191,191)"  stroke="rgb(191,191,191)" stroke-width="1" font-size="16" >H</text>
<text x="309.877403" y="157.602032" fill="rgb(191,191,191)"  stroke="rgb(191,191,191)" stroke-width="1" font-size="16" >H</text>
<text x="183.282032" y="323.928624" fill="rgb(191,191,191)"  stroke="rgb(191,191,191)" stroke-width="1" font-size="16" >H</text>
<text x="284.844353" y="102.961016" fill="rgb(191,191,191)"  stroke="rgb(191,191,191)" stroke-width="1" font-size="16" >H</text>
<text x="522.293875" y="227.165018" fill="rgb(191,191,191)"  stroke="rgb(191,191,191)" stroke-width="1" font-size="16" >H</text>
<text x="374.398707" y="196.239065" fill="rgb(191,191,191)"  stroke="rgb(191,191,191)" stroke-width="1" font-size="16" >H</text>
<text x="242.956098" y="196.239065" fill="rgb(191,191,191)"  stroke="rgb(191,191,191)" stroke-width="1" font-size="16" >H</text>
<text x="495.610535" y="324.007179" fill="rgb(191,191,191)"  stroke="rgb(191,191,191)" stroke-width="1" font-size="16" >H</text>
<text x="459.068717" y="251.806127" fill="rgb(191,191,191)"  stroke="rgb(191,191,191)" stroke-width="1" font-size="16" >H</text>
<text x="160.460985" y="213.149813" fill="rgb(191,191,191)"  stroke="rgb(191,191,191)" stroke-width="1" font-size="16" >H</text>
<text x="208.252879" y="185.816166" fill="rgb(191,191,191)"  stroke="rgb(191,191,191)" stroke-width="1" font-size="16" >H</text>
<text x="529.324137" y="340.482062" fill="rgb(191,191,191)"  stroke="rgb(191,191,191)" stroke-width="1" font-size="16" >H</text>
<text x="322.854337" y="296.595551" fill="rgb(191,191,191)"  stroke="rgb(191,191,191)" stroke-width="1" font-size="16" >H</text>
<text font-size="18.000000" fill ="black" font-family="sans-serif"
x="140.000000" y="20.000000" ></text>
<title> - OBDepict</title>
</svg>
