<?xml version="1.0"?>
<svg xmlns="http://www.w3.org/2000/svg"
xmlns:xlink="http://www.w3.org/1999/xlink" xmlns:cml="http://www.xml-cml.org/schema" width="339.709" height="222.933" x="0" y="0" font-family="sans-serif" stroke="rgb(0,0,0)" stroke-width="1" >
<line x1="49.9" y1="54.4" x2="68.2" y2="60.3"/>
<line x1="292.0" y1="151.3" x2="277.7" y2="138.4"/>
<line x1="180.8" y1="51.2" x2="142.8" y2="63.5"/>
<line x1="180.8" y1="51.2" x2="210.5" y2="77.9"/>
<line x1="202.2" y1="117.0" x2="210.5" y2="77.9"/>
<line x1="202.2" y1="117.0" x2="231.9" y2="143.8"/>
<line x1="209.6" y1="75.1" x2="237.8" y2="65.9"/>
<line x1="211.5" y1="80.8" x2="239.6" y2="71.6"/>
<line x1="234.9" y1="144.4" x2="228.7" y2="173.4"/>
<line x1="229.0" y1="143.2" x2="222.9" y2="172.1"/>
<line x1="231.9" y1="143.8" x2="260.1" y2="134.7"/>
<line x1="90.4" y1="101.6" x2="130.4" y2="101.6"/>
<line x1="130.4" y1="101.6" x2="142.8" y2="63.5"/>
<line x1="142.8" y1="63.5" x2="110.4" y2="40.0"/>
<line x1="110.4" y1="40.0" x2="86.5" y2="57.4"/>
<line x1="81.3" y1="73.4" x2="90.4" y2="101.6"/>
<text x="16.400000" y="59.470730" fill="rgb(102,102,102)"  stroke="rgb(102,102,102)" stroke-width="1" font-size="16" >H</text>
<text x="28.400000" y="67.150730" fill="rgb(102,102,102)"  stroke="rgb(102,102,102)" stroke-width="1" font-size="13" >3</text>
<text x="34.900000" y="59.470730" fill="rgb(102,102,102)"  stroke="rgb(102,102,102)" stroke-width="1" font-size="16" >C</text>
<text x="293.709053" y="163.011627" fill="rgb(102,102,102)"  stroke="rgb(102,102,102)" stroke-width="1" font-size="16" >CH</text>
<text x="317.709053" y="167.811627" fill="rgb(102,102,102)"  stroke="rgb(102,102,102)" stroke-width="1" font-size="13" >3</text>
<text x="74.142261" y="58.311410" fill="rgb(12,12,255)"  stroke="rgb(12,12,255)" stroke-width="1" font-size="13" >+</text>
<text x="62.442261" y="71.831410" fill="rgb(12,12,255)"  stroke="rgb(12,12,255)" stroke-width="1" font-size="16" >HN</text>
<text x="242.573935" y="73.875275" fill="rgb(255,12,12)"  stroke="rgb(255,12,12)" stroke-width="1" font-size="16" >O</text>
<text x="220.024532" y="187.732987" fill="rgb(255,12,12)"  stroke="rgb(255,12,12)" stroke-width="1" font-size="16" >O</text>
<text x="263.983260" y="139.766403" fill="rgb(255,12,12)"  stroke="rgb(255,12,12)" stroke-width="1" font-size="16" >O</text>
<text font-size="18.000000" fill ="black" font-family="sans-serif"
x="140.000000" y="20.000000" ></text>
<title> - OBDepict</title>
</svg>
