<?xml version="1.0"?>
<svg xmlns="http://www.w3.org/2000/svg"
xmlns:xlink="http://www.w3.org/1999/xlink" xmlns:cml="http://www.xml-cml.org/schema" width="977.144" height="612.466" x="0" y="0" font-family="sans-serif" stroke="rgb(0,0,0)" stroke-width="1" >
<line x1="151.8" y1="196.7" x2="179.1" y2="196.7"/>
<line x1="354.5" y1="254.4" x2="381.7" y2="251.9"/>
<line x1="515.8" y1="239.6" x2="488.7" y2="242.1"/>
<line x1="449.6" y1="282.7" x2="422.8" y2="278.0"/>
<line x1="440.2" y1="257.1" x2="422.8" y2="278.0"/>
<polygon points="370.697504 196.663910 366.640375 171.965927 359.054884 174.507645 " />
<polygon points="466.227782 259.459235 474.354175 235.786203 466.469727 234.431407 " />
<polygon points="447.640839 215.984318 423.967807 207.857925 422.613011 215.742373 " />
<polygon points="451.120947 195.731280 465.210079 148.199194 457.381508 146.551933 " />
<line x1="424.7" y1="251.7" x2="355.5" y2="277.2"/>
<line x1="424.7" y1="251.7" x2="453.1" y2="275.3"/>
<line x1="501.3" y1="151.5" x2="537.6" y2="157.7"/>
<line x1="501.3" y1="151.5" x2="407.0" y2="264.9"/>
<line x1="439.9" y1="257.5" x2="465.4" y2="326.7"/>
<line x1="439.9" y1="257.5" x2="463.4" y2="229.1"/>
<line x1="355.5" y1="277.2" x2="349.3" y2="313.5"/>
<line x1="537.6" y1="157.7" x2="563.1" y2="226.9"/>
<line x1="465.4" y1="326.7" x2="501.7" y2="332.9"/>
<line x1="274.9" y1="215.1" x2="306.8" y2="233.5"/>
<line x1="274.9" y1="215.1" x2="274.9" y2="178.2"/>
<line x1="306.8" y1="233.5" x2="370.7" y2="196.7"/>
<line x1="432.8" y1="107.7" x2="399.4" y2="173.5"/>
<line x1="432.8" y1="107.7" x2="469.7" y2="105.8"/>
<line x1="239.4" y1="70.8" x2="204.8" y2="83.6"/>
<line x1="239.4" y1="70.8" x2="466.2" y2="259.5"/>
<line x1="424.1" y1="244.3" x2="351.4" y2="231.8"/>
<line x1="424.1" y1="244.3" x2="447.6" y2="216.0"/>
<line x1="179.1" y1="159.8" x2="179.1" y2="196.7"/>
<line x1="179.1" y1="159.8" x2="202.7" y2="146.1"/>
<line x1="169.2" y1="307.3" x2="169.2" y2="344.2"/>
<line x1="169.2" y1="307.3" x2="145.6" y2="293.6"/>
<line x1="179.1" y1="196.7" x2="165.4" y2="220.3"/>
<line x1="179.1" y1="196.7" x2="202.7" y2="210.3"/>
<line x1="431.1" y1="283.8" x2="430.8" y2="283.1"/>
<line x1="434.7" y1="282.9" x2="434.1" y2="281.4"/>
<line x1="438.3" y1="282.0" x2="437.4" y2="279.7"/>
<line x1="441.9" y1="281.1" x2="440.8" y2="278.1"/>
<line x1="445.5" y1="280.2" x2="444.1" y2="276.4"/>
<line x1="449.1" y1="279.3" x2="447.4" y2="274.8"/>
<line x1="452.7" y1="278.4" x2="450.7" y2="273.1"/>
<line x1="398.4" y1="242.9" x2="399.2" y2="242.6"/>
<line x1="399.3" y1="246.5" x2="400.8" y2="245.9"/>
<line x1="400.2" y1="250.1" x2="402.5" y2="249.3"/>
<line x1="401.1" y1="253.7" x2="404.1" y2="252.6"/>
<line x1="402.0" y1="257.3" x2="405.8" y2="255.9"/>
<line x1="402.9" y1="260.9" x2="407.4" y2="259.2"/>
<line x1="403.8" y1="264.5" x2="409.1" y2="262.6"/>
<line x1="472.0" y1="251.1" x2="471.2" y2="251.4"/>
<line x1="471.1" y1="247.5" x2="469.6" y2="248.1"/>
<line x1="470.2" y1="243.9" x2="467.9" y2="244.8"/>
<line x1="469.3" y1="240.3" x2="466.3" y2="241.4"/>
<line x1="468.4" y1="236.7" x2="464.6" y2="238.1"/>
<line x1="467.5" y1="233.1" x2="463.0" y2="234.8"/>
<line x1="466.6" y1="229.5" x2="461.3" y2="231.5"/>
<line x1="386.2" y1="153.9" x2="386.8" y2="153.4"/>
<line x1="387.8" y1="157.2" x2="389.2" y2="156.3"/>
<line x1="389.5" y1="160.5" x2="391.5" y2="159.2"/>
<line x1="391.2" y1="163.8" x2="393.9" y2="162.1"/>
<line x1="392.9" y1="167.1" x2="396.2" y2="164.9"/>
<line x1="394.5" y1="170.4" x2="398.6" y2="167.8"/>
<line x1="396.2" y1="173.7" x2="400.9" y2="170.7"/>
<line x1="189.4" y1="332.0" x2="189.8" y2="332.7"/>
<line x1="186.0" y1="333.5" x2="186.8" y2="334.9"/>
<line x1="182.7" y1="335.0" x2="183.9" y2="337.1"/>
<line x1="179.3" y1="336.5" x2="180.9" y2="339.3"/>
<line x1="175.9" y1="338.0" x2="177.9" y2="341.5"/>
<line x1="172.5" y1="339.5" x2="174.9" y2="343.7"/>
<line x1="169.1" y1="341.0" x2="171.9" y2="345.9"/>
<line x1="351.2" y1="311.2" x2="372.2" y2="328.7"/>
<line x1="347.4" y1="315.9" x2="368.4" y2="333.3"/>
<line x1="349.3" y1="313.5" x2="323.7" y2="323.0"/>
<line x1="563.7" y1="224.0" x2="590.5" y2="228.6"/>
<line x1="562.6" y1="229.9" x2="589.5" y2="234.5"/>
<line x1="563.1" y1="226.9" x2="545.7" y2="247.9"/>
<line x1="504.5" y1="331.9" x2="514.0" y2="357.5"/>
<line x1="498.9" y1="334.0" x2="508.4" y2="359.6"/>
<line x1="501.7" y1="332.9" x2="519.2" y2="311.9"/>
<line x1="472.2" y1="104.2" x2="487.0" y2="127.1"/>
<line x1="467.1" y1="107.4" x2="482.0" y2="130.3"/>
<line x1="469.7" y1="105.8" x2="482.1" y2="81.5"/>
<line x1="207.8" y1="84.1" x2="203.1" y2="111.0"/>
<line x1="201.9" y1="83.1" x2="197.2" y2="110.0"/>
<line x1="204.8" y1="83.6" x2="183.8" y2="66.1"/>
<line x1="353.7" y1="233.8" x2="336.2" y2="254.7"/>
<line x1="349.1" y1="229.9" x2="331.6" y2="250.9"/>
<line x1="351.4" y1="231.8" x2="341.9" y2="206.2"/>
<line x1="273.4" y1="180.8" x2="226.1" y2="153.5"/>
<line x1="276.4" y1="175.6" x2="229.1" y2="148.3"/>
<line x1="274.9" y1="178.2" x2="298.5" y2="164.6"/>
<polygon points="127.388697 323.857448 128.613043 348.856481 136.438224 347.193188 " />
<line x1="132.5" y1="348.0" x2="106.6" y2="339.6"/>
<polygon points="100.286612 381.512945 124.440450 388.073649 125.276678 380.117474 " />
<line x1="124.9" y1="384.1" x2="108.8" y2="406.2"/>
<line x1="430.3" y1="193.5" x2="450.5" y2="175.3"/>
<line x1="90.9" y1="552.4" x2="68.0" y2="567.2"/>
<line x1="177.9" y1="413.1" x2="177.5" y2="413.8"/>
<line x1="174.8" y1="411.0" x2="174.1" y2="412.4"/>
<line x1="171.7" y1="409.0" x2="170.6" y2="411.1"/>
<line x1="168.7" y1="406.9" x2="167.2" y2="409.7"/>
<line x1="165.6" y1="404.9" x2="163.7" y2="408.4"/>
<line x1="162.5" y1="402.8" x2="160.3" y2="407.0"/>
<line x1="159.4" y1="400.7" x2="156.8" y2="405.7"/>
<line x1="156.8" y1="402.5" x2="122.4" y2="444.9"/>
<line x1="156.1" y1="546.4" x2="180.4" y2="558.8"/>
<line x1="153.3" y1="551.7" x2="177.7" y2="564.1"/>
<line x1="110.0" y1="249.0" x2="127.7" y2="249.0"/>
<line x1="110.0" y1="255.0" x2="127.7" y2="255.0"/>
<line x1="137.3" y1="224.7" x2="137.3" y2="242.4"/>
<line x1="208.0" y1="279.3" x2="208.0" y2="261.6"/>
<line x1="214.0" y1="279.3" x2="214.0" y2="261.6"/>
<line x1="238.3" y1="252.0" x2="220.6" y2="252.0"/>
<line x1="137.3" y1="279.3" x2="137.3" y2="261.6"/>
<line x1="211.0" y1="224.7" x2="211.0" y2="242.4"/>
<line x1="164.6" y1="252.0" x2="146.9" y2="252.0"/>
<line x1="183.7" y1="252.0" x2="201.4" y2="252.0"/>
<line x1="928.2" y1="156.3" x2="902.9" y2="143.4"/>
<polygon points="924.506939 129.395600 900.751066 140.053391 905.108179 146.762755 " />
<line x1="901.4" y1="190.8" x2="900.9" y2="191.4"/>
<line x1="898.6" y1="188.0" x2="897.6" y2="189.3"/>
<line x1="895.9" y1="185.3" x2="894.4" y2="187.2"/>
<line x1="893.2" y1="182.6" x2="891.2" y2="185.1"/>
<line x1="890.4" y1="179.9" x2="887.9" y2="183.0"/>
<line x1="887.7" y1="177.1" x2="884.7" y2="180.9"/>
<line x1="885.0" y1="174.4" x2="881.4" y2="178.8"/>
<line x1="882.0" y1="175.6" x2="877.6" y2="203.7"/>
<line x1="836.5" y1="188.8" x2="835.7" y2="188.5"/>
<line x1="838.2" y1="185.3" x2="836.7" y2="184.7"/>
<line x1="840.0" y1="181.9" x2="837.7" y2="181.0"/>
<line x1="841.7" y1="178.4" x2="838.8" y2="177.3"/>
<line x1="843.5" y1="175.0" x2="839.8" y2="173.6"/>
<line x1="845.2" y1="171.6" x2="840.8" y2="169.8"/>
<line x1="847.0" y1="168.1" x2="841.8" y2="166.1"/>
<line x1="844.9" y1="165.7" x2="816.9" y2="170.1"/>
<line x1="672.7" y1="117.6" x2="648.1" y2="131.8"/>
<polygon points="842.678587 101.600077 838.914399 127.363634 846.914063 127.290361 " />
<line x1="842.9" y1="127.3" x2="787.3" y2="139.1"/>
<line x1="460.2" y1="294.5" x2="453.1" y2="275.3"/>
<line x1="453.1" y1="275.3" x2="466.2" y2="259.5"/>
<line x1="466.2" y1="259.5" x2="486.5" y2="262.9"/>
<line x1="486.5" y1="262.9" x2="479.1" y2="276.6"/>
<line x1="477.3" y1="264.8" x2="474.6" y2="269.7"/>
<line x1="472.2" y1="284.8" x2="460.2" y2="294.5"/>
<line x1="447.6" y1="216.0" x2="463.4" y2="229.1"/>
<line x1="463.4" y1="229.1" x2="482.7" y2="222.0"/>
<line x1="482.7" y1="222.0" x2="473.0" y2="210.0"/>
<line x1="464.7" y1="203.1" x2="451.1" y2="195.7"/>
<line x1="451.1" y1="195.7" x2="447.6" y2="216.0"/>
<line x1="407.0" y1="264.9" x2="387.7" y2="272.0"/>
<line x1="387.7" y1="272.0" x2="397.4" y2="284.1"/>
<line x1="405.6" y1="290.9" x2="419.3" y2="298.3"/>
<line x1="412.5" y1="286.4" x2="417.4" y2="289.1"/>
<line x1="419.3" y1="298.3" x2="422.8" y2="278.0"/>
<line x1="422.8" y1="278.0" x2="407.0" y2="264.9"/>
<line x1="73.6" y1="457.9" x2="100.8" y2="459.3"/>
<line x1="79.2" y1="465.4" x2="98.1" y2="466.4"/>
<line x1="112.9" y1="469.1" x2="119.9" y2="495.5"/>
<line x1="119.9" y1="495.5" x2="89.0" y2="515.6"/>
<line x1="111.0" y1="492.7" x2="90.1" y2="506.2"/>
<line x1="89.0" y1="515.6" x2="67.8" y2="498.4"/>
<line x1="63.8" y1="483.4" x2="73.6" y2="457.9"/>
<line x1="169.2" y1="344.2" x2="132.5" y2="348.0"/>
<line x1="132.5" y1="348.0" x2="124.9" y2="384.1"/>
<line x1="124.9" y1="384.1" x2="156.8" y2="402.5"/>
<line x1="156.8" y1="402.5" x2="177.1" y2="384.3"/>
<line x1="180.3" y1="369.1" x2="169.2" y2="344.2"/>
<line x1="399.4" y1="173.5" x2="430.3" y2="193.5"/>
<line x1="430.3" y1="193.5" x2="423.2" y2="219.9"/>
<line x1="411.2" y1="229.7" x2="383.9" y2="231.1"/>
<line x1="408.5" y1="222.6" x2="389.5" y2="223.6"/>
<line x1="383.9" y1="231.1" x2="370.7" y2="196.7"/>
<line x1="370.7" y1="196.7" x2="399.4" y2="173.5"/>
<line x1="752.2" y1="178.4" x2="763.7" y2="152.4"/>
<line x1="760.4" y1="136.6" x2="739.3" y2="117.6"/>
<line x1="739.3" y1="117.6" x2="706.0" y2="136.8"/>
<line x1="706.0" y1="136.8" x2="711.9" y2="164.6"/>
<line x1="723.9" y1="175.4" x2="752.2" y2="178.4"/>
<line x1="726.8" y1="168.5" x2="747.0" y2="170.6"/>
<line x1="902.9" y1="143.4" x2="882.0" y2="175.6"/>
<line x1="882.0" y1="175.6" x2="844.9" y2="165.7"/>
<line x1="844.9" y1="165.7" x2="842.9" y2="127.3"/>
<line x1="842.9" y1="127.3" x2="869.4" y2="117.1"/>
<line x1="885.0" y1="121.3" x2="902.9" y2="143.4"/>
<line x1="90.9" y1="552.4" x2="89.0" y2="515.6"/>
<line x1="119.9" y1="495.5" x2="144.2" y2="507.9"/>
<line x1="153.3" y1="521.8" x2="154.7" y2="549.0"/>
<line x1="154.7" y1="549.0" x2="131.8" y2="563.9"/>
<line x1="115.2" y1="564.8" x2="90.9" y2="552.4"/>
<line x1="116.5" y1="557.3" x2="99.5" y2="548.7"/>
<line x1="739.3" y1="117.6" x2="739.3" y2="89.2"/>
<line x1="732.1" y1="111.6" x2="732.1" y2="91.3"/>
<line x1="730.6" y1="74.2" x2="706.0" y2="60.0"/>
<line x1="706.0" y1="60.0" x2="681.4" y2="74.2"/>
<line x1="704.4" y1="69.2" x2="686.9" y2="79.4"/>
<line x1="672.7" y1="89.2" x2="672.7" y2="117.6"/>
<line x1="672.7" y1="117.6" x2="706.0" y2="136.8"/>
<line x1="681.5" y1="114.4" x2="704.4" y2="127.6"/>
<line x1="440.1" y1="300.5" x2="460.2" y2="294.5"/>
<line x1="443.8" y1="291.9" x2="452.4" y2="289.3"/>
<line x1="486.5" y1="262.9" x2="488.7" y2="242.1"/>
<line x1="488.7" y1="242.1" x2="482.7" y2="222.0"/>
<line x1="480.1" y1="238.4" x2="477.5" y2="229.8"/>
<line x1="451.1" y1="195.7" x2="430.3" y2="193.5"/>
<line x1="383.9" y1="231.1" x2="381.7" y2="251.9"/>
<line x1="381.7" y1="251.9" x2="387.7" y2="272.0"/>
<line x1="390.3" y1="255.6" x2="392.9" y2="264.2"/>
<line x1="419.3" y1="298.3" x2="440.1" y2="300.5"/>
<text x="118.604667" y="204.983910" fill="rgb(102,102,102)"  stroke="rgb(102,102,102)" stroke-width="1" font-size="16" >H</text>
<text x="130.604667" y="212.663910" fill="rgb(102,102,102)"  stroke="rgb(102,102,102)" stroke-width="1" font-size="13" >3</text>
<text x="137.104667" y="204.983910" fill="rgb(102,102,102)"  stroke="rgb(102,102,102)" stroke-width="1" font-size="16" >C</text>
<text x="321.400888" y="260.103093" fill="rgb(102,102,102)"  stroke="rgb(102,102,102)" stroke-width="1" font-size="16" >H</text>
<text x="333.400888" y="264.903093" fill="rgb(102,102,102)"  stroke="rgb(102,102,102)" stroke-width="1" font-size="13" >3</text>
<text x="339.900888" y="260.103093" fill="rgb(102,102,102)"  stroke="rgb(102,102,102)" stroke-width="1" font-size="16" >C</text>
<text x="519.392816" y="247.047403" fill="rgb(102,102,102)"  stroke="rgb(102,102,102)" stroke-width="1" font-size="16" >CH</text>
<text x="543.392816" y="254.727403" fill="rgb(102,102,102)"  stroke="rgb(102,102,102)" stroke-width="1" font-size="13" >3</text>
<text x="453.096790" y="289.091206" fill="rgb(102,102,102)"  stroke="rgb(102,102,102)" stroke-width="1" font-size="16" >CH</text>
<text x="477.096790" y="293.891206" fill="rgb(102,102,102)"  stroke="rgb(102,102,102)" stroke-width="1" font-size="13" >3</text>
<text x="440.333181" y="258.013930" fill="rgb(102,102,102)"  stroke="rgb(102,102,102)" stroke-width="1" font-size="16" >CH</text>
<text x="464.333181" y="265.693930" fill="rgb(102,102,102)"  stroke="rgb(102,102,102)" stroke-width="1" font-size="13" >3</text>
<text x="335.381273" y="170.018053" fill="rgb(102,102,102)"  stroke="rgb(102,102,102)" stroke-width="1" font-size="16" >H</text>
<text x="347.381273" y="177.698053" fill="rgb(102,102,102)"  stroke="rgb(102,102,102)" stroke-width="1" font-size="13" >3</text>
<text x="353.881273" y="170.018053" fill="rgb(102,102,102)"  stroke="rgb(102,102,102)" stroke-width="1" font-size="16" >C</text>
<text x="466.472811" y="231.435309" fill="rgb(102,102,102)"  stroke="rgb(102,102,102)" stroke-width="1" font-size="16" >CH</text>
<text x="490.472811" y="239.115309" fill="rgb(102,102,102)"  stroke="rgb(102,102,102)" stroke-width="1" font-size="13" >3</text>
<text x="387.696914" y="218.059289" fill="rgb(102,102,102)"  stroke="rgb(102,102,102)" stroke-width="1" font-size="16" >H</text>
<text x="399.696914" y="225.739289" fill="rgb(102,102,102)"  stroke="rgb(102,102,102)" stroke-width="1" font-size="13" >3</text>
<text x="406.196914" y="218.059289" fill="rgb(102,102,102)"  stroke="rgb(102,102,102)" stroke-width="1" font-size="16" >C</text>
<text x="460.307285" y="131.878569" fill="rgb(102,102,102)"  stroke="rgb(102,102,102)" stroke-width="1" font-size="16" >CH</text>
<text x="484.307285" y="139.558569" fill="rgb(102,102,102)"  stroke="rgb(102,102,102)" stroke-width="1" font-size="13" >3</text>
<text x="371.647819" y="341.929969" fill="rgb(12,12,255)"  stroke="rgb(12,12,255)" stroke-width="1" font-size="16" >NH</text>
<text x="593.489608" y="237.981414" fill="rgb(12,12,255)"  stroke="rgb(12,12,255)" stroke-width="1" font-size="16" >NH</text>
<text x="508.494867" y="372.313806" fill="rgb(12,12,255)"  stroke="rgb(12,12,255)" stroke-width="1" font-size="16" >NH</text>
<text x="483.749653" y="141.539530" fill="rgb(12,12,255)"  stroke="rgb(12,12,255)" stroke-width="1" font-size="16" >NH</text>
<text x="182.967490" y="124.724241" fill="rgb(12,12,255)"  stroke="rgb(12,12,255)" stroke-width="1" font-size="16" >HN</text>
<text x="312.192356" y="264.998757" fill="rgb(12,12,255)"  stroke="rgb(12,12,255)" stroke-width="1" font-size="16" >HN</text>
<text x="181.569111" y="570.580081" fill="rgb(12,12,255)"  stroke="rgb(12,12,255)" stroke-width="1" font-size="16" >NH</text>
<text x="207.417280" y="149.669058" fill="rgb(12,12,255)"  stroke="rgb(12,12,255)" stroke-width="1" font-size="16" >N</text>
<text x="44.738846" y="497.148069" fill="rgb(12,12,255)"  stroke="rgb(12,12,255)" stroke-width="1" font-size="16" >HN</text>
<text x="470.483173" y="286.152718" fill="rgb(12,12,255)"  stroke="rgb(12,12,255)" stroke-width="1" font-size="16" >N</text>
<text x="397.259382" y="293.101568" fill="rgb(12,12,255)"  stroke="rgb(12,12,255)" stroke-width="1" font-size="16" >N</text>
<text x="414.738915" y="233.961182" fill="rgb(12,12,255)"  stroke="rgb(12,12,255)" stroke-width="1" font-size="16" >N</text>
<text x="146.781877" y="520.532439" fill="rgb(12,12,255)"  stroke="rgb(12,12,255)" stroke-width="1" font-size="16" >NH</text>
<text x="117.784555" y="573.922888" fill="rgb(12,12,255)"  stroke="rgb(12,12,255)" stroke-width="1" font-size="16" >N</text>
<text x="463.534322" y="214.048927" fill="rgb(12,12,255)"  stroke="rgb(12,12,255)" stroke-width="1" font-size="16" >NH</text>
<text x="105.580256" y="479.050798" fill="rgb(12,12,255)"  stroke="rgb(12,12,255)" stroke-width="1" font-size="16" >+</text>
<text x="106.780256" y="464.650798" fill="rgb(12,12,255)"  stroke="rgb(12,12,255)" stroke-width="1" font-size="16" >N</text>
<text x="309.898294" y="345.513263" fill="rgb(255,12,12)"  stroke="rgb(255,12,12)" stroke-width="1" font-size="32" >-</text>
<text x="311.098294" y="331.113263" fill="rgb(255,12,12)"  stroke="rgb(255,12,12)" stroke-width="1" font-size="16" >O</text>
<text x="534.765366" y="274.488634" fill="rgb(255,12,12)"  stroke="rgb(255,12,12)" stroke-width="1" font-size="32" >-</text>
<text x="535.965366" y="260.088634" fill="rgb(255,12,12)"  stroke="rgb(255,12,12)" stroke-width="1" font-size="16" >O</text>
<text x="519.311574" y="312.884281" fill="rgb(255,12,12)"  stroke="rgb(255,12,12)" stroke-width="1" font-size="16" >OH</text>
<text x="480.406846" y="81.274975" fill="rgb(255,12,12)"  stroke="rgb(255,12,12)" stroke-width="1" font-size="16" >OH</text>
<text x="160.860270" y="68.320000" fill="rgb(255,12,12)"  stroke="rgb(255,12,12)" stroke-width="1" font-size="16" >HO</text>
<text x="323.009063" y="205.569232" fill="rgb(255,12,12)"  stroke="rgb(255,12,12)" stroke-width="1" font-size="16" >HO</text>
<text x="300.825415" y="168.107342" fill="rgb(255,12,12)"  stroke="rgb(255,12,12)" stroke-width="1" font-size="16" >OH</text>
<text x="81.853933" y="344.949348" fill="rgb(255,12,12)"  stroke="rgb(255,12,12)" stroke-width="1" font-size="16" >HO</text>
<text x="87.583061" y="418.729332" fill="rgb(255,12,12)"  stroke="rgb(255,12,12)" stroke-width="1" font-size="16" >HO</text>
<text x="44.400000" y="577.265694" fill="rgb(255,12,12)"  stroke="rgb(255,12,12)" stroke-width="1" font-size="16" >HO</text>
<text x="96.787575" y="260.298763" fill="rgb(255,12,12)"  stroke="rgb(255,12,12)" stroke-width="1" font-size="16" >O</text>
<text x="131.264143" y="223.422195" fill="rgb(255,12,12)"  stroke="rgb(255,12,12)" stroke-width="1" font-size="16" >OH</text>
<text x="205.017280" y="293.655331" fill="rgb(255,12,12)"  stroke="rgb(255,12,12)" stroke-width="1" font-size="16" >O</text>
<text x="241.893848" y="256.778763" fill="rgb(255,12,12)"  stroke="rgb(255,12,12)" stroke-width="1" font-size="16" >OH</text>
<text x="133.664143" y="293.655331" fill="rgb(255,12,12)"  stroke="rgb(255,12,12)" stroke-width="1" font-size="16" >O</text>
<text x="178.199240" y="382.658605" fill="rgb(255,12,12)"  stroke="rgb(255,12,12)" stroke-width="1" font-size="16" >O</text>
<text x="205.017280" y="223.422195" fill="rgb(255,12,12)"  stroke="rgb(255,12,12)" stroke-width="1" font-size="16" >O</text>
<text x="168.140712" y="260.298763" fill="rgb(255,12,12)"  stroke="rgb(255,12,12)" stroke-width="1" font-size="16" >O</text>
<text x="131.264143" y="260.298763" fill="rgb(255,127,0)"  stroke="rgb(255,127,0)" stroke-width="1" font-size="16" >P</text>
<text x="205.017280" y="260.298763" fill="rgb(255,127,0)"  stroke="rgb(255,127,0)" stroke-width="1" font-size="16" >P</text>
<text x="932.344273" y="172.041308" fill="rgb(102,102,102)"  stroke="rgb(102,102,102)" stroke-width="1" font-size="32" >.</text>
<text x="931.144273" y="165.641308" fill="rgb(102,102,102)"  stroke="rgb(102,102,102)" stroke-width="1" font-size="16" >CH</text>
<text x="955.144273" y="170.441308" fill="rgb(102,102,102)"  stroke="rgb(102,102,102)" stroke-width="1" font-size="13" >2</text>
<text x="615.889608" y="141.600000" fill="rgb(12,12,255)"  stroke="rgb(12,12,255)" stroke-width="1" font-size="16" >H</text>
<text x="627.889608" y="146.400000" fill="rgb(12,12,255)"  stroke="rgb(12,12,255)" stroke-width="1" font-size="13" >2</text>
<text x="634.389608" y="141.600000" fill="rgb(12,12,255)"  stroke="rgb(12,12,255)" stroke-width="1" font-size="16" >N</text>
<text x="669.144983" y="87.520000" fill="rgb(12,12,255)"  stroke="rgb(12,12,255)" stroke-width="1" font-size="16" >N</text>
<text x="733.255734" y="87.520000" fill="rgb(12,12,255)"  stroke="rgb(12,12,255)" stroke-width="1" font-size="16" >N</text>
<text x="710.384167" y="179.160868" fill="rgb(12,12,255)"  stroke="rgb(12,12,255)" stroke-width="1" font-size="16" >N</text>
<text x="764.192495" y="148.094615" fill="rgb(12,12,255)"  stroke="rgb(12,12,255)" stroke-width="1" font-size="16" >N</text>
<text x="860.408400" y="218.340255" fill="rgb(255,12,12)"  stroke="rgb(255,12,12)" stroke-width="1" font-size="16" >HO</text>
<text x="791.396700" y="176.481455" fill="rgb(255,12,12)"  stroke="rgb(255,12,12)" stroke-width="1" font-size="16" >HO</text>
<text x="872.763719" y="121.885668" fill="rgb(255,12,12)"  stroke="rgb(255,12,12)" stroke-width="1" font-size="16" >O</text>
<text x="35.200000" y="59.200000" fill="rgb(239,142,160)"  stroke="rgb(239,142,160)" stroke-width="1" font-size="16" >2+</text>
<text x="34.000000" y="44.800000" fill="rgb(239,142,160)"  stroke="rgb(239,142,160)" stroke-width="1" font-size="16" >Co</text>
<text x="157.042951" y="233.399955" fill="rgb(191,191,191)"  stroke="rgb(191,191,191)" stroke-width="1" font-size="16" >H</text>
<text x="414.890124" y="292.822435" fill="rgb(191,191,191)"  stroke="rgb(191,191,191)" stroke-width="1" font-size="16" >H</text>
<text x="390.589665" y="238.628520" fill="rgb(191,191,191)"  stroke="rgb(191,191,191)" stroke-width="1" font-size="16" >H</text>
<text x="470.204039" y="268.521976" fill="rgb(191,191,191)"  stroke="rgb(191,191,191)" stroke-width="1" font-size="16" >H</text>
<text x="375.671562" y="150.849442" fill="rgb(191,191,191)"  stroke="rgb(191,191,191)" stroke-width="1" font-size="16" >H</text>
<text x="195.136233" y="334.051899" fill="rgb(191,191,191)"  stroke="rgb(191,191,191)" stroke-width="1" font-size="16" >H</text>
<text x="121.258564" y="320.274108" fill="rgb(191,191,191)"  stroke="rgb(191,191,191)" stroke-width="1" font-size="16" >H</text>
<text x="84.584009" y="388.560910" fill="rgb(191,191,191)"  stroke="rgb(191,191,191)" stroke-width="1" font-size="16" >H</text>
<text x="451.655140" y="177.149573" fill="rgb(191,191,191)"  stroke="rgb(191,191,191)" stroke-width="1" font-size="16" >H</text>
<text x="183.497157" y="424.375696" fill="rgb(191,191,191)"  stroke="rgb(191,191,191)" stroke-width="1" font-size="16" >H</text>
<text x="929.134572" y="130.813934" fill="rgb(191,191,191)"  stroke="rgb(191,191,191)" stroke-width="1" font-size="16" >H</text>
<text x="905.857888" y="204.578926" fill="rgb(191,191,191)"  stroke="rgb(191,191,191)" stroke-width="1" font-size="16" >H</text>
<text x="827.562603" y="206.323860" fill="rgb(191,191,191)"  stroke="rgb(191,191,191)" stroke-width="1" font-size="16" >H</text>
<text x="838.962524" y="97.248608" fill="rgb(191,191,191)"  stroke="rgb(191,191,191)" stroke-width="1" font-size="16" >H</text>
<text font-size="18.000000" fill ="black" font-family="sans-serif"
x="140.000000" y="20.000000" ></text>
<title> - OBDepict</title>
</svg>
