<?xml version="1.0"?>
<svg xmlns="http://www.w3.org/2000/svg"
xmlns:xlink="http://www.w3.org/1999/xlink" xmlns:cml="http://www.xml-cml.org/schema" width="567.846" height="378.564" x="0" y="0" font-family="sans-serif" stroke="rgb(0,0,0)" stroke-width="1" >
<line x1="204.2" y1="164.1" x2="187.6" y2="154.5"/>
<line x1="418.6" y1="269.3" x2="398.6" y2="303.9"/>
<line x1="418.6" y1="269.3" x2="458.6" y2="269.3"/>
<line x1="458.6" y1="149.3" x2="493.2" y2="169.3"/>
<line x1="458.6" y1="149.3" x2="458.6" y2="109.3"/>
<line x1="298.6" y1="229.3" x2="263.9" y2="209.3"/>
<line x1="298.6" y1="229.3" x2="298.6" y2="269.3"/>
<line x1="398.6" y1="303.9" x2="358.6" y2="303.9"/>
<line x1="493.2" y1="169.3" x2="493.2" y2="209.3"/>
<line x1="263.9" y1="209.3" x2="263.9" y2="169.3"/>
<line x1="218.6" y1="109.3" x2="178.6" y2="109.3"/>
<line x1="218.6" y1="109.3" x2="233.4" y2="83.6"/>
<line x1="358.6" y1="74.6" x2="398.6" y2="74.6"/>
<line x1="278.6" y1="74.6" x2="249.0" y2="74.6"/>
<polygon points="191.964065 86.072551 175.099963 107.282032 182.028166 111.282032 " />
<polygon points="485.364065 269.282032 458.564065 265.282032 458.564065 273.282032 " />
<line x1="458.6" y1="269.3" x2="458.6" y2="309.3"/>
<line x1="458.6" y1="269.3" x2="458.6" y2="239.7"/>
<polygon points="298.564065 296.082032 302.564065 269.282032 294.564065 269.282032 " />
<line x1="298.6" y1="269.3" x2="258.6" y2="269.3"/>
<line x1="298.6" y1="269.3" x2="328.2" y2="269.3"/>
<polygon points="458.564065 82.482032 454.564065 109.282032 462.564065 109.282032 " />
<line x1="458.6" y1="109.3" x2="498.6" y2="109.3"/>
<line x1="458.6" y1="109.3" x2="429.0" y2="109.3"/>
<line x1="356.0" y1="305.4" x2="341.2" y2="279.8"/>
<line x1="361.2" y1="302.4" x2="346.4" y2="276.8"/>
<line x1="358.6" y1="303.9" x2="343.8" y2="329.6"/>
<line x1="494.7" y1="211.9" x2="469.1" y2="226.7"/>
<line x1="491.7" y1="206.7" x2="466.1" y2="221.5"/>
<line x1="493.2" y1="209.3" x2="518.8" y2="224.1"/>
<line x1="262.4" y1="171.9" x2="236.8" y2="157.1"/>
<line x1="265.4" y1="166.7" x2="239.8" y2="151.9"/>
<line x1="263.9" y1="169.3" x2="289.6" y2="154.5"/>
<line x1="398.6" y1="74.6" x2="413.4" y2="100.3"/>
<line x1="396.0" y1="73.1" x2="410.8" y2="47.5"/>
<line x1="401.2" y1="76.1" x2="416.0" y2="50.5"/>
<line x1="143.9" y1="209.3" x2="169.6" y2="224.1"/>
<line x1="460.1" y1="311.9" x2="434.4" y2="326.7"/>
<line x1="457.1" y1="306.7" x2="431.4" y2="321.5"/>
<line x1="458.6" y1="309.3" x2="484.2" y2="324.1"/>
<line x1="256.0" y1="270.8" x2="241.2" y2="245.1"/>
<line x1="261.2" y1="267.8" x2="246.4" y2="242.1"/>
<line x1="258.6" y1="269.3" x2="243.8" y2="294.9"/>
<line x1="501.2" y1="107.8" x2="516.0" y2="133.4"/>
<line x1="496.0" y1="110.8" x2="510.8" y2="136.4"/>
<line x1="498.6" y1="109.3" x2="513.4" y2="83.6"/>
<line x1="76.1" y1="211.9" x2="50.5" y2="226.7"/>
<line x1="73.1" y1="206.7" x2="47.5" y2="221.5"/>
<line x1="338.6" y1="109.3" x2="298.6" y2="109.3"/>
<line x1="298.6" y1="109.3" x2="278.6" y2="74.6"/>
<line x1="301.8" y1="100.5" x2="287.8" y2="76.2"/>
<line x1="278.6" y1="74.6" x2="298.6" y2="40.0"/>
<line x1="298.6" y1="40.0" x2="338.6" y2="40.0"/>
<line x1="304.6" y1="47.2" x2="332.6" y2="47.2"/>
<line x1="338.6" y1="40.0" x2="358.6" y2="74.6"/>
<line x1="358.6" y1="74.6" x2="338.6" y2="109.3"/>
<line x1="349.3" y1="76.2" x2="335.3" y2="100.5"/>
<line x1="143.9" y1="89.3" x2="178.6" y2="109.3"/>
<line x1="178.6" y1="109.3" x2="178.6" y2="138.9"/>
<line x1="169.6" y1="154.5" x2="143.9" y2="169.3"/>
<line x1="143.9" y1="169.3" x2="109.3" y2="149.3"/>
<line x1="142.3" y1="160.0" x2="118.1" y2="146.0"/>
<line x1="109.3" y1="149.3" x2="109.3" y2="119.7"/>
<line x1="118.3" y1="104.1" x2="143.9" y2="89.3"/>
<line x1="74.6" y1="209.3" x2="74.6" y2="179.7"/>
<line x1="83.6" y1="164.1" x2="109.3" y2="149.3"/>
<line x1="143.9" y1="169.3" x2="143.9" y2="209.3"/>
<line x1="143.9" y1="209.3" x2="118.3" y2="224.1"/>
<line x1="135.1" y1="206.0" x2="116.4" y2="216.8"/>
<line x1="100.3" y1="224.1" x2="74.6" y2="209.3"/>
<text x="207.205081" y="174.082032" fill="rgb(102,102,102)"  stroke="rgb(102,102,102)" stroke-width="1" font-size="16" >CH</text>
<text x="231.205081" y="178.882032" fill="rgb(102,102,102)"  stroke="rgb(102,102,102)" stroke-width="1" font-size="13" >3</text>
<text x="24.400000" y="234.082032" fill="rgb(12,12,255)"  stroke="rgb(12,12,255)" stroke-width="1" font-size="16" >HN</text>
<text x="222.964065" y="82.961016" fill="rgb(12,12,255)"  stroke="rgb(12,12,255)" stroke-width="1" font-size="16" >HN</text>
<text x="93.682032" y="117.602032" fill="rgb(12,12,255)"  stroke="rgb(12,12,255)" stroke-width="1" font-size="16" >HN</text>
<text x="454.964065" y="237.602032" fill="rgb(12,12,255)"  stroke="rgb(12,12,255)" stroke-width="1" font-size="16" >N</text>
<text x="332.564065" y="277.602032" fill="rgb(12,12,255)"  stroke="rgb(12,12,255)" stroke-width="1" font-size="16" >N</text>
<text x="402.964065" y="114.082032" fill="rgb(12,12,255)"  stroke="rgb(12,12,255)" stroke-width="1" font-size="16" >HN</text>
<text x="59.041016" y="177.602032" fill="rgb(12,12,255)"  stroke="rgb(12,12,255)" stroke-width="1" font-size="16" >HN</text>
<text x="103.282032" y="234.082032" fill="rgb(12,12,255)"  stroke="rgb(12,12,255)" stroke-width="1" font-size="16" >N</text>
<text x="172.564065" y="154.082032" fill="rgb(12,12,255)"  stroke="rgb(12,12,255)" stroke-width="1" font-size="16" >N</text>
<text x="333.764065" y="357.764065" fill="rgb(255,12,12)"  stroke="rgb(255,12,12)" stroke-width="1" font-size="32" >-</text>
<text x="334.964065" y="343.364065" fill="rgb(255,12,12)"  stroke="rgb(255,12,12)" stroke-width="1" font-size="16" >O</text>
<text x="523.046097" y="248.482032" fill="rgb(255,12,12)"  stroke="rgb(255,12,12)" stroke-width="1" font-size="32" >-</text>
<text x="521.846097" y="234.082032" fill="rgb(255,12,12)"  stroke="rgb(255,12,12)" stroke-width="1" font-size="16" >O</text>
<text x="225.682032" y="157.602032" fill="rgb(255,12,12)"  stroke="rgb(255,12,12)" stroke-width="1" font-size="16" >O</text>
<text x="293.764065" y="142.882032" fill="rgb(255,12,12)"  stroke="rgb(255,12,12)" stroke-width="1" font-size="32" >-</text>
<text x="292.564065" y="157.602032" fill="rgb(255,12,12)"  stroke="rgb(255,12,12)" stroke-width="1" font-size="16" >O</text>
<text x="412.564065" y="48.320000" fill="rgb(255,12,12)"  stroke="rgb(255,12,12)" stroke-width="1" font-size="16" >O</text>
<text x="173.764065" y="248.482032" fill="rgb(255,12,12)"  stroke="rgb(255,12,12)" stroke-width="1" font-size="32" >-</text>
<text x="172.564065" y="234.082032" fill="rgb(255,12,12)"  stroke="rgb(255,12,12)" stroke-width="1" font-size="16" >O</text>
<text x="420.323048" y="334.082032" fill="rgb(255,12,12)"  stroke="rgb(255,12,12)" stroke-width="1" font-size="16" >O</text>
<text x="487.205081" y="334.082032" fill="rgb(255,12,12)"  stroke="rgb(255,12,12)" stroke-width="1" font-size="16" >OH</text>
<text x="234.964065" y="242.961016" fill="rgb(255,12,12)"  stroke="rgb(255,12,12)" stroke-width="1" font-size="16" >O</text>
<text x="222.964065" y="308.723048" fill="rgb(255,12,12)"  stroke="rgb(255,12,12)" stroke-width="1" font-size="16" >HO</text>
<text x="512.564065" y="148.723048" fill="rgb(255,12,12)"  stroke="rgb(255,12,12)" stroke-width="1" font-size="16" >O</text>
<text x="512.564065" y="82.961016" fill="rgb(255,12,12)"  stroke="rgb(255,12,12)" stroke-width="1" font-size="16" >OH</text>
<text x="192.564065" y="82.961016" fill="rgb(191,191,191)"  stroke="rgb(191,191,191)" stroke-width="1" font-size="16" >H</text>
<text x="492.564065" y="274.082032" fill="rgb(191,191,191)"  stroke="rgb(191,191,191)" stroke-width="1" font-size="16" >H</text>
<text x="292.564065" y="314.082032" fill="rgb(191,191,191)"  stroke="rgb(191,191,191)" stroke-width="1" font-size="16" >H</text>
<text x="452.564065" y="77.602032" fill="rgb(191,191,191)"  stroke="rgb(191,191,191)" stroke-width="1" font-size="16" >H</text>
<text font-size="18.000000" fill ="black" font-family="sans-serif"
x="140.000000" y="20.000000" ></text>
<title> - OBDepict</title>
</svg>
