<?xml version="1.0"?>
<svg xmlns="http://www.w3.org/2000/svg"
xmlns:xlink="http://www.w3.org/1999/xlink" xmlns:cml="http://www.xml-cml.org/schema" width="532.332" height="298.488" x="0" y="0" font-family="sans-serif" stroke="rgb(0,0,0)" stroke-width="1" >
<line x1="170.7" y1="164.8" x2="184.5" y2="188.8"/>
<line x1="48.4" y1="202.5" x2="72.4" y2="188.7"/>
<line x1="72.4" y1="216.4" x2="72.4" y2="188.7"/>
<line x1="397.9" y1="141.2" x2="388.9" y2="114.1"/>
<polygon points="291.637795 170.157347 287.609691 221.949971 295.609690 221.954311 " />
<line x1="165.8" y1="221.1" x2="184.5" y2="188.8"/>
<line x1="165.8" y1="221.1" x2="128.4" y2="221.1"/>
<line x1="109.7" y1="188.7" x2="128.4" y2="221.1"/>
<line x1="109.7" y1="188.7" x2="72.4" y2="188.7"/>
<line x1="205.4" y1="200.4" x2="205.0" y2="201.1"/>
<line x1="202.4" y1="198.2" x2="201.6" y2="199.6"/>
<line x1="199.3" y1="196.0" x2="198.1" y2="198.1"/>
<line x1="196.3" y1="193.8" x2="194.7" y2="196.5"/>
<line x1="193.2" y1="191.5" x2="191.2" y2="195.0"/>
<line x1="190.2" y1="189.3" x2="187.8" y2="193.5"/>
<line x1="187.2" y1="187.1" x2="184.4" y2="192.0"/>
<line x1="184.5" y1="188.8" x2="259.2" y2="188.8"/>
<line x1="396.4" y1="53.1" x2="397.1" y2="53.3"/>
<line x1="394.8" y1="56.6" x2="396.3" y2="57.1"/>
<line x1="393.2" y1="60.2" x2="395.4" y2="60.9"/>
<line x1="391.6" y1="63.7" x2="394.6" y2="64.7"/>
<line x1="390.0" y1="67.2" x2="393.7" y2="68.5"/>
<line x1="388.3" y1="70.8" x2="392.9" y2="72.3"/>
<line x1="386.7" y1="74.3" x2="392.1" y2="76.1"/>
<line x1="478.4" y1="76.3" x2="478.4" y2="77.1"/>
<line x1="474.6" y1="75.9" x2="474.6" y2="77.5"/>
<line x1="470.7" y1="75.5" x2="470.7" y2="77.9"/>
<line x1="466.8" y1="75.1" x2="466.8" y2="78.3"/>
<line x1="463.0" y1="74.7" x2="463.0" y2="78.7"/>
<line x1="459.1" y1="74.3" x2="459.1" y2="79.1"/>
<line x1="455.2" y1="73.9" x2="455.2" y2="79.5"/>
<line x1="453.7" y1="76.7" x2="468.0" y2="51.9"/>
<line x1="128.4" y1="221.1" x2="104.5" y2="234.9"/>
<line x1="128.4" y1="221.1" x2="128.4" y2="248.8"/>
<line x1="259.6" y1="213.6" x2="258.8" y2="213.6"/>
<line x1="260.0" y1="209.7" x2="258.4" y2="209.7"/>
<line x1="260.4" y1="205.8" x2="258.0" y2="205.8"/>
<line x1="260.8" y1="202.0" x2="257.6" y2="202.0"/>
<line x1="261.2" y1="198.1" x2="257.2" y2="198.1"/>
<line x1="261.6" y1="194.2" x2="256.8" y2="194.2"/>
<line x1="262.0" y1="190.4" x2="256.4" y2="190.4"/>
<polygon points="314.078502 119.776856 289.656119 129.275414 293.660078 136.201330 " />
<polygon points="356.485902 107.702828 352.472299 132.771370 360.472298 132.775711 " />
<line x1="311.4" y1="55.4" x2="312.1" y2="55.0"/>
<line x1="313.0" y1="58.9" x2="314.4" y2="58.1"/>
<line x1="314.6" y1="62.5" x2="316.7" y2="61.3"/>
<line x1="316.2" y1="66.0" x2="318.9" y2="64.4"/>
<line x1="317.7" y1="69.6" x2="321.2" y2="67.6"/>
<line x1="319.3" y1="73.1" x2="323.5" y2="70.7"/>
<line x1="320.9" y1="76.7" x2="325.8" y2="73.9"/>
<line x1="324.1" y1="76.6" x2="295.5" y2="76.6"/>
<line x1="312.0" y1="210.5" x2="311.3" y2="210.1"/>
<line x1="314.3" y1="207.3" x2="312.9" y2="206.5"/>
<line x1="316.6" y1="204.2" x2="314.5" y2="203.0"/>
<line x1="318.8" y1="201.0" x2="316.1" y2="199.4"/>
<line x1="321.1" y1="197.9" x2="317.7" y2="195.9"/>
<line x1="323.4" y1="194.7" x2="319.2" y2="192.3"/>
<line x1="325.7" y1="191.6" x2="320.8" y2="188.8"/>
<line x1="324.0" y1="188.9" x2="338.3" y2="213.6"/>
<line x1="324.5" y1="138.0" x2="323.7" y2="138.0"/>
<line x1="324.9" y1="134.3" x2="323.3" y2="134.3"/>
<line x1="325.3" y1="130.5" x2="322.9" y2="130.5"/>
<line x1="325.7" y1="126.8" x2="322.5" y2="126.8"/>
<line x1="326.1" y1="123.0" x2="322.1" y2="123.0"/>
<line x1="326.5" y1="119.3" x2="321.7" y2="119.3"/>
<line x1="326.9" y1="115.6" x2="321.3" y2="115.6"/>
<line x1="72.4" y1="188.7" x2="58.6" y2="164.8"/>
<line x1="226.9" y1="170.1" x2="226.9" y2="132.7"/>
<line x1="226.9" y1="132.7" x2="291.7" y2="132.7"/>
<line x1="291.7" y1="132.7" x2="291.6" y2="170.2"/>
<line x1="291.6" y1="170.2" x2="259.2" y2="188.8"/>
<line x1="259.2" y1="188.8" x2="226.9" y2="170.1"/>
<line x1="356.5" y1="58.0" x2="388.9" y2="76.7"/>
<line x1="388.9" y1="76.7" x2="388.9" y2="114.1"/>
<line x1="388.9" y1="114.1" x2="356.5" y2="132.8"/>
<line x1="356.5" y1="132.8" x2="324.1" y2="114.1"/>
<line x1="324.1" y1="114.1" x2="324.1" y2="76.6"/>
<line x1="324.1" y1="76.6" x2="356.5" y2="58.0"/>
<line x1="356.5" y1="170.2" x2="324.0" y2="188.9"/>
<line x1="324.0" y1="188.9" x2="291.6" y2="170.2"/>
<line x1="291.7" y1="132.7" x2="324.1" y2="114.1"/>
<line x1="356.5" y1="132.8" x2="356.5" y2="170.2"/>
<line x1="453.7" y1="114.1" x2="421.3" y2="132.8"/>
<line x1="421.3" y1="132.8" x2="388.9" y2="114.1"/>
<line x1="388.9" y1="76.7" x2="421.3" y2="58.0"/>
<line x1="421.3" y1="58.0" x2="453.7" y2="76.7"/>
<line x1="453.7" y1="76.7" x2="453.7" y2="114.1"/>
<text x="142.214374" y="164.732945" fill="rgb(102,102,102)"  stroke="rgb(102,102,102)" stroke-width="1" font-size="16" >H</text>
<text x="154.214374" y="172.412945" fill="rgb(102,102,102)"  stroke="rgb(102,102,102)" stroke-width="1" font-size="13" >3</text>
<text x="160.714374" y="164.732945" fill="rgb(102,102,102)"  stroke="rgb(102,102,102)" stroke-width="1" font-size="16" >C</text>
<text x="16.400000" y="212.192373" fill="rgb(102,102,102)"  stroke="rgb(102,102,102)" stroke-width="1" font-size="16" >H</text>
<text x="28.400000" y="216.992373" fill="rgb(102,102,102)"  stroke="rgb(102,102,102)" stroke-width="1" font-size="13" >3</text>
<text x="34.900000" y="212.192373" fill="rgb(102,102,102)"  stroke="rgb(102,102,102)" stroke-width="1" font-size="16" >C</text>
<text x="66.352795" y="230.894682" fill="rgb(102,102,102)"  stroke="rgb(102,102,102)" stroke-width="1" font-size="16" >CH</text>
<text x="90.352795" y="235.694682" fill="rgb(102,102,102)"  stroke="rgb(102,102,102)" stroke-width="1" font-size="13" >3</text>
<text x="395.092739" y="155.580245" fill="rgb(102,102,102)"  stroke="rgb(102,102,102)" stroke-width="1" font-size="16" >CH</text>
<text x="419.092739" y="160.380245" fill="rgb(102,102,102)"  stroke="rgb(102,102,102)" stroke-width="1" font-size="13" >3</text>
<text x="285.595848" y="252.263010" fill="rgb(102,102,102)"  stroke="rgb(102,102,102)" stroke-width="1" font-size="16" >CH</text>
<text x="309.595848" y="257.063010" fill="rgb(102,102,102)"  stroke="rgb(102,102,102)" stroke-width="1" font-size="13" >3</text>
<text x="466.978586" y="51.528165" fill="rgb(255,12,12)"  stroke="rgb(255,12,12)" stroke-width="1" font-size="16" >OH</text>
<text x="122.389479" y="263.288031" fill="rgb(255,12,12)"  stroke="rgb(255,12,12)" stroke-width="1" font-size="16" >OH</text>
<text x="269.842865" y="84.886652" fill="rgb(255,12,12)"  stroke="rgb(255,12,12)" stroke-width="1" font-size="16" >HO</text>
<text x="337.343007" y="227.146561" fill="rgb(255,12,12)"  stroke="rgb(255,12,12)" stroke-width="1" font-size="16" >OH</text>
<text x="38.105884" y="164.672113" fill="rgb(255,12,12)"  stroke="rgb(255,12,12)" stroke-width="1" font-size="16" >HO</text>
<text x="210.834357" y="212.288326" fill="rgb(191,191,191)"  stroke="rgb(191,191,191)" stroke-width="1" font-size="16" >H</text>
<text x="395.152850" y="48.320000" fill="rgb(191,191,191)"  stroke="rgb(191,191,191)" stroke-width="1" font-size="16" >H</text>
<text x="486.331523" y="84.987180" fill="rgb(191,191,191)"  stroke="rgb(191,191,191)" stroke-width="1" font-size="16" >H</text>
<text x="92.436684" y="244.585722" fill="rgb(191,191,191)"  stroke="rgb(191,191,191)" stroke-width="1" font-size="16" >H</text>
<text x="253.152673" y="232.279349" fill="rgb(191,191,191)"  stroke="rgb(191,191,191)" stroke-width="1" font-size="16" >H</text>
<text x="319.121387" y="121.712825" fill="rgb(191,191,191)"  stroke="rgb(191,191,191)" stroke-width="1" font-size="16" >H</text>
<text x="350.492603" y="103.674566" fill="rgb(191,191,191)"  stroke="rgb(191,191,191)" stroke-width="1" font-size="16" >H</text>
<text x="301.221951" y="51.442775" fill="rgb(191,191,191)"  stroke="rgb(191,191,191)" stroke-width="1" font-size="16" >H</text>
<text x="301.090175" y="227.125588" fill="rgb(191,191,191)"  stroke="rgb(191,191,191)" stroke-width="1" font-size="16" >H</text>
<text x="318.055047" y="156.265444" fill="rgb(191,191,191)"  stroke="rgb(191,191,191)" stroke-width="1" font-size="16" >H</text>
<text font-size="18.000000" fill ="black" font-family="sans-serif"
x="140.000000" y="20.000000" ></text>
<title> - OBDepict</title>
</svg>
