<?xml version="1.0"?>
<svg xmlns="http://www.w3.org/2000/svg"
xmlns:xlink="http://www.w3.org/1999/xlink" xmlns:cml="http://www.xml-cml.org/schema" width="461.051" height="200" x="0" y="0" font-family="sans-serif" stroke="rgb(0,0,0)" stroke-width="1" >
<line x1="317.1" y1="80.0" x2="351.8" y2="100.0"/>
<line x1="317.1" y1="80.0" x2="282.5" y2="100.0"/>
<line x1="109.3" y1="160.0" x2="74.6" y2="140.0"/>
<line x1="109.3" y1="160.0" x2="134.9" y2="145.2"/>
<line x1="213.2" y1="100.0" x2="178.6" y2="80.0"/>
<line x1="213.2" y1="100.0" x2="238.8" y2="85.2"/>
<line x1="178.6" y1="80.0" x2="143.9" y2="100.0"/>
<line x1="178.6" y1="80.0" x2="178.6" y2="50.4"/>
<line x1="285.5" y1="100.0" x2="285.5" y2="129.6"/>
<line x1="279.5" y1="100.0" x2="279.5" y2="129.6"/>
<line x1="282.5" y1="100.0" x2="256.9" y2="85.2"/>
<line x1="76.1" y1="142.6" x2="50.5" y2="157.4"/>
<line x1="73.1" y1="137.4" x2="47.5" y2="152.2"/>
<line x1="74.6" y1="140.0" x2="74.6" y2="110.4"/>
<line x1="146.9" y1="100.0" x2="146.9" y2="129.6"/>
<line x1="140.9" y1="100.0" x2="140.9" y2="129.6"/>
<line x1="143.9" y1="100.0" x2="118.3" y2="85.2"/>
<line x1="273.5" y1="145.2" x2="256.9" y2="154.8"/>
<line x1="421.1" y1="140.0" x2="386.4" y2="160.0"/>
<line x1="386.4" y1="160.0" x2="351.8" y2="140.0"/>
<line x1="384.8" y1="150.8" x2="360.6" y2="136.8"/>
<line x1="351.8" y1="140.0" x2="351.8" y2="100.0"/>
<line x1="351.8" y1="100.0" x2="386.4" y2="80.0"/>
<line x1="360.6" y1="103.2" x2="384.8" y2="89.2"/>
<line x1="386.4" y1="80.0" x2="421.1" y2="100.0"/>
<line x1="421.1" y1="100.0" x2="421.1" y2="140.0"/>
<line x1="413.9" y1="106.0" x2="413.9" y2="134.0"/>
<text x="172.564065" y="48.320000" fill="rgb(12,12,255)"  stroke="rgb(12,12,255)" stroke-width="1" font-size="16" >NH</text>
<text x="196.564065" y="56.000000" fill="rgb(12,12,255)"  stroke="rgb(12,12,255)" stroke-width="1" font-size="13" >2</text>
<text x="137.923048" y="144.800000" fill="rgb(12,12,255)"  stroke="rgb(12,12,255)" stroke-width="1" font-size="16" >N</text>
<text x="276.487113" y="144.800000" fill="rgb(12,12,255)"  stroke="rgb(12,12,255)" stroke-width="1" font-size="16" >N</text>
<text x="36.400000" y="164.800000" fill="rgb(255,12,12)"  stroke="rgb(255,12,12)" stroke-width="1" font-size="16" >O</text>
<text x="68.641016" y="108.320000" fill="rgb(255,12,12)"  stroke="rgb(255,12,12)" stroke-width="1" font-size="16" >OH</text>
<text x="93.682032" y="88.320000" fill="rgb(255,12,12)"  stroke="rgb(255,12,12)" stroke-width="1" font-size="16" >HO</text>
<text x="232.246097" y="164.800000" fill="rgb(255,12,12)"  stroke="rgb(255,12,12)" stroke-width="1" font-size="16" >HO</text>
<text x="241.846097" y="88.320000" fill="rgb(178,178,0)"  stroke="rgb(178,178,0)" stroke-width="1" font-size="16" >S</text>
<text font-size="18.000000" fill ="black" font-family="sans-serif"
x="140.000000" y="20.000000" ></text>
<title> - OBDepict</title>
</svg>
