<?xml version="1.0"?>
<svg xmlns="http://www.w3.org/2000/svg"
xmlns:xlink="http://www.w3.org/1999/xlink" xmlns:cml="http://www.xml-cml.org/schema" width="518.86" height="480.155" x="0" y="0" font-family="sans-serif" stroke="rgb(0,0,0)" stroke-width="1" >
<line x1="99.6" y1="432.8" x2="78.6" y2="411.9"/>
<line x1="50.0" y1="419.5" x2="78.6" y2="411.9"/>
<line x1="130.6" y1="316.9" x2="109.7" y2="296.0"/>
<line x1="228.6" y1="218.9" x2="207.7" y2="198.0"/>
<line x1="469.9" y1="85.2" x2="444.2" y2="100.0"/>
<line x1="409.6" y1="50.4" x2="409.6" y2="80.0"/>
<line x1="409.6" y1="189.6" x2="409.6" y2="160.0"/>
<line x1="306.6" y1="96.1" x2="305.8" y2="96.0"/>
<line x1="307.5" y1="92.2" x2="305.9" y2="92.0"/>
<line x1="308.4" y1="88.3" x2="306.0" y2="87.9"/>
<line x1="309.3" y1="84.3" x2="306.2" y2="83.9"/>
<line x1="310.2" y1="80.4" x2="306.3" y2="79.9"/>
<line x1="311.2" y1="76.5" x2="306.4" y2="75.9"/>
<line x1="312.1" y1="72.6" x2="306.5" y2="71.9"/>
<line x1="60.7" y1="344.9" x2="89.0" y2="373.2"/>
<line x1="60.7" y1="344.9" x2="71.1" y2="306.3"/>
<line x1="158.7" y1="247.0" x2="120.0" y2="257.3"/>
<line x1="158.7" y1="247.0" x2="169.0" y2="208.3"/>
<line x1="256.7" y1="149.0" x2="218.0" y2="159.3"/>
<line x1="256.7" y1="149.0" x2="267.0" y2="110.4"/>
<line x1="91.9" y1="374.0" x2="81.5" y2="412.6"/>
<line x1="86.1" y1="372.5" x2="75.7" y2="411.1"/>
<line x1="71.1" y1="306.3" x2="109.7" y2="296.0"/>
<line x1="120.0" y1="257.3" x2="99.1" y2="236.4"/>
<line x1="122.9" y1="258.1" x2="112.6" y2="296.7"/>
<line x1="117.2" y1="256.5" x2="106.8" y2="295.2"/>
<line x1="169.0" y1="208.3" x2="207.7" y2="198.0"/>
<line x1="218.0" y1="159.3" x2="197.1" y2="138.4"/>
<line x1="220.9" y1="160.1" x2="210.6" y2="198.8"/>
<line x1="215.1" y1="158.6" x2="204.8" y2="197.2"/>
<line x1="267.0" y1="110.4" x2="305.7" y2="100.0"/>
<line x1="444.2" y1="140.0" x2="469.9" y2="154.8"/>
<line x1="409.6" y1="80.0" x2="444.2" y2="100.0"/>
<line x1="444.2" y1="100.0" x2="444.2" y2="140.0"/>
<line x1="437.0" y1="106.0" x2="437.0" y2="134.0"/>
<line x1="444.2" y1="140.0" x2="409.6" y2="160.0"/>
<line x1="409.6" y1="160.0" x2="374.9" y2="140.0"/>
<line x1="408.0" y1="150.8" x2="383.7" y2="136.8"/>
<line x1="374.9" y1="140.0" x2="374.9" y2="100.0"/>
<line x1="374.9" y1="100.0" x2="409.6" y2="80.0"/>
<line x1="383.7" y1="103.2" x2="408.0" y2="89.2"/>
<line x1="305.7" y1="100.0" x2="331.3" y2="85.2"/>
<line x1="349.3" y1="85.2" x2="374.9" y2="100.0"/>
<line x1="374.9" y1="140.0" x2="340.3" y2="160.0"/>
<line x1="340.3" y1="160.0" x2="305.7" y2="140.0"/>
<line x1="305.7" y1="140.0" x2="305.7" y2="100.0"/>
<text x="100.921304" y="444.954550" fill="rgb(102,102,102)"  stroke="rgb(102,102,102)" stroke-width="1" font-size="16" >CH</text>
<text x="124.921304" y="449.754550" fill="rgb(102,102,102)"  stroke="rgb(102,102,102)" stroke-width="1" font-size="13" >3</text>
<text x="16.400000" y="427.023040" fill="rgb(102,102,102)"  stroke="rgb(102,102,102)" stroke-width="1" font-size="16" >H</text>
<text x="28.400000" y="431.823040" fill="rgb(102,102,102)"  stroke="rgb(102,102,102)" stroke-width="1" font-size="13" >3</text>
<text x="34.900000" y="427.023040" fill="rgb(102,102,102)"  stroke="rgb(102,102,102)" stroke-width="1" font-size="16" >C</text>
<text x="131.979590" y="329.043451" fill="rgb(102,102,102)"  stroke="rgb(102,102,102)" stroke-width="1" font-size="16" >CH</text>
<text x="155.979590" y="333.843451" fill="rgb(102,102,102)"  stroke="rgb(102,102,102)" stroke-width="1" font-size="13" >3</text>
<text x="229.959179" y="231.063861" fill="rgb(102,102,102)"  stroke="rgb(102,102,102)" stroke-width="1" font-size="16" >CH</text>
<text x="253.959179" y="235.863861" fill="rgb(102,102,102)"  stroke="rgb(102,102,102)" stroke-width="1" font-size="13" >3</text>
<text x="472.859579" y="88.320000" fill="rgb(102,102,102)"  stroke="rgb(102,102,102)" stroke-width="1" font-size="16" >CH</text>
<text x="496.859579" y="96.000000" fill="rgb(102,102,102)"  stroke="rgb(102,102,102)" stroke-width="1" font-size="13" >3</text>
<text x="403.577546" y="48.320000" fill="rgb(102,102,102)"  stroke="rgb(102,102,102)" stroke-width="1" font-size="16" >CH</text>
<text x="427.577546" y="56.000000" fill="rgb(102,102,102)"  stroke="rgb(102,102,102)" stroke-width="1" font-size="13" >3</text>
<text x="403.577546" y="204.800000" fill="rgb(102,102,102)"  stroke="rgb(102,102,102)" stroke-width="1" font-size="16" >CH</text>
<text x="427.577546" y="209.600000" fill="rgb(102,102,102)"  stroke="rgb(102,102,102)" stroke-width="1" font-size="13" >3</text>
<text x="304.875546" y="68.662206" fill="rgb(102,102,102)"  stroke="rgb(102,102,102)" stroke-width="1" font-size="16" >CH</text>
<text x="328.875546" y="76.342206" fill="rgb(102,102,102)"  stroke="rgb(102,102,102)" stroke-width="1" font-size="13" >3</text>
<text x="472.859579" y="164.800000" fill="rgb(255,12,12)"  stroke="rgb(255,12,12)" stroke-width="1" font-size="16" >OH</text>
<text x="334.295514" y="88.320000" fill="rgb(255,12,12)"  stroke="rgb(255,12,12)" stroke-width="1" font-size="16" >O</text>
<text x="88.163809" y="237.357875" fill="rgb(191,191,191)"  stroke="rgb(191,191,191)" stroke-width="1" font-size="16" >H</text>
<text x="186.143399" y="139.378285" fill="rgb(191,191,191)"  stroke="rgb(191,191,191)" stroke-width="1" font-size="16" >H</text>
<text font-size="18.000000" fill ="black" font-family="sans-serif"
x="140.000000" y="20.000000" ></text>
<title> - OBDepict</title>
</svg>
