<?xml version="1.0"?>
<svg xmlns="http://www.w3.org/2000/svg"
xmlns:xlink="http://www.w3.org/1999/xlink" xmlns:cml="http://www.xml-cml.org/schema" width="183.923" height="280" x="0" y="0" font-family="sans-serif" stroke="rgb(0,0,0)" stroke-width="1" >
<line x1="134.9" y1="54.8" x2="118.3" y2="45.2"/>
<line x1="109.3" y1="120.0" x2="134.9" y2="105.2"/>
<line x1="107.8" y1="122.6" x2="73.1" y2="102.6"/>
<line x1="110.8" y1="117.4" x2="76.1" y2="97.4"/>
<line x1="109.3" y1="120.0" x2="109.3" y2="160.0"/>
<line x1="74.6" y1="100.0" x2="49.0" y2="114.8"/>
<line x1="74.6" y1="100.0" x2="74.6" y2="60.0"/>
<line x1="73.1" y1="62.6" x2="47.5" y2="47.8"/>
<line x1="76.1" y1="57.4" x2="50.5" y2="42.6"/>
<line x1="74.6" y1="60.0" x2="100.3" y2="45.2"/>
<line x1="74.6" y1="220.0" x2="109.3" y2="240.0"/>
<line x1="83.4" y1="216.8" x2="107.7" y2="230.8"/>
<line x1="109.3" y1="240.0" x2="143.9" y2="220.0"/>
<line x1="143.9" y1="220.0" x2="143.9" y2="180.0"/>
<line x1="136.7" y1="214.0" x2="136.7" y2="186.0"/>
<line x1="143.9" y1="180.0" x2="109.3" y2="160.0"/>
<line x1="109.3" y1="160.0" x2="74.6" y2="180.0"/>
<line x1="107.7" y1="169.2" x2="83.4" y2="183.2"/>
<line x1="74.6" y1="180.0" x2="74.6" y2="220.0"/>
<text x="137.923048" y="64.800000" fill="rgb(102,102,102)"  stroke="rgb(102,102,102)" stroke-width="1" font-size="16" >CH</text>
<text x="161.923048" y="69.600000" fill="rgb(102,102,102)"  stroke="rgb(102,102,102)" stroke-width="1" font-size="13" >3</text>
<text x="36.400000" y="48.320000" fill="rgb(255,12,12)"  stroke="rgb(255,12,12)" stroke-width="1" font-size="16" >O</text>
<text x="103.282032" y="48.320000" fill="rgb(255,12,12)"  stroke="rgb(255,12,12)" stroke-width="1" font-size="16" >O</text>
<text x="137.923048" y="108.320000" fill="rgb(191,191,191)"  stroke="rgb(191,191,191)" stroke-width="1" font-size="16" >H</text>
<text x="36.400000" y="124.800000" fill="rgb(191,191,191)"  stroke="rgb(191,191,191)" stroke-width="1" font-size="16" >H</text>
<text font-size="18.000000" fill ="black" font-family="sans-serif"
x="140.000000" y="20.000000" ></text>
<title> - OBDepict</title>
</svg>
