<?xml version="1.0"?>
<svg xmlns="http://www.w3.org/2000/svg"
xmlns:xlink="http://www.w3.org/1999/xlink" xmlns:cml="http://www.xml-cml.org/schema" width="668.897" height="443.923" x="0" y="0" font-family="sans-serif" stroke="rgb(0,0,0)" stroke-width="1" >
<line x1="49.0" y1="349.1" x2="74.6" y2="363.9"/>
<line x1="74.6" y1="363.9" x2="109.3" y2="343.9"/>
<line x1="109.3" y1="343.9" x2="143.9" y2="363.9"/>
<line x1="143.9" y1="363.9" x2="178.6" y2="343.9"/>
<line x1="178.6" y1="343.9" x2="213.2" y2="363.9"/>
<line x1="213.2" y1="363.9" x2="213.2" y2="393.5"/>
<line x1="211.7" y1="361.3" x2="246.3" y2="341.3"/>
<line x1="214.7" y1="366.5" x2="249.3" y2="346.5"/>
<line x1="247.8" y1="343.9" x2="273.5" y2="358.7"/>
<line x1="247.8" y1="343.9" x2="247.8" y2="303.9"/>
<line x1="247.8" y1="303.9" x2="213.2" y2="283.9"/>
<line x1="213.2" y1="283.9" x2="187.6" y2="298.7"/>
<line x1="210.2" y1="283.9" x2="210.2" y2="243.9"/>
<line x1="216.2" y1="283.9" x2="216.2" y2="243.9"/>
<line x1="213.2" y1="243.9" x2="187.6" y2="229.1"/>
<line x1="213.2" y1="243.9" x2="247.8" y2="223.9"/>
<line x1="247.8" y1="223.9" x2="247.8" y2="194.3"/>
<line x1="249.3" y1="221.3" x2="284.0" y2="241.3"/>
<line x1="246.3" y1="226.5" x2="281.0" y2="246.5"/>
<line x1="282.5" y1="243.9" x2="282.5" y2="273.5"/>
<line x1="282.5" y1="243.9" x2="317.1" y2="223.9"/>
<line x1="317.1" y1="223.9" x2="317.1" y2="194.3"/>
<line x1="318.6" y1="221.3" x2="353.3" y2="241.3"/>
<line x1="315.6" y1="226.5" x2="350.3" y2="246.5"/>
<line x1="406.4" y1="327.8" x2="386.4" y2="293.2"/>
<line x1="406.4" y1="327.8" x2="446.4" y2="327.8"/>
<line x1="386.4" y1="293.2" x2="406.4" y2="258.6"/>
<line x1="351.8" y1="243.9" x2="351.8" y2="273.5"/>
<line x1="351.8" y1="243.9" x2="386.4" y2="223.9"/>
<line x1="446.4" y1="327.8" x2="466.4" y2="362.5"/>
<line x1="559.6" y1="203.9" x2="525.0" y2="183.9"/>
<line x1="559.6" y1="203.9" x2="559.6" y2="243.9"/>
<line x1="525.0" y1="183.9" x2="525.0" y2="143.9"/>
<line x1="375.7" y1="74.6" x2="335.7" y2="74.6"/>
<line x1="375.7" y1="74.6" x2="390.5" y2="100.3"/>
<line x1="421.1" y1="163.9" x2="455.7" y2="143.9"/>
<line x1="421.1" y1="163.9" x2="421.1" y2="193.5"/>
<line x1="547.2" y1="266.3" x2="546.5" y2="265.9"/>
<line x1="549.5" y1="263.0" x2="548.1" y2="262.2"/>
<line x1="551.9" y1="259.8" x2="549.8" y2="258.6"/>
<line x1="554.2" y1="256.5" x2="551.4" y2="254.9"/>
<line x1="556.5" y1="253.2" x2="553.1" y2="251.2"/>
<line x1="558.9" y1="250.0" x2="554.7" y2="247.6"/>
<line x1="561.2" y1="246.7" x2="556.4" y2="243.9"/>
<line x1="559.6" y1="243.9" x2="594.3" y2="263.9"/>
<line x1="559.6" y1="243.9" x2="530.0" y2="243.9"/>
<line x1="468.8" y1="165.9" x2="468.1" y2="166.3"/>
<line x1="467.2" y1="162.2" x2="465.8" y2="163.0"/>
<line x1="465.5" y1="158.6" x2="463.5" y2="159.8"/>
<line x1="463.9" y1="154.9" x2="461.1" y2="156.5"/>
<line x1="462.2" y1="151.2" x2="458.8" y2="153.2"/>
<line x1="460.6" y1="147.6" x2="456.4" y2="150.0"/>
<line x1="458.9" y1="143.9" x2="454.1" y2="146.7"/>
<line x1="455.7" y1="143.9" x2="435.7" y2="109.3"/>
<line x1="455.7" y1="143.9" x2="481.3" y2="129.1"/>
<line x1="428.8" y1="271.0" x2="428.4" y2="271.7"/>
<line x1="425.5" y1="268.7" x2="424.7" y2="270.1"/>
<line x1="422.3" y1="266.3" x2="421.1" y2="268.4"/>
<line x1="419.0" y1="264.0" x2="417.4" y2="266.7"/>
<line x1="415.7" y1="261.6" x2="413.7" y2="265.1"/>
<line x1="412.5" y1="259.3" x2="410.1" y2="263.4"/>
<line x1="409.2" y1="256.9" x2="406.4" y2="261.8"/>
<line x1="406.4" y1="258.6" x2="386.4" y2="223.9"/>
<line x1="406.4" y1="258.6" x2="432.0" y2="243.8"/>
<line x1="373.3" y1="202.0" x2="374.0" y2="201.6"/>
<line x1="374.9" y1="205.6" x2="376.3" y2="204.8"/>
<line x1="376.6" y1="209.3" x2="378.6" y2="208.1"/>
<line x1="378.2" y1="212.9" x2="381.0" y2="211.3"/>
<line x1="379.9" y1="216.6" x2="383.3" y2="214.6"/>
<line x1="381.5" y1="220.3" x2="385.7" y2="217.9"/>
<line x1="383.2" y1="223.9" x2="388.0" y2="221.1"/>
<line x1="386.4" y1="223.9" x2="412.0" y2="209.1"/>
<line x1="523.5" y1="146.5" x2="497.8" y2="131.7"/>
<line x1="526.5" y1="141.3" x2="500.8" y2="126.5"/>
<line x1="525.0" y1="143.9" x2="550.6" y2="129.1"/>
<line x1="466.4" y1="359.5" x2="496.0" y2="359.5"/>
<line x1="466.4" y1="365.5" x2="496.0" y2="365.5"/>
<line x1="466.4" y1="362.5" x2="451.6" y2="388.1"/>
<line x1="338.3" y1="76.1" x2="323.5" y2="101.8"/>
<line x1="333.1" y1="73.1" x2="318.3" y2="98.8"/>
<line x1="335.7" y1="74.6" x2="320.9" y2="49.0"/>
<line x1="435.7" y1="112.3" x2="406.1" y2="112.3"/>
<line x1="435.7" y1="106.3" x2="406.1" y2="106.3"/>
<line x1="435.7" y1="109.3" x2="450.5" y2="83.6"/>
<line x1="592.8" y1="261.3" x2="618.4" y2="246.5"/>
<line x1="595.8" y1="266.5" x2="621.4" y2="251.7"/>
<line x1="594.3" y1="263.9" x2="594.3" y2="293.5"/>
<text x="16.400000" y="352.243048" fill="rgb(102,102,102)"  stroke="rgb(102,102,102)" stroke-width="1" font-size="16" >H</text>
<text x="28.400000" y="359.923048" fill="rgb(102,102,102)"  stroke="rgb(102,102,102)" stroke-width="1" font-size="13" >3</text>
<text x="34.900000" y="352.243048" fill="rgb(102,102,102)"  stroke="rgb(102,102,102)" stroke-width="1" font-size="16" >C</text>
<text x="496.015242" y="252.243048" fill="rgb(12,12,255)"  stroke="rgb(12,12,255)" stroke-width="1" font-size="16" >H</text>
<text x="508.015242" y="259.923048" fill="rgb(12,12,255)"  stroke="rgb(12,12,255)" stroke-width="1" font-size="13" >2</text>
<text x="514.515242" y="252.243048" fill="rgb(12,12,255)"  stroke="rgb(12,12,255)" stroke-width="1" font-size="16" >N</text>
<text x="392.092194" y="114.082032" fill="rgb(12,12,255)"  stroke="rgb(12,12,255)" stroke-width="1" font-size="16" >N</text>
<text x="484.333210" y="132.243048" fill="rgb(12,12,255)"  stroke="rgb(12,12,255)" stroke-width="1" font-size="16" >N</text>
<text x="435.051178" y="246.884065" fill="rgb(255,12,12)"  stroke="rgb(255,12,12)" stroke-width="1" font-size="16" >OH</text>
<text x="554.815242" y="117.523048" fill="rgb(255,12,12)"  stroke="rgb(255,12,12)" stroke-width="1" font-size="32" >-</text>
<text x="553.615242" y="132.243048" fill="rgb(255,12,12)"  stroke="rgb(255,12,12)" stroke-width="1" font-size="16" >O</text>
<text x="500.410162" y="367.287113" fill="rgb(255,12,12)"  stroke="rgb(255,12,12)" stroke-width="1" font-size="16" >O</text>
<text x="441.610162" y="416.328129" fill="rgb(255,12,12)"  stroke="rgb(255,12,12)" stroke-width="1" font-size="32" >-</text>
<text x="442.810162" y="401.928129" fill="rgb(255,12,12)"  stroke="rgb(255,12,12)" stroke-width="1" font-size="16" >O</text>
<text x="312.092194" y="114.082032" fill="rgb(255,12,12)"  stroke="rgb(255,12,12)" stroke-width="1" font-size="16" >O</text>
<text x="300.092194" y="48.320000" fill="rgb(255,12,12)"  stroke="rgb(255,12,12)" stroke-width="1" font-size="16" >HO</text>
<text x="449.692194" y="82.961016" fill="rgb(255,12,12)"  stroke="rgb(255,12,12)" stroke-width="1" font-size="16" >OH</text>
<text x="622.897275" y="252.243048" fill="rgb(255,12,12)"  stroke="rgb(255,12,12)" stroke-width="1" font-size="16" >O</text>
<text x="588.256258" y="308.723048" fill="rgb(255,12,12)"  stroke="rgb(255,12,12)" stroke-width="1" font-size="16" >OH</text>
<text x="415.051178" y="208.723048" fill="rgb(178,178,0)"  stroke="rgb(178,178,0)" stroke-width="1" font-size="16" >S</text>
<text x="207.205081" y="408.723048" fill="rgb(191,191,191)"  stroke="rgb(191,191,191)" stroke-width="1" font-size="16" >H</text>
<text x="276.487113" y="368.723048" fill="rgb(191,191,191)"  stroke="rgb(191,191,191)" stroke-width="1" font-size="16" >H</text>
<text x="174.964065" y="308.723048" fill="rgb(191,191,191)"  stroke="rgb(191,191,191)" stroke-width="1" font-size="16" >H</text>
<text x="174.964065" y="232.243048" fill="rgb(191,191,191)"  stroke="rgb(191,191,191)" stroke-width="1" font-size="16" >H</text>
<text x="241.846097" y="192.243048" fill="rgb(191,191,191)"  stroke="rgb(191,191,191)" stroke-width="1" font-size="16" >H</text>
<text x="276.487113" y="288.723048" fill="rgb(191,191,191)"  stroke="rgb(191,191,191)" stroke-width="1" font-size="16" >H</text>
<text x="311.128129" y="192.243048" fill="rgb(191,191,191)"  stroke="rgb(191,191,191)" stroke-width="1" font-size="16" >H</text>
<text x="345.769145" y="288.723048" fill="rgb(191,191,191)"  stroke="rgb(191,191,191)" stroke-width="1" font-size="16" >H</text>
<text x="536.015242" y="283.364065" fill="rgb(191,191,191)"  stroke="rgb(191,191,191)" stroke-width="1" font-size="16" >H</text>
<text x="469.692194" y="183.364065" fill="rgb(191,191,191)"  stroke="rgb(191,191,191)" stroke-width="1" font-size="16" >H</text>
<text x="435.051178" y="283.364065" fill="rgb(191,191,191)"  stroke="rgb(191,191,191)" stroke-width="1" font-size="16" >H</text>
<text x="362.810162" y="197.602032" fill="rgb(191,191,191)"  stroke="rgb(191,191,191)" stroke-width="1" font-size="16" >H</text>
<text font-size="18.000000" fill ="black" font-family="sans-serif"
x="140.000000" y="20.000000" ></text>
<title> - OBDepict</title>
</svg>
