<?xml version="1.0"?>
<svg xmlns="http://www.w3.org/2000/svg"
xmlns:xlink="http://www.w3.org/1999/xlink" xmlns:cml="http://www.xml-cml.org/schema" width="757.316" height="722.039" x="0" y="0" font-family="sans-serif" stroke="rgb(0,0,0)" stroke-width="1" >
<line x1="65.2" y1="238.5" x2="80.0" y2="212.8"/>
<line x1="386.7" y1="572.8" x2="357.1" y2="572.8"/>
<line x1="371.9" y1="598.5" x2="357.1" y2="572.8"/>
<polygon points="233.907658 131.572709 224.423034 156.955418 232.248215 158.618712 " />
<polygon points="119.780876 168.654748 121.440319 195.700751 129.265500 194.037457 " />
<line x1="114.6" y1="232.8" x2="114.6" y2="272.8"/>
<line x1="114.6" y1="232.8" x2="80.0" y2="212.8"/>
<line x1="114.6" y1="272.8" x2="149.3" y2="292.8"/>
<line x1="253.2" y1="472.8" x2="253.2" y2="512.8"/>
<line x1="253.2" y1="472.8" x2="218.6" y2="452.8"/>
<line x1="253.2" y1="512.8" x2="278.8" y2="527.6"/>
<line x1="183.9" y1="392.8" x2="183.9" y2="352.8"/>
<line x1="183.9" y1="392.8" x2="209.6" y2="407.6"/>
<line x1="183.9" y1="352.8" x2="158.3" y2="338.0"/>
<line x1="506.4" y1="532.8" x2="506.4" y2="572.8"/>
<line x1="506.4" y1="532.8" x2="480.8" y2="518.0"/>
<line x1="357.1" y1="532.8" x2="357.1" y2="572.8"/>
<line x1="357.1" y1="532.8" x2="382.8" y2="518.0"/>
<line x1="80.0" y1="212.8" x2="50.4" y2="212.8"/>
<line x1="80.0" y1="212.8" x2="80.0" y2="172.8"/>
<polygon points="247.796159 66.232449 238.311535 91.615158 246.136716 93.278452 " />
<polygon points="327.924879 86.935068 307.019600 104.174827 312.964758 109.527872 " />
<line x1="310.0" y1="106.9" x2="338.9" y2="113.0"/>
<line x1="80.0" y1="172.8" x2="54.4" y2="187.6"/>
<line x1="128.1" y1="129.5" x2="145.5" y2="105.6"/>
<line x1="195.9" y1="143.9" x2="217.9" y2="163.7"/>
<polygon points="148.241716 72.470227 173.624425 81.954851 175.287718 74.129670 " />
<line x1="174.5" y1="78.0" x2="165.3" y2="49.9"/>
<line x1="481.4" y1="578.3" x2="481.2" y2="577.5"/>
<line x1="485.4" y1="577.9" x2="485.1" y2="576.3"/>
<line x1="489.4" y1="577.5" x2="488.9" y2="575.2"/>
<line x1="493.4" y1="577.1" x2="492.8" y2="574.0"/>
<line x1="497.4" y1="576.7" x2="496.6" y2="572.8"/>
<line x1="501.4" y1="576.3" x2="500.4" y2="571.6"/>
<line x1="505.4" y1="575.9" x2="504.3" y2="570.4"/>
<line x1="215.6" y1="452.8" x2="215.6" y2="423.2"/>
<line x1="221.6" y1="452.8" x2="221.6" y2="423.2"/>
<line x1="218.6" y1="452.8" x2="192.9" y2="467.6"/>
<line x1="147.8" y1="290.2" x2="173.4" y2="275.4"/>
<line x1="150.8" y1="295.4" x2="176.4" y2="280.6"/>
<line x1="149.3" y1="292.8" x2="149.3" y2="322.4"/>
<line x1="166.1" y1="117.2" x2="144.1" y2="97.4"/>
<polygon points="552.658830 651.330552 538.901628 627.985759 532.684460 633.020322 " />
<line x1="535.8" y1="630.5" x2="525.2" y2="658.1"/>
<polygon points="485.556457 634.819792 503.507465 614.521977 496.798101 610.164864 " />
<line x1="500.2" y1="612.3" x2="470.6" y2="610.8"/>
<line x1="322.5" y1="592.8" x2="337.3" y2="618.5"/>
<line x1="322.5" y1="592.8" x2="287.8" y2="572.8"/>
<line x1="322.5" y1="592.8" x2="357.1" y2="572.8"/>
<line x1="322.5" y1="592.8" x2="307.7" y2="618.5"/>
<line x1="695.5" y1="648.5" x2="711.7" y2="673.3"/>
<line x1="284.8" y1="572.8" x2="284.8" y2="543.2"/>
<line x1="290.8" y1="572.8" x2="290.8" y2="543.2"/>
<line x1="287.8" y1="572.8" x2="262.2" y2="587.6"/>
<line x1="587.8" y1="592.7" x2="588.1" y2="593.4"/>
<line x1="584.0" y1="593.7" x2="584.5" y2="595.2"/>
<line x1="580.1" y1="594.8" x2="580.9" y2="597.0"/>
<line x1="576.2" y1="595.9" x2="577.3" y2="598.8"/>
<line x1="572.3" y1="596.9" x2="573.8" y2="600.6"/>
<line x1="568.4" y1="598.0" x2="570.2" y2="602.5"/>
<line x1="564.6" y1="599.0" x2="566.6" y2="604.3"/>
<line x1="564.1" y1="602.2" x2="587.1" y2="620.8"/>
<line x1="463.2" y1="659.9" x2="447.1" y2="649.5"/>
<line x1="422.3" y1="668.6" x2="432.8" y2="652.5"/>
<line x1="415.2" y1="625.2" x2="431.3" y2="635.6"/>
<line x1="412.0" y1="630.2" x2="428.1" y2="640.6"/>
<line x1="471.8" y1="443.2" x2="471.8" y2="462.4"/>
<line x1="501.4" y1="475.8" x2="482.2" y2="475.8"/>
<line x1="501.4" y1="469.8" x2="482.2" y2="469.8"/>
<line x1="362.2" y1="472.8" x2="381.4" y2="472.8"/>
<line x1="394.8" y1="443.2" x2="394.8" y2="462.4"/>
<line x1="388.8" y1="443.2" x2="388.8" y2="462.4"/>
<line x1="471.8" y1="502.4" x2="471.8" y2="483.2"/>
<line x1="391.8" y1="502.4" x2="391.8" y2="483.2"/>
<line x1="454.5" y1="619.0" x2="444.1" y2="635.1"/>
<line x1="442.2" y1="472.8" x2="461.4" y2="472.8"/>
<line x1="421.4" y1="472.8" x2="402.2" y2="472.8"/>
<line x1="63.7" y1="136.3" x2="93.5" y2="109.5"/>
<line x1="93.5" y1="109.5" x2="128.1" y2="129.5"/>
<line x1="128.1" y1="129.5" x2="119.8" y2="168.7"/>
<line x1="119.8" y1="168.7" x2="80.0" y2="172.8"/>
<line x1="80.0" y1="172.8" x2="63.7" y2="136.3"/>
<line x1="593.1" y1="667.3" x2="594.6" y2="637.8"/>
<line x1="605.2" y1="624.7" x2="633.8" y2="617.0"/>
<line x1="633.8" y1="617.0" x2="655.6" y2="650.6"/>
<line x1="655.6" y1="650.6" x2="637.0" y2="673.6"/>
<line x1="620.7" y1="677.9" x2="593.1" y2="667.3"/>
<line x1="621.4" y1="670.5" x2="601.3" y2="662.8"/>
<line x1="506.4" y1="572.8" x2="500.2" y2="612.3"/>
<line x1="500.2" y1="612.3" x2="535.8" y2="630.5"/>
<line x1="535.8" y1="630.5" x2="564.1" y2="602.2"/>
<line x1="564.1" y1="602.2" x2="550.6" y2="575.8"/>
<line x1="535.6" y1="568.2" x2="506.4" y2="572.8"/>
<line x1="212.5" y1="65.7" x2="242.2" y2="92.4"/>
<line x1="242.2" y1="92.4" x2="233.9" y2="131.6"/>
<line x1="233.9" y1="131.6" x2="195.9" y2="143.9"/>
<line x1="195.9" y1="143.9" x2="166.1" y2="117.2"/>
<line x1="166.1" y1="117.2" x2="174.5" y2="78.0"/>
<line x1="174.5" y1="78.0" x2="212.5" y2="65.7"/>
<line x1="195.9" y1="143.9" x2="187.5" y2="183.1"/>
<line x1="187.5" y1="183.1" x2="149.5" y2="195.4"/>
<line x1="149.5" y1="195.4" x2="119.8" y2="168.7"/>
<line x1="128.1" y1="129.5" x2="166.1" y2="117.2"/>
<line x1="301.7" y1="146.0" x2="263.6" y2="158.3"/>
<line x1="263.6" y1="158.3" x2="233.9" y2="131.6"/>
<line x1="242.2" y1="92.4" x2="280.3" y2="80.1"/>
<line x1="280.3" y1="80.1" x2="310.0" y2="106.9"/>
<line x1="310.0" y1="106.9" x2="301.7" y2="146.0"/>
<line x1="633.8" y1="617.0" x2="647.2" y2="590.7"/>
<line x1="642.9" y1="615.0" x2="652.7" y2="595.7"/>
<line x1="662.3" y1="580.9" x2="691.9" y2="579.3"/>
<line x1="691.9" y1="579.3" x2="708.0" y2="604.1"/>
<line x1="689.1" y1="588.3" x2="700.9" y2="606.4"/>
<line x1="709.0" y1="622.1" x2="695.5" y2="648.5"/>
<line x1="695.5" y1="648.5" x2="655.6" y2="650.6"/>
<line x1="689.2" y1="641.6" x2="661.2" y2="643.1"/>
<text x="36.400000" y="252.276903" fill="rgb(102,102,102)"  stroke="rgb(102,102,102)" stroke-width="1" font-size="16" >H</text>
<text x="48.400000" y="257.076903" fill="rgb(102,102,102)"  stroke="rgb(102,102,102)" stroke-width="1" font-size="13" >3</text>
<text x="54.900000" y="252.276903" fill="rgb(102,102,102)"  stroke="rgb(102,102,102)" stroke-width="1" font-size="16" >C</text>
<text x="391.128129" y="581.155887" fill="rgb(102,102,102)"  stroke="rgb(102,102,102)" stroke-width="1" font-size="16" >CH</text>
<text x="415.128129" y="588.835887" fill="rgb(102,102,102)"  stroke="rgb(102,102,102)" stroke-width="1" font-size="13" >3</text>
<text x="371.128129" y="612.276903" fill="rgb(102,102,102)"  stroke="rgb(102,102,102)" stroke-width="1" font-size="16" >CH</text>
<text x="395.128129" y="617.076903" fill="rgb(102,102,102)"  stroke="rgb(102,102,102)" stroke-width="1" font-size="13" >3</text>
<text x="201.991190" y="175.498613" fill="rgb(102,102,102)"  stroke="rgb(102,102,102)" stroke-width="1" font-size="16" >H</text>
<text x="213.991190" y="180.298613" fill="rgb(102,102,102)"  stroke="rgb(102,102,102)" stroke-width="1" font-size="13" >3</text>
<text x="220.491190" y="175.498613" fill="rgb(102,102,102)"  stroke="rgb(102,102,102)" stroke-width="1" font-size="16" >C</text>
<text x="122.097343" y="212.580653" fill="rgb(102,102,102)"  stroke="rgb(102,102,102)" stroke-width="1" font-size="16" >CH</text>
<text x="146.097343" y="217.380653" fill="rgb(102,102,102)"  stroke="rgb(102,102,102)" stroke-width="1" font-size="13" >3</text>
<text x="711.316491" y="686.839030" fill="rgb(12,12,255)"  stroke="rgb(12,12,255)" stroke-width="1" font-size="16" >NH</text>
<text x="735.316491" y="691.639030" fill="rgb(12,12,255)"  stroke="rgb(12,12,255)" stroke-width="1" font-size="13" >2</text>
<text x="212.564065" y="421.155887" fill="rgb(12,12,255)"  stroke="rgb(12,12,255)" stroke-width="1" font-size="16" >N</text>
<text x="281.846097" y="541.155887" fill="rgb(12,12,255)"  stroke="rgb(12,12,255)" stroke-width="1" font-size="16" >N</text>
<text x="707.690549" y="621.171947" fill="rgb(12,12,255)"  stroke="rgb(12,12,255)" stroke-width="1" font-size="16" >N</text>
<text x="648.359807" y="589.718562" fill="rgb(12,12,255)"  stroke="rgb(12,12,255)" stroke-width="1" font-size="16" >N</text>
<text x="624.412932" y="686.471484" fill="rgb(12,12,255)"  stroke="rgb(12,12,255)" stroke-width="1" font-size="16" >N</text>
<text x="591.563154" y="635.711585" fill="rgb(12,12,255)"  stroke="rgb(12,12,255)" stroke-width="1" font-size="16" >N</text>
<text x="343.118083" y="119.967817" fill="rgb(255,12,12)"  stroke="rgb(255,12,12)" stroke-width="1" font-size="16" >OH</text>
<text x="146.495392" y="48.320000" fill="rgb(255,12,12)"  stroke="rgb(255,12,12)" stroke-width="1" font-size="16" >HO</text>
<text x="168.323048" y="477.635887" fill="rgb(255,12,12)"  stroke="rgb(255,12,12)" stroke-width="1" font-size="16" >HO</text>
<text x="177.923048" y="281.155887" fill="rgb(255,12,12)"  stroke="rgb(255,12,12)" stroke-width="1" font-size="16" >O</text>
<text x="505.858326" y="672.646258" fill="rgb(255,12,12)"  stroke="rgb(255,12,12)" stroke-width="1" font-size="16" >HO</text>
<text x="286.887113" y="632.276903" fill="rgb(255,12,12)"  stroke="rgb(255,12,12)" stroke-width="1" font-size="16" >HO</text>
<text x="237.605081" y="597.635887" fill="rgb(255,12,12)"  stroke="rgb(255,12,12)" stroke-width="1" font-size="16" >HO</text>
<text x="465.968863" y="670.382367" fill="rgb(255,12,12)"  stroke="rgb(255,12,12)" stroke-width="1" font-size="16" >OH</text>
<text x="401.036479" y="682.143628" fill="rgb(255,12,12)"  stroke="rgb(255,12,12)" stroke-width="1" font-size="16" >HO</text>
<text x="401.275217" y="630.331244" fill="rgb(255,12,12)"  stroke="rgb(255,12,12)" stroke-width="1" font-size="16" >O</text>
<text x="465.769145" y="441.155887" fill="rgb(255,12,12)"  stroke="rgb(255,12,12)" stroke-width="1" font-size="16" >OH</text>
<text x="505.769145" y="481.155887" fill="rgb(255,12,12)"  stroke="rgb(255,12,12)" stroke-width="1" font-size="16" >O</text>
<text x="336.169145" y="477.635887" fill="rgb(255,12,12)"  stroke="rgb(255,12,12)" stroke-width="1" font-size="16" >HO</text>
<text x="385.769145" y="441.155887" fill="rgb(255,12,12)"  stroke="rgb(255,12,12)" stroke-width="1" font-size="16" >O</text>
<text x="468.169145" y="517.635887" fill="rgb(255,12,12)"  stroke="rgb(255,12,12)" stroke-width="1" font-size="16" >O</text>
<text x="385.769145" y="517.635887" fill="rgb(255,12,12)"  stroke="rgb(255,12,12)" stroke-width="1" font-size="16" >O</text>
<text x="539.917695" y="574.898508" fill="rgb(255,12,12)"  stroke="rgb(255,12,12)" stroke-width="1" font-size="16" >O</text>
<text x="456.607602" y="618.569982" fill="rgb(255,12,12)"  stroke="rgb(255,12,12)" stroke-width="1" font-size="16" >O</text>
<text x="425.769145" y="477.635887" fill="rgb(255,12,12)"  stroke="rgb(255,12,12)" stroke-width="1" font-size="16" >O</text>
<text x="432.422040" y="648.596805" fill="rgb(255,127,0)"  stroke="rgb(255,127,0)" stroke-width="1" font-size="16" >P</text>
<text x="465.769145" y="477.635887" fill="rgb(255,127,0)"  stroke="rgb(255,127,0)" stroke-width="1" font-size="16" >P</text>
<text x="385.769145" y="481.155887" fill="rgb(255,127,0)"  stroke="rgb(255,127,0)" stroke-width="1" font-size="16" >P</text>
<text x="145.682032" y="337.635887" fill="rgb(178,178,0)"  stroke="rgb(178,178,0)" stroke-width="1" font-size="16" >S</text>
<text x="36.400000" y="217.635887" fill="rgb(191,191,191)"  stroke="rgb(191,191,191)" stroke-width="1" font-size="16" >H</text>
<text x="244.540593" y="61.640901" fill="rgb(191,191,191)"  stroke="rgb(191,191,191)" stroke-width="1" font-size="16" >H</text>
<text x="330.757403" y="85.445557" fill="rgb(191,191,191)"  stroke="rgb(191,191,191)" stroke-width="1" font-size="16" >H</text>
<text x="41.758984" y="197.635887" fill="rgb(191,191,191)"  stroke="rgb(191,191,191)" stroke-width="1" font-size="16" >H</text>
<text x="145.608754" y="105.488165" fill="rgb(191,191,191)"  stroke="rgb(191,191,191)" stroke-width="1" font-size="16" >H</text>
<text x="219.591190" y="175.498613" fill="rgb(191,191,191)"  stroke="rgb(191,191,191)" stroke-width="1" font-size="16" >H</text>
<text x="131.730168" y="78.045793" fill="rgb(191,191,191)"  stroke="rgb(191,191,191)" stroke-width="1" font-size="16" >H</text>
<text x="463.609728" y="585.593650" fill="rgb(191,191,191)"  stroke="rgb(191,191,191)" stroke-width="1" font-size="16" >H</text>
<text x="132.813811" y="98.722940" fill="rgb(191,191,191)"  stroke="rgb(191,191,191)" stroke-width="1" font-size="16" >H</text>
<text x="554.965860" y="666.388879" fill="rgb(191,191,191)"  stroke="rgb(191,191,191)" stroke-width="1" font-size="16" >H</text>
<text x="474.767222" y="650.690243" fill="rgb(191,191,191)"  stroke="rgb(191,191,191)" stroke-width="1" font-size="16" >H</text>
<text x="336.487113" y="632.276903" fill="rgb(191,191,191)"  stroke="rgb(191,191,191)" stroke-width="1" font-size="16" >H</text>
<text x="595.420532" y="596.204051" fill="rgb(191,191,191)"  stroke="rgb(191,191,191)" stroke-width="1" font-size="16" >H</text>
<text font-size="18.000000" fill ="black" font-family="sans-serif"
x="140.000000" y="20.000000" ></text>
<title> - OBDepict</title>
</svg>
