<?xml version="1.0"?>
<svg xmlns="http://www.w3.org/2000/svg"
xmlns:xlink="http://www.w3.org/1999/xlink" xmlns:cml="http://www.xml-cml.org/schema" width="281.871" height="220.035" x="0" y="0" font-family="sans-serif" stroke="rgb(0,0,0)" stroke-width="1" >
<line x1="137.9" y1="144.6" x2="172.6" y2="124.6"/>
<line x1="137.9" y1="144.6" x2="103.3" y2="124.6"/>
<line x1="66.8" y1="140.9" x2="60.6" y2="169.9"/>
<line x1="60.0" y1="76.5" x2="48.0" y2="49.5"/>
<line x1="103.3" y1="124.6" x2="100.2" y2="95.2"/>
<line x1="89.0" y1="82.7" x2="60.0" y2="76.5"/>
<line x1="85.5" y1="89.3" x2="64.4" y2="84.8"/>
<line x1="60.0" y1="76.5" x2="45.2" y2="102.2"/>
<line x1="47.0" y1="118.9" x2="66.8" y2="140.9"/>
<line x1="53.6" y1="115.6" x2="68.1" y2="131.6"/>
<line x1="66.8" y1="140.9" x2="103.3" y2="124.6"/>
<line x1="241.9" y1="84.6" x2="207.2" y2="64.6"/>
<line x1="207.2" y1="64.6" x2="172.6" y2="84.6"/>
<line x1="205.6" y1="73.9" x2="181.4" y2="87.9"/>
<line x1="172.6" y1="84.6" x2="172.6" y2="124.6"/>
<line x1="172.6" y1="124.6" x2="207.2" y2="144.6"/>
<line x1="181.4" y1="121.4" x2="205.6" y2="135.4"/>
<line x1="207.2" y1="144.6" x2="241.9" y2="124.6"/>
<line x1="241.9" y1="124.6" x2="241.9" y2="84.6"/>
<line x1="234.7" y1="118.6" x2="234.7" y2="90.6"/>
<text x="93.125904" y="93.178286" fill="rgb(12,12,255)"  stroke="rgb(12,12,255)" stroke-width="1" font-size="16" >N</text>
<text x="36.400000" y="115.982834" fill="rgb(12,12,255)"  stroke="rgb(12,12,255)" stroke-width="1" font-size="16" >N</text>
<text x="42.848757" y="184.834532" fill="rgb(255,12,12)"  stroke="rgb(255,12,12)" stroke-width="1" font-size="16" >HO</text>
<text x="28.130534" y="48.320000" fill="rgb(255,12,12)"  stroke="rgb(255,12,12)" stroke-width="1" font-size="16" >HO</text>
<text font-size="18.000000" fill ="black" font-family="sans-serif"
x="140.000000" y="20.000000" ></text>
<title> - OBDepict</title>
</svg>
