<?xml version="1.0"?>
<svg xmlns="http://www.w3.org/2000/svg"
xmlns:xlink="http://www.w3.org/1999/xlink" xmlns:cml="http://www.xml-cml.org/schema" width="354.641" height="278.564" x="0" y="0" font-family="sans-serif" stroke="rgb(0,0,0)" stroke-width="1" >
<line x1="254.6" y1="189.6" x2="254.6" y2="160.0"/>
<line x1="160.0" y1="134.6" x2="200.0" y2="134.6"/>
<line x1="160.0" y1="134.6" x2="140.0" y2="169.3"/>
<line x1="200.0" y1="134.6" x2="220.0" y2="100.0"/>
<line x1="140.0" y1="169.3" x2="110.4" y2="169.3"/>
<line x1="254.6" y1="160.0" x2="225.0" y2="160.0"/>
<line x1="254.6" y1="160.0" x2="294.6" y2="160.0"/>
<line x1="254.6" y1="160.0" x2="254.6" y2="130.4"/>
<line x1="232.5" y1="77.6" x2="233.1" y2="78.0"/>
<line x1="230.1" y1="80.9" x2="231.5" y2="81.7"/>
<line x1="227.8" y1="84.2" x2="229.8" y2="85.4"/>
<line x1="225.4" y1="87.4" x2="228.2" y2="89.0"/>
<line x1="223.1" y1="90.7" x2="226.5" y2="92.7"/>
<line x1="220.7" y1="94.0" x2="224.9" y2="96.4"/>
<line x1="218.4" y1="97.2" x2="223.2" y2="100.0"/>
<line x1="220.0" y1="100.0" x2="185.4" y2="80.0"/>
<line x1="220.0" y1="100.0" x2="245.6" y2="114.8"/>
<line x1="297.2" y1="158.5" x2="312.0" y2="184.1"/>
<line x1="292.0" y1="161.5" x2="306.8" y2="187.1"/>
<line x1="294.6" y1="160.0" x2="309.4" y2="134.4"/>
<line x1="186.9" y1="82.6" x2="161.2" y2="97.4"/>
<line x1="183.9" y1="77.4" x2="158.2" y2="92.2"/>
<line x1="185.4" y1="80.0" x2="185.4" y2="50.4"/>
<line x1="82.6" y1="202.4" x2="97.4" y2="228.1"/>
<line x1="77.4" y1="205.4" x2="92.2" y2="231.1"/>
<line x1="80.0" y1="203.9" x2="50.4" y2="203.9"/>
<line x1="80.0" y1="203.9" x2="94.8" y2="178.3"/>
<text x="248.641016" y="204.800000" fill="rgb(102,102,102)"  stroke="rgb(102,102,102)" stroke-width="1" font-size="16" >CH</text>
<text x="272.641016" y="209.600000" fill="rgb(102,102,102)"  stroke="rgb(102,102,102)" stroke-width="1" font-size="13" >3</text>
<text x="94.000000" y="243.364065" fill="rgb(12,12,255)"  stroke="rgb(12,12,255)" stroke-width="1" font-size="16" >NH</text>
<text x="16.400000" y="212.243048" fill="rgb(12,12,255)"  stroke="rgb(12,12,255)" stroke-width="1" font-size="16" >H</text>
<text x="28.400000" y="219.923048" fill="rgb(12,12,255)"  stroke="rgb(12,12,255)" stroke-width="1" font-size="13" >2</text>
<text x="34.900000" y="212.243048" fill="rgb(12,12,255)"  stroke="rgb(12,12,255)" stroke-width="1" font-size="16" >N</text>
<text x="84.400000" y="177.602032" fill="rgb(12,12,255)"  stroke="rgb(12,12,255)" stroke-width="1" font-size="16" >HN</text>
<text x="248.641016" y="128.320000" fill="rgb(12,12,255)"  stroke="rgb(12,12,255)" stroke-width="1" font-size="16" >NH</text>
<text x="308.641016" y="199.441016" fill="rgb(255,12,12)"  stroke="rgb(255,12,12)" stroke-width="1" font-size="16" >O</text>
<text x="308.641016" y="133.678984" fill="rgb(255,12,12)"  stroke="rgb(255,12,12)" stroke-width="1" font-size="16" >OH</text>
<text x="147.117968" y="104.800000" fill="rgb(255,12,12)"  stroke="rgb(255,12,12)" stroke-width="1" font-size="16" >O</text>
<text x="179.358984" y="48.320000" fill="rgb(255,12,12)"  stroke="rgb(255,12,12)" stroke-width="1" font-size="16" >OH</text>
<text x="211.041016" y="168.320000" fill="rgb(191,191,191)"  stroke="rgb(191,191,191)" stroke-width="1" font-size="16" >H</text>
<text x="234.000000" y="73.678984" fill="rgb(191,191,191)"  stroke="rgb(191,191,191)" stroke-width="1" font-size="16" >H</text>
<text font-size="18.000000" fill ="black" font-family="sans-serif"
x="140.000000" y="20.000000" ></text>
<title> - OBDepict</title>
</svg>
