<?xml version="1.0"?>
<svg xmlns="http://www.w3.org/2000/svg"
xmlns:xlink="http://www.w3.org/1999/xlink" xmlns:cml="http://www.xml-cml.org/schema" width="1025.38" height="561.876" x="0" y="0" font-family="sans-serif" stroke="rgb(0,0,0)" stroke-width="1" >
<line x1="43.1" y1="307.7" x2="52.0" y2="335.1"/>
<line x1="709.8" y1="115.6" x2="731.2" y2="134.9"/>
<line x1="703.8" y1="143.8" x2="731.2" y2="134.9"/>
<line x1="52.0" y1="335.1" x2="90.1" y2="343.2"/>
<line x1="90.1" y1="343.2" x2="116.1" y2="314.2"/>
<line x1="116.1" y1="314.2" x2="154.2" y2="322.3"/>
<line x1="154.2" y1="322.3" x2="180.2" y2="293.4"/>
<line x1="180.2" y1="293.4" x2="218.3" y2="301.5"/>
<line x1="218.3" y1="301.5" x2="244.4" y2="272.6"/>
<line x1="244.4" y1="272.6" x2="282.4" y2="280.7"/>
<line x1="282.4" y1="280.7" x2="308.5" y2="251.8"/>
<line x1="308.5" y1="251.8" x2="346.5" y2="259.8"/>
<line x1="346.5" y1="259.8" x2="372.6" y2="230.9"/>
<line x1="372.6" y1="230.9" x2="410.6" y2="239.0"/>
<line x1="410.6" y1="239.0" x2="436.7" y2="210.1"/>
<line x1="436.7" y1="210.1" x2="474.8" y2="218.2"/>
<line x1="474.8" y1="218.2" x2="500.8" y2="189.3"/>
<line x1="643.0" y1="81.7" x2="681.1" y2="89.8"/>
<line x1="643.0" y1="81.7" x2="617.0" y2="110.6"/>
<line x1="681.1" y1="89.8" x2="700.4" y2="68.4"/>
<line x1="603.0" y1="176.5" x2="564.9" y2="168.4"/>
<line x1="603.0" y1="176.5" x2="622.2" y2="155.1"/>
<line x1="564.9" y1="168.4" x2="545.6" y2="189.8"/>
<line x1="725.1" y1="351.0" x2="763.1" y2="359.1"/>
<line x1="725.1" y1="351.0" x2="716.2" y2="323.6"/>
<line x1="755.3" y1="208.9" x2="731.2" y2="134.9"/>
<line x1="755.3" y1="208.9" x2="736.0" y2="230.3"/>
<line x1="755.0" y1="335.5" x2="755.8" y2="335.2"/>
<line x1="755.9" y1="339.3" x2="757.4" y2="338.8"/>
<line x1="756.7" y1="343.1" x2="759.0" y2="342.4"/>
<line x1="757.5" y1="347.0" x2="760.6" y2="346.0"/>
<line x1="758.3" y1="350.8" x2="762.1" y2="349.6"/>
<line x1="759.2" y1="354.6" x2="763.7" y2="353.1"/>
<line x1="760.0" y1="358.4" x2="765.3" y2="356.7"/>
<line x1="619.8" y1="109.7" x2="628.7" y2="137.0"/>
<line x1="614.1" y1="111.5" x2="623.0" y2="138.9"/>
<line x1="617.0" y1="110.6" x2="588.8" y2="104.6"/>
<line x1="497.9" y1="190.2" x2="489.0" y2="162.8"/>
<line x1="503.7" y1="188.3" x2="494.8" y2="160.9"/>
<line x1="500.8" y1="189.3" x2="529.0" y2="195.2"/>
<polygon points="786.549197 438.387047 798.411250 414.823673 790.802798 412.351537 " />
<line x1="794.6" y1="413.6" x2="813.9" y2="435.0"/>
<polygon points="732.977147 397.757855 759.052822 401.757855 759.052822 393.757855 " />
<line x1="759.1" y1="397.8" x2="744.7" y2="422.7"/>
<polygon points="782.039205 97.878658 756.003696 102.132259 758.475832 109.740711 " />
<line x1="757.2" y1="105.9" x2="745.2" y2="68.9"/>
<line x1="757.2" y1="105.9" x2="731.2" y2="134.9"/>
<line x1="757.2" y1="105.9" x2="778.6" y2="125.2"/>
<line x1="960.9" y1="485.5" x2="971.2" y2="512.4"/>
<line x1="744.6" y1="71.9" x2="716.4" y2="65.9"/>
<line x1="745.8" y1="66.0" x2="717.7" y2="60.0"/>
<line x1="745.2" y1="68.9" x2="764.5" y2="47.5"/>
<line x1="836.2" y1="365.2" x2="836.8" y2="365.7"/>
<line x1="833.4" y1="367.9" x2="834.6" y2="369.0"/>
<line x1="830.6" y1="370.7" x2="832.5" y2="372.2"/>
<line x1="827.8" y1="373.4" x2="830.3" y2="375.5"/>
<line x1="825.1" y1="376.2" x2="828.1" y2="378.7"/>
<line x1="822.3" y1="378.9" x2="826.0" y2="382.0"/>
<line x1="819.5" y1="381.7" x2="823.8" y2="385.2"/>
<line x1="820.6" y1="384.7" x2="856.9" y2="429.4"/>
<line x1="700.7" y1="460.3" x2="700.7" y2="441.6"/>
<line x1="671.9" y1="431.5" x2="690.6" y2="431.5"/>
<line x1="703.7" y1="402.7" x2="703.7" y2="421.3"/>
<line x1="697.7" y1="402.7" x2="697.7" y2="421.3"/>
<line x1="669.0" y1="334.0" x2="672.9" y2="315.8"/>
<line x1="647.4" y1="296.9" x2="665.7" y2="300.8"/>
<line x1="646.2" y1="302.8" x2="664.4" y2="306.7"/>
<line x1="663.0" y1="223.7" x2="681.2" y2="227.6"/>
<line x1="700.1" y1="202.2" x2="696.2" y2="220.4"/>
<line x1="694.2" y1="200.9" x2="690.3" y2="219.2"/>
<line x1="703.1" y1="311.8" x2="684.9" y2="308.0"/>
<line x1="719.3" y1="235.7" x2="701.0" y2="231.8"/>
<line x1="729.5" y1="431.5" x2="710.8" y2="431.5"/>
<line x1="680.9" y1="277.7" x2="677.1" y2="296.0"/>
<line x1="685.2" y1="257.9" x2="689.0" y2="239.6"/>
<line x1="859.6" y1="482.7" x2="867.0" y2="454.9"/>
<line x1="879.7" y1="444.6" x2="908.5" y2="443.1"/>
<line x1="908.5" y1="443.1" x2="922.4" y2="479.5"/>
<line x1="922.4" y1="479.5" x2="900.1" y2="497.6"/>
<line x1="883.7" y1="498.4" x2="859.6" y2="482.7"/>
<line x1="885.9" y1="491.2" x2="868.5" y2="480.0"/>
<line x1="763.1" y1="359.1" x2="759.1" y2="397.8"/>
<line x1="759.1" y1="397.8" x2="794.6" y2="413.6"/>
<line x1="794.6" y1="413.6" x2="820.6" y2="384.7"/>
<line x1="820.6" y1="384.7" x2="806.2" y2="359.7"/>
<line x1="791.3" y1="353.1" x2="763.1" y2="359.1"/>
<line x1="908.5" y1="443.1" x2="926.6" y2="420.7"/>
<line x1="917.9" y1="443.0" x2="930.9" y2="426.9"/>
<line x1="943.0" y1="414.5" x2="971.4" y2="419.0"/>
<line x1="971.4" y1="419.0" x2="981.8" y2="445.8"/>
<line x1="966.9" y1="427.1" x2="974.3" y2="446.5"/>
<line x1="979.0" y1="463.2" x2="960.9" y2="485.5"/>
<line x1="960.9" y1="485.5" x2="922.4" y2="479.5"/>
<line x1="956.1" y1="477.5" x2="929.5" y2="473.3"/>
<text x="16.400000" y="306.380038" fill="rgb(102,102,102)"  stroke="rgb(102,102,102)" stroke-width="1" font-size="16" >H</text>
<text x="28.400000" y="314.060038" fill="rgb(102,102,102)"  stroke="rgb(102,102,102)" stroke-width="1" font-size="13" >3</text>
<text x="34.900000" y="306.380038" fill="rgb(102,102,102)"  stroke="rgb(102,102,102)" stroke-width="1" font-size="16" >C</text>
<text x="678.675531" y="117.137038" fill="rgb(102,102,102)"  stroke="rgb(102,102,102)" stroke-width="1" font-size="16" >H</text>
<text x="690.675531" y="124.817038" fill="rgb(102,102,102)"  stroke="rgb(102,102,102)" stroke-width="1" font-size="13" >3</text>
<text x="697.175531" y="117.137038" fill="rgb(102,102,102)"  stroke="rgb(102,102,102)" stroke-width="1" font-size="16" >C</text>
<text x="670.583833" y="151.685485" fill="rgb(102,102,102)"  stroke="rgb(102,102,102)" stroke-width="1" font-size="16" >H</text>
<text x="682.583833" y="156.485485" fill="rgb(102,102,102)"  stroke="rgb(102,102,102)" stroke-width="1" font-size="13" >3</text>
<text x="689.083833" y="151.685485" fill="rgb(102,102,102)"  stroke="rgb(102,102,102)" stroke-width="1" font-size="16" >C</text>
<text x="968.833733" y="526.675857" fill="rgb(12,12,255)"  stroke="rgb(12,12,255)" stroke-width="1" font-size="16" >NH</text>
<text x="992.833733" y="531.475857" fill="rgb(12,12,255)"  stroke="rgb(12,12,255)" stroke-width="1" font-size="13" >2</text>
<text x="623.019190" y="152.397875" fill="rgb(12,12,255)"  stroke="rgb(12,12,255)" stroke-width="1" font-size="16" >N</text>
<text x="703.544710" y="69.150695" fill="rgb(12,12,255)"  stroke="rgb(12,12,255)" stroke-width="1" font-size="16" >N</text>
<text x="979.378909" y="460.096235" fill="rgb(12,12,255)"  stroke="rgb(12,12,255)" stroke-width="1" font-size="16" >N</text>
<text x="929.391854" y="421.194034" fill="rgb(12,12,255)"  stroke="rgb(12,12,255)" stroke-width="1" font-size="16" >N</text>
<text x="886.200997" y="508.746125" fill="rgb(12,12,255)"  stroke="rgb(12,12,255)" stroke-width="1" font-size="16" >N</text>
<text x="863.633802" y="449.956574" fill="rgb(12,12,255)"  stroke="rgb(12,12,255)" stroke-width="1" font-size="16" >N</text>
<text x="574.124136" y="96.092085" fill="rgb(255,12,12)"  stroke="rgb(255,12,12)" stroke-width="1" font-size="32" >-</text>
<text x="575.324136" y="110.812085" fill="rgb(255,12,12)"  stroke="rgb(255,12,12)" stroke-width="1" font-size="16" >O</text>
<text x="485.172009" y="160.565173" fill="rgb(255,12,12)"  stroke="rgb(255,12,12)" stroke-width="1" font-size="16" >O</text>
<text x="814.648864" y="447.309999" fill="rgb(255,12,12)"  stroke="rgb(255,12,12)" stroke-width="1" font-size="16" >OH</text>
<text x="780.162157" y="136.778324" fill="rgb(255,12,12)"  stroke="rgb(255,12,12)" stroke-width="1" font-size="16" >OH</text>
<text x="766.454997" y="33.600000" fill="rgb(255,12,12)"  stroke="rgb(255,12,12)" stroke-width="1" font-size="32" >-</text>
<text x="765.254997" y="48.320000" fill="rgb(255,12,12)"  stroke="rgb(255,12,12)" stroke-width="1" font-size="16" >O</text>
<text x="695.874444" y="489.581546" fill="rgb(255,12,12)"  stroke="rgb(255,12,12)" stroke-width="1" font-size="32" >-</text>
<text x="694.674444" y="475.181546" fill="rgb(255,12,12)"  stroke="rgb(255,12,12)" stroke-width="1" font-size="16" >O</text>
<text x="656.955525" y="425.062627" fill="rgb(255,12,12)"  stroke="rgb(255,12,12)" stroke-width="1" font-size="32" >-</text>
<text x="658.155525" y="439.782627" fill="rgb(255,12,12)"  stroke="rgb(255,12,12)" stroke-width="1" font-size="16" >O</text>
<text x="694.674444" y="400.863709" fill="rgb(255,12,12)"  stroke="rgb(255,12,12)" stroke-width="1" font-size="16" >O</text>
<text x="651.265757" y="348.723097" fill="rgb(255,12,12)"  stroke="rgb(255,12,12)" stroke-width="1" font-size="16" >HO</text>
<text x="633.289008" y="306.082952" fill="rgb(255,12,12)"  stroke="rgb(255,12,12)" stroke-width="1" font-size="16" >O</text>
<text x="637.472405" y="229.946057" fill="rgb(255,12,12)"  stroke="rgb(255,12,12)" stroke-width="1" font-size="16" >HO</text>
<text x="693.232550" y="199.969309" fill="rgb(255,12,12)"  stroke="rgb(255,12,12)" stroke-width="1" font-size="16" >O</text>
<text x="707.025903" y="322.266348" fill="rgb(255,12,12)"  stroke="rgb(255,12,12)" stroke-width="1" font-size="16" >O</text>
<text x="723.209299" y="242.609454" fill="rgb(255,12,12)"  stroke="rgb(255,12,12)" stroke-width="1" font-size="16" >O</text>
<text x="795.189404" y="359.280440" fill="rgb(255,12,12)"  stroke="rgb(255,12,12)" stroke-width="1" font-size="16" >O</text>
<text x="733.593363" y="436.262627" fill="rgb(255,12,12)"  stroke="rgb(255,12,12)" stroke-width="1" font-size="16" >O</text>
<text x="677.049154" y="276.106203" fill="rgb(255,12,12)"  stroke="rgb(255,12,12)" stroke-width="1" font-size="16" >O</text>
<text x="694.674444" y="439.782627" fill="rgb(255,127,0)"  stroke="rgb(255,127,0)" stroke-width="1" font-size="16" >P</text>
<text x="668.957456" y="310.654650" fill="rgb(255,127,0)"  stroke="rgb(255,127,0)" stroke-width="1" font-size="16" >P</text>
<text x="685.140852" y="238.037756" fill="rgb(255,127,0)"  stroke="rgb(255,127,0)" stroke-width="1" font-size="16" >P</text>
<text x="532.867063" y="202.150963" fill="rgb(178,178,0)"  stroke="rgb(178,178,0)" stroke-width="1" font-size="16" >S</text>
<text x="747.494350" y="330.358047" fill="rgb(191,191,191)"  stroke="rgb(191,191,191)" stroke-width="1" font-size="16" >H</text>
<text x="778.980417" y="455.401697" fill="rgb(191,191,191)"  stroke="rgb(191,191,191)" stroke-width="1" font-size="16" >H</text>
<text x="716.533904" y="406.077855" fill="rgb(191,191,191)"  stroke="rgb(191,191,191)" stroke-width="1" font-size="16" >H</text>
<text x="788.253856" y="102.229877" fill="rgb(191,191,191)"  stroke="rgb(191,191,191)" stroke-width="1" font-size="16" >H</text>
<text x="839.417327" y="362.965128" fill="rgb(191,191,191)"  stroke="rgb(191,191,191)" stroke-width="1" font-size="16" >H</text>
<text font-size="18.000000" fill ="black" font-family="sans-serif"
x="140.000000" y="20.000000" ></text>
<title> - OBDepict</title>
</svg>
