<?xml version="1.0"?>
<svg xmlns="http://www.w3.org/2000/svg"
xmlns:xlink="http://www.w3.org/1999/xlink" xmlns:cml="http://www.xml-cml.org/schema" width="426.41" height="200" x="0" y="0" font-family="sans-serif" stroke="rgb(0,0,0)" stroke-width="1" >
<line x1="317.1" y1="140.0" x2="282.5" y2="160.0"/>
<line x1="317.1" y1="140.0" x2="351.8" y2="160.0"/>
<line x1="282.5" y1="160.0" x2="247.8" y2="140.0"/>
<line x1="143.9" y1="80.0" x2="178.6" y2="100.0"/>
<line x1="143.9" y1="80.0" x2="109.3" y2="100.0"/>
<line x1="178.6" y1="100.0" x2="178.6" y2="140.0"/>
<line x1="351.8" y1="160.0" x2="377.4" y2="145.2"/>
<line x1="247.8" y1="140.0" x2="222.2" y2="154.8"/>
<polygon points="95.882032 123.209481 112.746134 102.000000 105.817931 98.000000 " />
<line x1="109.3" y1="100.0" x2="74.6" y2="80.0"/>
<line x1="109.3" y1="100.0" x2="124.1" y2="125.6"/>
<line x1="180.1" y1="137.4" x2="205.7" y2="152.2"/>
<line x1="177.1" y1="142.6" x2="202.7" y2="157.4"/>
<line x1="178.6" y1="140.0" x2="152.9" y2="154.8"/>
<line x1="71.6" y1="80.0" x2="71.6" y2="50.4"/>
<line x1="77.6" y1="80.0" x2="77.6" y2="50.4"/>
<line x1="74.6" y1="80.0" x2="49.0" y2="94.8"/>
<text x="381.610162" y="133.600000" fill="rgb(12,12,255)"  stroke="rgb(12,12,255)" stroke-width="1" font-size="16" >+</text>
<text x="380.410162" y="148.320000" fill="rgb(12,12,255)"  stroke="rgb(12,12,255)" stroke-width="1" font-size="16" >NH</text>
<text x="404.410162" y="156.000000" fill="rgb(12,12,255)"  stroke="rgb(12,12,255)" stroke-width="1" font-size="13" >3</text>
<text x="123.282032" y="139.441016" fill="rgb(12,12,255)"  stroke="rgb(12,12,255)" stroke-width="1" font-size="16" >NH</text>
<text x="147.282032" y="144.241016" fill="rgb(12,12,255)"  stroke="rgb(12,12,255)" stroke-width="1" font-size="13" >2</text>
<text x="207.205081" y="164.800000" fill="rgb(12,12,255)"  stroke="rgb(12,12,255)" stroke-width="1" font-size="16" >N</text>
<text x="128.323048" y="164.800000" fill="rgb(255,12,12)"  stroke="rgb(255,12,12)" stroke-width="1" font-size="16" >HO</text>
<text x="68.641016" y="48.320000" fill="rgb(255,12,12)"  stroke="rgb(255,12,12)" stroke-width="1" font-size="16" >O</text>
<text x="24.400000" y="104.800000" fill="rgb(255,12,12)"  stroke="rgb(255,12,12)" stroke-width="1" font-size="16" >HO</text>
<text x="85.682032" y="139.441016" fill="rgb(191,191,191)"  stroke="rgb(191,191,191)" stroke-width="1" font-size="16" >H</text>
<text font-size="18.000000" fill ="black" font-family="sans-serif"
x="140.000000" y="20.000000" ></text>
<title> - OBDepict</title>
</svg>
