<?xml version="1.0"?>
<svg xmlns="http://www.w3.org/2000/svg"
xmlns:xlink="http://www.w3.org/1999/xlink" xmlns:cml="http://www.xml-cml.org/schema" width="486.473" height="329.029" x="0" y="0" font-family="sans-serif" stroke="rgb(0,0,0)" stroke-width="1" >
<line x1="108.5" y1="145.6" x2="115.7" y2="172.7"/>
<line x1="441.6" y1="139.2" x2="427.5" y2="115.0"/>
<line x1="301.4" y1="49.8" x2="291.6" y2="86.4"/>
<line x1="301.4" y1="49.8" x2="328.5" y2="42.5"/>
<line x1="351.8" y1="256.2" x2="370.8" y2="223.5"/>
<line x1="351.8" y1="256.2" x2="365.8" y2="280.5"/>
<polygon points="95.591445 188.129473 118.149331 175.862087 113.279240 169.515260 " />
<line x1="427.5" y1="118.0" x2="399.5" y2="118.0"/>
<line x1="427.5" y1="112.0" x2="399.5" y2="112.0"/>
<line x1="427.5" y1="115.0" x2="441.6" y2="90.7"/>
<line x1="314.9" y1="79.7" x2="315.1" y2="80.5"/>
<line x1="311.1" y1="80.3" x2="311.6" y2="81.8"/>
<line x1="307.4" y1="80.9" x2="308.0" y2="83.2"/>
<line x1="303.6" y1="81.5" x2="304.5" y2="84.6"/>
<line x1="299.9" y1="82.1" x2="300.9" y2="85.9"/>
<line x1="296.1" y1="82.7" x2="297.3" y2="87.3"/>
<line x1="292.3" y1="83.3" x2="293.8" y2="88.7"/>
<polygon points="383.441312 245.424299 374.223270 221.458183 367.295067 225.458183 " />
<line x1="358.3" y1="127.0" x2="359.0" y2="126.6"/>
<line x1="359.8" y1="130.4" x2="361.2" y2="129.6"/>
<line x1="361.4" y1="133.9" x2="363.5" y2="132.7"/>
<line x1="362.9" y1="137.4" x2="365.7" y2="135.8"/>
<line x1="364.5" y1="140.9" x2="367.9" y2="138.9"/>
<line x1="366.0" y1="144.4" x2="370.2" y2="142.0"/>
<line x1="367.6" y1="147.8" x2="372.4" y2="145.0"/>
<line x1="370.8" y1="147.7" x2="384.8" y2="123.5"/>
<polygon points="64.985714 210.545817 115.714286 214.545817 115.714286 206.545817 " />
<line x1="115.7" y1="210.5" x2="101.7" y2="234.8"/>
<line x1="260.9" y1="53.1" x2="261.7" y2="53.3"/>
<line x1="259.6" y1="56.6" x2="261.1" y2="57.0"/>
<line x1="258.2" y1="60.2" x2="260.5" y2="60.8"/>
<line x1="256.8" y1="63.7" x2="259.9" y2="64.5"/>
<line x1="255.5" y1="67.3" x2="259.3" y2="68.3"/>
<line x1="254.1" y1="70.8" x2="258.7" y2="72.1"/>
<line x1="252.7" y1="74.4" x2="258.1" y2="75.8"/>
<line x1="255.0" y1="76.6" x2="235.2" y2="56.8"/>
<line x1="326.2" y1="225.7" x2="325.5" y2="225.3"/>
<line x1="328.4" y1="222.6" x2="327.1" y2="221.8"/>
<line x1="330.7" y1="219.6" x2="328.6" y2="218.4"/>
<line x1="332.9" y1="216.5" x2="330.2" y2="214.9"/>
<line x1="335.2" y1="213.4" x2="331.7" y2="211.4"/>
<line x1="337.4" y1="210.3" x2="333.2" y2="207.9"/>
<line x1="339.6" y1="207.2" x2="334.8" y2="204.4"/>
<line x1="338.0" y1="204.5" x2="310.0" y2="204.5"/>
<polygon points="135.817390 251.440504 151.963635 231.474388 145.035432 227.474388 " />
<line x1="148.5" y1="229.5" x2="162.5" y2="253.7"/>
<line x1="210.9" y1="86.5" x2="211.4" y2="85.9"/>
<line x1="213.3" y1="89.4" x2="214.4" y2="88.3"/>
<line x1="215.6" y1="92.4" x2="217.3" y2="90.7"/>
<line x1="218.0" y1="95.4" x2="220.3" y2="93.1"/>
<line x1="220.4" y1="98.3" x2="223.3" y2="95.5"/>
<line x1="222.8" y1="101.3" x2="226.2" y2="97.9"/>
<line x1="225.2" y1="104.2" x2="229.2" y2="100.3"/>
<line x1="228.3" y1="103.3" x2="201.2" y2="110.6"/>
<line x1="193.7" y1="231.3" x2="193.1" y2="231.7"/>
<line x1="192.2" y1="227.8" x2="190.8" y2="228.6"/>
<line x1="190.7" y1="224.4" x2="188.6" y2="225.6"/>
<line x1="189.1" y1="220.9" x2="186.3" y2="222.5"/>
<line x1="187.6" y1="217.4" x2="184.1" y2="219.4"/>
<line x1="186.0" y1="213.9" x2="181.9" y2="216.3"/>
<line x1="184.5" y1="210.5" x2="179.6" y2="213.3"/>
<line x1="181.3" y1="210.5" x2="209.3" y2="210.5"/>
<polygon points="344.595329 116.377887 334.008142 166.150364 341.939701 167.194574 " />
<line x1="338.0" y1="166.7" x2="310.9" y2="173.9"/>
<polygon points="257.483479 186.770515 241.766013 138.372693 234.374977 141.434160 " />
<line x1="238.1" y1="139.9" x2="210.1" y2="139.9"/>
<polygon points="416.226559 144.706353 400.080315 164.672469 407.008518 168.672469 " />
<line x1="403.5" y1="166.7" x2="431.6" y2="166.7"/>
<line x1="205.5" y1="172.3" x2="205.5" y2="173.1"/>
<line x1="201.7" y1="171.9" x2="201.7" y2="173.5"/>
<line x1="197.9" y1="171.5" x2="197.9" y2="173.9"/>
<line x1="194.2" y1="171.1" x2="194.2" y2="174.3"/>
<line x1="190.4" y1="170.7" x2="190.4" y2="174.7"/>
<line x1="186.6" y1="170.3" x2="186.6" y2="175.1"/>
<line x1="182.8" y1="169.9" x2="182.8" y2="175.5"/>
<line x1="181.3" y1="172.7" x2="195.3" y2="148.4"/>
<line x1="268.8" y1="173.2" x2="268.0" y2="173.0"/>
<line x1="270.1" y1="169.7" x2="268.6" y2="169.2"/>
<line x1="271.5" y1="166.1" x2="269.2" y2="165.5"/>
<line x1="272.9" y1="162.5" x2="269.8" y2="161.7"/>
<line x1="274.2" y1="159.0" x2="270.4" y2="158.0"/>
<line x1="275.6" y1="155.4" x2="270.9" y2="154.2"/>
<line x1="277.0" y1="151.9" x2="271.5" y2="150.4"/>
<line x1="274.6" y1="149.7" x2="294.4" y2="169.5"/>
<line x1="255.0" y1="76.6" x2="291.6" y2="86.4"/>
<line x1="291.6" y1="86.4" x2="298.9" y2="113.4"/>
<line x1="294.4" y1="129.9" x2="274.6" y2="149.7"/>
<line x1="274.6" y1="149.7" x2="238.1" y2="139.9"/>
<line x1="238.1" y1="139.9" x2="228.3" y2="103.3"/>
<line x1="228.3" y1="103.3" x2="255.0" y2="76.6"/>
<line x1="370.8" y1="147.7" x2="338.0" y2="166.7"/>
<line x1="338.0" y1="166.7" x2="338.0" y2="204.5"/>
<line x1="338.0" y1="204.5" x2="370.8" y2="223.5"/>
<line x1="370.8" y1="223.5" x2="395.0" y2="209.5"/>
<line x1="403.5" y1="194.7" x2="403.5" y2="166.7"/>
<line x1="403.5" y1="166.7" x2="370.8" y2="147.7"/>
<line x1="115.7" y1="172.7" x2="115.7" y2="210.5"/>
<line x1="115.7" y1="210.5" x2="148.5" y2="229.5"/>
<line x1="148.5" y1="229.5" x2="181.3" y2="210.5"/>
<line x1="181.3" y1="210.5" x2="181.3" y2="172.7"/>
<line x1="181.3" y1="172.7" x2="157.0" y2="158.7"/>
<line x1="140.0" y1="158.7" x2="115.7" y2="172.7"/>
<text x="82.316136" y="144.441482" fill="rgb(102,102,102)"  stroke="rgb(102,102,102)" stroke-width="1" font-size="16" >H</text>
<text x="94.316136" y="152.121482" fill="rgb(102,102,102)"  stroke="rgb(102,102,102)" stroke-width="1" font-size="13" >3</text>
<text x="100.816136" y="144.441482" fill="rgb(102,102,102)"  stroke="rgb(102,102,102)" stroke-width="1" font-size="16" >C</text>
<text x="440.473454" y="152.543897" fill="rgb(102,102,102)"  stroke="rgb(102,102,102)" stroke-width="1" font-size="16" >CH</text>
<text x="464.473454" y="157.343897" fill="rgb(102,102,102)"  stroke="rgb(102,102,102)" stroke-width="1" font-size="13" >3</text>
<text x="386.087740" y="123.278650" fill="rgb(12,12,255)"  stroke="rgb(12,12,255)" stroke-width="1" font-size="16" >N</text>
<text x="331.973921" y="48.320000" fill="rgb(255,12,12)"  stroke="rgb(255,12,12)" stroke-width="1" font-size="16" >OH</text>
<text x="364.759169" y="293.828678" fill="rgb(255,12,12)"  stroke="rgb(255,12,12)" stroke-width="1" font-size="16" >OH</text>
<text x="440.473454" y="90.493403" fill="rgb(255,12,12)"  stroke="rgb(255,12,12)" stroke-width="1" font-size="16" >OH</text>
<text x="81.185714" y="248.131064" fill="rgb(255,12,12)"  stroke="rgb(255,12,12)" stroke-width="1" font-size="16" >HO</text>
<text x="212.672345" y="58.118150" fill="rgb(255,12,12)"  stroke="rgb(255,12,12)" stroke-width="1" font-size="16" >HO</text>
<text x="284.516778" y="209.329612" fill="rgb(255,12,12)"  stroke="rgb(255,12,12)" stroke-width="1" font-size="16" >HO</text>
<text x="161.428105" y="267.059636" fill="rgb(255,12,12)"  stroke="rgb(255,12,12)" stroke-width="1" font-size="16" >OH</text>
<text x="176.105153" y="117.934384" fill="rgb(255,12,12)"  stroke="rgb(255,12,12)" stroke-width="1" font-size="16" >HO</text>
<text x="213.141923" y="215.345817" fill="rgb(255,12,12)"  stroke="rgb(255,12,12)" stroke-width="1" font-size="16" >OH</text>
<text x="435.401559" y="171.472469" fill="rgb(255,12,12)"  stroke="rgb(255,12,12)" stroke-width="1" font-size="16" >OH</text>
<text x="142.499533" y="162.080102" fill="rgb(255,12,12)"  stroke="rgb(255,12,12)" stroke-width="1" font-size="16" >O</text>
<text x="397.544416" y="209.329612" fill="rgb(255,12,12)"  stroke="rgb(255,12,12)" stroke-width="1" font-size="16" >O</text>
<text x="295.406729" y="127.732534" fill="rgb(255,12,12)"  stroke="rgb(255,12,12)" stroke-width="1" font-size="16" >O</text>
<text x="297.806729" y="181.270618" fill="rgb(255,12,12)"  stroke="rgb(255,12,12)" stroke-width="1" font-size="16" >O</text>
<text x="196.613352" y="148.223426" fill="rgb(255,12,12)"  stroke="rgb(255,12,12)" stroke-width="1" font-size="16" >O</text>
<text x="82.080195" y="200.534642" fill="rgb(191,191,191)"  stroke="rgb(191,191,191)" stroke-width="1" font-size="16" >H</text>
<text x="322.175772" y="84.887192" fill="rgb(191,191,191)"  stroke="rgb(191,191,191)" stroke-width="1" font-size="16" >H</text>
<text x="383.687740" y="261.043431" fill="rgb(191,191,191)"  stroke="rgb(191,191,191)" stroke-width="1" font-size="16" >H</text>
<text x="348.230597" y="123.278650" fill="rgb(191,191,191)"  stroke="rgb(191,191,191)" stroke-width="1" font-size="16" >H</text>
<text x="36.400000" y="215.345817" fill="rgb(191,191,191)"  stroke="rgb(191,191,191)" stroke-width="1" font-size="16" >H</text>
<text x="258.839537" y="48.320000" fill="rgb(191,191,191)"  stroke="rgb(191,191,191)" stroke-width="1" font-size="16" >H</text>
<text x="315.445350" y="242.114859" fill="rgb(191,191,191)"  stroke="rgb(191,191,191)" stroke-width="1" font-size="16" >H</text>
<text x="125.970962" y="267.059636" fill="rgb(191,191,191)"  stroke="rgb(191,191,191)" stroke-width="1" font-size="16" >H</text>
<text x="197.903303" y="84.887192" fill="rgb(191,191,191)"  stroke="rgb(191,191,191)" stroke-width="1" font-size="16" >H</text>
<text x="194.213352" y="248.131064" fill="rgb(191,191,191)"  stroke="rgb(191,191,191)" stroke-width="1" font-size="16" >H</text>
<text x="341.856619" y="99.925929" fill="rgb(191,191,191)"  stroke="rgb(191,191,191)" stroke-width="1" font-size="16" >H</text>
<text x="261.045098" y="214.654305" fill="rgb(191,191,191)"  stroke="rgb(191,191,191)" stroke-width="1" font-size="16" >H</text>
<text x="416.472988" y="142.207221" fill="rgb(191,191,191)"  stroke="rgb(191,191,191)" stroke-width="1" font-size="16" >H</text>
<text x="213.141923" y="177.488674" fill="rgb(191,191,191)"  stroke="rgb(191,191,191)" stroke-width="1" font-size="16" >H</text>
<text x="261.239537" y="191.068768" fill="rgb(191,191,191)"  stroke="rgb(191,191,191)" stroke-width="1" font-size="16" >H</text>
<text font-size="18.000000" fill ="black" font-family="sans-serif"
x="140.000000" y="20.000000" ></text>
<title> - OBDepict</title>
</svg>
