<?xml version="1.0"?>
<svg xmlns="http://www.w3.org/2000/svg"
xmlns:xlink="http://www.w3.org/1999/xlink" xmlns:cml="http://www.xml-cml.org/schema" width="275.893" height="355.665" x="0" y="0" font-family="sans-serif" stroke="rgb(0,0,0)" stroke-width="1" >
<line x1="164.8" y1="47.7" x2="152.0" y2="62.0"/>
<line x1="130.6" y1="137.5" x2="157.4" y2="107.8"/>
<line x1="130.6" y1="137.5" x2="91.5" y2="129.2"/>
<line x1="157.4" y1="107.8" x2="148.2" y2="79.6"/>
<line x1="116.2" y1="205.3" x2="128.6" y2="243.3"/>
<line x1="116.2" y1="205.3" x2="77.1" y2="196.9"/>
<line x1="91.5" y1="129.2" x2="79.1" y2="91.1"/>
<line x1="91.5" y1="129.2" x2="71.7" y2="151.2"/>
<line x1="74.2" y1="197.9" x2="65.1" y2="169.7"/>
<line x1="79.9" y1="196.0" x2="70.8" y2="167.9"/>
<line x1="77.1" y1="196.9" x2="57.3" y2="218.9"/>
<line x1="76.9" y1="89.1" x2="96.7" y2="67.1"/>
<line x1="81.4" y1="93.1" x2="101.2" y2="71.1"/>
<line x1="79.1" y1="91.1" x2="50.2" y2="85.0"/>
<line x1="105.1" y1="275.7" x2="128.6" y2="243.3"/>
<line x1="114.4" y1="275.0" x2="130.9" y2="252.4"/>
<line x1="128.6" y1="243.3" x2="166.6" y2="255.7"/>
<line x1="166.6" y1="255.7" x2="166.6" y2="295.7"/>
<line x1="166.6" y1="295.7" x2="138.5" y2="304.8"/>
<line x1="122.5" y1="299.6" x2="105.1" y2="275.7"/>
<line x1="235.9" y1="255.7" x2="235.9" y2="295.7"/>
<line x1="228.7" y1="261.7" x2="228.7" y2="289.7"/>
<line x1="235.9" y1="295.7" x2="201.3" y2="315.7"/>
<line x1="201.3" y1="315.7" x2="166.6" y2="295.7"/>
<line x1="199.7" y1="306.4" x2="175.4" y2="292.4"/>
<line x1="166.6" y1="255.7" x2="201.3" y2="235.7"/>
<line x1="175.4" y1="258.9" x2="199.7" y2="244.9"/>
<line x1="201.3" y1="235.7" x2="235.9" y2="255.7"/>
<text x="165.782257" y="48.320000" fill="rgb(102,102,102)"  stroke="rgb(102,102,102)" stroke-width="1" font-size="16" >CH</text>
<text x="189.782257" y="56.000000" fill="rgb(102,102,102)"  stroke="rgb(102,102,102)" stroke-width="1" font-size="13" >3</text>
<text x="112.968623" y="312.825521" fill="rgb(12,12,255)"  stroke="rgb(12,12,255)" stroke-width="1" font-size="16" >HN</text>
<text x="61.121360" y="167.223172" fill="rgb(12,12,255)"  stroke="rgb(12,12,255)" stroke-width="1" font-size="16" >N</text>
<text x="45.516815" y="245.871226" fill="rgb(255,12,12)"  stroke="rgb(255,12,12)" stroke-width="1" font-size="32" >-</text>
<text x="46.716815" y="231.471226" fill="rgb(255,12,12)"  stroke="rgb(255,12,12)" stroke-width="1" font-size="16" >O</text>
<text x="99.891128" y="69.729325" fill="rgb(255,12,12)"  stroke="rgb(255,12,12)" stroke-width="1" font-size="16" >O</text>
<text x="24.400000" y="91.138651" fill="rgb(255,12,12)"  stroke="rgb(255,12,12)" stroke-width="1" font-size="16" >HO</text>
<text x="141.417032" y="78.045793" fill="rgb(178,178,0)"  stroke="rgb(178,178,0)" stroke-width="1" font-size="16" >S</text>
<text font-size="18.000000" fill ="black" font-family="sans-serif"
x="140.000000" y="20.000000" ></text>
<title> - OBDepict</title>
</svg>
