<?xml version="1.0"?>
<svg xmlns="http://www.w3.org/2000/svg"
xmlns:xlink="http://www.w3.org/1999/xlink" xmlns:cml="http://www.xml-cml.org/schema" width="569.04" height="532.677" x="0" y="0" font-family="sans-serif" stroke="rgb(0,0,0)" stroke-width="1" >
<line x1="326.3" y1="133.1" x2="325.5" y2="133.4"/>
<line x1="325.3" y1="129.1" x2="323.8" y2="129.6"/>
<line x1="324.4" y1="125.1" x2="322.1" y2="125.8"/>
<line x1="323.5" y1="121.0" x2="320.5" y2="122.0"/>
<line x1="322.6" y1="117.0" x2="318.8" y2="118.3"/>
<line x1="321.7" y1="113.0" x2="317.1" y2="114.5"/>
<line x1="320.7" y1="109.0" x2="315.4" y2="110.7"/>
<line x1="189.4" y1="242.5" x2="188.9" y2="243.1"/>
<line x1="186.5" y1="239.5" x2="185.5" y2="240.7"/>
<line x1="183.7" y1="236.6" x2="182.1" y2="238.4"/>
<line x1="180.8" y1="233.6" x2="178.7" y2="236.0"/>
<line x1="177.9" y1="230.6" x2="175.3" y2="233.6"/>
<line x1="175.1" y1="227.6" x2="171.9" y2="231.3"/>
<line x1="172.2" y1="224.6" x2="168.6" y2="228.9"/>
<line x1="213.1" y1="334.4" x2="228.3" y2="308.1"/>
<line x1="444.5" y1="340.6" x2="425.8" y2="373.0"/>
<line x1="444.5" y1="340.6" x2="425.8" y2="308.2"/>
<line x1="300.6" y1="417.8" x2="333.0" y2="436.5"/>
<line x1="300.6" y1="417.8" x2="300.6" y2="380.4"/>
<line x1="382.0" y1="114.5" x2="419.4" y2="114.5"/>
<line x1="382.0" y1="114.5" x2="363.3" y2="146.8"/>
<line x1="137.1" y1="246.7" x2="104.8" y2="228.0"/>
<line x1="137.1" y1="246.7" x2="201.9" y2="209.4"/>
<line x1="425.8" y1="373.0" x2="444.5" y2="405.4"/>
<line x1="333.0" y1="436.5" x2="332.9" y2="474.0"/>
<line x1="419.4" y1="114.5" x2="438.1" y2="82.1"/>
<line x1="104.8" y1="228.0" x2="72.4" y2="246.7"/>
<line x1="472.9" y1="272.1" x2="435.5" y2="272.1"/>
<line x1="472.9" y1="272.1" x2="491.6" y2="239.7"/>
<line x1="232.0" y1="389.4" x2="264.5" y2="370.7"/>
<line x1="232.0" y1="389.4" x2="232.0" y2="426.8"/>
<line x1="264.6" y1="173.3" x2="249.4" y2="146.9"/>
<line x1="345.9" y1="104.8" x2="327.2" y2="72.4"/>
<line x1="345.9" y1="104.8" x2="327.2" y2="137.1"/>
<polygon points="183.660206 188.763831 198.939207 212.027282 204.925371 206.720133 " />
<line x1="444.5" y1="402.4" x2="472.2" y2="402.4"/>
<line x1="444.5" y1="408.4" x2="472.2" y2="408.4"/>
<line x1="444.5" y1="405.4" x2="430.6" y2="429.4"/>
<line x1="334.4" y1="476.6" x2="310.5" y2="490.4"/>
<line x1="331.4" y1="471.4" x2="307.5" y2="485.2"/>
<line x1="332.9" y1="474.0" x2="356.9" y2="487.8"/>
<line x1="435.5" y1="83.6" x2="421.7" y2="59.6"/>
<line x1="440.7" y1="80.6" x2="426.9" y2="56.6"/>
<line x1="438.1" y1="82.1" x2="465.8" y2="82.1"/>
<line x1="75.4" y1="246.7" x2="75.4" y2="274.4"/>
<line x1="69.4" y1="246.7" x2="69.4" y2="274.4"/>
<line x1="72.4" y1="246.7" x2="48.4" y2="232.9"/>
<line x1="491.6" y1="236.7" x2="519.3" y2="236.7"/>
<line x1="491.6" y1="242.7" x2="519.3" y2="242.7"/>
<line x1="491.6" y1="239.7" x2="477.8" y2="215.7"/>
<line x1="233.5" y1="429.4" x2="209.6" y2="443.2"/>
<line x1="230.5" y1="424.2" x2="206.6" y2="438.0"/>
<line x1="232.0" y1="426.8" x2="256.0" y2="440.7"/>
<line x1="324.6" y1="70.9" x2="338.4" y2="46.9"/>
<line x1="329.8" y1="73.9" x2="343.6" y2="49.9"/>
<line x1="327.2" y1="72.4" x2="299.5" y2="72.4"/>
<line x1="180.8" y1="313.0" x2="165.5" y2="339.4"/>
<line x1="175.6" y1="310.0" x2="160.3" y2="336.3"/>
<line x1="228.3" y1="308.1" x2="197.9" y2="308.1"/>
<line x1="435.5" y1="272.1" x2="425.8" y2="308.2"/>
<line x1="425.8" y1="308.2" x2="384.1" y2="308.2"/>
<line x1="419.8" y1="301.0" x2="390.1" y2="301.0"/>
<line x1="384.1" y1="308.2" x2="368.7" y2="281.4"/>
<line x1="372.6" y1="266.6" x2="399.4" y2="251.2"/>
<line x1="399.4" y1="251.2" x2="435.5" y2="272.1"/>
<line x1="401.0" y1="260.4" x2="426.7" y2="275.3"/>
<line x1="178.2" y1="311.5" x2="161.2" y2="273.4"/>
<line x1="161.2" y1="273.4" x2="192.2" y2="245.5"/>
<line x1="192.2" y1="245.5" x2="228.4" y2="266.4"/>
<line x1="228.4" y1="266.4" x2="221.9" y2="296.6"/>
<line x1="208.9" y1="308.3" x2="178.2" y2="311.5"/>
<line x1="321.5" y1="344.3" x2="300.6" y2="380.4"/>
<line x1="312.2" y1="345.9" x2="297.4" y2="371.6"/>
<line x1="300.6" y1="380.4" x2="264.5" y2="370.7"/>
<line x1="264.5" y1="370.7" x2="264.5" y2="329.0"/>
<line x1="271.7" y1="364.7" x2="271.7" y2="335.0"/>
<line x1="264.5" y1="329.0" x2="291.2" y2="313.6"/>
<line x1="306.0" y1="317.5" x2="321.5" y2="344.3"/>
<line x1="363.3" y1="146.8" x2="363.3" y2="188.6"/>
<line x1="356.1" y1="152.8" x2="356.1" y2="182.6"/>
<line x1="363.3" y1="188.6" x2="336.5" y2="204.0"/>
<line x1="321.7" y1="200.0" x2="306.3" y2="173.3"/>
<line x1="327.0" y1="194.8" x2="315.5" y2="174.9"/>
<line x1="306.3" y1="173.3" x2="327.2" y2="137.1"/>
<line x1="327.2" y1="137.1" x2="363.3" y2="146.8"/>
<line x1="243.7" y1="209.4" x2="201.9" y2="209.4"/>
<line x1="201.9" y1="209.4" x2="192.2" y2="245.5"/>
<line x1="228.4" y1="266.4" x2="255.1" y2="250.9"/>
<line x1="259.1" y1="236.1" x2="243.7" y2="209.4"/>
<line x1="363.2" y1="344.3" x2="321.5" y2="344.3"/>
<line x1="264.5" y1="329.0" x2="228.3" y2="308.1"/>
<line x1="228.3" y1="308.1" x2="228.4" y2="266.4"/>
<line x1="243.7" y1="209.4" x2="264.6" y2="173.3"/>
<line x1="252.9" y1="207.8" x2="267.8" y2="182.1"/>
<line x1="264.6" y1="173.3" x2="306.3" y2="173.3"/>
<line x1="363.3" y1="188.6" x2="399.4" y2="209.5"/>
<line x1="399.4" y1="209.5" x2="399.4" y2="251.2"/>
<line x1="384.1" y1="308.2" x2="363.2" y2="344.3"/>
<text x="290.600945" y="106.454989" fill="rgb(102,102,102)"  stroke="rgb(102,102,102)" stroke-width="1" font-size="16" >H</text>
<text x="302.600945" y="114.134989" fill="rgb(102,102,102)"  stroke="rgb(102,102,102)" stroke-width="1" font-size="13" >3</text>
<text x="309.100945" y="106.454989" fill="rgb(102,102,102)"  stroke="rgb(102,102,102)" stroke-width="1" font-size="16" >C</text>
<text x="137.415657" y="227.066332" fill="rgb(102,102,102)"  stroke="rgb(102,102,102)" stroke-width="1" font-size="16" >H</text>
<text x="149.415657" y="234.746332" fill="rgb(102,102,102)"  stroke="rgb(102,102,102)" stroke-width="1" font-size="13" >3</text>
<text x="155.915657" y="227.066332" fill="rgb(102,102,102)"  stroke="rgb(102,102,102)" stroke-width="1" font-size="16" >C</text>
<text x="184.175094" y="348.491757" fill="rgb(102,102,102)"  stroke="rgb(102,102,102)" stroke-width="1" font-size="16" >H</text>
<text x="196.175094" y="353.291757" fill="rgb(102,102,102)"  stroke="rgb(102,102,102)" stroke-width="1" font-size="13" >3</text>
<text x="202.675094" y="348.491757" fill="rgb(102,102,102)"  stroke="rgb(102,102,102)" stroke-width="1" font-size="16" >C</text>
<text x="347.638106" y="280.340254" fill="rgb(12,12,255)"  stroke="rgb(12,12,255)" stroke-width="1" font-size="16" >HN</text>
<text x="323.528957" y="214.210546" fill="rgb(12,12,255)"  stroke="rgb(12,12,255)" stroke-width="1" font-size="16" >N</text>
<text x="294.611291" y="316.459269" fill="rgb(12,12,255)"  stroke="rgb(12,12,255)" stroke-width="1" font-size="16" >NH</text>
<text x="258.502142" y="250.329561" fill="rgb(12,12,255)"  stroke="rgb(12,12,255)" stroke-width="1" font-size="16" >NH</text>
<text x="475.885838" y="410.209628" fill="rgb(255,12,12)"  stroke="rgb(255,12,12)" stroke-width="1" font-size="16" >O</text>
<text x="420.957915" y="456.980511" fill="rgb(255,12,12)"  stroke="rgb(255,12,12)" stroke-width="1" font-size="32" >-</text>
<text x="422.157915" y="442.580511" fill="rgb(255,12,12)"  stroke="rgb(255,12,12)" stroke-width="1" font-size="16" >O</text>
<text x="296.929418" y="497.447270" fill="rgb(255,12,12)"  stroke="rgb(255,12,12)" stroke-width="1" font-size="16" >O</text>
<text x="360.523067" y="511.877224" fill="rgb(255,12,12)"  stroke="rgb(255,12,12)" stroke-width="1" font-size="32" >-</text>
<text x="359.323067" y="497.477224" fill="rgb(255,12,12)"  stroke="rgb(255,12,12)" stroke-width="1" font-size="16" >O</text>
<text x="415.821721" y="58.032438" fill="rgb(255,12,12)"  stroke="rgb(255,12,12)" stroke-width="1" font-size="16" >O</text>
<text x="470.698746" y="101.323099" fill="rgb(255,12,12)"  stroke="rgb(255,12,12)" stroke-width="1" font-size="32" >-</text>
<text x="469.498746" y="86.923099" fill="rgb(255,12,12)"  stroke="rgb(255,12,12)" stroke-width="1" font-size="16" >O</text>
<text x="66.358797" y="288.903149" fill="rgb(255,12,12)"  stroke="rgb(255,12,12)" stroke-width="1" font-size="16" >O</text>
<text x="35.200000" y="221.596181" fill="rgb(255,12,12)"  stroke="rgb(255,12,12)" stroke-width="1" font-size="32" >-</text>
<text x="36.400000" y="236.316181" fill="rgb(255,12,12)"  stroke="rgb(255,12,12)" stroke-width="1" font-size="16" >O</text>
<text x="523.039662" y="244.506522" fill="rgb(255,12,12)"  stroke="rgb(255,12,12)" stroke-width="1" font-size="16" >O</text>
<text x="468.141693" y="200.883756" fill="rgb(255,12,12)"  stroke="rgb(255,12,12)" stroke-width="1" font-size="32" >-</text>
<text x="469.341693" y="215.603756" fill="rgb(255,12,12)"  stroke="rgb(255,12,12)" stroke-width="1" font-size="16" >O</text>
<text x="196.027201" y="450.296428" fill="rgb(255,12,12)"  stroke="rgb(255,12,12)" stroke-width="1" font-size="16" >O</text>
<text x="259.620849" y="464.726383" fill="rgb(255,12,12)"  stroke="rgb(255,12,12)" stroke-width="1" font-size="32" >-</text>
<text x="258.420849" y="450.326383" fill="rgb(255,12,12)"  stroke="rgb(255,12,12)" stroke-width="1" font-size="16" >O</text>
<text x="339.911060" y="48.320000" fill="rgb(255,12,12)"  stroke="rgb(255,12,12)" stroke-width="1" font-size="16" >O</text>
<text x="285.004092" y="65.958797" fill="rgb(255,12,12)"  stroke="rgb(255,12,12)" stroke-width="1" font-size="32" >-</text>
<text x="286.204092" y="80.678797" fill="rgb(255,12,12)"  stroke="rgb(255,12,12)" stroke-width="1" font-size="16" >O</text>
<text x="153.976432" y="351.902089" fill="rgb(255,12,12)"  stroke="rgb(255,12,12)" stroke-width="1" font-size="16" >O</text>
<text x="171.636818" y="316.400408" fill="rgb(255,12,12)"  stroke="rgb(255,12,12)" stroke-width="1" font-size="16" >HO</text>
<text x="213.653324" y="311.981683" fill="rgb(255,12,12)"  stroke="rgb(255,12,12)" stroke-width="1" font-size="16" >O</text>
<text x="240.437692" y="145.953623" fill="rgb(191,191,191)"  stroke="rgb(191,191,191)" stroke-width="1" font-size="16" >H</text>
<text x="171.060523" y="186.932698" fill="rgb(191,191,191)"  stroke="rgb(191,191,191)" stroke-width="1" font-size="16" >H</text>
<text font-size="18.000000" fill ="black" font-family="sans-serif"
x="140.000000" y="20.000000" ></text>
<title> - OBDepict</title>
</svg>
