<?xml version="1.0"?>
<svg xmlns="http://www.w3.org/2000/svg"
xmlns:xlink="http://www.w3.org/1999/xlink" xmlns:cml="http://www.xml-cml.org/schema" width="400" height="263.923" x="0" y="0" font-family="sans-serif" stroke="rgb(0,0,0)" stroke-width="1" >
<line x1="240.0" y1="114.6" x2="260.0" y2="80.0"/>
<line x1="240.0" y1="114.6" x2="200.0" y2="114.6"/>
<line x1="260.0" y1="80.0" x2="300.0" y2="80.0"/>
<line x1="200.0" y1="114.6" x2="185.2" y2="140.3"/>
<polygon points="323.209481 66.600000 298.000000 76.535898 302.000000 83.464102 " />
<line x1="300.0" y1="80.0" x2="320.0" y2="114.6"/>
<line x1="300.0" y1="80.0" x2="300.0" y2="50.4"/>
<line x1="322.6" y1="116.1" x2="307.8" y2="141.8"/>
<line x1="317.4" y1="113.1" x2="302.6" y2="138.8"/>
<line x1="320.0" y1="114.6" x2="349.6" y2="114.6"/>
<line x1="137.4" y1="150.8" x2="122.6" y2="125.1"/>
<line x1="142.6" y1="147.8" x2="127.8" y2="122.1"/>
<line x1="140.0" y1="149.3" x2="169.6" y2="149.3"/>
<line x1="140.0" y1="149.3" x2="125.2" y2="174.9"/>
<line x1="109.6" y1="183.9" x2="90.4" y2="183.9"/>
<line x1="80.0" y1="154.3" x2="80.0" y2="173.5"/>
<line x1="50.4" y1="183.9" x2="69.6" y2="183.9"/>
<line x1="77.0" y1="213.5" x2="77.0" y2="194.3"/>
<line x1="83.0" y1="213.5" x2="83.0" y2="194.3"/>
<text x="294.000000" y="48.320000" fill="rgb(12,12,255)"  stroke="rgb(12,12,255)" stroke-width="1" font-size="16" >NH</text>
<text x="318.000000" y="56.000000" fill="rgb(12,12,255)"  stroke="rgb(12,12,255)" stroke-width="1" font-size="13" >2</text>
<text x="104.400000" y="122.961016" fill="rgb(12,12,255)"  stroke="rgb(12,12,255)" stroke-width="1" font-size="16" >HN</text>
<text x="174.000000" y="154.082032" fill="rgb(12,12,255)"  stroke="rgb(12,12,255)" stroke-width="1" font-size="16" >NH</text>
<text x="114.000000" y="188.723048" fill="rgb(12,12,255)"  stroke="rgb(12,12,255)" stroke-width="1" font-size="16" >NH</text>
<text x="296.400000" y="154.082032" fill="rgb(255,12,12)"  stroke="rgb(255,12,12)" stroke-width="1" font-size="16" >O</text>
<text x="355.200000" y="133.841016" fill="rgb(255,12,12)"  stroke="rgb(255,12,12)" stroke-width="1" font-size="32" >-</text>
<text x="354.000000" y="119.441016" fill="rgb(255,12,12)"  stroke="rgb(255,12,12)" stroke-width="1" font-size="16" >O</text>
<text x="74.000000" y="152.243048" fill="rgb(255,12,12)"  stroke="rgb(255,12,12)" stroke-width="1" font-size="16" >OH</text>
<text x="24.400000" y="188.723048" fill="rgb(255,12,12)"  stroke="rgb(255,12,12)" stroke-width="1" font-size="16" >HO</text>
<text x="74.000000" y="228.723048" fill="rgb(255,12,12)"  stroke="rgb(255,12,12)" stroke-width="1" font-size="16" >O</text>
<text x="74.000000" y="188.723048" fill="rgb(255,127,0)"  stroke="rgb(255,127,0)" stroke-width="1" font-size="16" >P</text>
<text x="328.641016" y="68.320000" fill="rgb(191,191,191)"  stroke="rgb(191,191,191)" stroke-width="1" font-size="16" >H</text>
<text font-size="18.000000" fill ="black" font-family="sans-serif"
x="140.000000" y="20.000000" ></text>
<title> - OBDepict</title>
</svg>
