<?xml version="1.0"?>
<svg xmlns="http://www.w3.org/2000/svg"
xmlns:xlink="http://www.w3.org/1999/xlink" xmlns:cml="http://www.xml-cml.org/schema" width="469.83" height="392.361" x="0" y="0" font-family="sans-serif" stroke="rgb(0,0,0)" stroke-width="1" >
<line x1="154.3" y1="92.4" x2="183.9" y2="92.4"/>
<polygon points="331.252854 185.017032 304.528471 189.494462 307.000607 197.102914 " />
<polygon points="242.075475 104.721360 219.482671 119.681480 224.835716 125.626639 " />
<line x1="183.9" y1="132.4" x2="149.3" y2="152.4"/>
<line x1="183.9" y1="132.4" x2="183.9" y2="92.4"/>
<line x1="149.3" y1="152.4" x2="149.3" y2="192.4"/>
<line x1="114.6" y1="252.4" x2="80.0" y2="272.4"/>
<line x1="114.6" y1="252.4" x2="114.6" y2="222.8"/>
<line x1="80.0" y1="272.4" x2="80.0" y2="302.0"/>
<line x1="170.8" y1="70.4" x2="171.5" y2="70.0"/>
<line x1="172.4" y1="74.1" x2="173.8" y2="73.3"/>
<line x1="174.1" y1="77.7" x2="176.2" y2="76.5"/>
<line x1="175.7" y1="81.4" x2="178.5" y2="79.8"/>
<line x1="177.4" y1="85.0" x2="180.9" y2="83.0"/>
<line x1="179.0" y1="88.7" x2="183.2" y2="86.3"/>
<line x1="180.7" y1="92.4" x2="185.5" y2="89.6"/>
<line x1="183.9" y1="92.4" x2="218.6" y2="72.4"/>
<polygon points="394.783429 164.374697 368.059046 168.852126 370.531182 176.460579 " />
<polygon points="416.918795 244.119514 391.536087 234.634890 389.872793 242.460071 " />
<line x1="390.7" y1="238.5" x2="399.9" y2="266.7"/>
<polygon points="315.415562 92.911548 305.930938 118.294257 313.756119 119.957551 " />
<line x1="196.2" y1="59.9" x2="196.6" y2="59.2"/>
<line x1="199.5" y1="62.3" x2="200.3" y2="60.9"/>
<line x1="202.7" y1="64.6" x2="203.9" y2="62.5"/>
<line x1="206.0" y1="66.9" x2="207.6" y2="64.2"/>
<line x1="209.3" y1="69.3" x2="211.3" y2="65.8"/>
<line x1="212.5" y1="71.6" x2="214.9" y2="67.5"/>
<line x1="215.8" y1="74.0" x2="218.6" y2="69.1"/>
<line x1="305.6" y1="94.6" x2="305.5" y2="95.4"/>
<line x1="301.7" y1="93.8" x2="301.5" y2="95.4"/>
<line x1="297.7" y1="93.0" x2="297.5" y2="95.4"/>
<line x1="293.8" y1="92.2" x2="293.5" y2="95.4"/>
<line x1="289.9" y1="91.4" x2="289.5" y2="95.4"/>
<line x1="285.9" y1="90.6" x2="285.4" y2="95.3"/>
<line x1="282.0" y1="89.7" x2="281.4" y2="95.3"/>
<line x1="296.6" y1="183.4" x2="295.8" y2="183.2"/>
<line x1="297.8" y1="179.5" x2="296.3" y2="179.2"/>
<line x1="299.0" y1="175.7" x2="296.7" y2="175.2"/>
<line x1="300.3" y1="171.9" x2="297.1" y2="171.2"/>
<line x1="301.5" y1="168.1" x2="297.6" y2="167.2"/>
<line x1="302.7" y1="164.2" x2="298.0" y2="163.2"/>
<line x1="303.9" y1="160.4" x2="298.5" y2="159.2"/>
<line x1="150.8" y1="195.0" x2="125.1" y2="209.8"/>
<line x1="147.8" y1="189.8" x2="122.1" y2="204.6"/>
<line x1="149.3" y1="192.4" x2="174.9" y2="207.2"/>
<line x1="50.4" y1="312.4" x2="69.6" y2="312.4"/>
<line x1="77.0" y1="342.0" x2="77.0" y2="322.8"/>
<line x1="83.0" y1="342.0" x2="83.0" y2="322.8"/>
<line x1="109.6" y1="315.4" x2="90.4" y2="315.4"/>
<line x1="109.6" y1="309.4" x2="90.4" y2="309.4"/>
<line x1="242.1" y1="40.0" x2="280.1" y2="52.4"/>
<line x1="280.1" y1="52.4" x2="280.1" y2="92.4"/>
<line x1="280.1" y1="92.4" x2="242.1" y2="104.7"/>
<line x1="242.1" y1="104.7" x2="218.6" y2="72.4"/>
<line x1="218.6" y1="72.4" x2="242.1" y2="40.0"/>
<line x1="347.9" y1="106.8" x2="377.6" y2="133.5"/>
<line x1="377.6" y1="133.5" x2="369.3" y2="172.7"/>
<line x1="369.3" y1="172.7" x2="331.3" y2="185.0"/>
<line x1="331.3" y1="185.0" x2="301.5" y2="158.3"/>
<line x1="301.5" y1="158.3" x2="309.8" y2="119.1"/>
<line x1="309.8" y1="119.1" x2="347.9" y2="106.8"/>
<line x1="399.0" y1="199.4" x2="390.7" y2="238.5"/>
<line x1="390.7" y1="238.5" x2="352.7" y2="250.9"/>
<line x1="352.7" y1="250.9" x2="322.9" y2="224.1"/>
<line x1="322.9" y1="224.1" x2="331.3" y2="185.0"/>
<line x1="369.3" y1="172.7" x2="399.0" y2="199.4"/>
<line x1="280.1" y1="92.4" x2="309.8" y2="119.1"/>
<line x1="301.5" y1="158.3" x2="263.5" y2="170.6"/>
<line x1="263.5" y1="170.6" x2="233.8" y2="143.8"/>
<line x1="233.8" y1="143.8" x2="242.1" y2="104.7"/>
<text x="120.323048" y="100.680680" fill="rgb(102,102,102)"  stroke="rgb(102,102,102)" stroke-width="1" font-size="16" >H</text>
<text x="132.323048" y="108.360680" fill="rgb(102,102,102)"  stroke="rgb(102,102,102)" stroke-width="1" font-size="13" >3</text>
<text x="138.823048" y="100.680680" fill="rgb(102,102,102)"  stroke="rgb(102,102,102)" stroke-width="1" font-size="16" >C</text>
<text x="269.610593" y="202.177712" fill="rgb(102,102,102)"  stroke="rgb(102,102,102)" stroke-width="1" font-size="16" >H</text>
<text x="281.610593" y="206.977712" fill="rgb(102,102,102)"  stroke="rgb(102,102,102)" stroke-width="1" font-size="13" >3</text>
<text x="288.110593" y="202.177712" fill="rgb(102,102,102)"  stroke="rgb(102,102,102)" stroke-width="1" font-size="16" >C</text>
<text x="188.749682" y="136.286584" fill="rgb(102,102,102)"  stroke="rgb(102,102,102)" stroke-width="1" font-size="16" >H</text>
<text x="200.749682" y="141.086584" fill="rgb(102,102,102)"  stroke="rgb(102,102,102)" stroke-width="1" font-size="13" >3</text>
<text x="207.249682" y="136.286584" fill="rgb(102,102,102)"  stroke="rgb(102,102,102)" stroke-width="1" font-size="16" >C</text>
<text x="111.041016" y="220.680680" fill="rgb(12,12,255)"  stroke="rgb(12,12,255)" stroke-width="1" font-size="16" >N</text>
<text x="397.065120" y="281.389741" fill="rgb(255,12,12)"  stroke="rgb(255,12,12)" stroke-width="1" font-size="16" >OH</text>
<text x="179.123048" y="231.560680" fill="rgb(255,12,12)"  stroke="rgb(255,12,12)" stroke-width="1" font-size="32" >-</text>
<text x="177.923048" y="217.160680" fill="rgb(255,12,12)"  stroke="rgb(255,12,12)" stroke-width="1" font-size="16" >O</text>
<text x="24.400000" y="317.160680" fill="rgb(255,12,12)"  stroke="rgb(255,12,12)" stroke-width="1" font-size="16" >HO</text>
<text x="74.000000" y="357.160680" fill="rgb(255,12,12)"  stroke="rgb(255,12,12)" stroke-width="1" font-size="16" >O</text>
<text x="114.000000" y="317.160680" fill="rgb(255,12,12)"  stroke="rgb(255,12,12)" stroke-width="1" font-size="16" >O</text>
<text x="74.000000" y="317.160680" fill="rgb(178,178,0)"  stroke="rgb(178,178,0)" stroke-width="1" font-size="16" >S</text>
<text x="160.323048" y="66.039664" fill="rgb(191,191,191)"  stroke="rgb(191,191,191)" stroke-width="1" font-size="16" >H</text>
<text x="401.337375" y="168.615673" fill="rgb(191,191,191)"  stroke="rgb(191,191,191)" stroke-width="1" font-size="16" >H</text>
<text x="423.830344" y="251.663948" fill="rgb(191,191,191)"  stroke="rgb(191,191,191)" stroke-width="1" font-size="16" >H</text>
<text x="312.159996" y="88.320000" fill="rgb(191,191,191)"  stroke="rgb(191,191,191)" stroke-width="1" font-size="16" >H</text>
<text x="180.323048" y="60.680680" fill="rgb(191,191,191)"  stroke="rgb(191,191,191)" stroke-width="1" font-size="16" >H</text>
<text x="313.898611" y="101.341818" fill="rgb(191,191,191)"  stroke="rgb(191,191,191)" stroke-width="1" font-size="16" >H</text>
<text x="289.610593" y="202.177712" fill="rgb(191,191,191)"  stroke="rgb(191,191,191)" stroke-width="1" font-size="16" >H</text>
<text font-size="18.000000" fill ="black" font-family="sans-serif"
x="140.000000" y="20.000000" ></text>
<title> - OBDepict</title>
</svg>
