<?xml version="1.0"?>
<svg xmlns="http://www.w3.org/2000/svg"
xmlns:xlink="http://www.w3.org/1999/xlink" xmlns:cml="http://www.xml-cml.org/schema" width="362.057" height="452.712" x="0" y="0" font-family="sans-serif" stroke="rgb(0,0,0)" stroke-width="1" >
<line x1="70.0" y1="259.6" x2="79.1" y2="231.5"/>
<polygon points="212.774746 120.000000 208.774746 146.800000 216.774746 146.800000 " />
<polygon points="108.851697 180.000000 116.098057 206.109965 123.406421 202.856072 " />
<line x1="117.2" y1="243.8" x2="125.5" y2="283.0"/>
<line x1="117.2" y1="243.8" x2="79.1" y2="231.5"/>
<line x1="125.5" y1="283.0" x2="163.5" y2="295.3"/>
<line x1="209.9" y1="346.8" x2="218.2" y2="385.9"/>
<line x1="209.9" y1="346.8" x2="181.7" y2="337.7"/>
<line x1="54.2" y1="237.2" x2="54.0" y2="236.4"/>
<line x1="58.2" y1="236.8" x2="57.8" y2="235.2"/>
<line x1="62.2" y1="236.3" x2="61.7" y2="234.0"/>
<line x1="66.2" y1="235.9" x2="65.5" y2="232.7"/>
<line x1="70.2" y1="235.4" x2="69.3" y2="231.5"/>
<line x1="74.1" y1="235.0" x2="73.1" y2="230.3"/>
<line x1="78.1" y1="234.6" x2="77.0" y2="229.1"/>
<line x1="79.1" y1="231.5" x2="70.8" y2="192.4"/>
<polygon points="212.774746 53.200000 208.774746 80.000000 216.774746 80.000000 " />
<polygon points="295.456778 56.790519 278.592676 78.000000 285.520879 82.000000 " />
<line x1="282.1" y1="80.0" x2="311.7" y2="80.0"/>
<polygon points="120.283232 106.600000 141.492713 123.464102 145.492713 116.535898 " />
<line x1="52.1" y1="209.8" x2="51.5" y2="209.2"/>
<line x1="55.3" y1="207.4" x2="54.2" y2="206.2"/>
<line x1="58.5" y1="205.0" x2="56.9" y2="203.2"/>
<line x1="61.8" y1="202.6" x2="59.6" y2="200.3"/>
<line x1="65.0" y1="200.3" x2="62.3" y2="197.3"/>
<line x1="68.3" y1="197.9" x2="65.0" y2="194.3"/>
<line x1="71.5" y1="195.5" x2="67.7" y2="191.4"/>
<line x1="118.9" y1="116.5" x2="119.6" y2="116.8"/>
<line x1="116.9" y1="119.9" x2="118.4" y2="120.6"/>
<line x1="114.9" y1="123.4" x2="117.1" y2="124.4"/>
<line x1="112.9" y1="126.9" x2="115.8" y2="128.2"/>
<line x1="110.9" y1="130.4" x2="114.6" y2="132.0"/>
<line x1="108.9" y1="133.9" x2="113.3" y2="135.9"/>
<line x1="106.9" y1="137.4" x2="112.1" y2="139.7"/>
<line x1="200.5" y1="152.5" x2="200.1" y2="153.1"/>
<line x1="197.2" y1="150.1" x2="196.4" y2="151.5"/>
<line x1="194.0" y1="147.8" x2="192.8" y2="149.8"/>
<line x1="190.7" y1="145.4" x2="189.1" y2="148.2"/>
<line x1="187.4" y1="143.1" x2="185.4" y2="146.5"/>
<line x1="184.2" y1="140.7" x2="181.8" y2="144.9"/>
<line x1="180.9" y1="138.4" x2="178.1" y2="143.2"/>
<line x1="166.5" y1="294.7" x2="172.6" y2="323.7"/>
<line x1="160.6" y1="296.0" x2="166.7" y2="324.9"/>
<line x1="163.5" y1="295.3" x2="185.5" y2="275.5"/>
<line x1="220.2" y1="388.2" x2="198.2" y2="408.0"/>
<line x1="216.2" y1="383.7" x2="194.2" y2="403.5"/>
<line x1="218.2" y1="385.9" x2="246.4" y2="395.1"/>
<line x1="47.3" y1="160.0" x2="70.8" y2="127.6"/>
<line x1="70.8" y1="127.6" x2="108.9" y2="140.0"/>
<line x1="108.9" y1="140.0" x2="108.9" y2="180.0"/>
<line x1="108.9" y1="180.0" x2="70.8" y2="192.4"/>
<line x1="70.8" y1="192.4" x2="47.3" y2="160.0"/>
<line x1="143.5" y1="80.0" x2="178.1" y2="60.0"/>
<line x1="178.1" y1="60.0" x2="212.8" y2="80.0"/>
<line x1="212.8" y1="80.0" x2="212.8" y2="120.0"/>
<line x1="212.8" y1="120.0" x2="178.1" y2="140.0"/>
<line x1="178.1" y1="140.0" x2="143.5" y2="120.0"/>
<line x1="143.5" y1="120.0" x2="143.5" y2="80.0"/>
<line x1="247.4" y1="60.0" x2="282.1" y2="80.0"/>
<line x1="282.1" y1="80.0" x2="282.1" y2="120.0"/>
<line x1="282.1" y1="120.0" x2="247.4" y2="140.0"/>
<line x1="247.4" y1="140.0" x2="212.8" y2="120.0"/>
<line x1="212.8" y1="80.0" x2="247.4" y2="60.0"/>
<line x1="108.9" y1="140.0" x2="143.5" y2="120.0"/>
<line x1="178.1" y1="140.0" x2="178.1" y2="180.0"/>
<line x1="178.1" y1="180.0" x2="143.5" y2="200.0"/>
<line x1="143.5" y1="200.0" x2="108.9" y2="180.0"/>
<text x="43.165224" y="274.328844" fill="rgb(102,102,102)"  stroke="rgb(102,102,102)" stroke-width="1" font-size="16" >H</text>
<text x="55.165224" y="279.128844" fill="rgb(102,102,102)"  stroke="rgb(102,102,102)" stroke-width="1" font-size="13" >3</text>
<text x="61.665224" y="274.328844" fill="rgb(102,102,102)"  stroke="rgb(102,102,102)" stroke-width="1" font-size="16" >C</text>
<text x="206.774746" y="164.800000" fill="rgb(102,102,102)"  stroke="rgb(102,102,102)" stroke-width="1" font-size="16" >CH</text>
<text x="230.774746" y="169.600000" fill="rgb(102,102,102)"  stroke="rgb(102,102,102)" stroke-width="1" font-size="13" >3</text>
<text x="119.121163" y="221.341818" fill="rgb(102,102,102)"  stroke="rgb(102,102,102)" stroke-width="1" font-size="16" >CH</text>
<text x="143.121163" y="226.141818" fill="rgb(102,102,102)"  stroke="rgb(102,102,102)" stroke-width="1" font-size="13" >3</text>
<text x="168.243361" y="339.259751" fill="rgb(12,12,255)"  stroke="rgb(12,12,255)" stroke-width="1" font-size="16" >N</text>
<text x="316.056778" y="84.800000" fill="rgb(255,12,12)"  stroke="rgb(255,12,12)" stroke-width="1" font-size="16" >OH</text>
<text x="187.252686" y="276.888623" fill="rgb(255,12,12)"  stroke="rgb(255,12,12)" stroke-width="1" font-size="16" >OH</text>
<text x="184.876296" y="417.511559" fill="rgb(255,12,12)"  stroke="rgb(255,12,12)" stroke-width="1" font-size="16" >O</text>
<text x="250.244350" y="403.107015" fill="rgb(255,12,12)"  stroke="rgb(255,12,12)" stroke-width="1" font-size="16" >OH</text>
<text x="36.400000" y="244.603051" fill="rgb(191,191,191)"  stroke="rgb(191,191,191)" stroke-width="1" font-size="16" >H</text>
<text x="206.774746" y="48.320000" fill="rgb(191,191,191)"  stroke="rgb(191,191,191)" stroke-width="1" font-size="16" >H</text>
<text x="296.056778" y="53.678984" fill="rgb(191,191,191)"  stroke="rgb(191,191,191)" stroke-width="1" font-size="16" >H</text>
<text x="105.251697" y="108.320000" fill="rgb(191,191,191)"  stroke="rgb(191,191,191)" stroke-width="1" font-size="16" >H</text>
<text x="37.483643" y="223.925904" fill="rgb(191,191,191)"  stroke="rgb(191,191,191)" stroke-width="1" font-size="16" >H</text>
<text x="119.121163" y="111.778182" fill="rgb(191,191,191)"  stroke="rgb(191,191,191)" stroke-width="1" font-size="16" >H</text>
<text x="206.774746" y="164.800000" fill="rgb(191,191,191)"  stroke="rgb(191,191,191)" stroke-width="1" font-size="16" >H</text>
<text font-size="18.000000" fill ="black" font-family="sans-serif"
x="140.000000" y="20.000000" ></text>
<title> - OBDepict</title>
</svg>
