<?xml version="1.0"?>
<svg xmlns="http://www.w3.org/2000/svg"
xmlns:xlink="http://www.w3.org/1999/xlink" xmlns:cml="http://www.xml-cml.org/schema" width="287.846" height="220" x="0" y="0" font-family="sans-serif" stroke="rgb(0,0,0)" stroke-width="1" >
<line x1="143.9" y1="100.0" x2="143.9" y2="70.4"/>
<line x1="145.4" y1="97.4" x2="180.1" y2="117.4"/>
<line x1="142.4" y1="102.6" x2="177.1" y2="122.6"/>
<line x1="143.9" y1="100.0" x2="109.3" y2="120.0"/>
<line x1="178.6" y1="120.0" x2="178.6" y2="149.6"/>
<line x1="178.6" y1="120.0" x2="213.2" y2="100.0"/>
<line x1="74.6" y1="100.0" x2="74.6" y2="70.4"/>
<line x1="213.2" y1="100.0" x2="213.2" y2="60.0"/>
<line x1="214.7" y1="97.4" x2="240.3" y2="112.2"/>
<line x1="211.7" y1="102.6" x2="237.3" y2="117.4"/>
<line x1="213.2" y1="60.0" x2="187.6" y2="45.2"/>
<line x1="211.7" y1="57.4" x2="237.3" y2="42.6"/>
<line x1="214.7" y1="62.6" x2="240.3" y2="47.8"/>
<line x1="74.6" y1="180.0" x2="109.3" y2="160.0"/>
<line x1="109.3" y1="160.0" x2="109.3" y2="120.0"/>
<line x1="102.1" y1="154.0" x2="102.1" y2="126.0"/>
<line x1="109.3" y1="120.0" x2="74.6" y2="100.0"/>
<line x1="74.6" y1="100.0" x2="40.0" y2="120.0"/>
<line x1="73.0" y1="109.2" x2="48.8" y2="123.2"/>
<line x1="40.0" y1="120.0" x2="40.0" y2="160.0"/>
<line x1="40.0" y1="160.0" x2="74.6" y2="180.0"/>
<line x1="48.8" y1="156.8" x2="73.0" y2="170.8"/>
<text x="68.641016" y="68.320000" fill="rgb(255,12,12)"  stroke="rgb(255,12,12)" stroke-width="1" font-size="16" >OH</text>
<text x="241.846097" y="124.800000" fill="rgb(255,12,12)"  stroke="rgb(255,12,12)" stroke-width="1" font-size="16" >O</text>
<text x="162.964065" y="48.320000" fill="rgb(255,12,12)"  stroke="rgb(255,12,12)" stroke-width="1" font-size="16" >HO</text>
<text x="241.846097" y="48.320000" fill="rgb(255,12,12)"  stroke="rgb(255,12,12)" stroke-width="1" font-size="16" >O</text>
<text x="137.923048" y="68.320000" fill="rgb(191,191,191)"  stroke="rgb(191,191,191)" stroke-width="1" font-size="16" >H</text>
<text x="172.564065" y="164.800000" fill="rgb(191,191,191)"  stroke="rgb(191,191,191)" stroke-width="1" font-size="16" >H</text>
<text font-size="18.000000" fill ="black" font-family="sans-serif"
x="140.000000" y="20.000000" ></text>
<title> - OBDepict</title>
</svg>
