<?xml version="1.0"?>
<svg xmlns="http://www.w3.org/2000/svg"
xmlns:xlink="http://www.w3.org/1999/xlink" xmlns:cml="http://www.xml-cml.org/schema" width="287.23" height="274.641" x="0" y="0" font-family="sans-serif" stroke="rgb(0,0,0)" stroke-width="1" >
<line x1="114.6" y1="140.0" x2="114.6" y2="180.0"/>
<line x1="114.6" y1="140.0" x2="89.0" y2="125.2"/>
<line x1="183.9" y1="180.0" x2="149.3" y2="200.0"/>
<polygon points="87.841016 180.000000 114.641016 184.000000 114.641016 176.000000 " />
<line x1="114.6" y1="180.0" x2="149.3" y2="200.0"/>
<line x1="114.6" y1="180.0" x2="99.8" y2="205.6"/>
<polygon points="135.882032 223.209481 152.746134 202.000000 145.817931 198.000000 " />
<line x1="149.3" y1="200.0" x2="164.1" y2="225.6"/>
<line x1="50.4" y1="80.0" x2="69.6" y2="80.0"/>
<line x1="80.0" y1="50.4" x2="80.0" y2="69.6"/>
<line x1="109.6" y1="83.0" x2="90.4" y2="83.0"/>
<line x1="109.6" y1="77.0" x2="90.4" y2="77.0"/>
<line x1="80.0" y1="109.6" x2="80.0" y2="90.4"/>
<line x1="188.1" y1="140.2" x2="183.9" y2="180.0"/>
<line x1="183.9" y1="180.0" x2="220.5" y2="196.3"/>
<line x1="192.3" y1="175.9" x2="217.9" y2="187.3"/>
<line x1="220.5" y1="196.3" x2="240.3" y2="174.3"/>
<line x1="242.0" y1="157.5" x2="227.2" y2="131.9"/>
<line x1="227.2" y1="131.9" x2="188.1" y2="140.2"/>
<line x1="173.7" y1="72.5" x2="161.3" y2="110.5"/>
<line x1="161.3" y1="110.5" x2="188.1" y2="140.2"/>
<line x1="170.7" y1="110.1" x2="189.4" y2="130.9"/>
<line x1="227.2" y1="131.9" x2="239.6" y2="93.9"/>
<line x1="222.2" y1="124.0" x2="230.9" y2="97.3"/>
<line x1="239.6" y1="93.9" x2="212.8" y2="64.1"/>
<line x1="212.8" y1="64.1" x2="173.7" y2="72.5"/>
<line x1="208.5" y1="72.4" x2="181.1" y2="78.2"/>
<text x="241.230091" y="171.343673" fill="rgb(12,12,255)"  stroke="rgb(12,12,255)" stroke-width="1" font-size="16" >NH</text>
<text x="79.041016" y="219.441016" fill="rgb(255,12,12)"  stroke="rgb(255,12,12)" stroke-width="1" font-size="16" >HO</text>
<text x="163.282032" y="239.441016" fill="rgb(255,12,12)"  stroke="rgb(255,12,12)" stroke-width="1" font-size="16" >OH</text>
<text x="35.200000" y="99.200000" fill="rgb(255,12,12)"  stroke="rgb(255,12,12)" stroke-width="1" font-size="32" >-</text>
<text x="36.400000" y="84.800000" fill="rgb(255,12,12)"  stroke="rgb(255,12,12)" stroke-width="1" font-size="16" >O</text>
<text x="75.200000" y="33.600000" fill="rgb(255,12,12)"  stroke="rgb(255,12,12)" stroke-width="1" font-size="32" >-</text>
<text x="74.000000" y="48.320000" fill="rgb(255,12,12)"  stroke="rgb(255,12,12)" stroke-width="1" font-size="16" >O</text>
<text x="114.000000" y="88.320000" fill="rgb(255,12,12)"  stroke="rgb(255,12,12)" stroke-width="1" font-size="16" >O</text>
<text x="76.400000" y="124.800000" fill="rgb(255,12,12)"  stroke="rgb(255,12,12)" stroke-width="1" font-size="16" >O</text>
<text x="74.000000" y="84.800000" fill="rgb(255,127,0)"  stroke="rgb(255,127,0)" stroke-width="1" font-size="16" >P</text>
<text x="71.041016" y="184.800000" fill="rgb(191,191,191)"  stroke="rgb(191,191,191)" stroke-width="1" font-size="16" >H</text>
<text x="125.682032" y="239.441016" fill="rgb(191,191,191)"  stroke="rgb(191,191,191)" stroke-width="1" font-size="16" >H</text>
<text font-size="18.000000" fill ="black" font-family="sans-serif"
x="140.000000" y="20.000000" ></text>
<title> - OBDepict</title>
</svg>
