<?xml version="1.0"?>
<svg xmlns="http://www.w3.org/2000/svg"
xmlns:xlink="http://www.w3.org/1999/xlink" xmlns:cml="http://www.xml-cml.org/schema" width="625.442" height="559.023" x="0" y="0" font-family="sans-serif" stroke="rgb(0,0,0)" stroke-width="1" >
<line x1="50.5" y1="208.2" x2="78.5" y2="214.2"/>
<line x1="49.2" y1="214.1" x2="77.2" y2="220.1"/>
<line x1="311.5" y1="115.1" x2="332.8" y2="134.3"/>
<line x1="305.5" y1="143.1" x2="332.8" y2="134.3"/>
<line x1="77.8" y1="217.1" x2="103.7" y2="188.4"/>
<line x1="245.1" y1="81.4" x2="283.0" y2="89.5"/>
<line x1="245.1" y1="81.4" x2="219.2" y2="110.2"/>
<line x1="283.0" y1="89.5" x2="302.1" y2="68.2"/>
<line x1="205.3" y1="175.7" x2="167.5" y2="167.7"/>
<line x1="205.3" y1="175.7" x2="224.5" y2="154.4"/>
<line x1="167.5" y1="167.7" x2="148.3" y2="188.9"/>
<line x1="326.7" y1="349.1" x2="364.5" y2="357.2"/>
<line x1="326.7" y1="349.1" x2="317.8" y2="321.9"/>
<line x1="356.7" y1="207.9" x2="332.8" y2="134.3"/>
<line x1="356.7" y1="207.9" x2="337.5" y2="229.2"/>
<line x1="356.5" y1="333.7" x2="357.2" y2="333.5"/>
<line x1="357.3" y1="337.5" x2="358.8" y2="337.0"/>
<line x1="358.1" y1="341.3" x2="360.4" y2="340.6"/>
<line x1="358.9" y1="345.1" x2="362.0" y2="344.2"/>
<line x1="359.7" y1="349.0" x2="363.5" y2="347.7"/>
<line x1="360.5" y1="352.8" x2="365.1" y2="351.3"/>
<line x1="361.4" y1="356.6" x2="366.7" y2="354.8"/>
<line x1="222.1" y1="109.2" x2="230.9" y2="136.5"/>
<line x1="216.4" y1="111.1" x2="225.2" y2="138.3"/>
<line x1="219.2" y1="110.2" x2="191.2" y2="104.2"/>
<line x1="100.9" y1="189.3" x2="92.0" y2="162.1"/>
<line x1="106.6" y1="187.4" x2="97.7" y2="160.2"/>
<line x1="103.7" y1="188.4" x2="131.7" y2="194.3"/>
<polygon points="387.789743 436.028653 399.604094 412.612089 391.995642 410.139953 " />
<line x1="395.8" y1="411.4" x2="415.0" y2="432.7"/>
<polygon points="334.534831 395.639981 360.456142 399.639981 360.456142 391.639981 " />
<line x1="360.5" y1="395.6" x2="346.1" y2="420.4"/>
<line x1="358.7" y1="105.5" x2="385.9" y2="96.7"/>
<line x1="358.7" y1="105.5" x2="346.7" y2="68.8"/>
<line x1="358.7" y1="105.5" x2="332.8" y2="134.3"/>
<line x1="358.7" y1="105.5" x2="379.9" y2="124.7"/>
<line x1="561.1" y1="482.9" x2="571.4" y2="509.6"/>
<line x1="346.1" y1="71.7" x2="318.1" y2="65.7"/>
<line x1="347.3" y1="65.8" x2="319.3" y2="59.9"/>
<line x1="346.7" y1="68.8" x2="365.9" y2="47.5"/>
<line x1="437.1" y1="363.3" x2="437.8" y2="363.8"/>
<line x1="434.4" y1="366.0" x2="435.6" y2="367.0"/>
<line x1="431.6" y1="368.7" x2="433.4" y2="370.3"/>
<line x1="428.8" y1="371.5" x2="431.3" y2="373.5"/>
<line x1="426.1" y1="374.2" x2="429.1" y2="376.7"/>
<line x1="423.3" y1="376.9" x2="427.0" y2="380.0"/>
<line x1="420.5" y1="379.6" x2="424.8" y2="383.2"/>
<line x1="421.7" y1="382.6" x2="457.7" y2="427.1"/>
<line x1="302.4" y1="457.8" x2="302.4" y2="439.2"/>
<line x1="273.8" y1="429.1" x2="292.4" y2="429.1"/>
<line x1="305.4" y1="400.5" x2="305.4" y2="419.1"/>
<line x1="299.4" y1="400.5" x2="299.4" y2="419.1"/>
<line x1="270.9" y1="332.3" x2="274.8" y2="314.1"/>
<line x1="249.5" y1="295.4" x2="267.6" y2="299.3"/>
<line x1="248.2" y1="301.3" x2="266.4" y2="305.1"/>
<line x1="264.9" y1="222.6" x2="283.1" y2="226.5"/>
<line x1="301.8" y1="201.2" x2="298.0" y2="219.4"/>
<line x1="296.0" y1="200.0" x2="292.1" y2="218.1"/>
<line x1="304.9" y1="310.2" x2="286.7" y2="306.4"/>
<line x1="321.0" y1="234.5" x2="302.8" y2="230.7"/>
<line x1="331.1" y1="429.1" x2="312.5" y2="429.1"/>
<line x1="282.8" y1="276.3" x2="278.9" y2="294.4"/>
<line x1="287.0" y1="256.6" x2="290.9" y2="238.4"/>
<line x1="460.4" y1="480.1" x2="467.8" y2="452.5"/>
<line x1="480.4" y1="442.2" x2="509.0" y2="440.7"/>
<line x1="509.0" y1="440.7" x2="522.9" y2="476.9"/>
<line x1="522.9" y1="476.9" x2="500.6" y2="494.9"/>
<line x1="484.4" y1="495.7" x2="460.4" y2="480.1"/>
<line x1="486.5" y1="488.5" x2="469.3" y2="477.4"/>
<line x1="364.5" y1="357.2" x2="360.5" y2="395.6"/>
<line x1="360.5" y1="395.6" x2="395.8" y2="411.4"/>
<line x1="395.8" y1="411.4" x2="421.7" y2="382.6"/>
<line x1="421.7" y1="382.6" x2="407.4" y2="357.8"/>
<line x1="392.5" y1="351.2" x2="364.5" y2="357.2"/>
<line x1="509.0" y1="440.7" x2="527.0" y2="418.5"/>
<line x1="518.4" y1="440.6" x2="531.3" y2="424.7"/>
<line x1="543.3" y1="412.2" x2="571.6" y2="416.7"/>
<line x1="571.6" y1="416.7" x2="581.8" y2="443.4"/>
<line x1="567.0" y1="424.9" x2="574.4" y2="444.0"/>
<line x1="579.1" y1="460.7" x2="561.1" y2="482.9"/>
<line x1="561.1" y1="482.9" x2="522.9" y2="476.9"/>
<line x1="556.3" y1="474.9" x2="529.9" y2="470.7"/>
<text x="16.400000" y="217.403052" fill="rgb(102,102,102)"  stroke="rgb(102,102,102)" stroke-width="1" font-size="16" >H</text>
<text x="28.400000" y="225.083052" fill="rgb(102,102,102)"  stroke="rgb(102,102,102)" stroke-width="1" font-size="13" >2</text>
<text x="34.900000" y="217.403052" fill="rgb(102,102,102)"  stroke="rgb(102,102,102)" stroke-width="1" font-size="16" >C</text>
<text x="280.414964" y="116.729651" fill="rgb(102,102,102)"  stroke="rgb(102,102,102)" stroke-width="1" font-size="16" >H</text>
<text x="292.414964" y="124.409651" fill="rgb(102,102,102)"  stroke="rgb(102,102,102)" stroke-width="1" font-size="13" >3</text>
<text x="298.914964" y="116.729651" fill="rgb(102,102,102)"  stroke="rgb(102,102,102)" stroke-width="1" font-size="16" >C</text>
<text x="272.371168" y="151.052739" fill="rgb(102,102,102)"  stroke="rgb(102,102,102)" stroke-width="1" font-size="16" >H</text>
<text x="284.371168" y="155.852739" fill="rgb(102,102,102)"  stroke="rgb(102,102,102)" stroke-width="1" font-size="13" >3</text>
<text x="290.871168" y="151.052739" fill="rgb(102,102,102)"  stroke="rgb(102,102,102)" stroke-width="1" font-size="16" >C</text>
<text x="568.959661" y="523.823222" fill="rgb(12,12,255)"  stroke="rgb(12,12,255)" stroke-width="1" font-size="16" >NH</text>
<text x="592.959661" y="528.623222" fill="rgb(12,12,255)"  stroke="rgb(12,12,255)" stroke-width="1" font-size="13" >2</text>
<text x="225.192290" y="151.760911" fill="rgb(12,12,255)"  stroke="rgb(12,12,255)" stroke-width="1" font-size="16" >N</text>
<text x="305.255318" y="69.027380" fill="rgb(12,12,255)"  stroke="rgb(12,12,255)" stroke-width="1" font-size="16" >N</text>
<text x="579.442412" y="457.637742" fill="rgb(12,12,255)"  stroke="rgb(12,12,255)" stroke-width="1" font-size="16" >N</text>
<text x="529.765480" y="418.986674" fill="rgb(12,12,255)"  stroke="rgb(12,12,255)" stroke-width="1" font-size="16" >N</text>
<text x="486.816099" y="505.999631" fill="rgb(12,12,255)"  stroke="rgb(12,12,255)" stroke-width="1" font-size="16" >N</text>
<text x="464.382499" y="447.558106" fill="rgb(12,12,255)"  stroke="rgb(12,12,255)" stroke-width="1" font-size="16" >N</text>
<text x="165.793791" y="110.442141" fill="rgb(255,12,12)"  stroke="rgb(255,12,12)" stroke-width="1" font-size="16" >HO</text>
<text x="88.175352" y="159.900698" fill="rgb(255,12,12)"  stroke="rgb(255,12,12)" stroke-width="1" font-size="16" >O</text>
<text x="415.687544" y="444.927198" fill="rgb(255,12,12)"  stroke="rgb(255,12,12)" stroke-width="1" font-size="16" >OH</text>
<text x="381.404994" y="136.233826" fill="rgb(255,12,12)"  stroke="rgb(255,12,12)" stroke-width="1" font-size="16" >OH</text>
<text x="366.586081" y="48.320000" fill="rgb(255,12,12)"  stroke="rgb(255,12,12)" stroke-width="1" font-size="16" >OH</text>
<text x="296.423356" y="472.633750" fill="rgb(255,12,12)"  stroke="rgb(255,12,12)" stroke-width="1" font-size="16" >OH</text>
<text x="248.134831" y="433.945226" fill="rgb(255,12,12)"  stroke="rgb(255,12,12)" stroke-width="1" font-size="16" >HO</text>
<text x="296.423356" y="398.776701" fill="rgb(255,12,12)"  stroke="rgb(255,12,12)" stroke-width="1" font-size="16" >O</text>
<text x="253.214811" y="346.923917" fill="rgb(255,12,12)"  stroke="rgb(255,12,12)" stroke-width="1" font-size="16" >HO</text>
<text x="235.415520" y="304.557033" fill="rgb(255,12,12)"  stroke="rgb(255,12,12)" stroke-width="1" font-size="16" >O</text>
<text x="239.503113" y="228.870858" fill="rgb(255,12,12)"  stroke="rgb(255,12,12)" stroke-width="1" font-size="16" >HO</text>
<text x="294.989998" y="199.071567" fill="rgb(255,12,12)"  stroke="rgb(255,12,12)" stroke-width="1" font-size="16" >O</text>
<text x="308.701695" y="320.644626" fill="rgb(255,12,12)"  stroke="rgb(255,12,12)" stroke-width="1" font-size="16" >O</text>
<text x="324.789288" y="241.438451" fill="rgb(255,12,12)"  stroke="rgb(255,12,12)" stroke-width="1" font-size="16" >O</text>
<text x="396.343282" y="357.439599" fill="rgb(255,12,12)"  stroke="rgb(255,12,12)" stroke-width="1" font-size="16" >O</text>
<text x="335.111880" y="433.945226" fill="rgb(255,12,12)"  stroke="rgb(255,12,12)" stroke-width="1" font-size="16" >O</text>
<text x="278.902404" y="274.757742" fill="rgb(255,12,12)"  stroke="rgb(255,12,12)" stroke-width="1" font-size="16" >O</text>
<text x="296.423356" y="433.945226" fill="rgb(255,127,0)"  stroke="rgb(255,127,0)" stroke-width="1" font-size="16" >P</text>
<text x="270.858608" y="309.080829" fill="rgb(255,127,0)"  stroke="rgb(255,127,0)" stroke-width="1" font-size="16" >P</text>
<text x="286.946201" y="233.394654" fill="rgb(255,127,0)"  stroke="rgb(255,127,0)" stroke-width="1" font-size="16" >P</text>
<text x="135.573851" y="201.219468" fill="rgb(178,178,0)"  stroke="rgb(178,178,0)" stroke-width="1" font-size="16" >S</text>
<text x="348.944783" y="328.688422" fill="rgb(191,191,191)"  stroke="rgb(191,191,191)" stroke-width="1" font-size="16" >H</text>
<text x="380.244457" y="452.970995" fill="rgb(191,191,191)"  stroke="rgb(191,191,191)" stroke-width="1" font-size="16" >H</text>
<text x="318.167618" y="400.439981" fill="rgb(191,191,191)"  stroke="rgb(191,191,191)" stroke-width="1" font-size="16" >H</text>
<text x="389.448791" y="101.910739" fill="rgb(191,191,191)"  stroke="rgb(191,191,191)" stroke-width="1" font-size="16" >H</text>
<text x="440.309382" y="361.102474" fill="rgb(191,191,191)"  stroke="rgb(191,191,191)" stroke-width="1" font-size="16" >H</text>
<text font-size="18.000000" fill ="black" font-family="sans-serif"
x="140.000000" y="20.000000" ></text>
<title> - OBDepict</title>
</svg>
