<?xml version="1.0"?>
<svg xmlns="http://www.w3.org/2000/svg"
xmlns:xlink="http://www.w3.org/1999/xlink" xmlns:cml="http://www.xml-cml.org/schema" width="410.953" height="280" x="0" y="0" font-family="sans-serif" stroke="rgb(0,0,0)" stroke-width="1" >
<polygon points="182.267 133.4 207.477 123.464 203.477 116.536 " />
<line x1="40.0" y1="80.0" x2="57.4" y2="56.1"/>
<line x1="73.4" y1="50.9" x2="101.6" y2="60.0"/>
<line x1="101.6" y1="60.0" x2="101.6" y2="100.0"/>
<line x1="94.4" y1="66.0" x2="94.4" y2="94.0"/>
<line x1="101.6" y1="100.0" x2="73.4" y2="109.1"/>
<line x1="57.4" y1="103.9" x2="40.0" y2="80.0"/>
<line x1="309.4" y1="220.0" x2="337.6" y2="229.1"/>
<line x1="353.6" y1="223.9" x2="371.0" y2="200.0"/>
<line x1="371.0" y1="200.0" x2="353.6" y2="176.1"/>
<line x1="337.6" y1="170.9" x2="309.4" y2="180.0"/>
<line x1="309.4" y1="180.0" x2="309.4" y2="220.0"/>
<line x1="316.6" y1="186.0" x2="316.6" y2="214.0"/>
<line x1="170.8" y1="60.0" x2="205.5" y2="40.0"/>
<line x1="205.5" y1="40.0" x2="240.1" y2="60.0"/>
<line x1="240.1" y1="60.0" x2="240.1" y2="89.6"/>
<line x1="231.1" y1="105.2" x2="205.5" y2="120.0"/>
<line x1="205.5" y1="120.0" x2="170.8" y2="100.0"/>
<line x1="170.8" y1="100.0" x2="170.8" y2="60.0"/>
<line x1="309.4" y1="220.0" x2="274.8" y2="240.0"/>
<line x1="274.8" y1="240.0" x2="240.1" y2="220.0"/>
<line x1="273.2" y1="230.8" x2="248.9" y2="216.8"/>
<line x1="240.1" y1="220.0" x2="240.1" y2="180.0"/>
<line x1="240.1" y1="180.0" x2="274.8" y2="160.0"/>
<line x1="248.9" y1="183.2" x2="273.2" y2="169.2"/>
<line x1="274.8" y1="160.0" x2="309.4" y2="180.0"/>
<line x1="136.2" y1="120.0" x2="170.8" y2="100.0"/>
<line x1="137.8" y1="110.8" x2="162.0" y2="96.8"/>
<line x1="170.8" y1="60.0" x2="136.2" y2="40.0"/>
<line x1="162.0" y1="63.2" x2="137.8" y2="49.2"/>
<line x1="136.2" y1="40.0" x2="101.6" y2="60.0"/>
<line x1="101.6" y1="100.0" x2="136.2" y2="120.0"/>
<line x1="205.5" y1="160.0" x2="240.1" y2="180.0"/>
<line x1="274.8" y1="160.0" x2="274.8" y2="120.0"/>
<line x1="274.8" y1="120.0" x2="249.1" y2="105.2"/>
<line x1="205.5" y1="120.0" x2="205.5" y2="160.0"/>
<text x="234.117735" y="108.320000" fill="rgb(12,12,255)"  stroke="rgb(12,12,255)" stroke-width="1" font-size="16" >N</text>
<text x="341.442028" y="237.160680" fill="rgb(255,12,12)"  stroke="rgb(255,12,12)" stroke-width="1" font-size="16" >O</text>
<text x="59.911410" y="55.959320" fill="rgb(255,12,12)"  stroke="rgb(255,12,12)" stroke-width="1" font-size="16" >O</text>
<text x="59.911410" y="117.160680" fill="rgb(255,12,12)"  stroke="rgb(255,12,12)" stroke-width="1" font-size="16" >O</text>
<text x="341.442028" y="175.959320" fill="rgb(255,12,12)"  stroke="rgb(255,12,12)" stroke-width="1" font-size="16" >O</text>
<text x="167.235703" y="144.800000" fill="rgb(191,191,191)"  stroke="rgb(191,191,191)" stroke-width="1" font-size="16" >H</text>
<text font-size="18.000000" fill ="black" font-family="sans-serif"
x="140.000000" y="20.000000" ></text>
<title> - OBDepict</title>
</svg>
