<?xml version="1.0"?>
<svg xmlns="http://www.w3.org/2000/svg"
xmlns:xlink="http://www.w3.org/1999/xlink" xmlns:cml="http://www.xml-cml.org/schema" width="916.392" height="631.655" x="0" y="0" font-family="sans-serif" stroke="rgb(0,0,0)" stroke-width="1" >
<line x1="171.5" y1="584.1" x2="190.9" y2="562.6"/>
<line x1="599.7" y1="115.9" x2="621.2" y2="135.2"/>
<line x1="593.7" y1="144.2" x2="621.2" y2="135.2"/>
<line x1="190.9" y1="562.6" x2="178.8" y2="525.5"/>
<line x1="178.8" y1="525.5" x2="198.1" y2="504.0"/>
<line x1="178.2" y1="528.4" x2="140.0" y2="520.3"/>
<line x1="179.4" y1="522.5" x2="141.2" y2="514.4"/>
<line x1="140.6" y1="517.3" x2="121.2" y2="538.8"/>
<line x1="140.6" y1="517.3" x2="128.5" y2="480.2"/>
<line x1="128.5" y1="480.2" x2="90.3" y2="472.1"/>
<line x1="90.3" y1="472.1" x2="70.9" y2="493.5"/>
<line x1="87.4" y1="473.0" x2="75.4" y2="435.8"/>
<line x1="93.1" y1="471.1" x2="81.1" y2="434.0"/>
<line x1="78.2" y1="434.9" x2="49.9" y2="428.9"/>
<line x1="78.2" y1="434.9" x2="104.4" y2="405.9"/>
<line x1="104.4" y1="405.9" x2="92.3" y2="368.7"/>
<line x1="92.3" y1="368.7" x2="64.0" y2="362.7"/>
<line x1="90.1" y1="366.7" x2="116.2" y2="337.7"/>
<line x1="94.5" y1="370.7" x2="120.7" y2="341.7"/>
<line x1="118.4" y1="339.7" x2="109.5" y2="312.2"/>
<line x1="118.4" y1="339.7" x2="156.6" y2="347.8"/>
<line x1="156.6" y1="347.8" x2="182.8" y2="318.8"/>
<line x1="182.8" y1="318.8" x2="221.0" y2="326.9"/>
<line x1="221.0" y1="326.9" x2="247.1" y2="297.9"/>
<line x1="247.1" y1="297.9" x2="235.1" y2="260.7"/>
<line x1="235.1" y1="260.7" x2="206.8" y2="254.7"/>
<line x1="232.8" y1="258.7" x2="259.0" y2="229.7"/>
<line x1="237.3" y1="262.7" x2="263.4" y2="233.7"/>
<line x1="261.2" y1="231.7" x2="252.3" y2="204.2"/>
<line x1="261.2" y1="231.7" x2="299.4" y2="239.8"/>
<line x1="299.4" y1="239.8" x2="325.6" y2="210.7"/>
<line x1="325.6" y1="210.7" x2="363.8" y2="218.9"/>
<line x1="363.8" y1="218.9" x2="389.9" y2="189.8"/>
<line x1="532.7" y1="81.8" x2="570.9" y2="89.9"/>
<line x1="532.7" y1="81.8" x2="506.6" y2="110.9"/>
<line x1="570.9" y1="89.9" x2="590.3" y2="68.5"/>
<line x1="492.5" y1="177.0" x2="454.3" y2="168.9"/>
<line x1="492.5" y1="177.0" x2="511.9" y2="155.6"/>
<line x1="454.3" y1="168.9" x2="434.9" y2="190.4"/>
<line x1="615.1" y1="352.2" x2="653.3" y2="360.3"/>
<line x1="615.1" y1="352.2" x2="606.1" y2="324.7"/>
<line x1="645.4" y1="209.5" x2="621.2" y2="135.2"/>
<line x1="645.4" y1="209.5" x2="626.0" y2="231.0"/>
<line x1="645.2" y1="336.6" x2="645.9" y2="336.4"/>
<line x1="646.0" y1="340.5" x2="647.5" y2="340.0"/>
<line x1="646.8" y1="344.3" x2="649.1" y2="343.6"/>
<line x1="647.6" y1="348.1" x2="650.7" y2="347.2"/>
<line x1="648.5" y1="352.0" x2="652.3" y2="350.8"/>
<line x1="649.3" y1="355.8" x2="653.9" y2="354.3"/>
<line x1="650.1" y1="359.7" x2="655.5" y2="357.9"/>
<line x1="509.4" y1="109.9" x2="518.4" y2="137.4"/>
<line x1="503.7" y1="111.8" x2="512.7" y2="139.3"/>
<line x1="506.6" y1="110.9" x2="478.3" y2="104.8"/>
<line x1="387.1" y1="190.8" x2="378.1" y2="163.3"/>
<line x1="392.8" y1="188.9" x2="383.9" y2="161.4"/>
<line x1="389.9" y1="189.8" x2="418.2" y2="195.8"/>
<polygon points="676.791134 439.931183 688.684419 416.271687 681.075967 413.799551 " />
<line x1="684.9" y1="415.0" x2="704.2" y2="436.5"/>
<polygon points="623.011440 399.144513 649.188184 403.144513 649.188184 395.144513 " />
<line x1="649.2" y1="399.1" x2="634.7" y2="424.2"/>
<polygon points="672.263661 98.102994 646.132030 102.387826 648.604166 109.996278 " />
<line x1="647.4" y1="106.2" x2="635.3" y2="69.0"/>
<line x1="647.4" y1="106.2" x2="621.2" y2="135.2"/>
<line x1="647.4" y1="106.2" x2="668.9" y2="125.5"/>
<line x1="851.8" y1="487.3" x2="862.2" y2="514.3"/>
<line x1="634.7" y1="72.0" x2="606.4" y2="66.0"/>
<line x1="635.9" y1="66.1" x2="607.6" y2="60.1"/>
<line x1="635.3" y1="69.0" x2="654.6" y2="47.5"/>
<line x1="726.6" y1="366.5" x2="727.2" y2="367.0"/>
<line x1="723.8" y1="369.2" x2="725.1" y2="370.2"/>
<line x1="721.0" y1="372.0" x2="722.9" y2="373.5"/>
<line x1="718.2" y1="374.7" x2="720.7" y2="376.8"/>
<line x1="715.4" y1="377.5" x2="718.5" y2="380.0"/>
<line x1="712.7" y1="380.3" x2="716.4" y2="383.3"/>
<line x1="709.9" y1="383.0" x2="714.2" y2="386.6"/>
<line x1="711.0" y1="386.0" x2="747.4" y2="430.9"/>
<line x1="590.6" y1="461.9" x2="590.6" y2="443.1"/>
<line x1="561.7" y1="433.0" x2="580.4" y2="433.0"/>
<line x1="593.6" y1="404.1" x2="593.6" y2="422.8"/>
<line x1="587.6" y1="404.1" x2="587.6" y2="422.8"/>
<line x1="558.8" y1="335.2" x2="562.7" y2="316.8"/>
<line x1="537.1" y1="297.9" x2="555.5" y2="301.8"/>
<line x1="535.9" y1="303.8" x2="554.2" y2="307.7"/>
<line x1="552.7" y1="224.4" x2="571.1" y2="228.3"/>
<line x1="590.0" y1="202.8" x2="586.1" y2="221.1"/>
<line x1="584.1" y1="201.5" x2="580.2" y2="219.9"/>
<line x1="593.0" y1="312.9" x2="574.7" y2="309.0"/>
<line x1="609.3" y1="236.5" x2="590.9" y2="232.6"/>
<line x1="619.5" y1="433.0" x2="600.7" y2="433.0"/>
<line x1="570.8" y1="278.6" x2="566.9" y2="296.9"/>
<line x1="575.0" y1="258.7" x2="578.9" y2="240.4"/>
<line x1="750.1" y1="484.5" x2="757.6" y2="456.5"/>
<line x1="770.3" y1="446.2" x2="799.2" y2="444.7"/>
<line x1="799.2" y1="444.7" x2="813.2" y2="481.2"/>
<line x1="813.2" y1="481.2" x2="790.7" y2="499.4"/>
<line x1="774.3" y1="500.2" x2="750.1" y2="484.5"/>
<line x1="776.5" y1="493.0" x2="759.0" y2="481.7"/>
<line x1="653.3" y1="360.3" x2="649.2" y2="399.1"/>
<line x1="649.2" y1="399.1" x2="684.9" y2="415.0"/>
<line x1="684.9" y1="415.0" x2="711.0" y2="386.0"/>
<line x1="711.0" y1="386.0" x2="696.6" y2="361.0"/>
<line x1="681.6" y1="354.3" x2="653.3" y2="360.3"/>
<line x1="799.2" y1="444.7" x2="817.4" y2="422.2"/>
<line x1="808.6" y1="444.6" x2="821.7" y2="428.4"/>
<line x1="833.8" y1="415.9" x2="862.4" y2="420.4"/>
<line x1="862.4" y1="420.4" x2="872.8" y2="447.4"/>
<line x1="857.8" y1="428.6" x2="865.3" y2="448.0"/>
<line x1="870.0" y1="464.8" x2="851.8" y2="487.3"/>
<line x1="851.8" y1="487.3" x2="813.2" y2="481.2"/>
<line x1="847.0" y1="479.2" x2="820.3" y2="475.0"/>
<text x="141.124887" y="596.455415" fill="rgb(102,102,102)"  stroke="rgb(102,102,102)" stroke-width="1" font-size="16" >H</text>
<text x="153.124887" y="601.255415" fill="rgb(102,102,102)"  stroke="rgb(102,102,102)" stroke-width="1" font-size="13" >3</text>
<text x="159.624887" y="596.455415" fill="rgb(102,102,102)"  stroke="rgb(102,102,102)" stroke-width="1" font-size="16" >C</text>
<text x="568.590826" y="117.403771" fill="rgb(102,102,102)"  stroke="rgb(102,102,102)" stroke-width="1" font-size="16" >H</text>
<text x="580.590826" y="125.083771" fill="rgb(102,102,102)"  stroke="rgb(102,102,102)" stroke-width="1" font-size="13" >3</text>
<text x="587.090826" y="117.403771" fill="rgb(102,102,102)"  stroke="rgb(102,102,102)" stroke-width="1" font-size="16" >C</text>
<text x="560.467764" y="152.099770" fill="rgb(102,102,102)"  stroke="rgb(102,102,102)" stroke-width="1" font-size="16" >H</text>
<text x="572.467764" y="156.899770" fill="rgb(102,102,102)"  stroke="rgb(102,102,102)" stroke-width="1" font-size="13" >3</text>
<text x="578.967764" y="152.099770" fill="rgb(102,102,102)"  stroke="rgb(102,102,102)" stroke-width="1" font-size="16" >C</text>
<text x="859.805455" y="528.543593" fill="rgb(12,12,255)"  stroke="rgb(12,12,255)" stroke-width="1" font-size="16" >NH</text>
<text x="883.805455" y="533.343593" fill="rgb(12,12,255)"  stroke="rgb(12,12,255)" stroke-width="1" font-size="13" >2</text>
<text x="512.650545" y="152.814921" fill="rgb(12,12,255)"  stroke="rgb(12,12,255)" stroke-width="1" font-size="16" >N</text>
<text x="593.478877" y="69.231434" fill="rgb(12,12,255)"  stroke="rgb(12,12,255)" stroke-width="1" font-size="16" >N</text>
<text x="870.391504" y="461.705911" fill="rgb(12,12,255)"  stroke="rgb(12,12,255)" stroke-width="1" font-size="16" >N</text>
<text x="820.201397" y="422.639282" fill="rgb(12,12,255)"  stroke="rgb(12,12,255)" stroke-width="1" font-size="16" >N</text>
<text x="776.852437" y="510.544366" fill="rgb(12,12,255)"  stroke="rgb(12,12,255)" stroke-width="1" font-size="16" >N</text>
<text x="754.197772" y="451.526948" fill="rgb(12,12,255)"  stroke="rgb(12,12,255)" stroke-width="1" font-size="16" >N</text>
<text x="463.561324" y="96.334302" fill="rgb(255,12,12)"  stroke="rgb(255,12,12)" stroke-width="1" font-size="32" >-</text>
<text x="464.761324" y="111.054302" fill="rgb(255,12,12)"  stroke="rgb(255,12,12)" stroke-width="1" font-size="16" >O</text>
<text x="374.259770" y="161.000232" fill="rgb(255,12,12)"  stroke="rgb(255,12,12)" stroke-width="1" font-size="16" >O</text>
<text x="705.022970" y="448.870115" fill="rgb(255,12,12)"  stroke="rgb(255,12,12)" stroke-width="1" font-size="16" >OH</text>
<text x="670.402594" y="137.134830" fill="rgb(255,12,12)"  stroke="rgb(255,12,12)" stroke-width="1" font-size="16" >OH</text>
<text x="656.637653" y="33.600000" fill="rgb(255,12,12)"  stroke="rgb(255,12,12)" stroke-width="1" font-size="32" >-</text>
<text x="655.437653" y="48.320000" fill="rgb(255,12,12)"  stroke="rgb(255,12,12)" stroke-width="1" font-size="16" >O</text>
<text x="585.783533" y="491.249692" fill="rgb(255,12,12)"  stroke="rgb(255,12,12)" stroke-width="1" font-size="32" >-</text>
<text x="584.583533" y="476.849692" fill="rgb(255,12,12)"  stroke="rgb(255,12,12)" stroke-width="1" font-size="16" >O</text>
<text x="546.713765" y="452.179924" fill="rgb(255,12,12)"  stroke="rgb(255,12,12)" stroke-width="1" font-size="32" >-</text>
<text x="547.913765" y="437.779924" fill="rgb(255,12,12)"  stroke="rgb(255,12,12)" stroke-width="1" font-size="16" >O</text>
<text x="584.583533" y="402.230157" fill="rgb(255,12,12)"  stroke="rgb(255,12,12)" stroke-width="1" font-size="16" >O</text>
<text x="541.043805" y="349.901094" fill="rgb(255,12,12)"  stroke="rgb(255,12,12)" stroke-width="1" font-size="16" >HO</text>
<text x="522.950867" y="307.082033" fill="rgb(255,12,12)"  stroke="rgb(255,12,12)" stroke-width="1" font-size="16" >O</text>
<text x="527.196990" y="230.650034" fill="rgb(255,12,12)"  stroke="rgb(255,12,12)" stroke-width="1" font-size="16" >HO</text>
<text x="583.136050" y="200.557097" fill="rgb(255,12,12)"  stroke="rgb(255,12,12)" stroke-width="1" font-size="16" >O</text>
<text x="596.982865" y="323.328156" fill="rgb(255,12,12)"  stroke="rgb(255,12,12)" stroke-width="1" font-size="16" >O</text>
<text x="613.228988" y="243.376157" fill="rgb(255,12,12)"  stroke="rgb(255,12,12)" stroke-width="1" font-size="16" >O</text>
<text x="685.488086" y="360.485713" fill="rgb(255,12,12)"  stroke="rgb(255,12,12)" stroke-width="1" font-size="16" >O</text>
<text x="623.653300" y="437.779924" fill="rgb(255,12,12)"  stroke="rgb(255,12,12)" stroke-width="1" font-size="16" >O</text>
<text x="566.889927" y="276.989095" fill="rgb(255,12,12)"  stroke="rgb(255,12,12)" stroke-width="1" font-size="16" >O</text>
<text x="584.583533" y="437.779924" fill="rgb(255,127,0)"  stroke="rgb(255,127,0)" stroke-width="1" font-size="16" >P</text>
<text x="558.766866" y="311.685094" fill="rgb(255,127,0)"  stroke="rgb(255,127,0)" stroke-width="1" font-size="16" >P</text>
<text x="575.012989" y="238.773096" fill="rgb(255,127,0)"  stroke="rgb(255,127,0)" stroke-width="1" font-size="16" >P</text>
<text x="422.148992" y="202.760850" fill="rgb(178,178,0)"  stroke="rgb(178,178,0)" stroke-width="1" font-size="16" >S</text>
<text x="198.937219" y="504.748867" fill="rgb(191,191,191)"  stroke="rgb(191,191,191)" stroke-width="1" font-size="16" >H</text>
<text x="110.835666" y="551.174796" fill="rgb(191,191,191)"  stroke="rgb(191,191,191)" stroke-width="1" font-size="16" >H</text>
<text x="60.546444" y="505.894178" fill="rgb(191,191,191)"  stroke="rgb(191,191,191)" stroke-width="1" font-size="16" >H</text>
<text x="36.400000" y="435.099064" fill="rgb(191,191,191)"  stroke="rgb(191,191,191)" stroke-width="1" font-size="16" >H</text>
<text x="50.469555" y="368.907012" fill="rgb(191,191,191)"  stroke="rgb(191,191,191)" stroke-width="1" font-size="16" >H</text>
<text x="102.755109" y="310.838021" fill="rgb(191,191,191)"  stroke="rgb(191,191,191)" stroke-width="1" font-size="16" >H</text>
<text x="193.256663" y="260.892091" fill="rgb(191,191,191)"  stroke="rgb(191,191,191)" stroke-width="1" font-size="16" >H</text>
<text x="245.542217" y="202.823100" fill="rgb(191,191,191)"  stroke="rgb(191,191,191)" stroke-width="1" font-size="16" >H</text>
<text x="637.598865" y="331.451217" fill="rgb(191,191,191)"  stroke="rgb(191,191,191)" stroke-width="1" font-size="16" >H</text>
<text x="669.206970" y="456.993176" fill="rgb(191,191,191)"  stroke="rgb(191,191,191)" stroke-width="1" font-size="16" >H</text>
<text x="606.518417" y="403.944513" fill="rgb(191,191,191)"  stroke="rgb(191,191,191)" stroke-width="1" font-size="16" >H</text>
<text x="678.525655" y="102.438830" fill="rgb(191,191,191)"  stroke="rgb(191,191,191)" stroke-width="1" font-size="16" >H</text>
<text x="729.887435" y="364.184683" fill="rgb(191,191,191)"  stroke="rgb(191,191,191)" stroke-width="1" font-size="16" >H</text>
<text font-size="18.000000" fill ="black" font-family="sans-serif"
x="140.000000" y="20.000000" ></text>
<title> - OBDepict</title>
</svg>
