<?xml version="1.0"?>
<svg xmlns="http://www.w3.org/2000/svg"
xmlns:xlink="http://www.w3.org/1999/xlink" xmlns:cml="http://www.xml-cml.org/schema" width="420.435" height="260" x="0" y="0" font-family="sans-serif" stroke="rgb(0,0,0)" stroke-width="1" >
<line x1="121.1" y1="80.4" x2="106.9" y2="93.3"/>
<line x1="137.9" y1="160.0" x2="103.3" y2="140.0"/>
<line x1="57.3" y1="93.1" x2="45.2" y2="66.1"/>
<line x1="62.7" y1="90.7" x2="50.7" y2="63.6"/>
<line x1="276.5" y1="80.0" x2="276.5" y2="50.4"/>
<line x1="311.2" y1="100.0" x2="336.8" y2="85.2"/>
<line x1="241.9" y1="100.0" x2="216.2" y2="85.2"/>
<line x1="311.2" y1="140.0" x2="345.8" y2="160.0"/>
<line x1="241.9" y1="140.0" x2="216.2" y2="154.8"/>
<line x1="348.8" y1="160.0" x2="348.8" y2="189.6"/>
<line x1="342.8" y1="160.0" x2="342.8" y2="189.6"/>
<line x1="345.8" y1="160.0" x2="371.4" y2="145.2"/>
<line x1="103.3" y1="140.0" x2="66.8" y2="156.3"/>
<line x1="66.8" y1="156.3" x2="40.0" y2="126.5"/>
<line x1="40.0" y1="126.5" x2="60.0" y2="91.9"/>
<line x1="60.0" y1="91.9" x2="89.0" y2="98.1"/>
<line x1="100.2" y1="110.6" x2="103.3" y2="140.0"/>
<line x1="172.6" y1="220.0" x2="207.2" y2="200.0"/>
<line x1="207.2" y1="200.0" x2="207.2" y2="170.4"/>
<line x1="200.0" y1="194.0" x2="200.0" y2="172.4"/>
<line x1="198.2" y1="154.8" x2="172.6" y2="140.0"/>
<line x1="172.6" y1="140.0" x2="137.9" y2="160.0"/>
<line x1="171.0" y1="149.2" x2="146.7" y2="163.2"/>
<line x1="137.9" y1="160.0" x2="137.9" y2="200.0"/>
<line x1="137.9" y1="200.0" x2="172.6" y2="220.0"/>
<line x1="146.7" y1="196.8" x2="171.0" y2="210.8"/>
<line x1="276.5" y1="80.0" x2="311.2" y2="100.0"/>
<line x1="311.2" y1="100.0" x2="311.2" y2="140.0"/>
<line x1="311.2" y1="140.0" x2="285.5" y2="154.8"/>
<line x1="267.5" y1="154.8" x2="241.9" y2="140.0"/>
<line x1="241.9" y1="140.0" x2="241.9" y2="100.0"/>
<line x1="241.9" y1="100.0" x2="276.5" y2="80.0"/>
<text x="122.851697" y="81.773900" fill="rgb(102,102,102)"  stroke="rgb(102,102,102)" stroke-width="1" font-size="16" >CH</text>
<text x="146.851697" y="89.453900" fill="rgb(102,102,102)"  stroke="rgb(102,102,102)" stroke-width="1" font-size="13" >3</text>
<text x="93.125904" y="108.539124" fill="rgb(12,12,255)"  stroke="rgb(12,12,255)" stroke-width="1" font-size="16" >N</text>
<text x="202.430091" y="179.200000" fill="rgb(12,12,255)"  stroke="rgb(12,12,255)" stroke-width="1" font-size="16" >+</text>
<text x="201.230091" y="164.800000" fill="rgb(12,12,255)"  stroke="rgb(12,12,255)" stroke-width="1" font-size="16" >N</text>
<text x="40.130534" y="63.680838" fill="rgb(255,12,12)"  stroke="rgb(255,12,12)" stroke-width="1" font-size="16" >O</text>
<text x="270.512123" y="48.320000" fill="rgb(255,12,12)"  stroke="rgb(255,12,12)" stroke-width="1" font-size="16" >OH</text>
<text x="339.794156" y="88.320000" fill="rgb(255,12,12)"  stroke="rgb(255,12,12)" stroke-width="1" font-size="16" >OH</text>
<text x="191.630091" y="88.320000" fill="rgb(255,12,12)"  stroke="rgb(255,12,12)" stroke-width="1" font-size="16" >HO</text>
<text x="339.794156" y="204.800000" fill="rgb(255,12,12)"  stroke="rgb(255,12,12)" stroke-width="1" font-size="16" >O</text>
<text x="375.635172" y="133.600000" fill="rgb(255,12,12)"  stroke="rgb(255,12,12)" stroke-width="1" font-size="32" >-</text>
<text x="374.435172" y="148.320000" fill="rgb(255,12,12)"  stroke="rgb(255,12,12)" stroke-width="1" font-size="16" >O</text>
<text x="270.512123" y="164.800000" fill="rgb(255,12,12)"  stroke="rgb(255,12,12)" stroke-width="1" font-size="16" >O</text>
<text font-size="18.000000" fill ="black" font-family="sans-serif"
x="140.000000" y="20.000000" ></text>
<title> - OBDepict</title>
</svg>
