<?xml version="1.0"?>
<svg xmlns="http://www.w3.org/2000/svg"
xmlns:xlink="http://www.w3.org/1999/xlink" xmlns:cml="http://www.xml-cml.org/schema" width="354.767" height="217.274" x="0" y="0" font-family="sans-serif" stroke="rgb(0,0,0)" stroke-width="1" >
<line x1="143.9" y1="80.0" x2="109.3" y2="100.0"/>
<line x1="143.9" y1="80.0" x2="169.6" y2="94.8"/>
<line x1="74.6" y1="80.0" x2="74.6" y2="50.4"/>
<line x1="284.4" y1="108.2" x2="305.3" y2="87.3"/>
<line x1="288.6" y1="112.5" x2="309.5" y2="91.5"/>
<line x1="213.2" y1="80.0" x2="247.8" y2="100.0"/>
<line x1="210.2" y1="80.0" x2="210.2" y2="50.4"/>
<line x1="216.2" y1="80.0" x2="216.2" y2="50.4"/>
<line x1="213.2" y1="80.0" x2="187.6" y2="94.8"/>
<line x1="247.8" y1="100.0" x2="271.3" y2="82.0"/>
<line x1="229.9" y1="166.9" x2="268.6" y2="177.3"/>
<line x1="268.6" y1="177.3" x2="296.8" y2="149.0"/>
<line x1="296.8" y1="149.0" x2="286.5" y2="110.4"/>
<line x1="286.5" y1="110.4" x2="247.8" y2="100.0"/>
<line x1="247.8" y1="100.0" x2="219.6" y2="128.3"/>
<line x1="219.6" y1="128.3" x2="229.9" y2="166.9"/>
<line x1="228.1" y1="132.2" x2="235.3" y2="159.3"/>
<line x1="74.6" y1="160.0" x2="109.3" y2="140.0"/>
<line x1="109.3" y1="140.0" x2="109.3" y2="100.0"/>
<line x1="102.1" y1="134.0" x2="102.1" y2="106.0"/>
<line x1="109.3" y1="100.0" x2="74.6" y2="80.0"/>
<line x1="74.6" y1="80.0" x2="40.0" y2="100.0"/>
<line x1="73.0" y1="89.2" x2="48.8" y2="103.2"/>
<line x1="40.0" y1="100.0" x2="40.0" y2="140.0"/>
<line x1="40.0" y1="140.0" x2="74.6" y2="160.0"/>
<line x1="48.8" y1="136.8" x2="73.0" y2="150.8"/>
<text x="68.641016" y="48.320000" fill="rgb(255,12,12)"  stroke="rgb(255,12,12)" stroke-width="1" font-size="16" >OH</text>
<text x="308.767401" y="90.388491" fill="rgb(255,12,12)"  stroke="rgb(255,12,12)" stroke-width="1" font-size="16" >O</text>
<text x="207.205081" y="48.320000" fill="rgb(255,12,12)"  stroke="rgb(255,12,12)" stroke-width="1" font-size="16" >O</text>
<text x="273.580231" y="83.969543" fill="rgb(255,12,12)"  stroke="rgb(255,12,12)" stroke-width="1" font-size="16" >OH</text>
<text x="172.564065" y="104.800000" fill="rgb(255,12,12)"  stroke="rgb(255,12,12)" stroke-width="1" font-size="16" >O</text>
<text font-size="18.000000" fill ="black" font-family="sans-serif"
x="140.000000" y="20.000000" ></text>
<title> - OBDepict</title>
</svg>
