<?xml version="1.0"?>
<svg xmlns="http://www.w3.org/2000/svg"
xmlns:xlink="http://www.w3.org/1999/xlink" xmlns:cml="http://www.xml-cml.org/schema" width="287.846" height="194.641" x="0" y="0" font-family="sans-serif" stroke="rgb(0,0,0)" stroke-width="1" >
<line x1="238.8" y1="45.2" x2="213.2" y2="60.0"/>
<line x1="143.9" y1="100.0" x2="143.9" y2="60.0"/>
<line x1="143.9" y1="100.0" x2="109.3" y2="120.0"/>
<line x1="143.9" y1="60.0" x2="169.6" y2="45.2"/>
<line x1="216.2" y1="60.0" x2="216.2" y2="89.6"/>
<line x1="210.2" y1="60.0" x2="210.2" y2="89.6"/>
<line x1="213.2" y1="60.0" x2="187.6" y2="45.2"/>
<polygon points="95.882032 143.209481 112.746134 122.000000 105.817931 118.000000 " />
<line x1="109.3" y1="120.0" x2="74.6" y2="100.0"/>
<line x1="109.3" y1="120.0" x2="124.1" y2="145.6"/>
<line x1="71.6" y1="100.0" x2="71.6" y2="70.4"/>
<line x1="77.6" y1="100.0" x2="77.6" y2="70.4"/>
<line x1="74.6" y1="100.0" x2="49.0" y2="114.8"/>
<text x="241.846097" y="48.320000" fill="rgb(102,102,102)"  stroke="rgb(102,102,102)" stroke-width="1" font-size="16" >CH</text>
<text x="265.846097" y="56.000000" fill="rgb(102,102,102)"  stroke="rgb(102,102,102)" stroke-width="1" font-size="13" >3</text>
<text x="123.282032" y="159.441016" fill="rgb(12,12,255)"  stroke="rgb(12,12,255)" stroke-width="1" font-size="16" >NH</text>
<text x="147.282032" y="164.241016" fill="rgb(12,12,255)"  stroke="rgb(12,12,255)" stroke-width="1" font-size="13" >2</text>
<text x="207.205081" y="104.800000" fill="rgb(255,12,12)"  stroke="rgb(255,12,12)" stroke-width="1" font-size="16" >O</text>
<text x="68.641016" y="68.320000" fill="rgb(255,12,12)"  stroke="rgb(255,12,12)" stroke-width="1" font-size="16" >O</text>
<text x="24.400000" y="124.800000" fill="rgb(255,12,12)"  stroke="rgb(255,12,12)" stroke-width="1" font-size="16" >HO</text>
<text x="172.564065" y="48.320000" fill="rgb(255,12,12)"  stroke="rgb(255,12,12)" stroke-width="1" font-size="16" >O</text>
<text x="85.682032" y="159.441016" fill="rgb(191,191,191)"  stroke="rgb(191,191,191)" stroke-width="1" font-size="16" >H</text>
<text font-size="18.000000" fill ="black" font-family="sans-serif"
x="140.000000" y="20.000000" ></text>
<title> - OBDepict</title>
</svg>
