<?xml version="1.0"?>
<svg xmlns="http://www.w3.org/2000/svg"
xmlns:xlink="http://www.w3.org/1999/xlink" xmlns:cml="http://www.xml-cml.org/schema" width="251.172" height="304.53" x="0" y="0" font-family="sans-serif" stroke="rgb(0,0,0)" stroke-width="1" >
<line x1="52.4" y1="145.8" x2="91.5" y2="154.1"/>
<line x1="52.4" y1="145.8" x2="40.0" y2="107.8"/>
<line x1="91.5" y1="154.1" x2="103.8" y2="192.2"/>
<line x1="40.0" y1="107.8" x2="66.8" y2="78.0"/>
<line x1="67.4" y1="75.1" x2="96.3" y2="81.3"/>
<line x1="66.1" y1="81.0" x2="95.1" y2="87.1"/>
<line x1="66.8" y1="78.0" x2="57.6" y2="49.9"/>
<line x1="103.8" y1="192.2" x2="80.3" y2="224.5"/>
<line x1="106.1" y1="201.3" x2="89.7" y2="223.9"/>
<line x1="80.3" y1="224.5" x2="97.7" y2="248.5"/>
<line x1="113.7" y1="253.7" x2="141.9" y2="244.5"/>
<line x1="141.9" y1="244.5" x2="141.9" y2="204.5"/>
<line x1="141.9" y1="204.5" x2="103.8" y2="192.2"/>
<line x1="211.2" y1="204.5" x2="176.5" y2="184.5"/>
<line x1="176.5" y1="184.5" x2="141.9" y2="204.5"/>
<line x1="174.9" y1="193.8" x2="150.7" y2="207.8"/>
<line x1="141.9" y1="244.5" x2="176.5" y2="264.5"/>
<line x1="150.7" y1="241.3" x2="174.9" y2="255.3"/>
<line x1="176.5" y1="264.5" x2="211.2" y2="244.5"/>
<line x1="211.2" y1="244.5" x2="211.2" y2="204.5"/>
<line x1="204.0" y1="238.5" x2="204.0" y2="210.5"/>
<text x="88.247264" y="261.690402" fill="rgb(12,12,255)"  stroke="rgb(12,12,255)" stroke-width="1" font-size="16" >HN</text>
<text x="99.891128" y="91.158728" fill="rgb(255,12,12)"  stroke="rgb(255,12,12)" stroke-width="1" font-size="16" >O</text>
<text x="38.804544" y="48.320000" fill="rgb(255,12,12)"  stroke="rgb(255,12,12)" stroke-width="1" font-size="16" >HO</text>
<text font-size="18.000000" fill ="black" font-family="sans-serif"
x="140.000000" y="20.000000" ></text>
<title> - OBDepict</title>
</svg>
