<?xml version="1.0"?>
<svg xmlns="http://www.w3.org/2000/svg"
xmlns:xlink="http://www.w3.org/1999/xlink" xmlns:cml="http://www.xml-cml.org/schema" width="911.384" height="600" x="0" y="0" font-family="sans-serif" stroke="rgb(0,0,0)" stroke-width="1" >
<line x1="871.4" y1="470.4" x2="871.4" y2="500.0"/>
<line x1="222.2" y1="325.2" x2="247.8" y2="340.0"/>
<line x1="871.4" y1="500.0" x2="836.7" y2="520.0"/>
<line x1="247.8" y1="340.0" x2="247.8" y2="380.0"/>
<line x1="836.7" y1="520.0" x2="802.1" y2="500.0"/>
<line x1="247.8" y1="380.0" x2="273.5" y2="394.8"/>
<line x1="249.3" y1="382.6" x2="214.7" y2="402.6"/>
<line x1="246.3" y1="377.4" x2="211.7" y2="397.4"/>
<line x1="802.1" y1="500.0" x2="767.5" y2="520.0"/>
<line x1="213.2" y1="400.0" x2="213.2" y2="429.6"/>
<line x1="213.2" y1="400.0" x2="178.6" y2="380.0"/>
<line x1="767.5" y1="520.0" x2="732.8" y2="500.0"/>
<line x1="178.6" y1="380.0" x2="143.9" y2="400.0"/>
<line x1="732.8" y1="500.0" x2="732.8" y2="470.4"/>
<line x1="734.3" y1="502.6" x2="699.7" y2="522.6"/>
<line x1="731.3" y1="497.4" x2="696.7" y2="517.4"/>
<line x1="143.9" y1="400.0" x2="143.9" y2="429.6"/>
<line x1="142.4" y1="402.6" x2="107.8" y2="382.6"/>
<line x1="145.4" y1="397.4" x2="110.8" y2="377.4"/>
<line x1="698.2" y1="520.0" x2="698.2" y2="549.6"/>
<line x1="698.2" y1="520.0" x2="663.5" y2="500.0"/>
<line x1="109.3" y1="380.0" x2="83.6" y2="394.8"/>
<line x1="109.3" y1="380.0" x2="109.3" y2="340.0"/>
<line x1="663.5" y1="500.0" x2="628.9" y2="520.0"/>
<line x1="109.3" y1="340.0" x2="74.6" y2="320.0"/>
<line x1="628.9" y1="520.0" x2="628.9" y2="549.6"/>
<line x1="627.4" y1="522.6" x2="592.8" y2="502.6"/>
<line x1="630.4" y1="517.4" x2="595.8" y2="497.4"/>
<line x1="74.6" y1="320.0" x2="49.0" y2="334.8"/>
<line x1="71.6" y1="320.0" x2="71.6" y2="280.0"/>
<line x1="77.6" y1="320.0" x2="77.6" y2="280.0"/>
<line x1="594.3" y1="500.0" x2="568.6" y2="514.8"/>
<line x1="594.3" y1="500.0" x2="594.3" y2="460.0"/>
<line x1="74.6" y1="280.0" x2="49.0" y2="265.2"/>
<line x1="74.6" y1="280.0" x2="109.3" y2="260.0"/>
<line x1="594.3" y1="460.0" x2="559.6" y2="440.0"/>
<line x1="109.3" y1="260.0" x2="143.9" y2="280.0"/>
<line x1="559.6" y1="440.0" x2="559.6" y2="400.0"/>
<line x1="143.9" y1="280.0" x2="178.6" y2="260.0"/>
<line x1="559.6" y1="400.0" x2="525.0" y2="380.0"/>
<line x1="178.6" y1="260.0" x2="213.2" y2="280.0"/>
<line x1="525.0" y1="380.0" x2="525.0" y2="340.0"/>
<line x1="213.2" y1="280.0" x2="247.8" y2="260.0"/>
<line x1="525.0" y1="340.0" x2="490.3" y2="320.0"/>
<line x1="247.8" y1="260.0" x2="282.5" y2="280.0"/>
<line x1="490.3" y1="320.0" x2="490.3" y2="280.0"/>
<line x1="282.5" y1="280.0" x2="317.1" y2="260.0"/>
<line x1="490.3" y1="280.0" x2="455.7" y2="260.0"/>
<line x1="317.1" y1="260.0" x2="317.1" y2="220.0"/>
<line x1="732.8" y1="140.0" x2="698.2" y2="160.0"/>
<line x1="732.8" y1="140.0" x2="758.5" y2="154.8"/>
<line x1="386.4" y1="260.0" x2="386.4" y2="220.0"/>
<line x1="386.4" y1="260.0" x2="412.0" y2="274.8"/>
<line x1="421.1" y1="200.0" x2="386.4" y2="220.0"/>
<line x1="421.1" y1="200.0" x2="421.1" y2="170.4"/>
<line x1="559.6" y1="160.0" x2="525.0" y2="140.0"/>
<line x1="559.6" y1="160.0" x2="585.2" y2="145.2"/>
<line x1="386.4" y1="220.0" x2="360.8" y2="205.2"/>
<line x1="452.7" y1="260.0" x2="452.7" y2="230.4"/>
<line x1="458.7" y1="260.0" x2="458.7" y2="230.4"/>
<line x1="455.7" y1="260.0" x2="430.1" y2="274.8"/>
<line x1="315.6" y1="222.6" x2="290.0" y2="207.8"/>
<line x1="318.6" y1="217.4" x2="293.0" y2="202.6"/>
<line x1="317.1" y1="220.0" x2="342.8" y2="205.2"/>
<line x1="698.2" y1="200.0" x2="723.8" y2="214.8"/>
<line x1="525.0" y1="100.0" x2="550.6" y2="85.2"/>
<line x1="663.5" y1="220.0" x2="663.5" y2="249.6"/>
<line x1="490.3" y1="80.0" x2="490.3" y2="50.4"/>
<line x1="628.9" y1="200.0" x2="603.3" y2="214.8"/>
<line x1="455.7" y1="100.0" x2="430.1" y2="85.2"/>
<line x1="455.7" y1="140.0" x2="430.1" y2="154.8"/>
<line x1="628.9" y1="160.0" x2="603.3" y2="145.2"/>
<line x1="663.5" y1="220.0" x2="628.9" y2="200.0"/>
<line x1="628.9" y1="200.0" x2="628.9" y2="160.0"/>
<line x1="628.9" y1="160.0" x2="654.5" y2="145.2"/>
<line x1="672.5" y1="145.2" x2="698.2" y2="160.0"/>
<line x1="698.2" y1="160.0" x2="698.2" y2="200.0"/>
<line x1="698.2" y1="200.0" x2="663.5" y2="220.0"/>
<line x1="490.3" y1="80.0" x2="455.7" y2="100.0"/>
<line x1="455.7" y1="100.0" x2="455.7" y2="140.0"/>
<line x1="455.7" y1="140.0" x2="481.3" y2="154.8"/>
<line x1="499.3" y1="154.8" x2="525.0" y2="140.0"/>
<line x1="525.0" y1="140.0" x2="525.0" y2="100.0"/>
<line x1="525.0" y1="100.0" x2="490.3" y2="80.0"/>
<text x="865.384388" y="468.320000" fill="rgb(102,102,102)"  stroke="rgb(102,102,102)" stroke-width="1" font-size="16" >CH</text>
<text x="889.384388" y="476.000000" fill="rgb(102,102,102)"  stroke="rgb(102,102,102)" stroke-width="1" font-size="13" >3</text>
<text x="189.605081" y="328.320000" fill="rgb(102,102,102)"  stroke="rgb(102,102,102)" stroke-width="1" font-size="16" >H</text>
<text x="201.605081" y="336.000000" fill="rgb(102,102,102)"  stroke="rgb(102,102,102)" stroke-width="1" font-size="13" >3</text>
<text x="208.105081" y="328.320000" fill="rgb(102,102,102)"  stroke="rgb(102,102,102)" stroke-width="1" font-size="16" >C</text>
<text x="761.461339" y="164.800000" fill="rgb(255,12,12)"  stroke="rgb(255,12,12)" stroke-width="1" font-size="16" >OH</text>
<text x="449.692194" y="228.320000" fill="rgb(255,12,12)"  stroke="rgb(255,12,12)" stroke-width="1" font-size="16" >O</text>
<text x="278.887113" y="208.320000" fill="rgb(255,12,12)"  stroke="rgb(255,12,12)" stroke-width="1" font-size="16" >O</text>
<text x="726.820323" y="224.800000" fill="rgb(255,12,12)"  stroke="rgb(255,12,12)" stroke-width="1" font-size="16" >OH</text>
<text x="553.615242" y="88.320000" fill="rgb(255,12,12)"  stroke="rgb(255,12,12)" stroke-width="1" font-size="16" >OH</text>
<text x="657.538291" y="264.800000" fill="rgb(255,12,12)"  stroke="rgb(255,12,12)" stroke-width="1" font-size="16" >OH</text>
<text x="484.333210" y="48.320000" fill="rgb(255,12,12)"  stroke="rgb(255,12,12)" stroke-width="1" font-size="16" >OH</text>
<text x="578.656258" y="224.800000" fill="rgb(255,12,12)"  stroke="rgb(255,12,12)" stroke-width="1" font-size="16" >HO</text>
<text x="405.451178" y="88.320000" fill="rgb(255,12,12)"  stroke="rgb(255,12,12)" stroke-width="1" font-size="16" >HO</text>
<text x="415.051178" y="284.800000" fill="rgb(255,12,12)"  stroke="rgb(255,12,12)" stroke-width="1" font-size="16" >O</text>
<text x="417.451178" y="168.320000" fill="rgb(255,12,12)"  stroke="rgb(255,12,12)" stroke-width="1" font-size="16" >O</text>
<text x="588.256258" y="148.320000" fill="rgb(255,12,12)"  stroke="rgb(255,12,12)" stroke-width="1" font-size="16" >O</text>
<text x="345.769145" y="208.320000" fill="rgb(255,12,12)"  stroke="rgb(255,12,12)" stroke-width="1" font-size="16" >O</text>
<text x="657.538291" y="148.320000" fill="rgb(255,12,12)"  stroke="rgb(255,12,12)" stroke-width="1" font-size="16" >O</text>
<text x="484.333210" y="164.800000" fill="rgb(255,12,12)"  stroke="rgb(255,12,12)" stroke-width="1" font-size="16" >O</text>
<text x="276.487113" y="404.800000" fill="rgb(191,191,191)"  stroke="rgb(191,191,191)" stroke-width="1" font-size="16" >H</text>
<text x="207.205081" y="444.800000" fill="rgb(191,191,191)"  stroke="rgb(191,191,191)" stroke-width="1" font-size="16" >H</text>
<text x="726.820323" y="468.320000" fill="rgb(191,191,191)"  stroke="rgb(191,191,191)" stroke-width="1" font-size="16" >H</text>
<text x="137.923048" y="444.800000" fill="rgb(191,191,191)"  stroke="rgb(191,191,191)" stroke-width="1" font-size="16" >H</text>
<text x="692.179307" y="564.800000" fill="rgb(191,191,191)"  stroke="rgb(191,191,191)" stroke-width="1" font-size="16" >H</text>
<text x="71.041016" y="404.800000" fill="rgb(191,191,191)"  stroke="rgb(191,191,191)" stroke-width="1" font-size="16" >H</text>
<text x="622.897275" y="564.800000" fill="rgb(191,191,191)"  stroke="rgb(191,191,191)" stroke-width="1" font-size="16" >H</text>
<text x="36.400000" y="344.800000" fill="rgb(191,191,191)"  stroke="rgb(191,191,191)" stroke-width="1" font-size="16" >H</text>
<text x="556.015242" y="524.800000" fill="rgb(191,191,191)"  stroke="rgb(191,191,191)" stroke-width="1" font-size="16" >H</text>
<text x="36.400000" y="268.320000" fill="rgb(191,191,191)"  stroke="rgb(191,191,191)" stroke-width="1" font-size="16" >H</text>
<text font-size="18.000000" fill ="black" font-family="sans-serif"
x="140.000000" y="20.000000" ></text>
<title> - OBDepict</title>
</svg>
