<?xml version="1.0"?>
<svg xmlns="http://www.w3.org/2000/svg"
xmlns:xlink="http://www.w3.org/1999/xlink" xmlns:cml="http://www.xml-cml.org/schema" width="586.26" height="386.882" x="0" y="0" font-family="sans-serif" stroke="rgb(0,0,0)" stroke-width="1" >
<line x1="212.2" y1="125.9" x2="174.1" y2="113.5"/>
<line x1="212.2" y1="125.9" x2="241.9" y2="99.1"/>
<line x1="359.4" y1="226.9" x2="359.4" y2="266.9"/>
<line x1="359.4" y1="226.9" x2="394.1" y2="206.9"/>
<line x1="98.0" y1="88.8" x2="69.9" y2="79.7"/>
<line x1="241.9" y1="99.1" x2="279.9" y2="111.5"/>
<line x1="241.9" y1="99.1" x2="235.7" y2="70.2"/>
<line x1="394.1" y1="206.9" x2="428.7" y2="226.9"/>
<line x1="394.1" y1="206.9" x2="394.1" y2="177.3"/>
<line x1="499.9" y1="223.2" x2="508.2" y2="262.3"/>
<line x1="324.8" y1="166.9" x2="359.4" y2="146.9"/>
<line x1="510.2" y1="264.5" x2="488.2" y2="284.3"/>
<line x1="506.2" y1="260.0" x2="484.2" y2="279.9"/>
<line x1="508.2" y1="262.3" x2="536.4" y2="271.4"/>
<line x1="360.9" y1="144.3" x2="386.6" y2="159.1"/>
<line x1="357.9" y1="149.5" x2="383.6" y2="164.3"/>
<line x1="359.4" y1="146.9" x2="359.4" y2="117.3"/>
<line x1="279.9" y1="111.5" x2="286.1" y2="140.4"/>
<line x1="277.9" y1="109.3" x2="299.9" y2="89.5"/>
<line x1="281.9" y1="113.7" x2="303.9" y2="93.9"/>
<line x1="428.7" y1="226.9" x2="454.4" y2="212.1"/>
<line x1="431.7" y1="226.9" x2="431.7" y2="256.5"/>
<line x1="425.7" y1="226.9" x2="425.7" y2="256.5"/>
<line x1="467.5" y1="167.1" x2="506.7" y2="158.8"/>
<line x1="506.7" y1="158.8" x2="526.7" y2="193.4"/>
<line x1="526.7" y1="193.4" x2="499.9" y2="223.2"/>
<line x1="499.9" y1="223.2" x2="472.9" y2="211.1"/>
<line x1="464.4" y1="196.5" x2="467.5" y2="167.1"/>
<line x1="320.6" y1="206.7" x2="281.5" y2="215.0"/>
<line x1="281.5" y1="215.0" x2="261.5" y2="180.3"/>
<line x1="261.5" y1="180.3" x2="281.3" y2="158.3"/>
<line x1="297.8" y1="154.8" x2="324.8" y2="166.9"/>
<line x1="324.8" y1="166.9" x2="320.6" y2="206.7"/>
<line x1="359.4" y1="346.9" x2="324.8" y2="326.9"/>
<line x1="324.8" y1="326.9" x2="324.8" y2="286.9"/>
<line x1="332.0" y1="320.9" x2="332.0" y2="292.9"/>
<line x1="324.8" y1="286.9" x2="359.4" y2="266.9"/>
<line x1="359.4" y1="266.9" x2="394.1" y2="286.9"/>
<line x1="361.0" y1="276.1" x2="385.3" y2="290.1"/>
<line x1="394.1" y1="286.9" x2="394.1" y2="326.9"/>
<line x1="394.1" y1="326.9" x2="359.4" y2="346.9"/>
<line x1="385.3" y1="323.6" x2="361.0" y2="337.6"/>
<line x1="165.8" y1="74.4" x2="174.1" y2="113.5"/>
<line x1="160.0" y1="81.8" x2="165.8" y2="109.2"/>
<line x1="174.1" y1="113.5" x2="144.4" y2="140.3"/>
<line x1="144.4" y1="140.3" x2="106.4" y2="127.9"/>
<line x1="140.9" y1="131.6" x2="114.3" y2="122.9"/>
<line x1="106.4" y1="127.9" x2="98.0" y2="88.8"/>
<line x1="98.0" y1="88.8" x2="127.8" y2="62.0"/>
<line x1="107.3" y1="90.1" x2="128.1" y2="71.4"/>
<line x1="127.8" y1="62.0" x2="165.8" y2="74.4"/>
<text x="209.978368" y="68.320000" fill="rgb(12,12,255)"  stroke="rgb(12,12,255)" stroke-width="1" font-size="16" >H</text>
<text x="221.978368" y="76.000000" fill="rgb(12,12,255)"  stroke="rgb(12,12,255)" stroke-width="1" font-size="13" >2</text>
<text x="228.478368" y="68.320000" fill="rgb(12,12,255)"  stroke="rgb(12,12,255)" stroke-width="1" font-size="16" >N</text>
<text x="462.891940" y="293.842548" fill="rgb(12,12,255)"  stroke="rgb(12,12,255)" stroke-width="1" font-size="16" >HN</text>
<text x="388.077415" y="175.201954" fill="rgb(12,12,255)"  stroke="rgb(12,12,255)" stroke-width="1" font-size="16" >N</text>
<text x="459.759447" y="211.681954" fill="rgb(12,12,255)"  stroke="rgb(12,12,255)" stroke-width="1" font-size="16" >N</text>
<text x="284.653564" y="158.932488" fill="rgb(12,12,255)"  stroke="rgb(12,12,255)" stroke-width="1" font-size="16" >N</text>
<text x="44.400000" y="84.768409" fill="rgb(255,12,12)"  stroke="rgb(255,12,12)" stroke-width="1" font-size="16" >HO</text>
<text x="540.259993" y="279.438003" fill="rgb(255,12,12)"  stroke="rgb(255,12,12)" stroke-width="1" font-size="16" >OH</text>
<text x="353.436398" y="115.201954" fill="rgb(255,12,12)"  stroke="rgb(255,12,12)" stroke-width="1" font-size="16" >OH</text>
<text x="303.662889" y="93.041360" fill="rgb(255,12,12)"  stroke="rgb(255,12,12)" stroke-width="1" font-size="16" >O</text>
<text x="422.718431" y="271.681954" fill="rgb(255,12,12)"  stroke="rgb(255,12,12)" stroke-width="1" font-size="16" >O</text>
<text x="34.000000" y="44.800000" fill="rgb(30,239,30)"  stroke="rgb(30,239,30)" stroke-width="1" font-size="16" >ClH</text>
<text font-size="18.000000" fill ="black" font-family="sans-serif"
x="140.000000" y="20.000000" ></text>
<title> - OBDepict</title>
</svg>
