<?xml version="1.0"?>
<svg xmlns="http://www.w3.org/2000/svg"
xmlns:xlink="http://www.w3.org/1999/xlink" xmlns:cml="http://www.xml-cml.org/schema" width="397.64" height="385.005" x="0" y="0" font-family="sans-serif" stroke="rgb(0,0,0)" stroke-width="1" >
<line x1="292.5" y1="297.3" x2="282.5" y2="259.7"/>
<line x1="292.5" y1="297.3" x2="330.1" y2="307.4"/>
<line x1="244.9" y1="269.8" x2="282.5" y2="259.7"/>
<line x1="244.9" y1="269.8" x2="224.5" y2="249.5"/>
<polygon points="307.641475 252.997624 281.419030 255.882802 283.489583 263.610209 " />
<line x1="282.5" y1="259.7" x2="272.4" y2="222.2"/>
<line x1="328.0" y1="305.3" x2="348.4" y2="284.9"/>
<line x1="332.2" y1="309.5" x2="352.6" y2="289.2"/>
<line x1="330.1" y1="307.4" x2="337.6" y2="335.2"/>
<line x1="52.3" y1="183.8" x2="51.9" y2="183.1"/>
<line x1="55.9" y1="182.2" x2="55.1" y2="180.8"/>
<line x1="59.5" y1="180.6" x2="58.3" y2="178.5"/>
<line x1="63.0" y1="179.0" x2="61.4" y2="176.2"/>
<line x1="66.6" y1="177.4" x2="64.6" y2="173.9"/>
<line x1="70.2" y1="175.8" x2="67.8" y2="171.6"/>
<line x1="73.8" y1="174.2" x2="71.0" y2="169.4"/>
<line x1="73.7" y1="171.0" x2="48.8" y2="156.6"/>
<polygon points="70.582034 124.259459 91.164232 140.761399 95.164232 133.833196 " />
<line x1="93.2" y1="137.3" x2="93.2" y2="108.5"/>
<polygon points="93.164232 256.858194 97.164232 204.706842 89.164232 204.706842 " />
<line x1="93.2" y1="204.7" x2="68.2" y2="219.1"/>
<line x1="172.9" y1="158.2" x2="173.3" y2="158.9"/>
<line x1="169.3" y1="159.8" x2="170.1" y2="161.2"/>
<line x1="165.8" y1="161.4" x2="167.0" y2="163.5"/>
<line x1="162.2" y1="163.0" x2="163.8" y2="165.8"/>
<line x1="158.6" y1="164.6" x2="160.6" y2="168.1"/>
<line x1="155.1" y1="166.2" x2="157.5" y2="170.4"/>
<line x1="151.5" y1="167.8" x2="154.3" y2="172.6"/>
<line x1="151.5" y1="171.0" x2="176.5" y2="185.4"/>
<line x1="131.7" y1="112.4" x2="132.5" y2="112.4"/>
<line x1="131.3" y1="116.3" x2="132.9" y2="116.3"/>
<line x1="130.9" y1="120.2" x2="133.3" y2="120.2"/>
<line x1="130.5" y1="124.1" x2="133.7" y2="124.1"/>
<line x1="130.1" y1="128.0" x2="134.1" y2="128.0"/>
<line x1="129.7" y1="131.8" x2="134.5" y2="131.8"/>
<line x1="129.3" y1="135.7" x2="134.9" y2="135.7"/>
<line x1="132.1" y1="137.3" x2="157.0" y2="122.9"/>
<line x1="117.2" y1="224.7" x2="116.6" y2="224.2"/>
<line x1="119.9" y1="221.9" x2="118.7" y2="220.9"/>
<line x1="122.6" y1="219.0" x2="120.7" y2="217.6"/>
<line x1="125.3" y1="216.2" x2="122.8" y2="214.2"/>
<line x1="128.0" y1="213.3" x2="124.8" y2="210.9"/>
<line x1="130.7" y1="210.5" x2="126.9" y2="207.6"/>
<line x1="133.4" y1="207.6" x2="128.9" y2="204.2"/>
<line x1="132.1" y1="204.7" x2="159.9" y2="212.2"/>
<line x1="271.6" y1="225.1" x2="243.8" y2="217.6"/>
<line x1="273.2" y1="219.3" x2="245.3" y2="211.8"/>
<line x1="272.4" y1="222.2" x2="292.7" y2="201.8"/>
<line x1="194.6" y1="78.9" x2="175.9" y2="78.9"/>
<line x1="165.8" y1="50.1" x2="165.8" y2="68.8"/>
<line x1="137.0" y1="75.9" x2="155.7" y2="75.9"/>
<line x1="137.0" y1="81.9" x2="155.7" y2="81.9"/>
<line x1="187.2" y1="280.2" x2="182.4" y2="262.1"/>
<line x1="151.2" y1="256.9" x2="169.2" y2="252.1"/>
<line x1="152.7" y1="262.7" x2="170.8" y2="257.9"/>
<line x1="207.6" y1="244.9" x2="189.5" y2="249.8"/>
<line x1="165.8" y1="107.7" x2="165.8" y2="89.0"/>
<line x1="172.3" y1="224.6" x2="177.1" y2="242.6"/>
<line x1="73.7" y1="171.0" x2="93.2" y2="137.3"/>
<line x1="93.2" y1="137.3" x2="132.1" y2="137.3"/>
<line x1="132.1" y1="137.3" x2="151.5" y2="171.0"/>
<line x1="151.5" y1="171.0" x2="132.1" y2="204.7"/>
<line x1="132.1" y1="204.7" x2="93.2" y2="204.7"/>
<line x1="93.2" y1="204.7" x2="73.7" y2="171.0"/>
<text x="351.639884" y="288.212420" fill="rgb(255,12,12)"  stroke="rgb(255,12,12)" stroke-width="1" font-size="16" >O</text>
<text x="334.193010" y="349.805040" fill="rgb(255,12,12)"  stroke="rgb(255,12,12)" stroke-width="1" font-size="16" >OH</text>
<text x="24.400000" y="159.862610" fill="rgb(255,12,12)"  stroke="rgb(255,12,12)" stroke-width="1" font-size="16" >HO</text>
<text x="87.164232" y="106.698378" fill="rgb(255,12,12)"  stroke="rgb(255,12,12)" stroke-width="1" font-size="16" >OH</text>
<text x="43.859459" y="228.966302" fill="rgb(255,12,12)"  stroke="rgb(255,12,12)" stroke-width="1" font-size="16" >HO</text>
<text x="179.247383" y="195.261529" fill="rgb(255,12,12)"  stroke="rgb(255,12,12)" stroke-width="1" font-size="16" >OH</text>
<text x="231.188560" y="220.400759" fill="rgb(255,12,12)"  stroke="rgb(255,12,12)" stroke-width="1" font-size="16" >O</text>
<text x="293.901181" y="202.953885" fill="rgb(255,12,12)"  stroke="rgb(255,12,12)" stroke-width="1" font-size="16" >OH</text>
<text x="198.706842" y="87.238919" fill="rgb(255,12,12)"  stroke="rgb(255,12,12)" stroke-width="1" font-size="16" >OH</text>
<text x="159.787923" y="48.320000" fill="rgb(255,12,12)"  stroke="rgb(255,12,12)" stroke-width="1" font-size="16" >OH</text>
<text x="123.269004" y="83.718919" fill="rgb(255,12,12)"  stroke="rgb(255,12,12)" stroke-width="1" font-size="16" >O</text>
<text x="183.821855" y="294.765378" fill="rgb(255,12,12)"  stroke="rgb(255,12,12)" stroke-width="1" font-size="16" >OH</text>
<text x="138.556108" y="267.245546" fill="rgb(255,12,12)"  stroke="rgb(255,12,12)" stroke-width="1" font-size="16" >O</text>
<text x="211.341686" y="250.619631" fill="rgb(255,12,12)"  stroke="rgb(255,12,12)" stroke-width="1" font-size="16" >O</text>
<text x="159.787923" y="122.637838" fill="rgb(255,12,12)"  stroke="rgb(255,12,12)" stroke-width="1" font-size="16" >O</text>
<text x="163.675940" y="223.099800" fill="rgb(255,12,12)"  stroke="rgb(255,12,12)" stroke-width="1" font-size="16" >O</text>
<text x="159.787923" y="83.718919" fill="rgb(255,127,0)"  stroke="rgb(255,127,0)" stroke-width="1" font-size="16" >P</text>
<text x="173.748897" y="257.172589" fill="rgb(255,127,0)"  stroke="rgb(255,127,0)" stroke-width="1" font-size="16" >P</text>
<text x="314.047095" y="257.993548" fill="rgb(191,191,191)"  stroke="rgb(191,191,191)" stroke-width="1" font-size="16" >H</text>
<text x="36.400000" y="195.261529" fill="rgb(191,191,191)"  stroke="rgb(191,191,191)" stroke-width="1" font-size="16" >H</text>
<text x="55.859459" y="126.157838" fill="rgb(191,191,191)"  stroke="rgb(191,191,191)" stroke-width="1" font-size="16" >H</text>
<text x="87.164232" y="287.344680" fill="rgb(191,191,191)"  stroke="rgb(191,191,191)" stroke-width="1" font-size="16" >H</text>
<text x="179.247383" y="159.862610" fill="rgb(191,191,191)"  stroke="rgb(191,191,191)" stroke-width="1" font-size="16" >H</text>
<text x="126.083151" y="106.698378" fill="rgb(191,191,191)"  stroke="rgb(191,191,191)" stroke-width="1" font-size="16" >H</text>
<text x="104.790814" y="240.383297" fill="rgb(191,191,191)"  stroke="rgb(191,191,191)" stroke-width="1" font-size="16" >H</text>
<text font-size="18.000000" fill ="black" font-family="sans-serif"
x="140.000000" y="20.000000" ></text>
<title> - OBDepict</title>
</svg>
