<?xml version="1.0"?>
<svg xmlns="http://www.w3.org/2000/svg"
xmlns:xlink="http://www.w3.org/1999/xlink" xmlns:cml="http://www.xml-cml.org/schema" width="432.708" height="356.309" x="0" y="0" font-family="sans-serif" stroke="rgb(0,0,0)" stroke-width="1" >
<line x1="342.0" y1="275.6" x2="334.0" y2="305.5"/>
<line x1="334.0" y1="305.5" x2="293.6" y2="316.3"/>
<line x1="293.6" y1="316.3" x2="264.1" y2="286.8"/>
<line x1="188.5" y1="109.2" x2="163.6" y2="90.8"/>
<line x1="188.5" y1="109.2" x2="183.8" y2="150.7"/>
<line x1="187.3" y1="106.4" x2="225.5" y2="89.7"/>
<line x1="189.7" y1="111.9" x2="227.9" y2="95.2"/>
<line x1="183.8" y1="150.7" x2="145.5" y2="167.4"/>
<line x1="264.1" y1="286.8" x2="274.9" y2="246.4"/>
<line x1="226.7" y1="92.5" x2="230.2" y2="61.8"/>
<line x1="226.7" y1="92.5" x2="260.4" y2="117.3"/>
<line x1="145.5" y1="167.4" x2="111.9" y2="142.6"/>
<line x1="274.9" y1="246.4" x2="315.2" y2="235.6"/>
<line x1="260.4" y1="117.3" x2="298.6" y2="100.6"/>
<line x1="111.9" y1="142.6" x2="73.6" y2="159.3"/>
<line x1="326.0" y1="195.3" x2="355.9" y2="187.3"/>
<line x1="323.9" y1="197.4" x2="294.4" y2="167.9"/>
<line x1="328.2" y1="193.2" x2="298.6" y2="163.6"/>
<line x1="326.0" y1="195.3" x2="315.2" y2="235.6"/>
<line x1="296.5" y1="165.7" x2="266.7" y2="173.7"/>
<line x1="296.5" y1="165.7" x2="307.3" y2="125.4"/>
<line x1="322.5" y1="261.3" x2="321.8" y2="261.5"/>
<line x1="321.8" y1="257.2" x2="320.3" y2="257.6"/>
<line x1="321.1" y1="253.1" x2="318.8" y2="253.7"/>
<line x1="320.5" y1="248.9" x2="317.4" y2="249.7"/>
<line x1="319.8" y1="244.8" x2="315.9" y2="245.8"/>
<line x1="319.1" y1="240.6" x2="314.4" y2="241.9"/>
<line x1="318.4" y1="236.5" x2="313.0" y2="238.0"/>
<line x1="315.2" y1="235.6" x2="345.1" y2="243.6"/>
<line x1="276.9" y1="85.0" x2="277.4" y2="84.4"/>
<line x1="280.0" y1="87.8" x2="281.0" y2="86.5"/>
<line x1="283.1" y1="90.6" x2="284.6" y2="88.7"/>
<line x1="286.3" y1="93.4" x2="288.2" y2="90.9"/>
<line x1="289.4" y1="96.2" x2="291.8" y2="93.0"/>
<line x1="292.5" y1="99.0" x2="295.4" y2="95.2"/>
<line x1="295.6" y1="101.8" x2="299.0" y2="97.3"/>
<polygon points="280.285931 132.633654 308.352979 129.254216 306.282427 121.526810 " />
<line x1="301.6" y1="54.0" x2="302.3" y2="53.6"/>
<line x1="302.9" y1="57.9" x2="304.4" y2="57.3"/>
<line x1="304.2" y1="61.9" x2="306.4" y2="61.0"/>
<line x1="305.5" y1="65.9" x2="308.4" y2="64.7"/>
<line x1="306.8" y1="69.9" x2="310.5" y2="68.3"/>
<line x1="308.1" y1="73.9" x2="312.5" y2="72.0"/>
<line x1="309.4" y1="77.9" x2="314.5" y2="75.7"/>
<line x1="71.8" y1="161.7" x2="47.0" y2="143.3"/>
<line x1="75.4" y1="156.9" x2="50.5" y2="138.5"/>
<line x1="73.6" y1="159.3" x2="70.1" y2="190.0"/>
<line x1="379.1" y1="130.4" x2="378.8" y2="131.1"/>
<line x1="375.4" y1="128.3" x2="374.8" y2="129.8"/>
<line x1="371.7" y1="126.3" x2="370.8" y2="128.5"/>
<line x1="368.1" y1="124.3" x2="366.8" y2="127.2"/>
<line x1="364.4" y1="122.2" x2="362.8" y2="125.9"/>
<line x1="360.7" y1="120.2" x2="358.8" y2="124.6"/>
<line x1="357.0" y1="118.2" x2="354.8" y2="123.3"/>
<line x1="312.6" y1="78.3" x2="312.6" y2="120.1"/>
<line x1="312.6" y1="120.1" x2="354.4" y2="120.1"/>
<line x1="354.4" y1="120.1" x2="354.4" y2="89.2"/>
<line x1="343.5" y1="78.3" x2="312.6" y2="78.3"/>
<line x1="298.6" y1="100.6" x2="312.6" y2="78.3"/>
<line x1="354.4" y1="120.1" x2="337.9" y2="130.4"/>
<line x1="325.7" y1="131.8" x2="307.3" y2="125.4"/>
<line x1="307.3" y1="125.4" x2="298.6" y2="100.6"/>
<text x="338.766924" y="273.472910" fill="rgb(102,102,102)"  stroke="rgb(102,102,102)" stroke-width="1" font-size="16" >CH</text>
<text x="362.766924" y="281.152910" fill="rgb(102,102,102)"  stroke="rgb(102,102,102)" stroke-width="1" font-size="13" >3</text>
<text x="349.577583" y="251.228299" fill="rgb(255,12,12)"  stroke="rgb(255,12,12)" stroke-width="1" font-size="16" >OH</text>
<text x="36.400000" y="142.805938" fill="rgb(255,12,12)"  stroke="rgb(255,12,12)" stroke-width="1" font-size="16" >O</text>
<text x="53.330724" y="205.595862" fill="rgb(255,12,12)"  stroke="rgb(255,12,12)" stroke-width="1" font-size="16" >HO</text>
<text x="326.131322" y="138.873174" fill="rgb(255,12,12)"  stroke="rgb(255,12,12)" stroke-width="1" font-size="16" >O</text>
<text x="348.390739" y="86.637476" fill="rgb(255,12,12)"  stroke="rgb(255,12,12)" stroke-width="1" font-size="16" >O</text>
<text x="151.252159" y="92.696453" fill="rgb(191,191,191)"  stroke="rgb(191,191,191)" stroke-width="1" font-size="16" >H</text>
<text x="225.420264" y="59.290130" fill="rgb(191,191,191)"  stroke="rgb(191,191,191)" stroke-width="1" font-size="16" >H</text>
<text x="360.388242" y="192.781052" fill="rgb(191,191,191)"  stroke="rgb(191,191,191)" stroke-width="1" font-size="16" >H</text>
<text x="252.561115" y="181.347101" fill="rgb(191,191,191)"  stroke="rgb(191,191,191)" stroke-width="1" font-size="16" >H</text>
<text x="320.042313" y="280.763569" fill="rgb(191,191,191)"  stroke="rgb(191,191,191)" stroke-width="1" font-size="16" >H</text>
<text x="261.427653" y="84.093512" fill="rgb(191,191,191)"  stroke="rgb(191,191,191)" stroke-width="1" font-size="16" >H</text>
<text x="263.371774" y="141.001172" fill="rgb(191,191,191)"  stroke="rgb(191,191,191)" stroke-width="1" font-size="16" >H</text>
<text x="292.395216" y="48.320000" fill="rgb(191,191,191)"  stroke="rgb(191,191,191)" stroke-width="1" font-size="16" >H</text>
<text x="386.708216" y="141.512999" fill="rgb(191,191,191)"  stroke="rgb(191,191,191)" stroke-width="1" font-size="16" >H</text>
<text font-size="18.000000" fill ="black" font-family="sans-serif"
x="140.000000" y="20.000000" ></text>
<title> - OBDepict</title>
</svg>
