<?xml version="1.0"?>
<svg xmlns="http://www.w3.org/2000/svg"
xmlns:xlink="http://www.w3.org/1999/xlink" xmlns:cml="http://www.xml-cml.org/schema" width="340" height="229.282" x="0" y="0" font-family="sans-serif" stroke="rgb(0,0,0)" stroke-width="1" >
<line x1="140.0" y1="114.6" x2="120.0" y2="149.3"/>
<line x1="140.0" y1="114.6" x2="169.6" y2="114.6"/>
<line x1="120.0" y1="149.3" x2="90.4" y2="149.3"/>
<line x1="200.0" y1="80.0" x2="240.0" y2="80.0"/>
<line x1="200.0" y1="80.0" x2="185.2" y2="105.6"/>
<polygon points="263.209481 66.600000 238.000000 76.535898 242.000000 83.464102 " />
<line x1="240.0" y1="80.0" x2="260.0" y2="114.6"/>
<line x1="240.0" y1="80.0" x2="240.0" y2="50.4"/>
<line x1="262.6" y1="116.1" x2="247.8" y2="141.8"/>
<line x1="257.4" y1="113.1" x2="242.6" y2="138.8"/>
<line x1="260.0" y1="114.6" x2="289.6" y2="114.6"/>
<line x1="80.0" y1="119.7" x2="80.0" y2="138.9"/>
<line x1="50.4" y1="146.3" x2="69.6" y2="146.3"/>
<line x1="50.4" y1="152.3" x2="69.6" y2="152.3"/>
<line x1="77.0" y1="178.9" x2="77.0" y2="159.7"/>
<line x1="83.0" y1="178.9" x2="83.0" y2="159.7"/>
<text x="234.000000" y="48.320000" fill="rgb(12,12,255)"  stroke="rgb(12,12,255)" stroke-width="1" font-size="16" >NH</text>
<text x="258.000000" y="56.000000" fill="rgb(12,12,255)"  stroke="rgb(12,12,255)" stroke-width="1" font-size="13" >2</text>
<text x="236.400000" y="154.082032" fill="rgb(255,12,12)"  stroke="rgb(255,12,12)" stroke-width="1" font-size="16" >O</text>
<text x="295.200000" y="108.241016" fill="rgb(255,12,12)"  stroke="rgb(255,12,12)" stroke-width="1" font-size="32" >-</text>
<text x="294.000000" y="122.961016" fill="rgb(255,12,12)"  stroke="rgb(255,12,12)" stroke-width="1" font-size="16" >O</text>
<text x="74.000000" y="117.602032" fill="rgb(255,12,12)"  stroke="rgb(255,12,12)" stroke-width="1" font-size="16" >OH</text>
<text x="36.400000" y="154.082032" fill="rgb(255,12,12)"  stroke="rgb(255,12,12)" stroke-width="1" font-size="16" >O</text>
<text x="74.000000" y="194.082032" fill="rgb(255,12,12)"  stroke="rgb(255,12,12)" stroke-width="1" font-size="16" >O</text>
<text x="174.000000" y="119.441016" fill="rgb(178,178,0)"  stroke="rgb(178,178,0)" stroke-width="1" font-size="16" >S</text>
<text x="74.000000" y="154.082032" fill="rgb(178,178,0)"  stroke="rgb(178,178,0)" stroke-width="1" font-size="16" >S</text>
<text x="268.641016" y="68.320000" fill="rgb(191,191,191)"  stroke="rgb(191,191,191)" stroke-width="1" font-size="16" >H</text>
<text font-size="18.000000" fill ="black" font-family="sans-serif"
x="140.000000" y="20.000000" ></text>
<title> - OBDepict</title>
</svg>
