<?xml version="1.0"?>
<svg xmlns="http://www.w3.org/2000/svg"
xmlns:xlink="http://www.w3.org/1999/xlink" xmlns:cml="http://www.xml-cml.org/schema" width="352.802" height="474.715" x="0" y="0" font-family="sans-serif" stroke="rgb(0,0,0)" stroke-width="1" >
<line x1="84.8" y1="54.8" x2="110.4" y2="40.0"/>
<line x1="110.4" y1="40.0" x2="145.0" y2="60.0"/>
<line x1="145.0" y1="60.0" x2="170.7" y2="45.2"/>
<line x1="148.0" y1="60.0" x2="148.0" y2="100.0"/>
<line x1="142.0" y1="60.0" x2="142.0" y2="100.0"/>
<line x1="231.9" y1="263.8" x2="202.2" y2="237.0"/>
<line x1="231.9" y1="263.8" x2="223.6" y2="302.9"/>
<line x1="202.2" y1="237.0" x2="210.5" y2="197.9"/>
<line x1="223.6" y1="302.9" x2="253.4" y2="329.7"/>
<line x1="145.0" y1="100.0" x2="170.7" y2="114.8"/>
<line x1="145.0" y1="100.0" x2="110.4" y2="120.0"/>
<line x1="210.5" y1="197.9" x2="180.8" y2="171.2"/>
<line x1="253.4" y1="329.7" x2="245.0" y2="368.8"/>
<line x1="180.8" y1="171.2" x2="142.8" y2="183.5"/>
<line x1="110.4" y1="120.0" x2="110.4" y2="160.0"/>
<line x1="245.0" y1="368.8" x2="274.8" y2="395.6"/>
<line x1="77.1" y1="186.4" x2="49.0" y2="177.2"/>
<line x1="79.0" y1="180.7" x2="50.8" y2="171.5"/>
<line x1="277.7" y1="396.2" x2="271.5" y2="425.2"/>
<line x1="271.8" y1="395.0" x2="265.7" y2="423.9"/>
<line x1="274.8" y1="395.6" x2="302.9" y2="386.4"/>
<line x1="142.8" y1="183.5" x2="130.4" y2="221.6"/>
<line x1="130.4" y1="221.6" x2="90.4" y2="221.6"/>
<line x1="124.4" y1="214.4" x2="96.4" y2="214.4"/>
<line x1="90.4" y1="221.6" x2="78.0" y2="183.5"/>
<line x1="78.0" y1="183.5" x2="110.4" y2="160.0"/>
<line x1="110.4" y1="160.0" x2="142.8" y2="183.5"/>
<text x="52.161924" y="64.800000" fill="rgb(102,102,102)"  stroke="rgb(102,102,102)" stroke-width="1" font-size="16" >H</text>
<text x="64.161924" y="69.600000" fill="rgb(102,102,102)"  stroke="rgb(102,102,102)" stroke-width="1" font-size="13" >3</text>
<text x="70.661924" y="64.800000" fill="rgb(102,102,102)"  stroke="rgb(102,102,102)" stroke-width="1" font-size="16" >C</text>
<text x="36.400000" y="179.470730" fill="rgb(255,12,12)"  stroke="rgb(255,12,12)" stroke-width="1" font-size="16" >O</text>
<text x="262.843182" y="439.515243" fill="rgb(255,12,12)"  stroke="rgb(255,12,12)" stroke-width="1" font-size="16" >O</text>
<text x="308.001911" y="376.828660" fill="rgb(255,12,12)"  stroke="rgb(255,12,12)" stroke-width="1" font-size="32" >-</text>
<text x="306.801911" y="391.548660" fill="rgb(255,12,12)"  stroke="rgb(255,12,12)" stroke-width="1" font-size="16" >O</text>
<text x="173.684973" y="48.320000" fill="rgb(191,191,191)"  stroke="rgb(191,191,191)" stroke-width="1" font-size="16" >H</text>
<text x="173.684973" y="124.800000" fill="rgb(191,191,191)"  stroke="rgb(191,191,191)" stroke-width="1" font-size="16" >H</text>
<text font-size="18.000000" fill ="black" font-family="sans-serif"
x="140.000000" y="20.000000" ></text>
<title> - OBDepict</title>
</svg>
