<?xml version="1.0"?>
<svg xmlns="http://www.w3.org/2000/svg"
xmlns:xlink="http://www.w3.org/1999/xlink" xmlns:cml="http://www.xml-cml.org/schema" width="370.338" height="263.49" x="0" y="0" font-family="sans-serif" stroke="rgb(0,0,0)" stroke-width="1" >
<line x1="153.1" y1="173.8" x2="124.9" y2="145.6"/>
<line x1="153.1" y1="173.8" x2="191.8" y2="163.5"/>
<line x1="194.7" y1="138.1" x2="195.5" y2="138.2"/>
<line x1="193.8" y1="142.0" x2="195.4" y2="142.2"/>
<line x1="192.9" y1="145.9" x2="195.3" y2="146.2"/>
<line x1="192.0" y1="149.8" x2="195.1" y2="150.2"/>
<line x1="191.0" y1="153.7" x2="195.0" y2="154.2"/>
<line x1="190.1" y1="157.6" x2="194.9" y2="158.3"/>
<line x1="189.2" y1="161.5" x2="194.8" y2="162.3"/>
<line x1="68.3" y1="89.0" x2="47.4" y2="68.1"/>
<line x1="106.9" y1="78.6" x2="114.6" y2="50.0"/>
<line x1="295.7" y1="103.5" x2="321.3" y2="88.7"/>
<line x1="261.1" y1="83.5" x2="261.1" y2="53.9"/>
<line x1="261.1" y1="163.5" x2="261.1" y2="203.5"/>
<line x1="261.1" y1="203.5" x2="226.4" y2="223.5"/>
<line x1="226.4" y1="223.5" x2="200.8" y2="208.7"/>
<line x1="191.8" y1="193.1" x2="191.8" y2="163.5"/>
<line x1="191.8" y1="163.5" x2="226.4" y2="143.5"/>
<line x1="226.4" y1="143.5" x2="261.1" y2="163.5"/>
<line x1="86.2" y1="155.9" x2="124.9" y2="145.6"/>
<line x1="124.9" y1="145.6" x2="135.2" y2="106.9"/>
<line x1="119.5" y1="137.9" x2="126.7" y2="110.9"/>
<line x1="135.2" y1="106.9" x2="106.9" y2="78.6"/>
<line x1="106.9" y1="78.6" x2="68.3" y2="89.0"/>
<line x1="103.0" y1="87.1" x2="75.9" y2="94.4"/>
<line x1="68.3" y1="89.0" x2="57.9" y2="127.6"/>
<line x1="57.9" y1="127.6" x2="86.2" y2="155.9"/>
<line x1="67.3" y1="126.8" x2="87.1" y2="146.6"/>
<line x1="226.4" y1="103.5" x2="226.4" y2="143.5"/>
<line x1="233.6" y1="109.5" x2="233.6" y2="137.5"/>
<line x1="261.1" y1="163.5" x2="295.7" y2="143.5"/>
<line x1="262.7" y1="154.3" x2="286.9" y2="140.3"/>
<line x1="295.7" y1="143.5" x2="295.7" y2="103.5"/>
<line x1="295.7" y1="103.5" x2="261.1" y2="83.5"/>
<line x1="286.9" y1="106.7" x2="262.7" y2="92.7"/>
<line x1="261.1" y1="83.5" x2="226.4" y2="103.5"/>
<text x="186.974118" y="222.689847" fill="rgb(12,12,255)"  stroke="rgb(12,12,255)" stroke-width="1" font-size="16" >+</text>
<text x="168.174118" y="208.289847" fill="rgb(12,12,255)"  stroke="rgb(12,12,255)" stroke-width="1" font-size="16" >H</text>
<text x="180.174118" y="213.089847" fill="rgb(12,12,255)"  stroke="rgb(12,12,255)" stroke-width="1" font-size="13" >2</text>
<text x="186.674118" y="208.289847" fill="rgb(12,12,255)"  stroke="rgb(12,12,255)" stroke-width="1" font-size="16" >N</text>
<text x="24.400000" y="69.025524" fill="rgb(255,12,12)"  stroke="rgb(255,12,12)" stroke-width="1" font-size="16" >HO</text>
<text x="111.274066" y="48.320000" fill="rgb(255,12,12)"  stroke="rgb(255,12,12)" stroke-width="1" font-size="16" >OH</text>
<text x="324.338183" y="91.809847" fill="rgb(255,12,12)"  stroke="rgb(255,12,12)" stroke-width="1" font-size="16" >OH</text>
<text x="255.056150" y="51.809847" fill="rgb(255,12,12)"  stroke="rgb(255,12,12)" stroke-width="1" font-size="16" >OH</text>
<text x="190.995166" y="132.152052" fill="rgb(191,191,191)"  stroke="rgb(191,191,191)" stroke-width="1" font-size="16" >H</text>
<text font-size="18.000000" fill ="black" font-family="sans-serif"
x="140.000000" y="20.000000" ></text>
<title> - OBDepict</title>
</svg>
