<?xml version="1.0"?>
<svg xmlns="http://www.w3.org/2000/svg"
xmlns:xlink="http://www.w3.org/1999/xlink" xmlns:cml="http://www.xml-cml.org/schema" width="360.979" height="339.422" x="0" y="0" font-family="sans-serif" stroke="rgb(0,0,0)" stroke-width="1" >
<line x1="143.9" y1="100.0" x2="143.9" y2="140.0"/>
<line x1="143.9" y1="100.0" x2="109.3" y2="80.0"/>
<line x1="143.9" y1="140.0" x2="178.6" y2="160.0"/>
<line x1="109.3" y1="80.0" x2="109.3" y2="50.4"/>
<line x1="291.3" y1="272.7" x2="261.5" y2="245.9"/>
<line x1="291.3" y1="272.7" x2="313.2" y2="292.5"/>
<line x1="294.1" y1="269.5" x2="316.1" y2="289.3"/>
<line x1="288.4" y1="275.8" x2="310.4" y2="295.6"/>
<line x1="143.9" y1="180.0" x2="178.6" y2="160.0"/>
<line x1="74.6" y1="220.0" x2="49.0" y2="234.8"/>
<line x1="212.0" y1="130.9" x2="240.1" y2="140.0"/>
<line x1="240.1" y1="140.0" x2="240.1" y2="180.0"/>
<line x1="240.1" y1="180.0" x2="202.1" y2="192.4"/>
<line x1="232.2" y1="175.0" x2="205.6" y2="183.7"/>
<line x1="202.1" y1="192.4" x2="178.6" y2="160.0"/>
<line x1="178.6" y1="160.0" x2="196.0" y2="136.1"/>
<line x1="143.9" y1="220.0" x2="143.9" y2="180.0"/>
<line x1="136.7" y1="214.0" x2="136.7" y2="186.0"/>
<line x1="143.9" y1="180.0" x2="109.3" y2="160.0"/>
<line x1="109.3" y1="160.0" x2="74.6" y2="180.0"/>
<line x1="107.7" y1="169.2" x2="83.4" y2="183.2"/>
<line x1="74.6" y1="180.0" x2="74.6" y2="220.0"/>
<line x1="74.6" y1="220.0" x2="109.3" y2="240.0"/>
<line x1="83.4" y1="216.8" x2="107.7" y2="230.8"/>
<line x1="109.3" y1="240.0" x2="143.9" y2="220.0"/>
<line x1="223.5" y1="258.3" x2="193.8" y2="231.5"/>
<line x1="223.8" y1="248.9" x2="203.0" y2="230.2"/>
<line x1="193.8" y1="231.5" x2="202.1" y2="192.4"/>
<line x1="240.1" y1="180.0" x2="269.8" y2="206.8"/>
<line x1="269.8" y1="206.8" x2="261.5" y2="245.9"/>
<line x1="261.6" y1="211.1" x2="255.7" y2="238.5"/>
<line x1="261.5" y1="245.9" x2="223.5" y2="258.3"/>
<text x="36.400000" y="244.800000" fill="rgb(127,178,255)"  stroke="rgb(127,178,255)" stroke-width="1" font-size="16" >F</text>
<text x="103.282032" y="48.320000" fill="rgb(12,12,255)"  stroke="rgb(12,12,255)" stroke-width="1" font-size="16" >NH</text>
<text x="127.282032" y="56.000000" fill="rgb(12,12,255)"  stroke="rgb(12,12,255)" stroke-width="1" font-size="13" >2</text>
<text x="314.978647" y="304.221577" fill="rgb(12,12,255)"  stroke="rgb(12,12,255)" stroke-width="1" font-size="16" >N</text>
<text x="198.475475" y="135.959320" fill="rgb(255,12,12)"  stroke="rgb(255,12,12)" stroke-width="1" font-size="16" >O</text>
<text font-size="18.000000" fill ="black" font-family="sans-serif"
x="140.000000" y="20.000000" ></text>
<title> - OBDepict</title>
</svg>
