<?xml version="1.0"?>
<svg xmlns="http://www.w3.org/2000/svg"
xmlns:xlink="http://www.w3.org/1999/xlink" xmlns:cml="http://www.xml-cml.org/schema" width="307.554" height="221.562" x="0" y="0" font-family="sans-serif" stroke="rgb(0,0,0)" stroke-width="1" >
<line x1="258.3" y1="63.5" x2="229.7" y2="71.2"/>
<line x1="256.7" y1="57.7" x2="228.1" y2="65.4"/>
<line x1="208.0" y1="47.4" x2="228.9" y2="68.3"/>
<line x1="129.4" y1="61.3" x2="114.6" y2="86.9"/>
<line x1="228.9" y1="68.3" x2="218.6" y2="106.9"/>
<line x1="101.5" y1="65.0" x2="102.2" y2="64.6"/>
<line x1="103.1" y1="68.6" x2="104.5" y2="67.8"/>
<line x1="104.8" y1="72.3" x2="106.9" y2="71.1"/>
<line x1="106.5" y1="75.9" x2="109.2" y2="74.3"/>
<line x1="108.1" y1="79.6" x2="111.6" y2="77.6"/>
<line x1="109.8" y1="83.3" x2="113.9" y2="80.9"/>
<line x1="111.4" y1="86.9" x2="116.3" y2="84.1"/>
<polygon points="239.825934 123.236111 220.999110 103.747891 216.129019 110.094718 " />
<line x1="67.5" y1="169.3" x2="66.9" y2="168.9"/>
<line x1="69.9" y1="166.0" x2="68.5" y2="165.2"/>
<line x1="72.2" y1="162.8" x2="70.2" y2="161.6"/>
<line x1="74.6" y1="159.5" x2="71.8" y2="157.9"/>
<line x1="76.9" y1="156.2" x2="73.5" y2="154.2"/>
<line x1="79.3" y1="153.0" x2="75.1" y2="150.6"/>
<line x1="81.6" y1="149.7" x2="76.8" y2="146.9"/>
<line x1="80.0" y1="146.9" x2="50.4" y2="146.9"/>
<polygon points="53.200000 106.921304 80.000000 110.921304 80.000000 102.921304 " />
<line x1="80.0" y1="106.9" x2="65.2" y2="81.3"/>
<line x1="218.6" y1="146.9" x2="183.9" y2="166.9"/>
<line x1="183.9" y1="166.9" x2="149.3" y2="146.9"/>
<line x1="149.3" y1="146.9" x2="149.3" y2="106.9"/>
<line x1="156.5" y1="140.9" x2="156.5" y2="112.9"/>
<line x1="149.3" y1="106.9" x2="183.9" y2="86.9"/>
<line x1="183.9" y1="86.9" x2="218.6" y2="106.9"/>
<line x1="218.6" y1="106.9" x2="218.6" y2="146.9"/>
<line x1="114.6" y1="166.9" x2="149.3" y2="146.9"/>
<line x1="149.3" y1="106.9" x2="114.6" y2="86.9"/>
<line x1="114.6" y1="86.9" x2="80.0" y2="106.9"/>
<line x1="80.0" y1="106.9" x2="80.0" y2="146.9"/>
<line x1="80.0" y1="146.9" x2="114.6" y2="166.9"/>
<text x="261.553859" y="66.251509" fill="rgb(102,102,102)"  stroke="rgb(102,102,102)" stroke-width="1" font-size="16" >CH</text>
<text x="285.553859" y="73.931509" fill="rgb(102,102,102)"  stroke="rgb(102,102,102)" stroke-width="1" font-size="13" >2</text>
<text x="177.032555" y="48.320000" fill="rgb(102,102,102)"  stroke="rgb(102,102,102)" stroke-width="1" font-size="16" >H</text>
<text x="189.032555" y="56.000000" fill="rgb(102,102,102)"  stroke="rgb(102,102,102)" stroke-width="1" font-size="13" >3</text>
<text x="195.532555" y="48.320000" fill="rgb(102,102,102)"  stroke="rgb(102,102,102)" stroke-width="1" font-size="16" >C</text>
<text x="128.641016" y="60.600288" fill="rgb(102,102,102)"  stroke="rgb(102,102,102)" stroke-width="1" font-size="16" >CH</text>
<text x="152.641016" y="68.280288" fill="rgb(102,102,102)"  stroke="rgb(102,102,102)" stroke-width="1" font-size="13" >3</text>
<text x="24.400000" y="151.721304" fill="rgb(255,12,12)"  stroke="rgb(255,12,12)" stroke-width="1" font-size="16" >HO</text>
<text x="44.400000" y="80.600288" fill="rgb(255,12,12)"  stroke="rgb(255,12,12)" stroke-width="1" font-size="16" >HO</text>
<text x="91.041016" y="60.600288" fill="rgb(191,191,191)"  stroke="rgb(191,191,191)" stroke-width="1" font-size="16" >H</text>
<text x="244.298198" y="136.071761" fill="rgb(191,191,191)"  stroke="rgb(191,191,191)" stroke-width="1" font-size="16" >H</text>
<text x="56.400000" y="186.362320" fill="rgb(191,191,191)"  stroke="rgb(191,191,191)" stroke-width="1" font-size="16" >H</text>
<text x="36.400000" y="111.721304" fill="rgb(191,191,191)"  stroke="rgb(191,191,191)" stroke-width="1" font-size="16" >H</text>
<text font-size="18.000000" fill ="black" font-family="sans-serif"
x="140.000000" y="20.000000" ></text>
<title> - OBDepict</title>
</svg>
