<?xml version="1.0"?>
<svg xmlns="http://www.w3.org/2000/svg"
xmlns:xlink="http://www.w3.org/1999/xlink" xmlns:cml="http://www.xml-cml.org/schema" width="374.066" height="378.784" x="0" y="0" font-family="sans-serif" stroke="rgb(0,0,0)" stroke-width="1" >
<line x1="47.7" y1="47.0" x2="69.7" y2="66.8"/>
<line x1="63.6" y1="95.7" x2="69.7" y2="66.8"/>
<line x1="82.0" y1="104.5" x2="91.1" y2="132.7"/>
<line x1="274.2" y1="329.8" x2="259.4" y2="304.1"/>
<line x1="244.6" y1="329.8" x2="259.4" y2="304.1"/>
<polygon points="120.860911 184.142936 135.415635 161.286865 128.107272 158.032972 " />
<polygon points="224.783960 244.142936 228.783960 217.342936 220.783960 217.342936 " />
<line x1="137.5" y1="81.2" x2="107.8" y2="54.4"/>
<line x1="137.5" y1="81.2" x2="129.2" y2="120.3"/>
<line x1="107.8" y1="54.4" x2="69.7" y2="66.8"/>
<line x1="129.2" y1="120.3" x2="91.1" y2="132.7"/>
<line x1="66.0" y1="127.7" x2="66.2" y2="126.9"/>
<line x1="69.8" y1="128.9" x2="70.2" y2="127.4"/>
<line x1="73.7" y1="130.2" x2="74.2" y2="127.8"/>
<line x1="77.5" y1="131.4" x2="78.2" y2="128.3"/>
<line x1="81.3" y1="132.6" x2="82.2" y2="128.7"/>
<line x1="85.2" y1="133.8" x2="86.2" y2="129.1"/>
<line x1="89.0" y1="135.1" x2="90.2" y2="129.6"/>
<line x1="91.1" y1="132.7" x2="82.8" y2="171.8"/>
<line x1="63.5" y1="154.9" x2="64.1" y2="154.4"/>
<line x1="66.2" y1="157.9" x2="67.3" y2="156.7"/>
<line x1="68.9" y1="160.9" x2="70.5" y2="159.1"/>
<line x1="71.6" y1="163.9" x2="73.8" y2="161.5"/>
<line x1="74.3" y1="166.8" x2="77.0" y2="163.9"/>
<line x1="77.1" y1="169.8" x2="80.3" y2="166.3"/>
<line x1="79.8" y1="172.8" x2="83.5" y2="168.6"/>
<polygon points="224.783960 310.942936 228.783960 284.142936 220.783960 284.142936 " />
<line x1="307.2" y1="306.1" x2="306.5" y2="306.5"/>
<line x1="305.6" y1="302.4" x2="304.2" y2="303.2"/>
<line x1="303.9" y1="298.8" x2="301.8" y2="300.0"/>
<line x1="302.3" y1="295.1" x2="299.5" y2="296.7"/>
<line x1="300.6" y1="291.5" x2="297.1" y2="293.5"/>
<line x1="298.9" y1="287.8" x2="294.8" y2="290.2"/>
<line x1="297.3" y1="284.1" x2="292.4" y2="286.9"/>
<line x1="294.1" y1="284.1" x2="323.7" y2="284.1"/>
<line x1="59.3" y1="204.1" x2="82.8" y2="236.5"/>
<line x1="82.8" y1="236.5" x2="120.9" y2="224.1"/>
<line x1="86.3" y1="227.8" x2="112.9" y2="219.1"/>
<line x1="120.9" y1="224.1" x2="120.9" y2="184.1"/>
<line x1="120.9" y1="184.1" x2="82.8" y2="171.8"/>
<line x1="82.8" y1="171.8" x2="59.3" y2="204.1"/>
<line x1="155.5" y1="244.1" x2="190.1" y2="224.1"/>
<line x1="157.1" y1="234.9" x2="181.3" y2="220.9"/>
<line x1="190.1" y1="224.1" x2="190.1" y2="184.1"/>
<line x1="190.1" y1="184.1" x2="155.5" y2="164.1"/>
<line x1="155.5" y1="164.1" x2="120.9" y2="184.1"/>
<line x1="120.9" y1="224.1" x2="155.5" y2="244.1"/>
<line x1="224.8" y1="284.1" x2="224.8" y2="244.1"/>
<line x1="224.8" y1="244.1" x2="190.1" y2="224.1"/>
<line x1="155.5" y1="244.1" x2="155.5" y2="284.1"/>
<line x1="155.5" y1="284.1" x2="190.1" y2="304.1"/>
<line x1="190.1" y1="304.1" x2="224.8" y2="284.1"/>
<line x1="294.1" y1="284.1" x2="294.1" y2="244.1"/>
<line x1="294.1" y1="244.1" x2="259.4" y2="224.1"/>
<line x1="259.4" y1="224.1" x2="224.8" y2="244.1"/>
<line x1="224.8" y1="284.1" x2="259.4" y2="304.1"/>
<line x1="259.4" y1="304.1" x2="294.1" y2="284.1"/>
<text x="16.400000" y="48.320000" fill="rgb(102,102,102)"  stroke="rgb(102,102,102)" stroke-width="1" font-size="16" >H</text>
<text x="28.400000" y="56.000000" fill="rgb(102,102,102)"  stroke="rgb(102,102,102)" stroke-width="1" font-size="13" >3</text>
<text x="34.900000" y="48.320000" fill="rgb(102,102,102)"  stroke="rgb(102,102,102)" stroke-width="1" font-size="16" >C</text>
<text x="37.809325" y="110.691128" fill="rgb(102,102,102)"  stroke="rgb(102,102,102)" stroke-width="1" font-size="16" >H</text>
<text x="49.809325" y="115.491128" fill="rgb(102,102,102)"  stroke="rgb(102,102,102)" stroke-width="1" font-size="13" >3</text>
<text x="56.309325" y="110.691128" fill="rgb(102,102,102)"  stroke="rgb(102,102,102)" stroke-width="1" font-size="16" >C</text>
<text x="55.174439" y="102.934092" fill="rgb(102,102,102)"  stroke="rgb(102,102,102)" stroke-width="1" font-size="16" >H</text>
<text x="67.174439" y="110.614092" fill="rgb(102,102,102)"  stroke="rgb(102,102,102)" stroke-width="1" font-size="13" >3</text>
<text x="73.674439" y="102.934092" fill="rgb(102,102,102)"  stroke="rgb(102,102,102)" stroke-width="1" font-size="16" >C</text>
<text x="273.424976" y="343.583952" fill="rgb(102,102,102)"  stroke="rgb(102,102,102)" stroke-width="1" font-size="16" >CH</text>
<text x="297.424976" y="348.383952" fill="rgb(102,102,102)"  stroke="rgb(102,102,102)" stroke-width="1" font-size="13" >3</text>
<text x="215.824976" y="343.583952" fill="rgb(102,102,102)"  stroke="rgb(102,102,102)" stroke-width="1" font-size="16" >H</text>
<text x="227.824976" y="348.383952" fill="rgb(102,102,102)"  stroke="rgb(102,102,102)" stroke-width="1" font-size="13" >3</text>
<text x="234.324976" y="343.583952" fill="rgb(102,102,102)"  stroke="rgb(102,102,102)" stroke-width="1" font-size="16" >C</text>
<text x="131.130377" y="155.921118" fill="rgb(102,102,102)"  stroke="rgb(102,102,102)" stroke-width="1" font-size="16" >CH</text>
<text x="155.130377" y="163.601118" fill="rgb(102,102,102)"  stroke="rgb(102,102,102)" stroke-width="1" font-size="13" >3</text>
<text x="218.783960" y="212.462936" fill="rgb(102,102,102)"  stroke="rgb(102,102,102)" stroke-width="1" font-size="16" >CH</text>
<text x="242.783960" y="220.142936" fill="rgb(102,102,102)"  stroke="rgb(102,102,102)" stroke-width="1" font-size="13" >3</text>
<text x="328.065992" y="292.462936" fill="rgb(255,12,12)"  stroke="rgb(255,12,12)" stroke-width="1" font-size="16" >OH</text>
<text x="48.409214" y="132.659885" fill="rgb(191,191,191)"  stroke="rgb(191,191,191)" stroke-width="1" font-size="16" >H</text>
<text x="49.492858" y="153.337032" fill="rgb(191,191,191)"  stroke="rgb(191,191,191)" stroke-width="1" font-size="16" >H</text>
<text x="218.783960" y="328.942936" fill="rgb(191,191,191)"  stroke="rgb(191,191,191)" stroke-width="1" font-size="16" >H</text>
<text x="308.065992" y="323.583952" fill="rgb(191,191,191)"  stroke="rgb(191,191,191)" stroke-width="1" font-size="16" >H</text>
<text font-size="18.000000" fill ="black" font-family="sans-serif"
x="140.000000" y="20.000000" ></text>
<title> - OBDepict</title>
</svg>
