<?xml version="1.0"?>
<svg xmlns="http://www.w3.org/2000/svg"
xmlns:xlink="http://www.w3.org/1999/xlink" xmlns:cml="http://www.xml-cml.org/schema" width="285.477" height="200" x="0" y="0" font-family="sans-serif" stroke="rgb(0,0,0)" stroke-width="1" >
<line x1="236.5" y1="114.8" x2="219.8" y2="105.2"/>
<line x1="179.2" y1="120.0" x2="179.2" y2="149.6"/>
<line x1="173.2" y1="120.0" x2="173.2" y2="149.6"/>
<line x1="80.0" y1="80.0" x2="50.4" y2="80.0"/>
<line x1="210.8" y1="60.0" x2="236.5" y2="45.2"/>
<line x1="80.0" y1="80.0" x2="97.4" y2="56.1"/>
<line x1="113.4" y1="50.9" x2="141.6" y2="60.0"/>
<line x1="141.6" y1="60.0" x2="141.6" y2="100.0"/>
<line x1="134.4" y1="66.0" x2="134.4" y2="94.0"/>
<line x1="141.6" y1="100.0" x2="113.4" y2="109.1"/>
<line x1="97.4" y1="103.9" x2="80.0" y2="80.0"/>
<line x1="102.0" y1="98.1" x2="89.4" y2="80.6"/>
<line x1="141.6" y1="60.0" x2="167.2" y2="45.2"/>
<line x1="185.2" y1="45.2" x2="210.8" y2="60.0"/>
<line x1="183.3" y1="52.4" x2="202.0" y2="63.2"/>
<line x1="210.8" y1="60.0" x2="210.8" y2="89.6"/>
<line x1="201.8" y1="105.2" x2="176.2" y2="120.0"/>
<line x1="176.2" y1="120.0" x2="141.6" y2="100.0"/>
<text x="239.476719" y="124.800000" fill="rgb(102,102,102)"  stroke="rgb(102,102,102)" stroke-width="1" font-size="16" >CH</text>
<text x="263.476719" y="129.600000" fill="rgb(102,102,102)"  stroke="rgb(102,102,102)" stroke-width="1" font-size="13" >3</text>
<text x="99.911410" y="117.160680" fill="rgb(12,12,255)"  stroke="rgb(12,12,255)" stroke-width="1" font-size="16" >N</text>
<text x="87.911410" y="55.959320" fill="rgb(12,12,255)"  stroke="rgb(12,12,255)" stroke-width="1" font-size="16" >HN</text>
<text x="170.194687" y="48.320000" fill="rgb(12,12,255)"  stroke="rgb(12,12,255)" stroke-width="1" font-size="16" >N</text>
<text x="204.835703" y="104.800000" fill="rgb(12,12,255)"  stroke="rgb(12,12,255)" stroke-width="1" font-size="16" >N</text>
<text x="170.194687" y="164.800000" fill="rgb(255,12,12)"  stroke="rgb(255,12,12)" stroke-width="1" font-size="16" >O</text>
<text x="24.400000" y="88.320000" fill="rgb(255,12,12)"  stroke="rgb(255,12,12)" stroke-width="1" font-size="16" >HO</text>
<text x="239.476719" y="48.320000" fill="rgb(255,12,12)"  stroke="rgb(255,12,12)" stroke-width="1" font-size="16" >OH</text>
<text font-size="18.000000" fill ="black" font-family="sans-serif"
x="140.000000" y="20.000000" ></text>
<title> - OBDepict</title>
</svg>
