<?xml version="1.0"?>
<svg xmlns="http://www.w3.org/2000/svg"
xmlns:xlink="http://www.w3.org/1999/xlink" xmlns:cml="http://www.xml-cml.org/schema" width="339.778" height="282.889" x="0" y="0" font-family="sans-serif" stroke="rgb(0,0,0)" stroke-width="1" >
<polygon points="99.3553 88.6028 113.521 66.6212 106.212 63.3673 " />
<line x1="166.2" y1="127.2" x2="190.9" y2="112.9"/>
<line x1="132.8" y1="146.5" x2="83.3" y2="175.0"/>
<line x1="99.4" y1="127.2" x2="111.0" y2="153.2"/>
<line x1="266.4" y1="185.0" x2="291.1" y2="199.3"/>
<line x1="59.8" y1="77.6" x2="51.0" y2="50.5"/>
<line x1="65.5" y1="75.8" x2="56.7" y2="48.6"/>
<line x1="233.0" y1="204.3" x2="233.0" y2="232.9"/>
<line x1="99.4" y1="127.2" x2="62.7" y2="139.1"/>
<line x1="62.7" y1="139.1" x2="40.0" y2="107.9"/>
<line x1="40.0" y1="107.9" x2="62.7" y2="76.7"/>
<line x1="62.7" y1="76.7" x2="99.4" y2="88.6"/>
<line x1="99.4" y1="88.6" x2="99.4" y2="127.2"/>
<line x1="132.8" y1="185.0" x2="166.2" y2="204.3"/>
<line x1="166.2" y1="204.3" x2="199.6" y2="185.0"/>
<line x1="199.6" y1="185.0" x2="199.6" y2="146.5"/>
<line x1="192.4" y1="179.0" x2="192.4" y2="152.5"/>
<line x1="199.6" y1="146.5" x2="166.2" y2="127.2"/>
<line x1="166.2" y1="127.2" x2="132.8" y2="146.5"/>
<line x1="132.8" y1="146.5" x2="132.8" y2="185.0"/>
<line x1="266.4" y1="185.0" x2="266.4" y2="146.5"/>
<line x1="266.4" y1="146.5" x2="233.0" y2="127.2"/>
<line x1="257.6" y1="149.7" x2="234.6" y2="136.4"/>
<line x1="233.0" y1="127.2" x2="199.6" y2="146.5"/>
<line x1="199.6" y1="185.0" x2="233.0" y2="204.3"/>
<line x1="233.0" y1="204.3" x2="266.4" y2="185.0"/>
<line x1="234.6" y1="195.1" x2="257.6" y2="181.8"/>
<line x1="99.4" y1="127.2" x2="132.8" y2="146.5"/>
<line x1="166.2" y1="127.2" x2="166.2" y2="88.6"/>
<line x1="166.2" y1="88.6" x2="132.8" y2="69.3"/>
<line x1="132.8" y1="69.3" x2="99.4" y2="88.6"/>
<text x="109.043739" y="61.686082" fill="rgb(102,102,102)"  stroke="rgb(102,102,102)" stroke-width="1" font-size="16" >CH</text>
<text x="133.043739" y="69.366082" fill="rgb(102,102,102)"  stroke="rgb(102,102,102)" stroke-width="1" font-size="13" >3</text>
<text x="293.778347" y="209.117121" fill="rgb(255,12,12)"  stroke="rgb(255,12,12)" stroke-width="1" font-size="16" >OH</text>
<text x="47.152490" y="48.320000" fill="rgb(255,12,12)"  stroke="rgb(255,12,12)" stroke-width="1" font-size="16" >O</text>
<text x="226.970673" y="247.688550" fill="rgb(255,12,12)"  stroke="rgb(255,12,12)" stroke-width="1" font-size="16" >OH</text>
<text x="193.566836" y="116.208550" fill="rgb(191,191,191)"  stroke="rgb(191,191,191)" stroke-width="1" font-size="16" >H</text>
<text x="62.351488" y="189.831407" fill="rgb(191,191,191)"  stroke="rgb(191,191,191)" stroke-width="1" font-size="16" >H</text>
<text x="109.043739" y="167.211017" fill="rgb(191,191,191)"  stroke="rgb(191,191,191)" stroke-width="1" font-size="16" >H</text>
<text font-size="18.000000" fill ="black" font-family="sans-serif"
x="140.000000" y="20.000000" ></text>
<title> - OBDepict</title>
</svg>
