<?xml version="1.0"?>
<svg xmlns="http://www.w3.org/2000/svg"
xmlns:xlink="http://www.w3.org/1999/xlink" xmlns:cml="http://www.xml-cml.org/schema" width="570.333" height="380" x="0" y="0" font-family="sans-serif" stroke="rgb(0,0,0)" stroke-width="1" >
<line x1="49.0" y1="145.2" x2="74.6" y2="160.0"/>
<line x1="446.7" y1="145.2" x2="421.1" y2="160.0"/>
<line x1="178.6" y1="129.6" x2="178.6" y2="100.0"/>
<line x1="49.0" y1="265.2" x2="74.6" y2="280.0"/>
<line x1="395.4" y1="265.2" x2="421.1" y2="280.0"/>
<line x1="173.5" y1="280.0" x2="143.9" y2="280.0"/>
<line x1="158.7" y1="254.4" x2="143.9" y2="280.0"/>
<line x1="519.9" y1="280.0" x2="490.3" y2="280.0"/>
<line x1="505.1" y1="254.4" x2="490.3" y2="280.0"/>
<line x1="109.3" y1="100.0" x2="83.6" y2="85.2"/>
<line x1="109.3" y1="100.0" x2="109.3" y2="140.0"/>
<line x1="107.8" y1="97.4" x2="142.4" y2="77.4"/>
<line x1="110.8" y1="102.6" x2="145.4" y2="82.6"/>
<line x1="386.4" y1="100.0" x2="412.0" y2="85.2"/>
<line x1="386.4" y1="100.0" x2="386.4" y2="140.0"/>
<line x1="384.9" y1="102.6" x2="350.3" y2="82.6"/>
<line x1="387.9" y1="97.4" x2="353.3" y2="77.4"/>
<line x1="109.3" y1="140.0" x2="134.9" y2="154.8"/>
<line x1="110.8" y1="142.6" x2="76.1" y2="162.6"/>
<line x1="107.8" y1="137.4" x2="73.1" y2="157.4"/>
<line x1="386.4" y1="140.0" x2="360.8" y2="154.8"/>
<line x1="387.9" y1="137.4" x2="422.6" y2="157.4"/>
<line x1="384.9" y1="142.6" x2="419.6" y2="162.6"/>
<line x1="143.9" y1="80.0" x2="143.9" y2="50.4"/>
<line x1="143.9" y1="80.0" x2="178.6" y2="100.0"/>
<line x1="351.8" y1="80.0" x2="351.8" y2="50.4"/>
<line x1="351.8" y1="80.0" x2="317.1" y2="100.0"/>
<line x1="74.6" y1="200.0" x2="49.0" y2="214.8"/>
<line x1="76.1" y1="197.4" x2="110.8" y2="217.4"/>
<line x1="73.1" y1="202.6" x2="107.8" y2="222.6"/>
<line x1="74.6" y1="200.0" x2="74.6" y2="160.0"/>
<line x1="421.1" y1="200.0" x2="395.4" y2="214.8"/>
<line x1="422.6" y1="197.4" x2="457.2" y2="217.4"/>
<line x1="419.6" y1="202.6" x2="454.2" y2="222.6"/>
<line x1="421.1" y1="200.0" x2="421.1" y2="160.0"/>
<line x1="109.3" y1="220.0" x2="134.9" y2="205.2"/>
<line x1="109.3" y1="220.0" x2="109.3" y2="260.0"/>
<line x1="455.7" y1="220.0" x2="481.3" y2="205.2"/>
<line x1="455.7" y1="220.0" x2="455.7" y2="260.0"/>
<line x1="213.2" y1="160.0" x2="213.2" y2="200.0"/>
<line x1="213.2" y1="160.0" x2="238.8" y2="145.2"/>
<line x1="213.2" y1="200.0" x2="238.8" y2="214.8"/>
<line x1="213.2" y1="80.0" x2="213.2" y2="50.4"/>
<line x1="214.7" y1="82.6" x2="180.1" y2="102.6"/>
<line x1="211.7" y1="77.4" x2="177.1" y2="97.4"/>
<line x1="213.2" y1="80.0" x2="247.8" y2="100.0"/>
<line x1="74.6" y1="320.0" x2="109.3" y2="340.0"/>
<line x1="109.3" y1="340.0" x2="143.9" y2="320.0"/>
<line x1="143.9" y1="320.0" x2="143.9" y2="280.0"/>
<line x1="143.9" y1="280.0" x2="109.3" y2="260.0"/>
<line x1="109.3" y1="260.0" x2="74.6" y2="280.0"/>
<line x1="107.7" y1="269.2" x2="83.4" y2="283.2"/>
<line x1="74.6" y1="280.0" x2="74.6" y2="320.0"/>
<line x1="421.1" y1="320.0" x2="455.7" y2="340.0"/>
<line x1="455.7" y1="340.0" x2="490.3" y2="320.0"/>
<line x1="490.3" y1="320.0" x2="490.3" y2="280.0"/>
<line x1="490.3" y1="280.0" x2="455.7" y2="260.0"/>
<line x1="455.7" y1="260.0" x2="421.1" y2="280.0"/>
<line x1="454.1" y1="269.2" x2="429.8" y2="283.2"/>
<line x1="421.1" y1="280.0" x2="421.1" y2="320.0"/>
<line x1="282.5" y1="80.0" x2="317.1" y2="100.0"/>
<line x1="284.1" y1="89.2" x2="308.3" y2="103.2"/>
<line x1="317.1" y1="100.0" x2="317.1" y2="140.0"/>
<line x1="317.1" y1="140.0" x2="282.5" y2="160.0"/>
<line x1="308.3" y1="136.8" x2="284.1" y2="150.8"/>
<line x1="282.5" y1="160.0" x2="256.9" y2="145.2"/>
<line x1="247.8" y1="129.6" x2="247.8" y2="100.0"/>
<line x1="255.0" y1="127.6" x2="255.0" y2="106.0"/>
<line x1="247.8" y1="100.0" x2="282.5" y2="80.0"/>
<text x="16.400000" y="148.320000" fill="rgb(102,102,102)"  stroke="rgb(102,102,102)" stroke-width="1" font-size="16" >H</text>
<text x="28.400000" y="156.000000" fill="rgb(102,102,102)"  stroke="rgb(102,102,102)" stroke-width="1" font-size="13" >3</text>
<text x="34.900000" y="148.320000" fill="rgb(102,102,102)"  stroke="rgb(102,102,102)" stroke-width="1" font-size="16" >C</text>
<text x="449.692194" y="148.320000" fill="rgb(102,102,102)"  stroke="rgb(102,102,102)" stroke-width="1" font-size="16" >CH</text>
<text x="473.692194" y="156.000000" fill="rgb(102,102,102)"  stroke="rgb(102,102,102)" stroke-width="1" font-size="13" >3</text>
<text x="172.564065" y="144.800000" fill="rgb(102,102,102)"  stroke="rgb(102,102,102)" stroke-width="1" font-size="16" >CH</text>
<text x="196.564065" y="149.600000" fill="rgb(102,102,102)"  stroke="rgb(102,102,102)" stroke-width="1" font-size="13" >3</text>
<text x="16.400000" y="268.320000" fill="rgb(102,102,102)"  stroke="rgb(102,102,102)" stroke-width="1" font-size="16" >H</text>
<text x="28.400000" y="276.000000" fill="rgb(102,102,102)"  stroke="rgb(102,102,102)" stroke-width="1" font-size="13" >3</text>
<text x="34.900000" y="268.320000" fill="rgb(102,102,102)"  stroke="rgb(102,102,102)" stroke-width="1" font-size="16" >C</text>
<text x="362.810162" y="268.320000" fill="rgb(102,102,102)"  stroke="rgb(102,102,102)" stroke-width="1" font-size="16" >H</text>
<text x="374.810162" y="276.000000" fill="rgb(102,102,102)"  stroke="rgb(102,102,102)" stroke-width="1" font-size="13" >3</text>
<text x="381.310162" y="268.320000" fill="rgb(102,102,102)"  stroke="rgb(102,102,102)" stroke-width="1" font-size="16" >C</text>
<text x="177.923048" y="284.800000" fill="rgb(102,102,102)"  stroke="rgb(102,102,102)" stroke-width="1" font-size="16" >CH</text>
<text x="201.923048" y="289.600000" fill="rgb(102,102,102)"  stroke="rgb(102,102,102)" stroke-width="1" font-size="13" >3</text>
<text x="157.923048" y="253.678984" fill="rgb(102,102,102)"  stroke="rgb(102,102,102)" stroke-width="1" font-size="16" >CH</text>
<text x="181.923048" y="261.358984" fill="rgb(102,102,102)"  stroke="rgb(102,102,102)" stroke-width="1" font-size="13" >3</text>
<text x="524.333210" y="284.800000" fill="rgb(102,102,102)"  stroke="rgb(102,102,102)" stroke-width="1" font-size="16" >CH</text>
<text x="548.333210" y="289.600000" fill="rgb(102,102,102)"  stroke="rgb(102,102,102)" stroke-width="1" font-size="13" >3</text>
<text x="504.333210" y="253.678984" fill="rgb(102,102,102)"  stroke="rgb(102,102,102)" stroke-width="1" font-size="16" >CH</text>
<text x="528.333210" y="261.358984" fill="rgb(102,102,102)"  stroke="rgb(102,102,102)" stroke-width="1" font-size="13" >3</text>
<text x="243.946097" y="134.800000" fill="rgb(12,12,255)"  stroke="rgb(12,12,255)" stroke-width="1" font-size="13" >+</text>
<text x="241.846097" y="148.320000" fill="rgb(12,12,255)"  stroke="rgb(12,12,255)" stroke-width="1" font-size="16" >N</text>
<text x="241.846097" y="224.800000" fill="rgb(255,12,12)"  stroke="rgb(255,12,12)" stroke-width="1" font-size="16" >OH</text>
<text x="71.041016" y="88.320000" fill="rgb(191,191,191)"  stroke="rgb(191,191,191)" stroke-width="1" font-size="16" >H</text>
<text x="415.051178" y="88.320000" fill="rgb(191,191,191)"  stroke="rgb(191,191,191)" stroke-width="1" font-size="16" >H</text>
<text x="137.923048" y="164.800000" fill="rgb(191,191,191)"  stroke="rgb(191,191,191)" stroke-width="1" font-size="16" >H</text>
<text x="348.169145" y="164.800000" fill="rgb(191,191,191)"  stroke="rgb(191,191,191)" stroke-width="1" font-size="16" >H</text>
<text x="137.923048" y="48.320000" fill="rgb(191,191,191)"  stroke="rgb(191,191,191)" stroke-width="1" font-size="16" >H</text>
<text x="345.769145" y="48.320000" fill="rgb(191,191,191)"  stroke="rgb(191,191,191)" stroke-width="1" font-size="16" >H</text>
<text x="36.400000" y="224.800000" fill="rgb(191,191,191)"  stroke="rgb(191,191,191)" stroke-width="1" font-size="16" >H</text>
<text x="382.810162" y="224.800000" fill="rgb(191,191,191)"  stroke="rgb(191,191,191)" stroke-width="1" font-size="16" >H</text>
<text x="137.923048" y="208.320000" fill="rgb(191,191,191)"  stroke="rgb(191,191,191)" stroke-width="1" font-size="16" >H</text>
<text x="484.333210" y="208.320000" fill="rgb(191,191,191)"  stroke="rgb(191,191,191)" stroke-width="1" font-size="16" >H</text>
<text x="207.205081" y="48.320000" fill="rgb(191,191,191)"  stroke="rgb(191,191,191)" stroke-width="1" font-size="16" >H</text>
<text font-size="18.000000" fill ="black" font-family="sans-serif"
x="140.000000" y="20.000000" ></text>
<title> - OBDepict</title>
</svg>
