<?xml version="1.0"?>
<svg xmlns="http://www.w3.org/2000/svg"
xmlns:xlink="http://www.w3.org/1999/xlink" xmlns:cml="http://www.xml-cml.org/schema" width="253.205" height="260" x="0" y="0" font-family="sans-serif" stroke="rgb(0,0,0)" stroke-width="1" >
<line x1="143.9" y1="160.0" x2="169.6" y2="174.8"/>
<line x1="74.6" y1="120.0" x2="49.0" y2="105.2"/>
<line x1="109.3" y1="100.0" x2="109.3" y2="70.4"/>
<line x1="181.6" y1="190.4" x2="181.6" y2="209.6"/>
<line x1="175.6" y1="190.4" x2="175.6" y2="209.6"/>
<line x1="186.1" y1="172.2" x2="202.7" y2="162.6"/>
<line x1="189.1" y1="177.4" x2="205.7" y2="167.8"/>
<line x1="116.8" y1="52.2" x2="133.4" y2="42.6"/>
<line x1="119.8" y1="57.4" x2="136.4" y2="47.8"/>
<line x1="98.8" y1="57.4" x2="82.1" y2="47.8"/>
<line x1="101.8" y1="52.2" x2="85.1" y2="42.6"/>
<line x1="109.3" y1="180.0" x2="143.9" y2="160.0"/>
<line x1="143.9" y1="160.0" x2="143.9" y2="120.0"/>
<line x1="136.7" y1="154.0" x2="136.7" y2="126.0"/>
<line x1="143.9" y1="120.0" x2="109.3" y2="100.0"/>
<line x1="109.3" y1="100.0" x2="74.6" y2="120.0"/>
<line x1="107.7" y1="109.2" x2="83.4" y2="123.2"/>
<line x1="74.6" y1="120.0" x2="74.6" y2="160.0"/>
<line x1="74.6" y1="160.0" x2="109.3" y2="180.0"/>
<line x1="83.4" y1="156.8" x2="107.7" y2="170.8"/>
<text x="24.400000" y="108.320000" fill="rgb(30,239,30)"  stroke="rgb(30,239,30)" stroke-width="1" font-size="16" >Cl</text>
<text x="172.564065" y="188.320000" fill="rgb(12,12,255)"  stroke="rgb(12,12,255)" stroke-width="1" font-size="16" >N</text>
<text x="103.282032" y="64.800000" fill="rgb(12,12,255)"  stroke="rgb(12,12,255)" stroke-width="1" font-size="16" >N</text>
<text x="172.564065" y="224.800000" fill="rgb(255,12,12)"  stroke="rgb(255,12,12)" stroke-width="1" font-size="16" >O</text>
<text x="207.205081" y="168.320000" fill="rgb(255,12,12)"  stroke="rgb(255,12,12)" stroke-width="1" font-size="16" >O</text>
<text x="137.923048" y="48.320000" fill="rgb(255,12,12)"  stroke="rgb(255,12,12)" stroke-width="1" font-size="16" >O</text>
<text x="71.041016" y="48.320000" fill="rgb(255,12,12)"  stroke="rgb(255,12,12)" stroke-width="1" font-size="16" >O</text>
<text font-size="18.000000" fill ="black" font-family="sans-serif"
x="140.000000" y="20.000000" ></text>
<title> - OBDepict</title>
</svg>
