<?xml version="1.0"?>
<svg xmlns="http://www.w3.org/2000/svg"
xmlns:xlink="http://www.w3.org/1999/xlink" xmlns:cml="http://www.xml-cml.org/schema" width="599.615" height="300" x="0" y="0" font-family="sans-serif" stroke="rgb(0,0,0)" stroke-width="1" >
<line x1="559.6" y1="170.4" x2="559.6" y2="200.0"/>
<line x1="559.6" y1="200.0" x2="525.0" y2="220.0"/>
<line x1="525.0" y1="220.0" x2="525.0" y2="249.6"/>
<line x1="523.5" y1="222.6" x2="488.8" y2="202.6"/>
<line x1="526.5" y1="217.4" x2="491.8" y2="197.4"/>
<line x1="490.3" y1="200.0" x2="464.7" y2="214.8"/>
<line x1="490.3" y1="200.0" x2="490.3" y2="160.0"/>
<line x1="282.5" y1="80.0" x2="247.8" y2="100.0"/>
<line x1="282.5" y1="80.0" x2="317.1" y2="100.0"/>
<line x1="247.8" y1="100.0" x2="213.2" y2="80.0"/>
<line x1="317.1" y1="100.0" x2="317.1" y2="140.0"/>
<line x1="213.2" y1="80.0" x2="178.6" y2="100.0"/>
<line x1="317.1" y1="140.0" x2="291.5" y2="154.8"/>
<line x1="318.6" y1="137.4" x2="353.3" y2="157.4"/>
<line x1="315.6" y1="142.6" x2="350.3" y2="162.6"/>
<line x1="178.6" y1="100.0" x2="143.9" y2="80.0"/>
<line x1="490.3" y1="160.0" x2="455.7" y2="140.0"/>
<line x1="351.8" y1="160.0" x2="351.8" y2="189.6"/>
<line x1="351.8" y1="160.0" x2="386.4" y2="140.0"/>
<line x1="143.9" y1="80.0" x2="109.3" y2="100.0"/>
<line x1="455.7" y1="140.0" x2="421.1" y2="160.0"/>
<line x1="386.4" y1="140.0" x2="421.1" y2="160.0"/>
<line x1="109.3" y1="100.0" x2="74.6" y2="80.0"/>
<line x1="408.6" y1="182.4" x2="407.9" y2="182.0"/>
<line x1="410.9" y1="179.1" x2="409.6" y2="178.3"/>
<line x1="413.3" y1="175.8" x2="411.2" y2="174.6"/>
<line x1="415.6" y1="172.6" x2="412.9" y2="171.0"/>
<line x1="418.0" y1="169.3" x2="414.5" y2="167.3"/>
<line x1="420.3" y1="166.0" x2="416.2" y2="163.6"/>
<line x1="422.7" y1="162.8" x2="417.8" y2="160.0"/>
<line x1="421.1" y1="160.0" x2="435.9" y2="185.6"/>
<line x1="71.6" y1="80.0" x2="71.6" y2="50.4"/>
<line x1="77.6" y1="80.0" x2="77.6" y2="50.4"/>
<line x1="74.6" y1="80.0" x2="49.0" y2="94.8"/>
<text x="553.615242" y="168.320000" fill="rgb(102,102,102)"  stroke="rgb(102,102,102)" stroke-width="1" font-size="16" >CH</text>
<text x="577.615242" y="176.000000" fill="rgb(102,102,102)"  stroke="rgb(102,102,102)" stroke-width="1" font-size="13" >3</text>
<text x="435.051178" y="199.441016" fill="rgb(255,12,12)"  stroke="rgb(255,12,12)" stroke-width="1" font-size="16" >OH</text>
<text x="68.641016" y="48.320000" fill="rgb(255,12,12)"  stroke="rgb(255,12,12)" stroke-width="1" font-size="16" >O</text>
<text x="35.200000" y="119.200000" fill="rgb(255,12,12)"  stroke="rgb(255,12,12)" stroke-width="1" font-size="32" >-</text>
<text x="36.400000" y="104.800000" fill="rgb(255,12,12)"  stroke="rgb(255,12,12)" stroke-width="1" font-size="16" >O</text>
<text x="518.974226" y="264.800000" fill="rgb(191,191,191)"  stroke="rgb(191,191,191)" stroke-width="1" font-size="16" >H</text>
<text x="452.092194" y="224.800000" fill="rgb(191,191,191)"  stroke="rgb(191,191,191)" stroke-width="1" font-size="16" >H</text>
<text x="278.887113" y="164.800000" fill="rgb(191,191,191)"  stroke="rgb(191,191,191)" stroke-width="1" font-size="16" >H</text>
<text x="345.769145" y="204.800000" fill="rgb(191,191,191)"  stroke="rgb(191,191,191)" stroke-width="1" font-size="16" >H</text>
<text x="397.451178" y="199.441016" fill="rgb(191,191,191)"  stroke="rgb(191,191,191)" stroke-width="1" font-size="16" >H</text>
<text font-size="18.000000" fill ="black" font-family="sans-serif"
x="140.000000" y="20.000000" ></text>
<title> - OBDepict</title>
</svg>
