<?xml version="1.0"?>
<svg xmlns="http://www.w3.org/2000/svg"
xmlns:xlink="http://www.w3.org/1999/xlink" xmlns:cml="http://www.xml-cml.org/schema" width="384.041" height="250.403" x="0" y="0" font-family="sans-serif" stroke="rgb(0,0,0)" stroke-width="1" >
<polygon points="143.923 150.403 147.923 123.603 139.923 123.603 " />
<polygon points="247.846 90.4029 240.6 64.293 233.291 67.5469 " />
<line x1="76.1" y1="193.0" x2="50.5" y2="207.8"/>
<line x1="73.1" y1="187.8" x2="47.5" y2="202.6"/>
<polygon points="236.414562 163.802940 215.205081 146.938839 211.205081 153.867042 " />
<line x1="156.2" y1="117.9" x2="156.6" y2="117.3"/>
<line x1="159.5" y1="120.3" x2="160.3" y2="118.9"/>
<line x1="162.7" y1="122.6" x2="163.9" y2="120.6"/>
<line x1="166.0" y1="125.0" x2="167.6" y2="122.2"/>
<line x1="169.3" y1="127.3" x2="171.3" y2="123.9"/>
<line x1="172.5" y1="129.7" x2="174.9" y2="125.5"/>
<line x1="175.8" y1="132.0" x2="178.6" y2="127.2"/>
<line x1="237.8" y1="154.0" x2="237.1" y2="153.6"/>
<line x1="239.8" y1="150.5" x2="238.3" y2="149.8"/>
<line x1="241.8" y1="147.0" x2="239.6" y2="146.0"/>
<line x1="243.8" y1="143.5" x2="240.9" y2="142.2"/>
<line x1="245.8" y1="140.0" x2="242.1" y2="138.4"/>
<line x1="247.8" y1="136.5" x2="243.4" y2="134.5"/>
<line x1="249.8" y1="133.0" x2="244.6" y2="130.7"/>
<polygon points="332.609248 97.002940 307.399768 106.938839 311.399768 113.867042 " />
<line x1="309.4" y1="110.4" x2="335.0" y2="125.2"/>
<line x1="283.0" y1="77.1" x2="292.2" y2="49.0"/>
<line x1="288.7" y1="79.0" x2="297.9" y2="50.8"/>
<line x1="309.4" y1="110.4" x2="285.9" y2="78.0"/>
<line x1="285.9" y1="78.0" x2="247.8" y2="90.4"/>
<line x1="247.8" y1="90.4" x2="247.8" y2="130.4"/>
<line x1="247.8" y1="130.4" x2="285.9" y2="142.8"/>
<line x1="285.9" y1="142.8" x2="309.4" y2="110.4"/>
<line x1="178.6" y1="210.4" x2="213.2" y2="190.4"/>
<line x1="213.2" y1="190.4" x2="213.2" y2="150.4"/>
<line x1="213.2" y1="150.4" x2="178.6" y2="130.4"/>
<line x1="178.6" y1="130.4" x2="143.9" y2="150.4"/>
<line x1="143.9" y1="150.4" x2="143.9" y2="190.4"/>
<line x1="143.9" y1="190.4" x2="178.6" y2="210.4"/>
<line x1="74.6" y1="190.4" x2="109.3" y2="210.4"/>
<line x1="109.3" y1="210.4" x2="143.9" y2="190.4"/>
<line x1="110.9" y1="201.2" x2="135.1" y2="187.2"/>
<line x1="143.9" y1="150.4" x2="109.3" y2="130.4"/>
<line x1="109.3" y1="130.4" x2="74.6" y2="150.4"/>
<line x1="74.6" y1="150.4" x2="74.6" y2="190.4"/>
<line x1="247.8" y1="90.4" x2="213.2" y2="70.4"/>
<line x1="213.2" y1="70.4" x2="178.6" y2="90.4"/>
<line x1="178.6" y1="90.4" x2="178.6" y2="130.4"/>
<line x1="213.2" y1="150.4" x2="247.8" y2="130.4"/>
<text x="137.923048" y="118.722940" fill="rgb(102,102,102)"  stroke="rgb(102,102,102)" stroke-width="1" font-size="16" >CH</text>
<text x="161.923048" y="126.402940" fill="rgb(102,102,102)"  stroke="rgb(102,102,102)" stroke-width="1" font-size="13" >3</text>
<text x="207.976631" y="62.181122" fill="rgb(102,102,102)"  stroke="rgb(102,102,102)" stroke-width="1" font-size="16" >H</text>
<text x="219.976631" y="69.861122" fill="rgb(102,102,102)"  stroke="rgb(102,102,102)" stroke-width="1" font-size="13" >3</text>
<text x="226.476631" y="62.181122" fill="rgb(102,102,102)"  stroke="rgb(102,102,102)" stroke-width="1" font-size="16" >C</text>
<text x="36.400000" y="215.202940" fill="rgb(255,12,12)"  stroke="rgb(255,12,12)" stroke-width="1" font-size="16" >O</text>
<text x="338.040784" y="135.202940" fill="rgb(255,12,12)"  stroke="rgb(255,12,12)" stroke-width="1" font-size="16" >OH</text>
<text x="292.249037" y="48.320000" fill="rgb(255,12,12)"  stroke="rgb(255,12,12)" stroke-width="1" font-size="16" >O</text>
<text x="241.846097" y="175.202940" fill="rgb(191,191,191)"  stroke="rgb(191,191,191)" stroke-width="1" font-size="16" >H</text>
<text x="140.323048" y="118.722940" fill="rgb(191,191,191)"  stroke="rgb(191,191,191)" stroke-width="1" font-size="16" >H</text>
<text x="227.976631" y="171.744759" fill="rgb(191,191,191)"  stroke="rgb(191,191,191)" stroke-width="1" font-size="16" >H</text>
<text x="338.040784" y="98.722940" fill="rgb(191,191,191)"  stroke="rgb(191,191,191)" stroke-width="1" font-size="16" >H</text>
<text font-size="18.000000" fill ="black" font-family="sans-serif"
x="140.000000" y="20.000000" ></text>
<title> - OBDepict</title>
</svg>
