<?xml version="1.0"?>
<svg xmlns="http://www.w3.org/2000/svg"
xmlns:xlink="http://www.w3.org/1999/xlink" xmlns:cml="http://www.xml-cml.org/schema" width="634.478" height="614.488" x="0" y="0" font-family="sans-serif" stroke="rgb(0,0,0)" stroke-width="1" >
<line x1="322.9" y1="47.4" x2="350.5" y2="40.0"/>
<line x1="589.5" y1="565.8" x2="575.2" y2="541.1"/>
<line x1="350.5" y1="40.0" x2="377.8" y2="67.3"/>
<line x1="575.2" y1="541.1" x2="536.6" y2="541.1"/>
<line x1="377.8" y1="67.3" x2="367.8" y2="104.6"/>
<line x1="536.6" y1="541.1" x2="517.3" y2="507.6"/>
<line x1="367.8" y1="104.6" x2="330.5" y2="114.6"/>
<line x1="517.3" y1="507.6" x2="478.7" y2="507.6"/>
<line x1="330.5" y1="114.6" x2="320.5" y2="151.8"/>
<line x1="478.7" y1="507.6" x2="459.4" y2="474.2"/>
<line x1="320.5" y1="151.8" x2="283.3" y2="161.8"/>
<line x1="459.4" y1="474.2" x2="420.8" y2="474.2"/>
<line x1="283.3" y1="161.8" x2="273.3" y2="199.1"/>
<line x1="420.8" y1="474.2" x2="401.5" y2="440.8"/>
<line x1="273.3" y1="199.1" x2="236.0" y2="209.1"/>
<line x1="401.5" y1="440.8" x2="362.9" y2="440.8"/>
<line x1="236.0" y1="209.1" x2="226.0" y2="246.4"/>
<line x1="362.9" y1="440.8" x2="343.6" y2="407.4"/>
<line x1="226.0" y1="246.4" x2="188.7" y2="256.4"/>
<line x1="343.6" y1="407.4" x2="305.0" y2="407.4"/>
<line x1="188.7" y1="256.4" x2="178.7" y2="293.7"/>
<line x1="305.0" y1="407.4" x2="285.7" y2="440.8"/>
<line x1="206.0" y1="320.9" x2="178.7" y2="293.7"/>
<line x1="206.0" y1="320.9" x2="196.0" y2="358.2"/>
<line x1="247.1" y1="440.8" x2="285.7" y2="440.8"/>
<line x1="247.1" y1="440.8" x2="227.8" y2="407.4"/>
<line x1="97.9" y1="498.7" x2="136.5" y2="498.7"/>
<line x1="97.9" y1="498.7" x2="83.6" y2="523.4"/>
<polygon points="160.441618 311.942140 181.555579 296.485034 175.898724 290.828180 " />
<line x1="178.7" y1="293.7" x2="151.1" y2="286.3"/>
<line x1="307.3" y1="452.8" x2="306.9" y2="453.5"/>
<line x1="304.2" y1="450.5" x2="303.4" y2="451.9"/>
<line x1="301.0" y1="448.2" x2="299.8" y2="450.3"/>
<line x1="297.9" y1="446.0" x2="296.3" y2="448.7"/>
<line x1="294.7" y1="443.7" x2="292.7" y2="447.1"/>
<line x1="291.6" y1="441.4" x2="289.2" y2="445.6"/>
<line x1="288.4" y1="439.1" x2="285.6" y2="444.0"/>
<line x1="285.7" y1="440.8" x2="285.7" y2="469.3"/>
<polygon points="123.561404 521.075936 139.955330 500.680823 133.027126 496.680823 " />
<line x1="198.2" y1="356.1" x2="218.3" y2="376.3"/>
<line x1="193.9" y1="360.4" x2="214.1" y2="380.5"/>
<line x1="196.0" y1="358.2" x2="168.4" y2="365.6"/>
<line x1="225.2" y1="405.9" x2="239.5" y2="381.1"/>
<line x1="230.4" y1="408.9" x2="244.7" y2="384.1"/>
<line x1="227.8" y1="407.4" x2="199.3" y2="407.4"/>
<line x1="242.8" y1="489.8" x2="242.3" y2="490.5"/>
<line x1="236.9" y1="484.8" x2="235.9" y2="486.1"/>
<line x1="231.0" y1="479.8" x2="229.6" y2="481.7"/>
<line x1="225.1" y1="474.8" x2="223.2" y2="477.3"/>
<line x1="219.3" y1="469.8" x2="216.8" y2="472.9"/>
<line x1="213.4" y1="464.8" x2="210.5" y2="468.6"/>
<line x1="207.5" y1="459.7" x2="204.1" y2="464.2"/>
<line x1="203.3" y1="460.1" x2="218.1" y2="404.9"/>
<line x1="111.8" y1="460.5" x2="111.8" y2="459.7"/>
<line x1="115.6" y1="460.9" x2="115.6" y2="459.3"/>
<line x1="119.5" y1="461.3" x2="119.5" y2="458.9"/>
<line x1="123.4" y1="461.7" x2="123.4" y2="458.5"/>
<line x1="127.2" y1="462.1" x2="127.2" y2="458.1"/>
<line x1="131.1" y1="462.5" x2="131.1" y2="457.7"/>
<line x1="134.9" y1="462.9" x2="134.9" y2="457.3"/>
<line x1="136.5" y1="460.1" x2="122.2" y2="435.3"/>
<polygon points="156.986945 418.390973 166.452668 442.786086 173.380872 438.786086 " />
<line x1="169.9" y1="440.8" x2="184.2" y2="416.1"/>
<polygon points="229.201961 498.680823 203.342312 494.680823 203.342312 502.680823 " />
<line x1="203.3" y1="498.7" x2="217.6" y2="523.4"/>
<line x1="78.6" y1="398.1" x2="78.6" y2="416.6"/>
<line x1="50.0" y1="426.7" x2="68.6" y2="426.7"/>
<line x1="75.6" y1="455.2" x2="75.6" y2="436.7"/>
<line x1="81.6" y1="455.2" x2="81.6" y2="436.7"/>
<line x1="107.2" y1="426.7" x2="88.6" y2="426.7"/>
<line x1="203.3" y1="460.1" x2="169.9" y2="440.8"/>
<line x1="169.9" y1="440.8" x2="136.5" y2="460.1"/>
<line x1="136.5" y1="460.1" x2="136.5" y2="498.7"/>
<line x1="136.5" y1="498.7" x2="161.2" y2="513.0"/>
<line x1="178.6" y1="513.0" x2="203.3" y2="498.7"/>
<line x1="203.3" y1="498.7" x2="203.3" y2="460.1"/>
<text x="289.626889" y="54.789507" fill="rgb(102,102,102)"  stroke="rgb(102,102,102)" stroke-width="1" font-size="16" >H</text>
<text x="301.626889" y="59.589507" fill="rgb(102,102,102)"  stroke="rgb(102,102,102)" stroke-width="1" font-size="13" >3</text>
<text x="308.126889" y="54.789507" fill="rgb(102,102,102)"  stroke="rgb(102,102,102)" stroke-width="1" font-size="16" >C</text>
<text x="588.478173" y="579.288253" fill="rgb(102,102,102)"  stroke="rgb(102,102,102)" stroke-width="1" font-size="16" >CH</text>
<text x="612.478173" y="584.088253" fill="rgb(102,102,102)"  stroke="rgb(102,102,102)" stroke-width="1" font-size="13" >3</text>
<text x="217.321326" y="393.841636" fill="rgb(12,12,255)"  stroke="rgb(12,12,255)" stroke-width="1" font-size="16" >N</text>
<text x="62.996491" y="536.906365" fill="rgb(255,12,12)"  stroke="rgb(255,12,12)" stroke-width="1" font-size="16" >HO</text>
<text x="125.845804" y="291.987100" fill="rgb(255,12,12)"  stroke="rgb(255,12,12)" stroke-width="1" font-size="16" >HO</text>
<text x="279.706244" y="484.182577" fill="rgb(255,12,12)"  stroke="rgb(255,12,12)" stroke-width="1" font-size="16" >OH</text>
<text x="153.948138" y="387.419302" fill="rgb(255,12,12)"  stroke="rgb(255,12,12)" stroke-width="1" font-size="32" >-</text>
<text x="155.148138" y="373.019302" fill="rgb(255,12,12)"  stroke="rgb(255,12,12)" stroke-width="1" font-size="16" >O</text>
<text x="241.109752" y="382.255002" fill="rgb(255,12,12)"  stroke="rgb(255,12,12)" stroke-width="1" font-size="16" >O</text>
<text x="216.640557" y="536.906365" fill="rgb(255,12,12)"  stroke="rgb(255,12,12)" stroke-width="1" font-size="16" >OH</text>
<text x="73.796491" y="381.662298" fill="rgb(255,12,12)"  stroke="rgb(255,12,12)" stroke-width="1" font-size="32" >-</text>
<text x="72.596491" y="396.382298" fill="rgb(255,12,12)"  stroke="rgb(255,12,12)" stroke-width="1" font-size="16" >O</text>
<text x="24.400000" y="431.458790" fill="rgb(255,12,12)"  stroke="rgb(255,12,12)" stroke-width="1" font-size="16" >HO</text>
<text x="72.596491" y="470.055281" fill="rgb(255,12,12)"  stroke="rgb(255,12,12)" stroke-width="1" font-size="16" >O</text>
<text x="163.916770" y="522.779068" fill="rgb(255,12,12)"  stroke="rgb(255,12,12)" stroke-width="1" font-size="16" >O</text>
<text x="185.615016" y="415.680544" fill="rgb(255,12,12)"  stroke="rgb(255,12,12)" stroke-width="1" font-size="16" >O</text>
<text x="111.192982" y="434.978790" fill="rgb(255,12,12)"  stroke="rgb(255,12,12)" stroke-width="1" font-size="16" >O</text>
<text x="72.596491" y="434.978790" fill="rgb(255,127,0)"  stroke="rgb(255,127,0)" stroke-width="1" font-size="16" >P</text>
<text x="147.835311" y="325.748448" fill="rgb(191,191,191)"  stroke="rgb(191,191,191)" stroke-width="1" font-size="16" >H</text>
<text x="313.131786" y="464.884331" fill="rgb(191,191,191)"  stroke="rgb(191,191,191)" stroke-width="1" font-size="16" >H</text>
<text x="113.592982" y="536.906365" fill="rgb(191,191,191)"  stroke="rgb(191,191,191)" stroke-width="1" font-size="16" >H</text>
<text x="258.583622" y="511.876442" fill="rgb(191,191,191)"  stroke="rgb(191,191,191)" stroke-width="1" font-size="16" >H</text>
<text x="94.294737" y="464.884331" fill="rgb(191,191,191)"  stroke="rgb(191,191,191)" stroke-width="1" font-size="16" >H</text>
<text x="147.018524" y="415.680544" fill="rgb(191,191,191)"  stroke="rgb(191,191,191)" stroke-width="1" font-size="16" >H</text>
<text x="235.938803" y="507.000823" fill="rgb(191,191,191)"  stroke="rgb(191,191,191)" stroke-width="1" font-size="16" >H</text>
<text font-size="18.000000" fill ="black" font-family="sans-serif"
x="140.000000" y="20.000000" ></text>
<title> - OBDepict</title>
</svg>
