<?xml version="1.0"?>
<svg xmlns="http://www.w3.org/2000/svg"
xmlns:xlink="http://www.w3.org/1999/xlink" xmlns:cml="http://www.xml-cml.org/schema" width="1039.15" height="509.331" x="0" y="0" font-family="sans-serif" stroke="rgb(0,0,0)" stroke-width="1" >
<line x1="340.1" y1="111.4" x2="340.1" y2="139.8"/>
<line x1="685.1" y1="111.4" x2="685.1" y2="139.8"/>
<line x1="709.7" y1="125.6" x2="685.1" y2="139.8"/>
<line x1="152.5" y1="146.3" x2="153.3" y2="146.2"/>
<line x1="152.5" y1="150.3" x2="154.1" y2="150.1"/>
<line x1="152.6" y1="154.3" x2="155.0" y2="154.0"/>
<line x1="152.6" y1="158.3" x2="155.8" y2="157.9"/>
<line x1="152.7" y1="162.3" x2="156.6" y2="161.8"/>
<line x1="152.7" y1="166.2" x2="157.5" y2="165.7"/>
<line x1="152.8" y1="170.2" x2="158.3" y2="169.6"/>
<line x1="270.1" y1="159.9" x2="270.8" y2="159.6"/>
<line x1="273.1" y1="167.3" x2="274.5" y2="166.6"/>
<line x1="276.1" y1="174.6" x2="278.2" y2="173.6"/>
<line x1="279.0" y1="182.0" x2="281.9" y2="180.7"/>
<line x1="282.0" y1="189.4" x2="285.6" y2="187.7"/>
<line x1="285.0" y1="196.7" x2="289.3" y2="194.7"/>
<line x1="288.0" y1="204.1" x2="293.0" y2="201.7"/>
<line x1="359.3" y1="173.0" x2="397.6" y2="173.0"/>
<line x1="359.3" y1="173.0" x2="340.1" y2="139.8"/>
<line x1="397.6" y1="173.0" x2="416.8" y2="206.2"/>
<line x1="531.8" y1="139.8" x2="570.1" y2="139.8"/>
<line x1="531.8" y1="139.8" x2="512.6" y2="173.0"/>
<line x1="570.1" y1="139.8" x2="584.3" y2="115.2"/>
<line x1="512.6" y1="239.4" x2="474.3" y2="239.4"/>
<line x1="512.6" y1="239.4" x2="526.8" y2="214.8"/>
<line x1="474.3" y1="239.4" x2="460.1" y2="214.8"/>
<line x1="723.5" y1="349.3" x2="761.8" y2="349.3"/>
<line x1="723.5" y1="349.3" x2="709.3" y2="324.7"/>
<line x1="723.5" y1="206.2" x2="685.1" y2="139.8"/>
<line x1="723.5" y1="206.2" x2="709.3" y2="230.8"/>
<polygon points="362.367991 126.964186 338.124174 136.342558 342.124174 143.270761 " />
<line x1="340.1" y1="139.8" x2="305.4" y2="155.9"/>
<line x1="118.6" y1="89.3" x2="119.1" y2="88.8"/>
<line x1="121.0" y1="92.5" x2="122.1" y2="91.4"/>
<line x1="123.4" y1="95.6" x2="125.2" y2="94.0"/>
<line x1="125.8" y1="98.8" x2="128.2" y2="96.6"/>
<line x1="128.3" y1="101.9" x2="131.2" y2="99.2"/>
<line x1="130.7" y1="105.1" x2="134.2" y2="101.8"/>
<line x1="133.1" y1="108.3" x2="137.2" y2="104.4"/>
<line x1="53.1" y1="146.5" x2="52.8" y2="145.7"/>
<line x1="56.9" y1="145.2" x2="56.2" y2="143.7"/>
<line x1="60.7" y1="143.9" x2="59.7" y2="141.7"/>
<line x1="64.4" y1="142.6" x2="63.1" y2="139.7"/>
<line x1="68.2" y1="141.3" x2="66.5" y2="137.6"/>
<line x1="72.0" y1="140.0" x2="69.9" y2="135.6"/>
<line x1="75.7" y1="138.7" x2="73.4" y2="133.6"/>
<line x1="76.0" y1="135.5" x2="52.0" y2="118.6"/>
<polygon points="316.564125 180.029631 308.977113 154.256710 301.724624 157.633305 " />
<polygon points="224.506399 115.339441 250.605138 121.716124 251.325713 113.748642 " />
<polygon points="179.827087 122.394006 187.025805 147.406863 194.282387 144.039072 " />
<line x1="198.4" y1="54.2" x2="199.2" y2="54.3"/>
<line x1="197.7" y1="58.1" x2="199.2" y2="58.2"/>
<line x1="196.9" y1="62.0" x2="199.3" y2="62.2"/>
<line x1="196.2" y1="65.9" x2="199.3" y2="66.2"/>
<line x1="195.4" y1="69.8" x2="199.4" y2="70.2"/>
<line x1="194.7" y1="73.8" x2="199.4" y2="74.2"/>
<line x1="193.9" y1="77.7" x2="199.5" y2="78.2"/>
<line x1="196.6" y1="79.5" x2="223.2" y2="67.1"/>
<line x1="749.2" y1="328.2" x2="749.9" y2="327.8"/>
<line x1="750.8" y1="331.7" x2="752.2" y2="330.9"/>
<line x1="752.3" y1="335.3" x2="754.4" y2="334.1"/>
<line x1="753.9" y1="338.8" x2="756.7" y2="337.2"/>
<line x1="755.5" y1="342.3" x2="758.9" y2="340.3"/>
<line x1="757.1" y1="345.8" x2="761.2" y2="343.4"/>
<line x1="758.6" y1="349.3" x2="763.5" y2="346.5"/>
<line x1="266.0" y1="198.2" x2="265.6" y2="198.9"/>
<line x1="263.0" y1="195.6" x2="262.1" y2="196.9"/>
<line x1="260.0" y1="193.0" x2="258.6" y2="195.0"/>
<line x1="257.0" y1="190.4" x2="255.1" y2="193.0"/>
<line x1="254.0" y1="187.8" x2="251.7" y2="191.0"/>
<line x1="251.0" y1="185.2" x2="248.2" y2="189.1"/>
<line x1="247.9" y1="182.6" x2="244.7" y2="187.1"/>
<line x1="245.0" y1="183.9" x2="242.4" y2="213.2"/>
<line x1="515.2" y1="171.5" x2="529.4" y2="196.1"/>
<line x1="510.0" y1="174.5" x2="524.2" y2="199.1"/>
<line x1="512.6" y1="173.0" x2="484.3" y2="173.0"/>
<line x1="419.4" y1="207.7" x2="405.2" y2="232.3"/>
<line x1="414.2" y1="204.7" x2="400.0" y2="229.3"/>
<line x1="416.8" y1="206.2" x2="445.2" y2="206.2"/>
<line x1="223.4" y1="136.4" x2="222.7" y2="136.8"/>
<line x1="222.2" y1="132.8" x2="220.7" y2="133.5"/>
<line x1="220.9" y1="129.1" x2="218.8" y2="130.2"/>
<line x1="219.7" y1="125.5" x2="216.8" y2="126.8"/>
<line x1="218.4" y1="121.8" x2="214.8" y2="123.5"/>
<line x1="217.2" y1="118.2" x2="212.8" y2="120.2"/>
<line x1="215.9" y1="114.6" x2="210.8" y2="116.9"/>
<polygon points="800.637711 420.917471 807.300607 395.791343 799.344432 394.955116 " />
<line x1="803.3" y1="395.4" x2="826.3" y2="412.0"/>
<polygon points="740.700837 392.742981 766.656153 391.315371 764.992859 383.490190 " />
<line x1="765.8" y1="387.4" x2="757.1" y2="414.4"/>
<line x1="625.8" y1="152.4" x2="625.4" y2="151.7"/>
<line x1="629.3" y1="150.9" x2="628.5" y2="149.5"/>
<line x1="632.8" y1="149.3" x2="631.6" y2="147.2"/>
<line x1="636.3" y1="147.7" x2="634.7" y2="144.9"/>
<line x1="639.8" y1="146.1" x2="637.8" y2="142.7"/>
<line x1="643.4" y1="144.6" x2="641.0" y2="140.4"/>
<line x1="646.9" y1="143.0" x2="644.1" y2="138.1"/>
<line x1="646.8" y1="139.8" x2="627.6" y2="106.6"/>
<line x1="646.8" y1="139.8" x2="685.1" y2="139.8"/>
<line x1="646.8" y1="139.8" x2="646.8" y2="168.2"/>
<line x1="978.3" y1="430.6" x2="993.7" y2="454.4"/>
<line x1="627.6" y1="109.6" x2="599.3" y2="109.6"/>
<line x1="627.6" y1="103.6" x2="599.3" y2="103.6"/>
<line x1="627.6" y1="106.6" x2="641.8" y2="82.0"/>
<line x1="833.5" y1="340.2" x2="834.2" y2="340.6"/>
<line x1="831.3" y1="343.4" x2="832.8" y2="344.2"/>
<line x1="829.2" y1="346.7" x2="831.3" y2="347.8"/>
<line x1="827.1" y1="349.9" x2="829.9" y2="351.4"/>
<line x1="825.0" y1="353.1" x2="828.5" y2="354.9"/>
<line x1="822.8" y1="356.3" x2="827.1" y2="358.5"/>
<line x1="820.7" y1="359.5" x2="825.7" y2="362.1"/>
<line x1="822.5" y1="362.2" x2="866.6" y2="397.9"/>
<line x1="722.4" y1="459.6" x2="718.6" y2="441.6"/>
<line x1="688.7" y1="437.7" x2="706.7" y2="433.9"/>
<line x1="713.5" y1="403.5" x2="717.3" y2="421.5"/>
<line x1="707.6" y1="404.7" x2="711.5" y2="422.7"/>
<line x1="666.0" y1="344.4" x2="666.0" y2="326.0"/>
<line x1="637.6" y1="313.1" x2="656.0" y2="313.1"/>
<line x1="637.6" y1="319.1" x2="656.0" y2="319.1"/>
<line x1="637.6" y1="239.4" x2="656.0" y2="239.4"/>
<line x1="669.0" y1="211.0" x2="669.0" y2="229.4"/>
<line x1="663.0" y1="211.0" x2="663.0" y2="229.4"/>
<line x1="694.3" y1="316.1" x2="675.9" y2="316.1"/>
<line x1="694.3" y1="239.4" x2="675.9" y2="239.4"/>
<line x1="744.2" y1="425.9" x2="726.2" y2="429.8"/>
<line x1="666.0" y1="287.7" x2="666.0" y2="306.1"/>
<line x1="666.0" y1="267.8" x2="666.0" y2="249.4"/>
<line x1="327.4" y1="124.6" x2="311.2" y2="89.8"/>
<line x1="311.2" y1="89.8" x2="251.0" y2="117.7"/>
<line x1="251.0" y1="117.7" x2="267.1" y2="152.6"/>
<line x1="267.1" y1="152.6" x2="305.4" y2="155.9"/>
<line x1="305.4" y1="155.9" x2="327.4" y2="124.6"/>
<line x1="880.1" y1="448.7" x2="881.6" y2="420.4"/>
<line x1="891.7" y1="407.8" x2="919.1" y2="400.5"/>
<line x1="919.1" y1="400.5" x2="940.0" y2="432.7"/>
<line x1="940.0" y1="432.7" x2="922.1" y2="454.7"/>
<line x1="906.6" y1="458.9" x2="880.1" y2="448.7"/>
<line x1="907.1" y1="451.4" x2="888.3" y2="444.1"/>
<line x1="761.8" y1="349.3" x2="765.8" y2="387.4"/>
<line x1="765.8" y1="387.4" x2="803.3" y2="395.4"/>
<line x1="803.3" y1="395.4" x2="822.5" y2="362.2"/>
<line x1="822.5" y1="362.2" x2="803.5" y2="341.1"/>
<line x1="787.7" y1="337.7" x2="761.8" y2="349.3"/>
<line x1="158.3" y1="76.1" x2="136.3" y2="107.5"/>
<line x1="136.3" y1="107.5" x2="152.4" y2="142.3"/>
<line x1="152.4" y1="142.3" x2="190.7" y2="145.7"/>
<line x1="190.7" y1="145.7" x2="212.7" y2="114.3"/>
<line x1="212.7" y1="114.3" x2="196.6" y2="79.5"/>
<line x1="196.6" y1="79.5" x2="158.3" y2="76.1"/>
<line x1="206.8" y1="180.5" x2="245.0" y2="183.9"/>
<line x1="245.0" y1="183.9" x2="267.1" y2="152.6"/>
<line x1="251.0" y1="117.7" x2="212.7" y2="114.3"/>
<line x1="190.7" y1="145.7" x2="206.8" y2="180.5"/>
<line x1="92.2" y1="170.3" x2="130.4" y2="173.7"/>
<line x1="130.4" y1="173.7" x2="152.4" y2="142.3"/>
<line x1="136.3" y1="107.5" x2="98.1" y2="104.1"/>
<line x1="98.1" y1="104.1" x2="76.0" y2="135.5"/>
<line x1="76.0" y1="135.5" x2="92.2" y2="170.3"/>
<line x1="919.1" y1="400.5" x2="932.0" y2="375.2"/>
<line x1="928.2" y1="398.4" x2="937.4" y2="380.4"/>
<line x1="946.5" y1="365.8" x2="974.8" y2="364.3"/>
<line x1="974.8" y1="364.3" x2="990.2" y2="388.1"/>
<line x1="972.0" y1="373.3" x2="983.0" y2="390.2"/>
<line x1="991.1" y1="405.4" x2="978.3" y2="430.6"/>
<line x1="978.3" y1="430.6" x2="940.0" y2="432.7"/>
<line x1="971.9" y1="423.8" x2="945.6" y2="425.1"/>
<text x="334.124174" y="109.790918" fill="rgb(102,102,102)"  stroke="rgb(102,102,102)" stroke-width="1" font-size="16" >CH</text>
<text x="358.124174" y="117.470918" fill="rgb(102,102,102)"  stroke="rgb(102,102,102)" stroke-width="1" font-size="13" >3</text>
<text x="679.145847" y="109.790918" fill="rgb(102,102,102)"  stroke="rgb(102,102,102)" stroke-width="1" font-size="16" >CH</text>
<text x="703.145847" y="117.470918" fill="rgb(102,102,102)"  stroke="rgb(102,102,102)" stroke-width="1" font-size="13" >3</text>
<text x="712.345573" y="128.958789" fill="rgb(102,102,102)"  stroke="rgb(102,102,102)" stroke-width="1" font-size="16" >CH</text>
<text x="736.345573" y="136.638789" fill="rgb(102,102,102)"  stroke="rgb(102,102,102)" stroke-width="1" font-size="13" >3</text>
<text x="150.890411" y="186.530093" fill="rgb(102,102,102)"  stroke="rgb(102,102,102)" stroke-width="1" font-size="16" >CH</text>
<text x="174.890411" y="191.330093" fill="rgb(102,102,102)"  stroke="rgb(102,102,102)" stroke-width="1" font-size="13" >3</text>
<text x="294.510274" y="229.286696" fill="rgb(102,102,102)"  stroke="rgb(102,102,102)" stroke-width="1" font-size="16" >CH</text>
<text x="318.510274" y="234.086696" fill="rgb(102,102,102)"  stroke="rgb(102,102,102)" stroke-width="1" font-size="13" >3</text>
<text x="993.146292" y="467.598189" fill="rgb(12,12,255)"  stroke="rgb(12,12,255)" stroke-width="1" font-size="16" >NH</text>
<text x="1017.146292" y="472.398189" fill="rgb(12,12,255)"  stroke="rgb(12,12,255)" stroke-width="1" font-size="13" >2</text>
<text x="525.802881" y="214.526112" fill="rgb(12,12,255)"  stroke="rgb(12,12,255)" stroke-width="1" font-size="16" >N</text>
<text x="585.706493" y="114.926934" fill="rgb(12,12,255)"  stroke="rgb(12,12,255)" stroke-width="1" font-size="16" >N</text>
<text x="989.671213" y="404.809736" fill="rgb(12,12,255)"  stroke="rgb(12,12,255)" stroke-width="1" font-size="16" >N</text>
<text x="932.908868" y="374.665015" fill="rgb(12,12,255)"  stroke="rgb(12,12,255)" stroke-width="1" font-size="16" >N</text>
<text x="909.858484" y="467.245936" fill="rgb(12,12,255)"  stroke="rgb(12,12,255)" stroke-width="1" font-size="16" >N</text>
<text x="876.075323" y="415.224431" fill="rgb(12,12,255)"  stroke="rgb(12,12,255)" stroke-width="1" font-size="16" >N</text>
<text x="27.980277" y="120.934480" fill="rgb(255,12,12)"  stroke="rgb(255,12,12)" stroke-width="1" font-size="16" >HO</text>
<text x="226.520435" y="71.088998" fill="rgb(255,12,12)"  stroke="rgb(255,12,12)" stroke-width="1" font-size="16" >OH</text>
<text x="225.911985" y="228.230630" fill="rgb(255,12,12)"  stroke="rgb(255,12,12)" stroke-width="1" font-size="16" >HO</text>
<text x="469.499269" y="192.206386" fill="rgb(255,12,12)"  stroke="rgb(255,12,12)" stroke-width="1" font-size="32" >-</text>
<text x="470.699269" y="177.806386" fill="rgb(255,12,12)"  stroke="rgb(255,12,12)" stroke-width="1" font-size="16" >O</text>
<text x="394.027786" y="244.205838" fill="rgb(255,12,12)"  stroke="rgb(255,12,12)" stroke-width="1" font-size="16" >O</text>
<text x="828.336786" y="422.706413" fill="rgb(255,12,12)"  stroke="rgb(255,12,12)" stroke-width="1" font-size="16" >OH</text>
<text x="640.810106" y="182.942401" fill="rgb(255,12,12)"  stroke="rgb(255,12,12)" stroke-width="1" font-size="16" >OH</text>
<text x="642.010106" y="67.007208" fill="rgb(255,12,12)"  stroke="rgb(255,12,12)" stroke-width="1" font-size="32" >-</text>
<text x="640.810106" y="81.727208" fill="rgb(255,12,12)"  stroke="rgb(255,12,12)" stroke-width="1" font-size="16" >O</text>
<text x="719.650546" y="488.530700" fill="rgb(255,12,12)"  stroke="rgb(255,12,12)" stroke-width="1" font-size="32" >-</text>
<text x="718.450546" y="474.130700" fill="rgb(255,12,12)"  stroke="rgb(255,12,12)" stroke-width="1" font-size="16" >O</text>
<text x="674.182083" y="459.003135" fill="rgb(255,12,12)"  stroke="rgb(255,12,12)" stroke-width="1" font-size="32" >-</text>
<text x="675.382083" y="444.603135" fill="rgb(255,12,12)"  stroke="rgb(255,12,12)" stroke-width="1" font-size="16" >O</text>
<text x="704.909648" y="402.654673" fill="rgb(255,12,12)"  stroke="rgb(255,12,12)" stroke-width="1" font-size="16" >O</text>
<text x="659.977976" y="359.213062" fill="rgb(255,12,12)"  stroke="rgb(255,12,12)" stroke-width="1" font-size="16" >OH</text>
<text x="624.042235" y="320.877320" fill="rgb(255,12,12)"  stroke="rgb(255,12,12)" stroke-width="1" font-size="16" >O</text>
<text x="612.042235" y="244.205838" fill="rgb(255,12,12)"  stroke="rgb(255,12,12)" stroke-width="1" font-size="16" >HO</text>
<text x="659.977976" y="209.390096" fill="rgb(255,12,12)"  stroke="rgb(255,12,12)" stroke-width="1" font-size="16" >O</text>
<text x="698.313718" y="324.397320" fill="rgb(255,12,12)"  stroke="rgb(255,12,12)" stroke-width="1" font-size="16" >O</text>
<text x="698.313718" y="244.205838" fill="rgb(255,12,12)"  stroke="rgb(255,12,12)" stroke-width="1" font-size="16" >O</text>
<text x="790.838772" y="342.004496" fill="rgb(255,12,12)"  stroke="rgb(255,12,12)" stroke-width="1" font-size="16" >O</text>
<text x="747.978110" y="428.662237" fill="rgb(255,12,12)"  stroke="rgb(255,12,12)" stroke-width="1" font-size="16" >O</text>
<text x="659.977976" y="282.541579" fill="rgb(255,12,12)"  stroke="rgb(255,12,12)" stroke-width="1" font-size="16" >O</text>
<text x="710.480097" y="440.152686" fill="rgb(255,127,0)"  stroke="rgb(255,127,0)" stroke-width="1" font-size="16" >P</text>
<text x="659.977976" y="320.877320" fill="rgb(255,127,0)"  stroke="rgb(255,127,0)" stroke-width="1" font-size="16" >P</text>
<text x="659.977976" y="244.205838" fill="rgb(255,127,0)"  stroke="rgb(255,127,0)" stroke-width="1" font-size="16" >P</text>
<text x="449.131398" y="214.526112" fill="rgb(178,178,0)"  stroke="rgb(178,178,0)" stroke-width="1" font-size="16" >S</text>
<text x="367.323900" y="128.958789" fill="rgb(191,191,191)"  stroke="rgb(191,191,191)" stroke-width="1" font-size="16" >H</text>
<text x="105.448983" y="86.966143" fill="rgb(191,191,191)"  stroke="rgb(191,191,191)" stroke-width="1" font-size="16" >H</text>
<text x="36.400000" y="156.904773" fill="rgb(191,191,191)"  stroke="rgb(191,191,191)" stroke-width="1" font-size="16" >H</text>
<text x="316.087073" y="196.692206" fill="rgb(191,191,191)"  stroke="rgb(191,191,191)" stroke-width="1" font-size="16" >H</text>
<text x="207.874342" y="122.480828" fill="rgb(191,191,191)"  stroke="rgb(191,191,191)" stroke-width="1" font-size="16" >H</text>
<text x="170.894381" y="119.223621" fill="rgb(191,191,191)"  stroke="rgb(191,191,191)" stroke-width="1" font-size="16" >H</text>
<text x="194.057003" y="48.320000" fill="rgb(191,191,191)"  stroke="rgb(191,191,191)" stroke-width="1" font-size="16" >H</text>
<text x="739.049459" y="324.397320" fill="rgb(191,191,191)"  stroke="rgb(191,191,191)" stroke-width="1" font-size="16" >H</text>
<text x="271.479468" y="211.538063" fill="rgb(191,191,191)"  stroke="rgb(191,191,191)" stroke-width="1" font-size="16" >H</text>
<text x="222.889618" y="153.937348" fill="rgb(191,191,191)"  stroke="rgb(191,191,191)" stroke-width="1" font-size="16" >H</text>
<text x="795.715343" y="438.298964" fill="rgb(191,191,191)"  stroke="rgb(191,191,191)" stroke-width="1" font-size="16" >H</text>
<text x="724.726492" y="400.173229" fill="rgb(191,191,191)"  stroke="rgb(191,191,191)" stroke-width="1" font-size="16" >H</text>
<text x="610.010380" y="163.774531" fill="rgb(191,191,191)"  stroke="rgb(191,191,191)" stroke-width="1" font-size="16" >H</text>
<text x="834.206572" y="336.496945" fill="rgb(191,191,191)"  stroke="rgb(191,191,191)" stroke-width="1" font-size="16" >H</text>
<text font-size="18.000000" fill ="black" font-family="sans-serif"
x="140.000000" y="20.000000" ></text>
<title> - OBDepict</title>
</svg>
