<?xml version="1.0"?>
<svg xmlns="http://www.w3.org/2000/svg"
xmlns:xlink="http://www.w3.org/1999/xlink" xmlns:cml="http://www.xml-cml.org/schema" width="391.769" height="320" x="0" y="0" font-family="sans-serif" stroke="rgb(0,0,0)" stroke-width="1" >
<line x1="40.0" y1="269.6" x2="40.0" y2="250.4"/>
<line x1="308.1" y1="45.2" x2="291.5" y2="54.8"/>
<line x1="317.1" y1="120.0" x2="342.8" y2="105.2"/>
<line x1="109.3" y1="240.0" x2="109.3" y2="269.6"/>
<line x1="74.6" y1="220.0" x2="49.0" y2="234.8"/>
<line x1="282.5" y1="100.0" x2="282.5" y2="70.4"/>
<line x1="282.5" y1="180.0" x2="317.1" y2="160.0"/>
<line x1="284.1" y1="170.8" x2="308.3" y2="156.8"/>
<line x1="317.1" y1="160.0" x2="317.1" y2="120.0"/>
<line x1="317.1" y1="120.0" x2="282.5" y2="100.0"/>
<line x1="308.3" y1="123.2" x2="284.1" y2="109.2"/>
<line x1="282.5" y1="100.0" x2="247.8" y2="120.0"/>
<line x1="247.8" y1="120.0" x2="247.8" y2="160.0"/>
<line x1="247.8" y1="160.0" x2="282.5" y2="180.0"/>
<line x1="109.3" y1="160.0" x2="143.9" y2="180.0"/>
<line x1="143.9" y1="180.0" x2="178.6" y2="160.0"/>
<line x1="178.6" y1="160.0" x2="178.6" y2="130.4"/>
<line x1="171.4" y1="154.0" x2="171.4" y2="132.4"/>
<line x1="169.6" y1="114.8" x2="143.9" y2="100.0"/>
<line x1="143.9" y1="100.0" x2="109.3" y2="120.0"/>
<line x1="109.3" y1="120.0" x2="109.3" y2="160.0"/>
<line x1="74.6" y1="180.0" x2="74.6" y2="220.0"/>
<line x1="74.6" y1="220.0" x2="109.3" y2="240.0"/>
<line x1="83.4" y1="216.8" x2="107.7" y2="230.8"/>
<line x1="109.3" y1="240.0" x2="143.9" y2="220.0"/>
<line x1="143.9" y1="220.0" x2="143.9" y2="180.0"/>
<line x1="136.7" y1="214.0" x2="136.7" y2="186.0"/>
<line x1="109.3" y1="160.0" x2="74.6" y2="180.0"/>
<line x1="107.7" y1="169.2" x2="83.4" y2="183.2"/>
<line x1="213.2" y1="180.0" x2="247.8" y2="160.0"/>
<line x1="214.8" y1="170.8" x2="239.0" y2="156.8"/>
<line x1="247.8" y1="120.0" x2="213.2" y2="100.0"/>
<line x1="239.0" y1="123.2" x2="214.8" y2="109.2"/>
<line x1="213.2" y1="100.0" x2="187.6" y2="114.8"/>
<line x1="178.6" y1="160.0" x2="213.2" y2="180.0"/>
<text x="34.000000" y="284.800000" fill="rgb(102,102,102)"  stroke="rgb(102,102,102)" stroke-width="1" font-size="16" >CH</text>
<text x="58.000000" y="289.600000" fill="rgb(102,102,102)"  stroke="rgb(102,102,102)" stroke-width="1" font-size="13" >3</text>
<text x="311.128129" y="48.320000" fill="rgb(102,102,102)"  stroke="rgb(102,102,102)" stroke-width="1" font-size="16" >CH</text>
<text x="335.128129" y="56.000000" fill="rgb(102,102,102)"  stroke="rgb(102,102,102)" stroke-width="1" font-size="13" >3</text>
<text x="174.664065" y="114.800000" fill="rgb(12,12,255)"  stroke="rgb(12,12,255)" stroke-width="1" font-size="13" >+</text>
<text x="172.564065" y="128.320000" fill="rgb(12,12,255)"  stroke="rgb(12,12,255)" stroke-width="1" font-size="16" >N</text>
<text x="345.769145" y="108.320000" fill="rgb(255,12,12)"  stroke="rgb(255,12,12)" stroke-width="1" font-size="16" >OH</text>
<text x="103.282032" y="284.800000" fill="rgb(255,12,12)"  stroke="rgb(255,12,12)" stroke-width="1" font-size="16" >OH</text>
<text x="36.400000" y="248.320000" fill="rgb(255,12,12)"  stroke="rgb(255,12,12)" stroke-width="1" font-size="16" >O</text>
<text x="278.887113" y="68.320000" fill="rgb(255,12,12)"  stroke="rgb(255,12,12)" stroke-width="1" font-size="16" >O</text>
<text font-size="18.000000" fill ="black" font-family="sans-serif"
x="140.000000" y="20.000000" ></text>
<title> - OBDepict</title>
</svg>
