<?xml version="1.0"?>
<svg xmlns="http://www.w3.org/2000/svg"
xmlns:xlink="http://www.w3.org/1999/xlink" xmlns:cml="http://www.xml-cml.org/schema" width="375.414" height="311.883" x="0" y="0" font-family="sans-serif" stroke="rgb(0,0,0)" stroke-width="1" >
<line x1="277.9" y1="266.9" x2="302.3" y2="252.8"/>
<line x1="259.4" y1="84.9" x2="249.5" y2="121.8"/>
<line x1="259.4" y1="84.9" x2="286.7" y2="77.6"/>
<line x1="299.3" y1="252.8" x2="299.3" y2="224.5"/>
<line x1="305.3" y1="252.8" x2="305.3" y2="224.5"/>
<line x1="302.3" y1="252.8" x2="326.8" y2="266.9"/>
<polygon points="231.427761 103.668907 246.688411 124.586411 252.345265 118.929557 " />
<line x1="250.1" y1="210.7" x2="249.7" y2="210.1"/>
<line x1="253.4" y1="208.7" x2="252.4" y2="207.4"/>
<line x1="256.7" y1="206.7" x2="255.2" y2="204.8"/>
<line x1="260.0" y1="204.7" x2="258.0" y2="202.2"/>
<line x1="263.2" y1="202.7" x2="260.8" y2="199.5"/>
<line x1="266.5" y1="200.7" x2="263.6" y2="196.9"/>
<line x1="269.8" y1="198.7" x2="266.4" y2="194.2"/>
<line x1="269.3" y1="195.5" x2="293.8" y2="209.6"/>
<line x1="292.3" y1="107.9" x2="293.1" y2="108.1"/>
<line x1="291.0" y1="111.5" x2="292.5" y2="111.9"/>
<line x1="289.6" y1="115.1" x2="291.9" y2="115.7"/>
<line x1="288.2" y1="118.7" x2="291.3" y2="119.5"/>
<line x1="286.8" y1="122.3" x2="290.7" y2="123.3"/>
<line x1="285.5" y1="125.9" x2="290.1" y2="127.1"/>
<line x1="284.1" y1="129.4" x2="289.5" y2="130.9"/>
<line x1="286.4" y1="131.6" x2="313.7" y2="124.3"/>
<polygon points="320.989962 161.899908 295.244547 164.657267 297.315100 172.384673 " />
<line x1="296.3" y1="168.5" x2="316.3" y2="188.5"/>
<polygon points="89.093738 214.378304 113.248243 205.051496 109.248243 198.123293 " />
<line x1="111.2" y1="201.6" x2="111.2" y2="229.8"/>
<line x1="149.8" y1="226.0" x2="149.0" y2="226.0"/>
<line x1="150.2" y1="222.2" x2="148.6" y2="222.2"/>
<line x1="150.6" y1="218.4" x2="148.2" y2="218.4"/>
<line x1="151.0" y1="214.6" x2="147.8" y2="214.6"/>
<line x1="151.4" y1="210.8" x2="147.4" y2="210.8"/>
<line x1="151.8" y1="206.9" x2="147.0" y2="206.9"/>
<line x1="152.2" y1="203.1" x2="146.6" y2="203.1"/>
<line x1="149.4" y1="201.6" x2="173.9" y2="215.7"/>
<line x1="70.8" y1="156.6" x2="71.2" y2="156.0"/>
<line x1="73.9" y1="158.9" x2="74.7" y2="157.5"/>
<line x1="77.0" y1="161.2" x2="78.2" y2="159.1"/>
<line x1="80.1" y1="163.4" x2="81.7" y2="160.6"/>
<line x1="83.2" y1="165.7" x2="85.2" y2="162.2"/>
<line x1="86.3" y1="167.9" x2="88.7" y2="163.8"/>
<line x1="89.4" y1="170.2" x2="92.2" y2="165.3"/>
<line x1="92.2" y1="168.5" x2="67.7" y2="182.6"/>
<polygon points="171.584565 122.663636 147.430061 131.990444 151.430061 138.918647 " />
<line x1="149.4" y1="135.5" x2="149.4" y2="107.2"/>
<polygon points="188.100446 121.251934 164.825452 166.990236 172.216488 170.051704 " />
<line x1="168.5" y1="168.5" x2="188.5" y2="188.5"/>
<polygon points="111.248243 109.872727 107.248243 135.454545 115.248243 135.454545 " />
<line x1="111.2" y1="135.5" x2="86.8" y2="121.3"/>
<line x1="220.1" y1="232.9" x2="219.4" y2="232.7"/>
<line x1="222.5" y1="225.7" x2="221.0" y2="225.3"/>
<line x1="224.9" y1="218.4" x2="222.5" y2="217.8"/>
<line x1="227.2" y1="211.1" x2="224.1" y2="210.3"/>
<line x1="229.6" y1="203.9" x2="225.7" y2="202.8"/>
<line x1="232.0" y1="196.6" x2="227.3" y2="195.3"/>
<line x1="234.3" y1="189.3" x2="228.9" y2="187.9"/>
<line x1="232.4" y1="185.6" x2="205.1" y2="193.0"/>
<line x1="49.9" y1="78.2" x2="68.3" y2="78.2"/>
<line x1="78.2" y1="49.9" x2="78.2" y2="68.3"/>
<line x1="106.4" y1="81.2" x2="88.1" y2="81.2"/>
<line x1="106.4" y1="75.2" x2="88.1" y2="75.2"/>
<line x1="78.2" y1="106.4" x2="78.2" y2="88.1"/>
<line x1="269.3" y1="195.5" x2="296.3" y2="168.5"/>
<line x1="296.3" y1="168.5" x2="286.4" y2="131.6"/>
<line x1="286.4" y1="131.6" x2="249.5" y2="121.8"/>
<line x1="249.5" y1="121.8" x2="229.5" y2="141.7"/>
<line x1="225.1" y1="158.3" x2="232.4" y2="185.6"/>
<line x1="232.4" y1="185.6" x2="269.3" y2="195.5"/>
<line x1="111.2" y1="201.6" x2="92.2" y2="168.5"/>
<line x1="92.2" y1="168.5" x2="111.2" y2="135.5"/>
<line x1="111.2" y1="135.5" x2="149.4" y2="135.5"/>
<line x1="149.4" y1="135.5" x2="168.5" y2="168.5"/>
<line x1="168.5" y1="168.5" x2="149.4" y2="201.6"/>
<line x1="149.4" y1="201.6" x2="111.2" y2="201.6"/>
<text x="245.681201" y="276.683229" fill="rgb(102,102,102)"  stroke="rgb(102,102,102)" stroke-width="1" font-size="16" >H</text>
<text x="257.681201" y="281.483229" fill="rgb(102,102,102)"  stroke="rgb(102,102,102)" stroke-width="1" font-size="13" >3</text>
<text x="264.181201" y="276.683229" fill="rgb(102,102,102)"  stroke="rgb(102,102,102)" stroke-width="1" font-size="16" >C</text>
<text x="296.347626" y="222.930502" fill="rgb(12,12,255)"  stroke="rgb(12,12,255)" stroke-width="1" font-size="16" >N</text>
<text x="290.279824" y="83.314998" fill="rgb(255,12,12)"  stroke="rgb(255,12,12)" stroke-width="1" font-size="16" >OH</text>
<text x="330.614050" y="291.083229" fill="rgb(255,12,12)"  stroke="rgb(255,12,12)" stroke-width="1" font-size="32" >-</text>
<text x="329.414050" y="276.683229" fill="rgb(255,12,12)"  stroke="rgb(255,12,12)" stroke-width="1" font-size="16" >O</text>
<text x="317.278446" y="130.077984" fill="rgb(255,12,12)"  stroke="rgb(255,12,12)" stroke-width="1" font-size="16" >OH</text>
<text x="317.278446" y="200.319593" fill="rgb(255,12,12)"  stroke="rgb(255,12,12)" stroke-width="1" font-size="16" >OH</text>
<text x="105.248243" y="244.569213" fill="rgb(255,12,12)"  stroke="rgb(255,12,12)" stroke-width="1" font-size="16" >OH</text>
<text x="176.496485" y="225.478304" fill="rgb(255,12,12)"  stroke="rgb(255,12,12)" stroke-width="1" font-size="16" >OH</text>
<text x="43.490909" y="192.411879" fill="rgb(255,12,12)"  stroke="rgb(255,12,12)" stroke-width="1" font-size="16" >HO</text>
<text x="143.430061" y="105.592727" fill="rgb(255,12,12)"  stroke="rgb(255,12,12)" stroke-width="1" font-size="16" >OH</text>
<text x="35.200000" y="97.381818" fill="rgb(255,12,12)"  stroke="rgb(255,12,12)" stroke-width="1" font-size="32" >-</text>
<text x="36.400000" y="82.981818" fill="rgb(255,12,12)"  stroke="rgb(255,12,12)" stroke-width="1" font-size="16" >O</text>
<text x="72.181818" y="48.320000" fill="rgb(255,12,12)"  stroke="rgb(255,12,12)" stroke-width="1" font-size="16" >OH</text>
<text x="110.363636" y="82.981818" fill="rgb(255,12,12)"  stroke="rgb(255,12,12)" stroke-width="1" font-size="16" >O</text>
<text x="218.918215" y="157.076607" fill="rgb(255,12,12)"  stroke="rgb(255,12,12)" stroke-width="1" font-size="16" >O</text>
<text x="191.919593" y="200.319593" fill="rgb(255,12,12)"  stroke="rgb(255,12,12)" stroke-width="1" font-size="16" >O</text>
<text x="74.581818" y="121.163636" fill="rgb(255,12,12)"  stroke="rgb(255,12,12)" stroke-width="1" font-size="16" >O</text>
<text x="72.181818" y="86.501818" fill="rgb(255,127,0)"  stroke="rgb(255,127,0)" stroke-width="1" font-size="16" >P</text>
<text x="218.918215" y="103.079361" fill="rgb(191,191,191)"  stroke="rgb(191,191,191)" stroke-width="1" font-size="16" >H</text>
<text x="235.389528" y="223.563211" fill="rgb(191,191,191)"  stroke="rgb(191,191,191)" stroke-width="1" font-size="16" >H</text>
<text x="290.279824" y="103.079361" fill="rgb(191,191,191)"  stroke="rgb(191,191,191)" stroke-width="1" font-size="16" >H</text>
<text x="327.160628" y="166.958788" fill="rgb(191,191,191)"  stroke="rgb(191,191,191)" stroke-width="1" font-size="16" >H</text>
<text x="74.581818" y="225.478304" fill="rgb(191,191,191)"  stroke="rgb(191,191,191)" stroke-width="1" font-size="16" >H</text>
<text x="143.430061" y="244.569213" fill="rgb(191,191,191)"  stroke="rgb(191,191,191)" stroke-width="1" font-size="16" >H</text>
<text x="55.490909" y="157.750061" fill="rgb(191,191,191)"  stroke="rgb(191,191,191)" stroke-width="1" font-size="16" >H</text>
<text x="176.496485" y="124.683636" fill="rgb(191,191,191)"  stroke="rgb(191,191,191)" stroke-width="1" font-size="16" >H</text>
<text x="191.744068" y="106.290169" fill="rgb(191,191,191)"  stroke="rgb(191,191,191)" stroke-width="1" font-size="16" >H</text>
<text x="105.248243" y="105.592727" fill="rgb(191,191,191)"  stroke="rgb(191,191,191)" stroke-width="1" font-size="16" >H</text>
<text x="209.036033" y="264.199019" fill="rgb(191,191,191)"  stroke="rgb(191,191,191)" stroke-width="1" font-size="16" >H</text>
<text font-size="18.000000" fill ="black" font-family="sans-serif"
x="140.000000" y="20.000000" ></text>
<title> - OBDepict</title>
</svg>
