<?xml version="1.0"?>
<svg xmlns="http://www.w3.org/2000/svg"
xmlns:xlink="http://www.w3.org/1999/xlink" xmlns:cml="http://www.xml-cml.org/schema" width="1103.71" height="1176" x="0" y="0" font-family="sans-serif" stroke="rgb(0,0,0)" stroke-width="1" >
<line x1="65.1" y1="45.1" x2="40.0" y2="59.6"/>
<line x1="709.2" y1="1121.5" x2="684.1" y2="1136.0"/>
<line x1="1058.6" y1="650.1" x2="1044.1" y2="675.2"/>
<line x1="794.3" y1="528.5" x2="773.8" y2="549.0"/>
<line x1="40.0" y1="59.6" x2="40.0" y2="98.7"/>
<line x1="684.1" y1="1136.0" x2="650.2" y2="1116.4"/>
<line x1="40.0" y1="98.7" x2="73.9" y2="118.3"/>
<line x1="650.2" y1="1116.4" x2="650.2" y2="1077.3"/>
<line x1="73.9" y1="118.3" x2="73.9" y2="157.4"/>
<line x1="650.2" y1="1077.3" x2="616.3" y2="1057.7"/>
<line x1="73.9" y1="157.4" x2="107.8" y2="177.0"/>
<line x1="616.3" y1="1057.7" x2="616.3" y2="1018.6"/>
<line x1="107.8" y1="177.0" x2="107.8" y2="216.1"/>
<line x1="616.3" y1="1018.6" x2="582.4" y2="999.0"/>
<line x1="107.8" y1="216.1" x2="141.7" y2="235.7"/>
<line x1="582.4" y1="999.0" x2="582.4" y2="959.9"/>
<line x1="141.7" y1="235.7" x2="141.7" y2="274.9"/>
<line x1="582.4" y1="959.9" x2="548.5" y2="940.3"/>
<line x1="141.7" y1="274.9" x2="175.6" y2="294.4"/>
<line x1="175.6" y1="294.4" x2="175.6" y2="333.6"/>
<line x1="175.6" y1="333.6" x2="209.5" y2="353.1"/>
<line x1="209.5" y1="353.1" x2="209.5" y2="392.3"/>
<line x1="209.5" y1="392.3" x2="243.4" y2="411.9"/>
<line x1="243.4" y1="411.9" x2="243.4" y2="451.0"/>
<line x1="243.4" y1="451.0" x2="277.3" y2="470.6"/>
<line x1="277.3" y1="470.6" x2="277.3" y2="509.7"/>
<line x1="277.3" y1="509.7" x2="311.2" y2="529.3"/>
<line x1="311.2" y1="529.3" x2="311.2" y2="568.4"/>
<line x1="548.5" y1="940.3" x2="548.5" y2="901.1"/>
<line x1="311.2" y1="568.4" x2="345.1" y2="588.0"/>
<line x1="548.5" y1="901.1" x2="514.6" y2="881.6"/>
<line x1="345.1" y1="588.0" x2="345.1" y2="627.1"/>
<line x1="514.6" y1="881.6" x2="514.6" y2="842.4"/>
<line x1="345.1" y1="627.1" x2="379.0" y2="646.7"/>
<line x1="514.6" y1="842.4" x2="480.7" y2="822.9"/>
<line x1="379.0" y1="646.7" x2="379.0" y2="685.9"/>
<line x1="480.7" y1="822.9" x2="446.8" y2="842.4"/>
<line x1="379.0" y1="685.9" x2="412.9" y2="705.4"/>
<line x1="446.8" y1="842.4" x2="446.8" y2="871.4"/>
<line x1="445.3" y1="845.0" x2="411.4" y2="825.5"/>
<line x1="448.3" y1="839.8" x2="414.4" y2="820.3"/>
<line x1="412.9" y1="705.4" x2="446.8" y2="685.9"/>
<line x1="412.9" y1="822.9" x2="387.8" y2="837.3"/>
<line x1="412.9" y1="822.9" x2="412.9" y2="783.7"/>
<line x1="446.8" y1="685.9" x2="480.7" y2="705.4"/>
<line x1="990.7" y1="621.7" x2="951.5" y2="621.7"/>
<line x1="990.7" y1="621.7" x2="1005.2" y2="596.6"/>
<line x1="702.1" y1="884.4" x2="682.5" y2="850.5"/>
<line x1="702.1" y1="884.4" x2="687.6" y2="909.5"/>
<line x1="869.7" y1="680.0" x2="831.9" y2="690.1"/>
<line x1="869.7" y1="680.0" x2="890.2" y2="700.5"/>
<line x1="600.7" y1="688.5" x2="573.0" y2="716.2"/>
<line x1="600.7" y1="688.5" x2="593.2" y2="660.5"/>
<line x1="466.4" y1="798.0" x2="446.8" y2="764.1"/>
<line x1="466.4" y1="798.0" x2="495.3" y2="798.0"/>
<line x1="1044.1" y1="678.2" x2="1015.2" y2="678.2"/>
<line x1="1044.1" y1="672.2" x2="1015.2" y2="672.2"/>
<line x1="1044.1" y1="675.2" x2="1058.6" y2="700.2"/>
<line x1="776.7" y1="548.2" x2="784.2" y2="576.2"/>
<line x1="770.9" y1="549.8" x2="778.4" y2="577.8"/>
<line x1="773.8" y1="549.0" x2="745.8" y2="541.5"/>
<line x1="433.9" y1="742.6" x2="434.6" y2="742.2"/>
<line x1="435.5" y1="746.2" x2="436.9" y2="745.4"/>
<line x1="437.1" y1="749.8" x2="439.2" y2="748.6"/>
<line x1="438.7" y1="753.4" x2="441.5" y2="751.8"/>
<line x1="440.4" y1="757.0" x2="443.8" y2="755.0"/>
<line x1="442.0" y1="760.6" x2="446.1" y2="758.2"/>
<line x1="443.6" y1="764.2" x2="448.4" y2="761.4"/>
<line x1="446.8" y1="764.1" x2="412.9" y2="783.7"/>
<line x1="446.8" y1="764.1" x2="471.9" y2="749.7"/>
<line x1="387.8" y1="784.1" x2="387.8" y2="783.3"/>
<line x1="391.7" y1="784.5" x2="391.7" y2="782.9"/>
<line x1="395.7" y1="784.9" x2="395.7" y2="782.5"/>
<line x1="399.6" y1="785.3" x2="399.6" y2="782.1"/>
<line x1="403.5" y1="785.7" x2="403.5" y2="781.7"/>
<line x1="407.4" y1="786.1" x2="407.4" y2="781.3"/>
<line x1="411.3" y1="786.5" x2="411.3" y2="780.9"/>
<line x1="412.9" y1="783.7" x2="398.4" y2="758.6"/>
<line x1="998.3" y1="769.7" x2="997.6" y2="770.1"/>
<line x1="996.7" y1="766.1" x2="995.3" y2="766.9"/>
<line x1="995.1" y1="762.5" x2="993.0" y2="763.7"/>
<line x1="993.5" y1="758.9" x2="990.7" y2="760.5"/>
<line x1="991.9" y1="755.3" x2="988.4" y2="757.3"/>
<line x1="990.2" y1="751.7" x2="986.1" y2="754.1"/>
<line x1="988.6" y1="748.2" x2="983.8" y2="751.0"/>
<line x1="985.4" y1="748.2" x2="1014.4" y2="748.2"/>
<polygon points="693.117913 617.849920 717.414732 628.501338 719.485284 620.773931 " />
<line x1="718.5" y1="624.6" x2="711.0" y2="596.7"/>
<polygon points="951.525117 595.458424 947.525117 621.684138 955.525117 621.684138 " />
<line x1="951.5" y1="621.7" x2="932.0" y2="655.6"/>
<line x1="951.5" y1="621.7" x2="926.4" y2="607.2"/>
<line x1="670.3" y1="872.4" x2="669.7" y2="872.0"/>
<line x1="672.7" y1="869.2" x2="671.3" y2="868.4"/>
<line x1="675.0" y1="866.1" x2="672.9" y2="864.9"/>
<line x1="677.3" y1="862.9" x2="674.5" y2="861.3"/>
<line x1="679.6" y1="859.7" x2="676.1" y2="857.7"/>
<line x1="681.9" y1="856.5" x2="677.7" y2="854.1"/>
<line x1="684.2" y1="853.3" x2="679.3" y2="850.5"/>
<line x1="807.8" y1="697.0" x2="807.6" y2="696.2"/>
<line x1="811.7" y1="696.4" x2="811.3" y2="694.8"/>
<line x1="815.6" y1="695.7" x2="814.9" y2="693.4"/>
<line x1="819.4" y1="695.1" x2="818.6" y2="692.0"/>
<line x1="823.3" y1="694.5" x2="822.3" y2="690.6"/>
<line x1="827.2" y1="693.9" x2="826.0" y2="689.2"/>
<line x1="831.1" y1="693.2" x2="829.6" y2="687.8"/>
<line x1="831.9" y1="690.1" x2="821.7" y2="652.3"/>
<line x1="831.9" y1="690.1" x2="839.4" y2="718.1"/>
<polygon points="566.222517 690.870749 569.146528 717.238120 576.873935 715.167567 " />
<line x1="483.7" y1="705.4" x2="483.7" y2="734.4"/>
<line x1="477.7" y1="705.4" x2="477.7" y2="734.4"/>
<line x1="480.7" y1="705.4" x2="505.8" y2="690.9"/>
<polygon points="1011.649540 709.052984 985.423825 705.052984 985.423825 713.052984 " />
<line x1="985.4" y1="709.1" x2="999.9" y2="684.0"/>
<line x1="749.4" y1="590.4" x2="750.2" y2="590.2"/>
<line x1="750.0" y1="594.3" x2="751.6" y2="593.9"/>
<line x1="750.6" y1="598.2" x2="753.0" y2="597.6"/>
<line x1="751.3" y1="602.1" x2="754.4" y2="601.2"/>
<line x1="751.9" y1="606.0" x2="755.8" y2="604.9"/>
<line x1="752.5" y1="609.8" x2="757.2" y2="608.6"/>
<line x1="753.1" y1="613.7" x2="758.6" y2="612.3"/>
<line x1="756.3" y1="614.5" x2="776.7" y2="594.0"/>
<polygon points="909.241553 642.469990 929.953688 659.046949 933.953688 652.118745 " />
<line x1="932.0" y1="655.6" x2="951.5" y2="689.5"/>
<line x1="932.0" y1="655.6" x2="906.9" y2="670.1"/>
<line x1="729.3" y1="852.5" x2="728.6" y2="852.9"/>
<line x1="727.7" y1="848.9" x2="726.3" y2="849.7"/>
<line x1="726.1" y1="845.3" x2="724.0" y2="846.5"/>
<line x1="724.5" y1="841.7" x2="721.7" y2="843.3"/>
<line x1="722.9" y1="838.1" x2="719.4" y2="840.1"/>
<line x1="721.2" y1="834.5" x2="717.1" y2="836.9"/>
<line x1="719.6" y1="830.9" x2="714.8" y2="833.7"/>
<line x1="716.4" y1="831.0" x2="745.4" y2="831.0"/>
<polygon points="847.078476 645.528100 820.711105 648.452111 822.781657 656.179518 " />
<line x1="821.7" y1="652.3" x2="783.9" y2="642.2"/>
<line x1="821.7" y1="652.3" x2="829.2" y2="624.3"/>
<polygon points="615.889589 788.477834 591.592771 777.826417 589.522218 785.553823 " />
<line x1="590.6" y1="781.7" x2="605.6" y2="837.6"/>
<line x1="552.7" y1="791.8" x2="560.2" y2="819.8"/>
<line x1="552.7" y1="791.8" x2="532.3" y2="812.3"/>
<polygon points="695.639991 749.537473 679.063032 770.249608 685.991235 774.249608 " />
<line x1="682.5" y1="772.2" x2="668.0" y2="747.2"/>
<line x1="618.1" y1="725.9" x2="618.7" y2="726.4"/>
<line x1="615.1" y1="728.4" x2="616.2" y2="729.5"/>
<line x1="612.0" y1="730.9" x2="613.7" y2="732.6"/>
<line x1="609.0" y1="733.3" x2="611.2" y2="735.6"/>
<line x1="605.9" y1="735.8" x2="608.7" y2="738.7"/>
<line x1="602.9" y1="738.3" x2="606.3" y2="741.7"/>
<line x1="599.8" y1="740.8" x2="603.8" y2="744.8"/>
<line x1="600.7" y1="743.9" x2="628.7" y2="751.4"/>
<line x1="951.5" y1="689.5" x2="966.0" y2="664.4"/>
<line x1="783.9" y1="642.2" x2="804.4" y2="621.7"/>
<line x1="741.5" y1="791.4" x2="741.5" y2="792.2"/>
<line x1="737.6" y1="791.0" x2="737.6" y2="792.6"/>
<line x1="733.6" y1="790.6" x2="733.6" y2="793.0"/>
<line x1="729.7" y1="790.2" x2="729.7" y2="793.4"/>
<line x1="725.8" y1="789.8" x2="725.8" y2="793.8"/>
<line x1="721.9" y1="789.4" x2="721.9" y2="794.2"/>
<line x1="718.0" y1="789.0" x2="718.0" y2="794.6"/>
<line x1="716.4" y1="791.8" x2="745.4" y2="741.7"/>
<polygon points="509.105015 743.336599 521.896805 766.577903 528.243632 761.707811 " />
<line x1="525.1" y1="764.1" x2="510.6" y2="789.2"/>
<line x1="629.0" y1="807.4" x2="628.5" y2="806.8"/>
<line x1="632.3" y1="805.3" x2="631.4" y2="804.1"/>
<line x1="635.7" y1="803.3" x2="634.2" y2="801.4"/>
<line x1="639.0" y1="801.2" x2="637.1" y2="798.7"/>
<line x1="642.4" y1="799.1" x2="640.0" y2="796.0"/>
<line x1="645.7" y1="797.1" x2="642.8" y2="793.3"/>
<line x1="649.1" y1="795.0" x2="645.7" y2="790.6"/>
<line x1="648.6" y1="791.8" x2="641.1" y2="763.8"/>
<line x1="917.7" y1="752.1" x2="918.5" y2="752.0"/>
<line x1="917.9" y1="756.1" x2="919.4" y2="755.9"/>
<line x1="918.0" y1="760.0" x2="920.3" y2="759.7"/>
<line x1="918.1" y1="763.9" x2="921.3" y2="763.5"/>
<line x1="918.2" y1="767.9" x2="922.2" y2="767.3"/>
<line x1="918.3" y1="771.8" x2="923.1" y2="771.2"/>
<line x1="918.4" y1="775.7" x2="924.0" y2="775.0"/>
<line x1="923.9" y1="784.2" x2="950.6" y2="795.3"/>
<line x1="921.6" y1="789.8" x2="948.3" y2="800.9"/>
<line x1="922.7" y1="787.0" x2="899.8" y2="804.6"/>
<polygon points="735.997271 690.124911 696.667182 691.268300 697.711391 699.199858 " />
<line x1="694.8" y1="697.1" x2="677.2" y2="674.1"/>
<line x1="699.6" y1="693.4" x2="681.9" y2="670.4"/>
<line x1="697.2" y1="695.2" x2="686.1" y2="722.0"/>
<line x1="917.6" y1="748.2" x2="861.7" y2="733.2"/>
<line x1="736.0" y1="690.1" x2="750.5" y2="715.2"/>
<line x1="682.5" y1="772.2" x2="648.6" y2="791.8"/>
<line x1="648.6" y1="791.8" x2="648.6" y2="820.8"/>
<line x1="657.4" y1="836.1" x2="682.5" y2="850.5"/>
<line x1="682.5" y1="850.5" x2="716.4" y2="831.0"/>
<line x1="716.4" y1="831.0" x2="716.4" y2="791.8"/>
<line x1="716.4" y1="791.8" x2="682.5" y2="772.2"/>
<line x1="590.6" y1="781.7" x2="552.7" y2="791.8"/>
<line x1="552.7" y1="791.8" x2="525.1" y2="764.1"/>
<line x1="525.1" y1="764.1" x2="532.6" y2="736.2"/>
<line x1="545.0" y1="723.7" x2="573.0" y2="716.2"/>
<line x1="573.0" y1="716.2" x2="600.7" y2="743.9"/>
<line x1="600.7" y1="743.9" x2="590.6" y2="781.7"/>
<line x1="951.5" y1="767.8" x2="985.4" y2="748.2"/>
<line x1="985.4" y1="748.2" x2="985.4" y2="709.1"/>
<line x1="985.4" y1="709.1" x2="951.5" y2="689.5"/>
<line x1="951.5" y1="689.5" x2="926.4" y2="704.0"/>
<line x1="917.6" y1="719.2" x2="917.6" y2="748.2"/>
<line x1="917.6" y1="748.2" x2="951.5" y2="767.8"/>
<line x1="708.3" y1="662.4" x2="718.5" y2="624.6"/>
<line x1="718.5" y1="624.6" x2="756.3" y2="614.5"/>
<line x1="756.3" y1="614.5" x2="783.9" y2="642.2"/>
<line x1="783.9" y1="642.2" x2="776.4" y2="670.2"/>
<line x1="764.0" y1="682.6" x2="736.0" y2="690.1"/>
<line x1="736.0" y1="690.1" x2="708.3" y2="662.4"/>
<text x="67.898709" y="48.320000" fill="rgb(102,102,102)"  stroke="rgb(102,102,102)" stroke-width="1" font-size="16" >CH</text>
<text x="91.898709" y="56.000000" fill="rgb(102,102,102)"  stroke="rgb(102,102,102)" stroke-width="1" font-size="13" >3</text>
<text x="711.974173" y="1124.748571" fill="rgb(102,102,102)"  stroke="rgb(102,102,102)" stroke-width="1" font-size="16" >CH</text>
<text x="735.974173" y="1132.428571" fill="rgb(102,102,102)"  stroke="rgb(102,102,102)" stroke-width="1" font-size="13" >3</text>
<text x="1057.709540" y="649.575567" fill="rgb(102,102,102)"  stroke="rgb(102,102,102)" stroke-width="1" font-size="16" >CH</text>
<text x="1081.709540" y="657.255567" fill="rgb(102,102,102)"  stroke="rgb(102,102,102)" stroke-width="1" font-size="13" >3</text>
<text x="795.484547" y="529.661262" fill="rgb(102,102,102)"  stroke="rgb(102,102,102)" stroke-width="1" font-size="16" >CH</text>
<text x="819.484547" y="537.341262" fill="rgb(102,102,102)"  stroke="rgb(102,102,102)" stroke-width="1" font-size="13" >3</text>
<text x="1001.395254" y="683.474276" fill="rgb(12,12,255)"  stroke="rgb(12,12,255)" stroke-width="1" font-size="16" >N</text>
<text x="777.937284" y="591.628538" fill="rgb(12,12,255)"  stroke="rgb(12,12,255)" stroke-width="1" font-size="16" >N</text>
<text x="474.683213" y="749.371429" fill="rgb(12,12,255)"  stroke="rgb(12,12,255)" stroke-width="1" font-size="16" >N</text>
<text x="1004.239403" y="596.105430" fill="rgb(255,12,12)"  stroke="rgb(255,12,12)" stroke-width="1" font-size="16" >OH</text>
<text x="666.927134" y="923.132740" fill="rgb(255,12,12)"  stroke="rgb(255,12,12)" stroke-width="1" font-size="16" >HO</text>
<text x="891.364574" y="712.472174" fill="rgb(255,12,12)"  stroke="rgb(255,12,12)" stroke-width="1" font-size="16" >OH</text>
<text x="574.957495" y="659.035567" fill="rgb(255,12,12)"  stroke="rgb(255,12,12)" stroke-width="1" font-size="16" >HO</text>
<text x="1057.709540" y="713.852984" fill="rgb(255,12,12)"  stroke="rgb(255,12,12)" stroke-width="1" font-size="16" >OH</text>
<text x="720.397271" y="547.208524" fill="rgb(255,12,12)"  stroke="rgb(255,12,12)" stroke-width="1" font-size="16" >HO</text>
<text x="377.714367" y="758.135577" fill="rgb(255,12,12)"  stroke="rgb(255,12,12)" stroke-width="1" font-size="16" >HO</text>
<text x="1018.566683" y="756.515841" fill="rgb(255,12,12)"  stroke="rgb(255,12,12)" stroke-width="1" font-size="16" >OH</text>
<text x="692.719091" y="595.148538" fill="rgb(255,12,12)"  stroke="rgb(255,12,12)" stroke-width="1" font-size="16" >HO</text>
<text x="902.026408" y="610.432710" fill="rgb(255,12,12)"  stroke="rgb(255,12,12)" stroke-width="1" font-size="16" >HO</text>
<text x="508.581921" y="694.177143" fill="rgb(255,12,12)"  stroke="rgb(255,12,12)" stroke-width="1" font-size="16" >OH</text>
<text x="882.454980" y="679.954276" fill="rgb(255,12,12)"  stroke="rgb(255,12,12)" stroke-width="1" font-size="16" >HO</text>
<text x="749.568699" y="835.763894" fill="rgb(255,12,12)"  stroke="rgb(255,12,12)" stroke-width="1" font-size="16" >OH</text>
<text x="825.877298" y="622.826718" fill="rgb(255,12,12)"  stroke="rgb(255,12,12)" stroke-width="1" font-size="16" >OH</text>
<text x="604.819328" y="862.108313" fill="rgb(255,12,12)"  stroke="rgb(255,12,12)" stroke-width="1" font-size="16" >OH</text>
<text x="509.470218" y="824.299217" fill="rgb(255,12,12)"  stroke="rgb(255,12,12)" stroke-width="1" font-size="16" >HO</text>
<text x="647.355705" y="746.670900" fill="rgb(255,12,12)"  stroke="rgb(255,12,12)" stroke-width="1" font-size="16" >HO</text>
<text x="952.898861" y="806.783149" fill="rgb(255,12,12)"  stroke="rgb(255,12,12)" stroke-width="1" font-size="16" >O</text>
<text x="876.081460" y="815.632488" fill="rgb(255,12,12)"  stroke="rgb(255,12,12)" stroke-width="1" font-size="16" >HO</text>
<text x="669.760625" y="672.499963" fill="rgb(255,12,12)"  stroke="rgb(255,12,12)" stroke-width="1" font-size="16" >O</text>
<text x="666.609963" y="736.197364" fill="rgb(255,12,12)"  stroke="rgb(255,12,12)" stroke-width="1" font-size="16" >HO</text>
<text x="499.498790" y="802.841566" fill="rgb(255,12,12)"  stroke="rgb(255,12,12)" stroke-width="1" font-size="16" >O</text>
<text x="645.028425" y="835.763894" fill="rgb(255,12,12)"  stroke="rgb(255,12,12)" stroke-width="1" font-size="16" >O</text>
<text x="531.601135" y="734.653761" fill="rgb(255,12,12)"  stroke="rgb(255,12,12)" stroke-width="1" font-size="16" >O</text>
<text x="632.497508" y="762.331940" fill="rgb(255,12,12)"  stroke="rgb(255,12,12)" stroke-width="1" font-size="16" >O</text>
<text x="838.408215" y="732.734008" fill="rgb(255,12,12)"  stroke="rgb(255,12,12)" stroke-width="1" font-size="16" >O</text>
<text x="914.026408" y="717.372984" fill="rgb(255,12,12)"  stroke="rgb(255,12,12)" stroke-width="1" font-size="16" >O</text>
<text x="767.806368" y="684.793994" fill="rgb(255,12,12)"  stroke="rgb(255,12,12)" stroke-width="1" font-size="16" >O</text>
<text x="749.568699" y="732.343620" fill="rgb(255,12,12)"  stroke="rgb(255,12,12)" stroke-width="1" font-size="16" >O</text>
<text x="440.784504" y="886.371429" fill="rgb(191,191,191)"  stroke="rgb(191,191,191)" stroke-width="1" font-size="16" >H</text>
<text x="375.387087" y="847.228571" fill="rgb(191,191,191)"  stroke="rgb(191,191,191)" stroke-width="1" font-size="16" >H</text>
<text x="423.613075" y="738.564148" fill="rgb(191,191,191)"  stroke="rgb(191,191,191)" stroke-width="1" font-size="16" >H</text>
<text x="370.142938" y="792.034286" fill="rgb(191,191,191)"  stroke="rgb(191,191,191)" stroke-width="1" font-size="16" >H</text>
<text x="998.995254" y="786.894550" fill="rgb(191,191,191)"  stroke="rgb(191,191,191)" stroke-width="1" font-size="16" >H</text>
<text x="677.040911" y="622.826718" fill="rgb(191,191,191)"  stroke="rgb(191,191,191)" stroke-width="1" font-size="16" >H</text>
<text x="945.525117" y="590.861281" fill="rgb(191,191,191)"  stroke="rgb(191,191,191)" stroke-width="1" font-size="16" >H</text>
<text x="659.355705" y="889.234031" fill="rgb(191,191,191)"  stroke="rgb(191,191,191)" stroke-width="1" font-size="16" >H</text>
<text x="790.468201" y="705.055828" fill="rgb(191,191,191)"  stroke="rgb(191,191,191)" stroke-width="1" font-size="16" >H</text>
<text x="559.279315" y="686.713747" fill="rgb(191,191,191)"  stroke="rgb(191,191,191)" stroke-width="1" font-size="16" >H</text>
<text x="1018.566683" y="713.852984" fill="rgb(191,191,191)"  stroke="rgb(191,191,191)" stroke-width="1" font-size="16" >H</text>
<text x="742.528188" y="585.017621" fill="rgb(191,191,191)"  stroke="rgb(191,191,191)" stroke-width="1" font-size="16" >H</text>
<text x="894.454980" y="644.331418" fill="rgb(191,191,191)"  stroke="rgb(191,191,191)" stroke-width="1" font-size="16" >H</text>
<text x="729.997271" y="869.662603" fill="rgb(191,191,191)"  stroke="rgb(191,191,191)" stroke-width="1" font-size="16" >H</text>
<text x="853.555478" y="650.504897" fill="rgb(191,191,191)"  stroke="rgb(191,191,191)" stroke-width="1" font-size="16" >H</text>
<text x="622.366591" y="796.621037" fill="rgb(191,191,191)"  stroke="rgb(191,191,191)" stroke-width="1" font-size="16" >H</text>
<text x="556.879315" y="834.430133" fill="rgb(191,191,191)"  stroke="rgb(191,191,191)" stroke-width="1" font-size="16" >H</text>
<text x="696.098562" y="746.670900" fill="rgb(191,191,191)"  stroke="rgb(191,191,191)" stroke-width="1" font-size="16" >H</text>
<text x="622.366591" y="724.522844" fill="rgb(191,191,191)"  stroke="rgb(191,191,191)" stroke-width="1" font-size="16" >H</text>
<text x="965.096545" y="663.902847" fill="rgb(191,191,191)"  stroke="rgb(191,191,191)" stroke-width="1" font-size="16" >H</text>
<text x="805.615464" y="622.826718" fill="rgb(191,191,191)"  stroke="rgb(191,191,191)" stroke-width="1" font-size="16" >H</text>
<text x="749.568699" y="796.621037" fill="rgb(191,191,191)"  stroke="rgb(191,191,191)" stroke-width="1" font-size="16" >H</text>
<text x="497.641557" y="741.408741" fill="rgb(191,191,191)"  stroke="rgb(191,191,191)" stroke-width="1" font-size="16" >H</text>
<text x="613.974309" y="820.449699" fill="rgb(191,191,191)"  stroke="rgb(191,191,191)" stroke-width="1" font-size="16" >H</text>
<text font-size="18.000000" fill ="black" font-family="sans-serif"
x="140.000000" y="20.000000" ></text>
<title> - OBDepict</title>
</svg>
