<?xml version="1.0"?>
<svg xmlns="http://www.w3.org/2000/svg"
xmlns:xlink="http://www.w3.org/1999/xlink" xmlns:cml="http://www.xml-cml.org/schema" width="775.18" height="431.305" x="0" y="0" font-family="sans-serif" stroke="rgb(0,0,0)" stroke-width="1" >
<line x1="110.9" y1="192.1" x2="110.9" y2="220.5"/>
<line x1="725.2" y1="130.7" x2="696.8" y2="130.7"/>
<line x1="711.0" y1="155.3" x2="696.8" y2="130.7"/>
<line x1="630.8" y1="88.6" x2="630.0" y2="88.6"/>
<line x1="631.2" y1="84.7" x2="629.6" y2="84.7"/>
<line x1="631.6" y1="80.9" x2="629.2" y2="80.9"/>
<line x1="632.0" y1="77.0" x2="628.8" y2="77.0"/>
<line x1="632.4" y1="73.2" x2="628.4" y2="73.2"/>
<line x1="632.8" y1="69.4" x2="628.0" y2="69.4"/>
<line x1="633.2" y1="65.5" x2="627.6" y2="65.5"/>
<line x1="504.0" y1="211.6" x2="504.4" y2="210.9"/>
<line x1="510.4" y1="215.8" x2="511.2" y2="214.4"/>
<line x1="516.9" y1="220.0" x2="518.1" y2="217.9"/>
<line x1="523.3" y1="224.2" x2="524.9" y2="221.4"/>
<line x1="529.8" y1="228.3" x2="531.8" y2="224.9"/>
<line x1="536.2" y1="232.5" x2="538.6" y2="228.4"/>
<line x1="542.7" y1="236.7" x2="545.5" y2="231.9"/>
<polygon points="431.129548 207.439325 405.434703 203.439325 405.434703 211.439325 " />
<polygon points="563.979631 130.738294 521.474853 101.579347 517.474853 108.507550 " />
<line x1="531.2" y1="146.1" x2="530.4" y2="146.1"/>
<line x1="531.6" y1="142.2" x2="530.0" y2="142.2"/>
<line x1="532.0" y1="138.4" x2="529.6" y2="138.4"/>
<line x1="532.4" y1="134.6" x2="529.2" y2="134.6"/>
<line x1="532.8" y1="130.7" x2="528.8" y2="130.7"/>
<line x1="533.2" y1="126.9" x2="528.4" y2="126.9"/>
<line x1="533.6" y1="123.1" x2="528.0" y2="123.1"/>
<line x1="324.8" y1="149.0" x2="305.6" y2="182.2"/>
<line x1="324.8" y1="149.0" x2="353.2" y2="149.0"/>
<line x1="412.0" y1="174.2" x2="431.1" y2="207.4"/>
<line x1="412.0" y1="174.2" x2="383.6" y2="174.2"/>
<polygon points="63.384629 240.185955 112.393246 224.215490 109.331779 216.824453 " />
<line x1="630.8" y1="155.3" x2="630.0" y2="155.3"/>
<line x1="631.2" y1="151.4" x2="629.6" y2="151.4"/>
<line x1="631.6" y1="147.6" x2="629.2" y2="147.6"/>
<line x1="632.0" y1="143.8" x2="628.8" y2="143.8"/>
<line x1="632.4" y1="139.9" x2="628.4" y2="139.9"/>
<line x1="632.8" y1="136.1" x2="628.0" y2="136.1"/>
<line x1="633.2" y1="132.3" x2="627.6" y2="132.3"/>
<line x1="330.2" y1="181.8" x2="330.2" y2="182.6"/>
<line x1="326.3" y1="181.4" x2="326.3" y2="183.0"/>
<line x1="322.5" y1="181.0" x2="322.5" y2="183.4"/>
<line x1="318.7" y1="180.6" x2="318.7" y2="183.8"/>
<line x1="314.8" y1="180.2" x2="314.8" y2="184.2"/>
<line x1="311.0" y1="179.8" x2="311.0" y2="184.6"/>
<line x1="307.1" y1="179.4" x2="307.1" y2="185.0"/>
<polygon points="442.089680 175.416644 462.342069 191.728169 466.342069 184.799965 " />
<polygon points="530.767110 213.958912 534.767110 188.264067 526.767110 188.264067 " />
<polygon points="676.464616 50.960132 660.153091 71.212521 667.081295 75.212521 " />
<line x1="663.6" y1="73.2" x2="649.4" y2="48.6"/>
<polygon points="434.483399 271.264863 435.095328 245.267735 427.163769 246.311945 " />
<line x1="431.1" y1="245.8" x2="403.7" y2="238.4"/>
<line x1="77.1" y1="251.6" x2="77.3" y2="250.8"/>
<line x1="80.7" y1="253.0" x2="81.1" y2="251.4"/>
<line x1="84.3" y1="254.4" x2="84.9" y2="252.0"/>
<line x1="87.9" y1="255.7" x2="88.8" y2="252.6"/>
<line x1="91.5" y1="257.1" x2="92.6" y2="253.2"/>
<line x1="95.1" y1="258.5" x2="96.4" y2="253.9"/>
<line x1="98.7" y1="259.9" x2="100.2" y2="254.5"/>
<line x1="100.9" y1="257.6" x2="80.9" y2="277.6"/>
<line x1="284.3" y1="141.5" x2="285.0" y2="141.9"/>
<line x1="282.1" y1="144.7" x2="283.4" y2="145.5"/>
<line x1="279.8" y1="147.8" x2="281.9" y2="149.0"/>
<line x1="277.5" y1="150.9" x2="280.3" y2="152.5"/>
<line x1="275.3" y1="154.0" x2="278.7" y2="156.0"/>
<line x1="273.0" y1="157.1" x2="277.2" y2="159.5"/>
<line x1="270.7" y1="160.3" x2="275.6" y2="163.1"/>
<line x1="272.4" y1="163.0" x2="258.2" y2="138.4"/>
<polygon points="109.885579 302.850634 130.883005 287.510061 125.226151 281.853207 " />
<line x1="128.1" y1="284.7" x2="135.4" y2="312.1"/>
<line x1="226.6" y1="161.1" x2="227.3" y2="160.7"/>
<line x1="228.1" y1="164.6" x2="229.5" y2="163.8"/>
<line x1="229.7" y1="168.2" x2="231.8" y2="167.0"/>
<line x1="231.3" y1="171.7" x2="234.1" y2="170.1"/>
<line x1="232.9" y1="175.2" x2="236.3" y2="173.2"/>
<line x1="234.4" y1="178.7" x2="238.6" y2="176.3"/>
<line x1="236.0" y1="182.2" x2="240.8" y2="179.4"/>
<line x1="239.2" y1="182.2" x2="210.8" y2="182.2"/>
<line x1="353.9" y1="360.7" x2="353.1" y2="360.9"/>
<line x1="353.2" y1="356.9" x2="351.7" y2="357.3"/>
<line x1="352.6" y1="353.1" x2="350.3" y2="353.7"/>
<line x1="352.0" y1="349.3" x2="348.9" y2="350.1"/>
<line x1="351.4" y1="345.4" x2="347.6" y2="346.5"/>
<line x1="350.8" y1="341.6" x2="346.2" y2="342.9"/>
<line x1="350.2" y1="337.8" x2="344.8" y2="339.3"/>
<line x1="347.1" y1="337.1" x2="327.0" y2="357.1"/>
<polygon points="301.829289 328.120503 322.826716 312.779930 317.169861 307.123076 " />
<line x1="320.0" y1="310.0" x2="292.6" y2="302.6"/>
<polygon points="171.748647 299.575105 168.962035 273.720514 161.234628 275.791067 " />
<line x1="165.1" y1="274.8" x2="192.5" y2="282.1"/>
<polygon points="408.979266 333.793884 385.195227 323.279866 383.124675 331.007272 " />
<line x1="384.2" y1="327.1" x2="394.1" y2="364.2"/>
<polygon points="242.539689 245.994994 243.151618 219.997867 235.220059 221.042076 " />
<line x1="239.2" y1="220.5" x2="211.8" y2="213.2"/>
<line x1="338.9" y1="250.1" x2="339.7" y2="250.4"/>
<line x1="337.1" y1="253.5" x2="338.6" y2="254.1"/>
<line x1="335.3" y1="256.9" x2="337.5" y2="257.8"/>
<line x1="333.4" y1="260.2" x2="336.4" y2="261.5"/>
<line x1="331.6" y1="263.6" x2="335.3" y2="265.2"/>
<line x1="329.8" y1="267.0" x2="334.2" y2="268.9"/>
<line x1="327.9" y1="270.4" x2="333.1" y2="272.6"/>
<line x1="329.9" y1="272.9" x2="301.5" y2="272.9"/>
<line x1="396.2" y1="366.3" x2="376.1" y2="386.4"/>
<line x1="392.0" y1="362.1" x2="371.9" y2="382.1"/>
<line x1="394.1" y1="364.2" x2="421.5" y2="371.5"/>
<line x1="198.8" y1="243.7" x2="198.6" y2="244.5"/>
<line x1="195.2" y1="242.3" x2="194.8" y2="243.8"/>
<line x1="191.6" y1="240.9" x2="191.0" y2="243.2"/>
<line x1="188.0" y1="239.5" x2="187.2" y2="242.6"/>
<line x1="184.4" y1="238.2" x2="183.4" y2="242.0"/>
<line x1="180.8" y1="236.8" x2="179.6" y2="241.4"/>
<line x1="177.2" y1="235.4" x2="175.8" y2="240.8"/>
<line x1="175.0" y1="237.7" x2="195.1" y2="217.6"/>
<line x1="248.2" y1="282.4" x2="247.5" y2="282.0"/>
<line x1="252.4" y1="276.0" x2="251.0" y2="275.2"/>
<line x1="256.6" y1="269.5" x2="254.5" y2="268.3"/>
<line x1="260.7" y1="263.1" x2="258.0" y2="261.5"/>
<line x1="264.9" y1="256.6" x2="261.5" y2="254.6"/>
<line x1="269.1" y1="250.2" x2="265.0" y2="247.8"/>
<line x1="273.3" y1="243.8" x2="268.4" y2="241.0"/>
<line x1="272.4" y1="239.7" x2="286.6" y2="264.3"/>
<polygon points="360.317570 238.162591 363.104182 264.017182 370.831589 261.946630 " />
<line x1="367.0" y1="263.0" x2="387.0" y2="242.9"/>
<line x1="464.3" y1="149.9" x2="497.6" y2="130.7"/>
<line x1="497.6" y1="130.7" x2="530.8" y2="149.9"/>
<line x1="530.8" y1="149.9" x2="530.8" y2="188.3"/>
<line x1="530.8" y1="188.3" x2="497.6" y2="207.4"/>
<line x1="497.6" y1="207.4" x2="464.3" y2="188.3"/>
<line x1="464.3" y1="188.3" x2="464.3" y2="149.9"/>
<line x1="597.2" y1="149.9" x2="597.2" y2="188.3"/>
<line x1="590.0" y1="155.9" x2="590.0" y2="182.3"/>
<line x1="597.2" y1="188.3" x2="564.0" y2="207.4"/>
<line x1="564.0" y1="207.4" x2="530.8" y2="188.3"/>
<line x1="530.8" y1="149.9" x2="564.0" y2="130.7"/>
<line x1="564.0" y1="130.7" x2="597.2" y2="149.9"/>
<line x1="431.1" y1="245.8" x2="431.1" y2="207.4"/>
<line x1="431.1" y1="207.4" x2="464.3" y2="188.3"/>
<line x1="497.6" y1="207.4" x2="497.6" y2="245.8"/>
<line x1="497.6" y1="245.8" x2="464.3" y2="265.0"/>
<line x1="464.3" y1="265.0" x2="431.1" y2="245.8"/>
<line x1="630.4" y1="92.4" x2="630.4" y2="130.7"/>
<line x1="630.4" y1="130.7" x2="597.2" y2="149.9"/>
<line x1="564.0" y1="130.7" x2="564.0" y2="92.4"/>
<line x1="564.0" y1="92.4" x2="597.2" y2="73.2"/>
<line x1="597.2" y1="73.2" x2="630.4" y2="92.4"/>
<line x1="696.8" y1="92.4" x2="696.8" y2="130.7"/>
<line x1="696.8" y1="130.7" x2="663.6" y2="149.9"/>
<line x1="663.6" y1="149.9" x2="630.4" y2="130.7"/>
<line x1="630.4" y1="92.4" x2="663.6" y2="73.2"/>
<line x1="663.6" y1="73.2" x2="696.8" y2="92.4"/>
<line x1="272.4" y1="163.0" x2="305.6" y2="182.2"/>
<line x1="305.6" y1="182.2" x2="305.6" y2="210.5"/>
<line x1="297.0" y1="225.5" x2="272.4" y2="239.7"/>
<line x1="272.4" y1="239.7" x2="239.2" y2="220.5"/>
<line x1="239.2" y1="220.5" x2="239.2" y2="182.2"/>
<line x1="239.2" y1="182.2" x2="272.4" y2="163.0"/>
<line x1="110.9" y1="220.5" x2="100.9" y2="257.6"/>
<line x1="100.9" y1="257.6" x2="128.1" y2="284.7"/>
<line x1="128.1" y1="284.7" x2="165.1" y2="274.8"/>
<line x1="165.1" y1="274.8" x2="175.0" y2="237.7"/>
<line x1="175.0" y1="237.7" x2="155.0" y2="217.6"/>
<line x1="138.3" y1="213.2" x2="110.9" y2="220.5"/>
<line x1="347.1" y1="337.1" x2="384.2" y2="327.1"/>
<line x1="384.2" y1="327.1" x2="391.5" y2="299.7"/>
<line x1="387.0" y1="283.0" x2="367.0" y2="263.0"/>
<line x1="367.0" y1="263.0" x2="329.9" y2="272.9"/>
<line x1="329.9" y1="272.9" x2="320.0" y2="310.0"/>
<line x1="320.0" y1="310.0" x2="347.1" y2="337.1"/>
<text x="104.862513" y="190.489456" fill="rgb(102,102,102)"  stroke="rgb(102,102,102)" stroke-width="1" font-size="16" >CH</text>
<text x="128.862513" y="198.169456" fill="rgb(102,102,102)"  stroke="rgb(102,102,102)" stroke-width="1" font-size="13" >3</text>
<text x="729.180229" y="135.538294" fill="rgb(102,102,102)"  stroke="rgb(102,102,102)" stroke-width="1" font-size="16" >CH</text>
<text x="753.180229" y="140.338294" fill="rgb(102,102,102)"  stroke="rgb(102,102,102)" stroke-width="1" font-size="13" >3</text>
<text x="710.004971" y="168.750814" fill="rgb(102,102,102)"  stroke="rgb(102,102,102)" stroke-width="1" font-size="16" >CH</text>
<text x="734.004971" y="173.550814" fill="rgb(102,102,102)"  stroke="rgb(102,102,102)" stroke-width="1" font-size="13" >3</text>
<text x="624.404672" y="62.357263" fill="rgb(102,102,102)"  stroke="rgb(102,102,102)" stroke-width="1" font-size="16" >CH</text>
<text x="648.404672" y="70.037263" fill="rgb(102,102,102)"  stroke="rgb(102,102,102)" stroke-width="1" font-size="13" >3</text>
<text x="557.979631" y="250.589840" fill="rgb(102,102,102)"  stroke="rgb(102,102,102)" stroke-width="1" font-size="16" >CH</text>
<text x="581.979631" y="255.389840" fill="rgb(102,102,102)"  stroke="rgb(102,102,102)" stroke-width="1" font-size="13" >3</text>
<text x="369.179033" y="215.759325" fill="rgb(102,102,102)"  stroke="rgb(102,102,102)" stroke-width="1" font-size="16" >H</text>
<text x="381.179033" y="223.439325" fill="rgb(102,102,102)"  stroke="rgb(102,102,102)" stroke-width="1" font-size="13" >3</text>
<text x="387.679033" y="215.759325" fill="rgb(102,102,102)"  stroke="rgb(102,102,102)" stroke-width="1" font-size="16" >C</text>
<text x="473.954590" y="100.707778" fill="rgb(102,102,102)"  stroke="rgb(102,102,102)" stroke-width="1" font-size="16" >H</text>
<text x="485.954590" y="108.387778" fill="rgb(102,102,102)"  stroke="rgb(102,102,102)" stroke-width="1" font-size="13" >3</text>
<text x="492.454590" y="100.707778" fill="rgb(102,102,102)"  stroke="rgb(102,102,102)" stroke-width="1" font-size="16" >C</text>
<text x="524.767110" y="119.883036" fill="rgb(102,102,102)"  stroke="rgb(102,102,102)" stroke-width="1" font-size="16" >CH</text>
<text x="548.767110" y="127.563036" fill="rgb(102,102,102)"  stroke="rgb(102,102,102)" stroke-width="1" font-size="13" >3</text>
<text x="357.136653" y="153.756935" fill="rgb(255,12,12)"  stroke="rgb(255,12,12)" stroke-width="1" font-size="16" >OH</text>
<text x="358.003775" y="182.546804" fill="rgb(255,12,12)"  stroke="rgb(255,12,12)" stroke-width="1" font-size="16" >HO</text>
<text x="628.841935" y="48.320000" fill="rgb(255,12,12)"  stroke="rgb(255,12,12)" stroke-width="1" font-size="16" >HO</text>
<text x="58.218759" y="289.481634" fill="rgb(255,12,12)"  stroke="rgb(255,12,12)" stroke-width="1" font-size="16" >HO</text>
<text x="237.623101" y="138.101678" fill="rgb(255,12,12)"  stroke="rgb(255,12,12)" stroke-width="1" font-size="16" >HO</text>
<text x="131.980422" y="326.525388" fill="rgb(255,12,12)"  stroke="rgb(255,12,12)" stroke-width="1" font-size="16" >OH</text>
<text x="185.235323" y="190.489456" fill="rgb(255,12,12)"  stroke="rgb(255,12,12)" stroke-width="1" font-size="16" >HO</text>
<text x="304.398288" y="368.987322" fill="rgb(255,12,12)"  stroke="rgb(255,12,12)" stroke-width="1" font-size="16" >HO</text>
<text x="267.354535" y="308.345659" fill="rgb(255,12,12)"  stroke="rgb(255,12,12)" stroke-width="1" font-size="16" >HO</text>
<text x="196.142085" y="289.481634" fill="rgb(255,12,12)"  stroke="rgb(255,12,12)" stroke-width="1" font-size="16" >OH</text>
<text x="363.367886" y="396.105232" fill="rgb(255,12,12)"  stroke="rgb(255,12,12)" stroke-width="1" font-size="16" >O</text>
<text x="425.129548" y="378.913166" fill="rgb(255,12,12)"  stroke="rgb(255,12,12)" stroke-width="1" font-size="16" >OH</text>
<text x="141.906266" y="218.914128" fill="rgb(255,12,12)"  stroke="rgb(255,12,12)" stroke-width="1" font-size="16" >O</text>
<text x="299.610880" y="225.319971" fill="rgb(255,12,12)"  stroke="rgb(255,12,12)" stroke-width="1" font-size="16" >O</text>
<text x="390.485795" y="244.183996" fill="rgb(255,12,12)"  stroke="rgb(255,12,12)" stroke-width="1" font-size="16" >O</text>
<text x="388.085795" y="298.419816" fill="rgb(255,12,12)"  stroke="rgb(255,12,12)" stroke-width="1" font-size="16" >O</text>
<text x="198.542085" y="218.914128" fill="rgb(255,12,12)"  stroke="rgb(255,12,12)" stroke-width="1" font-size="16" >O</text>
<text x="287.973617" y="277.707750" fill="rgb(255,12,12)"  stroke="rgb(255,12,12)" stroke-width="1" font-size="16" >O</text>
<text x="36.400000" y="254.672185" fill="rgb(191,191,191)"  stroke="rgb(191,191,191)" stroke-width="1" font-size="16" >H</text>
<text x="624.404672" y="173.888809" fill="rgb(191,191,191)"  stroke="rgb(191,191,191)" stroke-width="1" font-size="16" >H</text>
<text x="337.961395" y="186.969456" fill="rgb(191,191,191)"  stroke="rgb(191,191,191)" stroke-width="1" font-size="16" >H</text>
<text x="427.529548" y="177.408809" fill="rgb(191,191,191)"  stroke="rgb(191,191,191)" stroke-width="1" font-size="16" >H</text>
<text x="524.767110" y="231.414582" fill="rgb(191,191,191)"  stroke="rgb(191,191,191)" stroke-width="1" font-size="16" >H</text>
<text x="676.792451" y="48.320000" fill="rgb(191,191,191)"  stroke="rgb(191,191,191)" stroke-width="1" font-size="16" >H</text>
<text x="430.135295" y="288.612262" fill="rgb(191,191,191)"  stroke="rgb(191,191,191)" stroke-width="1" font-size="16" >H</text>
<text x="60.292915" y="255.957881" fill="rgb(191,191,191)"  stroke="rgb(191,191,191)" stroke-width="1" font-size="16" >H</text>
<text x="285.573617" y="138.101678" fill="rgb(191,191,191)"  stroke="rgb(191,191,191)" stroke-width="1" font-size="16" >H</text>
<text x="97.336669" y="316.599544" fill="rgb(191,191,191)"  stroke="rgb(191,191,191)" stroke-width="1" font-size="16" >H</text>
<text x="216.410581" y="157.276935" fill="rgb(191,191,191)"  stroke="rgb(191,191,191)" stroke-width="1" font-size="16" >H</text>
<text x="351.042042" y="378.913166" fill="rgb(191,191,191)"  stroke="rgb(191,191,191)" stroke-width="1" font-size="16" >H</text>
<text x="289.280379" y="341.869413" fill="rgb(191,191,191)"  stroke="rgb(191,191,191)" stroke-width="1" font-size="16" >H</text>
<text x="169.024175" y="316.599544" fill="rgb(191,191,191)"  stroke="rgb(191,191,191)" stroke-width="1" font-size="16" >H</text>
<text x="415.203705" y="341.869413" fill="rgb(191,191,191)"  stroke="rgb(191,191,191)" stroke-width="1" font-size="16" >H</text>
<text x="238.191585" y="263.342393" fill="rgb(191,191,191)"  stroke="rgb(191,191,191)" stroke-width="1" font-size="16" >H</text>
<text x="338.600239" y="245.796493" fill="rgb(191,191,191)"  stroke="rgb(191,191,191)" stroke-width="1" font-size="16" >H</text>
<text x="206.067929" y="252.437881" fill="rgb(191,191,191)"  stroke="rgb(191,191,191)" stroke-width="1" font-size="16" >H</text>
<text x="230.447844" y="310.920270" fill="rgb(191,191,191)"  stroke="rgb(191,191,191)" stroke-width="1" font-size="16" >H</text>
<text x="353.442042" y="234.258153" fill="rgb(191,191,191)"  stroke="rgb(191,191,191)" stroke-width="1" font-size="16" >H</text>
<text font-size="18.000000" fill ="black" font-family="sans-serif"
x="140.000000" y="20.000000" ></text>
<title> - OBDepict</title>
</svg>
