<?xml version="1.0"?>
<svg xmlns="http://www.w3.org/2000/svg"
xmlns:xlink="http://www.w3.org/1999/xlink" xmlns:cml="http://www.xml-cml.org/schema" width="554.172" height="318.584" x="0" y="0" font-family="sans-serif" stroke="rgb(0,0,0)" stroke-width="1" >
<line x1="481.9" y1="225.5" x2="453.8" y2="233.0"/>
<line x1="211.6" y1="269.7" x2="226.2" y2="244.5"/>
<line x1="326.4" y1="239.9" x2="347.0" y2="219.3"/>
<line x1="59.7" y1="171.1" x2="99.0" y2="171.1"/>
<line x1="59.7" y1="171.1" x2="45.1" y2="145.9"/>
<line x1="362.7" y1="79.3" x2="396.8" y2="99.0"/>
<line x1="362.7" y1="79.3" x2="362.7" y2="50.2"/>
<line x1="205.2" y1="105.3" x2="243.2" y2="115.5"/>
<line x1="205.2" y1="105.3" x2="197.6" y2="77.1"/>
<line x1="451.7" y1="235.1" x2="431.1" y2="214.5"/>
<line x1="455.9" y1="230.9" x2="435.3" y2="210.3"/>
<line x1="453.8" y1="233.0" x2="446.3" y2="261.1"/>
<line x1="223.6" y1="246.0" x2="209.0" y2="220.8"/>
<line x1="228.8" y1="243.0" x2="214.2" y2="217.8"/>
<line x1="226.2" y1="244.5" x2="255.3" y2="244.5"/>
<line x1="344.1" y1="220.1" x2="336.6" y2="191.9"/>
<line x1="349.9" y1="218.5" x2="342.4" y2="190.4"/>
<line x1="347.0" y1="219.3" x2="375.1" y2="226.8"/>
<line x1="86.1" y1="149.5" x2="86.8" y2="149.1"/>
<line x1="87.7" y1="153.1" x2="89.1" y2="152.3"/>
<line x1="89.3" y1="156.7" x2="91.4" y2="155.5"/>
<line x1="90.9" y1="160.3" x2="93.7" y2="158.7"/>
<line x1="92.6" y1="163.9" x2="96.0" y2="161.9"/>
<line x1="94.2" y1="167.5" x2="98.3" y2="165.1"/>
<line x1="95.8" y1="171.1" x2="100.7" y2="168.3"/>
<line x1="396.4" y1="73.8" x2="397.2" y2="73.8"/>
<line x1="396.0" y1="77.8" x2="397.6" y2="77.8"/>
<line x1="395.6" y1="81.7" x2="398.0" y2="81.7"/>
<line x1="395.2" y1="85.6" x2="398.4" y2="85.6"/>
<line x1="394.8" y1="89.6" x2="398.8" y2="89.6"/>
<line x1="394.4" y1="93.5" x2="399.2" y2="93.5"/>
<line x1="394.0" y1="97.4" x2="399.6" y2="97.4"/>
<line x1="236.3" y1="91.2" x2="237.0" y2="91.0"/>
<line x1="236.9" y1="95.1" x2="238.4" y2="94.7"/>
<line x1="237.5" y1="99.0" x2="239.8" y2="98.4"/>
<line x1="238.2" y1="102.9" x2="241.3" y2="102.1"/>
<line x1="238.8" y1="106.8" x2="242.7" y2="105.8"/>
<line x1="239.4" y1="110.8" x2="244.1" y2="109.5"/>
<line x1="240.1" y1="114.7" x2="245.5" y2="113.2"/>
<polygon points="488.427095 160.281143 435.634717 163.196875 436.678926 171.128434 " />
<line x1="436.2" y1="167.2" x2="428.6" y2="195.3"/>
<polygon points="180.342983 233.266423 170.626756 208.437425 163.698553 212.437425 " />
<line x1="167.2" y1="210.4" x2="196.3" y2="210.4"/>
<polygon points="305.633762 196.555601 302.674826 170.057887 294.947419 172.128439 " />
<line x1="298.8" y1="171.1" x2="326.9" y2="178.6"/>
<polygon points="72.655738 210.437425 99.016393 214.437425 99.016393 206.437425 " />
<line x1="99.0" y1="210.4" x2="84.5" y2="235.7"/>
<line x1="120.8" y1="252.1" x2="120.2" y2="251.7"/>
<line x1="123.2" y1="248.9" x2="121.8" y2="248.1"/>
<line x1="125.5" y1="245.7" x2="123.4" y2="244.5"/>
<line x1="127.8" y1="242.5" x2="125.0" y2="240.9"/>
<line x1="130.1" y1="239.3" x2="126.6" y2="237.3"/>
<line x1="132.4" y1="236.1" x2="128.3" y2="233.7"/>
<line x1="134.7" y1="232.9" x2="129.9" y2="230.1"/>
<line x1="133.1" y1="230.1" x2="147.6" y2="255.3"/>
<line x1="375.2" y1="180.1" x2="374.8" y2="179.4"/>
<line x1="378.8" y1="178.5" x2="378.0" y2="177.1"/>
<line x1="382.4" y1="176.9" x2="381.2" y2="174.8"/>
<line x1="386.0" y1="175.2" x2="384.4" y2="172.5"/>
<line x1="389.6" y1="173.6" x2="387.6" y2="170.2"/>
<line x1="393.2" y1="172.0" x2="390.8" y2="167.8"/>
<line x1="396.8" y1="170.4" x2="394.0" y2="165.5"/>
<line x1="396.8" y1="167.2" x2="396.8" y2="196.3"/>
<line x1="243.3" y1="199.4" x2="242.7" y2="198.8"/>
<line x1="246.4" y1="196.9" x2="245.2" y2="195.7"/>
<line x1="249.4" y1="194.4" x2="247.7" y2="192.7"/>
<line x1="252.5" y1="191.9" x2="250.2" y2="189.6"/>
<line x1="255.5" y1="189.4" x2="252.7" y2="186.5"/>
<line x1="258.6" y1="186.9" x2="255.2" y2="183.5"/>
<line x1="261.7" y1="184.4" x2="257.7" y2="180.4"/>
<line x1="260.8" y1="181.3" x2="268.3" y2="209.4"/>
<polygon points="354.311430 119.909196 375.140428 136.553626 379.140428 129.625422 " />
<line x1="377.1" y1="133.1" x2="351.9" y2="147.6"/>
<polygon points="207.524450 146.632973 231.951612 157.319316 234.022165 149.591910 " />
<line x1="233.0" y1="153.5" x2="212.4" y2="174.0"/>
<line x1="455.8" y1="133.1" x2="481.0" y2="147.6"/>
<line x1="455.8" y1="133.1" x2="481.0" y2="118.5"/>
<line x1="163.5" y1="146.2" x2="164.3" y2="146.1"/>
<line x1="163.6" y1="150.1" x2="165.2" y2="149.9"/>
<line x1="163.7" y1="154.1" x2="166.1" y2="153.8"/>
<line x1="163.8" y1="158.0" x2="167.0" y2="157.6"/>
<line x1="163.9" y1="162.0" x2="167.9" y2="161.5"/>
<line x1="164.1" y1="165.9" x2="168.8" y2="165.3"/>
<line x1="164.2" y1="169.9" x2="169.7" y2="169.2"/>
<line x1="167.2" y1="171.1" x2="195.3" y2="178.6"/>
<line x1="311.9" y1="108.1" x2="312.7" y2="108.2"/>
<line x1="311.0" y1="111.9" x2="312.6" y2="112.1"/>
<line x1="310.1" y1="115.8" x2="312.4" y2="116.1"/>
<line x1="309.2" y1="119.6" x2="312.3" y2="120.0"/>
<line x1="308.2" y1="123.5" x2="312.2" y2="124.0"/>
<line x1="307.3" y1="127.3" x2="312.1" y2="127.9"/>
<line x1="306.4" y1="131.2" x2="312.0" y2="131.9"/>
<line x1="309.0" y1="133.1" x2="334.2" y2="147.6"/>
<line x1="167.2" y1="210.4" x2="167.2" y2="171.1"/>
<line x1="167.2" y1="171.1" x2="141.9" y2="156.5"/>
<line x1="124.2" y1="156.5" x2="99.0" y2="171.1"/>
<line x1="99.0" y1="171.1" x2="99.0" y2="210.4"/>
<line x1="99.0" y1="210.4" x2="133.1" y2="230.1"/>
<line x1="133.1" y1="230.1" x2="167.2" y2="210.4"/>
<line x1="436.2" y1="167.2" x2="396.8" y2="167.2"/>
<line x1="396.8" y1="167.2" x2="377.1" y2="133.1"/>
<line x1="377.1" y1="133.1" x2="396.8" y2="99.0"/>
<line x1="396.8" y1="99.0" x2="425.9" y2="99.0"/>
<line x1="441.3" y1="107.9" x2="455.8" y2="133.1"/>
<line x1="455.8" y1="133.1" x2="436.2" y2="167.2"/>
<line x1="298.8" y1="171.1" x2="309.0" y2="133.1"/>
<line x1="309.0" y1="133.1" x2="288.4" y2="112.5"/>
<line x1="271.3" y1="107.9" x2="243.2" y2="115.5"/>
<line x1="243.2" y1="115.5" x2="233.0" y2="153.5"/>
<line x1="233.0" y1="153.5" x2="260.8" y2="181.3"/>
<line x1="260.8" y1="181.3" x2="298.8" y2="171.1"/>
<text x="485.798011" y="231.123844" fill="rgb(102,102,102)"  stroke="rgb(102,102,102)" stroke-width="1" font-size="16" >CH</text>
<text x="509.798011" y="238.803844" fill="rgb(102,102,102)"  stroke="rgb(102,102,102)" stroke-width="1" font-size="13" >3</text>
<text x="182.906917" y="283.383687" fill="rgb(102,102,102)"  stroke="rgb(102,102,102)" stroke-width="1" font-size="16" >H</text>
<text x="194.906917" y="288.183687" fill="rgb(102,102,102)"  stroke="rgb(102,102,102)" stroke-width="1" font-size="13" >3</text>
<text x="201.406917" y="283.383687" fill="rgb(102,102,102)"  stroke="rgb(102,102,102)" stroke-width="1" font-size="16" >C</text>
<text x="295.577211" y="251.900441" fill="rgb(102,102,102)"  stroke="rgb(102,102,102)" stroke-width="1" font-size="16" >H</text>
<text x="307.577211" y="256.700441" fill="rgb(102,102,102)"  stroke="rgb(102,102,102)" stroke-width="1" font-size="13" >3</text>
<text x="314.077211" y="251.900441" fill="rgb(102,102,102)"  stroke="rgb(102,102,102)" stroke-width="1" font-size="16" >C</text>
<text x="422.373777" y="209.966294" fill="rgb(12,12,255)"  stroke="rgb(12,12,255)" stroke-width="1" font-size="16" >N</text>
<text x="200.506917" y="218.757425" fill="rgb(12,12,255)"  stroke="rgb(12,12,255)" stroke-width="1" font-size="16" >N</text>
<text x="330.814761" y="189.596208" fill="rgb(12,12,255)"  stroke="rgb(12,12,255)" stroke-width="1" font-size="16" >N</text>
<text x="24.400000" y="145.340033" fill="rgb(255,12,12)"  stroke="rgb(255,12,12)" stroke-width="1" font-size="16" >HO</text>
<text x="356.739428" y="48.320000" fill="rgb(255,12,12)"  stroke="rgb(255,12,12)" stroke-width="1" font-size="16" >OH</text>
<text x="179.383249" y="75.585290" fill="rgb(255,12,12)"  stroke="rgb(255,12,12)" stroke-width="1" font-size="16" >HO</text>
<text x="428.011327" y="275.790528" fill="rgb(255,12,12)"  stroke="rgb(255,12,12)" stroke-width="1" font-size="16" >HO</text>
<text x="259.523310" y="249.310556" fill="rgb(255,12,12)"  stroke="rgb(255,12,12)" stroke-width="1" font-size="16" >OH</text>
<text x="379.001445" y="234.262891" fill="rgb(255,12,12)"  stroke="rgb(255,12,12)" stroke-width="1" font-size="16" >OH</text>
<text x="63.744262" y="249.310556" fill="rgb(255,12,12)"  stroke="rgb(255,12,12)" stroke-width="1" font-size="16" >HO</text>
<text x="146.761655" y="268.982687" fill="rgb(255,12,12)"  stroke="rgb(255,12,12)" stroke-width="1" font-size="16" >OH</text>
<text x="390.812559" y="211.306917" fill="rgb(255,12,12)"  stroke="rgb(255,12,12)" stroke-width="1" font-size="16" >OH</text>
<text x="264.990528" y="224.079847" fill="rgb(255,12,12)"  stroke="rgb(255,12,12)" stroke-width="1" font-size="16" >OH</text>
<text x="483.902083" y="121.737393" fill="rgb(255,12,12)"  stroke="rgb(255,12,12)" stroke-width="1" font-size="16" >OH</text>
<text x="430.156821" y="107.336393" fill="rgb(255,12,12)"  stroke="rgb(255,12,12)" stroke-width="1" font-size="16" >O</text>
<text x="127.089524" y="159.741032" fill="rgb(255,12,12)"  stroke="rgb(255,12,12)" stroke-width="1" font-size="16" >O</text>
<text x="275.173572" y="113.588929" fill="rgb(255,12,12)"  stroke="rgb(255,12,12)" stroke-width="1" font-size="16" >O</text>
<text x="337.067297" y="157.561655" fill="rgb(255,12,12)"  stroke="rgb(255,12,12)" stroke-width="1" font-size="16" >O</text>
<text x="199.166294" y="186.076208" fill="rgb(255,12,12)"  stroke="rgb(255,12,12)" stroke-width="1" font-size="16" >O</text>
<text x="75.744262" y="145.340033" fill="rgb(191,191,191)"  stroke="rgb(191,191,191)" stroke-width="1" font-size="16" >H</text>
<text x="390.812559" y="67.992131" fill="rgb(191,191,191)"  stroke="rgb(191,191,191)" stroke-width="1" font-size="16" >H</text>
<text x="229.386888" y="85.768335" fill="rgb(191,191,191)"  stroke="rgb(191,191,191)" stroke-width="1" font-size="16" >H</text>
<text x="508.172155" y="165.211741" fill="rgb(191,191,191)"  stroke="rgb(191,191,191)" stroke-width="1" font-size="16" >H</text>
<text x="180.834786" y="249.310556" fill="rgb(191,191,191)"  stroke="rgb(191,191,191)" stroke-width="1" font-size="16" >H</text>
<text x="302.994167" y="213.896802" fill="rgb(191,191,191)"  stroke="rgb(191,191,191)" stroke-width="1" font-size="16" >H</text>
<text x="56.072131" y="218.757425" fill="rgb(191,191,191)"  stroke="rgb(191,191,191)" stroke-width="1" font-size="16" >H</text>
<text x="109.817393" y="268.982687" fill="rgb(191,191,191)"  stroke="rgb(191,191,191)" stroke-width="1" font-size="16" >H</text>
<text x="359.139428" y="191.634786" fill="rgb(191,191,191)"  stroke="rgb(191,191,191)" stroke-width="1" font-size="16" >H</text>
<text x="229.386888" y="213.896802" fill="rgb(191,191,191)"  stroke="rgb(191,191,191)" stroke-width="1" font-size="16" >H</text>
<text x="339.467297" y="121.737393" fill="rgb(191,191,191)"  stroke="rgb(191,191,191)" stroke-width="1" font-size="16" >H</text>
<text x="191.383249" y="151.592568" fill="rgb(191,191,191)"  stroke="rgb(191,191,191)" stroke-width="1" font-size="16" >H</text>
<text x="483.902083" y="157.561655" fill="rgb(191,191,191)"  stroke="rgb(191,191,191)" stroke-width="1" font-size="16" >H</text>
<text x="158.427198" y="140.405496" fill="rgb(191,191,191)"  stroke="rgb(191,191,191)" stroke-width="1" font-size="16" >H</text>
<text x="308.129623" y="102.401857" fill="rgb(191,191,191)"  stroke="rgb(191,191,191)" stroke-width="1" font-size="16" >H</text>
<text font-size="18.000000" fill ="black" font-family="sans-serif"
x="140.000000" y="20.000000" ></text>
<title> - OBDepict</title>
</svg>
