<?xml version="1.0"?>
<svg xmlns="http://www.w3.org/2000/svg"
xmlns:xlink="http://www.w3.org/1999/xlink" xmlns:cml="http://www.xml-cml.org/schema" width="482.51" height="316.544" x="0" y="0" font-family="sans-serif" stroke="rgb(0,0,0)" stroke-width="1" >
<line x1="436.4" y1="115.7" x2="419.0" y2="139.7"/>
<line x1="419.0" y1="139.7" x2="435.3" y2="176.2"/>
<line x1="435.3" y1="176.2" x2="411.8" y2="208.6"/>
<line x1="198.5" y1="112.5" x2="171.8" y2="82.8"/>
<line x1="198.5" y1="112.5" x2="237.7" y2="104.2"/>
<line x1="171.8" y1="82.8" x2="132.7" y2="91.1"/>
<line x1="411.8" y1="208.6" x2="372.0" y2="204.4"/>
<line x1="237.7" y1="104.2" x2="264.4" y2="134.0"/>
<line x1="132.7" y1="91.1" x2="105.9" y2="61.4"/>
<line x1="372.0" y1="204.4" x2="348.5" y2="236.8"/>
<line x1="264.4" y1="134.0" x2="303.6" y2="125.6"/>
<line x1="105.9" y1="61.4" x2="66.8" y2="69.7"/>
<line x1="292.4" y1="196.0" x2="263.0" y2="192.9"/>
<line x1="295.2" y1="194.8" x2="311.4" y2="231.4"/>
<line x1="289.7" y1="197.3" x2="305.9" y2="233.8"/>
<line x1="292.4" y1="196.0" x2="315.9" y2="163.7"/>
<line x1="308.7" y1="232.6" x2="291.3" y2="256.5"/>
<line x1="308.7" y1="232.6" x2="348.5" y2="236.8"/>
<polygon points="345.662762 263.416386 352.442212 237.181313 344.486037 236.345085 " />
<line x1="348.5" y1="236.8" x2="372.4" y2="254.2"/>
<line x1="286.1" y1="106.9" x2="286.7" y2="106.3"/>
<line x1="288.5" y1="110.1" x2="289.7" y2="109.1"/>
<line x1="290.9" y1="113.4" x2="292.7" y2="111.8"/>
<line x1="293.3" y1="116.6" x2="295.7" y2="114.5"/>
<line x1="295.7" y1="119.8" x2="298.6" y2="117.2"/>
<line x1="298.0" y1="123.1" x2="301.6" y2="119.9"/>
<line x1="300.4" y1="126.3" x2="304.6" y2="122.6"/>
<line x1="332.9" y1="102.1" x2="332.9" y2="72.5"/>
<line x1="338.9" y1="102.1" x2="338.9" y2="72.5"/>
<line x1="64.5" y1="71.7" x2="44.7" y2="49.7"/>
<line x1="69.0" y1="67.7" x2="49.2" y2="45.7"/>
<line x1="66.8" y1="69.7" x2="57.6" y2="97.9"/>
<line x1="355.9" y1="163.7" x2="368.3" y2="125.6"/>
<line x1="368.3" y1="125.6" x2="335.9" y2="102.1"/>
<line x1="335.9" y1="102.1" x2="303.6" y2="125.6"/>
<line x1="303.6" y1="125.6" x2="315.9" y2="163.7"/>
<line x1="315.9" y1="163.7" x2="355.9" y2="163.7"/>
<line x1="321.9" y1="156.5" x2="349.9" y2="156.5"/>
<text x="436.509765" y="115.640480" fill="rgb(102,102,102)"  stroke="rgb(102,102,102)" stroke-width="1" font-size="16" >CH</text>
<text x="460.509765" y="123.320480" fill="rgb(102,102,102)"  stroke="rgb(102,102,102)" stroke-width="1" font-size="13" >3</text>
<text x="374.824804" y="265.074609" fill="rgb(255,12,12)"  stroke="rgb(255,12,12)" stroke-width="1" font-size="16" >OH</text>
<text x="329.925193" y="70.445891" fill="rgb(255,12,12)"  stroke="rgb(255,12,12)" stroke-width="1" font-size="16" >O</text>
<text x="36.400000" y="48.320000" fill="rgb(255,12,12)"  stroke="rgb(255,12,12)" stroke-width="1" font-size="16" >O</text>
<text x="49.604544" y="126.968054" fill="rgb(255,12,12)"  stroke="rgb(255,12,12)" stroke-width="1" font-size="32" >-</text>
<text x="50.804544" y="112.568054" fill="rgb(255,12,12)"  stroke="rgb(255,12,12)" stroke-width="1" font-size="16" >O</text>
<text x="249.032907" y="200.179103" fill="rgb(191,191,191)"  stroke="rgb(191,191,191)" stroke-width="1" font-size="16" >H</text>
<text x="281.571838" y="269.742740" fill="rgb(191,191,191)"  stroke="rgb(191,191,191)" stroke-width="1" font-size="16" >H</text>
<text x="340.682986" y="281.344075" fill="rgb(191,191,191)"  stroke="rgb(191,191,191)" stroke-width="1" font-size="16" >H</text>
<text x="273.199289" y="104.231509" fill="rgb(191,191,191)"  stroke="rgb(191,191,191)" stroke-width="1" font-size="16" >H</text>
<text font-size="18.000000" fill ="black" font-family="sans-serif"
x="140.000000" y="20.000000" ></text>
<title> - OBDepict</title>
</svg>
