<?xml version="1.0"?>
<svg xmlns="http://www.w3.org/2000/svg"
xmlns:xlink="http://www.w3.org/1999/xlink" xmlns:cml="http://www.xml-cml.org/schema" width="681.552" height="651.649" x="0" y="0" font-family="sans-serif" stroke="rgb(0,0,0)" stroke-width="1" >
<line x1="379.0" y1="568.3" x2="403.6" y2="554.0"/>
<line x1="189.9" y1="425.1" x2="204.1" y2="400.4"/>
<line x1="223.1" y1="318.2" x2="237.3" y2="342.8"/>
<line x1="214.6" y1="543.9" x2="190.0" y2="529.7"/>
<line x1="74.2" y1="92.6" x2="90.1" y2="83.4"/>
<line x1="98.8" y1="50.0" x2="98.8" y2="68.4"/>
<line x1="132.0" y1="136.0" x2="165.3" y2="155.2"/>
<line x1="132.0" y1="136.0" x2="132.0" y2="97.6"/>
<line x1="71.1" y1="438.8" x2="104.3" y2="458.0"/>
<line x1="71.1" y1="438.8" x2="71.1" y2="400.4"/>
<line x1="165.3" y1="155.2" x2="165.3" y2="183.6"/>
<line x1="104.3" y1="458.0" x2="104.3" y2="486.5"/>
<line x1="132.0" y1="97.6" x2="107.4" y2="83.4"/>
<line x1="484.2" y1="463.2" x2="503.4" y2="496.4"/>
<line x1="484.2" y1="463.2" x2="503.4" y2="429.9"/>
<line x1="569.9" y1="496.4" x2="603.2" y2="477.2"/>
<line x1="569.9" y1="496.4" x2="545.3" y2="482.2"/>
<line x1="534.4" y1="311.9" x2="497.4" y2="321.9"/>
<line x1="534.4" y1="311.9" x2="554.5" y2="332.0"/>
<line x1="242.2" y1="176.7" x2="261.4" y2="210.0"/>
<line x1="242.2" y1="176.7" x2="213.8" y2="176.7"/>
<line x1="179.5" y1="400.8" x2="179.5" y2="400.0"/>
<line x1="183.4" y1="401.2" x2="183.4" y2="399.6"/>
<line x1="187.2" y1="401.6" x2="187.2" y2="399.2"/>
<line x1="191.0" y1="402.0" x2="191.0" y2="398.8"/>
<line x1="194.9" y1="402.4" x2="194.9" y2="398.4"/>
<line x1="198.7" y1="402.8" x2="198.7" y2="398.0"/>
<line x1="202.6" y1="403.2" x2="202.6" y2="397.6"/>
<line x1="204.1" y1="400.4" x2="204.1" y2="362.0"/>
<line x1="204.1" y1="400.4" x2="237.3" y2="419.6"/>
<line x1="249.3" y1="321.4" x2="250.0" y2="321.8"/>
<line x1="247.0" y1="324.5" x2="248.4" y2="325.3"/>
<line x1="244.8" y1="327.6" x2="246.8" y2="328.8"/>
<line x1="242.5" y1="330.7" x2="245.3" y2="332.3"/>
<line x1="240.2" y1="333.9" x2="243.7" y2="335.9"/>
<line x1="238.0" y1="337.0" x2="242.1" y2="339.4"/>
<line x1="235.7" y1="340.1" x2="240.5" y2="342.9"/>
<line x1="237.3" y1="342.8" x2="204.1" y2="362.0"/>
<line x1="237.3" y1="342.8" x2="286.6" y2="371.3"/>
<line x1="211.1" y1="517.1" x2="211.5" y2="517.8"/>
<line x1="207.6" y1="518.6" x2="208.4" y2="520.0"/>
<line x1="204.1" y1="520.2" x2="205.3" y2="522.3"/>
<line x1="200.5" y1="521.8" x2="202.1" y2="524.6"/>
<line x1="197.0" y1="523.4" x2="199.0" y2="526.8"/>
<line x1="193.5" y1="524.9" x2="195.9" y2="529.1"/>
<line x1="190.0" y1="526.5" x2="192.8" y2="531.4"/>
<line x1="190.0" y1="529.7" x2="170.8" y2="496.4"/>
<line x1="190.0" y1="529.7" x2="175.8" y2="554.3"/>
<line x1="627.7" y1="476.8" x2="627.7" y2="477.6"/>
<line x1="623.9" y1="476.4" x2="623.9" y2="478.0"/>
<line x1="620.0" y1="476.0" x2="620.0" y2="478.4"/>
<line x1="616.2" y1="475.6" x2="616.2" y2="478.8"/>
<line x1="612.4" y1="475.2" x2="612.4" y2="479.2"/>
<line x1="608.5" y1="474.8" x2="608.5" y2="479.6"/>
<line x1="604.7" y1="474.4" x2="604.7" y2="480.0"/>
<line x1="603.2" y1="477.2" x2="603.2" y2="438.8"/>
<line x1="603.2" y1="477.2" x2="617.4" y2="501.9"/>
<polygon points="516.250134 518.730402 506.850236 494.449300 499.922033 498.449300 " />
<line x1="503.4" y1="496.4" x2="470.1" y2="515.6"/>
<line x1="503.4" y1="496.4" x2="528.0" y2="482.2"/>
<line x1="389.6" y1="424.8" x2="356.3" y2="405.6"/>
<line x1="132.0" y1="251.2" x2="132.0" y2="212.8"/>
<line x1="90.3" y1="341.4" x2="112.8" y2="310.3"/>
<polygon points="515.546152 340.061368 500.182136 319.040498 494.525282 324.697352 " />
<polygon points="235.698326 209.963124 261.426326 213.963124 261.426326 205.963124 " />
<line x1="500.8" y1="431.4" x2="486.6" y2="406.8"/>
<line x1="506.0" y1="428.4" x2="491.8" y2="403.8"/>
<line x1="503.4" y1="429.9" x2="531.8" y2="429.9"/>
<line x1="403.6" y1="515.6" x2="370.4" y2="496.4"/>
<line x1="158.2" y1="475.4" x2="158.9" y2="475.0"/>
<line x1="159.8" y1="478.9" x2="161.2" y2="478.1"/>
<line x1="161.3" y1="482.4" x2="163.4" y2="481.2"/>
<line x1="162.9" y1="485.9" x2="165.7" y2="484.3"/>
<line x1="164.5" y1="489.5" x2="168.0" y2="487.5"/>
<line x1="166.1" y1="493.0" x2="170.2" y2="490.6"/>
<line x1="167.6" y1="496.5" x2="172.5" y2="493.7"/>
<line x1="170.8" y1="496.4" x2="137.6" y2="515.6"/>
<line x1="170.8" y1="496.4" x2="220.1" y2="468.0"/>
<polygon points="324.245257 461.130402 340.573358 440.849300 333.645155 436.849300 " />
<line x1="337.1" y1="438.8" x2="356.3" y2="405.6"/>
<line x1="337.1" y1="438.8" x2="303.9" y2="419.6"/>
<line x1="337.1" y1="438.8" x2="361.7" y2="453.1"/>
<polygon points="178.359755 362.049300 204.087755 366.049300 204.087755 358.049300 " />
<line x1="204.1" y1="362.0" x2="189.9" y2="337.4"/>
<polygon points="512.266397 278.118477 486.379781 280.913670 488.450334 288.641076 " />
<line x1="487.4" y1="284.8" x2="494.8" y2="257.3"/>
<line x1="282.0" y1="169.7" x2="282.7" y2="169.3"/>
<line x1="283.6" y1="173.2" x2="285.0" y2="172.4"/>
<line x1="285.2" y1="176.7" x2="287.3" y2="175.5"/>
<line x1="286.8" y1="180.3" x2="289.5" y2="178.7"/>
<line x1="288.3" y1="183.8" x2="291.8" y2="181.8"/>
<line x1="289.9" y1="187.3" x2="294.1" y2="184.9"/>
<line x1="291.5" y1="190.8" x2="296.3" y2="188.0"/>
<line x1="294.7" y1="190.8" x2="308.9" y2="166.2"/>
<line x1="456.3" y1="251.0" x2="457.1" y2="251.2"/>
<line x1="454.9" y1="254.6" x2="456.5" y2="255.0"/>
<line x1="453.5" y1="258.2" x2="455.9" y2="258.8"/>
<line x1="452.2" y1="261.8" x2="455.2" y2="262.6"/>
<line x1="450.8" y1="265.4" x2="454.6" y2="266.5"/>
<line x1="449.4" y1="269.0" x2="454.0" y2="270.3"/>
<line x1="448.0" y1="272.6" x2="453.4" y2="274.1"/>
<line x1="450.3" y1="274.8" x2="430.2" y2="254.7"/>
<polygon points="353.665077 248.363124 327.937077 244.363124 327.937077 252.363124 " />
<line x1="327.9" y1="248.4" x2="342.1" y2="273.0"/>
<line x1="334.8" y1="393.7" x2="335.2" y2="393.0"/>
<line x1="338.0" y1="395.9" x2="338.8" y2="394.5"/>
<line x1="341.1" y1="398.2" x2="342.3" y2="396.1"/>
<line x1="344.2" y1="400.5" x2="345.8" y2="397.7"/>
<line x1="347.3" y1="402.7" x2="349.3" y2="399.3"/>
<line x1="350.5" y1="405.0" x2="352.9" y2="400.8"/>
<line x1="353.6" y1="407.3" x2="356.4" y2="402.4"/>
<line x1="356.3" y1="405.6" x2="384.7" y2="356.4"/>
<polygon points="340.801077 187.682022 324.472975 207.963124 331.401178 211.963124 " />
<line x1="327.9" y1="210.0" x2="356.4" y2="210.0"/>
<line x1="405.5" y1="284.9" x2="406.1" y2="284.3"/>
<line x1="407.9" y1="287.9" x2="409.1" y2="286.8"/>
<line x1="410.4" y1="290.9" x2="412.1" y2="289.2"/>
<line x1="412.8" y1="293.9" x2="415.1" y2="291.6"/>
<line x1="415.2" y1="296.9" x2="418.1" y2="294.1"/>
<line x1="417.7" y1="299.9" x2="421.1" y2="296.5"/>
<line x1="420.1" y1="302.9" x2="424.1" y2="298.9"/>
<line x1="423.2" y1="302.0" x2="368.3" y2="316.7"/>
<line x1="439.9" y1="573.2" x2="439.9" y2="601.7"/>
<line x1="433.9" y1="573.2" x2="433.9" y2="601.7"/>
<line x1="601.7" y1="441.4" x2="577.0" y2="427.2"/>
<line x1="604.7" y1="436.3" x2="580.0" y2="422.0"/>
<line x1="603.2" y1="438.8" x2="627.8" y2="424.6"/>
<line x1="240.3" y1="419.6" x2="240.3" y2="448.1"/>
<line x1="234.3" y1="419.6" x2="234.3" y2="448.1"/>
<line x1="237.3" y1="419.6" x2="262.0" y2="405.4"/>
<line x1="130.5" y1="210.2" x2="155.1" y2="196.0"/>
<line x1="133.5" y1="215.4" x2="158.1" y2="201.2"/>
<line x1="132.0" y1="212.8" x2="107.4" y2="198.6"/>
<line x1="136.1" y1="518.2" x2="111.5" y2="504.0"/>
<line x1="139.1" y1="513.1" x2="114.5" y2="498.8"/>
<line x1="137.6" y1="515.6" x2="137.6" y2="544.1"/>
<line x1="367.4" y1="496.4" x2="367.4" y2="468.0"/>
<line x1="373.4" y1="496.4" x2="373.4" y2="468.0"/>
<line x1="370.4" y1="496.4" x2="345.8" y2="510.7"/>
<line x1="300.9" y1="419.6" x2="300.9" y2="391.2"/>
<line x1="306.9" y1="419.6" x2="306.9" y2="391.2"/>
<line x1="303.9" y1="419.6" x2="279.2" y2="433.9"/>
<line x1="272.1" y1="277.3" x2="271.8" y2="276.6"/>
<line x1="275.8" y1="276.2" x2="275.2" y2="274.8"/>
<line x1="279.5" y1="275.1" x2="278.6" y2="272.9"/>
<line x1="283.2" y1="274.0" x2="282.0" y2="271.1"/>
<line x1="286.9" y1="272.9" x2="285.4" y2="269.2"/>
<line x1="290.6" y1="271.8" x2="288.8" y2="267.4"/>
<line x1="294.3" y1="270.7" x2="292.2" y2="265.6"/>
<line x1="294.7" y1="267.6" x2="334.9" y2="307.7"/>
<line x1="442.9" y1="361.6" x2="442.1" y2="361.9"/>
<line x1="441.8" y1="357.9" x2="440.3" y2="358.5"/>
<line x1="440.7" y1="354.2" x2="438.5" y2="355.2"/>
<line x1="439.6" y1="350.5" x2="436.6" y2="351.8"/>
<line x1="438.5" y1="346.8" x2="434.8" y2="348.4"/>
<line x1="437.4" y1="343.1" x2="432.9" y2="345.0"/>
<line x1="436.3" y1="339.4" x2="431.1" y2="341.6"/>
<line x1="433.1" y1="339.1" x2="404.7" y2="339.1"/>
<line x1="385.5" y1="173.7" x2="414.0" y2="173.7"/>
<line x1="385.5" y1="179.7" x2="414.0" y2="179.7"/>
<line x1="385.5" y1="176.7" x2="371.3" y2="152.1"/>
<line x1="385.5" y1="176.7" x2="371.3" y2="201.3"/>
<line x1="112.8" y1="310.3" x2="141.3" y2="310.3"/>
<line x1="154.3" y1="300.8" x2="163.1" y2="273.8"/>
<line x1="163.1" y1="273.8" x2="132.0" y2="251.2"/>
<line x1="154.0" y1="276.1" x2="132.7" y2="260.6"/>
<line x1="132.0" y1="251.2" x2="109.0" y2="267.9"/>
<line x1="104.1" y1="283.3" x2="112.8" y2="310.3"/>
<line x1="111.6" y1="283.1" x2="117.8" y2="302.4"/>
<line x1="71.1" y1="400.4" x2="48.1" y2="383.7"/>
<line x1="43.1" y1="368.4" x2="51.9" y2="341.4"/>
<line x1="51.9" y1="341.4" x2="90.3" y2="341.4"/>
<line x1="57.9" y1="348.6" x2="84.3" y2="348.6"/>
<line x1="90.3" y1="341.4" x2="99.0" y2="368.4"/>
<line x1="94.1" y1="383.7" x2="71.1" y2="400.4"/>
<line x1="88.1" y1="379.2" x2="71.7" y2="391.1"/>
<line x1="393.6" y1="463.0" x2="389.6" y2="424.8"/>
<line x1="400.1" y1="456.3" x2="397.4" y2="430.0"/>
<line x1="389.6" y1="424.8" x2="415.5" y2="413.2"/>
<line x1="431.3" y1="416.6" x2="450.3" y2="437.7"/>
<line x1="450.3" y1="437.7" x2="436.1" y2="462.3"/>
<line x1="441.1" y1="439.3" x2="431.0" y2="456.9"/>
<line x1="421.4" y1="468.9" x2="393.6" y2="463.0"/>
<line x1="450.3" y1="274.8" x2="423.2" y2="302.0"/>
<line x1="423.2" y1="302.0" x2="433.1" y2="339.1"/>
<line x1="433.1" y1="339.1" x2="460.6" y2="346.4"/>
<line x1="477.3" y1="342.0" x2="497.4" y2="321.9"/>
<line x1="497.4" y1="321.9" x2="487.4" y2="284.8"/>
<line x1="487.4" y1="284.8" x2="450.3" y2="274.8"/>
<line x1="327.9" y1="248.4" x2="294.7" y2="267.6"/>
<line x1="294.7" y1="267.6" x2="270.1" y2="253.4"/>
<line x1="261.4" y1="238.4" x2="261.4" y2="210.0"/>
<line x1="261.4" y1="210.0" x2="294.7" y2="190.8"/>
<line x1="294.7" y1="190.8" x2="327.9" y2="210.0"/>
<line x1="327.9" y1="210.0" x2="327.9" y2="248.4"/>
<line x1="403.6" y1="554.0" x2="403.6" y2="515.6"/>
<line x1="410.8" y1="548.0" x2="410.8" y2="521.6"/>
<line x1="403.6" y1="515.6" x2="428.2" y2="501.4"/>
<line x1="445.5" y1="501.4" x2="470.1" y2="515.6"/>
<line x1="443.8" y1="508.8" x2="461.3" y2="518.9"/>
<line x1="470.1" y1="515.6" x2="470.1" y2="544.1"/>
<line x1="461.5" y1="559.0" x2="436.9" y2="573.2"/>
<line x1="436.9" y1="573.2" x2="403.6" y2="554.0"/>
<text x="346.764632" y="578.049300" fill="rgb(102,102,102)"  stroke="rgb(102,102,102)" stroke-width="1" font-size="16" >H</text>
<text x="358.764632" y="582.849300" fill="rgb(102,102,102)"  stroke="rgb(102,102,102)" stroke-width="1" font-size="13" >3</text>
<text x="365.264632" y="578.049300" fill="rgb(102,102,102)"  stroke="rgb(102,102,102)" stroke-width="1" font-size="16" >C</text>
<text x="161.287755" y="438.504676" fill="rgb(102,102,102)"  stroke="rgb(102,102,102)" stroke-width="1" font-size="16" >H</text>
<text x="173.287755" y="443.304676" fill="rgb(102,102,102)"  stroke="rgb(102,102,102)" stroke-width="1" font-size="13" >3</text>
<text x="179.787755" y="438.504676" fill="rgb(102,102,102)"  stroke="rgb(102,102,102)" stroke-width="1" font-size="16" >C</text>
<text x="194.543130" y="317.913925" fill="rgb(102,102,102)"  stroke="rgb(102,102,102)" stroke-width="1" font-size="16" >H</text>
<text x="206.543130" y="325.593925" fill="rgb(102,102,102)"  stroke="rgb(102,102,102)" stroke-width="1" font-size="13" >3</text>
<text x="213.043130" y="317.913925" fill="rgb(102,102,102)"  stroke="rgb(102,102,102)" stroke-width="1" font-size="16" >C</text>
<text x="217.287755" y="553.704676" fill="rgb(102,102,102)"  stroke="rgb(102,102,102)" stroke-width="1" font-size="16" >CH</text>
<text x="241.287755" y="558.504676" fill="rgb(102,102,102)"  stroke="rgb(102,102,102)" stroke-width="1" font-size="13" >3</text>
<text x="41.926455" y="102.400000" fill="rgb(102,102,102)"  stroke="rgb(102,102,102)" stroke-width="1" font-size="16" >H</text>
<text x="53.926455" y="107.200000" fill="rgb(102,102,102)"  stroke="rgb(102,102,102)" stroke-width="1" font-size="13" >3</text>
<text x="60.426455" y="102.400000" fill="rgb(102,102,102)"  stroke="rgb(102,102,102)" stroke-width="1" font-size="16" >C</text>
<text x="92.781831" y="48.320000" fill="rgb(102,102,102)"  stroke="rgb(102,102,102)" stroke-width="1" font-size="16" >CH</text>
<text x="116.781831" y="56.000000" fill="rgb(102,102,102)"  stroke="rgb(102,102,102)" stroke-width="1" font-size="13" >3</text>
<text x="616.352261" y="515.304676" fill="rgb(12,12,255)"  stroke="rgb(12,12,255)" stroke-width="1" font-size="16" >NH</text>
<text x="640.352261" y="520.104676" fill="rgb(12,12,255)"  stroke="rgb(12,12,255)" stroke-width="1" font-size="13" >2</text>
<text x="468.586134" y="405.003174" fill="rgb(12,12,255)"  stroke="rgb(12,12,255)" stroke-width="1" font-size="16" >HN</text>
<text x="430.875383" y="616.449300" fill="rgb(12,12,255)"  stroke="rgb(12,12,255)" stroke-width="1" font-size="16" >NH</text>
<text x="554.296885" y="427.969300" fill="rgb(12,12,255)"  stroke="rgb(12,12,255)" stroke-width="1" font-size="16" >HN</text>
<text x="417.937077" y="181.507749" fill="rgb(12,12,255)"  stroke="rgb(12,12,255)" stroke-width="1" font-size="16" >NH</text>
<text x="425.139393" y="475.767375" fill="rgb(12,12,255)"  stroke="rgb(12,12,255)" stroke-width="1" font-size="16" >N</text>
<text x="159.292582" y="198.400000" fill="rgb(12,12,255)"  stroke="rgb(12,12,255)" stroke-width="1" font-size="16" >N</text>
<text x="100.721628" y="501.249300" fill="rgb(12,12,255)"  stroke="rgb(12,12,255)" stroke-width="1" font-size="16" >N</text>
<text x="530.641510" y="485.569300" fill="rgb(12,12,255)"  stroke="rgb(12,12,255)" stroke-width="1" font-size="16" >NH</text>
<text x="418.644778" y="417.495238" fill="rgb(12,12,255)"  stroke="rgb(12,12,255)" stroke-width="1" font-size="16" >NH</text>
<text x="297.853881" y="389.569300" fill="rgb(12,12,255)"  stroke="rgb(12,12,255)" stroke-width="1" font-size="16" >N</text>
<text x="96.132505" y="382.678347" fill="rgb(12,12,255)"  stroke="rgb(12,12,255)" stroke-width="1" font-size="16" >N</text>
<text x="97.370954" y="282.090954" fill="rgb(12,12,255)"  stroke="rgb(12,12,255)" stroke-width="1" font-size="16" >N</text>
<text x="430.875383" y="504.769300" fill="rgb(12,12,255)"  stroke="rgb(12,12,255)" stroke-width="1" font-size="16" >N</text>
<text x="231.343130" y="466.369300" fill="rgb(12,12,255)"  stroke="rgb(12,12,255)" stroke-width="1" font-size="16" >N</text>
<text x="364.364632" y="466.369300" fill="rgb(12,12,255)"  stroke="rgb(12,12,255)" stroke-width="1" font-size="16" >N</text>
<text x="464.130759" y="558.849300" fill="rgb(12,12,255)"  stroke="rgb(12,12,255)" stroke-width="1" font-size="16" >NH</text>
<text x="555.598161" y="343.883174" fill="rgb(255,12,12)"  stroke="rgb(255,12,12)" stroke-width="1" font-size="16" >OH</text>
<text x="188.226326" y="185.027749" fill="rgb(255,12,12)"  stroke="rgb(255,12,12)" stroke-width="1" font-size="16" >HO</text>
<text x="155.232379" y="567.760051" fill="rgb(255,12,12)"  stroke="rgb(255,12,12)" stroke-width="1" font-size="16" >HO</text>
<text x="535.786134" y="434.738549" fill="rgb(255,12,12)"  stroke="rgb(255,12,12)" stroke-width="1" font-size="16" >OH</text>
<text x="169.287755" y="337.113925" fill="rgb(255,12,12)"  stroke="rgb(255,12,12)" stroke-width="1" font-size="16" >HO</text>
<text x="491.353709" y="256.005821" fill="rgb(255,12,12)"  stroke="rgb(255,12,12)" stroke-width="1" font-size="16" >OH</text>
<text x="307.881701" y="165.827749" fill="rgb(255,12,12)"  stroke="rgb(255,12,12)" stroke-width="1" font-size="16" >OH</text>
<text x="407.570605" y="256.005821" fill="rgb(255,12,12)"  stroke="rgb(255,12,12)" stroke-width="1" font-size="16" >HO</text>
<text x="341.137077" y="286.418500" fill="rgb(255,12,12)"  stroke="rgb(255,12,12)" stroke-width="1" font-size="16" >OH</text>
<text x="630.407636" y="427.969300" fill="rgb(255,12,12)"  stroke="rgb(255,12,12)" stroke-width="1" font-size="16" >OH</text>
<text x="264.598506" y="408.769300" fill="rgb(255,12,12)"  stroke="rgb(255,12,12)" stroke-width="1" font-size="16" >OH</text>
<text x="83.181831" y="201.920000" fill="rgb(255,12,12)"  stroke="rgb(255,12,12)" stroke-width="1" font-size="16" >HO</text>
<text x="131.577004" y="558.849300" fill="rgb(255,12,12)"  stroke="rgb(255,12,12)" stroke-width="1" font-size="16" >OH</text>
<text x="321.509257" y="520.449300" fill="rgb(255,12,12)"  stroke="rgb(255,12,12)" stroke-width="1" font-size="16" >HO</text>
<text x="254.998506" y="443.649300" fill="rgb(255,12,12)"  stroke="rgb(255,12,12)" stroke-width="1" font-size="16" >HO</text>
<text x="350.737077" y="151.772373" fill="rgb(255,12,12)"  stroke="rgb(255,12,12)" stroke-width="1" font-size="16" >HO</text>
<text x="257.826326" y="253.163124" fill="rgb(255,12,12)"  stroke="rgb(255,12,12)" stroke-width="1" font-size="16" >O</text>
<text x="464.200808" y="353.821825" fill="rgb(255,12,12)"  stroke="rgb(255,12,12)" stroke-width="1" font-size="16" >O</text>
<text x="388.709257" y="347.403174" fill="rgb(255,12,12)"  stroke="rgb(255,12,12)" stroke-width="1" font-size="16" >O</text>
<text x="345.387502" y="326.668925" fill="rgb(255,12,12)"  stroke="rgb(255,12,12)" stroke-width="1" font-size="16" >O</text>
<text x="360.337077" y="214.763124" fill="rgb(255,12,12)"  stroke="rgb(255,12,12)" stroke-width="1" font-size="16" >O</text>
<text x="36.400000" y="382.678347" fill="rgb(178,178,0)"  stroke="rgb(178,178,0)" stroke-width="1" font-size="16" >S</text>
<text x="145.237206" y="315.091524" fill="rgb(178,178,0)"  stroke="rgb(178,178,0)" stroke-width="1" font-size="16" >S</text>
<text x="93.981831" y="72.000000" fill="rgb(178,178,0)"  stroke="rgb(178,178,0)" stroke-width="1" font-size="16" >+</text>
<text x="92.781831" y="86.720000" fill="rgb(178,178,0)"  stroke="rgb(178,178,0)" stroke-width="1" font-size="16" >S</text>
<text x="162.087755" y="408.769300" fill="rgb(191,191,191)"  stroke="rgb(191,191,191)" stroke-width="1" font-size="16" >H</text>
<text x="250.543130" y="317.913925" fill="rgb(191,191,191)"  stroke="rgb(191,191,191)" stroke-width="1" font-size="16" >H</text>
<text x="217.287755" y="518.824676" fill="rgb(191,191,191)"  stroke="rgb(191,191,191)" stroke-width="1" font-size="16" >H</text>
<text x="635.552261" y="482.049300" fill="rgb(191,191,191)"  stroke="rgb(191,191,191)" stroke-width="1" font-size="16" >H</text>
<text x="516.586134" y="534.504676" fill="rgb(191,191,191)"  stroke="rgb(191,191,191)" stroke-width="1" font-size="16" >H</text>
<text x="518.506609" y="353.821825" fill="rgb(191,191,191)"  stroke="rgb(191,191,191)" stroke-width="1" font-size="16" >H</text>
<text x="219.426326" y="218.283124" fill="rgb(191,191,191)"  stroke="rgb(191,191,191)" stroke-width="1" font-size="16" >H</text>
<text x="148.032379" y="471.513925" fill="rgb(191,191,191)"  stroke="rgb(191,191,191)" stroke-width="1" font-size="16" >H</text>
<text x="314.309257" y="476.904676" fill="rgb(191,191,191)"  stroke="rgb(191,191,191)" stroke-width="1" font-size="16" >H</text>
<text x="162.087755" y="366.849300" fill="rgb(191,191,191)"  stroke="rgb(191,191,191)" stroke-width="1" font-size="16" >H</text>
<text x="518.506609" y="283.158722" fill="rgb(191,191,191)"  stroke="rgb(191,191,191)" stroke-width="1" font-size="16" >H</text>
<text x="271.881701" y="165.827749" fill="rgb(191,191,191)"  stroke="rgb(191,191,191)" stroke-width="1" font-size="16" >H</text>
<text x="454.262157" y="246.067170" fill="rgb(191,191,191)"  stroke="rgb(191,191,191)" stroke-width="1" font-size="16" >H</text>
<text x="360.337077" y="253.163124" fill="rgb(191,191,191)"  stroke="rgb(191,191,191)" stroke-width="1" font-size="16" >H</text>
<text x="319.453881" y="394.713925" fill="rgb(191,191,191)"  stroke="rgb(191,191,191)" stroke-width="1" font-size="16" >H</text>
<text x="341.137077" y="185.027749" fill="rgb(191,191,191)"  stroke="rgb(191,191,191)" stroke-width="1" font-size="16" >H</text>
<text x="392.417705" y="283.158722" fill="rgb(191,191,191)"  stroke="rgb(191,191,191)" stroke-width="1" font-size="16" >H</text>
<text x="255.604727" y="287.058168" fill="rgb(191,191,191)"  stroke="rgb(191,191,191)" stroke-width="1" font-size="16" >H</text>
<text x="441.804300" y="379.360148" fill="rgb(191,191,191)"  stroke="rgb(191,191,191)" stroke-width="1" font-size="16" >H</text>
<text font-size="18.000000" fill ="black" font-family="sans-serif"
x="140.000000" y="20.000000" ></text>
<title> - OBDepict</title>
</svg>
