<?xml version="1.0"?>
<svg xmlns="http://www.w3.org/2000/svg"
xmlns:xlink="http://www.w3.org/1999/xlink" xmlns:cml="http://www.xml-cml.org/schema" width="884.927" height="476.904" x="0" y="0" font-family="sans-serif" stroke="rgb(0,0,0)" stroke-width="1" >
<line x1="820.6" y1="428.6" x2="837.8" y2="405.0"/>
<line x1="158.6" y1="344.0" x2="174.5" y2="319.5"/>
<line x1="187.8" y1="345.5" x2="174.5" y2="319.5"/>
<line x1="837.8" y1="405.0" x2="821.7" y2="368.9"/>
<line x1="821.7" y1="368.9" x2="838.9" y2="345.3"/>
<line x1="821.4" y1="371.9" x2="782.1" y2="367.8"/>
<line x1="822.0" y1="365.9" x2="782.8" y2="361.8"/>
<line x1="782.5" y1="364.8" x2="765.3" y2="388.4"/>
<line x1="782.5" y1="364.8" x2="766.4" y2="328.7"/>
<line x1="619.4" y1="323.1" x2="652.5" y2="344.6"/>
<line x1="619.4" y1="323.1" x2="584.2" y2="341.0"/>
<line x1="652.5" y1="344.6" x2="687.7" y2="326.6"/>
<line x1="766.4" y1="328.7" x2="727.1" y2="324.6"/>
<line x1="584.2" y1="341.0" x2="551.1" y2="319.5"/>
<line x1="346.3" y1="308.7" x2="311.1" y2="326.7"/>
<line x1="346.3" y1="308.7" x2="379.4" y2="330.3"/>
<line x1="311.1" y1="326.7" x2="286.6" y2="310.8"/>
<line x1="447.7" y1="333.8" x2="482.8" y2="315.9"/>
<line x1="447.7" y1="333.8" x2="423.2" y2="317.9"/>
<line x1="482.8" y1="315.9" x2="507.3" y2="331.8"/>
<line x1="184.4" y1="231.8" x2="188.5" y2="152.9"/>
<line x1="184.4" y1="231.8" x2="158.4" y2="245.1"/>
<line x1="141.4" y1="298.0" x2="174.5" y2="319.5"/>
<line x1="141.4" y1="298.0" x2="115.4" y2="311.3"/>
<line x1="687.7" y1="326.6" x2="686.2" y2="355.8"/>
<line x1="727.1" y1="324.6" x2="718.4" y2="352.4"/>
<line x1="736.3" y1="283.6" x2="763.6" y2="273.2"/>
<line x1="738.4" y1="289.2" x2="765.7" y2="278.8"/>
<polygon points="162.925212 146.323932 187.537620 156.808917 189.537310 149.062870 " />
<line x1="378.0" y1="327.6" x2="404.0" y2="314.3"/>
<line x1="380.7" y1="332.9" x2="406.8" y2="319.7"/>
<line x1="379.4" y1="330.3" x2="377.8" y2="359.4"/>
<line x1="548.1" y1="319.3" x2="549.7" y2="290.2"/>
<line x1="554.1" y1="319.6" x2="555.7" y2="290.5"/>
<line x1="551.1" y1="319.5" x2="525.1" y2="332.7"/>
<line x1="212.3" y1="73.7" x2="213.1" y2="73.5"/>
<line x1="213.1" y1="77.6" x2="214.7" y2="77.1"/>
<line x1="214.0" y1="81.5" x2="216.3" y2="80.7"/>
<line x1="214.8" y1="85.3" x2="217.9" y2="84.4"/>
<line x1="215.6" y1="89.2" x2="219.5" y2="88.0"/>
<line x1="216.5" y1="93.1" x2="221.1" y2="91.6"/>
<line x1="217.3" y1="97.0" x2="222.7" y2="95.2"/>
<line x1="220.5" y1="97.6" x2="240.0" y2="75.9"/>
<line x1="159.1" y1="114.1" x2="159.1" y2="113.3"/>
<line x1="163.1" y1="114.5" x2="163.1" y2="112.9"/>
<line x1="167.0" y1="114.9" x2="167.0" y2="112.5"/>
<line x1="171.0" y1="115.3" x2="171.0" y2="112.1"/>
<line x1="174.9" y1="115.7" x2="174.9" y2="111.7"/>
<line x1="178.9" y1="116.1" x2="178.9" y2="111.3"/>
<line x1="182.8" y1="116.5" x2="182.8" y2="110.9"/>
<line x1="184.4" y1="113.7" x2="169.8" y2="88.4"/>
<line x1="197.9" y1="279.3" x2="198.6" y2="278.9"/>
<line x1="199.3" y1="283.0" x2="200.7" y2="282.2"/>
<line x1="200.7" y1="286.7" x2="202.9" y2="285.6"/>
<line x1="202.2" y1="290.4" x2="205.0" y2="288.9"/>
<line x1="203.6" y1="294.1" x2="207.2" y2="292.2"/>
<line x1="205.0" y1="297.8" x2="209.3" y2="295.6"/>
<line x1="206.5" y1="301.5" x2="211.5" y2="298.9"/>
<line x1="209.7" y1="301.6" x2="242.8" y2="323.1"/>
<line x1="209.7" y1="301.6" x2="174.5" y2="319.5"/>
<line x1="209.7" y1="301.6" x2="225.6" y2="277.1"/>
<line x1="384.0" y1="137.5" x2="405.8" y2="157.0"/>
<line x1="241.4" y1="320.4" x2="267.5" y2="307.2"/>
<line x1="244.2" y1="325.8" x2="270.2" y2="312.5"/>
<line x1="242.8" y1="323.1" x2="241.3" y2="352.3"/>
<polygon points="268.295576 111.405157 244.544360 123.717154 249.246642 130.189290 " />
<line x1="246.9" y1="127.0" x2="273.6" y2="138.8"/>
<line x1="125.2" y1="108.7" x2="125.2" y2="89.7"/>
<line x1="96.0" y1="79.5" x2="114.9" y2="79.5"/>
<line x1="128.2" y1="50.3" x2="128.2" y2="69.2"/>
<line x1="122.2" y1="50.3" x2="122.2" y2="69.2"/>
<line x1="91.6" y1="212.3" x2="107.5" y2="222.6"/>
<line x1="134.5" y1="205.3" x2="124.2" y2="221.2"/>
<line x1="129.5" y1="202.1" x2="119.2" y2="218.0"/>
<line x1="57.2" y1="318.9" x2="67.5" y2="303.0"/>
<line x1="50.2" y1="276.0" x2="66.1" y2="286.3"/>
<line x1="47.0" y1="281.0" x2="62.9" y2="291.4"/>
<line x1="140.6" y1="244.1" x2="124.7" y2="233.8"/>
<line x1="97.6" y1="310.3" x2="81.7" y2="300.0"/>
<line x1="154.4" y1="79.5" x2="135.5" y2="79.5"/>
<line x1="100.2" y1="252.7" x2="110.5" y2="236.8"/>
<line x1="89.0" y1="269.9" x2="78.7" y2="285.8"/>
<line x1="687.7" y1="326.6" x2="673.6" y2="289.8"/>
<line x1="673.6" y1="289.8" x2="704.2" y2="264.9"/>
<line x1="704.2" y1="264.9" x2="737.4" y2="286.4"/>
<line x1="737.4" y1="286.4" x2="727.1" y2="324.6"/>
<line x1="727.1" y1="324.6" x2="687.7" y2="326.6"/>
<line x1="291.2" y1="181.6" x2="285.1" y2="153.1"/>
<line x1="291.9" y1="137.9" x2="317.2" y2="123.3"/>
<line x1="317.2" y1="123.3" x2="346.5" y2="149.7"/>
<line x1="346.5" y1="149.7" x2="334.6" y2="176.4"/>
<line x1="320.2" y1="184.7" x2="291.2" y2="181.6"/>
<line x1="318.9" y1="177.3" x2="297.9" y2="175.1"/>
<line x1="188.5" y1="152.9" x2="184.4" y2="113.7"/>
<line x1="184.4" y1="113.7" x2="220.5" y2="97.6"/>
<line x1="220.5" y1="97.6" x2="246.9" y2="127.0"/>
<line x1="246.9" y1="127.0" x2="232.3" y2="152.3"/>
<line x1="217.1" y1="159.0" x2="188.5" y2="152.9"/>
<line x1="317.2" y1="123.3" x2="323.2" y2="94.7"/>
<line x1="325.4" y1="118.9" x2="329.8" y2="98.2"/>
<line x1="335.1" y1="81.5" x2="362.9" y2="72.5"/>
<line x1="362.9" y1="72.5" x2="384.6" y2="92.0"/>
<line x1="362.6" y1="81.8" x2="378.3" y2="96.0"/>
<line x1="390.1" y1="108.9" x2="384.0" y2="137.5"/>
<line x1="384.0" y1="137.5" x2="346.5" y2="149.7"/>
<line x1="376.1" y1="132.5" x2="350.0" y2="141.0"/>
<text x="790.973277" y="441.704163" fill="rgb(102,102,102)"  stroke="rgb(102,102,102)" stroke-width="1" font-size="16" >H</text>
<text x="802.973277" y="446.504163" fill="rgb(102,102,102)"  stroke="rgb(102,102,102)" stroke-width="1" font-size="13" >3</text>
<text x="809.473277" y="441.704163" fill="rgb(102,102,102)"  stroke="rgb(102,102,102)" stroke-width="1" font-size="16" >C</text>
<text x="129.408217" y="357.424800" fill="rgb(102,102,102)"  stroke="rgb(102,102,102)" stroke-width="1" font-size="16" >H</text>
<text x="141.408217" y="362.224800" fill="rgb(102,102,102)"  stroke="rgb(102,102,102)" stroke-width="1" font-size="13" >3</text>
<text x="147.908217" y="357.424800" fill="rgb(102,102,102)"  stroke="rgb(102,102,102)" stroke-width="1" font-size="16" >C</text>
<text x="186.434630" y="359.491051" fill="rgb(102,102,102)"  stroke="rgb(102,102,102)" stroke-width="1" font-size="16" >CH</text>
<text x="210.434630" y="364.291051" fill="rgb(102,102,102)"  stroke="rgb(102,102,102)" stroke-width="1" font-size="13" >3</text>
<text x="407.381575" y="168.706233" fill="rgb(12,12,255)"  stroke="rgb(12,12,255)" stroke-width="1" font-size="16" >NH</text>
<text x="431.381575" y="173.506233" fill="rgb(12,12,255)"  stroke="rgb(12,12,255)" stroke-width="1" font-size="13" >2</text>
<text x="408.553900" y="320.646423" fill="rgb(12,12,255)"  stroke="rgb(12,12,255)" stroke-width="1" font-size="16" >N</text>
<text x="271.976800" y="313.488721" fill="rgb(12,12,255)"  stroke="rgb(12,12,255)" stroke-width="1" font-size="16" >N</text>
<text x="386.250293" y="107.190833" fill="rgb(12,12,255)"  stroke="rgb(12,12,255)" stroke-width="1" font-size="16" >N</text>
<text x="321.762344" y="92.973361" fill="rgb(12,12,255)"  stroke="rgb(12,12,255)" stroke-width="1" font-size="16" >N</text>
<text x="324.435452" y="190.556010" fill="rgb(12,12,255)"  stroke="rgb(12,12,255)" stroke-width="1" font-size="16" >N</text>
<text x="279.362750" y="151.331396" fill="rgb(12,12,255)"  stroke="rgb(12,12,255)" stroke-width="1" font-size="16" >N</text>
<text x="768.211064" y="280.611772" fill="rgb(255,12,12)"  stroke="rgb(255,12,12)" stroke-width="1" font-size="16" >O</text>
<text x="372.510249" y="388.876617" fill="rgb(255,12,12)"  stroke="rgb(255,12,12)" stroke-width="1" font-size="32" >-</text>
<text x="373.710249" y="374.476617" fill="rgb(255,12,12)"  stroke="rgb(255,12,12)" stroke-width="1" font-size="16" >O</text>
<text x="547.197251" y="288.377713" fill="rgb(255,12,12)"  stroke="rgb(255,12,12)" stroke-width="1" font-size="16" >O</text>
<text x="240.895501" y="76.593735" fill="rgb(255,12,12)"  stroke="rgb(255,12,12)" stroke-width="1" font-size="16" >OH</text>
<text x="225.190882" y="276.798720" fill="rgb(255,12,12)"  stroke="rgb(255,12,12)" stroke-width="1" font-size="16" >OH</text>
<text x="235.933149" y="381.718914" fill="rgb(255,12,12)"  stroke="rgb(255,12,12)" stroke-width="1" font-size="32" >-</text>
<text x="237.133149" y="367.318914" fill="rgb(255,12,12)"  stroke="rgb(255,12,12)" stroke-width="1" font-size="16" >O</text>
<text x="120.389848" y="138.161039" fill="rgb(255,12,12)"  stroke="rgb(255,12,12)" stroke-width="1" font-size="32" >-</text>
<text x="119.189848" y="123.761039" fill="rgb(255,12,12)"  stroke="rgb(255,12,12)" stroke-width="1" font-size="16" >O</text>
<text x="80.909329" y="73.080519" fill="rgb(255,12,12)"  stroke="rgb(255,12,12)" stroke-width="1" font-size="32" >-</text>
<text x="82.109329" y="87.800519" fill="rgb(255,12,12)"  stroke="rgb(255,12,12)" stroke-width="1" font-size="16" >O</text>
<text x="119.189848" y="48.320000" fill="rgb(255,12,12)"  stroke="rgb(255,12,12)" stroke-width="1" font-size="16" >O</text>
<text x="67.405264" y="215.027236" fill="rgb(255,12,12)"  stroke="rgb(255,12,12)" stroke-width="1" font-size="16" >HO</text>
<text x="131.619046" y="203.418718" fill="rgb(255,12,12)"  stroke="rgb(255,12,12)" stroke-width="1" font-size="16" >O</text>
<text x="36.008518" y="332.343317" fill="rgb(255,12,12)"  stroke="rgb(255,12,12)" stroke-width="1" font-size="16" >HO</text>
<text x="36.400000" y="281.249535" fill="rgb(255,12,12)"  stroke="rgb(255,12,12)" stroke-width="1" font-size="16" >O</text>
<text x="145.627563" y="254.512500" fill="rgb(255,12,12)"  stroke="rgb(255,12,12)" stroke-width="1" font-size="16" >O</text>
<text x="102.622299" y="320.734799" fill="rgb(255,12,12)"  stroke="rgb(255,12,12)" stroke-width="1" font-size="16" >O</text>
<text x="221.155241" y="165.944355" fill="rgb(255,12,12)"  stroke="rgb(255,12,12)" stroke-width="1" font-size="16" >O</text>
<text x="158.670368" y="87.800519" fill="rgb(255,12,12)"  stroke="rgb(255,12,12)" stroke-width="1" font-size="16" >O</text>
<text x="88.613782" y="269.641017" fill="rgb(255,12,12)"  stroke="rgb(255,12,12)" stroke-width="1" font-size="16" >O</text>
<text x="119.189848" y="84.280519" fill="rgb(255,127,0)"  stroke="rgb(255,127,0)" stroke-width="1" font-size="16" >P</text>
<text x="110.116414" y="236.529868" fill="rgb(255,127,0)"  stroke="rgb(255,127,0)" stroke-width="1" font-size="16" >P</text>
<text x="67.111150" y="299.232167" fill="rgb(255,127,0)"  stroke="rgb(255,127,0)" stroke-width="1" font-size="16" >P</text>
<text x="512.353600" y="342.207907" fill="rgb(178,178,0)"  stroke="rgb(178,178,0)" stroke-width="1" font-size="16" >S</text>
<text x="838.927237" y="345.276092" fill="rgb(191,191,191)"  stroke="rgb(191,191,191)" stroke-width="1" font-size="16" >H</text>
<text x="755.650862" y="401.510076" fill="rgb(191,191,191)"  stroke="rgb(191,191,191)" stroke-width="1" font-size="16" >H</text>
<text x="682.041850" y="370.868241" fill="rgb(191,191,191)"  stroke="rgb(191,191,191)" stroke-width="1" font-size="16" >H</text>
<text x="711.678780" y="367.033950" fill="rgb(191,191,191)"  stroke="rgb(191,191,191)" stroke-width="1" font-size="16" >H</text>
<text x="146.710222" y="151.387294" fill="rgb(191,191,191)"  stroke="rgb(191,191,191)" stroke-width="1" font-size="16" >H</text>
<text x="204.677725" y="68.385273" fill="rgb(191,191,191)"  stroke="rgb(191,191,191)" stroke-width="1" font-size="16" >H</text>
<text x="141.330108" y="121.991652" fill="rgb(191,191,191)"  stroke="rgb(191,191,191)" stroke-width="1" font-size="16" >H</text>
<text x="188.164469" y="274.732469" fill="rgb(191,191,191)"  stroke="rgb(191,191,191)" stroke-width="1" font-size="16" >H</text>
<text x="272.835912" y="112.067155" fill="rgb(191,191,191)"  stroke="rgb(191,191,191)" stroke-width="1" font-size="16" >H</text>
<text font-size="18.000000" fill ="black" font-family="sans-serif"
x="140.000000" y="20.000000" ></text>
<title> - OBDepict</title>
</svg>
