<?xml version="1.0"?>
<svg xmlns="http://www.w3.org/2000/svg"
xmlns:xlink="http://www.w3.org/1999/xlink" xmlns:cml="http://www.xml-cml.org/schema" width="876.743" height="560" x="0" y="0" font-family="sans-serif" stroke="rgb(0,0,0)" stroke-width="1" >
<line x1="802.1" y1="370.4" x2="802.1" y2="400.0"/>
<line x1="827.7" y1="414.8" x2="802.1" y2="400.0"/>
<line x1="49.0" y1="45.2" x2="74.6" y2="60.0"/>
<line x1="100.3" y1="45.2" x2="74.6" y2="60.0"/>
<line x1="430.1" y1="414.8" x2="455.7" y2="400.0"/>
<line x1="377.4" y1="285.2" x2="351.8" y2="300.0"/>
<line x1="698.2" y1="430.4" x2="698.2" y2="460.0"/>
<line x1="143.9" y1="209.6" x2="143.9" y2="180.0"/>
<line x1="559.6" y1="430.4" x2="559.6" y2="460.0"/>
<line x1="247.8" y1="269.6" x2="247.8" y2="240.0"/>
<line x1="421.1" y1="340.0" x2="421.1" y2="310.4"/>
<line x1="422.6" y1="342.6" x2="387.9" y2="362.6"/>
<line x1="419.6" y1="337.4" x2="384.9" y2="357.4"/>
<line x1="421.1" y1="340.0" x2="455.7" y2="360.0"/>
<line x1="386.4" y1="360.0" x2="386.4" y2="389.6"/>
<line x1="386.4" y1="360.0" x2="351.8" y2="340.0"/>
<line x1="767.5" y1="460.0" x2="767.5" y2="420.0"/>
<line x1="767.5" y1="460.0" x2="732.8" y2="480.0"/>
<line x1="109.3" y1="120.0" x2="74.6" y2="100.0"/>
<line x1="109.3" y1="120.0" x2="109.3" y2="160.0"/>
<line x1="490.3" y1="460.0" x2="464.7" y2="474.8"/>
<line x1="487.3" y1="460.0" x2="487.3" y2="420.0"/>
<line x1="493.3" y1="460.0" x2="493.3" y2="420.0"/>
<line x1="490.3" y1="460.0" x2="525.0" y2="480.0"/>
<line x1="317.1" y1="240.0" x2="317.1" y2="280.0"/>
<line x1="317.1" y1="240.0" x2="282.5" y2="220.0"/>
<line x1="628.9" y1="460.0" x2="663.5" y2="480.0"/>
<line x1="628.9" y1="460.0" x2="594.3" y2="480.0"/>
<line x1="213.2" y1="180.0" x2="178.6" y2="160.0"/>
<line x1="213.2" y1="180.0" x2="213.2" y2="220.0"/>
<line x1="766.0" y1="417.4" x2="800.6" y2="397.4"/>
<line x1="769.0" y1="422.6" x2="803.6" y2="402.6"/>
<line x1="71.6" y1="100.0" x2="71.6" y2="60.0"/>
<line x1="77.6" y1="100.0" x2="77.6" y2="60.0"/>
<line x1="455.7" y1="360.0" x2="481.3" y2="345.2"/>
<line x1="458.7" y1="360.0" x2="458.7" y2="400.0"/>
<line x1="452.7" y1="360.0" x2="452.7" y2="400.0"/>
<line x1="351.8" y1="340.0" x2="326.1" y2="354.8"/>
<line x1="348.8" y1="340.0" x2="348.8" y2="300.0"/>
<line x1="354.8" y1="340.0" x2="354.8" y2="300.0"/>
<line x1="732.8" y1="480.0" x2="698.2" y2="460.0"/>
<line x1="109.3" y1="160.0" x2="143.9" y2="180.0"/>
<line x1="490.3" y1="420.0" x2="516.0" y2="405.2"/>
<line x1="490.3" y1="420.0" x2="455.7" y2="400.0"/>
<line x1="317.1" y1="280.0" x2="351.8" y2="300.0"/>
<line x1="663.5" y1="480.0" x2="663.5" y2="509.6"/>
<line x1="662.0" y1="477.4" x2="696.7" y2="457.4"/>
<line x1="665.0" y1="482.6" x2="699.7" y2="462.6"/>
<line x1="178.6" y1="160.0" x2="178.6" y2="130.4"/>
<line x1="180.1" y1="162.6" x2="145.4" y2="182.6"/>
<line x1="177.1" y1="157.4" x2="142.4" y2="177.4"/>
<line x1="525.0" y1="480.0" x2="525.0" y2="509.6"/>
<line x1="523.5" y1="477.4" x2="558.1" y2="457.4"/>
<line x1="526.5" y1="482.6" x2="561.1" y2="462.6"/>
<line x1="282.5" y1="220.0" x2="282.5" y2="190.4"/>
<line x1="284.0" y1="222.6" x2="249.3" y2="242.6"/>
<line x1="281.0" y1="217.4" x2="246.3" y2="237.4"/>
<line x1="594.3" y1="480.0" x2="559.6" y2="460.0"/>
<line x1="213.2" y1="220.0" x2="247.8" y2="240.0"/>
<text x="796.102355" y="368.320000" fill="rgb(102,102,102)"  stroke="rgb(102,102,102)" stroke-width="1" font-size="16" >CH</text>
<text x="820.102355" y="376.000000" fill="rgb(102,102,102)"  stroke="rgb(102,102,102)" stroke-width="1" font-size="13" >3</text>
<text x="830.743371" y="424.800000" fill="rgb(102,102,102)"  stroke="rgb(102,102,102)" stroke-width="1" font-size="16" >CH</text>
<text x="854.743371" y="429.600000" fill="rgb(102,102,102)"  stroke="rgb(102,102,102)" stroke-width="1" font-size="13" >3</text>
<text x="16.400000" y="48.320000" fill="rgb(102,102,102)"  stroke="rgb(102,102,102)" stroke-width="1" font-size="16" >H</text>
<text x="28.400000" y="56.000000" fill="rgb(102,102,102)"  stroke="rgb(102,102,102)" stroke-width="1" font-size="13" >3</text>
<text x="34.900000" y="48.320000" fill="rgb(102,102,102)"  stroke="rgb(102,102,102)" stroke-width="1" font-size="16" >C</text>
<text x="103.282032" y="48.320000" fill="rgb(102,102,102)"  stroke="rgb(102,102,102)" stroke-width="1" font-size="16" >CH</text>
<text x="127.282032" y="56.000000" fill="rgb(102,102,102)"  stroke="rgb(102,102,102)" stroke-width="1" font-size="13" >3</text>
<text x="397.451178" y="424.800000" fill="rgb(102,102,102)"  stroke="rgb(102,102,102)" stroke-width="1" font-size="16" >H</text>
<text x="409.451178" y="429.600000" fill="rgb(102,102,102)"  stroke="rgb(102,102,102)" stroke-width="1" font-size="13" >3</text>
<text x="415.951178" y="424.800000" fill="rgb(102,102,102)"  stroke="rgb(102,102,102)" stroke-width="1" font-size="16" >C</text>
<text x="380.410162" y="288.320000" fill="rgb(102,102,102)"  stroke="rgb(102,102,102)" stroke-width="1" font-size="16" >CH</text>
<text x="404.410162" y="296.000000" fill="rgb(102,102,102)"  stroke="rgb(102,102,102)" stroke-width="1" font-size="13" >3</text>
<text x="692.179307" y="428.320000" fill="rgb(102,102,102)"  stroke="rgb(102,102,102)" stroke-width="1" font-size="16" >CH</text>
<text x="716.179307" y="436.000000" fill="rgb(102,102,102)"  stroke="rgb(102,102,102)" stroke-width="1" font-size="13" >3</text>
<text x="137.923048" y="224.800000" fill="rgb(102,102,102)"  stroke="rgb(102,102,102)" stroke-width="1" font-size="16" >CH</text>
<text x="161.923048" y="229.600000" fill="rgb(102,102,102)"  stroke="rgb(102,102,102)" stroke-width="1" font-size="13" >3</text>
<text x="553.615242" y="428.320000" fill="rgb(102,102,102)"  stroke="rgb(102,102,102)" stroke-width="1" font-size="16" >CH</text>
<text x="577.615242" y="436.000000" fill="rgb(102,102,102)"  stroke="rgb(102,102,102)" stroke-width="1" font-size="13" >3</text>
<text x="241.846097" y="284.800000" fill="rgb(102,102,102)"  stroke="rgb(102,102,102)" stroke-width="1" font-size="16" >CH</text>
<text x="265.846097" y="289.600000" fill="rgb(102,102,102)"  stroke="rgb(102,102,102)" stroke-width="1" font-size="13" >3</text>
<text x="415.051178" y="308.320000" fill="rgb(191,191,191)"  stroke="rgb(191,191,191)" stroke-width="1" font-size="16" >H</text>
<text x="380.410162" y="404.800000" fill="rgb(191,191,191)"  stroke="rgb(191,191,191)" stroke-width="1" font-size="16" >H</text>
<text x="452.092194" y="484.800000" fill="rgb(191,191,191)"  stroke="rgb(191,191,191)" stroke-width="1" font-size="16" >H</text>
<text x="484.333210" y="348.320000" fill="rgb(191,191,191)"  stroke="rgb(191,191,191)" stroke-width="1" font-size="16" >H</text>
<text x="313.528129" y="364.800000" fill="rgb(191,191,191)"  stroke="rgb(191,191,191)" stroke-width="1" font-size="16" >H</text>
<text x="518.974226" y="408.320000" fill="rgb(191,191,191)"  stroke="rgb(191,191,191)" stroke-width="1" font-size="16" >H</text>
<text x="657.538291" y="524.800000" fill="rgb(191,191,191)"  stroke="rgb(191,191,191)" stroke-width="1" font-size="16" >H</text>
<text x="172.564065" y="128.320000" fill="rgb(191,191,191)"  stroke="rgb(191,191,191)" stroke-width="1" font-size="16" >H</text>
<text x="518.974226" y="524.800000" fill="rgb(191,191,191)"  stroke="rgb(191,191,191)" stroke-width="1" font-size="16" >H</text>
<text x="276.487113" y="188.320000" fill="rgb(191,191,191)"  stroke="rgb(191,191,191)" stroke-width="1" font-size="16" >H</text>
<text font-size="18.000000" fill ="black" font-family="sans-serif"
x="140.000000" y="20.000000" ></text>
<title> - OBDepict</title>
</svg>
