<?xml version="1.0"?>
<svg xmlns="http://www.w3.org/2000/svg"
xmlns:xlink="http://www.w3.org/1999/xlink" xmlns:cml="http://www.xml-cml.org/schema" width="767.882" height="392.151" x="0" y="0" font-family="sans-serif" stroke="rgb(0,0,0)" stroke-width="1" >
<line x1="374.2" y1="237.8" x2="381.7" y2="210.1"/>
<line x1="380.0" y1="239.4" x2="387.4" y2="211.6"/>
<polygon points="468.484728 116.212161 447.962860 99.745053 443.962860 106.673256 " />
<line x1="541.7" y1="116.6" x2="541.7" y2="115.8"/>
<line x1="545.5" y1="117.0" x2="545.5" y2="115.4"/>
<line x1="549.4" y1="117.4" x2="549.4" y2="115.0"/>
<line x1="553.3" y1="117.8" x2="553.3" y2="114.6"/>
<line x1="557.2" y1="118.2" x2="557.2" y2="114.2"/>
<line x1="561.1" y1="118.6" x2="561.1" y2="113.8"/>
<line x1="564.9" y1="119.0" x2="564.9" y2="113.4"/>
<polygon points="433.839701 176.219110 466.484728 199.685528 470.484728 192.757324 " />
<line x1="139.3" y1="40.0" x2="119.3" y2="74.6"/>
<line x1="139.3" y1="40.0" x2="168.9" y2="40.0"/>
<line x1="143.3" y1="313.5" x2="171.6" y2="285.2"/>
<line x1="143.3" y1="313.5" x2="151.0" y2="342.1"/>
<line x1="690.4" y1="258.4" x2="662.9" y2="231.0"/>
<line x1="690.4" y1="258.4" x2="683.0" y2="286.2"/>
<line x1="295.3" y1="66.9" x2="295.3" y2="106.9"/>
<line x1="295.3" y1="66.9" x2="269.6" y2="52.1"/>
<line x1="119.3" y1="74.6" x2="60.6" y2="66.9"/>
<line x1="171.6" y1="285.2" x2="143.0" y2="277.6"/>
<line x1="662.9" y1="231.0" x2="655.5" y2="258.7"/>
<line x1="295.3" y1="106.9" x2="320.9" y2="92.1"/>
<line x1="524.8" y1="148.3" x2="524.4" y2="149.0"/>
<line x1="521.7" y1="146.0" x2="520.9" y2="147.4"/>
<line x1="518.5" y1="143.7" x2="517.3" y2="145.8"/>
<line x1="515.4" y1="141.4" x2="513.8" y2="144.2"/>
<line x1="512.2" y1="139.1" x2="510.2" y2="142.6"/>
<line x1="509.0" y1="136.9" x2="506.6" y2="141.0"/>
<line x1="505.9" y1="134.6" x2="503.1" y2="139.4"/>
<line x1="458.7" y1="135.8" x2="458.7" y2="136.6"/>
<line x1="454.8" y1="135.4" x2="454.8" y2="137.0"/>
<line x1="450.9" y1="135.0" x2="450.9" y2="137.4"/>
<line x1="447.0" y1="134.6" x2="447.0" y2="137.8"/>
<line x1="443.2" y1="134.2" x2="443.2" y2="138.2"/>
<line x1="439.3" y1="133.8" x2="439.3" y2="138.6"/>
<line x1="435.4" y1="133.4" x2="435.4" y2="139.0"/>
<polygon points="72.084571 83.979918 88.208800 105.761002 93.865655 100.104147 " />
<line x1="91.0" y1="102.9" x2="62.4" y2="110.6"/>
<polygon points="180.946007 332.461730 202.727091 316.337500 197.070236 310.680646 " />
<line x1="199.9" y1="313.5" x2="207.6" y2="342.1"/>
<polygon points="708.778423 221.922744 693.217821 200.705288 687.560967 206.362142 " />
<line x1="690.4" y1="203.5" x2="718.1" y2="196.1"/>
<polygon points="255.251613 80.125951 251.251613 106.929054 259.251613 106.929054 " />
<line x1="255.3" y1="106.9" x2="229.6" y2="92.1"/>
<line x1="76.8" y1="148.6" x2="76.6" y2="147.8"/>
<line x1="80.7" y1="147.9" x2="80.3" y2="146.4"/>
<line x1="84.7" y1="147.3" x2="84.1" y2="145.0"/>
<line x1="88.7" y1="146.6" x2="87.8" y2="143.5"/>
<line x1="92.6" y1="146.0" x2="91.6" y2="142.1"/>
<line x1="96.6" y1="145.3" x2="95.4" y2="140.7"/>
<line x1="100.6" y1="144.7" x2="99.1" y2="139.3"/>
<line x1="101.4" y1="141.6" x2="93.7" y2="170.2"/>
<line x1="245.6" y1="327.8" x2="244.8" y2="328.0"/>
<line x1="244.9" y1="323.8" x2="243.4" y2="324.2"/>
<line x1="244.3" y1="319.8" x2="241.9" y2="320.5"/>
<line x1="243.6" y1="315.9" x2="240.5" y2="316.7"/>
<line x1="243.0" y1="311.9" x2="239.1" y2="312.9"/>
<line x1="242.3" y1="307.9" x2="237.7" y2="309.2"/>
<line x1="241.7" y1="304.0" x2="236.2" y2="305.4"/>
<line x1="238.5" y1="303.2" x2="267.1" y2="310.8"/>
<line x1="704.2" y1="159.2" x2="704.4" y2="160.0"/>
<line x1="700.4" y1="159.8" x2="700.8" y2="161.4"/>
<line x1="696.5" y1="160.5" x2="697.2" y2="162.8"/>
<line x1="692.7" y1="161.1" x2="693.5" y2="164.2"/>
<line x1="688.8" y1="161.7" x2="689.9" y2="165.6"/>
<line x1="685.0" y1="162.3" x2="686.2" y2="167.0"/>
<line x1="681.1" y1="162.9" x2="682.6" y2="168.3"/>
<line x1="680.3" y1="166.0" x2="687.8" y2="138.3"/>
<line x1="140.0" y1="151.9" x2="132.4" y2="180.5"/>
<line x1="140.0" y1="151.9" x2="161.0" y2="172.9"/>
<line x1="248.9" y1="264.5" x2="277.5" y2="272.2"/>
<line x1="248.9" y1="264.5" x2="269.8" y2="243.6"/>
<line x1="642.9" y1="156.0" x2="650.3" y2="128.3"/>
<line x1="642.9" y1="156.0" x2="622.5" y2="135.7"/>
<line x1="225.8" y1="165.4" x2="225.1" y2="165.1"/>
<line x1="227.7" y1="161.8" x2="226.2" y2="161.2"/>
<line x1="229.6" y1="158.3" x2="227.4" y2="157.4"/>
<line x1="231.5" y1="154.8" x2="228.6" y2="153.5"/>
<line x1="233.4" y1="151.2" x2="229.7" y2="149.7"/>
<line x1="235.3" y1="147.7" x2="230.9" y2="145.8"/>
<line x1="237.2" y1="144.1" x2="232.1" y2="142.0"/>
<line x1="235.2" y1="141.6" x2="214.3" y2="120.6"/>
<line x1="255.3" y1="176.2" x2="229.6" y2="191.0"/>
<line x1="255.3" y1="176.2" x2="255.3" y2="205.8"/>
<line x1="186.7" y1="141.5" x2="186.1" y2="142.0"/>
<line x1="184.2" y1="138.4" x2="183.0" y2="139.5"/>
<line x1="181.6" y1="135.2" x2="179.9" y2="136.9"/>
<line x1="179.1" y1="132.1" x2="176.8" y2="134.4"/>
<line x1="176.5" y1="129.0" x2="173.7" y2="131.8"/>
<line x1="174.0" y1="125.9" x2="170.6" y2="129.3"/>
<line x1="171.4" y1="122.8" x2="167.5" y2="126.8"/>
<line x1="168.3" y1="123.6" x2="196.9" y2="116.0"/>
<line x1="200.1" y1="221.0" x2="200.5" y2="220.3"/>
<line x1="203.0" y1="223.7" x2="204.0" y2="222.4"/>
<line x1="205.9" y1="226.5" x2="207.4" y2="224.6"/>
<line x1="208.8" y1="229.2" x2="210.8" y2="226.7"/>
<line x1="211.8" y1="232.0" x2="214.2" y2="228.8"/>
<line x1="214.7" y1="234.7" x2="217.6" y2="230.9"/>
<line x1="217.6" y1="237.5" x2="221.0" y2="233.0"/>
<line x1="220.6" y1="236.2" x2="246.2" y2="221.4"/>
<line x1="600.6" y1="203.4" x2="600.0" y2="202.9"/>
<line x1="603.3" y1="200.6" x2="602.0" y2="199.6"/>
<line x1="606.0" y1="197.7" x2="604.1" y2="196.3"/>
<line x1="608.6" y1="194.9" x2="606.1" y2="192.9"/>
<line x1="611.3" y1="192.0" x2="608.1" y2="189.6"/>
<line x1="614.0" y1="189.2" x2="610.2" y2="186.3"/>
<line x1="616.7" y1="186.4" x2="612.2" y2="183.0"/>
<line x1="615.4" y1="183.4" x2="601.0" y2="158.6"/>
<line x1="295.7" y1="201.8" x2="294.9" y2="201.8"/>
<line x1="296.1" y1="197.8" x2="294.5" y2="197.8"/>
<line x1="296.5" y1="193.8" x2="294.1" y2="193.8"/>
<line x1="296.9" y1="189.8" x2="293.7" y2="189.8"/>
<line x1="297.3" y1="185.8" x2="293.3" y2="185.8"/>
<line x1="297.7" y1="181.8" x2="292.9" y2="181.8"/>
<line x1="298.1" y1="177.8" x2="292.5" y2="177.8"/>
<line x1="295.3" y1="176.2" x2="320.9" y2="191.0"/>
<line x1="557.2" y1="149.8" x2="537.8" y2="116.2"/>
<line x1="559.8" y1="151.3" x2="545.4" y2="176.2"/>
<line x1="554.6" y1="148.3" x2="540.2" y2="173.2"/>
<line x1="557.2" y1="149.8" x2="585.9" y2="149.8"/>
<polygon points="341.334132 189.620662 366.546301 179.683211 362.546301 172.755008 " />
<line x1="413.8" y1="210.9" x2="384.5" y2="210.9"/>
<line x1="384.5" y1="210.9" x2="364.5" y2="176.2"/>
<line x1="364.5" y1="176.2" x2="399.2" y2="196.2"/>
<line x1="399.2" y1="196.2" x2="433.8" y2="176.2"/>
<line x1="433.8" y1="176.2" x2="413.8" y2="210.9"/>
<line x1="468.5" y1="76.2" x2="503.1" y2="56.2"/>
<line x1="503.1" y1="56.2" x2="537.8" y2="76.2"/>
<line x1="537.8" y1="76.2" x2="537.8" y2="116.2"/>
<line x1="537.8" y1="116.2" x2="503.1" y2="136.2"/>
<line x1="503.1" y1="136.2" x2="468.5" y2="116.2"/>
<line x1="468.5" y1="116.2" x2="468.5" y2="76.2"/>
<line x1="433.8" y1="176.2" x2="433.8" y2="136.2"/>
<line x1="433.8" y1="136.2" x2="468.5" y2="116.2"/>
<line x1="503.1" y1="136.2" x2="503.1" y2="176.2"/>
<line x1="503.1" y1="176.2" x2="468.5" y2="196.2"/>
<line x1="468.5" y1="196.2" x2="433.8" y2="176.2"/>
<line x1="364.5" y1="136.2" x2="399.2" y2="116.2"/>
<line x1="399.2" y1="116.2" x2="433.8" y2="136.2"/>
<line x1="364.5" y1="176.2" x2="364.5" y2="136.2"/>
<line x1="101.4" y1="141.6" x2="140.0" y2="151.9"/>
<line x1="140.0" y1="151.9" x2="168.3" y2="123.6"/>
<line x1="168.3" y1="123.6" x2="160.7" y2="95.0"/>
<line x1="147.9" y1="82.3" x2="119.3" y2="74.6"/>
<line x1="119.3" y1="74.6" x2="91.0" y2="102.9"/>
<line x1="91.0" y1="102.9" x2="101.4" y2="141.6"/>
<line x1="238.5" y1="303.2" x2="248.9" y2="264.5"/>
<line x1="248.9" y1="264.5" x2="220.6" y2="236.2"/>
<line x1="220.6" y1="236.2" x2="192.0" y2="243.9"/>
<line x1="179.3" y1="256.6" x2="171.6" y2="285.2"/>
<line x1="171.6" y1="285.2" x2="199.9" y2="313.5"/>
<line x1="199.9" y1="313.5" x2="238.5" y2="303.2"/>
<line x1="680.3" y1="166.0" x2="642.9" y2="156.0"/>
<line x1="642.9" y1="156.0" x2="615.4" y2="183.4"/>
<line x1="615.4" y1="183.4" x2="622.8" y2="211.2"/>
<line x1="635.2" y1="223.5" x2="662.9" y2="231.0"/>
<line x1="662.9" y1="231.0" x2="690.4" y2="203.5"/>
<line x1="690.4" y1="203.5" x2="680.3" y2="166.0"/>
<line x1="235.2" y1="141.6" x2="255.3" y2="176.2"/>
<line x1="255.3" y1="176.2" x2="295.3" y2="176.2"/>
<line x1="295.3" y1="176.2" x2="310.1" y2="150.6"/>
<line x1="310.1" y1="132.6" x2="295.3" y2="106.9"/>
<line x1="295.3" y1="106.9" x2="255.3" y2="106.9"/>
<line x1="255.3" y1="106.9" x2="235.2" y2="141.6"/>
<text x="350.899645" y="253.157385" fill="rgb(102,102,102)"  stroke="rgb(102,102,102)" stroke-width="1" font-size="16" >H</text>
<text x="362.899645" y="257.957385" fill="rgb(102,102,102)"  stroke="rgb(102,102,102)" stroke-width="1" font-size="13" >2</text>
<text x="369.399645" y="253.157385" fill="rgb(102,102,102)"  stroke="rgb(102,102,102)" stroke-width="1" font-size="16" >C</text>
<text x="411.269999" y="105.124688" fill="rgb(102,102,102)"  stroke="rgb(102,102,102)" stroke-width="1" font-size="16" >H</text>
<text x="423.269999" y="112.804688" fill="rgb(102,102,102)"  stroke="rgb(102,102,102)" stroke-width="1" font-size="13" >3</text>
<text x="429.769999" y="105.124688" fill="rgb(102,102,102)"  stroke="rgb(102,102,102)" stroke-width="1" font-size="16" >C</text>
<text x="570.589730" y="124.532161" fill="rgb(102,102,102)"  stroke="rgb(102,102,102)" stroke-width="1" font-size="16" >CH</text>
<text x="594.589730" y="132.212161" fill="rgb(102,102,102)"  stroke="rgb(102,102,102)" stroke-width="1" font-size="13" >3</text>
<text x="173.331723" y="48.320000" fill="rgb(255,12,12)"  stroke="rgb(255,12,12)" stroke-width="1" font-size="16" >OH</text>
<text x="147.677531" y="356.950581" fill="rgb(255,12,12)"  stroke="rgb(255,12,12)" stroke-width="1" font-size="16" >OH</text>
<text x="664.743347" y="300.718697" fill="rgb(255,12,12)"  stroke="rgb(255,12,12)" stroke-width="1" font-size="16" >HO</text>
<text x="245.011217" y="55.242106" fill="rgb(255,12,12)"  stroke="rgb(255,12,12)" stroke-width="1" font-size="16" >HO</text>
<text x="36.795720" y="118.086535" fill="rgb(255,12,12)"  stroke="rgb(255,12,12)" stroke-width="1" font-size="16" >HO</text>
<text x="204.252624" y="356.950581" fill="rgb(255,12,12)"  stroke="rgb(255,12,12)" stroke-width="1" font-size="16" >OH</text>
<text x="721.881753" y="201.807667" fill="rgb(255,12,12)"  stroke="rgb(255,12,12)" stroke-width="1" font-size="16" >OH</text>
<text x="205.006585" y="95.246738" fill="rgb(255,12,12)"  stroke="rgb(255,12,12)" stroke-width="1" font-size="16" >HO</text>
<text x="75.437227" y="185.015590" fill="rgb(255,12,12)"  stroke="rgb(255,12,12)" stroke-width="1" font-size="16" >HO</text>
<text x="271.181678" y="318.309073" fill="rgb(255,12,12)"  stroke="rgb(255,12,12)" stroke-width="1" font-size="16" >OH</text>
<text x="684.389394" y="136.868997" fill="rgb(255,12,12)"  stroke="rgb(255,12,12)" stroke-width="1" font-size="16" >OH</text>
<text x="162.320242" y="185.015590" fill="rgb(255,12,12)"  stroke="rgb(255,12,12)" stroke-width="1" font-size="16" >OH</text>
<text x="271.181678" y="244.546058" fill="rgb(255,12,12)"  stroke="rgb(255,12,12)" stroke-width="1" font-size="16" >OH</text>
<text x="599.804676" y="136.868997" fill="rgb(255,12,12)"  stroke="rgb(255,12,12)" stroke-width="1" font-size="16" >HO</text>
<text x="534.174784" y="188.241620" fill="rgb(255,12,12)"  stroke="rgb(255,12,12)" stroke-width="1" font-size="16" >O</text>
<text x="151.966282" y="93.318989" fill="rgb(255,12,12)"  stroke="rgb(255,12,12)" stroke-width="1" font-size="16" >O</text>
<text x="178.365077" y="254.900019" fill="rgb(255,12,12)"  stroke="rgb(255,12,12)" stroke-width="1" font-size="16" >O</text>
<text x="621.850724" y="225.733979" fill="rgb(255,12,12)"  stroke="rgb(255,12,12)" stroke-width="1" font-size="16" >O</text>
<text x="309.258561" y="149.894082" fill="rgb(255,12,12)"  stroke="rgb(255,12,12)" stroke-width="1" font-size="16" >O</text>
<text x="200.961750" y="121.606535" fill="rgb(255,12,12)"  stroke="rgb(255,12,12)" stroke-width="1" font-size="16" >O</text>
<text x="249.251613" y="221.023742" fill="rgb(255,12,12)"  stroke="rgb(255,12,12)" stroke-width="1" font-size="16" >O</text>
<text x="589.997203" y="158.146891" fill="rgb(255,12,12)"  stroke="rgb(255,12,12)" stroke-width="1" font-size="16" >O</text>
<text x="323.901273" y="201.021426" fill="rgb(255,12,12)"  stroke="rgb(255,12,12)" stroke-width="1" font-size="16" >O</text>
<text x="36.400000" y="72.521723" fill="rgb(191,191,191)"  stroke="rgb(191,191,191)" stroke-width="1" font-size="16" >H</text>
<text x="129.369609" y="283.187566" fill="rgb(191,191,191)"  stroke="rgb(191,191,191)" stroke-width="1" font-size="16" >H</text>
<text x="649.297035" y="273.272385" fill="rgb(191,191,191)"  stroke="rgb(191,191,191)" stroke-width="1" font-size="16" >H</text>
<text x="323.901273" y="95.246738" fill="rgb(191,191,191)"  stroke="rgb(191,191,191)" stroke-width="1" font-size="16" >H</text>
<text x="530.744486" y="160.421951" fill="rgb(191,191,191)"  stroke="rgb(191,191,191)" stroke-width="1" font-size="16" >H</text>
<text x="466.654647" y="141.014478" fill="rgb(191,191,191)"  stroke="rgb(191,191,191)" stroke-width="1" font-size="16" >H</text>
<text x="59.149681" y="82.965028" fill="rgb(191,191,191)"  stroke="rgb(191,191,191)" stroke-width="1" font-size="16" >H</text>
<text x="168.011117" y="346.596620" fill="rgb(191,191,191)"  stroke="rgb(191,191,191)" stroke-width="1" font-size="16" >H</text>
<text x="711.835706" y="235.780026" fill="rgb(191,191,191)"  stroke="rgb(191,191,191)" stroke-width="1" font-size="16" >H</text>
<text x="249.251613" y="75.244422" fill="rgb(191,191,191)"  stroke="rgb(191,191,191)" stroke-width="1" font-size="16" >H</text>
<text x="59.149681" y="156.728043" fill="rgb(191,191,191)"  stroke="rgb(191,191,191)" stroke-width="1" font-size="16" >H</text>
<text x="242.894132" y="346.596620" fill="rgb(191,191,191)"  stroke="rgb(191,191,191)" stroke-width="1" font-size="16" >H</text>
<text x="711.835706" y="164.315309" fill="rgb(191,191,191)"  stroke="rgb(191,191,191)" stroke-width="1" font-size="16" >H</text>
<text x="126.078735" y="195.369550" fill="rgb(191,191,191)"  stroke="rgb(191,191,191)" stroke-width="1" font-size="16" >H</text>
<text x="281.535639" y="279.667566" fill="rgb(191,191,191)"  stroke="rgb(191,191,191)" stroke-width="1" font-size="16" >H</text>
<text x="646.897035" y="126.822950" fill="rgb(191,191,191)"  stroke="rgb(191,191,191)" stroke-width="1" font-size="16" >H</text>
<text x="216.340187" y="183.333543" fill="rgb(191,191,191)"  stroke="rgb(191,191,191)" stroke-width="1" font-size="16" >H</text>
<text x="217.006585" y="201.021426" fill="rgb(191,191,191)"  stroke="rgb(191,191,191)" stroke-width="1" font-size="16" >H</text>
<text x="190.607789" y="156.728043" fill="rgb(191,191,191)"  stroke="rgb(191,191,191)" stroke-width="1" font-size="16" >H</text>
<text x="185.268776" y="220.192781" fill="rgb(191,191,191)"  stroke="rgb(191,191,191)" stroke-width="1" font-size="16" >H</text>
<text x="588.175634" y="219.035587" fill="rgb(191,191,191)"  stroke="rgb(191,191,191)" stroke-width="1" font-size="16" >H</text>
<text x="289.256245" y="221.023742" fill="rgb(191,191,191)"  stroke="rgb(191,191,191)" stroke-width="1" font-size="16" >H</text>
<text font-size="18.000000" fill ="black" font-family="sans-serif"
x="140.000000" y="20.000000" ></text>
<title> - OBDepict</title>
</svg>
