<?xml version="1.0"?>
<svg xmlns="http://www.w3.org/2000/svg"
xmlns:xlink="http://www.w3.org/1999/xlink" xmlns:cml="http://www.xml-cml.org/schema" width="287.846" height="240" x="0" y="0" font-family="sans-serif" stroke="rgb(0,0,0)" stroke-width="1" >
<line x1="143.9" y1="160.0" x2="178.6" y2="140.0"/>
<line x1="143.9" y1="160.0" x2="109.3" y2="140.0"/>
<line x1="178.6" y1="140.0" x2="213.2" y2="160.0"/>
<line x1="109.3" y1="100.0" x2="83.6" y2="85.2"/>
<line x1="112.3" y1="100.0" x2="112.3" y2="140.0"/>
<line x1="106.3" y1="100.0" x2="106.3" y2="140.0"/>
<line x1="109.3" y1="100.0" x2="143.9" y2="80.0"/>
<line x1="109.3" y1="140.0" x2="74.6" y2="160.0"/>
<line x1="216.2" y1="160.0" x2="216.2" y2="189.6"/>
<line x1="210.2" y1="160.0" x2="210.2" y2="189.6"/>
<line x1="213.2" y1="160.0" x2="238.8" y2="145.2"/>
<line x1="145.4" y1="77.4" x2="171.1" y2="92.2"/>
<line x1="142.4" y1="82.6" x2="168.1" y2="97.4"/>
<line x1="143.9" y1="80.0" x2="143.9" y2="50.4"/>
<line x1="73.1" y1="162.6" x2="47.5" y2="147.8"/>
<line x1="76.1" y1="157.4" x2="50.5" y2="142.6"/>
<line x1="74.6" y1="160.0" x2="74.6" y2="189.6"/>
<text x="207.205081" y="204.800000" fill="rgb(255,12,12)"  stroke="rgb(255,12,12)" stroke-width="1" font-size="16" >O</text>
<text x="243.046097" y="133.600000" fill="rgb(255,12,12)"  stroke="rgb(255,12,12)" stroke-width="1" font-size="32" >-</text>
<text x="241.846097" y="148.320000" fill="rgb(255,12,12)"  stroke="rgb(255,12,12)" stroke-width="1" font-size="16" >O</text>
<text x="172.564065" y="104.800000" fill="rgb(255,12,12)"  stroke="rgb(255,12,12)" stroke-width="1" font-size="16" >O</text>
<text x="139.123048" y="33.600000" fill="rgb(255,12,12)"  stroke="rgb(255,12,12)" stroke-width="1" font-size="32" >-</text>
<text x="137.923048" y="48.320000" fill="rgb(255,12,12)"  stroke="rgb(255,12,12)" stroke-width="1" font-size="16" >O</text>
<text x="36.400000" y="148.320000" fill="rgb(255,12,12)"  stroke="rgb(255,12,12)" stroke-width="1" font-size="16" >O</text>
<text x="69.841016" y="219.200000" fill="rgb(255,12,12)"  stroke="rgb(255,12,12)" stroke-width="1" font-size="32" >-</text>
<text x="68.641016" y="204.800000" fill="rgb(255,12,12)"  stroke="rgb(255,12,12)" stroke-width="1" font-size="16" >O</text>
<text x="71.041016" y="88.320000" fill="rgb(191,191,191)"  stroke="rgb(191,191,191)" stroke-width="1" font-size="16" >H</text>
<text font-size="18.000000" fill ="black" font-family="sans-serif"
x="140.000000" y="20.000000" ></text>
<title> - OBDepict</title>
</svg>
