<?xml version="1.0"?>
<svg xmlns="http://www.w3.org/2000/svg"
xmlns:xlink="http://www.w3.org/1999/xlink" xmlns:cml="http://www.xml-cml.org/schema" width="363.499" height="254.641" x="0" y="0" font-family="sans-serif" stroke="rgb(0,0,0)" stroke-width="1" >
<line x1="316.7" y1="101.8" x2="292.5" y2="118.8"/>
<line x1="313.3" y1="96.9" x2="289.0" y2="113.9"/>
<line x1="204.2" y1="199.8" x2="187.6" y2="209.4"/>
<line x1="290.8" y1="116.4" x2="254.5" y2="99.5"/>
<polygon points="281.184609 97.153794 254.134765 95.558184 254.847742 103.526350 " />
<line x1="236.0" y1="139.4" x2="247.4" y2="166.7"/>
<line x1="143.9" y1="194.6" x2="169.6" y2="209.4"/>
<line x1="109.3" y1="94.6" x2="143.9" y2="74.6"/>
<line x1="141.5" y1="110.0" x2="141.4" y2="109.2"/>
<line x1="145.5" y1="110.1" x2="145.3" y2="108.5"/>
<line x1="149.5" y1="110.1" x2="149.3" y2="107.7"/>
<line x1="153.5" y1="110.2" x2="153.2" y2="107.0"/>
<line x1="157.5" y1="110.2" x2="157.2" y2="106.2"/>
<line x1="161.6" y1="110.3" x2="161.1" y2="105.5"/>
<line x1="165.6" y1="110.3" x2="165.1" y2="104.7"/>
<line x1="166.9" y1="107.4" x2="143.9" y2="74.6"/>
<line x1="156.4" y1="52.3" x2="157.1" y2="52.7"/>
<line x1="154.0" y1="55.5" x2="155.4" y2="56.3"/>
<line x1="151.7" y1="58.8" x2="153.8" y2="60.0"/>
<line x1="149.3" y1="62.1" x2="152.1" y2="63.7"/>
<line x1="147.0" y1="65.3" x2="150.5" y2="67.3"/>
<line x1="144.6" y1="68.6" x2="148.8" y2="71.0"/>
<line x1="142.3" y1="71.9" x2="147.1" y2="74.7"/>
<line x1="143.9" y1="74.6" x2="129.1" y2="49.0"/>
<line x1="74.6" y1="74.6" x2="109.3" y2="94.6"/>
<line x1="109.3" y1="94.6" x2="109.3" y2="134.6"/>
<line x1="102.1" y1="100.6" x2="102.1" y2="128.6"/>
<line x1="109.3" y1="134.6" x2="74.6" y2="154.6"/>
<line x1="74.6" y1="154.6" x2="49.0" y2="139.8"/>
<line x1="73.0" y1="145.4" x2="54.3" y2="134.6"/>
<line x1="40.0" y1="124.2" x2="40.0" y2="94.6"/>
<line x1="40.0" y1="94.6" x2="74.6" y2="74.6"/>
<line x1="48.8" y1="97.9" x2="73.0" y2="83.9"/>
<line x1="143.9" y1="154.6" x2="143.9" y2="194.6"/>
<line x1="136.7" y1="160.6" x2="136.7" y2="188.6"/>
<line x1="143.9" y1="194.6" x2="109.3" y2="214.6"/>
<line x1="109.3" y1="214.6" x2="74.6" y2="194.6"/>
<line x1="107.7" y1="205.4" x2="83.4" y2="191.4"/>
<line x1="74.6" y1="194.6" x2="74.6" y2="154.6"/>
<line x1="109.3" y1="134.6" x2="143.9" y2="154.6"/>
<line x1="192.2" y1="143.3" x2="236.0" y2="139.4"/>
<line x1="236.0" y1="139.4" x2="233.2" y2="108.5"/>
<line x1="233.2" y1="108.5" x2="213.6" y2="80.6"/>
<line x1="213.6" y1="80.6" x2="192.8" y2="70.9"/>
<line x1="180.6" y1="77.9" x2="166.9" y2="107.4"/>
<line x1="166.9" y1="107.4" x2="192.2" y2="143.3"/>
<line x1="229.2" y1="63.6" x2="254.5" y2="99.5"/>
<line x1="254.5" y1="99.5" x2="236.0" y2="139.4"/>
<line x1="196.8" y1="66.5" x2="229.2" y2="63.6"/>
<text x="317.498583" y="101.698781" fill="rgb(102,102,102)"  stroke="rgb(102,102,102)" stroke-width="1" font-size="16" >CH</text>
<text x="341.498583" y="109.378781" fill="rgb(102,102,102)"  stroke="rgb(102,102,102)" stroke-width="1" font-size="13" >2</text>
<text x="207.205081" y="202.961016" fill="rgb(102,102,102)"  stroke="rgb(102,102,102)" stroke-width="1" font-size="16" >CH</text>
<text x="231.205081" y="210.641016" fill="rgb(102,102,102)"  stroke="rgb(102,102,102)" stroke-width="1" font-size="13" >3</text>
<text x="36.400000" y="139.441016" fill="rgb(12,12,255)"  stroke="rgb(12,12,255)" stroke-width="1" font-size="16" >N</text>
<text x="181.825182" y="75.812372" fill="rgb(12,12,255)"  stroke="rgb(12,12,255)" stroke-width="1" font-size="16" >N</text>
<text x="108.323048" y="48.320000" fill="rgb(255,12,12)"  stroke="rgb(255,12,12)" stroke-width="1" font-size="16" >HO</text>
<text x="172.564065" y="219.441016" fill="rgb(255,12,12)"  stroke="rgb(255,12,12)" stroke-width="1" font-size="16" >O</text>
<text x="288.332082" y="104.297381" fill="rgb(191,191,191)"  stroke="rgb(191,191,191)" stroke-width="1" font-size="16" >H</text>
<text x="245.438610" y="181.114376" fill="rgb(191,191,191)"  stroke="rgb(191,191,191)" stroke-width="1" font-size="16" >H</text>
<text x="123.484307" y="115.726337" fill="rgb(191,191,191)"  stroke="rgb(191,191,191)" stroke-width="1" font-size="16" >H</text>
<text x="157.923048" y="48.320000" fill="rgb(191,191,191)"  stroke="rgb(191,191,191)" stroke-width="1" font-size="16" >H</text>
<text font-size="18.000000" fill ="black" font-family="sans-serif"
x="140.000000" y="20.000000" ></text>
<title> - OBDepict</title>
</svg>
