<?xml version="1.0"?>
<svg xmlns="http://www.w3.org/2000/svg"
xmlns:xlink="http://www.w3.org/1999/xlink" xmlns:cml="http://www.xml-cml.org/schema" width="785.447" height="465.551" x="0" y="0" font-family="sans-serif" stroke="rgb(0,0,0)" stroke-width="1" >
<line x1="713.4" y1="410.8" x2="687.8" y2="425.6"/>
<line x1="356.8" y1="184.0" x2="358.3" y2="213.6"/>
<line x1="383.2" y1="197.5" x2="358.3" y2="213.6"/>
<line x1="687.8" y1="425.6" x2="653.1" y2="405.6"/>
<line x1="653.1" y1="405.6" x2="627.5" y2="420.4"/>
<line x1="650.1" y1="405.6" x2="650.1" y2="365.6"/>
<line x1="656.1" y1="405.6" x2="656.1" y2="365.6"/>
<line x1="653.1" y1="365.6" x2="627.5" y2="350.8"/>
<line x1="653.1" y1="365.6" x2="687.8" y2="345.6"/>
<line x1="677.9" y1="196.9" x2="707.5" y2="195.3"/>
<line x1="677.9" y1="196.9" x2="659.7" y2="232.5"/>
<line x1="675.4" y1="198.5" x2="653.6" y2="164.9"/>
<line x1="680.4" y1="195.2" x2="658.6" y2="161.7"/>
<line x1="659.7" y1="232.5" x2="681.5" y2="266.0"/>
<line x1="687.8" y1="345.6" x2="687.8" y2="305.6"/>
<line x1="656.1" y1="163.3" x2="669.5" y2="136.9"/>
<line x1="656.1" y1="163.3" x2="616.2" y2="165.4"/>
<line x1="500.0" y1="240.9" x2="478.2" y2="207.3"/>
<line x1="500.0" y1="240.9" x2="539.9" y2="238.8"/>
<line x1="478.2" y1="207.3" x2="448.6" y2="208.9"/>
<line x1="601.6" y1="270.2" x2="619.8" y2="234.6"/>
<line x1="601.6" y1="270.2" x2="572.1" y2="271.8"/>
<line x1="619.8" y1="234.6" x2="603.7" y2="209.8"/>
<line x1="194.4" y1="142.1" x2="154.4" y2="144.2"/>
<line x1="194.4" y1="142.1" x2="207.8" y2="115.7"/>
<line x1="318.4" y1="215.7" x2="358.3" y2="213.6"/>
<line x1="318.4" y1="215.7" x2="302.3" y2="190.9"/>
<line x1="681.5" y1="266.0" x2="652.0" y2="267.6"/>
<line x1="687.8" y1="305.6" x2="658.8" y2="299.7"/>
<line x1="730.0" y1="310.4" x2="743.4" y2="336.8"/>
<line x1="724.6" y1="313.2" x2="738.1" y2="339.5"/>
<line x1="147.6" y1="119.5" x2="148.4" y2="119.3"/>
<line x1="148.2" y1="123.5" x2="149.8" y2="123.1"/>
<line x1="148.9" y1="127.4" x2="151.2" y2="126.8"/>
<line x1="149.5" y1="131.4" x2="152.6" y2="130.6"/>
<line x1="150.1" y1="135.4" x2="154.0" y2="134.4"/>
<line x1="150.7" y1="139.4" x2="155.3" y2="138.2"/>
<line x1="151.3" y1="143.3" x2="156.7" y2="141.9"/>
<line x1="542.4" y1="237.1" x2="558.5" y2="262.0"/>
<line x1="537.4" y1="240.4" x2="553.5" y2="265.2"/>
<line x1="539.9" y1="238.8" x2="553.3" y2="212.4"/>
<line x1="613.6" y1="167.0" x2="597.5" y2="142.2"/>
<line x1="618.7" y1="163.8" x2="602.6" y2="138.9"/>
<line x1="616.2" y1="165.4" x2="602.7" y2="191.8"/>
<polygon points="72.883236 168.260163 97.135482 180.346044 99.607618 172.737592 " />
<line x1="98.4" y1="176.5" x2="76.4" y2="196.3"/>
<polygon points="114.641016 113.200000 110.641016 140.000000 118.641016 140.000000 " />
<line x1="114.6" y1="140.0" x2="89.0" y2="125.2"/>
<polygon points="357.643866 261.747459 382.298793 250.505815 377.941681 243.796451 " />
<line x1="380.1" y1="247.2" x2="420.1" y2="245.1"/>
<line x1="380.1" y1="247.2" x2="358.3" y2="213.6"/>
<line x1="380.1" y1="247.2" x2="381.7" y2="276.7"/>
<line x1="138.8" y1="342.3" x2="158.6" y2="364.3"/>
<line x1="417.4" y1="243.7" x2="430.8" y2="217.3"/>
<line x1="422.7" y1="246.4" x2="436.2" y2="220.0"/>
<line x1="420.1" y1="245.1" x2="436.2" y2="269.9"/>
<line x1="113.4" y1="224.3" x2="112.7" y2="223.8"/>
<line x1="116.0" y1="221.3" x2="114.8" y2="220.3"/>
<line x1="118.7" y1="218.3" x2="116.8" y2="216.8"/>
<line x1="121.4" y1="215.3" x2="118.8" y2="213.4"/>
<line x1="124.1" y1="212.2" x2="120.8" y2="209.9"/>
<line x1="126.7" y1="209.2" x2="122.9" y2="206.4"/>
<line x1="129.4" y1="206.2" x2="124.9" y2="203.0"/>
<line x1="128.1" y1="203.3" x2="140.1" y2="230.3"/>
<line x1="50.4" y1="80.0" x2="69.6" y2="80.0"/>
<line x1="80.0" y1="50.4" x2="80.0" y2="69.6"/>
<line x1="109.6" y1="83.0" x2="90.4" y2="83.0"/>
<line x1="109.6" y1="77.0" x2="90.4" y2="77.0"/>
<line x1="282.0" y1="102.8" x2="262.9" y2="103.8"/>
<line x1="253.9" y1="74.6" x2="254.9" y2="93.8"/>
<line x1="247.9" y1="75.0" x2="248.9" y2="94.1"/>
<line x1="258.2" y1="213.8" x2="257.2" y2="194.6"/>
<line x1="226.9" y1="182.8" x2="246.1" y2="181.8"/>
<line x1="227.3" y1="188.8" x2="246.4" y2="187.8"/>
<line x1="222.9" y1="105.9" x2="242.1" y2="104.9"/>
<line x1="286.2" y1="182.7" x2="267.0" y2="183.7"/>
<line x1="80.0" y1="109.6" x2="80.0" y2="90.4"/>
<line x1="254.0" y1="133.9" x2="253.0" y2="114.7"/>
<line x1="255.1" y1="154.7" x2="256.1" y2="173.9"/>
<line x1="681.5" y1="266.0" x2="717.2" y2="247.9"/>
<line x1="717.2" y1="247.9" x2="745.4" y2="276.2"/>
<line x1="745.4" y1="276.2" x2="727.3" y2="311.8"/>
<line x1="727.3" y1="311.8" x2="687.8" y2="305.6"/>
<line x1="687.8" y1="305.6" x2="681.5" y2="266.0"/>
<line x1="183.5" y1="248.2" x2="154.5" y2="242.0"/>
<line x1="139.2" y1="248.9" x2="124.4" y2="274.5"/>
<line x1="124.4" y1="274.5" x2="151.1" y2="304.2"/>
<line x1="151.1" y1="304.2" x2="178.2" y2="292.2"/>
<line x1="186.6" y1="277.6" x2="183.5" y2="248.2"/>
<line x1="179.2" y1="276.4" x2="177.0" y2="254.9"/>
<line x1="154.4" y1="144.2" x2="114.6" y2="140.0"/>
<line x1="114.6" y1="140.0" x2="98.4" y2="176.5"/>
<line x1="98.4" y1="176.5" x2="128.1" y2="203.3"/>
<line x1="128.1" y1="203.3" x2="153.7" y2="188.5"/>
<line x1="160.6" y1="173.1" x2="154.4" y2="144.2"/>
<line x1="124.4" y1="274.5" x2="95.4" y2="280.6"/>
<line x1="120.0" y1="282.8" x2="98.9" y2="287.3"/>
<line x1="82.0" y1="292.7" x2="72.9" y2="320.8"/>
<line x1="72.9" y1="320.8" x2="92.7" y2="342.8"/>
<line x1="82.2" y1="320.5" x2="96.7" y2="336.5"/>
<line x1="109.8" y1="348.4" x2="138.8" y2="342.3"/>
<line x1="138.8" y1="342.3" x2="151.1" y2="304.2"/>
<line x1="133.8" y1="334.3" x2="142.4" y2="307.7"/>
<text x="716.420463" y="413.871421" fill="rgb(102,102,102)"  stroke="rgb(102,102,102)" stroke-width="1" font-size="16" >CH</text>
<text x="740.420463" y="421.551421" fill="rgb(102,102,102)"  stroke="rgb(102,102,102)" stroke-width="1" font-size="13" >3</text>
<text x="332.641237" y="181.979129" fill="rgb(102,102,102)"  stroke="rgb(102,102,102)" stroke-width="1" font-size="16" >H</text>
<text x="344.641237" y="189.659129" fill="rgb(102,102,102)"  stroke="rgb(102,102,102)" stroke-width="1" font-size="13" >3</text>
<text x="351.141237" y="181.979129" fill="rgb(102,102,102)"  stroke="rgb(102,102,102)" stroke-width="1" font-size="16" >C</text>
<text x="385.881498" y="200.138749" fill="rgb(102,102,102)"  stroke="rgb(102,102,102)" stroke-width="1" font-size="16" >CH</text>
<text x="409.881498" y="207.818749" fill="rgb(102,102,102)"  stroke="rgb(102,102,102)" stroke-width="1" font-size="13" >3</text>
<text x="159.536578" y="376.783724" fill="rgb(12,12,255)"  stroke="rgb(12,12,255)" stroke-width="1" font-size="16" >NH</text>
<text x="183.536578" y="381.583724" fill="rgb(12,12,255)"  stroke="rgb(12,12,255)" stroke-width="1" font-size="13" >2</text>
<text x="558.086524" y="277.124202" fill="rgb(12,12,255)"  stroke="rgb(12,12,255)" stroke-width="1" font-size="16" >N</text>
<text x="434.625038" y="217.737434" fill="rgb(12,12,255)"  stroke="rgb(12,12,255)" stroke-width="1" font-size="16" >N</text>
<text x="96.045450" y="355.374398" fill="rgb(12,12,255)"  stroke="rgb(12,12,255)" stroke-width="1" font-size="16" >N</text>
<text x="81.640905" y="291.126345" fill="rgb(12,12,255)"  stroke="rgb(12,12,255)" stroke-width="1" font-size="16" >N</text>
<text x="181.673852" y="292.746204" fill="rgb(12,12,255)"  stroke="rgb(12,12,255)" stroke-width="1" font-size="16" >N</text>
<text x="140.766809" y="248.168861" fill="rgb(12,12,255)"  stroke="rgb(12,12,255)" stroke-width="1" font-size="16" >N</text>
<text x="739.446600" y="352.249061" fill="rgb(255,12,12)"  stroke="rgb(255,12,12)" stroke-width="1" font-size="16" >O</text>
<text x="553.260582" y="196.737119" fill="rgb(255,12,12)"  stroke="rgb(255,12,12)" stroke-width="1" font-size="32" >-</text>
<text x="552.060582" y="211.457119" fill="rgb(255,12,12)"  stroke="rgb(255,12,12)" stroke-width="1" font-size="16" >O</text>
<text x="590.779822" y="140.176597" fill="rgb(255,12,12)"  stroke="rgb(255,12,12)" stroke-width="1" font-size="16" >O</text>
<text x="53.045757" y="208.107043" fill="rgb(255,12,12)"  stroke="rgb(255,12,12)" stroke-width="1" font-size="16" >HO</text>
<text x="376.213675" y="291.896314" fill="rgb(255,12,12)"  stroke="rgb(255,12,12)" stroke-width="1" font-size="16" >OH</text>
<text x="437.050980" y="297.804517" fill="rgb(255,12,12)"  stroke="rgb(255,12,12)" stroke-width="1" font-size="32" >-</text>
<text x="435.850980" y="283.404517" fill="rgb(255,12,12)"  stroke="rgb(255,12,12)" stroke-width="1" font-size="16" >O</text>
<text x="35.200000" y="99.200000" fill="rgb(255,12,12)"  stroke="rgb(255,12,12)" stroke-width="1" font-size="32" >-</text>
<text x="36.400000" y="84.800000" fill="rgb(255,12,12)"  stroke="rgb(255,12,12)" stroke-width="1" font-size="16" >O</text>
<text x="75.200000" y="33.600000" fill="rgb(255,12,12)"  stroke="rgb(255,12,12)" stroke-width="1" font-size="32" >-</text>
<text x="74.000000" y="48.320000" fill="rgb(255,12,12)"  stroke="rgb(255,12,12)" stroke-width="1" font-size="16" >O</text>
<text x="114.000000" y="88.320000" fill="rgb(255,12,12)"  stroke="rgb(255,12,12)" stroke-width="1" font-size="16" >O</text>
<text x="286.417056" y="110.580563" fill="rgb(255,12,12)"  stroke="rgb(255,12,12)" stroke-width="1" font-size="16" >OH</text>
<text x="246.778436" y="72.728820" fill="rgb(255,12,12)"  stroke="rgb(255,12,12)" stroke-width="1" font-size="16" >O</text>
<text x="252.752189" y="228.989545" fill="rgb(255,12,12)"  stroke="rgb(255,12,12)" stroke-width="1" font-size="16" >OH</text>
<text x="213.113570" y="191.137802" fill="rgb(255,12,12)"  stroke="rgb(255,12,12)" stroke-width="1" font-size="16" >O</text>
<text x="208.926693" y="114.767439" fill="rgb(255,12,12)"  stroke="rgb(255,12,12)" stroke-width="1" font-size="16" >O</text>
<text x="290.603933" y="190.470926" fill="rgb(255,12,12)"  stroke="rgb(255,12,12)" stroke-width="1" font-size="16" >O</text>
<text x="156.738360" y="188.107043" fill="rgb(255,12,12)"  stroke="rgb(255,12,12)" stroke-width="1" font-size="16" >O</text>
<text x="76.400000" y="124.800000" fill="rgb(255,12,12)"  stroke="rgb(255,12,12)" stroke-width="1" font-size="16" >O</text>
<text x="248.565313" y="149.099182" fill="rgb(255,12,12)"  stroke="rgb(255,12,12)" stroke-width="1" font-size="16" >O</text>
<text x="74.000000" y="84.800000" fill="rgb(255,127,0)"  stroke="rgb(255,127,0)" stroke-width="1" font-size="16" >P</text>
<text x="246.471875" y="109.154001" fill="rgb(255,127,0)"  stroke="rgb(255,127,0)" stroke-width="1" font-size="16" >P</text>
<text x="250.658751" y="192.564364" fill="rgb(255,127,0)"  stroke="rgb(255,127,0)" stroke-width="1" font-size="16" >P</text>
<text x="594.405764" y="205.843681" fill="rgb(178,178,0)"  stroke="rgb(178,178,0)" stroke-width="1" font-size="16" >S</text>
<text x="614.897414" y="430.351421" fill="rgb(191,191,191)"  stroke="rgb(191,191,191)" stroke-width="1" font-size="16" >H</text>
<text x="614.897414" y="353.871421" fill="rgb(191,191,191)"  stroke="rgb(191,191,191)" stroke-width="1" font-size="16" >H</text>
<text x="711.841308" y="203.083366" fill="rgb(191,191,191)"  stroke="rgb(191,191,191)" stroke-width="1" font-size="16" >H</text>
<text x="668.270185" y="135.989720" fill="rgb(191,191,191)"  stroke="rgb(191,191,191)" stroke-width="1" font-size="16" >H</text>
<text x="637.976887" y="272.937326" fill="rgb(191,191,191)"  stroke="rgb(191,191,191)" stroke-width="1" font-size="16" >H</text>
<text x="644.979013" y="305.913658" fill="rgb(191,191,191)"  stroke="rgb(191,191,191)" stroke-width="1" font-size="16" >H</text>
<text x="140.823443" y="113.770905" fill="rgb(191,191,191)"  stroke="rgb(191,191,191)" stroke-width="1" font-size="16" >H</text>
<text x="56.729290" y="172.501139" fill="rgb(191,191,191)"  stroke="rgb(191,191,191)" stroke-width="1" font-size="16" >H</text>
<text x="108.641016" y="108.320000" fill="rgb(191,191,191)"  stroke="rgb(191,191,191)" stroke-width="1" font-size="16" >H</text>
<text x="342.973414" y="273.736694" fill="rgb(191,191,191)"  stroke="rgb(191,191,191)" stroke-width="1" font-size="16" >H</text>
<text x="100.985933" y="240.467722" fill="rgb(191,191,191)"  stroke="rgb(191,191,191)" stroke-width="1" font-size="16" >H</text>
<text font-size="18.000000" fill ="black" font-family="sans-serif"
x="140.000000" y="20.000000" ></text>
<title> - OBDepict</title>
</svg>
