<?xml version="1.0"?>
<svg xmlns="http://www.w3.org/2000/svg"
xmlns:xlink="http://www.w3.org/1999/xlink" xmlns:cml="http://www.xml-cml.org/schema" width="797.354" height="714.673" x="0" y="0" font-family="sans-serif" stroke="rgb(0,0,0)" stroke-width="1" >
<line x1="573.8" y1="40.0" x2="545.2" y2="40.0"/>
<line x1="747.3" y1="674.7" x2="718.8" y2="674.7"/>
<line x1="545.2" y1="40.0" x2="525.9" y2="73.4"/>
<line x1="718.8" y1="674.7" x2="699.5" y2="641.3"/>
<line x1="525.9" y1="73.4" x2="545.2" y2="106.8"/>
<line x1="699.5" y1="641.3" x2="660.9" y2="641.3"/>
<line x1="545.2" y1="106.8" x2="525.9" y2="140.2"/>
<line x1="660.9" y1="641.3" x2="641.6" y2="607.9"/>
<line x1="525.9" y1="140.2" x2="545.2" y2="173.6"/>
<line x1="641.6" y1="607.9" x2="603.1" y2="607.9"/>
<line x1="545.2" y1="173.6" x2="525.9" y2="207.0"/>
<line x1="603.1" y1="607.9" x2="583.8" y2="574.5"/>
<line x1="525.9" y1="207.0" x2="545.2" y2="240.4"/>
<line x1="583.8" y1="574.5" x2="545.2" y2="574.5"/>
<line x1="545.2" y1="240.4" x2="525.9" y2="273.8"/>
<line x1="545.2" y1="574.5" x2="525.9" y2="541.1"/>
<line x1="525.9" y1="273.8" x2="545.2" y2="307.2"/>
<line x1="525.9" y1="541.1" x2="487.4" y2="541.1"/>
<line x1="545.2" y1="307.2" x2="525.9" y2="340.6"/>
<line x1="487.4" y1="541.1" x2="468.1" y2="507.7"/>
<line x1="525.9" y1="340.6" x2="545.2" y2="374.0"/>
<line x1="468.1" y1="507.7" x2="429.5" y2="507.7"/>
<line x1="545.2" y1="374.0" x2="525.9" y2="407.4"/>
<line x1="429.5" y1="507.7" x2="410.2" y2="541.1"/>
<line x1="525.9" y1="407.4" x2="487.4" y2="407.4"/>
<line x1="410.2" y1="541.1" x2="429.5" y2="574.5"/>
<line x1="487.4" y1="407.4" x2="468.1" y2="440.8"/>
<line x1="429.5" y1="574.5" x2="410.2" y2="607.9"/>
<line x1="468.1" y1="440.8" x2="429.5" y2="440.8"/>
<line x1="410.2" y1="607.9" x2="333.1" y2="607.9"/>
<line x1="136.4" y1="555.2" x2="175.0" y2="555.2"/>
<line x1="136.4" y1="555.2" x2="122.2" y2="530.5"/>
<line x1="194.3" y1="521.8" x2="175.0" y2="555.2"/>
<line x1="194.3" y1="521.8" x2="222.8" y2="521.8"/>
<line x1="371.6" y1="474.2" x2="352.4" y2="507.7"/>
<line x1="371.6" y1="474.2" x2="400.2" y2="474.2"/>
<line x1="319.0" y1="488.4" x2="352.4" y2="507.7"/>
<line x1="319.0" y1="488.4" x2="294.2" y2="502.6"/>
<line x1="175.4" y1="579.9" x2="174.6" y2="579.9"/>
<line x1="175.8" y1="576.0" x2="174.2" y2="576.0"/>
<line x1="176.2" y1="572.1" x2="173.8" y2="572.1"/>
<line x1="176.6" y1="568.3" x2="173.4" y2="568.3"/>
<line x1="177.0" y1="564.4" x2="173.0" y2="564.4"/>
<line x1="177.4" y1="560.6" x2="172.6" y2="560.6"/>
<line x1="177.8" y1="556.7" x2="172.2" y2="556.7"/>
<line x1="175.0" y1="555.2" x2="199.7" y2="569.4"/>
<line x1="373.9" y1="519.7" x2="373.5" y2="520.3"/>
<line x1="370.8" y1="517.4" x2="370.0" y2="518.8"/>
<line x1="367.7" y1="515.1" x2="366.5" y2="517.2"/>
<line x1="364.5" y1="512.8" x2="362.9" y2="515.6"/>
<line x1="361.4" y1="510.6" x2="359.4" y2="514.0"/>
<line x1="358.2" y1="508.3" x2="355.8" y2="512.4"/>
<line x1="355.1" y1="506.0" x2="352.3" y2="510.9"/>
<line x1="352.4" y1="507.7" x2="323.8" y2="557.1"/>
<line x1="426.9" y1="442.3" x2="412.6" y2="417.6"/>
<line x1="432.1" y1="439.3" x2="417.8" y2="414.6"/>
<line x1="429.5" y1="440.8" x2="415.2" y2="465.6"/>
<line x1="335.7" y1="609.4" x2="321.4" y2="634.1"/>
<line x1="330.5" y1="606.4" x2="316.2" y2="631.1"/>
<line x1="333.1" y1="607.9" x2="318.8" y2="583.1"/>
<line x1="78.6" y1="550.3" x2="78.6" y2="531.8"/>
<line x1="50.0" y1="521.8" x2="68.5" y2="521.8"/>
<line x1="81.6" y1="493.2" x2="81.6" y2="511.7"/>
<line x1="75.6" y1="493.2" x2="75.6" y2="511.7"/>
<line x1="266.4" y1="463.6" x2="257.2" y2="479.7"/>
<line x1="228.9" y1="471.5" x2="245.0" y2="480.8"/>
<line x1="225.9" y1="476.7" x2="242.0" y2="486.0"/>
<line x1="107.1" y1="521.8" x2="88.6" y2="521.8"/>
<line x1="237.9" y1="513.1" x2="247.1" y2="497.1"/>
<line x1="276.9" y1="502.6" x2="260.8" y2="493.4"/>
<text x="577.782940" y="48.320000" fill="rgb(102,102,102)"  stroke="rgb(102,102,102)" stroke-width="1" font-size="16" >CH</text>
<text x="601.782940" y="56.000000" fill="rgb(102,102,102)"  stroke="rgb(102,102,102)" stroke-width="1" font-size="13" >3</text>
<text x="751.354368" y="679.472903" fill="rgb(102,102,102)"  stroke="rgb(102,102,102)" stroke-width="1" font-size="16" >CH</text>
<text x="775.354368" y="684.272903" fill="rgb(102,102,102)"  stroke="rgb(102,102,102)" stroke-width="1" font-size="13" >3</text>
<text x="202.403837" y="579.261392" fill="rgb(255,12,12)"  stroke="rgb(255,12,12)" stroke-width="1" font-size="16" >OH</text>
<text x="406.611511" y="415.762207" fill="rgb(255,12,12)"  stroke="rgb(255,12,12)" stroke-width="1" font-size="16" >O</text>
<text x="310.182940" y="646.069066" fill="rgb(255,12,12)"  stroke="rgb(255,12,12)" stroke-width="1" font-size="16" >O</text>
<text x="73.771429" y="579.543269" fill="rgb(255,12,12)"  stroke="rgb(255,12,12)" stroke-width="1" font-size="32" >-</text>
<text x="72.571429" y="565.143269" fill="rgb(255,12,12)"  stroke="rgb(255,12,12)" stroke-width="1" font-size="16" >O</text>
<text x="35.200000" y="515.371841" fill="rgb(255,12,12)"  stroke="rgb(255,12,12)" stroke-width="1" font-size="32" >-</text>
<text x="36.400000" y="530.091841" fill="rgb(255,12,12)"  stroke="rgb(255,12,12)" stroke-width="1" font-size="16" >O</text>
<text x="72.571429" y="491.520412" fill="rgb(255,12,12)"  stroke="rgb(255,12,12)" stroke-width="1" font-size="16" >O</text>
<text x="266.628571" y="448.564167" fill="rgb(255,12,12)"  stroke="rgb(255,12,12)" stroke-width="1" font-size="32" >-</text>
<text x="265.428571" y="463.284167" fill="rgb(255,12,12)"  stroke="rgb(255,12,12)" stroke-width="1" font-size="16" >O</text>
<text x="215.139020" y="477.402289" fill="rgb(255,12,12)"  stroke="rgb(255,12,12)" stroke-width="1" font-size="16" >O</text>
<text x="404.211511" y="479.049881" fill="rgb(255,12,12)"  stroke="rgb(255,12,12)" stroke-width="1" font-size="16" >O</text>
<text x="111.142857" y="530.091841" fill="rgb(255,12,12)"  stroke="rgb(255,12,12)" stroke-width="1" font-size="16" >O</text>
<text x="226.857143" y="526.571841" fill="rgb(255,12,12)"  stroke="rgb(255,12,12)" stroke-width="1" font-size="16" >O</text>
<text x="279.546694" y="512.453718" fill="rgb(255,12,12)"  stroke="rgb(255,12,12)" stroke-width="1" font-size="16" >O</text>
<text x="310.182940" y="579.261392" fill="rgb(255,12,12)"  stroke="rgb(255,12,12)" stroke-width="1" font-size="16" >O</text>
<text x="72.571429" y="526.571841" fill="rgb(255,127,0)"  stroke="rgb(255,127,0)" stroke-width="1" font-size="16" >P</text>
<text x="246.142857" y="493.168004" fill="rgb(255,127,0)"  stroke="rgb(255,127,0)" stroke-width="1" font-size="16" >P</text>
<text x="169.000000" y="598.547106" fill="rgb(191,191,191)"  stroke="rgb(191,191,191)" stroke-width="1" font-size="16" >H</text>
<text x="379.758205" y="531.739432" fill="rgb(191,191,191)"  stroke="rgb(191,191,191)" stroke-width="1" font-size="16" >H</text>
<text font-size="18.000000" fill ="black" font-family="sans-serif"
x="140.000000" y="20.000000" ></text>
<title> - OBDepict</title>
</svg>
