<?xml version="1.0"?>
<svg xmlns="http://www.w3.org/2000/svg"
xmlns:xlink="http://www.w3.org/1999/xlink" xmlns:cml="http://www.xml-cml.org/schema" width="288.404" height="219.994" x="0" y="0" font-family="sans-serif" stroke="rgb(0,0,0)" stroke-width="1" >
<line x1="213.9" y1="100.6" x2="239.4" y2="115.6"/>
<line x1="40.0" y1="159.4" x2="74.6" y2="179.6"/>
<line x1="74.6" y1="179.6" x2="109.4" y2="159.9"/>
<line x1="76.3" y1="170.4" x2="100.7" y2="156.6"/>
<line x1="109.4" y1="159.9" x2="109.6" y2="119.9"/>
<line x1="109.6" y1="119.9" x2="75.1" y2="99.4"/>
<line x1="100.8" y1="123.0" x2="76.6" y2="108.6"/>
<line x1="75.1" y1="99.4" x2="40.3" y2="119.1"/>
<line x1="40.3" y1="119.1" x2="40.0" y2="159.4"/>
<line x1="47.5" y1="125.2" x2="47.2" y2="153.5"/>
<line x1="75.4" y1="59.6" x2="75.1" y2="99.4"/>
<line x1="109.6" y1="119.9" x2="144.3" y2="100.3"/>
<line x1="144.3" y1="100.3" x2="144.7" y2="59.9"/>
<line x1="137.1" y1="94.2" x2="137.5" y2="65.8"/>
<line x1="144.7" y1="59.9" x2="110.1" y2="40.0"/>
<line x1="110.1" y1="40.0" x2="75.4" y2="59.6"/>
<line x1="108.4" y1="49.2" x2="84.2" y2="62.9"/>
<line x1="143.7" y1="180.0" x2="178.3" y2="160.3"/>
<line x1="145.4" y1="170.8" x2="169.6" y2="157.0"/>
<line x1="178.3" y1="160.3" x2="179.1" y2="120.4"/>
<line x1="179.1" y1="120.4" x2="144.3" y2="100.3"/>
<line x1="109.4" y1="159.9" x2="143.7" y2="180.0"/>
<line x1="179.6" y1="40.1" x2="144.7" y2="59.9"/>
<line x1="179.1" y1="120.4" x2="213.9" y2="100.6"/>
<line x1="180.7" y1="111.1" x2="205.1" y2="97.3"/>
<line x1="213.9" y1="100.6" x2="213.7" y2="60.4"/>
<line x1="213.7" y1="60.4" x2="179.6" y2="40.1"/>
<line x1="204.8" y1="63.5" x2="181.1" y2="49.4"/>
<text x="242.403909" y="125.625547" fill="rgb(255,12,12)"  stroke="rgb(255,12,12)" stroke-width="1" font-size="16" >OH</text>
<text font-size="18.000000" fill ="black" font-family="sans-serif"
x="140.000000" y="20.000000" ></text>
<title> - OBDepict</title>
</svg>
