<?xml version="1.0"?>
<svg xmlns="http://www.w3.org/2000/svg"
xmlns:xlink="http://www.w3.org/1999/xlink" xmlns:cml="http://www.xml-cml.org/schema" width="426.41" height="360" x="0" y="0" font-family="sans-serif" stroke="rgb(0,0,0)" stroke-width="1" >
<line x1="204.2" y1="154.8" x2="178.6" y2="140.0"/>
<line x1="178.6" y1="140.0" x2="178.6" y2="100.0"/>
<line x1="178.6" y1="100.0" x2="152.9" y2="85.2"/>
<line x1="177.1" y1="97.4" x2="211.7" y2="77.4"/>
<line x1="180.1" y1="102.6" x2="214.7" y2="82.6"/>
<line x1="282.5" y1="280.0" x2="282.5" y2="309.6"/>
<line x1="282.5" y1="280.0" x2="247.8" y2="260.0"/>
<line x1="281.0" y1="277.4" x2="315.6" y2="257.4"/>
<line x1="284.0" y1="282.6" x2="318.6" y2="262.6"/>
<line x1="247.8" y1="260.0" x2="213.2" y2="280.0"/>
<line x1="317.1" y1="260.0" x2="342.8" y2="274.8"/>
<line x1="317.1" y1="260.0" x2="317.1" y2="220.0"/>
<line x1="213.2" y1="280.0" x2="213.2" y2="309.6"/>
<line x1="211.7" y1="282.6" x2="177.1" y2="262.6"/>
<line x1="214.7" y1="277.4" x2="180.1" y2="257.4"/>
<line x1="317.1" y1="220.0" x2="351.8" y2="200.0"/>
<line x1="178.6" y1="260.0" x2="152.9" y2="274.8"/>
<line x1="178.6" y1="260.0" x2="178.6" y2="220.0"/>
<line x1="351.8" y1="200.0" x2="377.4" y2="214.8"/>
<line x1="348.8" y1="200.0" x2="348.8" y2="160.0"/>
<line x1="354.8" y1="200.0" x2="354.8" y2="160.0"/>
<line x1="178.6" y1="220.0" x2="143.9" y2="200.0"/>
<line x1="213.2" y1="80.0" x2="213.2" y2="50.4"/>
<line x1="213.2" y1="80.0" x2="247.8" y2="100.0"/>
<line x1="351.8" y1="160.0" x2="377.4" y2="145.2"/>
<line x1="351.8" y1="160.0" x2="317.1" y2="140.0"/>
<line x1="143.9" y1="200.0" x2="109.3" y2="220.0"/>
<line x1="247.8" y1="100.0" x2="282.5" y2="80.0"/>
<line x1="317.1" y1="140.0" x2="317.1" y2="100.0"/>
<line x1="109.3" y1="220.0" x2="74.6" y2="200.0"/>
<line x1="282.5" y1="80.0" x2="317.1" y2="100.0"/>
<line x1="282.5" y1="80.0" x2="282.5" y2="50.4"/>
<line x1="317.1" y1="100.0" x2="342.8" y2="85.2"/>
<line x1="76.1" y1="202.6" x2="50.5" y2="217.4"/>
<line x1="73.1" y1="197.4" x2="47.5" y2="212.2"/>
<line x1="74.6" y1="200.0" x2="74.6" y2="170.4"/>
<text x="207.205081" y="164.800000" fill="rgb(102,102,102)"  stroke="rgb(102,102,102)" stroke-width="1" font-size="16" >CH</text>
<text x="231.205081" y="169.600000" fill="rgb(102,102,102)"  stroke="rgb(102,102,102)" stroke-width="1" font-size="13" >3</text>
<text x="276.487113" y="48.320000" fill="rgb(255,12,12)"  stroke="rgb(255,12,12)" stroke-width="1" font-size="16" >OH</text>
<text x="345.769145" y="88.320000" fill="rgb(255,12,12)"  stroke="rgb(255,12,12)" stroke-width="1" font-size="16" >OH</text>
<text x="36.400000" y="224.800000" fill="rgb(255,12,12)"  stroke="rgb(255,12,12)" stroke-width="1" font-size="16" >O</text>
<text x="68.641016" y="168.320000" fill="rgb(255,12,12)"  stroke="rgb(255,12,12)" stroke-width="1" font-size="16" >OH</text>
<text x="140.323048" y="88.320000" fill="rgb(191,191,191)"  stroke="rgb(191,191,191)" stroke-width="1" font-size="16" >H</text>
<text x="276.487113" y="324.800000" fill="rgb(191,191,191)"  stroke="rgb(191,191,191)" stroke-width="1" font-size="16" >H</text>
<text x="345.769145" y="284.800000" fill="rgb(191,191,191)"  stroke="rgb(191,191,191)" stroke-width="1" font-size="16" >H</text>
<text x="207.205081" y="324.800000" fill="rgb(191,191,191)"  stroke="rgb(191,191,191)" stroke-width="1" font-size="16" >H</text>
<text x="140.323048" y="284.800000" fill="rgb(191,191,191)"  stroke="rgb(191,191,191)" stroke-width="1" font-size="16" >H</text>
<text x="380.410162" y="224.800000" fill="rgb(191,191,191)"  stroke="rgb(191,191,191)" stroke-width="1" font-size="16" >H</text>
<text x="207.205081" y="48.320000" fill="rgb(191,191,191)"  stroke="rgb(191,191,191)" stroke-width="1" font-size="16" >H</text>
<text x="380.410162" y="148.320000" fill="rgb(191,191,191)"  stroke="rgb(191,191,191)" stroke-width="1" font-size="16" >H</text>
<text font-size="18.000000" fill ="black" font-family="sans-serif"
x="140.000000" y="20.000000" ></text>
<title> - OBDepict</title>
</svg>
