<?xml version="1.0"?>
<svg xmlns="http://www.w3.org/2000/svg"
xmlns:xlink="http://www.w3.org/1999/xlink" xmlns:cml="http://www.xml-cml.org/schema" width="345.653" height="261.97" x="0" y="0" font-family="sans-serif" stroke="rgb(0,0,0)" stroke-width="1" >
<line x1="50.5" y1="140.5" x2="76.8" y2="152.2"/>
<line x1="48.0" y1="146.0" x2="74.4" y2="157.7"/>
<polygon points="231.958555 108.510399 253.234944 92.891635 247.578208 87.234662 " />
<polygon points="135.442619 148.643417 105.318110 130.851781 102.064064 138.160077 " />
<line x1="200.5" y1="171.1" x2="200.9" y2="170.4"/>
<line x1="203.8" y1="173.4" x2="204.6" y2="172.0"/>
<line x1="207.0" y1="175.8" x2="208.2" y2="173.7"/>
<line x1="210.3" y1="178.1" x2="211.9" y2="175.4"/>
<line x1="213.6" y1="180.5" x2="215.6" y2="177.0"/>
<line x1="216.9" y1="182.8" x2="219.3" y2="178.7"/>
<line x1="220.1" y1="185.2" x2="222.9" y2="180.3"/>
<line x1="291.6" y1="168.3" x2="291.6" y2="169.1"/>
<line x1="287.7" y1="167.9" x2="287.7" y2="169.5"/>
<line x1="283.8" y1="167.5" x2="283.8" y2="169.9"/>
<line x1="280.0" y1="167.1" x2="280.0" y2="170.3"/>
<line x1="276.1" y1="166.7" x2="276.1" y2="170.7"/>
<line x1="272.2" y1="166.3" x2="272.2" y2="171.1"/>
<line x1="268.3" y1="165.9" x2="268.3" y2="171.5"/>
<line x1="266.7" y1="168.7" x2="281.1" y2="193.7"/>
<polygon points="164.455522 206.631566 162.944476 180.281096 155.119261 181.944226 " />
<line x1="169.0" y1="67.3" x2="169.8" y2="67.5"/>
<line x1="167.0" y1="74.9" x2="168.6" y2="75.2"/>
<line x1="165.0" y1="82.4" x2="167.3" y2="82.9"/>
<line x1="163.0" y1="89.9" x2="166.1" y2="90.6"/>
<line x1="161.0" y1="97.5" x2="164.9" y2="98.3"/>
<line x1="159.0" y1="105.0" x2="163.6" y2="106.0"/>
<line x1="156.9" y1="112.5" x2="162.4" y2="113.7"/>
<line x1="159.0" y1="116.2" x2="130.1" y2="90.1"/>
<polygon points="207.817936 104.746462 193.548387 126.950303 200.856156 130.205531 " />
<line x1="278.8" y1="106.8" x2="279.5" y2="107.2"/>
<line x1="276.5" y1="110.0" x2="277.9" y2="110.8"/>
<line x1="274.2" y1="113.1" x2="276.3" y2="114.3"/>
<line x1="271.9" y1="116.3" x2="274.7" y2="117.9"/>
<line x1="269.7" y1="119.5" x2="273.1" y2="121.5"/>
<line x1="267.4" y1="122.7" x2="271.5" y2="125.1"/>
<line x1="265.1" y1="125.8" x2="269.9" y2="128.6"/>
<line x1="266.7" y1="128.6" x2="295.5" y2="128.6"/>
<line x1="127.2" y1="89.5" x2="133.2" y2="61.3"/>
<line x1="133.0" y1="90.7" x2="139.0" y2="62.6"/>
<line x1="130.1" y1="90.1" x2="102.7" y2="99.0"/>
<line x1="189.7" y1="110.6" x2="169.3" y2="90.3"/>
<line x1="193.9" y1="106.4" x2="173.6" y2="86.0"/>
<line x1="62.5" y1="208.0" x2="61.9" y2="207.4"/>
<line x1="65.4" y1="205.4" x2="64.3" y2="204.3"/>
<line x1="68.4" y1="202.8" x2="66.6" y2="201.2"/>
<line x1="71.3" y1="200.3" x2="69.0" y2="198.1"/>
<line x1="74.3" y1="197.7" x2="71.4" y2="195.0"/>
<line x1="77.2" y1="195.1" x2="73.7" y2="191.8"/>
<line x1="80.2" y1="192.6" x2="76.1" y2="188.7"/>
<line x1="197.2" y1="128.6" x2="159.0" y2="116.2"/>
<line x1="159.0" y1="116.2" x2="135.4" y2="148.6"/>
<line x1="135.4" y1="148.6" x2="159.0" y2="181.1"/>
<line x1="159.0" y1="181.1" x2="197.2" y2="168.7"/>
<line x1="197.2" y1="168.7" x2="197.2" y2="128.6"/>
<line x1="191.8" y1="108.5" x2="232.0" y2="108.5"/>
<line x1="232.0" y1="108.5" x2="197.2" y2="128.6"/>
<line x1="197.2" y1="168.7" x2="182.4" y2="143.0"/>
<line x1="181.0" y1="127.3" x2="191.8" y2="108.5"/>
<line x1="103.7" y1="134.5" x2="75.6" y2="154.9"/>
<line x1="75.6" y1="154.9" x2="79.2" y2="189.5"/>
<line x1="79.2" y1="189.5" x2="95.5" y2="152.8"/>
<line x1="95.5" y1="152.8" x2="135.4" y2="148.6"/>
<line x1="135.4" y1="148.6" x2="103.7" y2="134.5"/>
<line x1="102.8" y1="222.0" x2="142.7" y2="217.8"/>
<line x1="142.7" y1="217.8" x2="159.0" y2="181.1"/>
<line x1="79.2" y1="189.5" x2="102.8" y2="222.0"/>
<line x1="266.7" y1="128.6" x2="232.0" y2="108.5"/>
<line x1="197.2" y1="168.7" x2="232.0" y2="188.8"/>
<line x1="232.0" y1="188.8" x2="266.7" y2="168.7"/>
<line x1="266.7" y1="168.7" x2="266.7" y2="128.6"/>
<text x="16.400000" y="147.416299" fill="rgb(102,102,102)"  stroke="rgb(102,102,102)" stroke-width="1" font-size="16" >H</text>
<text x="28.400000" y="155.096299" fill="rgb(102,102,102)"  stroke="rgb(102,102,102)" stroke-width="1" font-size="13" >2</text>
<text x="34.900000" y="147.416299" fill="rgb(102,102,102)"  stroke="rgb(102,102,102)" stroke-width="1" font-size="16" >C</text>
<text x="253.492915" y="89.297189" fill="rgb(102,102,102)"  stroke="rgb(102,102,102)" stroke-width="1" font-size="16" >CH</text>
<text x="277.492915" y="96.977189" fill="rgb(102,102,102)"  stroke="rgb(102,102,102)" stroke-width="1" font-size="13" >3</text>
<text x="280.182486" y="207.231908" fill="rgb(255,12,12)"  stroke="rgb(255,12,12)" stroke-width="1" font-size="16" >OH</text>
<text x="299.652651" y="136.895650" fill="rgb(255,12,12)"  stroke="rgb(255,12,12)" stroke-width="1" font-size="16" >OH</text>
<text x="132.193310" y="60.351931" fill="rgb(255,12,12)"  stroke="rgb(255,12,12)" stroke-width="1" font-size="16" >O</text>
<text x="77.463602" y="106.951442" fill="rgb(255,12,12)"  stroke="rgb(255,12,12)" stroke-width="1" font-size="16" >HO</text>
<text x="160.693335" y="89.293628" fill="rgb(255,12,12)"  stroke="rgb(255,12,12)" stroke-width="1" font-size="16" >O</text>
<text x="36.994609" y="222.729107" fill="rgb(255,12,12)"  stroke="rgb(255,12,12)" stroke-width="1" font-size="16" >HO</text>
<text x="173.533915" y="142.275216" fill="rgb(255,12,12)"  stroke="rgb(255,12,12)" stroke-width="1" font-size="16" >O</text>
<text x="299.651812" y="173.510046" fill="rgb(191,191,191)"  stroke="rgb(191,191,191)" stroke-width="1" font-size="16" >H</text>
<text x="161.126874" y="224.000579" fill="rgb(191,191,191)"  stroke="rgb(191,191,191)" stroke-width="1" font-size="16" >H</text>
<text x="169.226420" y="48.320000" fill="rgb(191,191,191)"  stroke="rgb(191,191,191)" stroke-width="1" font-size="16" >H</text>
<text x="207.046546" y="101.328582" fill="rgb(191,191,191)"  stroke="rgb(191,191,191)" stroke-width="1" font-size="16" >H</text>
<text x="280.182620" y="103.174195" fill="rgb(191,191,191)"  stroke="rgb(191,191,191)" stroke-width="1" font-size="16" >H</text>
<text font-size="18.000000" fill ="black" font-family="sans-serif"
x="140.000000" y="20.000000" ></text>
<title> - OBDepict</title>
</svg>
