<?xml version="1.0"?>
<svg xmlns="http://www.w3.org/2000/svg"
xmlns:xlink="http://www.w3.org/1999/xlink" xmlns:cml="http://www.xml-cml.org/schema" width="325.037" height="287.717" x="0" y="0" font-family="sans-serif" stroke="rgb(0,0,0)" stroke-width="1" >
<line x1="282.9" y1="50.1" x2="282.9" y2="78.7"/>
<line x1="276.9" y1="50.1" x2="276.9" y2="78.7"/>
<line x1="260.7" y1="161.6" x2="246.3" y2="136.8"/>
<line x1="97.9" y1="239.0" x2="112.2" y2="214.2"/>
<line x1="126.6" y1="239.0" x2="112.2" y2="214.2"/>
<polygon points="145.756805 156.129032 149.756805 130.193548 141.756805 130.193548 " />
<line x1="279.9" y1="78.7" x2="246.3" y2="98.1"/>
<polygon points="272.262981 136.774194 246.327498 132.774194 246.327498 140.774194 " />
<polygon points="235.264721 169.096774 214.803933 152.664931 210.803933 159.593134 " />
<line x1="177.8" y1="100.7" x2="153.0" y2="86.3"/>
<line x1="180.8" y1="95.5" x2="156.0" y2="81.1"/>
<line x1="53.9" y1="156.5" x2="53.9" y2="155.7"/>
<line x1="57.8" y1="156.9" x2="57.8" y2="155.3"/>
<line x1="61.7" y1="157.3" x2="61.7" y2="154.9"/>
<line x1="65.5" y1="157.7" x2="65.5" y2="154.5"/>
<line x1="69.4" y1="158.1" x2="69.4" y2="154.1"/>
<line x1="73.3" y1="158.5" x2="73.3" y2="153.7"/>
<line x1="77.2" y1="158.9" x2="77.2" y2="153.3"/>
<line x1="78.7" y1="156.1" x2="64.4" y2="131.3"/>
<line x1="146.2" y1="219.6" x2="145.4" y2="219.6"/>
<line x1="146.6" y1="215.7" x2="145.0" y2="215.7"/>
<line x1="147.0" y1="211.9" x2="144.6" y2="211.9"/>
<line x1="147.4" y1="208.0" x2="144.2" y2="208.0"/>
<line x1="147.8" y1="204.1" x2="143.8" y2="204.1"/>
<line x1="148.2" y1="200.3" x2="143.4" y2="200.3"/>
<line x1="148.6" y1="196.4" x2="143.0" y2="196.4"/>
<line x1="136.2" y1="112.3" x2="136.6" y2="111.7"/>
<line x1="142.7" y1="116.6" x2="143.5" y2="115.2"/>
<line x1="149.2" y1="120.8" x2="150.4" y2="118.7"/>
<line x1="155.7" y1="125.0" x2="157.3" y2="122.2"/>
<line x1="162.2" y1="129.2" x2="164.2" y2="125.8"/>
<line x1="168.7" y1="133.4" x2="171.1" y2="129.3"/>
<line x1="175.2" y1="137.7" x2="178.0" y2="132.8"/>
<line x1="80.2" y1="197.4" x2="55.4" y2="211.8"/>
<line x1="77.2" y1="192.2" x2="52.4" y2="206.6"/>
<line x1="212.8" y1="194.8" x2="179.3" y2="214.2"/>
<line x1="179.3" y1="214.2" x2="145.8" y2="194.8"/>
<line x1="145.8" y1="194.8" x2="145.8" y2="156.1"/>
<line x1="145.8" y1="156.1" x2="179.3" y2="136.8"/>
<line x1="179.3" y1="136.8" x2="212.8" y2="156.1"/>
<line x1="212.8" y1="156.1" x2="212.8" y2="194.8"/>
<line x1="212.8" y1="78.7" x2="246.3" y2="98.1"/>
<line x1="214.4" y1="87.9" x2="237.5" y2="101.3"/>
<line x1="246.3" y1="98.1" x2="246.3" y2="136.8"/>
<line x1="246.3" y1="136.8" x2="212.8" y2="156.1"/>
<line x1="179.3" y1="136.8" x2="179.3" y2="98.1"/>
<line x1="179.3" y1="98.1" x2="212.8" y2="78.7"/>
<line x1="78.7" y1="194.8" x2="78.7" y2="156.1"/>
<line x1="78.7" y1="156.1" x2="112.2" y2="136.8"/>
<line x1="112.2" y1="136.8" x2="145.8" y2="156.1"/>
<line x1="145.8" y1="194.8" x2="112.2" y2="214.2"/>
<line x1="112.2" y1="214.2" x2="78.7" y2="194.8"/>
<text x="273.851062" y="48.320000" fill="rgb(102,102,102)"  stroke="rgb(102,102,102)" stroke-width="1" font-size="16" >CH</text>
<text x="297.851062" y="56.000000" fill="rgb(102,102,102)"  stroke="rgb(102,102,102)" stroke-width="1" font-size="13" >2</text>
<text x="259.682336" y="175.097758" fill="rgb(102,102,102)"  stroke="rgb(102,102,102)" stroke-width="1" font-size="16" >CH</text>
<text x="283.682336" y="179.897758" fill="rgb(102,102,102)"  stroke="rgb(102,102,102)" stroke-width="1" font-size="13" >3</text>
<text x="69.278403" y="252.517112" fill="rgb(102,102,102)"  stroke="rgb(102,102,102)" stroke-width="1" font-size="16" >H</text>
<text x="81.278403" y="257.317112" fill="rgb(102,102,102)"  stroke="rgb(102,102,102)" stroke-width="1" font-size="13" >3</text>
<text x="87.778403" y="252.517112" fill="rgb(102,102,102)"  stroke="rgb(102,102,102)" stroke-width="1" font-size="16" >C</text>
<text x="125.588080" y="252.517112" fill="rgb(102,102,102)"  stroke="rgb(102,102,102)" stroke-width="1" font-size="16" >CH</text>
<text x="149.588080" y="257.317112" fill="rgb(102,102,102)"  stroke="rgb(102,102,102)" stroke-width="1" font-size="13" >3</text>
<text x="139.756805" y="125.739355" fill="rgb(102,102,102)"  stroke="rgb(102,102,102)" stroke-width="1" font-size="16" >CH</text>
<text x="163.756805" y="133.419355" fill="rgb(102,102,102)"  stroke="rgb(102,102,102)" stroke-width="1" font-size="13" >3</text>
<text x="142.156805" y="87.029677" fill="rgb(255,12,12)"  stroke="rgb(255,12,12)" stroke-width="1" font-size="16" >O</text>
<text x="43.754839" y="130.925468" fill="rgb(255,12,12)"  stroke="rgb(255,12,12)" stroke-width="1" font-size="16" >HO</text>
<text x="41.586113" y="218.993548" fill="rgb(255,12,12)"  stroke="rgb(255,12,12)" stroke-width="1" font-size="16" >O</text>
<text x="279.037175" y="141.574194" fill="rgb(191,191,191)"  stroke="rgb(191,191,191)" stroke-width="1" font-size="16" >H</text>
<text x="240.327498" y="180.283871" fill="rgb(191,191,191)"  stroke="rgb(191,191,191)" stroke-width="1" font-size="16" >H</text>
<text x="36.400000" y="160.929032" fill="rgb(191,191,191)"  stroke="rgb(191,191,191)" stroke-width="1" font-size="16" >H</text>
<text x="139.756805" y="238.348387" fill="rgb(191,191,191)"  stroke="rgb(191,191,191)" stroke-width="1" font-size="16" >H</text>
<text x="108.633241" y="106.384516" fill="rgb(191,191,191)"  stroke="rgb(191,191,191)" stroke-width="1" font-size="16" >H</text>
<text font-size="18.000000" fill ="black" font-family="sans-serif"
x="140.000000" y="20.000000" ></text>
<title> - OBDepict</title>
</svg>
