<?xml version="1.0"?>
<svg xmlns="http://www.w3.org/2000/svg"
xmlns:xlink="http://www.w3.org/1999/xlink" xmlns:cml="http://www.xml-cml.org/schema" width="335.887" height="294.351" x="0" y="0" font-family="sans-serif" stroke="rgb(0,0,0)" stroke-width="1" >
<line x1="83.4" y1="210.9" x2="102.9" y2="201.9"/>
<line x1="285.4" y1="124.9" x2="266.0" y2="115.6"/>
<line x1="162.9" y1="155.9" x2="162.7" y2="156.7"/>
<line x1="160.1" y1="154.8" x2="159.7" y2="156.4"/>
<line x1="157.4" y1="153.7" x2="156.8" y2="156.1"/>
<line x1="154.6" y1="152.6" x2="153.9" y2="155.8"/>
<line x1="151.9" y1="151.6" x2="150.9" y2="155.4"/>
<line x1="149.2" y1="150.5" x2="148.0" y2="155.1"/>
<line x1="146.4" y1="149.4" x2="145.1" y2="154.8"/>
<line x1="150.9" y1="240.2" x2="150.2" y2="240.6"/>
<line x1="148.9" y1="236.1" x2="147.6" y2="237.0"/>
<line x1="147.0" y1="232.1" x2="145.0" y2="233.3"/>
<line x1="145.1" y1="228.0" x2="142.4" y2="229.6"/>
<line x1="143.2" y1="223.9" x2="139.7" y2="226.0"/>
<line x1="141.3" y1="219.9" x2="137.1" y2="222.3"/>
<line x1="139.4" y1="215.8" x2="134.5" y2="218.6"/>
<line x1="76.3" y1="84.6" x2="73.0" y2="51.6"/>
<line x1="218.5" y1="135.8" x2="245.9" y2="117.1"/>
<line x1="207.8" y1="97.4" x2="208.4" y2="97.9"/>
<line x1="204.4" y1="100.3" x2="205.5" y2="101.4"/>
<line x1="201.0" y1="103.2" x2="202.7" y2="104.9"/>
<line x1="197.6" y1="106.2" x2="199.9" y2="108.4"/>
<line x1="194.2" y1="109.1" x2="197.1" y2="111.9"/>
<line x1="190.8" y1="112.1" x2="194.2" y2="115.4"/>
<line x1="187.4" y1="115.0" x2="191.4" y2="118.9"/>
<line x1="188.1" y1="118.3" x2="165.6" y2="157.0"/>
<line x1="165.6" y1="157.0" x2="121.8" y2="147.5"/>
<line x1="121.8" y1="147.5" x2="117.2" y2="103.0"/>
<line x1="117.2" y1="103.0" x2="147.6" y2="89.6"/>
<line x1="166.0" y1="93.5" x2="188.1" y2="118.3"/>
<line x1="44.5" y1="155.4" x2="40.0" y2="110.8"/>
<line x1="51.1" y1="148.7" x2="47.8" y2="116.1"/>
<line x1="40.0" y1="110.8" x2="76.3" y2="84.6"/>
<line x1="76.3" y1="84.6" x2="117.2" y2="103.0"/>
<line x1="78.9" y1="93.6" x2="108.8" y2="107.1"/>
<line x1="121.8" y1="147.5" x2="85.4" y2="173.8"/>
<line x1="112.7" y1="145.2" x2="86.1" y2="164.4"/>
<line x1="85.4" y1="173.8" x2="44.5" y2="155.4"/>
<line x1="164.9" y1="193.4" x2="136.0" y2="215.7"/>
<line x1="136.0" y1="215.7" x2="100.7" y2="206.9"/>
<line x1="100.7" y1="206.9" x2="85.4" y2="173.8"/>
<line x1="165.6" y1="157.0" x2="164.9" y2="193.4"/>
<line x1="199.9" y1="196.1" x2="223.7" y2="170.4"/>
<line x1="223.7" y1="170.4" x2="218.5" y2="135.8"/>
<line x1="215.7" y1="165.5" x2="212.2" y2="142.8"/>
<line x1="218.5" y1="135.8" x2="188.1" y2="118.3"/>
<line x1="164.9" y1="193.4" x2="199.9" y2="196.1"/>
<line x1="171.5" y1="186.7" x2="194.4" y2="188.4"/>
<line x1="119.4" y1="201.9" x2="136.0" y2="215.7"/>
<line x1="165.6" y1="157.0" x2="137.2" y2="150.0"/>
<line x1="137.2" y1="150.0" x2="114.0" y2="167.8"/>
<line x1="114.0" y1="167.8" x2="113.7" y2="189.4"/>
<text x="49.187918" y="220.535483" fill="rgb(102,102,102)"  stroke="rgb(102,102,102)" stroke-width="1" font-size="16" >H</text>
<text x="61.187918" y="225.335483" fill="rgb(102,102,102)"  stroke="rgb(102,102,102)" stroke-width="1" font-size="13" >3</text>
<text x="67.687918" y="220.535483" fill="rgb(102,102,102)"  stroke="rgb(102,102,102)" stroke-width="1" font-size="16" >C</text>
<text x="289.886744" y="134.764496" fill="rgb(102,102,102)"  stroke="rgb(102,102,102)" stroke-width="1" font-size="16" >CH</text>
<text x="313.886744" y="139.564496" fill="rgb(102,102,102)"  stroke="rgb(102,102,102)" stroke-width="1" font-size="13" >3</text>
<text x="107.519510" y="205.340408" fill="rgb(12,12,255)"  stroke="rgb(12,12,255)" stroke-width="1" font-size="16" >N</text>
<text x="56.201193" y="48.320000" fill="rgb(255,12,12)"  stroke="rgb(255,12,12)" stroke-width="1" font-size="16" >HO</text>
<text x="251.900453" y="118.835483" fill="rgb(255,12,12)"  stroke="rgb(255,12,12)" stroke-width="1" font-size="16" >O</text>
<text x="152.246619" y="93.171082" fill="rgb(255,12,12)"  stroke="rgb(255,12,12)" stroke-width="1" font-size="16" >O</text>
<text x="152.665047" y="259.151264" fill="rgb(191,191,191)"  stroke="rgb(191,191,191)" stroke-width="1" font-size="16" >H</text>
<text x="213.293650" y="94.350601" fill="rgb(191,191,191)"  stroke="rgb(191,191,191)" stroke-width="1" font-size="16" >H</text>
<text font-size="18.000000" fill ="black" font-family="sans-serif"
x="140.000000" y="20.000000" ></text>
<title> - OBDepict</title>
</svg>
