<?xml version="1.0"?>
<svg xmlns="http://www.w3.org/2000/svg"
xmlns:xlink="http://www.w3.org/1999/xlink" xmlns:cml="http://www.xml-cml.org/schema" width="460.951" height="316.414" x="0" y="0" font-family="sans-serif" stroke="rgb(0,0,0)" stroke-width="1" >
<line x1="358.0" y1="119.9" x2="358.6" y2="119.5"/>
<line x1="359.9" y1="123.3" x2="361.2" y2="122.3"/>
<line x1="361.8" y1="126.6" x2="363.8" y2="125.2"/>
<line x1="363.8" y1="129.9" x2="366.4" y2="128.0"/>
<line x1="365.7" y1="133.3" x2="368.9" y2="130.9"/>
<line x1="367.6" y1="136.6" x2="371.5" y2="133.8"/>
<line x1="369.6" y1="139.9" x2="374.1" y2="136.6"/>
<line x1="190.2" y1="212.3" x2="165.7" y2="226.5"/>
<polygon points="289.732679 180.553191 293.732679 154.893617 285.732679 154.893617 " />
<line x1="289.3" y1="67.6" x2="290.1" y2="67.6"/>
<line x1="288.9" y1="75.2" x2="290.5" y2="75.2"/>
<line x1="288.5" y1="82.9" x2="290.9" y2="82.9"/>
<line x1="288.1" y1="90.6" x2="291.3" y2="90.6"/>
<line x1="287.7" y1="98.2" x2="291.7" y2="98.2"/>
<line x1="287.3" y1="105.9" x2="292.1" y2="105.9"/>
<line x1="286.9" y1="113.5" x2="292.5" y2="113.5"/>
<polygon points="297.380600 94.764653 322.481495 101.424896 323.317723 93.468721 " />
<line x1="407.7" y1="83.0" x2="408.0" y2="83.8"/>
<line x1="403.9" y1="83.8" x2="404.4" y2="85.3"/>
<line x1="400.2" y1="84.6" x2="400.9" y2="86.9"/>
<line x1="396.4" y1="85.4" x2="397.4" y2="88.5"/>
<line x1="392.7" y1="86.2" x2="393.9" y2="90.0"/>
<line x1="388.9" y1="87.0" x2="390.4" y2="91.6"/>
<line x1="385.1" y1="87.8" x2="386.8" y2="93.2"/>
<line x1="384.5" y1="91.0" x2="405.6" y2="109.9"/>
<line x1="59.4" y1="148.4" x2="59.9" y2="147.8"/>
<line x1="61.8" y1="151.4" x2="62.9" y2="150.2"/>
<line x1="64.2" y1="154.4" x2="65.9" y2="152.7"/>
<line x1="66.7" y1="157.4" x2="68.9" y2="155.1"/>
<line x1="69.1" y1="160.4" x2="71.9" y2="157.5"/>
<line x1="71.5" y1="163.3" x2="74.9" y2="159.9"/>
<line x1="73.9" y1="166.3" x2="77.9" y2="162.4"/>
<line x1="77.0" y1="165.4" x2="49.6" y2="172.8"/>
<polygon points="110.714776 113.569372 100.209886 137.319341 107.937293 139.389894 " />
<line x1="104.1" y1="138.4" x2="84.0" y2="118.3"/>
<polygon points="62.119877 209.069393 87.940399 206.291910 85.869847 198.564503 " />
<line x1="86.9" y1="202.4" x2="72.2" y2="257.2"/>
<line x1="164.6" y1="141.5" x2="164.8" y2="142.3"/>
<line x1="160.8" y1="142.1" x2="161.2" y2="143.7"/>
<line x1="157.0" y1="142.7" x2="157.7" y2="145.1"/>
<line x1="153.2" y1="143.4" x2="154.1" y2="146.4"/>
<line x1="149.4" y1="144.0" x2="150.5" y2="147.8"/>
<line x1="145.6" y1="144.6" x2="146.9" y2="149.2"/>
<line x1="141.8" y1="145.2" x2="143.3" y2="150.6"/>
<line x1="141.1" y1="148.3" x2="151.0" y2="111.3"/>
<line x1="150.2" y1="108.4" x2="177.6" y2="101.0"/>
<line x1="151.8" y1="114.2" x2="179.1" y2="106.8"/>
<line x1="151.0" y1="111.3" x2="130.9" y2="91.2"/>
<line x1="104.7" y1="227.6" x2="104.2" y2="226.9"/>
<line x1="108.0" y1="225.6" x2="107.0" y2="224.3"/>
<line x1="111.3" y1="223.6" x2="109.8" y2="221.6"/>
<line x1="114.5" y1="221.5" x2="112.6" y2="219.0"/>
<line x1="117.8" y1="219.5" x2="115.4" y2="216.3"/>
<line x1="121.1" y1="217.5" x2="118.2" y2="213.7"/>
<line x1="124.4" y1="215.5" x2="121.0" y2="211.1"/>
<line x1="123.9" y1="212.3" x2="148.4" y2="226.5"/>
<line x1="322.9" y1="97.4" x2="330.9" y2="60.0"/>
<line x1="330.9" y1="60.0" x2="369.0" y2="56.0"/>
<line x1="369.0" y1="56.0" x2="384.5" y2="91.0"/>
<line x1="384.5" y1="91.0" x2="356.1" y2="116.6"/>
<line x1="356.1" y1="116.6" x2="322.9" y2="97.4"/>
<line x1="256.6" y1="97.4" x2="223.4" y2="116.6"/>
<line x1="223.4" y1="116.6" x2="223.4" y2="154.9"/>
<line x1="223.4" y1="154.9" x2="256.6" y2="174.0"/>
<line x1="256.6" y1="174.0" x2="289.7" y2="154.9"/>
<line x1="289.7" y1="154.9" x2="289.7" y2="116.6"/>
<line x1="289.7" y1="116.6" x2="256.6" y2="97.4"/>
<line x1="190.2" y1="174.0" x2="190.2" y2="212.3"/>
<line x1="190.2" y1="212.3" x2="223.4" y2="231.5"/>
<line x1="199.0" y1="209.1" x2="221.8" y2="222.3"/>
<line x1="223.4" y1="231.5" x2="256.6" y2="212.3"/>
<line x1="256.6" y1="212.3" x2="256.6" y2="174.0"/>
<line x1="249.4" y1="206.3" x2="249.4" y2="180.0"/>
<line x1="223.4" y1="154.9" x2="190.2" y2="174.0"/>
<line x1="221.8" y1="164.1" x2="199.0" y2="177.3"/>
<line x1="322.9" y1="97.4" x2="289.7" y2="116.6"/>
<line x1="289.7" y1="154.9" x2="322.9" y2="174.0"/>
<line x1="322.9" y1="174.0" x2="356.1" y2="154.9"/>
<line x1="356.1" y1="154.9" x2="356.1" y2="116.6"/>
<line x1="77.0" y1="165.4" x2="104.1" y2="138.4"/>
<line x1="104.1" y1="138.4" x2="141.1" y2="148.3"/>
<line x1="141.1" y1="148.3" x2="148.4" y2="175.6"/>
<line x1="143.9" y1="192.3" x2="123.9" y2="212.3"/>
<line x1="123.9" y1="212.3" x2="86.9" y2="202.4"/>
<line x1="86.9" y1="202.4" x2="77.0" y2="165.4"/>
<text x="372.577464" y="152.379374" fill="rgb(102,102,102)"  stroke="rgb(102,102,102)" stroke-width="1" font-size="16" >CH</text>
<text x="396.577464" y="157.179374" fill="rgb(102,102,102)"  stroke="rgb(102,102,102)" stroke-width="1" font-size="13" >3</text>
<text x="406.988271" y="121.395745" fill="rgb(255,12,12)"  stroke="rgb(255,12,12)" stroke-width="1" font-size="16" >OH</text>
<text x="24.400000" y="180.147522" fill="rgb(255,12,12)"  stroke="rgb(255,12,12)" stroke-width="1" font-size="16" >HO</text>
<text x="61.392904" y="119.593932" fill="rgb(255,12,12)"  stroke="rgb(255,12,12)" stroke-width="1" font-size="16" >HO</text>
<text x="51.480685" y="281.214015" fill="rgb(255,12,12)"  stroke="rgb(255,12,12)" stroke-width="1" font-size="16" >HO</text>
<text x="181.971616" y="109.681714" fill="rgb(255,12,12)"  stroke="rgb(255,12,12)" stroke-width="1" font-size="16" >O</text>
<text x="119.098027" y="77.793247" fill="rgb(255,12,12)"  stroke="rgb(255,12,12)" stroke-width="1" font-size="32" >-</text>
<text x="120.298027" y="92.513247" fill="rgb(255,12,12)"  stroke="rgb(255,12,12)" stroke-width="1" font-size="16" >O</text>
<text x="151.064957" y="236.289362" fill="rgb(255,12,12)"  stroke="rgb(255,12,12)" stroke-width="1" font-size="16" >O</text>
<text x="144.978712" y="190.059740" fill="rgb(255,12,12)"  stroke="rgb(255,12,12)" stroke-width="1" font-size="16" >O</text>
<text x="283.732679" y="197.991489" fill="rgb(191,191,191)"  stroke="rgb(191,191,191)" stroke-width="1" font-size="16" >H</text>
<text x="283.732679" y="48.320000" fill="rgb(191,191,191)"  stroke="rgb(191,191,191)" stroke-width="1" font-size="16" >H</text>
<text x="281.211536" y="101.763591" fill="rgb(191,191,191)"  stroke="rgb(191,191,191)" stroke-width="1" font-size="16" >H</text>
<text x="414.950846" y="87.454773" fill="rgb(191,191,191)"  stroke="rgb(191,191,191)" stroke-width="1" font-size="16" >H</text>
<text x="46.312219" y="146.674618" fill="rgb(191,191,191)"  stroke="rgb(191,191,191)" stroke-width="1" font-size="16" >H</text>
<text x="107.985808" y="109.681714" fill="rgb(191,191,191)"  stroke="rgb(191,191,191)" stroke-width="1" font-size="16" >H</text>
<text x="46.312219" y="217.140426" fill="rgb(191,191,191)"  stroke="rgb(191,191,191)" stroke-width="1" font-size="16" >H</text>
<text x="172.059397" y="146.674618" fill="rgb(191,191,191)"  stroke="rgb(191,191,191)" stroke-width="1" font-size="16" >H</text>
<text x="89.914282" y="240.454693" fill="rgb(191,191,191)"  stroke="rgb(191,191,191)" stroke-width="1" font-size="16" >H</text>
<text font-size="18.000000" fill ="black" font-family="sans-serif"
x="140.000000" y="20.000000" ></text>
<title> - OBDepict</title>
</svg>
