<?xml version="1.0"?>
<svg xmlns="http://www.w3.org/2000/svg"
xmlns:xlink="http://www.w3.org/1999/xlink" xmlns:cml="http://www.xml-cml.org/schema" width="189.282" height="194.641" x="0" y="0" font-family="sans-serif" stroke="rgb(0,0,0)" stroke-width="1" >
<polygon points="53.2 94.641 80 98.641 80 90.641 " />
<line x1="80.0" y1="94.6" x2="65.2" y2="69.0"/>
<line x1="101.5" y1="52.7" x2="102.2" y2="52.3"/>
<line x1="103.1" y1="56.3" x2="104.5" y2="55.5"/>
<line x1="104.8" y1="60.0" x2="106.9" y2="58.8"/>
<line x1="106.5" y1="63.7" x2="109.2" y2="62.1"/>
<line x1="108.1" y1="67.3" x2="111.6" y2="65.3"/>
<line x1="109.8" y1="71.0" x2="113.9" y2="68.6"/>
<line x1="111.4" y1="74.7" x2="116.3" y2="71.9"/>
<line x1="114.6" y1="74.6" x2="129.4" y2="49.0"/>
<line x1="80.0" y1="134.6" x2="80.0" y2="94.6"/>
<line x1="80.0" y1="94.6" x2="114.6" y2="74.6"/>
<line x1="114.6" y1="74.6" x2="149.3" y2="94.6"/>
<line x1="149.3" y1="94.6" x2="149.3" y2="124.2"/>
<line x1="140.3" y1="139.8" x2="123.6" y2="149.4"/>
<line x1="105.6" y1="149.4" x2="80.0" y2="134.6"/>
<text x="44.400000" y="68.320000" fill="rgb(255,12,12)"  stroke="rgb(255,12,12)" stroke-width="1" font-size="16" >HO</text>
<text x="128.641016" y="48.320000" fill="rgb(255,12,12)"  stroke="rgb(255,12,12)" stroke-width="1" font-size="16" >OH</text>
<text x="108.641016" y="159.441016" fill="rgb(178,178,0)"  stroke="rgb(178,178,0)" stroke-width="1" font-size="16" >S</text>
<text x="143.282032" y="139.441016" fill="rgb(178,178,0)"  stroke="rgb(178,178,0)" stroke-width="1" font-size="16" >S</text>
<text x="36.400000" y="99.441016" fill="rgb(191,191,191)"  stroke="rgb(191,191,191)" stroke-width="1" font-size="16" >H</text>
<text x="91.041016" y="48.320000" fill="rgb(191,191,191)"  stroke="rgb(191,191,191)" stroke-width="1" font-size="16" >H</text>
<text font-size="18.000000" fill ="black" font-family="sans-serif"
x="140.000000" y="20.000000" ></text>
<title> - OBDepict</title>
</svg>
