<?xml version="1.0"?>
<svg xmlns="http://www.w3.org/2000/svg"
xmlns:xlink="http://www.w3.org/1999/xlink" xmlns:cml="http://www.xml-cml.org/schema" width="446.452" height="388.277" x="0" y="0" font-family="sans-serif" stroke="rgb(0,0,0)" stroke-width="1" >
<line x1="201.6" y1="194.6" x2="201.3" y2="193.9"/>
<line x1="205.2" y1="193.8" x2="204.7" y2="192.3"/>
<line x1="208.8" y1="193.0" x2="208.0" y2="190.8"/>
<line x1="212.4" y1="192.2" x2="211.4" y2="189.2"/>
<line x1="216.0" y1="191.4" x2="214.7" y2="187.7"/>
<line x1="219.6" y1="190.6" x2="218.1" y2="186.1"/>
<line x1="223.2" y1="189.8" x2="221.4" y2="184.5"/>
<polygon points="177.931478 133.348347 156.811277 146.549984 162.086044 152.564703 " />
<polygon points="165.081332 178.603854 178.282969 199.724055 184.297688 194.449288 " />
<line x1="258.4" y1="114.2" x2="238.6" y2="132.7"/>
<polygon points="149.708576 192.085398 128.111731 204.491946 133.159019 210.698788 " />
<line x1="144.3" y1="223.9" x2="152.0" y2="296.9"/>
<line x1="144.3" y1="223.9" x2="203.7" y2="180.7"/>
<line x1="222.2" y1="156.9" x2="294.2" y2="142.6"/>
<line x1="222.2" y1="156.9" x2="198.0" y2="129.4"/>
<line x1="197.1" y1="151.4" x2="220.7" y2="81.9"/>
<line x1="197.1" y1="151.4" x2="161.1" y2="158.5"/>
<line x1="152.0" y1="296.9" x2="185.5" y2="311.8"/>
<line x1="294.2" y1="142.6" x2="342.5" y2="197.8"/>
<line x1="220.7" y1="81.9" x2="256.7" y2="74.7"/>
<line x1="344.1" y1="112.3" x2="205.1" y2="159.5"/>
<line x1="344.1" y1="112.3" x2="371.7" y2="136.5"/>
<line x1="205.1" y1="159.5" x2="198.0" y2="195.4"/>
<line x1="144.3" y1="100.9" x2="203.7" y2="144.1"/>
<line x1="144.3" y1="100.9" x2="148.1" y2="64.4"/>
<line x1="154.3" y1="122.0" x2="177.9" y2="191.5"/>
<line x1="154.3" y1="122.0" x2="82.4" y2="107.6"/>
<line x1="223.8" y1="206.8" x2="254.0" y2="252.0"/>
<line x1="149.7" y1="132.7" x2="127.1" y2="117.6"/>
<line x1="185.1" y1="169.3" x2="74.7" y2="266.1"/>
<line x1="185.1" y1="169.3" x2="177.9" y2="133.3"/>
<line x1="237.1" y1="164.3" x2="261.2" y2="191.9"/>
<line x1="237.1" y1="164.3" x2="165.1" y2="178.6"/>
<line x1="168.3" y1="136.2" x2="169.0" y2="136.4"/>
<line x1="166.7" y1="139.5" x2="168.2" y2="140.0"/>
<line x1="165.1" y1="142.9" x2="167.4" y2="143.6"/>
<line x1="163.6" y1="146.2" x2="166.6" y2="147.3"/>
<line x1="162.0" y1="149.6" x2="165.8" y2="150.9"/>
<line x1="160.5" y1="152.9" x2="165.0" y2="154.5"/>
<line x1="158.9" y1="156.3" x2="164.2" y2="158.1"/>
<line x1="183.7" y1="309.4" x2="205.7" y2="293.4"/>
<line x1="187.2" y1="314.2" x2="209.2" y2="298.3"/>
<line x1="185.5" y1="311.8" x2="188.3" y2="338.8"/>
<line x1="345.4" y1="198.8" x2="336.6" y2="224.5"/>
<line x1="339.7" y1="196.8" x2="331.0" y2="222.5"/>
<line x1="342.5" y1="197.8" x2="369.2" y2="192.5"/>
<line x1="253.8" y1="73.8" x2="262.5" y2="48.1"/>
<line x1="259.5" y1="75.7" x2="268.2" y2="50.0"/>
<line x1="256.7" y1="74.7" x2="274.6" y2="95.2"/>
<line x1="374.7" y1="137.1" x2="369.4" y2="163.7"/>
<line x1="368.8" y1="135.9" x2="363.5" y2="162.5"/>
<line x1="371.7" y1="136.5" x2="397.4" y2="127.7"/>
<line x1="146.4" y1="66.9" x2="124.4" y2="50.9"/>
<line x1="149.9" y1="62.0" x2="127.9" y2="46.0"/>
<line x1="148.1" y1="64.4" x2="172.9" y2="53.4"/>
<line x1="79.5" y1="108.6" x2="70.8" y2="82.9"/>
<line x1="85.2" y1="106.7" x2="76.5" y2="81.0"/>
<line x1="82.4" y1="107.6" x2="64.5" y2="128.1"/>
<line x1="73.8" y1="268.9" x2="48.1" y2="260.2"/>
<line x1="75.7" y1="263.3" x2="50.0" y2="254.5"/>
<line x1="74.7" y1="266.1" x2="80.0" y2="292.7"/>
<line x1="260.7" y1="188.9" x2="287.3" y2="183.6"/>
<line x1="261.8" y1="194.8" x2="288.5" y2="189.5"/>
<line x1="261.2" y1="191.9" x2="252.5" y2="217.6"/>
<line x1="204.6" y1="110.0" x2="198.0" y2="129.4"/>
<line x1="195.8" y1="113.4" x2="193.1" y2="121.4"/>
<line x1="198.0" y1="129.4" x2="177.9" y2="133.3"/>
<line x1="177.9" y1="133.3" x2="164.4" y2="118.0"/>
<line x1="164.4" y1="118.0" x2="178.7" y2="112.1"/>
<line x1="172.7" y1="122.3" x2="177.8" y2="120.2"/>
<line x1="189.1" y1="110.0" x2="204.6" y2="110.0"/>
<line x1="165.1" y1="178.6" x2="161.1" y2="158.5"/>
<line x1="161.1" y1="158.5" x2="141.7" y2="152.0"/>
<line x1="141.7" y1="152.0" x2="141.7" y2="167.4"/>
<line x1="143.8" y1="177.8" x2="149.7" y2="192.1"/>
<line x1="149.7" y1="192.1" x2="165.1" y2="178.6"/>
<line x1="203.7" y1="180.7" x2="203.7" y2="144.1"/>
<line x1="210.9" y1="174.7" x2="210.9" y2="150.1"/>
<line x1="203.7" y1="144.1" x2="238.6" y2="132.7"/>
<line x1="238.6" y1="132.7" x2="254.5" y2="154.7"/>
<line x1="254.5" y1="170.1" x2="238.6" y2="192.1"/>
<line x1="238.6" y1="192.1" x2="203.7" y2="180.7"/>
<line x1="177.9" y1="191.5" x2="164.4" y2="206.8"/>
<line x1="179.4" y1="200.7" x2="173.8" y2="207.1"/>
<line x1="164.4" y1="206.8" x2="178.7" y2="212.7"/>
<line x1="189.1" y1="214.8" x2="204.6" y2="214.8"/>
<line x1="193.0" y1="207.6" x2="198.6" y2="207.6"/>
<line x1="204.6" y1="214.8" x2="198.0" y2="195.4"/>
<line x1="198.0" y1="195.4" x2="177.9" y2="191.5"/>
<line x1="223.8" y1="206.8" x2="238.6" y2="192.1"/>
<line x1="223.0" y1="197.5" x2="229.2" y2="191.2"/>
<line x1="238.6" y1="132.7" x2="223.8" y2="118.0"/>
<line x1="223.8" y1="118.0" x2="204.6" y2="110.0"/>
<line x1="164.4" y1="118.0" x2="149.7" y2="132.7"/>
<line x1="149.7" y1="132.7" x2="141.7" y2="152.0"/>
<line x1="154.1" y1="141.0" x2="150.7" y2="149.2"/>
<line x1="149.7" y1="192.1" x2="164.4" y2="206.8"/>
<line x1="204.6" y1="214.8" x2="223.8" y2="206.8"/>
<text x="226.729943" y="191.968816" fill="rgb(102,102,102)"  stroke="rgb(102,102,102)" stroke-width="1" font-size="16" >CH</text>
<text x="250.729943" y="199.648816" fill="rgb(102,102,102)"  stroke="rgb(102,102,102)" stroke-width="1" font-size="13" >3</text>
<text x="126.745183" y="162.340879" fill="rgb(102,102,102)"  stroke="rgb(102,102,102)" stroke-width="1" font-size="16" >H</text>
<text x="138.745183" y="167.140879" fill="rgb(102,102,102)"  stroke="rgb(102,102,102)" stroke-width="1" font-size="13" >3</text>
<text x="145.245183" y="162.340879" fill="rgb(102,102,102)"  stroke="rgb(102,102,102)" stroke-width="1" font-size="16" >C</text>
<text x="183.273864" y="210.990149" fill="rgb(102,102,102)"  stroke="rgb(102,102,102)" stroke-width="1" font-size="16" >CH</text>
<text x="207.273864" y="215.790149" fill="rgb(102,102,102)"  stroke="rgb(102,102,102)" stroke-width="1" font-size="13" >3</text>
<text x="259.344265" y="115.959636" fill="rgb(102,102,102)"  stroke="rgb(102,102,102)" stroke-width="1" font-size="16" >CH</text>
<text x="283.344265" y="123.639636" fill="rgb(102,102,102)"  stroke="rgb(102,102,102)" stroke-width="1" font-size="13" >3</text>
<text x="97.641112" y="220.034605" fill="rgb(102,102,102)"  stroke="rgb(102,102,102)" stroke-width="1" font-size="16" >H</text>
<text x="109.641112" y="224.834605" fill="rgb(102,102,102)"  stroke="rgb(102,102,102)" stroke-width="1" font-size="13" >3</text>
<text x="116.141112" y="220.034605" fill="rgb(102,102,102)"  stroke="rgb(102,102,102)" stroke-width="1" font-size="16" >C</text>
<text x="180.110445" y="118.317626" fill="rgb(12,12,255)"  stroke="rgb(12,12,255)" stroke-width="1" font-size="16" >N</text>
<text x="180.110445" y="219.604721" fill="rgb(12,12,255)"  stroke="rgb(12,12,255)" stroke-width="1" font-size="16" >N</text>
<text x="254.126593" y="170.721173" fill="rgb(12,12,255)"  stroke="rgb(12,12,255)" stroke-width="1" font-size="16" >NH</text>
<text x="126.130611" y="177.624887" fill="rgb(12,12,255)"  stroke="rgb(12,12,255)" stroke-width="1" font-size="16" >HN</text>
<text x="209.169829" y="298.539190" fill="rgb(255,12,12)"  stroke="rgb(255,12,12)" stroke-width="1" font-size="16" >O</text>
<text x="184.520933" y="367.476761" fill="rgb(255,12,12)"  stroke="rgb(255,12,12)" stroke-width="1" font-size="32" >-</text>
<text x="183.320933" y="353.076761" fill="rgb(255,12,12)"  stroke="rgb(255,12,12)" stroke-width="1" font-size="16" >O</text>
<text x="327.142275" y="237.346348" fill="rgb(255,12,12)"  stroke="rgb(255,12,12)" stroke-width="1" font-size="16" >O</text>
<text x="373.723140" y="184.243653" fill="rgb(255,12,12)"  stroke="rgb(255,12,12)" stroke-width="1" font-size="32" >-</text>
<text x="372.523140" y="198.963653" fill="rgb(255,12,12)"  stroke="rgb(255,12,12)" stroke-width="1" font-size="16" >O</text>
<text x="262.448248" y="48.320000" fill="rgb(255,12,12)"  stroke="rgb(255,12,12)" stroke-width="1" font-size="16" >O</text>
<text x="276.046613" y="121.530791" fill="rgb(255,12,12)"  stroke="rgb(255,12,12)" stroke-width="1" font-size="32" >-</text>
<text x="274.846613" y="107.130791" fill="rgb(255,12,12)"  stroke="rgb(255,12,12)" stroke-width="1" font-size="16" >O</text>
<text x="360.949724" y="177.258847" fill="rgb(255,12,12)"  stroke="rgb(255,12,12)" stroke-width="1" font-size="16" >O</text>
<text x="401.652418" y="118.277982" fill="rgb(255,12,12)"  stroke="rgb(255,12,12)" stroke-width="1" font-size="32" >-</text>
<text x="400.452418" y="132.997982" fill="rgb(255,12,12)"  stroke="rgb(255,12,12)" stroke-width="1" font-size="16" >O</text>
<text x="114.846495" y="51.184039" fill="rgb(255,12,12)"  stroke="rgb(255,12,12)" stroke-width="1" font-size="16" >O</text>
<text x="176.850275" y="43.107024" fill="rgb(255,12,12)"  stroke="rgb(255,12,12)" stroke-width="1" font-size="32" >-</text>
<text x="175.650275" y="57.827024" fill="rgb(255,12,12)"  stroke="rgb(255,12,12)" stroke-width="1" font-size="16" >O</text>
<text x="66.975580" y="81.224116" fill="rgb(255,12,12)"  stroke="rgb(255,12,12)" stroke-width="1" font-size="16" >O</text>
<text x="53.377215" y="154.434907" fill="rgb(255,12,12)"  stroke="rgb(255,12,12)" stroke-width="1" font-size="32" >-</text>
<text x="54.577215" y="140.034907" fill="rgb(255,12,12)"  stroke="rgb(255,12,12)" stroke-width="1" font-size="16" >O</text>
<text x="36.400000" y="262.631007" fill="rgb(255,12,12)"  stroke="rgb(255,12,12)" stroke-width="1" font-size="16" >O</text>
<text x="77.102695" y="321.291873" fill="rgb(255,12,12)"  stroke="rgb(255,12,12)" stroke-width="1" font-size="32" >-</text>
<text x="75.902695" y="306.891873" fill="rgb(255,12,12)"  stroke="rgb(255,12,12)" stroke-width="1" font-size="16" >O</text>
<text x="291.233960" y="193.035551" fill="rgb(255,12,12)"  stroke="rgb(255,12,12)" stroke-width="1" font-size="16" >O</text>
<text x="233.853095" y="231.418246" fill="rgb(255,12,12)"  stroke="rgb(255,12,12)" stroke-width="1" font-size="16" >HO</text>
<text x="258.588038" y="272.642856" fill="rgb(191,191,191)"  stroke="rgb(191,191,191)" stroke-width="1" font-size="16" >H</text>
<text x="115.600526" y="120.652121" fill="rgb(191,191,191)"  stroke="rgb(191,191,191)" stroke-width="1" font-size="16" >H</text>
<text x="166.886516" y="132.125389" fill="rgb(191,191,191)"  stroke="rgb(191,191,191)" stroke-width="1" font-size="16" >H</text>
<text font-size="18.000000" fill ="black" font-family="sans-serif"
x="140.000000" y="20.000000" ></text>
<title> - OBDepict</title>
</svg>
