<?xml version="1.0"?>
<svg xmlns="http://www.w3.org/2000/svg"
xmlns:xlink="http://www.w3.org/1999/xlink" xmlns:cml="http://www.xml-cml.org/schema" width="783.83" height="659.084" x="0" y="0" font-family="sans-serif" stroke="rgb(0,0,0)" stroke-width="1" >
<line x1="66.1" y1="47.1" x2="45.9" y2="67.3"/>
<line x1="734.1" y1="197.1" x2="706.6" y2="189.7"/>
<line x1="45.9" y1="67.3" x2="55.9" y2="104.5"/>
<line x1="706.6" y1="189.7" x2="679.3" y2="217.0"/>
<line x1="55.9" y1="104.5" x2="93.2" y2="114.5"/>
<line x1="679.3" y1="217.0" x2="642.0" y2="207.0"/>
<line x1="93.2" y1="114.5" x2="103.2" y2="151.8"/>
<line x1="642.0" y1="207.0" x2="614.8" y2="234.3"/>
<line x1="103.2" y1="151.8" x2="140.4" y2="161.8"/>
<line x1="614.8" y1="234.3" x2="577.5" y2="224.3"/>
<line x1="140.4" y1="161.8" x2="150.4" y2="199.0"/>
<line x1="577.5" y1="224.3" x2="550.2" y2="251.6"/>
<line x1="150.4" y1="199.0" x2="187.6" y2="209.0"/>
<line x1="550.2" y1="251.6" x2="513.0" y2="241.6"/>
<line x1="187.6" y1="209.0" x2="197.6" y2="246.3"/>
<line x1="513.0" y1="241.6" x2="485.7" y2="268.9"/>
<line x1="197.6" y1="246.3" x2="234.9" y2="256.2"/>
<line x1="485.7" y1="268.9" x2="448.4" y2="258.9"/>
<line x1="234.9" y1="256.2" x2="244.9" y2="293.5"/>
<line x1="448.4" y1="258.9" x2="421.2" y2="286.2"/>
<line x1="244.9" y1="293.5" x2="282.1" y2="303.5"/>
<line x1="421.2" y1="286.2" x2="383.9" y2="276.2"/>
<line x1="292.1" y1="340.7" x2="282.1" y2="303.5"/>
<line x1="292.1" y1="340.7" x2="264.8" y2="368.0"/>
<line x1="356.6" y1="303.5" x2="383.9" y2="276.2"/>
<line x1="356.6" y1="303.5" x2="366.6" y2="340.7"/>
<line x1="403.9" y1="479.8" x2="366.6" y2="469.8"/>
<line x1="403.9" y1="479.8" x2="424.1" y2="459.6"/>
<line x1="124.7" y1="394.6" x2="124.7" y2="433.2"/>
<line x1="124.7" y1="394.6" x2="100.0" y2="380.4"/>
<line x1="282.1" y1="303.5" x2="289.5" y2="275.9"/>
<line x1="282.1" y1="303.5" x2="309.7" y2="296.1"/>
<line x1="383.9" y1="276.2" x2="391.3" y2="248.6"/>
<line x1="383.9" y1="276.2" x2="363.7" y2="256.0"/>
<line x1="373.4" y1="493.5" x2="372.6" y2="493.7"/>
<line x1="372.8" y1="489.7" x2="371.2" y2="490.1"/>
<line x1="372.2" y1="485.9" x2="369.9" y2="486.5"/>
<line x1="371.6" y1="482.0" x2="368.5" y2="482.9"/>
<line x1="371.0" y1="478.2" x2="367.1" y2="479.3"/>
<line x1="370.3" y1="474.4" x2="365.7" y2="475.6"/>
<line x1="369.7" y1="470.6" x2="364.3" y2="472.0"/>
<line x1="145.9" y1="420.5" x2="146.3" y2="421.2"/>
<line x1="142.4" y1="422.1" x2="143.2" y2="423.5"/>
<line x1="138.8" y1="423.7" x2="140.0" y2="425.8"/>
<line x1="135.3" y1="425.3" x2="136.9" y2="428.0"/>
<line x1="131.8" y1="426.9" x2="133.8" y2="430.3"/>
<line x1="128.2" y1="428.4" x2="130.6" y2="432.6"/>
<line x1="124.7" y1="430.0" x2="127.5" y2="434.9"/>
<line x1="179.8" y1="587.9" x2="196.6" y2="611.0"/>
<line x1="267.7" y1="367.2" x2="275.1" y2="394.8"/>
<line x1="261.9" y1="368.8" x2="269.3" y2="396.4"/>
<line x1="264.8" y1="368.0" x2="237.3" y2="360.6"/>
<line x1="367.4" y1="337.8" x2="395.0" y2="345.2"/>
<line x1="365.8" y1="343.6" x2="393.4" y2="351.0"/>
<line x1="366.6" y1="340.7" x2="346.4" y2="360.9"/>
<polygon points="305.388476 390.284049 308.213397 416.281609 315.940803 414.211056 " />
<line x1="312.1" y1="415.2" x2="284.5" y2="407.9"/>
<polygon points="81.006549 411.971441 82.466991 438.081216 90.292172 436.417922 " />
<line x1="86.4" y1="437.2" x2="59.2" y2="428.4"/>
<polygon points="401.570641 439.226054 377.643634 428.673727 375.573081 436.401134 " />
<line x1="376.6" y1="432.5" x2="396.8" y2="412.4"/>
<polygon points="52.658843 472.276805 77.942016 478.956207 78.778244 471.000032 " />
<line x1="78.4" y1="475.0" x2="61.6" y2="498.1"/>
<line x1="366.5" y1="387.5" x2="367.1" y2="388.1"/>
<line x1="363.5" y1="390.0" x2="364.6" y2="391.1"/>
<line x1="360.5" y1="392.4" x2="362.2" y2="394.1"/>
<line x1="357.5" y1="394.9" x2="359.7" y2="397.1"/>
<line x1="354.5" y1="397.3" x2="357.3" y2="400.1"/>
<line x1="351.5" y1="399.7" x2="354.8" y2="403.1"/>
<line x1="348.4" y1="402.2" x2="352.4" y2="406.2"/>
<line x1="349.3" y1="405.3" x2="341.9" y2="377.7"/>
<line x1="102.1" y1="517.0" x2="101.4" y2="516.7"/>
<line x1="104.0" y1="513.6" x2="102.6" y2="513.0"/>
<line x1="106.0" y1="510.3" x2="103.8" y2="509.3"/>
<line x1="107.9" y1="506.9" x2="105.0" y2="505.6"/>
<line x1="109.8" y1="503.5" x2="106.2" y2="501.9"/>
<line x1="111.8" y1="500.2" x2="107.4" y2="498.2"/>
<line x1="113.7" y1="496.8" x2="108.6" y2="494.5"/>
<line x1="111.8" y1="494.3" x2="128.5" y2="517.4"/>
<line x1="302.1" y1="452.5" x2="298.4" y2="480.8"/>
<line x1="302.1" y1="452.5" x2="203.2" y2="395.4"/>
<line x1="119.1" y1="563.7" x2="90.7" y2="566.7"/>
<line x1="118.4" y1="557.7" x2="90.0" y2="560.7"/>
<line x1="62.8" y1="336.8" x2="81.3" y2="336.8"/>
<line x1="94.3" y1="308.2" x2="94.3" y2="326.8"/>
<line x1="88.3" y1="308.2" x2="88.3" y2="326.8"/>
<line x1="168.5" y1="308.2" x2="168.5" y2="326.8"/>
<line x1="197.0" y1="339.8" x2="178.5" y2="339.8"/>
<line x1="197.0" y1="333.8" x2="178.5" y2="333.8"/>
<line x1="91.3" y1="365.3" x2="91.3" y2="346.8"/>
<line x1="168.5" y1="365.3" x2="168.5" y2="346.8"/>
<line x1="119.9" y1="336.8" x2="101.4" y2="336.8"/>
<line x1="139.9" y1="336.8" x2="158.5" y2="336.8"/>
<line x1="124.7" y1="433.2" x2="86.4" y2="437.2"/>
<line x1="86.4" y1="437.2" x2="78.4" y2="475.0"/>
<line x1="78.4" y1="475.0" x2="111.8" y2="494.3"/>
<line x1="111.8" y1="494.3" x2="133.0" y2="475.2"/>
<line x1="136.3" y1="459.3" x2="124.7" y2="433.2"/>
<line x1="312.1" y1="415.2" x2="349.3" y2="405.3"/>
<line x1="349.3" y1="405.3" x2="376.6" y2="432.5"/>
<line x1="376.6" y1="432.5" x2="366.6" y2="469.8"/>
<line x1="366.6" y1="469.8" x2="339.1" y2="477.2"/>
<line x1="322.3" y1="472.7" x2="302.1" y2="452.5"/>
<line x1="302.1" y1="452.5" x2="312.1" y2="415.2"/>
<line x1="195.5" y1="552.6" x2="179.8" y2="587.9"/>
<line x1="179.8" y1="587.9" x2="151.4" y2="590.9"/>
<line x1="173.1" y1="581.3" x2="152.8" y2="583.5"/>
<line x1="135.5" y1="583.8" x2="118.7" y2="560.7"/>
<line x1="118.7" y1="560.7" x2="130.4" y2="534.6"/>
<line x1="144.4" y1="524.4" x2="172.8" y2="521.4"/>
<line x1="172.8" y1="521.4" x2="195.5" y2="552.6"/>
<line x1="170.5" y1="530.5" x2="186.1" y2="552.0"/>
<text x="67.201361" y="48.320000" fill="rgb(102,102,102)"  stroke="rgb(102,102,102)" stroke-width="1" font-size="16" >CH</text>
<text x="91.201361" y="56.000000" fill="rgb(102,102,102)"  stroke="rgb(102,102,102)" stroke-width="1" font-size="13" >3</text>
<text x="737.829863" y="204.528325" fill="rgb(102,102,102)"  stroke="rgb(102,102,102)" stroke-width="1" font-size="16" >CH</text>
<text x="761.829863" y="209.328325" fill="rgb(102,102,102)"  stroke="rgb(102,102,102)" stroke-width="1" font-size="13" >3</text>
<text x="271.219961" y="410.063312" fill="rgb(12,12,255)"  stroke="rgb(12,12,255)" stroke-width="1" font-size="16" >N</text>
<text x="137.818988" y="596.710470" fill="rgb(12,12,255)"  stroke="rgb(12,12,255)" stroke-width="1" font-size="16" >N</text>
<text x="128.435684" y="530.268775" fill="rgb(12,12,255)"  stroke="rgb(12,12,255)" stroke-width="1" font-size="16" >N</text>
<text x="425.156595" y="460.823471" fill="rgb(255,12,12)"  stroke="rgb(255,12,12)" stroke-width="1" font-size="16" >OH</text>
<text x="313.385178" y="301.811895" fill="rgb(255,12,12)"  stroke="rgb(255,12,12)" stroke-width="1" font-size="16" >OH</text>
<text x="341.042317" y="257.246678" fill="rgb(255,12,12)"  stroke="rgb(255,12,12)" stroke-width="1" font-size="16" >HO</text>
<text x="197.650835" y="638.283599" fill="rgb(255,12,12)"  stroke="rgb(255,12,12)" stroke-width="1" font-size="32" >-</text>
<text x="196.450835" y="623.883599" fill="rgb(255,12,12)"  stroke="rgb(255,12,12)" stroke-width="1" font-size="16" >O</text>
<text x="222.779802" y="351.623153" fill="rgb(255,12,12)"  stroke="rgb(255,12,12)" stroke-width="1" font-size="32" >-</text>
<text x="223.979802" y="366.343153" fill="rgb(255,12,12)"  stroke="rgb(255,12,12)" stroke-width="1" font-size="16" >O</text>
<text x="397.882476" y="355.515075" fill="rgb(255,12,12)"  stroke="rgb(255,12,12)" stroke-width="1" font-size="16" >O</text>
<text x="34.095973" y="433.650342" fill="rgb(255,12,12)"  stroke="rgb(255,12,12)" stroke-width="1" font-size="16" >HO</text>
<text x="397.882476" y="413.583312" fill="rgb(255,12,12)"  stroke="rgb(255,12,12)" stroke-width="1" font-size="16" >OH</text>
<text x="40.088413" y="510.983061" fill="rgb(255,12,12)"  stroke="rgb(255,12,12)" stroke-width="1" font-size="16" >HO</text>
<text x="76.787141" y="569.537341" fill="rgb(255,12,12)"  stroke="rgb(255,12,12)" stroke-width="1" font-size="16" >O</text>
<text x="37.164446" y="341.589186" fill="rgb(255,12,12)"  stroke="rgb(255,12,12)" stroke-width="1" font-size="16" >HO</text>
<text x="85.335874" y="306.537757" fill="rgb(255,12,12)"  stroke="rgb(255,12,12)" stroke-width="1" font-size="16" >O</text>
<text x="162.478732" y="306.537757" fill="rgb(255,12,12)"  stroke="rgb(255,12,12)" stroke-width="1" font-size="16" >OH</text>
<text x="201.050160" y="345.109186" fill="rgb(255,12,12)"  stroke="rgb(255,12,12)" stroke-width="1" font-size="16" >O</text>
<text x="87.735874" y="380.160614" fill="rgb(255,12,12)"  stroke="rgb(255,12,12)" stroke-width="1" font-size="16" >O</text>
<text x="134.428125" y="473.254510" fill="rgb(255,12,12)"  stroke="rgb(255,12,12)" stroke-width="1" font-size="16" >O</text>
<text x="325.768198" y="484.577590" fill="rgb(255,12,12)"  stroke="rgb(255,12,12)" stroke-width="1" font-size="16" >O</text>
<text x="335.751219" y="376.326173" fill="rgb(255,12,12)"  stroke="rgb(255,12,12)" stroke-width="1" font-size="16" >O</text>
<text x="164.878732" y="383.680614" fill="rgb(255,12,12)"  stroke="rgb(255,12,12)" stroke-width="1" font-size="16" >O</text>
<text x="123.907303" y="341.589186" fill="rgb(255,12,12)"  stroke="rgb(255,12,12)" stroke-width="1" font-size="16" >O</text>
<text x="85.335874" y="345.109186" fill="rgb(255,127,0)"  stroke="rgb(255,127,0)" stroke-width="1" font-size="16" >P</text>
<text x="162.478732" y="341.589186" fill="rgb(255,127,0)"  stroke="rgb(255,127,0)" stroke-width="1" font-size="16" >P</text>
<text x="286.111059" y="274.537776" fill="rgb(191,191,191)"  stroke="rgb(191,191,191)" stroke-width="1" font-size="16" >H</text>
<text x="387.899456" y="247.263658" fill="rgb(191,191,191)"  stroke="rgb(191,191,191)" stroke-width="1" font-size="16" >H</text>
<text x="370.608358" y="511.851709" fill="rgb(191,191,191)"  stroke="rgb(191,191,191)" stroke-width="1" font-size="16" >H</text>
<text x="152.143548" y="422.252043" fill="rgb(191,191,191)"  stroke="rgb(191,191,191)" stroke-width="1" font-size="16" >H</text>
<text x="298.494080" y="386.309193" fill="rgb(191,191,191)"  stroke="rgb(191,191,191)" stroke-width="1" font-size="16" >H</text>
<text x="74.760130" y="407.841019" fill="rgb(191,191,191)"  stroke="rgb(191,191,191)" stroke-width="1" font-size="16" >H</text>
<text x="407.865497" y="447.320451" fill="rgb(191,191,191)"  stroke="rgb(191,191,191)" stroke-width="1" font-size="16" >H</text>
<text x="36.400000" y="479.266307" fill="rgb(191,191,191)"  stroke="rgb(191,191,191)" stroke-width="1" font-size="16" >H</text>
<text x="370.608358" y="386.309193" fill="rgb(191,191,191)"  stroke="rgb(191,191,191)" stroke-width="1" font-size="16" >H</text>
<text x="92.475554" y="534.300587" fill="rgb(191,191,191)"  stroke="rgb(191,191,191)" stroke-width="1" font-size="16" >H</text>
<text x="293.459498" y="495.544916" fill="rgb(191,191,191)"  stroke="rgb(191,191,191)" stroke-width="1" font-size="16" >H</text>
<text font-size="18.000000" fill ="black" font-family="sans-serif"
x="140.000000" y="20.000000" ></text>
<title> - OBDepict</title>
</svg>
