<?xml version="1.0"?>
<svg xmlns="http://www.w3.org/2000/svg"
xmlns:xlink="http://www.w3.org/1999/xlink" xmlns:cml="http://www.xml-cml.org/schema" width="491.739" height="435.757" x="0" y="0" font-family="sans-serif" stroke="rgb(0,0,0)" stroke-width="1" >
<line x1="423.1" y1="372.9" x2="397.4" y2="361.0"/>
<line x1="334.3" y1="347.3" x2="362.6" y2="344.8"/>
<line x1="329.5" y1="188.3" x2="317.6" y2="214.1"/>
<line x1="245.5" y1="198.8" x2="246.3" y2="198.8"/>
<line x1="245.1" y1="202.8" x2="246.7" y2="202.8"/>
<line x1="244.7" y1="206.8" x2="247.1" y2="206.8"/>
<line x1="244.3" y1="210.7" x2="247.5" y2="210.7"/>
<line x1="243.9" y1="214.7" x2="247.9" y2="214.7"/>
<line x1="243.5" y1="218.7" x2="248.3" y2="218.7"/>
<line x1="243.1" y1="222.6" x2="248.7" y2="222.6"/>
<line x1="144.5" y1="140.9" x2="145.3" y2="141.2"/>
<line x1="142.9" y1="144.6" x2="144.4" y2="145.1"/>
<line x1="141.3" y1="148.2" x2="143.5" y2="149.0"/>
<line x1="139.6" y1="151.8" x2="142.7" y2="152.8"/>
<line x1="138.0" y1="155.5" x2="141.8" y2="156.7"/>
<line x1="136.4" y1="159.1" x2="140.9" y2="160.6"/>
<line x1="134.7" y1="162.7" x2="140.0" y2="164.5"/>
<line x1="413.5" y1="326.2" x2="397.4" y2="361.0"/>
<line x1="413.5" y1="326.2" x2="441.8" y2="323.6"/>
<line x1="397.4" y1="361.0" x2="385.4" y2="386.7"/>
<line x1="397.4" y1="361.0" x2="362.6" y2="344.8"/>
<polygon points="351.776047 368.127694 366.223016 346.500578 358.966434 343.132787 " />
<line x1="362.6" y1="344.8" x2="359.2" y2="306.6"/>
<polygon points="343.162472 211.768515 317.209355 210.070631 317.921053 218.038911 " />
<line x1="317.6" y1="214.1" x2="279.2" y2="214.1"/>
<line x1="317.6" y1="214.1" x2="324.4" y2="290.5"/>
<line x1="213.1" y1="161.9" x2="212.3" y2="161.9"/>
<line x1="213.5" y1="158.0" x2="211.9" y2="158.0"/>
<line x1="213.9" y1="154.2" x2="211.5" y2="154.2"/>
<line x1="214.3" y1="150.3" x2="211.1" y2="150.3"/>
<line x1="214.7" y1="146.5" x2="210.7" y2="146.5"/>
<line x1="215.1" y1="142.7" x2="210.3" y2="142.7"/>
<line x1="215.5" y1="138.8" x2="209.9" y2="138.8"/>
<polygon points="279.240501 240.636471 283.208239 214.049916 275.208245 214.059625 " />
<line x1="245.9" y1="156.5" x2="220.5" y2="141.8"/>
<polygon points="179.417930 130.733236 175.417930 156.466427 183.417930 156.466427 " />
<polygon points="137.748615 73.637171 142.359760 100.119716 149.949226 97.589894 " />
<line x1="176.4" y1="79.7" x2="176.4" y2="50.3"/>
<line x1="182.4" y1="79.7" x2="182.4" y2="50.3"/>
<line x1="54.3" y1="99.2" x2="54.3" y2="98.4"/>
<line x1="58.2" y1="99.6" x2="58.3" y2="98.0"/>
<line x1="62.2" y1="100.0" x2="62.2" y2="97.6"/>
<line x1="66.2" y1="100.4" x2="66.2" y2="97.2"/>
<line x1="70.1" y1="100.8" x2="70.2" y2="96.8"/>
<line x1="74.1" y1="101.2" x2="74.1" y2="96.4"/>
<line x1="78.1" y1="101.7" x2="78.1" y2="96.1"/>
<line x1="79.7" y1="98.9" x2="65.0" y2="73.4"/>
<line x1="67.4" y1="159.5" x2="66.7" y2="159.1"/>
<line x1="69.7" y1="156.3" x2="68.3" y2="155.5"/>
<line x1="72.0" y1="153.0" x2="69.9" y2="151.8"/>
<line x1="74.3" y1="149.8" x2="71.6" y2="148.2"/>
<line x1="76.7" y1="146.5" x2="73.2" y2="144.5"/>
<line x1="79.0" y1="143.3" x2="74.8" y2="140.9"/>
<line x1="81.3" y1="140.1" x2="76.5" y2="137.3"/>
<line x1="79.7" y1="137.3" x2="50.3" y2="137.3"/>
<polygon points="370.001081 283.300794 355.554112 304.927910 362.810694 308.295701 " />
<line x1="359.2" y1="306.6" x2="324.4" y2="290.5"/>
<line x1="359.2" y1="306.6" x2="387.5" y2="304.1"/>
<polygon points="298.792581 292.750780 324.745697 294.448665 324.033999 286.480385 " />
<line x1="324.4" y1="290.5" x2="312.4" y2="316.2"/>
<line x1="312.4" y1="194.9" x2="312.4" y2="156.5"/>
<line x1="312.4" y1="156.5" x2="245.9" y2="156.5"/>
<line x1="245.9" y1="156.5" x2="245.9" y2="194.9"/>
<line x1="245.9" y1="194.9" x2="279.2" y2="214.1"/>
<line x1="279.2" y1="214.1" x2="312.4" y2="194.9"/>
<line x1="212.7" y1="137.3" x2="179.4" y2="156.5"/>
<line x1="179.4" y1="156.5" x2="179.4" y2="194.9"/>
<line x1="179.4" y1="194.9" x2="212.7" y2="214.1"/>
<line x1="212.7" y1="214.1" x2="245.9" y2="194.9"/>
<line x1="245.9" y1="156.5" x2="212.7" y2="137.3"/>
<line x1="146.2" y1="98.9" x2="146.2" y2="137.3"/>
<line x1="146.2" y1="137.3" x2="179.4" y2="156.5"/>
<line x1="212.7" y1="137.3" x2="212.7" y2="98.9"/>
<line x1="212.7" y1="98.9" x2="179.4" y2="79.7"/>
<line x1="179.4" y1="79.7" x2="146.2" y2="98.9"/>
<line x1="112.9" y1="156.5" x2="146.2" y2="137.3"/>
<line x1="146.2" y1="98.9" x2="112.9" y2="79.7"/>
<line x1="112.9" y1="79.7" x2="79.7" y2="98.9"/>
<line x1="79.7" y1="98.9" x2="79.7" y2="137.3"/>
<line x1="79.7" y1="137.3" x2="112.9" y2="156.5"/>
<text x="426.179835" y="381.911244" fill="rgb(102,102,102)"  stroke="rgb(102,102,102)" stroke-width="1" font-size="16" >CH</text>
<text x="450.179835" y="386.711244" fill="rgb(102,102,102)"  stroke="rgb(102,102,102)" stroke-width="1" font-size="13" >3</text>
<text x="300.789848" y="353.029004" fill="rgb(102,102,102)"  stroke="rgb(102,102,102)" stroke-width="1" font-size="16" >H</text>
<text x="312.789848" y="357.829004" fill="rgb(102,102,102)"  stroke="rgb(102,102,102)" stroke-width="1" font-size="13" >3</text>
<text x="319.289848" y="353.029004" fill="rgb(102,102,102)"  stroke="rgb(102,102,102)" stroke-width="1" font-size="16" >C</text>
<text x="327.712485" y="187.582216" fill="rgb(102,102,102)"  stroke="rgb(102,102,102)" stroke-width="1" font-size="16" >CH</text>
<text x="351.712485" y="195.262216" fill="rgb(102,102,102)"  stroke="rgb(102,102,102)" stroke-width="1" font-size="13" >3</text>
<text x="239.944805" y="239.348383" fill="rgb(102,102,102)"  stroke="rgb(102,102,102)" stroke-width="1" font-size="16" >CH</text>
<text x="263.944805" y="244.148383" fill="rgb(102,102,102)"  stroke="rgb(102,102,102)" stroke-width="1" font-size="13" >3</text>
<text x="110.008407" y="179.724089" fill="rgb(102,102,102)"  stroke="rgb(102,102,102)" stroke-width="1" font-size="16" >H</text>
<text x="122.008407" y="184.524089" fill="rgb(102,102,102)"  stroke="rgb(102,102,102)" stroke-width="1" font-size="13" >3</text>
<text x="128.508407" y="179.724089" fill="rgb(102,102,102)"  stroke="rgb(102,102,102)" stroke-width="1" font-size="16" >C</text>
<text x="445.739438" y="331.079086" fill="rgb(255,12,12)"  stroke="rgb(255,12,12)" stroke-width="1" font-size="16" >OH</text>
<text x="173.417930" y="48.320000" fill="rgb(255,12,12)"  stroke="rgb(255,12,12)" stroke-width="1" font-size="16" >O</text>
<text x="44.282956" y="72.789480" fill="rgb(255,12,12)"  stroke="rgb(255,12,12)" stroke-width="1" font-size="16" >HO</text>
<text x="24.400000" y="142.138796" fill="rgb(255,12,12)"  stroke="rgb(255,12,12)" stroke-width="1" font-size="16" >HO</text>
<text x="391.387280" y="311.519484" fill="rgb(255,12,12)"  stroke="rgb(255,12,12)" stroke-width="1" font-size="16" >OH</text>
<text x="292.642567" y="330.057079" fill="rgb(255,12,12)"  stroke="rgb(255,12,12)" stroke-width="1" font-size="16" >HO</text>
<text x="377.639999" y="400.556518" fill="rgb(191,191,191)"  stroke="rgb(191,191,191)" stroke-width="1" font-size="16" >H</text>
<text x="342.847444" y="384.409237" fill="rgb(191,191,191)"  stroke="rgb(191,191,191)" stroke-width="1" font-size="16" >H</text>
<text x="349.770081" y="218.962449" fill="rgb(191,191,191)"  stroke="rgb(191,191,191)" stroke-width="1" font-size="16" >H</text>
<text x="206.681368" y="180.470301" fill="rgb(191,191,191)"  stroke="rgb(191,191,191)" stroke-width="1" font-size="16" >H</text>
<text x="273.256390" y="258.528950" fill="rgb(191,191,191)"  stroke="rgb(191,191,191)" stroke-width="1" font-size="16" >H</text>
<text x="208.008054" y="144.911055" fill="rgb(191,191,191)"  stroke="rgb(191,191,191)" stroke-width="1" font-size="16" >H</text>
<text x="173.417930" y="126.378679" fill="rgb(191,191,191)"  stroke="rgb(191,191,191)" stroke-width="1" font-size="16" >H</text>
<text x="130.008407" y="69.536546" fill="rgb(191,191,191)"  stroke="rgb(191,191,191)" stroke-width="1" font-size="16" >H</text>
<text x="36.400000" y="107.121840" fill="rgb(191,191,191)"  stroke="rgb(191,191,191)" stroke-width="1" font-size="16" >H</text>
<text x="56.282956" y="176.471155" fill="rgb(191,191,191)"  stroke="rgb(191,191,191)" stroke-width="1" font-size="16" >H</text>
<text x="369.329684" y="280.139251" fill="rgb(191,191,191)"  stroke="rgb(191,191,191)" stroke-width="1" font-size="16" >H</text>
<text x="282.584971" y="298.676847" fill="rgb(191,191,191)"  stroke="rgb(191,191,191)" stroke-width="1" font-size="16" >H</text>
<text font-size="18.000000" fill ="black" font-family="sans-serif"
x="140.000000" y="20.000000" ></text>
<title> - OBDepict</title>
</svg>
