<?xml version="1.0"?>
<svg xmlns="http://www.w3.org/2000/svg"
xmlns:xlink="http://www.w3.org/1999/xlink" xmlns:cml="http://www.xml-cml.org/schema" width="392.376" height="269.077" x="0" y="0" font-family="sans-serif" stroke="rgb(0,0,0)" stroke-width="1" >
<line x1="122.8" y1="177.5" x2="122.8" y2="139.7"/>
<line x1="122.8" y1="177.5" x2="147.0" y2="191.4"/>
<line x1="263.0" y1="229.1" x2="281.9" y2="196.4"/>
<line x1="263.0" y1="229.1" x2="235.0" y2="229.1"/>
<polygon points="99.374253 130.007842 121.227937 143.389503 124.289405 135.998467 " />
<polygon points="294.537650 218.280717 285.346196 194.360652 278.417993 198.360652 " />
<line x1="66.4" y1="116.1" x2="66.2" y2="115.3"/>
<line x1="73.8" y1="114.5" x2="73.4" y2="113.0"/>
<line x1="81.2" y1="113.0" x2="80.6" y2="110.6"/>
<line x1="88.6" y1="111.4" x2="87.8" y2="108.3"/>
<line x1="96.0" y1="109.8" x2="94.9" y2="106.0"/>
<line x1="103.4" y1="108.3" x2="102.1" y2="103.6"/>
<line x1="110.8" y1="106.7" x2="109.3" y2="101.3"/>
<line x1="113.0" y1="103.2" x2="93.2" y2="83.4"/>
<line x1="237.4" y1="198.6" x2="236.7" y2="198.2"/>
<line x1="239.7" y1="195.5" x2="238.3" y2="194.7"/>
<line x1="241.9" y1="192.5" x2="239.8" y2="191.3"/>
<line x1="244.1" y1="189.4" x2="241.4" y2="187.8"/>
<line x1="246.4" y1="186.3" x2="242.9" y2="184.3"/>
<line x1="248.6" y1="183.3" x2="244.4" y2="180.9"/>
<line x1="250.8" y1="180.2" x2="246.0" y2="177.4"/>
<line x1="249.2" y1="177.5" x2="221.2" y2="177.5"/>
<polygon points="121.796327 58.592873 136.865558 79.318958 142.522412 73.662104 " />
<line x1="139.7" y1="76.5" x2="146.9" y2="49.5"/>
<line x1="182.1" y1="62.8" x2="182.8" y2="63.0"/>
<line x1="180.7" y1="66.4" x2="182.2" y2="66.8"/>
<line x1="179.3" y1="69.9" x2="181.6" y2="70.5"/>
<line x1="178.0" y1="73.4" x2="181.1" y2="74.3"/>
<line x1="176.6" y1="77.0" x2="180.5" y2="78.0"/>
<line x1="175.2" y1="80.5" x2="179.9" y2="81.8"/>
<line x1="173.9" y1="84.1" x2="179.3" y2="85.5"/>
<line x1="176.2" y1="86.3" x2="203.2" y2="79.0"/>
<line x1="257.4" y1="79.1" x2="258.1" y2="78.7"/>
<line x1="260.8" y1="85.9" x2="262.2" y2="85.1"/>
<line x1="264.2" y1="92.6" x2="266.3" y2="91.4"/>
<line x1="267.7" y1="99.4" x2="270.4" y2="97.8"/>
<line x1="271.1" y1="106.1" x2="274.5" y2="104.1"/>
<line x1="274.5" y1="112.8" x2="278.7" y2="110.4"/>
<line x1="277.9" y1="119.6" x2="282.8" y2="116.8"/>
<line x1="281.9" y1="120.8" x2="295.9" y2="96.6"/>
<polygon points="252.469342 114.599414 245.199799 139.171881 253.131358 140.216090 " />
<line x1="249.2" y1="139.7" x2="222.2" y2="146.9"/>
<line x1="314.6" y1="139.7" x2="328.6" y2="115.5"/>
<line x1="314.6" y1="139.7" x2="342.6" y2="139.7"/>
<line x1="209.2" y1="116.1" x2="209.4" y2="116.9"/>
<line x1="205.5" y1="116.7" x2="205.9" y2="118.3"/>
<line x1="201.7" y1="117.3" x2="202.3" y2="119.6"/>
<line x1="198.0" y1="117.9" x2="198.8" y2="121.0"/>
<line x1="194.2" y1="118.5" x2="195.2" y2="122.3"/>
<line x1="190.4" y1="119.1" x2="191.7" y2="123.7"/>
<line x1="186.7" y1="119.7" x2="188.1" y2="125.1"/>
<line x1="186.0" y1="122.8" x2="205.7" y2="142.5"/>
<line x1="122.8" y1="139.7" x2="113.0" y2="103.2"/>
<line x1="113.0" y1="103.2" x2="139.7" y2="76.5"/>
<line x1="139.7" y1="76.5" x2="176.2" y2="86.3"/>
<line x1="176.2" y1="86.3" x2="186.0" y2="122.8"/>
<line x1="186.0" y1="122.8" x2="166.2" y2="142.5"/>
<line x1="149.8" y1="146.9" x2="122.8" y2="139.7"/>
<line x1="281.9" y1="196.4" x2="249.2" y2="177.5"/>
<line x1="249.2" y1="177.5" x2="249.2" y2="139.7"/>
<line x1="249.2" y1="139.7" x2="281.9" y2="120.8"/>
<line x1="281.9" y1="120.8" x2="314.6" y2="139.7"/>
<line x1="314.6" y1="139.7" x2="314.6" y2="167.6"/>
<line x1="306.1" y1="182.4" x2="281.9" y2="196.4"/>
<text x="149.475186" y="201.160652" fill="rgb(255,12,12)"  stroke="rgb(255,12,12)" stroke-width="1" font-size="16" >OH</text>
<text x="209.615428" y="233.877167" fill="rgb(255,12,12)"  stroke="rgb(255,12,12)" stroke-width="1" font-size="16" >HO</text>
<text x="70.668140" y="84.810531" fill="rgb(255,12,12)"  stroke="rgb(255,12,12)" stroke-width="1" font-size="16" >HO</text>
<text x="195.787801" y="182.271763" fill="rgb(255,12,12)"  stroke="rgb(255,12,12)" stroke-width="1" font-size="16" >HO</text>
<text x="143.471594" y="48.320000" fill="rgb(255,12,12)"  stroke="rgb(255,12,12)" stroke-width="1" font-size="16" >OH</text>
<text x="206.675048" y="84.810531" fill="rgb(255,12,12)"  stroke="rgb(255,12,12)" stroke-width="1" font-size="16" >OH</text>
<text x="294.770983" y="96.408581" fill="rgb(255,12,12)"  stroke="rgb(255,12,12)" stroke-width="1" font-size="16" >OH</text>
<text x="346.376387" y="148.013985" fill="rgb(255,12,12)"  stroke="rgb(255,12,12)" stroke-width="1" font-size="16" >OH</text>
<text x="308.598609" y="182.271763" fill="rgb(255,12,12)"  stroke="rgb(255,12,12)" stroke-width="1" font-size="16" >O</text>
<text x="153.249202" y="154.271594" fill="rgb(255,12,12)"  stroke="rgb(255,12,12)" stroke-width="1" font-size="16" >O</text>
<text x="209.075048" y="154.271594" fill="rgb(255,12,12)"  stroke="rgb(255,12,12)" stroke-width="1" font-size="16" >O</text>
<text x="84.256555" y="133.557056" fill="rgb(191,191,191)"  stroke="rgb(191,191,191)" stroke-width="1" font-size="16" >H</text>
<text x="294.770983" y="233.877167" fill="rgb(191,191,191)"  stroke="rgb(191,191,191)" stroke-width="1" font-size="16" >H</text>
<text x="36.400000" y="127.558671" fill="rgb(191,191,191)"  stroke="rgb(191,191,191)" stroke-width="1" font-size="16" >H</text>
<text x="226.676690" y="214.988278" fill="rgb(191,191,191)"  stroke="rgb(191,191,191)" stroke-width="1" font-size="16" >H</text>
<text x="109.381062" y="58.097608" fill="rgb(191,191,191)"  stroke="rgb(191,191,191)" stroke-width="1" font-size="16" >H</text>
<text x="179.962125" y="58.097608" fill="rgb(191,191,191)"  stroke="rgb(191,191,191)" stroke-width="1" font-size="16" >H</text>
<text x="240.504316" y="63.692066" fill="rgb(191,191,191)"  stroke="rgb(191,191,191)" stroke-width="1" font-size="16" >H</text>
<text x="248.096568" y="110.559402" fill="rgb(191,191,191)"  stroke="rgb(191,191,191)" stroke-width="1" font-size="16" >H</text>
<text x="327.487498" y="115.297470" fill="rgb(191,191,191)"  stroke="rgb(191,191,191)" stroke-width="1" font-size="16" >H</text>
<text x="216.452656" y="121.301062" fill="rgb(191,191,191)"  stroke="rgb(191,191,191)" stroke-width="1" font-size="16" >H</text>
<text font-size="18.000000" fill ="black" font-family="sans-serif"
x="140.000000" y="20.000000" ></text>
<title> - OBDepict</title>
</svg>
