<?xml version="1.0"?>
<svg xmlns="http://www.w3.org/2000/svg"
xmlns:xlink="http://www.w3.org/1999/xlink" xmlns:cml="http://www.xml-cml.org/schema" width="436.873" height="340.689" x="0" y="0" font-family="sans-serif" stroke="rgb(0,0,0)" stroke-width="1" >
<line x1="56.4" y1="101.7" x2="75.5" y2="103.5"/>
<line x1="75.5" y1="269.4" x2="89.4" y2="256.2"/>
<polygon points="141.525741 122.829256 117.499626 133.760102 121.877752 140.455773 " />
<polygon points="89.656992 57.265463 127.611049 95.346248 132.841463 89.292921 " />
<polygon points="104.456681 55.818713 95.401611 81.366117 103.253829 82.896698 " />
<line x1="87.7" y1="210.2" x2="94.6" y2="238.9"/>
<polygon points="218.219563 118.201387 191.289832 121.276082 193.360384 129.003489 " />
<line x1="192.3" y1="125.1" x2="234.2" y2="167.0"/>
<line x1="382.5" y1="171.0" x2="382.5" y2="171.8"/>
<line x1="378.5" y1="170.6" x2="378.5" y2="172.2"/>
<line x1="374.5" y1="170.2" x2="374.5" y2="172.6"/>
<line x1="370.5" y1="169.8" x2="370.5" y2="173.0"/>
<line x1="366.5" y1="169.4" x2="366.5" y2="173.4"/>
<line x1="362.5" y1="169.0" x2="362.5" y2="173.8"/>
<line x1="358.5" y1="168.6" x2="358.5" y2="174.2"/>
<line x1="356.9" y1="171.4" x2="371.7" y2="145.7"/>
<polygon points="370.265235 234.597353 360.325380 209.381020 353.397177 213.381020 " />
<line x1="356.9" y1="211.4" x2="386.5" y2="211.4"/>
<polygon points="335.613991 128.146973 318.745933 149.363306 325.674137 153.363306 " />
<line x1="322.2" y1="151.4" x2="292.6" y2="100.1"/>
<line x1="309.8" y1="253.8" x2="309.1" y2="253.4"/>
<line x1="312.1" y1="250.5" x2="310.7" y2="249.7"/>
<line x1="314.4" y1="247.2" x2="312.4" y2="246.0"/>
<line x1="316.8" y1="244.0" x2="314.0" y2="242.4"/>
<line x1="319.1" y1="240.7" x2="315.7" y2="238.7"/>
<line x1="321.5" y1="237.4" x2="317.3" y2="235.0"/>
<line x1="323.8" y1="234.2" x2="319.0" y2="231.4"/>
<line x1="322.2" y1="231.4" x2="342.2" y2="266.0"/>
<polygon points="195.888838 160.870236 173.731272 145.259137 170.139201 152.407355 " />
<line x1="344.8" y1="267.5" x2="330.0" y2="293.2"/>
<line x1="339.6" y1="264.5" x2="324.8" y2="290.2"/>
<line x1="342.2" y1="266.0" x2="371.8" y2="266.0"/>
<line x1="290.5" y1="145.9" x2="291.3" y2="146.0"/>
<line x1="289.6" y1="149.8" x2="291.2" y2="150.1"/>
<line x1="288.7" y1="153.8" x2="291.0" y2="154.1"/>
<line x1="287.7" y1="157.7" x2="290.9" y2="158.1"/>
<line x1="286.8" y1="161.6" x2="290.8" y2="162.1"/>
<line x1="285.9" y1="165.5" x2="290.7" y2="166.1"/>
<line x1="285.0" y1="169.4" x2="290.5" y2="170.1"/>
<line x1="287.6" y1="171.4" x2="259.0" y2="179.0"/>
<line x1="171.9" y1="148.8" x2="141.5" y2="122.8"/>
<line x1="141.5" y1="122.8" x2="107.4" y2="143.7"/>
<line x1="107.4" y1="143.7" x2="116.7" y2="182.6"/>
<line x1="116.7" y1="182.6" x2="146.2" y2="185.0"/>
<line x1="160.6" y1="176.2" x2="171.9" y2="148.8"/>
<line x1="40.0" y1="159.9" x2="49.3" y2="198.8"/>
<line x1="48.4" y1="164.0" x2="54.9" y2="191.3"/>
<line x1="49.3" y1="198.8" x2="87.7" y2="210.2"/>
<line x1="87.7" y1="210.2" x2="116.7" y2="182.6"/>
<line x1="87.1" y1="200.8" x2="107.4" y2="181.5"/>
<line x1="107.4" y1="143.7" x2="69.0" y2="132.3"/>
<line x1="99.6" y1="148.9" x2="72.7" y2="140.9"/>
<line x1="69.0" y1="132.3" x2="40.0" y2="159.9"/>
<line x1="130.2" y1="92.3" x2="99.3" y2="82.1"/>
<line x1="99.3" y1="82.1" x2="72.1" y2="99.9"/>
<line x1="72.1" y1="99.9" x2="69.0" y2="132.3"/>
<line x1="141.5" y1="122.8" x2="130.2" y2="92.3"/>
<line x1="158.9" y1="79.8" x2="186.5" y2="94.4"/>
<line x1="160.8" y1="89.0" x2="177.8" y2="98.0"/>
<line x1="186.5" y1="94.4" x2="192.3" y2="125.1"/>
<line x1="192.3" y1="125.1" x2="171.9" y2="148.8"/>
<line x1="130.2" y1="92.3" x2="158.9" y2="79.8"/>
<line x1="89.4" y1="98.7" x2="99.3" y2="82.1"/>
<line x1="141.5" y1="122.8" x2="119.7" y2="137.1"/>
<line x1="119.7" y1="137.1" x2="94.9" y2="128.9"/>
<line x1="94.9" y1="128.9" x2="88.2" y2="110.8"/>
<line x1="356.9" y1="171.4" x2="356.9" y2="211.4"/>
<line x1="356.9" y1="211.4" x2="322.2" y2="231.4"/>
<line x1="322.2" y1="231.4" x2="296.6" y2="216.6"/>
<line x1="287.6" y1="201.0" x2="287.6" y2="171.4"/>
<line x1="287.6" y1="171.4" x2="322.2" y2="151.4"/>
<line x1="322.2" y1="151.4" x2="356.9" y2="171.4"/>
<text x="22.413729" y="109.031055" fill="rgb(102,102,102)"  stroke="rgb(102,102,102)" stroke-width="1" font-size="16" >H</text>
<text x="34.413729" y="116.711055" fill="rgb(102,102,102)"  stroke="rgb(102,102,102)" stroke-width="1" font-size="13" >3</text>
<text x="40.913729" y="109.031055" fill="rgb(102,102,102)"  stroke="rgb(102,102,102)" stroke-width="1" font-size="16" >C</text>
<text x="44.351111" y="281.388079" fill="rgb(102,102,102)"  stroke="rgb(102,102,102)" stroke-width="1" font-size="16" >H</text>
<text x="56.351111" y="286.188079" fill="rgb(102,102,102)"  stroke="rgb(102,102,102)" stroke-width="1" font-size="13" >3</text>
<text x="62.851111" y="281.388079" fill="rgb(102,102,102)"  stroke="rgb(102,102,102)" stroke-width="1" font-size="16" >C</text>
<text x="79.848503" y="109.270797" fill="rgb(12,12,255)"  stroke="rgb(12,12,255)" stroke-width="1" font-size="16" >N</text>
<text x="370.867183" y="145.037967" fill="rgb(255,12,12)"  stroke="rgb(255,12,12)" stroke-width="1" font-size="16" >OH</text>
<text x="390.873088" y="219.701020" fill="rgb(255,12,12)"  stroke="rgb(255,12,12)" stroke-width="1" font-size="16" >OH</text>
<text x="266.598226" y="90.380819" fill="rgb(255,12,12)"  stroke="rgb(255,12,12)" stroke-width="1" font-size="16" >HO</text>
<text x="318.610035" y="305.489412" fill="rgb(255,12,12)"  stroke="rgb(255,12,12)" stroke-width="1" font-size="16" >O</text>
<text x="376.227749" y="270.838168" fill="rgb(255,12,12)"  stroke="rgb(255,12,12)" stroke-width="1" font-size="16" >OH</text>
<text x="90.991306" y="253.863327" fill="rgb(255,12,12)"  stroke="rgb(255,12,12)" stroke-width="1" font-size="16" >O</text>
<text x="242.910352" y="186.525029" fill="rgb(255,12,12)"  stroke="rgb(255,12,12)" stroke-width="1" font-size="16" >O</text>
<text x="150.601024" y="190.590069" fill="rgb(255,12,12)"  stroke="rgb(255,12,12)" stroke-width="1" font-size="16" >O</text>
<text x="283.958792" y="216.181020" fill="rgb(255,12,12)"  stroke="rgb(255,12,12)" stroke-width="1" font-size="16" >O</text>
<text x="66.075115" y="48.320000" fill="rgb(191,191,191)"  stroke="rgb(191,191,191)" stroke-width="1" font-size="16" >H</text>
<text x="100.982885" y="51.178729" fill="rgb(191,191,191)"  stroke="rgb(191,191,191)" stroke-width="1" font-size="16" >H</text>
<text x="224.973548" y="123.103967" fill="rgb(191,191,191)"  stroke="rgb(191,191,191)" stroke-width="1" font-size="16" >H</text>
<text x="390.873088" y="179.689211" fill="rgb(191,191,191)"  stroke="rgb(191,191,191)" stroke-width="1" font-size="16" >H</text>
<text x="370.867183" y="250.832263" fill="rgb(191,191,191)"  stroke="rgb(191,191,191)" stroke-width="1" font-size="16" >H</text>
<text x="336.215940" y="125.032063" fill="rgb(191,191,191)"  stroke="rgb(191,191,191)" stroke-width="1" font-size="16" >H</text>
<text x="298.604130" y="270.838168" fill="rgb(191,191,191)"  stroke="rgb(191,191,191)" stroke-width="1" font-size="16" >H</text>
<text x="201.686881" y="171.598903" fill="rgb(191,191,191)"  stroke="rgb(191,191,191)" stroke-width="1" font-size="16" >H</text>
<text x="286.781381" y="140.019708" fill="rgb(191,191,191)"  stroke="rgb(191,191,191)" stroke-width="1" font-size="16" >H</text>
<text font-size="18.000000" fill ="black" font-family="sans-serif"
x="140.000000" y="20.000000" ></text>
<title> - OBDepict</title>
</svg>
