<?xml version="1.0"?>
<svg xmlns="http://www.w3.org/2000/svg"
xmlns:xlink="http://www.w3.org/1999/xlink" xmlns:cml="http://www.xml-cml.org/schema" width="751.901" height="680.661" x="0" y="0" font-family="sans-serif" stroke="rgb(0,0,0)" stroke-width="1" >
<line x1="97.4" y1="47.5" x2="78.1" y2="69.0"/>
<line x1="49.9" y1="63.0" x2="78.1" y2="69.0"/>
<line x1="92.8" y1="160.9" x2="114.3" y2="180.2"/>
<line x1="129.0" y1="272.1" x2="150.4" y2="291.4"/>
<line x1="435.9" y1="233.8" x2="457.4" y2="253.1"/>
<line x1="429.9" y1="262.0" x2="457.4" y2="253.1"/>
<line x1="128.3" y1="114.1" x2="90.2" y2="106.0"/>
<line x1="128.3" y1="114.1" x2="140.3" y2="151.2"/>
<line x1="164.4" y1="225.3" x2="126.3" y2="217.2"/>
<line x1="164.4" y1="225.3" x2="176.5" y2="262.4"/>
<line x1="90.2" y1="106.0" x2="78.1" y2="69.0"/>
<line x1="140.3" y1="151.2" x2="114.3" y2="180.2"/>
<line x1="126.3" y1="217.2" x2="114.3" y2="180.2"/>
<line x1="176.5" y1="262.4" x2="150.4" y2="291.4"/>
<line x1="162.4" y1="328.4" x2="143.1" y2="349.9"/>
<line x1="163.1" y1="325.5" x2="201.2" y2="333.6"/>
<line x1="161.8" y1="331.4" x2="199.9" y2="339.5"/>
<line x1="162.4" y1="328.4" x2="150.4" y2="291.4"/>
<line x1="200.6" y1="336.5" x2="209.5" y2="364.0"/>
<line x1="200.6" y1="336.5" x2="226.6" y2="307.6"/>
<line x1="369.1" y1="199.8" x2="407.2" y2="207.9"/>
<line x1="369.1" y1="199.8" x2="343.0" y2="228.8"/>
<line x1="407.2" y1="207.9" x2="426.5" y2="186.5"/>
<line x1="329.0" y1="294.8" x2="290.8" y2="286.7"/>
<line x1="329.0" y1="294.8" x2="348.3" y2="273.4"/>
<line x1="290.8" y1="286.7" x2="271.5" y2="308.1"/>
<line x1="451.2" y1="469.5" x2="489.3" y2="477.6"/>
<line x1="451.2" y1="469.5" x2="442.3" y2="442.1"/>
<line x1="481.4" y1="327.2" x2="457.4" y2="253.1"/>
<line x1="481.4" y1="327.2" x2="462.1" y2="348.7"/>
<line x1="90.7" y1="188.3" x2="90.4" y2="187.5"/>
<line x1="94.5" y1="187.4" x2="94.0" y2="185.9"/>
<line x1="98.3" y1="186.6" x2="97.6" y2="184.3"/>
<line x1="102.1" y1="185.8" x2="101.2" y2="182.7"/>
<line x1="106.0" y1="185.0" x2="104.7" y2="181.2"/>
<line x1="109.8" y1="184.1" x2="108.3" y2="179.6"/>
<line x1="113.6" y1="183.3" x2="111.9" y2="178.0"/>
<line x1="126.8" y1="299.5" x2="126.5" y2="298.7"/>
<line x1="130.6" y1="298.6" x2="130.1" y2="297.1"/>
<line x1="134.4" y1="297.8" x2="133.7" y2="295.5"/>
<line x1="138.3" y1="297.0" x2="137.3" y2="293.9"/>
<line x1="142.1" y1="296.2" x2="140.9" y2="292.4"/>
<line x1="145.9" y1="295.3" x2="144.5" y2="290.8"/>
<line x1="149.8" y1="294.5" x2="148.0" y2="289.2"/>
<line x1="481.2" y1="454.0" x2="482.0" y2="453.8"/>
<line x1="482.1" y1="457.8" x2="483.6" y2="457.3"/>
<line x1="482.9" y1="461.7" x2="485.2" y2="460.9"/>
<line x1="483.7" y1="465.5" x2="486.8" y2="464.5"/>
<line x1="484.5" y1="469.3" x2="488.3" y2="468.1"/>
<line x1="485.4" y1="473.2" x2="489.9" y2="471.7"/>
<line x1="486.2" y1="477.0" x2="491.5" y2="475.3"/>
<line x1="345.8" y1="227.9" x2="354.8" y2="255.3"/>
<line x1="340.1" y1="229.7" x2="349.0" y2="257.1"/>
<line x1="343.0" y1="228.8" x2="314.8" y2="222.8"/>
<line x1="223.8" y1="308.5" x2="214.9" y2="281.1"/>
<line x1="229.5" y1="306.6" x2="220.6" y2="279.2"/>
<line x1="226.6" y1="307.6" x2="254.8" y2="313.6"/>
<line x1="513.5" y1="556.1" x2="512.8" y2="555.8"/>
<line x1="515.1" y1="552.5" x2="513.6" y2="552.0"/>
<line x1="516.7" y1="548.9" x2="514.4" y2="548.2"/>
<line x1="518.3" y1="545.3" x2="515.2" y2="544.3"/>
<line x1="519.9" y1="541.7" x2="516.1" y2="540.5"/>
<line x1="521.5" y1="538.1" x2="516.9" y2="536.7"/>
<line x1="523.0" y1="534.6" x2="517.7" y2="532.8"/>
<line x1="520.9" y1="532.2" x2="540.2" y2="553.7"/>
<line x1="460.3" y1="516.8" x2="460.3" y2="516.0"/>
<line x1="464.2" y1="517.2" x2="464.2" y2="515.6"/>
<line x1="468.1" y1="517.6" x2="468.1" y2="515.2"/>
<line x1="472.0" y1="518.0" x2="472.0" y2="514.8"/>
<line x1="475.9" y1="518.4" x2="475.9" y2="514.4"/>
<line x1="479.8" y1="518.8" x2="479.8" y2="514.0"/>
<line x1="483.7" y1="519.2" x2="483.7" y2="513.6"/>
<line x1="485.3" y1="516.4" x2="470.8" y2="541.3"/>
<line x1="483.4" y1="224.1" x2="510.9" y2="215.2"/>
<line x1="483.4" y1="224.1" x2="471.4" y2="187.1"/>
<line x1="483.4" y1="224.1" x2="457.4" y2="253.1"/>
<line x1="483.4" y1="224.1" x2="504.9" y2="243.4"/>
<line x1="687.4" y1="604.3" x2="697.7" y2="631.2"/>
<line x1="470.8" y1="190.0" x2="442.6" y2="184.0"/>
<line x1="472.0" y1="184.1" x2="443.8" y2="178.1"/>
<line x1="471.4" y1="187.1" x2="490.7" y2="165.6"/>
<line x1="562.5" y1="483.8" x2="563.1" y2="484.3"/>
<line x1="559.7" y1="486.5" x2="560.9" y2="487.5"/>
<line x1="556.9" y1="489.3" x2="558.8" y2="490.8"/>
<line x1="554.1" y1="492.0" x2="556.6" y2="494.1"/>
<line x1="551.3" y1="494.8" x2="554.4" y2="497.3"/>
<line x1="548.6" y1="497.5" x2="552.3" y2="500.6"/>
<line x1="545.8" y1="500.3" x2="550.1" y2="503.8"/>
<line x1="546.9" y1="503.3" x2="583.2" y2="548.1"/>
<line x1="426.8" y1="579.0" x2="426.8" y2="560.3"/>
<line x1="397.9" y1="550.1" x2="416.7" y2="550.1"/>
<line x1="429.8" y1="521.3" x2="429.8" y2="540.0"/>
<line x1="423.8" y1="521.3" x2="423.8" y2="540.0"/>
<line x1="395.0" y1="452.5" x2="398.9" y2="434.2"/>
<line x1="373.5" y1="415.4" x2="391.7" y2="419.3"/>
<line x1="372.2" y1="421.3" x2="390.5" y2="425.2"/>
<line x1="389.0" y1="342.1" x2="407.3" y2="346.0"/>
<line x1="426.2" y1="320.5" x2="422.3" y2="338.8"/>
<line x1="420.3" y1="319.3" x2="416.4" y2="337.6"/>
<line x1="429.2" y1="430.3" x2="410.9" y2="426.4"/>
<line x1="445.5" y1="354.1" x2="427.2" y2="350.2"/>
<line x1="455.6" y1="550.1" x2="436.9" y2="550.1"/>
<line x1="407.0" y1="396.1" x2="403.1" y2="414.4"/>
<line x1="411.2" y1="376.3" x2="415.1" y2="358.0"/>
<line x1="585.9" y1="601.5" x2="593.4" y2="573.6"/>
<line x1="606.1" y1="563.3" x2="634.9" y2="561.8"/>
<line x1="634.9" y1="561.8" x2="648.9" y2="598.2"/>
<line x1="648.9" y1="598.2" x2="626.5" y2="616.3"/>
<line x1="610.1" y1="617.2" x2="585.9" y2="601.5"/>
<line x1="612.2" y1="610.0" x2="594.9" y2="598.7"/>
<line x1="489.3" y1="477.6" x2="485.3" y2="516.4"/>
<line x1="485.3" y1="516.4" x2="520.9" y2="532.2"/>
<line x1="520.9" y1="532.2" x2="546.9" y2="503.3"/>
<line x1="546.9" y1="503.3" x2="532.5" y2="478.3"/>
<line x1="517.5" y1="471.6" x2="489.3" y2="477.6"/>
<line x1="634.9" y1="561.8" x2="653.1" y2="539.4"/>
<line x1="644.3" y1="561.7" x2="657.3" y2="545.5"/>
<line x1="669.4" y1="533.1" x2="697.9" y2="537.6"/>
<line x1="697.9" y1="537.6" x2="708.3" y2="564.5"/>
<line x1="693.4" y1="545.8" x2="700.8" y2="565.1"/>
<line x1="705.5" y1="581.9" x2="687.4" y2="604.3"/>
<line x1="687.4" y1="604.3" x2="648.9" y2="598.2"/>
<line x1="682.6" y1="596.2" x2="655.9" y2="592.0"/>
<text x="98.201612" y="48.320000" fill="rgb(102,102,102)"  stroke="rgb(102,102,102)" stroke-width="1" font-size="16" >CH</text>
<text x="122.201612" y="56.000000" fill="rgb(102,102,102)"  stroke="rgb(102,102,102)" stroke-width="1" font-size="13" >3</text>
<text x="16.400000" y="69.180368" fill="rgb(102,102,102)"  stroke="rgb(102,102,102)" stroke-width="1" font-size="16" >H</text>
<text x="28.400000" y="76.860368" fill="rgb(102,102,102)"  stroke="rgb(102,102,102)" stroke-width="1" font-size="13" >3</text>
<text x="34.900000" y="69.180368" fill="rgb(102,102,102)"  stroke="rgb(102,102,102)" stroke-width="1" font-size="16" >C</text>
<text x="61.690300" y="162.405111" fill="rgb(102,102,102)"  stroke="rgb(102,102,102)" stroke-width="1" font-size="16" >H</text>
<text x="73.690300" y="170.085111" fill="rgb(102,102,102)"  stroke="rgb(102,102,102)" stroke-width="1" font-size="13" >3</text>
<text x="80.190300" y="162.405111" fill="rgb(102,102,102)"  stroke="rgb(102,102,102)" stroke-width="1" font-size="16" >C</text>
<text x="97.821518" y="273.605565" fill="rgb(102,102,102)"  stroke="rgb(102,102,102)" stroke-width="1" font-size="16" >H</text>
<text x="109.821518" y="281.285565" fill="rgb(102,102,102)"  stroke="rgb(102,102,102)" stroke-width="1" font-size="13" >3</text>
<text x="116.321518" y="273.605565" fill="rgb(102,102,102)"  stroke="rgb(102,102,102)" stroke-width="1" font-size="16" >C</text>
<text x="404.794382" y="235.334135" fill="rgb(102,102,102)"  stroke="rgb(102,102,102)" stroke-width="1" font-size="16" >H</text>
<text x="416.794382" y="243.014135" fill="rgb(102,102,102)"  stroke="rgb(102,102,102)" stroke-width="1" font-size="13" >3</text>
<text x="423.294382" y="235.334135" fill="rgb(102,102,102)"  stroke="rgb(102,102,102)" stroke-width="1" font-size="16" >C</text>
<text x="396.691157" y="269.936811" fill="rgb(102,102,102)"  stroke="rgb(102,102,102)" stroke-width="1" font-size="16" >H</text>
<text x="408.691157" y="274.736811" fill="rgb(102,102,102)"  stroke="rgb(102,102,102)" stroke-width="1" font-size="13" >3</text>
<text x="415.191157" y="269.936811" fill="rgb(102,102,102)"  stroke="rgb(102,102,102)" stroke-width="1" font-size="16" >C</text>
<text x="695.340843" y="645.461356" fill="rgb(12,12,255)"  stroke="rgb(12,12,255)" stroke-width="1" font-size="16" >NH</text>
<text x="719.340843" y="650.261356" fill="rgb(12,12,255)"  stroke="rgb(12,12,255)" stroke-width="1" font-size="13" >2</text>
<text x="349.033687" y="270.650215" fill="rgb(12,12,255)"  stroke="rgb(12,12,255)" stroke-width="1" font-size="16" >N</text>
<text x="429.670496" y="187.279435" fill="rgb(12,12,255)"  stroke="rgb(12,12,255)" stroke-width="1" font-size="16" >N</text>
<text x="705.901041" y="578.786892" fill="rgb(12,12,255)"  stroke="rgb(12,12,255)" stroke-width="1" font-size="16" >N</text>
<text x="655.839360" y="539.824260" fill="rgb(12,12,255)"  stroke="rgb(12,12,255)" stroke-width="1" font-size="16" >N</text>
<text x="612.590397" y="627.506084" fill="rgb(12,12,255)"  stroke="rgb(12,12,255)" stroke-width="1" font-size="16" >N</text>
<text x="589.991055" y="568.632786" fill="rgb(12,12,255)"  stroke="rgb(12,12,255)" stroke-width="1" font-size="16" >N</text>
<text x="300.067272" y="214.280172" fill="rgb(255,12,12)"  stroke="rgb(255,12,12)" stroke-width="1" font-size="32" >-</text>
<text x="301.267272" y="229.000172" fill="rgb(255,12,12)"  stroke="rgb(255,12,12)" stroke-width="1" font-size="16" >O</text>
<text x="210.986724" y="278.824133" fill="rgb(255,12,12)"  stroke="rgb(255,12,12)" stroke-width="1" font-size="16" >O</text>
<text x="540.936338" y="565.982441" fill="rgb(255,12,12)"  stroke="rgb(255,12,12)" stroke-width="1" font-size="16" >OH</text>
<text x="506.400505" y="255.008415" fill="rgb(255,12,12)"  stroke="rgb(255,12,12)" stroke-width="1" font-size="16" >OH</text>
<text x="492.672109" y="151.699067" fill="rgb(255,12,12)"  stroke="rgb(255,12,12)" stroke-width="1" font-size="32" >-</text>
<text x="491.472109" y="166.419067" fill="rgb(255,12,12)"  stroke="rgb(255,12,12)" stroke-width="1" font-size="16" >O</text>
<text x="421.991014" y="608.293692" fill="rgb(255,12,12)"  stroke="rgb(255,12,12)" stroke-width="1" font-size="32" >-</text>
<text x="420.791014" y="593.893692" fill="rgb(255,12,12)"  stroke="rgb(255,12,12)" stroke-width="1" font-size="16" >O</text>
<text x="383.016655" y="569.319333" fill="rgb(255,12,12)"  stroke="rgb(255,12,12)" stroke-width="1" font-size="32" >-</text>
<text x="384.216655" y="554.919333" fill="rgb(255,12,12)"  stroke="rgb(255,12,12)" stroke-width="1" font-size="16" >O</text>
<text x="420.791014" y="519.464974" fill="rgb(255,12,12)"  stroke="rgb(255,12,12)" stroke-width="1" font-size="16" >O</text>
<text x="377.334167" y="467.255103" fill="rgb(255,12,12)"  stroke="rgb(255,12,12)" stroke-width="1" font-size="16" >HO</text>
<text x="359.314716" y="424.549202" fill="rgb(255,12,12)"  stroke="rgb(255,12,12)" stroke-width="1" font-size="16" >O</text>
<text x="363.521166" y="348.303851" fill="rgb(255,12,12)"  stroke="rgb(255,12,12)" stroke-width="1" font-size="16" >HO</text>
<text x="419.347066" y="318.284400" fill="rgb(255,12,12)"  stroke="rgb(255,12,12)" stroke-width="1" font-size="16" >O</text>
<text x="433.160067" y="440.755652" fill="rgb(255,12,12)"  stroke="rgb(255,12,12)" stroke-width="1" font-size="16" >O</text>
<text x="449.366517" y="360.990301" fill="rgb(255,12,12)"  stroke="rgb(255,12,12)" stroke-width="1" font-size="16" >O</text>
<text x="521.449158" y="477.822470" fill="rgb(255,12,12)"  stroke="rgb(255,12,12)" stroke-width="1" font-size="16" >O</text>
<text x="459.765373" y="554.919333" fill="rgb(255,12,12)"  stroke="rgb(255,12,12)" stroke-width="1" font-size="16" >O</text>
<text x="403.140617" y="391.009751" fill="rgb(255,12,12)"  stroke="rgb(255,12,12)" stroke-width="1" font-size="16" >O</text>
<text x="420.791014" y="558.439333" fill="rgb(255,127,0)"  stroke="rgb(255,127,0)" stroke-width="1" font-size="16" >P</text>
<text x="395.037392" y="429.132427" fill="rgb(255,127,0)"  stroke="rgb(255,127,0)" stroke-width="1" font-size="16" >P</text>
<text x="411.243841" y="352.887076" fill="rgb(255,127,0)"  stroke="rgb(255,127,0)" stroke-width="1" font-size="16" >P</text>
<text x="258.753138" y="320.474176" fill="rgb(178,178,0)"  stroke="rgb(178,178,0)" stroke-width="1" font-size="16" >S</text>
<text x="132.749914" y="362.194913" fill="rgb(191,191,191)"  stroke="rgb(191,191,191)" stroke-width="1" font-size="16" >H</text>
<text x="206.595266" y="378.401363" fill="rgb(191,191,191)"  stroke="rgb(191,191,191)" stroke-width="1" font-size="16" >H</text>
<text x="73.587075" y="197.007787" fill="rgb(191,191,191)"  stroke="rgb(191,191,191)" stroke-width="1" font-size="16" >H</text>
<text x="109.718293" y="308.208241" fill="rgb(191,191,191)"  stroke="rgb(191,191,191)" stroke-width="1" font-size="16" >H</text>
<text x="473.682743" y="448.858877" fill="rgb(191,191,191)"  stroke="rgb(191,191,191)" stroke-width="1" font-size="16" >H</text>
<text x="505.213662" y="574.085666" fill="rgb(191,191,191)"  stroke="rgb(191,191,191)" stroke-width="1" font-size="16" >H</text>
<text x="442.678194" y="521.166548" fill="rgb(191,191,191)"  stroke="rgb(191,191,191)" stroke-width="1" font-size="16" >H</text>
<text x="514.503730" y="220.405739" fill="rgb(191,191,191)"  stroke="rgb(191,191,191)" stroke-width="1" font-size="16" >H</text>
<text x="565.740084" y="481.512407" fill="rgb(191,191,191)"  stroke="rgb(191,191,191)" stroke-width="1" font-size="16" >H</text>
<text font-size="18.000000" fill ="black" font-family="sans-serif"
x="140.000000" y="20.000000" ></text>
<title> - OBDepict</title>
</svg>
