<?xml version="1.0"?>
<svg xmlns="http://www.w3.org/2000/svg"
xmlns:xlink="http://www.w3.org/1999/xlink" xmlns:cml="http://www.xml-cml.org/schema" width="431.769" height="220" x="0" y="0" font-family="sans-serif" stroke="rgb(0,0,0)" stroke-width="1" >
<line x1="282.9" y1="165.6" x2="282.1" y2="165.6"/>
<line x1="283.3" y1="161.6" x2="281.7" y2="161.6"/>
<line x1="283.7" y1="157.6" x2="281.3" y2="157.6"/>
<line x1="284.1" y1="153.6" x2="280.9" y2="153.6"/>
<line x1="284.5" y1="149.6" x2="280.5" y2="149.6"/>
<line x1="284.9" y1="145.6" x2="280.1" y2="145.6"/>
<line x1="285.3" y1="141.6" x2="279.7" y2="141.6"/>
<line x1="212.8" y1="74.4" x2="213.6" y2="74.4"/>
<line x1="212.4" y1="78.4" x2="214.0" y2="78.4"/>
<line x1="212.0" y1="82.4" x2="214.4" y2="82.4"/>
<line x1="211.6" y1="86.4" x2="214.8" y2="86.4"/>
<line x1="211.2" y1="90.4" x2="215.2" y2="90.4"/>
<line x1="210.8" y1="94.4" x2="215.6" y2="94.4"/>
<line x1="210.4" y1="98.4" x2="216.0" y2="98.4"/>
<line x1="282.1" y1="74.4" x2="282.9" y2="74.4"/>
<line x1="281.7" y1="78.4" x2="283.3" y2="78.4"/>
<line x1="281.3" y1="82.4" x2="283.7" y2="82.4"/>
<line x1="280.9" y1="86.4" x2="284.1" y2="86.4"/>
<line x1="280.5" y1="90.4" x2="284.5" y2="90.4"/>
<line x1="280.1" y1="94.4" x2="284.9" y2="94.4"/>
<line x1="279.7" y1="98.4" x2="285.3" y2="98.4"/>
<line x1="109.3" y1="80.0" x2="109.3" y2="50.4"/>
<line x1="213.6" y1="165.6" x2="212.8" y2="165.6"/>
<line x1="214.0" y1="161.6" x2="212.4" y2="161.6"/>
<line x1="214.4" y1="157.6" x2="212.0" y2="157.6"/>
<line x1="214.8" y1="153.6" x2="211.6" y2="153.6"/>
<line x1="215.2" y1="149.6" x2="211.2" y2="149.6"/>
<line x1="215.6" y1="145.6" x2="210.8" y2="145.6"/>
<line x1="216.0" y1="141.6" x2="210.4" y2="141.6"/>
<line x1="76.1" y1="142.6" x2="50.5" y2="157.4"/>
<line x1="73.1" y1="137.4" x2="47.5" y2="152.2"/>
<line x1="247.8" y1="80.0" x2="262.6" y2="54.4"/>
<line x1="247.8" y1="80.0" x2="233.0" y2="54.4"/>
<line x1="381.4" y1="100.0" x2="362.2" y2="100.0"/>
<line x1="369.2" y1="75.9" x2="359.6" y2="92.5"/>
<line x1="364.0" y1="72.9" x2="354.4" y2="89.5"/>
<line x1="282.5" y1="140.0" x2="282.5" y2="100.0"/>
<line x1="282.5" y1="100.0" x2="247.8" y2="80.0"/>
<line x1="247.8" y1="80.0" x2="213.2" y2="100.0"/>
<line x1="213.2" y1="100.0" x2="213.2" y2="140.0"/>
<line x1="213.2" y1="140.0" x2="238.8" y2="154.8"/>
<line x1="256.9" y1="154.8" x2="282.5" y2="140.0"/>
<line x1="213.2" y1="100.0" x2="187.6" y2="85.2"/>
<line x1="169.6" y1="85.2" x2="143.9" y2="100.0"/>
<line x1="143.9" y1="100.0" x2="143.9" y2="140.0"/>
<line x1="151.1" y1="106.0" x2="151.1" y2="134.0"/>
<line x1="143.9" y1="140.0" x2="169.6" y2="154.8"/>
<line x1="187.6" y1="154.8" x2="213.2" y2="140.0"/>
<line x1="109.3" y1="80.0" x2="143.9" y2="100.0"/>
<line x1="143.9" y1="140.0" x2="118.3" y2="154.8"/>
<line x1="100.3" y1="154.8" x2="74.6" y2="140.0"/>
<line x1="74.6" y1="140.0" x2="74.6" y2="110.4"/>
<line x1="83.6" y1="94.8" x2="109.3" y2="80.0"/>
<line x1="89.0" y1="100.0" x2="107.7" y2="89.2"/>
<line x1="342.8" y1="94.8" x2="326.1" y2="85.2"/>
<line x1="308.1" y1="85.2" x2="282.5" y2="100.0"/>
<line x1="282.5" y1="140.0" x2="317.1" y2="160.0"/>
<line x1="317.1" y1="160.0" x2="342.8" y2="145.2"/>
<line x1="351.8" y1="129.6" x2="351.8" y2="110.4"/>
<text x="24.400000" y="164.800000" fill="rgb(12,12,255)"  stroke="rgb(12,12,255)" stroke-width="1" font-size="16" >HN</text>
<text x="172.564065" y="88.320000" fill="rgb(12,12,255)"  stroke="rgb(12,12,255)" stroke-width="1" font-size="16" >NH</text>
<text x="172.564065" y="164.800000" fill="rgb(12,12,255)"  stroke="rgb(12,12,255)" stroke-width="1" font-size="16" >NH</text>
<text x="103.282032" y="164.800000" fill="rgb(12,12,255)"  stroke="rgb(12,12,255)" stroke-width="1" font-size="16" >NH</text>
<text x="71.041016" y="108.320000" fill="rgb(12,12,255)"  stroke="rgb(12,12,255)" stroke-width="1" font-size="16" >N</text>
<text x="103.282032" y="48.320000" fill="rgb(255,12,12)"  stroke="rgb(255,12,12)" stroke-width="1" font-size="16" >OH</text>
<text x="261.846097" y="53.678984" fill="rgb(255,12,12)"  stroke="rgb(255,12,12)" stroke-width="1" font-size="16" >OH</text>
<text x="212.246097" y="53.678984" fill="rgb(255,12,12)"  stroke="rgb(255,12,12)" stroke-width="1" font-size="16" >HO</text>
<text x="385.769145" y="108.320000" fill="rgb(255,12,12)"  stroke="rgb(255,12,12)" stroke-width="1" font-size="16" >OH</text>
<text x="365.769145" y="73.678984" fill="rgb(255,12,12)"  stroke="rgb(255,12,12)" stroke-width="1" font-size="16" >O</text>
<text x="345.769145" y="144.800000" fill="rgb(255,12,12)"  stroke="rgb(255,12,12)" stroke-width="1" font-size="16" >O</text>
<text x="241.846097" y="164.800000" fill="rgb(255,12,12)"  stroke="rgb(255,12,12)" stroke-width="1" font-size="16" >O</text>
<text x="311.128129" y="88.320000" fill="rgb(255,12,12)"  stroke="rgb(255,12,12)" stroke-width="1" font-size="16" >O</text>
<text x="348.169145" y="104.800000" fill="rgb(255,127,0)"  stroke="rgb(255,127,0)" stroke-width="1" font-size="16" >P</text>
<text x="276.487113" y="184.800000" fill="rgb(191,191,191)"  stroke="rgb(191,191,191)" stroke-width="1" font-size="16" >H</text>
<text x="207.205081" y="68.320000" fill="rgb(191,191,191)"  stroke="rgb(191,191,191)" stroke-width="1" font-size="16" >H</text>
<text x="276.487113" y="68.320000" fill="rgb(191,191,191)"  stroke="rgb(191,191,191)" stroke-width="1" font-size="16" >H</text>
<text x="207.205081" y="184.800000" fill="rgb(191,191,191)"  stroke="rgb(191,191,191)" stroke-width="1" font-size="16" >H</text>
<text font-size="18.000000" fill ="black" font-family="sans-serif"
x="140.000000" y="20.000000" ></text>
<title> - OBDepict</title>
</svg>
