<?xml version="1.0"?>
<svg xmlns="http://www.w3.org/2000/svg"
xmlns:xlink="http://www.w3.org/1999/xlink" xmlns:cml="http://www.xml-cml.org/schema" width="826.583" height="296.769" x="0" y="0" font-family="sans-serif" stroke="rgb(0,0,0)" stroke-width="1" >
<line x1="328.5" y1="184.3" x2="321.1" y2="156.7"/>
<line x1="470.4" y1="67.0" x2="477.8" y2="94.7"/>
<line x1="216.4" y1="154.3" x2="209.0" y2="126.7"/>
<line x1="569.6" y1="144.9" x2="589.8" y2="124.7"/>
<line x1="156.5" y1="201.3" x2="107.0" y2="172.7"/>
<line x1="694.5" y1="127.1" x2="701.9" y2="154.7"/>
<line x1="59.2" y1="89.9" x2="73.5" y2="114.7"/>
<line x1="102.1" y1="65.1" x2="73.5" y2="114.7"/>
<line x1="677.1" y1="247.1" x2="684.5" y2="219.4"/>
<line x1="656.9" y1="226.8" x2="684.5" y2="219.4"/>
<line x1="385.8" y1="139.4" x2="393.2" y2="167.0"/>
<line x1="383.6" y1="137.2" x2="411.0" y2="109.9"/>
<line x1="387.9" y1="141.5" x2="415.2" y2="114.1"/>
<line x1="385.8" y1="139.4" x2="348.4" y2="129.4"/>
<line x1="413.1" y1="112.0" x2="405.7" y2="84.4"/>
<line x1="413.1" y1="112.0" x2="450.4" y2="122.0"/>
<line x1="273.7" y1="109.3" x2="293.9" y2="89.1"/>
<line x1="276.6" y1="108.6" x2="286.6" y2="145.9"/>
<line x1="270.8" y1="110.1" x2="280.8" y2="147.5"/>
<line x1="273.7" y1="109.3" x2="236.4" y2="99.3"/>
<line x1="542.5" y1="77.3" x2="535.1" y2="49.7"/>
<line x1="544.6" y1="79.5" x2="517.3" y2="106.8"/>
<line x1="540.4" y1="75.2" x2="513.0" y2="102.6"/>
<line x1="542.5" y1="77.3" x2="579.8" y2="87.4"/>
<line x1="348.4" y1="129.4" x2="341.0" y2="101.7"/>
<line x1="350.5" y1="131.5" x2="323.2" y2="158.8"/>
<line x1="346.3" y1="127.2" x2="318.9" y2="154.6"/>
<line x1="450.4" y1="122.0" x2="457.8" y2="149.7"/>
<line x1="448.3" y1="119.9" x2="475.7" y2="92.6"/>
<line x1="452.6" y1="124.1" x2="479.9" y2="96.8"/>
<line x1="283.7" y1="146.7" x2="263.5" y2="166.9"/>
<line x1="283.7" y1="146.7" x2="321.1" y2="156.7"/>
<line x1="515.1" y1="104.7" x2="522.5" y2="132.3"/>
<line x1="515.1" y1="104.7" x2="477.8" y2="94.7"/>
<line x1="236.4" y1="99.3" x2="228.9" y2="71.7"/>
<line x1="238.5" y1="101.4" x2="211.1" y2="128.8"/>
<line x1="234.2" y1="97.2" x2="206.9" y2="124.5"/>
<line x1="579.8" y1="87.4" x2="600.1" y2="67.1"/>
<line x1="582.7" y1="86.6" x2="592.7" y2="123.9"/>
<line x1="576.9" y1="88.1" x2="586.9" y2="125.5"/>
<line x1="171.7" y1="116.7" x2="164.3" y2="89.0"/>
<line x1="173.8" y1="118.8" x2="146.4" y2="146.1"/>
<line x1="169.5" y1="114.5" x2="142.2" y2="141.9"/>
<line x1="171.7" y1="116.7" x2="209.0" y2="126.7"/>
<line x1="627.2" y1="134.7" x2="647.4" y2="114.5"/>
<line x1="630.1" y1="133.9" x2="640.1" y2="171.3"/>
<line x1="624.3" y1="135.5" x2="634.3" y2="172.8"/>
<line x1="627.2" y1="134.7" x2="589.8" y2="124.7"/>
<line x1="144.3" y1="144.0" x2="151.7" y2="171.6"/>
<line x1="144.3" y1="144.0" x2="107.0" y2="134.0"/>
<line x1="637.2" y1="172.1" x2="617.0" y2="192.3"/>
<line x1="637.2" y1="172.1" x2="674.5" y2="182.1"/>
<line x1="767.0" y1="219.3" x2="766.4" y2="219.9"/>
<line x1="764.6" y1="216.3" x2="763.4" y2="217.4"/>
<line x1="762.1" y1="213.3" x2="760.4" y2="215.0"/>
<line x1="759.7" y1="210.3" x2="757.4" y2="212.5"/>
<line x1="757.2" y1="207.2" x2="754.4" y2="210.1"/>
<line x1="754.8" y1="204.2" x2="751.4" y2="207.6"/>
<line x1="752.3" y1="201.2" x2="748.3" y2="205.2"/>
<line x1="749.2" y1="202.1" x2="776.9" y2="194.7"/>
<line x1="103.3" y1="109.5" x2="104.1" y2="109.4"/>
<line x1="103.5" y1="113.4" x2="105.0" y2="113.2"/>
<line x1="103.6" y1="117.3" x2="105.9" y2="117.0"/>
<line x1="103.7" y1="121.2" x2="106.8" y2="120.8"/>
<line x1="103.8" y1="125.1" x2="107.7" y2="124.5"/>
<line x1="103.9" y1="128.9" x2="108.6" y2="128.3"/>
<line x1="104.0" y1="132.8" x2="109.5" y2="132.1"/>
<line x1="73.5" y1="192.0" x2="40.0" y2="172.7"/>
<line x1="40.0" y1="172.7" x2="40.0" y2="134.0"/>
<line x1="40.0" y1="134.0" x2="73.5" y2="114.7"/>
<line x1="73.5" y1="114.7" x2="107.0" y2="134.0"/>
<line x1="107.0" y1="134.0" x2="107.0" y2="172.7"/>
<line x1="107.0" y1="172.7" x2="73.5" y2="192.0"/>
<line x1="98.2" y1="169.4" x2="75.1" y2="182.8"/>
<line x1="739.2" y1="164.7" x2="701.9" y2="154.7"/>
<line x1="701.9" y1="154.7" x2="674.5" y2="182.1"/>
<line x1="702.7" y1="164.1" x2="683.9" y2="182.9"/>
<line x1="674.5" y1="182.1" x2="684.5" y2="219.4"/>
<line x1="684.5" y1="219.4" x2="721.9" y2="229.4"/>
<line x1="721.9" y1="229.4" x2="749.2" y2="202.1"/>
<line x1="749.2" y1="202.1" x2="739.2" y2="164.7"/>
<text x="325.067423" y="198.841103" fill="rgb(102,102,102)"  stroke="rgb(102,102,102)" stroke-width="1" font-size="16" >CH</text>
<text x="349.067423" y="203.641103" fill="rgb(102,102,102)"  stroke="rgb(102,102,102)" stroke-width="1" font-size="13" >3</text>
<text x="444.174734" y="65.653792" fill="rgb(102,102,102)"  stroke="rgb(102,102,102)" stroke-width="1" font-size="16" >H</text>
<text x="456.174734" y="73.333792" fill="rgb(102,102,102)"  stroke="rgb(102,102,102)" stroke-width="1" font-size="13" >3</text>
<text x="462.674734" y="65.653792" fill="rgb(102,102,102)"  stroke="rgb(102,102,102)" stroke-width="1" font-size="16" >C</text>
<text x="213.020027" y="168.818094" fill="rgb(102,102,102)"  stroke="rgb(102,102,102)" stroke-width="1" font-size="16" >CH</text>
<text x="237.020027" y="173.618094" fill="rgb(102,102,102)"  stroke="rgb(102,102,102)" stroke-width="1" font-size="13" >3</text>
<text x="538.888337" y="156.847396" fill="rgb(102,102,102)"  stroke="rgb(102,102,102)" stroke-width="1" font-size="16" >H</text>
<text x="550.888337" y="161.647396" fill="rgb(102,102,102)"  stroke="rgb(102,102,102)" stroke-width="1" font-size="13" >3</text>
<text x="557.388337" y="156.847396" fill="rgb(102,102,102)"  stroke="rgb(102,102,102)" stroke-width="1" font-size="16" >C</text>
<text x="167.945262" y="216.128418" fill="rgb(102,102,102)"  stroke="rgb(102,102,102)" stroke-width="1" font-size="16" >CH</text>
<text x="191.945262" y="220.928418" fill="rgb(102,102,102)"  stroke="rgb(102,102,102)" stroke-width="1" font-size="13" >3</text>
<text x="668.269526" y="125.699811" fill="rgb(102,102,102)"  stroke="rgb(102,102,102)" stroke-width="1" font-size="16" >H</text>
<text x="680.269526" y="133.379811" fill="rgb(102,102,102)"  stroke="rgb(102,102,102)" stroke-width="1" font-size="13" >3</text>
<text x="686.769526" y="125.699811" fill="rgb(102,102,102)"  stroke="rgb(102,102,102)" stroke-width="1" font-size="16" >C</text>
<text x="30.552982" y="89.495436" fill="rgb(102,102,102)"  stroke="rgb(102,102,102)" stroke-width="1" font-size="16" >H</text>
<text x="42.552982" y="97.175436" fill="rgb(102,102,102)"  stroke="rgb(102,102,102)" stroke-width="1" font-size="13" >3</text>
<text x="49.052982" y="89.495436" fill="rgb(102,102,102)"  stroke="rgb(102,102,102)" stroke-width="1" font-size="16" >C</text>
<text x="106.152982" y="56.009120" fill="rgb(102,102,102)"  stroke="rgb(102,102,102)" stroke-width="1" font-size="16" >CH</text>
<text x="130.152982" y="63.689120" fill="rgb(102,102,102)"  stroke="rgb(102,102,102)" stroke-width="1" font-size="13" >3</text>
<text x="650.935733" y="261.568669" fill="rgb(102,102,102)"  stroke="rgb(102,102,102)" stroke-width="1" font-size="16" >H</text>
<text x="662.935733" y="266.368669" fill="rgb(102,102,102)"  stroke="rgb(102,102,102)" stroke-width="1" font-size="13" >3</text>
<text x="669.435733" y="261.568669" fill="rgb(102,102,102)"  stroke="rgb(102,102,102)" stroke-width="1" font-size="16" >C</text>
<text x="623.594271" y="234.227207" fill="rgb(102,102,102)"  stroke="rgb(102,102,102)" stroke-width="1" font-size="16" >H</text>
<text x="635.594271" y="239.027207" fill="rgb(102,102,102)"  stroke="rgb(102,102,102)" stroke-width="1" font-size="13" >3</text>
<text x="642.094271" y="234.227207" fill="rgb(102,102,102)"  stroke="rgb(102,102,102)" stroke-width="1" font-size="16" >C</text>
<text x="780.583129" y="200.398075" fill="rgb(255,12,12)"  stroke="rgb(255,12,12)" stroke-width="1" font-size="16" >OH</text>
<text x="389.758017" y="181.507311" fill="rgb(191,191,191)"  stroke="rgb(191,191,191)" stroke-width="1" font-size="16" >H</text>
<text x="399.484140" y="82.987585" fill="rgb(191,191,191)"  stroke="rgb(191,191,191)" stroke-width="1" font-size="16" >H</text>
<text x="295.044414" y="90.313708" fill="rgb(191,191,191)"  stroke="rgb(191,191,191)" stroke-width="1" font-size="16" >H</text>
<text x="528.865328" y="48.320000" fill="rgb(191,191,191)"  stroke="rgb(191,191,191)" stroke-width="1" font-size="16" >H</text>
<text x="334.793546" y="100.321377" fill="rgb(191,191,191)"  stroke="rgb(191,191,191)" stroke-width="1" font-size="16" >H</text>
<text x="454.448611" y="164.173519" fill="rgb(191,191,191)"  stroke="rgb(191,191,191)" stroke-width="1" font-size="16" >H</text>
<text x="252.769159" y="178.825764" fill="rgb(191,191,191)"  stroke="rgb(191,191,191)" stroke-width="1" font-size="16" >H</text>
<text x="519.139205" y="146.839726" fill="rgb(191,191,191)"  stroke="rgb(191,191,191)" stroke-width="1" font-size="16" >H</text>
<text x="222.746150" y="70.298368" fill="rgb(191,191,191)"  stroke="rgb(191,191,191)" stroke-width="1" font-size="16" >H</text>
<text x="601.163592" y="68.335339" fill="rgb(191,191,191)"  stroke="rgb(191,191,191)" stroke-width="1" font-size="16" >H</text>
<text x="158.055556" y="87.632161" fill="rgb(191,191,191)"  stroke="rgb(191,191,191)" stroke-width="1" font-size="16" >H</text>
<text x="648.520394" y="115.692141" fill="rgb(191,191,191)"  stroke="rgb(191,191,191)" stroke-width="1" font-size="16" >H</text>
<text x="148.329433" y="186.151887" fill="rgb(191,191,191)"  stroke="rgb(191,191,191)" stroke-width="1" font-size="16" >H</text>
<text x="606.245139" y="204.204198" fill="rgb(191,191,191)"  stroke="rgb(191,191,191)" stroke-width="1" font-size="16" >H</text>
<text x="770.575459" y="234.227207" fill="rgb(191,191,191)"  stroke="rgb(191,191,191)" stroke-width="1" font-size="16" >H</text>
<text x="98.325618" y="103.979217" fill="rgb(191,191,191)"  stroke="rgb(191,191,191)" stroke-width="1" font-size="16" >H</text>
<text font-size="18.000000" fill ="black" font-family="sans-serif"
x="140.000000" y="20.000000" ></text>
<title> - OBDepict</title>
</svg>
