<?xml version="1.0"?>
<svg xmlns="http://www.w3.org/2000/svg"
xmlns:xlink="http://www.w3.org/1999/xlink" xmlns:cml="http://www.xml-cml.org/schema" width="324.35" height="318.912" x="0" y="0" font-family="sans-serif" stroke="rgb(0,0,0)" stroke-width="1" >
<line x1="250.4" y1="268.5" x2="250.1" y2="249.3"/>
<line x1="40.2" y1="132.0" x2="40.5" y2="151.2"/>
<line x1="188.8" y1="45.1" x2="205.4" y2="54.6"/>
<line x1="204.4" y1="242.8" x2="203.7" y2="242.4"/>
<line x1="206.5" y1="239.3" x2="205.0" y2="238.6"/>
<line x1="208.6" y1="235.9" x2="206.4" y2="234.9"/>
<line x1="210.6" y1="232.5" x2="207.8" y2="231.1"/>
<line x1="212.7" y1="229.0" x2="209.1" y2="227.3"/>
<line x1="214.8" y1="225.6" x2="210.5" y2="223.5"/>
<line x1="216.9" y1="222.2" x2="211.8" y2="219.8"/>
<line x1="75.7" y1="180.9" x2="49.8" y2="166.6"/>
<line x1="214.6" y1="99.4" x2="214.4" y2="70.0"/>
<line x1="110.2" y1="160.2" x2="109.6" y2="130.6"/>
<line x1="180.2" y1="119.5" x2="154.7" y2="104.6"/>
<line x1="284.2" y1="179.1" x2="249.4" y2="159.0"/>
<line x1="249.4" y1="159.0" x2="215.0" y2="179.1"/>
<line x1="215.0" y1="179.1" x2="215.1" y2="219.5"/>
<line x1="215.1" y1="219.5" x2="240.9" y2="233.9"/>
<line x1="258.9" y1="233.7" x2="284.3" y2="218.9"/>
<line x1="284.3" y1="218.9" x2="284.2" y2="179.1"/>
<line x1="249.1" y1="119.1" x2="249.4" y2="159.0"/>
<line x1="241.9" y1="125.1" x2="242.1" y2="153.1"/>
<line x1="215.0" y1="179.1" x2="180.0" y2="159.5"/>
<line x1="213.3" y1="169.9" x2="188.7" y2="156.1"/>
<line x1="180.0" y1="159.5" x2="180.2" y2="119.5"/>
<line x1="180.2" y1="119.5" x2="214.6" y2="99.4"/>
<line x1="189.0" y1="122.7" x2="213.0" y2="108.7"/>
<line x1="214.6" y1="99.4" x2="249.1" y2="119.1"/>
<line x1="111.7" y1="240.7" x2="76.4" y2="221.2"/>
<line x1="109.9" y1="231.5" x2="85.2" y2="217.8"/>
<line x1="76.4" y1="221.2" x2="75.7" y2="180.9"/>
<line x1="75.7" y1="180.9" x2="110.2" y2="160.2"/>
<line x1="84.6" y1="184.0" x2="108.8" y2="169.4"/>
<line x1="110.2" y1="160.2" x2="145.4" y2="179.7"/>
<line x1="145.4" y1="179.7" x2="146.2" y2="219.9"/>
<line x1="138.3" y1="185.8" x2="138.8" y2="214.0"/>
<line x1="146.2" y1="219.9" x2="111.7" y2="240.7"/>
<line x1="215.1" y1="219.5" x2="180.5" y2="239.7"/>
<line x1="180.5" y1="239.7" x2="146.2" y2="219.9"/>
<line x1="145.4" y1="179.7" x2="180.0" y2="159.5"/>
<text x="244.582581" y="283.711911" fill="rgb(102,102,102)"  stroke="rgb(102,102,102)" stroke-width="1" font-size="16" >CH</text>
<text x="268.582581" y="288.511911" fill="rgb(102,102,102)"  stroke="rgb(102,102,102)" stroke-width="1" font-size="13" >3</text>
<text x="16.400000" y="129.964066" fill="rgb(102,102,102)"  stroke="rgb(102,102,102)" stroke-width="1" font-size="16" >H</text>
<text x="28.400000" y="137.644066" fill="rgb(102,102,102)"  stroke="rgb(102,102,102)" stroke-width="1" font-size="13" >3</text>
<text x="34.900000" y="129.964066" fill="rgb(102,102,102)"  stroke="rgb(102,102,102)" stroke-width="1" font-size="16" >C</text>
<text x="156.243214" y="48.320000" fill="rgb(102,102,102)"  stroke="rgb(102,102,102)" stroke-width="1" font-size="16" >H</text>
<text x="168.243214" y="56.000000" fill="rgb(102,102,102)"  stroke="rgb(102,102,102)" stroke-width="1" font-size="13" >3</text>
<text x="174.743214" y="48.320000" fill="rgb(102,102,102)"  stroke="rgb(102,102,102)" stroke-width="1" font-size="16" >C</text>
<text x="243.992219" y="247.271760" fill="rgb(12,12,255)"  stroke="rgb(12,12,255)" stroke-width="1" font-size="16" >N</text>
<text x="93.856377" y="128.545750" fill="rgb(255,12,12)"  stroke="rgb(255,12,12)" stroke-width="1" font-size="16" >HO</text>
<text x="130.083425" y="107.692304" fill="rgb(255,12,12)"  stroke="rgb(255,12,12)" stroke-width="1" font-size="16" >HO</text>
<text x="37.132850" y="166.401857" fill="rgb(255,12,12)"  stroke="rgb(255,12,12)" stroke-width="1" font-size="16" >O</text>
<text x="208.360159" y="68.012360" fill="rgb(255,12,12)"  stroke="rgb(255,12,12)" stroke-width="1" font-size="16" >O</text>
<text x="194.252535" y="260.387527" fill="rgb(191,191,191)"  stroke="rgb(191,191,191)" stroke-width="1" font-size="16" >H</text>
<text font-size="18.000000" fill ="black" font-family="sans-serif"
x="140.000000" y="20.000000" ></text>
<title> - OBDepict</title>
</svg>
