<?xml version="1.0"?>
<svg xmlns="http://www.w3.org/2000/svg"
xmlns:xlink="http://www.w3.org/1999/xlink" xmlns:cml="http://www.xml-cml.org/schema" width="398.912" height="267.33" x="0" y="0" font-family="sans-serif" stroke="rgb(0,0,0)" stroke-width="1" >
<line x1="338.9" y1="132.7" x2="298.9" y2="132.7"/>
<line x1="338.9" y1="132.7" x2="353.7" y2="107.1"/>
<line x1="71.1" y1="65.2" x2="108.4" y2="79.5"/>
<line x1="71.1" y1="65.2" x2="48.1" y2="83.8"/>
<line x1="166.7" y1="114.1" x2="166.5" y2="113.3"/>
<line x1="170.6" y1="113.5" x2="170.2" y2="111.9"/>
<line x1="174.6" y1="112.8" x2="174.0" y2="110.5"/>
<line x1="178.6" y1="112.2" x2="177.7" y2="109.1"/>
<line x1="182.5" y1="111.5" x2="181.5" y2="107.6"/>
<line x1="186.5" y1="110.9" x2="185.3" y2="106.2"/>
<line x1="190.5" y1="110.2" x2="189.0" y2="104.8"/>
<line x1="201.3" y1="104.4" x2="209.0" y2="75.8"/>
<polygon points="312.312291 109.479341 295.448190 130.688822 302.376393 134.688822 " />
<line x1="104.0" y1="54.3" x2="104.8" y2="54.2"/>
<line x1="104.3" y1="58.3" x2="105.8" y2="58.0"/>
<line x1="104.5" y1="62.3" x2="106.9" y2="61.9"/>
<line x1="104.7" y1="66.3" x2="107.9" y2="65.8"/>
<line x1="105.0" y1="70.3" x2="108.9" y2="69.7"/>
<line x1="105.2" y1="74.4" x2="109.9" y2="73.6"/>
<line x1="105.4" y1="78.4" x2="110.9" y2="77.5"/>
<line x1="324.5" y1="172.3" x2="324.5" y2="173.1"/>
<line x1="320.5" y1="171.9" x2="320.5" y2="173.5"/>
<line x1="316.5" y1="171.5" x2="316.5" y2="173.9"/>
<line x1="312.5" y1="171.1" x2="312.5" y2="174.3"/>
<line x1="308.5" y1="170.7" x2="308.5" y2="174.7"/>
<line x1="304.5" y1="170.3" x2="304.5" y2="175.1"/>
<line x1="300.5" y1="169.9" x2="300.5" y2="175.5"/>
<line x1="298.9" y1="172.7" x2="313.7" y2="198.3"/>
<polygon points="71.606246 113.952123 97.450556 122.095320 98.702032 114.193813 " />
<line x1="98.1" y1="118.1" x2="79.4" y2="141.1"/>
<polygon points="277.671275 215.898303 267.735377 190.688822 260.807174 194.688822 " />
<line x1="264.3" y1="192.7" x2="249.5" y2="218.3"/>
<line x1="217.2" y1="195.1" x2="216.5" y2="194.7"/>
<line x1="219.5" y1="191.8" x2="218.1" y2="191.0"/>
<line x1="221.9" y1="188.5" x2="219.8" y2="187.3"/>
<line x1="224.2" y1="185.3" x2="221.4" y2="183.7"/>
<line x1="226.6" y1="182.0" x2="223.1" y2="180.0"/>
<line x1="228.9" y1="178.7" x2="224.8" y2="176.3"/>
<line x1="231.3" y1="175.5" x2="226.4" y2="172.7"/>
<line x1="229.6" y1="172.7" x2="200.0" y2="172.7"/>
<line x1="120.4" y1="162.9" x2="119.6" y2="162.6"/>
<line x1="122.5" y1="159.5" x2="121.1" y2="158.8"/>
<line x1="124.7" y1="156.2" x2="122.6" y2="155.1"/>
<line x1="126.9" y1="152.8" x2="124.0" y2="151.3"/>
<line x1="129.0" y1="149.4" x2="125.5" y2="147.6"/>
<line x1="131.2" y1="146.0" x2="126.9" y2="143.8"/>
<line x1="133.4" y1="142.6" x2="128.4" y2="140.1"/>
<line x1="131.6" y1="139.9" x2="147.7" y2="164.8"/>
<line x1="232.6" y1="107.3" x2="233.4" y2="107.4"/>
<line x1="231.7" y1="111.2" x2="233.2" y2="111.4"/>
<line x1="230.7" y1="115.1" x2="233.1" y2="115.4"/>
<line x1="229.8" y1="119.0" x2="233.0" y2="119.4"/>
<line x1="228.9" y1="122.9" x2="232.9" y2="123.4"/>
<line x1="228.0" y1="126.8" x2="232.7" y2="127.4"/>
<line x1="227.1" y1="130.7" x2="232.6" y2="131.5"/>
<line x1="229.6" y1="132.7" x2="201.0" y2="140.3"/>
<line x1="162.7" y1="114.8" x2="183.6" y2="135.7"/>
<line x1="131.6" y1="139.9" x2="162.7" y2="114.8"/>
<line x1="162.7" y1="114.8" x2="152.1" y2="87.1"/>
<line x1="138.0" y1="78.0" x2="108.4" y2="79.5"/>
<line x1="108.4" y1="79.5" x2="98.1" y2="118.1"/>
<line x1="98.1" y1="118.1" x2="131.6" y2="139.9"/>
<line x1="298.9" y1="132.7" x2="298.9" y2="172.7"/>
<line x1="298.9" y1="172.7" x2="264.3" y2="192.7"/>
<line x1="264.3" y1="192.7" x2="229.6" y2="172.7"/>
<line x1="229.6" y1="172.7" x2="229.6" y2="132.7"/>
<line x1="229.6" y1="132.7" x2="255.3" y2="117.9"/>
<line x1="273.3" y1="117.9" x2="298.9" y2="132.7"/>
<text x="352.912291" y="106.367806" fill="rgb(255,12,12)"  stroke="rgb(255,12,12)" stroke-width="1" font-size="16" >OH</text>
<text x="24.400000" y="95.145631" fill="rgb(255,12,12)"  stroke="rgb(255,12,12)" stroke-width="1" font-size="16" >HO</text>
<text x="205.698750" y="74.087518" fill="rgb(255,12,12)"  stroke="rgb(255,12,12)" stroke-width="1" font-size="16" >OH</text>
<text x="312.912291" y="212.129838" fill="rgb(255,12,12)"  stroke="rgb(255,12,12)" stroke-width="1" font-size="16" >OH</text>
<text x="57.303478" y="154.030405" fill="rgb(255,12,12)"  stroke="rgb(255,12,12)" stroke-width="1" font-size="16" >HO</text>
<text x="228.671275" y="232.129838" fill="rgb(255,12,12)"  stroke="rgb(255,12,12)" stroke-width="1" font-size="16" >HO</text>
<text x="174.030259" y="177.488822" fill="rgb(255,12,12)"  stroke="rgb(255,12,12)" stroke-width="1" font-size="16" >HO</text>
<text x="147.408678" y="178.276951" fill="rgb(255,12,12)"  stroke="rgb(255,12,12)" stroke-width="1" font-size="16" >OH</text>
<text x="258.271275" y="121.008822" fill="rgb(255,12,12)"  stroke="rgb(255,12,12)" stroke-width="1" font-size="16" >O</text>
<text x="142.374237" y="85.734095" fill="rgb(255,12,12)"  stroke="rgb(255,12,12)" stroke-width="1" font-size="16" >O</text>
<text x="187.393226" y="147.841584" fill="rgb(255,12,12)"  stroke="rgb(255,12,12)" stroke-width="1" font-size="16" >O</text>
<text x="312.912291" y="106.367806" fill="rgb(191,191,191)"  stroke="rgb(191,191,191)" stroke-width="1" font-size="16" >H</text>
<text x="98.571677" y="48.320000" fill="rgb(191,191,191)"  stroke="rgb(191,191,191)" stroke-width="1" font-size="16" >H</text>
<text x="332.912291" y="177.488822" fill="rgb(191,191,191)"  stroke="rgb(191,191,191)" stroke-width="1" font-size="16" >H</text>
<text x="54.968760" y="120.207188" fill="rgb(191,191,191)"  stroke="rgb(191,191,191)" stroke-width="1" font-size="16" >H</text>
<text x="278.271275" y="232.129838" fill="rgb(191,191,191)"  stroke="rgb(191,191,191)" stroke-width="1" font-size="16" >H</text>
<text x="206.030259" y="212.129838" fill="rgb(191,191,191)"  stroke="rgb(191,191,191)" stroke-width="1" font-size="16" >H</text>
<text x="109.863496" y="180.370389" fill="rgb(191,191,191)"  stroke="rgb(191,191,191)" stroke-width="1" font-size="16" >H</text>
<text x="228.851307" y="101.351027" fill="rgb(191,191,191)"  stroke="rgb(191,191,191)" stroke-width="1" font-size="16" >H</text>
<text font-size="18.000000" fill ="black" font-family="sans-serif"
x="140.000000" y="20.000000" ></text>
<title> - OBDepict</title>
</svg>
