<?xml version="1.0"?>
<svg xmlns="http://www.w3.org/2000/svg"
xmlns:xlink="http://www.w3.org/1999/xlink" xmlns:cml="http://www.xml-cml.org/schema" width="460.216" height="224.639" x="0" y="0" font-family="sans-serif" stroke="rgb(0,0,0)" stroke-width="1" >
<line x1="247.0" y1="174.2" x2="247.0" y2="144.6"/>
<line x1="325.3" y1="69.8" x2="350.9" y2="84.6"/>
<line x1="50.3" y1="114.3" x2="79.8" y2="111.2"/>
<line x1="400.4" y1="170.3" x2="385.6" y2="144.6"/>
<line x1="370.8" y1="170.3" x2="385.6" y2="144.6"/>
<line x1="281.7" y1="124.6" x2="281.7" y2="95.0"/>
<line x1="283.2" y1="122.0" x2="317.8" y2="142.0"/>
<line x1="280.2" y1="127.2" x2="314.8" y2="147.2"/>
<line x1="281.7" y1="124.6" x2="247.0" y2="144.6"/>
<line x1="316.3" y1="144.6" x2="316.3" y2="174.2"/>
<line x1="316.3" y1="144.6" x2="350.9" y2="124.6"/>
<line x1="212.4" y1="124.6" x2="212.4" y2="95.0"/>
<line x1="213.9" y1="122.0" x2="248.5" y2="142.0"/>
<line x1="210.9" y1="127.2" x2="245.5" y2="147.2"/>
<line x1="212.4" y1="124.6" x2="186.7" y2="139.4"/>
<line x1="143.1" y1="124.6" x2="168.7" y2="139.4"/>
<line x1="97.0" y1="77.8" x2="85.0" y2="50.7"/>
<line x1="102.5" y1="75.3" x2="90.5" y2="48.3"/>
<line x1="106.5" y1="140.9" x2="79.8" y2="111.2"/>
<line x1="107.9" y1="131.6" x2="89.1" y2="110.8"/>
<line x1="79.8" y1="111.2" x2="99.8" y2="76.5"/>
<line x1="99.8" y1="76.5" x2="128.7" y2="82.7"/>
<line x1="140.0" y1="95.2" x2="143.1" y2="124.6"/>
<line x1="143.1" y1="124.6" x2="106.5" y2="140.9"/>
<line x1="385.6" y1="64.6" x2="420.2" y2="84.6"/>
<line x1="420.2" y1="84.6" x2="420.2" y2="124.6"/>
<line x1="420.2" y1="124.6" x2="385.6" y2="144.6"/>
<line x1="385.6" y1="144.6" x2="350.9" y2="124.6"/>
<line x1="350.9" y1="124.6" x2="350.9" y2="84.6"/>
<line x1="358.1" y1="118.6" x2="358.1" y2="90.6"/>
<line x1="350.9" y1="84.6" x2="385.6" y2="64.6"/>
<text x="241.010967" y="189.439162" fill="rgb(102,102,102)"  stroke="rgb(102,102,102)" stroke-width="1" font-size="16" >CH</text>
<text x="265.010967" y="194.239162" fill="rgb(102,102,102)"  stroke="rgb(102,102,102)" stroke-width="1" font-size="13" >3</text>
<text x="292.692999" y="72.959162" fill="rgb(102,102,102)"  stroke="rgb(102,102,102)" stroke-width="1" font-size="16" >H</text>
<text x="304.692999" y="80.639162" fill="rgb(102,102,102)"  stroke="rgb(102,102,102)" stroke-width="1" font-size="13" >3</text>
<text x="311.192999" y="72.959162" fill="rgb(102,102,102)"  stroke="rgb(102,102,102)" stroke-width="1" font-size="16" >C</text>
<text x="16.400000" y="120.163973" fill="rgb(102,102,102)"  stroke="rgb(102,102,102)" stroke-width="1" font-size="16" >H</text>
<text x="28.400000" y="124.963973" fill="rgb(102,102,102)"  stroke="rgb(102,102,102)" stroke-width="1" font-size="13" >3</text>
<text x="34.900000" y="120.163973" fill="rgb(102,102,102)"  stroke="rgb(102,102,102)" stroke-width="1" font-size="16" >C</text>
<text x="399.575031" y="184.080178" fill="rgb(102,102,102)"  stroke="rgb(102,102,102)" stroke-width="1" font-size="16" >CH</text>
<text x="423.575031" y="188.880178" fill="rgb(102,102,102)"  stroke="rgb(102,102,102)" stroke-width="1" font-size="13" >3</text>
<text x="341.975031" y="184.080178" fill="rgb(102,102,102)"  stroke="rgb(102,102,102)" stroke-width="1" font-size="16" >H</text>
<text x="353.975031" y="188.880178" fill="rgb(102,102,102)"  stroke="rgb(102,102,102)" stroke-width="1" font-size="13" >3</text>
<text x="360.475031" y="184.080178" fill="rgb(102,102,102)"  stroke="rgb(102,102,102)" stroke-width="1" font-size="16" >C</text>
<text x="79.911410" y="48.320000" fill="rgb(255,12,12)"  stroke="rgb(255,12,12)" stroke-width="1" font-size="16" >O</text>
<text x="171.728935" y="149.439162" fill="rgb(255,12,12)"  stroke="rgb(255,12,12)" stroke-width="1" font-size="16" >O</text>
<text x="132.906780" y="93.178286" fill="rgb(255,12,12)"  stroke="rgb(255,12,12)" stroke-width="1" font-size="16" >O</text>
<text x="275.651983" y="92.959162" fill="rgb(191,191,191)"  stroke="rgb(191,191,191)" stroke-width="1" font-size="16" >H</text>
<text x="310.292999" y="189.439162" fill="rgb(191,191,191)"  stroke="rgb(191,191,191)" stroke-width="1" font-size="16" >H</text>
<text x="206.369951" y="92.959162" fill="rgb(191,191,191)"  stroke="rgb(191,191,191)" stroke-width="1" font-size="16" >H</text>
<text font-size="18.000000" fill ="black" font-family="sans-serif"
x="140.000000" y="20.000000" ></text>
<title> - OBDepict</title>
</svg>
