<?xml version="1.0"?>
<svg xmlns="http://www.w3.org/2000/svg"
xmlns:xlink="http://www.w3.org/1999/xlink" xmlns:cml="http://www.xml-cml.org/schema" width="415.966" height="295.283" x="0" y="0" font-family="sans-serif" stroke="rgb(0,0,0)" stroke-width="1" >
<line x1="347.1" y1="223.0" x2="328.8" y2="223.0"/>
<line x1="347.1" y1="91.3" x2="328.8" y2="91.3"/>
<line x1="371.0" y1="181.5" x2="361.9" y2="165.7"/>
<line x1="243.0" y1="157.1" x2="167.0" y2="157.1"/>
<polygon points="83.416379 219.464280 134.475548 218.119778 133.639320 210.163603 " />
<line x1="300.0" y1="190.1" x2="314.0" y2="214.4"/>
<line x1="300.0" y1="124.2" x2="314.0" y2="99.9"/>
<line x1="178.8" y1="135.9" x2="179.5" y2="136.3"/>
<line x1="176.5" y1="139.0" x2="177.9" y2="139.8"/>
<line x1="174.3" y1="142.1" x2="176.4" y2="143.3"/>
<line x1="172.0" y1="145.2" x2="174.8" y2="146.8"/>
<line x1="169.8" y1="148.2" x2="173.3" y2="150.2"/>
<line x1="167.5" y1="151.3" x2="171.7" y2="153.7"/>
<line x1="165.3" y1="154.4" x2="170.2" y2="157.2"/>
<line x1="180.9" y1="175.2" x2="181.6" y2="175.7"/>
<line x1="178.4" y1="178.1" x2="179.7" y2="179.0"/>
<line x1="175.8" y1="180.9" x2="177.8" y2="182.3"/>
<line x1="173.3" y1="183.7" x2="175.9" y2="185.6"/>
<line x1="170.7" y1="186.6" x2="173.9" y2="188.9"/>
<line x1="168.2" y1="189.4" x2="172.0" y2="192.2"/>
<line x1="165.6" y1="192.3" x2="170.1" y2="195.6"/>
<line x1="89.3" y1="216.4" x2="88.6" y2="216.0"/>
<line x1="91.6" y1="213.3" x2="90.2" y2="212.5"/>
<line x1="93.8" y1="210.2" x2="91.7" y2="209.0"/>
<line x1="96.1" y1="207.1" x2="93.3" y2="205.5"/>
<line x1="98.3" y1="204.0" x2="94.9" y2="202.0"/>
<line x1="100.6" y1="200.9" x2="96.4" y2="198.5"/>
<line x1="102.8" y1="197.9" x2="98.0" y2="195.1"/>
<line x1="101.1" y1="195.1" x2="73.0" y2="195.1"/>
<line x1="319.0" y1="157.1" x2="347.1" y2="157.1"/>
<line x1="194.6" y1="217.6" x2="222.1" y2="211.8"/>
<line x1="195.8" y1="223.5" x2="223.3" y2="217.7"/>
<line x1="55.5" y1="40.0" x2="83.4" y2="42.9"/>
<line x1="95.3" y1="53.6" x2="101.1" y2="81.1"/>
<line x1="101.1" y1="81.1" x2="68.2" y2="100.1"/>
<line x1="92.4" y1="77.9" x2="69.8" y2="90.9"/>
<line x1="68.2" y1="100.1" x2="47.3" y2="81.3"/>
<line x1="44.0" y1="65.7" x2="55.5" y2="40.0"/>
<line x1="169.9" y1="254.3" x2="142.0" y2="251.3"/>
<line x1="142.0" y1="251.3" x2="134.1" y2="214.1"/>
<line x1="134.1" y1="214.1" x2="167.0" y2="195.1"/>
<line x1="167.0" y1="195.1" x2="195.2" y2="220.6"/>
<line x1="195.2" y1="220.6" x2="183.8" y2="246.3"/>
<line x1="262.0" y1="190.1" x2="243.0" y2="157.1"/>
<line x1="265.2" y1="181.3" x2="252.2" y2="158.7"/>
<line x1="243.0" y1="157.1" x2="262.0" y2="124.2"/>
<line x1="262.0" y1="124.2" x2="300.0" y2="124.2"/>
<line x1="268.0" y1="131.4" x2="294.0" y2="131.4"/>
<line x1="300.0" y1="124.2" x2="319.0" y2="157.1"/>
<line x1="319.0" y1="157.1" x2="300.0" y2="190.1"/>
<line x1="309.7" y1="158.7" x2="296.7" y2="181.3"/>
<line x1="300.0" y1="190.1" x2="262.0" y2="190.1"/>
<line x1="134.1" y1="100.1" x2="134.1" y2="138.1"/>
<line x1="126.9" y1="106.1" x2="126.9" y2="132.1"/>
<line x1="134.1" y1="138.1" x2="101.1" y2="157.1"/>
<line x1="101.1" y1="157.1" x2="68.2" y2="138.1"/>
<line x1="99.6" y1="147.9" x2="77.0" y2="134.9"/>
<line x1="68.2" y1="138.1" x2="68.2" y2="100.1"/>
<line x1="101.1" y1="81.1" x2="134.1" y2="100.1"/>
<line x1="134.1" y1="214.1" x2="101.1" y2="195.1"/>
<line x1="101.1" y1="195.1" x2="101.1" y2="157.1"/>
<line x1="134.1" y1="138.1" x2="167.0" y2="157.1"/>
<line x1="167.0" y1="157.1" x2="167.0" y2="195.1"/>
<text x="350.966399" y="231.279621" fill="rgb(102,102,102)"  stroke="rgb(102,102,102)" stroke-width="1" font-size="16" >CH</text>
<text x="374.966399" y="238.959621" fill="rgb(102,102,102)"  stroke="rgb(102,102,102)" stroke-width="1" font-size="13" >3</text>
<text x="350.966399" y="99.643760" fill="rgb(102,102,102)"  stroke="rgb(102,102,102)" stroke-width="1" font-size="16" >CH</text>
<text x="374.966399" y="107.323760" fill="rgb(102,102,102)"  stroke="rgb(102,102,102)" stroke-width="1" font-size="13" >3</text>
<text x="369.966399" y="194.850656" fill="rgb(102,102,102)"  stroke="rgb(102,102,102)" stroke-width="1" font-size="16" >CH</text>
<text x="393.966399" y="199.650656" fill="rgb(102,102,102)"  stroke="rgb(102,102,102)" stroke-width="1" font-size="13" >3</text>
<text x="47.548469" y="203.461690" fill="rgb(255,12,12)"  stroke="rgb(255,12,12)" stroke-width="1" font-size="16" >HO</text>
<text x="226.375512" y="220.988009" fill="rgb(255,12,12)"  stroke="rgb(255,12,12)" stroke-width="1" font-size="16" >O</text>
<text x="315.366399" y="227.759621" fill="rgb(255,12,12)"  stroke="rgb(255,12,12)" stroke-width="1" font-size="16" >O</text>
<text x="315.366399" y="99.643760" fill="rgb(255,12,12)"  stroke="rgb(255,12,12)" stroke-width="1" font-size="16" >O</text>
<text x="350.966399" y="165.461690" fill="rgb(255,12,12)"  stroke="rgb(255,12,12)" stroke-width="1" font-size="16" >O</text>
<text x="173.749910" y="260.083381" fill="rgb(255,12,12)"  stroke="rgb(255,12,12)" stroke-width="1" font-size="16" >O</text>
<text x="87.247824" y="52.292082" fill="rgb(255,12,12)"  stroke="rgb(255,12,12)" stroke-width="1" font-size="16" >O</text>
<text x="36.400000" y="79.514727" fill="rgb(255,12,12)"  stroke="rgb(255,12,12)" stroke-width="1" font-size="16" >O</text>
<text x="54.873770" y="226.885854" fill="rgb(191,191,191)"  stroke="rgb(191,191,191)" stroke-width="1" font-size="16" >H</text>
<text x="179.966399" y="132.552725" fill="rgb(191,191,191)"  stroke="rgb(191,191,191)" stroke-width="1" font-size="16" >H</text>
<text x="183.302239" y="172.719045" fill="rgb(191,191,191)"  stroke="rgb(191,191,191)" stroke-width="1" font-size="16" >H</text>
<text x="78.548469" y="232.850656" fill="rgb(191,191,191)"  stroke="rgb(191,191,191)" stroke-width="1" font-size="16" >H</text>
<text font-size="18.000000" fill ="black" font-family="sans-serif"
x="140.000000" y="20.000000" ></text>
<title> - OBDepict</title>
</svg>
