<?xml version="1.0"?>
<svg xmlns="http://www.w3.org/2000/svg"
xmlns:xlink="http://www.w3.org/1999/xlink" xmlns:cml="http://www.xml-cml.org/schema" width="283.923" height="278.564" x="0" y="0" font-family="sans-serif" stroke="rgb(0,0,0)" stroke-width="1" >
<line x1="79.7" y1="183.8" x2="105.4" y2="198.6"/>
<line x1="70.6" y1="229.6" x2="85.4" y2="203.9"/>
<line x1="209.3" y1="208.2" x2="209.3" y2="178.6"/>
<line x1="105.4" y1="198.6" x2="140.0" y2="178.6"/>
<line x1="85.4" y1="163.9" x2="85.4" y2="203.9"/>
<line x1="85.4" y1="163.9" x2="120.0" y2="143.9"/>
<line x1="59.8" y1="204.3" x2="59.8" y2="203.5"/>
<line x1="63.8" y1="204.7" x2="63.8" y2="203.1"/>
<line x1="67.8" y1="205.1" x2="67.8" y2="202.7"/>
<line x1="71.8" y1="205.5" x2="71.8" y2="202.3"/>
<line x1="75.8" y1="205.9" x2="75.8" y2="201.9"/>
<line x1="79.8" y1="206.3" x2="79.8" y2="201.5"/>
<line x1="83.8" y1="206.7" x2="83.8" y2="201.1"/>
<line x1="85.4" y1="203.9" x2="111.0" y2="218.7"/>
<line x1="207.8" y1="176.0" x2="233.4" y2="161.2"/>
<line x1="210.8" y1="181.2" x2="236.4" y2="166.4"/>
<line x1="209.3" y1="178.6" x2="183.6" y2="163.8"/>
<line x1="100.0" y1="109.3" x2="120.0" y2="143.9"/>
<line x1="154.6" y1="123.9" x2="120.0" y2="143.9"/>
<line x1="153.1" y1="200.5" x2="152.5" y2="200.9"/>
<line x1="151.5" y1="196.9" x2="150.1" y2="197.7"/>
<line x1="149.8" y1="193.2" x2="147.8" y2="194.4"/>
<line x1="148.2" y1="189.5" x2="145.4" y2="191.1"/>
<line x1="146.5" y1="185.9" x2="143.1" y2="187.9"/>
<line x1="144.9" y1="182.2" x2="140.7" y2="184.6"/>
<line x1="143.2" y1="178.5" x2="138.4" y2="181.3"/>
<line x1="140.0" y1="178.6" x2="120.0" y2="143.9"/>
<line x1="140.0" y1="178.6" x2="165.6" y2="163.8"/>
<line x1="40.0" y1="74.6" x2="60.0" y2="40.0"/>
<line x1="49.2" y1="73.0" x2="63.2" y2="48.8"/>
<line x1="60.0" y1="40.0" x2="100.0" y2="40.0"/>
<line x1="100.0" y1="40.0" x2="120.0" y2="74.6"/>
<line x1="96.8" y1="48.8" x2="110.8" y2="73.0"/>
<line x1="120.0" y1="74.6" x2="100.0" y2="109.3"/>
<line x1="100.0" y1="109.3" x2="60.0" y2="109.3"/>
<line x1="94.0" y1="102.1" x2="66.0" y2="102.1"/>
<line x1="60.0" y1="109.3" x2="40.0" y2="74.6"/>
<line x1="189.3" y1="63.9" x2="223.9" y2="83.9"/>
<line x1="190.9" y1="73.2" x2="215.1" y2="87.2"/>
<line x1="223.9" y1="83.9" x2="223.9" y2="123.9"/>
<line x1="223.9" y1="123.9" x2="189.3" y2="143.9"/>
<line x1="215.1" y1="120.7" x2="190.9" y2="134.7"/>
<line x1="189.3" y1="143.9" x2="154.6" y2="123.9"/>
<line x1="154.6" y1="123.9" x2="154.6" y2="83.9"/>
<line x1="161.8" y1="117.9" x2="161.8" y2="89.9"/>
<line x1="154.6" y1="83.9" x2="189.3" y2="63.9"/>
<text x="47.117968" y="186.884065" fill="rgb(102,102,102)"  stroke="rgb(102,102,102)" stroke-width="1" font-size="16" >H</text>
<text x="59.117968" y="194.564065" fill="rgb(102,102,102)"  stroke="rgb(102,102,102)" stroke-width="1" font-size="13" >3</text>
<text x="65.617968" y="186.884065" fill="rgb(102,102,102)"  stroke="rgb(102,102,102)" stroke-width="1" font-size="16" >C</text>
<text x="41.758984" y="243.364065" fill="rgb(102,102,102)"  stroke="rgb(102,102,102)" stroke-width="1" font-size="16" >H</text>
<text x="53.758984" y="248.164065" fill="rgb(102,102,102)"  stroke="rgb(102,102,102)" stroke-width="1" font-size="13" >3</text>
<text x="60.258984" y="243.364065" fill="rgb(102,102,102)"  stroke="rgb(102,102,102)" stroke-width="1" font-size="16" >C</text>
<text x="203.282032" y="223.364065" fill="rgb(102,102,102)"  stroke="rgb(102,102,102)" stroke-width="1" font-size="16" >CH</text>
<text x="227.282032" y="228.164065" fill="rgb(102,102,102)"  stroke="rgb(102,102,102)" stroke-width="1" font-size="13" >3</text>
<text x="114.000000" y="228.723048" fill="rgb(12,12,255)"  stroke="rgb(12,12,255)" stroke-width="1" font-size="16" >NH</text>
<text x="138.000000" y="233.523048" fill="rgb(12,12,255)"  stroke="rgb(12,12,255)" stroke-width="1" font-size="13" >2</text>
<text x="237.923048" y="166.884065" fill="rgb(255,12,12)"  stroke="rgb(255,12,12)" stroke-width="1" font-size="16" >O</text>
<text x="168.641016" y="166.884065" fill="rgb(255,12,12)"  stroke="rgb(255,12,12)" stroke-width="1" font-size="16" >O</text>
<text x="41.758984" y="212.243048" fill="rgb(191,191,191)"  stroke="rgb(191,191,191)" stroke-width="1" font-size="16" >H</text>
<text x="154.000000" y="218.005081" fill="rgb(191,191,191)"  stroke="rgb(191,191,191)" stroke-width="1" font-size="16" >H</text>
<text font-size="18.000000" fill ="black" font-family="sans-serif"
x="140.000000" y="20.000000" ></text>
<title> - OBDepict</title>
</svg>
