<?xml version="1.0"?>
<svg xmlns="http://www.w3.org/2000/svg"
xmlns:xlink="http://www.w3.org/1999/xlink" xmlns:cml="http://www.xml-cml.org/schema" width="530.333" height="200" x="0" y="0" font-family="sans-serif" stroke="rgb(0,0,0)" stroke-width="1" >
<line x1="40.0" y1="129.6" x2="40.0" y2="110.4"/>
<line x1="178.6" y1="100.0" x2="213.2" y2="80.0"/>
<line x1="178.6" y1="100.0" x2="143.9" y2="80.0"/>
<line x1="213.2" y1="80.0" x2="247.8" y2="100.0"/>
<line x1="143.9" y1="80.0" x2="109.3" y2="100.0"/>
<line x1="247.8" y1="100.0" x2="282.5" y2="80.0"/>
<line x1="109.3" y1="100.0" x2="74.6" y2="80.0"/>
<line x1="282.5" y1="80.0" x2="317.1" y2="100.0"/>
<line x1="74.6" y1="80.0" x2="49.0" y2="94.8"/>
<line x1="386.4" y1="100.0" x2="421.1" y2="80.0"/>
<line x1="386.4" y1="100.0" x2="360.8" y2="85.2"/>
<line x1="421.1" y1="80.0" x2="455.7" y2="100.0"/>
<line x1="421.1" y1="80.0" x2="421.1" y2="50.4"/>
<line x1="320.1" y1="100.0" x2="320.1" y2="129.6"/>
<line x1="314.1" y1="100.0" x2="314.1" y2="129.6"/>
<line x1="317.1" y1="100.0" x2="342.8" y2="85.2"/>
<line x1="458.7" y1="100.0" x2="458.7" y2="129.6"/>
<line x1="452.7" y1="100.0" x2="452.7" y2="129.6"/>
<line x1="455.7" y1="100.0" x2="481.3" y2="85.2"/>
<line x1="326.1" y1="145.2" x2="342.8" y2="154.8"/>
<text x="34.000000" y="144.800000" fill="rgb(102,102,102)"  stroke="rgb(102,102,102)" stroke-width="1" font-size="16" >CH</text>
<text x="58.000000" y="149.600000" fill="rgb(102,102,102)"  stroke="rgb(102,102,102)" stroke-width="1" font-size="13" >3</text>
<text x="415.051178" y="48.320000" fill="rgb(12,12,255)"  stroke="rgb(12,12,255)" stroke-width="1" font-size="16" >NH</text>
<text x="439.051178" y="56.000000" fill="rgb(12,12,255)"  stroke="rgb(12,12,255)" stroke-width="1" font-size="13" >2</text>
<text x="313.528129" y="144.800000" fill="rgb(12,12,255)"  stroke="rgb(12,12,255)" stroke-width="1" font-size="16" >N</text>
<text x="449.692194" y="144.800000" fill="rgb(255,12,12)"  stroke="rgb(255,12,12)" stroke-width="1" font-size="16" >O</text>
<text x="484.333210" y="88.320000" fill="rgb(255,12,12)"  stroke="rgb(255,12,12)" stroke-width="1" font-size="16" >OH</text>
<text x="345.769145" y="164.800000" fill="rgb(255,12,12)"  stroke="rgb(255,12,12)" stroke-width="1" font-size="16" >OH</text>
<text x="36.400000" y="108.320000" fill="rgb(178,178,0)"  stroke="rgb(178,178,0)" stroke-width="1" font-size="16" >S</text>
<text x="345.769145" y="88.320000" fill="rgb(178,178,0)"  stroke="rgb(178,178,0)" stroke-width="1" font-size="16" >S</text>
<text font-size="18.000000" fill ="black" font-family="sans-serif"
x="140.000000" y="20.000000" ></text>
<title> - OBDepict</title>
</svg>
