<?xml version="1.0"?>
<svg xmlns="http://www.w3.org/2000/svg"
xmlns:xlink="http://www.w3.org/1999/xlink" xmlns:cml="http://www.xml-cml.org/schema" width="880.155" height="564.943" x="0" y="0" font-family="sans-serif" stroke="rgb(0,0,0)" stroke-width="1" >
<line x1="46.8" y1="428.3" x2="66.2" y2="406.8"/>
<line x1="562.8" y1="116.1" x2="584.4" y2="135.5"/>
<line x1="556.8" y1="144.4" x2="584.4" y2="135.5"/>
<line x1="66.2" y1="406.8" x2="104.5" y2="414.9"/>
<line x1="104.5" y1="414.9" x2="113.5" y2="442.5"/>
<line x1="102.3" y1="412.9" x2="128.5" y2="383.8"/>
<line x1="106.7" y1="416.9" x2="133.0" y2="387.8"/>
<line x1="130.7" y1="385.8" x2="159.1" y2="391.8"/>
<line x1="130.7" y1="385.8" x2="118.6" y2="348.6"/>
<line x1="118.6" y1="348.6" x2="144.8" y2="319.5"/>
<line x1="144.8" y1="319.5" x2="135.9" y2="291.9"/>
<line x1="145.5" y1="316.5" x2="183.8" y2="324.7"/>
<line x1="144.2" y1="322.4" x2="182.5" y2="330.5"/>
<line x1="183.1" y1="327.6" x2="202.5" y2="306.1"/>
<line x1="183.1" y1="327.6" x2="195.2" y2="364.8"/>
<line x1="195.2" y1="364.8" x2="233.6" y2="373.0"/>
<line x1="233.6" y1="373.0" x2="252.9" y2="351.5"/>
<line x1="236.4" y1="372.1" x2="248.5" y2="409.3"/>
<line x1="230.7" y1="373.9" x2="242.8" y2="411.2"/>
<line x1="245.7" y1="410.2" x2="226.3" y2="431.8"/>
<line x1="245.7" y1="410.2" x2="284.0" y2="418.4"/>
<line x1="284.0" y1="418.4" x2="296.1" y2="455.6"/>
<line x1="296.1" y1="455.6" x2="276.7" y2="477.2"/>
<line x1="296.7" y1="452.7" x2="335.0" y2="460.8"/>
<line x1="295.4" y1="458.6" x2="333.8" y2="466.7"/>
<line x1="334.4" y1="463.8" x2="343.3" y2="491.3"/>
<line x1="334.4" y1="463.8" x2="360.6" y2="434.7"/>
<line x1="360.6" y1="434.7" x2="398.9" y2="442.8"/>
<line x1="398.9" y1="442.8" x2="407.9" y2="470.4"/>
<line x1="396.7" y1="440.8" x2="422.9" y2="411.7"/>
<line x1="401.1" y1="444.8" x2="427.3" y2="415.7"/>
<line x1="425.1" y1="413.7" x2="453.5" y2="419.7"/>
<line x1="425.1" y1="413.7" x2="413.0" y2="376.5"/>
<line x1="413.0" y1="376.5" x2="374.7" y2="368.3"/>
<line x1="374.7" y1="368.3" x2="355.3" y2="389.9"/>
<line x1="371.8" y1="369.2" x2="359.7" y2="332.0"/>
<line x1="377.5" y1="367.4" x2="365.4" y2="330.1"/>
<line x1="362.6" y1="331.1" x2="334.2" y2="325.0"/>
<line x1="362.6" y1="331.1" x2="388.8" y2="302.0"/>
<line x1="388.8" y1="302.0" x2="376.7" y2="264.7"/>
<line x1="376.7" y1="264.7" x2="338.4" y2="256.6"/>
<line x1="338.4" y1="256.6" x2="319.0" y2="278.1"/>
<line x1="335.5" y1="257.5" x2="323.4" y2="220.2"/>
<line x1="341.2" y1="255.6" x2="329.1" y2="218.4"/>
<line x1="326.3" y1="219.3" x2="297.9" y2="213.3"/>
<line x1="326.3" y1="219.3" x2="352.5" y2="190.2"/>
<line x1="495.6" y1="81.9" x2="533.9" y2="90.1"/>
<line x1="495.6" y1="81.9" x2="469.4" y2="111.0"/>
<line x1="533.9" y1="90.1" x2="553.3" y2="68.5"/>
<line x1="455.3" y1="177.4" x2="417.0" y2="169.2"/>
<line x1="455.3" y1="177.4" x2="474.7" y2="155.9"/>
<line x1="417.0" y1="169.2" x2="397.6" y2="190.8"/>
<line x1="578.2" y1="352.9" x2="616.5" y2="361.1"/>
<line x1="578.2" y1="352.9" x2="569.2" y2="325.4"/>
<line x1="608.6" y1="210.0" x2="584.4" y2="135.5"/>
<line x1="608.6" y1="210.0" x2="589.2" y2="231.5"/>
<polygon points="608.373197 336.125833 612.678092 362.319209 620.286544 359.847073 " />
<line x1="472.3" y1="110.1" x2="481.2" y2="137.7"/>
<line x1="466.6" y1="112.0" x2="475.5" y2="139.5"/>
<line x1="469.4" y1="111.0" x2="441.1" y2="105.0"/>
<line x1="349.6" y1="191.1" x2="340.7" y2="163.6"/>
<line x1="355.3" y1="189.3" x2="346.4" y2="161.7"/>
<line x1="352.5" y1="190.2" x2="380.8" y2="196.2"/>
<polygon points="640.059696 440.923075 651.973043 417.201835 644.364591 414.729699 " />
<line x1="648.2" y1="416.0" x2="667.6" y2="437.5"/>
<polygon points="586.146620 400.035249 612.388286 404.035249 612.388286 396.035249 " />
<line x1="612.4" y1="400.0" x2="597.9" y2="425.1"/>
<line x1="610.6" y1="106.4" x2="638.1" y2="97.4"/>
<line x1="610.6" y1="106.4" x2="598.5" y2="69.1"/>
<line x1="610.6" y1="106.4" x2="584.4" y2="135.5"/>
<line x1="610.6" y1="106.4" x2="632.1" y2="125.7"/>
<line x1="815.5" y1="488.4" x2="825.9" y2="515.4"/>
<line x1="597.8" y1="72.0" x2="569.5" y2="66.0"/>
<line x1="599.1" y1="66.2" x2="570.7" y2="60.1"/>
<line x1="598.5" y1="69.1" x2="617.9" y2="47.6"/>
<polygon points="691.076941 366.617768 671.291035 384.313614 677.461830 389.404909 " />
<line x1="674.4" y1="386.9" x2="710.9" y2="431.9"/>
<line x1="553.6" y1="462.9" x2="553.6" y2="444.1"/>
<line x1="524.7" y1="434.0" x2="543.5" y2="434.0"/>
<line x1="556.6" y1="405.0" x2="556.6" y2="423.8"/>
<line x1="550.6" y1="405.0" x2="550.6" y2="423.8"/>
<line x1="521.7" y1="335.9" x2="525.6" y2="317.5"/>
<line x1="500.0" y1="298.6" x2="518.4" y2="302.5"/>
<line x1="498.8" y1="304.5" x2="517.2" y2="308.4"/>
<line x1="515.7" y1="224.9" x2="534.1" y2="228.8"/>
<line x1="553.0" y1="203.2" x2="549.1" y2="221.6"/>
<line x1="547.1" y1="202.0" x2="543.2" y2="220.3"/>
<line x1="556.1" y1="313.6" x2="537.7" y2="309.7"/>
<line x1="572.4" y1="237.0" x2="554.0" y2="233.0"/>
<line x1="582.6" y1="434.0" x2="563.8" y2="434.0"/>
<line x1="533.8" y1="279.2" x2="529.9" y2="297.6"/>
<line x1="538.0" y1="259.3" x2="541.9" y2="240.9"/>
<line x1="713.5" y1="485.6" x2="721.0" y2="457.6"/>
<line x1="733.8" y1="447.2" x2="762.8" y2="445.7"/>
<line x1="762.8" y1="445.7" x2="776.8" y2="482.3"/>
<line x1="776.8" y1="482.3" x2="754.3" y2="500.5"/>
<line x1="737.8" y1="501.4" x2="713.5" y2="485.6"/>
<line x1="740.0" y1="494.2" x2="722.5" y2="482.8"/>
<line x1="616.5" y1="361.1" x2="612.4" y2="400.0"/>
<line x1="612.4" y1="400.0" x2="648.2" y2="416.0"/>
<line x1="648.2" y1="416.0" x2="674.4" y2="386.9"/>
<line x1="674.4" y1="386.9" x2="659.9" y2="361.8"/>
<line x1="644.8" y1="355.1" x2="616.5" y2="361.1"/>
<line x1="762.8" y1="445.7" x2="781.0" y2="423.2"/>
<line x1="772.2" y1="445.6" x2="785.3" y2="429.3"/>
<line x1="797.5" y1="416.8" x2="826.1" y2="421.4"/>
<line x1="826.1" y1="421.4" x2="836.5" y2="448.4"/>
<line x1="821.5" y1="429.6" x2="829.0" y2="449.1"/>
<line x1="833.7" y1="465.9" x2="815.5" y2="488.4"/>
<line x1="815.5" y1="488.4" x2="776.8" y2="482.3"/>
<line x1="810.7" y1="480.3" x2="783.9" y2="476.1"/>
<text x="16.400000" y="440.681546" fill="rgb(102,102,102)"  stroke="rgb(102,102,102)" stroke-width="1" font-size="16" >H</text>
<text x="28.400000" y="445.481546" fill="rgb(102,102,102)"  stroke="rgb(102,102,102)" stroke-width="1" font-size="13" >3</text>
<text x="34.900000" y="440.681546" fill="rgb(102,102,102)"  stroke="rgb(102,102,102)" stroke-width="1" font-size="16" >C</text>
<text x="531.649565" y="117.575109" fill="rgb(102,102,102)"  stroke="rgb(102,102,102)" stroke-width="1" font-size="16" >H</text>
<text x="543.649565" y="125.255109" fill="rgb(102,102,102)"  stroke="rgb(102,102,102)" stroke-width="1" font-size="13" >3</text>
<text x="550.149565" y="117.575109" fill="rgb(102,102,102)"  stroke="rgb(102,102,102)" stroke-width="1" font-size="16" >C</text>
<text x="523.506358" y="152.365890" fill="rgb(102,102,102)"  stroke="rgb(102,102,102)" stroke-width="1" font-size="16" >H</text>
<text x="535.506358" y="157.165890" fill="rgb(102,102,102)"  stroke="rgb(102,102,102)" stroke-width="1" font-size="13" >3</text>
<text x="542.006358" y="152.365890" fill="rgb(102,102,102)"  stroke="rgb(102,102,102)" stroke-width="1" font-size="16" >C</text>
<text x="823.542802" y="529.743354" fill="rgb(12,12,255)"  stroke="rgb(12,12,255)" stroke-width="1" font-size="16" >NH</text>
<text x="847.542802" y="534.543354" fill="rgb(12,12,255)"  stroke="rgb(12,12,255)" stroke-width="1" font-size="13" >2</text>
<text x="475.526894" y="153.082815" fill="rgb(12,12,255)"  stroke="rgb(12,12,255)" stroke-width="1" font-size="16" >N</text>
<text x="556.549740" y="69.283298" fill="rgb(12,12,255)"  stroke="rgb(12,12,255)" stroke-width="1" font-size="16" >N</text>
<text x="834.155106" y="462.739903" fill="rgb(12,12,255)"  stroke="rgb(12,12,255)" stroke-width="1" font-size="16" >N</text>
<text x="783.834568" y="423.567653" fill="rgb(12,12,255)"  stroke="rgb(12,12,255)" stroke-width="1" font-size="16" >N</text>
<text x="740.384047" y="511.699486" fill="rgb(12,12,255)"  stroke="rgb(12,12,255)" stroke-width="1" font-size="16" >N</text>
<text x="717.673196" y="452.535695" fill="rgb(12,12,255)"  stroke="rgb(12,12,255)" stroke-width="1" font-size="16" >N</text>
<text x="426.312947" y="96.489893" fill="rgb(255,12,12)"  stroke="rgb(255,12,12)" stroke-width="1" font-size="32" >-</text>
<text x="427.512947" y="111.209893" fill="rgb(255,12,12)"  stroke="rgb(255,12,12)" stroke-width="1" font-size="16" >O</text>
<text x="336.786935" y="161.279697" fill="rgb(255,12,12)"  stroke="rgb(255,12,12)" stroke-width="1" font-size="16" >O</text>
<text x="668.376432" y="449.872273" fill="rgb(255,12,12)"  stroke="rgb(255,12,12)" stroke-width="1" font-size="16" >OH</text>
<text x="633.670192" y="137.363835" fill="rgb(255,12,12)"  stroke="rgb(255,12,12)" stroke-width="1" font-size="16" >OH</text>
<text x="619.868136" y="33.600000" fill="rgb(255,12,12)"  stroke="rgb(255,12,12)" stroke-width="1" font-size="32" >-</text>
<text x="618.668136" y="48.320000" fill="rgb(255,12,12)"  stroke="rgb(255,12,12)" stroke-width="1" font-size="16" >O</text>
<text x="548.838286" y="492.321244" fill="rgb(255,12,12)"  stroke="rgb(255,12,12)" stroke-width="1" font-size="32" >-</text>
<text x="547.638286" y="477.921244" fill="rgb(255,12,12)"  stroke="rgb(255,12,12)" stroke-width="1" font-size="16" >O</text>
<text x="509.671620" y="453.154577" fill="rgb(255,12,12)"  stroke="rgb(255,12,12)" stroke-width="1" font-size="32" >-</text>
<text x="510.871620" y="438.754577" fill="rgb(255,12,12)"  stroke="rgb(255,12,12)" stroke-width="1" font-size="16" >O</text>
<text x="547.638286" y="403.107910" fill="rgb(255,12,12)"  stroke="rgb(255,12,12)" stroke-width="1" font-size="16" >O</text>
<text x="504.014382" y="350.657793" fill="rgb(255,12,12)"  stroke="rgb(255,12,12)" stroke-width="1" font-size="16" >HO</text>
<text x="485.846809" y="307.723804" fill="rgb(255,12,12)"  stroke="rgb(255,12,12)" stroke-width="1" font-size="16" >O</text>
<text x="490.133225" y="231.102242" fill="rgb(255,12,12)"  stroke="rgb(255,12,12)" stroke-width="1" font-size="16" >HO</text>
<text x="546.187214" y="200.934669" fill="rgb(255,12,12)"  stroke="rgb(255,12,12)" stroke-width="1" font-size="16" >O</text>
<text x="560.068371" y="324.010220" fill="rgb(255,12,12)"  stroke="rgb(255,12,12)" stroke-width="1" font-size="16" >O</text>
<text x="576.354787" y="243.868658" fill="rgb(255,12,12)"  stroke="rgb(255,12,12)" stroke-width="1" font-size="16" >O</text>
<text x="648.793099" y="361.259933" fill="rgb(255,12,12)"  stroke="rgb(255,12,12)" stroke-width="1" font-size="16" >O</text>
<text x="586.804953" y="438.754577" fill="rgb(255,12,12)"  stroke="rgb(255,12,12)" stroke-width="1" font-size="16" >O</text>
<text x="529.900798" y="274.036231" fill="rgb(255,12,12)"  stroke="rgb(255,12,12)" stroke-width="1" font-size="16" >O</text>
<text x="547.638286" y="438.754577" fill="rgb(255,127,0)"  stroke="rgb(255,127,0)" stroke-width="1" font-size="16" >P</text>
<text x="521.757590" y="315.867012" fill="rgb(255,127,0)"  stroke="rgb(255,127,0)" stroke-width="1" font-size="16" >P</text>
<text x="538.044006" y="239.245450" fill="rgb(255,127,0)"  stroke="rgb(255,127,0)" stroke-width="1" font-size="16" >P</text>
<text x="384.800882" y="203.152618" fill="rgb(178,178,0)"  stroke="rgb(178,178,0)" stroke-width="1" font-size="16" >S</text>
<text x="110.621562" y="456.967961" fill="rgb(191,191,191)"  stroke="rgb(191,191,191)" stroke-width="1" font-size="16" >H</text>
<text x="163.036793" y="398.754950" fill="rgb(191,191,191)"  stroke="rgb(191,191,191)" stroke-width="1" font-size="16" >H</text>
<text x="129.127296" y="290.525809" fill="rgb(191,191,191)"  stroke="rgb(191,191,191)" stroke-width="1" font-size="16" >H</text>
<text x="203.348858" y="306.812225" fill="rgb(191,191,191)"  stroke="rgb(191,191,191)" stroke-width="1" font-size="16" >H</text>
<text x="253.762805" y="352.205147" fill="rgb(191,191,191)"  stroke="rgb(191,191,191)" stroke-width="1" font-size="16" >H</text>
<text x="215.850740" y="444.147871" fill="rgb(191,191,191)"  stroke="rgb(191,191,191)" stroke-width="1" font-size="16" >H</text>
<text x="266.264686" y="489.540793" fill="rgb(191,191,191)"  stroke="rgb(191,191,191)" stroke-width="1" font-size="16" >H</text>
<text x="340.486248" y="505.827209" fill="rgb(191,191,191)"  stroke="rgb(191,191,191)" stroke-width="1" font-size="16" >H</text>
<text x="405.004645" y="484.863911" fill="rgb(191,191,191)"  stroke="rgb(191,191,191)" stroke-width="1" font-size="16" >H</text>
<text x="457.419876" y="426.650900" fill="rgb(191,191,191)"  stroke="rgb(191,191,191)" stroke-width="1" font-size="16" >H</text>
<text x="344.887532" y="402.221276" fill="rgb(191,191,191)"  stroke="rgb(191,191,191)" stroke-width="1" font-size="16" >H</text>
<text x="320.681201" y="331.241849" fill="rgb(191,191,191)"  stroke="rgb(191,191,191)" stroke-width="1" font-size="16" >H</text>
<text x="308.578036" y="290.472135" fill="rgb(191,191,191)"  stroke="rgb(191,191,191)" stroke-width="1" font-size="16" >H</text>
<text x="284.371704" y="219.492708" fill="rgb(191,191,191)"  stroke="rgb(191,191,191)" stroke-width="1" font-size="16" >H</text>
<text x="600.779152" y="332.153428" fill="rgb(191,191,191)"  stroke="rgb(191,191,191)" stroke-width="1" font-size="16" >H</text>
<text x="632.465651" y="458.015481" fill="rgb(191,191,191)"  stroke="rgb(191,191,191)" stroke-width="1" font-size="16" >H</text>
<text x="569.621620" y="404.835249" fill="rgb(191,191,191)"  stroke="rgb(191,191,191)" stroke-width="1" font-size="16" >H</text>
<text x="641.813400" y="102.573054" fill="rgb(191,191,191)"  stroke="rgb(191,191,191)" stroke-width="1" font-size="16" >H</text>
<text x="693.302565" y="364.968077" fill="rgb(191,191,191)"  stroke="rgb(191,191,191)" stroke-width="1" font-size="16" >H</text>
<text font-size="18.000000" fill ="black" font-family="sans-serif"
x="140.000000" y="20.000000" ></text>
<title> - OBDepict</title>
</svg>
