<?xml version="1.0"?>
<svg xmlns="http://www.w3.org/2000/svg"
xmlns:xlink="http://www.w3.org/1999/xlink" xmlns:cml="http://www.xml-cml.org/schema" width="843.25" height="786.094" x="0" y="0" font-family="sans-serif" stroke="rgb(0,0,0)" stroke-width="1" >
<line x1="116.6" y1="488.1" x2="143.5" y2="499.2"/>
<line x1="123.3" y1="178.0" x2="129.4" y2="206.5"/>
<line x1="701.7" y1="213.3" x2="740.8" y2="217.6"/>
<line x1="701.7" y1="213.3" x2="678.4" y2="245.1"/>
<line x1="284.7" y1="623.7" x2="252.5" y2="646.5"/>
<line x1="284.7" y1="623.7" x2="281.0" y2="584.5"/>
<line x1="740.8" y1="217.6" x2="764.1" y2="185.9"/>
<line x1="252.5" y1="646.5" x2="216.8" y2="630.0"/>
<line x1="678.4" y1="245.1" x2="639.3" y2="240.8"/>
<line x1="281.0" y1="584.5" x2="313.2" y2="561.7"/>
<line x1="764.1" y1="185.9" x2="793.1" y2="189.0"/>
<line x1="216.8" y1="630.0" x2="193.0" y2="646.8"/>
<line x1="642.4" y1="502.3" x2="681.8" y2="503.4"/>
<line x1="642.4" y1="502.3" x2="623.7" y2="467.7"/>
<line x1="540.7" y1="589.2" x2="575.1" y2="608.5"/>
<line x1="540.7" y1="589.2" x2="540.2" y2="549.8"/>
<line x1="137.4" y1="368.1" x2="107.2" y2="393.4"/>
<line x1="137.4" y1="368.1" x2="174.4" y2="381.6"/>
<line x1="457.4" y1="610.1" x2="449.2" y2="648.6"/>
<line x1="457.4" y1="610.1" x2="428.2" y2="583.8"/>
<line x1="692.1" y1="378.2" x2="659.5" y2="356.2"/>
<line x1="692.1" y1="378.2" x2="727.5" y2="360.8"/>
<line x1="233.9" y1="126.9" x2="243.8" y2="165.0"/>
<line x1="233.9" y1="126.9" x2="205.8" y2="119.2"/>
<line x1="143.5" y1="499.2" x2="139.6" y2="470.3"/>
<line x1="143.5" y1="499.2" x2="221.6" y2="488.8"/>
<line x1="143.5" y1="499.2" x2="132.4" y2="526.2"/>
<line x1="147.8" y1="189.2" x2="148.4" y2="189.8"/>
<line x1="144.6" y1="191.6" x2="145.7" y2="192.8"/>
<line x1="141.5" y1="193.9" x2="143.1" y2="195.7"/>
<line x1="138.3" y1="196.3" x2="140.4" y2="198.6"/>
<line x1="135.1" y1="198.6" x2="137.8" y2="201.6"/>
<line x1="131.9" y1="201.0" x2="135.1" y2="204.5"/>
<line x1="128.7" y1="203.3" x2="132.5" y2="207.5"/>
<line x1="129.4" y1="206.5" x2="182.4" y2="264.8"/>
<line x1="129.4" y1="206.5" x2="101.0" y2="212.6"/>
<polygon points="571.719175 121.975274 563.846598 147.470232 571.757930 148.658018 " />
<line x1="567.8" y1="148.1" x2="594.9" y2="137.4"/>
<polygon points="654.870697 219.545929 636.051779 238.462024 642.504923 243.190336 " />
<polygon points="315.597093 588.003766 317.139564 561.365614 309.173866 562.105648 " />
<polygon points="325.214292 87.229101 341.724098 108.190891 347.195775 102.354733 " />
<line x1="344.5" y1="105.3" x2="353.4" y2="66.9"/>
<polygon points="650.090742 468.441702 623.832737 463.699603 623.607217 471.696424 " />
<polygon points="563.254296 562.747799 542.207750 546.346175 538.291754 553.322204 " />
<polygon points="154.126514 398.532908 176.925506 384.670142 171.791438 378.534888 " />
<polygon points="406.476238 568.759850 425.893828 587.060876 430.446081 580.482351 " />
<polygon points="683.154369 344.582892 657.700296 352.586675 661.216916 359.772313 " />
<polygon points="218.332229 158.013512 242.692365 168.901766 244.825097 161.191289 " />
<line x1="729.2" y1="358.4" x2="753.4" y2="374.6"/>
<line x1="725.8" y1="363.3" x2="750.0" y2="379.6"/>
<line x1="727.5" y1="360.8" x2="729.5" y2="331.8"/>
<line x1="221.6" y1="488.8" x2="210.5" y2="515.7"/>
<polygon points="156.588018 270.360566 183.217872 268.680916 181.523074 260.862498 " />
<line x1="596.5" y1="175.0" x2="618.1" y2="155.4"/>
<line x1="652.2" y1="278.0" x2="680.4" y2="270.7"/>
<line x1="278.8" y1="542.5" x2="262.6" y2="566.6"/>
<line x1="600.4" y1="499.5" x2="622.5" y2="518.5"/>
<line x1="504.9" y1="567.1" x2="515.5" y2="594.3"/>
<line x1="388.8" y1="582.7" x2="385.6" y2="611.6"/>
<line x1="653.6" y1="395.1" x2="682.0" y2="401.7"/>
<line x1="170.7" y1="342.4" x2="141.6" y2="342.7"/>
<line x1="274.0" y1="139.8" x2="257.1" y2="116.0"/>
<line x1="200.1" y1="455.8" x2="174.5" y2="469.6"/>
<line x1="197.4" y1="228.4" x2="171.4" y2="215.1"/>
<line x1="352.6" y1="64.1" x2="380.4" y2="55.6"/>
<line x1="354.3" y1="69.8" x2="382.2" y2="61.4"/>
<line x1="353.4" y1="66.9" x2="332.2" y2="47.0"/>
<line x1="413.3" y1="664.6" x2="449.2" y2="648.6"/>
<line x1="421.7" y1="668.8" x2="446.7" y2="657.7"/>
<line x1="449.2" y1="648.6" x2="475.6" y2="677.9"/>
<line x1="475.6" y1="677.9" x2="455.9" y2="712.0"/>
<line x1="455.9" y1="712.0" x2="427.4" y2="705.9"/>
<line x1="416.3" y1="693.6" x2="413.3" y2="664.6"/>
<line x1="739.9" y1="539.2" x2="760.5" y2="505.7"/>
<line x1="736.9" y1="530.3" x2="751.2" y2="507.0"/>
<line x1="760.5" y1="505.7" x2="741.8" y2="471.0"/>
<line x1="741.8" y1="471.0" x2="702.4" y2="469.9"/>
<line x1="735.6" y1="478.1" x2="708.2" y2="477.3"/>
<line x1="702.4" y1="469.9" x2="681.8" y2="503.4"/>
<line x1="681.8" y1="503.4" x2="700.5" y2="538.1"/>
<line x1="691.0" y1="505.3" x2="704.0" y2="529.4"/>
<line x1="700.5" y1="538.1" x2="739.9" y2="539.2"/>
<line x1="609.9" y1="667.1" x2="643.7" y2="647.0"/>
<line x1="611.4" y1="657.9" x2="634.9" y2="643.9"/>
<line x1="643.7" y1="647.0" x2="643.3" y2="607.7"/>
<line x1="643.3" y1="607.7" x2="608.9" y2="588.4"/>
<line x1="634.5" y1="611.0" x2="610.6" y2="597.6"/>
<line x1="608.9" y1="588.4" x2="575.1" y2="608.5"/>
<line x1="575.1" y1="608.5" x2="575.5" y2="647.9"/>
<line x1="582.3" y1="614.4" x2="582.7" y2="641.8"/>
<line x1="575.5" y1="647.9" x2="609.9" y2="667.1"/>
<line x1="83.8" y1="457.4" x2="46.8" y2="443.9"/>
<line x1="80.6" y1="448.6" x2="54.9" y2="439.2"/>
<line x1="46.8" y1="443.9" x2="40.0" y2="405.1"/>
<line x1="40.0" y1="405.1" x2="70.2" y2="379.8"/>
<line x1="49.2" y1="406.8" x2="70.2" y2="389.2"/>
<line x1="70.2" y1="379.8" x2="107.2" y2="393.4"/>
<line x1="107.2" y1="393.4" x2="114.0" y2="432.1"/>
<line x1="101.1" y1="400.5" x2="105.8" y2="427.5"/>
<line x1="114.0" y1="432.1" x2="83.8" y2="457.4"/>
<line x1="534.7" y1="712.0" x2="515.0" y2="746.1"/>
<line x1="525.4" y1="713.6" x2="511.7" y2="737.3"/>
<line x1="515.0" y1="746.1" x2="475.6" y2="746.1"/>
<line x1="475.6" y1="746.1" x2="455.9" y2="712.0"/>
<line x1="478.8" y1="737.3" x2="465.1" y2="713.6"/>
<line x1="475.6" y1="677.9" x2="515.0" y2="677.9"/>
<line x1="481.6" y1="685.1" x2="509.0" y2="685.1"/>
<line x1="515.0" y1="677.9" x2="534.7" y2="712.0"/>
<line x1="221.6" y1="488.8" x2="200.1" y2="455.8"/>
<line x1="200.1" y1="455.8" x2="188.4" y2="429.1"/>
<line x1="204.3" y1="447.4" x2="195.8" y2="428.1"/>
<line x1="181.7" y1="409.8" x2="174.4" y2="381.6"/>
<line x1="174.4" y1="381.6" x2="170.7" y2="342.4"/>
<line x1="170.7" y1="342.4" x2="172.7" y2="313.3"/>
<line x1="178.3" y1="336.9" x2="179.8" y2="315.9"/>
<line x1="175.7" y1="293.1" x2="182.4" y2="264.8"/>
<line x1="182.4" y1="264.8" x2="197.4" y2="228.4"/>
<line x1="197.4" y1="228.4" x2="212.6" y2="203.6"/>
<line x1="206.6" y1="227.0" x2="217.7" y2="209.1"/>
<line x1="224.7" y1="187.1" x2="243.8" y2="165.0"/>
<line x1="243.8" y1="165.0" x2="274.0" y2="139.8"/>
<line x1="274.0" y1="139.8" x2="299.0" y2="124.9"/>
<line x1="282.8" y1="142.9" x2="300.9" y2="132.1"/>
<line x1="317.3" y1="115.9" x2="344.5" y2="105.3"/>
<line x1="344.5" y1="105.3" x2="382.9" y2="96.9"/>
<line x1="382.9" y1="96.9" x2="422.3" y2="94.9"/>
<line x1="422.3" y1="94.9" x2="451.2" y2="98.0"/>
<line x1="471.3" y1="101.9" x2="489.5" y2="106.9"/>
<line x1="508.7" y1="113.9" x2="535.1" y2="126.1"/>
<line x1="535.1" y1="126.1" x2="567.8" y2="148.1"/>
<line x1="567.8" y1="148.1" x2="596.5" y2="175.0"/>
<line x1="596.5" y1="175.0" x2="614.3" y2="198.1"/>
<line x1="594.5" y1="184.1" x2="607.3" y2="200.8"/>
<line x1="625.4" y1="215.2" x2="639.3" y2="240.8"/>
<line x1="639.3" y1="240.8" x2="652.2" y2="278.0"/>
<line x1="652.2" y1="278.0" x2="657.2" y2="306.7"/>
<line x1="646.1" y1="285.2" x2="649.8" y2="305.9"/>
<line x1="659.1" y1="327.0" x2="659.5" y2="356.2"/>
<line x1="659.5" y1="356.2" x2="653.6" y2="395.1"/>
<line x1="653.6" y1="395.1" x2="644.7" y2="422.9"/>
<line x1="644.9" y1="398.6" x2="638.5" y2="418.7"/>
<line x1="636.9" y1="441.7" x2="623.7" y2="467.7"/>
<line x1="623.7" y1="467.7" x2="600.4" y2="499.5"/>
<line x1="600.4" y1="499.5" x2="579.7" y2="519.9"/>
<line x1="591.1" y1="498.5" x2="576.1" y2="513.3"/>
<line x1="564.0" y1="533.0" x2="540.2" y2="549.8"/>
<line x1="540.2" y1="549.8" x2="504.9" y2="567.1"/>
<line x1="504.9" y1="567.1" x2="477.0" y2="575.6"/>
<line x1="497.1" y1="562.0" x2="476.9" y2="568.1"/>
<line x1="457.1" y1="579.9" x2="428.2" y2="583.8"/>
<line x1="428.2" y1="583.8" x2="388.8" y2="582.7"/>
<line x1="388.8" y1="582.7" x2="360.2" y2="577.2"/>
<line x1="384.3" y1="574.5" x2="363.6" y2="570.5"/>
<line x1="340.5" y1="571.7" x2="313.2" y2="561.7"/>
<line x1="313.2" y1="561.7" x2="278.8" y2="542.5"/>
<line x1="278.8" y1="542.5" x2="256.0" y2="524.3"/>
<line x1="278.6" y1="533.1" x2="262.1" y2="520.0"/>
<line x1="241.1" y1="510.3" x2="221.6" y2="488.8"/>
<text x="83.494729" y="492.535700" fill="rgb(102,102,102)"  stroke="rgb(102,102,102)" stroke-width="1" font-size="16" >H</text>
<text x="95.494729" y="500.215700" fill="rgb(102,102,102)"  stroke="rgb(102,102,102)" stroke-width="1" font-size="13" >3</text>
<text x="101.994729" y="492.535700" fill="rgb(102,102,102)"  stroke="rgb(102,102,102)" stroke-width="1" font-size="16" >C</text>
<text x="97.499575" y="176.300485" fill="rgb(102,102,102)"  stroke="rgb(102,102,102)" stroke-width="1" font-size="16" >H</text>
<text x="109.499575" y="183.980485" fill="rgb(102,102,102)"  stroke="rgb(102,102,102)" stroke-width="1" font-size="13" >3</text>
<text x="115.999575" y="176.300485" fill="rgb(102,102,102)"  stroke="rgb(102,102,102)" stroke-width="1" font-size="16" >C</text>
<text x="797.249882" y="194.923529" fill="rgb(12,12,255)"  stroke="rgb(12,12,255)" stroke-width="1" font-size="16" >NH</text>
<text x="821.249882" y="199.723529" fill="rgb(12,12,255)"  stroke="rgb(12,12,255)" stroke-width="1" font-size="13" >2</text>
<text x="161.027265" y="657.565464" fill="rgb(12,12,255)"  stroke="rgb(12,12,255)" stroke-width="1" font-size="16" >H</text>
<text x="173.027265" y="662.365464" fill="rgb(12,12,255)"  stroke="rgb(12,12,255)" stroke-width="1" font-size="13" >2</text>
<text x="179.527265" y="657.565464" fill="rgb(12,12,255)"  stroke="rgb(12,12,255)" stroke-width="1" font-size="16" >N</text>
<text x="598.447135" y="141.977735" fill="rgb(12,12,255)"  stroke="rgb(12,12,255)" stroke-width="1" font-size="16" >NH</text>
<text x="622.447135" y="149.657735" fill="rgb(12,12,255)"  stroke="rgb(12,12,255)" stroke-width="1" font-size="13" >2</text>
<text x="754.171188" y="387.619883" fill="rgb(12,12,255)"  stroke="rgb(12,12,255)" stroke-width="1" font-size="16" >NH</text>
<text x="401.789715" y="708.607748" fill="rgb(12,12,255)"  stroke="rgb(12,12,255)" stroke-width="1" font-size="16" >HN</text>
<text x="614.559948" y="214.504990" fill="rgb(12,12,255)"  stroke="rgb(12,12,255)" stroke-width="1" font-size="16" >N</text>
<text x="346.538998" y="580.052337" fill="rgb(12,12,255)"  stroke="rgb(12,12,255)" stroke-width="1" font-size="16" >N</text>
<text x="304.215066" y="127.999202" fill="rgb(12,12,255)"  stroke="rgb(12,12,255)" stroke-width="1" font-size="16" >N</text>
<text x="566.382115" y="531.876731" fill="rgb(12,12,255)"  stroke="rgb(12,12,255)" stroke-width="1" font-size="16" >N</text>
<text x="635.595853" y="437.414632" fill="rgb(12,12,255)"  stroke="rgb(12,12,255)" stroke-width="1" font-size="16" >N</text>
<text x="461.197667" y="583.353538" fill="rgb(12,12,255)"  stroke="rgb(12,12,255)" stroke-width="1" font-size="16" >N</text>
<text x="652.982848" y="325.127369" fill="rgb(12,12,255)"  stroke="rgb(12,12,255)" stroke-width="1" font-size="16" >N</text>
<text x="180.642772" y="424.516702" fill="rgb(12,12,255)"  stroke="rgb(12,12,255)" stroke-width="1" font-size="16" >N</text>
<text x="214.406293" y="203.152473" fill="rgb(12,12,255)"  stroke="rgb(12,12,255)" stroke-width="1" font-size="16" >N</text>
<text x="244.422840" y="522.729393" fill="rgb(12,12,255)"  stroke="rgb(12,12,255)" stroke-width="1" font-size="16" >N</text>
<text x="169.810040" y="311.433607" fill="rgb(12,12,255)"  stroke="rgb(12,12,255)" stroke-width="1" font-size="16" >N</text>
<text x="180.324427" y="124.755302" fill="rgb(255,12,12)"  stroke="rgb(255,12,12)" stroke-width="1" font-size="16" >HO</text>
<text x="112.907886" y="540.418598" fill="rgb(255,12,12)"  stroke="rgb(255,12,12)" stroke-width="1" font-size="16" >HO</text>
<text x="75.359878" y="219.603342" fill="rgb(255,12,12)"  stroke="rgb(255,12,12)" stroke-width="1" font-size="16" >HO</text>
<text x="724.192226" y="329.882771" fill="rgb(255,12,12)"  stroke="rgb(255,12,12)" stroke-width="1" font-size="16" >OH</text>
<text x="619.682080" y="156.850379" fill="rgb(255,12,12)"  stroke="rgb(255,12,12)" stroke-width="1" font-size="16" >OH</text>
<text x="684.311704" y="276.457118" fill="rgb(255,12,12)"  stroke="rgb(255,12,12)" stroke-width="1" font-size="16" >OH</text>
<text x="241.247200" y="579.934473" fill="rgb(255,12,12)"  stroke="rgb(255,12,12)" stroke-width="1" font-size="16" >HO</text>
<text x="624.233764" y="530.012021" fill="rgb(255,12,12)"  stroke="rgb(255,12,12)" stroke-width="1" font-size="16" >OH</text>
<text x="513.289332" y="608.587422" fill="rgb(255,12,12)"  stroke="rgb(255,12,12)" stroke-width="1" font-size="16" >OH</text>
<text x="368.937107" y="626.604035" fill="rgb(255,12,12)"  stroke="rgb(255,12,12)" stroke-width="1" font-size="16" >HO</text>
<text x="685.954370" y="408.878511" fill="rgb(255,12,12)"  stroke="rgb(255,12,12)" stroke-width="1" font-size="16" >OH</text>
<text x="115.743991" y="347.672102" fill="rgb(255,12,12)"  stroke="rgb(255,12,12)" stroke-width="1" font-size="16" >HO</text>
<text x="235.598226" y="115.964921" fill="rgb(255,12,12)"  stroke="rgb(255,12,12)" stroke-width="1" font-size="16" >HO</text>
<text x="149.871829" y="479.270169" fill="rgb(255,12,12)"  stroke="rgb(255,12,12)" stroke-width="1" font-size="16" >HO</text>
<text x="146.681962" y="218.807804" fill="rgb(255,12,12)"  stroke="rgb(255,12,12)" stroke-width="1" font-size="16" >HO</text>
<text x="385.105645" y="63.839925" fill="rgb(255,12,12)"  stroke="rgb(255,12,12)" stroke-width="1" font-size="16" >O</text>
<text x="309.095526" y="48.320000" fill="rgb(255,12,12)"  stroke="rgb(255,12,12)" stroke-width="1" font-size="16" >HO</text>
<text x="455.404656" y="107.463999" fill="rgb(178,178,0)"  stroke="rgb(178,178,0)" stroke-width="1" font-size="16" >S</text>
<text x="493.354660" y="117.961037" fill="rgb(178,178,0)"  stroke="rgb(178,178,0)" stroke-width="1" font-size="16" >S</text>
<text x="134.684681" y="468.502858" fill="rgb(191,191,191)"  stroke="rgb(191,191,191)" stroke-width="1" font-size="16" >H</text>
<text x="152.596128" y="188.317102" fill="rgb(191,191,191)"  stroke="rgb(191,191,191)" stroke-width="1" font-size="16" >H</text>
<text x="567.648400" y="117.445541" fill="rgb(191,191,191)"  stroke="rgb(191,191,191)" stroke-width="1" font-size="16" >H</text>
<text x="656.550509" y="217.384611" fill="rgb(191,191,191)"  stroke="rgb(191,191,191)" stroke-width="1" font-size="16" >H</text>
<text x="310.799071" y="605.741802" fill="rgb(191,191,191)"  stroke="rgb(191,191,191)" stroke-width="1" font-size="16" >H</text>
<text x="312.135094" y="86.661900" fill="rgb(191,191,191)"  stroke="rgb(191,191,191)" stroke-width="1" font-size="16" >H</text>
<text x="657.079329" y="473.607997" fill="rgb(191,191,191)"  stroke="rgb(191,191,191)" stroke-width="1" font-size="16" >H</text>
<text x="568.584892" y="573.908233" fill="rgb(191,191,191)"  stroke="rgb(191,191,191)" stroke-width="1" font-size="16" >H</text>
<text x="140.561519" y="411.671759" fill="rgb(191,191,191)"  stroke="rgb(191,191,191)" stroke-width="1" font-size="16" >H</text>
<text x="392.191274" y="569.685997" fill="rgb(191,191,191)"  stroke="rgb(191,191,191)" stroke-width="1" font-size="16" >H</text>
<text x="688.825416" y="347.191133" fill="rgb(191,191,191)"  stroke="rgb(191,191,191)" stroke-width="1" font-size="16" >H</text>
<text x="202.208727" y="162.869489" fill="rgb(191,191,191)"  stroke="rgb(191,191,191)" stroke-width="1" font-size="16" >H</text>
<text x="202.963310" y="529.982448" fill="rgb(191,191,191)"  stroke="rgb(191,191,191)" stroke-width="1" font-size="16" >H</text>
<text x="140.289196" y="277.913288" fill="rgb(191,191,191)"  stroke="rgb(191,191,191)" stroke-width="1" font-size="16" >H</text>
<text font-size="18.000000" fill ="black" font-family="sans-serif"
x="140.000000" y="20.000000" ></text>
<title> - OBDepict</title>
</svg>
