<?xml version="1.0"?>
<svg xmlns="http://www.w3.org/2000/svg"
xmlns:xlink="http://www.w3.org/1999/xlink" xmlns:cml="http://www.xml-cml.org/schema" width="253.205" height="200" x="0" y="0" font-family="sans-serif" stroke="rgb(0,0,0)" stroke-width="1" >
<line x1="178.6" y1="50.4" x2="178.6" y2="80.0"/>
<line x1="204.2" y1="94.8" x2="178.6" y2="80.0"/>
<line x1="74.6" y1="110.4" x2="74.6" y2="140.0"/>
<line x1="143.9" y1="140.0" x2="143.9" y2="100.0"/>
<line x1="143.9" y1="140.0" x2="109.3" y2="160.0"/>
<line x1="142.4" y1="97.4" x2="177.1" y2="77.4"/>
<line x1="145.4" y1="102.6" x2="180.1" y2="82.6"/>
<line x1="109.3" y1="160.0" x2="74.6" y2="140.0"/>
<line x1="76.1" y1="142.6" x2="50.5" y2="157.4"/>
<line x1="73.1" y1="137.4" x2="47.5" y2="152.2"/>
<text x="172.564065" y="48.320000" fill="rgb(102,102,102)"  stroke="rgb(102,102,102)" stroke-width="1" font-size="16" >CH</text>
<text x="196.564065" y="56.000000" fill="rgb(102,102,102)"  stroke="rgb(102,102,102)" stroke-width="1" font-size="13" >3</text>
<text x="207.205081" y="104.800000" fill="rgb(102,102,102)"  stroke="rgb(102,102,102)" stroke-width="1" font-size="16" >CH</text>
<text x="231.205081" y="109.600000" fill="rgb(102,102,102)"  stroke="rgb(102,102,102)" stroke-width="1" font-size="13" >3</text>
<text x="68.641016" y="108.320000" fill="rgb(102,102,102)"  stroke="rgb(102,102,102)" stroke-width="1" font-size="16" >CH</text>
<text x="92.641016" y="116.000000" fill="rgb(102,102,102)"  stroke="rgb(102,102,102)" stroke-width="1" font-size="13" >3</text>
<text x="36.400000" y="164.800000" fill="rgb(255,12,12)"  stroke="rgb(255,12,12)" stroke-width="1" font-size="16" >O</text>
<text font-size="18.000000" fill ="black" font-family="sans-serif"
x="140.000000" y="20.000000" ></text>
<title> - OBDepict</title>
</svg>
