<?xml version="1.0"?>
<svg xmlns="http://www.w3.org/2000/svg"
xmlns:xlink="http://www.w3.org/1999/xlink" xmlns:cml="http://www.xml-cml.org/schema" width="317.951" height="241.587" x="0" y="0" font-family="sans-serif" stroke="rgb(0,0,0)" stroke-width="1" >
<line x1="211.5" y1="74.4" x2="201.6" y2="111.2"/>
<line x1="211.5" y1="74.4" x2="191.5" y2="54.4"/>
<line x1="221.2" y1="125.8" x2="220.7" y2="126.4"/>
<line x1="218.4" y1="123.2" x2="217.5" y2="124.4"/>
<line x1="215.6" y1="120.5" x2="214.2" y2="122.4"/>
<line x1="212.9" y1="117.9" x2="210.9" y2="120.4"/>
<line x1="210.1" y1="115.2" x2="207.6" y2="118.4"/>
<line x1="207.3" y1="112.6" x2="204.4" y2="116.4"/>
<line x1="204.5" y1="110.0" x2="201.1" y2="114.4"/>
<line x1="250.5" y1="149.0" x2="250.5" y2="149.8"/>
<line x1="242.8" y1="148.6" x2="242.8" y2="150.2"/>
<line x1="235.2" y1="148.2" x2="235.2" y2="150.6"/>
<line x1="227.6" y1="147.8" x2="227.6" y2="151.0"/>
<line x1="219.9" y1="147.4" x2="219.9" y2="151.4"/>
<line x1="212.3" y1="147.0" x2="212.3" y2="151.8"/>
<line x1="204.6" y1="146.6" x2="204.6" y2="152.2"/>
<line x1="201.6" y1="149.4" x2="215.7" y2="173.9"/>
<line x1="181.1" y1="189.5" x2="180.4" y2="189.9"/>
<line x1="179.5" y1="186.0" x2="178.1" y2="186.8"/>
<line x1="178.0" y1="182.5" x2="175.9" y2="183.7"/>
<line x1="176.4" y1="179.0" x2="173.6" y2="180.6"/>
<line x1="174.8" y1="175.5" x2="171.4" y2="177.5"/>
<line x1="173.3" y1="172.0" x2="169.1" y2="174.4"/>
<line x1="171.7" y1="168.4" x2="166.9" y2="171.2"/>
<line x1="168.5" y1="168.5" x2="154.4" y2="193.0"/>
<polygon points="122.663636 171.584565 138.918647 151.430061 131.990444 147.430061 " />
<line x1="135.5" y1="149.4" x2="107.2" y2="149.4"/>
<polygon points="109.872727 111.248243 135.454545 115.248243 135.454545 107.248243 " />
<line x1="135.5" y1="111.2" x2="121.3" y2="86.8"/>
<line x1="78.2" y1="49.9" x2="78.2" y2="68.3"/>
<line x1="49.9" y1="78.2" x2="68.3" y2="78.2"/>
<line x1="75.2" y1="106.4" x2="75.2" y2="88.1"/>
<line x1="81.2" y1="106.4" x2="81.2" y2="88.1"/>
<line x1="106.4" y1="78.2" x2="88.1" y2="78.2"/>
<line x1="201.6" y1="111.2" x2="201.6" y2="149.4"/>
<line x1="201.6" y1="149.4" x2="168.5" y2="168.5"/>
<line x1="168.5" y1="168.5" x2="135.5" y2="149.4"/>
<line x1="135.5" y1="149.4" x2="135.5" y2="111.2"/>
<line x1="135.5" y1="111.2" x2="159.9" y2="97.1"/>
<line x1="177.1" y1="97.1" x2="201.6" y2="111.2"/>
<text x="168.870954" y="55.688816" fill="rgb(255,12,12)"  stroke="rgb(255,12,12)" stroke-width="1" font-size="16" >HO</text>
<text x="214.678304" y="187.296485" fill="rgb(255,12,12)"  stroke="rgb(255,12,12)" stroke-width="1" font-size="16" >OH</text>
<text x="133.830061" y="206.387394" fill="rgb(255,12,12)"  stroke="rgb(255,12,12)" stroke-width="1" font-size="16" >HO</text>
<text x="81.672727" y="157.750061" fill="rgb(255,12,12)"  stroke="rgb(255,12,12)" stroke-width="1" font-size="16" >HO</text>
<text x="73.381818" y="33.600000" fill="rgb(255,12,12)"  stroke="rgb(255,12,12)" stroke-width="1" font-size="32" >-</text>
<text x="72.181818" y="48.320000" fill="rgb(255,12,12)"  stroke="rgb(255,12,12)" stroke-width="1" font-size="16" >O</text>
<text x="35.200000" y="71.781818" fill="rgb(255,12,12)"  stroke="rgb(255,12,12)" stroke-width="1" font-size="32" >-</text>
<text x="36.400000" y="86.501818" fill="rgb(255,12,12)"  stroke="rgb(255,12,12)" stroke-width="1" font-size="16" >O</text>
<text x="72.181818" y="121.163636" fill="rgb(255,12,12)"  stroke="rgb(255,12,12)" stroke-width="1" font-size="16" >O</text>
<text x="162.520970" y="100.477334" fill="rgb(255,12,12)"  stroke="rgb(255,12,12)" stroke-width="1" font-size="16" >O</text>
<text x="110.363636" y="86.501818" fill="rgb(255,12,12)"  stroke="rgb(255,12,12)" stroke-width="1" font-size="16" >O</text>
<text x="72.181818" y="82.981818" fill="rgb(255,127,0)"  stroke="rgb(255,127,0)" stroke-width="1" font-size="16" >P</text>
<text x="225.879067" y="139.291861" fill="rgb(191,191,191)"  stroke="rgb(191,191,191)" stroke-width="1" font-size="16" >H</text>
<text x="271.951031" y="154.230061" fill="rgb(191,191,191)"  stroke="rgb(191,191,191)" stroke-width="1" font-size="16" >H</text>
<text x="181.611879" y="206.387394" fill="rgb(191,191,191)"  stroke="rgb(191,191,191)" stroke-width="1" font-size="16" >H</text>
<text x="112.763636" y="187.296485" fill="rgb(191,191,191)"  stroke="rgb(191,191,191)" stroke-width="1" font-size="16" >H</text>
<text x="93.672727" y="116.048243" fill="rgb(191,191,191)"  stroke="rgb(191,191,191)" stroke-width="1" font-size="16" >H</text>
<text font-size="18.000000" fill ="black" font-family="sans-serif"
x="140.000000" y="20.000000" ></text>
<title> - OBDepict</title>
</svg>
