<?xml version="1.0"?>
<svg xmlns="http://www.w3.org/2000/svg"
xmlns:xlink="http://www.w3.org/1999/xlink" xmlns:cml="http://www.xml-cml.org/schema" width="311.433" height="255.004" x="0" y="0" font-family="sans-serif" stroke="rgb(0,0,0)" stroke-width="1" >
<line x1="47.1" y1="169.2" x2="57.0" y2="137.4"/>
<line x1="57.0" y1="137.4" x2="100.9" y2="127.6"/>
<polygon points="197.807645 137.427345 155.537134 153.265686 158.996876 160.478881 " />
<line x1="61.6" y1="85.5" x2="62.2" y2="85.0"/>
<line x1="67.4" y1="92.4" x2="68.6" y2="91.3"/>
<line x1="73.2" y1="99.3" x2="75.0" y2="97.7"/>
<line x1="79.0" y1="106.2" x2="81.4" y2="104.0"/>
<line x1="84.8" y1="113.1" x2="87.8" y2="110.4"/>
<line x1="90.6" y1="120.0" x2="94.1" y2="116.7"/>
<line x1="96.4" y1="126.9" x2="100.5" y2="123.1"/>
<line x1="103.3" y1="87.2" x2="104.0" y2="86.8"/>
<line x1="105.2" y1="91.4" x2="106.5" y2="90.6"/>
<line x1="107.0" y1="95.5" x2="109.1" y2="94.3"/>
<line x1="108.8" y1="99.6" x2="111.6" y2="98.0"/>
<line x1="110.7" y1="103.7" x2="114.2" y2="101.8"/>
<line x1="112.5" y1="107.8" x2="116.7" y2="105.5"/>
<line x1="114.4" y1="112.0" x2="119.2" y2="109.2"/>
<polygon points="168.495121 202.048011 157.304392 173.794059 150.319030 177.693382 " />
<polygon points="98.992333 111.488982 124.541703 127.943403 127.950343 120.705919 " />
<line x1="147.6" y1="84.8" x2="150.7" y2="51.6"/>
<polygon points="194.705890 195.710006 188.824092 165.895198 181.247457 168.463192 " />
<line x1="199.6" y1="65.1" x2="200.3" y2="65.4"/>
<line x1="197.9" y1="69.3" x2="199.5" y2="69.8"/>
<line x1="196.3" y1="73.5" x2="198.6" y2="74.2"/>
<line x1="194.6" y1="77.7" x2="197.7" y2="78.6"/>
<line x1="193.0" y1="81.9" x2="196.8" y2="83.1"/>
<line x1="191.3" y1="86.1" x2="195.9" y2="87.5"/>
<line x1="189.7" y1="90.3" x2="195.0" y2="91.9"/>
<line x1="191.8" y1="92.9" x2="224.2" y2="85.0"/>
<polygon points="96.888129 178.612759 109.701091 151.056520 102.066074 148.667690 " />
<line x1="105.9" y1="149.9" x2="73.4" y2="157.1"/>
<line x1="185.0" y1="167.2" x2="197.8" y2="137.4"/>
<line x1="197.8" y1="137.4" x2="242.6" y2="133.9"/>
<line x1="242.6" y1="133.9" x2="213.8" y2="117.3"/>
<line x1="213.8" y1="117.3" x2="192.5" y2="129.6"/>
<line x1="185.0" y1="142.6" x2="185.0" y2="167.2"/>
<line x1="126.2" y1="124.3" x2="157.3" y2="156.9"/>
<line x1="157.3" y1="156.9" x2="197.8" y2="137.4"/>
<line x1="197.8" y1="137.4" x2="191.8" y2="92.9"/>
<line x1="191.8" y1="92.9" x2="147.6" y2="84.8"/>
<line x1="147.6" y1="84.8" x2="126.2" y2="124.3"/>
<line x1="271.4" y1="117.3" x2="271.4" y2="84.0"/>
<line x1="271.4" y1="84.0" x2="242.6" y2="67.4"/>
<line x1="262.6" y1="87.3" x2="244.2" y2="76.7"/>
<line x1="242.6" y1="67.4" x2="213.8" y2="84.0"/>
<line x1="213.8" y1="84.0" x2="213.8" y2="117.3"/>
<line x1="221.0" y1="90.0" x2="221.0" y2="111.3"/>
<line x1="242.6" y1="133.9" x2="271.4" y2="117.3"/>
<line x1="244.2" y1="124.7" x2="262.6" y2="114.1"/>
<line x1="153.8" y1="175.7" x2="134.5" y2="161.6"/>
<line x1="127.3" y1="148.3" x2="126.2" y2="124.3"/>
<line x1="185.0" y1="167.2" x2="153.8" y2="175.7"/>
<line x1="120.4" y1="152.7" x2="153.8" y2="175.7"/>
<line x1="122.0" y1="154.9" x2="105.9" y2="149.9"/>
<line x1="105.9" y1="149.9" x2="100.9" y2="127.6"/>
<line x1="100.9" y1="127.6" x2="117.7" y2="112.2"/>
<line x1="117.7" y1="112.2" x2="120.4" y2="152.7"/>
<line x1="147.6" y1="84.8" x2="117.7" y2="112.2"/>
<text x="19.997257" y="185.148789" fill="rgb(102,102,102)"  stroke="rgb(102,102,102)" stroke-width="1" font-size="16" >H</text>
<text x="31.997257" y="189.948789" fill="rgb(102,102,102)"  stroke="rgb(102,102,102)" stroke-width="1" font-size="13" >3</text>
<text x="38.497257" y="185.148789" fill="rgb(102,102,102)"  stroke="rgb(102,102,102)" stroke-width="1" font-size="16" >C</text>
<text x="169.435775" y="142.244971" fill="rgb(12,12,255)"  stroke="rgb(12,12,255)" stroke-width="1" font-size="16" >HN</text>
<text x="124.047810" y="161.471658" fill="rgb(12,12,255)"  stroke="rgb(12,12,255)" stroke-width="1" font-size="16" >N</text>
<text x="229.539715" y="90.590942" fill="rgb(255,12,12)"  stroke="rgb(255,12,12)" stroke-width="1" font-size="16" >OH</text>
<text x="46.408175" y="164.490516" fill="rgb(255,12,12)"  stroke="rgb(255,12,12)" stroke-width="1" font-size="16" >HO</text>
<text x="36.400000" y="69.762930" fill="rgb(191,191,191)"  stroke="rgb(191,191,191)" stroke-width="1" font-size="16" >H</text>
<text x="92.174978" y="81.218280" fill="rgb(191,191,191)"  stroke="rgb(191,191,191)" stroke-width="1" font-size="16" >H</text>
<text x="169.727249" y="219.803856" fill="rgb(191,191,191)"  stroke="rgb(191,191,191)" stroke-width="1" font-size="16" >H</text>
<text x="81.968874" y="113.486932" fill="rgb(191,191,191)"  stroke="rgb(191,191,191)" stroke-width="1" font-size="16" >H</text>
<text x="145.835639" y="48.320000" fill="rgb(191,191,191)"  stroke="rgb(191,191,191)" stroke-width="1" font-size="16" >H</text>
<text x="193.468782" y="214.562494" fill="rgb(191,191,191)"  stroke="rgb(191,191,191)" stroke-width="1" font-size="16" >H</text>
<text x="198.518733" y="58.043319" fill="rgb(191,191,191)"  stroke="rgb(191,191,191)" stroke-width="1" font-size="16" >H</text>
<text x="88.857532" y="197.573528" fill="rgb(191,191,191)"  stroke="rgb(191,191,191)" stroke-width="1" font-size="16" >H</text>
<text font-size="18.000000" fill ="black" font-family="sans-serif"
x="140.000000" y="20.000000" ></text>
<title> - OBDepict</title>
</svg>
