<?xml version="1.0"?>
<svg xmlns="http://www.w3.org/2000/svg"
xmlns:xlink="http://www.w3.org/1999/xlink" xmlns:cml="http://www.xml-cml.org/schema" width="385.794" height="315.865" x="0" y="0" font-family="sans-serif" stroke="rgb(0,0,0)" stroke-width="1" >
<line x1="178.6" y1="175.9" x2="143.9" y2="155.9"/>
<line x1="178.6" y1="175.9" x2="178.6" y2="215.9"/>
<line x1="247.8" y1="175.9" x2="282.5" y2="155.9"/>
<line x1="247.8" y1="175.9" x2="247.8" y2="215.9"/>
<line x1="74.6" y1="115.9" x2="49.0" y2="101.1"/>
<line x1="178.6" y1="215.9" x2="143.9" y2="235.9"/>
<line x1="178.6" y1="215.9" x2="204.2" y2="230.7"/>
<line x1="249.3" y1="218.5" x2="223.7" y2="233.3"/>
<line x1="246.3" y1="213.3" x2="220.7" y2="228.1"/>
<line x1="247.8" y1="215.9" x2="273.5" y2="230.7"/>
<line x1="142.4" y1="238.5" x2="116.8" y2="223.7"/>
<line x1="145.4" y1="233.3" x2="119.8" y2="218.5"/>
<line x1="143.9" y1="235.9" x2="143.9" y2="265.5"/>
<line x1="282.5" y1="155.9" x2="319.0" y2="172.1"/>
<line x1="290.9" y1="151.7" x2="316.5" y2="163.1"/>
<line x1="319.0" y1="172.1" x2="338.8" y2="150.1"/>
<line x1="340.6" y1="133.4" x2="325.8" y2="107.8"/>
<line x1="325.8" y1="107.8" x2="286.7" y2="116.1"/>
<line x1="286.7" y1="116.1" x2="282.5" y2="155.9"/>
<line x1="109.3" y1="175.9" x2="143.9" y2="155.9"/>
<line x1="110.9" y1="166.6" x2="135.1" y2="152.6"/>
<line x1="143.9" y1="155.9" x2="143.9" y2="115.9"/>
<line x1="143.9" y1="115.9" x2="109.3" y2="95.9"/>
<line x1="135.1" y1="119.1" x2="110.9" y2="105.1"/>
<line x1="109.3" y1="95.9" x2="74.6" y2="115.9"/>
<line x1="74.6" y1="115.9" x2="74.6" y2="155.9"/>
<line x1="81.8" y1="121.9" x2="81.8" y2="149.9"/>
<line x1="74.6" y1="155.9" x2="109.3" y2="175.9"/>
<line x1="272.3" y1="48.3" x2="259.9" y2="86.4"/>
<line x1="259.9" y1="86.4" x2="286.7" y2="116.1"/>
<line x1="269.3" y1="86.0" x2="288.0" y2="106.8"/>
<line x1="325.8" y1="107.8" x2="338.2" y2="69.7"/>
<line x1="320.8" y1="99.8" x2="329.5" y2="73.2"/>
<line x1="338.2" y1="69.7" x2="311.4" y2="40.0"/>
<line x1="311.4" y1="40.0" x2="272.3" y2="48.3"/>
<line x1="307.0" y1="48.3" x2="279.6" y2="54.1"/>
<text x="339.794156" y="147.209070" fill="rgb(12,12,255)"  stroke="rgb(12,12,255)" stroke-width="1" font-size="16" >NH</text>
<text x="207.205081" y="240.665397" fill="rgb(12,12,255)"  stroke="rgb(12,12,255)" stroke-width="1" font-size="16" >N</text>
<text x="35.200000" y="89.465397" fill="rgb(255,12,12)"  stroke="rgb(255,12,12)" stroke-width="1" font-size="32" >-</text>
<text x="36.400000" y="104.185397" fill="rgb(255,12,12)"  stroke="rgb(255,12,12)" stroke-width="1" font-size="16" >O</text>
<text x="276.487113" y="240.665397" fill="rgb(255,12,12)"  stroke="rgb(255,12,12)" stroke-width="1" font-size="16" >OH</text>
<text x="105.682032" y="224.185397" fill="rgb(255,12,12)"  stroke="rgb(255,12,12)" stroke-width="1" font-size="16" >O</text>
<text x="137.923048" y="280.665397" fill="rgb(255,12,12)"  stroke="rgb(255,12,12)" stroke-width="1" font-size="16" >OH</text>
<text font-size="18.000000" fill ="black" font-family="sans-serif"
x="140.000000" y="20.000000" ></text>
<title> - OBDepict</title>
</svg>
