<?xml version="1.0"?>
<svg xmlns="http://www.w3.org/2000/svg"
xmlns:xlink="http://www.w3.org/1999/xlink" xmlns:cml="http://www.xml-cml.org/schema" width="288.875" height="330.211" x="0" y="0" font-family="sans-serif" stroke="rgb(0,0,0)" stroke-width="1" >
<line x1="49.7" y1="97.1" x2="77.2" y2="104.4"/>
<line x1="152.9" y1="256.9" x2="124.4" y2="256.9"/>
<line x1="210.4" y1="118.3" x2="191.1" y2="151.6"/>
<line x1="210.4" y1="118.3" x2="238.9" y2="118.3"/>
<line x1="71.2" y1="128.4" x2="70.4" y2="128.2"/>
<line x1="72.6" y1="124.7" x2="71.0" y2="124.3"/>
<line x1="74.0" y1="121.1" x2="71.7" y2="120.5"/>
<line x1="75.4" y1="117.5" x2="72.3" y2="116.7"/>
<line x1="76.7" y1="113.9" x2="72.9" y2="112.9"/>
<line x1="78.1" y1="110.3" x2="73.5" y2="109.0"/>
<line x1="79.5" y1="106.7" x2="74.1" y2="105.2"/>
<line x1="77.2" y1="104.4" x2="87.2" y2="67.2"/>
<line x1="77.2" y1="104.4" x2="104.7" y2="111.8"/>
<line x1="121.8" y1="258.4" x2="107.5" y2="233.7"/>
<line x1="127.0" y1="255.4" x2="112.7" y2="230.7"/>
<line x1="124.4" y1="256.9" x2="110.1" y2="281.5"/>
<line x1="215.7" y1="151.2" x2="215.7" y2="152.0"/>
<line x1="211.9" y1="150.8" x2="211.9" y2="152.4"/>
<line x1="208.0" y1="150.4" x2="208.0" y2="152.8"/>
<line x1="204.2" y1="150.0" x2="204.2" y2="153.2"/>
<line x1="200.3" y1="149.6" x2="200.3" y2="153.6"/>
<line x1="196.5" y1="149.2" x2="196.5" y2="154.0"/>
<line x1="192.6" y1="148.8" x2="192.6" y2="154.4"/>
<polygon points="72.766575 190.136614 124.381390 194.136614 124.381390 186.136614 " />
<line x1="124.4" y1="190.1" x2="110.1" y2="214.8"/>
<polygon points="170.643109 110.008966 154.275304 130.358836 161.203507 134.358836 " />
<line x1="157.7" y1="132.4" x2="143.5" y2="107.7"/>
<line x1="105.1" y1="166.9" x2="104.6" y2="166.3"/>
<line x1="108.4" y1="164.9" x2="107.4" y2="163.6"/>
<line x1="111.7" y1="162.9" x2="110.2" y2="161.0"/>
<line x1="115.0" y1="160.9" x2="113.0" y2="158.3"/>
<line x1="118.3" y1="158.8" x2="115.8" y2="155.7"/>
<line x1="121.6" y1="156.8" x2="118.6" y2="153.0"/>
<line x1="124.9" y1="154.8" x2="121.5" y2="150.3"/>
<line x1="124.4" y1="151.6" x2="117.0" y2="124.1"/>
<line x1="85.1" y1="69.4" x2="64.9" y2="49.2"/>
<line x1="89.3" y1="65.1" x2="69.1" y2="45.0"/>
<line x1="87.2" y1="67.2" x2="114.7" y2="59.9"/>
<line x1="157.7" y1="209.4" x2="143.5" y2="234.1"/>
<line x1="157.7" y1="209.4" x2="172.0" y2="234.1"/>
<line x1="124.4" y1="190.1" x2="124.4" y2="151.6"/>
<line x1="124.4" y1="151.6" x2="157.7" y2="132.4"/>
<line x1="157.7" y1="132.4" x2="191.1" y2="151.6"/>
<line x1="191.1" y1="151.6" x2="191.1" y2="180.1"/>
<line x1="182.4" y1="195.1" x2="157.7" y2="209.4"/>
<line x1="157.7" y1="209.4" x2="124.4" y2="190.1"/>
<text x="16.400000" y="102.793411" fill="rgb(102,102,102)"  stroke="rgb(102,102,102)" stroke-width="1" font-size="16" >H</text>
<text x="28.400000" y="110.473411" fill="rgb(102,102,102)"  stroke="rgb(102,102,102)" stroke-width="1" font-size="13" >3</text>
<text x="34.900000" y="102.793411" fill="rgb(102,102,102)"  stroke="rgb(102,102,102)" stroke-width="1" font-size="16" >C</text>
<text x="156.899908" y="261.652645" fill="rgb(102,102,102)"  stroke="rgb(102,102,102)" stroke-width="1" font-size="16" >CH</text>
<text x="180.899908" y="266.452645" fill="rgb(102,102,102)"  stroke="rgb(102,102,102)" stroke-width="1" font-size="13" >3</text>
<text x="101.522131" y="228.294630" fill="rgb(12,12,255)"  stroke="rgb(12,12,255)" stroke-width="1" font-size="16" >N</text>
<text x="242.875199" y="123.060080" fill="rgb(255,12,12)"  stroke="rgb(255,12,12)" stroke-width="1" font-size="16" >OH</text>
<text x="100.322131" y="309.410661" fill="rgb(255,12,12)"  stroke="rgb(255,12,12)" stroke-width="1" font-size="32" >-</text>
<text x="101.522131" y="295.010661" fill="rgb(255,12,12)"  stroke="rgb(255,12,12)" stroke-width="1" font-size="16" >O</text>
<text x="122.880146" y="107.320821" fill="rgb(255,12,12)"  stroke="rgb(255,12,12)" stroke-width="1" font-size="16" >HO</text>
<text x="56.338652" y="48.320000" fill="rgb(255,12,12)"  stroke="rgb(255,12,12)" stroke-width="1" font-size="16" >O</text>
<text x="118.381390" y="65.587379" fill="rgb(255,12,12)"  stroke="rgb(255,12,12)" stroke-width="1" font-size="16" >OH</text>
<text x="170.998665" y="247.553889" fill="rgb(255,12,12)"  stroke="rgb(255,12,12)" stroke-width="1" font-size="16" >OH</text>
<text x="108.412064" y="122.732064" fill="rgb(255,12,12)"  stroke="rgb(255,12,12)" stroke-width="1" font-size="16" >O</text>
<text x="185.097421" y="194.936614" fill="rgb(255,12,12)"  stroke="rgb(255,12,12)" stroke-width="1" font-size="16" >O</text>
<text x="63.636706" y="146.448769" fill="rgb(191,191,191)"  stroke="rgb(191,191,191)" stroke-width="1" font-size="16" >H</text>
<text x="223.615939" y="156.418095" fill="rgb(191,191,191)"  stroke="rgb(191,191,191)" stroke-width="1" font-size="16" >H</text>
<text x="43.744353" y="194.936614" fill="rgb(191,191,191)"  stroke="rgb(191,191,191)" stroke-width="1" font-size="16" >H</text>
<text x="170.998665" y="107.320821" fill="rgb(191,191,191)"  stroke="rgb(191,191,191)" stroke-width="1" font-size="16" >H</text>
<text x="90.222595" y="179.866684" fill="rgb(191,191,191)"  stroke="rgb(191,191,191)" stroke-width="1" font-size="16" >H</text>
<text x="134.880146" y="247.553889" fill="rgb(191,191,191)"  stroke="rgb(191,191,191)" stroke-width="1" font-size="16" >H</text>
<text font-size="18.000000" fill ="black" font-family="sans-serif"
x="140.000000" y="20.000000" ></text>
<title> - OBDepict</title>
</svg>
