<?xml version="1.0"?>
<svg xmlns="http://www.w3.org/2000/svg"
xmlns:xlink="http://www.w3.org/1999/xlink" xmlns:cml="http://www.xml-cml.org/schema" width="298.564" height="287.846" x="0" y="0" font-family="sans-serif" stroke="rgb(0,0,0)" stroke-width="1" >
<line x1="169.6" y1="198.6" x2="140.0" y2="198.6"/>
<line x1="129.0" y1="228.0" x2="154.6" y2="213.2"/>
<line x1="45.2" y1="154.9" x2="60.0" y2="129.3"/>
<line x1="204.2" y1="247.8" x2="185.0" y2="247.8"/>
<line x1="140.0" y1="198.6" x2="120.0" y2="163.9"/>
<line x1="174.6" y1="178.6" x2="154.6" y2="213.2"/>
<line x1="174.6" y1="178.6" x2="154.6" y2="143.9"/>
<line x1="132.3" y1="200.8" x2="132.7" y2="200.1"/>
<line x1="135.5" y1="203.1" x2="136.3" y2="201.7"/>
<line x1="138.8" y1="205.4" x2="140.0" y2="203.4"/>
<line x1="142.1" y1="207.8" x2="143.7" y2="205.0"/>
<line x1="145.3" y1="210.1" x2="147.3" y2="206.7"/>
<line x1="148.6" y1="212.5" x2="151.0" y2="208.3"/>
<line x1="151.9" y1="214.8" x2="154.7" y2="210.0"/>
<line x1="154.6" y1="213.2" x2="169.4" y2="238.8"/>
<line x1="57.4" y1="130.8" x2="42.6" y2="105.1"/>
<line x1="62.6" y1="127.8" x2="47.8" y2="102.1"/>
<line x1="60.0" y1="129.3" x2="89.6" y2="129.3"/>
<line x1="189.3" y1="123.9" x2="154.6" y2="143.9"/>
<line x1="134.6" y1="109.3" x2="154.6" y2="143.9"/>
<polygon points="96.790519 177.323048 122.000000 167.387150 118.000000 160.458947 " />
<line x1="120.0" y1="163.9" x2="154.6" y2="143.9"/>
<line x1="120.0" y1="163.9" x2="105.2" y2="138.3"/>
<line x1="258.6" y1="123.9" x2="258.6" y2="83.9"/>
<line x1="251.4" y1="117.9" x2="251.4" y2="89.9"/>
<line x1="258.6" y1="83.9" x2="223.9" y2="63.9"/>
<line x1="223.9" y1="63.9" x2="189.3" y2="83.9"/>
<line x1="222.3" y1="73.2" x2="198.1" y2="87.2"/>
<line x1="189.3" y1="83.9" x2="189.3" y2="123.9"/>
<line x1="189.3" y1="123.9" x2="223.9" y2="143.9"/>
<line x1="198.1" y1="120.7" x2="222.3" y2="134.7"/>
<line x1="223.9" y1="143.9" x2="258.6" y2="123.9"/>
<line x1="134.6" y1="40.0" x2="94.6" y2="40.0"/>
<line x1="128.6" y1="47.2" x2="100.6" y2="47.2"/>
<line x1="94.6" y1="40.0" x2="74.6" y2="74.6"/>
<line x1="74.6" y1="74.6" x2="94.6" y2="109.3"/>
<line x1="83.9" y1="76.2" x2="97.9" y2="100.5"/>
<line x1="94.6" y1="109.3" x2="134.6" y2="109.3"/>
<line x1="134.6" y1="109.3" x2="154.6" y2="74.6"/>
<line x1="131.4" y1="100.5" x2="145.4" y2="76.2"/>
<line x1="154.6" y1="74.6" x2="134.6" y2="40.0"/>
<text x="174.000000" y="206.884065" fill="rgb(102,102,102)"  stroke="rgb(102,102,102)" stroke-width="1" font-size="16" >CH</text>
<text x="198.000000" y="214.564065" fill="rgb(102,102,102)"  stroke="rgb(102,102,102)" stroke-width="1" font-size="13" >3</text>
<text x="96.400000" y="238.005081" fill="rgb(102,102,102)"  stroke="rgb(102,102,102)" stroke-width="1" font-size="16" >H</text>
<text x="108.400000" y="242.805081" fill="rgb(102,102,102)"  stroke="rgb(102,102,102)" stroke-width="1" font-size="13" >3</text>
<text x="114.900000" y="238.005081" fill="rgb(102,102,102)"  stroke="rgb(102,102,102)" stroke-width="1" font-size="16" >C</text>
<text x="16.400000" y="168.723048" fill="rgb(102,102,102)"  stroke="rgb(102,102,102)" stroke-width="1" font-size="16" >H</text>
<text x="28.400000" y="173.523048" fill="rgb(102,102,102)"  stroke="rgb(102,102,102)" stroke-width="1" font-size="13" >3</text>
<text x="34.900000" y="168.723048" fill="rgb(102,102,102)"  stroke="rgb(102,102,102)" stroke-width="1" font-size="16" >C</text>
<text x="208.641016" y="252.646097" fill="rgb(102,102,102)"  stroke="rgb(102,102,102)" stroke-width="1" font-size="16" >CH</text>
<text x="232.641016" y="257.446097" fill="rgb(102,102,102)"  stroke="rgb(102,102,102)" stroke-width="1" font-size="13" >3</text>
<text x="159.041016" y="252.646097" fill="rgb(12,12,255)"  stroke="rgb(12,12,255)" stroke-width="1" font-size="16" >HN</text>
<text x="36.400000" y="102.961016" fill="rgb(255,12,12)"  stroke="rgb(255,12,12)" stroke-width="1" font-size="16" >O</text>
<text x="94.000000" y="137.602032" fill="rgb(255,12,12)"  stroke="rgb(255,12,12)" stroke-width="1" font-size="16" >O</text>
<text x="116.400000" y="201.525081" fill="rgb(191,191,191)"  stroke="rgb(191,191,191)" stroke-width="1" font-size="16" >H</text>
<text x="81.758984" y="188.723048" fill="rgb(191,191,191)"  stroke="rgb(191,191,191)" stroke-width="1" font-size="16" >H</text>
<text font-size="18.000000" fill ="black" font-family="sans-serif"
x="140.000000" y="20.000000" ></text>
<title> - OBDepict</title>
</svg>
