<?xml version="1.0"?>
<svg xmlns="http://www.w3.org/2000/svg"
xmlns:xlink="http://www.w3.org/1999/xlink" xmlns:cml="http://www.xml-cml.org/schema" width="422.826" height="247.44" x="0" y="0" font-family="sans-serif" stroke="rgb(0,0,0)" stroke-width="1" >
<line x1="114.6" y1="168.6" x2="149.3" y2="148.6"/>
<line x1="114.6" y1="168.6" x2="89.0" y2="153.8"/>
<line x1="177.7" y1="91.1" x2="178.5" y2="91.3"/>
<line x1="176.5" y1="95.0" x2="178.1" y2="95.3"/>
<line x1="175.3" y1="98.8" x2="177.6" y2="99.3"/>
<line x1="174.1" y1="102.6" x2="177.2" y2="103.3"/>
<line x1="172.8" y1="106.5" x2="176.7" y2="107.3"/>
<line x1="171.6" y1="110.3" x2="176.3" y2="111.3"/>
<line x1="170.4" y1="114.1" x2="175.9" y2="115.3"/>
<line x1="172.8" y1="116.3" x2="150.8" y2="96.5"/>
<polygon points="126.072551 135.217816 147.282032 152.081918 151.282032 145.153715 " />
<polygon points="221.736245 193.100834 214.489885 166.990870 207.181521 170.244763 " />
<line x1="210.8" y1="168.6" x2="240.3" y2="171.7"/>
<line x1="346.3" y1="135.8" x2="373.3" y2="147.9"/>
<line x1="302.6" y1="80.1" x2="299.5" y2="50.7"/>
<line x1="308.5" y1="79.5" x2="305.5" y2="50.0"/>
<line x1="109.6" y1="108.6" x2="90.4" y2="108.6"/>
<line x1="80.0" y1="79.0" x2="80.0" y2="98.2"/>
<line x1="50.4" y1="105.6" x2="69.6" y2="105.6"/>
<line x1="50.4" y1="111.6" x2="69.6" y2="111.6"/>
<line x1="80.0" y1="138.2" x2="80.0" y2="119.0"/>
<line x1="210.8" y1="128.6" x2="172.8" y2="116.3"/>
<line x1="172.8" y1="116.3" x2="149.3" y2="148.6"/>
<line x1="149.3" y1="148.6" x2="166.7" y2="172.6"/>
<line x1="182.7" y1="177.8" x2="210.8" y2="168.6"/>
<line x1="210.8" y1="168.6" x2="210.8" y2="128.6"/>
<line x1="270.6" y1="207.4" x2="255.8" y2="181.8"/>
<line x1="257.6" y1="165.1" x2="277.4" y2="143.1"/>
<line x1="277.4" y1="143.1" x2="313.9" y2="159.3"/>
<line x1="279.9" y1="152.1" x2="305.5" y2="163.5"/>
<line x1="313.9" y1="159.3" x2="310.8" y2="188.8"/>
<line x1="299.6" y1="201.3" x2="270.6" y2="207.4"/>
<line x1="296.1" y1="194.7" x2="275.0" y2="199.1"/>
<line x1="346.3" y1="135.8" x2="313.9" y2="159.3"/>
<line x1="277.4" y1="143.1" x2="274.3" y2="113.6"/>
<line x1="281.6" y1="97.2" x2="305.6" y2="79.8"/>
<line x1="305.6" y1="79.8" x2="332.6" y2="91.8"/>
<line x1="343.2" y1="106.4" x2="346.3" y2="135.8"/>
<line x1="336.2" y1="109.1" x2="338.5" y2="130.6"/>
<text x="285.780206" y="48.320000" fill="rgb(12,12,255)"  stroke="rgb(12,12,255)" stroke-width="1" font-size="16" >HN</text>
<text x="303.742483" y="203.923503" fill="rgb(12,12,255)"  stroke="rgb(12,12,255)" stroke-width="1" font-size="16" >N</text>
<text x="257.600665" y="111.612286" fill="rgb(12,12,255)"  stroke="rgb(12,12,255)" stroke-width="1" font-size="16" >HN</text>
<text x="336.103163" y="104.370342" fill="rgb(12,12,255)"  stroke="rgb(12,12,255)" stroke-width="1" font-size="16" >N</text>
<text x="247.016579" y="181.118955" fill="rgb(12,12,255)"  stroke="rgb(12,12,255)" stroke-width="1" font-size="16" >N</text>
<text x="127.467649" y="97.811912" fill="rgb(255,12,12)"  stroke="rgb(255,12,12)" stroke-width="1" font-size="16" >HO</text>
<text x="378.026120" y="171.300683" fill="rgb(255,12,12)"  stroke="rgb(255,12,12)" stroke-width="1" font-size="32" >-</text>
<text x="376.826120" y="156.900683" fill="rgb(255,12,12)"  stroke="rgb(255,12,12)" stroke-width="1" font-size="16" >O</text>
<text x="115.200000" y="127.817816" fill="rgb(255,12,12)"  stroke="rgb(255,12,12)" stroke-width="1" font-size="32" >-</text>
<text x="114.000000" y="113.417816" fill="rgb(255,12,12)"  stroke="rgb(255,12,12)" stroke-width="1" font-size="16" >O</text>
<text x="74.000000" y="76.937816" fill="rgb(255,12,12)"  stroke="rgb(255,12,12)" stroke-width="1" font-size="16" >OH</text>
<text x="36.400000" y="113.417816" fill="rgb(255,12,12)"  stroke="rgb(255,12,12)" stroke-width="1" font-size="16" >O</text>
<text x="76.400000" y="153.417816" fill="rgb(255,12,12)"  stroke="rgb(255,12,12)" stroke-width="1" font-size="16" >O</text>
<text x="169.193442" y="185.778496" fill="rgb(255,12,12)"  stroke="rgb(255,12,12)" stroke-width="1" font-size="16" >O</text>
<text x="74.000000" y="113.417816" fill="rgb(255,127,0)"  stroke="rgb(255,127,0)" stroke-width="1" font-size="16" >P</text>
<text x="175.109910" y="85.451232" fill="rgb(191,191,191)"  stroke="rgb(191,191,191)" stroke-width="1" font-size="16" >H</text>
<text x="111.041016" y="136.937816" fill="rgb(191,191,191)"  stroke="rgb(191,191,191)" stroke-width="1" font-size="16" >H</text>
<text x="221.105169" y="209.959635" fill="rgb(191,191,191)"  stroke="rgb(191,191,191)" stroke-width="1" font-size="16" >H</text>
<text font-size="18.000000" fill ="black" font-family="sans-serif"
x="140.000000" y="20.000000" ></text>
<title> - OBDepict</title>
</svg>
