<?xml version="1.0"?>
<svg xmlns="http://www.w3.org/2000/svg"
xmlns:xlink="http://www.w3.org/1999/xlink" xmlns:cml="http://www.xml-cml.org/schema" width="320" height="229.282" x="0" y="0" font-family="sans-serif" stroke="rgb(0,0,0)" stroke-width="1" >
<line x1="140.0" y1="114.6" x2="180.0" y2="114.6"/>
<line x1="140.0" y1="114.6" x2="125.2" y2="140.3"/>
<line x1="180.0" y1="114.6" x2="200.0" y2="149.3"/>
<line x1="180.0" y1="114.6" x2="194.8" y2="89.0"/>
<line x1="202.6" y1="150.8" x2="187.8" y2="176.4"/>
<line x1="197.4" y1="147.8" x2="182.6" y2="173.4"/>
<line x1="200.0" y1="149.3" x2="229.6" y2="149.3"/>
<line x1="80.0" y1="119.7" x2="80.0" y2="138.9"/>
<line x1="50.4" y1="149.3" x2="69.6" y2="149.3"/>
<line x1="77.0" y1="178.9" x2="77.0" y2="159.7"/>
<line x1="83.0" y1="178.9" x2="83.0" y2="159.7"/>
<line x1="240.0" y1="109.6" x2="240.0" y2="90.4"/>
<line x1="269.6" y1="80.0" x2="250.4" y2="80.0"/>
<line x1="243.0" y1="50.4" x2="243.0" y2="69.6"/>
<line x1="237.0" y1="50.4" x2="237.0" y2="69.6"/>
<line x1="109.6" y1="149.3" x2="90.4" y2="149.3"/>
<line x1="210.4" y1="80.0" x2="229.6" y2="80.0"/>
<text x="176.400000" y="188.723048" fill="rgb(255,12,12)"  stroke="rgb(255,12,12)" stroke-width="1" font-size="16" >O</text>
<text x="235.200000" y="142.882032" fill="rgb(255,12,12)"  stroke="rgb(255,12,12)" stroke-width="1" font-size="32" >-</text>
<text x="234.000000" y="157.602032" fill="rgb(255,12,12)"  stroke="rgb(255,12,12)" stroke-width="1" font-size="16" >O</text>
<text x="75.200000" y="102.882032" fill="rgb(255,12,12)"  stroke="rgb(255,12,12)" stroke-width="1" font-size="32" >-</text>
<text x="74.000000" y="117.602032" fill="rgb(255,12,12)"  stroke="rgb(255,12,12)" stroke-width="1" font-size="16" >O</text>
<text x="35.200000" y="168.482032" fill="rgb(255,12,12)"  stroke="rgb(255,12,12)" stroke-width="1" font-size="32" >-</text>
<text x="36.400000" y="154.082032" fill="rgb(255,12,12)"  stroke="rgb(255,12,12)" stroke-width="1" font-size="16" >O</text>
<text x="74.000000" y="194.082032" fill="rgb(255,12,12)"  stroke="rgb(255,12,12)" stroke-width="1" font-size="16" >O</text>
<text x="235.200000" y="139.200000" fill="rgb(255,12,12)"  stroke="rgb(255,12,12)" stroke-width="1" font-size="32" >-</text>
<text x="234.000000" y="124.800000" fill="rgb(255,12,12)"  stroke="rgb(255,12,12)" stroke-width="1" font-size="16" >O</text>
<text x="275.200000" y="73.600000" fill="rgb(255,12,12)"  stroke="rgb(255,12,12)" stroke-width="1" font-size="32" >-</text>
<text x="274.000000" y="88.320000" fill="rgb(255,12,12)"  stroke="rgb(255,12,12)" stroke-width="1" font-size="16" >O</text>
<text x="234.000000" y="48.320000" fill="rgb(255,12,12)"  stroke="rgb(255,12,12)" stroke-width="1" font-size="16" >O</text>
<text x="114.000000" y="154.082032" fill="rgb(255,12,12)"  stroke="rgb(255,12,12)" stroke-width="1" font-size="16" >O</text>
<text x="196.400000" y="88.320000" fill="rgb(255,12,12)"  stroke="rgb(255,12,12)" stroke-width="1" font-size="16" >O</text>
<text x="74.000000" y="154.082032" fill="rgb(255,127,0)"  stroke="rgb(255,127,0)" stroke-width="1" font-size="16" >P</text>
<text x="234.000000" y="88.320000" fill="rgb(255,127,0)"  stroke="rgb(255,127,0)" stroke-width="1" font-size="16" >P</text>
<text font-size="18.000000" fill ="black" font-family="sans-serif"
x="140.000000" y="20.000000" ></text>
<title> - OBDepict</title>
</svg>
