<?xml version="1.0"?>
<svg xmlns="http://www.w3.org/2000/svg"
xmlns:xlink="http://www.w3.org/1999/xlink" xmlns:cml="http://www.xml-cml.org/schema" width="275.943" height="294.434" x="0" y="0" font-family="sans-serif" stroke="rgb(0,0,0)" stroke-width="1" >
<line x1="226.9" y1="94.5" x2="201.3" y2="109.3"/>
<line x1="146.8" y1="245.4" x2="132.0" y2="219.8"/>
<line x1="214.4" y1="131.3" x2="213.8" y2="131.7"/>
<line x1="212.8" y1="127.6" x2="211.4" y2="128.4"/>
<line x1="211.1" y1="123.9" x2="209.1" y2="125.1"/>
<line x1="209.5" y1="120.3" x2="206.7" y2="121.9"/>
<line x1="207.8" y1="116.6" x2="204.4" y2="118.6"/>
<line x1="206.2" y1="112.9" x2="202.0" y2="115.3"/>
<line x1="204.5" y1="109.3" x2="199.7" y2="112.1"/>
<line x1="201.3" y1="109.3" x2="181.3" y2="74.6"/>
<line x1="201.3" y1="109.3" x2="175.7" y2="124.1"/>
<line x1="129.4" y1="218.3" x2="144.2" y2="192.7"/>
<line x1="134.6" y1="221.3" x2="149.4" y2="195.7"/>
<line x1="132.0" y1="219.8" x2="102.4" y2="219.8"/>
<polygon points="53.677400 83.396668 56.750047 110.318756 64.477454 108.248204 " />
<line x1="154.4" y1="163.0" x2="154.0" y2="163.7"/>
<line x1="151.1" y1="160.6" x2="150.3" y2="162.0"/>
<line x1="147.9" y1="158.3" x2="146.7" y2="160.4"/>
<line x1="144.6" y1="155.9" x2="143.0" y2="158.7"/>
<line x1="141.3" y1="153.6" x2="139.3" y2="157.0"/>
<line x1="138.1" y1="151.2" x2="135.7" y2="155.4"/>
<line x1="134.8" y1="148.9" x2="132.0" y2="153.7"/>
<line x1="132.0" y1="150.5" x2="146.8" y2="176.1"/>
<line x1="83.2" y1="66.7" x2="83.9" y2="66.3"/>
<line x1="84.8" y1="70.4" x2="86.2" y2="69.6"/>
<line x1="86.5" y1="74.0" x2="88.6" y2="72.8"/>
<line x1="88.1" y1="77.7" x2="90.9" y2="76.1"/>
<line x1="89.8" y1="81.4" x2="93.2" y2="79.4"/>
<line x1="91.4" y1="85.0" x2="95.6" y2="82.6"/>
<line x1="93.1" y1="88.7" x2="97.9" y2="85.9"/>
<line x1="96.3" y1="88.7" x2="111.1" y2="63.0"/>
<polygon points="155.229354 95.882995 130.020081 105.819420 134.020225 112.747540 " />
<line x1="132.0" y1="109.3" x2="157.7" y2="124.1"/>
<line x1="178.7" y1="73.1" x2="193.5" y2="47.5"/>
<line x1="183.9" y1="76.1" x2="198.7" y2="50.5"/>
<line x1="181.3" y1="74.6" x2="151.7" y2="74.6"/>
<line x1="96.3" y1="171.1" x2="117.3" y2="192.1"/>
<line x1="60.6" y1="109.3" x2="40.0" y2="145.0"/>
<line x1="40.0" y1="145.0" x2="51.2" y2="164.3"/>
<line x1="65.8" y1="171.1" x2="96.3" y2="171.1"/>
<line x1="96.3" y1="171.1" x2="69.9" y2="155.9"/>
<line x1="60.6" y1="139.8" x2="60.6" y2="109.3"/>
<line x1="132.0" y1="150.5" x2="132.0" y2="109.3"/>
<line x1="132.0" y1="109.3" x2="96.3" y2="88.7"/>
<line x1="96.3" y1="88.7" x2="60.6" y2="109.3"/>
<line x1="96.3" y1="171.1" x2="132.0" y2="150.5"/>
<text x="229.942783" y="97.601308" fill="rgb(102,102,102)"  stroke="rgb(102,102,102)" stroke-width="1" font-size="16" >CH</text>
<text x="253.942783" y="105.281308" fill="rgb(102,102,102)"  stroke="rgb(102,102,102)" stroke-width="1" font-size="13" >3</text>
<text x="146.024048" y="259.233611" fill="rgb(102,102,102)"  stroke="rgb(102,102,102)" stroke-width="1" font-size="16" >CH</text>
<text x="170.024048" y="264.033611" fill="rgb(102,102,102)"  stroke="rgb(102,102,102)" stroke-width="1" font-size="13" >3</text>
<text x="146.022600" y="193.471579" fill="rgb(12,12,255)"  stroke="rgb(12,12,255)" stroke-width="1" font-size="16" >N</text>
<text x="87.223324" y="238.993849" fill="rgb(255,12,12)"  stroke="rgb(255,12,12)" stroke-width="1" font-size="32" >-</text>
<text x="88.423324" y="224.593849" fill="rgb(255,12,12)"  stroke="rgb(255,12,12)" stroke-width="1" font-size="16" >O</text>
<text x="110.314642" y="62.347878" fill="rgb(255,12,12)"  stroke="rgb(255,12,12)" stroke-width="1" font-size="16" >OH</text>
<text x="195.300737" y="48.320000" fill="rgb(255,12,12)"  stroke="rgb(255,12,12)" stroke-width="1" font-size="16" >O</text>
<text x="125.701461" y="79.442270" fill="rgb(255,12,12)"  stroke="rgb(255,12,12)" stroke-width="1" font-size="16" >HO</text>
<text x="51.492036" y="175.926454" fill="rgb(255,12,12)"  stroke="rgb(255,12,12)" stroke-width="1" font-size="16" >O</text>
<text x="160.661587" y="134.082756" fill="rgb(255,12,12)"  stroke="rgb(255,12,12)" stroke-width="1" font-size="16" >O</text>
<text x="57.015474" y="155.310981" fill="rgb(255,12,12)"  stroke="rgb(255,12,12)" stroke-width="1" font-size="16" >O</text>
<text x="215.302909" y="148.722630" fill="rgb(191,191,191)"  stroke="rgb(191,191,191)" stroke-width="1" font-size="16" >H</text>
<text x="46.660989" y="78.966447" fill="rgb(191,191,191)"  stroke="rgb(191,191,191)" stroke-width="1" font-size="16" >H</text>
<text x="160.662892" y="175.310981" fill="rgb(191,191,191)"  stroke="rgb(191,191,191)" stroke-width="1" font-size="16" >H</text>
<text x="72.714642" y="62.349550" fill="rgb(191,191,191)"  stroke="rgb(191,191,191)" stroke-width="1" font-size="16" >H</text>
<text x="160.660751" y="97.602756" fill="rgb(191,191,191)"  stroke="rgb(191,191,191)" stroke-width="1" font-size="16" >H</text>
<text x="118.604990" y="204.207820" fill="rgb(191,191,191)"  stroke="rgb(191,191,191)" stroke-width="1" font-size="16" >H</text>
<text font-size="18.000000" fill ="black" font-family="sans-serif"
x="140.000000" y="20.000000" ></text>
<title> - OBDepict</title>
</svg>
