<?xml version="1.0"?>
<svg xmlns="http://www.w3.org/2000/svg"
xmlns:xlink="http://www.w3.org/1999/xlink" xmlns:cml="http://www.xml-cml.org/schema" width="374.21" height="285.444" x="0" y="0" font-family="sans-serif" stroke="rgb(0,0,0)" stroke-width="1" >
<line x1="299.6" y1="225.4" x2="325.2" y2="240.2"/>
<polygon points="206.546815 100.961298 191.992091 123.817370 199.300455 127.071263 " />
<polygon points="206.546815 189.927335 199.300455 163.817370 191.992091 167.071263 " />
<line x1="40.0" y1="52.4" x2="40.0" y2="82.0"/>
<line x1="49.9" y1="95.6" x2="78.0" y2="104.7"/>
<line x1="78.0" y1="104.7" x2="101.6" y2="72.4"/>
<line x1="75.7" y1="95.6" x2="92.2" y2="73.0"/>
<line x1="101.6" y1="72.4" x2="84.2" y2="48.4"/>
<line x1="68.2" y1="43.2" x2="40.0" y2="52.4"/>
<line x1="157.6" y1="113.1" x2="134.1" y2="145.4"/>
<line x1="134.1" y1="145.4" x2="151.5" y2="169.4"/>
<line x1="167.5" y1="174.6" x2="195.6" y2="165.4"/>
<line x1="195.6" y1="165.4" x2="195.6" y2="125.4"/>
<line x1="195.6" y1="125.4" x2="157.6" y2="113.1"/>
<line x1="264.9" y1="245.4" x2="299.6" y2="225.4"/>
<line x1="299.6" y1="225.4" x2="299.6" y2="185.4"/>
<line x1="292.4" y1="219.4" x2="292.4" y2="191.4"/>
<line x1="299.6" y1="185.4" x2="264.9" y2="165.4"/>
<line x1="264.9" y1="165.4" x2="230.3" y2="185.4"/>
<line x1="263.3" y1="174.7" x2="239.1" y2="188.7"/>
<line x1="230.3" y1="185.4" x2="230.3" y2="225.4"/>
<line x1="230.3" y1="225.4" x2="264.9" y2="245.4"/>
<line x1="239.1" y1="222.2" x2="263.3" y2="236.2"/>
<line x1="230.3" y1="105.4" x2="195.6" y2="125.4"/>
<line x1="195.6" y1="165.4" x2="230.3" y2="185.4"/>
<line x1="264.9" y1="165.4" x2="264.9" y2="135.8"/>
<line x1="255.9" y1="120.2" x2="230.3" y2="105.4"/>
<line x1="141.3" y1="76.5" x2="157.6" y2="113.1"/>
<line x1="137.2" y1="85.0" x2="148.6" y2="110.5"/>
<line x1="134.1" y1="145.4" x2="94.3" y2="141.3"/>
<line x1="128.9" y1="137.7" x2="101.0" y2="134.7"/>
<line x1="94.3" y1="141.3" x2="78.0" y2="104.7"/>
<line x1="101.6" y1="72.4" x2="141.3" y2="76.5"/>
<text x="328.210338" y="250.244316" fill="rgb(255,12,12)"  stroke="rgb(255,12,12)" stroke-width="1" font-size="16" >OH</text>
<text x="258.928305" y="133.764316" fill="rgb(255,12,12)"  stroke="rgb(255,12,12)" stroke-width="1" font-size="16" >O</text>
<text x="72.042261" y="48.320000" fill="rgb(255,12,12)"  stroke="rgb(255,12,12)" stroke-width="1" font-size="16" >O</text>
<text x="36.400000" y="97.160680" fill="rgb(255,12,12)"  stroke="rgb(255,12,12)" stroke-width="1" font-size="16" >O</text>
<text x="154.004012" y="182.604996" fill="rgb(255,12,12)"  stroke="rgb(255,12,12)" stroke-width="1" font-size="16" >O</text>
<text x="205.915739" y="97.222498" fill="rgb(191,191,191)"  stroke="rgb(191,191,191)" stroke-width="1" font-size="16" >H</text>
<text x="205.915739" y="206.786135" fill="rgb(191,191,191)"  stroke="rgb(191,191,191)" stroke-width="1" font-size="16" >H</text>
<text font-size="18.000000" fill ="black" font-family="sans-serif"
x="140.000000" y="20.000000" ></text>
<title> - OBDepict</title>
</svg>
