<?xml version="1.0"?>
<svg xmlns="http://www.w3.org/2000/svg"
xmlns:xlink="http://www.w3.org/1999/xlink" xmlns:cml="http://www.xml-cml.org/schema" width="544.083" height="394.558" x="0" y="0" font-family="sans-serif" stroke="rgb(0,0,0)" stroke-width="1" >
<line x1="125.8" y1="347.6" x2="105.9" y2="327.6"/>
<line x1="79.9" y1="338.4" x2="105.9" y2="327.6"/>
<line x1="317.8" y1="112.9" x2="303.7" y2="137.3"/>
<line x1="289.6" y1="112.9" x2="303.7" y2="137.3"/>
<polygon points="270.753866 194.416174 266.753866 245.422626 274.753866 245.422626 " />
<line x1="172.3" y1="205.8" x2="171.5" y2="205.8"/>
<line x1="172.7" y1="198.2" x2="171.1" y2="198.2"/>
<line x1="173.1" y1="190.6" x2="170.7" y2="190.6"/>
<line x1="173.5" y1="183.0" x2="170.3" y2="183.0"/>
<line x1="173.9" y1="175.4" x2="169.9" y2="175.4"/>
<line x1="174.3" y1="167.8" x2="169.5" y2="167.8"/>
<line x1="174.7" y1="160.2" x2="169.1" y2="160.2"/>
<polygon points="204.824190 194.416174 184.737748 178.200460 180.737748 185.128663 " />
<polygon points="160.980955 283.296819 140.894514 267.081105 136.894514 274.009308 " />
<line x1="270.4" y1="132.0" x2="271.2" y2="132.0"/>
<line x1="270.0" y1="135.8" x2="271.6" y2="135.8"/>
<line x1="269.6" y1="139.6" x2="272.0" y2="139.6"/>
<line x1="269.2" y1="143.4" x2="272.4" y2="143.4"/>
<line x1="268.8" y1="147.2" x2="272.8" y2="147.2"/>
<line x1="268.4" y1="151.0" x2="273.2" y2="151.0"/>
<line x1="268.0" y1="154.8" x2="273.6" y2="154.8"/>
<line x1="259.1" y1="225.3" x2="258.7" y2="226.0"/>
<line x1="256.0" y1="223.0" x2="255.2" y2="224.4"/>
<line x1="252.9" y1="220.8" x2="251.7" y2="222.9"/>
<line x1="249.8" y1="218.5" x2="248.2" y2="221.3"/>
<line x1="246.7" y1="216.3" x2="244.7" y2="219.7"/>
<line x1="243.6" y1="214.0" x2="241.2" y2="218.2"/>
<line x1="240.5" y1="211.8" x2="237.7" y2="216.6"/>
<line x1="348.5" y1="135.1" x2="349.2" y2="135.5"/>
<line x1="346.3" y1="138.2" x2="347.7" y2="139.0"/>
<line x1="344.0" y1="141.2" x2="346.1" y2="142.4"/>
<line x1="341.8" y1="144.3" x2="344.5" y2="145.9"/>
<line x1="339.5" y1="147.4" x2="343.0" y2="149.4"/>
<line x1="337.3" y1="150.5" x2="341.4" y2="152.9"/>
<line x1="335.0" y1="153.6" x2="339.9" y2="156.4"/>
<line x1="336.7" y1="156.4" x2="364.9" y2="156.4"/>
<line x1="433.7" y1="53.3" x2="434.5" y2="53.1"/>
<line x1="434.3" y1="57.1" x2="435.9" y2="56.7"/>
<line x1="434.9" y1="60.9" x2="437.2" y2="60.3"/>
<line x1="435.5" y1="64.7" x2="438.6" y2="63.9"/>
<line x1="436.1" y1="68.5" x2="440.0" y2="67.4"/>
<line x1="436.7" y1="72.2" x2="441.3" y2="71.0"/>
<line x1="437.3" y1="76.0" x2="442.7" y2="74.6"/>
<line x1="440.4" y1="76.8" x2="460.3" y2="56.8"/>
<polygon points="485.348818 85.649673 464.486887 100.854750 470.143741 106.511604 " />
<line x1="467.3" y1="103.7" x2="494.5" y2="111.0"/>
<polygon points="354.363689 73.417880 402.596861 90.483024 404.667414 82.755618 " />
<line x1="403.6" y1="86.6" x2="396.3" y2="59.4"/>
<line x1="481.1" y1="146.4" x2="480.9" y2="147.1"/>
<line x1="477.5" y1="145.0" x2="477.1" y2="146.5"/>
<line x1="474.0" y1="143.6" x2="473.3" y2="145.9"/>
<line x1="470.4" y1="142.3" x2="469.6" y2="145.3"/>
<line x1="466.8" y1="140.9" x2="465.8" y2="144.7"/>
<line x1="463.2" y1="139.5" x2="462.0" y2="144.1"/>
<line x1="459.7" y1="138.1" x2="458.2" y2="143.5"/>
<line x1="457.5" y1="140.5" x2="467.3" y2="177.2"/>
<line x1="469.4" y1="179.3" x2="449.5" y2="199.3"/>
<line x1="465.2" y1="175.1" x2="445.3" y2="195.0"/>
<line x1="467.3" y1="177.2" x2="494.5" y2="184.5"/>
<line x1="393.8" y1="123.4" x2="376.6" y2="101.0"/>
<line x1="393.8" y1="123.4" x2="379.7" y2="147.8"/>
<polygon points="105.929676 251.512948 74.964838 229.016589 70.964838 235.944792 " />
<line x1="70.0" y1="232.5" x2="70.0" y2="204.3"/>
<line x1="76.0" y1="232.5" x2="76.0" y2="204.3"/>
<line x1="73.0" y1="232.5" x2="48.6" y2="246.6"/>
<line x1="204.8" y1="156.4" x2="237.8" y2="137.3"/>
<line x1="237.8" y1="137.3" x2="270.8" y2="156.4"/>
<line x1="270.8" y1="156.4" x2="270.8" y2="194.4"/>
<line x1="270.8" y1="194.4" x2="237.8" y2="213.4"/>
<line x1="237.8" y1="213.4" x2="204.8" y2="194.4"/>
<line x1="204.8" y1="194.4" x2="204.8" y2="156.4"/>
<line x1="171.9" y1="251.5" x2="171.9" y2="213.4"/>
<line x1="171.9" y1="213.4" x2="204.8" y2="194.4"/>
<line x1="237.8" y1="213.4" x2="237.8" y2="251.5"/>
<line x1="237.8" y1="251.5" x2="204.8" y2="270.5"/>
<line x1="204.8" y1="270.5" x2="171.9" y2="251.5"/>
<line x1="203.2" y1="261.3" x2="180.7" y2="248.3"/>
<line x1="336.7" y1="156.4" x2="336.7" y2="194.4"/>
<line x1="336.7" y1="194.4" x2="303.7" y2="213.4"/>
<line x1="303.7" y1="213.4" x2="270.8" y2="194.4"/>
<line x1="270.8" y1="156.4" x2="303.7" y2="137.3"/>
<line x1="303.7" y1="137.3" x2="336.7" y2="156.4"/>
<line x1="105.9" y1="213.4" x2="138.9" y2="194.4"/>
<line x1="138.9" y1="194.4" x2="171.9" y2="213.4"/>
<line x1="171.9" y1="251.5" x2="138.9" y2="270.5"/>
<line x1="138.9" y1="270.5" x2="105.9" y2="251.5"/>
<line x1="105.9" y1="251.5" x2="105.9" y2="213.4"/>
<line x1="105.9" y1="327.6" x2="73.0" y2="308.6"/>
<line x1="73.0" y1="308.6" x2="73.0" y2="270.5"/>
<line x1="73.0" y1="270.5" x2="105.9" y2="251.5"/>
<line x1="138.9" y1="270.5" x2="138.9" y2="308.6"/>
<line x1="138.9" y1="308.6" x2="105.9" y2="327.6"/>
<line x1="440.4" y1="76.8" x2="467.3" y2="103.7"/>
<line x1="467.3" y1="103.7" x2="457.5" y2="140.5"/>
<line x1="457.5" y1="140.5" x2="430.3" y2="147.7"/>
<line x1="413.7" y1="143.3" x2="393.8" y2="123.4"/>
<line x1="393.8" y1="123.4" x2="403.6" y2="86.6"/>
<line x1="403.6" y1="86.6" x2="440.4" y2="76.8"/>
<text x="126.845353" y="359.357658" fill="rgb(102,102,102)"  stroke="rgb(102,102,102)" stroke-width="1" font-size="16" >CH</text>
<text x="150.845353" y="364.157658" fill="rgb(102,102,102)"  stroke="rgb(102,102,102)" stroke-width="1" font-size="13" >3</text>
<text x="47.162649" y="347.008640" fill="rgb(102,102,102)"  stroke="rgb(102,102,102)" stroke-width="1" font-size="16" >H</text>
<text x="59.162649" y="351.808640" fill="rgb(102,102,102)"  stroke="rgb(102,102,102)" stroke-width="1" font-size="13" >3</text>
<text x="65.662649" y="347.008640" fill="rgb(102,102,102)"  stroke="rgb(102,102,102)" stroke-width="1" font-size="16" >C</text>
<text x="316.750962" y="112.674562" fill="rgb(102,102,102)"  stroke="rgb(102,102,102)" stroke-width="1" font-size="16" >CH</text>
<text x="340.750962" y="120.354562" fill="rgb(102,102,102)"  stroke="rgb(102,102,102)" stroke-width="1" font-size="13" >3</text>
<text x="261.086446" y="112.674562" fill="rgb(102,102,102)"  stroke="rgb(102,102,102)" stroke-width="1" font-size="16" >H</text>
<text x="273.086446" y="120.354562" fill="rgb(102,102,102)"  stroke="rgb(102,102,102)" stroke-width="1" font-size="13" >3</text>
<text x="279.586446" y="112.674562" fill="rgb(102,102,102)"  stroke="rgb(102,102,102)" stroke-width="1" font-size="16" >C</text>
<text x="264.753866" y="275.345206" fill="rgb(102,102,102)"  stroke="rgb(102,102,102)" stroke-width="1" font-size="16" >CH</text>
<text x="288.753866" y="280.145206" fill="rgb(102,102,102)"  stroke="rgb(102,102,102)" stroke-width="1" font-size="13" >3</text>
<text x="165.859352" y="145.639400" fill="rgb(102,102,102)"  stroke="rgb(102,102,102)" stroke-width="1" font-size="16" >CH</text>
<text x="189.859352" y="153.319400" fill="rgb(102,102,102)"  stroke="rgb(102,102,102)" stroke-width="1" font-size="13" >3</text>
<text x="148.259352" y="183.703916" fill="rgb(102,102,102)"  stroke="rgb(102,102,102)" stroke-width="1" font-size="16" >H</text>
<text x="160.259352" y="191.383916" fill="rgb(102,102,102)"  stroke="rgb(102,102,102)" stroke-width="1" font-size="13" >3</text>
<text x="166.759352" y="183.703916" fill="rgb(102,102,102)"  stroke="rgb(102,102,102)" stroke-width="1" font-size="16" >C</text>
<text x="461.315314" y="58.171822" fill="rgb(255,12,12)"  stroke="rgb(255,12,12)" stroke-width="1" font-size="16" >OH</text>
<text x="498.082813" y="118.334998" fill="rgb(255,12,12)"  stroke="rgb(255,12,12)" stroke-width="1" font-size="16" >OH</text>
<text x="378.180316" y="58.171822" fill="rgb(255,12,12)"  stroke="rgb(255,12,12)" stroke-width="1" font-size="16" >HO</text>
<text x="436.799637" y="208.933853" fill="rgb(255,12,12)"  stroke="rgb(255,12,12)" stroke-width="1" font-size="16" >O</text>
<text x="499.282813" y="206.269997" fill="rgb(255,12,12)"  stroke="rgb(255,12,12)" stroke-width="1" font-size="32" >-</text>
<text x="498.082813" y="191.869997" fill="rgb(255,12,12)"  stroke="rgb(255,12,12)" stroke-width="1" font-size="16" >O</text>
<text x="66.964838" y="202.736174" fill="rgb(255,12,12)"  stroke="rgb(255,12,12)" stroke-width="1" font-size="16" >O</text>
<text x="35.200000" y="270.712948" fill="rgb(255,12,12)"  stroke="rgb(255,12,12)" stroke-width="1" font-size="32" >-</text>
<text x="36.400000" y="256.312948" fill="rgb(255,12,12)"  stroke="rgb(255,12,12)" stroke-width="1" font-size="16" >O</text>
<text x="368.748058" y="161.151658" fill="rgb(255,12,12)"  stroke="rgb(255,12,12)" stroke-width="1" font-size="16" >O</text>
<text x="417.095993" y="155.102498" fill="rgb(255,12,12)"  stroke="rgb(255,12,12)" stroke-width="1" font-size="16" >O</text>
<text x="165.859352" y="294.377465" fill="rgb(191,191,191)"  stroke="rgb(191,191,191)" stroke-width="1" font-size="16" >H</text>
<text x="264.753866" y="126.607142" fill="rgb(191,191,191)"  stroke="rgb(191,191,191)" stroke-width="1" font-size="16" >H</text>
<text x="264.753866" y="237.280690" fill="rgb(191,191,191)"  stroke="rgb(191,191,191)" stroke-width="1" font-size="16" >H</text>
<text x="349.715800" y="131.706820" fill="rgb(191,191,191)"  stroke="rgb(191,191,191)" stroke-width="1" font-size="16" >H</text>
<text x="426.947815" y="48.320000" fill="rgb(191,191,191)"  stroke="rgb(191,191,191)" stroke-width="1" font-size="16" >H</text>
<text x="488.230992" y="85.087499" fill="rgb(191,191,191)"  stroke="rgb(191,191,191)" stroke-width="1" font-size="16" >H</text>
<text x="326.497139" y="75.235677" fill="rgb(191,191,191)"  stroke="rgb(191,191,191)" stroke-width="1" font-size="16" >H</text>
<text x="488.230992" y="155.102498" fill="rgb(191,191,191)"  stroke="rgb(191,191,191)" stroke-width="1" font-size="16" >H</text>
<text x="367.008107" y="101.508209" fill="rgb(191,191,191)"  stroke="rgb(191,191,191)" stroke-width="1" font-size="16" >H</text>
<text font-size="18.000000" fill ="black" font-family="sans-serif"
x="140.000000" y="20.000000" ></text>
<title> - OBDepict</title>
</svg>
