<?xml version="1.0"?>
<svg xmlns="http://www.w3.org/2000/svg"
xmlns:xlink="http://www.w3.org/1999/xlink" xmlns:cml="http://www.xml-cml.org/schema" width="980.666" height="360" x="0" y="0" font-family="sans-serif" stroke="rgb(0,0,0)" stroke-width="1" >
<line x1="931.7" y1="265.2" x2="906.0" y2="280.0"/>
<line x1="906.0" y1="309.6" x2="906.0" y2="280.0"/>
<line x1="49.0" y1="94.8" x2="74.6" y2="80.0"/>
<line x1="74.6" y1="50.4" x2="74.6" y2="80.0"/>
<line x1="559.6" y1="189.6" x2="559.6" y2="160.0"/>
<line x1="421.1" y1="170.4" x2="421.1" y2="200.0"/>
<line x1="827.7" y1="205.2" x2="802.1" y2="220.0"/>
<line x1="152.9" y1="154.8" x2="178.6" y2="140.0"/>
<line x1="698.2" y1="189.6" x2="698.2" y2="160.0"/>
<line x1="282.5" y1="170.4" x2="282.5" y2="200.0"/>
<line x1="490.3" y1="160.0" x2="464.7" y2="145.2"/>
<line x1="493.3" y1="160.0" x2="493.3" y2="200.0"/>
<line x1="487.3" y1="160.0" x2="487.3" y2="200.0"/>
<line x1="490.3" y1="160.0" x2="525.0" y2="140.0"/>
<line x1="490.3" y1="200.0" x2="516.0" y2="214.8"/>
<line x1="490.3" y1="200.0" x2="455.7" y2="220.0"/>
<line x1="836.7" y1="280.0" x2="871.4" y2="260.0"/>
<line x1="836.7" y1="280.0" x2="802.1" y2="260.0"/>
<line x1="143.9" y1="80.0" x2="109.3" y2="100.0"/>
<line x1="143.9" y1="80.0" x2="178.6" y2="100.0"/>
<line x1="628.9" y1="160.0" x2="628.9" y2="189.6"/>
<line x1="627.4" y1="162.6" x2="592.8" y2="142.6"/>
<line x1="630.4" y1="157.4" x2="595.8" y2="137.4"/>
<line x1="628.9" y1="160.0" x2="663.5" y2="140.0"/>
<line x1="351.8" y1="200.0" x2="351.8" y2="170.4"/>
<line x1="353.3" y1="197.4" x2="387.9" y2="217.4"/>
<line x1="350.3" y1="202.6" x2="384.9" y2="222.6"/>
<line x1="351.8" y1="200.0" x2="317.1" y2="220.0"/>
<line x1="767.5" y1="160.0" x2="793.1" y2="145.2"/>
<line x1="767.5" y1="160.0" x2="767.5" y2="200.0"/>
<line x1="766.0" y1="162.6" x2="731.3" y2="142.6"/>
<line x1="769.0" y1="157.4" x2="734.3" y2="137.4"/>
<line x1="213.2" y1="200.0" x2="187.6" y2="214.8"/>
<line x1="213.2" y1="200.0" x2="213.2" y2="160.0"/>
<line x1="214.7" y1="197.4" x2="249.3" y2="217.4"/>
<line x1="211.7" y1="202.6" x2="246.3" y2="222.6"/>
<line x1="872.9" y1="257.4" x2="907.5" y2="277.4"/>
<line x1="869.9" y1="262.6" x2="904.5" y2="282.6"/>
<line x1="107.8" y1="102.6" x2="73.1" y2="82.6"/>
<line x1="110.8" y1="97.4" x2="76.1" y2="77.4"/>
<line x1="525.0" y1="140.0" x2="525.0" y2="110.4"/>
<line x1="526.5" y1="137.4" x2="561.1" y2="157.4"/>
<line x1="523.5" y1="142.6" x2="558.1" y2="162.6"/>
<line x1="455.7" y1="220.0" x2="455.7" y2="249.6"/>
<line x1="454.2" y1="222.6" x2="419.6" y2="202.6"/>
<line x1="457.2" y1="217.4" x2="422.6" y2="197.4"/>
<line x1="802.1" y1="260.0" x2="802.1" y2="220.0"/>
<line x1="178.6" y1="100.0" x2="178.6" y2="140.0"/>
<line x1="594.3" y1="140.0" x2="594.3" y2="110.4"/>
<line x1="594.3" y1="140.0" x2="559.6" y2="160.0"/>
<line x1="386.4" y1="220.0" x2="386.4" y2="249.6"/>
<line x1="386.4" y1="220.0" x2="421.1" y2="200.0"/>
<line x1="767.5" y1="200.0" x2="741.8" y2="214.8"/>
<line x1="769.0" y1="197.4" x2="803.6" y2="217.4"/>
<line x1="766.0" y1="202.6" x2="800.6" y2="222.6"/>
<line x1="213.2" y1="160.0" x2="238.8" y2="145.2"/>
<line x1="211.7" y1="162.6" x2="177.1" y2="142.6"/>
<line x1="214.7" y1="157.4" x2="180.1" y2="137.4"/>
<line x1="663.5" y1="140.0" x2="663.5" y2="110.4"/>
<line x1="665.0" y1="137.4" x2="699.7" y2="157.4"/>
<line x1="662.0" y1="142.6" x2="696.7" y2="162.6"/>
<line x1="317.1" y1="220.0" x2="317.1" y2="249.6"/>
<line x1="315.6" y1="222.6" x2="281.0" y2="202.6"/>
<line x1="318.6" y1="217.4" x2="284.0" y2="197.4"/>
<line x1="732.8" y1="140.0" x2="732.8" y2="110.4"/>
<line x1="732.8" y1="140.0" x2="698.2" y2="160.0"/>
<line x1="247.8" y1="220.0" x2="247.8" y2="249.6"/>
<line x1="247.8" y1="220.0" x2="282.5" y2="200.0"/>
<text x="934.666420" y="268.320000" fill="rgb(102,102,102)"  stroke="rgb(102,102,102)" stroke-width="1" font-size="16" >CH</text>
<text x="958.666420" y="276.000000" fill="rgb(102,102,102)"  stroke="rgb(102,102,102)" stroke-width="1" font-size="13" >3</text>
<text x="900.025404" y="324.800000" fill="rgb(102,102,102)"  stroke="rgb(102,102,102)" stroke-width="1" font-size="16" >CH</text>
<text x="924.025404" y="329.600000" fill="rgb(102,102,102)"  stroke="rgb(102,102,102)" stroke-width="1" font-size="13" >3</text>
<text x="16.400000" y="104.800000" fill="rgb(102,102,102)"  stroke="rgb(102,102,102)" stroke-width="1" font-size="16" >H</text>
<text x="28.400000" y="109.600000" fill="rgb(102,102,102)"  stroke="rgb(102,102,102)" stroke-width="1" font-size="13" >3</text>
<text x="34.900000" y="104.800000" fill="rgb(102,102,102)"  stroke="rgb(102,102,102)" stroke-width="1" font-size="16" >C</text>
<text x="68.641016" y="48.320000" fill="rgb(102,102,102)"  stroke="rgb(102,102,102)" stroke-width="1" font-size="16" >CH</text>
<text x="92.641016" y="56.000000" fill="rgb(102,102,102)"  stroke="rgb(102,102,102)" stroke-width="1" font-size="13" >3</text>
<text x="553.615242" y="204.800000" fill="rgb(102,102,102)"  stroke="rgb(102,102,102)" stroke-width="1" font-size="16" >CH</text>
<text x="577.615242" y="209.600000" fill="rgb(102,102,102)"  stroke="rgb(102,102,102)" stroke-width="1" font-size="13" >3</text>
<text x="415.051178" y="168.320000" fill="rgb(102,102,102)"  stroke="rgb(102,102,102)" stroke-width="1" font-size="16" >CH</text>
<text x="439.051178" y="176.000000" fill="rgb(102,102,102)"  stroke="rgb(102,102,102)" stroke-width="1" font-size="13" >3</text>
<text x="830.743371" y="208.320000" fill="rgb(102,102,102)"  stroke="rgb(102,102,102)" stroke-width="1" font-size="16" >CH</text>
<text x="854.743371" y="216.000000" fill="rgb(102,102,102)"  stroke="rgb(102,102,102)" stroke-width="1" font-size="13" >3</text>
<text x="120.323048" y="164.800000" fill="rgb(102,102,102)"  stroke="rgb(102,102,102)" stroke-width="1" font-size="16" >H</text>
<text x="132.323048" y="169.600000" fill="rgb(102,102,102)"  stroke="rgb(102,102,102)" stroke-width="1" font-size="13" >3</text>
<text x="138.823048" y="164.800000" fill="rgb(102,102,102)"  stroke="rgb(102,102,102)" stroke-width="1" font-size="16" >C</text>
<text x="692.179307" y="204.800000" fill="rgb(102,102,102)"  stroke="rgb(102,102,102)" stroke-width="1" font-size="16" >CH</text>
<text x="716.179307" y="209.600000" fill="rgb(102,102,102)"  stroke="rgb(102,102,102)" stroke-width="1" font-size="13" >3</text>
<text x="276.487113" y="168.320000" fill="rgb(102,102,102)"  stroke="rgb(102,102,102)" stroke-width="1" font-size="16" >CH</text>
<text x="300.487113" y="176.000000" fill="rgb(102,102,102)"  stroke="rgb(102,102,102)" stroke-width="1" font-size="13" >3</text>
<text x="452.092194" y="148.320000" fill="rgb(191,191,191)"  stroke="rgb(191,191,191)" stroke-width="1" font-size="16" >H</text>
<text x="518.974226" y="224.800000" fill="rgb(191,191,191)"  stroke="rgb(191,191,191)" stroke-width="1" font-size="16" >H</text>
<text x="622.897275" y="204.800000" fill="rgb(191,191,191)"  stroke="rgb(191,191,191)" stroke-width="1" font-size="16" >H</text>
<text x="345.769145" y="168.320000" fill="rgb(191,191,191)"  stroke="rgb(191,191,191)" stroke-width="1" font-size="16" >H</text>
<text x="796.102355" y="148.320000" fill="rgb(191,191,191)"  stroke="rgb(191,191,191)" stroke-width="1" font-size="16" >H</text>
<text x="174.964065" y="224.800000" fill="rgb(191,191,191)"  stroke="rgb(191,191,191)" stroke-width="1" font-size="16" >H</text>
<text x="518.974226" y="108.320000" fill="rgb(191,191,191)"  stroke="rgb(191,191,191)" stroke-width="1" font-size="16" >H</text>
<text x="449.692194" y="264.800000" fill="rgb(191,191,191)"  stroke="rgb(191,191,191)" stroke-width="1" font-size="16" >H</text>
<text x="588.256258" y="108.320000" fill="rgb(191,191,191)"  stroke="rgb(191,191,191)" stroke-width="1" font-size="16" >H</text>
<text x="380.410162" y="264.800000" fill="rgb(191,191,191)"  stroke="rgb(191,191,191)" stroke-width="1" font-size="16" >H</text>
<text x="729.220323" y="224.800000" fill="rgb(191,191,191)"  stroke="rgb(191,191,191)" stroke-width="1" font-size="16" >H</text>
<text x="241.846097" y="148.320000" fill="rgb(191,191,191)"  stroke="rgb(191,191,191)" stroke-width="1" font-size="16" >H</text>
<text x="657.538291" y="108.320000" fill="rgb(191,191,191)"  stroke="rgb(191,191,191)" stroke-width="1" font-size="16" >H</text>
<text x="311.128129" y="264.800000" fill="rgb(191,191,191)"  stroke="rgb(191,191,191)" stroke-width="1" font-size="16" >H</text>
<text x="726.820323" y="108.320000" fill="rgb(191,191,191)"  stroke="rgb(191,191,191)" stroke-width="1" font-size="16" >H</text>
<text x="241.846097" y="264.800000" fill="rgb(191,191,191)"  stroke="rgb(191,191,191)" stroke-width="1" font-size="16" >H</text>
<text font-size="18.000000" fill ="black" font-family="sans-serif"
x="140.000000" y="20.000000" ></text>
<title> - OBDepict</title>
</svg>
