<?xml version="1.0"?>
<svg xmlns="http://www.w3.org/2000/svg"
xmlns:xlink="http://www.w3.org/1999/xlink" xmlns:cml="http://www.xml-cml.org/schema" width="380.341" height="282.257" x="0" y="0" font-family="sans-serif" stroke="rgb(0,0,0)" stroke-width="1" >
<line x1="137.0" y1="128.8" x2="138.5" y2="100.0"/>
<line x1="173.2" y1="82.4" x2="174.7" y2="53.6"/>
<line x1="173.2" y1="82.4" x2="205.8" y2="103.5"/>
<line x1="174.6" y1="85.0" x2="139.9" y2="102.7"/>
<line x1="171.8" y1="79.7" x2="137.2" y2="97.3"/>
<line x1="205.8" y1="103.5" x2="231.5" y2="90.5"/>
<line x1="105.9" y1="78.8" x2="138.5" y2="100.0"/>
<line x1="105.9" y1="78.8" x2="107.4" y2="50.1"/>
<line x1="59.4" y1="150.2" x2="98.3" y2="150.2"/>
<line x1="59.4" y1="150.2" x2="45.1" y2="175.2"/>
<line x1="85.5" y1="128.9" x2="86.2" y2="128.5"/>
<line x1="87.1" y1="132.5" x2="88.5" y2="131.7"/>
<line x1="88.7" y1="136.0" x2="90.8" y2="134.8"/>
<line x1="90.3" y1="139.6" x2="93.1" y2="138.0"/>
<line x1="91.9" y1="143.2" x2="95.4" y2="141.2"/>
<line x1="93.5" y1="146.7" x2="97.7" y2="144.3"/>
<line x1="95.1" y1="150.3" x2="100.0" y2="147.5"/>
<polygon points="72.277778 189.134124 98.333333 193.134124 98.333333 185.134124 " />
<line x1="98.3" y1="189.1" x2="83.9" y2="214.1"/>
<line x1="119.9" y1="230.3" x2="119.2" y2="229.9"/>
<line x1="122.2" y1="227.2" x2="120.8" y2="226.4"/>
<line x1="124.5" y1="224.0" x2="122.4" y2="222.8"/>
<line x1="126.8" y1="220.8" x2="124.0" y2="219.2"/>
<line x1="129.1" y1="217.7" x2="125.6" y2="215.7"/>
<line x1="131.4" y1="214.5" x2="127.2" y2="212.1"/>
<line x1="133.7" y1="211.3" x2="128.8" y2="208.5"/>
<line x1="132.0" y1="208.6" x2="146.4" y2="233.5"/>
<polygon points="178.718643 211.698897 169.154966 187.134124 162.226763 191.134124 " />
<line x1="165.7" y1="189.1" x2="194.5" y2="189.1"/>
<line x1="273.1" y1="107.1" x2="248.9" y2="91.4"/>
<polygon points="162.289932 124.412589 161.725085 150.767340 169.656644 149.723130 " />
<line x1="165.7" y1="150.2" x2="221.3" y2="165.1"/>
<line x1="254.8" y1="206.7" x2="244.4" y2="179.8"/>
<line x1="248.7" y1="164.0" x2="271.0" y2="145.9"/>
<line x1="271.0" y1="145.9" x2="303.7" y2="167.1"/>
<line x1="303.7" y1="167.1" x2="296.2" y2="194.9"/>
<line x1="283.5" y1="205.2" x2="254.8" y2="206.7"/>
<line x1="281.0" y1="198.1" x2="260.4" y2="199.2"/>
<line x1="271.0" y1="145.9" x2="273.1" y2="107.1"/>
<line x1="278.5" y1="140.3" x2="280.0" y2="113.4"/>
<line x1="273.1" y1="107.1" x2="298.7" y2="94.0"/>
<line x1="316.2" y1="94.9" x2="340.3" y2="110.6"/>
<line x1="314.1" y1="102.1" x2="331.4" y2="113.4"/>
<line x1="340.3" y1="110.6" x2="338.8" y2="139.3"/>
<line x1="329.3" y1="154.0" x2="303.7" y2="167.1"/>
<line x1="324.1" y1="148.6" x2="305.7" y2="157.9"/>
<line x1="132.0" y1="208.6" x2="165.7" y2="189.1"/>
<line x1="165.7" y1="189.1" x2="165.7" y2="150.2"/>
<line x1="165.7" y1="150.2" x2="140.8" y2="135.9"/>
<line x1="123.3" y1="135.9" x2="98.3" y2="150.2"/>
<line x1="98.3" y1="150.2" x2="98.3" y2="189.1"/>
<line x1="98.3" y1="189.1" x2="132.0" y2="208.6"/>
<text x="112.910331" y="143.651593" fill="rgb(102,102,102)"  stroke="rgb(102,102,102)" stroke-width="1" font-size="16" >H</text>
<text x="124.910331" y="148.451593" fill="rgb(102,102,102)"  stroke="rgb(102,102,102)" stroke-width="1" font-size="13" >3</text>
<text x="131.410331" y="143.651593" fill="rgb(102,102,102)"  stroke="rgb(102,102,102)" stroke-width="1" font-size="16" >C</text>
<text x="234.461093" y="94.206035" fill="rgb(12,12,255)"  stroke="rgb(12,12,255)" stroke-width="1" font-size="16" >NH</text>
<text x="301.726313" y="97.731255" fill="rgb(12,12,255)"  stroke="rgb(12,12,255)" stroke-width="1" font-size="16" >N</text>
<text x="332.305992" y="154.227255" fill="rgb(12,12,255)"  stroke="rgb(12,12,255)" stroke-width="1" font-size="16" >N</text>
<text x="287.590553" y="209.446224" fill="rgb(12,12,255)"  stroke="rgb(12,12,255)" stroke-width="1" font-size="16" >N</text>
<text x="234.818429" y="175.175605" fill="rgb(12,12,255)"  stroke="rgb(12,12,255)" stroke-width="1" font-size="16" >N</text>
<text x="101.965939" y="48.320000" fill="rgb(255,12,12)"  stroke="rgb(255,12,12)" stroke-width="1" font-size="16" >OH</text>
<text x="24.400000" y="188.724001" fill="rgb(255,12,12)"  stroke="rgb(255,12,12)" stroke-width="1" font-size="16" >HO</text>
<text x="63.288889" y="227.612890" fill="rgb(255,12,12)"  stroke="rgb(255,12,12)" stroke-width="1" font-size="16" >HO</text>
<text x="145.456543" y="247.057334" fill="rgb(255,12,12)"  stroke="rgb(255,12,12)" stroke-width="1" font-size="16" >OH</text>
<text x="198.579754" y="193.934124" fill="rgb(255,12,12)"  stroke="rgb(255,12,12)" stroke-width="1" font-size="16" >OH</text>
<text x="126.012099" y="139.120791" fill="rgb(255,12,12)"  stroke="rgb(255,12,12)" stroke-width="1" font-size="16" >O</text>
<text x="169.231160" y="51.845221" fill="rgb(191,191,191)"  stroke="rgb(191,191,191)" stroke-width="1" font-size="16" >H</text>
<text x="75.288889" y="124.886469" fill="rgb(191,191,191)"  stroke="rgb(191,191,191)" stroke-width="1" font-size="16" >H</text>
<text x="55.844444" y="193.934124" fill="rgb(191,191,191)"  stroke="rgb(191,191,191)" stroke-width="1" font-size="16" >H</text>
<text x="108.967655" y="247.057334" fill="rgb(191,191,191)"  stroke="rgb(191,191,191)" stroke-width="1" font-size="16" >H</text>
<text x="179.135309" y="227.612890" fill="rgb(191,191,191)"  stroke="rgb(191,191,191)" stroke-width="1" font-size="16" >H</text>
<text x="157.014846" y="120.009046" fill="rgb(191,191,191)"  stroke="rgb(191,191,191)" stroke-width="1" font-size="16" >H</text>
<text font-size="18.000000" fill ="black" font-family="sans-serif"
x="140.000000" y="20.000000" ></text>
<title> - OBDepict</title>
</svg>
