<?xml version="1.0"?>
<svg xmlns="http://www.w3.org/2000/svg"
xmlns:xlink="http://www.w3.org/1999/xlink" xmlns:cml="http://www.xml-cml.org/schema" width="549.477" height="549.494" x="0" y="0" font-family="sans-serif" stroke="rgb(0,0,0)" stroke-width="1" >
<line x1="417.7" y1="287.1" x2="388.6" y2="296.8"/>
<line x1="269.5" y1="131.8" x2="279.3" y2="160.9"/>
<line x1="262.4" y1="435.2" x2="252.7" y2="406.1"/>
<line x1="114.3" y1="279.9" x2="143.4" y2="270.2"/>
<line x1="411.5" y1="352.1" x2="444.2" y2="333.2"/>
<line x1="411.5" y1="352.1" x2="378.9" y2="333.2"/>
<line x1="334.5" y1="138.0" x2="315.7" y2="105.3"/>
<line x1="334.5" y1="138.0" x2="315.7" y2="170.6"/>
<line x1="183.7" y1="415.2" x2="183.7" y2="452.9"/>
<line x1="183.7" y1="415.2" x2="216.3" y2="396.4"/>
<line x1="134.2" y1="201.2" x2="96.6" y2="201.2"/>
<line x1="134.2" y1="201.2" x2="153.1" y2="233.8"/>
<line x1="444.2" y1="333.2" x2="476.8" y2="352.0"/>
<line x1="315.7" y1="105.3" x2="334.5" y2="72.6"/>
<line x1="183.7" y1="452.9" x2="151.0" y2="471.8"/>
<line x1="96.6" y1="201.2" x2="77.7" y2="168.6"/>
<line x1="479.8" y1="352.0" x2="479.8" y2="379.9"/>
<line x1="473.8" y1="352.0" x2="473.8" y2="379.9"/>
<line x1="476.8" y1="352.0" x2="501.0" y2="338.1"/>
<line x1="334.5" y1="69.6" x2="362.4" y2="69.6"/>
<line x1="334.5" y1="75.6" x2="362.4" y2="75.6"/>
<line x1="334.5" y1="72.6" x2="320.5" y2="48.5"/>
<line x1="149.5" y1="474.4" x2="125.4" y2="460.5"/>
<line x1="152.5" y1="469.2" x2="128.4" y2="455.3"/>
<line x1="151.0" y1="471.8" x2="151.1" y2="499.7"/>
<line x1="75.1" y1="167.1" x2="89.0" y2="142.9"/>
<line x1="80.3" y1="170.1" x2="94.2" y2="145.9"/>
<line x1="77.7" y1="168.6" x2="49.8" y2="168.6"/>
<line x1="315.7" y1="170.6" x2="279.3" y2="160.9"/>
<line x1="279.3" y1="160.9" x2="258.2" y2="197.3"/>
<line x1="282.5" y1="169.7" x2="267.5" y2="195.7"/>
<line x1="258.2" y1="197.3" x2="273.8" y2="224.3"/>
<line x1="288.8" y1="228.3" x2="315.7" y2="212.7"/>
<line x1="315.7" y1="212.7" x2="315.7" y2="170.6"/>
<line x1="308.5" y1="206.7" x2="308.5" y2="176.6"/>
<line x1="179.8" y1="291.2" x2="143.4" y2="270.2"/>
<line x1="178.2" y1="282.0" x2="152.2" y2="267.0"/>
<line x1="143.4" y1="270.2" x2="153.1" y2="233.8"/>
<line x1="153.1" y1="233.8" x2="195.2" y2="233.8"/>
<line x1="159.1" y1="241.0" x2="189.2" y2="241.0"/>
<line x1="195.2" y1="233.8" x2="210.7" y2="260.7"/>
<line x1="206.7" y1="275.7" x2="179.8" y2="291.2"/>
<line x1="252.7" y1="406.1" x2="216.3" y2="396.4"/>
<line x1="216.3" y1="396.4" x2="216.3" y2="354.3"/>
<line x1="223.5" y1="390.4" x2="223.5" y2="360.3"/>
<line x1="216.3" y1="354.3" x2="243.2" y2="338.8"/>
<line x1="258.1" y1="342.8" x2="273.7" y2="369.7"/>
<line x1="273.7" y1="369.7" x2="252.7" y2="406.1"/>
<line x1="264.5" y1="371.3" x2="249.5" y2="397.3"/>
<line x1="388.6" y1="296.8" x2="378.9" y2="333.2"/>
<line x1="378.9" y1="333.2" x2="336.8" y2="333.2"/>
<line x1="372.9" y1="326.0" x2="342.8" y2="326.0"/>
<line x1="336.8" y1="333.2" x2="321.2" y2="306.3"/>
<line x1="325.2" y1="291.4" x2="352.2" y2="275.8"/>
<line x1="352.2" y1="275.8" x2="388.6" y2="296.8"/>
<line x1="353.8" y1="285.0" x2="379.8" y2="300.0"/>
<line x1="315.8" y1="369.7" x2="273.7" y2="369.7"/>
<line x1="216.3" y1="354.3" x2="179.8" y2="333.3"/>
<line x1="179.8" y1="333.3" x2="179.8" y2="291.2"/>
<line x1="195.2" y1="233.8" x2="216.2" y2="197.3"/>
<line x1="216.2" y1="197.3" x2="258.2" y2="197.3"/>
<line x1="315.7" y1="212.7" x2="352.2" y2="233.7"/>
<line x1="352.2" y1="233.7" x2="352.2" y2="275.8"/>
<line x1="336.8" y1="333.2" x2="315.8" y2="369.7"/>
<text x="421.920474" y="291.998633" fill="rgb(102,102,102)"  stroke="rgb(102,102,102)" stroke-width="1" font-size="16" >CH</text>
<text x="445.920474" y="299.678633" fill="rgb(102,102,102)"  stroke="rgb(102,102,102)" stroke-width="1" font-size="13" >3</text>
<text x="242.536902" y="129.907883" fill="rgb(102,102,102)"  stroke="rgb(102,102,102)" stroke-width="1" font-size="16" >H</text>
<text x="254.536902" y="137.587883" fill="rgb(102,102,102)"  stroke="rgb(102,102,102)" stroke-width="1" font-size="13" >3</text>
<text x="261.036902" y="129.907883" fill="rgb(102,102,102)"  stroke="rgb(102,102,102)" stroke-width="1" font-size="16" >C</text>
<text x="259.812357" y="450.233524" fill="rgb(102,102,102)"  stroke="rgb(102,102,102)" stroke-width="1" font-size="16" >CH</text>
<text x="283.812357" y="455.033524" fill="rgb(102,102,102)"  stroke="rgb(102,102,102)" stroke-width="1" font-size="13" >3</text>
<text x="80.460694" y="288.124330" fill="rgb(102,102,102)"  stroke="rgb(102,102,102)" stroke-width="1" font-size="16" >H</text>
<text x="92.460694" y="292.924330" fill="rgb(102,102,102)"  stroke="rgb(102,102,102)" stroke-width="1" font-size="13" >3</text>
<text x="98.960694" y="288.124330" fill="rgb(102,102,102)"  stroke="rgb(102,102,102)" stroke-width="1" font-size="16" >C</text>
<text x="300.153053" y="305.146680" fill="rgb(12,12,255)"  stroke="rgb(12,12,255)" stroke-width="1" font-size="16" >HN</text>
<text x="263.687513" y="238.533892" fill="rgb(12,12,255)"  stroke="rgb(12,12,255)" stroke-width="1" font-size="16" >HN</text>
<text x="246.677498" y="341.602260" fill="rgb(12,12,255)"  stroke="rgb(12,12,255)" stroke-width="1" font-size="16" >NH</text>
<text x="210.211958" y="274.989471" fill="rgb(12,12,255)"  stroke="rgb(12,12,255)" stroke-width="1" font-size="16" >NH</text>
<text x="470.847832" y="394.528019" fill="rgb(255,12,12)"  stroke="rgb(255,12,12)" stroke-width="1" font-size="16" >O</text>
<text x="503.476984" y="341.472284" fill="rgb(255,12,12)"  stroke="rgb(255,12,12)" stroke-width="1" font-size="16" >OH</text>
<text x="366.206085" y="80.949152" fill="rgb(255,12,12)"  stroke="rgb(255,12,12)" stroke-width="1" font-size="16" >O</text>
<text x="300.030350" y="48.320000" fill="rgb(255,12,12)"  stroke="rgb(255,12,12)" stroke-width="1" font-size="16" >HO</text>
<text x="114.788321" y="461.289787" fill="rgb(255,12,12)"  stroke="rgb(255,12,12)" stroke-width="1" font-size="16" >O</text>
<text x="145.057568" y="514.294218" fill="rgb(255,12,12)"  stroke="rgb(255,12,12)" stroke-width="1" font-size="16" >OH</text>
<text x="90.524431" y="144.220295" fill="rgb(255,12,12)"  stroke="rgb(255,12,12)" stroke-width="1" font-size="16" >O</text>
<text x="24.400000" y="173.369542" fill="rgb(255,12,12)"  stroke="rgb(255,12,12)" stroke-width="1" font-size="16" >HO</text>
<text font-size="18.000000" fill ="black" font-family="sans-serif"
x="140.000000" y="20.000000" ></text>
<title> - OBDepict</title>
</svg>
