<?xml version="1.0"?>
<svg xmlns="http://www.w3.org/2000/svg"
xmlns:xlink="http://www.w3.org/1999/xlink" xmlns:cml="http://www.xml-cml.org/schema" width="258.564" height="234.641" x="0" y="0" font-family="sans-serif" stroke="rgb(0,0,0)" stroke-width="1" >
<line x1="183.9" y1="160.0" x2="149.3" y2="140.0"/>
<line x1="183.9" y1="160.0" x2="209.6" y2="145.2"/>
<line x1="136.1" y1="118.0" x2="136.8" y2="117.6"/>
<line x1="137.8" y1="121.7" x2="139.2" y2="120.9"/>
<line x1="139.4" y1="125.4" x2="141.5" y2="124.2"/>
<line x1="141.1" y1="129.0" x2="143.9" y2="127.4"/>
<line x1="142.7" y1="132.7" x2="146.2" y2="130.7"/>
<line x1="144.4" y1="136.4" x2="148.6" y2="134.0"/>
<line x1="146.1" y1="140.0" x2="150.9" y2="137.2"/>
<line x1="149.3" y1="140.0" x2="114.6" y2="160.0"/>
<line x1="149.3" y1="140.0" x2="164.1" y2="114.4"/>
<line x1="102.2" y1="182.4" x2="101.5" y2="182.0"/>
<line x1="104.5" y1="179.1" x2="103.1" y2="178.3"/>
<line x1="106.9" y1="175.8" x2="104.8" y2="174.6"/>
<line x1="109.2" y1="172.6" x2="106.5" y2="171.0"/>
<line x1="111.6" y1="169.3" x2="108.1" y2="167.3"/>
<line x1="113.9" y1="166.0" x2="109.8" y2="163.6"/>
<line x1="116.3" y1="162.8" x2="111.4" y2="160.0"/>
<line x1="114.6" y1="160.0" x2="80.0" y2="140.0"/>
<line x1="114.6" y1="160.0" x2="129.4" y2="185.6"/>
<line x1="80.0" y1="140.0" x2="80.0" y2="100.0"/>
<line x1="81.5" y1="142.6" x2="55.9" y2="157.4"/>
<line x1="78.5" y1="137.4" x2="52.9" y2="152.2"/>
<polygon points="66.600000 76.790519 76.535898 102.000000 83.464102 98.000000 " />
<line x1="80.0" y1="100.0" x2="114.6" y2="80.0"/>
<line x1="80.0" y1="100.0" x2="50.4" y2="100.0"/>
<line x1="116.1" y1="77.4" x2="141.8" y2="92.2"/>
<line x1="113.1" y1="82.6" x2="138.8" y2="97.4"/>
<line x1="114.6" y1="80.0" x2="114.6" y2="50.4"/>
<text x="212.564065" y="148.320000" fill="rgb(255,12,12)"  stroke="rgb(255,12,12)" stroke-width="1" font-size="16" >OH</text>
<text x="163.282032" y="113.678984" fill="rgb(255,12,12)"  stroke="rgb(255,12,12)" stroke-width="1" font-size="16" >OH</text>
<text x="128.641016" y="199.441016" fill="rgb(255,12,12)"  stroke="rgb(255,12,12)" stroke-width="1" font-size="16" >OH</text>
<text x="41.758984" y="164.800000" fill="rgb(255,12,12)"  stroke="rgb(255,12,12)" stroke-width="1" font-size="16" >O</text>
<text x="24.400000" y="104.800000" fill="rgb(255,12,12)"  stroke="rgb(255,12,12)" stroke-width="1" font-size="16" >HO</text>
<text x="143.282032" y="104.800000" fill="rgb(255,12,12)"  stroke="rgb(255,12,12)" stroke-width="1" font-size="16" >O</text>
<text x="108.641016" y="48.320000" fill="rgb(255,12,12)"  stroke="rgb(255,12,12)" stroke-width="1" font-size="16" >OH</text>
<text x="125.682032" y="113.678984" fill="rgb(191,191,191)"  stroke="rgb(191,191,191)" stroke-width="1" font-size="16" >H</text>
<text x="91.041016" y="199.441016" fill="rgb(191,191,191)"  stroke="rgb(191,191,191)" stroke-width="1" font-size="16" >H</text>
<text x="56.400000" y="73.678984" fill="rgb(191,191,191)"  stroke="rgb(191,191,191)" stroke-width="1" font-size="16" >H</text>
<text font-size="18.000000" fill ="black" font-family="sans-serif"
x="140.000000" y="20.000000" ></text>
<title> - OBDepict</title>
</svg>
