<?xml version="1.0"?>
<svg xmlns="http://www.w3.org/2000/svg"
xmlns:xlink="http://www.w3.org/1999/xlink" xmlns:cml="http://www.xml-cml.org/schema" width="373.557" height="244.527" x="0" y="0" font-family="sans-serif" stroke="rgb(0,0,0)" stroke-width="1" >
<polygon points="132.878 155.862 139.748 181.128 147.056 177.874 " />
<line x1="300.1" y1="59.3" x2="324.9" y2="45.0"/>
<polygon points="222.179779 130.179310 201.770625 113.777278 197.770625 120.705481 " />
<line x1="123.3" y1="73.6" x2="123.7" y2="72.9"/>
<line x1="129.8" y1="77.8" x2="130.6" y2="76.4"/>
<line x1="136.3" y1="82.0" x2="137.5" y2="79.9"/>
<line x1="142.8" y1="86.2" x2="144.4" y2="83.4"/>
<line x1="149.3" y1="90.4" x2="151.3" y2="86.9"/>
<line x1="155.8" y1="94.6" x2="158.2" y2="90.4"/>
<line x1="162.2" y1="98.8" x2="165.0" y2="94.0"/>
<polygon points="143.402290 93.602603 129.223447 115.614433 136.531811 118.868326 " />
<polygon points="51.037344 149.489655 75.446498 140.015826 71.446498 133.087623 " />
<line x1="73.4" y1="136.6" x2="48.7" y2="122.3"/>
<line x1="99.0" y1="168.7" x2="90.2" y2="195.9"/>
<line x1="93.3" y1="166.9" x2="84.5" y2="194.1"/>
<line x1="132.9" y1="117.2" x2="96.1" y2="105.3"/>
<line x1="96.1" y1="105.3" x2="73.4" y2="136.6"/>
<line x1="73.4" y1="136.6" x2="96.1" y2="167.8"/>
<line x1="96.1" y1="167.8" x2="132.9" y2="155.9"/>
<line x1="132.9" y1="155.9" x2="132.9" y2="117.2"/>
<line x1="166.3" y1="59.3" x2="199.8" y2="40.0"/>
<line x1="199.8" y1="40.0" x2="233.2" y2="59.3"/>
<line x1="233.2" y1="59.3" x2="233.2" y2="97.9"/>
<line x1="233.2" y1="97.9" x2="199.8" y2="117.2"/>
<line x1="199.8" y1="117.2" x2="166.3" y2="97.9"/>
<line x1="166.3" y1="97.9" x2="166.3" y2="59.3"/>
<line x1="266.7" y1="40.0" x2="300.1" y2="59.3"/>
<line x1="300.1" y1="59.3" x2="300.1" y2="97.9"/>
<line x1="292.9" y1="65.3" x2="292.9" y2="91.9"/>
<line x1="300.1" y1="97.9" x2="266.7" y2="117.2"/>
<line x1="266.7" y1="117.2" x2="233.2" y2="97.9"/>
<line x1="265.1" y1="108.0" x2="242.0" y2="94.7"/>
<line x1="233.2" y1="59.3" x2="266.7" y2="40.0"/>
<line x1="242.0" y1="62.5" x2="265.1" y2="49.2"/>
<line x1="132.9" y1="117.2" x2="166.3" y2="97.9"/>
<line x1="199.8" y1="117.2" x2="199.8" y2="155.9"/>
<line x1="199.8" y1="155.9" x2="166.3" y2="175.2"/>
<line x1="166.3" y1="175.2" x2="132.9" y2="155.9"/>
<text x="142.586078" y="195.943825" fill="rgb(102,102,102)"  stroke="rgb(102,102,102)" stroke-width="1" font-size="16" >CH</text>
<text x="166.586078" y="200.743825" fill="rgb(102,102,102)"  stroke="rgb(102,102,102)" stroke-width="1" font-size="13" >3</text>
<text x="327.556619" y="48.320000" fill="rgb(255,12,12)"  stroke="rgb(255,12,12)" stroke-width="1" font-size="16" >OH</text>
<text x="24.400000" y="125.561379" fill="rgb(255,12,12)"  stroke="rgb(255,12,12)" stroke-width="1" font-size="16" >HO</text>
<text x="80.612721" y="209.326977" fill="rgb(255,12,12)"  stroke="rgb(255,12,12)" stroke-width="1" font-size="16" >O</text>
<text x="227.217124" y="141.351724" fill="rgb(191,191,191)"  stroke="rgb(191,191,191)" stroke-width="1" font-size="16" >H</text>
<text x="95.831130" y="67.630345" fill="rgb(191,191,191)"  stroke="rgb(191,191,191)" stroke-width="1" font-size="16" >H</text>
<text x="142.586078" y="90.279624" fill="rgb(191,191,191)"  stroke="rgb(191,191,191)" stroke-width="1" font-size="16" >H</text>
<text x="36.400000" y="160.662069" fill="rgb(191,191,191)"  stroke="rgb(191,191,191)" stroke-width="1" font-size="16" >H</text>
<text font-size="18.000000" fill ="black" font-family="sans-serif"
x="140.000000" y="20.000000" ></text>
<title> - OBDepict</title>
</svg>
