<?xml version="1.0"?>
<svg xmlns="http://www.w3.org/2000/svg"
xmlns:xlink="http://www.w3.org/1999/xlink" xmlns:cml="http://www.xml-cml.org/schema" width="218.404" height="223.666" x="0" y="0" font-family="sans-serif" stroke="rgb(0,0,0)" stroke-width="1" >
<line x1="49.3" y1="159.1" x2="75.6" y2="145.6"/>
<line x1="64.9" y1="107.1" x2="93.0" y2="78.5"/>
<line x1="64.9" y1="107.1" x2="75.6" y2="145.6"/>
<line x1="93.7" y1="75.6" x2="122.4" y2="83.0"/>
<line x1="92.2" y1="81.4" x2="120.9" y2="88.8"/>
<line x1="93.0" y1="78.5" x2="85.0" y2="50.0"/>
<line x1="139.4" y1="142.8" x2="167.6" y2="133.6"/>
<line x1="141.3" y1="148.5" x2="169.4" y2="139.3"/>
<line x1="88.0" y1="183.7" x2="128.0" y2="183.7"/>
<line x1="94.0" y1="176.5" x2="122.0" y2="176.5"/>
<line x1="128.0" y1="183.7" x2="140.4" y2="145.6"/>
<line x1="140.4" y1="145.6" x2="116.4" y2="128.2"/>
<line x1="99.6" y1="128.2" x2="75.6" y2="145.6"/>
<line x1="75.6" y1="145.6" x2="88.0" y2="183.7"/>
<text x="16.400000" y="168.582944" fill="rgb(102,102,102)"  stroke="rgb(102,102,102)" stroke-width="1" font-size="16" >H</text>
<text x="28.400000" y="173.382944" fill="rgb(102,102,102)"  stroke="rgb(102,102,102)" stroke-width="1" font-size="13" >3</text>
<text x="34.900000" y="168.582944" fill="rgb(102,102,102)"  stroke="rgb(102,102,102)" stroke-width="1" font-size="16" >C</text>
<text x="125.688317" y="93.339040" fill="rgb(255,12,12)"  stroke="rgb(255,12,12)" stroke-width="1" font-size="16" >O</text>
<text x="66.651877" y="48.320000" fill="rgb(255,12,12)"  stroke="rgb(255,12,12)" stroke-width="1" font-size="16" >HO</text>
<text x="172.403881" y="141.582644" fill="rgb(255,12,12)"  stroke="rgb(255,12,12)" stroke-width="1" font-size="16" >O</text>
<text x="102.000941" y="130.431914" fill="rgb(255,12,12)"  stroke="rgb(255,12,12)" stroke-width="1" font-size="16" >O</text>
<text font-size="18.000000" fill ="black" font-family="sans-serif"
x="140.000000" y="20.000000" ></text>
<title> - OBDepict</title>
</svg>
