<?xml version="1.0"?>
<svg xmlns="http://www.w3.org/2000/svg"
xmlns:xlink="http://www.w3.org/1999/xlink" xmlns:cml="http://www.xml-cml.org/schema" width="280" height="223.923" x="0" y="0" font-family="sans-serif" stroke="rgb(0,0,0)" stroke-width="1" >
<line x1="140.0" y1="80.0" x2="180.0" y2="80.0"/>
<line x1="140.0" y1="80.0" x2="125.2" y2="105.6"/>
<line x1="202.0" y1="66.9" x2="202.4" y2="67.5"/>
<line x1="198.3" y1="68.5" x2="199.1" y2="69.9"/>
<line x1="194.6" y1="70.2" x2="195.8" y2="72.2"/>
<line x1="191.0" y1="71.8" x2="192.6" y2="74.6"/>
<line x1="187.3" y1="73.5" x2="189.3" y2="76.9"/>
<line x1="183.6" y1="75.1" x2="186.0" y2="79.3"/>
<line x1="180.0" y1="76.8" x2="182.8" y2="81.6"/>
<line x1="180.0" y1="80.0" x2="200.0" y2="114.6"/>
<line x1="180.0" y1="80.0" x2="180.0" y2="50.4"/>
<line x1="200.0" y1="114.6" x2="180.0" y2="149.3"/>
<line x1="200.0" y1="111.6" x2="229.6" y2="111.6"/>
<line x1="200.0" y1="117.6" x2="229.6" y2="117.6"/>
<line x1="180.0" y1="149.3" x2="150.4" y2="149.3"/>
<line x1="182.6" y1="147.8" x2="197.4" y2="173.4"/>
<line x1="177.4" y1="150.8" x2="192.2" y2="176.4"/>
<line x1="80.0" y1="85.0" x2="80.0" y2="104.2"/>
<line x1="50.4" y1="114.6" x2="69.6" y2="114.6"/>
<line x1="77.0" y1="144.2" x2="77.0" y2="125.0"/>
<line x1="83.0" y1="144.2" x2="83.0" y2="125.0"/>
<line x1="109.6" y1="114.6" x2="90.4" y2="114.6"/>
<text x="174.000000" y="48.320000" fill="rgb(255,12,12)"  stroke="rgb(255,12,12)" stroke-width="1" font-size="16" >OH</text>
<text x="234.000000" y="122.961016" fill="rgb(255,12,12)"  stroke="rgb(255,12,12)" stroke-width="1" font-size="16" >O</text>
<text x="124.400000" y="154.082032" fill="rgb(255,12,12)"  stroke="rgb(255,12,12)" stroke-width="1" font-size="16" >HO</text>
<text x="194.000000" y="188.723048" fill="rgb(255,12,12)"  stroke="rgb(255,12,12)" stroke-width="1" font-size="16" >O</text>
<text x="74.000000" y="82.961016" fill="rgb(255,12,12)"  stroke="rgb(255,12,12)" stroke-width="1" font-size="16" >OH</text>
<text x="24.400000" y="119.441016" fill="rgb(255,12,12)"  stroke="rgb(255,12,12)" stroke-width="1" font-size="16" >HO</text>
<text x="74.000000" y="159.441016" fill="rgb(255,12,12)"  stroke="rgb(255,12,12)" stroke-width="1" font-size="16" >O</text>
<text x="114.000000" y="119.441016" fill="rgb(255,12,12)"  stroke="rgb(255,12,12)" stroke-width="1" font-size="16" >O</text>
<text x="74.000000" y="122.961016" fill="rgb(255,127,0)"  stroke="rgb(255,127,0)" stroke-width="1" font-size="16" >P</text>
<text x="208.641016" y="68.320000" fill="rgb(191,191,191)"  stroke="rgb(191,191,191)" stroke-width="1" font-size="16" >H</text>
<text font-size="18.000000" fill ="black" font-family="sans-serif"
x="140.000000" y="20.000000" ></text>
<title> - OBDepict</title>
</svg>
