<?xml version="1.0"?>
<svg xmlns="http://www.w3.org/2000/svg"
xmlns:xlink="http://www.w3.org/1999/xlink" xmlns:cml="http://www.xml-cml.org/schema" width="253.205" height="260" x="0" y="0" font-family="sans-serif" stroke="rgb(0,0,0)" stroke-width="1" >
<line x1="178.6" y1="160.0" x2="178.6" y2="200.0"/>
<line x1="178.6" y1="160.0" x2="152.9" y2="145.2"/>
<line x1="109.3" y1="160.0" x2="74.6" y2="140.0"/>
<line x1="109.3" y1="160.0" x2="134.9" y2="145.2"/>
<line x1="143.9" y1="100.0" x2="178.6" y2="80.0"/>
<line x1="143.9" y1="100.0" x2="143.9" y2="129.6"/>
<line x1="180.1" y1="197.4" x2="205.7" y2="212.2"/>
<line x1="177.1" y1="202.6" x2="202.7" y2="217.4"/>
<line x1="178.6" y1="200.0" x2="152.9" y2="214.8"/>
<line x1="76.1" y1="142.6" x2="50.5" y2="157.4"/>
<line x1="73.1" y1="137.4" x2="47.5" y2="152.2"/>
<line x1="74.6" y1="140.0" x2="74.6" y2="110.4"/>
<line x1="180.1" y1="77.4" x2="205.7" y2="92.2"/>
<line x1="177.1" y1="82.6" x2="202.7" y2="97.4"/>
<line x1="178.6" y1="80.0" x2="178.6" y2="50.4"/>
<text x="137.923048" y="144.800000" fill="rgb(12,12,255)"  stroke="rgb(12,12,255)" stroke-width="1" font-size="16" >N</text>
<text x="207.205081" y="224.800000" fill="rgb(255,12,12)"  stroke="rgb(255,12,12)" stroke-width="1" font-size="16" >O</text>
<text x="128.323048" y="224.800000" fill="rgb(255,12,12)"  stroke="rgb(255,12,12)" stroke-width="1" font-size="16" >HO</text>
<text x="36.400000" y="164.800000" fill="rgb(255,12,12)"  stroke="rgb(255,12,12)" stroke-width="1" font-size="16" >O</text>
<text x="68.641016" y="108.320000" fill="rgb(255,12,12)"  stroke="rgb(255,12,12)" stroke-width="1" font-size="16" >OH</text>
<text x="207.205081" y="104.800000" fill="rgb(255,12,12)"  stroke="rgb(255,12,12)" stroke-width="1" font-size="16" >O</text>
<text x="172.564065" y="48.320000" fill="rgb(255,12,12)"  stroke="rgb(255,12,12)" stroke-width="1" font-size="16" >OH</text>
<text font-size="18.000000" fill ="black" font-family="sans-serif"
x="140.000000" y="20.000000" ></text>
<title> - OBDepict</title>
</svg>
