<?xml version="1.0"?>
<svg xmlns="http://www.w3.org/2000/svg"
xmlns:xlink="http://www.w3.org/1999/xlink" xmlns:cml="http://www.xml-cml.org/schema" width="462.686" height="433.843" x="0" y="0" font-family="sans-serif" stroke="rgb(0,0,0)" stroke-width="1" >
<line x1="74.6" y1="50.4" x2="74.6" y2="69.6"/>
<line x1="213.2" y1="80.0" x2="247.8" y2="100.0"/>
<line x1="213.2" y1="80.0" x2="178.6" y2="100.0"/>
<line x1="247.8" y1="100.0" x2="247.8" y2="140.0"/>
<line x1="178.6" y1="100.0" x2="143.9" y2="80.0"/>
<line x1="247.8" y1="140.0" x2="282.5" y2="160.0"/>
<line x1="143.9" y1="80.0" x2="109.3" y2="100.0"/>
<line x1="282.5" y1="160.0" x2="282.5" y2="200.0"/>
<line x1="109.3" y1="100.0" x2="83.6" y2="85.2"/>
<line x1="345.4" y1="365.6" x2="335.1" y2="326.9"/>
<line x1="345.4" y1="365.6" x2="324.5" y2="386.5"/>
<line x1="317.2" y1="345.3" x2="316.7" y2="344.7"/>
<line x1="320.4" y1="342.8" x2="319.2" y2="341.6"/>
<line x1="323.5" y1="340.2" x2="321.8" y2="338.5"/>
<line x1="326.6" y1="337.7" x2="324.3" y2="335.4"/>
<line x1="329.7" y1="335.1" x2="326.9" y2="332.3"/>
<line x1="332.8" y1="332.6" x2="329.4" y2="329.2"/>
<line x1="335.9" y1="330.0" x2="331.9" y2="326.1"/>
<line x1="284.0" y1="202.6" x2="258.4" y2="217.4"/>
<line x1="281.0" y1="197.4" x2="255.4" y2="212.2"/>
<line x1="282.5" y1="200.0" x2="308.1" y2="214.8"/>
<polygon points="380.633022 342.455355 377.560375 315.533266 369.832968 317.603819 " />
<line x1="373.7" y1="316.6" x2="402.3" y2="324.2"/>
<line x1="408.9" y1="284.2" x2="408.7" y2="284.9"/>
<line x1="405.1" y1="282.7" x2="404.7" y2="284.3"/>
<line x1="401.4" y1="281.3" x2="400.7" y2="283.6"/>
<line x1="397.6" y1="279.9" x2="396.8" y2="283.0"/>
<line x1="393.8" y1="278.5" x2="392.8" y2="282.3"/>
<line x1="390.1" y1="277.1" x2="388.8" y2="281.7"/>
<line x1="386.3" y1="275.6" x2="384.9" y2="281.1"/>
<line x1="384.0" y1="277.9" x2="405.0" y2="257.0"/>
<polygon points="374.715624 230.696776 352.936735 246.818811 358.593589 252.475665 " />
<line x1="355.8" y1="249.6" x2="348.1" y2="221.1"/>
<line x1="293.6" y1="270.2" x2="293.3" y2="269.4"/>
<line x1="297.5" y1="269.0" x2="296.9" y2="267.5"/>
<line x1="301.3" y1="267.8" x2="300.4" y2="265.6"/>
<line x1="305.2" y1="266.7" x2="304.0" y2="263.7"/>
<line x1="309.0" y1="265.5" x2="307.5" y2="261.8"/>
<line x1="312.9" y1="264.4" x2="311.0" y2="259.9"/>
<line x1="316.7" y1="263.2" x2="314.6" y2="258.0"/>
<line x1="317.1" y1="260.0" x2="317.1" y2="230.4"/>
<line x1="238.8" y1="214.8" x2="222.2" y2="205.2"/>
<line x1="47.5" y1="92.2" x2="64.1" y2="82.6"/>
<line x1="50.5" y1="97.4" x2="67.1" y2="87.8"/>
<line x1="183.6" y1="160.0" x2="202.8" y2="160.0"/>
<line x1="216.2" y1="130.4" x2="216.2" y2="149.6"/>
<line x1="210.2" y1="130.4" x2="210.2" y2="149.6"/>
<line x1="242.8" y1="163.0" x2="223.6" y2="163.0"/>
<line x1="242.8" y1="157.0" x2="223.6" y2="157.0"/>
<line x1="213.2" y1="189.6" x2="213.2" y2="170.4"/>
<line x1="384.0" y1="277.9" x2="355.8" y2="249.6"/>
<line x1="355.8" y1="249.6" x2="317.1" y2="260.0"/>
<line x1="317.1" y1="260.0" x2="309.5" y2="288.6"/>
<line x1="314.1" y1="306.0" x2="335.1" y2="326.9"/>
<line x1="335.1" y1="326.9" x2="373.7" y2="316.6"/>
<line x1="373.7" y1="316.6" x2="384.0" y2="277.9"/>
<text x="68.641016" y="48.320000" fill="rgb(102,102,102)"  stroke="rgb(102,102,102)" stroke-width="1" font-size="16" >CH</text>
<text x="92.641016" y="56.000000" fill="rgb(102,102,102)"  stroke="rgb(102,102,102)" stroke-width="1" font-size="13" >3</text>
<text x="241.846097" y="224.800000" fill="rgb(12,12,255)"  stroke="rgb(12,12,255)" stroke-width="1" font-size="16" >N</text>
<text x="301.528129" y="398.642609" fill="rgb(255,12,12)"  stroke="rgb(255,12,12)" stroke-width="1" font-size="16" >HO</text>
<text x="406.333705" y="331.721304" fill="rgb(255,12,12)"  stroke="rgb(255,12,12)" stroke-width="1" font-size="16" >OH</text>
<text x="406.333705" y="257.967238" fill="rgb(255,12,12)"  stroke="rgb(255,12,12)" stroke-width="1" font-size="16" >OH</text>
<text x="329.812400" y="219.330205" fill="rgb(255,12,12)"  stroke="rgb(255,12,12)" stroke-width="1" font-size="16" >HO</text>
<text x="36.400000" y="104.800000" fill="rgb(255,12,12)"  stroke="rgb(255,12,12)" stroke-width="1" font-size="16" >O</text>
<text x="168.405081" y="153.600000" fill="rgb(255,12,12)"  stroke="rgb(255,12,12)" stroke-width="1" font-size="32" >-</text>
<text x="169.605081" y="168.320000" fill="rgb(255,12,12)"  stroke="rgb(255,12,12)" stroke-width="1" font-size="16" >O</text>
<text x="207.205081" y="128.320000" fill="rgb(255,12,12)"  stroke="rgb(255,12,12)" stroke-width="1" font-size="16" >O</text>
<text x="247.205081" y="164.800000" fill="rgb(255,12,12)"  stroke="rgb(255,12,12)" stroke-width="1" font-size="16" >O</text>
<text x="303.175367" y="303.437033" fill="rgb(255,12,12)"  stroke="rgb(255,12,12)" stroke-width="1" font-size="16" >O</text>
<text x="209.605081" y="204.800000" fill="rgb(255,12,12)"  stroke="rgb(255,12,12)" stroke-width="1" font-size="16" >O</text>
<text x="311.128129" y="228.320000" fill="rgb(178,178,0)"  stroke="rgb(178,178,0)" stroke-width="1" font-size="16" >S</text>
<text x="68.641016" y="84.800000" fill="rgb(178,178,0)"  stroke="rgb(178,178,0)" stroke-width="1" font-size="16" >S</text>
<text x="207.205081" y="164.800000" fill="rgb(178,178,0)"  stroke="rgb(178,178,0)" stroke-width="1" font-size="16" >S</text>
<text x="303.175367" y="360.005576" fill="rgb(191,191,191)"  stroke="rgb(191,191,191)" stroke-width="1" font-size="16" >H</text>
<text x="378.049434" y="360.005576" fill="rgb(191,191,191)"  stroke="rgb(191,191,191)" stroke-width="1" font-size="16" >H</text>
<text x="416.686467" y="293.084271" fill="rgb(191,191,191)"  stroke="rgb(191,191,191)" stroke-width="1" font-size="16" >H</text>
<text x="378.049434" y="229.682967" fill="rgb(191,191,191)"  stroke="rgb(191,191,191)" stroke-width="1" font-size="16" >H</text>
<text x="276.572948" y="280.107337" fill="rgb(191,191,191)"  stroke="rgb(191,191,191)" stroke-width="1" font-size="16" >H</text>
<text font-size="18.000000" fill ="black" font-family="sans-serif"
x="140.000000" y="20.000000" ></text>
<title> - OBDepict</title>
</svg>
