<?xml version="1.0"?>
<svg xmlns="http://www.w3.org/2000/svg"
xmlns:xlink="http://www.w3.org/1999/xlink" xmlns:cml="http://www.xml-cml.org/schema" width="433.205" height="380" x="0" y="0" font-family="sans-serif" stroke="rgb(0,0,0)" stroke-width="1" >
<line x1="393.2" y1="110.4" x2="393.2" y2="140.0"/>
<line x1="393.2" y1="140.0" x2="358.6" y2="160.0"/>
<line x1="358.6" y1="160.0" x2="323.9" y2="140.0"/>
<line x1="323.9" y1="140.0" x2="323.9" y2="100.0"/>
<line x1="323.9" y1="100.0" x2="289.3" y2="80.0"/>
<line x1="289.3" y1="80.0" x2="289.3" y2="50.4"/>
<line x1="290.8" y1="82.6" x2="256.1" y2="102.6"/>
<line x1="287.8" y1="77.4" x2="253.1" y2="97.4"/>
<line x1="254.6" y1="100.0" x2="229.0" y2="85.2"/>
<line x1="254.6" y1="100.0" x2="254.6" y2="140.0"/>
<line x1="254.6" y1="140.0" x2="220.0" y2="160.0"/>
<line x1="220.0" y1="160.0" x2="194.4" y2="145.2"/>
<line x1="223.0" y1="160.0" x2="223.0" y2="200.0"/>
<line x1="217.0" y1="160.0" x2="217.0" y2="200.0"/>
<line x1="220.0" y1="200.0" x2="194.4" y2="214.8"/>
<line x1="220.0" y1="200.0" x2="254.6" y2="220.0"/>
<line x1="140.0" y1="210.7" x2="110.4" y2="210.7"/>
<line x1="140.0" y1="210.7" x2="160.0" y2="176.1"/>
<line x1="142.6" y1="209.2" x2="162.6" y2="243.9"/>
<line x1="137.4" y1="212.2" x2="157.4" y2="246.9"/>
<line x1="160.0" y1="176.1" x2="140.0" y2="141.4"/>
<line x1="254.6" y1="220.0" x2="280.3" y2="205.2"/>
<line x1="257.6" y1="220.0" x2="257.6" y2="260.0"/>
<line x1="251.6" y1="220.0" x2="251.6" y2="260.0"/>
<line x1="160.0" y1="245.4" x2="145.2" y2="271.0"/>
<line x1="160.0" y1="245.4" x2="200.0" y2="245.4"/>
<line x1="140.0" y1="141.4" x2="100.0" y2="141.4"/>
<line x1="254.6" y1="260.0" x2="280.3" y2="274.8"/>
<line x1="254.6" y1="260.0" x2="220.0" y2="280.0"/>
<line x1="200.0" y1="245.4" x2="220.0" y2="280.0"/>
<line x1="100.0" y1="141.4" x2="80.0" y2="106.8"/>
<line x1="233.1" y1="302.0" x2="232.5" y2="302.4"/>
<line x1="231.5" y1="298.3" x2="230.1" y2="299.1"/>
<line x1="229.8" y1="294.6" x2="227.8" y2="295.8"/>
<line x1="228.2" y1="291.0" x2="225.4" y2="292.6"/>
<line x1="226.5" y1="287.3" x2="223.1" y2="289.3"/>
<line x1="224.9" y1="283.6" x2="220.7" y2="286.0"/>
<line x1="223.2" y1="280.0" x2="218.4" y2="282.8"/>
<line x1="220.0" y1="280.0" x2="194.4" y2="294.8"/>
<line x1="77.4" y1="105.3" x2="92.2" y2="79.7"/>
<line x1="82.6" y1="108.3" x2="97.4" y2="82.7"/>
<line x1="80.0" y1="106.8" x2="50.4" y2="106.8"/>
<line x1="185.4" y1="329.6" x2="185.4" y2="310.4"/>
<text x="387.205081" y="108.320000" fill="rgb(102,102,102)"  stroke="rgb(102,102,102)" stroke-width="1" font-size="16" >CH</text>
<text x="411.205081" y="116.000000" fill="rgb(102,102,102)"  stroke="rgb(102,102,102)" stroke-width="1" font-size="13" >3</text>
<text x="94.000000" y="80.473903" fill="rgb(255,12,12)"  stroke="rgb(255,12,12)" stroke-width="1" font-size="16" >O</text>
<text x="24.400000" y="111.594919" fill="rgb(255,12,12)"  stroke="rgb(255,12,12)" stroke-width="1" font-size="16" >HO</text>
<text x="179.358984" y="344.800000" fill="rgb(255,12,12)"  stroke="rgb(255,12,12)" stroke-width="1" font-size="16" >OH</text>
<text x="181.758984" y="308.320000" fill="rgb(255,12,12)"  stroke="rgb(255,12,12)" stroke-width="1" font-size="16" >O</text>
<text x="283.282032" y="48.320000" fill="rgb(191,191,191)"  stroke="rgb(191,191,191)" stroke-width="1" font-size="16" >H</text>
<text x="216.400000" y="88.320000" fill="rgb(191,191,191)"  stroke="rgb(191,191,191)" stroke-width="1" font-size="16" >H</text>
<text x="181.758984" y="148.320000" fill="rgb(191,191,191)"  stroke="rgb(191,191,191)" stroke-width="1" font-size="16" >H</text>
<text x="181.758984" y="224.800000" fill="rgb(191,191,191)"  stroke="rgb(191,191,191)" stroke-width="1" font-size="16" >H</text>
<text x="96.400000" y="215.517968" fill="rgb(191,191,191)"  stroke="rgb(191,191,191)" stroke-width="1" font-size="16" >H</text>
<text x="283.282032" y="208.320000" fill="rgb(191,191,191)"  stroke="rgb(191,191,191)" stroke-width="1" font-size="16" >H</text>
<text x="136.400000" y="284.800000" fill="rgb(191,191,191)"  stroke="rgb(191,191,191)" stroke-width="1" font-size="16" >H</text>
<text x="283.282032" y="284.800000" fill="rgb(191,191,191)"  stroke="rgb(191,191,191)" stroke-width="1" font-size="16" >H</text>
<text x="234.000000" y="319.441016" fill="rgb(191,191,191)"  stroke="rgb(191,191,191)" stroke-width="1" font-size="16" >H</text>
<text font-size="18.000000" fill ="black" font-family="sans-serif"
x="140.000000" y="20.000000" ></text>
<title> - OBDepict</title>
</svg>
