<?xml version="1.0"?>
<svg xmlns="http://www.w3.org/2000/svg"
xmlns:xlink="http://www.w3.org/1999/xlink" xmlns:cml="http://www.xml-cml.org/schema" width="335.657" height="298.564" x="0" y="0" font-family="sans-serif" stroke="rgb(0,0,0)" stroke-width="1" >
<line x1="64.1" y1="135.3" x2="71.7" y2="163.9"/>
<line x1="190.5" y1="249.6" x2="175.7" y2="223.9"/>
<line x1="130.0" y1="94.5" x2="155.7" y2="109.3"/>
<line x1="71.7" y1="163.9" x2="48.3" y2="181.9"/>
<line x1="163.2" y1="246.3" x2="162.5" y2="245.9"/>
<line x1="165.6" y1="243.0" x2="164.2" y2="242.2"/>
<line x1="167.9" y1="239.8" x2="165.8" y2="238.6"/>
<line x1="170.2" y1="236.5" x2="167.5" y2="234.9"/>
<line x1="172.6" y1="233.2" x2="169.1" y2="231.2"/>
<line x1="174.9" y1="230.0" x2="170.8" y2="227.6"/>
<line x1="177.3" y1="226.7" x2="172.4" y2="223.9"/>
<line x1="133.7" y1="122.4" x2="133.3" y2="121.7"/>
<line x1="137.4" y1="120.8" x2="136.6" y2="119.4"/>
<line x1="141.0" y1="119.1" x2="139.8" y2="117.0"/>
<line x1="144.7" y1="117.5" x2="143.1" y2="114.7"/>
<line x1="148.3" y1="115.8" x2="146.3" y2="112.3"/>
<line x1="152.0" y1="114.2" x2="149.6" y2="110.0"/>
<line x1="155.7" y1="112.5" x2="152.9" y2="107.7"/>
<line x1="155.7" y1="109.3" x2="175.7" y2="143.9"/>
<line x1="155.7" y1="109.3" x2="175.7" y2="74.6"/>
<polygon points="141.016166 230.723048 145.016166 203.923048 137.016166 203.923048 " />
<polygon points="189.057182 120.713568 172.193080 141.923048 179.121284 145.923048 " />
<line x1="175.7" y1="71.6" x2="205.3" y2="71.6"/>
<line x1="175.7" y1="77.6" x2="205.3" y2="77.6"/>
<line x1="175.7" y1="74.6" x2="160.9" y2="49.0"/>
<line x1="285.3" y1="40.0" x2="266.1" y2="40.0"/>
<line x1="71.7" y1="163.9" x2="71.7" y2="203.9"/>
<line x1="71.7" y1="203.9" x2="106.4" y2="223.9"/>
<line x1="106.4" y1="223.9" x2="141.0" y2="203.9"/>
<line x1="141.0" y1="203.9" x2="141.0" y2="163.9"/>
<line x1="141.0" y1="163.9" x2="106.4" y2="143.9"/>
<line x1="132.2" y1="167.2" x2="108.0" y2="153.2"/>
<line x1="106.4" y1="143.9" x2="71.7" y2="163.9"/>
<line x1="175.7" y1="223.9" x2="210.3" y2="203.9"/>
<line x1="210.3" y1="203.9" x2="210.3" y2="163.9"/>
<line x1="210.3" y1="163.9" x2="175.7" y2="143.9"/>
<line x1="175.7" y1="143.9" x2="141.0" y2="163.9"/>
<line x1="141.0" y1="203.9" x2="175.7" y2="223.9"/>
<text x="37.781372" y="133.606015" fill="rgb(102,102,102)"  stroke="rgb(102,102,102)" stroke-width="1" font-size="16" >H</text>
<text x="49.781372" y="141.286015" fill="rgb(102,102,102)"  stroke="rgb(102,102,102)" stroke-width="1" font-size="13" >3</text>
<text x="56.281372" y="133.606015" fill="rgb(102,102,102)"  stroke="rgb(102,102,102)" stroke-width="1" font-size="16" >C</text>
<text x="189.657182" y="263.364065" fill="rgb(102,102,102)"  stroke="rgb(102,102,102)" stroke-width="1" font-size="16" >CH</text>
<text x="213.657182" y="268.164065" fill="rgb(102,102,102)"  stroke="rgb(102,102,102)" stroke-width="1" font-size="13" >3</text>
<text x="97.416166" y="97.602032" fill="rgb(102,102,102)"  stroke="rgb(102,102,102)" stroke-width="1" font-size="16" >H</text>
<text x="109.416166" y="105.282032" fill="rgb(102,102,102)"  stroke="rgb(102,102,102)" stroke-width="1" font-size="13" >3</text>
<text x="115.916166" y="97.602032" fill="rgb(102,102,102)"  stroke="rgb(102,102,102)" stroke-width="1" font-size="16" >C</text>
<text x="209.657182" y="79.441016" fill="rgb(255,12,12)"  stroke="rgb(255,12,12)" stroke-width="1" font-size="16" >O</text>
<text x="140.057182" y="48.320000" fill="rgb(255,12,12)"  stroke="rgb(255,12,12)" stroke-width="1" font-size="16" >HO</text>
<text x="289.657182" y="44.800000" fill="rgb(255,12,12)"  stroke="rgb(255,12,12)" stroke-width="1" font-size="16" >OH</text>
<text x="240.057182" y="44.800000" fill="rgb(255,12,12)"  stroke="rgb(255,12,12)" stroke-width="1" font-size="16" >HO</text>
<text x="36.400000" y="193.073506" fill="rgb(191,191,191)"  stroke="rgb(191,191,191)" stroke-width="1" font-size="16" >H</text>
<text x="152.057182" y="263.364065" fill="rgb(191,191,191)"  stroke="rgb(191,191,191)" stroke-width="1" font-size="16" >H</text>
<text x="117.416166" y="134.082032" fill="rgb(191,191,191)"  stroke="rgb(191,191,191)" stroke-width="1" font-size="16" >H</text>
<text x="135.016166" y="248.723048" fill="rgb(191,191,191)"  stroke="rgb(191,191,191)" stroke-width="1" font-size="16" >H</text>
<text x="189.657182" y="117.602032" fill="rgb(191,191,191)"  stroke="rgb(191,191,191)" stroke-width="1" font-size="16" >H</text>
<text font-size="18.000000" fill ="black" font-family="sans-serif"
x="140.000000" y="20.000000" ></text>
<title> - OBDepict</title>
</svg>
