<?xml version="1.0"?>
<svg xmlns="http://www.w3.org/2000/svg"
xmlns:xlink="http://www.w3.org/1999/xlink" xmlns:cml="http://www.xml-cml.org/schema" width="461.051" height="380" x="0" y="0" font-family="sans-serif" stroke="rgb(0,0,0)" stroke-width="1" >
<line x1="49.0" y1="145.2" x2="74.6" y2="160.0"/>
<line x1="74.6" y1="189.6" x2="74.6" y2="160.0"/>
<line x1="326.1" y1="334.8" x2="351.8" y2="320.0"/>
<line x1="377.4" y1="334.8" x2="351.8" y2="320.0"/>
<line x1="178.6" y1="249.6" x2="178.6" y2="220.0"/>
<line x1="222.2" y1="274.8" x2="247.8" y2="260.0"/>
<line x1="213.2" y1="80.0" x2="178.6" y2="100.0"/>
<line x1="210.2" y1="80.0" x2="210.2" y2="50.4"/>
<line x1="216.2" y1="80.0" x2="216.2" y2="50.4"/>
<line x1="351.8" y1="160.0" x2="351.8" y2="200.0"/>
<line x1="350.3" y1="162.6" x2="324.6" y2="147.8"/>
<line x1="353.3" y1="157.4" x2="327.6" y2="142.6"/>
<line x1="74.6" y1="160.0" x2="109.3" y2="140.0"/>
<line x1="351.8" y1="320.0" x2="351.8" y2="280.0"/>
<line x1="213.2" y1="200.0" x2="247.8" y2="220.0"/>
<line x1="143.9" y1="80.0" x2="143.9" y2="50.4"/>
<line x1="386.4" y1="220.0" x2="412.0" y2="205.2"/>
<line x1="213.2" y1="160.0" x2="238.8" y2="145.2"/>
<line x1="282.5" y1="200.0" x2="282.5" y2="170.4"/>
<line x1="109.3" y1="100.0" x2="83.6" y2="85.2"/>
<line x1="386.4" y1="260.0" x2="412.0" y2="274.8"/>
<line x1="282.5" y1="280.0" x2="317.1" y2="260.0"/>
<line x1="317.1" y1="260.0" x2="317.1" y2="220.0"/>
<line x1="317.1" y1="220.0" x2="282.5" y2="200.0"/>
<line x1="282.5" y1="200.0" x2="247.8" y2="220.0"/>
<line x1="280.9" y1="209.2" x2="256.6" y2="223.2"/>
<line x1="247.8" y1="220.0" x2="247.8" y2="260.0"/>
<line x1="247.8" y1="260.0" x2="282.5" y2="280.0"/>
<line x1="256.6" y1="256.8" x2="280.9" y2="270.8"/>
<line x1="351.8" y1="200.0" x2="386.4" y2="220.0"/>
<line x1="386.4" y1="220.0" x2="386.4" y2="260.0"/>
<line x1="379.2" y1="226.0" x2="379.2" y2="254.0"/>
<line x1="386.4" y1="260.0" x2="351.8" y2="280.0"/>
<line x1="351.8" y1="280.0" x2="317.1" y2="260.0"/>
<line x1="350.2" y1="270.8" x2="325.9" y2="256.8"/>
<line x1="317.1" y1="220.0" x2="351.8" y2="200.0"/>
<line x1="325.9" y1="223.2" x2="350.2" y2="209.2"/>
<line x1="143.9" y1="160.0" x2="178.6" y2="140.0"/>
<line x1="178.6" y1="140.0" x2="178.6" y2="100.0"/>
<line x1="171.4" y1="134.0" x2="171.4" y2="106.0"/>
<line x1="178.6" y1="100.0" x2="143.9" y2="80.0"/>
<line x1="143.9" y1="80.0" x2="109.3" y2="100.0"/>
<line x1="142.3" y1="89.2" x2="118.1" y2="103.2"/>
<line x1="109.3" y1="100.0" x2="109.3" y2="140.0"/>
<line x1="109.3" y1="140.0" x2="143.9" y2="160.0"/>
<line x1="118.1" y1="136.8" x2="142.3" y2="150.8"/>
<line x1="213.2" y1="200.0" x2="213.2" y2="160.0"/>
<line x1="206.0" y1="194.0" x2="206.0" y2="166.0"/>
<line x1="213.2" y1="160.0" x2="178.6" y2="140.0"/>
<line x1="143.9" y1="160.0" x2="143.9" y2="200.0"/>
<line x1="143.9" y1="200.0" x2="178.6" y2="220.0"/>
<line x1="152.7" y1="196.8" x2="177.0" y2="210.8"/>
<line x1="178.6" y1="220.0" x2="213.2" y2="200.0"/>
<text x="16.400000" y="148.320000" fill="rgb(102,102,102)"  stroke="rgb(102,102,102)" stroke-width="1" font-size="16" >H</text>
<text x="28.400000" y="156.000000" fill="rgb(102,102,102)"  stroke="rgb(102,102,102)" stroke-width="1" font-size="13" >3</text>
<text x="34.900000" y="148.320000" fill="rgb(102,102,102)"  stroke="rgb(102,102,102)" stroke-width="1" font-size="16" >C</text>
<text x="68.641016" y="204.800000" fill="rgb(102,102,102)"  stroke="rgb(102,102,102)" stroke-width="1" font-size="16" >CH</text>
<text x="92.641016" y="209.600000" fill="rgb(102,102,102)"  stroke="rgb(102,102,102)" stroke-width="1" font-size="13" >3</text>
<text x="293.528129" y="344.800000" fill="rgb(102,102,102)"  stroke="rgb(102,102,102)" stroke-width="1" font-size="16" >H</text>
<text x="305.528129" y="349.600000" fill="rgb(102,102,102)"  stroke="rgb(102,102,102)" stroke-width="1" font-size="13" >3</text>
<text x="312.028129" y="344.800000" fill="rgb(102,102,102)"  stroke="rgb(102,102,102)" stroke-width="1" font-size="16" >C</text>
<text x="380.410162" y="344.800000" fill="rgb(102,102,102)"  stroke="rgb(102,102,102)" stroke-width="1" font-size="16" >CH</text>
<text x="404.410162" y="349.600000" fill="rgb(102,102,102)"  stroke="rgb(102,102,102)" stroke-width="1" font-size="13" >3</text>
<text x="172.564065" y="264.800000" fill="rgb(102,102,102)"  stroke="rgb(102,102,102)" stroke-width="1" font-size="16" >CH</text>
<text x="196.564065" y="269.600000" fill="rgb(102,102,102)"  stroke="rgb(102,102,102)" stroke-width="1" font-size="13" >3</text>
<text x="189.605081" y="284.800000" fill="rgb(102,102,102)"  stroke="rgb(102,102,102)" stroke-width="1" font-size="16" >H</text>
<text x="201.605081" y="289.600000" fill="rgb(102,102,102)"  stroke="rgb(102,102,102)" stroke-width="1" font-size="13" >3</text>
<text x="208.105081" y="284.800000" fill="rgb(102,102,102)"  stroke="rgb(102,102,102)" stroke-width="1" font-size="16" >C</text>
<text x="207.205081" y="48.320000" fill="rgb(255,12,12)"  stroke="rgb(255,12,12)" stroke-width="1" font-size="16" >O</text>
<text x="313.528129" y="148.320000" fill="rgb(255,12,12)"  stroke="rgb(255,12,12)" stroke-width="1" font-size="16" >O</text>
<text x="137.923048" y="48.320000" fill="rgb(255,12,12)"  stroke="rgb(255,12,12)" stroke-width="1" font-size="16" >OH</text>
<text x="415.051178" y="208.320000" fill="rgb(255,12,12)"  stroke="rgb(255,12,12)" stroke-width="1" font-size="16" >OH</text>
<text x="241.846097" y="148.320000" fill="rgb(255,12,12)"  stroke="rgb(255,12,12)" stroke-width="1" font-size="16" >OH</text>
<text x="276.487113" y="168.320000" fill="rgb(255,12,12)"  stroke="rgb(255,12,12)" stroke-width="1" font-size="16" >OH</text>
<text x="59.041016" y="88.320000" fill="rgb(255,12,12)"  stroke="rgb(255,12,12)" stroke-width="1" font-size="16" >HO</text>
<text x="415.051178" y="284.800000" fill="rgb(255,12,12)"  stroke="rgb(255,12,12)" stroke-width="1" font-size="16" >OH</text>
<text font-size="18.000000" fill ="black" font-family="sans-serif"
x="140.000000" y="20.000000" ></text>
<title> - OBDepict</title>
</svg>
