<?xml version="1.0"?>
<svg xmlns="http://www.w3.org/2000/svg"
xmlns:xlink="http://www.w3.org/1999/xlink" xmlns:cml="http://www.xml-cml.org/schema" width="327.846" height="283.923" x="0" y="0" font-family="sans-serif" stroke="rgb(0,0,0)" stroke-width="1" >
<line x1="114.6" y1="233.5" x2="114.6" y2="203.9"/>
<line x1="60.0" y1="109.3" x2="80.0" y2="143.9"/>
<line x1="60.0" y1="109.3" x2="80.0" y2="74.6"/>
<polygon points="53.200000 143.923048 80.000000 147.923048 80.000000 139.923048 " />
<line x1="253.2" y1="203.9" x2="253.2" y2="233.5"/>
<line x1="80.0" y1="71.6" x2="109.6" y2="71.6"/>
<line x1="80.0" y1="77.6" x2="109.6" y2="77.6"/>
<line x1="80.0" y1="74.6" x2="65.2" y2="49.0"/>
<line x1="186.9" y1="203.9" x2="186.9" y2="233.5"/>
<line x1="180.9" y1="203.9" x2="180.9" y2="233.5"/>
<line x1="253.2" y1="123.9" x2="287.8" y2="143.9"/>
<line x1="254.8" y1="133.2" x2="279.0" y2="147.2"/>
<line x1="287.8" y1="143.9" x2="287.8" y2="183.9"/>
<line x1="287.8" y1="183.9" x2="253.2" y2="203.9"/>
<line x1="279.0" y1="180.7" x2="254.8" y2="194.7"/>
<line x1="253.2" y1="203.9" x2="218.6" y2="183.9"/>
<line x1="218.6" y1="183.9" x2="218.6" y2="143.9"/>
<line x1="225.8" y1="177.9" x2="225.8" y2="149.9"/>
<line x1="218.6" y1="143.9" x2="253.2" y2="123.9"/>
<line x1="149.3" y1="183.9" x2="149.3" y2="143.9"/>
<line x1="149.3" y1="143.9" x2="183.9" y2="123.9"/>
<line x1="158.1" y1="147.2" x2="182.3" y2="133.2"/>
<line x1="183.9" y1="123.9" x2="218.6" y2="143.9"/>
<line x1="218.6" y1="183.9" x2="183.9" y2="203.9"/>
<line x1="183.9" y1="203.9" x2="149.3" y2="183.9"/>
<line x1="114.6" y1="203.9" x2="149.3" y2="183.9"/>
<line x1="116.2" y1="194.7" x2="140.5" y2="180.7"/>
<line x1="149.3" y1="143.9" x2="114.6" y2="123.9"/>
<line x1="114.6" y1="123.9" x2="80.0" y2="143.9"/>
<line x1="80.0" y1="143.9" x2="80.0" y2="173.5"/>
<line x1="89.0" y1="189.1" x2="114.6" y2="203.9"/>
<text x="108.641016" y="248.723048" fill="rgb(102,102,102)"  stroke="rgb(102,102,102)" stroke-width="1" font-size="16" >CH</text>
<text x="132.641016" y="253.523048" fill="rgb(102,102,102)"  stroke="rgb(102,102,102)" stroke-width="1" font-size="13" >3</text>
<text x="249.305081" y="259.523048" fill="rgb(255,12,12)"  stroke="rgb(255,12,12)" stroke-width="1" font-size="26" >-</text>
<text x="247.205081" y="248.723048" fill="rgb(255,12,12)"  stroke="rgb(255,12,12)" stroke-width="1" font-size="16" >O</text>
<text x="114.000000" y="79.441016" fill="rgb(255,12,12)"  stroke="rgb(255,12,12)" stroke-width="1" font-size="16" >O</text>
<text x="44.400000" y="48.320000" fill="rgb(255,12,12)"  stroke="rgb(255,12,12)" stroke-width="1" font-size="16" >HO</text>
<text x="177.923048" y="248.723048" fill="rgb(255,12,12)"  stroke="rgb(255,12,12)" stroke-width="1" font-size="16" >O</text>
<text x="76.400000" y="188.723048" fill="rgb(255,12,12)"  stroke="rgb(255,12,12)" stroke-width="1" font-size="16" >O</text>
<text x="36.400000" y="152.243048" fill="rgb(191,191,191)"  stroke="rgb(191,191,191)" stroke-width="1" font-size="16" >H</text>
<text font-size="18.000000" fill ="black" font-family="sans-serif"
x="140.000000" y="20.000000" ></text>
<title> - OBDepict</title>
</svg>
