<?xml version="1.0"?>
<svg xmlns="http://www.w3.org/2000/svg"
xmlns:xlink="http://www.w3.org/1999/xlink" xmlns:cml="http://www.xml-cml.org/schema" width="530.333" height="280" x="0" y="0" font-family="sans-serif" stroke="rgb(0,0,0)" stroke-width="1" >
<line x1="213.2" y1="180.0" x2="178.6" y2="160.0"/>
<line x1="213.2" y1="180.0" x2="247.8" y2="160.0"/>
<line x1="421.1" y1="60.0" x2="421.1" y2="100.0"/>
<line x1="421.1" y1="60.0" x2="446.7" y2="45.2"/>
<line x1="143.9" y1="180.0" x2="178.6" y2="160.0"/>
<line x1="74.6" y1="220.0" x2="49.0" y2="234.8"/>
<line x1="175.6" y1="160.0" x2="175.6" y2="130.4"/>
<line x1="181.6" y1="160.0" x2="181.6" y2="130.4"/>
<line x1="74.6" y1="180.0" x2="49.0" y2="165.2"/>
<line x1="247.8" y1="160.0" x2="282.5" y2="180.0"/>
<line x1="244.8" y1="160.0" x2="244.8" y2="130.4"/>
<line x1="250.8" y1="160.0" x2="250.8" y2="130.4"/>
<line x1="282.5" y1="220.0" x2="256.9" y2="234.8"/>
<line x1="351.8" y1="220.0" x2="377.4" y2="234.8"/>
<line x1="351.8" y1="180.0" x2="386.4" y2="160.0"/>
<line x1="455.7" y1="120.0" x2="481.3" y2="105.2"/>
<line x1="317.1" y1="160.0" x2="317.1" y2="130.4"/>
<line x1="455.7" y1="160.0" x2="481.3" y2="174.8"/>
<line x1="421.1" y1="180.0" x2="421.1" y2="209.6"/>
<line x1="143.9" y1="220.0" x2="143.9" y2="180.0"/>
<line x1="143.9" y1="180.0" x2="109.3" y2="160.0"/>
<line x1="135.1" y1="183.2" x2="110.9" y2="169.2"/>
<line x1="109.3" y1="160.0" x2="74.6" y2="180.0"/>
<line x1="74.6" y1="180.0" x2="74.6" y2="220.0"/>
<line x1="81.8" y1="186.0" x2="81.8" y2="214.0"/>
<line x1="74.6" y1="220.0" x2="109.3" y2="240.0"/>
<line x1="109.3" y1="240.0" x2="143.9" y2="220.0"/>
<line x1="110.9" y1="230.8" x2="135.1" y2="216.8"/>
<line x1="317.1" y1="240.0" x2="351.8" y2="220.0"/>
<line x1="351.8" y1="220.0" x2="351.8" y2="180.0"/>
<line x1="344.6" y1="214.0" x2="344.6" y2="186.0"/>
<line x1="351.8" y1="180.0" x2="317.1" y2="160.0"/>
<line x1="317.1" y1="160.0" x2="282.5" y2="180.0"/>
<line x1="315.5" y1="169.2" x2="291.3" y2="183.2"/>
<line x1="282.5" y1="180.0" x2="282.5" y2="220.0"/>
<line x1="282.5" y1="220.0" x2="317.1" y2="240.0"/>
<line x1="291.3" y1="216.8" x2="315.5" y2="230.8"/>
<line x1="455.7" y1="160.0" x2="421.1" y2="180.0"/>
<line x1="421.1" y1="180.0" x2="386.4" y2="160.0"/>
<line x1="386.4" y1="160.0" x2="386.4" y2="130.4"/>
<line x1="395.4" y1="114.8" x2="421.1" y2="100.0"/>
<line x1="421.1" y1="100.0" x2="455.7" y2="120.0"/>
<line x1="455.7" y1="120.0" x2="455.7" y2="160.0"/>
<text x="449.692194" y="48.320000" fill="rgb(255,12,12)"  stroke="rgb(255,12,12)" stroke-width="1" font-size="16" >OH</text>
<text x="35.200000" y="259.200000" fill="rgb(255,12,12)"  stroke="rgb(255,12,12)" stroke-width="1" font-size="32" >-</text>
<text x="36.400000" y="244.800000" fill="rgb(255,12,12)"  stroke="rgb(255,12,12)" stroke-width="1" font-size="16" >O</text>
<text x="172.564065" y="128.320000" fill="rgb(255,12,12)"  stroke="rgb(255,12,12)" stroke-width="1" font-size="16" >O</text>
<text x="24.400000" y="168.320000" fill="rgb(255,12,12)"  stroke="rgb(255,12,12)" stroke-width="1" font-size="16" >HO</text>
<text x="241.846097" y="128.320000" fill="rgb(255,12,12)"  stroke="rgb(255,12,12)" stroke-width="1" font-size="16" >O</text>
<text x="232.246097" y="244.800000" fill="rgb(255,12,12)"  stroke="rgb(255,12,12)" stroke-width="1" font-size="16" >HO</text>
<text x="380.410162" y="244.800000" fill="rgb(255,12,12)"  stroke="rgb(255,12,12)" stroke-width="1" font-size="16" >OH</text>
<text x="484.333210" y="108.320000" fill="rgb(255,12,12)"  stroke="rgb(255,12,12)" stroke-width="1" font-size="16" >OH</text>
<text x="311.128129" y="128.320000" fill="rgb(255,12,12)"  stroke="rgb(255,12,12)" stroke-width="1" font-size="16" >OH</text>
<text x="484.333210" y="184.800000" fill="rgb(255,12,12)"  stroke="rgb(255,12,12)" stroke-width="1" font-size="16" >OH</text>
<text x="415.051178" y="224.800000" fill="rgb(255,12,12)"  stroke="rgb(255,12,12)" stroke-width="1" font-size="16" >OH</text>
<text x="382.810162" y="128.320000" fill="rgb(255,12,12)"  stroke="rgb(255,12,12)" stroke-width="1" font-size="16" >O</text>
<text font-size="18.000000" fill ="black" font-family="sans-serif"
x="140.000000" y="20.000000" ></text>
<title> - OBDepict</title>
</svg>
