<?xml version="1.0"?>
<svg xmlns="http://www.w3.org/2000/svg"
xmlns:xlink="http://www.w3.org/1999/xlink" xmlns:cml="http://www.xml-cml.org/schema" width="770.115" height="561.31" x="0" y="0" font-family="sans-serif" stroke="rgb(0,0,0)" stroke-width="1" >
<line x1="86.9" y1="352.8" x2="78.0" y2="325.4"/>
<line x1="49.9" y1="319.5" x2="78.0" y2="325.4"/>
<line x1="128.7" y1="247.7" x2="156.1" y2="238.8"/>
<line x1="454.9" y1="115.5" x2="476.2" y2="134.7"/>
<line x1="448.9" y1="143.6" x2="476.2" y2="134.7"/>
<line x1="142.1" y1="304.6" x2="104.0" y2="296.6"/>
<line x1="142.1" y1="304.6" x2="168.1" y2="275.7"/>
<line x1="104.0" y1="296.6" x2="78.0" y2="325.4"/>
<line x1="168.1" y1="275.7" x2="156.1" y2="238.8"/>
<line x1="388.2" y1="81.6" x2="426.2" y2="89.7"/>
<line x1="388.2" y1="81.6" x2="362.2" y2="110.5"/>
<line x1="426.2" y1="89.7" x2="445.4" y2="68.3"/>
<line x1="348.2" y1="176.4" x2="310.1" y2="168.3"/>
<line x1="348.2" y1="176.4" x2="367.4" y2="155.0"/>
<line x1="310.1" y1="168.3" x2="290.9" y2="189.7"/>
<line x1="220.1" y1="218.0" x2="182.1" y2="209.9"/>
<line x1="220.1" y1="218.0" x2="246.1" y2="189.1"/>
<line x1="470.1" y1="350.6" x2="508.1" y2="358.7"/>
<line x1="470.1" y1="350.6" x2="461.2" y2="323.2"/>
<line x1="500.3" y1="208.7" x2="476.2" y2="134.7"/>
<line x1="500.3" y1="208.7" x2="481.0" y2="230.1"/>
<line x1="137.3" y1="222.4" x2="137.8" y2="221.8"/>
<line x1="139.9" y1="225.3" x2="141.0" y2="224.1"/>
<line x1="142.5" y1="228.2" x2="144.1" y2="226.4"/>
<line x1="145.2" y1="231.1" x2="147.3" y2="228.7"/>
<line x1="147.8" y1="234.0" x2="150.5" y2="231.0"/>
<line x1="150.4" y1="236.9" x2="153.6" y2="233.4"/>
<line x1="153.0" y1="239.8" x2="156.8" y2="235.7"/>
<line x1="156.1" y1="238.8" x2="182.1" y2="209.9"/>
<line x1="179.2" y1="210.8" x2="170.3" y2="183.5"/>
<line x1="184.9" y1="209.0" x2="176.0" y2="181.6"/>
<polygon points="500.069985 333.907330 504.314128 359.913732 511.922580 357.441596 " />
<line x1="365.0" y1="109.6" x2="373.9" y2="136.9"/>
<line x1="359.3" y1="111.4" x2="368.2" y2="138.8"/>
<line x1="362.2" y1="110.5" x2="334.0" y2="104.5"/>
<line x1="243.3" y1="190.0" x2="234.4" y2="162.7"/>
<line x1="249.0" y1="188.2" x2="240.1" y2="160.8"/>
<line x1="246.1" y1="189.1" x2="274.2" y2="195.1"/>
<polygon points="531.519096 437.919456 543.371691 414.385190 535.763239 411.913054 " />
<line x1="539.6" y1="413.1" x2="558.8" y2="434.5"/>
<polygon points="478.009924 397.337951 504.054994 401.337951 504.054994 393.337951 " />
<line x1="504.1" y1="397.3" x2="489.7" y2="422.3"/>
<line x1="502.2" y1="105.9" x2="529.6" y2="97.0"/>
<line x1="502.2" y1="105.9" x2="490.2" y2="68.9"/>
<line x1="502.2" y1="105.9" x2="476.2" y2="134.7"/>
<line x1="502.2" y1="105.9" x2="523.6" y2="125.1"/>
<line x1="705.7" y1="485.0" x2="716.0" y2="511.9"/>
<line x1="489.6" y1="71.8" x2="461.5" y2="65.8"/>
<line x1="490.9" y1="66.0" x2="462.7" y2="60.0"/>
<line x1="490.2" y1="68.9" x2="509.5" y2="47.5"/>
<polygon points="582.154133 364.170826 562.493342 381.715028 568.664137 386.806323 " />
<line x1="565.6" y1="384.3" x2="601.8" y2="429.0"/>
<line x1="445.7" y1="459.8" x2="445.7" y2="441.1"/>
<line x1="417.0" y1="431.0" x2="435.6" y2="431.0"/>
<line x1="448.7" y1="402.2" x2="448.7" y2="420.9"/>
<line x1="442.7" y1="402.2" x2="442.7" y2="420.9"/>
<line x1="414.1" y1="333.7" x2="418.0" y2="315.4"/>
<line x1="392.5" y1="296.6" x2="410.8" y2="300.5"/>
<line x1="391.3" y1="302.5" x2="409.5" y2="306.4"/>
<line x1="408.1" y1="223.5" x2="426.3" y2="227.4"/>
<line x1="445.1" y1="202.0" x2="441.3" y2="220.2"/>
<line x1="439.3" y1="200.7" x2="435.4" y2="219.0"/>
<line x1="448.2" y1="311.5" x2="429.9" y2="307.6"/>
<line x1="464.4" y1="235.5" x2="446.1" y2="231.6"/>
<line x1="474.5" y1="431.0" x2="455.9" y2="431.0"/>
<line x1="426.0" y1="277.4" x2="422.2" y2="295.7"/>
<line x1="430.2" y1="257.6" x2="434.1" y2="239.4"/>
<line x1="604.4" y1="482.2" x2="611.9" y2="454.4"/>
<line x1="624.6" y1="444.2" x2="653.3" y2="442.6"/>
<line x1="653.3" y1="442.6" x2="667.3" y2="478.9"/>
<line x1="667.3" y1="478.9" x2="644.9" y2="497.0"/>
<line x1="628.6" y1="497.9" x2="604.4" y2="482.2"/>
<line x1="630.7" y1="490.7" x2="613.4" y2="479.5"/>
<line x1="508.1" y1="358.7" x2="504.1" y2="397.3"/>
<line x1="504.1" y1="397.3" x2="539.6" y2="413.1"/>
<line x1="539.6" y1="413.1" x2="565.6" y2="384.3"/>
<line x1="565.6" y1="384.3" x2="551.2" y2="359.3"/>
<line x1="536.3" y1="352.7" x2="508.1" y2="358.7"/>
<line x1="653.3" y1="442.6" x2="671.4" y2="420.3"/>
<line x1="662.7" y1="442.5" x2="675.7" y2="426.5"/>
<line x1="687.8" y1="414.0" x2="716.2" y2="418.5"/>
<line x1="716.2" y1="418.5" x2="726.5" y2="445.4"/>
<line x1="711.6" y1="426.7" x2="719.0" y2="446.0"/>
<line x1="723.8" y1="462.7" x2="705.7" y2="485.0"/>
<line x1="705.7" y1="485.0" x2="667.3" y2="478.9"/>
<line x1="700.9" y1="477.0" x2="674.3" y2="472.8"/>
<text x="84.036258" y="367.214758" fill="rgb(102,102,102)"  stroke="rgb(102,102,102)" stroke-width="1" font-size="16" >CH</text>
<text x="108.036258" y="372.014758" fill="rgb(102,102,102)"  stroke="rgb(102,102,102)" stroke-width="1" font-size="13" >3</text>
<text x="16.400000" y="325.681909" fill="rgb(102,102,102)"  stroke="rgb(102,102,102)" stroke-width="1" font-size="16" >H</text>
<text x="28.400000" y="333.361909" fill="rgb(102,102,102)"  stroke="rgb(102,102,102)" stroke-width="1" font-size="13" >3</text>
<text x="34.900000" y="325.681909" fill="rgb(102,102,102)"  stroke="rgb(102,102,102)" stroke-width="1" font-size="16" >C</text>
<text x="95.486941" y="255.591262" fill="rgb(102,102,102)"  stroke="rgb(102,102,102)" stroke-width="1" font-size="16" >H</text>
<text x="107.486941" y="260.391262" fill="rgb(102,102,102)"  stroke="rgb(102,102,102)" stroke-width="1" font-size="13" >3</text>
<text x="113.986941" y="255.591262" fill="rgb(102,102,102)"  stroke="rgb(102,102,102)" stroke-width="1" font-size="16" >C</text>
<text x="423.744343" y="117.056267" fill="rgb(102,102,102)"  stroke="rgb(102,102,102)" stroke-width="1" font-size="16" >H</text>
<text x="435.744343" y="124.736267" fill="rgb(102,102,102)"  stroke="rgb(102,102,102)" stroke-width="1" font-size="13" >3</text>
<text x="442.244343" y="117.056267" fill="rgb(102,102,102)"  stroke="rgb(102,102,102)" stroke-width="1" font-size="16" >C</text>
<text x="415.662142" y="151.560033" fill="rgb(102,102,102)"  stroke="rgb(102,102,102)" stroke-width="1" font-size="16" >H</text>
<text x="427.662142" y="156.360033" fill="rgb(102,102,102)"  stroke="rgb(102,102,102)" stroke-width="1" font-size="13" >3</text>
<text x="434.162142" y="151.560033" fill="rgb(102,102,102)"  stroke="rgb(102,102,102)" stroke-width="1" font-size="16" >C</text>
<text x="713.582641" y="526.110275" fill="rgb(12,12,255)"  stroke="rgb(12,12,255)" stroke-width="1" font-size="16" >NH</text>
<text x="737.582641" y="530.910275" fill="rgb(12,12,255)"  stroke="rgb(12,12,255)" stroke-width="1" font-size="13" >2</text>
<text x="368.173983" y="152.271586" fill="rgb(12,12,255)"  stroke="rgb(12,12,255)" stroke-width="1" font-size="16" >N</text>
<text x="448.607806" y="69.126246" fill="rgb(12,12,255)"  stroke="rgb(12,12,255)" stroke-width="1" font-size="16" >N</text>
<text x="724.115440" y="459.608798" fill="rgb(12,12,255)"  stroke="rgb(12,12,255)" stroke-width="1" font-size="16" >N</text>
<text x="674.189871" y="420.756388" fill="rgb(12,12,255)"  stroke="rgb(12,12,255)" stroke-width="1" font-size="16" >N</text>
<text x="631.046891" y="508.201587" fill="rgb(12,12,255)"  stroke="rgb(12,12,255)" stroke-width="1" font-size="16" >N</text>
<text x="608.506184" y="449.481038" fill="rgb(12,12,255)"  stroke="rgb(12,12,255)" stroke-width="1" font-size="16" >N</text>
<text x="166.456371" y="181.239676" fill="rgb(255,12,12)"  stroke="rgb(255,12,12)" stroke-width="1" font-size="16" >O</text>
<text x="319.337726" y="96.018737" fill="rgb(255,12,12)"  stroke="rgb(255,12,12)" stroke-width="1" font-size="32" >-</text>
<text x="320.537726" y="110.738737" fill="rgb(255,12,12)"  stroke="rgb(255,12,12)" stroke-width="1" font-size="16" >O</text>
<text x="230.491412" y="160.433430" fill="rgb(255,12,12)"  stroke="rgb(255,12,12)" stroke-width="1" font-size="16" >O</text>
<text x="559.578740" y="446.837569" fill="rgb(255,12,12)"  stroke="rgb(255,12,12)" stroke-width="1" font-size="16" >OH</text>
<text x="525.132511" y="136.670369" fill="rgb(255,12,12)"  stroke="rgb(255,12,12)" stroke-width="1" font-size="16" >OH</text>
<text x="511.442846" y="33.600000" fill="rgb(255,12,12)"  stroke="rgb(255,12,12)" stroke-width="1" font-size="32" >-</text>
<text x="510.242846" y="48.320000" fill="rgb(255,12,12)"  stroke="rgb(255,12,12)" stroke-width="1" font-size="16" >O</text>
<text x="440.945135" y="489.076404" fill="rgb(255,12,12)"  stroke="rgb(255,12,12)" stroke-width="1" font-size="32" >-</text>
<text x="439.745135" y="474.676404" fill="rgb(255,12,12)"  stroke="rgb(255,12,12)" stroke-width="1" font-size="16" >O</text>
<text x="402.071896" y="424.603164" fill="rgb(255,12,12)"  stroke="rgb(255,12,12)" stroke-width="1" font-size="32" >-</text>
<text x="403.271896" y="439.323164" fill="rgb(255,12,12)"  stroke="rgb(255,12,12)" stroke-width="1" font-size="16" >O</text>
<text x="439.745135" y="400.449925" fill="rgb(255,12,12)"  stroke="rgb(255,12,12)" stroke-width="1" font-size="16" >O</text>
<text x="396.376130" y="348.366380" fill="rgb(255,12,12)"  stroke="rgb(255,12,12)" stroke-width="1" font-size="16" >HO</text>
<text x="378.434565" y="305.780413" fill="rgb(255,12,12)"  stroke="rgb(255,12,12)" stroke-width="1" font-size="16" >O</text>
<text x="382.598967" y="229.732881" fill="rgb(255,12,12)"  stroke="rgb(255,12,12)" stroke-width="1" font-size="16" >HO</text>
<text x="438.304934" y="199.791316" fill="rgb(255,12,12)"  stroke="rgb(255,12,12)" stroke-width="1" font-size="16" >O</text>
<text x="452.082097" y="321.944815" fill="rgb(255,12,12)"  stroke="rgb(255,12,12)" stroke-width="1" font-size="16" >O</text>
<text x="468.246498" y="242.377283" fill="rgb(255,12,12)"  stroke="rgb(255,12,12)" stroke-width="1" font-size="16" >O</text>
<text x="540.142120" y="358.915463" fill="rgb(255,12,12)"  stroke="rgb(255,12,12)" stroke-width="1" font-size="16" >O</text>
<text x="478.618374" y="435.803164" fill="rgb(255,12,12)"  stroke="rgb(255,12,12)" stroke-width="1" font-size="16" >O</text>
<text x="422.140532" y="272.318848" fill="rgb(255,12,12)"  stroke="rgb(255,12,12)" stroke-width="1" font-size="16" >O</text>
<text x="439.745135" y="435.803164" fill="rgb(255,127,0)"  stroke="rgb(255,127,0)" stroke-width="1" font-size="16" >P</text>
<text x="414.058331" y="313.862614" fill="rgb(255,127,0)"  stroke="rgb(255,127,0)" stroke-width="1" font-size="16" >P</text>
<text x="430.222733" y="234.295082" fill="rgb(255,127,0)"  stroke="rgb(255,127,0)" stroke-width="1" font-size="16" >P</text>
<text x="278.127669" y="201.966279" fill="rgb(178,178,0)"  stroke="rgb(178,178,0)" stroke-width="1" font-size="16" >S</text>
<text x="123.569142" y="221.087496" fill="rgb(191,191,191)"  stroke="rgb(191,191,191)" stroke-width="1" font-size="16" >H</text>
<text x="492.505862" y="330.027016" fill="rgb(191,191,191)"  stroke="rgb(191,191,191)" stroke-width="1" font-size="16" >H</text>
<text x="523.954974" y="454.919770" fill="rgb(191,191,191)"  stroke="rgb(191,191,191)" stroke-width="1" font-size="16" >H</text>
<text x="461.581755" y="405.657951" fill="rgb(191,191,191)"  stroke="rgb(191,191,191)" stroke-width="1" font-size="16" >H</text>
<text x="533.214711" y="102.166603" fill="rgb(191,191,191)"  stroke="rgb(191,191,191)" stroke-width="1" font-size="16" >H</text>
<text x="584.318132" y="362.595826" fill="rgb(191,191,191)"  stroke="rgb(191,191,191)" stroke-width="1" font-size="16" >H</text>
<text font-size="18.000000" fill ="black" font-family="sans-serif"
x="140.000000" y="20.000000" ></text>
<title> - OBDepict</title>
</svg>
