<?xml version="1.0"?>
<svg xmlns="http://www.w3.org/2000/svg"
xmlns:xlink="http://www.w3.org/1999/xlink" xmlns:cml="http://www.xml-cml.org/schema" width="607.094" height="505.749" x="0" y="0" font-family="sans-serif" stroke="rgb(0,0,0)" stroke-width="1" >
<line x1="237.3" y1="92.3" x2="207.7" y2="93.8"/>
<line x1="221.2" y1="67.4" x2="207.7" y2="93.8"/>
<line x1="109.2" y1="199.1" x2="107.1" y2="159.2"/>
<line x1="109.2" y1="199.1" x2="75.6" y2="220.9"/>
<line x1="107.1" y1="159.2" x2="131.9" y2="143.0"/>
<line x1="44.2" y1="282.6" x2="46.3" y2="322.6"/>
<line x1="44.2" y1="282.6" x2="69.0" y2="266.5"/>
<line x1="46.3" y1="322.6" x2="72.7" y2="336.0"/>
<line x1="151.1" y1="337.1" x2="153.2" y2="377.0"/>
<line x1="151.1" y1="337.1" x2="115.5" y2="318.9"/>
<line x1="365.2" y1="245.8" x2="367.3" y2="285.7"/>
<line x1="365.2" y1="245.8" x2="338.8" y2="232.3"/>
<line x1="209.8" y1="133.7" x2="207.7" y2="93.8"/>
<line x1="209.8" y1="133.7" x2="236.2" y2="147.2"/>
<line x1="342.6" y1="292.5" x2="342.4" y2="291.7"/>
<line x1="346.6" y1="291.9" x2="346.2" y2="290.3"/>
<line x1="350.5" y1="291.3" x2="349.9" y2="289.0"/>
<line x1="354.5" y1="290.7" x2="353.7" y2="287.6"/>
<line x1="358.5" y1="290.0" x2="357.5" y2="286.2"/>
<line x1="362.5" y1="289.4" x2="361.3" y2="284.8"/>
<line x1="366.4" y1="288.8" x2="365.0" y2="283.4"/>
<line x1="78.6" y1="220.7" x2="80.2" y2="250.3"/>
<line x1="72.6" y1="221.0" x2="74.2" y2="250.6"/>
<line x1="75.6" y1="220.9" x2="49.3" y2="207.4"/>
<line x1="112.5" y1="319.1" x2="110.9" y2="289.5"/>
<line x1="118.5" y1="318.8" x2="116.9" y2="289.2"/>
<line x1="115.5" y1="318.9" x2="90.6" y2="335.1"/>
<polygon points="391.357776 367.251626 403.443657 342.999380 395.835205 340.527244 " />
<line x1="399.6" y1="341.8" x2="419.4" y2="363.8"/>
<polygon points="336.297613 325.493846 363.097613 329.493846 363.097613 321.493846 " />
<line x1="363.1" y1="325.5" x2="348.3" y2="351.1"/>
<polygon points="184.260798 51.761286 168.529827 73.824299 175.657879 77.456223 " />
<line x1="172.1" y1="75.6" x2="138.5" y2="97.4"/>
<line x1="172.1" y1="75.6" x2="207.7" y2="93.8"/>
<line x1="172.1" y1="75.6" x2="156.0" y2="50.8"/>
<line x1="527.3" y1="215.9" x2="556.8" y2="212.8"/>
<line x1="141.5" y1="97.3" x2="143.1" y2="126.8"/>
<line x1="135.6" y1="97.6" x2="137.1" y2="127.1"/>
<line x1="138.5" y1="97.4" x2="112.2" y2="84.0"/>
<line x1="447.4" y1="326.8" x2="446.9" y2="327.4"/>
<line x1="444.3" y1="324.1" x2="443.4" y2="325.4"/>
<line x1="441.3" y1="321.4" x2="439.9" y2="323.4"/>
<line x1="438.3" y1="318.7" x2="436.5" y2="321.3"/>
<line x1="435.3" y1="316.1" x2="433.0" y2="319.3"/>
<line x1="432.3" y1="313.4" x2="429.5" y2="317.3"/>
<line x1="429.3" y1="310.7" x2="426.1" y2="315.2"/>
<line x1="426.4" y1="312.0" x2="453.4" y2="300.0"/>
<line x1="303.1" y1="330.5" x2="303.1" y2="349.7"/>
<line x1="273.5" y1="360.1" x2="292.7" y2="360.1"/>
<line x1="300.1" y1="389.7" x2="300.1" y2="370.5"/>
<line x1="306.1" y1="389.7" x2="306.1" y2="370.5"/>
<line x1="325.9" y1="158.1" x2="326.9" y2="177.3"/>
<line x1="357.2" y1="189.1" x2="338.0" y2="190.1"/>
<line x1="356.9" y1="183.1" x2="337.7" y2="184.1"/>
<line x1="218.0" y1="193.4" x2="237.2" y2="192.4"/>
<line x1="246.1" y1="221.6" x2="245.1" y2="202.4"/>
<line x1="252.1" y1="221.3" x2="251.1" y2="202.1"/>
<line x1="329.0" y1="217.2" x2="328.0" y2="198.0"/>
<line x1="246.0" y1="162.3" x2="247.0" y2="181.5"/>
<line x1="332.7" y1="360.1" x2="313.5" y2="360.1"/>
<line x1="297.9" y1="189.2" x2="317.1" y2="188.2"/>
<line x1="277.1" y1="190.3" x2="257.9" y2="191.3"/>
<line x1="122.1" y1="402.2" x2="153.2" y2="377.0"/>
<line x1="131.3" y1="404.0" x2="153.1" y2="386.4"/>
<line x1="153.2" y1="377.0" x2="186.7" y2="398.8"/>
<line x1="186.7" y1="398.8" x2="176.4" y2="437.5"/>
<line x1="176.4" y1="437.5" x2="146.8" y2="439.0"/>
<line x1="132.7" y1="429.8" x2="122.1" y2="402.2"/>
<line x1="497.6" y1="315.8" x2="472.0" y2="301.0"/>
<line x1="465.1" y1="285.6" x2="471.3" y2="256.6"/>
<line x1="471.3" y1="256.6" x2="511.0" y2="252.5"/>
<line x1="511.0" y1="252.5" x2="523.1" y2="279.5"/>
<line x1="519.6" y1="296.0" x2="497.6" y2="315.8"/>
<line x1="513.3" y1="291.9" x2="497.2" y2="306.4"/>
<line x1="367.3" y1="285.7" x2="363.1" y2="325.5"/>
<line x1="363.1" y1="325.5" x2="399.6" y2="341.8"/>
<line x1="399.6" y1="341.8" x2="426.4" y2="312.0"/>
<line x1="426.4" y1="312.0" x2="411.6" y2="286.4"/>
<line x1="396.2" y1="279.6" x2="367.3" y2="285.7"/>
<line x1="253.7" y1="416.8" x2="243.3" y2="455.4"/>
<line x1="245.2" y1="420.7" x2="237.9" y2="447.7"/>
<line x1="243.3" y1="455.4" x2="204.7" y2="465.7"/>
<line x1="204.7" y1="465.7" x2="176.4" y2="437.5"/>
<line x1="205.5" y1="456.4" x2="185.7" y2="436.6"/>
<line x1="186.7" y1="398.8" x2="225.4" y2="388.5"/>
<line x1="194.4" y1="404.2" x2="221.5" y2="397.0"/>
<line x1="225.4" y1="388.5" x2="253.7" y2="416.8"/>
<line x1="471.3" y1="256.6" x2="453.9" y2="232.7"/>
<line x1="473.6" y1="247.6" x2="460.9" y2="230.1"/>
<line x1="452.0" y1="214.8" x2="464.0" y2="187.7"/>
<line x1="464.0" y1="187.7" x2="493.5" y2="184.6"/>
<line x1="470.7" y1="194.3" x2="492.2" y2="192.0"/>
<line x1="509.9" y1="192.0" x2="527.3" y2="215.9"/>
<line x1="527.3" y1="215.9" x2="511.0" y2="252.5"/>
<line x1="518.3" y1="218.5" x2="506.9" y2="244.1"/>
<text x="241.679295" y="100.026443" fill="rgb(102,102,102)"  stroke="rgb(102,102,102)" stroke-width="1" font-size="16" >CH</text>
<text x="265.679295" y="107.706443" fill="rgb(102,102,102)"  stroke="rgb(102,102,102)" stroke-width="1" font-size="13" >3</text>
<text x="219.893734" y="66.479620" fill="rgb(102,102,102)"  stroke="rgb(102,102,102)" stroke-width="1" font-size="16" >CH</text>
<text x="243.893734" y="74.159620" fill="rgb(102,102,102)"  stroke="rgb(102,102,102)" stroke-width="1" font-size="13" >3</text>
<text x="561.094159" y="220.058053" fill="rgb(12,12,255)"  stroke="rgb(12,12,255)" stroke-width="1" font-size="16" >NH</text>
<text x="585.094159" y="227.738053" fill="rgb(12,12,255)"  stroke="rgb(12,12,255)" stroke-width="1" font-size="13" >2</text>
<text x="71.733699" y="265.632489" fill="rgb(12,12,255)"  stroke="rgb(12,12,255)" stroke-width="1" font-size="16" >N</text>
<text x="134.640468" y="142.171004" fill="rgb(12,12,255)"  stroke="rgb(12,12,255)" stroke-width="1" font-size="16" >N</text>
<text x="120.849977" y="444.358125" fill="rgb(12,12,255)"  stroke="rgb(12,12,255)" stroke-width="1" font-size="16" >HN</text>
<text x="497.801873" y="191.878512" fill="rgb(12,12,255)"  stroke="rgb(12,12,255)" stroke-width="1" font-size="16" >N</text>
<text x="444.151531" y="229.081469" fill="rgb(12,12,255)"  stroke="rgb(12,12,255)" stroke-width="1" font-size="16" >N</text>
<text x="521.313283" y="293.802829" fill="rgb(12,12,255)"  stroke="rgb(12,12,255)" stroke-width="1" font-size="16" >N</text>
<text x="459.346474" y="300.568053" fill="rgb(12,12,255)"  stroke="rgb(12,12,255)" stroke-width="1" font-size="16" >N</text>
<text x="35.200000" y="196.327688" fill="rgb(255,12,12)"  stroke="rgb(255,12,12)" stroke-width="1" font-size="32" >-</text>
<text x="36.400000" y="211.047688" fill="rgb(255,12,12)"  stroke="rgb(255,12,12)" stroke-width="1" font-size="16" >O</text>
<text x="109.773960" y="287.312109" fill="rgb(255,12,12)"  stroke="rgb(255,12,12)" stroke-width="1" font-size="16" >O</text>
<text x="420.404655" y="376.289105" fill="rgb(255,12,12)"  stroke="rgb(255,12,12)" stroke-width="1" font-size="16" >OH</text>
<text x="134.708291" y="50.413438" fill="rgb(255,12,12)"  stroke="rgb(255,12,12)" stroke-width="1" font-size="16" >HO</text>
<text x="98.106769" y="72.866202" fill="rgb(255,12,12)"  stroke="rgb(255,12,12)" stroke-width="1" font-size="32" >-</text>
<text x="99.306769" y="87.586202" fill="rgb(255,12,12)"  stroke="rgb(255,12,12)" stroke-width="1" font-size="16" >O</text>
<text x="298.297613" y="313.734862" fill="rgb(255,12,12)"  stroke="rgb(255,12,12)" stroke-width="1" font-size="32" >-</text>
<text x="297.097613" y="328.454862" fill="rgb(255,12,12)"  stroke="rgb(255,12,12)" stroke-width="1" font-size="16" >O</text>
<text x="258.297613" y="379.334862" fill="rgb(255,12,12)"  stroke="rgb(255,12,12)" stroke-width="1" font-size="32" >-</text>
<text x="259.497613" y="364.934862" fill="rgb(255,12,12)"  stroke="rgb(255,12,12)" stroke-width="1" font-size="16" >O</text>
<text x="297.097613" y="404.934862" fill="rgb(255,12,12)"  stroke="rgb(255,12,12)" stroke-width="1" font-size="16" >O</text>
<text x="309.758176" y="156.037806" fill="rgb(255,12,12)"  stroke="rgb(255,12,12)" stroke-width="1" font-size="16" >HO</text>
<text x="361.396795" y="193.889549" fill="rgb(255,12,12)"  stroke="rgb(255,12,12)" stroke-width="1" font-size="16" >O</text>
<text x="192.016070" y="198.743302" fill="rgb(255,12,12)"  stroke="rgb(255,12,12)" stroke-width="1" font-size="16" >HO</text>
<text x="243.654689" y="236.595045" fill="rgb(255,12,12)"  stroke="rgb(255,12,12)" stroke-width="1" font-size="16" >O</text>
<text x="325.945052" y="232.408169" fill="rgb(255,12,12)"  stroke="rgb(255,12,12)" stroke-width="1" font-size="16" >O</text>
<text x="239.467813" y="160.224682" fill="rgb(255,12,12)"  stroke="rgb(255,12,12)" stroke-width="1" font-size="16" >O</text>
<text x="400.404655" y="285.716502" fill="rgb(255,12,12)"  stroke="rgb(255,12,12)" stroke-width="1" font-size="16" >O</text>
<text x="337.097613" y="364.934862" fill="rgb(255,12,12)"  stroke="rgb(255,12,12)" stroke-width="1" font-size="16" >O</text>
<text x="281.506432" y="194.556425" fill="rgb(255,12,12)"  stroke="rgb(255,12,12)" stroke-width="1" font-size="16" >O</text>
<text x="297.097613" y="368.454862" fill="rgb(255,127,0)"  stroke="rgb(255,127,0)" stroke-width="1" font-size="16" >P</text>
<text x="321.451614" y="192.462987" fill="rgb(255,127,0)"  stroke="rgb(255,127,0)" stroke-width="1" font-size="16" >P</text>
<text x="241.561251" y="200.169864" fill="rgb(255,127,0)"  stroke="rgb(255,127,0)" stroke-width="1" font-size="16" >P</text>
<text x="75.920576" y="345.522852" fill="rgb(178,178,0)"  stroke="rgb(178,178,0)" stroke-width="1" font-size="16" >S</text>
<text x="324.948517" y="300.511419" fill="rgb(191,191,191)"  stroke="rgb(191,191,191)" stroke-width="1" font-size="16" >H</text>
<text x="383.678751" y="384.605572" fill="rgb(191,191,191)"  stroke="rgb(191,191,191)" stroke-width="1" font-size="16" >H</text>
<text x="319.497613" y="333.813846" fill="rgb(191,191,191)"  stroke="rgb(191,191,191)" stroke-width="1" font-size="16" >H</text>
<text x="184.253473" y="48.320000" fill="rgb(191,191,191)"  stroke="rgb(191,191,191)" stroke-width="1" font-size="16" >H</text>
<text x="452.765335" y="340.348929" fill="rgb(191,191,191)"  stroke="rgb(191,191,191)" stroke-width="1" font-size="16" >H</text>
<text font-size="18.000000" fill ="black" font-family="sans-serif"
x="140.000000" y="20.000000" ></text>
<title> - OBDepict</title>
</svg>
