<?xml version="1.0"?>
<svg xmlns="http://www.w3.org/2000/svg"
xmlns:xlink="http://www.w3.org/1999/xlink" xmlns:cml="http://www.xml-cml.org/schema" width="446.483" height="253.084" x="0" y="0" font-family="sans-serif" stroke="rgb(0,0,0)" stroke-width="1" >
<line x1="396.1" y1="86.7" x2="366.7" y2="83.6"/>
<line x1="354.7" y1="56.6" x2="366.7" y2="83.6"/>
<line x1="343.2" y1="116.0" x2="303.4" y2="111.8"/>
<line x1="340.8" y1="114.2" x2="364.3" y2="81.9"/>
<line x1="345.6" y1="117.8" x2="369.1" y2="85.4"/>
<line x1="303.4" y1="111.8" x2="279.9" y2="144.2"/>
<line x1="74.6" y1="60.0" x2="49.0" y2="45.2"/>
<polygon points="167.663523 184.483018 182.218246 161.626947 174.909883 158.373053 " />
<line x1="296.2" y1="180.7" x2="325.6" y2="183.8"/>
<polygon points="167.663523 95.516982 174.909883 121.626947 182.218246 118.373053 " />
<line x1="178.6" y1="160.0" x2="178.6" y2="120.0"/>
<line x1="178.6" y1="120.0" x2="206.7" y2="110.9"/>
<line x1="222.7" y1="116.1" x2="240.1" y2="140.0"/>
<line x1="240.1" y1="140.0" x2="216.6" y2="172.4"/>
<line x1="230.8" y1="140.6" x2="214.3" y2="163.3"/>
<line x1="216.6" y1="172.4" x2="178.6" y2="160.0"/>
<line x1="272.7" y1="213.1" x2="232.9" y2="208.9"/>
<line x1="267.4" y1="205.3" x2="239.6" y2="202.4"/>
<line x1="232.9" y1="208.9" x2="216.6" y2="172.4"/>
<line x1="240.1" y1="140.0" x2="279.9" y2="144.2"/>
<line x1="279.9" y1="144.2" x2="296.2" y2="180.7"/>
<line x1="275.8" y1="152.6" x2="287.2" y2="178.2"/>
<line x1="296.2" y1="180.7" x2="272.7" y2="213.1"/>
<line x1="109.3" y1="40.0" x2="143.9" y2="60.0"/>
<line x1="110.9" y1="49.2" x2="135.1" y2="63.2"/>
<line x1="143.9" y1="60.0" x2="143.9" y2="100.0"/>
<line x1="143.9" y1="100.0" x2="109.3" y2="120.0"/>
<line x1="135.1" y1="96.8" x2="110.9" y2="110.8"/>
<line x1="109.3" y1="120.0" x2="74.6" y2="100.0"/>
<line x1="74.6" y1="100.0" x2="74.6" y2="60.0"/>
<line x1="81.8" y1="94.0" x2="81.8" y2="66.0"/>
<line x1="74.6" y1="60.0" x2="109.3" y2="40.0"/>
<line x1="143.9" y1="180.0" x2="118.3" y2="165.2"/>
<line x1="109.3" y1="149.6" x2="109.3" y2="120.0"/>
<line x1="143.9" y1="100.0" x2="178.6" y2="120.0"/>
<line x1="178.6" y1="160.0" x2="143.9" y2="180.0"/>
<text x="400.483183" y="92.622056" fill="rgb(102,102,102)"  stroke="rgb(102,102,102)" stroke-width="1" font-size="16" >CH</text>
<text x="424.483183" y="97.422056" fill="rgb(102,102,102)"  stroke="rgb(102,102,102)" stroke-width="1" font-size="13" >3</text>
<text x="326.832841" y="55.419099" fill="rgb(102,102,102)"  stroke="rgb(102,102,102)" stroke-width="1" font-size="16" >H</text>
<text x="338.832841" y="63.099099" fill="rgb(102,102,102)"  stroke="rgb(102,102,102)" stroke-width="1" font-size="13" >3</text>
<text x="345.332841" y="55.419099" fill="rgb(102,102,102)"  stroke="rgb(102,102,102)" stroke-width="1" font-size="16" >C</text>
<text x="24.400000" y="48.320000" fill="rgb(255,12,12)"  stroke="rgb(255,12,12)" stroke-width="1" font-size="16" >HO</text>
<text x="329.948953" y="189.704095" fill="rgb(255,12,12)"  stroke="rgb(255,12,12)" stroke-width="1" font-size="16" >OH</text>
<text x="105.682032" y="164.800000" fill="rgb(255,12,12)"  stroke="rgb(255,12,12)" stroke-width="1" font-size="16" >O</text>
<text x="210.606325" y="115.959320" fill="rgb(255,12,12)"  stroke="rgb(255,12,12)" stroke-width="1" font-size="16" >O</text>
<text x="158.694599" y="201.341818" fill="rgb(191,191,191)"  stroke="rgb(191,191,191)" stroke-width="1" font-size="16" >H</text>
<text x="158.694599" y="91.778182" fill="rgb(191,191,191)"  stroke="rgb(191,191,191)" stroke-width="1" font-size="16" >H</text>
<text font-size="18.000000" fill ="black" font-family="sans-serif"
x="140.000000" y="20.000000" ></text>
<title> - OBDepict</title>
</svg>
