<?xml version="1.0"?>
<svg xmlns="http://www.w3.org/2000/svg"
xmlns:xlink="http://www.w3.org/1999/xlink" xmlns:cml="http://www.xml-cml.org/schema" width="459.098" height="315.142" x="0" y="0" font-family="sans-serif" stroke="rgb(0,0,0)" stroke-width="1" >
<line x1="254.2" y1="55.1" x2="281.0" y2="84.9"/>
<line x1="254.2" y1="55.1" x2="215.1" y2="63.4"/>
<line x1="281.0" y1="84.9" x2="320.1" y2="76.5"/>
<line x1="215.1" y1="63.4" x2="202.7" y2="101.5"/>
<line x1="91.7" y1="239.5" x2="113.5" y2="206.0"/>
<line x1="91.7" y1="239.5" x2="105.1" y2="265.9"/>
<polygon points="125.658950 229.833726 117.056030 204.138789 109.927978 207.770713 " />
<line x1="204.9" y1="99.5" x2="224.7" y2="121.5"/>
<line x1="200.5" y1="103.5" x2="220.3" y2="125.5"/>
<line x1="202.7" y1="101.5" x2="173.8" y2="107.6"/>
<line x1="66.3" y1="205.9" x2="65.7" y2="205.4"/>
<line x1="68.9" y1="202.7" x2="67.5" y2="201.8"/>
<line x1="71.4" y1="199.6" x2="69.4" y2="198.3"/>
<line x1="73.9" y1="196.4" x2="71.2" y2="194.7"/>
<line x1="76.4" y1="193.3" x2="73.0" y2="191.1"/>
<line x1="78.9" y1="190.2" x2="74.9" y2="187.6"/>
<line x1="81.4" y1="187.0" x2="76.7" y2="184.0"/>
<line x1="79.9" y1="184.2" x2="50.4" y2="182.6"/>
<polygon points="55.275348 142.821404 81.829276 148.218526 82.247963 140.229490 " />
<line x1="82.0" y1="144.2" x2="68.6" y2="117.9"/>
<line x1="105.7" y1="103.4" x2="106.4" y2="103.1"/>
<line x1="107.2" y1="107.2" x2="108.6" y2="106.5"/>
<line x1="108.6" y1="110.9" x2="110.8" y2="109.8"/>
<line x1="110.1" y1="114.7" x2="112.9" y2="113.2"/>
<line x1="111.5" y1="118.4" x2="115.1" y2="116.6"/>
<line x1="113.0" y1="122.2" x2="117.3" y2="120.0"/>
<line x1="114.5" y1="125.9" x2="119.4" y2="123.4"/>
<line x1="117.7" y1="126.1" x2="133.8" y2="101.2"/>
<line x1="151.2" y1="147.8" x2="173.7" y2="167.1"/>
<line x1="151.2" y1="147.8" x2="160.4" y2="119.7"/>
<line x1="320.1" y1="76.5" x2="336.4" y2="40.0"/>
<line x1="329.1" y1="74.0" x2="340.5" y2="48.4"/>
<line x1="336.4" y1="40.0" x2="365.8" y2="43.1"/>
<line x1="378.3" y1="54.4" x2="384.5" y2="83.3"/>
<line x1="384.5" y1="83.3" x2="349.8" y2="103.3"/>
<line x1="349.8" y1="103.3" x2="320.1" y2="76.5"/>
<line x1="384.5" y1="163.3" x2="349.8" y2="143.3"/>
<line x1="349.8" y1="143.3" x2="349.8" y2="103.3"/>
<line x1="357.0" y1="137.3" x2="357.0" y2="109.3"/>
<line x1="384.5" y1="83.3" x2="419.1" y2="103.3"/>
<line x1="386.1" y1="92.5" x2="410.3" y2="106.5"/>
<line x1="419.1" y1="103.3" x2="419.1" y2="143.3"/>
<line x1="419.1" y1="143.3" x2="384.5" y2="163.3"/>
<line x1="410.3" y1="140.1" x2="386.1" y2="154.1"/>
<line x1="82.0" y1="144.2" x2="117.7" y2="126.1"/>
<line x1="117.7" y1="126.1" x2="151.2" y2="147.8"/>
<line x1="151.2" y1="147.8" x2="149.7" y2="177.4"/>
<line x1="139.9" y1="192.5" x2="113.5" y2="206.0"/>
<line x1="113.5" y1="206.0" x2="79.9" y2="184.2"/>
<line x1="79.9" y1="184.2" x2="82.0" y2="144.2"/>
<text x="370.140341" y="52.501139" fill="rgb(12,12,255)"  stroke="rgb(12,12,255)" stroke-width="1" font-size="16" >NH</text>
<text x="103.866063" y="279.941835" fill="rgb(255,12,12)"  stroke="rgb(255,12,12)" stroke-width="1" font-size="16" >OH</text>
<text x="223.477511" y="136.017014" fill="rgb(255,12,12)"  stroke="rgb(255,12,12)" stroke-width="1" font-size="16" >O</text>
<text x="24.400000" y="190.395751" fill="rgb(255,12,12)"  stroke="rgb(255,12,12)" stroke-width="1" font-size="16" >HO</text>
<text x="48.279000" y="116.903747" fill="rgb(255,12,12)"  stroke="rgb(255,12,12)" stroke-width="1" font-size="16" >HO</text>
<text x="133.464442" y="100.837565" fill="rgb(255,12,12)"  stroke="rgb(255,12,12)" stroke-width="1" font-size="16" >OH</text>
<text x="143.132265" y="192.595131" fill="rgb(255,12,12)"  stroke="rgb(255,12,12)" stroke-width="1" font-size="16" >O</text>
<text x="159.986383" y="118.127689" fill="rgb(255,12,12)"  stroke="rgb(255,12,12)" stroke-width="1" font-size="16" >O</text>
<text x="125.651624" y="246.395012" fill="rgb(191,191,191)"  stroke="rgb(191,191,191)" stroke-width="1" font-size="16" >H</text>
<text x="54.559620" y="222.516012" fill="rgb(191,191,191)"  stroke="rgb(191,191,191)" stroke-width="1" font-size="16" >H</text>
<text x="38.493438" y="150.450570" fill="rgb(191,191,191)"  stroke="rgb(191,191,191)" stroke-width="1" font-size="16" >H</text>
<text x="95.919261" y="98.744127" fill="rgb(191,191,191)"  stroke="rgb(191,191,191)" stroke-width="1" font-size="16" >H</text>
<text x="175.641942" y="178.627871" fill="rgb(191,191,191)"  stroke="rgb(191,191,191)" stroke-width="1" font-size="16" >H</text>
<text font-size="18.000000" fill ="black" font-family="sans-serif"
x="140.000000" y="20.000000" ></text>
<title> - OBDepict</title>
</svg>
