<?xml version="1.0"?>
<svg xmlns="http://www.w3.org/2000/svg"
xmlns:xlink="http://www.w3.org/1999/xlink" xmlns:cml="http://www.xml-cml.org/schema" width="285.813" height="266.487" x="0" y="0" font-family="sans-serif" stroke="rgb(0,0,0)" stroke-width="1" >
<line x1="226.0" y1="218.8" x2="238.9" y2="204.5"/>
<line x1="194.3" y1="150.4" x2="233.5" y2="158.7"/>
<line x1="194.3" y1="150.4" x2="182.0" y2="112.4"/>
<line x1="233.5" y1="158.7" x2="242.6" y2="186.9"/>
<line x1="74.6" y1="100.0" x2="49.0" y2="114.8"/>
<line x1="205.5" y1="80.0" x2="182.0" y2="112.4"/>
<line x1="196.1" y1="80.6" x2="179.7" y2="103.3"/>
<line x1="182.0" y1="112.4" x2="143.9" y2="100.0"/>
<line x1="143.9" y1="100.0" x2="143.9" y2="60.0"/>
<line x1="151.1" y1="94.0" x2="151.1" y2="66.0"/>
<line x1="143.9" y1="60.0" x2="172.1" y2="50.9"/>
<line x1="188.1" y1="56.1" x2="205.5" y2="80.0"/>
<line x1="109.3" y1="120.0" x2="74.6" y2="100.0"/>
<line x1="107.7" y1="110.8" x2="83.4" y2="96.8"/>
<line x1="74.6" y1="100.0" x2="74.6" y2="60.0"/>
<line x1="74.6" y1="60.0" x2="109.3" y2="40.0"/>
<line x1="83.4" y1="63.2" x2="107.7" y2="49.2"/>
<line x1="109.3" y1="40.0" x2="143.9" y2="60.0"/>
<line x1="143.9" y1="100.0" x2="109.3" y2="120.0"/>
<text x="195.447348" y="231.287462" fill="rgb(102,102,102)"  stroke="rgb(102,102,102)" stroke-width="1" font-size="16" >H</text>
<text x="207.447348" y="236.087462" fill="rgb(102,102,102)"  stroke="rgb(102,102,102)" stroke-width="1" font-size="13" >3</text>
<text x="213.947348" y="231.287462" fill="rgb(102,102,102)"  stroke="rgb(102,102,102)" stroke-width="1" font-size="16" >C</text>
<text x="239.812573" y="201.561669" fill="rgb(12,12,255)"  stroke="rgb(12,12,255)" stroke-width="1" font-size="16" >NH</text>
<text x="175.965309" y="55.959320" fill="rgb(12,12,255)"  stroke="rgb(12,12,255)" stroke-width="1" font-size="16" >NH</text>
<text x="24.400000" y="124.800000" fill="rgb(255,12,12)"  stroke="rgb(255,12,12)" stroke-width="1" font-size="16" >HO</text>
<text font-size="18.000000" fill ="black" font-family="sans-serif"
x="140.000000" y="20.000000" ></text>
<title> - OBDepict</title>
</svg>
