<?xml version="1.0"?>
<svg xmlns="http://www.w3.org/2000/svg"
xmlns:xlink="http://www.w3.org/1999/xlink" xmlns:cml="http://www.xml-cml.org/schema" width="576.665" height="525.806" x="0" y="0" font-family="sans-serif" stroke="rgb(0,0,0)" stroke-width="1" >
<line x1="477.1" y1="478.5" x2="498.0" y2="457.5"/>
<line x1="526.6" y1="465.2" x2="498.0" y2="457.5"/>
<line x1="45.2" y1="342.2" x2="60.0" y2="367.8"/>
<line x1="45.2" y1="393.5" x2="60.0" y2="367.8"/>
<line x1="446.0" y1="362.5" x2="467.0" y2="341.6"/>
<line x1="165.2" y1="272.9" x2="180.0" y2="298.6"/>
<line x1="348.1" y1="264.6" x2="369.0" y2="243.6"/>
<line x1="301.7" y1="232.9" x2="302.3" y2="232.5"/>
<line x1="303.3" y1="236.6" x2="304.7" y2="235.8"/>
<line x1="305.0" y1="240.3" x2="307.0" y2="239.1"/>
<line x1="306.6" y1="243.9" x2="309.4" y2="242.3"/>
<line x1="308.3" y1="247.6" x2="311.7" y2="245.6"/>
<line x1="309.9" y1="251.3" x2="314.1" y2="248.9"/>
<line x1="311.6" y1="254.9" x2="316.4" y2="252.1"/>
<line x1="516.0" y1="390.6" x2="487.7" y2="418.9"/>
<line x1="516.0" y1="390.6" x2="505.6" y2="352.0"/>
<line x1="120.0" y1="333.2" x2="100.0" y2="367.8"/>
<line x1="120.0" y1="333.2" x2="160.0" y2="333.2"/>
<line x1="418.0" y1="292.6" x2="456.6" y2="303.0"/>
<line x1="418.0" y1="292.6" x2="407.6" y2="254.0"/>
<line x1="240.0" y1="263.9" x2="220.0" y2="298.6"/>
<line x1="240.0" y1="263.9" x2="280.0" y2="263.9"/>
<line x1="490.6" y1="418.1" x2="500.9" y2="456.7"/>
<line x1="484.8" y1="419.7" x2="495.1" y2="458.3"/>
<line x1="100.0" y1="370.8" x2="60.0" y2="370.8"/>
<line x1="100.0" y1="364.8" x2="60.0" y2="364.8"/>
<line x1="505.6" y1="352.0" x2="467.0" y2="341.6"/>
<line x1="160.0" y1="333.2" x2="180.0" y2="298.6"/>
<line x1="456.6" y1="303.0" x2="477.5" y2="282.0"/>
<line x1="459.5" y1="302.2" x2="469.9" y2="340.8"/>
<line x1="453.7" y1="303.7" x2="464.1" y2="342.4"/>
<line x1="407.6" y1="254.0" x2="369.0" y2="243.6"/>
<line x1="220.0" y1="298.6" x2="234.8" y2="324.2"/>
<line x1="220.0" y1="301.6" x2="180.0" y2="301.6"/>
<line x1="220.0" y1="295.6" x2="180.0" y2="295.6"/>
<line x1="280.0" y1="263.9" x2="300.0" y2="229.3"/>
<line x1="358.6" y1="205.0" x2="379.6" y2="184.1"/>
<line x1="361.5" y1="204.2" x2="371.9" y2="242.9"/>
<line x1="355.7" y1="205.8" x2="366.1" y2="244.4"/>
<line x1="358.6" y1="205.0" x2="320.0" y2="194.6"/>
<line x1="240.0" y1="194.6" x2="280.0" y2="194.6"/>
<line x1="240.0" y1="194.6" x2="225.2" y2="169.0"/>
<line x1="330.6" y1="171.3" x2="331.3" y2="171.7"/>
<line x1="328.5" y1="174.8" x2="330.0" y2="175.5"/>
<line x1="326.5" y1="178.2" x2="328.6" y2="179.3"/>
<line x1="324.4" y1="181.7" x2="327.3" y2="183.0"/>
<line x1="322.3" y1="185.1" x2="325.9" y2="186.8"/>
<line x1="320.2" y1="188.6" x2="324.6" y2="190.6"/>
<line x1="318.2" y1="192.0" x2="323.2" y2="194.4"/>
<polygon points="266.600000 171.431535 276.535898 196.641016 283.464102 192.641016 " />
<line x1="150.4" y1="80.0" x2="169.6" y2="80.0"/>
<line x1="180.0" y1="50.4" x2="180.0" y2="69.6"/>
<line x1="209.6" y1="83.0" x2="190.4" y2="83.0"/>
<line x1="209.6" y1="77.0" x2="190.4" y2="77.0"/>
<line x1="180.0" y1="189.6" x2="180.0" y2="170.4"/>
<line x1="150.4" y1="157.0" x2="169.6" y2="157.0"/>
<line x1="150.4" y1="163.0" x2="169.6" y2="163.0"/>
<line x1="209.6" y1="160.0" x2="190.4" y2="160.0"/>
<line x1="180.0" y1="109.6" x2="180.0" y2="90.4"/>
<line x1="180.0" y1="130.4" x2="180.0" y2="149.6"/>
<line x1="320.0" y1="194.6" x2="280.0" y2="194.6"/>
<line x1="280.0" y1="194.6" x2="300.0" y2="229.3"/>
<line x1="300.0" y1="229.3" x2="320.0" y2="194.6"/>
<text x="446.143399" y="490.605771" fill="rgb(102,102,102)"  stroke="rgb(102,102,102)" stroke-width="1" font-size="16" >H</text>
<text x="458.143399" y="495.405771" fill="rgb(102,102,102)"  stroke="rgb(102,102,102)" stroke-width="1" font-size="13" >3</text>
<text x="464.643399" y="490.605771" fill="rgb(102,102,102)"  stroke="rgb(102,102,102)" stroke-width="1" font-size="16" >C</text>
<text x="530.664703" y="472.674262" fill="rgb(102,102,102)"  stroke="rgb(102,102,102)" stroke-width="1" font-size="16" >CH</text>
<text x="554.664703" y="477.474262" fill="rgb(102,102,102)"  stroke="rgb(102,102,102)" stroke-width="1" font-size="13" >3</text>
<text x="16.400000" y="341.525081" fill="rgb(102,102,102)"  stroke="rgb(102,102,102)" stroke-width="1" font-size="16" >H</text>
<text x="28.400000" y="349.205081" fill="rgb(102,102,102)"  stroke="rgb(102,102,102)" stroke-width="1" font-size="13" >3</text>
<text x="34.900000" y="341.525081" fill="rgb(102,102,102)"  stroke="rgb(102,102,102)" stroke-width="1" font-size="16" >C</text>
<text x="16.400000" y="407.287113" fill="rgb(102,102,102)"  stroke="rgb(102,102,102)" stroke-width="1" font-size="16" >H</text>
<text x="28.400000" y="412.087113" fill="rgb(102,102,102)"  stroke="rgb(102,102,102)" stroke-width="1" font-size="13" >3</text>
<text x="34.900000" y="407.287113" fill="rgb(102,102,102)"  stroke="rgb(102,102,102)" stroke-width="1" font-size="16" >C</text>
<text x="415.085113" y="374.694672" fill="rgb(102,102,102)"  stroke="rgb(102,102,102)" stroke-width="1" font-size="16" >H</text>
<text x="427.085113" y="379.494672" fill="rgb(102,102,102)"  stroke="rgb(102,102,102)" stroke-width="1" font-size="13" >3</text>
<text x="433.585113" y="374.694672" fill="rgb(102,102,102)"  stroke="rgb(102,102,102)" stroke-width="1" font-size="16" >C</text>
<text x="136.400000" y="272.243048" fill="rgb(102,102,102)"  stroke="rgb(102,102,102)" stroke-width="1" font-size="16" >H</text>
<text x="148.400000" y="279.923048" fill="rgb(102,102,102)"  stroke="rgb(102,102,102)" stroke-width="1" font-size="13" >3</text>
<text x="154.900000" y="272.243048" fill="rgb(102,102,102)"  stroke="rgb(102,102,102)" stroke-width="1" font-size="16" >C</text>
<text x="317.105524" y="276.715082" fill="rgb(102,102,102)"  stroke="rgb(102,102,102)" stroke-width="1" font-size="16" >H</text>
<text x="329.105524" y="281.515082" fill="rgb(102,102,102)"  stroke="rgb(102,102,102)" stroke-width="1" font-size="13" >3</text>
<text x="335.605524" y="276.715082" fill="rgb(102,102,102)"  stroke="rgb(102,102,102)" stroke-width="1" font-size="16" >C</text>
<text x="314.000000" y="268.723048" fill="rgb(102,102,102)"  stroke="rgb(102,102,102)" stroke-width="1" font-size="16" >CH</text>
<text x="338.000000" y="273.523048" fill="rgb(102,102,102)"  stroke="rgb(102,102,102)" stroke-width="1" font-size="13" >3</text>
<text x="124.400000" y="84.800000" fill="rgb(255,12,12)"  stroke="rgb(255,12,12)" stroke-width="1" font-size="16" >HO</text>
<text x="174.000000" y="48.320000" fill="rgb(255,12,12)"  stroke="rgb(255,12,12)" stroke-width="1" font-size="16" >OH</text>
<text x="214.000000" y="84.800000" fill="rgb(255,12,12)"  stroke="rgb(255,12,12)" stroke-width="1" font-size="16" >O</text>
<text x="174.000000" y="204.800000" fill="rgb(255,12,12)"  stroke="rgb(255,12,12)" stroke-width="1" font-size="16" >OH</text>
<text x="136.400000" y="168.320000" fill="rgb(255,12,12)"  stroke="rgb(255,12,12)" stroke-width="1" font-size="16" >O</text>
<text x="214.000000" y="168.320000" fill="rgb(255,12,12)"  stroke="rgb(255,12,12)" stroke-width="1" font-size="16" >O</text>
<text x="174.000000" y="124.800000" fill="rgb(255,12,12)"  stroke="rgb(255,12,12)" stroke-width="1" font-size="16" >O</text>
<text x="174.000000" y="88.320000" fill="rgb(255,127,0)"  stroke="rgb(255,127,0)" stroke-width="1" font-size="16" >P</text>
<text x="174.000000" y="168.320000" fill="rgb(255,127,0)"  stroke="rgb(255,127,0)" stroke-width="1" font-size="16" >P</text>
<text x="478.900894" y="283.009096" fill="rgb(191,191,191)"  stroke="rgb(191,191,191)" stroke-width="1" font-size="16" >H</text>
<text x="234.000000" y="338.005081" fill="rgb(191,191,191)"  stroke="rgb(191,191,191)" stroke-width="1" font-size="16" >H</text>
<text x="380.921304" y="185.029507" fill="rgb(191,191,191)"  stroke="rgb(191,191,191)" stroke-width="1" font-size="16" >H</text>
<text x="331.156324" y="166.827091" fill="rgb(191,191,191)"  stroke="rgb(191,191,191)" stroke-width="1" font-size="16" >H</text>
<text x="256.400000" y="168.320000" fill="rgb(191,191,191)"  stroke="rgb(191,191,191)" stroke-width="1" font-size="16" >H</text>
<text font-size="18.000000" fill ="black" font-family="sans-serif"
x="140.000000" y="20.000000" ></text>
<title> - OBDepict</title>
</svg>
