<?xml version="1.0"?>
<svg xmlns="http://www.w3.org/2000/svg"
xmlns:xlink="http://www.w3.org/1999/xlink" xmlns:cml="http://www.xml-cml.org/schema" width="269.925" height="571.366" x="0" y="0" font-family="sans-serif" stroke="rgb(0,0,0)" stroke-width="1" >
<line x1="178.6" y1="402.9" x2="150.4" y2="374.6"/>
<line x1="178.6" y1="402.9" x2="168.3" y2="441.5"/>
<line x1="150.4" y1="374.6" x2="160.7" y2="336.0"/>
<line x1="96.6" y1="173.8" x2="124.9" y2="202.1"/>
<line x1="96.6" y1="173.8" x2="106.9" y2="135.2"/>
<line x1="124.9" y1="202.1" x2="114.5" y2="240.8"/>
<line x1="168.3" y1="441.5" x2="196.6" y2="469.8"/>
<line x1="106.9" y1="135.2" x2="78.6" y2="106.9"/>
<line x1="160.7" y1="336.0" x2="132.4" y2="307.7"/>
<line x1="114.5" y1="240.8" x2="135.4" y2="261.7"/>
<line x1="196.6" y1="469.8" x2="221.3" y2="453.5"/>
<line x1="53.8" y1="100.7" x2="54.0" y2="99.9"/>
<line x1="57.6" y1="102.1" x2="58.0" y2="100.6"/>
<line x1="61.3" y1="103.5" x2="61.9" y2="101.2"/>
<line x1="65.1" y1="104.9" x2="65.9" y2="101.9"/>
<line x1="68.8" y1="106.4" x2="69.9" y2="102.5"/>
<line x1="72.6" y1="107.8" x2="73.8" y2="103.2"/>
<line x1="76.4" y1="109.2" x2="77.8" y2="103.8"/>
<line x1="78.6" y1="106.9" x2="89.0" y2="68.3"/>
<line x1="78.6" y1="106.9" x2="57.7" y2="127.9"/>
<line x1="129.5" y1="306.9" x2="137.2" y2="278.3"/>
<line x1="135.3" y1="308.5" x2="143.0" y2="279.9"/>
<line x1="132.4" y1="307.7" x2="103.8" y2="315.3"/>
<line x1="88.2" y1="65.4" x2="116.8" y2="57.7"/>
<line x1="89.8" y1="71.2" x2="118.4" y2="63.5"/>
<line x1="89.0" y1="68.3" x2="68.1" y2="47.4"/>
<line x1="228.9" y1="493.3" x2="216.6" y2="531.4"/>
<line x1="216.6" y1="531.4" x2="187.0" y2="531.4"/>
<line x1="173.4" y1="521.5" x2="167.4" y2="503.2"/>
<line x1="172.6" y1="487.2" x2="196.6" y2="469.8"/>
<line x1="196.6" y1="469.8" x2="228.9" y2="493.3"/>
<text x="26.752762" y="140.005576" fill="rgb(12,12,255)"  stroke="rgb(12,12,255)" stroke-width="1" font-size="16" >H</text>
<text x="38.752762" y="144.805576" fill="rgb(12,12,255)"  stroke="rgb(12,12,255)" stroke-width="1" font-size="13" >2</text>
<text x="45.252762" y="140.005576" fill="rgb(12,12,255)"  stroke="rgb(12,12,255)" stroke-width="1" font-size="16" >N</text>
<text x="136.784323" y="277.368184" fill="rgb(12,12,255)"  stroke="rgb(12,12,255)" stroke-width="1" font-size="16" >N</text>
<text x="78.194528" y="322.837979" fill="rgb(255,12,12)"  stroke="rgb(255,12,12)" stroke-width="1" font-size="16" >HO</text>
<text x="121.626828" y="66.251509" fill="rgb(255,12,12)"  stroke="rgb(255,12,12)" stroke-width="1" font-size="16" >O</text>
<text x="45.105524" y="48.320000" fill="rgb(255,12,12)"  stroke="rgb(255,12,12)" stroke-width="1" font-size="16" >HO</text>
<text x="172.978852" y="536.165768" fill="rgb(178,178,0)"  stroke="rgb(178,178,0)" stroke-width="1" font-size="16" >S</text>
<text x="160.618172" y="501.643507" fill="rgb(178,178,0)"  stroke="rgb(178,178,0)" stroke-width="1" font-size="16" >S</text>
<text x="223.924732" y="456.040193" fill="rgb(191,191,191)"  stroke="rgb(191,191,191)" stroke-width="1" font-size="16" >H</text>
<text x="36.400000" y="104.888542" fill="rgb(191,191,191)"  stroke="rgb(191,191,191)" stroke-width="1" font-size="16" >H</text>
<text font-size="18.000000" fill ="black" font-family="sans-serif"
x="140.000000" y="20.000000" ></text>
<title> - OBDepict</title>
</svg>
