<?xml version="1.0"?>
<svg xmlns="http://www.w3.org/2000/svg"
xmlns:xlink="http://www.w3.org/1999/xlink" xmlns:cml="http://www.xml-cml.org/schema" width="409.959" height="261.446" x="0" y="0" font-family="sans-serif" stroke="rgb(0,0,0)" stroke-width="1" >
<line x1="114.6" y1="140.0" x2="149.3" y2="120.0"/>
<line x1="114.6" y1="140.0" x2="89.0" y2="125.2"/>
<line x1="306.7" y1="184.9" x2="318.7" y2="211.9"/>
<line x1="177.7" y1="62.5" x2="178.5" y2="62.7"/>
<line x1="176.5" y1="66.3" x2="178.1" y2="66.7"/>
<line x1="175.3" y1="70.2" x2="177.6" y2="70.7"/>
<line x1="174.1" y1="74.0" x2="177.2" y2="74.7"/>
<line x1="172.8" y1="77.8" x2="176.7" y2="78.7"/>
<line x1="171.6" y1="81.7" x2="176.3" y2="82.7"/>
<line x1="170.4" y1="85.5" x2="175.9" y2="86.7"/>
<line x1="172.8" y1="87.6" x2="150.8" y2="67.8"/>
<polygon points="126.072551 106.600000 147.282032 123.464102 151.282032 116.535898 " />
<polygon points="221.736245 164.483018 214.489885 138.373053 207.181521 141.626947 " />
<line x1="210.8" y1="140.0" x2="240.3" y2="143.1"/>
<line x1="330.2" y1="152.5" x2="359.6" y2="155.6"/>
<line x1="271.4" y1="113.0" x2="259.3" y2="86.0"/>
<line x1="276.9" y1="110.6" x2="264.8" y2="83.6"/>
<line x1="109.6" y1="80.0" x2="90.4" y2="80.0"/>
<line x1="80.0" y1="50.4" x2="80.0" y2="69.6"/>
<line x1="50.4" y1="77.0" x2="69.6" y2="77.0"/>
<line x1="50.4" y1="83.0" x2="69.6" y2="83.0"/>
<line x1="80.0" y1="109.6" x2="80.0" y2="90.4"/>
<line x1="210.8" y1="100.0" x2="172.8" y2="87.6"/>
<line x1="172.8" y1="87.6" x2="149.3" y2="120.0"/>
<line x1="149.3" y1="120.0" x2="166.7" y2="143.9"/>
<line x1="182.7" y1="149.1" x2="210.8" y2="140.0"/>
<line x1="210.8" y1="140.0" x2="210.8" y2="100.0"/>
<line x1="266.9" y1="180.7" x2="306.7" y2="184.9"/>
<line x1="273.6" y1="174.2" x2="301.5" y2="177.1"/>
<line x1="306.7" y1="184.9" x2="330.2" y2="152.5"/>
<line x1="330.2" y1="152.5" x2="318.1" y2="125.5"/>
<line x1="321.2" y1="150.0" x2="312.4" y2="130.3"/>
<line x1="303.6" y1="114.9" x2="274.1" y2="111.8"/>
<line x1="274.1" y1="111.8" x2="256.7" y2="135.8"/>
<line x1="254.8" y1="153.7" x2="266.9" y2="180.7"/>
<text x="316.936386" y="226.245914" fill="rgb(127,178,255)"  stroke="rgb(127,178,255)" stroke-width="1" font-size="16" >F</text>
<text x="307.908865" y="124.321597" fill="rgb(12,12,255)"  stroke="rgb(12,12,255)" stroke-width="1" font-size="16" >N</text>
<text x="244.616579" y="148.981139" fill="rgb(12,12,255)"  stroke="rgb(12,12,255)" stroke-width="1" font-size="16" >N</text>
<text x="127.467649" y="69.194096" fill="rgb(255,12,12)"  stroke="rgb(255,12,12)" stroke-width="1" font-size="16" >HO</text>
<text x="363.959206" y="161.524554" fill="rgb(255,12,12)"  stroke="rgb(255,12,12)" stroke-width="1" font-size="16" >OH</text>
<text x="254.258523" y="83.598640" fill="rgb(255,12,12)"  stroke="rgb(255,12,12)" stroke-width="1" font-size="16" >O</text>
<text x="114.000000" y="88.320000" fill="rgb(255,12,12)"  stroke="rgb(255,12,12)" stroke-width="1" font-size="16" >OH</text>
<text x="74.000000" y="48.320000" fill="rgb(255,12,12)"  stroke="rgb(255,12,12)" stroke-width="1" font-size="16" >OH</text>
<text x="36.400000" y="84.800000" fill="rgb(255,12,12)"  stroke="rgb(255,12,12)" stroke-width="1" font-size="16" >O</text>
<text x="76.400000" y="124.800000" fill="rgb(255,12,12)"  stroke="rgb(255,12,12)" stroke-width="1" font-size="16" >O</text>
<text x="169.193442" y="157.160680" fill="rgb(255,12,12)"  stroke="rgb(255,12,12)" stroke-width="1" font-size="16" >O</text>
<text x="74.000000" y="84.800000" fill="rgb(255,127,0)"  stroke="rgb(255,127,0)" stroke-width="1" font-size="16" >P</text>
<text x="175.109910" y="56.833416" fill="rgb(191,191,191)"  stroke="rgb(191,191,191)" stroke-width="1" font-size="16" >H</text>
<text x="111.041016" y="108.320000" fill="rgb(191,191,191)"  stroke="rgb(191,191,191)" stroke-width="1" font-size="16" >H</text>
<text x="221.105169" y="181.341818" fill="rgb(191,191,191)"  stroke="rgb(191,191,191)" stroke-width="1" font-size="16" >H</text>
<text font-size="18.000000" fill ="black" font-family="sans-serif"
x="140.000000" y="20.000000" ></text>
<title> - OBDepict</title>
</svg>
