<?xml version="1.0"?>
<svg xmlns="http://www.w3.org/2000/svg"
xmlns:xlink="http://www.w3.org/1999/xlink" xmlns:cml="http://www.xml-cml.org/schema" width="1013" height="561.692" x="0" y="0" font-family="sans-serif" stroke="rgb(0,0,0)" stroke-width="1" >
<line x1="49.9" y1="337.1" x2="78.1" y2="343.1"/>
<line x1="697.5" y1="115.6" x2="718.9" y2="134.8"/>
<line x1="691.5" y1="143.7" x2="718.9" y2="134.8"/>
<line x1="78.1" y1="343.1" x2="104.1" y2="314.1"/>
<line x1="104.1" y1="314.1" x2="142.1" y2="322.2"/>
<line x1="142.1" y1="322.2" x2="168.2" y2="293.3"/>
<line x1="168.2" y1="293.3" x2="206.2" y2="301.4"/>
<line x1="206.2" y1="301.4" x2="232.3" y2="272.5"/>
<line x1="232.3" y1="272.5" x2="270.3" y2="280.6"/>
<line x1="270.3" y1="280.6" x2="296.3" y2="251.7"/>
<line x1="296.3" y1="251.7" x2="334.4" y2="259.8"/>
<line x1="334.4" y1="259.8" x2="360.4" y2="230.8"/>
<line x1="360.4" y1="230.8" x2="398.5" y2="238.9"/>
<line x1="398.5" y1="238.9" x2="424.5" y2="210.0"/>
<line x1="424.5" y1="210.0" x2="462.6" y2="218.1"/>
<line x1="462.6" y1="218.1" x2="488.6" y2="189.2"/>
<line x1="630.8" y1="81.6" x2="668.8" y2="89.7"/>
<line x1="630.8" y1="81.6" x2="604.8" y2="110.6"/>
<line x1="668.8" y1="89.7" x2="688.1" y2="68.3"/>
<line x1="590.7" y1="176.5" x2="552.7" y2="168.4"/>
<line x1="590.7" y1="176.5" x2="610.0" y2="155.1"/>
<line x1="552.7" y1="168.4" x2="533.4" y2="189.8"/>
<line x1="712.8" y1="350.8" x2="750.8" y2="358.9"/>
<line x1="712.8" y1="350.8" x2="703.9" y2="323.5"/>
<line x1="743.0" y1="208.8" x2="718.9" y2="134.8"/>
<line x1="743.0" y1="208.8" x2="723.7" y2="230.2"/>
<polygon points="742.769005 334.140728 747.019540 360.166801 754.627992 357.694665 " />
<line x1="607.6" y1="109.6" x2="616.5" y2="137.0"/>
<line x1="601.9" y1="111.5" x2="610.8" y2="138.9"/>
<line x1="604.8" y1="110.6" x2="576.6" y2="104.6"/>
<line x1="485.7" y1="190.1" x2="476.9" y2="162.7"/>
<line x1="491.5" y1="188.3" x2="482.6" y2="160.9"/>
<line x1="488.6" y1="189.2" x2="516.8" y2="195.2"/>
<line x1="775.0" y1="437.2" x2="774.2" y2="437.0"/>
<line x1="776.6" y1="433.7" x2="775.0" y2="433.2"/>
<line x1="778.1" y1="430.1" x2="775.9" y2="429.4"/>
<line x1="779.7" y1="426.5" x2="776.7" y2="425.5"/>
<line x1="781.3" y1="422.9" x2="777.5" y2="421.7"/>
<line x1="782.9" y1="419.4" x2="778.3" y2="417.9"/>
<line x1="784.5" y1="415.8" x2="779.2" y2="414.1"/>
<line x1="782.3" y1="413.4" x2="801.6" y2="434.8"/>
<line x1="721.9" y1="398.0" x2="721.9" y2="397.2"/>
<line x1="725.7" y1="398.4" x2="725.7" y2="396.8"/>
<line x1="729.6" y1="398.8" x2="729.6" y2="396.4"/>
<line x1="733.5" y1="399.2" x2="733.5" y2="396.0"/>
<line x1="737.4" y1="399.6" x2="737.4" y2="395.6"/>
<line x1="741.3" y1="400.0" x2="741.3" y2="395.2"/>
<line x1="745.2" y1="400.4" x2="745.2" y2="394.8"/>
<line x1="746.8" y1="397.6" x2="732.4" y2="422.6"/>
<line x1="768.5" y1="97.8" x2="768.7" y2="98.6"/>
<line x1="764.7" y1="98.7" x2="765.2" y2="100.2"/>
<line x1="760.9" y1="99.5" x2="761.6" y2="101.8"/>
<line x1="757.0" y1="100.3" x2="758.0" y2="103.3"/>
<line x1="753.2" y1="101.1" x2="754.4" y2="104.9"/>
<line x1="749.4" y1="101.9" x2="750.9" y2="106.5"/>
<line x1="745.6" y1="102.8" x2="747.3" y2="108.1"/>
<line x1="744.9" y1="105.9" x2="732.9" y2="68.9"/>
<line x1="744.9" y1="105.9" x2="718.9" y2="134.8"/>
<line x1="744.9" y1="105.9" x2="766.3" y2="125.2"/>
<line x1="948.5" y1="485.4" x2="958.8" y2="512.2"/>
<line x1="732.3" y1="71.8" x2="704.1" y2="65.9"/>
<line x1="733.5" y1="66.0" x2="705.4" y2="60.0"/>
<line x1="732.9" y1="68.9" x2="752.2" y2="47.5"/>
<polygon points="824.918338 364.428258 805.244385 381.988413 811.415180 387.079709 " />
<line x1="808.3" y1="384.5" x2="844.6" y2="429.3"/>
<line x1="688.4" y1="460.1" x2="688.4" y2="441.4"/>
<line x1="659.6" y1="431.3" x2="678.3" y2="431.3"/>
<line x1="691.4" y1="402.5" x2="691.4" y2="421.2"/>
<line x1="685.4" y1="402.5" x2="685.4" y2="421.2"/>
<line x1="656.7" y1="333.9" x2="660.6" y2="315.6"/>
<line x1="635.2" y1="296.8" x2="653.4" y2="300.7"/>
<line x1="633.9" y1="302.7" x2="652.2" y2="306.6"/>
<line x1="650.7" y1="223.7" x2="669.0" y2="227.5"/>
<line x1="687.8" y1="202.1" x2="683.9" y2="220.4"/>
<line x1="681.9" y1="200.9" x2="678.0" y2="219.1"/>
<line x1="690.9" y1="311.7" x2="672.6" y2="307.9"/>
<line x1="707.0" y1="235.6" x2="688.8" y2="231.7"/>
<line x1="717.2" y1="431.3" x2="698.5" y2="431.3"/>
<line x1="668.7" y1="277.6" x2="664.8" y2="295.9"/>
<line x1="672.9" y1="257.8" x2="676.8" y2="239.5"/>
<line x1="847.2" y1="482.6" x2="854.7" y2="454.8"/>
<line x1="867.4" y1="444.5" x2="896.1" y2="443.0"/>
<line x1="896.1" y1="443.0" x2="910.1" y2="479.3"/>
<line x1="910.1" y1="479.3" x2="887.7" y2="497.4"/>
<line x1="871.4" y1="498.3" x2="847.2" y2="482.6"/>
<line x1="873.5" y1="491.1" x2="856.2" y2="479.8"/>
<line x1="750.8" y1="358.9" x2="746.8" y2="397.6"/>
<line x1="746.8" y1="397.6" x2="782.3" y2="413.4"/>
<line x1="782.3" y1="413.4" x2="808.3" y2="384.5"/>
<line x1="808.3" y1="384.5" x2="793.9" y2="359.6"/>
<line x1="779.0" y1="352.9" x2="750.8" y2="358.9"/>
<line x1="896.1" y1="443.0" x2="914.3" y2="420.6"/>
<line x1="905.5" y1="442.8" x2="918.5" y2="426.8"/>
<line x1="930.6" y1="414.3" x2="959.1" y2="418.8"/>
<line x1="959.1" y1="418.8" x2="969.4" y2="445.7"/>
<line x1="954.5" y1="427.0" x2="961.9" y2="446.3"/>
<line x1="966.6" y1="463.0" x2="948.5" y2="485.4"/>
<line x1="948.5" y1="485.4" x2="910.1" y2="479.3"/>
<line x1="943.7" y1="477.3" x2="917.1" y2="473.1"/>
<text x="16.400000" y="343.281848" fill="rgb(102,102,102)"  stroke="rgb(102,102,102)" stroke-width="1" font-size="16" >H</text>
<text x="28.400000" y="350.961848" fill="rgb(102,102,102)"  stroke="rgb(102,102,102)" stroke-width="1" font-size="13" >3</text>
<text x="34.900000" y="343.281848" fill="rgb(102,102,102)"  stroke="rgb(102,102,102)" stroke-width="1" font-size="16" >C</text>
<text x="666.401493" y="117.110852" fill="rgb(102,102,102)"  stroke="rgb(102,102,102)" stroke-width="1" font-size="16" >H</text>
<text x="678.401493" y="124.790852" fill="rgb(102,102,102)"  stroke="rgb(102,102,102)" stroke-width="1" font-size="13" >3</text>
<text x="684.901493" y="117.110852" fill="rgb(102,102,102)"  stroke="rgb(102,102,102)" stroke-width="1" font-size="16" >C</text>
<text x="658.312873" y="151.644813" fill="rgb(102,102,102)"  stroke="rgb(102,102,102)" stroke-width="1" font-size="16" >H</text>
<text x="670.312873" y="156.444813" fill="rgb(102,102,102)"  stroke="rgb(102,102,102)" stroke-width="1" font-size="13" >3</text>
<text x="676.812873" y="151.644813" fill="rgb(102,102,102)"  stroke="rgb(102,102,102)" stroke-width="1" font-size="16" >C</text>
<text x="956.455981" y="526.492495" fill="rgb(12,12,255)"  stroke="rgb(12,12,255)" stroke-width="1" font-size="16" >NH</text>
<text x="980.455981" y="531.292495" fill="rgb(12,12,255)"  stroke="rgb(12,12,255)" stroke-width="1" font-size="13" >2</text>
<text x="610.773027" y="152.356932" fill="rgb(12,12,255)"  stroke="rgb(12,12,255)" stroke-width="1" font-size="16" >N</text>
<text x="691.268818" y="69.142769" fill="rgb(12,12,255)"  stroke="rgb(12,12,255)" stroke-width="1" font-size="16" >N</text>
<text x="966.997145" y="459.938208" fill="rgb(12,12,255)"  stroke="rgb(12,12,255)" stroke-width="1" font-size="16" >N</text>
<text x="917.030024" y="421.052149" fill="rgb(12,12,255)"  stroke="rgb(12,12,255)" stroke-width="1" font-size="16" >N</text>
<text x="873.854688" y="508.569585" fill="rgb(12,12,255)"  stroke="rgb(12,12,255)" stroke-width="1" font-size="16" >N</text>
<text x="851.296081" y="449.802404" fill="rgb(12,12,255)"  stroke="rgb(12,12,255)" stroke-width="1" font-size="16" >N</text>
<text x="561.897035" y="96.068306" fill="rgb(255,12,12)"  stroke="rgb(255,12,12)" stroke-width="1" font-size="32" >-</text>
<text x="563.097035" y="110.788306" fill="rgb(255,12,12)"  stroke="rgb(255,12,12)" stroke-width="1" font-size="16" >O</text>
<text x="472.979212" y="160.522462" fill="rgb(255,12,12)"  stroke="rgb(255,12,12)" stroke-width="1" font-size="16" >O</text>
<text x="802.329782" y="447.156837" fill="rgb(255,12,12)"  stroke="rgb(255,12,12)" stroke-width="1" font-size="16" >OH</text>
<text x="767.856199" y="136.743325" fill="rgb(255,12,12)"  stroke="rgb(255,12,12)" stroke-width="1" font-size="16" >OH</text>
<text x="754.154710" y="33.600000" fill="rgb(255,12,12)"  stroke="rgb(255,12,12)" stroke-width="1" font-size="32" >-</text>
<text x="752.954710" y="48.320000" fill="rgb(255,12,12)"  stroke="rgb(255,12,12)" stroke-width="1" font-size="16" >O</text>
<text x="683.601015" y="489.417779" fill="rgb(255,12,12)"  stroke="rgb(255,12,12)" stroke-width="1" font-size="32" >-</text>
<text x="682.401015" y="475.017779" fill="rgb(255,12,12)"  stroke="rgb(255,12,12)" stroke-width="1" font-size="16" >O</text>
<text x="644.696905" y="424.913669" fill="rgb(255,12,12)"  stroke="rgb(255,12,12)" stroke-width="1" font-size="32" >-</text>
<text x="645.896905" y="439.633669" fill="rgb(255,12,12)"  stroke="rgb(255,12,12)" stroke-width="1" font-size="16" >O</text>
<text x="682.401015" y="400.729559" fill="rgb(255,12,12)"  stroke="rgb(255,12,12)" stroke-width="1" font-size="16" >O</text>
<text x="639.005193" y="348.607449" fill="rgb(255,12,12)"  stroke="rgb(255,12,12)" stroke-width="1" font-size="16" >HO</text>
<text x="621.039851" y="305.984868" fill="rgb(255,12,12)"  stroke="rgb(255,12,12)" stroke-width="1" font-size="16" >O</text>
<text x="625.217089" y="229.876946" fill="rgb(255,12,12)"  stroke="rgb(255,12,12)" stroke-width="1" font-size="16" >HO</text>
<text x="680.959670" y="199.911603" fill="rgb(255,12,12)"  stroke="rgb(255,12,12)" stroke-width="1" font-size="16" >O</text>
<text x="694.747774" y="322.162107" fill="rgb(255,12,12)"  stroke="rgb(255,12,12)" stroke-width="1" font-size="16" >O</text>
<text x="710.925012" y="242.534184" fill="rgb(255,12,12)"  stroke="rgb(255,12,12)" stroke-width="1" font-size="16" >O</text>
<text x="782.877727" y="359.162114" fill="rgb(255,12,12)"  stroke="rgb(255,12,12)" stroke-width="1" font-size="16" >O</text>
<text x="721.305124" y="436.113669" fill="rgb(255,12,12)"  stroke="rgb(255,12,12)" stroke-width="1" font-size="16" >O</text>
<text x="664.782431" y="272.499526" fill="rgb(255,12,12)"  stroke="rgb(255,12,12)" stroke-width="1" font-size="16" >O</text>
<text x="682.401015" y="436.113669" fill="rgb(255,127,0)"  stroke="rgb(255,127,0)" stroke-width="1" font-size="16" >P</text>
<text x="656.693812" y="310.553488" fill="rgb(255,127,0)"  stroke="rgb(255,127,0)" stroke-width="1" font-size="16" >P</text>
<text x="672.871051" y="237.965565" fill="rgb(255,127,0)"  stroke="rgb(255,127,0)" stroke-width="1" font-size="16" >P</text>
<text x="520.655205" y="202.091088" fill="rgb(178,178,0)"  stroke="rgb(178,178,0)" stroke-width="1" font-size="16" >S</text>
<text x="735.201735" y="330.250726" fill="rgb(191,191,191)"  stroke="rgb(191,191,191)" stroke-width="1" font-size="16" >H</text>
<text x="766.675821" y="455.245456" fill="rgb(191,191,191)"  stroke="rgb(191,191,191)" stroke-width="1" font-size="16" >H</text>
<text x="704.253070" y="405.941722" fill="rgb(191,191,191)"  stroke="rgb(191,191,191)" stroke-width="1" font-size="16" >H</text>
<text x="775.944818" y="102.209364" fill="rgb(191,191,191)"  stroke="rgb(191,191,191)" stroke-width="1" font-size="16" >H</text>
<text x="827.088821" y="362.845400" fill="rgb(191,191,191)"  stroke="rgb(191,191,191)" stroke-width="1" font-size="16" >H</text>
<text font-size="18.000000" fill ="black" font-family="sans-serif"
x="140.000000" y="20.000000" ></text>
<title> - OBDepict</title>
</svg>
