<?xml version="1.0"?>
<svg xmlns="http://www.w3.org/2000/svg"
xmlns:xlink="http://www.w3.org/1999/xlink" xmlns:cml="http://www.xml-cml.org/schema" width="741.902" height="701.731" x="0" y="0" font-family="sans-serif" stroke="rgb(0,0,0)" stroke-width="1" >
<line x1="345.5" y1="553.2" x2="331.9" y2="529.7"/>
<line x1="257.3" y1="205.4" x2="257.3" y2="232.6"/>
<line x1="541.8" y1="118.3" x2="528.2" y2="141.8"/>
<line x1="515.9" y1="397.2" x2="489.7" y2="404.3"/>
<line x1="449.0" y1="629.9" x2="421.8" y2="629.9"/>
<line x1="527.0" y1="584.7" x2="563.7" y2="584.7"/>
<line x1="527.0" y1="584.7" x2="508.7" y2="616.5"/>
<line x1="262.2" y1="388.0" x2="262.2" y2="351.2"/>
<line x1="262.2" y1="388.0" x2="238.7" y2="401.5"/>
<line x1="683.5" y1="210.3" x2="646.8" y2="210.3"/>
<line x1="683.5" y1="210.3" x2="697.1" y2="233.8"/>
<line x1="66.0" y1="207.3" x2="101.4" y2="216.8"/>
<line x1="66.0" y1="207.3" x2="46.7" y2="226.5"/>
<line x1="370.5" y1="49.5" x2="380.0" y2="85.0"/>
<line x1="370.5" y1="49.5" x2="344.3" y2="42.5"/>
<line x1="534.6" y1="255.5" x2="525.1" y2="291.0"/>
<line x1="534.6" y1="255.5" x2="515.4" y2="236.3"/>
<line x1="503.8" y1="497.9" x2="485.4" y2="529.7"/>
<line x1="503.8" y1="497.9" x2="530.9" y2="497.9"/>
<line x1="217.9" y1="265.0" x2="364.7" y2="265.0"/>
<line x1="217.9" y1="265.0" x2="204.3" y2="241.5"/>
<line x1="308.7" y1="533.1" x2="308.6" y2="532.3"/>
<line x1="312.4" y1="533.0" x2="312.2" y2="531.5"/>
<line x1="316.1" y1="533.0" x2="315.8" y2="530.6"/>
<line x1="319.8" y1="532.9" x2="319.3" y2="529.7"/>
<line x1="323.5" y1="532.8" x2="322.9" y2="528.8"/>
<line x1="327.2" y1="532.7" x2="326.5" y2="528.0"/>
<line x1="330.8" y1="532.6" x2="330.1" y2="527.1"/>
<line x1="258.8" y1="235.2" x2="235.3" y2="248.8"/>
<line x1="255.8" y1="230.0" x2="232.3" y2="243.6"/>
<line x1="257.3" y1="232.6" x2="280.8" y2="246.2"/>
<line x1="530.8" y1="140.3" x2="544.4" y2="163.9"/>
<line x1="525.6" y1="143.3" x2="539.2" y2="166.9"/>
<line x1="528.2" y1="141.8" x2="501.0" y2="141.8"/>
<line x1="487.6" y1="406.4" x2="468.4" y2="387.2"/>
<line x1="491.8" y1="402.2" x2="472.6" y2="382.9"/>
<line x1="489.7" y1="404.3" x2="482.7" y2="430.5"/>
<line x1="419.2" y1="631.4" x2="405.7" y2="607.9"/>
<line x1="424.4" y1="628.4" x2="410.9" y2="604.9"/>
<line x1="421.8" y1="629.9" x2="408.3" y2="653.5"/>
<line x1="584.3" y1="596.1" x2="583.9" y2="596.8"/>
<line x1="581.3" y1="593.9" x2="580.5" y2="595.3"/>
<line x1="578.3" y1="591.8" x2="577.1" y2="593.8"/>
<line x1="575.4" y1="589.6" x2="573.8" y2="592.3"/>
<line x1="572.4" y1="587.4" x2="570.4" y2="590.9"/>
<line x1="569.4" y1="585.2" x2="567.0" y2="589.4"/>
<line x1="566.4" y1="583.0" x2="563.6" y2="587.9"/>
<line x1="563.7" y1="584.7" x2="582.1" y2="552.9"/>
<line x1="563.7" y1="584.7" x2="563.7" y2="611.9"/>
<polygon points="283.529252 363.540976 264.231140 347.780403 260.231140 354.708607 " />
<line x1="658.9" y1="230.5" x2="658.2" y2="230.9"/>
<line x1="657.4" y1="227.1" x2="656.1" y2="227.9"/>
<line x1="656.0" y1="223.7" x2="653.9" y2="224.9"/>
<line x1="654.5" y1="220.3" x2="651.7" y2="221.9"/>
<line x1="653.0" y1="217.0" x2="649.5" y2="219.0"/>
<line x1="651.5" y1="213.6" x2="647.3" y2="216.0"/>
<line x1="650.0" y1="210.2" x2="645.2" y2="213.0"/>
<polygon points="84.020303 234.147568 104.238565 219.586160 98.581711 213.929305 " />
<polygon points="356.281102 78.590220 379.000783 88.819044 381.071335 81.091638 " />
<line x1="547.7" y1="284.5" x2="547.9" y2="285.3"/>
<line x1="544.1" y1="285.1" x2="544.5" y2="286.6"/>
<line x1="540.4" y1="285.6" x2="541.1" y2="287.9"/>
<line x1="536.8" y1="286.2" x2="537.6" y2="289.3"/>
<line x1="533.1" y1="286.7" x2="534.2" y2="290.6"/>
<line x1="529.5" y1="287.3" x2="530.7" y2="291.9"/>
<line x1="525.8" y1="287.9" x2="527.3" y2="293.3"/>
<line x1="508.9" y1="529.3" x2="508.9" y2="530.1"/>
<line x1="505.2" y1="528.9" x2="505.2" y2="530.5"/>
<line x1="501.6" y1="528.5" x2="501.6" y2="530.9"/>
<line x1="497.9" y1="528.1" x2="497.9" y2="531.3"/>
<line x1="494.2" y1="527.7" x2="494.2" y2="531.7"/>
<line x1="490.6" y1="527.3" x2="490.6" y2="532.1"/>
<line x1="486.9" y1="526.9" x2="486.9" y2="532.5"/>
<polygon points="352.406158 286.298868 368.166731 267.000756 361.238527 263.000756 " />
<line x1="508.7" y1="619.5" x2="481.5" y2="619.5"/>
<line x1="508.7" y1="613.5" x2="481.5" y2="613.5"/>
<line x1="508.7" y1="616.5" x2="522.3" y2="640.0"/>
<line x1="205.0" y1="276.3" x2="205.4" y2="275.6"/>
<line x1="208.0" y1="278.5" x2="208.8" y2="277.1"/>
<line x1="210.9" y1="280.6" x2="212.1" y2="278.6"/>
<line x1="213.9" y1="282.8" x2="215.5" y2="280.0"/>
<line x1="216.9" y1="285.0" x2="218.9" y2="281.5"/>
<line x1="219.9" y1="287.2" x2="222.3" y2="283.0"/>
<line x1="222.9" y1="289.4" x2="225.7" y2="284.5"/>
<line x1="225.5" y1="287.7" x2="225.5" y2="260.5"/>
<polygon points="570.970365 152.317189 579.802734 175.615301 586.730937 171.615301 " />
<line x1="583.3" y1="173.6" x2="556.1" y2="173.6"/>
<polygon points="449.479466 349.230812 474.269700 346.729394 472.199147 339.001988 " />
<line x1="473.2" y1="342.9" x2="466.2" y2="369.1"/>
<polygon points="397.249592 566.365829 421.842533 570.365829 421.842533 562.365829 " />
<line x1="421.8" y1="566.4" x2="408.3" y2="589.9"/>
<line x1="273.0" y1="537.2" x2="272.5" y2="536.6"/>
<line x1="278.5" y1="532.3" x2="277.4" y2="531.2"/>
<line x1="284.0" y1="527.4" x2="282.3" y2="525.7"/>
<line x1="289.5" y1="522.5" x2="287.2" y2="520.2"/>
<line x1="294.9" y1="517.6" x2="292.1" y2="514.7"/>
<line x1="300.4" y1="512.7" x2="297.0" y2="509.3"/>
<line x1="305.9" y1="507.8" x2="301.9" y2="503.8"/>
<line x1="306.0" y1="503.7" x2="279.7" y2="496.7"/>
<line x1="225.9" y1="374.7" x2="225.1" y2="374.7"/>
<line x1="226.3" y1="371.1" x2="224.7" y2="371.1"/>
<line x1="226.7" y1="367.4" x2="224.3" y2="367.4"/>
<line x1="227.1" y1="363.7" x2="223.9" y2="363.7"/>
<line x1="227.5" y1="360.1" x2="223.5" y2="360.1"/>
<line x1="227.9" y1="356.4" x2="223.1" y2="356.4"/>
<line x1="228.3" y1="352.7" x2="222.7" y2="352.7"/>
<line x1="225.5" y1="351.2" x2="202.0" y2="364.8"/>
<polygon points="671.436230 173.615301 646.843289 169.615301 646.843289 177.615301 " />
<line x1="646.8" y1="173.6" x2="660.4" y2="150.1"/>
<line x1="88.1" y1="175.6" x2="88.3" y2="174.8"/>
<line x1="91.6" y1="176.9" x2="92.0" y2="175.4"/>
<line x1="95.0" y1="178.3" x2="95.6" y2="176.0"/>
<line x1="98.4" y1="179.6" x2="99.3" y2="176.5"/>
<line x1="101.9" y1="181.0" x2="102.9" y2="177.1"/>
<line x1="105.3" y1="182.3" x2="106.6" y2="177.7"/>
<line x1="108.8" y1="183.6" x2="110.2" y2="178.2"/>
<line x1="110.9" y1="181.3" x2="103.9" y2="155.1"/>
<line x1="409.0" y1="52.9" x2="409.8" y2="52.7"/>
<line x1="409.6" y1="56.5" x2="411.1" y2="56.1"/>
<line x1="410.2" y1="60.2" x2="412.5" y2="59.5"/>
<line x1="410.7" y1="63.8" x2="413.8" y2="63.0"/>
<line x1="411.3" y1="67.5" x2="415.1" y2="66.4"/>
<line x1="411.8" y1="71.1" x2="416.5" y2="69.9"/>
<line x1="412.4" y1="74.8" x2="417.8" y2="73.3"/>
<line x1="415.5" y1="75.5" x2="434.7" y2="56.2"/>
<line x1="341.2" y1="228.7" x2="341.2" y2="227.9"/>
<line x1="344.9" y1="229.1" x2="344.9" y2="227.5"/>
<line x1="348.6" y1="229.5" x2="348.6" y2="227.1"/>
<line x1="352.2" y1="229.9" x2="352.2" y2="226.7"/>
<line x1="355.9" y1="230.3" x2="355.9" y2="226.3"/>
<line x1="359.6" y1="230.7" x2="359.6" y2="225.9"/>
<line x1="363.2" y1="231.1" x2="363.2" y2="225.5"/>
<line x1="364.7" y1="228.3" x2="351.1" y2="204.8"/>
<polygon points="185.874205 331.752749 209.172316 322.920380 205.172316 315.992177 " />
<line x1="207.2" y1="319.5" x2="183.6" y2="305.9"/>
<line x1="626.5" y1="134.7" x2="627.1" y2="135.1"/>
<line x1="624.3" y1="137.7" x2="625.7" y2="138.5"/>
<line x1="622.1" y1="140.7" x2="624.2" y2="141.9"/>
<line x1="619.9" y1="143.7" x2="622.7" y2="145.3"/>
<line x1="617.7" y1="146.6" x2="621.2" y2="148.6"/>
<line x1="615.5" y1="149.6" x2="619.7" y2="152.0"/>
<line x1="613.4" y1="152.6" x2="618.2" y2="155.4"/>
<line x1="615.1" y1="155.3" x2="601.5" y2="131.7"/>
<line x1="446.8" y1="291.1" x2="447.4" y2="290.5"/>
<line x1="449.2" y1="294.0" x2="450.3" y2="292.8"/>
<line x1="451.5" y1="296.8" x2="453.2" y2="295.1"/>
<line x1="453.8" y1="299.7" x2="456.0" y2="297.5"/>
<line x1="456.1" y1="302.6" x2="458.9" y2="299.8"/>
<line x1="458.4" y1="305.5" x2="461.8" y2="302.1"/>
<line x1="460.7" y1="308.4" x2="464.7" y2="304.4"/>
<line x1="463.7" y1="307.4" x2="411.3" y2="321.5"/>
<line x1="292.7" y1="462.6" x2="292.9" y2="461.8"/>
<line x1="296.1" y1="463.9" x2="296.5" y2="462.3"/>
<line x1="299.6" y1="465.2" x2="300.2" y2="462.9"/>
<line x1="303.0" y1="466.6" x2="303.8" y2="463.5"/>
<line x1="306.5" y1="467.9" x2="307.5" y2="464.0"/>
<line x1="309.9" y1="469.2" x2="311.1" y2="464.6"/>
<line x1="313.3" y1="470.6" x2="314.8" y2="465.2"/>
<line x1="315.5" y1="468.2" x2="308.4" y2="442.0"/>
<polygon points="140.000358 148.047434 142.501776 172.837667 150.229183 170.767115 " />
<line x1="146.4" y1="171.8" x2="165.6" y2="152.6"/>
<polygon points="458.836032 84.020303 438.617770 98.581711 444.274624 104.238565 " />
<line x1="441.4" y1="101.4" x2="467.7" y2="108.4"/>
<polygon points="344.567092 434.994670 347.068510 459.784903 354.795917 457.714351 " />
<line x1="350.9" y1="458.7" x2="370.1" y2="439.5"/>
<polygon points="440.575553 206.996762 424.814981 226.294874 431.743184 230.294874 " />
<line x1="428.3" y1="228.3" x2="455.4" y2="228.3"/>
<polygon points="496.054342 257.700596 485.825517 280.420277 493.552924 282.490829 " />
<line x1="489.7" y1="281.5" x2="470.5" y2="262.2"/>
<polygon points="465.927230 490.008893 450.166658 509.307005 457.094861 513.307005 " />
<line x1="453.6" y1="511.3" x2="440.0" y2="487.8"/>
<line x1="384.8" y1="558.6" x2="384.3" y2="557.9"/>
<line x1="390.9" y1="554.4" x2="389.9" y2="553.2"/>
<line x1="396.9" y1="550.3" x2="395.5" y2="548.4"/>
<line x1="403.0" y1="546.1" x2="401.1" y2="543.6"/>
<line x1="409.1" y1="542.0" x2="406.6" y2="538.8"/>
<line x1="415.1" y1="537.8" x2="412.2" y2="534.0"/>
<line x1="421.2" y1="533.7" x2="417.8" y2="529.2"/>
<line x1="421.8" y1="529.7" x2="414.8" y2="503.4"/>
<polygon points="384.194385 188.643821 393.026754 211.941932 399.954957 207.941932 " />
<line x1="396.5" y1="209.9" x2="410.1" y2="186.4"/>
<polygon points="189.710293 180.367534 169.492030 194.928942 175.148885 200.585797 " />
<line x1="172.3" y1="197.8" x2="224.8" y2="211.8"/>
<polygon points="455.700972 143.230419 432.981292 133.001594 430.910739 140.729001 " />
<line x1="431.9" y1="136.9" x2="439.0" y2="163.1"/>
<line x1="442.2" y1="605.3" x2="441.5" y2="604.9"/>
<line x1="444.4" y1="602.3" x2="443.0" y2="601.5"/>
<line x1="446.6" y1="599.3" x2="444.5" y2="598.1"/>
<line x1="448.8" y1="596.3" x2="446.0" y2="594.7"/>
<line x1="451.0" y1="593.3" x2="447.5" y2="591.3"/>
<line x1="453.1" y1="590.4" x2="449.0" y2="588.0"/>
<line x1="455.3" y1="587.4" x2="450.5" y2="584.6"/>
<line x1="453.6" y1="584.7" x2="467.2" y2="608.2"/>
<line x1="579.5" y1="554.4" x2="565.9" y2="530.9"/>
<line x1="584.7" y1="551.4" x2="571.1" y2="527.9"/>
<line x1="582.1" y1="552.9" x2="609.3" y2="552.9"/>
<polygon points="286.613685 290.878075 262.753245 283.702272 261.709035 291.633831 " />
<line x1="262.2" y1="287.7" x2="248.2" y2="235.2"/>
<line x1="586.7" y1="233.6" x2="585.9" y2="233.7"/>
<line x1="586.6" y1="229.9" x2="585.1" y2="230.1"/>
<line x1="586.6" y1="226.2" x2="584.2" y2="226.5"/>
<line x1="586.5" y1="222.5" x2="583.3" y2="222.9"/>
<line x1="586.4" y1="218.8" x2="582.4" y2="219.3"/>
<line x1="586.3" y1="215.1" x2="581.6" y2="215.7"/>
<line x1="586.2" y1="211.4" x2="580.7" y2="212.1"/>
<line x1="583.3" y1="210.3" x2="478.3" y2="182.2"/>
<line x1="532.0" y1="355.0" x2="531.9" y2="355.8"/>
<line x1="528.4" y1="354.2" x2="528.2" y2="355.7"/>
<line x1="524.9" y1="353.3" x2="524.5" y2="355.7"/>
<line x1="521.3" y1="352.4" x2="520.9" y2="355.6"/>
<line x1="517.7" y1="351.5" x2="517.2" y2="355.5"/>
<line x1="514.1" y1="350.7" x2="513.5" y2="355.4"/>
<line x1="510.5" y1="349.8" x2="509.8" y2="355.3"/>
<line x1="508.7" y1="352.4" x2="454.4" y2="446.5"/>
<polygon points="394.277027 467.314770 374.058765 481.876178 379.715619 487.533032 " />
<line x1="376.9" y1="484.7" x2="403.1" y2="491.7"/>
<polygon points="425.069059 289.383301 432.244862 265.522861 424.313303 264.478651 " />
<line x1="428.3" y1="265.0" x2="454.5" y2="258.0"/>
<line x1="154.2" y1="255.1" x2="153.5" y2="254.8"/>
<line x1="156.0" y1="251.8" x2="154.5" y2="251.2"/>
<line x1="157.7" y1="248.6" x2="155.5" y2="247.7"/>
<line x1="159.5" y1="245.4" x2="156.6" y2="244.1"/>
<line x1="161.3" y1="242.1" x2="157.6" y2="240.6"/>
<line x1="163.1" y1="238.9" x2="158.6" y2="237.0"/>
<line x1="164.8" y1="235.6" x2="159.7" y2="233.5"/>
<line x1="162.8" y1="233.2" x2="190.0" y2="233.2"/>
<line x1="373.3" y1="149.8" x2="373.1" y2="149.0"/>
<line x1="376.9" y1="149.7" x2="376.7" y2="148.2"/>
<line x1="380.6" y1="149.7" x2="380.3" y2="147.3"/>
<line x1="384.3" y1="149.6" x2="383.9" y2="146.4"/>
<line x1="388.0" y1="149.5" x2="387.5" y2="145.5"/>
<line x1="391.7" y1="149.4" x2="391.1" y2="144.7"/>
<line x1="395.4" y1="149.3" x2="394.7" y2="143.8"/>
<line x1="396.5" y1="146.4" x2="410.1" y2="169.9"/>
<line x1="225.5" y1="287.7" x2="262.2" y2="287.7"/>
<line x1="262.2" y1="287.7" x2="275.8" y2="311.2"/>
<line x1="275.8" y1="327.7" x2="262.2" y2="351.2"/>
<line x1="262.2" y1="351.2" x2="225.5" y2="351.2"/>
<line x1="225.5" y1="351.2" x2="207.2" y2="319.5"/>
<line x1="207.2" y1="319.5" x2="225.5" y2="287.7"/>
<line x1="583.3" y1="173.6" x2="583.3" y2="210.3"/>
<line x1="583.3" y1="210.3" x2="606.8" y2="223.9"/>
<line x1="623.3" y1="223.9" x2="646.8" y2="210.3"/>
<line x1="646.8" y1="210.3" x2="646.8" y2="173.6"/>
<line x1="646.8" y1="173.6" x2="615.1" y2="155.3"/>
<line x1="615.1" y1="155.3" x2="583.3" y2="173.6"/>
<line x1="146.4" y1="171.8" x2="172.3" y2="197.8"/>
<line x1="172.3" y1="197.8" x2="162.8" y2="233.2"/>
<line x1="162.8" y1="233.2" x2="136.6" y2="240.2"/>
<line x1="120.6" y1="236.0" x2="101.4" y2="216.8"/>
<line x1="101.4" y1="216.8" x2="110.9" y2="181.3"/>
<line x1="110.9" y1="181.3" x2="146.4" y2="171.8"/>
<line x1="441.4" y1="101.4" x2="431.9" y2="136.9"/>
<line x1="431.9" y1="136.9" x2="396.5" y2="146.4"/>
<line x1="396.5" y1="146.4" x2="377.3" y2="127.2"/>
<line x1="373.0" y1="111.2" x2="380.0" y2="85.0"/>
<line x1="380.0" y1="85.0" x2="415.5" y2="75.5"/>
<line x1="415.5" y1="75.5" x2="441.4" y2="101.4"/>
<line x1="473.2" y1="342.9" x2="508.7" y2="352.4"/>
<line x1="508.7" y1="352.4" x2="527.9" y2="333.2"/>
<line x1="532.2" y1="317.2" x2="525.1" y2="291.0"/>
<line x1="525.1" y1="291.0" x2="489.7" y2="281.5"/>
<line x1="489.7" y1="281.5" x2="463.7" y2="307.4"/>
<line x1="463.7" y1="307.4" x2="473.2" y2="342.9"/>
<line x1="421.8" y1="566.4" x2="421.8" y2="529.7"/>
<line x1="421.8" y1="529.7" x2="453.6" y2="511.3"/>
<line x1="453.6" y1="511.3" x2="485.4" y2="529.7"/>
<line x1="485.4" y1="529.7" x2="485.4" y2="556.8"/>
<line x1="477.2" y1="571.1" x2="453.6" y2="584.7"/>
<line x1="453.6" y1="584.7" x2="421.8" y2="566.4"/>
<line x1="428.3" y1="228.3" x2="428.3" y2="265.0"/>
<line x1="428.3" y1="265.0" x2="404.8" y2="278.6"/>
<line x1="388.2" y1="278.6" x2="364.7" y2="265.0"/>
<line x1="364.7" y1="265.0" x2="364.7" y2="228.3"/>
<line x1="364.7" y1="228.3" x2="396.5" y2="209.9"/>
<line x1="396.5" y1="209.9" x2="428.3" y2="228.3"/>
<line x1="331.9" y1="529.7" x2="306.0" y2="503.7"/>
<line x1="306.0" y1="503.7" x2="315.5" y2="468.2"/>
<line x1="315.5" y1="468.2" x2="350.9" y2="458.7"/>
<line x1="350.9" y1="458.7" x2="376.9" y2="484.7"/>
<line x1="376.9" y1="484.7" x2="369.9" y2="510.9"/>
<line x1="358.2" y1="522.6" x2="331.9" y2="529.7"/>
<text x="344.284792" y="566.248173" fill="rgb(102,102,102)"  stroke="rgb(102,102,102)" stroke-width="1" font-size="16" >CH</text>
<text x="368.284792" y="571.048173" fill="rgb(102,102,102)"  stroke="rgb(102,102,102)" stroke-width="1" font-size="13" >3</text>
<text x="251.313484" y="204.223346" fill="rgb(102,102,102)"  stroke="rgb(102,102,102)" stroke-width="1" font-size="16" >CH</text>
<text x="275.313484" y="211.903346" fill="rgb(102,102,102)"  stroke="rgb(102,102,102)" stroke-width="1" font-size="13" >3</text>
<text x="540.560953" y="118.358848" fill="rgb(102,102,102)"  stroke="rgb(102,102,102)" stroke-width="1" font-size="16" >CH</text>
<text x="564.560953" y="126.038848" fill="rgb(102,102,102)"  stroke="rgb(102,102,102)" stroke-width="1" font-size="13" >3</text>
<text x="519.144380" y="403.095648" fill="rgb(102,102,102)"  stroke="rgb(102,102,102)" stroke-width="1" font-size="16" >CH</text>
<text x="543.144380" y="410.775648" fill="rgb(102,102,102)"  stroke="rgb(102,102,102)" stroke-width="1" font-size="13" >3</text>
<text x="452.548415" y="638.262282" fill="rgb(102,102,102)"  stroke="rgb(102,102,102)" stroke-width="1" font-size="16" >CH</text>
<text x="476.548415" y="645.942282" fill="rgb(102,102,102)"  stroke="rgb(102,102,102)" stroke-width="1" font-size="13" >3</text>
<text x="557.748407" y="626.224652" fill="rgb(12,12,255)"  stroke="rgb(12,12,255)" stroke-width="1" font-size="16" >NH</text>
<text x="581.748407" y="631.024652" fill="rgb(12,12,255)"  stroke="rgb(12,12,255)" stroke-width="1" font-size="13" >2</text>
<text x="221.925258" y="259.282170" fill="rgb(12,12,255)"  stroke="rgb(12,12,255)" stroke-width="1" font-size="16" >N</text>
<text x="542.960953" y="178.415301" fill="rgb(12,12,255)"  stroke="rgb(12,12,255)" stroke-width="1" font-size="16" >N</text>
<text x="460.134242" y="383.120851" fill="rgb(12,12,255)"  stroke="rgb(12,12,255)" stroke-width="1" font-size="16" >N</text>
<text x="399.889592" y="602.954055" fill="rgb(12,12,255)"  stroke="rgb(12,12,255)" stroke-width="1" font-size="16" >N</text>
<text x="468.383701" y="621.306997" fill="rgb(12,12,255)"  stroke="rgb(12,12,255)" stroke-width="1" font-size="16" >N</text>
<text x="214.842913" y="411.103329" fill="rgb(255,12,12)"  stroke="rgb(255,12,12)" stroke-width="1" font-size="16" >HO</text>
<text x="695.902112" y="246.909410" fill="rgb(255,12,12)"  stroke="rgb(255,12,12)" stroke-width="1" font-size="16" >OH</text>
<text x="24.400000" y="238.012529" fill="rgb(255,12,12)"  stroke="rgb(255,12,12)" stroke-width="1" font-size="16" >HO</text>
<text x="319.480718" y="48.320000" fill="rgb(255,12,12)"  stroke="rgb(255,12,12)" stroke-width="1" font-size="16" >HO</text>
<text x="493.089583" y="237.865596" fill="rgb(255,12,12)"  stroke="rgb(255,12,12)" stroke-width="1" font-size="16" >HO</text>
<text x="534.477810" y="506.191720" fill="rgb(255,12,12)"  stroke="rgb(255,12,12)" stroke-width="1" font-size="16" >OH</text>
<text x="283.101711" y="255.762170" fill="rgb(255,12,12)"  stroke="rgb(255,12,12)" stroke-width="1" font-size="16" >OH</text>
<text x="475.902130" y="146.627074" fill="rgb(255,12,12)"  stroke="rgb(255,12,12)" stroke-width="1" font-size="16" >HO</text>
<text x="464.589039" y="444.530989" fill="rgb(255,12,12)"  stroke="rgb(255,12,12)" stroke-width="1" font-size="16" >HO</text>
<text x="387.889592" y="666.530509" fill="rgb(255,12,12)"  stroke="rgb(255,12,12)" stroke-width="1" font-size="16" >HO</text>
<text x="521.042524" y="653.095223" fill="rgb(255,12,12)"  stroke="rgb(255,12,12)" stroke-width="1" font-size="16" >OH</text>
<text x="254.921713" y="502.524787" fill="rgb(255,12,12)"  stroke="rgb(255,12,12)" stroke-width="1" font-size="16" >HO</text>
<text x="178.137031" y="374.397446" fill="rgb(255,12,12)"  stroke="rgb(255,12,12)" stroke-width="1" font-size="16" >HO</text>
<text x="659.196230" y="150.147074" fill="rgb(255,12,12)"  stroke="rgb(255,12,12)" stroke-width="1" font-size="16" >OH</text>
<text x="85.810138" y="154.167413" fill="rgb(255,12,12)"  stroke="rgb(255,12,12)" stroke-width="1" font-size="16" >HO</text>
<text x="435.446197" y="57.820181" fill="rgb(255,12,12)"  stroke="rgb(255,12,12)" stroke-width="1" font-size="16" >OH</text>
<text x="330.749688" y="204.826647" fill="rgb(255,12,12)"  stroke="rgb(255,12,12)" stroke-width="1" font-size="16" >HO</text>
<text x="159.784090" y="309.423337" fill="rgb(255,12,12)"  stroke="rgb(255,12,12)" stroke-width="1" font-size="16" >HO</text>
<text x="581.102121" y="131.794133" fill="rgb(255,12,12)"  stroke="rgb(255,12,12)" stroke-width="1" font-size="16" >HO</text>
<text x="377.223922" y="331.210894" fill="rgb(255,12,12)"  stroke="rgb(255,12,12)" stroke-width="1" font-size="16" >HO</text>
<text x="290.376872" y="441.114649" fill="rgb(255,12,12)"  stroke="rgb(255,12,12)" stroke-width="1" font-size="16" >HO</text>
<text x="166.320458" y="154.167413" fill="rgb(255,12,12)"  stroke="rgb(255,12,12)" stroke-width="1" font-size="16" >OH</text>
<text x="470.901357" y="115.710319" fill="rgb(255,12,12)"  stroke="rgb(255,12,12)" stroke-width="1" font-size="16" >OH</text>
<text x="370.887192" y="441.114649" fill="rgb(255,12,12)"  stroke="rgb(255,12,12)" stroke-width="1" font-size="16" >OH</text>
<text x="458.984965" y="236.614874" fill="rgb(255,12,12)"  stroke="rgb(255,12,12)" stroke-width="1" font-size="16" >OH</text>
<text x="560.148407" y="529.462317" fill="rgb(255,12,12)"  stroke="rgb(255,12,12)" stroke-width="1" font-size="16" >O</text>
<text x="612.807230" y="561.250543" fill="rgb(255,12,12)"  stroke="rgb(255,12,12)" stroke-width="1" font-size="16" >OH</text>
<text x="193.526158" y="241.532529" fill="rgb(255,12,12)"  stroke="rgb(255,12,12)" stroke-width="1" font-size="16" >O</text>
<text x="361.387010" y="524.959765" fill="rgb(255,12,12)"  stroke="rgb(255,12,12)" stroke-width="1" font-size="16" >O</text>
<text x="479.418986" y="571.165829" fill="rgb(255,12,12)"  stroke="rgb(255,12,12)" stroke-width="1" font-size="16" >O</text>
<text x="274.584081" y="327.776279" fill="rgb(255,12,12)"  stroke="rgb(255,12,12)" stroke-width="1" font-size="16" >O</text>
<text x="609.055062" y="233.474124" fill="rgb(255,12,12)"  stroke="rgb(255,12,12)" stroke-width="1" font-size="16" >O</text>
<text x="123.765116" y="247.512711" fill="rgb(255,12,12)"  stroke="rgb(255,12,12)" stroke-width="1" font-size="16" >O</text>
<text x="366.935877" y="125.210501" fill="rgb(255,12,12)"  stroke="rgb(255,12,12)" stroke-width="1" font-size="16" >O</text>
<text x="528.644561" y="331.210894" fill="rgb(255,12,12)"  stroke="rgb(255,12,12)" stroke-width="1" font-size="16" >O</text>
<text x="390.490856" y="288.153697" fill="rgb(255,12,12)"  stroke="rgb(255,12,12)" stroke-width="1" font-size="16" >O</text>
<text x="457.734242" y="263.820575" fill="rgb(255,12,12)"  stroke="rgb(255,12,12)" stroke-width="1" font-size="16" >O</text>
<text x="431.677818" y="484.318779" fill="rgb(255,12,12)"  stroke="rgb(255,12,12)" stroke-width="1" font-size="16" >O</text>
<text x="406.342352" y="502.524787" fill="rgb(255,12,12)"  stroke="rgb(255,12,12)" stroke-width="1" font-size="16" >O</text>
<text x="408.843797" y="186.473706" fill="rgb(255,12,12)"  stroke="rgb(255,12,12)" stroke-width="1" font-size="16" >O</text>
<text x="237.230777" y="225.077732" fill="rgb(255,12,12)"  stroke="rgb(255,12,12)" stroke-width="1" font-size="16" >O</text>
<text x="437.846197" y="180.640458" fill="rgb(255,12,12)"  stroke="rgb(255,12,12)" stroke-width="1" font-size="16" >O</text>
<text x="291.939992" y="539.251025" fill="rgb(191,191,191)"  stroke="rgb(191,191,191)" stroke-width="1" font-size="16" >H</text>
<text x="589.536633" y="607.871711" fill="rgb(191,191,191)"  stroke="rgb(191,191,191)" stroke-width="1" font-size="16" >H</text>
<text x="288.019366" y="374.397446" fill="rgb(191,191,191)"  stroke="rgb(191,191,191)" stroke-width="1" font-size="16" >H</text>
<text x="659.196230" y="246.909410" fill="rgb(191,191,191)"  stroke="rgb(191,191,191)" stroke-width="1" font-size="16" >H</text>
<text x="71.855160" y="247.512711" fill="rgb(191,191,191)"  stroke="rgb(191,191,191)" stroke-width="1" font-size="16" >H</text>
<text x="340.980899" y="83.775160" fill="rgb(191,191,191)"  stroke="rgb(191,191,191)" stroke-width="1" font-size="16" >H</text>
<text x="554.599540" y="289.775553" fill="rgb(191,191,191)"  stroke="rgb(191,191,191)" stroke-width="1" font-size="16" >H</text>
<text x="516.124869" y="537.979946" fill="rgb(191,191,191)"  stroke="rgb(191,191,191)" stroke-width="1" font-size="16" >H</text>
<text x="342.749688" y="301.588983" fill="rgb(191,191,191)"  stroke="rgb(191,191,191)" stroke-width="1" font-size="16" >H</text>
<text x="190.137031" y="277.635111" fill="rgb(191,191,191)"  stroke="rgb(191,191,191)" stroke-width="1" font-size="16" >H</text>
<text x="561.313895" y="150.147074" fill="rgb(191,191,191)"  stroke="rgb(191,191,191)" stroke-width="1" font-size="16" >H</text>
<text x="434.179264" y="357.165872" fill="rgb(191,191,191)"  stroke="rgb(191,191,191)" stroke-width="1" font-size="16" >H</text>
<text x="381.536651" y="571.165829" fill="rgb(191,191,191)"  stroke="rgb(191,191,191)" stroke-width="1" font-size="16" >H</text>
<text x="250.466916" y="560.414925" fill="rgb(191,191,191)"  stroke="rgb(191,191,191)" stroke-width="1" font-size="16" >H</text>
<text x="219.525258" y="392.750387" fill="rgb(191,191,191)"  stroke="rgb(191,191,191)" stroke-width="1" font-size="16" >H</text>
<text x="677.549171" y="181.935301" fill="rgb(191,191,191)"  stroke="rgb(191,191,191)" stroke-width="1" font-size="16" >H</text>
<text x="71.855160" y="180.122391" fill="rgb(191,191,191)"  stroke="rgb(191,191,191)" stroke-width="1" font-size="16" >H</text>
<text x="402.391037" y="48.320000" fill="rgb(191,191,191)"  stroke="rgb(191,191,191)" stroke-width="1" font-size="16" >H</text>
<text x="324.396747" y="233.094874" fill="rgb(191,191,191)"  stroke="rgb(191,191,191)" stroke-width="1" font-size="16" >H</text>
<text x="171.784090" y="342.609220" fill="rgb(191,191,191)"  stroke="rgb(191,191,191)" stroke-width="1" font-size="16" >H</text>
<text x="627.408004" y="131.794133" fill="rgb(191,191,191)"  stroke="rgb(191,191,191)" stroke-width="1" font-size="16" >H</text>
<text x="434.179264" y="289.775553" fill="rgb(191,191,191)"  stroke="rgb(191,191,191)" stroke-width="1" font-size="16" >H</text>
<text x="276.421894" y="467.069627" fill="rgb(191,191,191)"  stroke="rgb(191,191,191)" stroke-width="1" font-size="16" >H</text>
<text x="133.265298" y="144.667232" fill="rgb(191,191,191)"  stroke="rgb(191,191,191)" stroke-width="1" font-size="16" >H</text>
<text x="461.401175" y="83.775160" fill="rgb(191,191,191)"  stroke="rgb(191,191,191)" stroke-width="1" font-size="16" >H</text>
<text x="337.832032" y="431.614467" fill="rgb(191,191,191)"  stroke="rgb(191,191,191)" stroke-width="1" font-size="16" >H</text>
<text x="440.632023" y="204.826647" fill="rgb(191,191,191)"  stroke="rgb(191,191,191)" stroke-width="1" font-size="16" >H</text>
<text x="493.189402" y="254.320393" fill="rgb(191,191,191)"  stroke="rgb(191,191,191)" stroke-width="1" font-size="16" >H</text>
<text x="465.983701" y="487.838779" fill="rgb(191,191,191)"  stroke="rgb(191,191,191)" stroke-width="1" font-size="16" >H</text>
<text x="360.001064" y="579.150197" fill="rgb(191,191,191)"  stroke="rgb(191,191,191)" stroke-width="1" font-size="16" >H</text>
<text x="374.537914" y="186.473706" fill="rgb(191,191,191)"  stroke="rgb(191,191,191)" stroke-width="1" font-size="16" >H</text>
<text x="192.275436" y="180.122391" fill="rgb(191,191,191)"  stroke="rgb(191,191,191)" stroke-width="1" font-size="16" >H</text>
<text x="461.401175" y="151.165479" fill="rgb(191,191,191)"  stroke="rgb(191,191,191)" stroke-width="1" font-size="16" >H</text>
<text x="431.677818" y="621.306997" fill="rgb(191,191,191)"  stroke="rgb(191,191,191)" stroke-width="1" font-size="16" >H</text>
<text x="292.622998" y="297.259131" fill="rgb(191,191,191)"  stroke="rgb(191,191,191)" stroke-width="1" font-size="16" >H</text>
<text x="582.057915" y="251.513042" fill="rgb(191,191,191)"  stroke="rgb(191,191,191)" stroke-width="1" font-size="16" >H</text>
<text x="539.081442" y="361.956951" fill="rgb(191,191,191)"  stroke="rgb(191,191,191)" stroke-width="1" font-size="16" >H</text>
<text x="396.842170" y="467.069627" fill="rgb(191,191,191)"  stroke="rgb(191,191,191)" stroke-width="1" font-size="16" >H</text>
<text x="419.888003" y="306.192614" fill="rgb(191,191,191)"  stroke="rgb(191,191,191)" stroke-width="1" font-size="16" >H</text>
<text x="145.173543" y="271.924343" fill="rgb(191,191,191)"  stroke="rgb(191,191,191)" stroke-width="1" font-size="16" >H</text>
<text x="356.498997" y="155.956558" fill="rgb(191,191,191)"  stroke="rgb(191,191,191)" stroke-width="1" font-size="16" >H</text>
<text font-size="18.000000" fill ="black" font-family="sans-serif"
x="140.000000" y="20.000000" ></text>
<title> - OBDepict</title>
</svg>
