<?xml version="1.0"?>
<svg xmlns="http://www.w3.org/2000/svg"
xmlns:xlink="http://www.w3.org/1999/xlink" xmlns:cml="http://www.xml-cml.org/schema" width="834.855" height="544.96" x="0" y="0" font-family="sans-serif" stroke="rgb(0,0,0)" stroke-width="1" >
<line x1="49.0" y1="251.1" x2="74.6" y2="236.3"/>
<line x1="650.6" y1="157.6" x2="649.0" y2="128.1"/>
<line x1="624.2" y1="144.2" x2="649.0" y2="128.1"/>
<line x1="74.6" y1="236.3" x2="74.6" y2="196.3"/>
<line x1="74.6" y1="196.3" x2="49.0" y2="181.5"/>
<line x1="73.1" y1="193.7" x2="107.8" y2="173.7"/>
<line x1="76.1" y1="198.9" x2="110.8" y2="178.9"/>
<line x1="285.9" y1="77.7" x2="267.8" y2="113.4"/>
<line x1="285.9" y1="77.7" x2="325.9" y2="75.6"/>
<line x1="109.3" y1="176.3" x2="109.3" y2="146.7"/>
<line x1="109.3" y1="176.3" x2="143.9" y2="196.3"/>
<line x1="267.8" y1="113.4" x2="227.8" y2="115.5"/>
<line x1="325.9" y1="75.6" x2="339.3" y2="49.3"/>
<line x1="328.4" y1="74.0" x2="350.2" y2="107.6"/>
<line x1="323.3" y1="77.3" x2="345.1" y2="110.8"/>
<line x1="227.8" y1="115.5" x2="209.6" y2="151.1"/>
<line x1="143.9" y1="196.3" x2="178.6" y2="176.3"/>
<line x1="347.6" y1="109.2" x2="377.2" y2="107.6"/>
<line x1="347.6" y1="109.2" x2="329.5" y2="144.8"/>
<line x1="507.4" y1="100.8" x2="525.6" y2="65.2"/>
<line x1="507.4" y1="100.8" x2="467.5" y2="102.9"/>
<line x1="525.6" y1="65.2" x2="555.1" y2="63.6"/>
<line x1="409.4" y1="140.6" x2="391.2" y2="176.3"/>
<line x1="409.4" y1="140.6" x2="438.9" y2="139.1"/>
<line x1="391.2" y1="176.3" x2="361.7" y2="177.8"/>
<line x1="696.8" y1="275.1" x2="656.9" y2="277.2"/>
<line x1="696.8" y1="275.1" x2="710.2" y2="248.7"/>
<line x1="689.0" y1="126.0" x2="649.0" y2="128.1"/>
<line x1="689.0" y1="126.0" x2="705.1" y2="150.8"/>
<line x1="195.4" y1="129.9" x2="196.0" y2="129.4"/>
<line x1="197.2" y1="133.4" x2="198.6" y2="132.6"/>
<line x1="199.1" y1="137.0" x2="201.1" y2="135.7"/>
<line x1="200.9" y1="140.6" x2="203.6" y2="138.8"/>
<line x1="202.7" y1="144.1" x2="206.1" y2="142.0"/>
<line x1="204.6" y1="147.7" x2="208.6" y2="145.1"/>
<line x1="206.4" y1="151.3" x2="211.1" y2="148.2"/>
<line x1="170.1" y1="152.1" x2="170.8" y2="151.9"/>
<line x1="170.9" y1="156.1" x2="172.5" y2="155.5"/>
<line x1="171.8" y1="160.0" x2="174.1" y2="159.2"/>
<line x1="172.7" y1="163.9" x2="175.8" y2="162.9"/>
<line x1="173.6" y1="167.8" x2="177.4" y2="166.5"/>
<line x1="174.5" y1="171.7" x2="179.1" y2="170.2"/>
<line x1="175.4" y1="175.7" x2="180.7" y2="173.9"/>
<line x1="195.4" y1="215.3" x2="179.3" y2="240.1"/>
<line x1="190.4" y1="212.0" x2="174.3" y2="236.8"/>
<line x1="650.1" y1="252.5" x2="650.8" y2="252.3"/>
<line x1="650.7" y1="256.4" x2="652.2" y2="256.0"/>
<line x1="651.3" y1="260.4" x2="653.6" y2="259.8"/>
<line x1="651.9" y1="264.4" x2="655.0" y2="263.6"/>
<line x1="652.5" y1="268.4" x2="656.4" y2="267.4"/>
<line x1="653.1" y1="272.3" x2="657.8" y2="271.1"/>
<line x1="653.7" y1="276.3" x2="659.2" y2="274.9"/>
<line x1="470.2" y1="104.3" x2="456.7" y2="130.6"/>
<line x1="464.8" y1="101.5" x2="451.4" y2="127.9"/>
<line x1="467.5" y1="102.9" x2="451.4" y2="78.1"/>
<line x1="329.6" y1="147.8" x2="300.1" y2="149.4"/>
<line x1="329.3" y1="141.8" x2="299.8" y2="143.4"/>
<line x1="329.5" y1="144.8" x2="345.6" y2="169.7"/>
<polygon points="575.321060 301.236309 599.573307 313.322191 602.045443 305.713739 " />
<line x1="600.8" y1="309.5" x2="578.8" y2="329.3"/>
<polygon points="617.078840 246.176147 613.078840 272.976147 621.078840 272.976147 " />
<line x1="617.1" y1="273.0" x2="591.4" y2="258.2"/>
<polygon points="649.737708 79.936690 625.082781 91.178334 629.439893 97.887698 " />
<line x1="627.3" y1="94.5" x2="587.3" y2="96.6"/>
<line x1="627.3" y1="94.5" x2="649.0" y2="128.1"/>
<line x1="627.3" y1="94.5" x2="625.7" y2="65.0"/>
<line x1="641.2" y1="475.2" x2="661.0" y2="497.2"/>
<line x1="584.8" y1="98.3" x2="568.7" y2="73.4"/>
<line x1="589.8" y1="95.0" x2="573.7" y2="70.2"/>
<line x1="587.3" y1="96.6" x2="573.9" y2="123.0"/>
<line x1="615.8" y1="357.2" x2="615.2" y2="356.8"/>
<line x1="618.5" y1="354.2" x2="617.2" y2="353.3"/>
<line x1="621.2" y1="351.2" x2="619.2" y2="349.8"/>
<line x1="623.8" y1="348.2" x2="621.2" y2="346.3"/>
<line x1="626.5" y1="345.2" x2="623.3" y2="342.9"/>
<line x1="629.2" y1="342.2" x2="625.3" y2="339.4"/>
<line x1="631.9" y1="339.2" x2="627.3" y2="335.9"/>
<line x1="630.5" y1="336.3" x2="642.6" y2="363.3"/>
<line x1="612.0" y1="213.0" x2="592.8" y2="213.0"/>
<line x1="582.4" y1="183.4" x2="582.4" y2="202.6"/>
<line x1="552.8" y1="210.0" x2="572.0" y2="210.0"/>
<line x1="552.8" y1="216.0" x2="572.0" y2="216.0"/>
<line x1="784.5" y1="235.8" x2="765.3" y2="236.8"/>
<line x1="753.5" y1="267.0" x2="752.5" y2="247.9"/>
<line x1="759.5" y1="266.7" x2="758.4" y2="247.6"/>
<line x1="749.2" y1="127.9" x2="750.2" y2="147.1"/>
<line x1="780.4" y1="158.9" x2="761.3" y2="159.9"/>
<line x1="780.1" y1="152.9" x2="761.0" y2="153.9"/>
<line x1="725.4" y1="238.9" x2="744.5" y2="237.9"/>
<line x1="721.2" y1="159.0" x2="740.3" y2="158.0"/>
<line x1="582.4" y1="242.6" x2="582.4" y2="223.4"/>
<line x1="753.4" y1="207.8" x2="754.4" y2="226.9"/>
<line x1="752.3" y1="187.0" x2="751.3" y2="167.8"/>
<line x1="209.6" y1="151.1" x2="243.2" y2="172.9"/>
<line x1="243.2" y1="172.9" x2="232.8" y2="211.5"/>
<line x1="232.8" y1="211.5" x2="192.9" y2="213.6"/>
<line x1="192.9" y1="213.6" x2="178.6" y2="176.3"/>
<line x1="178.6" y1="176.3" x2="209.6" y2="151.1"/>
<line x1="685.9" y1="381.1" x2="657.0" y2="375.0"/>
<line x1="641.6" y1="381.8" x2="626.8" y2="407.5"/>
<line x1="626.8" y1="407.5" x2="653.6" y2="437.2"/>
<line x1="653.6" y1="437.2" x2="680.6" y2="425.2"/>
<line x1="689.0" y1="410.6" x2="685.9" y2="381.1"/>
<line x1="681.7" y1="409.3" x2="679.4" y2="387.9"/>
<line x1="656.9" y1="277.2" x2="617.1" y2="273.0"/>
<line x1="617.1" y1="273.0" x2="600.8" y2="309.5"/>
<line x1="600.8" y1="309.5" x2="630.5" y2="336.3"/>
<line x1="630.5" y1="336.3" x2="656.2" y2="321.5"/>
<line x1="663.0" y1="306.1" x2="656.9" y2="277.2"/>
<line x1="626.8" y1="407.5" x2="597.9" y2="413.6"/>
<line x1="622.4" y1="415.8" x2="601.3" y2="420.2"/>
<line x1="584.5" y1="425.7" x2="575.3" y2="453.8"/>
<line x1="575.3" y1="453.8" x2="595.1" y2="475.8"/>
<line x1="584.7" y1="453.5" x2="599.1" y2="469.5"/>
<line x1="612.3" y1="481.4" x2="641.2" y2="475.2"/>
<line x1="641.2" y1="475.2" x2="653.6" y2="437.2"/>
<line x1="636.2" y1="467.3" x2="644.9" y2="440.7"/>
<text x="16.400000" y="261.080475" fill="rgb(102,102,102)"  stroke="rgb(102,102,102)" stroke-width="1" font-size="16" >H</text>
<text x="28.400000" y="265.880475" fill="rgb(102,102,102)"  stroke="rgb(102,102,102)" stroke-width="1" font-size="13" >3</text>
<text x="34.900000" y="261.080475" fill="rgb(102,102,102)"  stroke="rgb(102,102,102)" stroke-width="1" font-size="16" >C</text>
<text x="645.140337" y="172.825020" fill="rgb(102,102,102)"  stroke="rgb(102,102,102)" stroke-width="1" font-size="16" >CH</text>
<text x="669.140337" y="177.625020" fill="rgb(102,102,102)"  stroke="rgb(102,102,102)" stroke-width="1" font-size="13" >3</text>
<text x="591.900076" y="154.665400" fill="rgb(102,102,102)"  stroke="rgb(102,102,102)" stroke-width="1" font-size="16" >H</text>
<text x="603.900076" y="159.465400" fill="rgb(102,102,102)"  stroke="rgb(102,102,102)" stroke-width="1" font-size="13" >3</text>
<text x="610.400076" y="154.665400" fill="rgb(102,102,102)"  stroke="rgb(102,102,102)" stroke-width="1" font-size="16" >C</text>
<text x="661.974402" y="509.759870" fill="rgb(12,12,255)"  stroke="rgb(12,12,255)" stroke-width="1" font-size="16" >NH</text>
<text x="685.974402" y="514.559870" fill="rgb(12,12,255)"  stroke="rgb(12,12,255)" stroke-width="1" font-size="13" >2</text>
<text x="443.320991" y="143.347030" fill="rgb(12,12,255)"  stroke="rgb(12,12,255)" stroke-width="1" font-size="16" >N</text>
<text x="559.530594" y="71.399631" fill="rgb(12,12,255)"  stroke="rgb(12,12,255)" stroke-width="1" font-size="16" >N</text>
<text x="598.483274" y="488.350545" fill="rgb(12,12,255)"  stroke="rgb(12,12,255)" stroke-width="1" font-size="16" >N</text>
<text x="584.078729" y="424.102491" fill="rgb(12,12,255)"  stroke="rgb(12,12,255)" stroke-width="1" font-size="16" >N</text>
<text x="684.111676" y="425.722351" fill="rgb(12,12,255)"  stroke="rgb(12,12,255)" stroke-width="1" font-size="16" >N</text>
<text x="643.204633" y="381.145007" fill="rgb(12,12,255)"  stroke="rgb(12,12,255)" stroke-width="1" font-size="16" >N</text>
<text x="167.513221" y="251.970515" fill="rgb(255,12,12)"  stroke="rgb(255,12,12)" stroke-width="1" font-size="16" >O</text>
<text x="430.095050" y="77.679946" fill="rgb(255,12,12)"  stroke="rgb(255,12,12)" stroke-width="1" font-size="16" >HO</text>
<text x="285.940266" y="151.720783" fill="rgb(255,12,12)"  stroke="rgb(255,12,12)" stroke-width="1" font-size="16" >O</text>
<text x="555.483582" y="341.083189" fill="rgb(255,12,12)"  stroke="rgb(255,12,12)" stroke-width="1" font-size="16" >HO</text>
<text x="609.567899" y="62.907835" fill="rgb(255,12,12)"  stroke="rgb(255,12,12)" stroke-width="1" font-size="16" >HO</text>
<text x="553.556536" y="137.066715" fill="rgb(255,12,12)"  stroke="rgb(255,12,12)" stroke-width="1" font-size="16" >HO</text>
<text x="616.437824" y="217.776147" fill="rgb(255,12,12)"  stroke="rgb(255,12,12)" stroke-width="1" font-size="16" >OH</text>
<text x="576.437824" y="181.296147" fill="rgb(255,12,12)"  stroke="rgb(255,12,12)" stroke-width="1" font-size="16" >OH</text>
<text x="538.837824" y="221.296147" fill="rgb(255,12,12)"  stroke="rgb(255,12,12)" stroke-width="1" font-size="16" >O</text>
<text x="788.854880" y="243.556709" fill="rgb(255,12,12)"  stroke="rgb(255,12,12)" stroke-width="1" font-size="16" >OH</text>
<text x="751.003137" y="282.075329" fill="rgb(255,12,12)"  stroke="rgb(255,12,12)" stroke-width="1" font-size="16" >O</text>
<text x="733.029384" y="125.814603" fill="rgb(255,12,12)"  stroke="rgb(255,12,12)" stroke-width="1" font-size="16" >HO</text>
<text x="784.668004" y="163.666347" fill="rgb(255,12,12)"  stroke="rgb(255,12,12)" stroke-width="1" font-size="16" >O</text>
<text x="711.364518" y="247.743586" fill="rgb(255,12,12)"  stroke="rgb(255,12,12)" stroke-width="1" font-size="16" >O</text>
<text x="707.177641" y="164.333223" fill="rgb(255,12,12)"  stroke="rgb(255,12,12)" stroke-width="1" font-size="16" >O</text>
<text x="659.176184" y="321.083189" fill="rgb(255,12,12)"  stroke="rgb(255,12,12)" stroke-width="1" font-size="16" >O</text>
<text x="578.837824" y="257.776147" fill="rgb(255,12,12)"  stroke="rgb(255,12,12)" stroke-width="1" font-size="16" >O</text>
<text x="746.816261" y="202.184966" fill="rgb(255,12,12)"  stroke="rgb(255,12,12)" stroke-width="1" font-size="16" >O</text>
<text x="576.437824" y="217.776147" fill="rgb(255,127,0)"  stroke="rgb(255,127,0)" stroke-width="1" font-size="16" >P</text>
<text x="748.909699" y="245.650148" fill="rgb(255,127,0)"  stroke="rgb(255,127,0)" stroke-width="1" font-size="16" >P</text>
<text x="744.722823" y="162.239785" fill="rgb(255,127,0)"  stroke="rgb(255,127,0)" stroke-width="1" font-size="16" >P</text>
<text x="347.671009" y="183.174167" fill="rgb(178,178,0)"  stroke="rgb(178,178,0)" stroke-width="1" font-size="16" >S</text>
<text x="36.400000" y="184.600475" fill="rgb(191,191,191)"  stroke="rgb(191,191,191)" stroke-width="1" font-size="16" >H</text>
<text x="103.282032" y="144.600475" fill="rgb(191,191,191)"  stroke="rgb(191,191,191)" stroke-width="1" font-size="16" >H</text>
<text x="338.019126" y="48.320000" fill="rgb(191,191,191)"  stroke="rgb(191,191,191)" stroke-width="1" font-size="16" >H</text>
<text x="381.590249" y="115.413645" fill="rgb(191,191,191)"  stroke="rgb(191,191,191)" stroke-width="1" font-size="16" >H</text>
<text x="184.264342" y="125.880837" fill="rgb(191,191,191)"  stroke="rgb(191,191,191)" stroke-width="1" font-size="16" >H</text>
<text x="162.255473" y="146.673022" fill="rgb(191,191,191)"  stroke="rgb(191,191,191)" stroke-width="1" font-size="16" >H</text>
<text x="643.261267" y="246.747051" fill="rgb(191,191,191)"  stroke="rgb(191,191,191)" stroke-width="1" font-size="16" >H</text>
<text x="559.167114" y="305.477285" fill="rgb(191,191,191)"  stroke="rgb(191,191,191)" stroke-width="1" font-size="16" >H</text>
<text x="611.078840" y="241.296147" fill="rgb(191,191,191)"  stroke="rgb(191,191,191)" stroke-width="1" font-size="16" >H</text>
<text x="654.808160" y="81.067455" fill="rgb(191,191,191)"  stroke="rgb(191,191,191)" stroke-width="1" font-size="16" >H</text>
<text x="603.423758" y="373.443869" fill="rgb(191,191,191)"  stroke="rgb(191,191,191)" stroke-width="1" font-size="16" >H</text>
<text font-size="18.000000" fill ="black" font-family="sans-serif"
x="140.000000" y="20.000000" ></text>
<title> - OBDepict</title>
</svg>
