<?xml version="1.0"?>
<svg xmlns="http://www.w3.org/2000/svg"
xmlns:xlink="http://www.w3.org/1999/xlink" xmlns:cml="http://www.xml-cml.org/schema" width="831.532" height="560.906" x="0" y="0" font-family="sans-serif" stroke="rgb(0,0,0)" stroke-width="1" >
<line x1="43.1" y1="244.8" x2="52.0" y2="272.1"/>
<line x1="516.5" y1="115.4" x2="537.9" y2="134.7"/>
<line x1="510.5" y1="143.5" x2="537.9" y2="134.7"/>
<line x1="52.0" y1="272.1" x2="90.0" y2="280.2"/>
<line x1="90.0" y1="280.2" x2="116.0" y2="251.3"/>
<line x1="116.0" y1="251.3" x2="154.0" y2="259.4"/>
<line x1="154.0" y1="259.4" x2="180.0" y2="230.5"/>
<line x1="180.0" y1="230.5" x2="218.0" y2="238.6"/>
<line x1="218.0" y1="238.6" x2="243.9" y2="209.7"/>
<line x1="449.9" y1="81.6" x2="487.9" y2="89.7"/>
<line x1="449.9" y1="81.6" x2="423.9" y2="110.4"/>
<line x1="487.9" y1="89.7" x2="507.1" y2="68.3"/>
<line x1="409.9" y1="176.2" x2="371.9" y2="168.2"/>
<line x1="409.9" y1="176.2" x2="429.1" y2="154.9"/>
<line x1="371.9" y1="168.2" x2="352.7" y2="189.5"/>
<line x1="281.9" y1="217.8" x2="243.9" y2="209.7"/>
<line x1="281.9" y1="217.8" x2="307.9" y2="189.0"/>
<line x1="531.7" y1="350.3" x2="569.7" y2="358.4"/>
<line x1="531.7" y1="350.3" x2="522.8" y2="323.0"/>
<line x1="561.9" y1="208.5" x2="537.9" y2="134.7"/>
<line x1="561.9" y1="208.5" x2="542.6" y2="229.9"/>
<line x1="241.1" y1="210.7" x2="232.2" y2="183.3"/>
<line x1="246.8" y1="208.8" x2="237.9" y2="181.5"/>
<line x1="561.7" y1="334.9" x2="562.4" y2="334.6"/>
<line x1="562.5" y1="338.7" x2="564.0" y2="338.2"/>
<line x1="563.3" y1="342.5" x2="565.6" y2="341.8"/>
<line x1="564.1" y1="346.3" x2="567.2" y2="345.4"/>
<line x1="564.9" y1="350.2" x2="568.7" y2="348.9"/>
<line x1="565.8" y1="354.0" x2="570.3" y2="352.5"/>
<line x1="566.6" y1="357.8" x2="571.9" y2="356.1"/>
<line x1="426.7" y1="109.5" x2="435.6" y2="136.8"/>
<line x1="421.0" y1="111.4" x2="429.9" y2="138.7"/>
<line x1="423.9" y1="110.4" x2="395.8" y2="104.5"/>
<line x1="305.1" y1="189.9" x2="296.2" y2="162.6"/>
<line x1="310.8" y1="188.0" x2="301.9" y2="160.7"/>
<line x1="307.9" y1="189.0" x2="336.0" y2="194.9"/>
<polygon points="593.102760 437.585140 604.948593 414.071685 597.340141 411.599549 " />
<line x1="601.1" y1="412.8" x2="620.4" y2="434.2"/>
<polygon points="539.638544 397.037730 565.661732 401.037730 565.661732 393.037730 " />
<line x1="565.7" y1="397.0" x2="551.3" y2="421.9"/>
<polygon points="588.601846 97.762155 562.616255 101.999536 565.088391 109.607988 " />
<line x1="563.9" y1="105.8" x2="551.8" y2="68.9"/>
<line x1="563.9" y1="105.8" x2="537.9" y2="134.7"/>
<line x1="563.9" y1="105.8" x2="585.2" y2="125.0"/>
<line x1="767.1" y1="484.6" x2="777.4" y2="511.5"/>
<line x1="551.2" y1="71.8" x2="523.1" y2="65.8"/>
<line x1="552.5" y1="65.9" x2="524.4" y2="60.0"/>
<line x1="551.8" y1="68.9" x2="571.1" y2="47.5"/>
<line x1="642.6" y1="364.5" x2="643.3" y2="365.1"/>
<line x1="639.9" y1="367.3" x2="641.1" y2="368.3"/>
<line x1="637.1" y1="370.0" x2="638.9" y2="371.6"/>
<line x1="634.3" y1="372.8" x2="636.8" y2="374.8"/>
<line x1="631.5" y1="375.5" x2="634.6" y2="378.1"/>
<line x1="628.7" y1="378.2" x2="632.4" y2="381.3"/>
<line x1="626.0" y1="381.0" x2="630.3" y2="384.6"/>
<line x1="627.1" y1="384.0" x2="663.3" y2="428.6"/>
<line x1="507.4" y1="459.4" x2="507.4" y2="440.8"/>
<line x1="478.7" y1="430.7" x2="497.3" y2="430.7"/>
<line x1="510.4" y1="401.9" x2="510.4" y2="420.6"/>
<line x1="504.4" y1="401.9" x2="504.4" y2="420.6"/>
<line x1="475.8" y1="333.4" x2="479.6" y2="315.2"/>
<line x1="454.2" y1="296.4" x2="472.5" y2="300.3"/>
<line x1="453.0" y1="302.3" x2="471.2" y2="306.2"/>
<line x1="469.8" y1="223.4" x2="488.0" y2="227.2"/>
<line x1="506.8" y1="201.8" x2="502.9" y2="220.1"/>
<line x1="500.9" y1="200.6" x2="497.1" y2="218.8"/>
<line x1="509.8" y1="311.3" x2="491.6" y2="307.4"/>
<line x1="526.0" y1="235.3" x2="507.8" y2="231.4"/>
<line x1="536.1" y1="430.7" x2="517.5" y2="430.7"/>
<line x1="487.7" y1="277.2" x2="483.8" y2="295.4"/>
<line x1="491.9" y1="257.4" x2="495.8" y2="239.2"/>
<line x1="666.0" y1="481.9" x2="673.4" y2="454.1"/>
<line x1="686.1" y1="443.8" x2="714.8" y2="442.3"/>
<line x1="714.8" y1="442.3" x2="728.7" y2="478.6"/>
<line x1="728.7" y1="478.6" x2="706.4" y2="496.7"/>
<line x1="690.1" y1="497.5" x2="666.0" y2="481.9"/>
<line x1="692.2" y1="490.3" x2="674.9" y2="479.1"/>
<line x1="569.7" y1="358.4" x2="565.7" y2="397.0"/>
<line x1="565.7" y1="397.0" x2="601.1" y2="412.8"/>
<line x1="601.1" y1="412.8" x2="627.1" y2="384.0"/>
<line x1="627.1" y1="384.0" x2="612.8" y2="359.1"/>
<line x1="597.8" y1="352.4" x2="569.7" y2="358.4"/>
<line x1="714.8" y1="442.3" x2="732.9" y2="420.0"/>
<line x1="724.2" y1="442.2" x2="737.2" y2="426.1"/>
<line x1="749.2" y1="413.7" x2="777.6" y2="418.2"/>
<line x1="777.6" y1="418.2" x2="787.9" y2="445.0"/>
<line x1="773.0" y1="426.4" x2="780.4" y2="445.6"/>
<line x1="785.2" y1="462.3" x2="767.1" y2="484.6"/>
<line x1="767.1" y1="484.6" x2="728.7" y2="478.6"/>
<line x1="762.3" y1="476.6" x2="735.8" y2="472.4"/>
<text x="16.400000" y="243.494298" fill="rgb(102,102,102)"  stroke="rgb(102,102,102)" stroke-width="1" font-size="16" >H</text>
<text x="28.400000" y="251.174298" fill="rgb(102,102,102)"  stroke="rgb(102,102,102)" stroke-width="1" font-size="13" >3</text>
<text x="34.900000" y="243.494298" fill="rgb(102,102,102)"  stroke="rgb(102,102,102)" stroke-width="1" font-size="16" >C</text>
<text x="485.398727" y="116.998517" fill="rgb(102,102,102)"  stroke="rgb(102,102,102)" stroke-width="1" font-size="16" >H</text>
<text x="497.398727" y="124.678517" fill="rgb(102,102,102)"  stroke="rgb(102,102,102)" stroke-width="1" font-size="13" >3</text>
<text x="503.898727" y="116.998517" fill="rgb(102,102,102)"  stroke="rgb(102,102,102)" stroke-width="1" font-size="16" >C</text>
<text x="477.323316" y="151.470337" fill="rgb(102,102,102)"  stroke="rgb(102,102,102)" stroke-width="1" font-size="16" >H</text>
<text x="489.323316" y="156.270337" fill="rgb(102,102,102)"  stroke="rgb(102,102,102)" stroke-width="1" font-size="13" >3</text>
<text x="495.823316" y="151.470337" fill="rgb(102,102,102)"  stroke="rgb(102,102,102)" stroke-width="1" font-size="16" >C</text>
<text x="775.008301" y="525.705897" fill="rgb(12,12,255)"  stroke="rgb(12,12,255)" stroke-width="1" font-size="16" >NH</text>
<text x="799.008301" y="530.505897" fill="rgb(12,12,255)"  stroke="rgb(12,12,255)" stroke-width="1" font-size="13" >2</text>
<text x="429.889842" y="152.181293" fill="rgb(12,12,255)"  stroke="rgb(12,12,255)" stroke-width="1" font-size="16" >N</text>
<text x="510.258104" y="69.108765" fill="rgb(12,12,255)"  stroke="rgb(12,12,255)" stroke-width="1" font-size="16" >N</text>
<text x="785.532251" y="459.260293" fill="rgb(12,12,255)"  stroke="rgb(12,12,255)" stroke-width="1" font-size="16" >N</text>
<text x="735.650644" y="420.443482" fill="rgb(12,12,255)"  stroke="rgb(12,12,255)" stroke-width="1" font-size="16" >N</text>
<text x="692.541895" y="507.812256" fill="rgb(12,12,255)"  stroke="rgb(12,12,255)" stroke-width="1" font-size="16" >N</text>
<text x="670.020126" y="449.141041" fill="rgb(12,12,255)"  stroke="rgb(12,12,255)" stroke-width="1" font-size="16" >N</text>
<text x="228.343722" y="181.128002" fill="rgb(255,12,12)"  stroke="rgb(255,12,12)" stroke-width="1" font-size="16" >O</text>
<text x="381.095623" y="95.966296" fill="rgb(255,12,12)"  stroke="rgb(255,12,12)" stroke-width="1" font-size="32" >-</text>
<text x="382.295623" y="110.686296" fill="rgb(255,12,12)"  stroke="rgb(255,12,12)" stroke-width="1" font-size="16" >O</text>
<text x="292.324962" y="160.339237" fill="rgb(255,12,12)"  stroke="rgb(255,12,12)" stroke-width="1" font-size="16" >O</text>
<text x="621.133788" y="446.499793" fill="rgb(255,12,12)"  stroke="rgb(255,12,12)" stroke-width="1" font-size="16" >OH</text>
<text x="586.716499" y="136.593183" fill="rgb(255,12,12)"  stroke="rgb(255,12,12)" stroke-width="1" font-size="16" >OH</text>
<text x="573.039345" y="33.600000" fill="rgb(255,12,12)"  stroke="rgb(255,12,12)" stroke-width="1" font-size="32" >-</text>
<text x="571.839345" y="48.320000" fill="rgb(255,12,12)"  stroke="rgb(255,12,12)" stroke-width="1" font-size="16" >O</text>
<text x="502.600863" y="488.715239" fill="rgb(255,12,12)"  stroke="rgb(255,12,12)" stroke-width="1" font-size="32" >-</text>
<text x="501.400863" y="474.315239" fill="rgb(255,12,12)"  stroke="rgb(255,12,12)" stroke-width="1" font-size="16" >O</text>
<text x="463.760283" y="449.874659" fill="rgb(255,12,12)"  stroke="rgb(255,12,12)" stroke-width="1" font-size="32" >-</text>
<text x="464.960283" y="435.474659" fill="rgb(255,12,12)"  stroke="rgb(255,12,12)" stroke-width="1" font-size="16" >O</text>
<text x="501.400863" y="400.154079" fill="rgb(255,12,12)"  stroke="rgb(255,12,12)" stroke-width="1" font-size="16" >O</text>
<text x="458.060229" y="348.111336" fill="rgb(255,12,12)"  stroke="rgb(255,12,12)" stroke-width="1" font-size="16" >HO</text>
<text x="440.143819" y="305.564105" fill="rgb(255,12,12)"  stroke="rgb(255,12,12)" stroke-width="1" font-size="16" >O</text>
<text x="444.294641" y="229.580466" fill="rgb(255,12,12)"  stroke="rgb(255,12,12)" stroke-width="1" font-size="16" >HO</text>
<text x="499.961871" y="199.664056" fill="rgb(255,12,12)"  stroke="rgb(255,12,12)" stroke-width="1" font-size="16" >O</text>
<text x="513.727459" y="321.714926" fill="rgb(255,12,12)"  stroke="rgb(255,12,12)" stroke-width="1" font-size="16" >O</text>
<text x="529.878280" y="242.211287" fill="rgb(255,12,12)"  stroke="rgb(255,12,12)" stroke-width="1" font-size="16" >O</text>
<text x="601.713498" y="358.654513" fill="rgb(255,12,12)"  stroke="rgb(255,12,12)" stroke-width="1" font-size="16" >O</text>
<text x="540.241442" y="435.474659" fill="rgb(255,12,12)"  stroke="rgb(255,12,12)" stroke-width="1" font-size="16" >O</text>
<text x="483.811050" y="275.647696" fill="rgb(255,12,12)"  stroke="rgb(255,12,12)" stroke-width="1" font-size="16" >O</text>
<text x="501.400863" y="438.994659" fill="rgb(255,127,0)"  stroke="rgb(255,127,0)" stroke-width="1" font-size="16" >P</text>
<text x="475.735639" y="310.119516" fill="rgb(255,127,0)"  stroke="rgb(255,127,0)" stroke-width="1" font-size="16" >P</text>
<text x="491.886461" y="234.135876" fill="rgb(255,127,0)"  stroke="rgb(255,127,0)" stroke-width="1" font-size="16" >P</text>
<text x="339.919181" y="201.834234" fill="rgb(178,178,0)"  stroke="rgb(178,178,0)" stroke-width="1" font-size="16" >S</text>
<text x="554.119279" y="329.790337" fill="rgb(191,191,191)"  stroke="rgb(191,191,191)" stroke-width="1" font-size="16" >H</text>
<text x="585.541968" y="454.575204" fill="rgb(191,191,191)"  stroke="rgb(191,191,191)" stroke-width="1" font-size="16" >H</text>
<text x="523.221152" y="401.837730" fill="rgb(191,191,191)"  stroke="rgb(191,191,191)" stroke-width="1" font-size="16" >H</text>
<text x="594.791910" y="102.121363" fill="rgb(191,191,191)"  stroke="rgb(191,191,191)" stroke-width="1" font-size="16" >H</text>
<text x="645.852395" y="362.331784" fill="rgb(191,191,191)"  stroke="rgb(191,191,191)" stroke-width="1" font-size="16" >H</text>
<text font-size="18.000000" fill ="black" font-family="sans-serif"
x="140.000000" y="20.000000" ></text>
<title> - OBDepict</title>
</svg>
