<?xml version="1.0"?>
<svg xmlns="http://www.w3.org/2000/svg"
xmlns:xlink="http://www.w3.org/1999/xlink" xmlns:cml="http://www.xml-cml.org/schema" width="581.455" height="277.99" x="0" y="0" font-family="sans-serif" stroke="rgb(0,0,0)" stroke-width="1" >
<line x1="435.9" y1="135.2" x2="474.5" y2="124.9"/>
<line x1="435.9" y1="135.2" x2="407.6" y2="106.9"/>
<line x1="474.5" y1="124.9" x2="502.8" y2="153.1"/>
<line x1="188.9" y1="227.6" x2="178.6" y2="189.0"/>
<line x1="188.9" y1="227.6" x2="217.5" y2="235.3"/>
<line x1="312.4" y1="153.1" x2="340.7" y2="124.9"/>
<line x1="255.8" y1="209.7" x2="234.9" y2="230.6"/>
<line x1="178.6" y1="189.0" x2="202.0" y2="171.0"/>
<polygon points="388.661787 87.970843 404.783822 109.749731 410.440676 104.092877 " />
<line x1="407.6" y1="106.9" x2="435.9" y2="78.6"/>
<line x1="407.6" y1="106.9" x2="386.7" y2="127.9"/>
<line x1="505.7" y1="153.9" x2="498.1" y2="182.5"/>
<line x1="499.9" y1="152.4" x2="492.3" y2="181.0"/>
<line x1="502.8" y1="153.1" x2="531.4" y2="145.5"/>
<line x1="340.7" y1="124.9" x2="369.3" y2="132.5"/>
<line x1="337.8" y1="125.6" x2="330.1" y2="97.0"/>
<line x1="343.6" y1="124.1" x2="335.9" y2="95.5"/>
<line x1="143.9" y1="89.0" x2="169.6" y2="74.2"/>
<line x1="436.7" y1="75.7" x2="465.3" y2="83.4"/>
<line x1="435.1" y1="81.5" x2="463.7" y2="89.2"/>
<line x1="435.9" y1="78.6" x2="428.2" y2="50.0"/>
<line x1="73.1" y1="91.6" x2="47.5" y2="76.8"/>
<line x1="76.1" y1="86.4" x2="50.5" y2="71.6"/>
<line x1="322.8" y1="191.8" x2="312.4" y2="153.1"/>
<line x1="314.3" y1="187.8" x2="307.0" y2="160.8"/>
<line x1="312.4" y1="153.1" x2="273.8" y2="142.8"/>
<line x1="273.8" y1="142.8" x2="245.5" y2="171.1"/>
<line x1="274.6" y1="152.1" x2="254.8" y2="171.9"/>
<line x1="245.5" y1="171.1" x2="255.8" y2="209.7"/>
<line x1="255.8" y1="209.7" x2="294.5" y2="220.1"/>
<line x1="263.5" y1="204.3" x2="290.5" y2="211.6"/>
<line x1="294.5" y1="220.1" x2="322.8" y2="191.8"/>
<line x1="143.9" y1="209.0" x2="178.6" y2="189.0"/>
<line x1="178.6" y1="189.0" x2="178.6" y2="159.4"/>
<line x1="169.6" y1="143.8" x2="143.9" y2="129.0"/>
<line x1="143.9" y1="129.0" x2="109.3" y2="149.0"/>
<line x1="142.3" y1="138.2" x2="118.1" y2="152.2"/>
<line x1="109.3" y1="149.0" x2="109.3" y2="178.6"/>
<line x1="118.3" y1="194.2" x2="143.9" y2="209.0"/>
<line x1="143.9" y1="89.0" x2="143.9" y2="129.0"/>
<line x1="109.3" y1="149.0" x2="83.6" y2="134.2"/>
<line x1="74.6" y1="118.6" x2="74.6" y2="89.0"/>
<line x1="74.6" y1="89.0" x2="100.3" y2="74.2"/>
<line x1="118.3" y1="74.2" x2="143.9" y2="89.0"/>
<line x1="116.4" y1="81.4" x2="135.1" y2="92.2"/>
<text x="24.400000" y="77.320104" fill="rgb(12,12,255)"  stroke="rgb(12,12,255)" stroke-width="1" font-size="16" >HN</text>
<text x="221.553859" y="242.789899" fill="rgb(12,12,255)"  stroke="rgb(12,12,255)" stroke-width="1" font-size="16" >NH</text>
<text x="93.682032" y="193.800104" fill="rgb(12,12,255)"  stroke="rgb(12,12,255)" stroke-width="1" font-size="16" >HN</text>
<text x="172.564065" y="157.320104" fill="rgb(12,12,255)"  stroke="rgb(12,12,255)" stroke-width="1" font-size="16" >NH</text>
<text x="373.327978" y="140.005576" fill="rgb(12,12,255)"  stroke="rgb(12,12,255)" stroke-width="1" font-size="16" >NH</text>
<text x="59.041016" y="133.800104" fill="rgb(12,12,255)"  stroke="rgb(12,12,255)" stroke-width="1" font-size="16" >HN</text>
<text x="103.282032" y="77.320104" fill="rgb(12,12,255)"  stroke="rgb(12,12,255)" stroke-width="1" font-size="16" >N</text>
<text x="488.865062" y="196.574118" fill="rgb(255,12,12)"  stroke="rgb(255,12,12)" stroke-width="1" font-size="16" >O</text>
<text x="536.654857" y="136.384323" fill="rgb(255,12,12)"  stroke="rgb(255,12,12)" stroke-width="1" font-size="32" >-</text>
<text x="535.454857" y="151.104323" fill="rgb(255,12,12)"  stroke="rgb(255,12,12)" stroke-width="1" font-size="16" >O</text>
<text x="326.738183" y="94.535781" fill="rgb(255,12,12)"  stroke="rgb(255,12,12)" stroke-width="1" font-size="16" >O</text>
<text x="173.764065" y="62.600104" fill="rgb(255,12,12)"  stroke="rgb(255,12,12)" stroke-width="1" font-size="32" >-</text>
<text x="172.564065" y="77.320104" fill="rgb(255,12,12)"  stroke="rgb(255,12,12)" stroke-width="1" font-size="16" >O</text>
<text x="468.533553" y="93.789795" fill="rgb(255,12,12)"  stroke="rgb(255,12,12)" stroke-width="1" font-size="16" >O</text>
<text x="409.943758" y="48.320000" fill="rgb(255,12,12)"  stroke="rgb(255,12,12)" stroke-width="1" font-size="16" >HO</text>
<text x="204.298198" y="172.969647" fill="rgb(191,191,191)"  stroke="rgb(191,191,191)" stroke-width="1" font-size="16" >H</text>
<text x="375.727978" y="86.957033" fill="rgb(191,191,191)"  stroke="rgb(191,191,191)" stroke-width="1" font-size="16" >H</text>
<text font-size="18.000000" fill ="black" font-family="sans-serif"
x="140.000000" y="20.000000" ></text>
<title> - OBDepict</title>
</svg>
