<?xml version="1.0"?>
<svg xmlns="http://www.w3.org/2000/svg"
xmlns:xlink="http://www.w3.org/1999/xlink" xmlns:cml="http://www.xml-cml.org/schema" width="253.205" height="200" x="0" y="0" font-family="sans-serif" stroke="rgb(0,0,0)" stroke-width="1" >
<line x1="178.6" y1="149.6" x2="178.6" y2="120.0"/>
<line x1="74.6" y1="60.0" x2="49.0" y2="45.2"/>
<line x1="74.6" y1="100.0" x2="49.0" y2="114.8"/>
<line x1="178.6" y1="120.0" x2="143.9" y2="100.0"/>
<line x1="143.9" y1="100.0" x2="143.9" y2="60.0"/>
<line x1="143.9" y1="60.0" x2="178.6" y2="40.0"/>
<line x1="178.6" y1="40.0" x2="213.2" y2="60.0"/>
<line x1="213.2" y1="60.0" x2="213.2" y2="89.6"/>
<line x1="204.2" y1="105.2" x2="178.6" y2="120.0"/>
<line x1="198.9" y1="100.0" x2="180.2" y2="110.8"/>
<line x1="109.3" y1="120.0" x2="143.9" y2="100.0"/>
<line x1="110.9" y1="110.8" x2="135.1" y2="96.8"/>
<line x1="143.9" y1="60.0" x2="109.3" y2="40.0"/>
<line x1="135.1" y1="63.2" x2="110.9" y2="49.2"/>
<line x1="109.3" y1="40.0" x2="74.6" y2="60.0"/>
<line x1="74.6" y1="60.0" x2="74.6" y2="100.0"/>
<line x1="81.8" y1="66.0" x2="81.8" y2="94.0"/>
<line x1="74.6" y1="100.0" x2="109.3" y2="120.0"/>
<text x="172.564065" y="164.800000" fill="rgb(102,102,102)"  stroke="rgb(102,102,102)" stroke-width="1" font-size="16" >CH</text>
<text x="196.564065" y="169.600000" fill="rgb(102,102,102)"  stroke="rgb(102,102,102)" stroke-width="1" font-size="13" >3</text>
<text x="207.205081" y="104.800000" fill="rgb(12,12,255)"  stroke="rgb(12,12,255)" stroke-width="1" font-size="16" >N</text>
<text x="24.400000" y="48.320000" fill="rgb(255,12,12)"  stroke="rgb(255,12,12)" stroke-width="1" font-size="16" >HO</text>
<text x="24.400000" y="124.800000" fill="rgb(255,12,12)"  stroke="rgb(255,12,12)" stroke-width="1" font-size="16" >HO</text>
<text font-size="18.000000" fill ="black" font-family="sans-serif"
x="140.000000" y="20.000000" ></text>
<title> - OBDepict</title>
</svg>
