<?xml version="1.0"?>
<svg xmlns="http://www.w3.org/2000/svg"
xmlns:xlink="http://www.w3.org/1999/xlink" xmlns:cml="http://www.xml-cml.org/schema" width="476.601" height="285.011" x="0" y="0" font-family="sans-serif" stroke="rgb(0,0,0)" stroke-width="1" >
<line x1="220.7" y1="168.3" x2="192.5" y2="174.3"/>
<line x1="49.8" y1="97.7" x2="67.8" y2="102.5"/>
<line x1="417.1" y1="152.9" x2="378.2" y2="152.9"/>
<line x1="417.1" y1="152.9" x2="431.5" y2="177.8"/>
<line x1="193.1" y1="199.2" x2="192.3" y2="199.2"/>
<line x1="193.5" y1="195.3" x2="191.9" y2="195.3"/>
<line x1="193.9" y1="191.4" x2="191.5" y2="191.4"/>
<line x1="194.2" y1="187.5" x2="191.0" y2="187.6"/>
<line x1="194.6" y1="183.6" x2="190.6" y2="183.7"/>
<line x1="195.0" y1="179.7" x2="190.2" y2="179.8"/>
<line x1="195.3" y1="175.8" x2="189.7" y2="175.9"/>
<polygon points="132.581388 108.898909 150.343526 128.429443 155.378089 122.212275 " />
<line x1="142.8" y1="87.7" x2="105.2" y2="77.6"/>
<polygon points="391.227379 130.262102 374.715909 150.860807 381.644113 154.860807 " />
<polygon points="216.254543 131.319063 189.855338 131.450426 191.106814 139.351933 " />
<line x1="403.1" y1="191.4" x2="403.1" y2="192.2"/>
<line x1="399.2" y1="191.0" x2="399.2" y2="192.6"/>
<line x1="395.3" y1="190.6" x2="395.3" y2="193.0"/>
<line x1="391.4" y1="190.2" x2="391.4" y2="193.4"/>
<line x1="387.5" y1="189.8" x2="387.5" y2="193.8"/>
<line x1="383.6" y1="189.4" x2="383.6" y2="194.2"/>
<line x1="379.7" y1="189.0" x2="379.7" y2="194.6"/>
<line x1="378.2" y1="191.8" x2="392.6" y2="216.8"/>
<polygon points="357.497969 233.880565 347.914702 209.281860 340.986499 213.281860 " />
<line x1="344.5" y1="211.3" x2="330.0" y2="236.2"/>
<line x1="298.6" y1="213.6" x2="297.9" y2="213.2"/>
<line x1="300.9" y1="210.4" x2="299.5" y2="209.6"/>
<line x1="303.2" y1="207.2" x2="301.1" y2="206.0"/>
<line x1="305.5" y1="204.1" x2="302.7" y2="202.5"/>
<line x1="307.8" y1="200.9" x2="304.3" y2="198.9"/>
<line x1="310.1" y1="197.7" x2="305.9" y2="195.3"/>
<line x1="312.4" y1="194.6" x2="307.5" y2="191.8"/>
<line x1="310.7" y1="191.8" x2="281.9" y2="191.8"/>
<line x1="102.3" y1="78.4" x2="94.8" y2="50.6"/>
<line x1="108.1" y1="76.8" x2="100.6" y2="49.0"/>
<line x1="105.2" y1="77.6" x2="84.8" y2="98.0"/>
<line x1="242.0" y1="101.0" x2="242.2" y2="101.8"/>
<line x1="238.1" y1="101.6" x2="238.5" y2="103.2"/>
<line x1="234.3" y1="102.3" x2="234.9" y2="104.6"/>
<line x1="230.4" y1="102.9" x2="231.2" y2="106.0"/>
<line x1="226.5" y1="103.5" x2="227.6" y2="107.4"/>
<line x1="222.7" y1="104.1" x2="223.9" y2="108.8"/>
<line x1="218.8" y1="104.8" x2="220.3" y2="110.2"/>
<line x1="218.0" y1="107.9" x2="258.8" y2="148.6"/>
<polygon points="314.127237 126.989314 306.755411 152.338702 314.686970 153.382912 " />
<line x1="310.7" y1="152.9" x2="282.9" y2="160.3"/>
<line x1="156.2" y1="188.3" x2="131.6" y2="158.0"/>
<line x1="131.6" y1="158.0" x2="152.9" y2="125.3"/>
<line x1="152.9" y1="125.3" x2="190.5" y2="135.4"/>
<line x1="190.5" y1="135.4" x2="192.5" y2="174.3"/>
<line x1="192.5" y1="174.3" x2="156.2" y2="188.3"/>
<line x1="170.3" y1="60.2" x2="198.2" y2="67.6"/>
<line x1="210.6" y1="80.0" x2="218.0" y2="107.9"/>
<line x1="218.0" y1="107.9" x2="190.5" y2="135.4"/>
<line x1="152.9" y1="125.3" x2="142.8" y2="87.7"/>
<line x1="142.8" y1="87.7" x2="170.3" y2="60.2"/>
<line x1="152.1" y1="88.5" x2="171.2" y2="69.5"/>
<line x1="344.5" y1="211.3" x2="310.7" y2="191.8"/>
<line x1="310.7" y1="191.8" x2="310.7" y2="152.9"/>
<line x1="310.7" y1="152.9" x2="335.7" y2="138.5"/>
<line x1="353.2" y1="138.5" x2="378.2" y2="152.9"/>
<line x1="378.2" y1="152.9" x2="378.2" y2="191.8"/>
<line x1="378.2" y1="191.8" x2="344.5" y2="211.3"/>
<text x="224.615699" y="174.517559" fill="rgb(102,102,102)"  stroke="rgb(102,102,102)" stroke-width="1" font-size="16" >CH</text>
<text x="248.615699" y="182.197559" fill="rgb(102,102,102)"  stroke="rgb(102,102,102)" stroke-width="1" font-size="13" >3</text>
<text x="16.400000" y="103.399897" fill="rgb(102,102,102)"  stroke="rgb(102,102,102)" stroke-width="1" font-size="16" >H</text>
<text x="28.400000" y="111.079897" fill="rgb(102,102,102)"  stroke="rgb(102,102,102)" stroke-width="1" font-size="13" >3</text>
<text x="34.900000" y="103.399897" fill="rgb(102,102,102)"  stroke="rgb(102,102,102)" stroke-width="1" font-size="16" >C</text>
<text x="430.601064" y="191.390218" fill="rgb(255,12,12)"  stroke="rgb(255,12,12)" stroke-width="1" font-size="16" >OH</text>
<text x="391.653695" y="230.337586" fill="rgb(255,12,12)"  stroke="rgb(255,12,12)" stroke-width="1" font-size="16" >OH</text>
<text x="309.376916" y="249.811270" fill="rgb(255,12,12)"  stroke="rgb(255,12,12)" stroke-width="1" font-size="16" >HO</text>
<text x="256.173822" y="196.608175" fill="rgb(255,12,12)"  stroke="rgb(255,12,12)" stroke-width="1" font-size="16" >HO</text>
<text x="91.479897" y="48.320000" fill="rgb(255,12,12)"  stroke="rgb(255,12,12)" stroke-width="1" font-size="16" >O</text>
<text x="71.620269" y="109.960217" fill="rgb(255,12,12)"  stroke="rgb(255,12,12)" stroke-width="1" font-size="16" >O</text>
<text x="201.940704" y="78.560962" fill="rgb(255,12,12)"  stroke="rgb(255,12,12)" stroke-width="1" font-size="16" >O</text>
<text x="338.450601" y="141.707123" fill="rgb(255,12,12)"  stroke="rgb(255,12,12)" stroke-width="1" font-size="16" >O</text>
<text x="267.100921" y="167.741128" fill="rgb(255,12,12)"  stroke="rgb(255,12,12)" stroke-width="1" font-size="16" >O</text>
<text x="186.876145" y="218.040907" fill="rgb(191,191,191)"  stroke="rgb(191,191,191)" stroke-width="1" font-size="16" >H</text>
<text x="118.993017" y="109.130486" fill="rgb(191,191,191)"  stroke="rgb(191,191,191)" stroke-width="1" font-size="16" >H</text>
<text x="391.653695" y="127.451397" fill="rgb(191,191,191)"  stroke="rgb(191,191,191)" stroke-width="1" font-size="16" >H</text>
<text x="222.948938" y="137.628469" fill="rgb(191,191,191)"  stroke="rgb(191,191,191)" stroke-width="1" font-size="16" >H</text>
<text x="411.127379" y="196.608175" fill="rgb(191,191,191)"  stroke="rgb(191,191,191)" stroke-width="1" font-size="16" >H</text>
<text x="357.924285" y="249.811270" fill="rgb(191,191,191)"  stroke="rgb(191,191,191)" stroke-width="1" font-size="16" >H</text>
<text x="287.647506" y="230.337586" fill="rgb(191,191,191)"  stroke="rgb(191,191,191)" stroke-width="1" font-size="16" >H</text>
<text x="249.641293" y="106.100910" fill="rgb(191,191,191)"  stroke="rgb(191,191,191)" stroke-width="1" font-size="16" >H</text>
<text x="309.804842" y="122.566639" fill="rgb(191,191,191)"  stroke="rgb(191,191,191)" stroke-width="1" font-size="16" >H</text>
<text font-size="18.000000" fill ="black" font-family="sans-serif"
x="140.000000" y="20.000000" ></text>
<title> - OBDepict</title>
</svg>
