<?xml version="1.0"?>
<svg xmlns="http://www.w3.org/2000/svg"
xmlns:xlink="http://www.w3.org/1999/xlink" xmlns:cml="http://www.xml-cml.org/schema" width="188.925" height="352.413" x="0" y="0" font-family="sans-serif" stroke="rgb(0,0,0)" stroke-width="1" >
<line x1="139.6" y1="49.5" x2="112.9" y2="62.4"/>
<line x1="88.4" y1="45.8" x2="112.9" y2="62.4"/>
<line x1="51.5" y1="301.6" x2="60.7" y2="273.4"/>
<line x1="57.2" y1="303.4" x2="66.4" y2="275.3"/>
<line x1="131.0" y1="169.2" x2="104.4" y2="182.1"/>
<line x1="74.1" y1="119.8" x2="110.1" y2="102.3"/>
<line x1="74.1" y1="119.8" x2="71.3" y2="159.7"/>
<line x1="107.1" y1="102.1" x2="110.0" y2="62.2"/>
<line x1="113.1" y1="102.5" x2="115.9" y2="62.6"/>
<line x1="71.3" y1="159.7" x2="104.4" y2="182.1"/>
<line x1="104.4" y1="182.1" x2="101.6" y2="222.0"/>
<line x1="136.2" y1="242.0" x2="101.6" y2="222.0"/>
<line x1="101.6" y1="222.0" x2="101.6" y2="262.0"/>
<line x1="101.6" y1="262.0" x2="136.2" y2="242.0"/>
<line x1="63.5" y1="209.6" x2="40.0" y2="242.0"/>
<line x1="40.0" y1="242.0" x2="63.5" y2="274.4"/>
<line x1="63.5" y1="274.4" x2="101.6" y2="262.0"/>
<line x1="101.6" y1="222.0" x2="63.5" y2="209.6"/>
<text x="142.925338" y="53.253883" fill="rgb(102,102,102)"  stroke="rgb(102,102,102)" stroke-width="1" font-size="16" >CH</text>
<text x="166.925338" y="60.933883" fill="rgb(102,102,102)"  stroke="rgb(102,102,102)" stroke-width="1" font-size="13" >3</text>
<text x="56.219211" y="48.320000" fill="rgb(102,102,102)"  stroke="rgb(102,102,102)" stroke-width="1" font-size="16" >H</text>
<text x="68.219211" y="56.000000" fill="rgb(102,102,102)"  stroke="rgb(102,102,102)" stroke-width="1" font-size="13" >3</text>
<text x="74.719211" y="48.320000" fill="rgb(102,102,102)"  stroke="rgb(102,102,102)" stroke-width="1" font-size="16" >C</text>
<text x="27.550730" y="317.212867" fill="rgb(102,102,102)"  stroke="rgb(102,102,102)" stroke-width="1" font-size="16" >H</text>
<text x="39.550730" y="322.012867" fill="rgb(102,102,102)"  stroke="rgb(102,102,102)" stroke-width="1" font-size="13" >2</text>
<text x="46.050730" y="317.212867" fill="rgb(102,102,102)"  stroke="rgb(102,102,102)" stroke-width="1" font-size="16" >C</text>
<text x="134.379602" y="172.949206" fill="rgb(102,102,102)"  stroke="rgb(102,102,102)" stroke-width="1" font-size="16" >CH</text>
<text x="158.379602" y="180.629206" fill="rgb(102,102,102)"  stroke="rgb(102,102,102)" stroke-width="1" font-size="13" >3</text>
<text font-size="18.000000" fill ="black" font-family="sans-serif"
x="140.000000" y="20.000000" ></text>
<title> - OBDepict</title>
</svg>
