<?xml version="1.0"?>
<svg xmlns="http://www.w3.org/2000/svg"
xmlns:xlink="http://www.w3.org/1999/xlink" xmlns:cml="http://www.xml-cml.org/schema" width="481.051" height="360" x="0" y="0" font-family="sans-serif" stroke="rgb(0,0,0)" stroke-width="1" >
<line x1="432.0" y1="309.4" x2="406.4" y2="294.6"/>
<line x1="406.4" y1="294.6" x2="406.4" y2="254.6"/>
<line x1="406.4" y1="254.6" x2="371.8" y2="234.6"/>
<line x1="213.2" y1="200.0" x2="187.6" y2="214.8"/>
<line x1="213.2" y1="200.0" x2="247.8" y2="220.0"/>
<line x1="210.2" y1="200.0" x2="210.2" y2="160.0"/>
<line x1="216.2" y1="200.0" x2="216.2" y2="160.0"/>
<line x1="247.8" y1="220.0" x2="247.8" y2="260.0"/>
<line x1="213.2" y1="160.0" x2="187.6" y2="145.2"/>
<line x1="213.2" y1="160.0" x2="247.8" y2="140.0"/>
<line x1="247.8" y1="260.0" x2="273.5" y2="274.8"/>
<line x1="249.3" y1="262.6" x2="214.7" y2="282.6"/>
<line x1="246.3" y1="257.4" x2="211.7" y2="277.4"/>
<line x1="247.8" y1="140.0" x2="247.8" y2="100.0"/>
<line x1="213.2" y1="280.0" x2="213.2" y2="309.6"/>
<line x1="213.2" y1="280.0" x2="178.6" y2="260.0"/>
<line x1="247.8" y1="100.0" x2="222.2" y2="85.2"/>
<line x1="246.3" y1="97.4" x2="281.0" y2="77.4"/>
<line x1="249.3" y1="102.6" x2="284.0" y2="82.6"/>
<line x1="178.6" y1="260.0" x2="143.9" y2="280.0"/>
<line x1="371.8" y1="234.6" x2="371.8" y2="194.6"/>
<line x1="282.5" y1="80.0" x2="282.5" y2="50.4"/>
<line x1="282.5" y1="80.0" x2="317.1" y2="100.0"/>
<line x1="143.9" y1="280.0" x2="109.3" y2="260.0"/>
<line x1="371.8" y1="194.6" x2="337.1" y2="174.6"/>
<line x1="317.1" y1="100.0" x2="317.1" y2="140.0"/>
<line x1="109.3" y1="260.0" x2="74.6" y2="280.0"/>
<line x1="73.1" y1="282.6" x2="47.5" y2="267.8"/>
<line x1="76.1" y1="277.4" x2="50.5" y2="262.6"/>
<line x1="74.6" y1="280.0" x2="74.6" y2="309.6"/>
<line x1="337.1" y1="174.6" x2="317.1" y2="140.0"/>
<line x1="317.1" y1="140.0" x2="302.3" y2="165.6"/>
<line x1="307.5" y1="174.6" x2="337.1" y2="174.6"/>
<text x="435.051178" y="319.441016" fill="rgb(102,102,102)"  stroke="rgb(102,102,102)" stroke-width="1" font-size="16" >CH</text>
<text x="459.051178" y="324.241016" fill="rgb(102,102,102)"  stroke="rgb(102,102,102)" stroke-width="1" font-size="13" >3</text>
<text x="36.400000" y="268.320000" fill="rgb(255,12,12)"  stroke="rgb(255,12,12)" stroke-width="1" font-size="16" >O</text>
<text x="68.641016" y="324.800000" fill="rgb(255,12,12)"  stroke="rgb(255,12,12)" stroke-width="1" font-size="16" >OH</text>
<text x="293.528129" y="179.441016" fill="rgb(255,12,12)"  stroke="rgb(255,12,12)" stroke-width="1" font-size="16" >O</text>
<text x="174.964065" y="224.800000" fill="rgb(191,191,191)"  stroke="rgb(191,191,191)" stroke-width="1" font-size="16" >H</text>
<text x="174.964065" y="148.320000" fill="rgb(191,191,191)"  stroke="rgb(191,191,191)" stroke-width="1" font-size="16" >H</text>
<text x="276.487113" y="284.800000" fill="rgb(191,191,191)"  stroke="rgb(191,191,191)" stroke-width="1" font-size="16" >H</text>
<text x="207.205081" y="324.800000" fill="rgb(191,191,191)"  stroke="rgb(191,191,191)" stroke-width="1" font-size="16" >H</text>
<text x="209.605081" y="88.320000" fill="rgb(191,191,191)"  stroke="rgb(191,191,191)" stroke-width="1" font-size="16" >H</text>
<text x="276.487113" y="48.320000" fill="rgb(191,191,191)"  stroke="rgb(191,191,191)" stroke-width="1" font-size="16" >H</text>
<text font-size="18.000000" fill ="black" font-family="sans-serif"
x="140.000000" y="20.000000" ></text>
<title> - OBDepict</title>
</svg>
