<?xml version="1.0"?>
<svg xmlns="http://www.w3.org/2000/svg"
xmlns:xlink="http://www.w3.org/1999/xlink" xmlns:cml="http://www.xml-cml.org/schema" width="249.282" height="240" x="0" y="0" font-family="sans-serif" stroke="rgb(0,0,0)" stroke-width="1" >
<line x1="109.3" y1="140.0" x2="74.6" y2="160.0"/>
<line x1="109.3" y1="140.0" x2="109.3" y2="100.0"/>
<line x1="149.3" y1="100.0" x2="169.3" y2="134.6"/>
<line x1="149.3" y1="100.0" x2="109.3" y2="100.0"/>
<line x1="77.6" y1="160.0" x2="77.6" y2="189.6"/>
<line x1="71.6" y1="160.0" x2="71.6" y2="189.6"/>
<line x1="74.6" y1="160.0" x2="49.0" y2="145.2"/>
<line x1="169.3" y1="131.6" x2="198.9" y2="131.6"/>
<line x1="169.3" y1="137.6" x2="198.9" y2="137.6"/>
<line x1="169.3" y1="134.6" x2="154.5" y2="160.3"/>
<line x1="109.3" y1="60.0" x2="109.3" y2="100.0"/>
<line x1="107.8" y1="57.4" x2="133.4" y2="42.6"/>
<line x1="110.8" y1="62.6" x2="136.4" y2="47.8"/>
<line x1="109.3" y1="60.0" x2="83.6" y2="45.2"/>
<line x1="109.3" y1="100.0" x2="79.7" y2="100.0"/>
<text x="68.641016" y="204.800000" fill="rgb(255,12,12)"  stroke="rgb(255,12,12)" stroke-width="1" font-size="16" >O</text>
<text x="35.200000" y="133.600000" fill="rgb(255,12,12)"  stroke="rgb(255,12,12)" stroke-width="1" font-size="32" >-</text>
<text x="36.400000" y="148.320000" fill="rgb(255,12,12)"  stroke="rgb(255,12,12)" stroke-width="1" font-size="16" >O</text>
<text x="203.282032" y="142.961016" fill="rgb(255,12,12)"  stroke="rgb(255,12,12)" stroke-width="1" font-size="16" >O</text>
<text x="144.482032" y="188.482032" fill="rgb(255,12,12)"  stroke="rgb(255,12,12)" stroke-width="1" font-size="32" >-</text>
<text x="145.682032" y="174.082032" fill="rgb(255,12,12)"  stroke="rgb(255,12,12)" stroke-width="1" font-size="16" >O</text>
<text x="137.923048" y="48.320000" fill="rgb(255,12,12)"  stroke="rgb(255,12,12)" stroke-width="1" font-size="16" >O</text>
<text x="69.841016" y="33.600000" fill="rgb(255,12,12)"  stroke="rgb(255,12,12)" stroke-width="1" font-size="32" >-</text>
<text x="71.041016" y="48.320000" fill="rgb(255,12,12)"  stroke="rgb(255,12,12)" stroke-width="1" font-size="16" >O</text>
<text x="53.682032" y="104.800000" fill="rgb(255,12,12)"  stroke="rgb(255,12,12)" stroke-width="1" font-size="16" >HO</text>
<text font-size="18.000000" fill ="black" font-family="sans-serif"
x="140.000000" y="20.000000" ></text>
<title> - OBDepict</title>
</svg>
