<?xml version="1.0"?>
<svg xmlns="http://www.w3.org/2000/svg"
xmlns:xlink="http://www.w3.org/1999/xlink" xmlns:cml="http://www.xml-cml.org/schema" width="254.641" height="223.923" x="0" y="0" font-family="sans-serif" stroke="rgb(0,0,0)" stroke-width="1" >
<line x1="194.6" y1="109.3" x2="154.6" y2="109.3"/>
<line x1="194.6" y1="109.3" x2="209.4" y2="83.6"/>
<polygon points="131.431535 95.882032 152.641016 112.746134 156.641016 105.817931 " />
<line x1="154.6" y1="109.3" x2="134.6" y2="143.9"/>
<line x1="154.6" y1="109.3" x2="154.6" y2="79.7"/>
<line x1="135.0" y1="169.5" x2="134.2" y2="169.5"/>
<line x1="135.4" y1="165.5" x2="133.8" y2="165.5"/>
<line x1="135.8" y1="161.5" x2="133.4" y2="161.5"/>
<line x1="136.2" y1="157.5" x2="133.0" y2="157.5"/>
<line x1="136.6" y1="153.5" x2="132.6" y2="153.5"/>
<line x1="137.0" y1="149.5" x2="132.2" y2="149.5"/>
<line x1="137.4" y1="145.5" x2="131.8" y2="145.5"/>
<line x1="134.6" y1="143.9" x2="94.6" y2="143.9"/>
<line x1="134.6" y1="143.9" x2="160.3" y2="158.7"/>
<polygon points="71.431535 157.323048 96.641016 147.387150 92.641016 140.458947 " />
<line x1="94.6" y1="143.9" x2="74.6" y2="109.3"/>
<line x1="94.6" y1="143.9" x2="94.6" y2="173.5"/>
<line x1="52.3" y1="96.8" x2="52.7" y2="96.1"/>
<line x1="55.5" y1="99.2" x2="56.3" y2="97.8"/>
<line x1="58.8" y1="101.5" x2="60.0" y2="99.4"/>
<line x1="62.1" y1="103.9" x2="63.7" y2="101.1"/>
<line x1="65.3" y1="106.2" x2="67.3" y2="102.7"/>
<line x1="68.6" y1="108.6" x2="71.0" y2="104.4"/>
<line x1="71.9" y1="110.9" x2="74.7" y2="106.1"/>
<line x1="74.6" y1="109.3" x2="94.6" y2="74.6"/>
<line x1="74.6" y1="109.3" x2="49.0" y2="124.1"/>
<line x1="94.6" y1="71.6" x2="124.2" y2="71.6"/>
<line x1="94.6" y1="77.6" x2="124.2" y2="77.6"/>
<line x1="94.6" y1="74.6" x2="79.8" y2="49.0"/>
<text x="208.641016" y="82.961016" fill="rgb(255,12,12)"  stroke="rgb(255,12,12)" stroke-width="1" font-size="16" >OH</text>
<text x="148.641016" y="77.602032" fill="rgb(255,12,12)"  stroke="rgb(255,12,12)" stroke-width="1" font-size="16" >OH</text>
<text x="163.282032" y="168.723048" fill="rgb(255,12,12)"  stroke="rgb(255,12,12)" stroke-width="1" font-size="16" >OH</text>
<text x="88.641016" y="188.723048" fill="rgb(255,12,12)"  stroke="rgb(255,12,12)" stroke-width="1" font-size="16" >OH</text>
<text x="24.400000" y="134.082032" fill="rgb(255,12,12)"  stroke="rgb(255,12,12)" stroke-width="1" font-size="16" >HO</text>
<text x="128.641016" y="82.961016" fill="rgb(255,12,12)"  stroke="rgb(255,12,12)" stroke-width="1" font-size="16" >O</text>
<text x="59.041016" y="48.320000" fill="rgb(255,12,12)"  stroke="rgb(255,12,12)" stroke-width="1" font-size="16" >HO</text>
<text x="116.400000" y="97.602032" fill="rgb(191,191,191)"  stroke="rgb(191,191,191)" stroke-width="1" font-size="16" >H</text>
<text x="128.641016" y="188.723048" fill="rgb(191,191,191)"  stroke="rgb(191,191,191)" stroke-width="1" font-size="16" >H</text>
<text x="56.400000" y="168.723048" fill="rgb(191,191,191)"  stroke="rgb(191,191,191)" stroke-width="1" font-size="16" >H</text>
<text x="36.400000" y="97.602032" fill="rgb(191,191,191)"  stroke="rgb(191,191,191)" stroke-width="1" font-size="16" >H</text>
<text font-size="18.000000" fill ="black" font-family="sans-serif"
x="140.000000" y="20.000000" ></text>
<title> - OBDepict</title>
</svg>
