<?xml version="1.0"?>
<svg xmlns="http://www.w3.org/2000/svg"
xmlns:xlink="http://www.w3.org/1999/xlink" xmlns:cml="http://www.xml-cml.org/schema" width="408.166" height="280.149" x="0" y="0" font-family="sans-serif" stroke="rgb(0,0,0)" stroke-width="1" >
<line x1="53.3" y1="93.4" x2="78.2" y2="78.9"/>
<line x1="348.7" y1="137.4" x2="309.7" y2="137.4"/>
<line x1="348.7" y1="137.4" x2="363.1" y2="112.4"/>
<line x1="204.7" y1="202.5" x2="167.0" y2="192.4"/>
<line x1="204.7" y1="202.5" x2="212.1" y2="230.4"/>
<line x1="79.7" y1="76.3" x2="104.7" y2="90.8"/>
<line x1="76.7" y1="81.5" x2="101.7" y2="96.0"/>
<line x1="78.2" y1="78.9" x2="78.2" y2="50.1"/>
<line x1="322.6" y1="158.8" x2="321.9" y2="159.2"/>
<line x1="321.0" y1="155.2" x2="319.6" y2="156.0"/>
<line x1="319.4" y1="151.6" x2="317.3" y2="152.8"/>
<line x1="317.8" y1="148.0" x2="315.0" y2="149.6"/>
<line x1="316.2" y1="144.5" x2="312.7" y2="146.5"/>
<line x1="314.5" y1="140.9" x2="310.4" y2="143.3"/>
<line x1="312.9" y1="137.3" x2="308.1" y2="140.1"/>
<line x1="173.9" y1="216.4" x2="173.1" y2="216.6"/>
<line x1="173.3" y1="212.6" x2="171.7" y2="213.0"/>
<line x1="172.6" y1="208.7" x2="170.3" y2="209.3"/>
<line x1="172.0" y1="204.8" x2="168.9" y2="205.7"/>
<line x1="171.4" y1="201.0" x2="167.5" y2="202.0"/>
<line x1="170.8" y1="197.1" x2="166.1" y2="198.3"/>
<line x1="170.2" y1="193.2" x2="164.7" y2="194.7"/>
<polygon points="63.748567 157.340468 113.496087 141.063939 110.434619 133.672903 " />
<line x1="112.0" y1="137.4" x2="112.0" y2="108.5"/>
<polygon points="335.839346 98.421053 309.744609 94.421053 309.744609 102.421053 " />
<line x1="309.7" y1="98.4" x2="324.2" y2="73.5"/>
<line x1="166.9" y1="109.4" x2="167.5" y2="109.9"/>
<line x1="163.9" y1="111.9" x2="165.0" y2="113.0"/>
<line x1="160.9" y1="114.3" x2="162.6" y2="116.0"/>
<line x1="157.8" y1="116.8" x2="160.1" y2="119.1"/>
<line x1="154.8" y1="119.3" x2="157.6" y2="122.1"/>
<line x1="151.7" y1="121.7" x2="155.1" y2="125.1"/>
<line x1="148.7" y1="124.2" x2="152.7" y2="128.2"/>
<line x1="149.6" y1="127.3" x2="142.1" y2="99.4"/>
<line x1="288.1" y1="57.2" x2="288.8" y2="57.6"/>
<line x1="285.8" y1="60.3" x2="287.2" y2="61.1"/>
<line x1="283.5" y1="63.5" x2="285.6" y2="64.7"/>
<line x1="281.3" y1="66.7" x2="284.0" y2="68.3"/>
<line x1="279.0" y1="69.9" x2="282.4" y2="71.9"/>
<line x1="276.7" y1="73.0" x2="280.8" y2="75.4"/>
<line x1="274.4" y1="76.2" x2="279.2" y2="79.0"/>
<line x1="276.0" y1="78.9" x2="261.6" y2="54.0"/>
<line x1="229.5" y1="77.0" x2="230.2" y2="76.6"/>
<line x1="231.1" y1="80.6" x2="232.5" y2="79.8"/>
<line x1="232.7" y1="84.2" x2="234.8" y2="83.0"/>
<line x1="234.3" y1="87.8" x2="237.1" y2="86.2"/>
<line x1="235.9" y1="91.3" x2="239.3" y2="89.3"/>
<line x1="237.5" y1="94.9" x2="241.6" y2="92.5"/>
<line x1="239.1" y1="98.5" x2="243.9" y2="95.7"/>
<line x1="242.3" y1="98.4" x2="213.5" y2="98.4"/>
<polygon points="202.331151 161.581864 178.160847 150.964345 176.090294 158.691752 " />
<line x1="177.1" y1="154.8" x2="197.5" y2="134.4"/>
<line x1="77.7" y1="168.9" x2="77.9" y2="168.2"/>
<line x1="81.4" y1="170.3" x2="81.8" y2="168.8"/>
<line x1="85.0" y1="171.7" x2="85.6" y2="169.4"/>
<line x1="88.7" y1="173.1" x2="89.5" y2="170.0"/>
<line x1="92.3" y1="174.5" x2="93.4" y2="170.6"/>
<line x1="96.0" y1="175.9" x2="97.2" y2="171.3"/>
<line x1="99.7" y1="177.3" x2="101.1" y2="171.9"/>
<line x1="101.9" y1="175.0" x2="81.5" y2="195.4"/>
<polygon points="245.691834 163.239914 246.251567 136.846316 238.320008 137.890526 " />
<line x1="242.3" y1="137.4" x2="214.4" y2="129.9"/>
<line x1="276.0" y1="78.9" x2="242.3" y2="98.4"/>
<line x1="242.3" y1="98.4" x2="242.3" y2="137.4"/>
<line x1="242.3" y1="137.4" x2="267.2" y2="151.8"/>
<line x1="284.8" y1="151.8" x2="309.7" y2="137.4"/>
<line x1="309.7" y1="137.4" x2="309.7" y2="98.4"/>
<line x1="309.7" y1="98.4" x2="276.0" y2="78.9"/>
<line x1="112.0" y1="137.4" x2="149.6" y2="127.3"/>
<line x1="149.6" y1="127.3" x2="177.1" y2="154.8"/>
<line x1="177.1" y1="154.8" x2="167.0" y2="192.4"/>
<line x1="167.0" y1="192.4" x2="139.2" y2="199.9"/>
<line x1="122.3" y1="195.4" x2="101.9" y2="175.0"/>
<line x1="101.9" y1="175.0" x2="112.0" y2="137.4"/>
<text x="20.906532" y="103.221053" fill="rgb(102,102,102)"  stroke="rgb(102,102,102)" stroke-width="1" font-size="16" >H</text>
<text x="32.906532" y="108.021053" fill="rgb(102,102,102)"  stroke="rgb(102,102,102)" stroke-width="1" font-size="13" >3</text>
<text x="39.406532" y="103.221053" fill="rgb(102,102,102)"  stroke="rgb(102,102,102)" stroke-width="1" font-size="16" >C</text>
<text x="105.965353" y="106.741053" fill="rgb(12,12,255)"  stroke="rgb(12,12,255)" stroke-width="1" font-size="16" >N</text>
<text x="362.165661" y="111.959011" fill="rgb(255,12,12)"  stroke="rgb(255,12,12)" stroke-width="1" font-size="16" >OH</text>
<text x="208.745839" y="244.948907" fill="rgb(255,12,12)"  stroke="rgb(255,12,12)" stroke-width="1" font-size="16" >OH</text>
<text x="72.235943" y="48.320000" fill="rgb(255,12,12)"  stroke="rgb(255,12,12)" stroke-width="1" font-size="16" >OH</text>
<text x="323.218293" y="73.011642" fill="rgb(255,12,12)"  stroke="rgb(255,12,12)" stroke-width="1" font-size="16" >OH</text>
<text x="123.905301" y="97.987831" fill="rgb(255,12,12)"  stroke="rgb(255,12,12)" stroke-width="1" font-size="16" >HO</text>
<text x="240.941514" y="53.537958" fill="rgb(255,12,12)"  stroke="rgb(255,12,12)" stroke-width="1" font-size="16" >HO</text>
<text x="187.738419" y="106.741053" fill="rgb(255,12,12)"  stroke="rgb(255,12,12)" stroke-width="1" font-size="16" >HO</text>
<text x="58.745084" y="207.328638" fill="rgb(255,12,12)"  stroke="rgb(255,12,12)" stroke-width="1" font-size="16" >HO</text>
<text x="125.824981" y="207.328638" fill="rgb(255,12,12)"  stroke="rgb(255,12,12)" stroke-width="1" font-size="16" >O</text>
<text x="270.015198" y="161.642105" fill="rgb(255,12,12)"  stroke="rgb(255,12,12)" stroke-width="1" font-size="16" >O</text>
<text x="201.065519" y="135.608100" fill="rgb(255,12,12)"  stroke="rgb(255,12,12)" stroke-width="1" font-size="16" >O</text>
<text x="323.218293" y="175.897832" fill="rgb(191,191,191)"  stroke="rgb(191,191,191)" stroke-width="1" font-size="16" >H</text>
<text x="171.125570" y="234.868587" fill="rgb(191,191,191)"  stroke="rgb(191,191,191)" stroke-width="1" font-size="16" >H</text>
<text x="36.400000" y="171.977446" fill="rgb(191,191,191)"  stroke="rgb(191,191,191)" stroke-width="1" font-size="16" >H</text>
<text x="342.691977" y="106.741053" fill="rgb(191,191,191)"  stroke="rgb(191,191,191)" stroke-width="1" font-size="16" >H</text>
<text x="171.125570" y="108.068152" fill="rgb(191,191,191)"  stroke="rgb(191,191,191)" stroke-width="1" font-size="16" >H</text>
<text x="289.488882" y="53.537958" fill="rgb(191,191,191)"  stroke="rgb(191,191,191)" stroke-width="1" font-size="16" >H</text>
<text x="219.212104" y="73.011642" fill="rgb(191,191,191)"  stroke="rgb(191,191,191)" stroke-width="1" font-size="16" >H</text>
<text x="208.745839" y="169.708369" fill="rgb(191,191,191)"  stroke="rgb(191,191,191)" stroke-width="1" font-size="16" >H</text>
<text x="60.664763" y="173.228369" fill="rgb(191,191,191)"  stroke="rgb(191,191,191)" stroke-width="1" font-size="16" >H</text>
<text x="241.369439" y="180.782589" fill="rgb(191,191,191)"  stroke="rgb(191,191,191)" stroke-width="1" font-size="16" >H</text>
<text font-size="18.000000" fill ="black" font-family="sans-serif"
x="140.000000" y="20.000000" ></text>
<title> - OBDepict</title>
</svg>
