<?xml version="1.0"?>
<svg xmlns="http://www.w3.org/2000/svg"
xmlns:xlink="http://www.w3.org/1999/xlink" xmlns:cml="http://www.xml-cml.org/schema" width="403.757" height="327.627" x="0" y="0" font-family="sans-serif" stroke="rgb(0,0,0)" stroke-width="1" >
<line x1="234.2" y1="52.8" x2="250.8" y2="62.4"/>
<line x1="190.6" y1="217.2" x2="190.6" y2="198.0"/>
<line x1="329.1" y1="227.6" x2="354.8" y2="242.4"/>
<line x1="326.1" y1="227.6" x2="326.1" y2="187.6"/>
<line x1="332.1" y1="227.6" x2="332.1" y2="187.6"/>
<line x1="329.1" y1="227.6" x2="294.5" y2="247.6"/>
<line x1="329.1" y1="187.6" x2="354.8" y2="172.8"/>
<line x1="329.1" y1="187.6" x2="294.5" y2="167.6"/>
<line x1="297.5" y1="247.6" x2="297.5" y2="277.2"/>
<line x1="291.5" y1="247.6" x2="291.5" y2="277.2"/>
<line x1="50.4" y1="155.9" x2="89.0" y2="145.6"/>
<line x1="50.4" y1="155.9" x2="42.7" y2="184.5"/>
<line x1="259.8" y1="107.6" x2="259.8" y2="78.0"/>
<line x1="225.2" y1="167.6" x2="199.6" y2="182.4"/>
<polygon points="82.053444 171.445149 92.853498 146.593614 85.126092 144.523061 " />
<line x1="54.0" y1="113.9" x2="53.8" y2="113.2"/>
<line x1="58.0" y1="113.3" x2="57.6" y2="111.7"/>
<line x1="61.9" y1="112.6" x2="61.3" y2="110.3"/>
<line x1="65.9" y1="112.0" x2="65.1" y2="108.9"/>
<line x1="69.9" y1="111.3" x2="68.8" y2="107.5"/>
<line x1="73.8" y1="110.7" x2="72.6" y2="106.1"/>
<line x1="77.8" y1="110.0" x2="76.4" y2="104.6"/>
<line x1="78.6" y1="106.9" x2="57.7" y2="86.0"/>
<polygon points="87.970843 59.686571 104.092877 81.465460 109.749731 75.808606 " />
<line x1="106.9" y1="78.6" x2="114.6" y2="50.0"/>
<line x1="151.8" y1="64.2" x2="152.6" y2="64.4"/>
<line x1="150.4" y1="67.9" x2="151.9" y2="68.3"/>
<line x1="149.0" y1="71.7" x2="151.3" y2="72.3"/>
<line x1="147.5" y1="75.4" x2="150.6" y2="76.3"/>
<line x1="146.1" y1="79.2" x2="150.0" y2="80.2"/>
<line x1="144.7" y1="83.0" x2="149.3" y2="84.2"/>
<line x1="143.3" y1="86.7" x2="148.7" y2="88.2"/>
<line x1="145.6" y1="89.0" x2="174.1" y2="81.3"/>
<line x1="225.2" y1="127.6" x2="199.6" y2="112.8"/>
<line x1="155.9" y1="127.6" x2="159.8" y2="157.0"/>
<line x1="155.9" y1="127.6" x2="181.5" y2="112.8"/>
<line x1="294.5" y1="127.6" x2="294.5" y2="167.6"/>
<line x1="287.3" y1="133.6" x2="287.3" y2="161.6"/>
<line x1="294.5" y1="167.6" x2="259.8" y2="187.6"/>
<line x1="259.8" y1="187.6" x2="225.2" y2="167.6"/>
<line x1="258.2" y1="178.4" x2="234.0" y2="164.4"/>
<line x1="225.2" y1="167.6" x2="225.2" y2="127.6"/>
<line x1="225.2" y1="127.6" x2="259.8" y2="107.6"/>
<line x1="234.0" y1="130.9" x2="258.2" y2="116.9"/>
<line x1="259.8" y1="107.6" x2="294.5" y2="127.6"/>
<line x1="106.9" y1="78.6" x2="145.6" y2="89.0"/>
<line x1="145.6" y1="89.0" x2="155.9" y2="127.6"/>
<line x1="155.9" y1="127.6" x2="135.0" y2="148.6"/>
<line x1="117.6" y1="153.2" x2="89.0" y2="145.6"/>
<line x1="89.0" y1="145.6" x2="78.6" y2="106.9"/>
<line x1="78.6" y1="106.9" x2="106.9" y2="78.6"/>
<text x="201.593131" y="55.946828" fill="rgb(102,102,102)"  stroke="rgb(102,102,102)" stroke-width="1" font-size="16" >H</text>
<text x="213.593131" y="63.626828" fill="rgb(102,102,102)"  stroke="rgb(102,102,102)" stroke-width="1" font-size="13" >3</text>
<text x="220.093131" y="55.946828" fill="rgb(102,102,102)"  stroke="rgb(102,102,102)" stroke-width="1" font-size="16" >C</text>
<text x="184.552115" y="232.426828" fill="rgb(102,102,102)"  stroke="rgb(102,102,102)" stroke-width="1" font-size="16" >CH</text>
<text x="208.552115" y="237.226828" fill="rgb(102,102,102)"  stroke="rgb(102,102,102)" stroke-width="1" font-size="13" >3</text>
<text x="288.475164" y="292.426828" fill="rgb(255,12,12)"  stroke="rgb(255,12,12)" stroke-width="1" font-size="16" >O</text>
<text x="24.400000" y="199.348132" fill="rgb(255,12,12)"  stroke="rgb(255,12,12)" stroke-width="1" font-size="16" >HO</text>
<text x="34.752762" y="86.957033" fill="rgb(255,12,12)"  stroke="rgb(255,12,12)" stroke-width="1" font-size="16" >HO</text>
<text x="111.274066" y="48.320000" fill="rgb(255,12,12)"  stroke="rgb(255,12,12)" stroke-width="1" font-size="16" >OH</text>
<text x="178.195370" y="86.957033" fill="rgb(255,12,12)"  stroke="rgb(255,12,12)" stroke-width="1" font-size="16" >OH</text>
<text x="253.834148" y="75.946828" fill="rgb(255,12,12)"  stroke="rgb(255,12,12)" stroke-width="1" font-size="16" >O</text>
<text x="186.952115" y="195.946828" fill="rgb(255,12,12)"  stroke="rgb(255,12,12)" stroke-width="1" font-size="16" >O</text>
<text x="121.626828" y="160.711099" fill="rgb(255,12,12)"  stroke="rgb(255,12,12)" stroke-width="1" font-size="16" >O</text>
<text x="184.552115" y="115.946828" fill="rgb(255,12,12)"  stroke="rgb(255,12,12)" stroke-width="1" font-size="16" >O</text>
<text x="357.757196" y="252.426828" fill="rgb(191,191,191)"  stroke="rgb(191,191,191)" stroke-width="1" font-size="16" >H</text>
<text x="357.757196" y="175.946828" fill="rgb(191,191,191)"  stroke="rgb(191,191,191)" stroke-width="1" font-size="16" >H</text>
<text x="75.037033" y="188.995370" fill="rgb(191,191,191)"  stroke="rgb(191,191,191)" stroke-width="1" font-size="16" >H</text>
<text x="36.400000" y="122.074066" fill="rgb(191,191,191)"  stroke="rgb(191,191,191)" stroke-width="1" font-size="16" >H</text>
<text x="75.037033" y="58.672762" fill="rgb(191,191,191)"  stroke="rgb(191,191,191)" stroke-width="1" font-size="16" >H</text>
<text x="149.911099" y="58.672762" fill="rgb(191,191,191)"  stroke="rgb(191,191,191)" stroke-width="1" font-size="16" >H</text>
<text x="155.132147" y="172.084622" fill="rgb(191,191,191)"  stroke="rgb(191,191,191)" stroke-width="1" font-size="16" >H</text>
<text font-size="18.000000" fill ="black" font-family="sans-serif"
x="140.000000" y="20.000000" ></text>
<title> - OBDepict</title>
</svg>
