<?xml version="1.0"?>
<svg xmlns="http://www.w3.org/2000/svg"
xmlns:xlink="http://www.w3.org/1999/xlink" xmlns:cml="http://www.xml-cml.org/schema" width="466.783" height="317.168" x="0" y="0" font-family="sans-serif" stroke="rgb(0,0,0)" stroke-width="1" >
<line x1="330.1" y1="49.9" x2="321.0" y2="78.0"/>
<line x1="111.6" y1="266.8" x2="111.6" y2="237.2"/>
<line x1="117.6" y1="266.8" x2="117.6" y2="237.2"/>
<line x1="241.2" y1="90.1" x2="253.2" y2="117.2"/>
<line x1="218.6" y1="217.2" x2="244.2" y2="232.0"/>
<line x1="218.6" y1="217.2" x2="183.9" y2="237.2"/>
<line x1="215.6" y1="217.2" x2="215.6" y2="177.2"/>
<line x1="221.6" y1="217.2" x2="221.6" y2="177.2"/>
<line x1="183.9" y1="237.2" x2="183.9" y2="266.8"/>
<line x1="182.4" y1="239.8" x2="147.8" y2="219.8"/>
<line x1="185.4" y1="234.6" x2="150.8" y2="214.6"/>
<line x1="359.0" y1="90.4" x2="388.7" y2="63.6"/>
<line x1="359.0" y1="90.4" x2="321.0" y2="78.0"/>
<line x1="389.7" y1="60.8" x2="417.8" y2="69.9"/>
<line x1="387.8" y1="66.5" x2="416.0" y2="75.6"/>
<line x1="303.5" y1="59.3" x2="304.1" y2="58.8"/>
<line x1="305.9" y1="62.5" x2="307.1" y2="61.5"/>
<line x1="308.3" y1="65.8" x2="310.1" y2="64.2"/>
<line x1="310.7" y1="69.0" x2="313.1" y2="66.9"/>
<line x1="313.1" y1="72.2" x2="316.0" y2="69.6"/>
<line x1="315.4" y1="75.5" x2="319.0" y2="72.3"/>
<line x1="317.8" y1="78.7" x2="322.0" y2="75.0"/>
<line x1="321.0" y1="78.0" x2="291.2" y2="104.8"/>
<polygon points="101.241016 133.958684 111.176915 159.168165 118.105118 155.168165 " />
<line x1="114.6" y1="157.2" x2="129.4" y2="131.5"/>
<polygon points="285.675308 78.593129 287.334751 105.639132 295.159932 103.975838 " />
<polygon points="242.304539 181.651183 256.859263 158.795111 249.550899 155.541218 " />
<polygon points="66.600000 240.377646 83.464102 219.168165 76.535898 215.168165 " />
<line x1="80.0" y1="217.2" x2="50.4" y2="217.2"/>
<line x1="314.8" y1="137.2" x2="291.2" y2="104.8"/>
<line x1="291.2" y1="104.8" x2="253.2" y2="117.2"/>
<line x1="253.2" y1="117.2" x2="253.2" y2="157.2"/>
<line x1="253.2" y1="157.2" x2="291.2" y2="169.5"/>
<line x1="291.2" y1="169.5" x2="314.8" y2="137.2"/>
<line x1="183.9" y1="117.2" x2="183.9" y2="157.2"/>
<line x1="183.9" y1="157.2" x2="218.6" y2="177.2"/>
<line x1="218.6" y1="177.2" x2="253.2" y2="157.2"/>
<line x1="253.2" y1="117.2" x2="218.6" y2="97.2"/>
<line x1="218.6" y1="97.2" x2="183.9" y2="117.2"/>
<line x1="149.3" y1="177.2" x2="114.6" y2="157.2"/>
<line x1="114.6" y1="157.2" x2="80.0" y2="177.2"/>
<line x1="80.0" y1="177.2" x2="80.0" y2="217.2"/>
<line x1="80.0" y1="217.2" x2="114.6" y2="237.2"/>
<line x1="114.6" y1="237.2" x2="149.3" y2="217.2"/>
<line x1="149.3" y1="217.2" x2="149.3" y2="177.2"/>
<text x="327.333814" y="48.320000" fill="rgb(102,102,102)"  stroke="rgb(102,102,102)" stroke-width="1" font-size="16" >CH</text>
<text x="351.333814" y="56.000000" fill="rgb(102,102,102)"  stroke="rgb(102,102,102)" stroke-width="1" font-size="13" >3</text>
<text x="108.641016" y="281.968165" fill="rgb(102,102,102)"  stroke="rgb(102,102,102)" stroke-width="1" font-size="16" >CH</text>
<text x="132.641016" y="286.768165" fill="rgb(102,102,102)"  stroke="rgb(102,102,102)" stroke-width="1" font-size="13" >2</text>
<text x="213.335615" y="88.946346" fill="rgb(102,102,102)"  stroke="rgb(102,102,102)" stroke-width="1" font-size="16" >H</text>
<text x="225.335615" y="96.626346" fill="rgb(102,102,102)"  stroke="rgb(102,102,102)" stroke-width="1" font-size="13" >3</text>
<text x="231.835615" y="88.946346" fill="rgb(102,102,102)"  stroke="rgb(102,102,102)" stroke-width="1" font-size="16" >C</text>
<text x="420.783449" y="80.798396" fill="rgb(255,12,12)"  stroke="rgb(255,12,12)" stroke-width="1" font-size="16" >O</text>
<text x="128.641016" y="130.847149" fill="rgb(255,12,12)"  stroke="rgb(255,12,12)" stroke-width="1" font-size="16" >OH</text>
<text x="24.400000" y="221.968165" fill="rgb(255,12,12)"  stroke="rgb(255,12,12)" stroke-width="1" font-size="16" >HO</text>
<text x="247.205081" y="241.968165" fill="rgb(191,191,191)"  stroke="rgb(191,191,191)" stroke-width="1" font-size="16" >H</text>
<text x="177.923048" y="281.968165" fill="rgb(191,191,191)"  stroke="rgb(191,191,191)" stroke-width="1" font-size="16" >H</text>
<text x="290.607910" y="56.636468" fill="rgb(191,191,191)"  stroke="rgb(191,191,191)" stroke-width="1" font-size="16" >H</text>
<text x="91.041016" y="130.847149" fill="rgb(191,191,191)"  stroke="rgb(191,191,191)" stroke-width="1" font-size="16" >H</text>
<text x="279.330874" y="74.001581" fill="rgb(191,191,191)"  stroke="rgb(191,191,191)" stroke-width="1" font-size="16" >H</text>
<text x="233.335615" y="198.509983" fill="rgb(191,191,191)"  stroke="rgb(191,191,191)" stroke-width="1" font-size="16" >H</text>
<text x="56.400000" y="256.609181" fill="rgb(191,191,191)"  stroke="rgb(191,191,191)" stroke-width="1" font-size="16" >H</text>
<text font-size="18.000000" fill ="black" font-family="sans-serif"
x="140.000000" y="20.000000" ></text>
<title> - OBDepict</title>
</svg>
