<?xml version="1.0"?>
<svg xmlns="http://www.w3.org/2000/svg"
xmlns:xlink="http://www.w3.org/1999/xlink" xmlns:cml="http://www.xml-cml.org/schema" width="391.769" height="100" x="0" y="0" font-family="sans-serif" stroke="rgb(0,0,0)" stroke-width="1" >
<line x1="143.9" y1="40.0" x2="109.3" y2="60.0"/>
<line x1="143.9" y1="40.0" x2="178.6" y2="60.0"/>
<line x1="109.3" y1="60.0" x2="74.6" y2="40.0"/>
<line x1="282.5" y1="40.0" x2="317.1" y2="60.0"/>
<line x1="282.5" y1="40.0" x2="247.8" y2="60.0"/>
<line x1="317.1" y1="60.0" x2="342.8" y2="45.2"/>
<line x1="178.6" y1="60.0" x2="204.2" y2="45.2"/>
<line x1="247.8" y1="60.0" x2="222.2" y2="45.2"/>
<line x1="76.1" y1="42.6" x2="50.5" y2="57.4"/>
<line x1="73.1" y1="37.4" x2="47.5" y2="52.2"/>
<text x="346.969145" y="33.600000" fill="rgb(12,12,255)"  stroke="rgb(12,12,255)" stroke-width="1" font-size="16" >+</text>
<text x="345.769145" y="48.320000" fill="rgb(12,12,255)"  stroke="rgb(12,12,255)" stroke-width="1" font-size="16" >NH</text>
<text x="369.769145" y="56.000000" fill="rgb(12,12,255)"  stroke="rgb(12,12,255)" stroke-width="1" font-size="13" >3</text>
<text x="209.305081" y="34.800000" fill="rgb(12,12,255)"  stroke="rgb(12,12,255)" stroke-width="1" font-size="13" >+</text>
<text x="207.205081" y="48.320000" fill="rgb(12,12,255)"  stroke="rgb(12,12,255)" stroke-width="1" font-size="16" >NH</text>
<text x="231.205081" y="56.000000" fill="rgb(12,12,255)"  stroke="rgb(12,12,255)" stroke-width="1" font-size="13" >2</text>
<text x="36.400000" y="64.800000" fill="rgb(255,12,12)"  stroke="rgb(255,12,12)" stroke-width="1" font-size="16" >O</text>
<text font-size="18.000000" fill ="black" font-family="sans-serif"
x="140.000000" y="20.000000" ></text>
<title> - OBDepict</title>
</svg>
