<?xml version="1.0"?>
<svg xmlns="http://www.w3.org/2000/svg"
xmlns:xlink="http://www.w3.org/1999/xlink" xmlns:cml="http://www.xml-cml.org/schema" width="647.76" height="596.911" x="0" y="0" font-family="sans-serif" stroke="rgb(0,0,0)" stroke-width="1" >
<line x1="375.0" y1="120.6" x2="415.0" y2="120.6"/>
<line x1="375.0" y1="120.6" x2="360.2" y2="146.2"/>
<line x1="175.0" y1="349.9" x2="135.0" y2="349.9"/>
<line x1="175.0" y1="349.9" x2="189.8" y2="324.2"/>
<line x1="401.9" y1="98.6" x2="402.6" y2="98.2"/>
<line x1="403.5" y1="102.3" x2="404.9" y2="101.5"/>
<line x1="405.2" y1="105.9" x2="407.2" y2="104.7"/>
<line x1="406.8" y1="109.6" x2="409.6" y2="108.0"/>
<line x1="408.5" y1="113.3" x2="411.9" y2="111.3"/>
<line x1="410.1" y1="116.9" x2="414.3" y2="114.5"/>
<line x1="411.8" y1="120.6" x2="416.6" y2="117.8"/>
<line x1="129.5" y1="324.9" x2="130.3" y2="324.7"/>
<line x1="129.9" y1="328.9" x2="131.5" y2="328.5"/>
<line x1="130.3" y1="332.9" x2="132.7" y2="332.4"/>
<line x1="130.7" y1="336.9" x2="133.9" y2="336.2"/>
<line x1="131.1" y1="340.9" x2="135.1" y2="340.1"/>
<line x1="131.5" y1="344.9" x2="136.2" y2="343.9"/>
<line x1="131.9" y1="348.9" x2="137.4" y2="347.7"/>
<line x1="575.4" y1="63.5" x2="599.3" y2="46.1"/>
<line x1="148.6" y1="519.6" x2="159.2" y2="547.2"/>
<polygon points="392.977154 165.942222 420.023156 164.282779 418.359862 156.457598 " />
<line x1="419.2" y1="160.4" x2="410.0" y2="188.5"/>
<polygon points="96.905441 316.850695 91.508319 343.404623 99.497355 343.823311 " />
<line x1="95.5" y1="343.6" x2="70.7" y2="327.5"/>
<polygon points="455.516050 195.339843 462.295501 169.104770 454.339326 168.268543 " />
<line x1="458.3" y1="168.7" x2="482.3" y2="186.1"/>
<polygon points="52.323262 369.649967 75.909745 382.988549 78.776689 375.519906 " />
<line x1="77.3" y1="379.3" x2="54.3" y2="397.9"/>
<line x1="501.9" y1="144.1" x2="501.5" y2="144.8"/>
<line x1="498.4" y1="142.1" x2="497.7" y2="143.6"/>
<line x1="494.9" y1="140.1" x2="493.9" y2="142.3"/>
<line x1="491.4" y1="138.1" x2="490.1" y2="141.0"/>
<line x1="487.9" y1="136.1" x2="486.3" y2="139.8"/>
<line x1="484.4" y1="134.1" x2="482.5" y2="138.5"/>
<line x1="480.9" y1="132.1" x2="478.6" y2="137.3"/>
<line x1="478.3" y1="134.0" x2="502.3" y2="116.6"/>
<line x1="89.8" y1="427.7" x2="89.2" y2="427.2"/>
<line x1="92.7" y1="424.8" x2="91.4" y2="423.8"/>
<line x1="95.5" y1="422.0" x2="93.6" y2="420.5"/>
<line x1="98.3" y1="419.1" x2="95.8" y2="417.1"/>
<line x1="101.1" y1="416.3" x2="98.0" y2="413.7"/>
<line x1="104.0" y1="413.4" x2="100.2" y2="410.4"/>
<line x1="106.8" y1="410.5" x2="102.4" y2="407.0"/>
<line x1="105.6" y1="407.5" x2="116.2" y2="435.2"/>
<line x1="550.2" y1="126.5" x2="553.3" y2="155.9"/>
<line x1="544.2" y1="127.1" x2="547.3" y2="156.6"/>
<line x1="94.3" y1="478.9" x2="65.1" y2="474.3"/>
<line x1="95.3" y1="473.0" x2="66.0" y2="468.4"/>
<line x1="315.0" y1="125.6" x2="315.0" y2="144.8"/>
<line x1="285.4" y1="152.2" x2="304.6" y2="152.2"/>
<line x1="285.4" y1="158.2" x2="304.6" y2="158.2"/>
<line x1="264.6" y1="315.2" x2="245.4" y2="315.2"/>
<line x1="232.0" y1="344.8" x2="232.0" y2="325.6"/>
<line x1="238.0" y1="344.8" x2="238.0" y2="325.6"/>
<line x1="344.6" y1="235.2" x2="325.4" y2="235.2"/>
<line x1="312.0" y1="264.8" x2="312.0" y2="245.6"/>
<line x1="318.0" y1="264.8" x2="318.0" y2="245.6"/>
<line x1="235.0" y1="205.6" x2="235.0" y2="224.8"/>
<line x1="205.4" y1="232.2" x2="224.6" y2="232.2"/>
<line x1="205.4" y1="238.2" x2="224.6" y2="238.2"/>
<line x1="344.6" y1="155.2" x2="325.4" y2="155.2"/>
<line x1="205.4" y1="315.2" x2="224.6" y2="315.2"/>
<line x1="315.0" y1="184.8" x2="315.0" y2="165.6"/>
<line x1="315.0" y1="205.6" x2="315.0" y2="224.8"/>
<line x1="235.0" y1="285.6" x2="235.0" y2="304.8"/>
<line x1="235.0" y1="264.8" x2="235.0" y2="245.6"/>
<line x1="285.4" y1="235.2" x2="304.6" y2="235.2"/>
<line x1="264.6" y1="235.2" x2="245.4" y2="235.2"/>
<line x1="458.3" y1="168.7" x2="478.3" y2="134.0"/>
<line x1="478.3" y1="134.0" x2="458.5" y2="112.0"/>
<line x1="442.1" y1="108.5" x2="415.0" y2="120.6"/>
<line x1="415.0" y1="120.6" x2="419.2" y2="160.4"/>
<line x1="419.2" y1="160.4" x2="458.3" y2="168.7"/>
<line x1="135.0" y1="349.9" x2="95.5" y2="343.6"/>
<line x1="95.5" y1="343.6" x2="77.3" y2="379.3"/>
<line x1="77.3" y1="379.3" x2="105.6" y2="407.5"/>
<line x1="105.6" y1="407.5" x2="132.0" y2="394.1"/>
<line x1="139.6" y1="379.1" x2="135.0" y2="349.9"/>
<line x1="173.8" y1="488.5" x2="148.6" y2="519.6"/>
<line x1="148.6" y1="519.6" x2="119.4" y2="514.9"/>
<line x1="143.8" y1="511.5" x2="122.5" y2="508.1"/>
<line x1="105.4" y1="503.6" x2="94.8" y2="476.0"/>
<line x1="94.8" y1="476.0" x2="113.4" y2="453.0"/>
<line x1="130.2" y1="446.5" x2="159.5" y2="451.1"/>
<line x1="159.5" y1="451.1" x2="173.8" y2="488.5"/>
<line x1="154.9" y1="459.3" x2="164.9" y2="485.5"/>
<line x1="538.9" y1="47.2" x2="506.5" y2="70.8"/>
<line x1="538.2" y1="56.6" x2="515.6" y2="73.1"/>
<line x1="506.5" y1="70.8" x2="509.6" y2="100.2"/>
<line x1="520.2" y1="114.8" x2="547.2" y2="126.8"/>
<line x1="547.2" y1="126.8" x2="571.2" y2="109.4"/>
<line x1="578.5" y1="92.9" x2="575.4" y2="63.5"/>
<line x1="571.1" y1="91.7" x2="568.9" y2="70.2"/>
<line x1="575.4" y1="63.5" x2="538.9" y2="47.2"/>
<text x="573.580591" y="108.092286" fill="rgb(12,12,255)"  stroke="rgb(12,12,255)" stroke-width="1" font-size="16" >N</text>
<text x="105.524109" y="518.110772" fill="rgb(12,12,255)"  stroke="rgb(12,12,255)" stroke-width="1" font-size="16" >N</text>
<text x="504.678093" y="115.334230" fill="rgb(12,12,255)"  stroke="rgb(12,12,255)" stroke-width="1" font-size="16" >N</text>
<text x="113.962206" y="449.681716" fill="rgb(12,12,255)"  stroke="rgb(12,12,255)" stroke-width="1" font-size="16" >N</text>
<text x="601.760132" y="48.320000" fill="rgb(255,12,12)"  stroke="rgb(255,12,12)" stroke-width="1" font-size="16" >OH</text>
<text x="156.966360" y="561.711367" fill="rgb(255,12,12)"  stroke="rgb(255,12,12)" stroke-width="1" font-size="16" >OH</text>
<text x="391.230829" y="203.212450" fill="rgb(255,12,12)"  stroke="rgb(255,12,12)" stroke-width="1" font-size="16" >HO</text>
<text x="46.356014" y="330.148405" fill="rgb(255,12,12)"  stroke="rgb(255,12,12)" stroke-width="1" font-size="16" >HO</text>
<text x="484.678093" y="196.998067" fill="rgb(255,12,12)"  stroke="rgb(255,12,12)" stroke-width="1" font-size="16" >OH</text>
<text x="30.657379" y="409.227043" fill="rgb(255,12,12)"  stroke="rgb(255,12,12)" stroke-width="1" font-size="16" >HO</text>
<text x="545.401050" y="171.384572" fill="rgb(255,12,12)"  stroke="rgb(255,12,12)" stroke-width="1" font-size="16" >O</text>
<text x="51.681857" y="478.030176" fill="rgb(255,12,12)"  stroke="rgb(255,12,12)" stroke-width="1" font-size="16" >O</text>
<text x="309.010371" y="123.550329" fill="rgb(255,12,12)"  stroke="rgb(255,12,12)" stroke-width="1" font-size="16" >OH</text>
<text x="271.410371" y="160.030329" fill="rgb(255,12,12)"  stroke="rgb(255,12,12)" stroke-width="1" font-size="16" >O</text>
<text x="269.010371" y="320.030329" fill="rgb(255,12,12)"  stroke="rgb(255,12,12)" stroke-width="1" font-size="16" >OH</text>
<text x="229.010371" y="360.030329" fill="rgb(255,12,12)"  stroke="rgb(255,12,12)" stroke-width="1" font-size="16" >O</text>
<text x="349.010371" y="240.030329" fill="rgb(255,12,12)"  stroke="rgb(255,12,12)" stroke-width="1" font-size="16" >OH</text>
<text x="309.010371" y="280.030329" fill="rgb(255,12,12)"  stroke="rgb(255,12,12)" stroke-width="1" font-size="16" >O</text>
<text x="229.010371" y="203.550329" fill="rgb(255,12,12)"  stroke="rgb(255,12,12)" stroke-width="1" font-size="16" >OH</text>
<text x="191.410371" y="240.030329" fill="rgb(255,12,12)"  stroke="rgb(255,12,12)" stroke-width="1" font-size="16" >O</text>
<text x="349.010371" y="160.030329" fill="rgb(255,12,12)"  stroke="rgb(255,12,12)" stroke-width="1" font-size="16" >O</text>
<text x="191.410371" y="323.550329" fill="rgb(255,12,12)"  stroke="rgb(255,12,12)" stroke-width="1" font-size="16" >O</text>
<text x="445.552189" y="112.639847" fill="rgb(255,12,12)"  stroke="rgb(255,12,12)" stroke-width="1" font-size="16" >O</text>
<text x="135.267749" y="394.178879" fill="rgb(255,12,12)"  stroke="rgb(255,12,12)" stroke-width="1" font-size="16" >O</text>
<text x="309.010371" y="200.030329" fill="rgb(255,12,12)"  stroke="rgb(255,12,12)" stroke-width="1" font-size="16" >O</text>
<text x="229.010371" y="280.030329" fill="rgb(255,12,12)"  stroke="rgb(255,12,12)" stroke-width="1" font-size="16" >O</text>
<text x="269.010371" y="240.030329" fill="rgb(255,12,12)"  stroke="rgb(255,12,12)" stroke-width="1" font-size="16" >O</text>
<text x="309.010371" y="163.550329" fill="rgb(255,127,0)"  stroke="rgb(255,127,0)" stroke-width="1" font-size="16" >P</text>
<text x="229.010371" y="323.550329" fill="rgb(255,127,0)"  stroke="rgb(255,127,0)" stroke-width="1" font-size="16" >P</text>
<text x="309.010371" y="243.550329" fill="rgb(255,127,0)"  stroke="rgb(255,127,0)" stroke-width="1" font-size="16" >P</text>
<text x="229.010371" y="243.550329" fill="rgb(255,127,0)"  stroke="rgb(255,127,0)" stroke-width="1" font-size="16" >P</text>
<text x="391.410371" y="94.268297" fill="rgb(191,191,191)"  stroke="rgb(191,191,191)" stroke-width="1" font-size="16" >H</text>
<text x="123.452608" y="318.990912" fill="rgb(191,191,191)"  stroke="rgb(191,191,191)" stroke-width="1" font-size="16" >H</text>
<text x="376.465605" y="173.486657" fill="rgb(191,191,191)"  stroke="rgb(191,191,191)" stroke-width="1" font-size="16" >H</text>
<text x="91.596275" y="311.988785" fill="rgb(191,191,191)"  stroke="rgb(191,191,191)" stroke-width="1" font-size="16" >H</text>
<text x="450.536275" y="213.267532" fill="rgb(191,191,191)"  stroke="rgb(191,191,191)" stroke-width="1" font-size="16" >H</text>
<text x="36.400000" y="373.239510" fill="rgb(191,191,191)"  stroke="rgb(191,191,191)" stroke-width="1" font-size="16" >H</text>
<text x="508.859232" y="155.115106" fill="rgb(191,191,191)"  stroke="rgb(191,191,191)" stroke-width="1" font-size="16" >H</text>
<text x="76.854673" y="443.424337" fill="rgb(191,191,191)"  stroke="rgb(191,191,191)" stroke-width="1" font-size="16" >H</text>
<text font-size="18.000000" fill ="black" font-family="sans-serif"
x="140.000000" y="20.000000" ></text>
<title> - OBDepict</title>
</svg>
