<?xml version="1.0"?>
<svg xmlns="http://www.w3.org/2000/svg"
xmlns:xlink="http://www.w3.org/1999/xlink" xmlns:cml="http://www.xml-cml.org/schema" width="571.769" height="400" x="0" y="0" font-family="sans-serif" stroke="rgb(0,0,0)" stroke-width="1" >
<line x1="358.6" y1="160.0" x2="358.6" y2="189.6"/>
<line x1="358.6" y1="160.0" x2="323.9" y2="140.0"/>
<line x1="357.1" y1="157.4" x2="391.7" y2="137.4"/>
<line x1="360.1" y1="162.6" x2="394.7" y2="142.6"/>
<line x1="323.9" y1="140.0" x2="323.9" y2="110.4"/>
<line x1="325.4" y1="142.6" x2="290.8" y2="162.6"/>
<line x1="322.4" y1="137.4" x2="287.8" y2="157.4"/>
<line x1="393.2" y1="140.0" x2="418.8" y2="154.8"/>
<line x1="393.2" y1="140.0" x2="393.2" y2="100.0"/>
<line x1="289.3" y1="160.0" x2="289.3" y2="189.6"/>
<line x1="289.3" y1="160.0" x2="254.6" y2="140.0"/>
<line x1="393.2" y1="100.0" x2="367.6" y2="85.2"/>
<line x1="391.7" y1="97.4" x2="426.3" y2="77.4"/>
<line x1="394.7" y1="102.6" x2="429.3" y2="82.6"/>
<line x1="254.6" y1="140.0" x2="254.6" y2="110.4"/>
<line x1="256.1" y1="142.6" x2="221.5" y2="162.6"/>
<line x1="253.1" y1="137.4" x2="218.5" y2="157.4"/>
<line x1="427.8" y1="80.0" x2="427.8" y2="50.4"/>
<line x1="427.8" y1="80.0" x2="462.5" y2="100.0"/>
<line x1="120.0" y1="165.4" x2="160.0" y2="165.4"/>
<line x1="120.0" y1="165.4" x2="100.0" y2="130.7"/>
<line x1="160.0" y1="165.4" x2="180.0" y2="200.0"/>
<line x1="220.0" y1="160.0" x2="194.4" y2="145.2"/>
<line x1="220.0" y1="160.0" x2="220.0" y2="200.0"/>
<line x1="462.5" y1="100.0" x2="497.1" y2="80.0"/>
<line x1="100.0" y1="130.7" x2="60.0" y2="130.7"/>
<line x1="254.6" y1="260.0" x2="254.6" y2="300.0"/>
<line x1="254.6" y1="260.0" x2="229.0" y2="245.2"/>
<polygon points="241.241016 323.209481 258.105118 302.000000 251.176915 298.000000 " />
<line x1="254.6" y1="300.0" x2="289.3" y2="320.0"/>
<line x1="254.6" y1="300.0" x2="225.0" y2="300.0"/>
<line x1="158.0" y1="213.1" x2="157.6" y2="212.5"/>
<line x1="161.7" y1="211.5" x2="160.9" y2="210.1"/>
<line x1="165.4" y1="209.8" x2="164.2" y2="207.8"/>
<line x1="169.0" y1="208.2" x2="167.4" y2="205.4"/>
<line x1="172.7" y1="206.5" x2="170.7" y2="203.1"/>
<line x1="176.4" y1="204.9" x2="174.0" y2="200.7"/>
<line x1="180.0" y1="203.2" x2="177.2" y2="198.4"/>
<line x1="180.0" y1="200.0" x2="220.0" y2="200.0"/>
<line x1="180.0" y1="200.0" x2="180.0" y2="229.6"/>
<line x1="245.6" y1="199.6" x2="245.6" y2="200.4"/>
<line x1="241.6" y1="199.2" x2="241.6" y2="200.8"/>
<line x1="237.6" y1="198.8" x2="237.6" y2="201.2"/>
<line x1="233.6" y1="198.4" x2="233.6" y2="201.6"/>
<line x1="229.6" y1="198.0" x2="229.6" y2="202.0"/>
<line x1="225.6" y1="197.6" x2="225.6" y2="202.4"/>
<line x1="221.6" y1="197.2" x2="221.6" y2="202.8"/>
<line x1="220.0" y1="200.0" x2="220.0" y2="229.6"/>
<line x1="498.6" y1="77.4" x2="524.3" y2="92.2"/>
<line x1="495.6" y1="82.6" x2="521.3" y2="97.4"/>
<line x1="497.1" y1="80.0" x2="497.1" y2="50.4"/>
<line x1="57.4" y1="132.2" x2="42.6" y2="106.6"/>
<line x1="62.6" y1="129.2" x2="47.8" y2="103.6"/>
<line x1="60.0" y1="130.7" x2="45.2" y2="156.4"/>
<line x1="287.8" y1="317.4" x2="313.4" y2="302.6"/>
<line x1="290.8" y1="322.6" x2="316.4" y2="307.8"/>
<line x1="289.3" y1="320.0" x2="289.3" y2="349.6"/>
<text x="191.041016" y="304.800000" fill="rgb(12,12,255)"  stroke="rgb(12,12,255)" stroke-width="1" font-size="16" >H</text>
<text x="203.041016" y="309.600000" fill="rgb(12,12,255)"  stroke="rgb(12,12,255)" stroke-width="1" font-size="13" >2</text>
<text x="209.541016" y="304.800000" fill="rgb(12,12,255)"  stroke="rgb(12,12,255)" stroke-width="1" font-size="16" >N</text>
<text x="174.000000" y="244.800000" fill="rgb(255,12,12)"  stroke="rgb(255,12,12)" stroke-width="1" font-size="16" >OH</text>
<text x="525.769145" y="104.800000" fill="rgb(255,12,12)"  stroke="rgb(255,12,12)" stroke-width="1" font-size="16" >O</text>
<text x="491.128129" y="48.320000" fill="rgb(255,12,12)"  stroke="rgb(255,12,12)" stroke-width="1" font-size="16" >OH</text>
<text x="36.400000" y="104.396952" fill="rgb(255,12,12)"  stroke="rgb(255,12,12)" stroke-width="1" font-size="16" >O</text>
<text x="24.400000" y="170.158984" fill="rgb(255,12,12)"  stroke="rgb(255,12,12)" stroke-width="1" font-size="16" >HO</text>
<text x="317.923048" y="308.320000" fill="rgb(255,12,12)"  stroke="rgb(255,12,12)" stroke-width="1" font-size="16" >O</text>
<text x="283.282032" y="364.800000" fill="rgb(255,12,12)"  stroke="rgb(255,12,12)" stroke-width="1" font-size="16" >OH</text>
<text x="216.400000" y="244.800000" fill="rgb(178,178,0)"  stroke="rgb(178,178,0)" stroke-width="1" font-size="16" >S</text>
<text x="352.564065" y="204.800000" fill="rgb(191,191,191)"  stroke="rgb(191,191,191)" stroke-width="1" font-size="16" >H</text>
<text x="317.923048" y="108.320000" fill="rgb(191,191,191)"  stroke="rgb(191,191,191)" stroke-width="1" font-size="16" >H</text>
<text x="421.846097" y="164.800000" fill="rgb(191,191,191)"  stroke="rgb(191,191,191)" stroke-width="1" font-size="16" >H</text>
<text x="283.282032" y="204.800000" fill="rgb(191,191,191)"  stroke="rgb(191,191,191)" stroke-width="1" font-size="16" >H</text>
<text x="354.964065" y="88.320000" fill="rgb(191,191,191)"  stroke="rgb(191,191,191)" stroke-width="1" font-size="16" >H</text>
<text x="248.641016" y="108.320000" fill="rgb(191,191,191)"  stroke="rgb(191,191,191)" stroke-width="1" font-size="16" >H</text>
<text x="421.846097" y="48.320000" fill="rgb(191,191,191)"  stroke="rgb(191,191,191)" stroke-width="1" font-size="16" >H</text>
<text x="181.758984" y="148.320000" fill="rgb(191,191,191)"  stroke="rgb(191,191,191)" stroke-width="1" font-size="16" >H</text>
<text x="231.041016" y="339.441016" fill="rgb(191,191,191)"  stroke="rgb(191,191,191)" stroke-width="1" font-size="16" >H</text>
<text x="141.758984" y="224.800000" fill="rgb(191,191,191)"  stroke="rgb(191,191,191)" stroke-width="1" font-size="16" >H</text>
<text x="254.000000" y="204.800000" fill="rgb(191,191,191)"  stroke="rgb(191,191,191)" stroke-width="1" font-size="16" >H</text>
<text font-size="18.000000" fill ="black" font-family="sans-serif"
x="140.000000" y="20.000000" ></text>
<title> - OBDepict</title>
</svg>
