<?xml version="1.0"?>
<svg xmlns="http://www.w3.org/2000/svg"
xmlns:xlink="http://www.w3.org/1999/xlink" xmlns:cml="http://www.xml-cml.org/schema" width="305.118" height="256.617" x="0" y="0" font-family="sans-serif" stroke="rgb(0,0,0)" stroke-width="1" >
<line x1="140.0" y1="80.0" x2="180.0" y2="80.0"/>
<line x1="140.0" y1="80.0" x2="125.2" y2="105.6"/>
<polygon points="203.209481 66.600000 178.000000 76.535898 182.000000 83.464102 " />
<line x1="180.0" y1="80.0" x2="200.0" y2="114.6"/>
<line x1="180.0" y1="80.0" x2="180.0" y2="50.4"/>
<line x1="225.2" y1="145.7" x2="254.7" y2="144.2"/>
<line x1="203.4" y1="179.3" x2="214.0" y2="206.9"/>
<polygon points="225.411393 106.126259 198.729141 110.848271 201.270859 118.433761 " />
<line x1="166.6" y1="171.3" x2="143.6" y2="189.9"/>
<line x1="162.9" y1="166.6" x2="139.9" y2="185.2"/>
<line x1="80.0" y1="85.0" x2="80.0" y2="104.2"/>
<line x1="50.4" y1="114.6" x2="69.6" y2="114.6"/>
<line x1="77.0" y1="144.2" x2="77.0" y2="125.0"/>
<line x1="83.0" y1="144.2" x2="83.0" y2="125.0"/>
<line x1="109.6" y1="114.6" x2="90.4" y2="114.6"/>
<line x1="225.2" y1="145.7" x2="203.4" y2="179.3"/>
<line x1="215.9" y1="146.8" x2="200.6" y2="170.3"/>
<line x1="203.4" y1="179.3" x2="164.8" y2="168.9"/>
<line x1="164.8" y1="168.9" x2="163.2" y2="139.4"/>
<line x1="172.4" y1="125.2" x2="200.0" y2="114.6"/>
<line x1="200.0" y1="114.6" x2="225.2" y2="145.7"/>
<text x="174.000000" y="48.320000" fill="rgb(255,12,12)"  stroke="rgb(255,12,12)" stroke-width="1" font-size="16" >OH</text>
<text x="260.317997" y="137.233416" fill="rgb(255,12,12)"  stroke="rgb(255,12,12)" stroke-width="1" font-size="32" >-</text>
<text x="259.117997" y="151.953416" fill="rgb(255,12,12)"  stroke="rgb(255,12,12)" stroke-width="1" font-size="16" >O</text>
<text x="212.921972" y="235.816894" fill="rgb(255,12,12)"  stroke="rgb(255,12,12)" stroke-width="1" font-size="32" >-</text>
<text x="211.721972" y="221.416894" fill="rgb(255,12,12)"  stroke="rgb(255,12,12)" stroke-width="1" font-size="16" >O</text>
<text x="130.064383" y="198.893731" fill="rgb(255,12,12)"  stroke="rgb(255,12,12)" stroke-width="1" font-size="16" >O</text>
<text x="75.200000" y="68.241016" fill="rgb(255,12,12)"  stroke="rgb(255,12,12)" stroke-width="1" font-size="32" >-</text>
<text x="74.000000" y="82.961016" fill="rgb(255,12,12)"  stroke="rgb(255,12,12)" stroke-width="1" font-size="16" >O</text>
<text x="24.400000" y="119.441016" fill="rgb(255,12,12)"  stroke="rgb(255,12,12)" stroke-width="1" font-size="16" >HO</text>
<text x="74.000000" y="159.441016" fill="rgb(255,12,12)"  stroke="rgb(255,12,12)" stroke-width="1" font-size="16" >O</text>
<text x="114.000000" y="119.441016" fill="rgb(255,12,12)"  stroke="rgb(255,12,12)" stroke-width="1" font-size="16" >O</text>
<text x="159.056783" y="137.295734" fill="rgb(255,12,12)"  stroke="rgb(255,12,12)" stroke-width="1" font-size="16" >O</text>
<text x="74.000000" y="119.441016" fill="rgb(255,127,0)"  stroke="rgb(255,127,0)" stroke-width="1" font-size="16" >P</text>
<text x="208.641016" y="68.320000" fill="rgb(191,191,191)"  stroke="rgb(191,191,191)" stroke-width="1" font-size="16" >H</text>
<text x="231.927453" y="110.252424" fill="rgb(191,191,191)"  stroke="rgb(191,191,191)" stroke-width="1" font-size="16" >H</text>
<text font-size="18.000000" fill ="black" font-family="sans-serif"
x="140.000000" y="20.000000" ></text>
<title> - OBDepict</title>
</svg>
