<?xml version="1.0"?>
<svg xmlns="http://www.w3.org/2000/svg"
xmlns:xlink="http://www.w3.org/1999/xlink" xmlns:cml="http://www.xml-cml.org/schema" width="554.641" height="431.769" x="0" y="0" font-family="sans-serif" stroke="rgb(0,0,0)" stroke-width="1" >
<line x1="45.2" y1="65.6" x2="60.0" y2="40.0"/>
<line x1="60.0" y1="40.0" x2="100.0" y2="40.0"/>
<line x1="100.0" y1="40.0" x2="120.0" y2="74.6"/>
<line x1="120.0" y1="74.6" x2="160.0" y2="74.6"/>
<line x1="160.0" y1="74.6" x2="180.0" y2="109.3"/>
<line x1="180.0" y1="109.3" x2="220.0" y2="109.3"/>
<line x1="220.0" y1="109.3" x2="240.0" y2="143.9"/>
<line x1="240.0" y1="143.9" x2="280.0" y2="143.9"/>
<line x1="280.0" y1="143.9" x2="300.0" y2="178.6"/>
<line x1="300.0" y1="178.6" x2="340.0" y2="178.6"/>
<line x1="340.0" y1="178.6" x2="360.0" y2="213.2"/>
<line x1="360.0" y1="213.2" x2="400.0" y2="213.2"/>
<line x1="400.0" y1="213.2" x2="420.0" y2="247.8"/>
<line x1="420.0" y1="247.8" x2="460.0" y2="247.8"/>
<line x1="460.0" y1="247.8" x2="480.0" y2="282.5"/>
<line x1="420.0" y1="317.1" x2="460.0" y2="317.1"/>
<line x1="420.0" y1="317.1" x2="405.2" y2="342.8"/>
<line x1="460.4" y1="342.7" x2="459.6" y2="342.7"/>
<line x1="460.8" y1="338.7" x2="459.2" y2="338.7"/>
<line x1="461.2" y1="334.7" x2="458.8" y2="334.7"/>
<line x1="461.6" y1="330.7" x2="458.4" y2="330.7"/>
<line x1="462.0" y1="326.7" x2="458.0" y2="326.7"/>
<line x1="462.4" y1="322.7" x2="457.6" y2="322.7"/>
<line x1="462.8" y1="318.7" x2="457.2" y2="318.7"/>
<line x1="460.0" y1="317.1" x2="480.0" y2="282.5"/>
<line x1="460.0" y1="317.1" x2="485.6" y2="331.9"/>
<line x1="502.4" y1="294.9" x2="502.0" y2="295.6"/>
<line x1="499.1" y1="292.6" x2="498.3" y2="294.0"/>
<line x1="495.8" y1="290.2" x2="494.6" y2="292.3"/>
<line x1="492.6" y1="287.9" x2="491.0" y2="290.7"/>
<line x1="489.3" y1="285.6" x2="487.3" y2="289.0"/>
<line x1="486.0" y1="283.2" x2="483.6" y2="287.4"/>
<line x1="482.8" y1="280.9" x2="480.0" y2="285.7"/>
<line x1="480.0" y1="282.5" x2="505.6" y2="267.7"/>
<line x1="360.0" y1="381.4" x2="360.0" y2="362.2"/>
<line x1="330.4" y1="351.8" x2="349.6" y2="351.8"/>
<line x1="363.0" y1="322.2" x2="363.0" y2="341.4"/>
<line x1="357.0" y1="322.2" x2="357.0" y2="341.4"/>
<line x1="389.6" y1="351.8" x2="370.4" y2="351.8"/>
<text x="16.400000" y="79.441016" fill="rgb(102,102,102)"  stroke="rgb(102,102,102)" stroke-width="1" font-size="16" >H</text>
<text x="28.400000" y="84.241016" fill="rgb(102,102,102)"  stroke="rgb(102,102,102)" stroke-width="1" font-size="13" >3</text>
<text x="34.900000" y="79.441016" fill="rgb(102,102,102)"  stroke="rgb(102,102,102)" stroke-width="1" font-size="16" >C</text>
<text x="488.641016" y="341.928129" fill="rgb(12,12,255)"  stroke="rgb(12,12,255)" stroke-width="1" font-size="16" >NH</text>
<text x="512.641016" y="346.728129" fill="rgb(12,12,255)"  stroke="rgb(12,12,255)" stroke-width="1" font-size="13" >2</text>
<text x="508.641016" y="270.807113" fill="rgb(255,12,12)"  stroke="rgb(255,12,12)" stroke-width="1" font-size="16" >OH</text>
<text x="355.200000" y="410.969145" fill="rgb(255,12,12)"  stroke="rgb(255,12,12)" stroke-width="1" font-size="32" >-</text>
<text x="354.000000" y="396.569145" fill="rgb(255,12,12)"  stroke="rgb(255,12,12)" stroke-width="1" font-size="16" >O</text>
<text x="304.400000" y="356.569145" fill="rgb(255,12,12)"  stroke="rgb(255,12,12)" stroke-width="1" font-size="16" >HO</text>
<text x="354.000000" y="320.089145" fill="rgb(255,12,12)"  stroke="rgb(255,12,12)" stroke-width="1" font-size="16" >O</text>
<text x="394.000000" y="356.569145" fill="rgb(255,12,12)"  stroke="rgb(255,12,12)" stroke-width="1" font-size="16" >O</text>
<text x="354.000000" y="356.569145" fill="rgb(255,127,0)"  stroke="rgb(255,127,0)" stroke-width="1" font-size="16" >P</text>
<text x="454.000000" y="361.928129" fill="rgb(191,191,191)"  stroke="rgb(191,191,191)" stroke-width="1" font-size="16" >H</text>
<text x="508.641016" y="307.287113" fill="rgb(191,191,191)"  stroke="rgb(191,191,191)" stroke-width="1" font-size="16" >H</text>
<text font-size="18.000000" fill ="black" font-family="sans-serif"
x="140.000000" y="20.000000" ></text>
<title> - OBDepict</title>
</svg>
