<?xml version="1.0"?>
<svg xmlns="http://www.w3.org/2000/svg"
xmlns:xlink="http://www.w3.org/1999/xlink" xmlns:cml="http://www.xml-cml.org/schema" width="482.211" height="440.633" x="0" y="0" font-family="sans-serif" stroke="rgb(0,0,0)" stroke-width="1" >
<polygon points="106.439 294.902 113.472 320.532 120.78 317.278 " />
<line x1="403.0" y1="298.7" x2="383.4" y2="264.8"/>
<line x1="403.0" y1="298.7" x2="383.4" y2="332.7"/>
<line x1="383.4" y1="264.8" x2="403.0" y2="230.8"/>
<line x1="310.2" y1="98.8" x2="276.2" y2="79.2"/>
<line x1="310.2" y1="98.8" x2="310.2" y2="127.8"/>
<line x1="344.2" y1="236.1" x2="344.2" y2="196.9"/>
<line x1="344.2" y1="236.1" x2="319.0" y2="250.6"/>
<polygon points="197.117222 268.823529 176.362829 252.222173 172.362829 259.150376 " />
<line x1="96.7" y1="211.3" x2="97.1" y2="210.6"/>
<line x1="103.3" y1="215.6" x2="104.1" y2="214.2"/>
<line x1="109.9" y1="219.9" x2="111.1" y2="217.8"/>
<line x1="116.5" y1="224.1" x2="118.1" y2="221.4"/>
<line x1="123.1" y1="228.4" x2="125.1" y2="224.9"/>
<line x1="129.7" y1="232.7" x2="132.1" y2="228.5"/>
<line x1="136.3" y1="236.9" x2="139.1" y2="232.1"/>
<polygon points="117.126074 231.683315 102.785086 254.059328 110.093450 257.313221 " />
<line x1="361.9" y1="345.6" x2="361.5" y2="344.9"/>
<line x1="365.4" y1="344.0" x2="364.6" y2="342.6"/>
<line x1="369.0" y1="342.4" x2="367.8" y2="340.3"/>
<line x1="372.6" y1="340.8" x2="371.0" y2="338.0"/>
<line x1="376.2" y1="339.1" x2="374.2" y2="335.7"/>
<line x1="379.8" y1="337.5" x2="377.4" y2="333.4"/>
<line x1="383.4" y1="335.9" x2="380.6" y2="331.1"/>
<line x1="383.4" y1="332.7" x2="403.0" y2="366.7"/>
<line x1="383.4" y1="332.7" x2="358.3" y2="318.2"/>
<line x1="319.1" y1="197.3" x2="319.1" y2="196.5"/>
<line x1="323.0" y1="197.7" x2="323.0" y2="196.1"/>
<line x1="326.9" y1="198.1" x2="326.9" y2="195.7"/>
<line x1="330.8" y1="198.5" x2="330.8" y2="195.3"/>
<line x1="334.8" y1="198.9" x2="334.8" y2="194.9"/>
<line x1="338.7" y1="199.3" x2="338.7" y2="194.5"/>
<line x1="342.6" y1="199.7" x2="342.6" y2="194.1"/>
<line x1="344.2" y1="196.9" x2="344.2" y2="157.6"/>
<line x1="344.2" y1="196.9" x2="373.2" y2="196.9"/>
<line x1="276.2" y1="236.1" x2="301.4" y2="250.6"/>
<line x1="50.8" y1="324.1" x2="50.2" y2="323.5"/>
<line x1="53.9" y1="321.8" x2="52.9" y2="320.6"/>
<line x1="57.1" y1="319.5" x2="55.5" y2="317.7"/>
<line x1="60.3" y1="317.1" x2="58.2" y2="314.8"/>
<line x1="63.5" y1="314.8" x2="60.8" y2="311.8"/>
<line x1="66.7" y1="312.5" x2="63.5" y2="308.9"/>
<line x1="69.9" y1="310.2" x2="66.1" y2="306.0"/>
<line x1="69.1" y1="307.0" x2="75.2" y2="335.4"/>
<line x1="400.4" y1="232.3" x2="385.9" y2="207.2"/>
<line x1="405.6" y1="229.3" x2="391.1" y2="204.2"/>
<line x1="403.0" y1="230.8" x2="432.0" y2="230.8"/>
<line x1="277.7" y1="81.8" x2="252.6" y2="96.3"/>
<line x1="274.7" y1="76.6" x2="249.6" y2="91.1"/>
<line x1="276.2" y1="79.2" x2="276.2" y2="50.2"/>
<line x1="242.3" y1="177.3" x2="242.3" y2="148.2"/>
<line x1="276.2" y1="196.9" x2="301.4" y2="182.4"/>
<line x1="342.7" y1="160.2" x2="317.5" y2="145.7"/>
<line x1="345.7" y1="155.0" x2="320.5" y2="140.5"/>
<line x1="344.2" y1="157.6" x2="369.3" y2="143.1"/>
<line x1="403.0" y1="363.7" x2="432.0" y2="363.7"/>
<line x1="403.0" y1="369.7" x2="432.0" y2="369.7"/>
<line x1="403.0" y1="366.7" x2="388.5" y2="391.8"/>
<line x1="106.4" y1="255.7" x2="69.1" y2="243.6"/>
<line x1="69.1" y1="243.6" x2="46.1" y2="275.3"/>
<line x1="46.1" y1="275.3" x2="69.1" y2="307.0"/>
<line x1="69.1" y1="307.0" x2="106.4" y2="294.9"/>
<line x1="106.4" y1="294.9" x2="106.4" y2="255.7"/>
<line x1="140.4" y1="196.9" x2="174.4" y2="177.3"/>
<line x1="174.4" y1="177.3" x2="208.3" y2="196.9"/>
<line x1="208.3" y1="196.9" x2="208.3" y2="236.1"/>
<line x1="208.3" y1="236.1" x2="174.4" y2="255.7"/>
<line x1="174.4" y1="255.7" x2="140.4" y2="236.1"/>
<line x1="140.4" y1="236.1" x2="140.4" y2="196.9"/>
<line x1="242.3" y1="177.3" x2="276.2" y2="196.9"/>
<line x1="276.2" y1="196.9" x2="276.2" y2="236.1"/>
<line x1="269.0" y1="202.9" x2="269.0" y2="230.1"/>
<line x1="276.2" y1="236.1" x2="242.3" y2="255.7"/>
<line x1="242.3" y1="255.7" x2="208.3" y2="236.1"/>
<line x1="240.7" y1="246.5" x2="217.1" y2="232.8"/>
<line x1="208.3" y1="196.9" x2="242.3" y2="177.3"/>
<line x1="217.1" y1="200.1" x2="240.7" y2="186.5"/>
<line x1="106.4" y1="255.7" x2="140.4" y2="236.1"/>
<line x1="174.4" y1="255.7" x2="174.4" y2="294.9"/>
<line x1="174.4" y1="294.9" x2="140.4" y2="314.5"/>
<line x1="140.4" y1="314.5" x2="106.4" y2="294.9"/>
<text x="116.389725" y="335.527273" fill="rgb(102,102,102)"  stroke="rgb(102,102,102)" stroke-width="1" font-size="16" >CH</text>
<text x="140.389725" y="340.327273" fill="rgb(102,102,102)"  stroke="rgb(102,102,102)" stroke-width="1" font-size="13" >3</text>
<text x="325.825638" y="321.422024" fill="rgb(12,12,255)"  stroke="rgb(12,12,255)" stroke-width="1" font-size="16" >H</text>
<text x="337.825638" y="329.102024" fill="rgb(12,12,255)"  stroke="rgb(12,12,255)" stroke-width="1" font-size="13" >2</text>
<text x="344.325638" y="321.422024" fill="rgb(12,12,255)"  stroke="rgb(12,12,255)" stroke-width="1" font-size="16" >N</text>
<text x="306.609952" y="142.839216" fill="rgb(12,12,255)"  stroke="rgb(12,12,255)" stroke-width="1" font-size="16" >N</text>
<text x="377.387418" y="205.182745" fill="rgb(12,12,255)"  stroke="rgb(12,12,255)" stroke-width="1" font-size="16" >N</text>
<text x="71.296334" y="350.179004" fill="rgb(255,12,12)"  stroke="rgb(255,12,12)" stroke-width="1" font-size="16" >OH</text>
<text x="437.410948" y="250.024526" fill="rgb(255,12,12)"  stroke="rgb(255,12,12)" stroke-width="1" font-size="32" >-</text>
<text x="436.210948" y="235.624526" fill="rgb(255,12,12)"  stroke="rgb(255,12,12)" stroke-width="1" font-size="16" >O</text>
<text x="238.686390" y="103.623529" fill="rgb(255,12,12)"  stroke="rgb(255,12,12)" stroke-width="1" font-size="16" >O</text>
<text x="270.248171" y="48.320000" fill="rgb(255,12,12)"  stroke="rgb(255,12,12)" stroke-width="1" font-size="16" >OH</text>
<text x="236.286390" y="146.359216" fill="rgb(255,12,12)"  stroke="rgb(255,12,12)" stroke-width="1" font-size="16" >OH</text>
<text x="304.209952" y="185.574902" fill="rgb(255,12,12)"  stroke="rgb(255,12,12)" stroke-width="1" font-size="16" >OH</text>
<text x="372.133513" y="146.359216" fill="rgb(255,12,12)"  stroke="rgb(255,12,12)" stroke-width="1" font-size="16" >OH</text>
<text x="436.210948" y="374.991648" fill="rgb(255,12,12)"  stroke="rgb(255,12,12)" stroke-width="1" font-size="16" >O</text>
<text x="367.787418" y="405.433428" fill="rgb(255,12,12)"  stroke="rgb(255,12,12)" stroke-width="1" font-size="16" >HO</text>
<text x="304.209952" y="260.486275" fill="rgb(178,178,0)"  stroke="rgb(178,178,0)" stroke-width="1" font-size="16" >S</text>
<text x="202.324610" y="280.094118" fill="rgb(191,191,191)"  stroke="rgb(191,191,191)" stroke-width="1" font-size="16" >H</text>
<text x="68.877488" y="205.182745" fill="rgb(191,191,191)"  stroke="rgb(191,191,191)" stroke-width="1" font-size="16" >H</text>
<text x="116.389725" y="228.180962" fill="rgb(191,191,191)"  stroke="rgb(191,191,191)" stroke-width="1" font-size="16" >H</text>
<text x="345.825638" y="357.117710" fill="rgb(191,191,191)"  stroke="rgb(191,191,191)" stroke-width="1" font-size="16" >H</text>
<text x="301.356046" y="205.182745" fill="rgb(191,191,191)"  stroke="rgb(191,191,191)" stroke-width="1" font-size="16" >H</text>
<text x="36.400000" y="338.060690" fill="rgb(191,191,191)"  stroke="rgb(191,191,191)" stroke-width="1" font-size="16" >H</text>
<text font-size="18.000000" fill ="black" font-family="sans-serif"
x="140.000000" y="20.000000" ></text>
<title> - OBDepict</title>
</svg>
