<?xml version="1.0"?>
<svg xmlns="http://www.w3.org/2000/svg"
xmlns:xlink="http://www.w3.org/1999/xlink" xmlns:cml="http://www.xml-cml.org/schema" width="771.508" height="675.914" x="0" y="0" font-family="sans-serif" stroke="rgb(0,0,0)" stroke-width="1" >
<line x1="314.2" y1="271.1" x2="336.2" y2="290.9"/>
<line x1="308.0" y1="300.0" x2="336.2" y2="290.9"/>
<line x1="480.3" y1="286.1" x2="453.5" y2="315.8"/>
<line x1="480.3" y1="286.1" x2="519.4" y2="294.4"/>
<line x1="453.5" y1="315.8" x2="424.6" y2="309.7"/>
<line x1="585.3" y1="273.0" x2="612.1" y2="243.3"/>
<line x1="585.3" y1="273.0" x2="556.4" y2="266.9"/>
<line x1="612.1" y1="243.3" x2="641.0" y2="249.5"/>
<line x1="665.6" y1="183.9" x2="692.4" y2="154.1"/>
<line x1="665.6" y1="183.9" x2="678.0" y2="221.9"/>
<line x1="206.5" y1="375.1" x2="179.8" y2="404.8"/>
<line x1="206.5" y1="375.1" x2="235.5" y2="381.2"/>
<line x1="348.5" y1="328.9" x2="336.2" y2="290.9"/>
<line x1="348.5" y1="328.9" x2="328.7" y2="350.9"/>
<line x1="680.0" y1="116.1" x2="692.4" y2="154.1"/>
<line x1="692.4" y1="154.1" x2="721.3" y2="160.3"/>
<line x1="517.2" y1="292.4" x2="537.0" y2="270.4"/>
<line x1="521.7" y1="296.4" x2="541.5" y2="274.4"/>
<line x1="519.4" y1="294.4" x2="528.6" y2="322.6"/>
<line x1="678.6" y1="219.0" x2="707.6" y2="225.1"/>
<line x1="677.4" y1="224.8" x2="706.3" y2="231.0"/>
<line x1="678.0" y1="221.9" x2="658.2" y2="243.9"/>
<line x1="123.7" y1="437.2" x2="94.8" y2="443.3"/>
<line x1="140.0" y1="400.6" x2="125.2" y2="375.0"/>
<line x1="362.9" y1="261.2" x2="402.1" y2="269.5"/>
<line x1="362.9" y1="261.2" x2="336.2" y2="290.9"/>
<line x1="362.9" y1="261.2" x2="353.8" y2="233.0"/>
<line x1="186.2" y1="599.4" x2="174.2" y2="626.4"/>
<line x1="404.9" y1="268.6" x2="414.1" y2="296.7"/>
<line x1="399.2" y1="270.4" x2="408.3" y2="298.6"/>
<line x1="402.1" y1="269.5" x2="421.9" y2="247.5"/>
<line x1="153.5" y1="463.9" x2="150.4" y2="493.4"/>
<line x1="80.0" y1="395.6" x2="80.0" y2="376.4"/>
<line x1="50.4" y1="366.0" x2="69.6" y2="366.0"/>
<line x1="83.0" y1="336.4" x2="83.0" y2="355.6"/>
<line x1="77.0" y1="336.4" x2="77.0" y2="355.6"/>
<line x1="229.9" y1="430.6" x2="248.1" y2="424.6"/>
<line x1="264.3" y1="450.5" x2="258.4" y2="432.2"/>
<line x1="270.0" y1="448.7" x2="264.1" y2="430.4"/>
<line x1="343.3" y1="424.9" x2="337.3" y2="406.6"/>
<line x1="363.2" y1="390.4" x2="344.9" y2="396.3"/>
<line x1="361.3" y1="384.7" x2="343.1" y2="390.6"/>
<line x1="248.9" y1="393.3" x2="254.8" y2="411.5"/>
<line x1="325.0" y1="368.6" x2="330.9" y2="386.8"/>
<line x1="109.6" y1="366.0" x2="90.4" y2="366.0"/>
<line x1="286.2" y1="412.3" x2="267.9" y2="418.2"/>
<line x1="306.0" y1="405.9" x2="324.2" y2="399.9"/>
<line x1="114.6" y1="523.7" x2="140.3" y2="508.9"/>
<line x1="157.0" y1="510.7" x2="179.0" y2="530.5"/>
<line x1="179.0" y1="530.5" x2="162.7" y2="567.0"/>
<line x1="162.7" y1="567.0" x2="133.3" y2="563.9"/>
<line x1="120.8" y1="552.7" x2="114.6" y2="523.7"/>
<line x1="127.4" y1="549.2" x2="122.9" y2="528.1"/>
<line x1="179.8" y1="404.8" x2="140.0" y2="400.6"/>
<line x1="140.0" y1="400.6" x2="123.7" y2="437.2"/>
<line x1="123.7" y1="437.2" x2="153.5" y2="463.9"/>
<line x1="153.5" y1="463.9" x2="179.1" y2="449.1"/>
<line x1="185.9" y1="433.8" x2="179.8" y2="404.8"/>
<line x1="628.5" y1="69.7" x2="655.3" y2="40.0"/>
<line x1="637.9" y1="70.1" x2="656.6" y2="49.3"/>
<line x1="655.3" y1="40.0" x2="694.4" y2="48.3"/>
<line x1="694.4" y1="48.3" x2="706.8" y2="86.4"/>
<line x1="689.4" y1="56.2" x2="698.1" y2="82.9"/>
<line x1="706.8" y1="86.4" x2="680.0" y2="116.1"/>
<line x1="680.0" y1="116.1" x2="640.9" y2="107.8"/>
<line x1="675.6" y1="107.8" x2="648.3" y2="102.0"/>
<line x1="640.9" y1="107.8" x2="628.5" y2="69.7"/>
<line x1="179.0" y1="530.5" x2="208.4" y2="527.4"/>
<line x1="185.7" y1="537.0" x2="207.2" y2="534.7"/>
<line x1="224.9" y1="534.7" x2="242.3" y2="558.6"/>
<line x1="242.3" y1="558.6" x2="230.3" y2="585.7"/>
<line x1="233.3" y1="561.2" x2="224.5" y2="580.9"/>
<line x1="215.7" y1="596.3" x2="186.2" y2="599.4"/>
<line x1="186.2" y1="599.4" x2="162.7" y2="567.0"/>
<line x1="188.5" y1="590.3" x2="172.1" y2="567.6"/>
<text x="282.835277" y="272.453978" fill="rgb(102,102,102)"  stroke="rgb(102,102,102)" stroke-width="1" font-size="16" >H</text>
<text x="294.835277" y="280.133978" fill="rgb(102,102,102)"  stroke="rgb(102,102,102)" stroke-width="1" font-size="13" >3</text>
<text x="301.335277" y="272.453978" fill="rgb(102,102,102)"  stroke="rgb(102,102,102)" stroke-width="1" font-size="16" >C</text>
<text x="274.518809" y="308.059882" fill="rgb(102,102,102)"  stroke="rgb(102,102,102)" stroke-width="1" font-size="16" >H</text>
<text x="286.518809" y="312.859882" fill="rgb(102,102,102)"  stroke="rgb(102,102,102)" stroke-width="1" font-size="13" >3</text>
<text x="293.018809" y="308.059882" fill="rgb(102,102,102)"  stroke="rgb(102,102,102)" stroke-width="1" font-size="16" >C</text>
<text x="146.373460" y="640.714261" fill="rgb(12,12,255)"  stroke="rgb(12,12,255)" stroke-width="1" font-size="16" >H</text>
<text x="158.373460" y="645.514261" fill="rgb(12,12,255)"  stroke="rgb(12,12,255)" stroke-width="1" font-size="13" >2</text>
<text x="164.873460" y="640.714261" fill="rgb(12,12,255)"  stroke="rgb(12,12,255)" stroke-width="1" font-size="16" >N</text>
<text x="542.595135" y="273.033486" fill="rgb(12,12,255)"  stroke="rgb(12,12,255)" stroke-width="1" font-size="16" >N</text>
<text x="410.812878" y="312.332137" fill="rgb(12,12,255)"  stroke="rgb(12,12,255)" stroke-width="1" font-size="16" >N</text>
<text x="220.023802" y="599.991304" fill="rgb(12,12,255)"  stroke="rgb(12,12,255)" stroke-width="1" font-size="16" >N</text>
<text x="212.781858" y="534.608806" fill="rgb(12,12,255)"  stroke="rgb(12,12,255)" stroke-width="1" font-size="16" >N</text>
<text x="119.350640" y="567.630624" fill="rgb(12,12,255)"  stroke="rgb(12,12,255)" stroke-width="1" font-size="16" >N</text>
<text x="143.275189" y="512.024720" fill="rgb(12,12,255)"  stroke="rgb(12,12,255)" stroke-width="1" font-size="16" >N</text>
<text x="725.507840" y="167.243250" fill="rgb(255,12,12)"  stroke="rgb(255,12,12)" stroke-width="1" font-size="16" >OH</text>
<text x="526.990590" y="351.681540" fill="rgb(255,12,12)"  stroke="rgb(255,12,12)" stroke-width="1" font-size="32" >-</text>
<text x="525.790590" y="337.281540" fill="rgb(255,12,12)"  stroke="rgb(255,12,12)" stroke-width="1" font-size="16" >O</text>
<text x="711.103295" y="235.011303" fill="rgb(255,12,12)"  stroke="rgb(255,12,12)" stroke-width="1" font-size="16" >O</text>
<text x="69.004630" y="450.275088" fill="rgb(255,12,12)"  stroke="rgb(255,12,12)" stroke-width="1" font-size="16" >HO</text>
<text x="334.965614" y="231.451148" fill="rgb(255,12,12)"  stroke="rgb(255,12,12)" stroke-width="1" font-size="16" >HO</text>
<text x="424.017422" y="233.364084" fill="rgb(255,12,12)"  stroke="rgb(255,12,12)" stroke-width="1" font-size="32" >-</text>
<text x="422.817422" y="248.084084" fill="rgb(255,12,12)"  stroke="rgb(255,12,12)" stroke-width="1" font-size="16" >O</text>
<text x="75.200000" y="425.175786" fill="rgb(255,12,12)"  stroke="rgb(255,12,12)" stroke-width="1" font-size="32" >-</text>
<text x="74.000000" y="410.775786" fill="rgb(255,12,12)"  stroke="rgb(255,12,12)" stroke-width="1" font-size="16" >O</text>
<text x="35.200000" y="385.175786" fill="rgb(255,12,12)"  stroke="rgb(255,12,12)" stroke-width="1" font-size="32" >-</text>
<text x="36.400000" y="370.775786" fill="rgb(255,12,12)"  stroke="rgb(255,12,12)" stroke-width="1" font-size="16" >O</text>
<text x="74.000000" y="334.295786" fill="rgb(255,12,12)"  stroke="rgb(255,12,12)" stroke-width="1" font-size="16" >O</text>
<text x="204.390423" y="438.591556" fill="rgb(255,12,12)"  stroke="rgb(255,12,12)" stroke-width="1" font-size="16" >HO</text>
<text x="264.393364" y="464.273136" fill="rgb(255,12,12)"  stroke="rgb(255,12,12)" stroke-width="1" font-size="16" >O</text>
<text x="340.477885" y="439.551777" fill="rgb(255,12,12)"  stroke="rgb(255,12,12)" stroke-width="1" font-size="16" >OH</text>
<text x="366.159466" y="392.668836" fill="rgb(255,12,12)"  stroke="rgb(255,12,12)" stroke-width="1" font-size="16" >O</text>
<text x="239.672004" y="391.708615" fill="rgb(255,12,12)"  stroke="rgb(255,12,12)" stroke-width="1" font-size="16" >O</text>
<text x="318.156525" y="366.987256" fill="rgb(255,12,12)"  stroke="rgb(255,12,12)" stroke-width="1" font-size="16" >O</text>
<text x="182.097343" y="448.723845" fill="rgb(255,12,12)"  stroke="rgb(255,12,12)" stroke-width="1" font-size="16" >O</text>
<text x="114.000000" y="374.295786" fill="rgb(255,12,12)"  stroke="rgb(255,12,12)" stroke-width="1" font-size="16" >O</text>
<text x="290.074945" y="413.870196" fill="rgb(255,12,12)"  stroke="rgb(255,12,12)" stroke-width="1" font-size="16" >O</text>
<text x="74.000000" y="370.775786" fill="rgb(255,127,0)"  stroke="rgb(255,127,0)" stroke-width="1" font-size="16" >P</text>
<text x="252.032684" y="426.230876" fill="rgb(255,127,0)"  stroke="rgb(255,127,0)" stroke-width="1" font-size="16" >P</text>
<text x="328.117205" y="405.029516" fill="rgb(255,127,0)"  stroke="rgb(255,127,0)" stroke-width="1" font-size="16" >P</text>
<text x="645.212167" y="256.420629" fill="rgb(178,178,0)"  stroke="rgb(178,178,0)" stroke-width="1" font-size="16" >S</text>
<text font-size="18.000000" fill ="black" font-family="sans-serif"
x="140.000000" y="20.000000" ></text>
<title> - OBDepict</title>
</svg>
