<?xml version="1.0"?>
<svg xmlns="http://www.w3.org/2000/svg"
xmlns:xlink="http://www.w3.org/1999/xlink" xmlns:cml="http://www.xml-cml.org/schema" width="709.31" height="360.321" x="0" y="0" font-family="sans-serif" stroke="rgb(0,0,0)" stroke-width="1" >
<line x1="325.8" y1="130.2" x2="333.2" y2="157.6"/>
<line x1="320.0" y1="131.8" x2="327.4" y2="159.2"/>
<line x1="409.6" y1="253.5" x2="410.0" y2="254.2"/>
<line x1="406.1" y1="255.0" x2="406.9" y2="256.4"/>
<line x1="402.6" y1="256.6" x2="403.8" y2="258.7"/>
<line x1="399.1" y1="258.2" x2="400.7" y2="260.9"/>
<line x1="395.6" y1="259.7" x2="397.6" y2="263.2"/>
<line x1="392.0" y1="261.3" x2="394.4" y2="265.5"/>
<line x1="388.5" y1="262.9" x2="391.3" y2="267.7"/>
<polygon points="481.575047 251.895724 507.256581 255.895724 507.256581 247.895724 " />
<line x1="382.6" y1="191.0" x2="382.2" y2="190.3"/>
<line x1="386.2" y1="189.4" x2="385.4" y2="188.0"/>
<line x1="389.8" y1="187.8" x2="388.6" y2="185.7"/>
<line x1="393.4" y1="186.1" x2="391.8" y2="183.4"/>
<line x1="397.0" y1="184.5" x2="395.0" y2="181.0"/>
<line x1="400.7" y1="182.9" x2="398.3" y2="178.7"/>
<line x1="404.3" y1="181.2" x2="401.5" y2="176.4"/>
<line x1="68.3" y1="160.8" x2="88.1" y2="126.5"/>
<line x1="68.3" y1="160.8" x2="83.0" y2="186.1"/>
<line x1="632.3" y1="111.5" x2="605.2" y2="138.6"/>
<line x1="632.3" y1="111.5" x2="659.7" y2="118.8"/>
<line x1="242.1" y1="300.6" x2="242.1" y2="261.1"/>
<line x1="242.1" y1="300.6" x2="216.8" y2="315.2"/>
<polygon points="55.872616 84.545490 84.925423 128.978564 91.272250 124.108472 " />
<polygon points="598.534735 113.753376 601.317902 139.595109 609.045308 137.524556 " />
<polygon points="265.004991 274.297344 244.082443 257.598903 240.082443 264.527106 " />
<polygon points="469.603150 219.302212 445.362290 228.678878 449.362290 235.607081 " />
<polygon points="404.618309 232.142979 378.936775 228.142979 378.936775 236.142979 " />
<line x1="73.8" y1="82.2" x2="74.0" y2="81.5"/>
<line x1="77.5" y1="83.6" x2="77.9" y2="82.1"/>
<line x1="81.2" y1="85.0" x2="81.8" y2="82.7"/>
<line x1="84.9" y1="86.5" x2="85.8" y2="83.4"/>
<line x1="88.6" y1="87.9" x2="89.7" y2="84.0"/>
<line x1="92.4" y1="89.3" x2="93.6" y2="84.6"/>
<line x1="96.1" y1="90.7" x2="97.5" y2="85.3"/>
<line x1="98.3" y1="88.4" x2="90.8" y2="60.1"/>
<line x1="649.3" y1="148.0" x2="649.9" y2="148.6"/>
<line x1="646.4" y1="150.5" x2="647.5" y2="151.6"/>
<line x1="643.4" y1="152.9" x2="645.1" y2="154.6"/>
<line x1="640.4" y1="155.3" x2="642.6" y2="157.6"/>
<line x1="637.4" y1="157.7" x2="640.2" y2="160.6"/>
<line x1="634.4" y1="160.2" x2="637.8" y2="163.6"/>
<line x1="631.4" y1="162.6" x2="635.3" y2="166.6"/>
<line x1="632.3" y1="165.7" x2="659.7" y2="173.0"/>
<line x1="203.0" y1="286.3" x2="202.2" y2="286.3"/>
<line x1="203.4" y1="282.4" x2="201.8" y2="282.4"/>
<line x1="203.8" y1="278.4" x2="201.4" y2="278.4"/>
<line x1="204.2" y1="274.5" x2="201.0" y2="274.5"/>
<line x1="204.6" y1="270.5" x2="200.6" y2="270.5"/>
<line x1="205.0" y1="266.6" x2="200.2" y2="266.6"/>
<line x1="205.4" y1="262.6" x2="199.8" y2="262.6"/>
<line x1="202.6" y1="261.1" x2="177.3" y2="275.7"/>
<polygon points="129.632384 52.592593 132.619279 79.194649 140.346685 77.124096 " />
<line x1="136.5" y1="78.2" x2="157.2" y2="57.5"/>
<polygon points="647.171220 209.335125 623.400040 198.824551 621.329488 206.551958 " />
<line x1="622.4" y1="202.7" x2="629.7" y2="230.1"/>
<polygon points="159.901662 240.084586 184.824209 230.314349 180.824209 223.386146 " />
<line x1="182.8" y1="226.9" x2="157.5" y2="212.2"/>
<line x1="182.0" y1="87.9" x2="182.6" y2="88.5"/>
<line x1="178.9" y1="90.4" x2="180.1" y2="91.6"/>
<line x1="175.9" y1="93.0" x2="177.6" y2="94.7"/>
<line x1="172.8" y1="95.5" x2="175.0" y2="97.7"/>
<line x1="169.7" y1="98.0" x2="172.5" y2="100.8"/>
<line x1="166.6" y1="100.5" x2="170.0" y2="103.9"/>
<line x1="163.6" y1="103.0" x2="167.5" y2="107.0"/>
<line x1="164.4" y1="106.1" x2="192.7" y2="113.7"/>
<line x1="592.1" y1="236.2" x2="591.3" y2="236.4"/>
<line x1="591.5" y1="232.4" x2="589.9" y2="232.8"/>
<line x1="590.9" y1="228.6" x2="588.5" y2="229.2"/>
<line x1="590.3" y1="224.8" x2="587.2" y2="225.6"/>
<line x1="589.7" y1="221.0" x2="585.8" y2="222.0"/>
<line x1="589.0" y1="217.2" x2="584.4" y2="218.4"/>
<line x1="588.4" y1="213.4" x2="583.0" y2="214.8"/>
<line x1="585.3" y1="212.6" x2="565.3" y2="232.7"/>
<line x1="233.0" y1="152.3" x2="233.7" y2="152.8"/>
<line x1="227.9" y1="158.3" x2="229.2" y2="159.3"/>
<line x1="222.8" y1="164.3" x2="224.7" y2="165.8"/>
<line x1="217.7" y1="170.4" x2="220.2" y2="172.3"/>
<line x1="212.5" y1="176.4" x2="215.7" y2="178.8"/>
<line x1="207.4" y1="182.4" x2="211.2" y2="185.3"/>
<line x1="202.3" y1="188.4" x2="206.7" y2="191.8"/>
<line x1="202.6" y1="192.6" x2="174.3" y2="185.1"/>
<polygon points="179.759588 151.103942 155.228084 140.389641 153.157532 148.117048 " />
<line x1="154.2" y1="144.3" x2="161.8" y2="172.5"/>
<polygon points="542.602414 165.130565 555.062928 187.940141 561.409755 183.070050 " />
<line x1="558.2" y1="185.5" x2="544.1" y2="210.1"/>
<polygon points="242.082443 166.168812 238.082443 192.637490 246.082443 192.637490 " />
<line x1="242.1" y1="192.6" x2="267.4" y2="178.0"/>
<line x1="500.7" y1="218.7" x2="481.6" y2="251.9"/>
<line x1="498.1" y1="220.2" x2="484.0" y2="195.6"/>
<line x1="503.3" y1="217.2" x2="489.2" y2="192.6"/>
<line x1="500.7" y1="218.7" x2="529.1" y2="218.7"/>
<line x1="288.4" y1="180.3" x2="288.8" y2="179.6"/>
<line x1="291.6" y1="182.7" x2="292.4" y2="181.3"/>
<line x1="294.9" y1="185.0" x2="296.1" y2="182.9"/>
<line x1="298.1" y1="187.3" x2="299.7" y2="184.5"/>
<line x1="301.3" y1="189.6" x2="303.3" y2="186.2"/>
<line x1="304.5" y1="192.0" x2="306.9" y2="187.8"/>
<line x1="307.7" y1="194.3" x2="310.5" y2="189.4"/>
<line x1="359.2" y1="158.4" x2="330.3" y2="158.4"/>
<line x1="330.3" y1="158.4" x2="310.5" y2="192.6"/>
<line x1="310.5" y1="192.6" x2="344.7" y2="172.9"/>
<line x1="344.7" y1="172.9" x2="378.9" y2="192.6"/>
<line x1="378.9" y1="192.6" x2="359.2" y2="158.4"/>
<line x1="413.1" y1="291.4" x2="447.4" y2="311.2"/>
<line x1="447.4" y1="311.2" x2="481.6" y2="291.4"/>
<line x1="481.6" y1="291.4" x2="481.6" y2="251.9"/>
<line x1="481.6" y1="251.9" x2="447.4" y2="232.1"/>
<line x1="447.4" y1="232.1" x2="413.1" y2="251.9"/>
<line x1="413.1" y1="251.9" x2="413.1" y2="291.4"/>
<line x1="378.9" y1="192.6" x2="378.9" y2="232.1"/>
<line x1="378.9" y1="232.1" x2="413.1" y2="251.9"/>
<line x1="447.4" y1="232.1" x2="447.4" y2="192.6"/>
<line x1="447.4" y1="192.6" x2="413.1" y2="172.9"/>
<line x1="413.1" y1="172.9" x2="378.9" y2="192.6"/>
<line x1="310.5" y1="232.1" x2="344.7" y2="251.9"/>
<line x1="344.7" y1="251.9" x2="378.9" y2="232.1"/>
<line x1="310.5" y1="192.6" x2="310.5" y2="232.1"/>
<line x1="136.5" y1="78.2" x2="164.4" y2="106.1"/>
<line x1="164.4" y1="106.1" x2="154.2" y2="144.3"/>
<line x1="154.2" y1="144.3" x2="126.0" y2="151.8"/>
<line x1="108.8" y1="147.2" x2="88.1" y2="126.5"/>
<line x1="88.1" y1="126.5" x2="98.3" y2="88.4"/>
<line x1="98.3" y1="88.4" x2="136.5" y2="78.2"/>
<line x1="622.4" y1="202.7" x2="585.3" y2="212.6"/>
<line x1="585.3" y1="212.6" x2="558.2" y2="185.5"/>
<line x1="558.2" y1="185.5" x2="565.6" y2="158.1"/>
<line x1="577.8" y1="145.9" x2="605.2" y2="138.6"/>
<line x1="605.2" y1="138.6" x2="632.3" y2="165.7"/>
<line x1="632.3" y1="165.7" x2="622.4" y2="202.7"/>
<line x1="182.8" y1="226.9" x2="202.6" y2="192.6"/>
<line x1="202.6" y1="192.6" x2="242.1" y2="192.6"/>
<line x1="242.1" y1="192.6" x2="256.7" y2="218.0"/>
<line x1="256.7" y1="235.7" x2="242.1" y2="261.1"/>
<line x1="242.1" y1="261.1" x2="202.6" y2="261.1"/>
<line x1="202.6" y1="261.1" x2="182.8" y2="226.9"/>
<text x="296.737113" y="129.719293" fill="rgb(102,102,102)"  stroke="rgb(102,102,102)" stroke-width="1" font-size="16" >H</text>
<text x="308.737113" y="137.399293" fill="rgb(102,102,102)"  stroke="rgb(102,102,102)" stroke-width="1" font-size="13" >2</text>
<text x="315.237113" y="129.719293" fill="rgb(102,102,102)"  stroke="rgb(102,102,102)" stroke-width="1" font-size="16" >C</text>
<text x="356.354219" y="275.861047" fill="rgb(102,102,102)"  stroke="rgb(102,102,102)" stroke-width="1" font-size="16" >H</text>
<text x="368.354219" y="280.661047" fill="rgb(102,102,102)"  stroke="rgb(102,102,102)" stroke-width="1" font-size="13" >3</text>
<text x="374.854219" y="275.861047" fill="rgb(102,102,102)"  stroke="rgb(102,102,102)" stroke-width="1" font-size="16" >C</text>
<text x="513.905694" y="256.695724" fill="rgb(102,102,102)"  stroke="rgb(102,102,102)" stroke-width="1" font-size="16" >CH</text>
<text x="537.905694" y="261.495724" fill="rgb(102,102,102)"  stroke="rgb(102,102,102)" stroke-width="1" font-size="13" >3</text>
<text x="82.098836" y="199.769033" fill="rgb(255,12,12)"  stroke="rgb(255,12,12)" stroke-width="1" font-size="16" >OH</text>
<text x="663.310027" y="126.176673" fill="rgb(255,12,12)"  stroke="rgb(255,12,12)" stroke-width="1" font-size="16" >OH</text>
<text x="192.269686" y="325.121239" fill="rgb(255,12,12)"  stroke="rgb(255,12,12)" stroke-width="1" font-size="16" >HO</text>
<text x="72.498836" y="58.544773" fill="rgb(255,12,12)"  stroke="rgb(255,12,12)" stroke-width="1" font-size="16" >HO</text>
<text x="663.310027" y="180.384394" fill="rgb(255,12,12)"  stroke="rgb(255,12,12)" stroke-width="1" font-size="16" >OH</text>
<text x="152.764196" y="285.615749" fill="rgb(255,12,12)"  stroke="rgb(255,12,12)" stroke-width="1" font-size="16" >HO</text>
<text x="158.417581" y="58.544773" fill="rgb(255,12,12)"  stroke="rgb(255,12,12)" stroke-width="1" font-size="16" >OH</text>
<text x="626.285465" y="244.512817" fill="rgb(255,12,12)"  stroke="rgb(255,12,12)" stroke-width="1" font-size="16" >OH</text>
<text x="133.011452" y="215.417503" fill="rgb(255,12,12)"  stroke="rgb(255,12,12)" stroke-width="1" font-size="16" >HO</text>
<text x="196.576954" y="121.118745" fill="rgb(255,12,12)"  stroke="rgb(255,12,12)" stroke-width="1" font-size="16" >OH</text>
<text x="542.636341" y="244.512817" fill="rgb(255,12,12)"  stroke="rgb(255,12,12)" stroke-width="1" font-size="16" >HO</text>
<text x="477.975047" y="193.825096" fill="rgb(255,12,12)"  stroke="rgb(255,12,12)" stroke-width="1" font-size="16" >O</text>
<text x="112.433436" y="159.278117" fill="rgb(255,12,12)"  stroke="rgb(255,12,12)" stroke-width="1" font-size="16" >O</text>
<text x="564.557043" y="156.800534" fill="rgb(255,12,12)"  stroke="rgb(255,12,12)" stroke-width="1" font-size="16" >O</text>
<text x="255.835188" y="231.650247" fill="rgb(255,12,12)"  stroke="rgb(255,12,12)" stroke-width="1" font-size="16" >O</text>
<text x="160.817581" y="187.212717" fill="rgb(255,12,12)"  stroke="rgb(255,12,12)" stroke-width="1" font-size="16" >O</text>
<text x="533.071018" y="223.500410" fill="rgb(255,12,12)"  stroke="rgb(255,12,12)" stroke-width="1" font-size="16" >O</text>
<text x="270.295200" y="181.204745" fill="rgb(255,12,12)"  stroke="rgb(255,12,12)" stroke-width="1" font-size="16" >O</text>
<text x="36.400000" y="72.179894" fill="rgb(191,191,191)"  stroke="rgb(191,191,191)" stroke-width="1" font-size="16" >H</text>
<text x="591.660903" y="109.855270" fill="rgb(191,191,191)"  stroke="rgb(191,191,191)" stroke-width="1" font-size="16" >H</text>
<text x="270.295200" y="285.615749" fill="rgb(191,191,191)"  stroke="rgb(191,191,191)" stroke-width="1" font-size="16" >H</text>
<text x="474.557604" y="221.297656" fill="rgb(191,191,191)"  stroke="rgb(191,191,191)" stroke-width="1" font-size="16" >H</text>
<text x="411.267422" y="240.462979" fill="rgb(191,191,191)"  stroke="rgb(191,191,191)" stroke-width="1" font-size="16" >H</text>
<text x="56.564237" y="86.479372" fill="rgb(191,191,191)"  stroke="rgb(191,191,191)" stroke-width="1" font-size="16" >H</text>
<text x="653.389326" y="146.879832" fill="rgb(191,191,191)"  stroke="rgb(191,191,191)" stroke-width="1" font-size="16" >H</text>
<text x="196.576954" y="305.368494" fill="rgb(191,191,191)"  stroke="rgb(191,191,191)" stroke-width="1" font-size="16" >H</text>
<text x="122.658209" y="48.320000" fill="rgb(191,191,191)"  stroke="rgb(191,191,191)" stroke-width="1" font-size="16" >H</text>
<text x="653.389326" y="217.408956" fill="rgb(191,191,191)"  stroke="rgb(191,191,191)" stroke-width="1" font-size="16" >H</text>
<text x="145.011452" y="251.402992" fill="rgb(191,191,191)"  stroke="rgb(191,191,191)" stroke-width="1" font-size="16" >H</text>
<text x="186.352181" y="86.479372" fill="rgb(191,191,191)"  stroke="rgb(191,191,191)" stroke-width="1" font-size="16" >H</text>
<text x="589.260903" y="254.433518" fill="rgb(191,191,191)"  stroke="rgb(191,191,191)" stroke-width="1" font-size="16" >H</text>
<text x="244.675790" y="138.273866" fill="rgb(191,191,191)"  stroke="rgb(191,191,191)" stroke-width="1" font-size="16" >H</text>
<text x="186.352181" y="159.278117" fill="rgb(191,191,191)"  stroke="rgb(191,191,191)" stroke-width="1" font-size="16" >H</text>
<text x="531.302122" y="163.415349" fill="rgb(191,191,191)"  stroke="rgb(191,191,191)" stroke-width="1" font-size="16" >H</text>
<text x="236.082443" y="161.452000" fill="rgb(191,191,191)"  stroke="rgb(191,191,191)" stroke-width="1" font-size="16" >H</text>
<text font-size="18.000000" fill ="black" font-family="sans-serif"
x="140.000000" y="20.000000" ></text>
<title> - OBDepict</title>
</svg>
