<?xml version="1.0"?>
<svg xmlns="http://www.w3.org/2000/svg"
xmlns:xlink="http://www.w3.org/1999/xlink" xmlns:cml="http://www.xml-cml.org/schema" width="533.904" height="327.029" x="0" y="0" font-family="sans-serif" stroke="rgb(0,0,0)" stroke-width="1" >
<line x1="390.9" y1="199.9" x2="363.3" y2="172.3"/>
<line x1="390.9" y1="199.9" x2="418.8" y2="192.5"/>
<line x1="335.7" y1="199.9" x2="363.3" y2="172.3"/>
<line x1="335.7" y1="199.9" x2="307.8" y2="192.5"/>
<line x1="455.4" y1="214.5" x2="483.3" y2="207.0"/>
<line x1="457.0" y1="220.3" x2="484.9" y2="212.8"/>
<line x1="456.2" y1="217.4" x2="435.8" y2="197.0"/>
<line x1="295.9" y1="157.0" x2="275.5" y2="136.5"/>
<line x1="300.2" y1="152.7" x2="279.7" y2="132.3"/>
<line x1="298.0" y1="154.8" x2="325.9" y2="147.4"/>
<polygon points="381.814023 153.842259 360.497341 169.502087 366.154195 175.158941 " />
<line x1="363.3" y1="172.3" x2="342.9" y2="151.9"/>
<polygon points="197.503430 264.723912 174.821191 217.437120 167.892987 221.437120 " />
<line x1="171.4" y1="219.4" x2="156.9" y2="244.4"/>
<polygon points="124.487805 222.568321 141.025077 201.924925 134.096874 197.924925 " />
<line x1="137.6" y1="199.9" x2="108.7" y2="199.9"/>
<line x1="217.3" y1="139.1" x2="218.0" y2="139.5"/>
<line x1="215.0" y1="142.3" x2="216.4" y2="143.1"/>
<line x1="212.7" y1="145.4" x2="214.8" y2="146.6"/>
<line x1="210.4" y1="148.6" x2="213.2" y2="150.2"/>
<line x1="208.1" y1="151.8" x2="211.6" y2="153.8"/>
<line x1="205.8" y1="155.0" x2="210.0" y2="157.4"/>
<line x1="203.5" y1="158.1" x2="208.4" y2="160.9"/>
<line x1="205.2" y1="160.9" x2="234.0" y2="160.9"/>
<polygon points="201.740420 225.847581 209.118982 200.447030 201.187423 199.402821 " />
<line x1="205.2" y1="199.9" x2="233.0" y2="192.5"/>
<line x1="112.6" y1="161.3" x2="112.6" y2="160.5"/>
<line x1="116.5" y1="161.7" x2="116.5" y2="160.1"/>
<line x1="120.4" y1="162.1" x2="120.4" y2="159.7"/>
<line x1="124.3" y1="162.5" x2="124.3" y2="159.3"/>
<line x1="128.2" y1="162.9" x2="128.2" y2="158.9"/>
<line x1="132.1" y1="163.3" x2="132.1" y2="158.5"/>
<line x1="136.0" y1="163.7" x2="136.0" y2="158.1"/>
<line x1="137.6" y1="160.9" x2="123.1" y2="135.9"/>
<polygon points="158.283918 118.744944 167.892987 143.388340 174.821191 139.388340 " />
<line x1="171.4" y1="141.4" x2="185.8" y2="116.4"/>
<line x1="79.0" y1="98.2" x2="79.0" y2="117.0"/>
<line x1="50.1" y1="127.1" x2="68.9" y2="127.1"/>
<line x1="76.0" y1="156.0" x2="76.0" y2="137.3"/>
<line x1="82.0" y1="156.0" x2="82.0" y2="137.3"/>
<line x1="196.4" y1="59.4" x2="180.1" y2="68.7"/>
<line x1="156.9" y1="48.8" x2="166.3" y2="65.0"/>
<line x1="144.8" y1="85.6" x2="161.1" y2="76.3"/>
<line x1="147.8" y1="90.8" x2="164.1" y2="81.5"/>
<line x1="290.9" y1="237.8" x2="277.6" y2="224.6"/>
<line x1="247.9" y1="235.7" x2="261.1" y2="222.5"/>
<line x1="252.1" y1="240.0" x2="265.4" y2="226.7"/>
<line x1="290.9" y1="197.0" x2="277.6" y2="210.2"/>
<line x1="107.9" y1="127.1" x2="89.2" y2="127.1"/>
<line x1="185.8" y1="98.8" x2="176.4" y2="82.6"/>
<line x1="250.0" y1="197.0" x2="263.3" y2="210.2"/>
<line x1="171.4" y1="219.4" x2="137.6" y2="199.9"/>
<line x1="137.6" y1="199.9" x2="137.6" y2="160.9"/>
<line x1="137.6" y1="160.9" x2="171.4" y2="141.4"/>
<line x1="171.4" y1="141.4" x2="205.2" y2="160.9"/>
<line x1="205.2" y1="160.9" x2="205.2" y2="199.9"/>
<line x1="205.2" y1="199.9" x2="171.4" y2="219.4"/>
<text x="487.903923" y="215.638825" fill="rgb(255,12,12)"  stroke="rgb(255,12,12)" stroke-width="1" font-size="16" >O</text>
<text x="266.842280" y="135.561948" fill="rgb(255,12,12)"  stroke="rgb(255,12,12)" stroke-width="1" font-size="16" >O</text>
<text x="136.244894" y="258.033234" fill="rgb(255,12,12)"  stroke="rgb(255,12,12)" stroke-width="1" font-size="16" >HO</text>
<text x="82.936585" y="204.724925" fill="rgb(255,12,12)"  stroke="rgb(255,12,12)" stroke-width="1" font-size="16" >HO</text>
<text x="238.177592" y="169.220535" fill="rgb(255,12,12)"  stroke="rgb(255,12,12)" stroke-width="1" font-size="16" >OH</text>
<text x="73.024390" y="96.400032" fill="rgb(255,12,12)"  stroke="rgb(255,12,12)" stroke-width="1" font-size="16" >OH</text>
<text x="24.400000" y="135.424422" fill="rgb(255,12,12)"  stroke="rgb(255,12,12)" stroke-width="1" font-size="16" >HO</text>
<text x="73.024390" y="170.928812" fill="rgb(255,12,12)"  stroke="rgb(255,12,12)" stroke-width="1" font-size="16" >O</text>
<text x="199.153202" y="62.603918" fill="rgb(255,12,12)"  stroke="rgb(255,12,12)" stroke-width="1" font-size="16" >OH</text>
<text x="136.244894" y="48.320000" fill="rgb(255,12,12)"  stroke="rgb(255,12,12)" stroke-width="1" font-size="16" >HO</text>
<text x="133.960976" y="98.108308" fill="rgb(255,12,12)"  stroke="rgb(255,12,12)" stroke-width="1" font-size="16" >O</text>
<text x="292.036691" y="249.813492" fill="rgb(255,12,12)"  stroke="rgb(255,12,12)" stroke-width="1" font-size="16" >OH</text>
<text x="239.247869" y="249.813492" fill="rgb(255,12,12)"  stroke="rgb(255,12,12)" stroke-width="1" font-size="16" >O</text>
<text x="422.614845" y="198.144670" fill="rgb(255,12,12)"  stroke="rgb(255,12,12)" stroke-width="1" font-size="16" >O</text>
<text x="329.731357" y="153.056103" fill="rgb(255,12,12)"  stroke="rgb(255,12,12)" stroke-width="1" font-size="16" >O</text>
<text x="294.436691" y="198.144670" fill="rgb(255,12,12)"  stroke="rgb(255,12,12)" stroke-width="1" font-size="16" >O</text>
<text x="112.048780" y="135.424422" fill="rgb(255,12,12)"  stroke="rgb(255,12,12)" stroke-width="1" font-size="16" >O</text>
<text x="184.869284" y="115.912227" fill="rgb(255,12,12)"  stroke="rgb(255,12,12)" stroke-width="1" font-size="16" >O</text>
<text x="236.847869" y="198.144670" fill="rgb(255,12,12)"  stroke="rgb(255,12,12)" stroke-width="1" font-size="16" >O</text>
<text x="73.024390" y="131.904422" fill="rgb(255,127,0)"  stroke="rgb(255,127,0)" stroke-width="1" font-size="16" >P</text>
<text x="165.357089" y="78.596113" fill="rgb(255,127,0)"  stroke="rgb(255,127,0)" stroke-width="1" font-size="16" >P</text>
<text x="264.442280" y="225.739081" fill="rgb(255,127,0)"  stroke="rgb(255,127,0)" stroke-width="1" font-size="16" >P</text>
<text x="384.920179" y="153.056103" fill="rgb(191,191,191)"  stroke="rgb(191,191,191)" stroke-width="1" font-size="16" >H</text>
<text x="204.381479" y="291.829347" fill="rgb(191,191,191)"  stroke="rgb(191,191,191)" stroke-width="1" font-size="16" >H</text>
<text x="114.448780" y="238.521039" fill="rgb(191,191,191)"  stroke="rgb(191,191,191)" stroke-width="1" font-size="16" >H</text>
<text x="218.665397" y="135.424422" fill="rgb(191,191,191)"  stroke="rgb(191,191,191)" stroke-width="1" font-size="16" >H</text>
<text x="196.459497" y="243.415456" fill="rgb(191,191,191)"  stroke="rgb(191,191,191)" stroke-width="1" font-size="16" >H</text>
<text x="94.936585" y="165.700535" fill="rgb(191,191,191)"  stroke="rgb(191,191,191)" stroke-width="1" font-size="16" >H</text>
<text x="148.244894" y="115.912227" fill="rgb(191,191,191)"  stroke="rgb(191,191,191)" stroke-width="1" font-size="16" >H</text>
<text font-size="18.000000" fill ="black" font-family="sans-serif"
x="140.000000" y="20.000000" ></text>
<title> - OBDepict</title>
</svg>
