<?xml version="1.0"?>
<svg xmlns="http://www.w3.org/2000/svg"
xmlns:xlink="http://www.w3.org/1999/xlink" xmlns:cml="http://www.xml-cml.org/schema" width="245.988" height="322.655" x="0" y="0" font-family="sans-serif" stroke="rgb(0,0,0)" stroke-width="1" >
<line x1="48.6" y1="177.8" x2="73.2" y2="192.0"/>
<line x1="187.0" y1="274.0" x2="172.8" y2="249.5"/>
<line x1="109.9" y1="92.2" x2="134.5" y2="106.4"/>
<line x1="160.9" y1="270.9" x2="160.2" y2="270.5"/>
<line x1="163.1" y1="267.8" x2="161.7" y2="267.0"/>
<line x1="165.4" y1="264.7" x2="163.3" y2="263.5"/>
<line x1="167.7" y1="261.5" x2="164.9" y2="259.9"/>
<line x1="169.9" y1="258.4" x2="166.5" y2="256.4"/>
<line x1="172.2" y1="255.3" x2="168.0" y2="252.9"/>
<line x1="174.4" y1="252.2" x2="169.6" y2="249.4"/>
<line x1="113.4" y1="119.0" x2="113.0" y2="118.3"/>
<line x1="116.9" y1="117.4" x2="116.1" y2="116.1"/>
<line x1="120.5" y1="115.9" x2="119.3" y2="113.8"/>
<line x1="124.0" y1="114.3" x2="122.4" y2="111.5"/>
<line x1="127.5" y1="112.7" x2="125.5" y2="109.3"/>
<line x1="131.0" y1="111.2" x2="128.6" y2="107.0"/>
<line x1="134.5" y1="109.6" x2="131.7" y2="104.7"/>
<line x1="134.5" y1="106.4" x2="172.8" y2="172.8"/>
<line x1="134.5" y1="106.4" x2="153.6" y2="73.2"/>
<polygon points="139.592921 255.973895 143.592921 230.290562 135.592921 230.290562 " />
<polygon points="185.632229 150.548143 169.326460 170.790562 176.254664 174.790562 " />
<polygon points="139.592921 166.273895 135.592921 191.957229 143.592921 191.957229 " />
<line x1="153.6" y1="70.2" x2="182.0" y2="70.2"/>
<line x1="153.6" y1="76.2" x2="182.0" y2="76.2"/>
<line x1="153.6" y1="73.2" x2="139.4" y2="48.6"/>
<line x1="73.2" y1="192.0" x2="73.2" y2="230.3"/>
<line x1="73.2" y1="230.3" x2="106.4" y2="249.5"/>
<line x1="106.4" y1="249.5" x2="139.6" y2="230.3"/>
<line x1="139.6" y1="230.3" x2="139.6" y2="192.0"/>
<line x1="139.6" y1="192.0" x2="106.4" y2="172.8"/>
<line x1="106.4" y1="172.8" x2="73.2" y2="192.0"/>
<line x1="104.8" y1="182.0" x2="82.0" y2="195.2"/>
<line x1="172.8" y1="249.5" x2="206.0" y2="230.3"/>
<line x1="206.0" y1="230.3" x2="206.0" y2="192.0"/>
<line x1="206.0" y1="192.0" x2="172.8" y2="172.8"/>
<line x1="172.8" y1="172.8" x2="139.6" y2="192.0"/>
<line x1="139.6" y1="230.3" x2="172.8" y2="249.5"/>
<text x="16.400000" y="181.110562" fill="rgb(102,102,102)"  stroke="rgb(102,102,102)" stroke-width="1" font-size="16" >H</text>
<text x="28.400000" y="188.790562" fill="rgb(102,102,102)"  stroke="rgb(102,102,102)" stroke-width="1" font-size="13" >3</text>
<text x="34.900000" y="181.110562" fill="rgb(102,102,102)"  stroke="rgb(102,102,102)" stroke-width="1" font-size="16" >C</text>
<text x="185.957229" y="287.454869" fill="rgb(102,102,102)"  stroke="rgb(102,102,102)" stroke-width="1" font-size="16" >CH</text>
<text x="209.957229" y="292.254869" fill="rgb(102,102,102)"  stroke="rgb(102,102,102)" stroke-width="1" font-size="13" >3</text>
<text x="77.659588" y="95.548614" fill="rgb(102,102,102)"  stroke="rgb(102,102,102)" stroke-width="1" font-size="16" >H</text>
<text x="89.659588" y="103.228614" fill="rgb(102,102,102)"  stroke="rgb(102,102,102)" stroke-width="1" font-size="13" >3</text>
<text x="96.159588" y="95.548614" fill="rgb(102,102,102)"  stroke="rgb(102,102,102)" stroke-width="1" font-size="16" >C</text>
<text x="185.957229" y="77.997640" fill="rgb(255,12,12)"  stroke="rgb(255,12,12)" stroke-width="1" font-size="16" >O</text>
<text x="129.657229" y="33.600000" fill="rgb(255,12,12)"  stroke="rgb(255,12,12)" stroke-width="1" font-size="32" >-</text>
<text x="130.857229" y="48.320000" fill="rgb(255,12,12)"  stroke="rgb(255,12,12)" stroke-width="1" font-size="16" >O</text>
<text x="150.023895" y="287.454869" fill="rgb(191,191,191)"  stroke="rgb(191,191,191)" stroke-width="1" font-size="16" >H</text>
<text x="97.659588" y="130.361948" fill="rgb(191,191,191)"  stroke="rgb(191,191,191)" stroke-width="1" font-size="16" >H</text>
<text x="133.592921" y="273.423895" fill="rgb(191,191,191)"  stroke="rgb(191,191,191)" stroke-width="1" font-size="16" >H</text>
<text x="185.957229" y="147.912921" fill="rgb(191,191,191)"  stroke="rgb(191,191,191)" stroke-width="1" font-size="16" >H</text>
<text x="133.592921" y="161.943895" fill="rgb(191,191,191)"  stroke="rgb(191,191,191)" stroke-width="1" font-size="16" >H</text>
<text font-size="18.000000" fill ="black" font-family="sans-serif"
x="140.000000" y="20.000000" ></text>
<title> - OBDepict</title>
</svg>
