<?xml version="1.0"?>
<svg xmlns="http://www.w3.org/2000/svg"
xmlns:xlink="http://www.w3.org/1999/xlink" xmlns:cml="http://www.xml-cml.org/schema" width="354.759" height="260" x="0" y="0" font-family="sans-serif" stroke="rgb(0,0,0)" stroke-width="1" >
<line x1="278.8" y1="205.2" x2="262.2" y2="214.8"/>
<line x1="134.6" y1="105.4" x2="114.6" y2="140.0"/>
<line x1="132.0" y1="106.9" x2="117.2" y2="81.2"/>
<line x1="137.2" y1="103.9" x2="122.4" y2="78.2"/>
<line x1="80.0" y1="80.0" x2="80.0" y2="120.0"/>
<line x1="78.5" y1="82.6" x2="52.9" y2="67.8"/>
<line x1="81.5" y1="77.4" x2="55.9" y2="62.6"/>
<polygon points="101.241016 163.209481 118.105118 142.000000 111.176915 138.000000 " />
<line x1="114.6" y1="140.0" x2="80.0" y2="120.0"/>
<line x1="114.6" y1="140.0" x2="149.3" y2="160.0"/>
<line x1="288.4" y1="86.7" x2="297.5" y2="58.6"/>
<line x1="294.1" y1="88.6" x2="303.2" y2="60.4"/>
<line x1="149.3" y1="200.0" x2="123.6" y2="214.8"/>
<line x1="54.4" y1="120.4" x2="54.4" y2="119.6"/>
<line x1="58.4" y1="120.8" x2="58.4" y2="119.2"/>
<line x1="62.4" y1="121.2" x2="62.4" y2="118.8"/>
<line x1="66.4" y1="121.6" x2="66.4" y2="118.4"/>
<line x1="70.4" y1="122.0" x2="70.4" y2="118.0"/>
<line x1="74.4" y1="122.4" x2="74.4" y2="117.6"/>
<line x1="78.4" y1="122.8" x2="78.4" y2="117.2"/>
<line x1="80.0" y1="120.0" x2="65.2" y2="145.6"/>
<line x1="218.6" y1="200.0" x2="244.2" y2="214.8"/>
<line x1="215.6" y1="80.0" x2="215.6" y2="50.4"/>
<line x1="221.6" y1="80.0" x2="221.6" y2="50.4"/>
<line x1="291.2" y1="152.4" x2="314.8" y2="120.0"/>
<line x1="314.8" y1="120.0" x2="291.2" y2="87.6"/>
<line x1="291.2" y1="87.6" x2="253.2" y2="100.0"/>
<line x1="253.2" y1="100.0" x2="253.2" y2="140.0"/>
<line x1="260.4" y1="106.0" x2="260.4" y2="134.0"/>
<line x1="253.2" y1="140.0" x2="291.2" y2="152.4"/>
<line x1="183.9" y1="110.4" x2="183.9" y2="140.0"/>
<line x1="183.9" y1="140.0" x2="218.6" y2="160.0"/>
<line x1="218.6" y1="160.0" x2="253.2" y2="140.0"/>
<line x1="253.2" y1="100.0" x2="218.6" y2="80.0"/>
<line x1="218.6" y1="80.0" x2="192.9" y2="94.8"/>
<line x1="183.9" y1="220.0" x2="149.3" y2="200.0"/>
<line x1="182.3" y1="210.8" x2="158.1" y2="196.8"/>
<line x1="149.3" y1="200.0" x2="149.3" y2="160.0"/>
<line x1="149.3" y1="160.0" x2="183.9" y2="140.0"/>
<line x1="158.1" y1="163.2" x2="182.3" y2="149.2"/>
<line x1="218.6" y1="160.0" x2="218.6" y2="200.0"/>
<line x1="211.4" y1="166.0" x2="211.4" y2="194.0"/>
<line x1="218.6" y1="200.0" x2="183.9" y2="220.0"/>
<text x="281.846097" y="208.320000" fill="rgb(102,102,102)"  stroke="rgb(102,102,102)" stroke-width="1" font-size="16" >CH</text>
<text x="305.846097" y="216.000000" fill="rgb(102,102,102)"  stroke="rgb(102,102,102)" stroke-width="1" font-size="13" >3</text>
<text x="111.041016" y="79.037968" fill="rgb(255,12,12)"  stroke="rgb(255,12,12)" stroke-width="1" font-size="16" >O</text>
<text x="41.758984" y="68.320000" fill="rgb(255,12,12)"  stroke="rgb(255,12,12)" stroke-width="1" font-size="16" >O</text>
<text x="297.608021" y="57.917060" fill="rgb(255,12,12)"  stroke="rgb(255,12,12)" stroke-width="1" font-size="16" >O</text>
<text x="109.841016" y="239.200000" fill="rgb(255,12,12)"  stroke="rgb(255,12,12)" stroke-width="1" font-size="32" >-</text>
<text x="111.041016" y="224.800000" fill="rgb(255,12,12)"  stroke="rgb(255,12,12)" stroke-width="1" font-size="16" >O</text>
<text x="44.400000" y="159.441016" fill="rgb(255,12,12)"  stroke="rgb(255,12,12)" stroke-width="1" font-size="16" >HO</text>
<text x="212.564065" y="48.320000" fill="rgb(255,12,12)"  stroke="rgb(255,12,12)" stroke-width="1" font-size="16" >O</text>
<text x="247.205081" y="224.800000" fill="rgb(255,12,12)"  stroke="rgb(255,12,12)" stroke-width="1" font-size="16" >O</text>
<text x="180.323048" y="108.320000" fill="rgb(255,12,12)"  stroke="rgb(255,12,12)" stroke-width="1" font-size="16" >O</text>
<text x="91.041016" y="179.441016" fill="rgb(191,191,191)"  stroke="rgb(191,191,191)" stroke-width="1" font-size="16" >H</text>
<text x="36.400000" y="124.800000" fill="rgb(191,191,191)"  stroke="rgb(191,191,191)" stroke-width="1" font-size="16" >H</text>
<text font-size="18.000000" fill ="black" font-family="sans-serif"
x="140.000000" y="20.000000" ></text>
<title> - OBDepict</title>
</svg>
