<?xml version="1.0"?>
<svg xmlns="http://www.w3.org/2000/svg"
xmlns:xlink="http://www.w3.org/1999/xlink" xmlns:cml="http://www.xml-cml.org/schema" width="234.641" height="229.282" x="0" y="0" font-family="sans-serif" stroke="rgb(0,0,0)" stroke-width="1" >
<line x1="80.0" y1="114.6" x2="100.0" y2="149.3"/>
<line x1="80.0" y1="114.6" x2="50.4" y2="114.6"/>
<line x1="100.0" y1="80.0" x2="140.0" y2="80.0"/>
<line x1="100.0" y1="80.0" x2="85.2" y2="54.4"/>
<line x1="100.4" y1="174.9" x2="99.6" y2="174.9"/>
<line x1="100.8" y1="170.9" x2="99.2" y2="170.9"/>
<line x1="101.2" y1="166.9" x2="98.8" y2="166.9"/>
<line x1="101.6" y1="162.9" x2="98.4" y2="162.9"/>
<line x1="102.0" y1="158.9" x2="98.0" y2="158.9"/>
<line x1="102.4" y1="154.9" x2="97.6" y2="154.9"/>
<line x1="102.8" y1="150.9" x2="97.2" y2="150.9"/>
<line x1="100.0" y1="149.3" x2="140.0" y2="149.3"/>
<line x1="100.0" y1="149.3" x2="74.4" y2="164.1"/>
<line x1="139.6" y1="54.4" x2="140.4" y2="54.4"/>
<line x1="139.2" y1="58.4" x2="140.8" y2="58.4"/>
<line x1="138.8" y1="62.4" x2="141.2" y2="62.4"/>
<line x1="138.4" y1="66.4" x2="141.6" y2="66.4"/>
<line x1="138.0" y1="70.4" x2="142.0" y2="70.4"/>
<line x1="137.6" y1="74.4" x2="142.4" y2="74.4"/>
<line x1="137.2" y1="78.4" x2="142.8" y2="78.4"/>
<line x1="140.0" y1="80.0" x2="160.0" y2="114.6"/>
<line x1="140.0" y1="80.0" x2="165.6" y2="65.2"/>
<polygon points="163.209481 162.682032 142.000000 145.817931 138.000000 152.746134 " />
<line x1="140.0" y1="149.3" x2="160.0" y2="114.6"/>
<line x1="140.0" y1="149.3" x2="140.0" y2="178.9"/>
<polygon points="183.209481 101.241016 158.000000 111.176915 162.000000 118.105118 " />
<line x1="160.0" y1="114.6" x2="185.6" y2="129.4"/>
<text x="24.400000" y="119.441016" fill="rgb(255,12,12)"  stroke="rgb(255,12,12)" stroke-width="1" font-size="16" >HO</text>
<text x="64.400000" y="53.678984" fill="rgb(255,12,12)"  stroke="rgb(255,12,12)" stroke-width="1" font-size="16" >HO</text>
<text x="49.758984" y="174.082032" fill="rgb(255,12,12)"  stroke="rgb(255,12,12)" stroke-width="1" font-size="16" >HO</text>
<text x="168.641016" y="68.320000" fill="rgb(255,12,12)"  stroke="rgb(255,12,12)" stroke-width="1" font-size="16" >OH</text>
<text x="134.000000" y="194.082032" fill="rgb(255,12,12)"  stroke="rgb(255,12,12)" stroke-width="1" font-size="16" >OH</text>
<text x="188.641016" y="139.441016" fill="rgb(255,12,12)"  stroke="rgb(255,12,12)" stroke-width="1" font-size="16" >OH</text>
<text x="94.000000" y="194.082032" fill="rgb(191,191,191)"  stroke="rgb(191,191,191)" stroke-width="1" font-size="16" >H</text>
<text x="134.000000" y="48.320000" fill="rgb(191,191,191)"  stroke="rgb(191,191,191)" stroke-width="1" font-size="16" >H</text>
<text x="168.641016" y="174.082032" fill="rgb(191,191,191)"  stroke="rgb(191,191,191)" stroke-width="1" font-size="16" >H</text>
<text x="188.641016" y="102.961016" fill="rgb(191,191,191)"  stroke="rgb(191,191,191)" stroke-width="1" font-size="16" >H</text>
<text font-size="18.000000" fill ="black" font-family="sans-serif"
x="140.000000" y="20.000000" ></text>
<title> - OBDepict</title>
</svg>
