<?xml version="1.0"?>
<svg xmlns="http://www.w3.org/2000/svg"
xmlns:xlink="http://www.w3.org/1999/xlink" xmlns:cml="http://www.xml-cml.org/schema" width="391.769" height="320" x="0" y="0" font-family="sans-serif" stroke="rgb(0,0,0)" stroke-width="1" >
<line x1="100.3" y1="274.8" x2="74.6" y2="260.0"/>
<line x1="74.6" y1="260.0" x2="74.6" y2="220.0"/>
<line x1="74.6" y1="220.0" x2="40.0" y2="200.0"/>
<line x1="40.0" y1="200.0" x2="40.0" y2="160.0"/>
<line x1="40.0" y1="160.0" x2="74.6" y2="140.0"/>
<line x1="74.6" y1="140.0" x2="100.3" y2="154.8"/>
<line x1="71.6" y1="140.0" x2="71.6" y2="100.0"/>
<line x1="77.6" y1="140.0" x2="77.6" y2="100.0"/>
<line x1="74.6" y1="100.0" x2="49.0" y2="85.2"/>
<line x1="74.6" y1="100.0" x2="109.3" y2="80.0"/>
<line x1="109.3" y1="80.0" x2="143.9" y2="100.0"/>
<line x1="143.9" y1="100.0" x2="143.9" y2="129.6"/>
<line x1="142.4" y1="97.4" x2="177.1" y2="77.4"/>
<line x1="145.4" y1="102.6" x2="180.1" y2="82.6"/>
<line x1="178.6" y1="80.0" x2="178.6" y2="50.4"/>
<line x1="178.6" y1="80.0" x2="213.2" y2="100.0"/>
<line x1="213.2" y1="100.0" x2="247.8" y2="80.0"/>
<line x1="247.8" y1="80.0" x2="247.8" y2="50.4"/>
<line x1="249.3" y1="77.4" x2="284.0" y2="97.4"/>
<line x1="246.3" y1="82.6" x2="281.0" y2="102.6"/>
<line x1="282.5" y1="100.0" x2="308.1" y2="85.2"/>
<line x1="282.5" y1="100.0" x2="282.5" y2="140.0"/>
<line x1="282.5" y1="140.0" x2="317.1" y2="160.0"/>
<line x1="317.1" y1="160.0" x2="342.8" y2="145.2"/>
<line x1="320.1" y1="160.0" x2="320.1" y2="200.0"/>
<line x1="314.1" y1="160.0" x2="314.1" y2="200.0"/>
<line x1="317.1" y1="200.0" x2="342.8" y2="214.8"/>
<line x1="317.1" y1="200.0" x2="282.5" y2="220.0"/>
<line x1="282.5" y1="220.0" x2="282.5" y2="260.0"/>
<line x1="282.5" y1="260.0" x2="247.8" y2="280.0"/>
<line x1="247.8" y1="280.0" x2="213.2" y2="260.0"/>
<line x1="178.6" y1="200.0" x2="143.9" y2="220.0"/>
<line x1="178.6" y1="200.0" x2="204.2" y2="214.8"/>
<line x1="143.9" y1="220.0" x2="118.3" y2="205.2"/>
<line x1="210.2" y1="260.0" x2="210.2" y2="230.4"/>
<line x1="216.2" y1="260.0" x2="216.2" y2="230.4"/>
<line x1="213.2" y1="260.0" x2="187.6" y2="274.8"/>
<text x="103.282032" y="284.800000" fill="rgb(102,102,102)"  stroke="rgb(102,102,102)" stroke-width="1" font-size="16" >CH</text>
<text x="127.282032" y="289.600000" fill="rgb(102,102,102)"  stroke="rgb(102,102,102)" stroke-width="1" font-size="13" >3</text>
<text x="207.205081" y="228.320000" fill="rgb(12,12,255)"  stroke="rgb(12,12,255)" stroke-width="1" font-size="16" >N</text>
<text x="93.682032" y="208.320000" fill="rgb(255,12,12)"  stroke="rgb(255,12,12)" stroke-width="1" font-size="16" >HO</text>
<text x="162.964065" y="284.800000" fill="rgb(255,12,12)"  stroke="rgb(255,12,12)" stroke-width="1" font-size="16" >HO</text>
<text x="103.282032" y="164.800000" fill="rgb(191,191,191)"  stroke="rgb(191,191,191)" stroke-width="1" font-size="16" >H</text>
<text x="36.400000" y="88.320000" fill="rgb(191,191,191)"  stroke="rgb(191,191,191)" stroke-width="1" font-size="16" >H</text>
<text x="137.923048" y="144.800000" fill="rgb(191,191,191)"  stroke="rgb(191,191,191)" stroke-width="1" font-size="16" >H</text>
<text x="172.564065" y="48.320000" fill="rgb(191,191,191)"  stroke="rgb(191,191,191)" stroke-width="1" font-size="16" >H</text>
<text x="241.846097" y="48.320000" fill="rgb(191,191,191)"  stroke="rgb(191,191,191)" stroke-width="1" font-size="16" >H</text>
<text x="311.128129" y="88.320000" fill="rgb(191,191,191)"  stroke="rgb(191,191,191)" stroke-width="1" font-size="16" >H</text>
<text x="345.769145" y="148.320000" fill="rgb(191,191,191)"  stroke="rgb(191,191,191)" stroke-width="1" font-size="16" >H</text>
<text x="345.769145" y="224.800000" fill="rgb(191,191,191)"  stroke="rgb(191,191,191)" stroke-width="1" font-size="16" >H</text>
<text font-size="18.000000" fill ="black" font-family="sans-serif"
x="140.000000" y="20.000000" ></text>
<title> - OBDepict</title>
</svg>
