<?xml version="1.0"?>
<svg xmlns="http://www.w3.org/2000/svg"
xmlns:xlink="http://www.w3.org/1999/xlink" xmlns:cml="http://www.xml-cml.org/schema" width="561.862" height="392.95" x="0" y="0" font-family="sans-serif" stroke="rgb(0,0,0)" stroke-width="1" >
<line x1="518.6" y1="176.6" x2="509.5" y2="148.4"/>
<line x1="49.8" y1="119.7" x2="79.0" y2="115.1"/>
<line x1="50.7" y1="125.7" x2="80.0" y2="121.0"/>
<line x1="468.9" y1="78.0" x2="454.1" y2="103.6"/>
<line x1="160.7" y1="122.2" x2="144.6" y2="147.1"/>
<line x1="220.5" y1="166.9" x2="242.5" y2="186.7"/>
<line x1="436.4" y1="287.6" x2="412.5" y2="270.2"/>
<line x1="220.1" y1="277.5" x2="239.2" y2="275.5"/>
<line x1="509.5" y1="148.4" x2="470.4" y2="140.1"/>
<line x1="79.5" y1="118.1" x2="104.7" y2="149.1"/>
<line x1="296.8" y1="162.5" x2="273.3" y2="130.1"/>
<line x1="296.8" y1="162.5" x2="280.5" y2="199.0"/>
<line x1="273.3" y1="130.1" x2="289.5" y2="93.6"/>
<line x1="179.0" y1="219.0" x2="219.0" y2="219.0"/>
<line x1="179.0" y1="219.0" x2="159.0" y2="184.4"/>
<line x1="444.8" y1="206.7" x2="412.5" y2="230.2"/>
<line x1="444.8" y1="206.7" x2="440.7" y2="166.9"/>
<line x1="387.6" y1="78.0" x2="414.3" y2="107.8"/>
<line x1="384.7" y1="77.1" x2="393.9" y2="49.0"/>
<line x1="390.4" y1="79.0" x2="399.6" y2="50.8"/>
<line x1="247.4" y1="161.6" x2="248.2" y2="161.7"/>
<line x1="246.2" y1="165.4" x2="247.7" y2="165.7"/>
<line x1="245.0" y1="169.2" x2="247.3" y2="169.7"/>
<line x1="243.7" y1="173.0" x2="246.9" y2="173.7"/>
<line x1="242.5" y1="176.9" x2="246.4" y2="177.7"/>
<line x1="241.3" y1="180.7" x2="246.0" y2="181.7"/>
<line x1="240.1" y1="184.5" x2="245.5" y2="185.7"/>
<polygon points="307.167106 196.234150 280.095806 195.057426 280.932033 203.013601 " />
<line x1="159.0" y1="184.4" x2="181.1" y2="164.8"/>
<line x1="289.2" y1="90.6" x2="318.7" y2="87.5"/>
<line x1="289.9" y1="96.6" x2="319.3" y2="93.5"/>
<line x1="289.5" y1="93.6" x2="272.1" y2="69.6"/>
<line x1="311.1" y1="265.0" x2="278.8" y2="241.5"/>
<line x1="314.6" y1="260.1" x2="282.3" y2="236.6"/>
<polygon points="301.974057 327.029942 316.528781 304.173870 309.220417 300.919977 " />
<line x1="312.9" y1="302.5" x2="273.1" y2="306.7"/>
<line x1="353.8" y1="314.0" x2="362.9" y2="342.1"/>
<line x1="348.1" y1="315.8" x2="357.2" y2="344.0"/>
<line x1="94.3" y1="187.8" x2="66.7" y2="198.4"/>
<line x1="275.8" y1="307.9" x2="263.8" y2="335.0"/>
<line x1="270.4" y1="305.5" x2="258.3" y2="332.5"/>
<line x1="273.1" y1="306.7" x2="255.7" y2="282.8"/>
<line x1="280.5" y1="199.0" x2="242.5" y2="186.7"/>
<line x1="242.5" y1="186.7" x2="219.0" y2="219.0"/>
<line x1="219.0" y1="219.0" x2="236.4" y2="243.0"/>
<line x1="228.3" y1="219.7" x2="241.0" y2="237.1"/>
<line x1="252.4" y1="248.2" x2="280.5" y2="239.0"/>
<line x1="280.5" y1="239.0" x2="280.5" y2="199.0"/>
<line x1="144.6" y1="147.1" x2="104.7" y2="149.1"/>
<line x1="139.0" y1="154.6" x2="111.0" y2="156.0"/>
<line x1="104.7" y1="149.1" x2="94.3" y2="187.8"/>
<line x1="94.3" y1="187.8" x2="119.2" y2="203.9"/>
<line x1="103.3" y1="185.0" x2="121.4" y2="196.8"/>
<line x1="136.0" y1="203.0" x2="159.0" y2="184.4"/>
<line x1="159.0" y1="184.4" x2="144.6" y2="147.1"/>
<line x1="454.1" y1="103.6" x2="414.3" y2="107.8"/>
<line x1="448.9" y1="111.4" x2="421.0" y2="114.3"/>
<line x1="414.3" y1="107.8" x2="408.2" y2="136.7"/>
<line x1="415.0" y1="152.1" x2="440.7" y2="166.9"/>
<line x1="440.7" y1="166.9" x2="470.4" y2="140.1"/>
<line x1="440.3" y1="157.5" x2="461.1" y2="138.8"/>
<line x1="470.4" y1="140.1" x2="454.1" y2="103.6"/>
<line x1="412.5" y1="270.2" x2="374.4" y2="282.5"/>
<line x1="374.4" y1="282.5" x2="350.9" y2="250.2"/>
<line x1="376.7" y1="273.5" x2="360.3" y2="250.8"/>
<line x1="350.9" y1="250.2" x2="368.3" y2="226.2"/>
<line x1="384.3" y1="221.0" x2="412.5" y2="230.2"/>
<line x1="412.5" y1="230.2" x2="412.5" y2="270.2"/>
<line x1="405.3" y1="236.2" x2="405.3" y2="264.2"/>
<line x1="312.9" y1="262.5" x2="312.9" y2="302.5"/>
<line x1="312.9" y1="302.5" x2="350.9" y2="314.9"/>
<line x1="350.9" y1="314.9" x2="374.4" y2="282.5"/>
<line x1="350.9" y1="250.2" x2="312.9" y2="262.5"/>
<text x="515.862449" y="191.287462" fill="rgb(102,102,102)"  stroke="rgb(102,102,102)" stroke-width="1" font-size="16" >CH</text>
<text x="539.862449" y="196.087462" fill="rgb(102,102,102)"  stroke="rgb(102,102,102)" stroke-width="1" font-size="13" >3</text>
<text x="16.400000" y="129.116258" fill="rgb(102,102,102)"  stroke="rgb(102,102,102)" stroke-width="1" font-size="16" >H</text>
<text x="28.400000" y="133.916258" fill="rgb(102,102,102)"  stroke="rgb(102,102,102)" stroke-width="1" font-size="13" >2</text>
<text x="34.900000" y="129.116258" fill="rgb(102,102,102)"  stroke="rgb(102,102,102)" stroke-width="1" font-size="16" >C</text>
<text x="468.106399" y="77.265899" fill="rgb(102,102,102)"  stroke="rgb(102,102,102)" stroke-width="1" font-size="16" >CH</text>
<text x="492.106399" y="84.945899" fill="rgb(102,102,102)"  stroke="rgb(102,102,102)" stroke-width="1" font-size="13" >3</text>
<text x="160.411092" y="121.824457" fill="rgb(102,102,102)"  stroke="rgb(102,102,102)" stroke-width="1" font-size="16" >CH</text>
<text x="184.411092" y="129.504457" fill="rgb(102,102,102)"  stroke="rgb(102,102,102)" stroke-width="1" font-size="13" >3</text>
<text x="189.145866" y="168.229609" fill="rgb(102,102,102)"  stroke="rgb(102,102,102)" stroke-width="1" font-size="16" >H</text>
<text x="201.145866" y="175.909609" fill="rgb(102,102,102)"  stroke="rgb(102,102,102)" stroke-width="1" font-size="13" >3</text>
<text x="207.645866" y="168.229609" fill="rgb(102,102,102)"  stroke="rgb(102,102,102)" stroke-width="1" font-size="16" >C</text>
<text x="438.831210" y="298.497654" fill="rgb(102,102,102)"  stroke="rgb(102,102,102)" stroke-width="1" font-size="16" >CH</text>
<text x="462.831210" y="303.297654" fill="rgb(102,102,102)"  stroke="rgb(102,102,102)" stroke-width="1" font-size="13" >3</text>
<text x="186.201437" y="283.348521" fill="rgb(102,102,102)"  stroke="rgb(102,102,102)" stroke-width="1" font-size="16" >H</text>
<text x="198.201437" y="288.148521" fill="rgb(102,102,102)"  stroke="rgb(102,102,102)" stroke-width="1" font-size="13" >3</text>
<text x="204.701437" y="283.348521" fill="rgb(102,102,102)"  stroke="rgb(102,102,102)" stroke-width="1" font-size="16" >C</text>
<text x="390.409056" y="151.693958" fill="rgb(12,12,255)"  stroke="rgb(12,12,255)" stroke-width="1" font-size="16" >HN</text>
<text x="238.871659" y="256.196193" fill="rgb(12,12,255)"  stroke="rgb(12,12,255)" stroke-width="1" font-size="16" >N</text>
<text x="358.828270" y="226.145564" fill="rgb(12,12,255)"  stroke="rgb(12,12,255)" stroke-width="1" font-size="16" >HN</text>
<text x="121.874410" y="214.367313" fill="rgb(12,12,255)"  stroke="rgb(12,12,255)" stroke-width="1" font-size="16" >N</text>
<text x="393.920979" y="48.320000" fill="rgb(255,12,12)"  stroke="rgb(255,12,12)" stroke-width="1" font-size="16" >O</text>
<text x="323.322317" y="97.730058" fill="rgb(255,12,12)"  stroke="rgb(255,12,12)" stroke-width="1" font-size="16" >O</text>
<text x="250.430031" y="69.550517" fill="rgb(255,12,12)"  stroke="rgb(255,12,12)" stroke-width="1" font-size="16" >HO</text>
<text x="357.277540" y="357.749864" fill="rgb(255,12,12)"  stroke="rgb(255,12,12)" stroke-width="1" font-size="16" >O</text>
<text x="41.384370" y="206.916469" fill="rgb(255,12,12)"  stroke="rgb(255,12,12)" stroke-width="1" font-size="16" >HO</text>
<text x="253.224258" y="348.069880" fill="rgb(255,12,12)"  stroke="rgb(255,12,12)" stroke-width="1" font-size="16" >O</text>
<text x="243.582313" y="282.687382" fill="rgb(255,12,12)"  stroke="rgb(255,12,12)" stroke-width="1" font-size="16" >O</text>
<text x="244.788126" y="155.868929" fill="rgb(191,191,191)"  stroke="rgb(191,191,191)" stroke-width="1" font-size="16" >H</text>
<text x="314.294795" y="203.174375" fill="rgb(191,191,191)"  stroke="rgb(191,191,191)" stroke-width="1" font-size="16" >H</text>
<text x="182.929939" y="166.222655" fill="rgb(191,191,191)"  stroke="rgb(191,191,191)" stroke-width="1" font-size="16" >H</text>
<text x="293.005133" y="343.888742" fill="rgb(191,191,191)"  stroke="rgb(191,191,191)" stroke-width="1" font-size="16" >H</text>
<text font-size="18.000000" fill ="black" font-family="sans-serif"
x="140.000000" y="20.000000" ></text>
<title> - OBDepict</title>
</svg>
