<?xml version="1.0"?>
<svg xmlns="http://www.w3.org/2000/svg"
xmlns:xlink="http://www.w3.org/1999/xlink" xmlns:cml="http://www.xml-cml.org/schema" width="238.811" height="220.129" x="0" y="0" font-family="sans-serif" stroke="rgb(0,0,0)" stroke-width="1" >
<line x1="91.5" y1="107.8" x2="79.1" y2="69.7"/>
<line x1="76.9" y1="67.7" x2="96.7" y2="45.7"/>
<line x1="81.4" y1="71.7" x2="101.2" y2="49.7"/>
<line x1="79.1" y1="69.7" x2="50.2" y2="63.6"/>
<line x1="129.5" y1="120.1" x2="91.5" y2="107.8"/>
<line x1="91.5" y1="107.8" x2="68.0" y2="140.1"/>
<line x1="93.8" y1="116.9" x2="77.3" y2="139.5"/>
<line x1="68.0" y1="140.1" x2="85.4" y2="164.1"/>
<line x1="101.4" y1="169.3" x2="129.5" y2="160.1"/>
<line x1="129.5" y1="160.1" x2="129.5" y2="120.1"/>
<line x1="198.8" y1="120.1" x2="164.2" y2="100.1"/>
<line x1="164.2" y1="100.1" x2="129.5" y2="120.1"/>
<line x1="162.6" y1="109.4" x2="138.3" y2="123.4"/>
<line x1="129.5" y1="160.1" x2="164.2" y2="180.1"/>
<line x1="138.3" y1="156.9" x2="162.6" y2="170.9"/>
<line x1="164.2" y1="180.1" x2="198.8" y2="160.1"/>
<line x1="198.8" y1="160.1" x2="198.8" y2="120.1"/>
<line x1="191.6" y1="154.1" x2="191.6" y2="126.1"/>
<text x="75.886584" y="177.289413" fill="rgb(12,12,255)"  stroke="rgb(12,12,255)" stroke-width="1" font-size="16" >HN</text>
<text x="99.891128" y="48.320000" fill="rgb(255,12,12)"  stroke="rgb(255,12,12)" stroke-width="1" font-size="16" >O</text>
<text x="24.400000" y="69.729325" fill="rgb(255,12,12)"  stroke="rgb(255,12,12)" stroke-width="1" font-size="16" >HO</text>
<text font-size="18.000000" fill ="black" font-family="sans-serif"
x="140.000000" y="20.000000" ></text>
<title> - OBDepict</title>
</svg>
