<?xml version="1.0"?>
<svg xmlns="http://www.w3.org/2000/svg"
xmlns:xlink="http://www.w3.org/1999/xlink" xmlns:cml="http://www.xml-cml.org/schema" width="522.605" height="280" x="0" y="0" font-family="sans-serif" stroke="rgb(0,0,0)" stroke-width="1" >
<line x1="112.3" y1="150.4" x2="112.3" y2="180.0"/>
<line x1="106.3" y1="150.4" x2="106.3" y2="180.0"/>
<line x1="473.6" y1="105.2" x2="457.0" y2="114.8"/>
<line x1="473.6" y1="54.8" x2="457.0" y2="45.2"/>
<line x1="74.6" y1="200.0" x2="109.3" y2="180.0"/>
<line x1="74.6" y1="200.0" x2="49.0" y2="185.2"/>
<line x1="109.3" y1="180.0" x2="143.9" y2="200.0"/>
<line x1="122.0" y1="213.1" x2="121.6" y2="212.5"/>
<line x1="125.6" y1="211.5" x2="124.8" y2="210.1"/>
<line x1="129.3" y1="209.8" x2="128.1" y2="207.8"/>
<line x1="132.9" y1="208.2" x2="131.3" y2="205.4"/>
<line x1="136.6" y1="206.5" x2="134.6" y2="203.1"/>
<line x1="140.3" y1="204.9" x2="137.9" y2="200.7"/>
<line x1="143.9" y1="203.2" x2="141.1" y2="198.4"/>
<line x1="413.3" y1="100.0" x2="439.0" y2="114.8"/>
<line x1="413.3" y1="60.0" x2="439.0" y2="45.2"/>
<polygon points="251.549271 86.600000 272.758752 103.464102 276.758752 96.535898 " />
<polygon points="332.609248 133.400000 311.399768 116.535898 307.399768 123.464102 " />
<line x1="335.0" y1="159.6" x2="335.0" y2="160.4"/>
<line x1="331.0" y1="159.2" x2="331.0" y2="160.8"/>
<line x1="327.0" y1="158.8" x2="327.0" y2="161.2"/>
<line x1="323.0" y1="158.4" x2="323.0" y2="161.6"/>
<line x1="319.0" y1="158.0" x2="319.0" y2="162.0"/>
<line x1="315.0" y1="157.6" x2="315.0" y2="162.4"/>
<line x1="311.0" y1="157.2" x2="311.0" y2="162.8"/>
<line x1="309.4" y1="160.0" x2="324.2" y2="185.6"/>
<line x1="143.9" y1="200.0" x2="161.3" y2="223.9"/>
<line x1="177.3" y1="229.1" x2="205.5" y2="220.0"/>
<line x1="205.5" y1="220.0" x2="205.5" y2="180.0"/>
<line x1="198.3" y1="214.0" x2="198.3" y2="186.0"/>
<line x1="205.5" y1="180.0" x2="167.4" y2="167.6"/>
<line x1="167.4" y1="167.6" x2="143.9" y2="200.0"/>
<line x1="240.1" y1="240.0" x2="274.8" y2="220.0"/>
<line x1="241.7" y1="230.8" x2="266.0" y2="216.8"/>
<line x1="274.8" y1="220.0" x2="274.8" y2="180.0"/>
<line x1="274.8" y1="180.0" x2="240.1" y2="160.0"/>
<line x1="266.0" y1="183.2" x2="241.7" y2="169.2"/>
<line x1="240.1" y1="160.0" x2="205.5" y2="180.0"/>
<line x1="205.5" y1="220.0" x2="240.1" y2="240.0"/>
<line x1="274.8" y1="100.0" x2="249.1" y2="114.8"/>
<line x1="240.1" y1="130.4" x2="240.1" y2="160.0"/>
<line x1="274.8" y1="180.0" x2="309.4" y2="160.0"/>
<line x1="309.4" y1="160.0" x2="309.4" y2="120.0"/>
<line x1="309.4" y1="120.0" x2="274.8" y2="100.0"/>
<line x1="378.7" y1="120.0" x2="344.0" y2="100.0"/>
<line x1="377.1" y1="110.8" x2="352.8" y2="96.8"/>
<line x1="344.0" y1="100.0" x2="344.0" y2="60.0"/>
<line x1="344.0" y1="60.0" x2="378.7" y2="40.0"/>
<line x1="352.8" y1="63.2" x2="377.1" y2="49.2"/>
<line x1="378.7" y1="40.0" x2="413.3" y2="60.0"/>
<line x1="413.3" y1="60.0" x2="413.3" y2="100.0"/>
<line x1="406.1" y1="66.0" x2="406.1" y2="94.0"/>
<line x1="413.3" y1="100.0" x2="378.7" y2="120.0"/>
<line x1="274.8" y1="60.0" x2="300.4" y2="45.2"/>
<line x1="318.4" y1="45.2" x2="344.0" y2="60.0"/>
<line x1="344.0" y1="100.0" x2="309.4" y2="120.0"/>
<line x1="274.8" y1="100.0" x2="274.8" y2="60.0"/>
<text x="103.282032" y="148.320000" fill="rgb(102,102,102)"  stroke="rgb(102,102,102)" stroke-width="1" font-size="16" >CH</text>
<text x="127.282032" y="156.000000" fill="rgb(102,102,102)"  stroke="rgb(102,102,102)" stroke-width="1" font-size="13" >2</text>
<text x="476.604848" y="108.320000" fill="rgb(102,102,102)"  stroke="rgb(102,102,102)" stroke-width="1" font-size="16" >CH</text>
<text x="500.604848" y="116.000000" fill="rgb(102,102,102)"  stroke="rgb(102,102,102)" stroke-width="1" font-size="13" >3</text>
<text x="476.604848" y="64.800000" fill="rgb(102,102,102)"  stroke="rgb(102,102,102)" stroke-width="1" font-size="16" >CH</text>
<text x="500.604848" y="69.600000" fill="rgb(102,102,102)"  stroke="rgb(102,102,102)" stroke-width="1" font-size="13" >3</text>
<text x="24.400000" y="188.320000" fill="rgb(255,12,12)"  stroke="rgb(255,12,12)" stroke-width="1" font-size="16" >HO</text>
<text x="323.399768" y="199.441016" fill="rgb(255,12,12)"  stroke="rgb(255,12,12)" stroke-width="1" font-size="16" >OH</text>
<text x="441.963832" y="124.800000" fill="rgb(255,12,12)"  stroke="rgb(255,12,12)" stroke-width="1" font-size="16" >O</text>
<text x="441.963832" y="48.320000" fill="rgb(255,12,12)"  stroke="rgb(255,12,12)" stroke-width="1" font-size="16" >O</text>
<text x="303.399768" y="48.320000" fill="rgb(255,12,12)"  stroke="rgb(255,12,12)" stroke-width="1" font-size="16" >O</text>
<text x="163.834459" y="237.160680" fill="rgb(255,12,12)"  stroke="rgb(255,12,12)" stroke-width="1" font-size="16" >O</text>
<text x="236.517735" y="128.320000" fill="rgb(255,12,12)"  stroke="rgb(255,12,12)" stroke-width="1" font-size="16" >O</text>
<text x="105.682032" y="224.800000" fill="rgb(191,191,191)"  stroke="rgb(191,191,191)" stroke-width="1" font-size="16" >H</text>
<text x="236.517735" y="88.320000" fill="rgb(191,191,191)"  stroke="rgb(191,191,191)" stroke-width="1" font-size="16" >H</text>
<text x="338.040784" y="144.800000" fill="rgb(191,191,191)"  stroke="rgb(191,191,191)" stroke-width="1" font-size="16" >H</text>
<text x="343.399768" y="164.800000" fill="rgb(191,191,191)"  stroke="rgb(191,191,191)" stroke-width="1" font-size="16" >H</text>
<text font-size="18.000000" fill ="black" font-family="sans-serif"
x="140.000000" y="20.000000" ></text>
<title> - OBDepict</title>
</svg>
