<?xml version="1.0"?>
<svg xmlns="http://www.w3.org/2000/svg"
xmlns:xlink="http://www.w3.org/1999/xlink" xmlns:cml="http://www.xml-cml.org/schema" width="397.776" height="239.191" x="0" y="0" font-family="sans-serif" stroke="rgb(0,0,0)" stroke-width="1" >
<line x1="42.8" y1="169.7" x2="50.9" y2="156.6"/>
<line x1="50.9" y1="156.6" x2="43.5" y2="143.0"/>
<line x1="50.9" y1="153.6" x2="71.8" y2="154.0"/>
<line x1="50.8" y1="159.5" x2="71.7" y2="160.0"/>
<line x1="112.0" y1="62.7" x2="121.9" y2="80.7"/>
<line x1="112.0" y1="65.7" x2="96.7" y2="65.3"/>
<line x1="112.1" y1="59.7" x2="96.9" y2="59.4"/>
<line x1="138.0" y1="106.6" x2="138.6" y2="107.1"/>
<line x1="135.1" y1="110.0" x2="136.4" y2="110.9"/>
<line x1="132.2" y1="113.3" x2="134.1" y2="114.7"/>
<line x1="129.3" y1="116.6" x2="131.8" y2="118.5"/>
<line x1="126.3" y1="120.0" x2="129.6" y2="122.3"/>
<line x1="123.4" y1="123.3" x2="127.3" y2="126.1"/>
<line x1="120.5" y1="126.6" x2="125.0" y2="129.9"/>
<line x1="110.7" y1="54.8" x2="111.4" y2="54.5"/>
<line x1="112.0" y1="59.1" x2="113.5" y2="58.4"/>
<line x1="113.3" y1="63.3" x2="115.6" y2="62.4"/>
<line x1="114.7" y1="67.5" x2="117.6" y2="66.3"/>
<line x1="116.0" y1="71.7" x2="119.7" y2="70.2"/>
<line x1="117.3" y1="76.0" x2="121.7" y2="74.1"/>
<line x1="118.6" y1="80.2" x2="123.8" y2="78.0"/>
<polygon points="131.568023 53.531729 138.718584 82.476858 146.157492 79.533621 " />
<polygon points="205.680498 188.037119 189.770799 162.821400 183.638822 167.959382 " />
<line x1="225.4" y1="166.5" x2="229.9" y2="123.8"/>
<line x1="233.2" y1="161.3" x2="236.4" y2="130.5"/>
<line x1="229.9" y1="123.8" x2="271.9" y2="114.9"/>
<line x1="271.9" y1="114.9" x2="293.3" y2="152.1"/>
<line x1="293.3" y1="152.1" x2="272.1" y2="175.7"/>
<line x1="254.4" y1="179.5" x2="225.4" y2="166.5"/>
<line x1="293.3" y1="77.7" x2="336.3" y2="77.7"/>
<line x1="336.3" y1="77.7" x2="357.8" y2="114.9"/>
<line x1="333.1" y1="86.5" x2="348.5" y2="113.3"/>
<line x1="357.8" y1="114.9" x2="336.3" y2="152.1"/>
<line x1="336.3" y1="152.1" x2="293.3" y2="152.1"/>
<line x1="330.3" y1="144.9" x2="299.3" y2="144.9"/>
<line x1="271.9" y1="114.9" x2="293.3" y2="77.7"/>
<line x1="281.1" y1="113.3" x2="296.6" y2="86.5"/>
<line x1="143.1" y1="117.4" x2="142.4" y2="81.0"/>
<line x1="142.4" y1="81.0" x2="181.5" y2="81.2"/>
<line x1="181.5" y1="81.2" x2="229.9" y2="123.8"/>
<line x1="225.4" y1="166.5" x2="186.7" y2="165.4"/>
<line x1="186.7" y1="165.4" x2="154.6" y2="139.3"/>
<line x1="92.6" y1="157.9" x2="71.7" y2="157.0"/>
<line x1="71.7" y1="157.0" x2="121.7" y2="129.7"/>
<line x1="121.7" y1="129.7" x2="162.1" y2="164.5"/>
<line x1="162.1" y1="164.5" x2="186.7" y2="165.4"/>
<line x1="130.1" y1="137.3" x2="92.6" y2="157.9"/>
<line x1="121.9" y1="80.7" x2="121.7" y2="129.7"/>
<line x1="142.4" y1="81.0" x2="121.9" y2="80.7"/>
<text x="16.400000" y="179.180587" fill="rgb(102,102,102)"  stroke="rgb(102,102,102)" stroke-width="1" font-size="16" >H</text>
<text x="28.400000" y="183.980587" fill="rgb(102,102,102)"  stroke="rgb(102,102,102)" stroke-width="1" font-size="13" >3</text>
<text x="34.900000" y="179.180587" fill="rgb(102,102,102)"  stroke="rgb(102,102,102)" stroke-width="1" font-size="16" >C</text>
<text x="258.603027" y="188.817438" fill="rgb(12,12,255)"  stroke="rgb(12,12,255)" stroke-width="1" font-size="16" >NH</text>
<text x="137.318975" y="138.452091" fill="rgb(12,12,255)"  stroke="rgb(12,12,255)" stroke-width="1" font-size="16" >N</text>
<text x="87.870087" y="70.543965" fill="rgb(255,12,12)"  stroke="rgb(255,12,12)" stroke-width="1" font-size="16" >O</text>
<text x="37.247295" y="146.551199" fill="rgb(191,191,191)"  stroke="rgb(191,191,191)" stroke-width="1" font-size="16" >H</text>
<text x="141.643998" y="102.341863" fill="rgb(191,191,191)"  stroke="rgb(191,191,191)" stroke-width="1" font-size="16" >H</text>
<text x="101.388416" y="48.331410" fill="rgb(191,191,191)"  stroke="rgb(191,191,191)" stroke-width="1" font-size="16" >H</text>
<text x="122.614135" y="48.320000" fill="rgb(191,191,191)"  stroke="rgb(191,191,191)" stroke-width="1" font-size="16" >H</text>
<text x="209.026732" y="203.991478" fill="rgb(191,191,191)"  stroke="rgb(191,191,191)" stroke-width="1" font-size="16" >H</text>
<text font-size="18.000000" fill ="black" font-family="sans-serif"
x="140.000000" y="20.000000" ></text>
<title> - OBDepict</title>
</svg>
