<?xml version="1.0"?>
<svg xmlns="http://www.w3.org/2000/svg"
xmlns:xlink="http://www.w3.org/1999/xlink" xmlns:cml="http://www.xml-cml.org/schema" width="258.564" height="260" x="0" y="0" font-family="sans-serif" stroke="rgb(0,0,0)" stroke-width="1" >
<line x1="50.4" y1="140.0" x2="80.0" y2="140.0"/>
<line x1="80.0" y1="169.6" x2="80.0" y2="140.0"/>
<line x1="183.9" y1="160.0" x2="149.3" y2="140.0"/>
<line x1="183.9" y1="160.0" x2="183.9" y2="200.0"/>
<line x1="149.3" y1="140.0" x2="149.3" y2="110.4"/>
<line x1="120.0" y1="140.0" x2="80.0" y2="140.0"/>
<line x1="120.0" y1="140.0" x2="134.8" y2="165.6"/>
<line x1="185.4" y1="202.6" x2="159.8" y2="217.4"/>
<line x1="182.4" y1="197.4" x2="156.8" y2="212.2"/>
<line x1="183.9" y1="200.0" x2="209.6" y2="214.8"/>
<line x1="66.9" y1="78.0" x2="67.5" y2="77.6"/>
<line x1="68.5" y1="81.7" x2="69.9" y2="80.9"/>
<line x1="70.2" y1="85.4" x2="72.2" y2="84.2"/>
<line x1="71.8" y1="89.0" x2="74.6" y2="87.4"/>
<line x1="73.5" y1="92.7" x2="76.9" y2="90.7"/>
<line x1="75.1" y1="96.4" x2="79.3" y2="94.0"/>
<line x1="76.8" y1="100.0" x2="81.6" y2="97.2"/>
<line x1="80.0" y1="100.0" x2="114.6" y2="80.0"/>
<line x1="80.0" y1="100.0" x2="80.0" y2="140.0"/>
<line x1="80.0" y1="100.0" x2="50.4" y2="100.0"/>
<line x1="116.1" y1="77.4" x2="141.8" y2="92.2"/>
<line x1="113.1" y1="82.6" x2="138.8" y2="97.4"/>
<line x1="114.6" y1="80.0" x2="114.6" y2="50.4"/>
<text x="16.400000" y="144.800000" fill="rgb(102,102,102)"  stroke="rgb(102,102,102)" stroke-width="1" font-size="16" >H</text>
<text x="28.400000" y="149.600000" fill="rgb(102,102,102)"  stroke="rgb(102,102,102)" stroke-width="1" font-size="13" >3</text>
<text x="34.900000" y="144.800000" fill="rgb(102,102,102)"  stroke="rgb(102,102,102)" stroke-width="1" font-size="16" >C</text>
<text x="74.000000" y="184.800000" fill="rgb(102,102,102)"  stroke="rgb(102,102,102)" stroke-width="1" font-size="16" >CH</text>
<text x="98.000000" y="189.600000" fill="rgb(102,102,102)"  stroke="rgb(102,102,102)" stroke-width="1" font-size="13" >3</text>
<text x="143.282032" y="108.320000" fill="rgb(12,12,255)"  stroke="rgb(12,12,255)" stroke-width="1" font-size="16" >N</text>
<text x="134.000000" y="179.441016" fill="rgb(255,12,12)"  stroke="rgb(255,12,12)" stroke-width="1" font-size="16" >OH</text>
<text x="145.682032" y="224.800000" fill="rgb(255,12,12)"  stroke="rgb(255,12,12)" stroke-width="1" font-size="16" >O</text>
<text x="212.564065" y="224.800000" fill="rgb(255,12,12)"  stroke="rgb(255,12,12)" stroke-width="1" font-size="16" >OH</text>
<text x="24.400000" y="104.800000" fill="rgb(255,12,12)"  stroke="rgb(255,12,12)" stroke-width="1" font-size="16" >HO</text>
<text x="108.641016" y="48.320000" fill="rgb(255,12,12)"  stroke="rgb(255,12,12)" stroke-width="1" font-size="16" >OH</text>
<text x="56.400000" y="73.678984" fill="rgb(191,191,191)"  stroke="rgb(191,191,191)" stroke-width="1" font-size="16" >H</text>
<text font-size="18.000000" fill ="black" font-family="sans-serif"
x="140.000000" y="20.000000" ></text>
<title> - OBDepict</title>
</svg>
