<?xml version="1.0"?>
<svg xmlns="http://www.w3.org/2000/svg"
xmlns:xlink="http://www.w3.org/1999/xlink" xmlns:cml="http://www.xml-cml.org/schema" width="564.974" height="320" x="0" y="0" font-family="sans-serif" stroke="rgb(0,0,0)" stroke-width="1" >
<line x1="146.9" y1="230.4" x2="146.9" y2="260.0"/>
<line x1="140.9" y1="230.4" x2="140.9" y2="260.0"/>
<line x1="143.9" y1="260.0" x2="109.3" y2="280.0"/>
<line x1="109.3" y1="280.0" x2="74.6" y2="260.0"/>
<line x1="74.6" y1="260.0" x2="49.0" y2="274.8"/>
<line x1="71.6" y1="260.0" x2="71.6" y2="220.0"/>
<line x1="77.6" y1="260.0" x2="77.6" y2="220.0"/>
<line x1="74.6" y1="220.0" x2="49.0" y2="205.2"/>
<line x1="74.6" y1="220.0" x2="109.3" y2="200.0"/>
<line x1="109.3" y1="200.0" x2="109.3" y2="160.0"/>
<line x1="109.3" y1="160.0" x2="83.6" y2="145.2"/>
<line x1="107.8" y1="157.4" x2="142.4" y2="137.4"/>
<line x1="110.8" y1="162.6" x2="145.4" y2="142.6"/>
<line x1="143.9" y1="140.0" x2="143.9" y2="110.4"/>
<line x1="143.9" y1="140.0" x2="178.6" y2="160.0"/>
<line x1="178.6" y1="160.0" x2="213.2" y2="140.0"/>
<line x1="213.2" y1="140.0" x2="247.8" y2="160.0"/>
<line x1="247.8" y1="160.0" x2="282.5" y2="140.0"/>
<line x1="282.5" y1="140.0" x2="317.1" y2="160.0"/>
<line x1="317.1" y1="160.0" x2="351.8" y2="140.0"/>
<line x1="351.8" y1="140.0" x2="386.4" y2="160.0"/>
<line x1="386.4" y1="160.0" x2="421.1" y2="140.0"/>
<line x1="490.3" y1="140.0" x2="516.0" y2="154.8"/>
<line x1="455.7" y1="80.0" x2="455.7" y2="50.4"/>
<line x1="455.7" y1="160.0" x2="490.3" y2="140.0"/>
<line x1="490.3" y1="140.0" x2="490.3" y2="100.0"/>
<line x1="483.1" y1="134.0" x2="483.1" y2="106.0"/>
<line x1="490.3" y1="100.0" x2="455.7" y2="80.0"/>
<line x1="455.7" y1="80.0" x2="421.1" y2="100.0"/>
<line x1="454.1" y1="89.2" x2="429.8" y2="103.2"/>
<line x1="421.1" y1="100.0" x2="421.1" y2="140.0"/>
<line x1="421.1" y1="140.0" x2="455.7" y2="160.0"/>
<line x1="429.8" y1="136.8" x2="454.1" y2="150.8"/>
<text x="137.923048" y="228.320000" fill="rgb(102,102,102)"  stroke="rgb(102,102,102)" stroke-width="1" font-size="16" >CH</text>
<text x="161.923048" y="236.000000" fill="rgb(102,102,102)"  stroke="rgb(102,102,102)" stroke-width="1" font-size="13" >2</text>
<text x="518.974226" y="164.800000" fill="rgb(255,12,12)"  stroke="rgb(255,12,12)" stroke-width="1" font-size="16" >OH</text>
<text x="449.692194" y="48.320000" fill="rgb(255,12,12)"  stroke="rgb(255,12,12)" stroke-width="1" font-size="16" >OH</text>
<text x="36.400000" y="284.800000" fill="rgb(191,191,191)"  stroke="rgb(191,191,191)" stroke-width="1" font-size="16" >H</text>
<text x="36.400000" y="208.320000" fill="rgb(191,191,191)"  stroke="rgb(191,191,191)" stroke-width="1" font-size="16" >H</text>
<text x="71.041016" y="148.320000" fill="rgb(191,191,191)"  stroke="rgb(191,191,191)" stroke-width="1" font-size="16" >H</text>
<text x="137.923048" y="108.320000" fill="rgb(191,191,191)"  stroke="rgb(191,191,191)" stroke-width="1" font-size="16" >H</text>
<text font-size="18.000000" fill ="black" font-family="sans-serif"
x="140.000000" y="20.000000" ></text>
<title> - OBDepict</title>
</svg>
