<?xml version="1.0"?>
<svg xmlns="http://www.w3.org/2000/svg"
xmlns:xlink="http://www.w3.org/1999/xlink" xmlns:cml="http://www.xml-cml.org/schema" width="471.487" height="279.593" x="0" y="0" font-family="sans-serif" stroke="rgb(0,0,0)" stroke-width="1" >
<line x1="393.9" y1="233.4" x2="375.3" y2="210.4"/>
<line x1="398.6" y1="229.6" x2="380.0" y2="206.6"/>
<line x1="74.6" y1="209.6" x2="74.6" y2="180.0"/>
<line x1="49.0" y1="165.2" x2="74.6" y2="180.0"/>
<line x1="246.1" y1="142.2" x2="262.2" y2="117.3"/>
<line x1="83.6" y1="65.2" x2="109.3" y2="80.0"/>
<line x1="109.3" y1="50.4" x2="109.3" y2="80.0"/>
<line x1="377.6" y1="208.5" x2="392.0" y2="171.2"/>
<line x1="392.0" y1="171.2" x2="421.2" y2="166.5"/>
<line x1="389.6" y1="173.1" x2="364.5" y2="142.0"/>
<line x1="394.3" y1="169.3" x2="369.1" y2="138.2"/>
<line x1="366.8" y1="140.1" x2="377.4" y2="112.4"/>
<line x1="366.8" y1="140.1" x2="327.3" y2="146.3"/>
<line x1="327.3" y1="146.3" x2="302.1" y2="115.2"/>
<line x1="110.8" y1="162.6" x2="76.1" y2="182.6"/>
<line x1="107.8" y1="157.4" x2="73.1" y2="177.4"/>
<line x1="109.3" y1="160.0" x2="109.3" y2="120.0"/>
<line x1="87.3" y1="133.1" x2="86.9" y2="132.5"/>
<line x1="91.0" y1="131.5" x2="90.2" y2="130.1"/>
<line x1="94.6" y1="129.8" x2="93.4" y2="127.8"/>
<line x1="98.3" y1="128.2" x2="96.7" y2="125.4"/>
<line x1="102.0" y1="126.5" x2="100.0" y2="123.1"/>
<line x1="105.6" y1="124.9" x2="103.2" y2="120.7"/>
<line x1="109.3" y1="123.2" x2="106.5" y2="118.4"/>
<line x1="311.4" y1="73.8" x2="339.0" y2="63.2"/>
<line x1="313.6" y1="79.4" x2="341.2" y2="68.8"/>
<line x1="239.3" y1="55.9" x2="240.1" y2="55.6"/>
<line x1="240.2" y1="59.8" x2="241.7" y2="59.3"/>
<line x1="241.1" y1="63.7" x2="243.4" y2="62.9"/>
<line x1="242.0" y1="67.6" x2="245.0" y2="66.6"/>
<line x1="242.9" y1="71.5" x2="246.7" y2="70.3"/>
<line x1="243.8" y1="75.5" x2="248.3" y2="73.9"/>
<line x1="244.7" y1="79.4" x2="250.0" y2="77.6"/>
<line x1="247.8" y1="80.0" x2="222.2" y2="94.8"/>
<polygon points="167.132529 113.400000 145.923048 96.535898 141.923048 103.464102 " />
<line x1="143.9" y1="100.0" x2="178.6" y2="80.0"/>
<line x1="175.6" y1="80.0" x2="175.6" y2="50.4"/>
<line x1="181.6" y1="80.0" x2="181.6" y2="50.4"/>
<line x1="178.6" y1="80.0" x2="204.2" y2="94.8"/>
<line x1="143.9" y1="100.0" x2="109.3" y2="120.0"/>
<line x1="109.3" y1="120.0" x2="109.3" y2="80.0"/>
<line x1="109.3" y1="80.0" x2="143.9" y2="100.0"/>
<line x1="262.2" y1="117.3" x2="302.1" y2="115.2"/>
<line x1="267.8" y1="109.8" x2="295.8" y2="108.4"/>
<line x1="302.1" y1="115.2" x2="312.5" y2="76.6"/>
<line x1="312.5" y1="76.6" x2="278.9" y2="54.8"/>
<line x1="278.9" y1="54.8" x2="247.8" y2="80.0"/>
<line x1="247.8" y1="80.0" x2="262.2" y2="117.3"/>
<text x="396.817259" y="244.393133" fill="rgb(102,102,102)"  stroke="rgb(102,102,102)" stroke-width="1" font-size="16" >CH</text>
<text x="420.817259" y="249.193133" fill="rgb(102,102,102)"  stroke="rgb(102,102,102)" stroke-width="1" font-size="13" >2</text>
<text x="68.641016" y="224.800000" fill="rgb(102,102,102)"  stroke="rgb(102,102,102)" stroke-width="1" font-size="16" >CH</text>
<text x="92.641016" y="229.600000" fill="rgb(102,102,102)"  stroke="rgb(102,102,102)" stroke-width="1" font-size="13" >3</text>
<text x="16.400000" y="168.320000" fill="rgb(102,102,102)"  stroke="rgb(102,102,102)" stroke-width="1" font-size="16" >H</text>
<text x="28.400000" y="176.000000" fill="rgb(102,102,102)"  stroke="rgb(102,102,102)" stroke-width="1" font-size="13" >3</text>
<text x="34.900000" y="168.320000" fill="rgb(102,102,102)"  stroke="rgb(102,102,102)" stroke-width="1" font-size="16" >C</text>
<text x="216.795253" y="155.690040" fill="rgb(102,102,102)"  stroke="rgb(102,102,102)" stroke-width="1" font-size="16" >H</text>
<text x="228.795253" y="160.490040" fill="rgb(102,102,102)"  stroke="rgb(102,102,102)" stroke-width="1" font-size="13" >3</text>
<text x="235.295253" y="155.690040" fill="rgb(102,102,102)"  stroke="rgb(102,102,102)" stroke-width="1" font-size="16" >C</text>
<text x="51.041016" y="68.320000" fill="rgb(102,102,102)"  stroke="rgb(102,102,102)" stroke-width="1" font-size="16" >H</text>
<text x="63.041016" y="76.000000" fill="rgb(102,102,102)"  stroke="rgb(102,102,102)" stroke-width="1" font-size="13" >3</text>
<text x="69.541016" y="68.320000" fill="rgb(102,102,102)"  stroke="rgb(102,102,102)" stroke-width="1" font-size="16" >C</text>
<text x="103.282032" y="48.320000" fill="rgb(102,102,102)"  stroke="rgb(102,102,102)" stroke-width="1" font-size="16" >CH</text>
<text x="127.282032" y="56.000000" fill="rgb(102,102,102)"  stroke="rgb(102,102,102)" stroke-width="1" font-size="13" >3</text>
<text x="343.821975" y="70.598028" fill="rgb(255,12,12)"  stroke="rgb(255,12,12)" stroke-width="1" font-size="16" >O</text>
<text x="172.564065" y="48.320000" fill="rgb(255,12,12)"  stroke="rgb(255,12,12)" stroke-width="1" font-size="16" >O</text>
<text x="207.205081" y="104.800000" fill="rgb(255,12,12)"  stroke="rgb(255,12,12)" stroke-width="1" font-size="16" >O</text>
<text x="425.486695" y="173.226699" fill="rgb(191,191,191)"  stroke="rgb(191,191,191)" stroke-width="1" font-size="16" >H</text>
<text x="375.141064" y="111.055022" fill="rgb(191,191,191)"  stroke="rgb(191,191,191)" stroke-width="1" font-size="16" >H</text>
<text x="71.041016" y="144.800000" fill="rgb(191,191,191)"  stroke="rgb(191,191,191)" stroke-width="1" font-size="16" >H</text>
<text x="231.537505" y="50.392547" fill="rgb(191,191,191)"  stroke="rgb(191,191,191)" stroke-width="1" font-size="16" >H</text>
<text x="172.564065" y="124.800000" fill="rgb(191,191,191)"  stroke="rgb(191,191,191)" stroke-width="1" font-size="16" >H</text>
<text font-size="18.000000" fill ="black" font-family="sans-serif"
x="140.000000" y="20.000000" ></text>
<title> - OBDepict</title>
</svg>
