<?xml version="1.0"?>
<svg xmlns="http://www.w3.org/2000/svg"
xmlns:xlink="http://www.w3.org/1999/xlink" xmlns:cml="http://www.xml-cml.org/schema" width="287.846" height="303.307" x="0" y="0" font-family="sans-serif" stroke="rgb(0,0,0)" stroke-width="1" >
<line x1="109.3" y1="80.0" x2="109.3" y2="50.4"/>
<line x1="109.3" y1="80.0" x2="143.9" y2="100.0"/>
<line x1="110.8" y1="82.6" x2="76.1" y2="102.6"/>
<line x1="107.8" y1="77.4" x2="73.1" y2="97.4"/>
<line x1="143.9" y1="100.0" x2="143.9" y2="129.6"/>
<line x1="142.4" y1="97.4" x2="177.1" y2="77.4"/>
<line x1="145.4" y1="102.6" x2="180.1" y2="82.6"/>
<line x1="74.6" y1="100.0" x2="49.0" y2="85.2"/>
<line x1="74.6" y1="100.0" x2="74.6" y2="140.0"/>
<line x1="178.6" y1="80.0" x2="178.6" y2="50.4"/>
<line x1="178.6" y1="80.0" x2="213.2" y2="100.0"/>
<line x1="213.2" y1="100.0" x2="213.2" y2="129.6"/>
<line x1="211.7" y1="97.4" x2="237.3" y2="82.6"/>
<line x1="214.7" y1="102.6" x2="240.3" y2="87.8"/>
<line x1="74.6" y1="220.0" x2="109.3" y2="200.0"/>
<line x1="83.4" y1="223.2" x2="107.7" y2="209.2"/>
<line x1="109.3" y1="200.0" x2="131.3" y2="219.8"/>
<line x1="134.8" y1="236.3" x2="122.7" y2="263.3"/>
<line x1="122.7" y1="263.3" x2="93.3" y2="260.2"/>
<line x1="80.8" y1="249.0" x2="74.6" y2="220.0"/>
<line x1="213.2" y1="220.0" x2="247.8" y2="200.0"/>
<line x1="247.8" y1="200.0" x2="247.8" y2="160.0"/>
<line x1="247.8" y1="160.0" x2="222.2" y2="145.2"/>
<line x1="204.2" y1="145.2" x2="178.6" y2="160.0"/>
<line x1="178.6" y1="160.0" x2="178.6" y2="200.0"/>
<line x1="178.6" y1="200.0" x2="213.2" y2="220.0"/>
<line x1="74.6" y1="140.0" x2="109.3" y2="160.0"/>
<line x1="76.2" y1="149.2" x2="100.5" y2="163.2"/>
<line x1="109.3" y1="160.0" x2="109.3" y2="200.0"/>
<line x1="74.6" y1="220.0" x2="40.0" y2="200.0"/>
<line x1="40.0" y1="200.0" x2="40.0" y2="160.0"/>
<line x1="47.2" y1="194.0" x2="47.2" y2="166.0"/>
<line x1="40.0" y1="160.0" x2="74.6" y2="140.0"/>
<text x="207.205081" y="148.320000" fill="rgb(12,12,255)"  stroke="rgb(12,12,255)" stroke-width="1" font-size="16" >N</text>
<text x="241.846097" y="88.320000" fill="rgb(255,12,12)"  stroke="rgb(255,12,12)" stroke-width="1" font-size="16" >O</text>
<text x="79.357484" y="263.925904" fill="rgb(255,12,12)"  stroke="rgb(255,12,12)" stroke-width="1" font-size="16" >O</text>
<text x="133.007825" y="235.085224" fill="rgb(255,12,12)"  stroke="rgb(255,12,12)" stroke-width="1" font-size="16" >O</text>
<text x="103.282032" y="48.320000" fill="rgb(191,191,191)"  stroke="rgb(191,191,191)" stroke-width="1" font-size="16" >H</text>
<text x="137.923048" y="144.800000" fill="rgb(191,191,191)"  stroke="rgb(191,191,191)" stroke-width="1" font-size="16" >H</text>
<text x="36.400000" y="88.320000" fill="rgb(191,191,191)"  stroke="rgb(191,191,191)" stroke-width="1" font-size="16" >H</text>
<text x="172.564065" y="48.320000" fill="rgb(191,191,191)"  stroke="rgb(191,191,191)" stroke-width="1" font-size="16" >H</text>
<text font-size="18.000000" fill ="black" font-family="sans-serif"
x="140.000000" y="20.000000" ></text>
<title> - OBDepict</title>
</svg>
