<?xml version="1.0"?>
<svg xmlns="http://www.w3.org/2000/svg"
xmlns:xlink="http://www.w3.org/1999/xlink" xmlns:cml="http://www.xml-cml.org/schema" width="1155.49" height="562.723" x="0" y="0" font-family="sans-serif" stroke="rgb(0,0,0)" stroke-width="1" >
<line x1="43.1" y1="349.9" x2="52.0" y2="377.3"/>
<line x1="839.4" y1="115.7" x2="860.9" y2="135.0"/>
<line x1="833.4" y1="143.9" x2="860.9" y2="135.0"/>
<line x1="52.0" y1="377.3" x2="90.2" y2="385.4"/>
<line x1="90.2" y1="385.4" x2="116.3" y2="356.5"/>
<line x1="116.3" y1="356.5" x2="154.4" y2="364.6"/>
<line x1="154.4" y1="364.6" x2="180.5" y2="335.6"/>
<line x1="180.5" y1="335.6" x2="218.6" y2="343.7"/>
<line x1="218.6" y1="343.7" x2="244.7" y2="314.7"/>
<line x1="244.7" y1="314.7" x2="282.9" y2="322.8"/>
<line x1="282.9" y1="322.8" x2="308.9" y2="293.9"/>
<line x1="308.9" y1="293.9" x2="347.1" y2="302.0"/>
<line x1="347.1" y1="302.0" x2="373.2" y2="273.0"/>
<line x1="373.2" y1="273.0" x2="411.3" y2="281.1"/>
<line x1="411.3" y1="281.1" x2="437.4" y2="252.1"/>
<line x1="437.4" y1="252.1" x2="475.5" y2="260.2"/>
<line x1="475.5" y1="260.2" x2="501.6" y2="231.3"/>
<line x1="501.6" y1="231.3" x2="539.7" y2="239.4"/>
<line x1="539.7" y1="239.4" x2="565.8" y2="210.4"/>
<line x1="772.5" y1="81.7" x2="810.7" y2="89.8"/>
<line x1="772.5" y1="81.7" x2="746.5" y2="110.7"/>
<line x1="810.7" y1="89.8" x2="830.0" y2="68.4"/>
<line x1="732.4" y1="176.8" x2="694.3" y2="168.7"/>
<line x1="732.4" y1="176.8" x2="751.7" y2="155.3"/>
<line x1="694.3" y1="168.7" x2="675.0" y2="190.1"/>
<line x1="604.0" y1="218.5" x2="565.8" y2="210.4"/>
<line x1="604.0" y1="218.5" x2="630.1" y2="189.5"/>
<line x1="854.7" y1="351.5" x2="892.8" y2="359.6"/>
<line x1="854.7" y1="351.5" x2="845.8" y2="324.1"/>
<line x1="885.0" y1="209.2" x2="860.9" y2="135.0"/>
<line x1="885.0" y1="209.2" x2="865.6" y2="230.6"/>
<line x1="563.0" y1="211.3" x2="554.1" y2="183.9"/>
<line x1="568.7" y1="209.5" x2="559.8" y2="182.0"/>
<line x1="884.7" y1="336.0" x2="885.5" y2="335.8"/>
<line x1="885.6" y1="339.8" x2="887.1" y2="339.3"/>
<line x1="886.4" y1="343.7" x2="888.7" y2="342.9"/>
<line x1="887.2" y1="347.5" x2="890.3" y2="346.5"/>
<line x1="888.0" y1="351.3" x2="891.8" y2="350.1"/>
<line x1="888.9" y1="355.2" x2="893.4" y2="353.7"/>
<line x1="889.7" y1="359.0" x2="895.0" y2="357.3"/>
<line x1="749.3" y1="109.8" x2="758.2" y2="137.2"/>
<line x1="743.6" y1="111.6" x2="752.5" y2="139.1"/>
<line x1="746.5" y1="110.7" x2="718.2" y2="104.7"/>
<line x1="627.2" y1="190.4" x2="618.3" y2="163.0"/>
<line x1="632.9" y1="188.6" x2="624.0" y2="161.2"/>
<line x1="630.1" y1="189.5" x2="658.3" y2="195.5"/>
<polygon points="916.307693 439.087446 928.183912 415.480473 920.575460 413.008337 " />
<line x1="924.4" y1="414.2" x2="943.7" y2="435.7"/>
<polygon points="862.641458 398.386824 888.762977 402.386824 888.762977 394.386824 " />
<line x1="888.8" y1="398.4" x2="874.3" y2="423.4"/>
<polygon points="911.789772 97.980413 885.710663 102.248181 888.182799 109.856633 " />
<line x1="886.9" y1="106.1" x2="874.9" y2="69.0"/>
<line x1="886.9" y1="106.1" x2="860.9" y2="135.0"/>
<line x1="886.9" y1="106.1" x2="908.4" y2="125.4"/>
<line x1="1091.0" y1="486.3" x2="1101.3" y2="513.3"/>
<line x1="874.3" y1="71.9" x2="846.1" y2="65.9"/>
<line x1="875.5" y1="66.0" x2="847.3" y2="60.0"/>
<line x1="874.9" y1="69.0" x2="894.2" y2="47.5"/>
<line x1="966.0" y1="365.8" x2="966.7" y2="366.3"/>
<line x1="963.2" y1="368.5" x2="964.5" y2="369.5"/>
<line x1="960.5" y1="371.3" x2="962.3" y2="372.8"/>
<line x1="957.7" y1="374.0" x2="960.1" y2="376.1"/>
<line x1="954.9" y1="376.8" x2="958.0" y2="379.3"/>
<line x1="952.1" y1="379.5" x2="955.8" y2="382.6"/>
<line x1="949.3" y1="382.3" x2="953.6" y2="385.9"/>
<line x1="950.5" y1="385.3" x2="986.8" y2="430.1"/>
<line x1="830.3" y1="461.0" x2="830.3" y2="442.3"/>
<line x1="801.4" y1="432.2" x2="820.1" y2="432.2"/>
<line x1="833.3" y1="403.3" x2="833.3" y2="422.0"/>
<line x1="827.3" y1="403.3" x2="827.3" y2="422.0"/>
<line x1="798.5" y1="334.5" x2="802.4" y2="316.2"/>
<line x1="776.9" y1="297.4" x2="795.2" y2="301.3"/>
<line x1="775.7" y1="303.3" x2="794.0" y2="307.1"/>
<line x1="792.5" y1="224.1" x2="810.8" y2="227.9"/>
<line x1="829.7" y1="202.5" x2="825.8" y2="220.8"/>
<line x1="823.8" y1="201.2" x2="819.9" y2="219.5"/>
<line x1="832.7" y1="312.3" x2="814.4" y2="308.4"/>
<line x1="849.0" y1="236.0" x2="830.6" y2="232.2"/>
<line x1="859.1" y1="432.2" x2="840.4" y2="432.2"/>
<line x1="810.5" y1="278.1" x2="806.6" y2="296.4"/>
<line x1="814.7" y1="258.3" x2="818.6" y2="240.0"/>
<line x1="989.4" y1="483.5" x2="996.9" y2="455.7"/>
<line x1="1009.7" y1="445.3" x2="1038.5" y2="443.8"/>
<line x1="1038.5" y1="443.8" x2="1052.4" y2="480.2"/>
<line x1="1052.4" y1="480.2" x2="1030.0" y2="498.4"/>
<line x1="1013.6" y1="499.2" x2="989.4" y2="483.5"/>
<line x1="1015.8" y1="492.1" x2="998.4" y2="480.8"/>
<line x1="892.8" y1="359.6" x2="888.8" y2="398.4"/>
<line x1="888.8" y1="398.4" x2="924.4" y2="414.2"/>
<line x1="924.4" y1="414.2" x2="950.5" y2="385.3"/>
<line x1="950.5" y1="385.3" x2="936.0" y2="360.3"/>
<line x1="921.1" y1="353.6" x2="892.8" y2="359.6"/>
<line x1="1038.5" y1="443.8" x2="1056.6" y2="421.4"/>
<line x1="1047.8" y1="443.7" x2="1060.9" y2="427.6"/>
<line x1="1073.0" y1="415.1" x2="1101.5" y2="419.6"/>
<line x1="1101.5" y1="419.6" x2="1111.9" y2="446.6"/>
<line x1="1096.9" y1="427.8" x2="1104.4" y2="447.2"/>
<line x1="1109.1" y1="463.9" x2="1091.0" y2="486.3"/>
<line x1="1091.0" y1="486.3" x2="1052.4" y2="480.2"/>
<line x1="1086.2" y1="478.3" x2="1059.5" y2="474.1"/>
<text x="16.400000" y="348.568364" fill="rgb(102,102,102)"  stroke="rgb(102,102,102)" stroke-width="1" font-size="16" >H</text>
<text x="28.400000" y="356.248364" fill="rgb(102,102,102)"  stroke="rgb(102,102,102)" stroke-width="1" font-size="13" >3</text>
<text x="34.900000" y="348.568364" fill="rgb(102,102,102)"  stroke="rgb(102,102,102)" stroke-width="1" font-size="16" >C</text>
<text x="808.285866" y="117.258024" fill="rgb(102,102,102)"  stroke="rgb(102,102,102)" stroke-width="1" font-size="16" >H</text>
<text x="820.285866" y="124.938024" fill="rgb(102,102,102)"  stroke="rgb(102,102,102)" stroke-width="1" font-size="13" >3</text>
<text x="826.785866" y="117.258024" fill="rgb(102,102,102)"  stroke="rgb(102,102,102)" stroke-width="1" font-size="16" >C</text>
<text x="800.179942" y="151.873399" fill="rgb(102,102,102)"  stroke="rgb(102,102,102)" stroke-width="1" font-size="16" >H</text>
<text x="812.179942" y="156.673399" fill="rgb(102,102,102)"  stroke="rgb(102,102,102)" stroke-width="1" font-size="13" >3</text>
<text x="818.679942" y="151.873399" fill="rgb(102,102,102)"  stroke="rgb(102,102,102)" stroke-width="1" font-size="16" >C</text>
<text x="1098.923249" y="527.523037" fill="rgb(12,12,255)"  stroke="rgb(12,12,255)" stroke-width="1" font-size="16" >NH</text>
<text x="1122.923249" y="532.323037" fill="rgb(12,12,255)"  stroke="rgb(12,12,255)" stroke-width="1" font-size="13" >2</text>
<text x="752.500734" y="152.587041" fill="rgb(12,12,255)"  stroke="rgb(12,12,255)" stroke-width="1" font-size="16" >N</text>
<text x="833.163605" y="69.187317" fill="rgb(12,12,255)"  stroke="rgb(12,12,255)" stroke-width="1" font-size="16" >N</text>
<text x="1109.486965" y="460.826362" fill="rgb(12,12,255)"  stroke="rgb(12,12,255)" stroke-width="1" font-size="16" >N</text>
<text x="1059.407808" y="421.849579" fill="rgb(12,12,255)"  stroke="rgb(12,12,255)" stroke-width="1" font-size="16" >N</text>
<text x="1016.145237" y="509.561783" fill="rgb(12,12,255)"  stroke="rgb(12,12,255)" stroke-width="1" font-size="16" >N</text>
<text x="993.538368" y="450.668874" fill="rgb(12,12,255)"  stroke="rgb(12,12,255)" stroke-width="1" font-size="16" >N</text>
<text x="550.183988" y="181.629827" fill="rgb(255,12,12)"  stroke="rgb(255,12,12)" stroke-width="1" font-size="16" >O</text>
<text x="692.717608" y="110.921951" fill="rgb(255,12,12)"  stroke="rgb(255,12,12)" stroke-width="1" font-size="16" >HO</text>
<text x="614.406986" y="160.762510" fill="rgb(255,12,12)"  stroke="rgb(255,12,12)" stroke-width="1" font-size="16" >O</text>
<text x="944.467310" y="448.017646" fill="rgb(255,12,12)"  stroke="rgb(255,12,12)" stroke-width="1" font-size="16" >OH</text>
<text x="909.919972" y="136.940030" fill="rgb(255,12,12)"  stroke="rgb(255,12,12)" stroke-width="1" font-size="16" >OH</text>
<text x="894.986604" y="48.320000" fill="rgb(255,12,12)"  stroke="rgb(255,12,12)" stroke-width="1" font-size="16" >OH</text>
<text x="824.281964" y="475.938195" fill="rgb(255,12,12)"  stroke="rgb(255,12,12)" stroke-width="1" font-size="16" >OH</text>
<text x="775.694622" y="440.470853" fill="rgb(255,12,12)"  stroke="rgb(255,12,12)" stroke-width="1" font-size="16" >HO</text>
<text x="824.281964" y="401.483511" fill="rgb(255,12,12)"  stroke="rgb(255,12,12)" stroke-width="1" font-size="16" >O</text>
<text x="780.813839" y="349.257421" fill="rgb(255,12,12)"  stroke="rgb(255,12,12)" stroke-width="1" font-size="16" >HO</text>
<text x="762.784388" y="306.536122" fill="rgb(255,12,12)"  stroke="rgb(255,12,12)" stroke-width="1" font-size="16" >O</text>
<text x="766.996237" y="230.265372" fill="rgb(255,12,12)"  stroke="rgb(255,12,12)" stroke-width="1" font-size="16" >HO</text>
<text x="822.837535" y="200.235921" fill="rgb(255,12,12)"  stroke="rgb(255,12,12)" stroke-width="1" font-size="16" >O</text>
<text x="836.655138" y="322.747970" fill="rgb(255,12,12)"  stroke="rgb(255,12,12)" stroke-width="1" font-size="16" >O</text>
<text x="852.866986" y="242.957220" fill="rgb(255,12,12)"  stroke="rgb(255,12,12)" stroke-width="1" font-size="16" >O</text>
<text x="924.973639" y="359.827135" fill="rgb(255,12,12)"  stroke="rgb(255,12,12)" stroke-width="1" font-size="16" >O</text>
<text x="863.269306" y="436.950853" fill="rgb(255,12,12)"  stroke="rgb(255,12,12)" stroke-width="1" font-size="16" >O</text>
<text x="806.625687" y="272.986671" fill="rgb(255,12,12)"  stroke="rgb(255,12,12)" stroke-width="1" font-size="16" >O</text>
<text x="824.281964" y="436.950853" fill="rgb(255,127,0)"  stroke="rgb(255,127,0)" stroke-width="1" font-size="16" >P</text>
<text x="798.519763" y="314.642046" fill="rgb(255,127,0)"  stroke="rgb(255,127,0)" stroke-width="1" font-size="16" >P</text>
<text x="814.731611" y="238.371296" fill="rgb(255,127,0)"  stroke="rgb(255,127,0)" stroke-width="1" font-size="16" >P</text>
<text x="662.190112" y="202.427599" fill="rgb(178,178,0)"  stroke="rgb(178,178,0)" stroke-width="1" font-size="16" >S</text>
<text x="877.190513" y="330.853894" fill="rgb(191,191,191)"  stroke="rgb(191,191,191)" stroke-width="1" font-size="16" >H</text>
<text x="908.731935" y="456.123570" fill="rgb(191,191,191)"  stroke="rgb(191,191,191)" stroke-width="1" font-size="16" >H</text>
<text x="846.175635" y="406.706824" fill="rgb(191,191,191)"  stroke="rgb(191,191,191)" stroke-width="1" font-size="16" >H</text>
<text x="918.025897" y="102.324656" fill="rgb(191,191,191)"  stroke="rgb(191,191,191)" stroke-width="1" font-size="16" >H</text>
<text x="969.279318" y="363.518301" fill="rgb(191,191,191)"  stroke="rgb(191,191,191)" stroke-width="1" font-size="16" >H</text>
<text font-size="18.000000" fill ="black" font-family="sans-serif"
x="140.000000" y="20.000000" ></text>
<title> - OBDepict</title>
</svg>
