<?xml version="1.0"?>
<svg xmlns="http://www.w3.org/2000/svg"
xmlns:xlink="http://www.w3.org/1999/xlink" xmlns:cml="http://www.xml-cml.org/schema" width="267.165" height="196.294" x="0" y="0" font-family="sans-serif" stroke="rgb(0,0,0)" stroke-width="1" >
<line x1="180.8" y1="105.9" x2="142.8" y2="118.3"/>
<line x1="180.8" y1="105.9" x2="189.1" y2="66.8"/>
<line x1="188.2" y1="63.9" x2="216.3" y2="54.8"/>
<line x1="190.0" y1="69.6" x2="218.2" y2="60.5"/>
<line x1="189.1" y1="66.8" x2="167.1" y2="47.0"/>
<line x1="77.1" y1="121.1" x2="49.0" y2="112.0"/>
<line x1="79.0" y1="115.4" x2="50.8" y2="106.3"/>
<line x1="130.4" y1="156.3" x2="90.4" y2="156.3"/>
<line x1="124.4" y1="149.1" x2="96.4" y2="149.1"/>
<line x1="90.4" y1="156.3" x2="78.0" y2="118.3"/>
<line x1="78.0" y1="118.3" x2="102.0" y2="100.9"/>
<line x1="118.8" y1="100.9" x2="142.8" y2="118.3"/>
<line x1="142.8" y1="118.3" x2="130.4" y2="156.3"/>
<text x="221.164609" y="62.724544" fill="rgb(255,12,12)"  stroke="rgb(255,12,12)" stroke-width="1" font-size="16" >O</text>
<text x="154.596555" y="33.600000" fill="rgb(255,12,12)"  stroke="rgb(255,12,12)" stroke-width="1" font-size="32" >-</text>
<text x="155.796555" y="48.320000" fill="rgb(255,12,12)"  stroke="rgb(255,12,12)" stroke-width="1" font-size="16" >O</text>
<text x="36.400000" y="114.211128" fill="rgb(255,12,12)"  stroke="rgb(255,12,12)" stroke-width="1" font-size="16" >O</text>
<text x="104.402940" y="103.060398" fill="rgb(255,12,12)"  stroke="rgb(255,12,12)" stroke-width="1" font-size="16" >O</text>
<text font-size="18.000000" fill ="black" font-family="sans-serif"
x="140.000000" y="20.000000" ></text>
<title> - OBDepict</title>
</svg>
