<?xml version="1.0"?>
<svg xmlns="http://www.w3.org/2000/svg"
xmlns:xlink="http://www.w3.org/1999/xlink" xmlns:cml="http://www.xml-cml.org/schema" width="277.837" height="203.511" x="0" y="0" font-family="sans-serif" stroke="rgb(0,0,0)" stroke-width="1" >
<line x1="109.3" y1="100.0" x2="143.9" y2="120.0"/>
<polygon points="120.713568 133.400000 145.923048 123.464102 141.923048 116.535898 " />
<line x1="205.5" y1="140.0" x2="229.4" y2="157.4"/>
<line x1="167.4" y1="87.6" x2="205.5" y2="100.0"/>
<line x1="205.5" y1="100.0" x2="205.5" y2="140.0"/>
<line x1="205.5" y1="140.0" x2="177.3" y2="149.1"/>
<line x1="197.5" y1="135.0" x2="177.0" y2="141.7"/>
<line x1="161.3" y1="143.9" x2="143.9" y2="120.0"/>
<line x1="143.9" y1="120.0" x2="167.4" y2="87.6"/>
<line x1="74.6" y1="40.0" x2="109.3" y2="60.0"/>
<line x1="76.2" y1="49.2" x2="100.5" y2="63.2"/>
<line x1="109.3" y1="60.0" x2="109.3" y2="100.0"/>
<line x1="109.3" y1="100.0" x2="74.6" y2="120.0"/>
<line x1="100.5" y1="96.8" x2="76.2" y2="110.8"/>
<line x1="74.6" y1="120.0" x2="49.0" y2="105.2"/>
<line x1="40.0" y1="89.6" x2="40.0" y2="60.0"/>
<line x1="47.2" y1="87.6" x2="47.2" y2="66.0"/>
<line x1="40.0" y1="60.0" x2="74.6" y2="40.0"/>
<text x="36.400000" y="104.800000" fill="rgb(12,12,255)"  stroke="rgb(12,12,255)" stroke-width="1" font-size="16" >N</text>
<text x="163.834459" y="157.160680" fill="rgb(12,12,255)"  stroke="rgb(12,12,255)" stroke-width="1" font-size="16" >N</text>
<text x="231.837399" y="168.311410" fill="rgb(255,12,12)"  stroke="rgb(255,12,12)" stroke-width="1" font-size="16" >OH</text>
<text x="105.682032" y="144.800000" fill="rgb(191,191,191)"  stroke="rgb(191,191,191)" stroke-width="1" font-size="16" >H</text>
<text font-size="18.000000" fill ="black" font-family="sans-serif"
x="140.000000" y="20.000000" ></text>
<title> - OBDepict</title>
</svg>
