<?xml version="1.0"?>
<svg xmlns="http://www.w3.org/2000/svg"
xmlns:xlink="http://www.w3.org/1999/xlink" xmlns:cml="http://www.xml-cml.org/schema" width="491.995" height="350.184" x="0" y="0" font-family="sans-serif" stroke="rgb(0,0,0)" stroke-width="1" >
<line x1="443.0" y1="195.4" x2="417.4" y2="210.2"/>
<line x1="268.1" y1="210.2" x2="268.1" y2="170.2"/>
<line x1="268.1" y1="210.2" x2="293.7" y2="225.0"/>
<polygon points="430.754120 233.392992 420.818221 208.183511 413.890018 212.183511 " />
<line x1="417.4" y1="210.2" x2="397.4" y2="175.5"/>
<line x1="417.4" y1="210.2" x2="391.7" y2="225.0"/>
<line x1="293.1" y1="164.7" x2="293.2" y2="165.5"/>
<line x1="289.1" y1="165.1" x2="289.4" y2="166.7"/>
<line x1="285.1" y1="165.5" x2="285.6" y2="167.9"/>
<line x1="281.1" y1="165.9" x2="281.7" y2="169.0"/>
<line x1="277.1" y1="166.3" x2="277.9" y2="170.2"/>
<line x1="273.1" y1="166.7" x2="274.0" y2="171.4"/>
<line x1="269.1" y1="167.1" x2="270.2" y2="172.6"/>
<polygon points="301.092738 132.078581 274.538810 126.681459 274.120122 134.670496 " />
<line x1="274.3" y1="130.7" x2="290.5" y2="105.9"/>
<polygon points="248.293466 87.496402 234.954883 111.082886 242.423527 113.949829 " />
<line x1="238.7" y1="112.5" x2="220.1" y2="89.5"/>
<line x1="71.1" y1="144.2" x2="48.1" y2="162.8"/>
<line x1="190.3" y1="125.0" x2="190.8" y2="124.4"/>
<line x1="193.1" y1="127.8" x2="194.1" y2="126.6"/>
<line x1="196.0" y1="130.7" x2="197.5" y2="128.8"/>
<line x1="198.8" y1="133.5" x2="200.8" y2="131.0"/>
<line x1="201.7" y1="136.3" x2="204.2" y2="133.2"/>
<line x1="204.5" y1="139.1" x2="207.6" y2="135.4"/>
<line x1="207.4" y1="142.0" x2="210.9" y2="137.6"/>
<line x1="210.4" y1="140.8" x2="182.8" y2="151.4"/>
<line x1="394.8" y1="174.0" x2="409.6" y2="148.4"/>
<line x1="400.0" y1="177.0" x2="414.8" y2="151.4"/>
<line x1="397.4" y1="175.5" x2="367.8" y2="175.5"/>
<line x1="93.0" y1="80.0" x2="88.3" y2="50.7"/>
<line x1="98.9" y1="79.0" x2="94.2" y2="49.8"/>
<line x1="302.7" y1="299.8" x2="302.7" y2="280.6"/>
<line x1="273.1" y1="267.2" x2="292.3" y2="267.2"/>
<line x1="273.1" y1="273.2" x2="292.3" y2="273.2"/>
<line x1="412.3" y1="270.2" x2="393.1" y2="270.2"/>
<line x1="379.7" y1="299.8" x2="379.7" y2="280.6"/>
<line x1="385.7" y1="299.8" x2="385.7" y2="280.6"/>
<line x1="302.7" y1="240.6" x2="302.7" y2="259.8"/>
<line x1="382.7" y1="240.6" x2="382.7" y2="259.8"/>
<line x1="332.3" y1="270.2" x2="313.1" y2="270.2"/>
<line x1="353.1" y1="270.2" x2="372.3" y2="270.2"/>
<line x1="162.7" y1="193.8" x2="170.4" y2="165.2"/>
<line x1="164.3" y1="149.5" x2="139.5" y2="133.3"/>
<line x1="139.5" y1="133.3" x2="108.4" y2="158.5"/>
<line x1="139.4" y1="142.7" x2="117.6" y2="160.3"/>
<line x1="108.4" y1="158.5" x2="119.0" y2="186.2"/>
<line x1="133.1" y1="195.3" x2="162.7" y2="193.8"/>
<line x1="134.8" y1="188.0" x2="156.3" y2="186.9"/>
<line x1="268.1" y1="170.2" x2="274.3" y2="130.7"/>
<line x1="274.3" y1="130.7" x2="238.7" y2="112.5"/>
<line x1="238.7" y1="112.5" x2="210.4" y2="140.8"/>
<line x1="210.4" y1="140.8" x2="223.8" y2="167.2"/>
<line x1="238.8" y1="174.8" x2="268.1" y2="170.2"/>
<line x1="71.1" y1="144.2" x2="108.4" y2="158.5"/>
<line x1="139.5" y1="133.3" x2="134.9" y2="104.1"/>
<line x1="123.5" y1="90.1" x2="95.9" y2="79.5"/>
<line x1="95.9" y1="79.5" x2="72.9" y2="98.1"/>
<line x1="66.5" y1="115.0" x2="71.1" y2="144.2"/>
<line x1="73.9" y1="115.8" x2="77.3" y2="137.1"/>
<text x="445.995136" y="198.503511" fill="rgb(102,102,102)"  stroke="rgb(102,102,102)" stroke-width="1" font-size="16" >CH</text>
<text x="469.995136" y="206.183511" fill="rgb(102,102,102)"  stroke="rgb(102,102,102)" stroke-width="1" font-size="13" >3</text>
<text x="74.056920" y="48.320000" fill="rgb(12,12,255)"  stroke="rgb(12,12,255)" stroke-width="1" font-size="16" >HN</text>
<text x="119.163773" y="200.665818" fill="rgb(12,12,255)"  stroke="rgb(12,12,255)" stroke-width="1" font-size="16" >N</text>
<text x="127.257515" y="102.162252" fill="rgb(12,12,255)"  stroke="rgb(12,12,255)" stroke-width="1" font-size="16" >NH</text>
<text x="61.228460" y="113.000349" fill="rgb(12,12,255)"  stroke="rgb(12,12,255)" stroke-width="1" font-size="16" >N</text>
<text x="167.061717" y="163.455347" fill="rgb(12,12,255)"  stroke="rgb(12,12,255)" stroke-width="1" font-size="16" >N</text>
<text x="290.115027" y="105.449155" fill="rgb(255,12,12)"  stroke="rgb(255,12,12)" stroke-width="1" font-size="16" >OH</text>
<text x="197.916389" y="89.750519" fill="rgb(255,12,12)"  stroke="rgb(255,12,12)" stroke-width="1" font-size="16" >HO</text>
<text x="35.200000" y="188.560699" fill="rgb(255,12,12)"  stroke="rgb(255,12,12)" stroke-width="1" font-size="32" >-</text>
<text x="36.400000" y="174.160699" fill="rgb(255,12,12)"  stroke="rgb(255,12,12)" stroke-width="1" font-size="16" >O</text>
<text x="411.354120" y="149.221479" fill="rgb(255,12,12)"  stroke="rgb(255,12,12)" stroke-width="1" font-size="16" >O</text>
<text x="352.554120" y="169.142495" fill="rgb(255,12,12)"  stroke="rgb(255,12,12)" stroke-width="1" font-size="32" >-</text>
<text x="353.754120" y="183.862495" fill="rgb(255,12,12)"  stroke="rgb(255,12,12)" stroke-width="1" font-size="16" >O</text>
<text x="297.913104" y="329.383511" fill="rgb(255,12,12)"  stroke="rgb(255,12,12)" stroke-width="1" font-size="32" >-</text>
<text x="296.713104" y="314.983511" fill="rgb(255,12,12)"  stroke="rgb(255,12,12)" stroke-width="1" font-size="16" >O</text>
<text x="259.113104" y="274.983511" fill="rgb(255,12,12)"  stroke="rgb(255,12,12)" stroke-width="1" font-size="16" >O</text>
<text x="416.713104" y="274.983511" fill="rgb(255,12,12)"  stroke="rgb(255,12,12)" stroke-width="1" font-size="16" >OH</text>
<text x="376.713104" y="314.983511" fill="rgb(255,12,12)"  stroke="rgb(255,12,12)" stroke-width="1" font-size="16" >O</text>
<text x="296.713104" y="238.503511" fill="rgb(255,12,12)"  stroke="rgb(255,12,12)" stroke-width="1" font-size="16" >O</text>
<text x="224.964554" y="181.240890" fill="rgb(255,12,12)"  stroke="rgb(255,12,12)" stroke-width="1" font-size="16" >O</text>
<text x="379.113104" y="238.503511" fill="rgb(255,12,12)"  stroke="rgb(255,12,12)" stroke-width="1" font-size="16" >O</text>
<text x="336.713104" y="274.983511" fill="rgb(255,12,12)"  stroke="rgb(255,12,12)" stroke-width="1" font-size="16" >O</text>
<text x="296.713104" y="274.983511" fill="rgb(255,127,0)"  stroke="rgb(255,127,0)" stroke-width="1" font-size="16" >P</text>
<text x="376.713104" y="278.503511" fill="rgb(255,127,0)"  stroke="rgb(255,127,0)" stroke-width="1" font-size="16" >P</text>
<text x="431.354120" y="249.624527" fill="rgb(191,191,191)"  stroke="rgb(191,191,191)" stroke-width="1" font-size="16" >H</text>
<text x="301.272521" y="170.545748" fill="rgb(191,191,191)"  stroke="rgb(191,191,191)" stroke-width="1" font-size="16" >H</text>
<text x="308.274647" y="137.569416" fill="rgb(191,191,191)"  stroke="rgb(191,191,191)" stroke-width="1" font-size="16" >H</text>
<text x="247.023923" y="83.493140" fill="rgb(191,191,191)"  stroke="rgb(191,191,191)" stroke-width="1" font-size="16" >H</text>
<text x="175.719095" y="123.947813" fill="rgb(191,191,191)"  stroke="rgb(191,191,191)" stroke-width="1" font-size="16" >H</text>
<text font-size="18.000000" fill ="black" font-family="sans-serif"
x="140.000000" y="20.000000" ></text>
<title> - OBDepict</title>
</svg>
