<?xml version="1.0"?>
<svg xmlns="http://www.w3.org/2000/svg"
xmlns:xlink="http://www.w3.org/1999/xlink" xmlns:cml="http://www.xml-cml.org/schema" width="318.602" height="267.875" x="0" y="0" font-family="sans-serif" stroke="rgb(0,0,0)" stroke-width="1" >
<line x1="149.3" y1="189.2" x2="128.3" y2="210.1"/>
<line x1="183.9" y1="169.3" x2="212.5" y2="161.6"/>
<polygon points="252.010370 51.428858 235.139814 72.631754 242.066691 76.634050 " />
<line x1="238.6" y1="74.6" x2="268.2" y2="74.6"/>
<line x1="103.1" y1="214.1" x2="102.3" y2="213.9"/>
<line x1="104.5" y1="210.3" x2="102.9" y2="209.9"/>
<line x1="105.9" y1="206.5" x2="103.6" y2="205.9"/>
<line x1="107.3" y1="202.8" x2="104.2" y2="202.0"/>
<line x1="108.7" y1="199.0" x2="104.9" y2="198.0"/>
<line x1="110.2" y1="195.3" x2="105.5" y2="194.0"/>
<line x1="111.6" y1="191.5" x2="106.2" y2="190.1"/>
<line x1="228.8" y1="140.9" x2="228.6" y2="141.7"/>
<line x1="225.0" y1="139.5" x2="224.6" y2="141.0"/>
<line x1="221.2" y1="138.0" x2="220.6" y2="140.4"/>
<line x1="217.5" y1="136.6" x2="216.7" y2="139.7"/>
<line x1="213.7" y1="135.2" x2="212.7" y2="139.0"/>
<line x1="210.0" y1="133.8" x2="208.7" y2="138.4"/>
<line x1="206.2" y1="132.3" x2="204.8" y2="137.7"/>
<line x1="71.7" y1="129.2" x2="71.7" y2="99.6"/>
<line x1="77.7" y1="129.2" x2="77.7" y2="99.6"/>
<line x1="40.0" y1="149.2" x2="40.0" y2="189.2"/>
<line x1="40.0" y1="189.2" x2="74.6" y2="209.2"/>
<line x1="74.6" y1="209.2" x2="109.3" y2="189.2"/>
<line x1="109.3" y1="189.2" x2="109.3" y2="159.6"/>
<line x1="100.3" y1="144.0" x2="74.7" y2="129.2"/>
<line x1="74.7" y1="129.2" x2="40.0" y2="149.2"/>
<line x1="169.3" y1="74.6" x2="204.0" y2="54.6"/>
<line x1="204.0" y1="54.6" x2="238.6" y2="74.6"/>
<line x1="238.6" y1="74.6" x2="238.6" y2="114.6"/>
<line x1="238.6" y1="114.6" x2="203.9" y2="134.6"/>
<line x1="203.9" y1="134.6" x2="178.3" y2="119.8"/>
<line x1="169.3" y1="104.2" x2="169.3" y2="74.6"/>
<line x1="183.9" y1="209.3" x2="149.3" y2="189.2"/>
<line x1="149.3" y1="189.2" x2="169.3" y2="154.6"/>
<line x1="169.3" y1="154.6" x2="169.3" y2="125.0"/>
<line x1="203.9" y1="134.6" x2="183.9" y2="169.3"/>
<line x1="183.9" y1="169.3" x2="183.9" y2="209.3"/>
<line x1="149.3" y1="189.2" x2="109.3" y2="189.2"/>
<line x1="118.3" y1="154.4" x2="143.9" y2="169.2"/>
<line x1="143.9" y1="169.2" x2="183.9" y2="169.3"/>
<text x="165.702922" y="122.932847" fill="rgb(12,12,255)"  stroke="rgb(12,12,255)" stroke-width="1" font-size="16" >N</text>
<text x="103.296540" y="157.554826" fill="rgb(12,12,255)"  stroke="rgb(12,12,255)" stroke-width="1" font-size="16" >N</text>
<text x="272.601537" y="79.446160" fill="rgb(255,12,12)"  stroke="rgb(255,12,12)" stroke-width="1" font-size="16" >OH</text>
<text x="68.667201" y="97.546886" fill="rgb(255,12,12)"  stroke="rgb(255,12,12)" stroke-width="1" font-size="16" >O</text>
<text x="117.363450" y="222.282732" fill="rgb(191,191,191)"  stroke="rgb(191,191,191)" stroke-width="1" font-size="16" >H</text>
<text x="216.550168" y="167.196159" fill="rgb(191,191,191)"  stroke="rgb(191,191,191)" stroke-width="1" font-size="16" >H</text>
<text x="252.613876" y="48.320000" fill="rgb(191,191,191)"  stroke="rgb(191,191,191)" stroke-width="1" font-size="16" >H</text>
<text x="95.340025" y="232.674527" fill="rgb(191,191,191)"  stroke="rgb(191,191,191)" stroke-width="1" font-size="16" >H</text>
<text x="236.567904" y="149.805318" fill="rgb(191,191,191)"  stroke="rgb(191,191,191)" stroke-width="1" font-size="16" >H</text>
<text font-size="18.000000" fill ="black" font-family="sans-serif"
x="140.000000" y="20.000000" ></text>
<title> - OBDepict</title>
</svg>
