<?xml version="1.0"?>
<svg xmlns="http://www.w3.org/2000/svg"
xmlns:xlink="http://www.w3.org/1999/xlink" xmlns:cml="http://www.xml-cml.org/schema" width="935.692" height="607.846" x="0" y="0" font-family="sans-serif" stroke="rgb(0,0,0)" stroke-width="1" >
<line x1="586.4" y1="269.3" x2="606.4" y2="303.9"/>
<line x1="586.4" y1="269.3" x2="546.4" y2="269.3"/>
<line x1="477.1" y1="149.3" x2="511.8" y2="169.3"/>
<line x1="477.1" y1="149.3" x2="477.1" y2="109.3"/>
<line x1="706.4" y1="378.6" x2="741.1" y2="398.6"/>
<line x1="706.4" y1="378.6" x2="706.4" y2="338.6"/>
<line x1="357.1" y1="109.3" x2="377.1" y2="74.6"/>
<line x1="357.1" y1="109.3" x2="317.1" y2="109.3"/>
<line x1="815.7" y1="498.6" x2="835.7" y2="533.2"/>
<line x1="815.7" y1="498.6" x2="775.7" y2="498.6"/>
<line x1="606.4" y1="303.9" x2="646.4" y2="303.9"/>
<line x1="511.8" y1="169.3" x2="511.8" y2="209.3"/>
<line x1="741.1" y1="398.6" x2="741.1" y2="438.6"/>
<line x1="377.1" y1="74.6" x2="417.1" y2="74.6"/>
<line x1="835.7" y1="533.2" x2="875.7" y2="533.2"/>
<line x1="247.8" y1="349.3" x2="213.2" y2="329.3"/>
<line x1="247.8" y1="349.3" x2="273.5" y2="334.5"/>
<line x1="282.5" y1="209.3" x2="282.5" y2="169.3"/>
<line x1="282.5" y1="289.3" x2="282.5" y2="318.9"/>
<line x1="520.8" y1="269.7" x2="520.8" y2="268.9"/>
<line x1="524.8" y1="270.1" x2="524.8" y2="268.5"/>
<line x1="528.8" y1="270.5" x2="528.8" y2="268.1"/>
<line x1="532.8" y1="270.9" x2="532.8" y2="267.7"/>
<line x1="536.8" y1="271.3" x2="536.8" y2="267.3"/>
<line x1="540.8" y1="271.7" x2="540.8" y2="266.9"/>
<line x1="544.8" y1="272.1" x2="544.8" y2="266.5"/>
<line x1="546.4" y1="269.3" x2="546.4" y2="309.3"/>
<line x1="546.4" y1="269.3" x2="546.4" y2="239.7"/>
<polygon points="706.410162 311.764065 702.410162 338.564065 710.410162 338.564065 " />
<line x1="706.4" y1="338.6" x2="746.4" y2="338.6"/>
<line x1="706.4" y1="338.6" x2="676.8" y2="338.6"/>
<polygon points="477.128129 82.482032 473.128129 109.282032 481.128129 109.282032 " />
<line x1="477.1" y1="109.3" x2="517.1" y2="109.3"/>
<line x1="477.1" y1="109.3" x2="447.5" y2="109.3"/>
<line x1="750.1" y1="499.0" x2="750.1" y2="498.2"/>
<line x1="754.1" y1="499.4" x2="754.1" y2="497.8"/>
<line x1="758.1" y1="499.8" x2="758.1" y2="497.4"/>
<line x1="762.1" y1="500.2" x2="762.1" y2="497.0"/>
<line x1="766.1" y1="500.6" x2="766.1" y2="496.6"/>
<line x1="770.1" y1="501.0" x2="770.1" y2="496.2"/>
<line x1="774.1" y1="501.4" x2="774.1" y2="495.8"/>
<line x1="775.7" y1="498.6" x2="775.7" y2="538.6"/>
<line x1="775.7" y1="498.6" x2="775.7" y2="469.0"/>
<polygon points="290.328129 109.282032 317.128129 113.282032 317.128129 105.282032 " />
<line x1="317.1" y1="109.3" x2="317.1" y2="69.3"/>
<line x1="317.1" y1="109.3" x2="317.1" y2="138.9"/>
<line x1="649.0" y1="302.4" x2="663.8" y2="328.1"/>
<line x1="643.8" y1="305.4" x2="658.6" y2="331.1"/>
<line x1="646.4" y1="303.9" x2="661.2" y2="278.3"/>
<line x1="513.3" y1="206.7" x2="538.9" y2="221.5"/>
<line x1="510.3" y1="211.9" x2="535.9" y2="226.7"/>
<line x1="511.8" y1="209.3" x2="486.1" y2="224.1"/>
<line x1="742.6" y1="436.0" x2="768.2" y2="450.8"/>
<line x1="739.6" y1="441.2" x2="765.2" y2="456.0"/>
<line x1="741.1" y1="438.6" x2="715.4" y2="453.4"/>
<line x1="419.7" y1="73.1" x2="434.5" y2="98.8"/>
<line x1="414.5" y1="76.1" x2="429.3" y2="101.8"/>
<line x1="417.1" y1="74.6" x2="431.9" y2="49.0"/>
<line x1="873.1" y1="531.7" x2="887.9" y2="506.1"/>
<line x1="878.3" y1="534.7" x2="893.1" y2="509.1"/>
<line x1="875.7" y1="533.2" x2="890.5" y2="558.8"/>
<line x1="282.5" y1="169.3" x2="308.1" y2="154.5"/>
<line x1="281.0" y1="171.9" x2="255.4" y2="157.1"/>
<line x1="284.0" y1="166.7" x2="258.4" y2="151.9"/>
<line x1="109.3" y1="349.3" x2="109.3" y2="378.9"/>
<line x1="547.9" y1="306.7" x2="573.5" y2="321.5"/>
<line x1="544.9" y1="311.9" x2="570.5" y2="326.7"/>
<line x1="546.4" y1="309.3" x2="520.8" y2="324.1"/>
<line x1="749.0" y1="337.1" x2="763.8" y2="362.7"/>
<line x1="743.8" y1="340.1" x2="758.6" y2="365.7"/>
<line x1="746.4" y1="338.6" x2="761.2" y2="312.9"/>
<line x1="519.7" y1="107.8" x2="534.5" y2="133.4"/>
<line x1="514.5" y1="110.8" x2="529.3" y2="136.4"/>
<line x1="517.1" y1="109.3" x2="531.9" y2="83.6"/>
<line x1="777.2" y1="536.0" x2="802.8" y2="550.8"/>
<line x1="774.2" y1="541.2" x2="799.8" y2="556.0"/>
<line x1="775.7" y1="538.6" x2="750.1" y2="553.4"/>
<line x1="315.6" y1="66.7" x2="341.3" y2="51.9"/>
<line x1="318.6" y1="71.9" x2="344.3" y2="57.1"/>
<line x1="317.1" y1="69.3" x2="291.5" y2="54.5"/>
<line x1="73.1" y1="291.9" x2="47.5" y2="277.1"/>
<line x1="76.1" y1="286.7" x2="50.5" y2="271.9"/>
<line x1="317.1" y1="229.3" x2="282.5" y2="209.3"/>
<line x1="308.3" y1="232.5" x2="284.1" y2="218.5"/>
<line x1="282.5" y1="209.3" x2="247.8" y2="229.3"/>
<line x1="247.8" y1="229.3" x2="247.8" y2="269.3"/>
<line x1="255.0" y1="235.3" x2="255.0" y2="263.3"/>
<line x1="247.8" y1="269.3" x2="282.5" y2="289.3"/>
<line x1="282.5" y1="289.3" x2="317.1" y2="269.3"/>
<line x1="284.1" y1="280.0" x2="308.3" y2="266.0"/>
<line x1="317.1" y1="269.3" x2="317.1" y2="229.3"/>
<line x1="213.2" y1="289.3" x2="213.2" y2="329.3"/>
<line x1="213.2" y1="329.3" x2="187.6" y2="344.1"/>
<line x1="204.4" y1="326.0" x2="185.7" y2="336.8"/>
<line x1="169.6" y1="344.1" x2="143.9" y2="329.3"/>
<line x1="143.9" y1="329.3" x2="143.9" y2="289.3"/>
<line x1="151.1" y1="323.3" x2="151.1" y2="295.3"/>
<line x1="143.9" y1="289.3" x2="169.6" y2="274.5"/>
<line x1="187.6" y1="274.5" x2="213.2" y2="289.3"/>
<line x1="185.7" y1="281.7" x2="204.4" y2="292.5"/>
<line x1="109.3" y1="349.3" x2="143.9" y2="329.3"/>
<line x1="143.9" y1="289.3" x2="118.3" y2="274.5"/>
<line x1="100.3" y1="274.5" x2="74.6" y2="289.3"/>
<line x1="74.6" y1="289.3" x2="74.6" y2="318.9"/>
<line x1="83.6" y1="334.5" x2="109.3" y2="349.3"/>
<line x1="89.0" y1="329.2" x2="107.7" y2="340.0"/>
<text x="24.400000" y="277.602032" fill="rgb(12,12,255)"  stroke="rgb(12,12,255)" stroke-width="1" font-size="16" >HN</text>
<text x="276.487113" y="334.082032" fill="rgb(12,12,255)"  stroke="rgb(12,12,255)" stroke-width="1" font-size="16" >NH</text>
<text x="172.564065" y="277.602032" fill="rgb(12,12,255)"  stroke="rgb(12,12,255)" stroke-width="1" font-size="16" >N</text>
<text x="172.564065" y="354.082032" fill="rgb(12,12,255)"  stroke="rgb(12,12,255)" stroke-width="1" font-size="16" >N</text>
<text x="540.410162" y="237.602032" fill="rgb(12,12,255)"  stroke="rgb(12,12,255)" stroke-width="1" font-size="16" >N</text>
<text x="662.810162" y="343.364065" fill="rgb(12,12,255)"  stroke="rgb(12,12,255)" stroke-width="1" font-size="16" >N</text>
<text x="433.528129" y="114.082032" fill="rgb(12,12,255)"  stroke="rgb(12,12,255)" stroke-width="1" font-size="16" >N</text>
<text x="769.692194" y="466.884065" fill="rgb(12,12,255)"  stroke="rgb(12,12,255)" stroke-width="1" font-size="16" >N</text>
<text x="311.128129" y="154.082032" fill="rgb(12,12,255)"  stroke="rgb(12,12,255)" stroke-width="1" font-size="16" >NH</text>
<text x="103.282032" y="277.602032" fill="rgb(12,12,255)"  stroke="rgb(12,12,255)" stroke-width="1" font-size="16" >NH</text>
<text x="71.041016" y="334.082032" fill="rgb(12,12,255)"  stroke="rgb(12,12,255)" stroke-width="1" font-size="16" >N</text>
<text x="660.410162" y="277.602032" fill="rgb(255,12,12)"  stroke="rgb(255,12,12)" stroke-width="1" font-size="16" >OH</text>
<text x="461.528129" y="234.082032" fill="rgb(255,12,12)"  stroke="rgb(255,12,12)" stroke-width="1" font-size="16" >HO</text>
<text x="690.810162" y="463.364065" fill="rgb(255,12,12)"  stroke="rgb(255,12,12)" stroke-width="1" font-size="16" >HO</text>
<text x="431.128129" y="48.320000" fill="rgb(255,12,12)"  stroke="rgb(255,12,12)" stroke-width="1" font-size="16" >OH</text>
<text x="889.692194" y="506.884065" fill="rgb(255,12,12)"  stroke="rgb(255,12,12)" stroke-width="1" font-size="16" >O</text>
<text x="889.692194" y="572.646097" fill="rgb(255,12,12)"  stroke="rgb(255,12,12)" stroke-width="1" font-size="16" >OH</text>
<text x="244.246097" y="157.602032" fill="rgb(255,12,12)"  stroke="rgb(255,12,12)" stroke-width="1" font-size="16" >O</text>
<text x="103.282032" y="394.082032" fill="rgb(255,12,12)"  stroke="rgb(255,12,12)" stroke-width="1" font-size="16" >OH</text>
<text x="575.051178" y="334.082032" fill="rgb(255,12,12)"  stroke="rgb(255,12,12)" stroke-width="1" font-size="16" >O</text>
<text x="496.169145" y="334.082032" fill="rgb(255,12,12)"  stroke="rgb(255,12,12)" stroke-width="1" font-size="16" >HO</text>
<text x="760.410162" y="378.005081" fill="rgb(255,12,12)"  stroke="rgb(255,12,12)" stroke-width="1" font-size="16" >O</text>
<text x="760.410162" y="312.243048" fill="rgb(255,12,12)"  stroke="rgb(255,12,12)" stroke-width="1" font-size="16" >OH</text>
<text x="531.128129" y="148.723048" fill="rgb(255,12,12)"  stroke="rgb(255,12,12)" stroke-width="1" font-size="16" >O</text>
<text x="531.128129" y="82.961016" fill="rgb(255,12,12)"  stroke="rgb(255,12,12)" stroke-width="1" font-size="16" >OH</text>
<text x="804.333210" y="563.364065" fill="rgb(255,12,12)"  stroke="rgb(255,12,12)" stroke-width="1" font-size="16" >O</text>
<text x="725.451178" y="563.364065" fill="rgb(255,12,12)"  stroke="rgb(255,12,12)" stroke-width="1" font-size="16" >HO</text>
<text x="345.769145" y="57.602032" fill="rgb(255,12,12)"  stroke="rgb(255,12,12)" stroke-width="1" font-size="16" >O</text>
<text x="266.887113" y="57.602032" fill="rgb(255,12,12)"  stroke="rgb(255,12,12)" stroke-width="1" font-size="16" >HO</text>
<text x="502.810162" y="274.082032" fill="rgb(191,191,191)"  stroke="rgb(191,191,191)" stroke-width="1" font-size="16" >H</text>
<text x="700.410162" y="306.884065" fill="rgb(191,191,191)"  stroke="rgb(191,191,191)" stroke-width="1" font-size="16" >H</text>
<text x="471.128129" y="77.602032" fill="rgb(191,191,191)"  stroke="rgb(191,191,191)" stroke-width="1" font-size="16" >H</text>
<text x="732.092194" y="506.884065" fill="rgb(191,191,191)"  stroke="rgb(191,191,191)" stroke-width="1" font-size="16" >H</text>
<text x="273.528129" y="117.602032" fill="rgb(191,191,191)"  stroke="rgb(191,191,191)" stroke-width="1" font-size="16" >H</text>
<text font-size="18.000000" fill ="black" font-family="sans-serif"
x="140.000000" y="20.000000" ></text>
<title> - OBDepict</title>
</svg>
