<?xml version="1.0"?>
<svg xmlns="http://www.w3.org/2000/svg"
xmlns:xlink="http://www.w3.org/1999/xlink" xmlns:cml="http://www.xml-cml.org/schema" width="531.045" height="301.387" x="0" y="0" font-family="sans-serif" stroke="rgb(0,0,0)" stroke-width="1" >
<line x1="50.1" y1="223.7" x2="87.8" y2="213.6"/>
<line x1="50.1" y1="223.7" x2="42.6" y2="251.6"/>
<line x1="389.7" y1="98.5" x2="355.9" y2="118.0"/>
<line x1="457.2" y1="59.5" x2="482.3" y2="45.1"/>
<line x1="457.2" y1="98.5" x2="482.3" y2="113.0"/>
<line x1="325.1" y1="176.6" x2="325.1" y2="205.5"/>
<line x1="319.1" y1="176.6" x2="319.1" y2="205.5"/>
<line x1="220.7" y1="118.0" x2="195.7" y2="103.6"/>
<polygon points="81.027751 238.847143 91.658625 214.626993 83.931219 212.556440 " />
<line x1="220.7" y1="157.1" x2="153.1" y2="196.1"/>
<line x1="53.7" y1="182.7" x2="53.5" y2="182.0"/>
<line x1="57.5" y1="182.1" x2="57.1" y2="180.6"/>
<line x1="61.4" y1="181.5" x2="60.8" y2="179.2"/>
<line x1="65.3" y1="180.9" x2="64.5" y2="177.8"/>
<line x1="69.2" y1="180.3" x2="68.1" y2="176.4"/>
<line x1="73.0" y1="179.6" x2="71.8" y2="175.0"/>
<line x1="76.9" y1="179.0" x2="75.5" y2="173.6"/>
<line x1="77.7" y1="175.9" x2="57.3" y2="155.5"/>
<line x1="254.5" y1="176.6" x2="254.5" y2="205.5"/>
<polygon points="86.800822 129.814384 102.460650 151.131066 108.117504 145.474212 " />
<line x1="105.3" y1="148.3" x2="112.8" y2="120.4"/>
<line x1="149.1" y1="134.2" x2="149.8" y2="134.4"/>
<line x1="147.7" y1="137.8" x2="149.2" y2="138.3"/>
<line x1="146.3" y1="141.5" x2="148.6" y2="142.1"/>
<line x1="144.9" y1="145.2" x2="148.0" y2="146.0"/>
<line x1="143.5" y1="148.8" x2="147.3" y2="149.9"/>
<line x1="142.1" y1="152.5" x2="146.7" y2="153.7"/>
<line x1="140.7" y1="156.2" x2="146.1" y2="157.6"/>
<line x1="143.0" y1="158.4" x2="170.9" y2="150.9"/>
<polygon points="156.496782 222.020217 157.049779 195.575456 149.118220 196.619666 " />
<line x1="389.7" y1="59.5" x2="389.7" y2="98.5"/>
<line x1="389.7" y1="98.5" x2="423.5" y2="118.0"/>
<line x1="398.5" y1="95.3" x2="421.9" y2="108.8"/>
<line x1="423.5" y1="118.0" x2="457.2" y2="98.5"/>
<line x1="457.2" y1="98.5" x2="457.2" y2="59.5"/>
<line x1="450.0" y1="92.5" x2="450.0" y2="65.5"/>
<line x1="457.2" y1="59.5" x2="423.5" y2="40.0"/>
<line x1="423.5" y1="40.0" x2="389.7" y2="59.5"/>
<line x1="421.9" y1="49.2" x2="398.5" y2="62.7"/>
<line x1="254.5" y1="98.5" x2="220.7" y2="118.0"/>
<line x1="252.9" y1="107.8" x2="229.5" y2="121.3"/>
<line x1="220.7" y1="118.0" x2="220.7" y2="157.1"/>
<line x1="220.7" y1="157.1" x2="254.5" y2="176.6"/>
<line x1="229.5" y1="153.8" x2="252.9" y2="167.3"/>
<line x1="254.5" y1="176.6" x2="288.3" y2="157.1"/>
<line x1="288.3" y1="157.1" x2="288.3" y2="118.0"/>
<line x1="281.1" y1="151.1" x2="281.1" y2="124.0"/>
<line x1="288.3" y1="118.0" x2="254.5" y2="98.5"/>
<line x1="355.9" y1="118.0" x2="330.9" y2="103.6"/>
<line x1="313.3" y1="103.6" x2="288.3" y2="118.0"/>
<line x1="288.3" y1="157.1" x2="322.1" y2="176.6"/>
<line x1="322.1" y1="176.6" x2="355.9" y2="157.1"/>
<line x1="355.9" y1="157.1" x2="355.9" y2="118.0"/>
<line x1="348.7" y1="151.1" x2="348.7" y2="124.0"/>
<line x1="105.3" y1="148.3" x2="143.0" y2="158.4"/>
<line x1="143.0" y1="158.4" x2="153.1" y2="196.1"/>
<line x1="153.1" y1="196.1" x2="132.7" y2="216.5"/>
<line x1="115.7" y1="221.1" x2="87.8" y2="213.6"/>
<line x1="87.8" y1="213.6" x2="77.7" y2="175.9"/>
<line x1="77.7" y1="175.9" x2="105.3" y2="148.3"/>
<text x="24.400000" y="266.186638" fill="rgb(255,12,12)"  stroke="rgb(255,12,12)" stroke-width="1" font-size="16" >HO</text>
<text x="485.045132" y="48.320000" fill="rgb(255,12,12)"  stroke="rgb(255,12,12)" stroke-width="1" font-size="16" >OH</text>
<text x="485.045132" y="122.848780" fill="rgb(255,12,12)"  stroke="rgb(255,12,12)" stroke-width="1" font-size="16" >OH</text>
<text x="316.064566" y="220.409756" fill="rgb(255,12,12)"  stroke="rgb(255,12,12)" stroke-width="1" font-size="16" >O</text>
<text x="171.280112" y="106.856585" fill="rgb(255,12,12)"  stroke="rgb(255,12,12)" stroke-width="1" font-size="16" >HO</text>
<text x="34.500255" y="156.622639" fill="rgb(255,12,12)"  stroke="rgb(255,12,12)" stroke-width="1" font-size="16" >HO</text>
<text x="248.472339" y="220.409756" fill="rgb(255,12,12)"  stroke="rgb(255,12,12)" stroke-width="1" font-size="16" >OH</text>
<text x="109.389333" y="118.927973" fill="rgb(255,12,12)"  stroke="rgb(255,12,12)" stroke-width="1" font-size="16" >OH</text>
<text x="174.678410" y="156.622639" fill="rgb(255,12,12)"  stroke="rgb(255,12,12)" stroke-width="1" font-size="16" >OH</text>
<text x="316.064566" y="106.856585" fill="rgb(255,12,12)"  stroke="rgb(255,12,12)" stroke-width="1" font-size="16" >O</text>
<text x="119.489588" y="228.491972" fill="rgb(255,12,12)"  stroke="rgb(255,12,12)" stroke-width="1" font-size="16" >O</text>
<text x="74.094666" y="256.086383" fill="rgb(191,191,191)"  stroke="rgb(191,191,191)" stroke-width="1" font-size="16" >H</text>
<text x="36.400000" y="190.797306" fill="rgb(191,191,191)"  stroke="rgb(191,191,191)" stroke-width="1" font-size="16" >H</text>
<text x="74.094666" y="129.028228" fill="rgb(191,191,191)"  stroke="rgb(191,191,191)" stroke-width="1" font-size="16" >H</text>
<text x="147.083999" y="129.028228" fill="rgb(191,191,191)"  stroke="rgb(191,191,191)" stroke-width="1" font-size="16" >H</text>
<text x="152.177704" y="239.588092" fill="rgb(191,191,191)"  stroke="rgb(191,191,191)" stroke-width="1" font-size="16" >H</text>
<text font-size="18.000000" fill ="black" font-family="sans-serif"
x="140.000000" y="20.000000" ></text>
<title> - OBDepict</title>
</svg>
