<?xml version="1.0"?>
<svg xmlns="http://www.w3.org/2000/svg"
xmlns:xlink="http://www.w3.org/1999/xlink" xmlns:cml="http://www.xml-cml.org/schema" width="578.934" height="348.199" x="0" y="0" font-family="sans-serif" stroke="rgb(0,0,0)" stroke-width="1" >
<line x1="408.3" y1="49.9" x2="400.7" y2="77.9"/>
<line x1="362.8" y1="88.1" x2="355.3" y2="116.1"/>
<line x1="362.8" y1="88.1" x2="335.1" y2="60.3"/>
<line x1="362.1" y1="85.2" x2="400.0" y2="75.0"/>
<line x1="363.6" y1="91.0" x2="401.5" y2="80.8"/>
<line x1="335.1" y1="60.3" x2="307.0" y2="67.8"/>
<line x1="77.3" y1="296.1" x2="106.5" y2="269.8"/>
<line x1="77.3" y1="296.1" x2="49.7" y2="287.1"/>
<line x1="499.7" y1="264.2" x2="480.1" y2="230.2"/>
<line x1="499.7" y1="264.2" x2="528.7" y2="264.2"/>
<line x1="428.5" y1="105.7" x2="400.7" y2="77.9"/>
<line x1="428.5" y1="105.7" x2="421.0" y2="133.7"/>
<polygon points="111.956312 295.531219 110.402002 268.979827 102.576821 270.643121 " />
<polygon points="506.360168 230.185201 480.065828 226.185201 480.065828 234.185201 " />
<line x1="61.8" y1="257.8" x2="61.3" y2="257.2"/>
<line x1="65.0" y1="255.4" x2="63.9" y2="254.2"/>
<line x1="68.2" y1="253.1" x2="66.6" y2="251.3"/>
<line x1="71.4" y1="250.8" x2="69.2" y2="248.4"/>
<line x1="74.6" y1="248.4" x2="71.9" y2="245.5"/>
<line x1="77.8" y1="246.1" x2="74.5" y2="242.5"/>
<line x1="80.9" y1="243.8" x2="77.2" y2="239.6"/>
<line x1="80.2" y1="240.6" x2="52.6" y2="231.7"/>
<line x1="459.0" y1="271.4" x2="458.3" y2="271.8"/>
<line x1="457.4" y1="267.8" x2="456.0" y2="268.6"/>
<line x1="455.8" y1="264.2" x2="453.7" y2="265.4"/>
<line x1="454.1" y1="260.6" x2="451.4" y2="262.2"/>
<line x1="452.5" y1="257.0" x2="449.1" y2="259.0"/>
<line x1="450.9" y1="253.4" x2="446.7" y2="255.8"/>
<line x1="449.3" y1="249.8" x2="444.4" y2="252.6"/>
<line x1="446.1" y1="249.8" x2="431.6" y2="275.0"/>
<polygon points="67.349247 195.196665 91.120583 207.126289 93.592719 199.517837 " />
<line x1="92.4" y1="203.3" x2="86.3" y2="174.9"/>
<polygon points="398.943834 252.956767 415.555106 232.185201 408.626902 228.185201 " />
<line x1="412.1" y1="230.2" x2="383.0" y2="230.2"/>
<line x1="125.1" y1="170.7" x2="125.9" y2="170.5"/>
<line x1="125.6" y1="174.6" x2="127.1" y2="174.3"/>
<line x1="126.0" y1="178.5" x2="128.3" y2="178.0"/>
<line x1="126.4" y1="182.4" x2="129.5" y2="181.8"/>
<line x1="126.8" y1="186.4" x2="130.7" y2="185.5"/>
<line x1="127.3" y1="190.3" x2="131.9" y2="189.3"/>
<line x1="127.7" y1="194.2" x2="133.2" y2="193.0"/>
<line x1="130.7" y1="195.2" x2="152.3" y2="175.7"/>
<line x1="387.0" y1="191.3" x2="387.0" y2="190.5"/>
<line x1="390.9" y1="191.7" x2="390.9" y2="190.1"/>
<line x1="394.8" y1="192.1" x2="394.8" y2="189.7"/>
<line x1="398.7" y1="192.5" x2="398.7" y2="189.3"/>
<line x1="402.7" y1="192.9" x2="402.7" y2="188.9"/>
<line x1="406.6" y1="193.3" x2="406.6" y2="188.5"/>
<line x1="410.5" y1="193.7" x2="410.5" y2="188.1"/>
<line x1="412.1" y1="190.9" x2="397.6" y2="165.8"/>
<line x1="287.0" y1="108.4" x2="294.5" y2="80.3"/>
<line x1="171.6" y1="244.8" x2="170.9" y2="245.3"/>
<line x1="169.7" y1="241.3" x2="168.3" y2="242.2"/>
<line x1="167.8" y1="237.9" x2="165.8" y2="239.2"/>
<line x1="165.9" y1="234.4" x2="163.2" y2="236.2"/>
<line x1="164.0" y1="231.0" x2="160.7" y2="233.2"/>
<line x1="162.1" y1="227.5" x2="158.1" y2="230.2"/>
<line x1="160.2" y1="224.0" x2="155.6" y2="227.2"/>
<line x1="157.0" y1="224.3" x2="188.6" y2="175.6"/>
<line x1="469.1" y1="161.3" x2="469.4" y2="162.1"/>
<line x1="465.4" y1="162.5" x2="466.0" y2="163.9"/>
<line x1="461.6" y1="163.6" x2="462.5" y2="165.8"/>
<line x1="457.8" y1="164.7" x2="459.0" y2="167.7"/>
<line x1="454.0" y1="165.9" x2="455.5" y2="169.6"/>
<line x1="450.2" y1="167.0" x2="452.1" y2="171.4"/>
<line x1="446.5" y1="168.1" x2="448.6" y2="173.3"/>
<line x1="446.1" y1="171.3" x2="425.5" y2="150.8"/>
<line x1="185.7" y1="121.9" x2="208.3" y2="103.6"/>
<line x1="194.9" y1="123.7" x2="211.2" y2="110.5"/>
<line x1="224.7" y1="102.7" x2="249.1" y2="118.5"/>
<line x1="249.1" y1="118.5" x2="238.9" y2="156.4"/>
<line x1="238.9" y1="156.4" x2="209.9" y2="158.0"/>
<line x1="196.1" y1="149.0" x2="185.7" y2="121.9"/>
<line x1="249.1" y1="118.5" x2="287.0" y2="108.4"/>
<line x1="256.8" y1="123.9" x2="283.1" y2="116.9"/>
<line x1="287.0" y1="108.4" x2="307.5" y2="128.9"/>
<line x1="312.1" y1="146.0" x2="304.6" y2="174.0"/>
<line x1="304.6" y1="146.1" x2="299.2" y2="166.4"/>
<line x1="304.6" y1="174.0" x2="276.6" y2="181.6"/>
<line x1="259.5" y1="177.0" x2="238.9" y2="156.4"/>
<line x1="263.1" y1="170.4" x2="248.3" y2="155.6"/>
<line x1="92.4" y1="203.3" x2="130.7" y2="195.2"/>
<line x1="130.7" y1="195.2" x2="157.0" y2="224.3"/>
<line x1="157.0" y1="224.3" x2="148.0" y2="251.9"/>
<line x1="134.9" y1="263.8" x2="106.5" y2="269.8"/>
<line x1="106.5" y1="269.8" x2="80.2" y2="240.6"/>
<line x1="80.2" y1="240.6" x2="92.4" y2="203.3"/>
<line x1="412.1" y1="230.2" x2="412.1" y2="190.9"/>
<line x1="412.1" y1="190.9" x2="446.1" y2="171.3"/>
<line x1="446.1" y1="171.3" x2="471.2" y2="185.8"/>
<line x1="480.1" y1="201.1" x2="480.1" y2="230.2"/>
<line x1="480.1" y1="230.2" x2="446.1" y2="249.8"/>
<line x1="446.1" y1="249.8" x2="412.1" y2="230.2"/>
<text x="404.892058" y="48.320000" fill="rgb(102,102,102)"  stroke="rgb(102,102,102)" stroke-width="1" font-size="16" >CH</text>
<text x="428.892058" y="56.000000" fill="rgb(102,102,102)"  stroke="rgb(102,102,102)" stroke-width="1" font-size="13" >3</text>
<text x="281.567961" y="78.792280" fill="rgb(12,12,255)"  stroke="rgb(12,12,255)" stroke-width="1" font-size="16" >HN</text>
<text x="308.761140" y="144.450918" fill="rgb(12,12,255)"  stroke="rgb(12,12,255)" stroke-width="1" font-size="16" >N</text>
<text x="263.095681" y="188.996377" fill="rgb(12,12,255)"  stroke="rgb(12,12,255)" stroke-width="1" font-size="16" >N</text>
<text x="212.588638" y="105.483226" fill="rgb(12,12,255)"  stroke="rgb(12,12,255)" stroke-width="1" font-size="16" >N</text>
<text x="193.753576" y="166.819711" fill="rgb(12,12,255)"  stroke="rgb(12,12,255)" stroke-width="1" font-size="16" >N</text>
<text x="24.400000" y="292.264234" fill="rgb(255,12,12)"  stroke="rgb(255,12,12)" stroke-width="1" font-size="16" >HO</text>
<text x="532.933753" y="272.492613" fill="rgb(255,12,12)"  stroke="rgb(255,12,12)" stroke-width="1" font-size="16" >OH</text>
<text x="27.304709" y="236.839085" fill="rgb(255,12,12)"  stroke="rgb(255,12,12)" stroke-width="1" font-size="16" >HO</text>
<text x="410.855775" y="288.595254" fill="rgb(255,12,12)"  stroke="rgb(255,12,12)" stroke-width="1" font-size="16" >HO</text>
<text x="68.597097" y="173.254383" fill="rgb(255,12,12)"  stroke="rgb(255,12,12)" stroke-width="1" font-size="16" >HO</text>
<text x="357.245721" y="234.985201" fill="rgb(255,12,12)"  stroke="rgb(255,12,12)" stroke-width="1" font-size="16" >HO</text>
<text x="153.909259" y="177.222290" fill="rgb(255,12,12)"  stroke="rgb(255,12,12)" stroke-width="1" font-size="16" >OH</text>
<text x="376.868362" y="165.272506" fill="rgb(255,12,12)"  stroke="rgb(255,12,12)" stroke-width="1" font-size="16" >HO</text>
<text x="414.727810" y="148.366671" fill="rgb(255,12,12)"  stroke="rgb(255,12,12)" stroke-width="1" font-size="16" >O</text>
<text x="138.877091" y="266.451921" fill="rgb(255,12,12)"  stroke="rgb(255,12,12)" stroke-width="1" font-size="16" >O</text>
<text x="474.065828" y="199.259918" fill="rgb(255,12,12)"  stroke="rgb(255,12,12)" stroke-width="1" font-size="16" >O</text>
<text x="349.069172" y="130.773492" fill="rgb(191,191,191)"  stroke="rgb(191,191,191)" stroke-width="1" font-size="16" >H</text>
<text x="108.648964" y="312.999153" fill="rgb(191,191,191)"  stroke="rgb(191,191,191)" stroke-width="1" font-size="16" >H</text>
<text x="513.311111" y="238.505201" fill="rgb(191,191,191)"  stroke="rgb(191,191,191)" stroke-width="1" font-size="16" >H</text>
<text x="47.464262" y="271.706765" fill="rgb(191,191,191)"  stroke="rgb(191,191,191)" stroke-width="1" font-size="16" >H</text>
<text x="459.701058" y="288.595254" fill="rgb(191,191,191)"  stroke="rgb(191,191,191)" stroke-width="1" font-size="16" >H</text>
<text x="51.432168" y="199.514603" fill="rgb(191,191,191)"  stroke="rgb(191,191,191)" stroke-width="1" font-size="16" >H</text>
<text x="388.868362" y="268.972613" fill="rgb(191,191,191)"  stroke="rgb(191,191,191)" stroke-width="1" font-size="16" >H</text>
<text x="118.984777" y="165.094830" fill="rgb(191,191,191)"  stroke="rgb(191,191,191)" stroke-width="1" font-size="16" >H</text>
<text x="369.245721" y="195.739918" fill="rgb(191,191,191)"  stroke="rgb(191,191,191)" stroke-width="1" font-size="16" >H</text>
<text x="173.233323" y="261.470504" fill="rgb(191,191,191)"  stroke="rgb(191,191,191)" stroke-width="1" font-size="16" >H</text>
<text x="476.336330" y="164.618757" fill="rgb(191,191,191)"  stroke="rgb(191,191,191)" stroke-width="1" font-size="16" >H</text>
<text font-size="18.000000" fill ="black" font-family="sans-serif"
x="140.000000" y="20.000000" ></text>
<title> - OBDepict</title>
</svg>
