<?xml version="1.0"?>
<svg xmlns="http://www.w3.org/2000/svg"
xmlns:xlink="http://www.w3.org/1999/xlink" xmlns:cml="http://www.xml-cml.org/schema" width="555.32" height="330.446" x="0" y="0" font-family="sans-serif" stroke="rgb(0,0,0)" stroke-width="1" >
<line x1="194.1" y1="164.6" x2="207.9" y2="188.6"/>
<line x1="72.0" y1="266.9" x2="96.0" y2="253.1"/>
<polygon points="412.032232 113.993725 416.400756 139.792777 423.991594 137.267073 " />
<polygon points="314.925624 169.963104 310.897562 221.678431 318.897561 221.682771 " />
<line x1="151.9" y1="220.8" x2="189.3" y2="220.9"/>
<line x1="151.9" y1="220.8" x2="133.3" y2="253.2"/>
<line x1="189.3" y1="220.9" x2="207.9" y2="188.6"/>
<line x1="133.3" y1="253.2" x2="96.0" y2="253.1"/>
<line x1="77.3" y1="220.8" x2="96.0" y2="253.1"/>
<line x1="77.3" y1="220.8" x2="49.7" y2="220.8"/>
<line x1="228.8" y1="200.2" x2="228.4" y2="200.9"/>
<line x1="225.8" y1="198.0" x2="225.0" y2="199.3"/>
<line x1="222.7" y1="195.7" x2="221.5" y2="197.8"/>
<line x1="219.7" y1="193.5" x2="218.1" y2="196.3"/>
<line x1="216.7" y1="191.3" x2="214.7" y2="194.8"/>
<line x1="213.7" y1="189.1" x2="211.3" y2="193.3"/>
<line x1="210.6" y1="186.9" x2="207.8" y2="191.7"/>
<line x1="207.9" y1="188.6" x2="282.6" y2="188.6"/>
<polygon points="420.243083 52.080623 408.258472 75.340979 415.846564 77.874919 " />
<polygon points="502.583446 76.622551 476.721532 72.643042 476.727872 80.643040 " />
<line x1="476.7" y1="76.6" x2="491.0" y2="51.9"/>
<line x1="282.9" y1="213.3" x2="282.1" y2="213.3"/>
<line x1="283.3" y1="209.4" x2="281.7" y2="209.4"/>
<line x1="283.7" y1="205.6" x2="281.3" y2="205.6"/>
<line x1="284.1" y1="201.7" x2="280.9" y2="201.7"/>
<line x1="284.5" y1="197.9" x2="280.5" y2="197.9"/>
<line x1="284.9" y1="194.0" x2="280.1" y2="194.0"/>
<line x1="285.4" y1="190.2" x2="279.8" y2="190.1"/>
<line x1="336.1" y1="119.9" x2="336.5" y2="120.6"/>
<line x1="332.6" y1="121.5" x2="333.4" y2="122.9"/>
<line x1="329.0" y1="123.1" x2="330.2" y2="125.1"/>
<line x1="325.5" y1="124.6" x2="327.1" y2="127.4"/>
<line x1="322.0" y1="126.2" x2="324.0" y2="129.7"/>
<line x1="318.4" y1="127.8" x2="320.8" y2="132.0"/>
<line x1="314.9" y1="129.4" x2="317.7" y2="134.3"/>
<line x1="379.3" y1="108.7" x2="380.1" y2="108.7"/>
<line x1="378.9" y1="112.5" x2="380.5" y2="112.5"/>
<line x1="378.5" y1="116.2" x2="380.9" y2="116.2"/>
<line x1="378.1" y1="119.9" x2="381.3" y2="119.9"/>
<line x1="377.7" y1="123.7" x2="381.7" y2="123.7"/>
<line x1="377.3" y1="127.4" x2="382.1" y2="127.4"/>
<line x1="376.9" y1="131.1" x2="382.5" y2="131.1"/>
<line x1="347.3" y1="76.6" x2="333.1" y2="51.8"/>
<line x1="347.3" y1="76.6" x2="318.8" y2="76.5"/>
<polygon points="334.332710 211.026901 350.737252 190.641463 343.811220 186.637704 " />
<line x1="347.3" y1="188.6" x2="361.5" y2="213.4"/>
<polygon points="347.301184 138.976735 351.314758 113.960779 343.314759 113.956438 " />
<line x1="96.0" y1="253.1" x2="95.9" y2="280.7"/>
<line x1="250.3" y1="169.9" x2="250.3" y2="132.6"/>
<line x1="250.3" y1="132.6" x2="314.9" y2="132.6"/>
<line x1="314.9" y1="132.6" x2="314.9" y2="170.0"/>
<line x1="314.9" y1="170.0" x2="282.6" y2="188.6"/>
<line x1="282.6" y1="188.6" x2="250.3" y2="169.9"/>
<line x1="379.7" y1="57.9" x2="412.1" y2="76.6"/>
<line x1="412.1" y1="76.6" x2="412.0" y2="114.0"/>
<line x1="412.0" y1="114.0" x2="379.7" y2="132.6"/>
<line x1="379.7" y1="132.6" x2="347.3" y2="114.0"/>
<line x1="347.3" y1="114.0" x2="347.3" y2="76.6"/>
<line x1="347.3" y1="76.6" x2="379.7" y2="57.9"/>
<line x1="379.6" y1="170.0" x2="347.3" y2="188.6"/>
<line x1="347.3" y1="188.6" x2="314.9" y2="170.0"/>
<line x1="314.9" y1="132.6" x2="347.3" y2="114.0"/>
<line x1="379.7" y1="132.6" x2="379.6" y2="170.0"/>
<line x1="476.7" y1="114.0" x2="444.4" y2="132.7"/>
<line x1="444.4" y1="132.7" x2="412.0" y2="114.0"/>
<line x1="412.1" y1="76.6" x2="444.4" y2="58.0"/>
<line x1="444.4" y1="58.0" x2="476.7" y2="76.6"/>
<line x1="476.7" y1="76.6" x2="476.7" y2="114.0"/>
<text x="165.689979" y="164.559214" fill="rgb(102,102,102)"  stroke="rgb(102,102,102)" stroke-width="1" font-size="16" >H</text>
<text x="177.689979" y="172.239214" fill="rgb(102,102,102)"  stroke="rgb(102,102,102)" stroke-width="1" font-size="13" >3</text>
<text x="184.189979" y="164.559214" fill="rgb(102,102,102)"  stroke="rgb(102,102,102)" stroke-width="1" font-size="16" >C</text>
<text x="40.028298" y="276.571833" fill="rgb(102,102,102)"  stroke="rgb(102,102,102)" stroke-width="1" font-size="16" >H</text>
<text x="52.028298" y="281.371833" fill="rgb(102,102,102)"  stroke="rgb(102,102,102)" stroke-width="1" font-size="13" >3</text>
<text x="58.528298" y="276.571833" fill="rgb(102,102,102)"  stroke="rgb(102,102,102)" stroke-width="1" font-size="16" >C</text>
<text x="418.217221" y="155.414919" fill="rgb(102,102,102)"  stroke="rgb(102,102,102)" stroke-width="1" font-size="16" >CH</text>
<text x="442.217221" y="160.214919" fill="rgb(102,102,102)"  stroke="rgb(102,102,102)" stroke-width="1" font-size="13" >3</text>
<text x="308.883740" y="251.953398" fill="rgb(102,102,102)"  stroke="rgb(102,102,102)" stroke-width="1" font-size="16" >CH</text>
<text x="332.883740" y="256.753398" fill="rgb(102,102,102)"  stroke="rgb(102,102,102)" stroke-width="1" font-size="13" >3</text>
<text x="24.400000" y="229.107498" fill="rgb(255,12,12)"  stroke="rgb(255,12,12)" stroke-width="1" font-size="16" >HO</text>
<text x="489.995787" y="51.523377" fill="rgb(255,12,12)"  stroke="rgb(255,12,12)" stroke-width="1" font-size="16" >OH</text>
<text x="293.139940" y="84.832081" fill="rgb(255,12,12)"  stroke="rgb(255,12,12)" stroke-width="1" font-size="16" >HO</text>
<text x="360.553673" y="226.874433" fill="rgb(255,12,12)"  stroke="rgb(255,12,12)" stroke-width="1" font-size="16" >OH</text>
<text x="89.932810" y="295.246232" fill="rgb(255,12,12)"  stroke="rgb(255,12,12)" stroke-width="1" font-size="16" >OH</text>
<text x="234.233821" y="212.038371" fill="rgb(191,191,191)"  stroke="rgb(191,191,191)" stroke-width="1" font-size="16" >H</text>
<text x="418.277243" y="48.320000" fill="rgb(191,191,191)"  stroke="rgb(191,191,191)" stroke-width="1" font-size="16" >H</text>
<text x="509.319843" y="84.932459" fill="rgb(191,191,191)"  stroke="rgb(191,191,191)" stroke-width="1" font-size="16" >H</text>
<text x="276.488982" y="231.999560" fill="rgb(191,191,191)"  stroke="rgb(191,191,191)" stroke-width="1" font-size="16" >H</text>
<text x="342.359247" y="121.603296" fill="rgb(191,191,191)"  stroke="rgb(191,191,191)" stroke-width="1" font-size="16" >H</text>
<text x="373.683644" y="103.591957" fill="rgb(191,191,191)"  stroke="rgb(191,191,191)" stroke-width="1" font-size="16" >H</text>
<text x="324.490105" y="51.438115" fill="rgb(191,191,191)"  stroke="rgb(191,191,191)" stroke-width="1" font-size="16" >H</text>
<text x="324.358526" y="226.853490" fill="rgb(191,191,191)"  stroke="rgb(191,191,191)" stroke-width="1" font-size="16" >H</text>
<text x="341.294497" y="156.099096" fill="rgb(191,191,191)"  stroke="rgb(191,191,191)" stroke-width="1" font-size="16" >H</text>
<text font-size="18.000000" fill ="black" font-family="sans-serif"
x="140.000000" y="20.000000" ></text>
<title> - OBDepict</title>
</svg>
