<?xml version="1.0"?>
<svg xmlns="http://www.w3.org/2000/svg"
xmlns:xlink="http://www.w3.org/1999/xlink" xmlns:cml="http://www.xml-cml.org/schema" width="277.057" height="293.041" x="0" y="0" font-family="sans-serif" stroke="rgb(0,0,0)" stroke-width="1" >
<line x1="78.6" y1="248.1" x2="58.4" y2="228.0"/>
<line x1="82.8" y1="243.8" x2="62.7" y2="223.7"/>
<line x1="218.0" y1="48.7" x2="203.7" y2="73.3"/>
<line x1="189.5" y1="48.7" x2="203.7" y2="73.3"/>
<polygon points="70.513590 188.693285 52.504530 169.832558 47.634439 176.179384 " />
<polygon points="170.439598 131.000977 166.439598 182.539439 174.439598 182.539439 " />
<polygon points="103.822259 131.000977 83.505451 114.652260 79.505451 121.580463 " />
<line x1="60.6" y1="225.8" x2="70.5" y2="188.7"/>
<line x1="170.4" y1="92.5" x2="170.4" y2="64.1"/>
<line x1="137.1" y1="150.2" x2="161.8" y2="164.5"/>
<line x1="237.1" y1="131.0" x2="203.7" y2="150.2"/>
<line x1="203.7" y1="150.2" x2="170.4" y2="131.0"/>
<line x1="170.4" y1="131.0" x2="170.4" y2="92.5"/>
<line x1="170.4" y1="92.5" x2="203.7" y2="73.3"/>
<line x1="203.7" y1="73.3" x2="237.1" y2="92.5"/>
<line x1="237.1" y1="92.5" x2="237.1" y2="131.0"/>
<line x1="103.8" y1="92.5" x2="137.1" y2="73.3"/>
<line x1="137.1" y1="73.3" x2="170.4" y2="92.5"/>
<line x1="170.4" y1="131.0" x2="137.1" y2="150.2"/>
<line x1="137.1" y1="150.2" x2="103.8" y2="131.0"/>
<line x1="103.8" y1="131.0" x2="103.8" y2="92.5"/>
<line x1="70.5" y1="188.7" x2="70.5" y2="160.2"/>
<line x1="79.2" y1="145.2" x2="103.8" y2="131.0"/>
<line x1="137.1" y1="150.2" x2="137.1" y2="188.7"/>
<line x1="137.1" y1="188.7" x2="103.8" y2="207.9"/>
<line x1="103.8" y1="207.9" x2="70.5" y2="188.7"/>
<text x="81.755426" y="257.840693" fill="rgb(102,102,102)"  stroke="rgb(102,102,102)" stroke-width="1" font-size="16" >CH</text>
<text x="105.755426" y="262.640693" fill="rgb(102,102,102)"  stroke="rgb(102,102,102)" stroke-width="1" font-size="13" >2</text>
<text x="216.979037" y="48.320000" fill="rgb(102,102,102)"  stroke="rgb(102,102,102)" stroke-width="1" font-size="16" >CH</text>
<text x="240.979037" y="56.000000" fill="rgb(102,102,102)"  stroke="rgb(102,102,102)" stroke-width="1" font-size="13" >3</text>
<text x="160.917498" y="48.320000" fill="rgb(102,102,102)"  stroke="rgb(102,102,102)" stroke-width="1" font-size="16" >H</text>
<text x="172.917498" y="56.000000" fill="rgb(102,102,102)"  stroke="rgb(102,102,102)" stroke-width="1" font-size="13" >3</text>
<text x="179.417498" y="48.320000" fill="rgb(102,102,102)"  stroke="rgb(102,102,102)" stroke-width="1" font-size="16" >C</text>
<text x="16.400000" y="173.599384" fill="rgb(102,102,102)"  stroke="rgb(102,102,102)" stroke-width="1" font-size="16" >H</text>
<text x="28.400000" y="181.279384" fill="rgb(102,102,102)"  stroke="rgb(102,102,102)" stroke-width="1" font-size="13" >3</text>
<text x="34.900000" y="173.599384" fill="rgb(102,102,102)"  stroke="rgb(102,102,102)" stroke-width="1" font-size="16" >C</text>
<text x="164.439598" y="212.724054" fill="rgb(102,102,102)"  stroke="rgb(102,102,102)" stroke-width="1" font-size="16" >CH</text>
<text x="188.439598" y="217.524054" fill="rgb(102,102,102)"  stroke="rgb(102,102,102)" stroke-width="1" font-size="13" >3</text>
<text x="46.913590" y="120.090208" fill="rgb(102,102,102)"  stroke="rgb(102,102,102)" stroke-width="1" font-size="16" >H</text>
<text x="58.913590" y="127.770208" fill="rgb(102,102,102)"  stroke="rgb(102,102,102)" stroke-width="1" font-size="13" >3</text>
<text x="65.413590" y="120.090208" fill="rgb(102,102,102)"  stroke="rgb(102,102,102)" stroke-width="1" font-size="16" >C</text>
<text x="66.913590" y="158.551746" fill="rgb(255,12,12)"  stroke="rgb(255,12,12)" stroke-width="1" font-size="16" >O</text>
<text x="164.439598" y="62.397900" fill="rgb(191,191,191)"  stroke="rgb(191,191,191)" stroke-width="1" font-size="16" >H</text>
<text x="164.439598" y="174.262516" fill="rgb(191,191,191)"  stroke="rgb(191,191,191)" stroke-width="1" font-size="16" >H</text>
<text font-size="18.000000" fill ="black" font-family="sans-serif"
x="140.000000" y="20.000000" ></text>
<title> - OBDepict</title>
</svg>
