<?xml version="1.0"?>
<svg xmlns="http://www.w3.org/2000/svg"
xmlns:xlink="http://www.w3.org/1999/xlink" xmlns:cml="http://www.xml-cml.org/schema" width="218.564" height="260" x="0" y="0" font-family="sans-serif" stroke="rgb(0,0,0)" stroke-width="1" >
<line x1="74.6" y1="209.6" x2="74.6" y2="180.0"/>
<line x1="74.6" y1="60.0" x2="74.6" y2="100.0"/>
<line x1="74.6" y1="60.0" x2="100.3" y2="45.2"/>
<line x1="143.9" y1="100.0" x2="109.3" y2="120.0"/>
<line x1="145.4" y1="97.4" x2="171.1" y2="112.2"/>
<line x1="142.4" y1="102.6" x2="168.1" y2="117.4"/>
<line x1="109.3" y1="160.0" x2="134.9" y2="174.8"/>
<line x1="74.6" y1="180.0" x2="49.0" y2="165.2"/>
<line x1="40.0" y1="149.6" x2="40.0" y2="120.0"/>
<line x1="47.2" y1="147.6" x2="47.2" y2="126.0"/>
<line x1="40.0" y1="120.0" x2="74.6" y2="100.0"/>
<line x1="74.6" y1="100.0" x2="109.3" y2="120.0"/>
<line x1="76.2" y1="109.2" x2="100.5" y2="123.2"/>
<line x1="109.3" y1="120.0" x2="109.3" y2="160.0"/>
<line x1="109.3" y1="160.0" x2="74.6" y2="180.0"/>
<line x1="100.5" y1="156.8" x2="76.2" y2="170.8"/>
<text x="68.641016" y="224.800000" fill="rgb(102,102,102)"  stroke="rgb(102,102,102)" stroke-width="1" font-size="16" >CH</text>
<text x="92.641016" y="229.600000" fill="rgb(102,102,102)"  stroke="rgb(102,102,102)" stroke-width="1" font-size="13" >3</text>
<text x="36.400000" y="164.800000" fill="rgb(12,12,255)"  stroke="rgb(12,12,255)" stroke-width="1" font-size="16" >N</text>
<text x="103.282032" y="48.320000" fill="rgb(255,12,12)"  stroke="rgb(255,12,12)" stroke-width="1" font-size="16" >OH</text>
<text x="172.564065" y="124.800000" fill="rgb(255,12,12)"  stroke="rgb(255,12,12)" stroke-width="1" font-size="16" >O</text>
<text x="137.923048" y="184.800000" fill="rgb(255,12,12)"  stroke="rgb(255,12,12)" stroke-width="1" font-size="16" >OH</text>
<text font-size="18.000000" fill ="black" font-family="sans-serif"
x="140.000000" y="20.000000" ></text>
<title> - OBDepict</title>
</svg>
