<?xml version="1.0"?>
<svg xmlns="http://www.w3.org/2000/svg"
xmlns:xlink="http://www.w3.org/1999/xlink" xmlns:cml="http://www.xml-cml.org/schema" width="218.564" height="280" x="0" y="0" font-family="sans-serif" stroke="rgb(0,0,0)" stroke-width="1" >
<line x1="100.3" y1="234.8" x2="74.6" y2="220.0"/>
<line x1="169.6" y1="45.2" x2="152.9" y2="54.8"/>
<line x1="74.6" y1="220.0" x2="49.0" y2="234.8"/>
<line x1="71.6" y1="220.0" x2="71.6" y2="180.0"/>
<line x1="77.6" y1="220.0" x2="77.6" y2="180.0"/>
<line x1="74.6" y1="180.0" x2="49.0" y2="165.2"/>
<line x1="74.6" y1="180.0" x2="109.3" y2="160.0"/>
<line x1="143.9" y1="100.0" x2="143.9" y2="70.4"/>
<line x1="143.9" y1="180.0" x2="143.9" y2="209.6"/>
<line x1="109.3" y1="120.0" x2="143.9" y2="100.0"/>
<line x1="143.9" y1="100.0" x2="178.6" y2="120.0"/>
<line x1="145.5" y1="109.2" x2="169.8" y2="123.2"/>
<line x1="178.6" y1="120.0" x2="178.6" y2="160.0"/>
<line x1="178.6" y1="160.0" x2="143.9" y2="180.0"/>
<line x1="169.8" y1="156.8" x2="145.5" y2="170.8"/>
<line x1="143.9" y1="180.0" x2="109.3" y2="160.0"/>
<line x1="109.3" y1="160.0" x2="109.3" y2="120.0"/>
<line x1="116.5" y1="154.0" x2="116.5" y2="126.0"/>
<text x="103.282032" y="244.800000" fill="rgb(102,102,102)"  stroke="rgb(102,102,102)" stroke-width="1" font-size="16" >CH</text>
<text x="127.282032" y="249.600000" fill="rgb(102,102,102)"  stroke="rgb(102,102,102)" stroke-width="1" font-size="13" >3</text>
<text x="172.564065" y="48.320000" fill="rgb(102,102,102)"  stroke="rgb(102,102,102)" stroke-width="1" font-size="16" >CH</text>
<text x="196.564065" y="56.000000" fill="rgb(102,102,102)"  stroke="rgb(102,102,102)" stroke-width="1" font-size="13" >3</text>
<text x="137.923048" y="224.800000" fill="rgb(255,12,12)"  stroke="rgb(255,12,12)" stroke-width="1" font-size="16" >OH</text>
<text x="140.323048" y="68.320000" fill="rgb(255,12,12)"  stroke="rgb(255,12,12)" stroke-width="1" font-size="16" >O</text>
<text x="36.400000" y="244.800000" fill="rgb(191,191,191)"  stroke="rgb(191,191,191)" stroke-width="1" font-size="16" >H</text>
<text x="36.400000" y="168.320000" fill="rgb(191,191,191)"  stroke="rgb(191,191,191)" stroke-width="1" font-size="16" >H</text>
<text font-size="18.000000" fill ="black" font-family="sans-serif"
x="140.000000" y="20.000000" ></text>
<title> - OBDepict</title>
</svg>
