<?xml version="1.0"?>
<svg xmlns="http://www.w3.org/2000/svg"
xmlns:xlink="http://www.w3.org/1999/xlink" xmlns:cml="http://www.xml-cml.org/schema" width="274.641" height="263.923" x="0" y="0" font-family="sans-serif" stroke="rgb(0,0,0)" stroke-width="1" >
<line x1="140.0" y1="80.0" x2="180.0" y2="80.0"/>
<line x1="140.0" y1="80.0" x2="125.2" y2="105.6"/>
<line x1="140.0" y1="149.3" x2="180.0" y2="149.3"/>
<line x1="140.0" y1="149.3" x2="125.2" y2="174.9"/>
<line x1="202.0" y1="66.9" x2="202.4" y2="67.5"/>
<line x1="198.3" y1="68.5" x2="199.1" y2="69.9"/>
<line x1="194.6" y1="70.2" x2="195.8" y2="72.2"/>
<line x1="191.0" y1="71.8" x2="192.6" y2="74.6"/>
<line x1="187.3" y1="73.5" x2="189.3" y2="76.9"/>
<line x1="183.6" y1="75.1" x2="186.0" y2="79.3"/>
<line x1="180.0" y1="76.8" x2="182.8" y2="81.6"/>
<line x1="180.0" y1="80.0" x2="200.0" y2="114.6"/>
<line x1="180.0" y1="80.0" x2="180.0" y2="50.4"/>
<line x1="180.0" y1="149.3" x2="200.0" y2="114.6"/>
<line x1="182.6" y1="147.8" x2="197.4" y2="173.4"/>
<line x1="177.4" y1="150.8" x2="192.2" y2="176.4"/>
<line x1="222.4" y1="127.1" x2="222.0" y2="127.8"/>
<line x1="219.1" y1="124.7" x2="218.3" y2="126.1"/>
<line x1="215.8" y1="122.4" x2="214.6" y2="124.5"/>
<line x1="212.6" y1="120.1" x2="211.0" y2="122.8"/>
<line x1="209.3" y1="117.7" x2="207.3" y2="121.2"/>
<line x1="206.0" y1="115.4" x2="203.6" y2="119.5"/>
<line x1="202.8" y1="113.0" x2="200.0" y2="117.9"/>
<line x1="200.0" y1="114.6" x2="225.6" y2="99.8"/>
<line x1="80.0" y1="154.3" x2="80.0" y2="173.5"/>
<line x1="50.4" y1="183.9" x2="69.6" y2="183.9"/>
<line x1="77.0" y1="213.5" x2="77.0" y2="194.3"/>
<line x1="83.0" y1="213.5" x2="83.0" y2="194.3"/>
<line x1="109.6" y1="183.9" x2="90.4" y2="183.9"/>
<text x="116.400000" y="119.441016" fill="rgb(127,178,255)"  stroke="rgb(127,178,255)" stroke-width="1" font-size="16" >F</text>
<text x="174.000000" y="48.320000" fill="rgb(255,12,12)"  stroke="rgb(255,12,12)" stroke-width="1" font-size="16" >OH</text>
<text x="194.000000" y="188.723048" fill="rgb(255,12,12)"  stroke="rgb(255,12,12)" stroke-width="1" font-size="16" >O</text>
<text x="228.641016" y="102.961016" fill="rgb(255,12,12)"  stroke="rgb(255,12,12)" stroke-width="1" font-size="16" >OH</text>
<text x="75.200000" y="137.523048" fill="rgb(255,12,12)"  stroke="rgb(255,12,12)" stroke-width="1" font-size="32" >-</text>
<text x="74.000000" y="152.243048" fill="rgb(255,12,12)"  stroke="rgb(255,12,12)" stroke-width="1" font-size="16" >O</text>
<text x="35.200000" y="203.123048" fill="rgb(255,12,12)"  stroke="rgb(255,12,12)" stroke-width="1" font-size="32" >-</text>
<text x="36.400000" y="188.723048" fill="rgb(255,12,12)"  stroke="rgb(255,12,12)" stroke-width="1" font-size="16" >O</text>
<text x="74.000000" y="228.723048" fill="rgb(255,12,12)"  stroke="rgb(255,12,12)" stroke-width="1" font-size="16" >O</text>
<text x="114.000000" y="188.723048" fill="rgb(255,12,12)"  stroke="rgb(255,12,12)" stroke-width="1" font-size="16" >O</text>
<text x="74.000000" y="188.723048" fill="rgb(255,127,0)"  stroke="rgb(255,127,0)" stroke-width="1" font-size="16" >P</text>
<text x="208.641016" y="68.320000" fill="rgb(191,191,191)"  stroke="rgb(191,191,191)" stroke-width="1" font-size="16" >H</text>
<text x="228.641016" y="139.441016" fill="rgb(191,191,191)"  stroke="rgb(191,191,191)" stroke-width="1" font-size="16" >H</text>
<text font-size="18.000000" fill ="black" font-family="sans-serif"
x="140.000000" y="20.000000" ></text>
<title> - OBDepict</title>
</svg>
