<?xml version="1.0"?>
<svg xmlns="http://www.w3.org/2000/svg"
xmlns:xlink="http://www.w3.org/1999/xlink" xmlns:cml="http://www.xml-cml.org/schema" width="304.702" height="236.762" x="0" y="0" font-family="sans-serif" stroke="rgb(0,0,0)" stroke-width="1" >
<line x1="50.2" y1="101.6" x2="69.0" y2="105.6"/>
<line x1="145.0" y1="86.4" x2="157.4" y2="124.4"/>
<line x1="145.0" y1="86.4" x2="105.9" y2="78.0"/>
<line x1="103.0" y1="79.0" x2="93.9" y2="50.8"/>
<line x1="108.7" y1="77.1" x2="99.6" y2="49.0"/>
<line x1="105.9" y1="78.0" x2="86.1" y2="100.0"/>
<line x1="133.9" y1="156.8" x2="157.4" y2="124.4"/>
<line x1="143.2" y1="156.1" x2="159.7" y2="133.5"/>
<line x1="157.4" y1="124.4" x2="195.4" y2="136.8"/>
<line x1="195.4" y1="136.8" x2="195.4" y2="176.8"/>
<line x1="195.4" y1="176.8" x2="167.3" y2="185.9"/>
<line x1="151.3" y1="180.7" x2="133.9" y2="156.8"/>
<line x1="264.7" y1="136.8" x2="264.7" y2="176.8"/>
<line x1="257.5" y1="142.8" x2="257.5" y2="170.8"/>
<line x1="264.7" y1="176.8" x2="230.1" y2="196.8"/>
<line x1="230.1" y1="196.8" x2="195.4" y2="176.8"/>
<line x1="228.5" y1="187.5" x2="204.2" y2="173.5"/>
<line x1="195.4" y1="136.8" x2="230.1" y2="116.8"/>
<line x1="204.2" y1="140.0" x2="228.5" y2="126.0"/>
<line x1="230.1" y1="116.8" x2="264.7" y2="136.8"/>
<text x="16.400000" y="107.771586" fill="rgb(102,102,102)"  stroke="rgb(102,102,102)" stroke-width="1" font-size="16" >H</text>
<text x="28.400000" y="115.451586" fill="rgb(102,102,102)"  stroke="rgb(102,102,102)" stroke-width="1" font-size="13" >3</text>
<text x="34.900000" y="107.771586" fill="rgb(102,102,102)"  stroke="rgb(102,102,102)" stroke-width="1" font-size="16" >C</text>
<text x="141.777712" y="193.922348" fill="rgb(12,12,255)"  stroke="rgb(12,12,255)" stroke-width="1" font-size="16" >HN</text>
<text x="89.930449" y="48.320000" fill="rgb(255,12,12)"  stroke="rgb(255,12,12)" stroke-width="1" font-size="16" >O</text>
<text x="73.125904" y="112.568054" fill="rgb(255,12,12)"  stroke="rgb(255,12,12)" stroke-width="1" font-size="16" >O</text>
<text font-size="18.000000" fill ="black" font-family="sans-serif"
x="140.000000" y="20.000000" ></text>
<title> - OBDepict</title>
</svg>
