<?xml version="1.0"?>
<svg xmlns="http://www.w3.org/2000/svg"
xmlns:xlink="http://www.w3.org/1999/xlink" xmlns:cml="http://www.xml-cml.org/schema" width="437.128" height="440" x="0" y="0" font-family="sans-serif" stroke="rgb(0,0,0)" stroke-width="1" >
<line x1="149.3" y1="389.6" x2="149.3" y2="360.0"/>
<line x1="149.3" y1="360.0" x2="114.6" y2="340.0"/>
<line x1="114.6" y1="340.0" x2="114.6" y2="300.0"/>
<line x1="218.6" y1="240.0" x2="218.6" y2="269.6"/>
<line x1="218.6" y1="240.0" x2="253.2" y2="220.0"/>
<line x1="217.1" y1="242.6" x2="182.4" y2="222.6"/>
<line x1="220.1" y1="237.4" x2="185.4" y2="217.4"/>
<line x1="253.2" y1="220.0" x2="253.2" y2="190.4"/>
<line x1="254.7" y1="217.4" x2="289.3" y2="237.4"/>
<line x1="251.7" y1="222.6" x2="286.3" y2="242.6"/>
<line x1="183.9" y1="220.0" x2="183.9" y2="190.4"/>
<line x1="183.9" y1="220.0" x2="149.3" y2="240.0"/>
<line x1="287.8" y1="240.0" x2="287.8" y2="269.6"/>
<line x1="287.8" y1="240.0" x2="322.5" y2="220.0"/>
<line x1="114.6" y1="300.0" x2="80.0" y2="280.0"/>
<line x1="149.3" y1="240.0" x2="149.3" y2="269.6"/>
<line x1="147.8" y1="242.6" x2="113.1" y2="222.6"/>
<line x1="150.8" y1="237.4" x2="116.1" y2="217.4"/>
<line x1="322.5" y1="220.0" x2="348.1" y2="234.8"/>
<line x1="319.5" y1="220.0" x2="319.5" y2="180.0"/>
<line x1="325.5" y1="220.0" x2="325.5" y2="180.0"/>
<line x1="287.8" y1="120.0" x2="322.5" y2="100.0"/>
<line x1="287.8" y1="120.0" x2="253.2" y2="100.0"/>
<line x1="80.0" y1="280.0" x2="80.0" y2="240.0"/>
<line x1="114.6" y1="220.0" x2="114.6" y2="190.4"/>
<line x1="114.6" y1="220.0" x2="80.0" y2="240.0"/>
<line x1="322.5" y1="180.0" x2="296.9" y2="165.2"/>
<line x1="322.5" y1="180.0" x2="357.1" y2="160.0"/>
<line x1="322.5" y1="100.0" x2="357.1" y2="120.0"/>
<line x1="253.2" y1="100.0" x2="253.2" y2="60.0"/>
<line x1="66.9" y1="218.0" x2="67.5" y2="217.6"/>
<line x1="68.5" y1="221.7" x2="69.9" y2="220.9"/>
<line x1="70.2" y1="225.4" x2="72.2" y2="224.2"/>
<line x1="71.8" y1="229.0" x2="74.6" y2="227.4"/>
<line x1="73.5" y1="232.7" x2="76.9" y2="230.7"/>
<line x1="75.1" y1="236.4" x2="79.3" y2="234.0"/>
<line x1="76.8" y1="240.0" x2="81.6" y2="237.2"/>
<line x1="80.0" y1="240.0" x2="50.4" y2="240.0"/>
<polygon points="383.928129 160.000000 357.128129 156.000000 357.128129 164.000000 " />
<line x1="357.1" y1="160.0" x2="357.1" y2="120.0"/>
<line x1="357.1" y1="160.0" x2="371.9" y2="185.6"/>
<line x1="369.6" y1="97.6" x2="370.3" y2="98.0"/>
<line x1="367.2" y1="100.9" x2="368.6" y2="101.7"/>
<line x1="364.9" y1="104.2" x2="367.0" y2="105.4"/>
<line x1="362.5" y1="107.4" x2="365.3" y2="109.0"/>
<line x1="360.2" y1="110.7" x2="363.7" y2="112.7"/>
<line x1="357.8" y1="114.0" x2="362.0" y2="116.4"/>
<line x1="355.5" y1="117.2" x2="360.4" y2="120.0"/>
<line x1="357.1" y1="120.0" x2="386.7" y2="120.0"/>
<line x1="251.7" y1="57.4" x2="277.3" y2="42.6"/>
<line x1="254.7" y1="62.6" x2="280.3" y2="47.8"/>
<line x1="253.2" y1="60.0" x2="227.6" y2="45.2"/>
<text x="143.282032" y="404.800000" fill="rgb(102,102,102)"  stroke="rgb(102,102,102)" stroke-width="1" font-size="16" >CH</text>
<text x="167.282032" y="409.600000" fill="rgb(102,102,102)"  stroke="rgb(102,102,102)" stroke-width="1" font-size="13" >3</text>
<text x="24.400000" y="244.800000" fill="rgb(255,12,12)"  stroke="rgb(255,12,12)" stroke-width="1" font-size="16" >HO</text>
<text x="371.128129" y="199.441016" fill="rgb(255,12,12)"  stroke="rgb(255,12,12)" stroke-width="1" font-size="16" >OH</text>
<text x="391.128129" y="124.800000" fill="rgb(255,12,12)"  stroke="rgb(255,12,12)" stroke-width="1" font-size="16" >OH</text>
<text x="281.846097" y="48.320000" fill="rgb(255,12,12)"  stroke="rgb(255,12,12)" stroke-width="1" font-size="16" >O</text>
<text x="202.964065" y="48.320000" fill="rgb(255,12,12)"  stroke="rgb(255,12,12)" stroke-width="1" font-size="16" >HO</text>
<text x="212.564065" y="284.800000" fill="rgb(191,191,191)"  stroke="rgb(191,191,191)" stroke-width="1" font-size="16" >H</text>
<text x="247.205081" y="188.320000" fill="rgb(191,191,191)"  stroke="rgb(191,191,191)" stroke-width="1" font-size="16" >H</text>
<text x="177.923048" y="188.320000" fill="rgb(191,191,191)"  stroke="rgb(191,191,191)" stroke-width="1" font-size="16" >H</text>
<text x="281.846097" y="284.800000" fill="rgb(191,191,191)"  stroke="rgb(191,191,191)" stroke-width="1" font-size="16" >H</text>
<text x="143.282032" y="284.800000" fill="rgb(191,191,191)"  stroke="rgb(191,191,191)" stroke-width="1" font-size="16" >H</text>
<text x="351.128129" y="244.800000" fill="rgb(191,191,191)"  stroke="rgb(191,191,191)" stroke-width="1" font-size="16" >H</text>
<text x="108.641016" y="188.320000" fill="rgb(191,191,191)"  stroke="rgb(191,191,191)" stroke-width="1" font-size="16" >H</text>
<text x="284.246097" y="168.320000" fill="rgb(191,191,191)"  stroke="rgb(191,191,191)" stroke-width="1" font-size="16" >H</text>
<text x="56.400000" y="213.678984" fill="rgb(191,191,191)"  stroke="rgb(191,191,191)" stroke-width="1" font-size="16" >H</text>
<text x="391.128129" y="164.800000" fill="rgb(191,191,191)"  stroke="rgb(191,191,191)" stroke-width="1" font-size="16" >H</text>
<text x="371.128129" y="93.678984" fill="rgb(191,191,191)"  stroke="rgb(191,191,191)" stroke-width="1" font-size="16" >H</text>
<text font-size="18.000000" fill ="black" font-family="sans-serif"
x="140.000000" y="20.000000" ></text>
<title> - OBDepict</title>
</svg>
