<?xml version="1.0"?>
<svg xmlns="http://www.w3.org/2000/svg"
xmlns:xlink="http://www.w3.org/1999/xlink" xmlns:cml="http://www.xml-cml.org/schema" width="334.369" height="551.558" x="0" y="0" font-family="sans-serif" stroke="rgb(0,0,0)" stroke-width="1" >
<line x1="50.0" y1="40.0" x2="78.6" y2="40.0"/>
<line x1="78.6" y1="40.0" x2="97.8" y2="73.4"/>
<line x1="97.8" y1="73.4" x2="136.4" y2="73.4"/>
<line x1="194.2" y1="376.6" x2="227.6" y2="395.9"/>
<line x1="194.2" y1="376.6" x2="194.2" y2="338.1"/>
<line x1="227.6" y1="395.9" x2="227.6" y2="434.5"/>
<line x1="136.4" y1="73.4" x2="155.7" y2="106.8"/>
<line x1="194.2" y1="338.1" x2="160.8" y2="318.8"/>
<line x1="227.6" y1="434.5" x2="261.0" y2="453.7"/>
<line x1="155.7" y1="106.8" x2="194.2" y2="106.8"/>
<line x1="160.8" y1="318.8" x2="160.8" y2="280.3"/>
<line x1="261.0" y1="453.7" x2="261.0" y2="492.3"/>
<line x1="194.2" y1="145.3" x2="218.9" y2="159.6"/>
<line x1="195.7" y1="147.9" x2="162.3" y2="167.2"/>
<line x1="192.7" y1="142.7" x2="159.3" y2="162.0"/>
<line x1="194.2" y1="145.3" x2="194.2" y2="106.8"/>
<line x1="160.8" y1="164.6" x2="136.1" y2="150.3"/>
<line x1="160.8" y1="164.6" x2="160.8" y2="241.7"/>
<polygon points="194.205139 80.941816 190.205467 106.771141 198.205467 106.771039 " />
<line x1="194.2" y1="106.8" x2="222.7" y2="106.8"/>
<polygon points="183.710329 293.461358 162.820791 276.787262 158.821992 283.716158 " />
<line x1="182.5" y1="228.7" x2="182.9" y2="229.4"/>
<line x1="178.9" y1="230.4" x2="179.7" y2="231.7"/>
<line x1="175.3" y1="232.0" x2="176.5" y2="234.1"/>
<line x1="171.6" y1="233.6" x2="173.2" y2="236.4"/>
<line x1="168.0" y1="235.2" x2="170.0" y2="238.7"/>
<line x1="164.4" y1="236.9" x2="166.8" y2="241.0"/>
<line x1="160.8" y1="238.5" x2="163.6" y2="243.3"/>
<polygon points="133.095875 325.344205 131.336634 298.673934 123.522681 300.389201 " />
<polygon points="133.094781 196.608884 123.521698 221.563930 131.335659 223.279162 " />
<line x1="262.5" y1="494.9" x2="237.8" y2="509.1"/>
<line x1="259.5" y1="489.7" x2="234.8" y2="503.9"/>
<line x1="261.0" y1="492.3" x2="285.7" y2="506.5"/>
<line x1="247.0" y1="82.1" x2="237.8" y2="98.1"/>
<line x1="160.8" y1="280.3" x2="160.8" y2="241.7"/>
<line x1="160.8" y1="241.7" x2="127.4" y2="222.4"/>
<line x1="127.4" y1="222.4" x2="110.5" y2="261.0"/>
<line x1="110.5" y1="261.0" x2="127.4" y2="299.5"/>
<line x1="127.4" y1="299.5" x2="160.8" y2="280.3"/>
<line x1="94.0" y1="270.2" x2="94.0" y2="251.7"/>
<line x1="102.7" y1="236.7" x2="127.4" y2="222.4"/>
<line x1="127.4" y1="299.5" x2="102.7" y2="285.3"/>
<text x="16.400000" y="44.800490" fill="rgb(102,102,102)"  stroke="rgb(102,102,102)" stroke-width="1" font-size="16" >H</text>
<text x="28.400000" y="49.600490" fill="rgb(102,102,102)"  stroke="rgb(102,102,102)" stroke-width="1" font-size="13" >3</text>
<text x="34.900000" y="44.800490" fill="rgb(102,102,102)"  stroke="rgb(102,102,102)" stroke-width="1" font-size="16" >C</text>
<text x="223.996888" y="516.357791" fill="rgb(255,12,12)"  stroke="rgb(255,12,12)" stroke-width="1" font-size="16" >O</text>
<text x="288.369447" y="516.356943" fill="rgb(255,12,12)"  stroke="rgb(255,12,12)" stroke-width="1" font-size="16" >OH</text>
<text x="246.031775" y="81.704076" fill="rgb(255,12,12)"  stroke="rgb(255,12,12)" stroke-width="1" font-size="16" >OH</text>
<text x="226.756622" y="111.570600" fill="rgb(255,12,12)"  stroke="rgb(255,12,12)" stroke-width="1" font-size="16" >O</text>
<text x="90.437435" y="285.052559" fill="rgb(255,12,12)"  stroke="rgb(255,12,12)" stroke-width="1" font-size="16" >O</text>
<text x="90.436945" y="250.021404" fill="rgb(255,12,12)"  stroke="rgb(255,12,12)" stroke-width="1" font-size="16" >O</text>
<text x="221.592481" y="169.397398" fill="rgb(191,191,191)"  stroke="rgb(191,191,191)" stroke-width="1" font-size="16" >H</text>
<text x="123.833398" y="153.643093" fill="rgb(191,191,191)"  stroke="rgb(191,191,191)" stroke-width="1" font-size="16" >H</text>
<text x="188.204978" y="76.539935" fill="rgb(191,191,191)"  stroke="rgb(191,191,191)" stroke-width="1" font-size="16" >H</text>
<text x="188.983984" y="304.767603" fill="rgb(191,191,191)"  stroke="rgb(191,191,191)" stroke-width="1" font-size="16" >H</text>
<text x="188.982994" y="230.303795" fill="rgb(191,191,191)"  stroke="rgb(191,191,191)" stroke-width="1" font-size="16" >H</text>
<text x="129.886699" y="342.857891" fill="rgb(191,191,191)"  stroke="rgb(191,191,191)" stroke-width="1" font-size="16" >H</text>
<text x="129.885548" y="192.215185" fill="rgb(191,191,191)"  stroke="rgb(191,191,191)" stroke-width="1" font-size="16" >H</text>
<text font-size="18.000000" fill ="black" font-family="sans-serif"
x="140.000000" y="20.000000" ></text>
<title> - OBDepict</title>
</svg>
