<?xml version="1.0"?>
<svg xmlns="http://www.w3.org/2000/svg"
xmlns:xlink="http://www.w3.org/1999/xlink" xmlns:cml="http://www.xml-cml.org/schema" width="668.897" height="360" x="0" y="0" font-family="sans-serif" stroke="rgb(0,0,0)" stroke-width="1" >
<line x1="386.4" y1="189.6" x2="386.4" y2="160.0"/>
<line x1="273.5" y1="214.8" x2="247.8" y2="200.0"/>
<line x1="490.3" y1="129.6" x2="490.3" y2="100.0"/>
<line x1="143.9" y1="230.4" x2="143.9" y2="260.0"/>
<line x1="619.9" y1="145.2" x2="603.3" y2="154.8"/>
<line x1="40.0" y1="170.4" x2="40.0" y2="189.6"/>
<line x1="317.1" y1="160.0" x2="317.1" y2="189.6"/>
<line x1="315.6" y1="162.6" x2="281.0" y2="142.6"/>
<line x1="318.6" y1="157.4" x2="284.0" y2="137.4"/>
<line x1="317.1" y1="160.0" x2="351.8" y2="140.0"/>
<line x1="282.5" y1="140.0" x2="282.5" y2="110.4"/>
<line x1="282.5" y1="140.0" x2="247.8" y2="160.0"/>
<line x1="421.1" y1="100.0" x2="395.4" y2="85.2"/>
<line x1="424.1" y1="100.0" x2="424.1" y2="140.0"/>
<line x1="418.1" y1="100.0" x2="418.1" y2="140.0"/>
<line x1="421.1" y1="100.0" x2="455.7" y2="80.0"/>
<line x1="213.2" y1="260.0" x2="238.8" y2="274.8"/>
<line x1="210.2" y1="260.0" x2="210.2" y2="220.0"/>
<line x1="216.2" y1="260.0" x2="216.2" y2="220.0"/>
<line x1="213.2" y1="260.0" x2="178.6" y2="280.0"/>
<line x1="351.8" y1="140.0" x2="351.8" y2="110.4"/>
<line x1="353.3" y1="137.4" x2="387.9" y2="157.4"/>
<line x1="350.3" y1="142.6" x2="384.9" y2="162.6"/>
<line x1="247.8" y1="160.0" x2="222.2" y2="145.2"/>
<line x1="250.8" y1="160.0" x2="250.8" y2="200.0"/>
<line x1="244.8" y1="160.0" x2="244.8" y2="200.0"/>
<line x1="421.1" y1="140.0" x2="446.7" y2="154.8"/>
<line x1="421.1" y1="140.0" x2="386.4" y2="160.0"/>
<line x1="213.2" y1="220.0" x2="187.6" y2="205.2"/>
<line x1="213.2" y1="220.0" x2="247.8" y2="200.0"/>
<line x1="455.7" y1="80.0" x2="455.7" y2="50.4"/>
<line x1="457.2" y1="77.4" x2="491.8" y2="97.4"/>
<line x1="454.2" y1="82.6" x2="488.8" y2="102.6"/>
<line x1="178.6" y1="280.0" x2="178.6" y2="309.6"/>
<line x1="177.1" y1="282.6" x2="142.4" y2="262.6"/>
<line x1="180.1" y1="277.4" x2="145.4" y2="257.4"/>
<line x1="525.0" y1="80.0" x2="525.0" y2="50.4"/>
<line x1="526.5" y1="77.4" x2="561.1" y2="97.4"/>
<line x1="523.5" y1="82.6" x2="558.1" y2="102.6"/>
<line x1="525.0" y1="80.0" x2="490.3" y2="100.0"/>
<line x1="109.3" y1="280.0" x2="109.3" y2="309.6"/>
<line x1="107.8" y1="282.6" x2="73.1" y2="262.6"/>
<line x1="110.8" y1="277.4" x2="76.1" y2="257.4"/>
<line x1="109.3" y1="280.0" x2="143.9" y2="260.0"/>
<line x1="559.6" y1="100.0" x2="585.2" y2="85.2"/>
<line x1="559.6" y1="100.0" x2="559.6" y2="140.0"/>
<line x1="74.6" y1="260.0" x2="49.0" y2="274.8"/>
<line x1="74.6" y1="260.0" x2="74.6" y2="220.0"/>
<line x1="561.1" y1="142.6" x2="535.5" y2="157.4"/>
<line x1="558.1" y1="137.4" x2="532.5" y2="152.2"/>
<line x1="559.6" y1="140.0" x2="585.2" y2="154.8"/>
<line x1="73.1" y1="217.4" x2="98.8" y2="202.6"/>
<line x1="76.1" y1="222.6" x2="101.8" y2="207.8"/>
<line x1="74.6" y1="220.0" x2="49.0" y2="205.2"/>
<text x="380.410162" y="204.800000" fill="rgb(102,102,102)"  stroke="rgb(102,102,102)" stroke-width="1" font-size="16" >CH</text>
<text x="404.410162" y="209.600000" fill="rgb(102,102,102)"  stroke="rgb(102,102,102)" stroke-width="1" font-size="13" >3</text>
<text x="276.487113" y="224.800000" fill="rgb(102,102,102)"  stroke="rgb(102,102,102)" stroke-width="1" font-size="16" >CH</text>
<text x="300.487113" y="229.600000" fill="rgb(102,102,102)"  stroke="rgb(102,102,102)" stroke-width="1" font-size="13" >3</text>
<text x="484.333210" y="144.800000" fill="rgb(102,102,102)"  stroke="rgb(102,102,102)" stroke-width="1" font-size="16" >CH</text>
<text x="508.333210" y="149.600000" fill="rgb(102,102,102)"  stroke="rgb(102,102,102)" stroke-width="1" font-size="13" >3</text>
<text x="137.923048" y="228.320000" fill="rgb(102,102,102)"  stroke="rgb(102,102,102)" stroke-width="1" font-size="16" >CH</text>
<text x="161.923048" y="236.000000" fill="rgb(102,102,102)"  stroke="rgb(102,102,102)" stroke-width="1" font-size="13" >3</text>
<text x="622.897275" y="148.320000" fill="rgb(102,102,102)"  stroke="rgb(102,102,102)" stroke-width="1" font-size="16" >CH</text>
<text x="646.897275" y="156.000000" fill="rgb(102,102,102)"  stroke="rgb(102,102,102)" stroke-width="1" font-size="13" >3</text>
<text x="34.000000" y="168.320000" fill="rgb(102,102,102)"  stroke="rgb(102,102,102)" stroke-width="1" font-size="16" >CH</text>
<text x="58.000000" y="176.000000" fill="rgb(102,102,102)"  stroke="rgb(102,102,102)" stroke-width="1" font-size="13" >3</text>
<text x="521.374226" y="164.800000" fill="rgb(255,12,12)"  stroke="rgb(255,12,12)" stroke-width="1" font-size="16" >O</text>
<text x="103.282032" y="208.320000" fill="rgb(255,12,12)"  stroke="rgb(255,12,12)" stroke-width="1" font-size="16" >O</text>
<text x="588.256258" y="164.800000" fill="rgb(255,12,12)"  stroke="rgb(255,12,12)" stroke-width="1" font-size="16" >O</text>
<text x="36.400000" y="204.800000" fill="rgb(255,12,12)"  stroke="rgb(255,12,12)" stroke-width="1" font-size="16" >O</text>
<text x="311.128129" y="204.800000" fill="rgb(191,191,191)"  stroke="rgb(191,191,191)" stroke-width="1" font-size="16" >H</text>
<text x="276.487113" y="108.320000" fill="rgb(191,191,191)"  stroke="rgb(191,191,191)" stroke-width="1" font-size="16" >H</text>
<text x="382.810162" y="88.320000" fill="rgb(191,191,191)"  stroke="rgb(191,191,191)" stroke-width="1" font-size="16" >H</text>
<text x="241.846097" y="284.800000" fill="rgb(191,191,191)"  stroke="rgb(191,191,191)" stroke-width="1" font-size="16" >H</text>
<text x="345.769145" y="108.320000" fill="rgb(191,191,191)"  stroke="rgb(191,191,191)" stroke-width="1" font-size="16" >H</text>
<text x="209.605081" y="148.320000" fill="rgb(191,191,191)"  stroke="rgb(191,191,191)" stroke-width="1" font-size="16" >H</text>
<text x="449.692194" y="164.800000" fill="rgb(191,191,191)"  stroke="rgb(191,191,191)" stroke-width="1" font-size="16" >H</text>
<text x="174.964065" y="208.320000" fill="rgb(191,191,191)"  stroke="rgb(191,191,191)" stroke-width="1" font-size="16" >H</text>
<text x="449.692194" y="48.320000" fill="rgb(191,191,191)"  stroke="rgb(191,191,191)" stroke-width="1" font-size="16" >H</text>
<text x="172.564065" y="324.800000" fill="rgb(191,191,191)"  stroke="rgb(191,191,191)" stroke-width="1" font-size="16" >H</text>
<text x="518.974226" y="48.320000" fill="rgb(191,191,191)"  stroke="rgb(191,191,191)" stroke-width="1" font-size="16" >H</text>
<text x="103.282032" y="324.800000" fill="rgb(191,191,191)"  stroke="rgb(191,191,191)" stroke-width="1" font-size="16" >H</text>
<text x="588.256258" y="88.320000" fill="rgb(191,191,191)"  stroke="rgb(191,191,191)" stroke-width="1" font-size="16" >H</text>
<text x="36.400000" y="284.800000" fill="rgb(191,191,191)"  stroke="rgb(191,191,191)" stroke-width="1" font-size="16" >H</text>
<text font-size="18.000000" fill ="black" font-family="sans-serif"
x="140.000000" y="20.000000" ></text>
<title> - OBDepict</title>
</svg>
