<?xml version="1.0"?>
<svg xmlns="http://www.w3.org/2000/svg"
xmlns:xlink="http://www.w3.org/1999/xlink" xmlns:cml="http://www.xml-cml.org/schema" width="426.41" height="307.846" x="0" y="0" font-family="sans-serif" stroke="rgb(0,0,0)" stroke-width="1" >
<line x1="377.4" y1="228.0" x2="351.8" y2="213.2"/>
<line x1="207.6" y1="94.5" x2="233.2" y2="109.3"/>
<line x1="233.2" y1="138.9" x2="233.2" y2="109.3"/>
<line x1="302.3" y1="258.8" x2="317.1" y2="233.2"/>
<line x1="351.8" y1="213.2" x2="317.1" y2="233.2"/>
<line x1="267.8" y1="89.3" x2="233.2" y2="109.3"/>
<line x1="267.8" y1="89.3" x2="302.5" y2="109.3"/>
<line x1="178.6" y1="153.2" x2="143.9" y2="133.2"/>
<line x1="178.6" y1="153.2" x2="178.6" y2="193.2"/>
<line x1="317.1" y1="233.2" x2="331.9" y2="258.8"/>
<line x1="317.1" y1="233.2" x2="282.5" y2="213.2"/>
<line x1="74.6" y1="93.2" x2="49.0" y2="78.4"/>
<polygon points="151.764065 193.205081 178.564065 197.205081 178.564065 189.205081 " />
<line x1="178.6" y1="193.2" x2="213.2" y2="213.2"/>
<line x1="178.6" y1="193.2" x2="163.8" y2="218.8"/>
<polygon points="325.696594 122.682032 304.487113 105.817931 300.487113 112.746134 " />
<line x1="302.5" y1="109.3" x2="322.5" y2="74.6"/>
<line x1="302.5" y1="109.3" x2="287.7" y2="134.9"/>
<polygon points="269.087113 236.414562 285.951215 215.205081 279.023011 211.205081 " />
<line x1="282.5" y1="213.2" x2="302.5" y2="178.6"/>
<line x1="282.5" y1="213.2" x2="256.9" y2="198.4"/>
<line x1="211.7" y1="210.6" x2="237.3" y2="195.8"/>
<line x1="214.7" y1="215.8" x2="240.3" y2="201.0"/>
<line x1="213.2" y1="213.2" x2="213.2" y2="242.8"/>
<line x1="299.9" y1="180.1" x2="285.1" y2="154.4"/>
<line x1="305.1" y1="177.1" x2="290.3" y2="151.4"/>
<line x1="302.5" y1="178.6" x2="332.1" y2="178.6"/>
<line x1="319.9" y1="76.1" x2="305.1" y2="50.5"/>
<line x1="325.1" y1="73.1" x2="310.3" y2="47.5"/>
<line x1="322.5" y1="74.6" x2="352.1" y2="74.6"/>
<line x1="109.3" y1="153.2" x2="143.9" y2="133.2"/>
<line x1="110.9" y1="144.0" x2="135.1" y2="130.0"/>
<line x1="143.9" y1="133.2" x2="143.9" y2="93.2"/>
<line x1="143.9" y1="93.2" x2="109.3" y2="73.2"/>
<line x1="135.1" y1="96.4" x2="110.9" y2="82.4"/>
<line x1="109.3" y1="73.2" x2="74.6" y2="93.2"/>
<line x1="74.6" y1="93.2" x2="74.6" y2="133.2"/>
<line x1="81.8" y1="99.2" x2="81.8" y2="127.2"/>
<line x1="74.6" y1="133.2" x2="109.3" y2="153.2"/>
<text x="380.410162" y="238.005081" fill="rgb(102,102,102)"  stroke="rgb(102,102,102)" stroke-width="1" font-size="16" >CH</text>
<text x="404.410162" y="242.805081" fill="rgb(102,102,102)"  stroke="rgb(102,102,102)" stroke-width="1" font-size="13" >3</text>
<text x="174.964065" y="97.602032" fill="rgb(102,102,102)"  stroke="rgb(102,102,102)" stroke-width="1" font-size="16" >H</text>
<text x="186.964065" y="105.282032" fill="rgb(102,102,102)"  stroke="rgb(102,102,102)" stroke-width="1" font-size="13" >3</text>
<text x="193.464065" y="97.602032" fill="rgb(102,102,102)"  stroke="rgb(102,102,102)" stroke-width="1" font-size="16" >C</text>
<text x="227.205081" y="154.082032" fill="rgb(102,102,102)"  stroke="rgb(102,102,102)" stroke-width="1" font-size="16" >CH</text>
<text x="251.205081" y="158.882032" fill="rgb(102,102,102)"  stroke="rgb(102,102,102)" stroke-width="1" font-size="13" >3</text>
<text x="273.528129" y="272.646097" fill="rgb(102,102,102)"  stroke="rgb(102,102,102)" stroke-width="1" font-size="16" >H</text>
<text x="285.528129" y="277.446097" fill="rgb(102,102,102)"  stroke="rgb(102,102,102)" stroke-width="1" font-size="13" >3</text>
<text x="292.028129" y="272.646097" fill="rgb(102,102,102)"  stroke="rgb(102,102,102)" stroke-width="1" font-size="16" >C</text>
<text x="134.964065" y="232.646097" fill="rgb(12,12,255)"  stroke="rgb(12,12,255)" stroke-width="1" font-size="16" >H</text>
<text x="146.964065" y="237.446097" fill="rgb(12,12,255)"  stroke="rgb(12,12,255)" stroke-width="1" font-size="13" >2</text>
<text x="153.464065" y="232.646097" fill="rgb(12,12,255)"  stroke="rgb(12,12,255)" stroke-width="1" font-size="16" >N</text>
<text x="278.887113" y="148.723048" fill="rgb(12,12,255)"  stroke="rgb(12,12,255)" stroke-width="1" font-size="16" >N</text>
<text x="241.846097" y="201.525081" fill="rgb(12,12,255)"  stroke="rgb(12,12,255)" stroke-width="1" font-size="16" >N</text>
<text x="24.400000" y="81.525081" fill="rgb(255,12,12)"  stroke="rgb(255,12,12)" stroke-width="1" font-size="16" >HO</text>
<text x="207.205081" y="258.005081" fill="rgb(255,12,12)"  stroke="rgb(255,12,12)" stroke-width="1" font-size="16" >OH</text>
<text x="336.487113" y="186.884065" fill="rgb(255,12,12)"  stroke="rgb(255,12,12)" stroke-width="1" font-size="16" >OH</text>
<text x="298.887113" y="48.320000" fill="rgb(255,12,12)"  stroke="rgb(255,12,12)" stroke-width="1" font-size="16" >O</text>
<text x="356.487113" y="82.961016" fill="rgb(255,12,12)"  stroke="rgb(255,12,12)" stroke-width="1" font-size="16" >OH</text>
<text x="331.128129" y="272.646097" fill="rgb(191,191,191)"  stroke="rgb(191,191,191)" stroke-width="1" font-size="16" >H</text>
<text x="134.964065" y="198.005081" fill="rgb(191,191,191)"  stroke="rgb(191,191,191)" stroke-width="1" font-size="16" >H</text>
<text x="331.128129" y="134.082032" fill="rgb(191,191,191)"  stroke="rgb(191,191,191)" stroke-width="1" font-size="16" >H</text>
<text x="258.887113" y="252.646097" fill="rgb(191,191,191)"  stroke="rgb(191,191,191)" stroke-width="1" font-size="16" >H</text>
<text font-size="18.000000" fill ="black" font-family="sans-serif"
x="140.000000" y="20.000000" ></text>
<title> - OBDepict</title>
</svg>
