<?xml version="1.0"?>
<svg xmlns="http://www.w3.org/2000/svg"
xmlns:xlink="http://www.w3.org/1999/xlink" xmlns:cml="http://www.xml-cml.org/schema" width="634.256" height="360" x="0" y="0" font-family="sans-serif" stroke="rgb(0,0,0)" stroke-width="1" >
<line x1="351.8" y1="200.0" x2="351.8" y2="170.4"/>
<line x1="353.3" y1="197.4" x2="387.9" y2="217.4"/>
<line x1="350.3" y1="202.6" x2="384.9" y2="222.6"/>
<line x1="351.8" y1="200.0" x2="317.1" y2="220.0"/>
<line x1="386.4" y1="220.0" x2="386.4" y2="249.6"/>
<line x1="386.4" y1="220.0" x2="421.1" y2="200.0"/>
<line x1="178.6" y1="260.0" x2="178.6" y2="230.4"/>
<line x1="180.1" y1="257.4" x2="214.7" y2="277.4"/>
<line x1="177.1" y1="262.6" x2="211.7" y2="282.6"/>
<line x1="178.6" y1="260.0" x2="143.9" y2="280.0"/>
<line x1="317.1" y1="220.0" x2="291.5" y2="205.2"/>
<line x1="320.1" y1="220.0" x2="320.1" y2="260.0"/>
<line x1="314.1" y1="220.0" x2="314.1" y2="260.0"/>
<line x1="421.1" y1="200.0" x2="446.7" y2="214.8"/>
<line x1="418.1" y1="200.0" x2="418.1" y2="160.0"/>
<line x1="424.1" y1="200.0" x2="424.1" y2="160.0"/>
<line x1="213.2" y1="280.0" x2="213.2" y2="309.6"/>
<line x1="213.2" y1="280.0" x2="247.8" y2="260.0"/>
<line x1="143.9" y1="280.0" x2="109.3" y2="260.0"/>
<line x1="525.0" y1="140.0" x2="490.3" y2="160.0"/>
<line x1="525.0" y1="140.0" x2="525.0" y2="100.0"/>
<line x1="317.1" y1="260.0" x2="342.8" y2="274.8"/>
<line x1="317.1" y1="260.0" x2="282.5" y2="280.0"/>
<line x1="421.1" y1="160.0" x2="395.4" y2="145.2"/>
<line x1="421.1" y1="160.0" x2="455.7" y2="140.0"/>
<line x1="247.8" y1="260.0" x2="282.5" y2="280.0"/>
<line x1="490.3" y1="160.0" x2="455.7" y2="140.0"/>
<line x1="109.3" y1="260.0" x2="74.6" y2="280.0"/>
<line x1="525.0" y1="100.0" x2="559.6" y2="80.0"/>
<line x1="270.0" y1="302.4" x2="269.3" y2="302.0"/>
<line x1="272.4" y1="299.1" x2="271.0" y2="298.3"/>
<line x1="274.7" y1="295.8" x2="272.6" y2="294.6"/>
<line x1="277.1" y1="292.6" x2="274.3" y2="291.0"/>
<line x1="279.4" y1="289.3" x2="276.0" y2="287.3"/>
<line x1="281.8" y1="286.0" x2="277.6" y2="283.6"/>
<line x1="284.1" y1="282.8" x2="279.3" y2="280.0"/>
<line x1="282.5" y1="280.0" x2="297.3" y2="305.6"/>
<polygon points="469.092194 116.790519 452.228092 138.000000 459.156295 142.000000 " />
<line x1="455.7" y1="140.0" x2="440.9" y2="114.4"/>
<line x1="77.6" y1="280.0" x2="77.6" y2="309.6"/>
<line x1="71.6" y1="280.0" x2="71.6" y2="309.6"/>
<line x1="74.6" y1="280.0" x2="49.0" y2="265.2"/>
<line x1="561.1" y1="77.4" x2="586.7" y2="92.2"/>
<line x1="558.1" y1="82.6" x2="583.7" y2="97.4"/>
<line x1="559.6" y1="80.0" x2="559.6" y2="50.4"/>
<text x="296.487113" y="319.441016" fill="rgb(255,12,12)"  stroke="rgb(255,12,12)" stroke-width="1" font-size="16" >OH</text>
<text x="420.092194" y="113.678984" fill="rgb(255,12,12)"  stroke="rgb(255,12,12)" stroke-width="1" font-size="16" >HO</text>
<text x="68.641016" y="324.800000" fill="rgb(255,12,12)"  stroke="rgb(255,12,12)" stroke-width="1" font-size="16" >O</text>
<text x="24.400000" y="268.320000" fill="rgb(255,12,12)"  stroke="rgb(255,12,12)" stroke-width="1" font-size="16" >HO</text>
<text x="588.256258" y="104.800000" fill="rgb(255,12,12)"  stroke="rgb(255,12,12)" stroke-width="1" font-size="16" >O</text>
<text x="553.615242" y="48.320000" fill="rgb(255,12,12)"  stroke="rgb(255,12,12)" stroke-width="1" font-size="16" >OH</text>
<text x="345.769145" y="168.320000" fill="rgb(191,191,191)"  stroke="rgb(191,191,191)" stroke-width="1" font-size="16" >H</text>
<text x="380.410162" y="264.800000" fill="rgb(191,191,191)"  stroke="rgb(191,191,191)" stroke-width="1" font-size="16" >H</text>
<text x="172.564065" y="228.320000" fill="rgb(191,191,191)"  stroke="rgb(191,191,191)" stroke-width="1" font-size="16" >H</text>
<text x="278.887113" y="208.320000" fill="rgb(191,191,191)"  stroke="rgb(191,191,191)" stroke-width="1" font-size="16" >H</text>
<text x="449.692194" y="224.800000" fill="rgb(191,191,191)"  stroke="rgb(191,191,191)" stroke-width="1" font-size="16" >H</text>
<text x="207.205081" y="324.800000" fill="rgb(191,191,191)"  stroke="rgb(191,191,191)" stroke-width="1" font-size="16" >H</text>
<text x="345.769145" y="284.800000" fill="rgb(191,191,191)"  stroke="rgb(191,191,191)" stroke-width="1" font-size="16" >H</text>
<text x="382.810162" y="148.320000" fill="rgb(191,191,191)"  stroke="rgb(191,191,191)" stroke-width="1" font-size="16" >H</text>
<text x="258.887113" y="319.441016" fill="rgb(191,191,191)"  stroke="rgb(191,191,191)" stroke-width="1" font-size="16" >H</text>
<text x="469.692194" y="113.678984" fill="rgb(191,191,191)"  stroke="rgb(191,191,191)" stroke-width="1" font-size="16" >H</text>
<text font-size="18.000000" fill ="black" font-family="sans-serif"
x="140.000000" y="20.000000" ></text>
<title> - OBDepict</title>
</svg>
