<?xml version="1.0"?>
<svg xmlns="http://www.w3.org/2000/svg"
xmlns:xlink="http://www.w3.org/1999/xlink" xmlns:cml="http://www.xml-cml.org/schema" width="900.854" height="562.88" x="0" y="0" font-family="sans-serif" stroke="rgb(0,0,0)" stroke-width="1" >
<line x1="56.8" y1="70.1" x2="76.2" y2="91.6"/>
<line x1="584.7" y1="447.1" x2="606.1" y2="427.8"/>
<line x1="578.7" y1="418.9" x2="606.1" y2="427.8"/>
<line x1="76.2" y1="91.6" x2="114.3" y2="83.5"/>
<line x1="114.3" y1="83.5" x2="140.4" y2="112.5"/>
<line x1="140.4" y1="112.5" x2="128.3" y2="149.6"/>
<line x1="128.3" y1="149.6" x2="90.2" y2="157.7"/>
<line x1="90.2" y1="157.7" x2="70.9" y2="136.2"/>
<line x1="93.1" y1="158.6" x2="81.0" y2="195.7"/>
<line x1="87.3" y1="156.7" x2="75.3" y2="193.8"/>
<line x1="78.1" y1="194.8" x2="49.9" y2="200.8"/>
<line x1="78.1" y1="194.8" x2="104.2" y2="223.7"/>
<line x1="104.2" y1="223.7" x2="92.2" y2="260.8"/>
<line x1="92.2" y1="260.8" x2="64.0" y2="266.8"/>
<line x1="94.4" y1="258.8" x2="120.5" y2="287.8"/>
<line x1="90.0" y1="262.8" x2="116.1" y2="291.8"/>
<line x1="118.3" y1="289.8" x2="109.4" y2="317.3"/>
<line x1="118.3" y1="289.8" x2="156.4" y2="281.7"/>
<line x1="156.4" y1="281.7" x2="182.5" y2="310.7"/>
<line x1="182.5" y1="310.7" x2="220.7" y2="302.6"/>
<line x1="220.7" y1="302.6" x2="246.8" y2="331.6"/>
<line x1="246.8" y1="331.6" x2="284.9" y2="323.5"/>
<line x1="284.9" y1="323.5" x2="311.0" y2="352.4"/>
<line x1="311.0" y1="352.4" x2="349.2" y2="344.3"/>
<line x1="349.2" y1="344.3" x2="375.3" y2="373.3"/>
<line x1="517.8" y1="481.1" x2="555.9" y2="473.0"/>
<line x1="517.8" y1="481.1" x2="491.7" y2="452.1"/>
<line x1="555.9" y1="473.0" x2="575.3" y2="494.5"/>
<line x1="477.7" y1="386.1" x2="439.5" y2="394.2"/>
<line x1="477.7" y1="386.1" x2="497.0" y2="407.5"/>
<line x1="439.5" y1="394.2" x2="420.2" y2="372.7"/>
<line x1="600.0" y1="211.3" x2="638.1" y2="203.2"/>
<line x1="600.0" y1="211.3" x2="591.1" y2="238.7"/>
<line x1="630.2" y1="353.6" x2="606.1" y2="427.8"/>
<line x1="630.2" y1="353.6" x2="610.9" y2="332.2"/>
<polygon points="630.057913 228.014042 641.936753 204.399003 634.328301 201.926867 " />
<line x1="488.8" y1="451.2" x2="497.8" y2="423.8"/>
<line x1="494.6" y1="453.1" x2="503.5" y2="425.6"/>
<line x1="491.7" y1="452.1" x2="463.5" y2="458.1"/>
<line x1="378.1" y1="374.2" x2="369.2" y2="401.7"/>
<line x1="372.4" y1="372.4" x2="363.5" y2="399.8"/>
<line x1="375.3" y1="373.3" x2="403.5" y2="367.3"/>
<line x1="661.6" y1="124.9" x2="662.4" y2="124.7"/>
<line x1="662.4" y1="128.7" x2="663.9" y2="128.2"/>
<line x1="663.2" y1="132.6" x2="665.5" y2="131.8"/>
<line x1="664.1" y1="136.4" x2="667.1" y2="135.4"/>
<line x1="664.9" y1="140.2" x2="668.7" y2="139.0"/>
<line x1="665.7" y1="144.1" x2="670.3" y2="142.6"/>
<line x1="666.5" y1="147.9" x2="671.9" y2="146.2"/>
<line x1="669.7" y1="148.5" x2="689.0" y2="127.1"/>
<line x1="609.1" y1="164.8" x2="609.1" y2="164.0"/>
<line x1="613.0" y1="165.2" x2="613.0" y2="163.6"/>
<line x1="616.9" y1="165.6" x2="616.9" y2="163.2"/>
<line x1="620.8" y1="166.0" x2="620.8" y2="162.8"/>
<line x1="624.7" y1="166.4" x2="624.7" y2="162.4"/>
<line x1="628.6" y1="166.8" x2="628.6" y2="162.0"/>
<line x1="632.5" y1="167.2" x2="632.5" y2="161.6"/>
<line x1="634.1" y1="164.4" x2="619.6" y2="139.4"/>
<line x1="656.1" y1="464.1" x2="655.9" y2="464.9"/>
<line x1="652.5" y1="462.6" x2="652.0" y2="464.1"/>
<line x1="648.9" y1="461.0" x2="648.2" y2="463.2"/>
<line x1="645.3" y1="459.4" x2="644.4" y2="462.4"/>
<line x1="641.8" y1="457.8" x2="640.5" y2="461.6"/>
<line x1="638.2" y1="456.2" x2="636.7" y2="460.8"/>
<line x1="634.6" y1="454.6" x2="632.9" y2="460.0"/>
<line x1="632.2" y1="456.8" x2="620.2" y2="493.9"/>
<line x1="632.2" y1="456.8" x2="606.1" y2="427.8"/>
<line x1="632.2" y1="456.8" x2="653.7" y2="437.5"/>
<line x1="836.3" y1="76.4" x2="846.7" y2="49.5"/>
<line x1="620.8" y1="496.8" x2="592.6" y2="502.8"/>
<line x1="619.6" y1="491.0" x2="591.3" y2="497.0"/>
<line x1="620.2" y1="493.9" x2="639.5" y2="515.3"/>
<polygon points="712.409727 197.651860 698.865681 174.950852 692.694886 180.042148 " />
<line x1="695.8" y1="177.5" x2="732.1" y2="132.6"/>
<line x1="575.6" y1="101.7" x2="575.6" y2="120.5"/>
<line x1="546.7" y1="130.6" x2="565.4" y2="130.6"/>
<line x1="572.6" y1="159.5" x2="572.6" y2="140.7"/>
<line x1="578.6" y1="159.5" x2="578.6" y2="140.7"/>
<line x1="543.8" y1="228.2" x2="547.7" y2="246.6"/>
<line x1="520.9" y1="259.5" x2="539.2" y2="255.6"/>
<line x1="522.2" y1="265.4" x2="540.5" y2="261.5"/>
<line x1="537.8" y1="338.8" x2="556.1" y2="334.9"/>
<line x1="569.1" y1="361.6" x2="565.2" y2="343.3"/>
<line x1="574.9" y1="360.4" x2="571.0" y2="342.1"/>
<line x1="578.0" y1="250.5" x2="559.7" y2="254.4"/>
<line x1="594.2" y1="326.8" x2="575.9" y2="330.7"/>
<line x1="604.4" y1="130.6" x2="585.7" y2="130.6"/>
<line x1="555.8" y1="284.7" x2="551.9" y2="266.4"/>
<line x1="560.0" y1="304.5" x2="563.9" y2="322.8"/>
<line x1="734.8" y1="79.2" x2="742.2" y2="107.1"/>
<line x1="755.0" y1="117.4" x2="783.8" y2="118.9"/>
<line x1="783.8" y1="118.9" x2="797.8" y2="82.5"/>
<line x1="797.8" y1="82.5" x2="775.4" y2="64.3"/>
<line x1="759.0" y1="63.5" x2="734.8" y2="79.2"/>
<line x1="761.1" y1="70.7" x2="743.7" y2="82.0"/>
<line x1="638.1" y1="203.2" x2="634.1" y2="164.4"/>
<line x1="634.1" y1="164.4" x2="669.7" y2="148.5"/>
<line x1="669.7" y1="148.5" x2="695.8" y2="177.5"/>
<line x1="695.8" y1="177.5" x2="681.4" y2="202.5"/>
<line x1="666.4" y1="209.2" x2="638.1" y2="203.2"/>
<line x1="783.8" y1="118.9" x2="802.0" y2="141.3"/>
<line x1="793.2" y1="119.1" x2="806.2" y2="135.2"/>
<line x1="818.4" y1="147.6" x2="846.9" y2="143.1"/>
<line x1="846.9" y1="143.1" x2="857.2" y2="116.2"/>
<line x1="842.3" y1="134.9" x2="849.7" y2="115.6"/>
<line x1="854.5" y1="98.8" x2="836.3" y2="76.4"/>
<line x1="836.3" y1="76.4" x2="797.8" y2="82.5"/>
<line x1="831.5" y1="84.5" x2="804.8" y2="88.7"/>
<text x="26.458895" y="70.928969" fill="rgb(102,102,102)"  stroke="rgb(102,102,102)" stroke-width="1" font-size="16" >H</text>
<text x="38.458895" y="78.608969" fill="rgb(102,102,102)"  stroke="rgb(102,102,102)" stroke-width="1" font-size="13" >3</text>
<text x="44.958895" y="70.928969" fill="rgb(102,102,102)"  stroke="rgb(102,102,102)" stroke-width="1" font-size="16" >C</text>
<text x="553.560340" y="458.719358" fill="rgb(102,102,102)"  stroke="rgb(102,102,102)" stroke-width="1" font-size="16" >H</text>
<text x="565.560340" y="463.519358" fill="rgb(102,102,102)"  stroke="rgb(102,102,102)" stroke-width="1" font-size="13" >3</text>
<text x="572.060340" y="458.719358" fill="rgb(102,102,102)"  stroke="rgb(102,102,102)" stroke-width="1" font-size="16" >C</text>
<text x="545.451784" y="424.091602" fill="rgb(102,102,102)"  stroke="rgb(102,102,102)" stroke-width="1" font-size="16" >H</text>
<text x="557.451784" y="431.771602" fill="rgb(102,102,102)"  stroke="rgb(102,102,102)" stroke-width="1" font-size="13" >3</text>
<text x="563.951784" y="424.091602" fill="rgb(102,102,102)"  stroke="rgb(102,102,102)" stroke-width="1" font-size="16" >C</text>
<text x="844.286371" y="48.320000" fill="rgb(12,12,255)"  stroke="rgb(12,12,255)" stroke-width="1" font-size="16" >NH</text>
<text x="868.286371" y="56.000000" fill="rgb(12,12,255)"  stroke="rgb(12,12,255)" stroke-width="1" font-size="13" >2</text>
<text x="497.751381" y="423.377728" fill="rgb(12,12,255)"  stroke="rgb(12,12,255)" stroke-width="1" font-size="16" >N</text>
<text x="578.439662" y="506.805673" fill="rgb(12,12,255)"  stroke="rgb(12,12,255)" stroke-width="1" font-size="16" >N</text>
<text x="854.853516" y="115.038329" fill="rgb(12,12,255)"  stroke="rgb(12,12,255)" stroke-width="1" font-size="16" >N</text>
<text x="804.757321" y="154.028910" fill="rgb(12,12,255)"  stroke="rgb(12,12,255)" stroke-width="1" font-size="16" >N</text>
<text x="761.481483" y="66.287086" fill="rgb(12,12,255)"  stroke="rgb(12,12,255)" stroke-width="1" font-size="16" >N</text>
<text x="738.867274" y="125.199115" fill="rgb(12,12,255)"  stroke="rgb(12,12,255)" stroke-width="1" font-size="16" >N</text>
<text x="448.751962" y="479.457488" fill="rgb(255,12,12)"  stroke="rgb(255,12,12)" stroke-width="1" font-size="32" >-</text>
<text x="449.951962" y="465.057488" fill="rgb(255,12,12)"  stroke="rgb(255,12,12)" stroke-width="1" font-size="16" >O</text>
<text x="359.612018" y="415.200748" fill="rgb(255,12,12)"  stroke="rgb(255,12,12)" stroke-width="1" font-size="16" >O</text>
<text x="689.780284" y="127.851204" fill="rgb(255,12,12)"  stroke="rgb(255,12,12)" stroke-width="1" font-size="16" >OH</text>
<text x="655.221730" y="439.029819" fill="rgb(255,12,12)"  stroke="rgb(255,12,12)" stroke-width="1" font-size="16" >OH</text>
<text x="641.483512" y="542.079765" fill="rgb(255,12,12)"  stroke="rgb(255,12,12)" stroke-width="1" font-size="32" >-</text>
<text x="640.283512" y="527.679765" fill="rgb(255,12,12)"  stroke="rgb(255,12,12)" stroke-width="1" font-size="16" >O</text>
<text x="570.755917" y="85.201590" fill="rgb(255,12,12)"  stroke="rgb(255,12,12)" stroke-width="1" font-size="32" >-</text>
<text x="569.555917" y="99.921590" fill="rgb(255,12,12)"  stroke="rgb(255,12,12)" stroke-width="1" font-size="16" >O</text>
<text x="531.755917" y="149.801590" fill="rgb(255,12,12)"  stroke="rgb(255,12,12)" stroke-width="1" font-size="32" >-</text>
<text x="532.955917" y="135.401590" fill="rgb(255,12,12)"  stroke="rgb(255,12,12)" stroke-width="1" font-size="16" >O</text>
<text x="569.555917" y="174.401590" fill="rgb(255,12,12)"  stroke="rgb(255,12,12)" stroke-width="1" font-size="16" >O</text>
<text x="526.076796" y="226.643494" fill="rgb(255,12,12)"  stroke="rgb(255,12,12)" stroke-width="1" font-size="16" >HO</text>
<text x="508.037595" y="269.379807" fill="rgb(255,12,12)"  stroke="rgb(255,12,12)" stroke-width="1" font-size="16" >O</text>
<text x="512.254707" y="345.675320" fill="rgb(255,12,12)"  stroke="rgb(255,12,12)" stroke-width="1" font-size="16" >HO</text>
<text x="568.111019" y="375.714520" fill="rgb(255,12,12)"  stroke="rgb(255,12,12)" stroke-width="1" font-size="16" >O</text>
<text x="581.933108" y="253.162695" fill="rgb(255,12,12)"  stroke="rgb(255,12,12)" stroke-width="1" font-size="16" >O</text>
<text x="598.150220" y="332.978208" fill="rgb(255,12,12)"  stroke="rgb(255,12,12)" stroke-width="1" font-size="16" >O</text>
<text x="670.280284" y="216.071491" fill="rgb(255,12,12)"  stroke="rgb(255,12,12)" stroke-width="1" font-size="16" >O</text>
<text x="608.555917" y="138.921590" fill="rgb(255,12,12)"  stroke="rgb(255,12,12)" stroke-width="1" font-size="16" >O</text>
<text x="551.893907" y="299.419007" fill="rgb(255,12,12)"  stroke="rgb(255,12,12)" stroke-width="1" font-size="16" >O</text>
<text x="569.555917" y="138.921590" fill="rgb(255,127,0)"  stroke="rgb(255,127,0)" stroke-width="1" font-size="16" >P</text>
<text x="543.785352" y="264.791251" fill="rgb(255,127,0)"  stroke="rgb(255,127,0)" stroke-width="1" font-size="16" >P</text>
<text x="560.002463" y="337.566764" fill="rgb(255,127,0)"  stroke="rgb(255,127,0)" stroke-width="1" font-size="16" >P</text>
<text x="407.411438" y="373.520988" fill="rgb(178,178,0)"  stroke="rgb(178,178,0)" stroke-width="1" font-size="16" >S</text>
<text x="60.503326" y="137.002822" fill="rgb(191,191,191)"  stroke="rgb(191,191,191)" stroke-width="1" font-size="16" >H</text>
<text x="36.400000" y="207.665230" fill="rgb(191,191,191)"  stroke="rgb(191,191,191)" stroke-width="1" font-size="16" >H</text>
<text x="50.444431" y="273.739082" fill="rgb(191,191,191)"  stroke="rgb(191,191,191)" stroke-width="1" font-size="16" >H</text>
<text x="102.636618" y="331.704379" fill="rgb(191,191,191)"  stroke="rgb(191,191,191)" stroke-width="1" font-size="16" >H</text>
<text x="622.480864" y="245.054139" fill="rgb(191,191,191)"  stroke="rgb(191,191,191)" stroke-width="1" font-size="16" >H</text>
<text x="654.032527" y="119.742648" fill="rgb(191,191,191)"  stroke="rgb(191,191,191)" stroke-width="1" font-size="16" >H</text>
<text x="591.455917" y="172.696581" fill="rgb(191,191,191)"  stroke="rgb(191,191,191)" stroke-width="1" font-size="16" >H</text>
<text x="663.330286" y="473.657575" fill="rgb(191,191,191)"  stroke="rgb(191,191,191)" stroke-width="1" font-size="16" >H</text>
<text x="714.600348" y="212.379126" fill="rgb(191,191,191)"  stroke="rgb(191,191,191)" stroke-width="1" font-size="16" >H</text>
<text font-size="18.000000" fill ="black" font-family="sans-serif"
x="140.000000" y="20.000000" ></text>
<title> - OBDepict</title>
</svg>
