<?xml version="1.0"?>
<svg xmlns="http://www.w3.org/2000/svg"
xmlns:xlink="http://www.w3.org/1999/xlink" xmlns:cml="http://www.xml-cml.org/schema" width="313.453" height="517.693" x="0" y="0" font-family="sans-serif" stroke="rgb(0,0,0)" stroke-width="1" >
<line x1="40.0" y1="101.8" x2="40.0" y2="73.4"/>
<line x1="40.0" y1="73.4" x2="73.3" y2="54.1"/>
<line x1="73.3" y1="54.1" x2="106.7" y2="73.4"/>
<line x1="173.4" y1="342.9" x2="206.8" y2="362.2"/>
<line x1="173.4" y1="342.9" x2="173.4" y2="304.4"/>
<line x1="206.8" y1="362.2" x2="206.8" y2="400.7"/>
<line x1="106.7" y1="73.4" x2="140.0" y2="54.1"/>
<line x1="173.4" y1="304.4" x2="140.1" y2="285.1"/>
<line x1="206.8" y1="400.7" x2="240.1" y2="419.9"/>
<line x1="140.0" y1="54.1" x2="173.4" y2="73.3"/>
<line x1="140.1" y1="285.1" x2="140.1" y2="246.6"/>
<line x1="240.1" y1="419.9" x2="240.1" y2="458.4"/>
<line x1="173.4" y1="111.9" x2="198.1" y2="126.1"/>
<line x1="174.9" y1="114.5" x2="141.5" y2="133.7"/>
<line x1="171.9" y1="109.3" x2="138.5" y2="128.5"/>
<line x1="173.4" y1="111.9" x2="173.4" y2="73.3"/>
<line x1="140.0" y1="131.1" x2="115.4" y2="116.9"/>
<line x1="140.0" y1="131.1" x2="140.1" y2="208.1"/>
<polygon points="199.199652 73.349591 173.398647 69.349919 173.398749 77.349919 " />
<line x1="173.4" y1="73.3" x2="187.6" y2="48.7"/>
<line x1="162.1" y1="258.9" x2="161.7" y2="259.6"/>
<line x1="158.9" y1="256.6" x2="158.1" y2="258.0"/>
<line x1="155.7" y1="254.3" x2="154.5" y2="256.3"/>
<line x1="152.5" y1="252.0" x2="150.9" y2="254.7"/>
<line x1="149.2" y1="249.6" x2="147.2" y2="253.1"/>
<line x1="146.0" y1="247.3" x2="143.6" y2="251.5"/>
<line x1="142.8" y1="245.0" x2="140.0" y2="249.9"/>
<polygon points="162.914242 194.935702 138.051247 204.667050 142.050223 211.595844 " />
<line x1="112.5" y1="290.4" x2="111.7" y2="290.6"/>
<line x1="112.0" y1="286.5" x2="110.5" y2="286.9"/>
<line x1="111.6" y1="282.6" x2="109.2" y2="283.1"/>
<line x1="111.1" y1="278.6" x2="108.0" y2="279.3"/>
<line x1="110.7" y1="274.7" x2="106.8" y2="275.6"/>
<line x1="110.2" y1="270.8" x2="105.5" y2="271.8"/>
<line x1="109.8" y1="266.8" x2="104.3" y2="268.0"/>
<line x1="111.7" y1="164.2" x2="112.5" y2="164.3"/>
<line x1="110.5" y1="167.9" x2="112.0" y2="168.3"/>
<line x1="109.2" y1="171.7" x2="111.6" y2="172.2"/>
<line x1="108.0" y1="175.4" x2="111.1" y2="176.1"/>
<line x1="106.8" y1="179.2" x2="110.7" y2="180.1"/>
<line x1="105.5" y1="183.0" x2="110.2" y2="184.0"/>
<line x1="104.3" y1="186.7" x2="109.8" y2="187.9"/>
<line x1="241.6" y1="461.0" x2="216.9" y2="475.3"/>
<line x1="238.6" y1="455.8" x2="213.9" y2="470.1"/>
<line x1="240.1" y1="458.4" x2="264.8" y2="472.7"/>
<line x1="140.1" y1="246.6" x2="140.1" y2="208.1"/>
<line x1="140.1" y1="208.1" x2="106.7" y2="188.9"/>
<line x1="106.7" y1="188.9" x2="89.8" y2="227.4"/>
<line x1="89.8" y1="227.4" x2="106.7" y2="265.9"/>
<line x1="106.7" y1="265.9" x2="140.1" y2="246.6"/>
<line x1="73.3" y1="236.6" x2="73.3" y2="218.1"/>
<line x1="82.0" y1="203.1" x2="106.7" y2="188.9"/>
<line x1="106.7" y1="265.9" x2="82.0" y2="251.6"/>
<text x="34.000489" y="116.660500" fill="rgb(102,102,102)"  stroke="rgb(102,102,102)" stroke-width="1" font-size="16" >CH</text>
<text x="58.000489" y="121.460500" fill="rgb(102,102,102)"  stroke="rgb(102,102,102)" stroke-width="1" font-size="13" >3</text>
<text x="186.652718" y="48.320000" fill="rgb(255,12,12)"  stroke="rgb(255,12,12)" stroke-width="1" font-size="16" >OH</text>
<text x="203.153508" y="482.492809" fill="rgb(255,12,12)"  stroke="rgb(255,12,12)" stroke-width="1" font-size="16" >O</text>
<text x="268.652857" y="496.891962" fill="rgb(255,12,12)"  stroke="rgb(255,12,12)" stroke-width="1" font-size="32" >-</text>
<text x="267.452857" y="482.491962" fill="rgb(255,12,12)"  stroke="rgb(255,12,12)" stroke-width="1" font-size="16" >O</text>
<text x="69.740490" y="251.441182" fill="rgb(255,12,12)"  stroke="rgb(255,12,12)" stroke-width="1" font-size="16" >O</text>
<text x="69.740001" y="216.452295" fill="rgb(255,12,12)"  stroke="rgb(255,12,12)" stroke-width="1" font-size="16" >O</text>
<text x="200.749106" y="135.912826" fill="rgb(191,191,191)"  stroke="rgb(191,191,191)" stroke-width="1" font-size="16" >H</text>
<text x="103.099838" y="120.179653" fill="rgb(191,191,191)"  stroke="rgb(191,191,191)" stroke-width="1" font-size="16" >H</text>
<text x="205.907585" y="81.669430" fill="rgb(191,191,191)"  stroke="rgb(191,191,191)" stroke-width="1" font-size="16" >H</text>
<text x="168.176361" y="271.134610" fill="rgb(191,191,191)"  stroke="rgb(191,191,191)" stroke-width="1" font-size="16" >H</text>
<text x="168.175372" y="196.756304" fill="rgb(191,191,191)"  stroke="rgb(191,191,191)" stroke-width="1" font-size="16" >H</text>
<text x="109.143871" y="309.183136" fill="rgb(191,191,191)"  stroke="rgb(191,191,191)" stroke-width="1" font-size="16" >H</text>
<text x="109.142720" y="158.709455" fill="rgb(191,191,191)"  stroke="rgb(191,191,191)" stroke-width="1" font-size="16" >H</text>
<text font-size="18.000000" fill ="black" font-family="sans-serif"
x="140.000000" y="20.000000" ></text>
<title> - OBDepict</title>
</svg>
