<?xml version="1.0"?>
<svg xmlns="http://www.w3.org/2000/svg"
xmlns:xlink="http://www.w3.org/1999/xlink" xmlns:cml="http://www.xml-cml.org/schema" width="703.538" height="920" x="0" y="0" font-family="sans-serif" stroke="rgb(0,0,0)" stroke-width="1" >
<line x1="65.6" y1="45.2" x2="40.0" y2="60.0"/>
<line x1="594.3" y1="670.4" x2="594.3" y2="700.0"/>
<line x1="40.0" y1="60.0" x2="40.0" y2="100.0"/>
<line x1="594.3" y1="700.0" x2="628.9" y2="720.0"/>
<line x1="40.0" y1="100.0" x2="74.6" y2="120.0"/>
<line x1="628.9" y1="720.0" x2="654.5" y2="705.2"/>
<line x1="631.9" y1="720.0" x2="631.9" y2="760.0"/>
<line x1="625.9" y1="720.0" x2="625.9" y2="760.0"/>
<line x1="74.6" y1="120.0" x2="74.6" y2="160.0"/>
<line x1="628.9" y1="760.0" x2="654.5" y2="774.8"/>
<line x1="628.9" y1="760.0" x2="594.3" y2="780.0"/>
<line x1="74.6" y1="160.0" x2="109.3" y2="180.0"/>
<line x1="594.3" y1="780.0" x2="594.3" y2="820.0"/>
<line x1="109.3" y1="180.0" x2="109.3" y2="220.0"/>
<line x1="594.3" y1="820.0" x2="619.9" y2="834.8"/>
<line x1="595.8" y1="822.6" x2="561.1" y2="842.6"/>
<line x1="592.8" y1="817.4" x2="558.1" y2="837.4"/>
<line x1="109.3" y1="220.0" x2="143.9" y2="240.0"/>
<line x1="559.6" y1="840.0" x2="559.6" y2="869.6"/>
<line x1="559.6" y1="840.0" x2="525.0" y2="820.0"/>
<line x1="143.9" y1="240.0" x2="143.9" y2="280.0"/>
<line x1="525.0" y1="820.0" x2="490.3" y2="840.0"/>
<line x1="143.9" y1="280.0" x2="118.3" y2="294.8"/>
<line x1="145.4" y1="277.4" x2="180.1" y2="297.4"/>
<line x1="142.4" y1="282.6" x2="177.1" y2="302.6"/>
<line x1="178.6" y1="300.0" x2="178.6" y2="329.6"/>
<line x1="178.6" y1="300.0" x2="213.2" y2="280.0"/>
<line x1="490.3" y1="840.0" x2="490.3" y2="869.6"/>
<line x1="488.8" y1="842.6" x2="454.2" y2="822.6"/>
<line x1="491.8" y1="837.4" x2="457.2" y2="817.4"/>
<line x1="213.2" y1="280.0" x2="247.8" y2="300.0"/>
<line x1="247.8" y1="300.0" x2="247.8" y2="340.0"/>
<line x1="455.7" y1="820.0" x2="430.1" y2="834.8"/>
<line x1="455.7" y1="820.0" x2="455.7" y2="780.0"/>
<line x1="247.8" y1="340.0" x2="282.5" y2="360.0"/>
<line x1="455.7" y1="780.0" x2="421.1" y2="760.0"/>
<line x1="282.5" y1="360.0" x2="282.5" y2="400.0"/>
<line x1="421.1" y1="760.0" x2="421.1" y2="720.0"/>
<line x1="282.5" y1="400.0" x2="317.1" y2="420.0"/>
<line x1="421.1" y1="720.0" x2="386.4" y2="700.0"/>
<line x1="317.1" y1="420.0" x2="317.1" y2="460.0"/>
<line x1="386.4" y1="700.0" x2="386.4" y2="660.0"/>
<line x1="317.1" y1="460.0" x2="351.8" y2="480.0"/>
<line x1="386.4" y1="660.0" x2="351.8" y2="640.0"/>
<line x1="490.3" y1="760.0" x2="490.3" y2="720.0"/>
<line x1="490.3" y1="760.0" x2="516.0" y2="774.8"/>
<line x1="386.4" y1="540.0" x2="386.4" y2="580.0"/>
<line x1="386.4" y1="540.0" x2="360.8" y2="525.2"/>
<line x1="421.1" y1="600.0" x2="386.4" y2="580.0"/>
<line x1="421.1" y1="600.0" x2="421.1" y2="629.6"/>
<line x1="386.4" y1="580.0" x2="360.8" y2="594.8"/>
<line x1="350.3" y1="477.4" x2="375.9" y2="462.6"/>
<line x1="353.3" y1="482.6" x2="378.9" y2="467.8"/>
<line x1="351.8" y1="480.0" x2="351.8" y2="509.6"/>
<line x1="353.3" y1="642.6" x2="327.6" y2="657.4"/>
<line x1="350.3" y1="637.4" x2="324.6" y2="652.2"/>
<line x1="351.8" y1="640.0" x2="351.8" y2="610.4"/>
<line x1="525.0" y1="700.0" x2="550.6" y2="714.8"/>
<line x1="525.0" y1="660.0" x2="550.6" y2="645.2"/>
<line x1="490.3" y1="640.0" x2="490.3" y2="610.4"/>
<line x1="455.7" y1="660.0" x2="430.1" y2="645.2"/>
<line x1="525.0" y1="660.0" x2="490.3" y2="640.0"/>
<line x1="490.3" y1="640.0" x2="455.7" y2="660.0"/>
<line x1="455.7" y1="660.0" x2="455.7" y2="689.6"/>
<line x1="464.7" y1="705.2" x2="490.3" y2="720.0"/>
<line x1="490.3" y1="720.0" x2="525.0" y2="700.0"/>
<line x1="525.0" y1="700.0" x2="525.0" y2="660.0"/>
<text x="68.641016" y="48.320000" fill="rgb(102,102,102)"  stroke="rgb(102,102,102)" stroke-width="1" font-size="16" >CH</text>
<text x="92.641016" y="56.000000" fill="rgb(102,102,102)"  stroke="rgb(102,102,102)" stroke-width="1" font-size="13" >3</text>
<text x="588.256258" y="668.320000" fill="rgb(102,102,102)"  stroke="rgb(102,102,102)" stroke-width="1" font-size="16" >CH</text>
<text x="612.256258" y="676.000000" fill="rgb(102,102,102)"  stroke="rgb(102,102,102)" stroke-width="1" font-size="13" >3</text>
<text x="518.974226" y="784.800000" fill="rgb(255,12,12)"  stroke="rgb(255,12,12)" stroke-width="1" font-size="16" >OH</text>
<text x="380.410162" y="468.320000" fill="rgb(255,12,12)"  stroke="rgb(255,12,12)" stroke-width="1" font-size="16" >O</text>
<text x="313.528129" y="664.800000" fill="rgb(255,12,12)"  stroke="rgb(255,12,12)" stroke-width="1" font-size="16" >O</text>
<text x="553.615242" y="724.800000" fill="rgb(255,12,12)"  stroke="rgb(255,12,12)" stroke-width="1" font-size="16" >OH</text>
<text x="553.615242" y="648.320000" fill="rgb(255,12,12)"  stroke="rgb(255,12,12)" stroke-width="1" font-size="16" >OH</text>
<text x="484.333210" y="608.320000" fill="rgb(255,12,12)"  stroke="rgb(255,12,12)" stroke-width="1" font-size="16" >OH</text>
<text x="348.169145" y="524.800000" fill="rgb(255,12,12)"  stroke="rgb(255,12,12)" stroke-width="1" font-size="16" >O</text>
<text x="417.451178" y="644.800000" fill="rgb(255,12,12)"  stroke="rgb(255,12,12)" stroke-width="1" font-size="16" >O</text>
<text x="348.169145" y="608.320000" fill="rgb(255,12,12)"  stroke="rgb(255,12,12)" stroke-width="1" font-size="16" >O</text>
<text x="452.092194" y="704.800000" fill="rgb(255,12,12)"  stroke="rgb(255,12,12)" stroke-width="1" font-size="16" >O</text>
<text x="657.538291" y="708.320000" fill="rgb(191,191,191)"  stroke="rgb(191,191,191)" stroke-width="1" font-size="16" >H</text>
<text x="657.538291" y="784.800000" fill="rgb(191,191,191)"  stroke="rgb(191,191,191)" stroke-width="1" font-size="16" >H</text>
<text x="622.897275" y="844.800000" fill="rgb(191,191,191)"  stroke="rgb(191,191,191)" stroke-width="1" font-size="16" >H</text>
<text x="553.615242" y="884.800000" fill="rgb(191,191,191)"  stroke="rgb(191,191,191)" stroke-width="1" font-size="16" >H</text>
<text x="105.682032" y="304.800000" fill="rgb(191,191,191)"  stroke="rgb(191,191,191)" stroke-width="1" font-size="16" >H</text>
<text x="172.564065" y="344.800000" fill="rgb(191,191,191)"  stroke="rgb(191,191,191)" stroke-width="1" font-size="16" >H</text>
<text x="484.333210" y="884.800000" fill="rgb(191,191,191)"  stroke="rgb(191,191,191)" stroke-width="1" font-size="16" >H</text>
<text x="417.451178" y="844.800000" fill="rgb(191,191,191)"  stroke="rgb(191,191,191)" stroke-width="1" font-size="16" >H</text>
<text font-size="18.000000" fill ="black" font-family="sans-serif"
x="140.000000" y="20.000000" ></text>
<title> - OBDepict</title>
</svg>
