<?xml version="1.0"?>
<svg xmlns="http://www.w3.org/2000/svg"
xmlns:xlink="http://www.w3.org/1999/xlink" xmlns:cml="http://www.xml-cml.org/schema" width="374.066" height="410.271" x="0" y="0" font-family="sans-serif" stroke="rgb(0,0,0)" stroke-width="1" >
<line x1="229.8" y1="352.7" x2="258.0" y2="343.5"/>
<line x1="326.3" y1="311.8" x2="304.3" y2="292.0"/>
<line x1="310.5" y1="263.1" x2="304.3" y2="292.0"/>
<line x1="292.1" y1="254.3" x2="282.9" y2="226.1"/>
<line x1="148.9" y1="118.6" x2="149.7" y2="118.6"/>
<line x1="148.5" y1="122.6" x2="150.1" y2="122.6"/>
<line x1="148.1" y1="126.6" x2="150.5" y2="126.6"/>
<line x1="147.7" y1="130.6" x2="150.9" y2="130.6"/>
<line x1="147.3" y1="134.6" x2="151.3" y2="134.6"/>
<line x1="146.9" y1="138.6" x2="151.7" y2="138.6"/>
<line x1="146.5" y1="142.6" x2="152.1" y2="142.6"/>
<line x1="251.2" y1="178.1" x2="251.9" y2="178.5"/>
<line x1="249.2" y1="181.6" x2="250.7" y2="182.3"/>
<line x1="247.2" y1="185.1" x2="249.4" y2="186.1"/>
<line x1="245.2" y1="188.6" x2="248.2" y2="189.9"/>
<line x1="243.2" y1="192.1" x2="246.9" y2="193.7"/>
<line x1="241.3" y1="195.6" x2="245.6" y2="197.5"/>
<line x1="239.3" y1="199.1" x2="244.4" y2="201.4"/>
<line x1="258.0" y1="343.5" x2="280.0" y2="363.3"/>
<line x1="255.0" y1="342.9" x2="263.4" y2="303.8"/>
<line x1="260.9" y1="344.1" x2="269.2" y2="305.0"/>
<line x1="244.9" y1="238.5" x2="236.6" y2="277.6"/>
<line x1="244.9" y1="238.5" x2="282.9" y2="226.1"/>
<line x1="236.6" y1="277.6" x2="266.3" y2="304.4"/>
<line x1="304.3" y1="292.0" x2="266.3" y2="304.4"/>
<polygon points="309.145229 231.699633 283.762521 222.215010 282.099227 230.040190 " />
<line x1="282.9" y1="226.1" x2="291.2" y2="187.0"/>
<polygon points="66.600000 51.431535 76.535898 76.641016 83.464102 72.641016 " />
<line x1="80.0" y1="74.6" x2="50.4" y2="74.6"/>
<line x1="218.6" y1="114.6" x2="244.2" y2="99.8"/>
<line x1="291.2" y1="187.0" x2="313.2" y2="206.8"/>
<line x1="253.2" y1="134.6" x2="241.2" y2="107.6"/>
<line x1="183.9" y1="134.6" x2="158.3" y2="149.4"/>
<line x1="314.8" y1="154.6" x2="291.2" y2="122.3"/>
<line x1="291.2" y1="122.3" x2="253.2" y2="134.6"/>
<line x1="253.2" y1="134.6" x2="253.2" y2="174.6"/>
<line x1="253.2" y1="174.6" x2="291.2" y2="187.0"/>
<line x1="291.2" y1="187.0" x2="314.8" y2="154.6"/>
<line x1="218.6" y1="74.6" x2="183.9" y2="54.6"/>
<line x1="183.9" y1="54.6" x2="149.3" y2="74.6"/>
<line x1="182.3" y1="63.9" x2="158.1" y2="77.9"/>
<line x1="149.3" y1="74.6" x2="149.3" y2="114.6"/>
<line x1="149.3" y1="114.6" x2="183.9" y2="134.6"/>
<line x1="183.9" y1="134.6" x2="218.6" y2="114.6"/>
<line x1="218.6" y1="114.6" x2="218.6" y2="74.6"/>
<line x1="114.6" y1="54.6" x2="80.0" y2="74.6"/>
<line x1="80.0" y1="74.6" x2="80.0" y2="114.6"/>
<line x1="80.0" y1="114.6" x2="114.6" y2="134.6"/>
<line x1="114.6" y1="134.6" x2="149.3" y2="114.6"/>
<line x1="149.3" y1="74.6" x2="114.6" y2="54.6"/>
<line x1="253.2" y1="134.6" x2="218.6" y2="114.6"/>
<line x1="183.9" y1="134.6" x2="183.9" y2="174.6"/>
<line x1="183.9" y1="174.6" x2="218.6" y2="194.6"/>
<line x1="218.6" y1="194.6" x2="253.2" y2="174.6"/>
<text x="196.339210" y="360.665992" fill="rgb(102,102,102)"  stroke="rgb(102,102,102)" stroke-width="1" font-size="16" >H</text>
<text x="208.339210" y="365.465992" fill="rgb(102,102,102)"  stroke="rgb(102,102,102)" stroke-width="1" font-size="13" >3</text>
<text x="214.839210" y="360.665992" fill="rgb(102,102,102)"  stroke="rgb(102,102,102)" stroke-width="1" font-size="16" >C</text>
<text x="328.065992" y="323.583952" fill="rgb(102,102,102)"  stroke="rgb(102,102,102)" stroke-width="1" font-size="16" >CH</text>
<text x="352.065992" y="328.383952" fill="rgb(102,102,102)"  stroke="rgb(102,102,102)" stroke-width="1" font-size="13" >3</text>
<text x="306.656667" y="261.212824" fill="rgb(102,102,102)"  stroke="rgb(102,102,102)" stroke-width="1" font-size="16" >CH</text>
<text x="330.656667" y="268.892824" fill="rgb(102,102,102)"  stroke="rgb(102,102,102)" stroke-width="1" font-size="13" >3</text>
<text x="289.291554" y="268.969861" fill="rgb(102,102,102)"  stroke="rgb(102,102,102)" stroke-width="1" font-size="16" >CH</text>
<text x="313.291554" y="273.769861" fill="rgb(102,102,102)"  stroke="rgb(102,102,102)" stroke-width="1" font-size="13" >3</text>
<text x="143.282032" y="159.441016" fill="rgb(102,102,102)"  stroke="rgb(102,102,102)" stroke-width="1" font-size="16" >CH</text>
<text x="167.282032" y="164.241016" fill="rgb(102,102,102)"  stroke="rgb(102,102,102)" stroke-width="1" font-size="13" >3</text>
<text x="213.335615" y="215.982834" fill="rgb(102,102,102)"  stroke="rgb(102,102,102)" stroke-width="1" font-size="16" >H</text>
<text x="225.335615" y="220.782834" fill="rgb(102,102,102)"  stroke="rgb(102,102,102)" stroke-width="1" font-size="13" >3</text>
<text x="231.835615" y="215.982834" fill="rgb(102,102,102)"  stroke="rgb(102,102,102)" stroke-width="1" font-size="16" >C</text>
<text x="24.400000" y="79.441016" fill="rgb(255,12,12)"  stroke="rgb(255,12,12)" stroke-width="1" font-size="16" >HO</text>
<text x="281.707264" y="375.070536" fill="rgb(191,191,191)"  stroke="rgb(191,191,191)" stroke-width="1" font-size="16" >H</text>
<text x="316.056778" y="239.244068" fill="rgb(191,191,191)"  stroke="rgb(191,191,191)" stroke-width="1" font-size="16" >H</text>
<text x="56.400000" y="48.320000" fill="rgb(191,191,191)"  stroke="rgb(191,191,191)" stroke-width="1" font-size="16" >H</text>
<text x="247.205081" y="102.961016" fill="rgb(191,191,191)"  stroke="rgb(191,191,191)" stroke-width="1" font-size="16" >H</text>
<text x="314.973134" y="218.566920" fill="rgb(191,191,191)"  stroke="rgb(191,191,191)" stroke-width="1" font-size="16" >H</text>
<text x="233.335615" y="106.419198" fill="rgb(191,191,191)"  stroke="rgb(191,191,191)" stroke-width="1" font-size="16" >H</text>
<text x="145.682032" y="159.441016" fill="rgb(191,191,191)"  stroke="rgb(191,191,191)" stroke-width="1" font-size="16" >H</text>
<text font-size="18.000000" fill ="black" font-family="sans-serif"
x="140.000000" y="20.000000" ></text>
<title> - OBDepict</title>
</svg>
