<?xml version="1.0"?>
<svg xmlns="http://www.w3.org/2000/svg"
xmlns:xlink="http://www.w3.org/1999/xlink" xmlns:cml="http://www.xml-cml.org/schema" width="319.899" height="248.902" x="0" y="0" font-family="sans-serif" stroke="rgb(0,0,0)" stroke-width="1" >
<line x1="256.4" y1="176.5" x2="240.1" y2="140.0"/>
<line x1="256.4" y1="176.5" x2="239.0" y2="200.5"/>
<polygon points="251.018277 75.516982 236.463554 98.373053 243.771917 101.626947 " />
<line x1="240.1" y1="100.0" x2="269.6" y2="96.9"/>
<line x1="265.6" y1="142.3" x2="265.5" y2="143.1"/>
<line x1="261.7" y1="141.5" x2="261.5" y2="143.1"/>
<line x1="257.7" y1="140.6" x2="257.5" y2="143.0"/>
<line x1="253.8" y1="139.8" x2="253.5" y2="143.0"/>
<line x1="249.9" y1="139.0" x2="249.5" y2="143.0"/>
<line x1="245.9" y1="138.2" x2="245.4" y2="143.0"/>
<line x1="242.0" y1="137.4" x2="241.4" y2="143.0"/>
<line x1="73.1" y1="62.6" x2="47.5" y2="47.8"/>
<line x1="76.1" y1="57.4" x2="50.5" y2="42.6"/>
<line x1="156.6" y1="133.1" x2="156.2" y2="132.5"/>
<line x1="160.3" y1="131.5" x2="159.5" y2="130.1"/>
<line x1="163.9" y1="129.8" x2="162.7" y2="127.8"/>
<line x1="167.6" y1="128.2" x2="166.0" y2="125.4"/>
<line x1="171.3" y1="126.5" x2="169.3" y2="123.1"/>
<line x1="174.9" y1="124.9" x2="172.5" y2="120.7"/>
<line x1="178.6" y1="123.2" x2="175.8" y2="118.4"/>
<line x1="178.6" y1="120.0" x2="152.9" y2="105.2"/>
<line x1="109.3" y1="120.0" x2="109.3" y2="149.6"/>
<line x1="202.1" y1="87.6" x2="240.1" y2="100.0"/>
<line x1="240.1" y1="100.0" x2="240.1" y2="140.0"/>
<line x1="240.1" y1="140.0" x2="212.0" y2="149.1"/>
<line x1="196.0" y1="143.9" x2="178.6" y2="120.0"/>
<line x1="178.6" y1="120.0" x2="202.1" y2="87.6"/>
<line x1="109.3" y1="40.0" x2="143.9" y2="60.0"/>
<line x1="110.9" y1="49.2" x2="135.1" y2="63.2"/>
<line x1="143.9" y1="60.0" x2="143.9" y2="89.6"/>
<line x1="134.9" y1="105.2" x2="109.3" y2="120.0"/>
<line x1="109.3" y1="120.0" x2="83.6" y2="105.2"/>
<line x1="107.7" y1="110.8" x2="89.0" y2="100.0"/>
<line x1="74.6" y1="89.6" x2="74.6" y2="60.0"/>
<line x1="74.6" y1="60.0" x2="109.3" y2="40.0"/>
<text x="24.400000" y="48.320000" fill="rgb(12,12,255)"  stroke="rgb(12,12,255)" stroke-width="1" font-size="16" >HN</text>
<text x="71.041016" y="104.800000" fill="rgb(12,12,255)"  stroke="rgb(12,12,255)" stroke-width="1" font-size="16" >N</text>
<text x="137.923048" y="104.800000" fill="rgb(12,12,255)"  stroke="rgb(12,12,255)" stroke-width="1" font-size="16" >N</text>
<text x="217.275791" y="213.702498" fill="rgb(255,12,12)"  stroke="rgb(255,12,12)" stroke-width="1" font-size="16" >HO</text>
<text x="273.898611" y="104.138861" fill="rgb(255,12,12)"  stroke="rgb(255,12,12)" stroke-width="1" font-size="16" >OH</text>
<text x="103.282032" y="164.800000" fill="rgb(255,12,12)"  stroke="rgb(255,12,12)" stroke-width="1" font-size="16" >OH</text>
<text x="198.475475" y="157.160680" fill="rgb(255,12,12)"  stroke="rgb(255,12,12)" stroke-width="1" font-size="16" >O</text>
<text x="250.387201" y="71.778182" fill="rgb(191,191,191)"  stroke="rgb(191,191,191)" stroke-width="1" font-size="16" >H</text>
<text x="273.898611" y="148.981139" fill="rgb(191,191,191)"  stroke="rgb(191,191,191)" stroke-width="1" font-size="16" >H</text>
<text x="140.323048" y="144.800000" fill="rgb(191,191,191)"  stroke="rgb(191,191,191)" stroke-width="1" font-size="16" >H</text>
<text font-size="18.000000" fill ="black" font-family="sans-serif"
x="140.000000" y="20.000000" ></text>
<title> - OBDepict</title>
</svg>
