<?xml version="1.0"?>
<svg xmlns="http://www.w3.org/2000/svg"
xmlns:xlink="http://www.w3.org/1999/xlink" xmlns:cml="http://www.xml-cml.org/schema" width="293.229" height="234.646" x="0" y="0" font-family="sans-serif" stroke="rgb(0,0,0)" stroke-width="1" >
<line x1="163.8" y1="185.6" x2="178.6" y2="160.0"/>
<polygon points="191.982812 183.214253 182.049569 158.003979 175.120963 162.003282 " />
<line x1="213.2" y1="100.0" x2="238.9" y2="85.2"/>
<polygon points="240.029547 139.972169 213.227112 135.990119 213.232470 143.990117 " />
<line x1="213.2" y1="140.0" x2="228.0" y2="165.6"/>
<line x1="109.3" y1="120.0" x2="109.3" y2="149.6"/>
<line x1="73.1" y1="62.6" x2="47.5" y2="47.8"/>
<line x1="76.1" y1="57.4" x2="50.5" y2="42.6"/>
<line x1="213.2" y1="60.0" x2="213.2" y2="100.0"/>
<line x1="213.2" y1="100.0" x2="187.6" y2="114.8"/>
<line x1="169.6" y1="114.8" x2="143.9" y2="100.0"/>
<line x1="143.9" y1="100.0" x2="143.9" y2="60.0"/>
<line x1="143.9" y1="60.0" x2="169.6" y2="45.2"/>
<line x1="152.7" y1="63.2" x2="171.4" y2="52.4"/>
<line x1="187.6" y1="45.2" x2="213.2" y2="60.0"/>
<line x1="74.6" y1="60.0" x2="100.3" y2="45.2"/>
<line x1="118.3" y1="45.2" x2="143.9" y2="60.0"/>
<line x1="143.9" y1="100.0" x2="109.3" y2="120.0"/>
<line x1="109.3" y1="120.0" x2="83.7" y2="105.2"/>
<line x1="107.7" y1="110.8" x2="89.0" y2="100.0"/>
<line x1="74.7" y1="89.6" x2="74.6" y2="60.0"/>
<line x1="178.6" y1="160.0" x2="153.0" y2="145.2"/>
<line x1="143.9" y1="129.6" x2="143.9" y2="100.0"/>
<line x1="213.2" y1="100.0" x2="213.2" y2="140.0"/>
<line x1="213.2" y1="140.0" x2="178.6" y2="160.0"/>
<text x="134.981959" y="199.442326" fill="rgb(102,102,102)"  stroke="rgb(102,102,102)" stroke-width="1" font-size="16" >H</text>
<text x="146.981959" y="204.242326" fill="rgb(102,102,102)"  stroke="rgb(102,102,102)" stroke-width="1" font-size="13" >3</text>
<text x="153.481959" y="199.442326" fill="rgb(102,102,102)"  stroke="rgb(102,102,102)" stroke-width="1" font-size="16" >C</text>
<text x="35.200000" y="33.634404" fill="rgb(12,12,255)"  stroke="rgb(12,12,255)" stroke-width="1" font-size="16" >+</text>
<text x="24.400000" y="48.354404" fill="rgb(12,12,255)"  stroke="rgb(12,12,255)" stroke-width="1" font-size="16" >HN</text>
<text x="172.561346" y="48.320000" fill="rgb(12,12,255)"  stroke="rgb(12,12,255)" stroke-width="1" font-size="16" >N</text>
<text x="103.282771" y="48.339810" fill="rgb(12,12,255)"  stroke="rgb(12,12,255)" stroke-width="1" font-size="16" >NH</text>
<text x="71.052667" y="104.828531" fill="rgb(12,12,255)"  stroke="rgb(12,12,255)" stroke-width="1" font-size="16" >N</text>
<text x="172.577293" y="124.802420" fill="rgb(12,12,255)"  stroke="rgb(12,12,255)" stroke-width="1" font-size="16" >NH</text>
<text x="227.252809" y="179.417424" fill="rgb(255,12,12)"  stroke="rgb(255,12,12)" stroke-width="1" font-size="16" >OH</text>
<text x="103.306691" y="164.821874" fill="rgb(255,12,12)"  stroke="rgb(255,12,12)" stroke-width="1" font-size="16" >OH</text>
<text x="140.344767" y="144.803929" fill="rgb(255,12,12)"  stroke="rgb(255,12,12)" stroke-width="1" font-size="16" >O</text>
<text x="192.581603" y="199.446350" fill="rgb(191,191,191)"  stroke="rgb(191,191,191)" stroke-width="1" font-size="16" >H</text>
<text x="241.867948" y="88.330478" fill="rgb(191,191,191)"  stroke="rgb(191,191,191)" stroke-width="1" font-size="16" >H</text>
<text x="247.229426" y="148.283329" fill="rgb(191,191,191)"  stroke="rgb(191,191,191)" stroke-width="1" font-size="16" >H</text>
<text font-size="18.000000" fill ="black" font-family="sans-serif"
x="140.000000" y="20.000000" ></text>
<title> - OBDepict</title>
</svg>
