<?xml version="1.0"?>
<svg xmlns="http://www.w3.org/2000/svg"
xmlns:xlink="http://www.w3.org/1999/xlink" xmlns:cml="http://www.xml-cml.org/schema" width="461.619" height="316.186" x="0" y="0" font-family="sans-serif" stroke="rgb(0,0,0)" stroke-width="1" >
<line x1="357.7" y1="119.9" x2="358.3" y2="119.4"/>
<line x1="359.6" y1="123.2" x2="360.9" y2="122.2"/>
<line x1="361.5" y1="126.5" x2="363.5" y2="125.1"/>
<line x1="363.5" y1="129.8" x2="366.1" y2="128.0"/>
<line x1="365.4" y1="133.2" x2="368.6" y2="130.8"/>
<line x1="367.3" y1="136.5" x2="371.2" y2="133.7"/>
<line x1="369.2" y1="139.8" x2="373.8" y2="136.5"/>
<line x1="190.1" y1="212.2" x2="165.6" y2="226.3"/>
<polygon points="289.491391 180.417391 293.491391 154.782609 285.491391 154.782609 " />
<line x1="289.1" y1="67.5" x2="289.9" y2="67.5"/>
<line x1="288.7" y1="75.2" x2="290.3" y2="75.2"/>
<line x1="288.3" y1="82.9" x2="290.7" y2="82.9"/>
<line x1="287.9" y1="90.5" x2="291.1" y2="90.5"/>
<line x1="287.5" y1="98.2" x2="291.5" y2="98.2"/>
<line x1="287.1" y1="105.8" x2="291.9" y2="105.8"/>
<line x1="286.7" y1="113.5" x2="292.3" y2="113.5"/>
<polygon points="297.131923 94.711740 322.208162 101.369392 323.044390 93.413217 " />
<line x1="384.8" y1="88.0" x2="412.5" y2="93.9"/>
<line x1="383.6" y1="93.9" x2="411.3" y2="99.7"/>
<line x1="59.4" y1="148.3" x2="59.9" y2="147.7"/>
<line x1="61.8" y1="151.3" x2="62.9" y2="150.1"/>
<line x1="64.2" y1="154.3" x2="65.9" y2="152.6"/>
<line x1="66.6" y1="157.2" x2="68.9" y2="155.0"/>
<line x1="69.0" y1="160.2" x2="71.9" y2="157.4"/>
<line x1="71.5" y1="163.2" x2="74.9" y2="159.8"/>
<line x1="73.9" y1="166.2" x2="77.9" y2="162.3"/>
<line x1="77.0" y1="165.3" x2="49.6" y2="172.6"/>
<polygon points="110.646452 113.498290 100.147979 137.224313 107.875386 139.294865 " />
<line x1="104.0" y1="138.3" x2="84.0" y2="118.2"/>
<polygon points="62.098505 208.906041 87.895080 206.134975 85.824528 198.407568 " />
<line x1="86.9" y1="202.3" x2="72.2" y2="257.0"/>
<line x1="164.5" y1="141.4" x2="164.7" y2="142.2"/>
<line x1="160.7" y1="142.0" x2="161.1" y2="143.6"/>
<line x1="156.9" y1="142.6" x2="157.5" y2="145.0"/>
<line x1="153.1" y1="143.2" x2="153.9" y2="146.3"/>
<line x1="149.3" y1="143.9" x2="150.4" y2="147.7"/>
<line x1="145.5" y1="144.5" x2="146.8" y2="149.1"/>
<line x1="141.7" y1="145.1" x2="143.2" y2="150.5"/>
<line x1="141.0" y1="148.2" x2="150.9" y2="111.2"/>
<line x1="150.1" y1="108.3" x2="177.4" y2="101.0"/>
<line x1="151.6" y1="114.1" x2="179.0" y2="106.8"/>
<line x1="150.9" y1="111.2" x2="130.9" y2="91.2"/>
<line x1="104.6" y1="227.4" x2="104.1" y2="226.8"/>
<line x1="107.9" y1="225.4" x2="106.9" y2="224.1"/>
<line x1="111.2" y1="223.4" x2="109.7" y2="221.5"/>
<line x1="114.5" y1="221.4" x2="112.5" y2="218.8"/>
<line x1="117.7" y1="219.4" x2="115.3" y2="216.2"/>
<line x1="121.0" y1="217.3" x2="118.1" y2="213.5"/>
<line x1="124.3" y1="215.3" x2="120.9" y2="210.9"/>
<line x1="123.8" y1="212.2" x2="148.3" y2="226.3"/>
<line x1="322.6" y1="97.4" x2="330.6" y2="60.0"/>
<line x1="330.6" y1="60.0" x2="368.6" y2="56.0"/>
<line x1="368.6" y1="56.0" x2="384.2" y2="90.9"/>
<line x1="384.2" y1="90.9" x2="355.8" y2="116.5"/>
<line x1="355.8" y1="116.5" x2="322.6" y2="97.4"/>
<line x1="256.4" y1="97.4" x2="223.2" y2="116.5"/>
<line x1="223.2" y1="116.5" x2="223.2" y2="154.8"/>
<line x1="223.2" y1="154.8" x2="256.4" y2="173.9"/>
<line x1="256.4" y1="173.9" x2="289.5" y2="154.8"/>
<line x1="289.5" y1="154.8" x2="289.5" y2="116.5"/>
<line x1="289.5" y1="116.5" x2="256.4" y2="97.4"/>
<line x1="190.1" y1="173.9" x2="190.1" y2="212.2"/>
<line x1="190.1" y1="212.2" x2="223.2" y2="231.3"/>
<line x1="198.9" y1="208.9" x2="221.6" y2="222.1"/>
<line x1="223.2" y1="231.3" x2="256.4" y2="212.2"/>
<line x1="256.4" y1="212.2" x2="256.4" y2="173.9"/>
<line x1="249.2" y1="206.2" x2="249.2" y2="179.9"/>
<line x1="223.2" y1="154.8" x2="190.1" y2="173.9"/>
<line x1="221.6" y1="164.0" x2="198.9" y2="177.1"/>
<line x1="322.6" y1="97.4" x2="289.5" y2="116.5"/>
<line x1="289.5" y1="154.8" x2="322.6" y2="173.9"/>
<line x1="322.6" y1="173.9" x2="355.8" y2="154.8"/>
<line x1="355.8" y1="154.8" x2="355.8" y2="116.5"/>
<line x1="77.0" y1="165.3" x2="104.0" y2="138.3"/>
<line x1="104.0" y1="138.3" x2="141.0" y2="148.2"/>
<line x1="141.0" y1="148.2" x2="148.3" y2="175.5"/>
<line x1="143.8" y1="192.2" x2="123.8" y2="212.2"/>
<line x1="123.8" y1="212.2" x2="86.9" y2="202.3"/>
<line x1="86.9" y1="202.3" x2="77.0" y2="165.3"/>
<text x="372.250336" y="152.275433" fill="rgb(102,102,102)"  stroke="rgb(102,102,102)" stroke-width="1" font-size="16" >CH</text>
<text x="396.250336" y="157.075433" fill="rgb(102,102,102)"  stroke="rgb(102,102,102)" stroke-width="1" font-size="13" >3</text>
<text x="415.619306" y="103.675102" fill="rgb(255,12,12)"  stroke="rgb(255,12,12)" stroke-width="1" font-size="16" >O</text>
<text x="24.400000" y="180.016751" fill="rgb(255,12,12)"  stroke="rgb(255,12,12)" stroke-width="1" font-size="16" >HO</text>
<text x="61.357162" y="119.525069" fill="rgb(255,12,12)"  stroke="rgb(255,12,12)" stroke-width="1" font-size="16" >HO</text>
<text x="51.454520" y="280.985595" fill="rgb(255,12,12)"  stroke="rgb(255,12,12)" stroke-width="1" font-size="16" >HO</text>
<text x="181.828648" y="109.622427" fill="rgb(255,12,12)"  stroke="rgb(255,12,12)" stroke-width="1" font-size="16" >O</text>
<text x="108.216966" y="92.470548" fill="rgb(255,12,12)"  stroke="rgb(255,12,12)" stroke-width="1" font-size="16" >HO</text>
<text x="150.951851" y="236.104348" fill="rgb(255,12,12)"  stroke="rgb(255,12,12)" stroke-width="1" font-size="16" >O</text>
<text x="144.871486" y="189.919393" fill="rgb(255,12,12)"  stroke="rgb(255,12,12)" stroke-width="1" font-size="16" >O</text>
<text x="283.491391" y="197.843478" fill="rgb(191,191,191)"  stroke="rgb(191,191,191)" stroke-width="1" font-size="16" >H</text>
<text x="283.491391" y="48.320000" fill="rgb(191,191,191)"  stroke="rgb(191,191,191)" stroke-width="1" font-size="16" >H</text>
<text x="280.975003" y="101.711954" fill="rgb(191,191,191)"  stroke="rgb(191,191,191)" stroke-width="1" font-size="16" >H</text>
<text x="46.302642" y="146.579589" fill="rgb(191,191,191)"  stroke="rgb(191,191,191)" stroke-width="1" font-size="16" >H</text>
<text x="107.914324" y="109.622427" fill="rgb(191,191,191)"  stroke="rgb(191,191,191)" stroke-width="1" font-size="16" >H</text>
<text x="46.302642" y="216.973913" fill="rgb(191,191,191)"  stroke="rgb(191,191,191)" stroke-width="1" font-size="16" >H</text>
<text x="171.926006" y="146.579589" fill="rgb(191,191,191)"  stroke="rgb(191,191,191)" stroke-width="1" font-size="16" >H</text>
<text x="89.862577" y="240.265655" fill="rgb(191,191,191)"  stroke="rgb(191,191,191)" stroke-width="1" font-size="16" >H</text>
<text font-size="18.000000" fill ="black" font-family="sans-serif"
x="140.000000" y="20.000000" ></text>
<title> - OBDepict</title>
</svg>
