<?xml version="1.0"?>
<svg xmlns="http://www.w3.org/2000/svg"
xmlns:xlink="http://www.w3.org/1999/xlink" xmlns:cml="http://www.xml-cml.org/schema" width="423.822" height="451.487" x="0" y="0" font-family="sans-serif" stroke="rgb(0,0,0)" stroke-width="1" >
<line x1="40.0" y1="50.4" x2="40.0" y2="80.0"/>
<line x1="373.5" y1="316.9" x2="344.0" y2="320.0"/>
<line x1="40.0" y1="80.0" x2="74.6" y2="100.0"/>
<line x1="74.6" y1="100.0" x2="74.6" y2="140.0"/>
<line x1="74.6" y1="140.0" x2="109.3" y2="160.0"/>
<line x1="109.3" y1="160.0" x2="109.3" y2="189.6"/>
<polygon points="354.941326 295.516982 340.386602 318.373053 347.694966 321.626947 " />
<line x1="178.6" y1="320.0" x2="152.9" y2="334.8"/>
<line x1="369.5" y1="362.3" x2="369.5" y2="363.1"/>
<line x1="365.6" y1="361.5" x2="365.4" y2="363.1"/>
<line x1="361.7" y1="360.6" x2="361.4" y2="363.0"/>
<line x1="357.7" y1="359.8" x2="357.4" y2="363.0"/>
<line x1="353.8" y1="359.0" x2="353.4" y2="363.0"/>
<line x1="349.9" y1="358.2" x2="349.4" y2="363.0"/>
<line x1="345.9" y1="357.4" x2="345.3" y2="363.0"/>
<line x1="344.0" y1="360.0" x2="356.1" y2="387.0"/>
<line x1="311.7" y1="397.3" x2="310.9" y2="397.5"/>
<line x1="311.3" y1="393.3" x2="309.7" y2="393.7"/>
<line x1="310.8" y1="389.3" x2="308.5" y2="389.8"/>
<line x1="310.4" y1="385.3" x2="307.3" y2="386.0"/>
<line x1="310.0" y1="381.3" x2="306.0" y2="382.2"/>
<line x1="309.5" y1="377.3" x2="304.8" y2="378.3"/>
<line x1="309.1" y1="373.3" x2="303.6" y2="374.5"/>
<line x1="306.0" y1="372.4" x2="284.0" y2="392.2"/>
<line x1="178.6" y1="280.0" x2="152.9" y2="265.2"/>
<polygon points="259.277632 353.400000 284.487113 343.464102 280.487113 336.535898 " />
<line x1="282.5" y1="340.0" x2="256.9" y2="325.2"/>
<line x1="246.3" y1="277.4" x2="272.0" y2="262.6"/>
<line x1="249.3" y1="282.6" x2="275.0" y2="267.8"/>
<line x1="146.9" y1="220.0" x2="146.9" y2="249.6"/>
<line x1="140.9" y1="220.0" x2="140.9" y2="249.6"/>
<line x1="143.9" y1="220.0" x2="169.6" y2="205.2"/>
<line x1="143.9" y1="220.0" x2="118.3" y2="205.2"/>
<line x1="306.0" y1="372.4" x2="282.5" y2="340.0"/>
<line x1="282.5" y1="340.0" x2="299.9" y2="316.1"/>
<line x1="315.9" y1="310.9" x2="344.0" y2="320.0"/>
<line x1="344.0" y1="320.0" x2="344.0" y2="360.0"/>
<line x1="344.0" y1="360.0" x2="306.0" y2="372.4"/>
<line x1="213.2" y1="340.0" x2="178.6" y2="320.0"/>
<line x1="211.6" y1="330.8" x2="187.4" y2="316.8"/>
<line x1="178.6" y1="320.0" x2="178.6" y2="280.0"/>
<line x1="178.6" y1="280.0" x2="204.2" y2="265.2"/>
<line x1="187.4" y1="283.2" x2="206.1" y2="272.4"/>
<line x1="222.2" y1="265.2" x2="247.8" y2="280.0"/>
<line x1="247.8" y1="280.0" x2="247.8" y2="309.6"/>
<line x1="238.8" y1="325.2" x2="213.2" y2="340.0"/>
<text x="34.000000" y="48.320000" fill="rgb(102,102,102)"  stroke="rgb(102,102,102)" stroke-width="1" font-size="16" >CH</text>
<text x="58.000000" y="56.000000" fill="rgb(102,102,102)"  stroke="rgb(102,102,102)" stroke-width="1" font-size="13" >3</text>
<text x="377.821660" y="324.138861" fill="rgb(102,102,102)"  stroke="rgb(102,102,102)" stroke-width="1" font-size="16" >CH</text>
<text x="401.821660" y="331.818861" fill="rgb(102,102,102)"  stroke="rgb(102,102,102)" stroke-width="1" font-size="13" >3</text>
<text x="140.323048" y="344.800000" fill="rgb(127,178,255)"  stroke="rgb(127,178,255)" stroke-width="1" font-size="16" >F</text>
<text x="207.205081" y="268.320000" fill="rgb(12,12,255)"  stroke="rgb(12,12,255)" stroke-width="1" font-size="16" >N</text>
<text x="140.323048" y="264.800000" fill="rgb(12,12,255)"  stroke="rgb(12,12,255)" stroke-width="1" font-size="16" >N</text>
<text x="241.846097" y="324.800000" fill="rgb(12,12,255)"  stroke="rgb(12,12,255)" stroke-width="1" font-size="16" >N</text>
<text x="354.310250" y="401.341818" fill="rgb(255,12,12)"  stroke="rgb(255,12,12)" stroke-width="1" font-size="16" >OH</text>
<text x="260.672730" y="403.925904" fill="rgb(255,12,12)"  stroke="rgb(255,12,12)" stroke-width="1" font-size="16" >HO</text>
<text x="276.487113" y="268.320000" fill="rgb(255,12,12)"  stroke="rgb(255,12,12)" stroke-width="1" font-size="16" >O</text>
<text x="172.564065" y="208.320000" fill="rgb(255,12,12)"  stroke="rgb(255,12,12)" stroke-width="1" font-size="16" >OH</text>
<text x="105.682032" y="204.800000" fill="rgb(255,12,12)"  stroke="rgb(255,12,12)" stroke-width="1" font-size="16" >O</text>
<text x="302.398523" y="315.959320" fill="rgb(255,12,12)"  stroke="rgb(255,12,12)" stroke-width="1" font-size="16" >O</text>
<text x="354.310250" y="291.778182" fill="rgb(191,191,191)"  stroke="rgb(191,191,191)" stroke-width="1" font-size="16" >H</text>
<text x="377.821660" y="368.981139" fill="rgb(191,191,191)"  stroke="rgb(191,191,191)" stroke-width="1" font-size="16" >H</text>
<text x="308.314991" y="416.286584" fill="rgb(191,191,191)"  stroke="rgb(191,191,191)" stroke-width="1" font-size="16" >H</text>
<text x="244.246097" y="364.800000" fill="rgb(191,191,191)"  stroke="rgb(191,191,191)" stroke-width="1" font-size="16" >H</text>
<text font-size="18.000000" fill ="black" font-family="sans-serif"
x="140.000000" y="20.000000" ></text>
<title> - OBDepict</title>
</svg>
