<?xml version="1.0"?>
<svg xmlns="http://www.w3.org/2000/svg"
xmlns:xlink="http://www.w3.org/1999/xlink" xmlns:cml="http://www.xml-cml.org/schema" width="341.554" height="189.282" x="0" y="0" font-family="sans-serif" stroke="rgb(0,0,0)" stroke-width="1" >
<line x1="200.0" y1="80.0" x2="240.0" y2="80.0"/>
<line x1="200.0" y1="80.0" x2="180.0" y2="114.6"/>
<line x1="140.0" y1="114.6" x2="180.0" y2="114.6"/>
<line x1="140.0" y1="114.6" x2="125.2" y2="89.0"/>
<line x1="182.6" y1="113.1" x2="197.4" y2="138.8"/>
<line x1="177.4" y1="116.1" x2="192.2" y2="141.8"/>
<line x1="80.0" y1="50.4" x2="80.0" y2="69.6"/>
<line x1="50.4" y1="80.0" x2="69.6" y2="80.0"/>
<line x1="77.0" y1="109.6" x2="77.0" y2="90.4"/>
<line x1="83.0" y1="109.6" x2="83.0" y2="90.4"/>
<line x1="109.6" y1="80.0" x2="90.4" y2="80.0"/>
<line x1="263.5" y1="112.4" x2="240.0" y2="80.0"/>
<line x1="265.8" y1="103.3" x2="249.4" y2="80.6"/>
<line x1="240.0" y1="80.0" x2="257.4" y2="56.1"/>
<line x1="273.4" y1="50.9" x2="301.6" y2="60.0"/>
<line x1="301.6" y1="60.0" x2="301.6" y2="89.6"/>
<line x1="294.4" y1="66.0" x2="294.4" y2="87.6"/>
<line x1="291.7" y1="103.2" x2="263.5" y2="112.4"/>
<text x="295.553671" y="104.800000" fill="rgb(12,12,255)"  stroke="rgb(12,12,255)" stroke-width="1" font-size="16" >N</text>
<text x="247.911410" y="55.959320" fill="rgb(12,12,255)"  stroke="rgb(12,12,255)" stroke-width="1" font-size="16" >HN</text>
<text x="194.000000" y="154.082032" fill="rgb(255,12,12)"  stroke="rgb(255,12,12)" stroke-width="1" font-size="16" >O</text>
<text x="75.200000" y="33.600000" fill="rgb(255,12,12)"  stroke="rgb(255,12,12)" stroke-width="1" font-size="32" >-</text>
<text x="74.000000" y="48.320000" fill="rgb(255,12,12)"  stroke="rgb(255,12,12)" stroke-width="1" font-size="16" >O</text>
<text x="35.200000" y="73.600000" fill="rgb(255,12,12)"  stroke="rgb(255,12,12)" stroke-width="1" font-size="32" >-</text>
<text x="36.400000" y="88.320000" fill="rgb(255,12,12)"  stroke="rgb(255,12,12)" stroke-width="1" font-size="16" >O</text>
<text x="74.000000" y="124.800000" fill="rgb(255,12,12)"  stroke="rgb(255,12,12)" stroke-width="1" font-size="16" >O</text>
<text x="114.000000" y="88.320000" fill="rgb(255,12,12)"  stroke="rgb(255,12,12)" stroke-width="1" font-size="16" >O</text>
<text x="74.000000" y="84.800000" fill="rgb(255,127,0)"  stroke="rgb(255,127,0)" stroke-width="1" font-size="16" >P</text>
<text font-size="18.000000" fill ="black" font-family="sans-serif"
x="140.000000" y="20.000000" ></text>
<title> - OBDepict</title>
</svg>
