<?xml version="1.0"?>
<svg xmlns="http://www.w3.org/2000/svg"
xmlns:xlink="http://www.w3.org/1999/xlink" xmlns:cml="http://www.xml-cml.org/schema" width="357.666" height="240.255" x="0" y="0" font-family="sans-serif" stroke="rgb(0,0,0)" stroke-width="1" >
<line x1="74.7" y1="120.5" x2="49.0" y2="135.3"/>
<line x1="282.2" y1="50.4" x2="282.4" y2="79.9"/>
<line x1="282.4" y1="79.9" x2="247.7" y2="60.1"/>
<line x1="247.7" y1="60.1" x2="273.2" y2="45.2"/>
<line x1="109.1" y1="140.3" x2="143.5" y2="120.5"/>
<line x1="143.5" y1="120.5" x2="143.5" y2="80.8"/>
<line x1="143.5" y1="80.8" x2="109.1" y2="60.9"/>
<line x1="109.1" y1="60.9" x2="74.7" y2="80.8"/>
<line x1="107.5" y1="70.1" x2="83.5" y2="84.0"/>
<line x1="74.7" y1="80.8" x2="74.7" y2="120.5"/>
<line x1="74.7" y1="120.5" x2="109.1" y2="140.3"/>
<line x1="83.5" y1="117.3" x2="107.5" y2="131.1"/>
<line x1="247.7" y1="60.1" x2="212.9" y2="79.9"/>
<line x1="212.9" y1="79.9" x2="213.4" y2="120.2"/>
<line x1="220.2" y1="85.8" x2="220.5" y2="114.1"/>
<line x1="213.4" y1="120.2" x2="248.0" y2="140.0"/>
<line x1="248.0" y1="140.0" x2="282.6" y2="119.7"/>
<line x1="282.6" y1="119.7" x2="282.4" y2="79.9"/>
<line x1="248.0" y1="180.2" x2="248.0" y2="140.0"/>
<line x1="240.8" y1="174.2" x2="240.8" y2="146.0"/>
<line x1="213.4" y1="120.2" x2="178.3" y2="140.4"/>
<line x1="178.3" y1="140.4" x2="178.9" y2="180.5"/>
<line x1="178.9" y1="180.5" x2="213.6" y2="200.3"/>
<line x1="187.7" y1="177.2" x2="211.9" y2="191.0"/>
<line x1="213.6" y1="200.3" x2="248.0" y2="180.2"/>
<line x1="212.9" y1="79.9" x2="178.1" y2="60.0"/>
<line x1="178.1" y1="60.0" x2="143.5" y2="80.8"/>
<line x1="176.7" y1="69.3" x2="152.4" y2="83.8"/>
<line x1="143.5" y1="120.5" x2="178.3" y2="140.4"/>
<line x1="152.3" y1="117.2" x2="176.7" y2="131.2"/>
<line x1="317.4" y1="139.6" x2="317.7" y2="179.8"/>
<line x1="317.7" y1="179.8" x2="282.8" y2="200.1"/>
<line x1="308.9" y1="176.6" x2="284.4" y2="190.9"/>
<line x1="282.8" y1="200.1" x2="248.0" y2="180.2"/>
<line x1="282.6" y1="119.7" x2="317.4" y2="139.6"/>
<line x1="284.2" y1="128.9" x2="308.6" y2="142.9"/>
<text x="24.400000" y="145.326691" fill="rgb(255,12,12)"  stroke="rgb(255,12,12)" stroke-width="1" font-size="16" >HO</text>
<text x="276.204049" y="48.320000" fill="rgb(255,12,12)"  stroke="rgb(255,12,12)" stroke-width="1" font-size="16" >O</text>
<text font-size="18.000000" fill ="black" font-family="sans-serif"
x="140.000000" y="20.000000" ></text>
<title> - OBDepict</title>
</svg>
