<?xml version="1.0"?>
<svg xmlns="http://www.w3.org/2000/svg"
xmlns:xlink="http://www.w3.org/1999/xlink" xmlns:cml="http://www.xml-cml.org/schema" width="767.249" height="560.695" x="0" y="0" font-family="sans-serif" stroke="rgb(0,0,0)" stroke-width="1" >
<line x1="57.1" y1="158.1" x2="66.0" y2="185.5"/>
<line x1="46.8" y1="206.8" x2="66.0" y2="185.5"/>
<line x1="452.3" y1="115.4" x2="473.7" y2="134.6"/>
<line x1="446.4" y1="143.5" x2="473.7" y2="134.6"/>
<line x1="116.0" y1="230.5" x2="104.0" y2="193.5"/>
<line x1="116.0" y1="230.5" x2="153.9" y2="238.5"/>
<line x1="103.3" y1="196.5" x2="65.4" y2="188.4"/>
<line x1="104.6" y1="190.6" x2="66.6" y2="182.5"/>
<line x1="153.9" y1="238.5" x2="179.9" y2="209.7"/>
<line x1="385.7" y1="81.6" x2="423.7" y2="89.6"/>
<line x1="385.7" y1="81.6" x2="359.8" y2="110.4"/>
<line x1="423.7" y1="89.6" x2="442.9" y2="68.3"/>
<line x1="345.8" y1="176.2" x2="307.8" y2="168.1"/>
<line x1="345.8" y1="176.2" x2="365.0" y2="154.8"/>
<line x1="307.8" y1="168.1" x2="288.6" y2="189.5"/>
<line x1="217.9" y1="217.7" x2="179.9" y2="209.7"/>
<line x1="217.9" y1="217.7" x2="243.9" y2="188.9"/>
<line x1="467.6" y1="350.2" x2="505.5" y2="358.3"/>
<line x1="467.6" y1="350.2" x2="458.7" y2="322.9"/>
<line x1="497.7" y1="208.5" x2="473.7" y2="134.6"/>
<line x1="497.7" y1="208.5" x2="478.5" y2="229.8"/>
<line x1="177.1" y1="210.6" x2="168.2" y2="183.3"/>
<line x1="182.8" y1="208.7" x2="173.9" y2="181.4"/>
<line x1="497.5" y1="334.8" x2="498.2" y2="334.5"/>
<line x1="498.3" y1="338.6" x2="499.8" y2="338.1"/>
<line x1="499.1" y1="342.4" x2="501.4" y2="341.7"/>
<line x1="499.9" y1="346.2" x2="503.0" y2="345.2"/>
<line x1="500.8" y1="350.0" x2="504.6" y2="348.8"/>
<line x1="501.6" y1="353.8" x2="506.1" y2="352.4"/>
<line x1="502.4" y1="357.7" x2="507.7" y2="355.9"/>
<line x1="362.6" y1="109.5" x2="371.5" y2="136.8"/>
<line x1="356.9" y1="111.3" x2="365.8" y2="138.7"/>
<line x1="359.8" y1="110.4" x2="331.7" y2="104.4"/>
<line x1="241.0" y1="189.8" x2="232.1" y2="162.5"/>
<line x1="246.7" y1="188.0" x2="237.8" y2="160.6"/>
<line x1="243.9" y1="188.9" x2="272.0" y2="194.9"/>
<polygon points="528.906804 437.410608 540.749107 413.908017 533.140655 411.435882 " />
<line x1="536.9" y1="412.7" x2="556.2" y2="434.0"/>
<polygon points="475.466058 396.880997 501.477822 400.880997 501.477822 392.880997 " />
<line x1="501.5" y1="396.9" x2="487.1" y2="421.8"/>
<polygon points="524.407866 97.736798 498.433140 101.970650 500.905276 109.579102 " />
<line x1="499.7" y1="105.8" x2="487.7" y2="68.9"/>
<line x1="499.7" y1="105.8" x2="473.7" y2="134.6"/>
<line x1="499.7" y1="105.8" x2="521.0" y2="125.0"/>
<line x1="702.8" y1="484.4" x2="713.1" y2="511.3"/>
<line x1="487.0" y1="71.8" x2="458.9" y2="65.8"/>
<line x1="488.3" y1="65.9" x2="460.2" y2="59.9"/>
<line x1="487.7" y1="68.9" x2="506.9" y2="47.5"/>
<line x1="578.4" y1="364.4" x2="579.0" y2="364.9"/>
<line x1="575.6" y1="367.1" x2="576.9" y2="368.2"/>
<line x1="572.9" y1="369.9" x2="574.7" y2="371.4"/>
<line x1="570.1" y1="372.6" x2="572.6" y2="374.7"/>
<line x1="567.3" y1="375.4" x2="570.4" y2="377.9"/>
<line x1="564.5" y1="378.1" x2="568.2" y2="381.2"/>
<line x1="561.8" y1="380.8" x2="566.1" y2="384.4"/>
<line x1="562.9" y1="383.8" x2="599.1" y2="428.5"/>
<line x1="443.2" y1="459.2" x2="443.2" y2="440.6"/>
<line x1="414.5" y1="430.5" x2="433.1" y2="430.5"/>
<line x1="446.2" y1="401.8" x2="446.2" y2="420.4"/>
<line x1="440.2" y1="401.8" x2="440.2" y2="420.4"/>
<line x1="411.6" y1="333.3" x2="415.5" y2="315.1"/>
<line x1="390.1" y1="296.3" x2="408.3" y2="300.2"/>
<line x1="388.9" y1="302.2" x2="407.1" y2="306.0"/>
<line x1="405.6" y1="223.3" x2="423.9" y2="227.2"/>
<line x1="442.6" y1="201.8" x2="438.8" y2="220.0"/>
<line x1="436.8" y1="200.5" x2="432.9" y2="218.8"/>
<line x1="445.7" y1="311.2" x2="427.5" y2="307.3"/>
<line x1="461.8" y1="235.2" x2="443.6" y2="231.4"/>
<line x1="472.0" y1="430.5" x2="453.3" y2="430.5"/>
<line x1="423.6" y1="277.1" x2="419.7" y2="295.3"/>
<line x1="427.8" y1="257.4" x2="431.6" y2="239.1"/>
<line x1="601.7" y1="481.7" x2="609.2" y2="453.9"/>
<line x1="621.9" y1="443.6" x2="650.6" y2="442.1"/>
<line x1="650.6" y1="442.1" x2="664.5" y2="478.4"/>
<line x1="664.5" y1="478.4" x2="642.1" y2="496.5"/>
<line x1="625.8" y1="497.3" x2="601.7" y2="481.7"/>
<line x1="628.0" y1="490.1" x2="610.7" y2="478.9"/>
<line x1="505.5" y1="358.3" x2="501.5" y2="396.9"/>
<line x1="501.5" y1="396.9" x2="536.9" y2="412.7"/>
<line x1="536.9" y1="412.7" x2="562.9" y2="383.8"/>
<line x1="562.9" y1="383.8" x2="548.6" y2="358.9"/>
<line x1="533.6" y1="352.3" x2="505.5" y2="358.3"/>
<line x1="650.6" y1="442.1" x2="668.6" y2="419.8"/>
<line x1="659.9" y1="442.0" x2="672.9" y2="426.0"/>
<line x1="685.0" y1="413.5" x2="713.3" y2="418.0"/>
<line x1="713.3" y1="418.0" x2="723.6" y2="444.9"/>
<line x1="708.8" y1="426.2" x2="716.2" y2="445.5"/>
<line x1="720.9" y1="462.1" x2="702.8" y2="484.4"/>
<line x1="702.8" y1="484.4" x2="664.5" y2="478.4"/>
<line x1="698.0" y1="476.4" x2="671.5" y2="472.2"/>
<text x="30.380881" y="156.854105" fill="rgb(102,102,102)"  stroke="rgb(102,102,102)" stroke-width="1" font-size="16" >H</text>
<text x="42.380881" y="164.534105" fill="rgb(102,102,102)"  stroke="rgb(102,102,102)" stroke-width="1" font-size="13" >3</text>
<text x="48.880881" y="156.854105" fill="rgb(102,102,102)"  stroke="rgb(102,102,102)" stroke-width="1" font-size="16" >C</text>
<text x="16.400000" y="219.108980" fill="rgb(102,102,102)"  stroke="rgb(102,102,102)" stroke-width="1" font-size="16" >H</text>
<text x="28.400000" y="223.908980" fill="rgb(102,102,102)"  stroke="rgb(102,102,102)" stroke-width="1" font-size="13" >3</text>
<text x="34.900000" y="219.108980" fill="rgb(102,102,102)"  stroke="rgb(102,102,102)" stroke-width="1" font-size="16" >C</text>
<text x="421.239691" y="116.968369" fill="rgb(102,102,102)"  stroke="rgb(102,102,102)" stroke-width="1" font-size="16" >H</text>
<text x="433.239691" y="124.648369" fill="rgb(102,102,102)"  stroke="rgb(102,102,102)" stroke-width="1" font-size="13" >3</text>
<text x="439.739691" y="116.968369" fill="rgb(102,102,102)"  stroke="rgb(102,102,102)" stroke-width="1" font-size="16" >C</text>
<text x="413.167825" y="151.423511" fill="rgb(102,102,102)"  stroke="rgb(102,102,102)" stroke-width="1" font-size="16" >H</text>
<text x="425.167825" y="156.223511" fill="rgb(102,102,102)"  stroke="rgb(102,102,102)" stroke-width="1" font-size="13" >3</text>
<text x="431.667825" y="151.423511" fill="rgb(102,102,102)"  stroke="rgb(102,102,102)" stroke-width="1" font-size="16" >C</text>
<text x="710.729858" y="525.494789" fill="rgb(12,12,255)"  stroke="rgb(12,12,255)" stroke-width="1" font-size="16" >NH</text>
<text x="734.729858" y="530.294789" fill="rgb(12,12,255)"  stroke="rgb(12,12,255)" stroke-width="1" font-size="13" >2</text>
<text x="365.762900" y="152.134154" fill="rgb(12,12,255)"  stroke="rgb(12,12,255)" stroke-width="1" font-size="16" >N</text>
<text x="446.096935" y="69.099639" fill="rgb(12,12,255)"  stroke="rgb(12,12,255)" stroke-width="1" font-size="16" >N</text>
<text x="721.249188" y="459.078352" fill="rgb(12,12,255)"  stroke="rgb(12,12,255)" stroke-width="1" font-size="16" >N</text>
<text x="671.390532" y="420.280127" fill="rgb(12,12,255)"  stroke="rgb(12,12,255)" stroke-width="1" font-size="16" >N</text>
<text x="628.299653" y="507.609002" fill="rgb(12,12,255)"  stroke="rgb(12,12,255)" stroke-width="1" font-size="16" >N</text>
<text x="605.787771" y="448.963543" fill="rgb(12,12,255)"  stroke="rgb(12,12,255)" stroke-width="1" font-size="16" >N</text>
<text x="164.306308" y="181.069702" fill="rgb(255,12,12)"  stroke="rgb(255,12,12)" stroke-width="1" font-size="16" >O</text>
<text x="316.990627" y="95.938918" fill="rgb(255,12,12)"  stroke="rgb(255,12,12)" stroke-width="1" font-size="32" >-</text>
<text x="318.190627" y="110.658918" fill="rgb(255,12,12)"  stroke="rgb(255,12,12)" stroke-width="1" font-size="16" >O</text>
<text x="228.259462" y="160.290062" fill="rgb(255,12,12)"  stroke="rgb(255,12,12)" stroke-width="1" font-size="16" >O</text>
<text x="556.922893" y="446.323455" fill="rgb(255,12,12)"  stroke="rgb(255,12,12)" stroke-width="1" font-size="16" >OH</text>
<text x="522.520713" y="136.552887" fill="rgb(255,12,12)"  stroke="rgb(255,12,12)" stroke-width="1" font-size="16" >OH</text>
<text x="508.850089" y="33.600000" fill="rgb(255,12,12)"  stroke="rgb(255,12,12)" stroke-width="1" font-size="32" >-</text>
<text x="507.650089" y="48.320000" fill="rgb(255,12,12)"  stroke="rgb(255,12,12)" stroke-width="1" font-size="16" >O</text>
<text x="438.442528" y="488.526690" fill="rgb(255,12,12)"  stroke="rgb(255,12,12)" stroke-width="1" font-size="32" >-</text>
<text x="437.242528" y="474.126690" fill="rgb(255,12,12)"  stroke="rgb(255,12,12)" stroke-width="1" font-size="16" >O</text>
<text x="399.618999" y="449.703160" fill="rgb(255,12,12)"  stroke="rgb(255,12,12)" stroke-width="1" font-size="32" >-</text>
<text x="400.818999" y="435.303160" fill="rgb(255,12,12)"  stroke="rgb(255,12,12)" stroke-width="1" font-size="16" >O</text>
<text x="437.242528" y="399.999631" fill="rgb(255,12,12)"  stroke="rgb(255,12,12)" stroke-width="1" font-size="16" >O</text>
<text x="393.916706" y="347.978188" fill="rgb(255,12,12)"  stroke="rgb(255,12,12)" stroke-width="1" font-size="16" >HO</text>
<text x="376.013429" y="305.451180" fill="rgb(255,12,12)"  stroke="rgb(255,12,12)" stroke-width="1" font-size="16" >O</text>
<text x="380.157161" y="229.500896" fill="rgb(255,12,12)"  stroke="rgb(255,12,12)" stroke-width="1" font-size="16" >HO</text>
<text x="435.804169" y="199.597619" fill="rgb(255,12,12)"  stroke="rgb(255,12,12)" stroke-width="1" font-size="16" >O</text>
<text x="449.563714" y="321.594911" fill="rgb(255,12,12)"  stroke="rgb(255,12,12)" stroke-width="1" font-size="16" >O</text>
<text x="465.707445" y="242.124627" fill="rgb(255,12,12)"  stroke="rgb(255,12,12)" stroke-width="1" font-size="16" >O</text>
<text x="537.511128" y="358.518282" fill="rgb(255,12,12)"  stroke="rgb(255,12,12)" stroke-width="1" font-size="16" >O</text>
<text x="476.066058" y="435.303160" fill="rgb(255,12,12)"  stroke="rgb(255,12,12)" stroke-width="1" font-size="16" >O</text>
<text x="419.660437" y="272.027903" fill="rgb(255,12,12)"  stroke="rgb(255,12,12)" stroke-width="1" font-size="16" >O</text>
<text x="437.242528" y="438.823160" fill="rgb(255,127,0)"  stroke="rgb(255,127,0)" stroke-width="1" font-size="16" >P</text>
<text x="411.588572" y="313.523046" fill="rgb(255,127,0)"  stroke="rgb(255,127,0)" stroke-width="1" font-size="16" >P</text>
<text x="427.732303" y="237.572761" fill="rgb(255,127,0)"  stroke="rgb(255,127,0)" stroke-width="1" font-size="16" >P</text>
<text x="275.831734" y="201.765299" fill="rgb(178,178,0)"  stroke="rgb(178,178,0)" stroke-width="1" font-size="16" >S</text>
<text x="489.938856" y="329.666777" fill="rgb(191,191,191)"  stroke="rgb(191,191,191)" stroke-width="1" font-size="16" >H</text>
<text x="521.347751" y="454.395320" fill="rgb(191,191,191)"  stroke="rgb(191,191,191)" stroke-width="1" font-size="16" >H</text>
<text x="459.054293" y="405.200997" fill="rgb(191,191,191)"  stroke="rgb(191,191,191)" stroke-width="1" font-size="16" >H</text>
<text x="530.592578" y="102.097745" fill="rgb(191,191,191)"  stroke="rgb(191,191,191)" stroke-width="1" font-size="16" >H</text>
<text x="581.630650" y="362.193939" fill="rgb(191,191,191)"  stroke="rgb(191,191,191)" stroke-width="1" font-size="16" >H</text>
<text font-size="18.000000" fill ="black" font-family="sans-serif"
x="140.000000" y="20.000000" ></text>
<title> - OBDepict</title>
</svg>
