<?xml version="1.0"?>
<svg xmlns="http://www.w3.org/2000/svg"
xmlns:xlink="http://www.w3.org/1999/xlink" xmlns:cml="http://www.xml-cml.org/schema" width="700" height="397.128" x="0" y="0" font-family="sans-serif" stroke="rgb(0,0,0)" stroke-width="1" >
<line x1="645.2" y1="49.0" x2="660.0" y2="74.6"/>
<line x1="80.0" y1="287.5" x2="80.0" y2="306.7"/>
<line x1="50.4" y1="317.1" x2="69.6" y2="317.1"/>
<line x1="80.0" y1="346.7" x2="80.0" y2="327.5"/>
<line x1="660.0" y1="74.6" x2="640.0" y2="109.3"/>
<line x1="640.0" y1="109.3" x2="600.0" y2="109.3"/>
<line x1="600.0" y1="109.3" x2="580.0" y2="143.9"/>
<line x1="580.0" y1="143.9" x2="540.0" y2="143.9"/>
<line x1="540.0" y1="143.9" x2="520.0" y2="178.6"/>
<line x1="520.0" y1="178.6" x2="534.8" y2="204.2"/>
<line x1="520.0" y1="181.6" x2="480.0" y2="181.6"/>
<line x1="520.0" y1="175.6" x2="480.0" y2="175.6"/>
<line x1="480.0" y1="178.6" x2="465.2" y2="204.2"/>
<line x1="480.0" y1="178.6" x2="460.0" y2="143.9"/>
<line x1="460.0" y1="143.9" x2="420.0" y2="143.9"/>
<line x1="420.0" y1="143.9" x2="400.0" y2="178.6"/>
<line x1="400.0" y1="178.6" x2="360.0" y2="178.6"/>
<line x1="360.0" y1="178.6" x2="340.0" y2="213.2"/>
<line x1="340.0" y1="213.2" x2="300.0" y2="213.2"/>
<line x1="300.0" y1="213.2" x2="280.0" y2="247.8"/>
<line x1="280.0" y1="247.8" x2="240.0" y2="247.8"/>
<line x1="240.0" y1="247.8" x2="220.0" y2="282.5"/>
<line x1="220.0" y1="282.5" x2="180.0" y2="282.5"/>
<line x1="120.0" y1="277.1" x2="85.4" y2="257.1"/>
<line x1="120.0" y1="277.1" x2="120.0" y2="317.1"/>
<line x1="85.4" y1="257.1" x2="85.4" y2="217.1"/>
<polygon points="120.000000 343.928129 124.000000 317.128129 116.000000 317.128129 " />
<line x1="120.0" y1="317.1" x2="90.4" y2="317.1"/>
<line x1="120.0" y1="317.1" x2="149.6" y2="317.1"/>
<line x1="83.9" y1="219.7" x2="58.2" y2="204.9"/>
<line x1="86.9" y1="214.5" x2="61.2" y2="199.7"/>
<line x1="85.4" y1="217.1" x2="111.0" y2="202.3"/>
<line x1="177.4" y1="284.0" x2="162.6" y2="258.4"/>
<line x1="182.6" y1="281.0" x2="167.8" y2="255.4"/>
<line x1="180.0" y1="282.5" x2="165.2" y2="308.1"/>
<text x="616.400000" y="48.320000" fill="rgb(102,102,102)"  stroke="rgb(102,102,102)" stroke-width="1" font-size="16" >H</text>
<text x="628.400000" y="56.000000" fill="rgb(102,102,102)"  stroke="rgb(102,102,102)" stroke-width="1" font-size="13" >3</text>
<text x="634.900000" y="48.320000" fill="rgb(102,102,102)"  stroke="rgb(102,102,102)" stroke-width="1" font-size="16" >C</text>
<text x="74.000000" y="285.448129" fill="rgb(102,102,102)"  stroke="rgb(102,102,102)" stroke-width="1" font-size="16" >CH</text>
<text x="98.000000" y="293.128129" fill="rgb(102,102,102)"  stroke="rgb(102,102,102)" stroke-width="1" font-size="13" >3</text>
<text x="16.400000" y="321.928129" fill="rgb(102,102,102)"  stroke="rgb(102,102,102)" stroke-width="1" font-size="16" >H</text>
<text x="28.400000" y="326.728129" fill="rgb(102,102,102)"  stroke="rgb(102,102,102)" stroke-width="1" font-size="13" >3</text>
<text x="34.900000" y="321.928129" fill="rgb(102,102,102)"  stroke="rgb(102,102,102)" stroke-width="1" font-size="16" >C</text>
<text x="74.000000" y="361.928129" fill="rgb(102,102,102)"  stroke="rgb(102,102,102)" stroke-width="1" font-size="16" >CH</text>
<text x="98.000000" y="366.728129" fill="rgb(102,102,102)"  stroke="rgb(102,102,102)" stroke-width="1" font-size="13" >3</text>
<text x="76.100000" y="332.728129" fill="rgb(12,12,255)"  stroke="rgb(12,12,255)" stroke-width="1" font-size="13" >+</text>
<text x="74.000000" y="321.928129" fill="rgb(12,12,255)"  stroke="rgb(12,12,255)" stroke-width="1" font-size="16" >N</text>
<text x="47.117968" y="205.448129" fill="rgb(255,12,12)"  stroke="rgb(255,12,12)" stroke-width="1" font-size="16" >O</text>
<text x="115.200000" y="190.728129" fill="rgb(255,12,12)"  stroke="rgb(255,12,12)" stroke-width="1" font-size="32" >-</text>
<text x="114.000000" y="205.448129" fill="rgb(255,12,12)"  stroke="rgb(255,12,12)" stroke-width="1" font-size="16" >O</text>
<text x="156.400000" y="256.166097" fill="rgb(255,12,12)"  stroke="rgb(255,12,12)" stroke-width="1" font-size="16" >O</text>
<text x="154.000000" y="321.928129" fill="rgb(255,12,12)"  stroke="rgb(255,12,12)" stroke-width="1" font-size="16" >O</text>
<text x="534.000000" y="218.005081" fill="rgb(191,191,191)"  stroke="rgb(191,191,191)" stroke-width="1" font-size="16" >H</text>
<text x="456.400000" y="218.005081" fill="rgb(191,191,191)"  stroke="rgb(191,191,191)" stroke-width="1" font-size="16" >H</text>
<text x="114.000000" y="361.928129" fill="rgb(191,191,191)"  stroke="rgb(191,191,191)" stroke-width="1" font-size="16" >H</text>
<text font-size="18.000000" fill ="black" font-family="sans-serif"
x="140.000000" y="20.000000" ></text>
<title> - OBDepict</title>
</svg>
