<?xml version="1.0"?>
<svg xmlns="http://www.w3.org/2000/svg"
xmlns:xlink="http://www.w3.org/1999/xlink" xmlns:cml="http://www.xml-cml.org/schema" width="314.759" height="160" x="0" y="0" font-family="sans-serif" stroke="rgb(0,0,0)" stroke-width="1" >
<line x1="238.6" y1="57.4" x2="264.3" y2="42.6"/>
<line x1="241.6" y1="62.6" x2="267.3" y2="47.8"/>
<line x1="63.5" y1="112.4" x2="40.0" y2="80.0"/>
<line x1="65.8" y1="103.3" x2="49.4" y2="80.6"/>
<line x1="40.0" y1="80.0" x2="57.4" y2="56.1"/>
<line x1="73.4" y1="50.9" x2="101.6" y2="60.0"/>
<line x1="101.6" y1="60.0" x2="101.6" y2="100.0"/>
<line x1="101.6" y1="100.0" x2="63.5" y2="112.4"/>
<line x1="240.1" y1="60.0" x2="240.1" y2="100.0"/>
<line x1="240.1" y1="100.0" x2="205.5" y2="120.0"/>
<line x1="231.3" y1="96.8" x2="207.1" y2="110.8"/>
<line x1="205.5" y1="120.0" x2="170.8" y2="100.0"/>
<line x1="170.8" y1="100.0" x2="170.8" y2="60.0"/>
<line x1="178.0" y1="94.0" x2="178.0" y2="66.0"/>
<line x1="170.8" y1="60.0" x2="196.5" y2="45.2"/>
<line x1="214.5" y1="45.2" x2="240.1" y2="60.0"/>
<line x1="136.2" y1="120.0" x2="170.8" y2="100.0"/>
<line x1="170.8" y1="60.0" x2="136.2" y2="40.0"/>
<line x1="136.2" y1="40.0" x2="101.6" y2="60.0"/>
<line x1="134.6" y1="49.2" x2="110.3" y2="63.2"/>
<line x1="101.6" y1="100.0" x2="136.2" y2="120.0"/>
<line x1="110.3" y1="96.8" x2="134.6" y2="110.8"/>
<text x="268.758752" y="48.320000" fill="rgb(255,12,12)"  stroke="rgb(255,12,12)" stroke-width="1" font-size="16" >O</text>
<text x="59.911410" y="55.959320" fill="rgb(255,12,12)"  stroke="rgb(255,12,12)" stroke-width="1" font-size="16" >O</text>
<text x="199.476719" y="48.320000" fill="rgb(255,12,12)"  stroke="rgb(255,12,12)" stroke-width="1" font-size="16" >O</text>
<text font-size="18.000000" fill ="black" font-family="sans-serif"
x="140.000000" y="20.000000" ></text>
<title> - OBDepict</title>
</svg>
