<?xml version="1.0"?>
<svg xmlns="http://www.w3.org/2000/svg"
xmlns:xlink="http://www.w3.org/1999/xlink" xmlns:cml="http://www.xml-cml.org/schema" width="342.487" height="514.641" x="0" y="0" font-family="sans-serif" stroke="rgb(0,0,0)" stroke-width="1" >
<line x1="154.9" y1="154.8" x2="129.3" y2="140.0"/>
<line x1="129.3" y1="140.0" x2="129.3" y2="100.0"/>
<line x1="129.3" y1="100.0" x2="103.6" y2="85.2"/>
<line x1="127.8" y1="97.4" x2="162.4" y2="77.4"/>
<line x1="130.8" y1="102.6" x2="165.4" y2="82.6"/>
<line x1="163.9" y1="80.0" x2="163.9" y2="50.4"/>
<line x1="163.9" y1="80.0" x2="198.6" y2="100.0"/>
<line x1="198.6" y1="100.0" x2="233.2" y2="80.0"/>
<line x1="143.9" y1="314.6" x2="178.6" y2="294.6"/>
<line x1="143.9" y1="314.6" x2="143.9" y2="354.6"/>
<line x1="233.2" y1="80.0" x2="233.2" y2="50.4"/>
<line x1="234.7" y1="77.4" x2="269.3" y2="97.4"/>
<line x1="231.7" y1="82.6" x2="266.3" y2="102.6"/>
<line x1="178.6" y1="294.6" x2="178.6" y2="254.6"/>
<line x1="143.9" y1="354.6" x2="109.3" y2="374.6"/>
<line x1="267.8" y1="100.0" x2="293.5" y2="85.2"/>
<line x1="267.8" y1="100.0" x2="267.8" y2="140.0"/>
<line x1="178.6" y1="254.6" x2="213.2" y2="234.6"/>
<line x1="109.3" y1="374.6" x2="109.3" y2="414.6"/>
<line x1="267.8" y1="140.0" x2="293.5" y2="154.8"/>
<line x1="269.3" y1="142.6" x2="234.7" y2="162.6"/>
<line x1="266.3" y1="137.4" x2="231.7" y2="157.4"/>
<line x1="213.2" y1="234.6" x2="213.2" y2="194.6"/>
<line x1="109.3" y1="414.6" x2="74.6" y2="434.6"/>
<line x1="73.1" y1="437.2" x2="47.5" y2="422.4"/>
<line x1="76.1" y1="432.0" x2="50.5" y2="417.2"/>
<line x1="74.6" y1="434.6" x2="74.6" y2="464.2"/>
<line x1="233.2" y1="160.0" x2="213.2" y2="194.6"/>
<line x1="213.2" y1="194.6" x2="198.4" y2="169.0"/>
<line x1="203.6" y1="160.0" x2="233.2" y2="160.0"/>
<text x="157.923048" y="164.800000" fill="rgb(102,102,102)"  stroke="rgb(102,102,102)" stroke-width="1" font-size="16" >CH</text>
<text x="181.923048" y="169.600000" fill="rgb(102,102,102)"  stroke="rgb(102,102,102)" stroke-width="1" font-size="13" >3</text>
<text x="36.400000" y="422.961016" fill="rgb(255,12,12)"  stroke="rgb(255,12,12)" stroke-width="1" font-size="16" >O</text>
<text x="68.641016" y="479.441016" fill="rgb(255,12,12)"  stroke="rgb(255,12,12)" stroke-width="1" font-size="16" >OH</text>
<text x="189.605081" y="168.320000" fill="rgb(255,12,12)"  stroke="rgb(255,12,12)" stroke-width="1" font-size="16" >O</text>
<text x="91.041016" y="88.320000" fill="rgb(191,191,191)"  stroke="rgb(191,191,191)" stroke-width="1" font-size="16" >H</text>
<text x="157.923048" y="48.320000" fill="rgb(191,191,191)"  stroke="rgb(191,191,191)" stroke-width="1" font-size="16" >H</text>
<text x="227.205081" y="48.320000" fill="rgb(191,191,191)"  stroke="rgb(191,191,191)" stroke-width="1" font-size="16" >H</text>
<text x="296.487113" y="88.320000" fill="rgb(191,191,191)"  stroke="rgb(191,191,191)" stroke-width="1" font-size="16" >H</text>
<text x="296.487113" y="164.800000" fill="rgb(191,191,191)"  stroke="rgb(191,191,191)" stroke-width="1" font-size="16" >H</text>
<text font-size="18.000000" fill ="black" font-family="sans-serif"
x="140.000000" y="20.000000" ></text>
<title> - OBDepict</title>
</svg>
