<?xml version="1.0"?>
<svg xmlns="http://www.w3.org/2000/svg"
xmlns:xlink="http://www.w3.org/1999/xlink" xmlns:cml="http://www.xml-cml.org/schema" width="572.755" height="314.84" x="0" y="0" font-family="sans-serif" stroke="rgb(0,0,0)" stroke-width="1" >
<line x1="504.5" y1="197.6" x2="465.8" y2="187.2"/>
<line x1="504.5" y1="197.6" x2="525.4" y2="176.6"/>
<line x1="71.1" y1="202.2" x2="108.4" y2="187.8"/>
<line x1="71.1" y1="202.2" x2="48.1" y2="183.5"/>
<line x1="338.9" y1="134.6" x2="298.9" y2="134.6"/>
<line x1="338.9" y1="134.6" x2="353.7" y2="160.3"/>
<polygon points="162.708955 152.572526 200.310712 166.788991 202.381264 159.061584 " />
<line x1="201.3" y1="162.9" x2="209.0" y2="191.5"/>
<polygon points="484.784058 168.263080 463.005169 184.385115 468.662023 190.041969 " />
<polygon points="104.236612 214.292352 112.379809 188.448042 104.478302 187.196567 " />
<line x1="312.1" y1="156.6" x2="311.4" y2="157.0"/>
<line x1="310.4" y1="152.9" x2="309.0" y2="153.7"/>
<line x1="308.8" y1="149.3" x2="306.7" y2="150.5"/>
<line x1="307.1" y1="145.6" x2="304.3" y2="147.2"/>
<line x1="305.4" y1="142.0" x2="302.0" y2="144.0"/>
<line x1="303.8" y1="138.3" x2="299.6" y2="140.7"/>
<line x1="302.1" y1="134.6" x2="297.3" y2="137.4"/>
<polygon points="481.367646 232.786925 456.516110 221.986871 454.445558 229.714278 " />
<line x1="455.5" y1="225.9" x2="463.1" y2="254.4"/>
<polygon points="325.712291 94.641016 298.912291 90.641016 298.912291 98.641016 " />
<line x1="298.9" y1="94.6" x2="313.7" y2="69.0"/>
<line x1="72.9" y1="153.6" x2="72.7" y2="152.8"/>
<line x1="76.9" y1="153.4" x2="76.6" y2="151.8"/>
<line x1="80.9" y1="153.1" x2="80.5" y2="150.8"/>
<line x1="84.9" y1="152.9" x2="84.4" y2="149.7"/>
<line x1="88.9" y1="152.7" x2="88.3" y2="148.7"/>
<line x1="92.9" y1="152.4" x2="92.2" y2="147.7"/>
<line x1="96.9" y1="152.2" x2="96.1" y2="146.7"/>
<line x1="98.1" y1="149.2" x2="79.4" y2="126.2"/>
<polygon points="423.780151 262.090149 420.707504 235.168060 412.980098 237.238613 " />
<line x1="416.8" y1="236.2" x2="395.9" y2="257.1"/>
<line x1="276.7" y1="52.3" x2="277.4" y2="52.7"/>
<line x1="274.4" y1="55.5" x2="275.8" y2="56.3"/>
<line x1="272.0" y1="58.8" x2="274.1" y2="60.0"/>
<line x1="269.7" y1="62.1" x2="272.5" y2="63.7"/>
<line x1="267.3" y1="65.3" x2="270.8" y2="67.3"/>
<line x1="265.0" y1="68.6" x2="269.1" y2="71.0"/>
<line x1="262.6" y1="71.9" x2="267.5" y2="74.7"/>
<line x1="264.3" y1="74.6" x2="249.5" y2="49.0"/>
<line x1="370.7" y1="226.3" x2="370.2" y2="225.7"/>
<line x1="373.9" y1="223.8" x2="372.7" y2="222.6"/>
<line x1="377.0" y1="221.2" x2="375.3" y2="219.5"/>
<line x1="380.1" y1="218.7" x2="377.8" y2="216.4"/>
<line x1="383.2" y1="216.1" x2="380.4" y2="213.3"/>
<line x1="386.3" y1="213.6" x2="382.9" y2="210.2"/>
<line x1="389.4" y1="211.0" x2="385.4" y2="207.1"/>
<line x1="388.6" y1="207.9" x2="360.0" y2="200.3"/>
<polygon points="216.230259 71.431535 226.166158 96.641016 233.094361 92.641016 " />
<line x1="229.6" y1="94.6" x2="200.0" y2="94.6"/>
<polygon points="119.456171 103.520735 128.059090 129.215672 135.187143 125.583748 " />
<line x1="131.6" y1="127.4" x2="147.7" y2="102.6"/>
<line x1="408.3" y1="145.5" x2="409.1" y2="145.8"/>
<line x1="406.4" y1="149.0" x2="407.9" y2="149.6"/>
<line x1="404.5" y1="152.6" x2="406.8" y2="153.5"/>
<line x1="402.6" y1="156.1" x2="405.6" y2="157.3"/>
<line x1="400.7" y1="159.6" x2="404.4" y2="161.2"/>
<line x1="398.8" y1="163.2" x2="403.3" y2="165.0"/>
<line x1="396.9" y1="166.7" x2="402.1" y2="168.9"/>
<line x1="398.9" y1="169.3" x2="369.3" y2="169.3"/>
<polygon points="233.128361 161.211738 233.596039 134.118911 225.664480 135.163121 " />
<line x1="229.6" y1="134.6" x2="201.0" y2="127.0"/>
<line x1="162.7" y1="152.6" x2="183.6" y2="131.6"/>
<line x1="131.6" y1="127.4" x2="162.7" y2="152.6"/>
<line x1="162.7" y1="152.6" x2="152.1" y2="180.2"/>
<line x1="138.0" y1="189.4" x2="108.4" y2="187.8"/>
<line x1="108.4" y1="187.8" x2="98.1" y2="149.2"/>
<line x1="98.1" y1="149.2" x2="131.6" y2="127.4"/>
<line x1="465.8" y1="187.2" x2="455.5" y2="225.9"/>
<line x1="455.5" y1="225.9" x2="416.8" y2="236.2"/>
<line x1="416.8" y1="236.2" x2="388.6" y2="207.9"/>
<line x1="388.6" y1="207.9" x2="398.9" y2="169.3"/>
<line x1="398.9" y1="169.3" x2="427.5" y2="161.6"/>
<line x1="444.9" y1="166.3" x2="465.8" y2="187.2"/>
<line x1="298.9" y1="134.6" x2="298.9" y2="94.6"/>
<line x1="298.9" y1="94.6" x2="264.3" y2="74.6"/>
<line x1="264.3" y1="74.6" x2="229.6" y2="94.6"/>
<line x1="229.6" y1="94.6" x2="229.6" y2="134.6"/>
<line x1="229.6" y1="134.6" x2="255.3" y2="149.4"/>
<line x1="273.3" y1="149.4" x2="298.9" y2="134.6"/>
<text x="526.754900" y="177.602032" fill="rgb(255,12,12)"  stroke="rgb(255,12,12)" stroke-width="1" font-size="16" >OH</text>
<text x="24.400000" y="185.304207" fill="rgb(255,12,12)"  stroke="rgb(255,12,12)" stroke-width="1" font-size="16" >HO</text>
<text x="205.698750" y="206.362320" fill="rgb(255,12,12)"  stroke="rgb(255,12,12)" stroke-width="1" font-size="16" >OH</text>
<text x="459.833596" y="269.287608" fill="rgb(255,12,12)"  stroke="rgb(255,12,12)" stroke-width="1" font-size="16" >OH</text>
<text x="312.912291" y="68.320000" fill="rgb(255,12,12)"  stroke="rgb(255,12,12)" stroke-width="1" font-size="16" >OH</text>
<text x="57.303478" y="126.419433" fill="rgb(255,12,12)"  stroke="rgb(255,12,12)" stroke-width="1" font-size="16" >HO</text>
<text x="372.959530" y="269.287608" fill="rgb(255,12,12)"  stroke="rgb(255,12,12)" stroke-width="1" font-size="16" >HO</text>
<text x="228.671275" y="48.320000" fill="rgb(255,12,12)"  stroke="rgb(255,12,12)" stroke-width="1" font-size="16" >HO</text>
<text x="334.322497" y="205.886304" fill="rgb(255,12,12)"  stroke="rgb(255,12,12)" stroke-width="1" font-size="16" >HO</text>
<text x="174.030259" y="102.961016" fill="rgb(255,12,12)"  stroke="rgb(255,12,12)" stroke-width="1" font-size="16" >HO</text>
<text x="147.408678" y="102.172887" fill="rgb(255,12,12)"  stroke="rgb(255,12,12)" stroke-width="1" font-size="16" >OH</text>
<text x="355.312291" y="174.082032" fill="rgb(255,12,12)"  stroke="rgb(255,12,12)" stroke-width="1" font-size="16" >O</text>
<text x="431.549325" y="167.249270" fill="rgb(255,12,12)"  stroke="rgb(255,12,12)" stroke-width="1" font-size="16" >O</text>
<text x="258.271275" y="159.441016" fill="rgb(255,12,12)"  stroke="rgb(255,12,12)" stroke-width="1" font-size="16" >O</text>
<text x="142.374237" y="194.715743" fill="rgb(255,12,12)"  stroke="rgb(255,12,12)" stroke-width="1" font-size="16" >O</text>
<text x="187.393226" y="132.608254" fill="rgb(255,12,12)"  stroke="rgb(255,12,12)" stroke-width="1" font-size="16" >O</text>
<text x="488.117867" y="167.249270" fill="rgb(191,191,191)"  stroke="rgb(191,191,191)" stroke-width="1" font-size="16" >H</text>
<text x="98.571677" y="232.129838" fill="rgb(191,191,191)"  stroke="rgb(191,191,191)" stroke-width="1" font-size="16" >H</text>
<text x="312.912291" y="174.082032" fill="rgb(191,191,191)"  stroke="rgb(191,191,191)" stroke-width="1" font-size="16" >H</text>
<text x="488.117867" y="241.003337" fill="rgb(191,191,191)"  stroke="rgb(191,191,191)" stroke-width="1" font-size="16" >H</text>
<text x="332.912291" y="99.441016" fill="rgb(191,191,191)"  stroke="rgb(191,191,191)" stroke-width="1" font-size="16" >H</text>
<text x="54.968760" y="160.242650" fill="rgb(191,191,191)"  stroke="rgb(191,191,191)" stroke-width="1" font-size="16" >H</text>
<text x="421.196563" y="279.640370" fill="rgb(191,191,191)"  stroke="rgb(191,191,191)" stroke-width="1" font-size="16" >H</text>
<text x="278.271275" y="48.320000" fill="rgb(191,191,191)"  stroke="rgb(191,191,191)" stroke-width="1" font-size="16" >H</text>
<text x="356.675258" y="241.003337" fill="rgb(191,191,191)"  stroke="rgb(191,191,191)" stroke-width="1" font-size="16" >H</text>
<text x="206.030259" y="68.320000" fill="rgb(191,191,191)"  stroke="rgb(191,191,191)" stroke-width="1" font-size="16" >H</text>
<text x="109.863496" y="100.079449" fill="rgb(191,191,191)"  stroke="rgb(191,191,191)" stroke-width="1" font-size="16" >H</text>
<text x="408.219629" y="140.646851" fill="rgb(191,191,191)"  stroke="rgb(191,191,191)" stroke-width="1" font-size="16" >H</text>
<text x="228.851307" y="179.098811" fill="rgb(191,191,191)"  stroke="rgb(191,191,191)" stroke-width="1" font-size="16" >H</text>
<text font-size="18.000000" fill ="black" font-family="sans-serif"
x="140.000000" y="20.000000" ></text>
<title> - OBDepict</title>
</svg>
