<?xml version="1.0"?>
<svg xmlns="http://www.w3.org/2000/svg"
xmlns:xlink="http://www.w3.org/1999/xlink" xmlns:cml="http://www.xml-cml.org/schema" width="366.498" height="267.405" x="0" y="0" font-family="sans-serif" stroke="rgb(0,0,0)" stroke-width="1" >
<line x1="296.7" y1="69.6" x2="280.1" y2="60.0"/>
<line x1="307.3" y1="179.2" x2="316.5" y2="207.4"/>
<line x1="301.6" y1="181.1" x2="310.8" y2="209.3"/>
<line x1="236.3" y1="74.8" x2="262.0" y2="60.0"/>
<line x1="151.4" y1="174.6" x2="151.0" y2="175.3"/>
<line x1="144.7" y1="170.2" x2="143.9" y2="171.6"/>
<line x1="138.0" y1="165.8" x2="136.7" y2="167.9"/>
<line x1="131.2" y1="161.4" x2="129.6" y2="164.1"/>
<line x1="124.5" y1="157.0" x2="122.5" y2="160.4"/>
<line x1="117.8" y1="152.6" x2="115.4" y2="156.7"/>
<line x1="111.1" y1="148.2" x2="108.3" y2="153.0"/>
<line x1="239.3" y1="187.3" x2="239.3" y2="217.0"/>
<line x1="233.3" y1="187.3" x2="233.3" y2="217.0"/>
<line x1="52.5" y1="118.7" x2="52.8" y2="118.0"/>
<line x1="55.8" y1="121.0" x2="56.6" y2="119.6"/>
<line x1="59.1" y1="123.3" x2="60.3" y2="121.2"/>
<line x1="62.4" y1="125.5" x2="64.0" y2="122.7"/>
<line x1="65.7" y1="127.8" x2="67.7" y2="124.3"/>
<line x1="69.1" y1="130.1" x2="71.4" y2="125.9"/>
<line x1="72.4" y1="132.4" x2="75.1" y2="127.5"/>
<polygon points="94.095153 51.500041 103.901569 76.826552 110.855055 72.870667 " />
<polygon points="152.427627 153.993032 142.612432 128.669921 135.660318 132.628217 " />
<line x1="106.9" y1="149.0" x2="75.1" y2="130.7"/>
<line x1="75.1" y1="130.7" x2="75.2" y2="157.8"/>
<line x1="83.4" y1="162.6" x2="106.9" y2="149.0"/>
<line x1="304.5" y1="119.5" x2="326.5" y2="149.8"/>
<line x1="326.5" y1="149.8" x2="304.5" y2="180.1"/>
<line x1="304.5" y1="180.1" x2="268.8" y2="168.6"/>
<line x1="268.8" y1="168.6" x2="268.8" y2="131.1"/>
<line x1="276.0" y1="162.6" x2="276.0" y2="137.1"/>
<line x1="268.8" y1="131.1" x2="304.5" y2="119.5"/>
<line x1="106.9" y1="149.0" x2="139.1" y2="130.6"/>
<line x1="139.1" y1="130.6" x2="107.4" y2="74.8"/>
<line x1="107.4" y1="74.8" x2="83.5" y2="88.4"/>
<line x1="75.1" y1="102.9" x2="75.1" y2="130.7"/>
<line x1="139.1" y1="130.6" x2="171.4" y2="112.3"/>
<line x1="171.4" y1="112.3" x2="171.4" y2="74.8"/>
<line x1="164.2" y1="106.3" x2="164.2" y2="80.8"/>
<line x1="171.4" y1="74.8" x2="147.9" y2="61.3"/>
<line x1="131.2" y1="61.3" x2="107.4" y2="74.8"/>
<line x1="203.8" y1="158.8" x2="203.8" y2="131.1"/>
<line x1="203.8" y1="131.1" x2="236.3" y2="112.3"/>
<line x1="212.6" y1="134.3" x2="234.7" y2="121.5"/>
<line x1="236.3" y1="112.3" x2="268.8" y2="131.1"/>
<line x1="268.8" y1="168.6" x2="236.3" y2="187.3"/>
<line x1="236.3" y1="187.3" x2="212.3" y2="173.4"/>
<line x1="203.8" y1="56.1" x2="171.4" y2="74.8"/>
<line x1="171.4" y1="112.3" x2="203.8" y2="131.1"/>
<line x1="236.3" y1="112.3" x2="236.3" y2="74.8"/>
<line x1="236.3" y1="74.8" x2="203.8" y2="56.1"/>
<line x1="227.5" y1="78.0" x2="205.4" y2="65.3"/>
<text x="299.756725" y="79.608844" fill="rgb(102,102,102)"  stroke="rgb(102,102,102)" stroke-width="1" font-size="16" >CH</text>
<text x="323.756725" y="84.408844" fill="rgb(102,102,102)"  stroke="rgb(102,102,102)" stroke-width="1" font-size="13" >3</text>
<text x="310.844687" y="223.080616" fill="rgb(255,12,12)"  stroke="rgb(255,12,12)" stroke-width="1" font-size="16" >O</text>
<text x="230.312925" y="232.204963" fill="rgb(255,12,12)"  stroke="rgb(255,12,12)" stroke-width="1" font-size="16" >O</text>
<text x="152.974064" y="170.290805" fill="rgb(255,12,12)"  stroke="rgb(255,12,12)" stroke-width="1" font-size="16" >OH</text>
<text x="265.034825" y="63.082145" fill="rgb(255,12,12)"  stroke="rgb(255,12,12)" stroke-width="1" font-size="16" >O</text>
<text x="133.601385" y="64.829292" fill="rgb(255,12,12)"  stroke="rgb(255,12,12)" stroke-width="1" font-size="16" >O</text>
<text x="200.236186" y="173.361112" fill="rgb(255,12,12)"  stroke="rgb(255,12,12)" stroke-width="1" font-size="16" >O</text>
<text x="71.576723" y="172.147404" fill="rgb(255,12,12)"  stroke="rgb(255,12,12)" stroke-width="1" font-size="16" >O</text>
<text x="71.545568" y="101.513432" fill="rgb(255,12,12)"  stroke="rgb(255,12,12)" stroke-width="1" font-size="16" >O</text>
<text x="170.109012" y="194.297436" fill="rgb(191,191,191)"  stroke="rgb(191,191,191)" stroke-width="1" font-size="16" >H</text>
<text x="36.400000" y="119.720053" fill="rgb(191,191,191)"  stroke="rgb(191,191,191)" stroke-width="1" font-size="16" >H</text>
<text x="83.952701" y="48.320000" fill="rgb(191,191,191)"  stroke="rgb(191,191,191)" stroke-width="1" font-size="16" >H</text>
<text font-size="18.000000" fill ="black" font-family="sans-serif"
x="140.000000" y="20.000000" ></text>
<title> - OBDepict</title>
</svg>
