<?xml version="1.0"?>
<svg xmlns="http://www.w3.org/2000/svg"
xmlns:xlink="http://www.w3.org/1999/xlink" xmlns:cml="http://www.xml-cml.org/schema" width="218.564" height="183.923" x="0" y="0" font-family="sans-serif" stroke="rgb(0,0,0)" stroke-width="1" >
<line x1="169.6" y1="114.5" x2="143.9" y2="129.3"/>
<line x1="158.9" y1="74.6" x2="129.3" y2="74.6"/>
<polygon points="109.282032 109.282032 141.923048 132.746134 145.923048 125.817931 " />
<line x1="129.3" y1="74.6" x2="109.3" y2="109.3"/>
<line x1="126.7" y1="76.1" x2="111.9" y2="50.5"/>
<line x1="131.9" y1="73.1" x2="117.1" y2="47.5"/>
<line x1="74.6" y1="89.3" x2="109.3" y2="109.3"/>
<line x1="71.6" y1="89.3" x2="71.6" y2="59.7"/>
<line x1="77.6" y1="89.3" x2="77.6" y2="59.7"/>
<line x1="74.6" y1="89.3" x2="49.0" y2="104.1"/>
<line x1="109.3" y1="109.3" x2="94.5" y2="134.9"/>
<text x="172.564065" y="117.602032" fill="rgb(102,102,102)"  stroke="rgb(102,102,102)" stroke-width="1" font-size="16" >CH</text>
<text x="196.564065" y="125.282032" fill="rgb(102,102,102)"  stroke="rgb(102,102,102)" stroke-width="1" font-size="13" >3</text>
<text x="163.282032" y="79.441016" fill="rgb(102,102,102)"  stroke="rgb(102,102,102)" stroke-width="1" font-size="16" >CH</text>
<text x="187.282032" y="84.241016" fill="rgb(102,102,102)"  stroke="rgb(102,102,102)" stroke-width="1" font-size="13" >3</text>
<text x="105.682032" y="48.320000" fill="rgb(255,12,12)"  stroke="rgb(255,12,12)" stroke-width="1" font-size="16" >O</text>
<text x="68.641016" y="57.602032" fill="rgb(255,12,12)"  stroke="rgb(255,12,12)" stroke-width="1" font-size="16" >O</text>
<text x="35.200000" y="128.482032" fill="rgb(255,12,12)"  stroke="rgb(255,12,12)" stroke-width="1" font-size="32" >-</text>
<text x="36.400000" y="114.082032" fill="rgb(255,12,12)"  stroke="rgb(255,12,12)" stroke-width="1" font-size="16" >O</text>
<text x="73.682032" y="148.723048" fill="rgb(255,12,12)"  stroke="rgb(255,12,12)" stroke-width="1" font-size="16" >HO</text>
<text font-size="18.000000" fill ="black" font-family="sans-serif"
x="140.000000" y="20.000000" ></text>
<title> - OBDepict</title>
</svg>
