<?xml version="1.0"?>
<svg xmlns="http://www.w3.org/2000/svg"
xmlns:xlink="http://www.w3.org/1999/xlink" xmlns:cml="http://www.xml-cml.org/schema" width="183.923" height="240" x="0" y="0" font-family="sans-serif" stroke="rgb(0,0,0)" stroke-width="1" >
<line x1="109.3" y1="80.0" x2="109.3" y2="50.4"/>
<line x1="109.3" y1="160.0" x2="109.3" y2="189.6"/>
<line x1="49.0" y1="114.8" x2="74.6" y2="100.0"/>
<line x1="74.6" y1="100.0" x2="74.6" y2="140.0"/>
<line x1="74.6" y1="140.0" x2="49.0" y2="125.2"/>
<line x1="143.9" y1="100.0" x2="109.3" y2="80.0"/>
<line x1="135.1" y1="103.2" x2="110.9" y2="89.2"/>
<line x1="109.3" y1="80.0" x2="74.6" y2="100.0"/>
<line x1="74.6" y1="140.0" x2="109.3" y2="160.0"/>
<line x1="109.3" y1="160.0" x2="143.9" y2="140.0"/>
<line x1="110.9" y1="150.8" x2="135.1" y2="136.8"/>
<line x1="143.9" y1="140.0" x2="143.9" y2="100.0"/>
<text x="103.282032" y="48.320000" fill="rgb(165,40,40)"  stroke="rgb(165,40,40)" stroke-width="1" font-size="16" >Br</text>
<text x="103.282032" y="204.800000" fill="rgb(255,12,12)"  stroke="rgb(255,12,12)" stroke-width="1" font-size="16" >OH</text>
<text x="36.400000" y="124.800000" fill="rgb(255,12,12)"  stroke="rgb(255,12,12)" stroke-width="1" font-size="16" >O</text>
<text font-size="18.000000" fill ="black" font-family="sans-serif"
x="140.000000" y="20.000000" ></text>
<title> - OBDepict</title>
</svg>
