<?xml version="1.0"?>
<svg xmlns="http://www.w3.org/2000/svg"
xmlns:xlink="http://www.w3.org/1999/xlink" xmlns:cml="http://www.xml-cml.org/schema" width="699.874" height="393.134" x="0" y="0" font-family="sans-serif" stroke="rgb(0,0,0)" stroke-width="1" >
<line x1="302.7" y1="113.1" x2="268.1" y2="133.1"/>
<line x1="302.7" y1="113.1" x2="328.4" y2="127.9"/>
<line x1="452.0" y1="113.1" x2="486.7" y2="133.1"/>
<line x1="452.0" y1="113.1" x2="426.4" y2="127.9"/>
<line x1="263.9" y1="172.9" x2="285.9" y2="192.7"/>
<line x1="224.8" y1="181.2" x2="212.8" y2="208.3"/>
<line x1="521.3" y1="113.1" x2="521.3" y2="83.5"/>
<line x1="554.5" y1="130.5" x2="580.1" y2="115.7"/>
<line x1="557.5" y1="135.7" x2="583.1" y2="120.9"/>
<line x1="79.1" y1="86.4" x2="50.2" y2="92.5"/>
<line x1="625.2" y1="253.1" x2="650.9" y2="238.3"/>
<line x1="204.8" y1="146.6" x2="175.4" y2="143.5"/>
<line x1="593.6" y1="313.1" x2="593.6" y2="342.7"/>
<line x1="587.6" y1="313.1" x2="587.6" y2="342.7"/>
<line x1="307.8" y1="173.1" x2="327.0" y2="173.1"/>
<line x1="334.4" y1="202.7" x2="334.4" y2="183.5"/>
<line x1="340.4" y1="202.7" x2="340.4" y2="183.5"/>
<line x1="417.4" y1="202.7" x2="417.4" y2="183.5"/>
<line x1="447.0" y1="176.1" x2="427.8" y2="176.1"/>
<line x1="447.0" y1="170.1" x2="427.8" y2="170.1"/>
<line x1="337.4" y1="143.5" x2="337.4" y2="162.7"/>
<line x1="417.4" y1="143.5" x2="417.4" y2="162.7"/>
<line x1="367.0" y1="173.1" x2="347.8" y2="173.1"/>
<line x1="387.8" y1="173.1" x2="407.0" y2="173.1"/>
<line x1="138.3" y1="172.1" x2="158.1" y2="150.1"/>
<line x1="159.8" y1="133.4" x2="145.0" y2="107.8"/>
<line x1="145.0" y1="107.8" x2="105.9" y2="116.1"/>
<line x1="105.9" y1="116.1" x2="102.8" y2="145.5"/>
<line x1="111.2" y1="160.1" x2="138.3" y2="172.1"/>
<line x1="116.0" y1="154.3" x2="135.7" y2="163.1"/>
<line x1="268.1" y1="133.1" x2="263.9" y2="172.9"/>
<line x1="263.9" y1="172.9" x2="224.8" y2="181.2"/>
<line x1="224.8" y1="181.2" x2="204.8" y2="146.6"/>
<line x1="204.8" y1="146.6" x2="224.6" y2="124.6"/>
<line x1="241.1" y1="121.1" x2="268.1" y2="133.1"/>
<line x1="145.0" y1="107.8" x2="154.2" y2="79.6"/>
<line x1="140.0" y1="99.8" x2="146.7" y2="79.3"/>
<line x1="150.4" y1="62.0" x2="130.6" y2="40.0"/>
<line x1="130.6" y1="40.0" x2="101.7" y2="46.2"/>
<line x1="126.2" y1="48.3" x2="105.1" y2="52.8"/>
<line x1="88.3" y1="58.2" x2="79.1" y2="86.4"/>
<line x1="79.1" y1="86.4" x2="105.9" y2="116.1"/>
<line x1="88.5" y1="86.0" x2="107.2" y2="106.8"/>
<line x1="486.7" y1="133.1" x2="521.3" y2="113.1"/>
<line x1="521.3" y1="113.1" x2="556.0" y2="133.1"/>
<line x1="556.0" y1="133.1" x2="556.0" y2="173.1"/>
<line x1="556.0" y1="173.1" x2="521.3" y2="193.1"/>
<line x1="521.3" y1="193.1" x2="495.7" y2="178.3"/>
<line x1="486.7" y1="162.7" x2="486.7" y2="133.1"/>
<line x1="590.6" y1="233.1" x2="590.6" y2="203.5"/>
<line x1="581.6" y1="187.9" x2="556.0" y2="173.1"/>
<line x1="521.3" y1="193.1" x2="521.3" y2="222.7"/>
<line x1="530.3" y1="238.3" x2="556.0" y2="253.1"/>
<line x1="556.0" y1="253.1" x2="590.6" y2="233.1"/>
<line x1="557.5" y1="243.9" x2="581.8" y2="229.9"/>
<line x1="625.2" y1="253.1" x2="590.6" y2="233.1"/>
<line x1="556.0" y1="253.1" x2="556.0" y2="282.7"/>
<line x1="565.0" y1="298.3" x2="590.6" y2="313.1"/>
<line x1="590.6" y1="313.1" x2="616.2" y2="298.3"/>
<line x1="625.2" y1="282.7" x2="625.2" y2="253.1"/>
<line x1="618.0" y1="280.7" x2="618.0" y2="259.1"/>
<text x="16.400000" y="99.475196" fill="rgb(12,12,255)"  stroke="rgb(12,12,255)" stroke-width="1" font-size="16" >H</text>
<text x="28.400000" y="104.275196" fill="rgb(12,12,255)"  stroke="rgb(12,12,255)" stroke-width="1" font-size="13" >2</text>
<text x="34.900000" y="99.475196" fill="rgb(12,12,255)"  stroke="rgb(12,12,255)" stroke-width="1" font-size="16" >N</text>
<text x="584.592064" y="357.933881" fill="rgb(12,12,255)"  stroke="rgb(12,12,255)" stroke-width="1" font-size="16" >NH</text>
<text x="87.886584" y="56.636468" fill="rgb(12,12,255)"  stroke="rgb(12,12,255)" stroke-width="1" font-size="16" >N</text>
<text x="151.377712" y="78.045793" fill="rgb(12,12,255)"  stroke="rgb(12,12,255)" stroke-width="1" font-size="16" >N</text>
<text x="98.109990" y="160.665397" fill="rgb(12,12,255)"  stroke="rgb(12,12,255)" stroke-width="1" font-size="16" >N</text>
<text x="584.592064" y="201.453881" fill="rgb(12,12,255)"  stroke="rgb(12,12,255)" stroke-width="1" font-size="16" >NH</text>
<text x="505.710031" y="237.933881" fill="rgb(12,12,255)"  stroke="rgb(12,12,255)" stroke-width="1" font-size="16" >HN</text>
<text x="540.351048" y="297.933881" fill="rgb(12,12,255)"  stroke="rgb(12,12,255)" stroke-width="1" font-size="16" >HN</text>
<text x="619.233080" y="297.933881" fill="rgb(12,12,255)"  stroke="rgb(12,12,255)" stroke-width="1" font-size="16" >N</text>
<text x="159.017032" y="147.209070" fill="rgb(12,12,255)"  stroke="rgb(12,12,255)" stroke-width="1" font-size="16" >N</text>
<text x="287.649605" y="204.479981" fill="rgb(255,12,12)"  stroke="rgb(255,12,12)" stroke-width="1" font-size="16" >OH</text>
<text x="192.928442" y="222.573043" fill="rgb(255,12,12)"  stroke="rgb(255,12,12)" stroke-width="1" font-size="16" >HO</text>
<text x="655.074096" y="226.733881" fill="rgb(255,12,12)"  stroke="rgb(255,12,12)" stroke-width="1" font-size="32" >-</text>
<text x="653.874096" y="241.453881" fill="rgb(255,12,12)"  stroke="rgb(255,12,12)" stroke-width="1" font-size="16" >O</text>
<text x="292.586983" y="192.333881" fill="rgb(255,12,12)"  stroke="rgb(255,12,12)" stroke-width="1" font-size="32" >-</text>
<text x="293.786983" y="177.933881" fill="rgb(255,12,12)"  stroke="rgb(255,12,12)" stroke-width="1" font-size="16" >O</text>
<text x="331.386983" y="217.933881" fill="rgb(255,12,12)"  stroke="rgb(255,12,12)" stroke-width="1" font-size="16" >O</text>
<text x="411.386983" y="217.933881" fill="rgb(255,12,12)"  stroke="rgb(255,12,12)" stroke-width="1" font-size="16" >OH</text>
<text x="451.386983" y="181.453881" fill="rgb(255,12,12)"  stroke="rgb(255,12,12)" stroke-width="1" font-size="16" >O</text>
<text x="331.386983" y="141.453881" fill="rgb(255,12,12)"  stroke="rgb(255,12,12)" stroke-width="1" font-size="16" >O</text>
<text x="413.786983" y="141.453881" fill="rgb(255,12,12)"  stroke="rgb(255,12,12)" stroke-width="1" font-size="16" >O</text>
<text x="483.069015" y="177.933881" fill="rgb(255,12,12)"  stroke="rgb(255,12,12)" stroke-width="1" font-size="16" >O</text>
<text x="227.963132" y="125.184415" fill="rgb(255,12,12)"  stroke="rgb(255,12,12)" stroke-width="1" font-size="16" >O</text>
<text x="371.386983" y="177.933881" fill="rgb(255,12,12)"  stroke="rgb(255,12,12)" stroke-width="1" font-size="16" >O</text>
<text x="331.386983" y="181.453881" fill="rgb(255,127,0)"  stroke="rgb(255,127,0)" stroke-width="1" font-size="16" >P</text>
<text x="411.386983" y="177.933881" fill="rgb(255,127,0)"  stroke="rgb(255,127,0)" stroke-width="1" font-size="16" >P</text>
<text x="515.310031" y="81.453881" fill="rgb(178,178,0)"  stroke="rgb(178,178,0)" stroke-width="1" font-size="16" >SH</text>
<text x="584.592064" y="121.453881" fill="rgb(178,178,0)"  stroke="rgb(178,178,0)" stroke-width="1" font-size="16" >S</text>
<text font-size="18.000000" fill ="black" font-family="sans-serif"
x="140.000000" y="20.000000" ></text>
<title> - OBDepict</title>
</svg>
