<?xml version="1.0"?>
<svg xmlns="http://www.w3.org/2000/svg"
xmlns:xlink="http://www.w3.org/1999/xlink" xmlns:cml="http://www.xml-cml.org/schema" width="481.051" height="354.641" x="0" y="0" font-family="sans-serif" stroke="rgb(0,0,0)" stroke-width="1" >
<line x1="267.8" y1="89.6" x2="267.8" y2="60.0"/>
<line x1="267.8" y1="60.0" x2="302.5" y2="40.0"/>
<line x1="302.5" y1="40.0" x2="337.1" y2="60.0"/>
<line x1="337.1" y1="60.0" x2="371.8" y2="40.0"/>
<line x1="371.8" y1="40.0" x2="406.4" y2="60.0"/>
<line x1="406.4" y1="60.0" x2="432.0" y2="45.2"/>
<line x1="409.4" y1="60.0" x2="409.4" y2="100.0"/>
<line x1="403.4" y1="60.0" x2="403.4" y2="100.0"/>
<line x1="406.4" y1="100.0" x2="432.0" y2="114.8"/>
<line x1="406.4" y1="100.0" x2="371.8" y2="120.0"/>
<line x1="371.8" y1="120.0" x2="371.8" y2="160.0"/>
<line x1="371.8" y1="160.0" x2="397.4" y2="174.8"/>
<line x1="373.3" y1="162.6" x2="338.6" y2="182.6"/>
<line x1="370.3" y1="157.4" x2="335.6" y2="177.4"/>
<line x1="178.6" y1="254.6" x2="152.9" y2="269.4"/>
<line x1="178.6" y1="254.6" x2="178.6" y2="214.6"/>
<line x1="180.1" y1="252.0" x2="214.7" y2="272.0"/>
<line x1="177.1" y1="257.2" x2="211.7" y2="277.2"/>
<line x1="178.6" y1="214.6" x2="143.9" y2="194.6"/>
<line x1="337.1" y1="180.0" x2="337.1" y2="209.6"/>
<line x1="337.1" y1="180.0" x2="302.5" y2="160.0"/>
<line x1="213.2" y1="274.6" x2="213.2" y2="304.2"/>
<line x1="213.2" y1="274.6" x2="247.8" y2="254.6"/>
<line x1="143.9" y1="194.6" x2="109.3" y2="214.6"/>
<line x1="302.5" y1="160.0" x2="267.8" y2="180.0"/>
<line x1="247.8" y1="254.6" x2="247.8" y2="214.6"/>
<line x1="109.3" y1="214.6" x2="74.6" y2="194.6"/>
<line x1="71.6" y1="194.6" x2="71.6" y2="165.0"/>
<line x1="77.6" y1="194.6" x2="77.6" y2="165.0"/>
<line x1="74.6" y1="194.6" x2="49.0" y2="209.4"/>
<line x1="267.8" y1="180.0" x2="247.8" y2="214.6"/>
<line x1="247.8" y1="214.6" x2="233.0" y2="189.0"/>
<line x1="238.2" y1="180.0" x2="267.8" y2="180.0"/>
<text x="261.846097" y="104.800000" fill="rgb(102,102,102)"  stroke="rgb(102,102,102)" stroke-width="1" font-size="16" >CH</text>
<text x="285.846097" y="109.600000" fill="rgb(102,102,102)"  stroke="rgb(102,102,102)" stroke-width="1" font-size="13" >3</text>
<text x="68.641016" y="162.961016" fill="rgb(255,12,12)"  stroke="rgb(255,12,12)" stroke-width="1" font-size="16" >O</text>
<text x="24.400000" y="219.441016" fill="rgb(255,12,12)"  stroke="rgb(255,12,12)" stroke-width="1" font-size="16" >HO</text>
<text x="224.246097" y="188.320000" fill="rgb(255,12,12)"  stroke="rgb(255,12,12)" stroke-width="1" font-size="16" >O</text>
<text x="435.051178" y="48.320000" fill="rgb(191,191,191)"  stroke="rgb(191,191,191)" stroke-width="1" font-size="16" >H</text>
<text x="435.051178" y="124.800000" fill="rgb(191,191,191)"  stroke="rgb(191,191,191)" stroke-width="1" font-size="16" >H</text>
<text x="400.410162" y="184.800000" fill="rgb(191,191,191)"  stroke="rgb(191,191,191)" stroke-width="1" font-size="16" >H</text>
<text x="140.323048" y="279.441016" fill="rgb(191,191,191)"  stroke="rgb(191,191,191)" stroke-width="1" font-size="16" >H</text>
<text x="331.128129" y="224.800000" fill="rgb(191,191,191)"  stroke="rgb(191,191,191)" stroke-width="1" font-size="16" >H</text>
<text x="207.205081" y="319.441016" fill="rgb(191,191,191)"  stroke="rgb(191,191,191)" stroke-width="1" font-size="16" >H</text>
<text font-size="18.000000" fill ="black" font-family="sans-serif"
x="140.000000" y="20.000000" ></text>
<title> - OBDepict</title>
</svg>
