<?xml version="1.0"?>
<svg xmlns="http://www.w3.org/2000/svg"
xmlns:xlink="http://www.w3.org/1999/xlink" xmlns:cml="http://www.xml-cml.org/schema" width="293.205" height="214.641" x="0" y="0" font-family="sans-serif" stroke="rgb(0,0,0)" stroke-width="1" >
<line x1="218.6" y1="140.0" x2="244.2" y2="154.8"/>
<polygon points="66.600000 163.209481 83.464102 142.000000 76.535898 138.000000 " />
<line x1="80.0" y1="140.0" x2="50.4" y2="140.0"/>
<line x1="183.9" y1="80.0" x2="183.9" y2="50.4"/>
<line x1="111.6" y1="80.0" x2="111.6" y2="50.4"/>
<line x1="117.6" y1="80.0" x2="117.6" y2="50.4"/>
<line x1="183.9" y1="160.0" x2="218.6" y2="140.0"/>
<line x1="218.6" y1="140.0" x2="218.6" y2="100.0"/>
<line x1="211.4" y1="134.0" x2="211.4" y2="106.0"/>
<line x1="218.6" y1="100.0" x2="183.9" y2="80.0"/>
<line x1="183.9" y1="80.0" x2="149.3" y2="100.0"/>
<line x1="182.3" y1="89.2" x2="158.1" y2="103.2"/>
<line x1="149.3" y1="100.0" x2="149.3" y2="140.0"/>
<line x1="149.3" y1="140.0" x2="183.9" y2="160.0"/>
<line x1="158.1" y1="136.8" x2="182.3" y2="150.8"/>
<line x1="80.0" y1="100.0" x2="80.0" y2="140.0"/>
<line x1="80.0" y1="140.0" x2="114.6" y2="160.0"/>
<line x1="114.6" y1="160.0" x2="149.3" y2="140.0"/>
<line x1="149.3" y1="100.0" x2="114.6" y2="80.0"/>
<line x1="114.6" y1="80.0" x2="80.0" y2="100.0"/>
<text x="247.205081" y="164.800000" fill="rgb(255,12,12)"  stroke="rgb(255,12,12)" stroke-width="1" font-size="16" >OH</text>
<text x="24.400000" y="144.800000" fill="rgb(255,12,12)"  stroke="rgb(255,12,12)" stroke-width="1" font-size="16" >HO</text>
<text x="177.923048" y="48.320000" fill="rgb(255,12,12)"  stroke="rgb(255,12,12)" stroke-width="1" font-size="16" >OH</text>
<text x="108.641016" y="48.320000" fill="rgb(255,12,12)"  stroke="rgb(255,12,12)" stroke-width="1" font-size="16" >O</text>
<text x="56.400000" y="179.441016" fill="rgb(191,191,191)"  stroke="rgb(191,191,191)" stroke-width="1" font-size="16" >H</text>
<text font-size="18.000000" fill ="black" font-family="sans-serif"
x="140.000000" y="20.000000" ></text>
<title> - OBDepict</title>
</svg>
