<?xml version="1.0"?>
<svg xmlns="http://www.w3.org/2000/svg"
xmlns:xlink="http://www.w3.org/1999/xlink" xmlns:cml="http://www.xml-cml.org/schema" width="709.33" height="940.279" x="0" y="0" font-family="sans-serif" stroke="rgb(0,0,0)" stroke-width="1" >
<line x1="544.5" y1="897.7" x2="517.3" y2="890.4"/>
<line x1="269.9" y1="89.1" x2="283.9" y2="113.5"/>
<line x1="247.9" y1="158.2" x2="219.8" y2="158.2"/>
<line x1="464.0" y1="205.8" x2="488.3" y2="219.8"/>
<line x1="517.3" y1="890.4" x2="507.5" y2="853.7"/>
<line x1="507.5" y1="853.7" x2="534.4" y2="826.9"/>
<line x1="534.4" y1="826.9" x2="524.5" y2="790.2"/>
<line x1="524.5" y1="790.2" x2="551.4" y2="763.3"/>
<line x1="551.4" y1="763.3" x2="541.6" y2="726.6"/>
<line x1="541.6" y1="726.6" x2="568.4" y2="699.7"/>
<line x1="568.4" y1="699.7" x2="558.6" y2="663.0"/>
<line x1="558.6" y1="663.0" x2="585.5" y2="636.1"/>
<line x1="585.5" y1="636.1" x2="575.6" y2="599.4"/>
<line x1="575.6" y1="599.4" x2="602.5" y2="572.6"/>
<line x1="602.5" y1="572.6" x2="592.7" y2="535.9"/>
<line x1="592.7" y1="535.9" x2="619.5" y2="509.0"/>
<line x1="619.5" y1="509.0" x2="646.7" y2="516.3"/>
<line x1="616.6" y1="509.8" x2="606.8" y2="473.1"/>
<line x1="622.4" y1="508.2" x2="612.6" y2="471.5"/>
<line x1="609.7" y1="472.3" x2="629.6" y2="452.4"/>
<line x1="609.7" y1="472.3" x2="573.0" y2="462.5"/>
<line x1="59.0" y1="163.3" x2="97.0" y2="163.3"/>
<line x1="59.0" y1="163.3" x2="44.9" y2="138.9"/>
<line x1="559.2" y1="59.0" x2="559.2" y2="97.0"/>
<line x1="559.2" y1="59.0" x2="534.9" y2="44.9"/>
<line x1="659.5" y1="263.1" x2="622.8" y2="272.9"/>
<line x1="659.5" y1="263.1" x2="666.8" y2="235.9"/>
<line x1="343.7" y1="344.2" x2="353.5" y2="307.5"/>
<line x1="343.7" y1="344.2" x2="363.6" y2="364.1"/>
<line x1="450.3" y1="309.0" x2="469.3" y2="341.9"/>
<line x1="450.3" y1="309.0" x2="422.2" y2="309.0"/>
<line x1="519.2" y1="462.5" x2="546.1" y2="489.3"/>
<line x1="519.2" y1="462.5" x2="526.5" y2="435.3"/>
<line x1="483.3" y1="503.5" x2="510.5" y2="510.7"/>
<line x1="481.8" y1="509.3" x2="508.9" y2="516.5"/>
<line x1="482.5" y1="506.4" x2="475.3" y2="479.2"/>
<line x1="259.6" y1="113.9" x2="259.6" y2="113.1"/>
<line x1="263.4" y1="114.3" x2="263.4" y2="112.7"/>
<line x1="267.2" y1="114.7" x2="267.2" y2="112.3"/>
<line x1="271.0" y1="115.1" x2="271.0" y2="111.9"/>
<line x1="274.8" y1="115.5" x2="274.8" y2="111.5"/>
<line x1="278.6" y1="115.9" x2="278.6" y2="111.1"/>
<line x1="282.4" y1="116.3" x2="282.4" y2="110.7"/>
<line x1="217.2" y1="159.7" x2="203.2" y2="135.4"/>
<line x1="222.4" y1="156.7" x2="208.4" y2="132.4"/>
<line x1="219.8" y1="158.2" x2="205.8" y2="182.6"/>
<line x1="486.8" y1="217.2" x2="511.2" y2="203.2"/>
<line x1="489.8" y1="222.4" x2="514.2" y2="208.4"/>
<line x1="488.3" y1="219.8" x2="488.3" y2="247.9"/>
<line x1="563.6" y1="506.2" x2="563.0" y2="506.8"/>
<line x1="561.2" y1="503.3" x2="560.1" y2="504.4"/>
<line x1="558.8" y1="500.3" x2="557.1" y2="502.0"/>
<line x1="556.4" y1="497.3" x2="554.1" y2="499.6"/>
<line x1="554.0" y1="494.4" x2="551.2" y2="497.2"/>
<line x1="551.6" y1="491.4" x2="548.2" y2="494.8"/>
<line x1="549.2" y1="488.4" x2="545.2" y2="492.4"/>
<line x1="546.1" y1="489.3" x2="573.0" y2="462.5"/>
<line x1="546.1" y1="489.3" x2="526.2" y2="509.2"/>
<polygon points="554.986554 444.449675 570.161066 465.281040 575.817920 459.624186 " />
<line x1="573.0" y1="462.5" x2="580.3" y2="435.3"/>
<polygon points="84.270000 185.347799 100.464102 165.298792 93.535898 161.298792 " />
<line x1="580.1" y1="84.5" x2="580.5" y2="85.2"/>
<line x1="576.6" y1="86.0" x2="577.4" y2="87.4"/>
<line x1="573.1" y1="87.6" x2="574.3" y2="89.7"/>
<line x1="569.6" y1="89.2" x2="571.2" y2="91.9"/>
<line x1="566.1" y1="90.7" x2="568.1" y2="94.2"/>
<line x1="562.6" y1="92.3" x2="565.0" y2="96.4"/>
<line x1="559.1" y1="93.8" x2="561.9" y2="98.7"/>
<line x1="640.3" y1="289.8" x2="639.7" y2="290.4"/>
<line x1="637.9" y1="286.9" x2="636.7" y2="288.0"/>
<line x1="635.5" y1="283.9" x2="633.8" y2="285.6"/>
<line x1="633.1" y1="280.9" x2="630.8" y2="283.2"/>
<line x1="630.7" y1="278.0" x2="627.8" y2="280.8"/>
<line x1="628.2" y1="275.0" x2="624.9" y2="278.4"/>
<line x1="625.8" y1="272.0" x2="621.9" y2="276.0"/>
<polygon points="371.546587 325.487143 356.372075 304.655777 350.715221 310.312632 " />
<polygon points="443.845478 341.877374 469.305478 345.877374 469.305478 337.877374 " />
<line x1="174.6" y1="104.0" x2="175.3" y2="104.4"/>
<line x1="172.4" y1="107.1" x2="173.8" y2="107.9"/>
<line x1="170.1" y1="110.2" x2="172.2" y2="111.4"/>
<line x1="167.9" y1="113.3" x2="170.7" y2="114.9"/>
<line x1="165.6" y1="116.4" x2="169.1" y2="118.4"/>
<line x1="163.4" y1="119.5" x2="167.6" y2="121.9"/>
<line x1="161.2" y1="122.6" x2="166.0" y2="125.4"/>
<line x1="162.8" y1="125.3" x2="190.9" y2="125.3"/>
<polygon points="499.165437 175.547931 523.214443 166.282032 519.214443 159.353829 " />
<line x1="521.2" y1="162.8" x2="521.2" y2="190.9"/>
<line x1="304.3" y1="73.6" x2="305.0" y2="73.2"/>
<line x1="305.9" y1="77.1" x2="307.3" y2="76.3"/>
<line x1="307.4" y1="80.6" x2="309.5" y2="79.4"/>
<line x1="309.0" y1="84.1" x2="311.8" y2="82.5"/>
<line x1="310.5" y1="87.6" x2="314.0" y2="85.6"/>
<line x1="312.1" y1="91.1" x2="316.3" y2="88.7"/>
<line x1="313.7" y1="94.6" x2="318.5" y2="91.8"/>
<line x1="316.8" y1="94.5" x2="330.9" y2="70.1"/>
<polygon points="71.540000 125.298792 97.000000 129.298792 97.000000 121.298792 " />
<line x1="97.0" y1="125.3" x2="82.9" y2="100.9"/>
<polygon points="521.214443 71.540000 517.214443 97.000000 525.214443 97.000000 " />
<line x1="521.2" y1="97.0" x2="496.9" y2="82.9"/>
<line x1="636.3" y1="229.5" x2="636.5" y2="230.3"/>
<line x1="632.6" y1="230.1" x2="633.0" y2="231.7"/>
<line x1="628.8" y1="230.7" x2="629.4" y2="233.1"/>
<line x1="625.0" y1="231.3" x2="625.8" y2="234.4"/>
<line x1="621.2" y1="231.9" x2="622.3" y2="235.8"/>
<line x1="617.5" y1="232.5" x2="618.7" y2="237.2"/>
<line x1="613.7" y1="233.1" x2="615.1" y2="238.5"/>
<line x1="613.0" y1="236.2" x2="620.2" y2="209.1"/>
<polygon points="310.248934 322.241552 320.702170 298.684357 312.974763 296.613805 " />
<line x1="316.8" y1="297.6" x2="289.7" y2="304.9"/>
<polygon points="117.178965 84.249786 126.444864 108.298792 133.373067 104.298792 " />
<line x1="129.9" y1="106.3" x2="144.0" y2="81.9"/>
<line x1="361.6" y1="92.2" x2="362.3" y2="92.6"/>
<line x1="359.3" y1="95.3" x2="360.7" y2="96.1"/>
<line x1="357.1" y1="98.4" x2="359.1" y2="99.6"/>
<line x1="354.8" y1="101.5" x2="357.6" y2="103.1"/>
<line x1="352.6" y1="104.6" x2="356.0" y2="106.6"/>
<line x1="350.3" y1="107.7" x2="354.5" y2="110.1"/>
<line x1="348.1" y1="110.8" x2="352.9" y2="113.6"/>
<line x1="349.7" y1="113.5" x2="377.9" y2="113.5"/>
<polygon points="547.853409 319.828367 531.659307 339.877374 538.587510 343.877374 " />
<line x1="535.1" y1="341.9" x2="591.4" y2="341.9"/>
<polygon points="375.207432 151.498603 349.747432 147.498603 349.747432 155.498603 " />
<line x1="349.7" y1="151.5" x2="363.8" y2="175.9"/>
<line x1="559.4" y1="379.5" x2="559.4" y2="380.3"/>
<line x1="555.6" y1="379.1" x2="555.6" y2="380.7"/>
<line x1="551.8" y1="378.7" x2="551.8" y2="381.1"/>
<line x1="548.0" y1="378.3" x2="548.0" y2="381.5"/>
<line x1="544.2" y1="377.9" x2="544.2" y2="381.9"/>
<line x1="540.4" y1="377.5" x2="540.4" y2="382.3"/>
<line x1="536.6" y1="377.1" x2="536.6" y2="382.7"/>
<line x1="535.1" y1="379.9" x2="549.2" y2="404.2"/>
<polygon points="531.376381 235.260289 546.550892 256.091655 552.207747 250.434800 " />
<line x1="549.4" y1="253.3" x2="522.2" y2="260.5"/>
<line x1="489.7" y1="302.0" x2="490.4" y2="301.6"/>
<line x1="491.3" y1="305.5" x2="492.6" y2="304.7"/>
<line x1="492.8" y1="309.0" x2="494.9" y2="307.8"/>
<line x1="494.4" y1="312.5" x2="497.1" y2="310.9"/>
<line x1="495.9" y1="316.0" x2="499.4" y2="314.0"/>
<line x1="497.5" y1="319.5" x2="501.6" y2="317.1"/>
<line x1="499.0" y1="323.0" x2="503.9" y2="320.2"/>
<line x1="502.2" y1="322.9" x2="516.3" y2="298.5"/>
<line x1="481.0" y1="118.1" x2="481.4" y2="117.4"/>
<line x1="484.0" y1="120.3" x2="484.8" y2="119.0"/>
<line x1="487.1" y1="122.6" x2="488.3" y2="120.5"/>
<line x1="490.2" y1="124.8" x2="491.8" y2="122.1"/>
<line x1="493.3" y1="127.1" x2="495.3" y2="123.6"/>
<line x1="496.4" y1="129.3" x2="498.8" y2="125.2"/>
<line x1="499.5" y1="131.6" x2="502.3" y2="126.7"/>
<line x1="502.2" y1="129.9" x2="404.8" y2="186.1"/>
<line x1="582.2" y1="202.8" x2="582.9" y2="203.0"/>
<line x1="580.8" y1="206.4" x2="582.3" y2="206.8"/>
<line x1="579.4" y1="209.9" x2="581.7" y2="210.6"/>
<line x1="578.0" y1="213.5" x2="581.1" y2="214.3"/>
<line x1="576.7" y1="217.1" x2="580.5" y2="218.1"/>
<line x1="575.3" y1="220.6" x2="579.9" y2="221.9"/>
<line x1="573.9" y1="224.2" x2="579.3" y2="225.6"/>
<line x1="576.2" y1="226.4" x2="556.4" y2="206.5"/>
<polygon points="282.410871 267.533432 308.038619 264.807603 305.968067 257.080196 " />
<line x1="307.0" y1="260.9" x2="227.5" y2="181.4"/>
<line x1="316.4" y1="217.2" x2="317.0" y2="216.6"/>
<line x1="318.8" y1="220.1" x2="319.9" y2="219.0"/>
<line x1="321.2" y1="223.1" x2="322.9" y2="221.4"/>
<line x1="323.6" y1="226.1" x2="325.9" y2="223.8"/>
<line x1="326.0" y1="229.0" x2="328.8" y2="226.2"/>
<line x1="328.4" y1="232.0" x2="331.8" y2="228.6"/>
<line x1="330.8" y1="235.0" x2="334.8" y2="231.0"/>
<line x1="333.9" y1="234.1" x2="341.2" y2="206.9"/>
<line x1="160.0" y1="187.5" x2="159.2" y2="187.4"/>
<line x1="160.9" y1="183.7" x2="159.3" y2="183.5"/>
<line x1="161.8" y1="180.0" x2="159.4" y2="179.7"/>
<line x1="162.7" y1="176.3" x2="159.5" y2="175.9"/>
<line x1="163.6" y1="172.6" x2="159.6" y2="172.1"/>
<line x1="164.5" y1="168.9" x2="159.7" y2="168.3"/>
<line x1="165.4" y1="165.2" x2="159.8" y2="164.4"/>
<line x1="162.8" y1="163.3" x2="190.0" y2="156.0"/>
<line x1="583.3" y1="159.2" x2="583.4" y2="160.0"/>
<line x1="579.5" y1="159.3" x2="579.7" y2="160.9"/>
<line x1="575.6" y1="159.4" x2="575.9" y2="161.8"/>
<line x1="571.8" y1="159.5" x2="572.2" y2="162.7"/>
<line x1="568.0" y1="159.6" x2="568.5" y2="163.6"/>
<line x1="564.2" y1="159.7" x2="564.8" y2="164.5"/>
<line x1="560.4" y1="159.8" x2="561.1" y2="165.4"/>
<line x1="559.2" y1="162.8" x2="551.9" y2="190.0"/>
<polygon points="478.692470 408.620494 503.745177 402.572892 500.683710 395.181856 " />
<line x1="502.2" y1="398.9" x2="522.1" y2="418.8"/>
<polygon points="293.316494 180.241723 318.369200 174.194121 315.307733 166.803084 " />
<line x1="316.8" y1="170.5" x2="336.7" y2="190.4"/>
<line x1="568.9" y1="312.3" x2="568.2" y2="312.6"/>
<line x1="567.8" y1="308.6" x2="566.3" y2="309.2"/>
<line x1="566.7" y1="305.0" x2="564.5" y2="305.9"/>
<line x1="565.6" y1="301.3" x2="562.7" y2="302.5"/>
<line x1="564.6" y1="297.6" x2="560.9" y2="299.2"/>
<line x1="563.5" y1="294.0" x2="559.0" y2="295.8"/>
<line x1="562.4" y1="290.3" x2="557.2" y2="292.4"/>
<line x1="559.2" y1="290.0" x2="531.1" y2="290.0"/>
<polygon points="394.100555 253.652086 372.109316 240.213447 369.047848 247.604483 " />
<line x1="370.6" y1="243.9" x2="370.6" y2="215.8"/>
<line x1="349.7" y1="113.5" x2="349.7" y2="151.5"/>
<line x1="349.7" y1="151.5" x2="316.8" y2="170.5"/>
<line x1="316.8" y1="170.5" x2="292.5" y2="156.4"/>
<line x1="283.9" y1="141.6" x2="283.9" y2="113.5"/>
<line x1="283.9" y1="113.5" x2="316.8" y2="94.5"/>
<line x1="316.8" y1="94.5" x2="349.7" y2="113.5"/>
<line x1="162.8" y1="125.3" x2="162.8" y2="163.3"/>
<line x1="162.8" y1="163.3" x2="138.5" y2="177.4"/>
<line x1="121.4" y1="177.4" x2="97.0" y2="163.3"/>
<line x1="97.0" y1="163.3" x2="97.0" y2="125.3"/>
<line x1="97.0" y1="125.3" x2="129.9" y2="106.3"/>
<line x1="129.9" y1="106.3" x2="162.8" y2="125.3"/>
<line x1="521.2" y1="162.8" x2="559.2" y2="162.8"/>
<line x1="559.2" y1="162.8" x2="573.3" y2="138.5"/>
<line x1="573.3" y1="121.4" x2="559.2" y2="97.0"/>
<line x1="559.2" y1="97.0" x2="521.2" y2="97.0"/>
<line x1="521.2" y1="97.0" x2="502.2" y2="129.9"/>
<line x1="502.2" y1="129.9" x2="521.2" y2="162.8"/>
<line x1="549.4" y1="253.3" x2="559.2" y2="290.0"/>
<line x1="559.2" y1="290.0" x2="586.4" y2="297.2"/>
<line x1="602.9" y1="292.8" x2="622.8" y2="272.9"/>
<line x1="622.8" y1="272.9" x2="613.0" y2="236.2"/>
<line x1="613.0" y1="236.2" x2="576.2" y2="226.4"/>
<line x1="576.2" y1="226.4" x2="549.4" y2="253.3"/>
<line x1="307.0" y1="260.9" x2="333.9" y2="234.1"/>
<line x1="333.9" y1="234.1" x2="370.6" y2="243.9"/>
<line x1="370.6" y1="243.9" x2="377.9" y2="271.1"/>
<line x1="373.4" y1="287.6" x2="353.5" y2="307.5"/>
<line x1="353.5" y1="307.5" x2="316.8" y2="297.6"/>
<line x1="316.8" y1="297.6" x2="307.0" y2="260.9"/>
<line x1="535.1" y1="341.9" x2="535.1" y2="379.9"/>
<line x1="535.1" y1="379.9" x2="502.2" y2="398.9"/>
<line x1="502.2" y1="398.9" x2="477.9" y2="384.8"/>
<line x1="469.3" y1="370.0" x2="469.3" y2="341.9"/>
<line x1="469.3" y1="341.9" x2="502.2" y2="322.9"/>
<line x1="502.2" y1="322.9" x2="535.1" y2="341.9"/>
<text x="548.025375" y="905.079477" fill="rgb(102,102,102)"  stroke="rgb(102,102,102)" stroke-width="1" font-size="16" >CH</text>
<text x="572.025375" y="909.879477" fill="rgb(102,102,102)"  stroke="rgb(102,102,102)" stroke-width="1" font-size="13" >3</text>
<text x="241.329501" y="88.909637" fill="rgb(102,102,102)"  stroke="rgb(102,102,102)" stroke-width="1" font-size="16" >H</text>
<text x="253.329501" y="96.589637" fill="rgb(102,102,102)"  stroke="rgb(102,102,102)" stroke-width="1" font-size="13" >3</text>
<text x="259.829501" y="88.909637" fill="rgb(102,102,102)"  stroke="rgb(102,102,102)" stroke-width="1" font-size="16" >C</text>
<text x="251.817931" y="166.527758" fill="rgb(102,102,102)"  stroke="rgb(102,102,102)" stroke-width="1" font-size="16" >CH</text>
<text x="275.817931" y="174.207758" fill="rgb(102,102,102)"  stroke="rgb(102,102,102)" stroke-width="1" font-size="13" >3</text>
<text x="431.796513" y="209.137931" fill="rgb(102,102,102)"  stroke="rgb(102,102,102)" stroke-width="1" font-size="16" >H</text>
<text x="443.796513" y="216.817931" fill="rgb(102,102,102)"  stroke="rgb(102,102,102)" stroke-width="1" font-size="13" >3</text>
<text x="450.296513" y="209.137931" fill="rgb(102,102,102)"  stroke="rgb(102,102,102)" stroke-width="1" font-size="16" >C</text>
<text x="513.249377" y="520.992729" fill="rgb(12,12,255)"  stroke="rgb(12,12,255)" stroke-width="1" font-size="16" >N</text>
<text x="194.817931" y="133.618792" fill="rgb(12,12,255)"  stroke="rgb(12,12,255)" stroke-width="1" font-size="16" >N</text>
<text x="515.214443" y="205.617931" fill="rgb(12,12,255)"  stroke="rgb(12,12,255)" stroke-width="1" font-size="16" >N</text>
<text x="24.400000" y="138.709827" fill="rgb(255,12,12)"  stroke="rgb(255,12,12)" stroke-width="1" font-size="16" >HO</text>
<text x="510.705478" y="48.320000" fill="rgb(255,12,12)"  stroke="rgb(255,12,12)" stroke-width="1" font-size="16" >HO</text>
<text x="663.329987" y="234.713170" fill="rgb(255,12,12)"  stroke="rgb(255,12,12)" stroke-width="1" font-size="16" >OH</text>
<text x="364.578582" y="375.859444" fill="rgb(255,12,12)"  stroke="rgb(255,12,12)" stroke-width="1" font-size="16" >OH</text>
<text x="396.705478" y="313.768409" fill="rgb(255,12,12)"  stroke="rgb(255,12,12)" stroke-width="1" font-size="16" >HO</text>
<text x="457.109072" y="477.972424" fill="rgb(255,12,12)"  stroke="rgb(255,12,12)" stroke-width="1" font-size="16" >HO</text>
<text x="185.217931" y="195.916723" fill="rgb(255,12,12)"  stroke="rgb(255,12,12)" stroke-width="1" font-size="16" >HO</text>
<text x="482.305478" y="262.617931" fill="rgb(255,12,12)"  stroke="rgb(255,12,12)" stroke-width="1" font-size="16" >OH</text>
<text x="576.824616" y="434.067432" fill="rgb(255,12,12)"  stroke="rgb(255,12,12)" stroke-width="1" font-size="16" >OH</text>
<text x="329.838467" y="69.909637" fill="rgb(255,12,12)"  stroke="rgb(255,12,12)" stroke-width="1" font-size="16" >OH</text>
<text x="62.400000" y="100.709827" fill="rgb(255,12,12)"  stroke="rgb(255,12,12)" stroke-width="1" font-size="16" >HO</text>
<text x="472.705478" y="86.320000" fill="rgb(255,12,12)"  stroke="rgb(255,12,12)" stroke-width="1" font-size="16" >HO</text>
<text x="616.789682" y="207.843112" fill="rgb(255,12,12)"  stroke="rgb(255,12,12)" stroke-width="1" font-size="16" >OH</text>
<text x="264.533285" y="312.284204" fill="rgb(255,12,12)"  stroke="rgb(255,12,12)" stroke-width="1" font-size="16" >HO</text>
<text x="142.908965" y="81.709827" fill="rgb(255,12,12)"  stroke="rgb(255,12,12)" stroke-width="1" font-size="16" >OH</text>
<text x="381.747432" y="121.818603" fill="rgb(255,12,12)"  stroke="rgb(255,12,12)" stroke-width="1" font-size="16" >OH</text>
<text x="605.123409" y="346.677374" fill="rgb(255,12,12)"  stroke="rgb(255,12,12)" stroke-width="1" font-size="16" >OH</text>
<text x="362.747432" y="189.207568" fill="rgb(255,12,12)"  stroke="rgb(255,12,12)" stroke-width="1" font-size="16" >OH</text>
<text x="548.123409" y="417.586340" fill="rgb(255,12,12)"  stroke="rgb(255,12,12)" stroke-width="1" font-size="16" >OH</text>
<text x="497.074138" y="267.898351" fill="rgb(255,12,12)"  stroke="rgb(255,12,12)" stroke-width="1" font-size="16" >HO</text>
<text x="523.084501" y="434.067432" fill="rgb(255,12,12)"  stroke="rgb(255,12,12)" stroke-width="1" font-size="16" >O</text>
<text x="280.329501" y="156.298603" fill="rgb(255,12,12)"  stroke="rgb(255,12,12)" stroke-width="1" font-size="16" >O</text>
<text x="123.908965" y="187.098792" fill="rgb(255,12,12)"  stroke="rgb(255,12,12)" stroke-width="1" font-size="16" >O</text>
<text x="572.214443" y="138.228965" fill="rgb(255,12,12)"  stroke="rgb(255,12,12)" stroke-width="1" font-size="16" >O</text>
<text x="589.919625" y="304.603533" fill="rgb(255,12,12)"  stroke="rgb(255,12,12)" stroke-width="1" font-size="16" >O</text>
<text x="374.413706" y="285.414147" fill="rgb(255,12,12)"  stroke="rgb(255,12,12)" stroke-width="1" font-size="16" >O</text>
<text x="465.705478" y="384.677374" fill="rgb(255,12,12)"  stroke="rgb(255,12,12)" stroke-width="1" font-size="16" >O</text>
<text x="517.614443" y="298.288409" fill="rgb(255,12,12)"  stroke="rgb(255,12,12)" stroke-width="1" font-size="16" >O</text>
<text x="366.978582" y="210.708965" fill="rgb(255,12,12)"  stroke="rgb(255,12,12)" stroke-width="1" font-size="16" >O</text>
<text x="545.779320" y="204.323112" fill="rgb(255,12,12)"  stroke="rgb(255,12,12)" stroke-width="1" font-size="16" >O</text>
<text x="195.923112" y="161.783669" fill="rgb(255,12,12)"  stroke="rgb(255,12,12)" stroke-width="1" font-size="16" >O</text>
<text x="337.708524" y="205.688660" fill="rgb(255,12,12)"  stroke="rgb(255,12,12)" stroke-width="1" font-size="16" >O</text>
<text x="650.234979" y="523.628042" fill="rgb(191,191,191)"  stroke="rgb(191,191,191)" stroke-width="1" font-size="16" >H</text>
<text x="630.564732" y="453.737679" fill="rgb(191,191,191)"  stroke="rgb(191,191,191)" stroke-width="1" font-size="16" >H</text>
<text x="242.329501" y="118.298603" fill="rgb(191,191,191)"  stroke="rgb(191,191,191)" stroke-width="1" font-size="16" >H</text>
<text x="566.989493" y="520.992729" fill="rgb(191,191,191)"  stroke="rgb(191,191,191)" stroke-width="1" font-size="16" >H</text>
<text x="542.519435" y="443.902556" fill="rgb(191,191,191)"  stroke="rgb(191,191,191)" stroke-width="1" font-size="16" >H</text>
<text x="74.400000" y="201.007758" fill="rgb(191,191,191)"  stroke="rgb(191,191,191)" stroke-width="1" font-size="16" >H</text>
<text x="586.123409" y="86.320000" fill="rgb(191,191,191)"  stroke="rgb(191,191,191)" stroke-width="1" font-size="16" >H</text>
<text x="643.659740" y="304.603533" fill="rgb(191,191,191)"  stroke="rgb(191,191,191)" stroke-width="1" font-size="16" >H</text>
<text x="374.413706" y="339.154262" fill="rgb(191,191,191)"  stroke="rgb(191,191,191)" stroke-width="1" font-size="16" >H</text>
<text x="427.705478" y="350.197374" fill="rgb(191,191,191)"  stroke="rgb(191,191,191)" stroke-width="1" font-size="16" >H</text>
<text x="175.817931" y="100.709827" fill="rgb(191,191,191)"  stroke="rgb(191,191,191)" stroke-width="1" font-size="16" >H</text>
<text x="484.705478" y="186.617931" fill="rgb(191,191,191)"  stroke="rgb(191,191,191)" stroke-width="1" font-size="16" >H</text>
<text x="294.238467" y="69.909637" fill="rgb(191,191,191)"  stroke="rgb(191,191,191)" stroke-width="1" font-size="16" >H</text>
<text x="55.400000" y="130.098792" fill="rgb(191,191,191)"  stroke="rgb(191,191,191)" stroke-width="1" font-size="16" >H</text>
<text x="515.214443" y="67.320000" fill="rgb(191,191,191)"  stroke="rgb(191,191,191)" stroke-width="1" font-size="16" >H</text>
<text x="643.659740" y="234.713170" fill="rgb(191,191,191)"  stroke="rgb(191,191,191)" stroke-width="1" font-size="16" >H</text>
<text x="303.403343" y="339.154262" fill="rgb(191,191,191)"  stroke="rgb(191,191,191)" stroke-width="1" font-size="16" >H</text>
<text x="107.308965" y="81.709827" fill="rgb(191,191,191)"  stroke="rgb(191,191,191)" stroke-width="1" font-size="16" >H</text>
<text x="362.747432" y="88.909637" fill="rgb(191,191,191)"  stroke="rgb(191,191,191)" stroke-width="1" font-size="16" >H</text>
<text x="548.123409" y="317.288409" fill="rgb(191,191,191)"  stroke="rgb(191,191,191)" stroke-width="1" font-size="16" >H</text>
<text x="381.747432" y="156.298603" fill="rgb(191,191,191)"  stroke="rgb(191,191,191)" stroke-width="1" font-size="16" >H</text>
<text x="567.123409" y="388.197374" fill="rgb(191,191,191)"  stroke="rgb(191,191,191)" stroke-width="1" font-size="16" >H</text>
<text x="518.909262" y="234.713170" fill="rgb(191,191,191)"  stroke="rgb(191,191,191)" stroke-width="1" font-size="16" >H</text>
<text x="479.614443" y="298.288409" fill="rgb(191,191,191)"  stroke="rgb(191,191,191)" stroke-width="1" font-size="16" >H</text>
<text x="465.705478" y="119.228965" fill="rgb(191,191,191)"  stroke="rgb(191,191,191)" stroke-width="1" font-size="16" >H</text>
<text x="580.084501" y="198.007988" fill="rgb(191,191,191)"  stroke="rgb(191,191,191)" stroke-width="1" font-size="16" >H</text>
<text x="266.698161" y="275.579023" fill="rgb(191,191,191)"  stroke="rgb(191,191,191)" stroke-width="1" font-size="16" >H</text>
<text x="303.403343" y="215.523784" fill="rgb(191,191,191)"  stroke="rgb(191,191,191)" stroke-width="1" font-size="16" >H</text>
<text x="154.257935" y="205.773697" fill="rgb(191,191,191)"  stroke="rgb(191,191,191)" stroke-width="1" font-size="16" >H</text>
<text x="590.889348" y="166.177935" fill="rgb(191,191,191)"  stroke="rgb(191,191,191)" stroke-width="1" font-size="16" >H</text>
<text x="463.507021" y="418.219345" fill="rgb(191,191,191)"  stroke="rgb(191,191,191)" stroke-width="1" font-size="16" >H</text>
<text x="278.131044" y="189.840573" fill="rgb(191,191,191)"  stroke="rgb(191,191,191)" stroke-width="1" font-size="16" >H</text>
<text x="567.756414" y="329.875831" fill="rgb(191,191,191)"  stroke="rgb(191,191,191)" stroke-width="1" font-size="16" >H</text>
<text x="399.686004" y="263.250936" fill="rgb(191,191,191)"  stroke="rgb(191,191,191)" stroke-width="1" font-size="16" >H</text>
<text font-size="18.000000" fill ="black" font-family="sans-serif"
x="140.000000" y="20.000000" ></text>
<title> - OBDepict</title>
</svg>
