<?xml version="1.0"?>
<svg xmlns="http://www.w3.org/2000/svg"
xmlns:xlink="http://www.w3.org/1999/xlink" xmlns:cml="http://www.xml-cml.org/schema" width="449.121" height="329.43" x="0" y="0" font-family="sans-serif" stroke="rgb(0,0,0)" stroke-width="1" >
<line x1="401.4" y1="218.4" x2="387.0" y2="193.4"/>
<line x1="406.6" y1="215.4" x2="392.2" y2="190.4"/>
<line x1="404.0" y1="166.9" x2="389.6" y2="191.9"/>
<line x1="50.5" y1="113.9" x2="80.3" y2="113.9"/>
<line x1="65.4" y1="139.7" x2="80.3" y2="113.9"/>
<polygon points="147.847912 113.902685 130.884890 135.296444 137.814052 139.294784 " />
<line x1="215.8" y1="188.0" x2="215.0" y2="188.0"/>
<line x1="216.2" y1="184.1" x2="214.6" y2="184.1"/>
<line x1="216.6" y1="180.2" x2="214.2" y2="180.2"/>
<line x1="217.0" y1="176.3" x2="213.8" y2="176.3"/>
<line x1="217.4" y1="172.4" x2="213.4" y2="172.4"/>
<line x1="217.8" y1="168.5" x2="213.0" y2="168.5"/>
<line x1="218.2" y1="164.6" x2="212.6" y2="164.6"/>
<polygon points="181.635272 172.430306 169.305667 196.790476 176.895740 199.318480 " />
<polygon points="283.040245 230.918073 279.049594 269.932211 287.049593 269.930294 " />
<line x1="283.0" y1="269.9" x2="308.1" y2="284.4"/>
<line x1="389.6" y1="191.9" x2="350.6" y2="191.9"/>
<polygon points="373.960159 178.361750 348.575741 188.415027 352.579379 195.341129 " />
<polygon points="249.235501 198.544215 253.229240 172.413150 245.229240 172.415067 " />
<line x1="109.3" y1="108.0" x2="110.1" y2="107.9"/>
<line x1="109.6" y1="112.1" x2="111.2" y2="111.8"/>
<line x1="109.9" y1="116.1" x2="112.3" y2="115.7"/>
<line x1="110.2" y1="120.2" x2="113.3" y2="119.6"/>
<line x1="110.5" y1="124.2" x2="114.4" y2="123.5"/>
<line x1="110.8" y1="128.2" x2="115.5" y2="127.4"/>
<line x1="111.0" y1="132.3" x2="116.6" y2="131.3"/>
<line x1="173.1" y1="109.0" x2="173.8" y2="108.8"/>
<line x1="174.0" y1="113.0" x2="175.5" y2="112.5"/>
<line x1="174.9" y1="116.9" x2="177.2" y2="116.2"/>
<line x1="175.8" y1="120.9" x2="178.8" y2="119.9"/>
<line x1="176.7" y1="124.8" x2="180.5" y2="123.6"/>
<line x1="177.6" y1="128.8" x2="182.1" y2="127.3"/>
<line x1="178.5" y1="132.7" x2="183.8" y2="131.0"/>
<line x1="54.5" y1="75.3" x2="54.5" y2="74.5"/>
<line x1="58.5" y1="75.7" x2="58.5" y2="74.1"/>
<line x1="62.6" y1="76.1" x2="62.6" y2="73.7"/>
<line x1="66.6" y1="76.5" x2="66.6" y2="73.3"/>
<line x1="70.6" y1="76.9" x2="70.6" y2="72.9"/>
<line x1="74.7" y1="77.3" x2="74.7" y2="72.5"/>
<line x1="78.7" y1="77.7" x2="78.7" y2="72.1"/>
<line x1="80.3" y1="74.9" x2="65.4" y2="49.1"/>
<line x1="260.5" y1="179.3" x2="260.9" y2="178.6"/>
<line x1="263.8" y1="181.7" x2="264.6" y2="180.3"/>
<line x1="267.1" y1="184.1" x2="268.3" y2="182.0"/>
<line x1="270.4" y1="186.4" x2="272.0" y2="183.6"/>
<line x1="273.7" y1="188.8" x2="275.7" y2="185.3"/>
<line x1="276.9" y1="191.1" x2="279.3" y2="187.0"/>
<line x1="280.2" y1="193.5" x2="283.0" y2="188.7"/>
<line x1="350.6" y1="230.9" x2="316.8" y2="250.4"/>
<line x1="316.8" y1="250.4" x2="283.0" y2="230.9"/>
<line x1="283.0" y1="230.9" x2="283.0" y2="191.9"/>
<line x1="283.0" y1="191.9" x2="350.6" y2="191.9"/>
<line x1="350.6" y1="191.9" x2="350.6" y2="230.9"/>
<line x1="147.9" y1="191.9" x2="114.1" y2="172.4"/>
<line x1="114.1" y1="172.4" x2="114.1" y2="133.4"/>
<line x1="114.1" y1="133.4" x2="147.8" y2="113.9"/>
<line x1="147.8" y1="113.9" x2="181.6" y2="133.4"/>
<line x1="181.6" y1="133.4" x2="181.6" y2="172.4"/>
<line x1="181.6" y1="172.4" x2="147.9" y2="191.9"/>
<line x1="249.2" y1="172.4" x2="215.4" y2="191.9"/>
<line x1="215.4" y1="191.9" x2="181.6" y2="172.4"/>
<line x1="181.6" y1="133.4" x2="215.4" y2="113.9"/>
<line x1="215.4" y1="113.9" x2="249.2" y2="133.4"/>
<line x1="249.2" y1="133.4" x2="249.2" y2="172.4"/>
<line x1="80.3" y1="74.9" x2="114.1" y2="55.4"/>
<line x1="114.1" y1="55.4" x2="147.8" y2="74.9"/>
<line x1="147.8" y1="74.9" x2="147.8" y2="113.9"/>
<line x1="114.1" y1="133.4" x2="80.3" y2="113.9"/>
<line x1="80.3" y1="113.9" x2="80.3" y2="74.9"/>
<line x1="215.4" y1="230.9" x2="215.4" y2="191.9"/>
<line x1="249.2" y1="172.4" x2="283.0" y2="191.9"/>
<line x1="283.0" y1="230.9" x2="249.2" y2="250.4"/>
<line x1="249.2" y1="250.4" x2="215.4" y2="230.9"/>
<text x="403.121373" y="230.459662" fill="rgb(102,102,102)"  stroke="rgb(102,102,102)" stroke-width="1" font-size="16" >CH</text>
<text x="427.121373" y="235.259662" fill="rgb(102,102,102)"  stroke="rgb(102,102,102)" stroke-width="1" font-size="13" >2</text>
<text x="403.105176" y="166.388441" fill="rgb(102,102,102)"  stroke="rgb(102,102,102)" stroke-width="1" font-size="16" >CH</text>
<text x="427.105176" y="174.068441" fill="rgb(102,102,102)"  stroke="rgb(102,102,102)" stroke-width="1" font-size="13" >3</text>
<text x="16.400000" y="118.702685" fill="rgb(102,102,102)"  stroke="rgb(102,102,102)" stroke-width="1" font-size="16" >H</text>
<text x="28.400000" y="123.502685" fill="rgb(102,102,102)"  stroke="rgb(102,102,102)" stroke-width="1" font-size="13" >3</text>
<text x="34.900000" y="118.702685" fill="rgb(102,102,102)"  stroke="rgb(102,102,102)" stroke-width="1" font-size="16" >C</text>
<text x="36.555293" y="153.612676" fill="rgb(102,102,102)"  stroke="rgb(102,102,102)" stroke-width="1" font-size="16" >H</text>
<text x="48.555293" y="158.412676" fill="rgb(102,102,102)"  stroke="rgb(102,102,102)" stroke-width="1" font-size="13" >3</text>
<text x="55.055293" y="153.612676" fill="rgb(102,102,102)"  stroke="rgb(102,102,102)" stroke-width="1" font-size="16" >C</text>
<text x="104.100985" y="153.617505" fill="rgb(102,102,102)"  stroke="rgb(102,102,102)" stroke-width="1" font-size="16" >H</text>
<text x="116.100985" y="158.417505" fill="rgb(102,102,102)"  stroke="rgb(102,102,102)" stroke-width="1" font-size="13" >3</text>
<text x="122.600985" y="153.617505" fill="rgb(102,102,102)"  stroke="rgb(102,102,102)" stroke-width="1" font-size="16" >C</text>
<text x="209.427575" y="161.206652" fill="rgb(102,102,102)"  stroke="rgb(102,102,102)" stroke-width="1" font-size="16" >CH</text>
<text x="233.427575" y="168.886652" fill="rgb(102,102,102)"  stroke="rgb(102,102,102)" stroke-width="1" font-size="13" >3</text>
<text x="145.297110" y="215.475339" fill="rgb(102,102,102)"  stroke="rgb(102,102,102)" stroke-width="1" font-size="16" >H</text>
<text x="157.297110" y="220.275339" fill="rgb(102,102,102)"  stroke="rgb(102,102,102)" stroke-width="1" font-size="13" >3</text>
<text x="163.797110" y="215.475339" fill="rgb(102,102,102)"  stroke="rgb(102,102,102)" stroke-width="1" font-size="16" >C</text>
<text x="310.840672" y="294.229746" fill="rgb(255,12,12)"  stroke="rgb(255,12,12)" stroke-width="1" font-size="16" >OH</text>
<text x="44.555293" y="48.320000" fill="rgb(255,12,12)"  stroke="rgb(255,12,12)" stroke-width="1" font-size="16" >HO</text>
<text x="379.476961" y="180.024453" fill="rgb(191,191,191)"  stroke="rgb(191,191,191)" stroke-width="1" font-size="16" >H</text>
<text x="243.238585" y="216.214267" fill="rgb(191,191,191)"  stroke="rgb(191,191,191)" stroke-width="1" font-size="16" >H</text>
<text x="103.690602" y="101.984191" fill="rgb(191,191,191)"  stroke="rgb(191,191,191)" stroke-width="1" font-size="16" >H</text>
<text x="165.269425" y="103.463922" fill="rgb(191,191,191)"  stroke="rgb(191,191,191)" stroke-width="1" font-size="16" >H</text>
<text x="36.400000" y="79.709991" fill="rgb(191,191,191)"  stroke="rgb(191,191,191)" stroke-width="1" font-size="16" >H</text>
<text x="244.538542" y="180.028450" fill="rgb(191,191,191)"  stroke="rgb(191,191,191)" stroke-width="1" font-size="16" >H</text>
<text font-size="18.000000" fill ="black" font-family="sans-serif"
x="140.000000" y="20.000000" ></text>
<title> - OBDepict</title>
</svg>
