<?xml version="1.0"?>
<svg xmlns="http://www.w3.org/2000/svg"
xmlns:xlink="http://www.w3.org/1999/xlink" xmlns:cml="http://www.xml-cml.org/schema" width="703.538" height="740" x="0" y="0" font-family="sans-serif" stroke="rgb(0,0,0)" stroke-width="1" >
<line x1="446.7" y1="154.8" x2="421.1" y2="140.0"/>
<line x1="49.0" y1="685.2" x2="74.6" y2="700.0"/>
<line x1="421.1" y1="140.0" x2="421.1" y2="100.0"/>
<line x1="74.6" y1="700.0" x2="109.3" y2="680.0"/>
<line x1="421.1" y1="100.0" x2="395.4" y2="85.2"/>
<line x1="419.6" y1="97.4" x2="454.2" y2="77.4"/>
<line x1="422.6" y1="102.6" x2="457.2" y2="82.6"/>
<line x1="109.3" y1="680.0" x2="143.9" y2="700.0"/>
<line x1="455.7" y1="80.0" x2="455.7" y2="50.4"/>
<line x1="455.7" y1="80.0" x2="490.3" y2="100.0"/>
<line x1="143.9" y1="700.0" x2="178.6" y2="680.0"/>
<line x1="490.3" y1="100.0" x2="525.0" y2="80.0"/>
<line x1="178.6" y1="680.0" x2="213.2" y2="700.0"/>
<line x1="525.0" y1="80.0" x2="525.0" y2="50.4"/>
<line x1="526.5" y1="77.4" x2="561.1" y2="97.4"/>
<line x1="523.5" y1="82.6" x2="558.1" y2="102.6"/>
<line x1="213.2" y1="700.0" x2="247.8" y2="680.0"/>
<line x1="559.6" y1="100.0" x2="585.2" y2="85.2"/>
<line x1="559.6" y1="100.0" x2="559.6" y2="140.0"/>
<line x1="247.8" y1="680.0" x2="247.8" y2="640.0"/>
<line x1="559.6" y1="140.0" x2="594.3" y2="160.0"/>
<line x1="247.8" y1="640.0" x2="213.2" y2="620.0"/>
<line x1="594.3" y1="160.0" x2="619.9" y2="145.2"/>
<line x1="597.3" y1="160.0" x2="597.3" y2="200.0"/>
<line x1="591.3" y1="160.0" x2="591.3" y2="200.0"/>
<line x1="594.3" y1="200.0" x2="619.9" y2="214.8"/>
<line x1="594.3" y1="200.0" x2="559.6" y2="220.0"/>
<line x1="213.2" y1="620.0" x2="187.6" y2="634.8"/>
<line x1="210.2" y1="620.0" x2="210.2" y2="580.0"/>
<line x1="216.2" y1="620.0" x2="216.2" y2="580.0"/>
<line x1="559.6" y1="220.0" x2="559.6" y2="260.0"/>
<line x1="559.6" y1="260.0" x2="525.0" y2="280.0"/>
<line x1="213.2" y1="580.0" x2="187.6" y2="565.2"/>
<line x1="213.2" y1="580.0" x2="247.8" y2="560.0"/>
<line x1="525.0" y1="280.0" x2="525.0" y2="320.0"/>
<line x1="247.8" y1="560.0" x2="282.5" y2="580.0"/>
<line x1="525.0" y1="320.0" x2="490.3" y2="340.0"/>
<line x1="282.5" y1="580.0" x2="317.1" y2="560.0"/>
<line x1="490.3" y1="340.0" x2="490.3" y2="380.0"/>
<line x1="317.1" y1="560.0" x2="351.8" y2="580.0"/>
<line x1="490.3" y1="380.0" x2="455.7" y2="400.0"/>
<line x1="351.8" y1="580.0" x2="386.4" y2="560.0"/>
<line x1="455.7" y1="400.0" x2="455.7" y2="440.0"/>
<line x1="386.4" y1="560.0" x2="421.1" y2="580.0"/>
<line x1="594.3" y1="400.0" x2="594.3" y2="440.0"/>
<line x1="594.3" y1="400.0" x2="619.9" y2="385.2"/>
<line x1="421.1" y1="500.0" x2="455.7" y2="520.0"/>
<line x1="421.1" y1="500.0" x2="421.1" y2="470.4"/>
<line x1="490.3" y1="500.0" x2="455.7" y2="520.0"/>
<line x1="490.3" y1="500.0" x2="516.0" y2="514.8"/>
<line x1="455.7" y1="520.0" x2="455.7" y2="549.6"/>
<line x1="457.2" y1="437.4" x2="482.8" y2="452.2"/>
<line x1="454.2" y1="442.6" x2="479.8" y2="457.4"/>
<line x1="455.7" y1="440.0" x2="430.1" y2="454.8"/>
<line x1="424.1" y1="580.0" x2="424.1" y2="609.6"/>
<line x1="418.1" y1="580.0" x2="418.1" y2="609.6"/>
<line x1="421.1" y1="580.0" x2="446.7" y2="565.2"/>
<line x1="628.9" y1="460.0" x2="654.5" y2="445.2"/>
<line x1="628.9" y1="500.0" x2="654.5" y2="514.8"/>
<line x1="594.3" y1="520.0" x2="594.3" y2="549.6"/>
<line x1="559.6" y1="500.0" x2="534.0" y2="514.8"/>
<line x1="628.9" y1="500.0" x2="594.3" y2="520.0"/>
<line x1="594.3" y1="520.0" x2="559.6" y2="500.0"/>
<line x1="559.6" y1="500.0" x2="559.6" y2="470.4"/>
<line x1="568.6" y1="454.8" x2="594.3" y2="440.0"/>
<line x1="594.3" y1="440.0" x2="628.9" y2="460.0"/>
<line x1="628.9" y1="460.0" x2="628.9" y2="500.0"/>
<text x="449.692194" y="164.800000" fill="rgb(102,102,102)"  stroke="rgb(102,102,102)" stroke-width="1" font-size="16" >CH</text>
<text x="473.692194" y="169.600000" fill="rgb(102,102,102)"  stroke="rgb(102,102,102)" stroke-width="1" font-size="13" >3</text>
<text x="16.400000" y="688.320000" fill="rgb(102,102,102)"  stroke="rgb(102,102,102)" stroke-width="1" font-size="16" >H</text>
<text x="28.400000" y="696.000000" fill="rgb(102,102,102)"  stroke="rgb(102,102,102)" stroke-width="1" font-size="13" >3</text>
<text x="34.900000" y="688.320000" fill="rgb(102,102,102)"  stroke="rgb(102,102,102)" stroke-width="1" font-size="16" >C</text>
<text x="622.897275" y="388.320000" fill="rgb(255,12,12)"  stroke="rgb(255,12,12)" stroke-width="1" font-size="16" >OH</text>
<text x="484.333210" y="464.800000" fill="rgb(255,12,12)"  stroke="rgb(255,12,12)" stroke-width="1" font-size="16" >O</text>
<text x="415.051178" y="624.800000" fill="rgb(255,12,12)"  stroke="rgb(255,12,12)" stroke-width="1" font-size="16" >O</text>
<text x="657.538291" y="448.320000" fill="rgb(255,12,12)"  stroke="rgb(255,12,12)" stroke-width="1" font-size="16" >OH</text>
<text x="657.538291" y="524.800000" fill="rgb(255,12,12)"  stroke="rgb(255,12,12)" stroke-width="1" font-size="16" >OH</text>
<text x="588.256258" y="564.800000" fill="rgb(255,12,12)"  stroke="rgb(255,12,12)" stroke-width="1" font-size="16" >OH</text>
<text x="417.451178" y="468.320000" fill="rgb(255,12,12)"  stroke="rgb(255,12,12)" stroke-width="1" font-size="16" >O</text>
<text x="518.974226" y="524.800000" fill="rgb(255,12,12)"  stroke="rgb(255,12,12)" stroke-width="1" font-size="16" >O</text>
<text x="449.692194" y="564.800000" fill="rgb(255,12,12)"  stroke="rgb(255,12,12)" stroke-width="1" font-size="16" >O</text>
<text x="556.015242" y="468.320000" fill="rgb(255,12,12)"  stroke="rgb(255,12,12)" stroke-width="1" font-size="16" >O</text>
<text x="382.810162" y="88.320000" fill="rgb(191,191,191)"  stroke="rgb(191,191,191)" stroke-width="1" font-size="16" >H</text>
<text x="449.692194" y="48.320000" fill="rgb(191,191,191)"  stroke="rgb(191,191,191)" stroke-width="1" font-size="16" >H</text>
<text x="518.974226" y="48.320000" fill="rgb(191,191,191)"  stroke="rgb(191,191,191)" stroke-width="1" font-size="16" >H</text>
<text x="588.256258" y="88.320000" fill="rgb(191,191,191)"  stroke="rgb(191,191,191)" stroke-width="1" font-size="16" >H</text>
<text x="622.897275" y="148.320000" fill="rgb(191,191,191)"  stroke="rgb(191,191,191)" stroke-width="1" font-size="16" >H</text>
<text x="622.897275" y="224.800000" fill="rgb(191,191,191)"  stroke="rgb(191,191,191)" stroke-width="1" font-size="16" >H</text>
<text x="174.964065" y="644.800000" fill="rgb(191,191,191)"  stroke="rgb(191,191,191)" stroke-width="1" font-size="16" >H</text>
<text x="174.964065" y="568.320000" fill="rgb(191,191,191)"  stroke="rgb(191,191,191)" stroke-width="1" font-size="16" >H</text>
<text font-size="18.000000" fill ="black" font-family="sans-serif"
x="140.000000" y="20.000000" ></text>
<title> - OBDepict</title>
</svg>
