<?xml version="1.0"?>
<svg xmlns="http://www.w3.org/2000/svg"
xmlns:xlink="http://www.w3.org/1999/xlink" xmlns:cml="http://www.xml-cml.org/schema" width="533.467" height="525.857" x="0" y="0" font-family="sans-serif" stroke="rgb(0,0,0)" stroke-width="1" >
<line x1="219.6" y1="328.5" x2="198.0" y2="348.0"/>
<line x1="192.0" y1="319.5" x2="198.0" y2="348.0"/>
<line x1="303.2" y1="464.8" x2="276.9" y2="435.6"/>
<line x1="303.2" y1="464.8" x2="341.7" y2="456.6"/>
<line x1="276.9" y1="435.6" x2="248.5" y2="441.7"/>
<line x1="392.3" y1="411.1" x2="404.4" y2="373.7"/>
<line x1="392.3" y1="411.1" x2="363.8" y2="417.1"/>
<line x1="404.4" y1="373.7" x2="432.9" y2="367.6"/>
<line x1="129.1" y1="212.6" x2="167.5" y2="204.5"/>
<line x1="129.1" y1="212.6" x2="120.1" y2="240.3"/>
<line x1="159.6" y1="356.1" x2="198.0" y2="348.0"/>
<line x1="159.6" y1="356.1" x2="140.1" y2="334.5"/>
<line x1="454.4" y1="325.2" x2="482.8" y2="319.2"/>
<line x1="455.6" y1="331.1" x2="484.1" y2="325.0"/>
<line x1="455.0" y1="328.1" x2="446.0" y2="355.8"/>
<polygon points="159.362655 229.510175 171.305749 205.697382 163.697297 203.225246 " />
<line x1="338.8" y1="455.7" x2="347.8" y2="428.1"/>
<line x1="344.5" y1="457.6" x2="353.5" y2="429.9"/>
<line x1="341.7" y1="456.6" x2="361.1" y2="478.3"/>
<line x1="191.1" y1="125.6" x2="191.9" y2="125.3"/>
<line x1="192.0" y1="129.4" x2="193.5" y2="128.9"/>
<line x1="192.8" y1="133.3" x2="195.1" y2="132.6"/>
<line x1="193.7" y1="137.2" x2="196.7" y2="136.2"/>
<line x1="194.5" y1="141.0" x2="198.3" y2="139.8"/>
<line x1="195.3" y1="144.9" x2="199.9" y2="143.4"/>
<line x1="196.2" y1="148.7" x2="201.5" y2="147.0"/>
<line x1="199.3" y1="149.4" x2="218.8" y2="127.8"/>
<line x1="138.2" y1="165.8" x2="138.2" y2="165.0"/>
<line x1="142.2" y1="166.2" x2="142.2" y2="164.6"/>
<line x1="146.1" y1="166.6" x2="146.1" y2="164.2"/>
<line x1="150.0" y1="167.0" x2="150.0" y2="163.8"/>
<line x1="154.0" y1="167.4" x2="154.0" y2="163.4"/>
<line x1="157.9" y1="167.8" x2="157.9" y2="163.0"/>
<line x1="161.8" y1="168.2" x2="161.8" y2="162.6"/>
<line x1="163.4" y1="165.4" x2="148.8" y2="140.2"/>
<line x1="248.4" y1="384.6" x2="248.1" y2="385.3"/>
<line x1="244.7" y1="383.0" x2="244.2" y2="384.5"/>
<line x1="241.1" y1="381.4" x2="240.4" y2="383.7"/>
<line x1="237.5" y1="379.8" x2="236.5" y2="382.8"/>
<line x1="233.9" y1="378.2" x2="232.7" y2="382.0"/>
<line x1="230.3" y1="376.6" x2="228.8" y2="381.2"/>
<line x1="226.7" y1="375.0" x2="224.9" y2="380.3"/>
<line x1="224.3" y1="377.2" x2="212.2" y2="414.6"/>
<line x1="224.3" y1="377.2" x2="198.0" y2="348.0"/>
<line x1="224.3" y1="377.2" x2="245.9" y2="357.7"/>
<line x1="367.3" y1="76.7" x2="377.7" y2="49.5"/>
<line x1="214.4" y1="412.6" x2="233.9" y2="434.2"/>
<line x1="209.9" y1="416.6" x2="229.4" y2="438.2"/>
<line x1="212.2" y1="414.6" x2="183.7" y2="420.6"/>
<polygon points="242.369788 198.906384 228.693412 176.044989 222.522617 181.136284 " />
<line x1="225.6" y1="178.6" x2="262.2" y2="133.4"/>
<line x1="104.4" y1="102.2" x2="104.4" y2="121.1"/>
<line x1="75.3" y1="131.3" x2="94.2" y2="131.3"/>
<line x1="101.4" y1="160.4" x2="101.4" y2="141.5"/>
<line x1="107.4" y1="160.4" x2="107.4" y2="141.5"/>
<line x1="72.4" y1="229.7" x2="76.3" y2="248.2"/>
<line x1="49.4" y1="261.3" x2="67.8" y2="257.4"/>
<line x1="50.6" y1="267.2" x2="69.1" y2="263.3"/>
<line x1="66.3" y1="341.1" x2="84.8" y2="337.2"/>
<line x1="97.9" y1="364.2" x2="94.0" y2="345.7"/>
<line x1="103.8" y1="362.9" x2="99.9" y2="344.5"/>
<line x1="106.9" y1="252.1" x2="88.4" y2="256.1"/>
<line x1="123.3" y1="329.0" x2="104.8" y2="333.0"/>
<line x1="133.5" y1="131.3" x2="114.6" y2="131.3"/>
<line x1="84.5" y1="286.6" x2="80.6" y2="268.2"/>
<line x1="88.7" y1="306.6" x2="92.7" y2="325.1"/>
<line x1="264.9" y1="79.5" x2="272.4" y2="107.6"/>
<line x1="285.3" y1="118.0" x2="314.3" y2="119.5"/>
<line x1="314.3" y1="119.5" x2="328.4" y2="82.8"/>
<line x1="328.4" y1="82.8" x2="305.8" y2="64.5"/>
<line x1="289.3" y1="63.7" x2="264.9" y2="79.5"/>
<line x1="291.5" y1="70.8" x2="273.9" y2="82.3"/>
<line x1="167.5" y1="204.5" x2="163.4" y2="165.4"/>
<line x1="163.4" y1="165.4" x2="199.3" y2="149.4"/>
<line x1="199.3" y1="149.4" x2="225.6" y2="178.6"/>
<line x1="225.6" y1="178.6" x2="211.1" y2="203.8"/>
<line x1="196.0" y1="210.5" x2="167.5" y2="204.5"/>
<line x1="314.3" y1="119.5" x2="332.6" y2="142.2"/>
<line x1="323.7" y1="119.7" x2="336.9" y2="136.0"/>
<line x1="349.2" y1="148.5" x2="377.9" y2="143.9"/>
<line x1="377.9" y1="143.9" x2="388.3" y2="116.8"/>
<line x1="373.3" y1="135.8" x2="380.9" y2="116.1"/>
<line x1="385.6" y1="99.3" x2="367.3" y2="76.7"/>
<line x1="367.3" y1="76.7" x2="328.4" y2="82.8"/>
<line x1="362.5" y1="84.7" x2="335.5" y2="89.0"/>
<text x="221.217153" y="329.979837" fill="rgb(102,102,102)"  stroke="rgb(102,102,102)" stroke-width="1" font-size="16" >CH</text>
<text x="245.217153" y="337.659837" fill="rgb(102,102,102)"  stroke="rgb(102,102,102)" stroke-width="1" font-size="13" >3</text>
<text x="166.230794" y="317.832272" fill="rgb(102,102,102)"  stroke="rgb(102,102,102)" stroke-width="1" font-size="16" >H</text>
<text x="178.230794" y="325.512272" fill="rgb(102,102,102)"  stroke="rgb(102,102,102)" stroke-width="1" font-size="13" >3</text>
<text x="184.730794" y="317.832272" fill="rgb(102,102,102)"  stroke="rgb(102,102,102)" stroke-width="1" font-size="16" >C</text>
<text x="375.343594" y="48.320000" fill="rgb(12,12,255)"  stroke="rgb(12,12,255)" stroke-width="1" font-size="16" >NH</text>
<text x="399.343594" y="56.000000" fill="rgb(12,12,255)"  stroke="rgb(12,12,255)" stroke-width="1" font-size="13" >2</text>
<text x="350.217777" y="427.577269" fill="rgb(12,12,255)"  stroke="rgb(12,12,255)" stroke-width="1" font-size="16" >N</text>
<text x="234.863819" y="448.576510" fill="rgb(12,12,255)"  stroke="rgb(12,12,255)" stroke-width="1" font-size="16" >N</text>
<text x="385.994828" y="115.569244" fill="rgb(12,12,255)"  stroke="rgb(12,12,255)" stroke-width="1" font-size="16" >N</text>
<text x="335.480891" y="154.898105" fill="rgb(12,12,255)"  stroke="rgb(12,12,255)" stroke-width="1" font-size="16" >N</text>
<text x="291.879781" y="66.430060" fill="rgb(12,12,255)"  stroke="rgb(12,12,255)" stroke-width="1" font-size="16" >N</text>
<text x="269.085618" y="125.810885" fill="rgb(12,12,255)"  stroke="rgb(12,12,255)" stroke-width="1" font-size="16" >N</text>
<text x="487.466865" y="328.285309" fill="rgb(255,12,12)"  stroke="rgb(255,12,12)" stroke-width="1" font-size="16" >O</text>
<text x="363.173968" y="505.056908" fill="rgb(255,12,12)"  stroke="rgb(255,12,12)" stroke-width="1" font-size="32" >-</text>
<text x="361.973968" y="490.656908" fill="rgb(255,12,12)"  stroke="rgb(255,12,12)" stroke-width="1" font-size="16" >O</text>
<text x="219.608015" y="128.484078" fill="rgb(255,12,12)"  stroke="rgb(255,12,12)" stroke-width="1" font-size="16" >OH</text>
<text x="247.520908" y="359.193116" fill="rgb(255,12,12)"  stroke="rgb(255,12,12)" stroke-width="1" font-size="16" >OH</text>
<text x="168.908745" y="441.936311" fill="rgb(255,12,12)"  stroke="rgb(255,12,12)" stroke-width="1" font-size="32" >-</text>
<text x="170.108745" y="427.536311" fill="rgb(255,12,12)"  stroke="rgb(255,12,12)" stroke-width="1" font-size="16" >O</text>
<text x="99.626956" y="85.612213" fill="rgb(255,12,12)"  stroke="rgb(255,12,12)" stroke-width="1" font-size="32" >-</text>
<text x="98.426956" y="100.332213" fill="rgb(255,12,12)"  stroke="rgb(255,12,12)" stroke-width="1" font-size="16" >O</text>
<text x="60.316611" y="124.922558" fill="rgb(255,12,12)"  stroke="rgb(255,12,12)" stroke-width="1" font-size="32" >-</text>
<text x="61.516611" y="139.642558" fill="rgb(255,12,12)"  stroke="rgb(255,12,12)" stroke-width="1" font-size="16" >O</text>
<text x="98.426956" y="175.432903" fill="rgb(255,12,12)"  stroke="rgb(255,12,12)" stroke-width="1" font-size="16" >O</text>
<text x="54.678239" y="228.062514" fill="rgb(255,12,12)"  stroke="rgb(255,12,12)" stroke-width="1" font-size="16" >HO</text>
<text x="36.400000" y="271.166914" fill="rgb(255,12,12)"  stroke="rgb(255,12,12)" stroke-width="1" font-size="16" >O</text>
<text x="40.746161" y="348.069553" fill="rgb(255,12,12)"  stroke="rgb(255,12,12)" stroke-width="1" font-size="16" >HO</text>
<text x="96.970560" y="378.347792" fill="rgb(255,12,12)"  stroke="rgb(255,12,12)" stroke-width="1" font-size="16" >O</text>
<text x="110.902639" y="254.820754" fill="rgb(255,12,12)"  stroke="rgb(255,12,12)" stroke-width="1" font-size="16" >O</text>
<text x="127.248799" y="335.243393" fill="rgb(255,12,12)"  stroke="rgb(255,12,12)" stroke-width="1" font-size="16" >O</text>
<text x="199.952843" y="217.434394" fill="rgb(255,12,12)"  stroke="rgb(255,12,12)" stroke-width="1" font-size="16" >O</text>
<text x="137.737301" y="139.642558" fill="rgb(255,12,12)"  stroke="rgb(255,12,12)" stroke-width="1" font-size="16" >O</text>
<text x="80.624400" y="301.445153" fill="rgb(255,12,12)"  stroke="rgb(255,12,12)" stroke-width="1" font-size="16" >O</text>
<text x="98.426956" y="136.122558" fill="rgb(255,127,0)"  stroke="rgb(255,127,0)" stroke-width="1" font-size="16" >P</text>
<text x="72.451319" y="266.513834" fill="rgb(255,127,0)"  stroke="rgb(255,127,0)" stroke-width="1" font-size="16" >P</text>
<text x="88.797480" y="343.416473" fill="rgb(255,127,0)"  stroke="rgb(255,127,0)" stroke-width="1" font-size="16" >P</text>
<text x="436.867981" y="370.324749" fill="rgb(178,178,0)"  stroke="rgb(178,178,0)" stroke-width="1" font-size="16" >S</text>
<text x="151.753958" y="246.647673" fill="rgb(191,191,191)"  stroke="rgb(191,191,191)" stroke-width="1" font-size="16" >H</text>
<text x="183.556695" y="120.310998" fill="rgb(191,191,191)"  stroke="rgb(191,191,191)" stroke-width="1" font-size="16" >H</text>
<text x="120.482128" y="170.166315" fill="rgb(191,191,191)"  stroke="rgb(191,191,191)" stroke-width="1" font-size="16" >H</text>
<text x="255.693988" y="394.124436" fill="rgb(191,191,191)"  stroke="rgb(191,191,191)" stroke-width="1" font-size="16" >H</text>
<text x="244.625586" y="213.712647" fill="rgb(191,191,191)"  stroke="rgb(191,191,191)" stroke-width="1" font-size="16" >H</text>
<text font-size="18.000000" fill ="black" font-family="sans-serif"
x="140.000000" y="20.000000" ></text>
<title> - OBDepict</title>
</svg>
