<?xml version="1.0"?>
<svg xmlns="http://www.w3.org/2000/svg"
xmlns:xlink="http://www.w3.org/1999/xlink" xmlns:cml="http://www.xml-cml.org/schema" width="359.721" height="364.209" x="0" y="0" font-family="sans-serif" stroke="rgb(0,0,0)" stroke-width="1" >
<line x1="47.4" y1="46.6" x2="68.3" y2="65.5"/>
<line x1="62.4" y1="93.0" x2="68.3" y2="65.5"/>
<line x1="79.9" y1="101.4" x2="88.6" y2="128.1"/>
<line x1="262.8" y1="315.6" x2="248.7" y2="291.3"/>
<line x1="234.6" y1="315.6" x2="248.7" y2="291.3"/>
<line x1="189.6" y1="211.7" x2="189.2" y2="211.0"/>
<line x1="196.4" y1="208.2" x2="195.6" y2="206.9"/>
<line x1="203.2" y1="204.8" x2="202.0" y2="202.7"/>
<line x1="210.0" y1="201.3" x2="208.4" y2="198.6"/>
<line x1="216.8" y1="197.9" x2="214.8" y2="194.4"/>
<line x1="223.6" y1="194.4" x2="221.2" y2="190.3"/>
<line x1="230.4" y1="191.0" x2="227.6" y2="186.1"/>
<line x1="118.8" y1="173.8" x2="118.1" y2="173.5"/>
<line x1="120.7" y1="170.5" x2="119.3" y2="169.8"/>
<line x1="122.7" y1="167.2" x2="120.5" y2="166.2"/>
<line x1="124.6" y1="163.9" x2="121.6" y2="162.6"/>
<line x1="126.5" y1="160.5" x2="122.8" y2="158.9"/>
<line x1="128.4" y1="157.2" x2="124.0" y2="155.3"/>
<line x1="130.3" y1="153.9" x2="125.2" y2="151.6"/>
<polygon points="116.916477 215.160354 123.631103 240.076025 130.939467 236.822132 " />
<line x1="132.7" y1="79.2" x2="104.5" y2="53.7"/>
<line x1="132.7" y1="79.2" x2="124.8" y2="116.4"/>
<line x1="105.4" y1="56.6" x2="69.2" y2="68.3"/>
<line x1="103.5" y1="50.8" x2="67.3" y2="62.6"/>
<line x1="124.8" y1="116.4" x2="88.6" y2="128.1"/>
<polygon points="63.705116 122.836304 87.809076 132.049121 89.472369 124.223940 " />
<line x1="88.6" y1="128.1" x2="80.7" y2="165.4"/>
<line x1="80.7" y1="165.4" x2="59.8" y2="146.5"/>
<line x1="215.8" y1="234.2" x2="215.8" y2="206.0"/>
<line x1="149.9" y1="234.2" x2="101.1" y2="262.3"/>
<polygon points="294.418871 294.310836 285.136631 270.233525 278.208428 274.233525 " />
<line x1="281.7" y1="272.2" x2="309.8" y2="272.2"/>
<line x1="58.4" y1="196.1" x2="80.7" y2="226.9"/>
<line x1="80.7" y1="226.9" x2="116.9" y2="215.2"/>
<line x1="116.9" y1="215.2" x2="116.9" y2="177.1"/>
<line x1="116.9" y1="177.1" x2="80.7" y2="165.4"/>
<line x1="80.7" y1="165.4" x2="58.4" y2="196.1"/>
<line x1="149.9" y1="272.2" x2="182.8" y2="291.3"/>
<line x1="182.8" y1="291.3" x2="215.8" y2="272.2"/>
<line x1="184.4" y1="282.0" x2="207.0" y2="269.0"/>
<line x1="215.8" y1="272.2" x2="215.8" y2="234.2"/>
<line x1="215.8" y1="234.2" x2="182.8" y2="215.2"/>
<line x1="182.8" y1="215.2" x2="149.9" y2="234.2"/>
<line x1="149.9" y1="234.2" x2="149.9" y2="272.2"/>
<line x1="281.7" y1="272.2" x2="281.7" y2="234.2"/>
<line x1="281.7" y1="234.2" x2="248.7" y2="215.2"/>
<line x1="248.7" y1="215.2" x2="215.8" y2="234.2"/>
<line x1="215.8" y1="272.2" x2="248.7" y2="291.3"/>
<line x1="248.7" y1="291.3" x2="281.7" y2="272.2"/>
<line x1="116.9" y1="215.2" x2="149.9" y2="234.2"/>
<line x1="182.8" y1="215.2" x2="182.8" y2="177.1"/>
<line x1="182.8" y1="177.1" x2="149.9" y2="158.1"/>
<line x1="149.9" y1="158.1" x2="116.9" y2="177.1"/>
<text x="16.400000" y="48.320000" fill="rgb(102,102,102)"  stroke="rgb(102,102,102)" stroke-width="1" font-size="16" >H</text>
<text x="28.400000" y="56.000000" fill="rgb(102,102,102)"  stroke="rgb(102,102,102)" stroke-width="1" font-size="13" >3</text>
<text x="34.900000" y="48.320000" fill="rgb(102,102,102)"  stroke="rgb(102,102,102)" stroke-width="1" font-size="16" >C</text>
<text x="36.764968" y="107.476927" fill="rgb(102,102,102)"  stroke="rgb(102,102,102)" stroke-width="1" font-size="16" >H</text>
<text x="48.764968" y="112.276927" fill="rgb(102,102,102)"  stroke="rgb(102,102,102)" stroke-width="1" font-size="13" >3</text>
<text x="55.264968" y="107.476927" fill="rgb(102,102,102)"  stroke="rgb(102,102,102)" stroke-width="1" font-size="16" >C</text>
<text x="53.283003" y="100.269990" fill="rgb(102,102,102)"  stroke="rgb(102,102,102)" stroke-width="1" font-size="16" >H</text>
<text x="65.283003" y="107.949990" fill="rgb(102,102,102)"  stroke="rgb(102,102,102)" stroke-width="1" font-size="13" >3</text>
<text x="71.783003" y="100.269990" fill="rgb(102,102,102)"  stroke="rgb(102,102,102)" stroke-width="1" font-size="16" >C</text>
<text x="261.745709" y="329.009126" fill="rgb(102,102,102)"  stroke="rgb(102,102,102)" stroke-width="1" font-size="16" >CH</text>
<text x="285.745709" y="333.809126" fill="rgb(102,102,102)"  stroke="rgb(102,102,102)" stroke-width="1" font-size="13" >3</text>
<text x="206.096928" y="329.009126" fill="rgb(102,102,102)"  stroke="rgb(102,102,102)" stroke-width="1" font-size="16" >H</text>
<text x="218.096928" y="333.809126" fill="rgb(102,102,102)"  stroke="rgb(102,102,102)" stroke-width="1" font-size="13" >3</text>
<text x="224.596928" y="329.009126" fill="rgb(102,102,102)"  stroke="rgb(102,102,102)" stroke-width="1" font-size="16" >C</text>
<text x="242.721319" y="185.431574" fill="rgb(102,102,102)"  stroke="rgb(102,102,102)" stroke-width="1" font-size="16" >CH</text>
<text x="266.721319" y="193.111574" fill="rgb(102,102,102)"  stroke="rgb(102,102,102)" stroke-width="1" font-size="13" >3</text>
<text x="126.392310" y="150.672283" fill="rgb(102,102,102)"  stroke="rgb(102,102,102)" stroke-width="1" font-size="16" >CH</text>
<text x="150.392310" y="158.352283" fill="rgb(102,102,102)"  stroke="rgb(102,102,102)" stroke-width="1" font-size="13" >3</text>
<text x="126.392310" y="254.719645" fill="rgb(102,102,102)"  stroke="rgb(102,102,102)" stroke-width="1" font-size="16" >CH</text>
<text x="150.392310" y="259.519645" fill="rgb(102,102,102)"  stroke="rgb(102,102,102)" stroke-width="1" font-size="13" >3</text>
<text x="313.721310" y="277.033525" fill="rgb(255,12,12)"  stroke="rgb(255,12,12)" stroke-width="1" font-size="16" >OH</text>
<text x="47.823399" y="128.545744" fill="rgb(191,191,191)"  stroke="rgb(191,191,191)" stroke-width="1" font-size="16" >H</text>
<text x="48.854182" y="148.214250" fill="rgb(191,191,191)"  stroke="rgb(191,191,191)" stroke-width="1" font-size="16" >H</text>
<text x="209.770108" y="204.455964" fill="rgb(191,191,191)"  stroke="rgb(191,191,191)" stroke-width="1" font-size="16" >H</text>
<text x="80.365266" y="277.033525" fill="rgb(191,191,191)"  stroke="rgb(191,191,191)" stroke-width="1" font-size="16" >H</text>
<text x="294.696919" y="309.984735" fill="rgb(191,191,191)"  stroke="rgb(191,191,191)" stroke-width="1" font-size="16" >H</text>
<text font-size="18.000000" fill ="black" font-family="sans-serif"
x="140.000000" y="20.000000" ></text>
<title> - OBDepict</title>
</svg>
