<?xml version="1.0"?>
<svg xmlns="http://www.w3.org/2000/svg"
xmlns:xlink="http://www.w3.org/1999/xlink" xmlns:cml="http://www.xml-cml.org/schema" width="929.872" height="430.214" x="0" y="0" font-family="sans-serif" stroke="rgb(0,0,0)" stroke-width="1" >
<line x1="163.4" y1="355.8" x2="148.6" y2="330.2"/>
<line x1="316.8" y1="330.2" x2="287.2" y2="330.2"/>
<line x1="559.3" y1="150.2" x2="529.7" y2="150.2"/>
<line x1="544.5" y1="124.6" x2="529.7" y2="150.2"/>
<polygon points="155.210425 156.294069 172.450184 177.199348 177.803229 171.254190 " />
<polygon points="130.261022 273.671781 154.513269 285.757662 156.985405 278.149210 " />
<line x1="183.3" y1="310.2" x2="217.9" y2="330.2"/>
<line x1="183.3" y1="310.2" x2="148.6" y2="330.2"/>
<line x1="217.9" y1="330.2" x2="252.6" y2="310.2"/>
<line x1="425.8" y1="250.2" x2="425.8" y2="210.2"/>
<line x1="425.8" y1="250.2" x2="391.1" y2="270.2"/>
<line x1="425.8" y1="210.2" x2="451.4" y2="195.4"/>
<line x1="356.5" y1="330.2" x2="356.5" y2="370.2"/>
<line x1="356.5" y1="330.2" x2="382.1" y2="315.4"/>
<line x1="356.5" y1="370.2" x2="330.8" y2="385.0"/>
<line x1="679.0" y1="190.2" x2="679.0" y2="150.2"/>
<line x1="679.0" y1="190.2" x2="653.3" y2="205.0"/>
<line x1="529.7" y1="190.2" x2="529.7" y2="150.2"/>
<line x1="529.7" y1="190.2" x2="555.3" y2="205.0"/>
<line x1="136.2" y1="352.6" x2="135.5" y2="352.2"/>
<line x1="138.5" y1="349.3" x2="137.1" y2="348.5"/>
<line x1="140.9" y1="346.1" x2="138.8" y2="344.9"/>
<line x1="143.2" y1="342.8" x2="140.4" y2="341.2"/>
<line x1="145.6" y1="339.5" x2="142.1" y2="337.5"/>
<line x1="147.9" y1="336.3" x2="143.8" y2="333.9"/>
<line x1="150.3" y1="333.0" x2="145.4" y2="330.2"/>
<line x1="148.6" y1="330.2" x2="114.0" y2="310.2"/>
<line x1="287.2" y1="330.2" x2="302.0" y2="304.6"/>
<line x1="287.2" y1="330.2" x2="252.6" y2="310.2"/>
<line x1="287.2" y1="330.2" x2="287.2" y2="370.2"/>
<polygon points="105.568351 111.596144 122.808110 132.501424 128.161155 126.556265 " />
<polygon points="163.561705 52.553946 168.039135 79.278329 175.647587 76.806193 " />
<line x1="171.8" y1="78.0" x2="191.6" y2="56.0"/>
<line x1="114.4" y1="335.8" x2="113.6" y2="335.8"/>
<line x1="114.8" y1="331.8" x2="113.2" y2="331.8"/>
<line x1="115.2" y1="327.8" x2="112.8" y2="327.8"/>
<line x1="115.6" y1="323.8" x2="112.4" y2="323.8"/>
<line x1="116.0" y1="319.8" x2="112.0" y2="319.8"/>
<line x1="116.4" y1="315.8" x2="111.6" y2="315.8"/>
<line x1="116.8" y1="311.8" x2="111.2" y2="311.8"/>
<line x1="89.8" y1="223.7" x2="90.5" y2="223.4"/>
<line x1="91.0" y1="227.5" x2="92.5" y2="226.8"/>
<line x1="92.3" y1="231.3" x2="94.5" y2="230.3"/>
<line x1="93.5" y1="235.1" x2="96.5" y2="233.8"/>
<line x1="94.8" y1="238.9" x2="98.5" y2="237.3"/>
<line x1="96.1" y1="242.8" x2="100.5" y2="240.8"/>
<line x1="97.3" y1="246.6" x2="102.4" y2="244.3"/>
<line x1="171.1" y1="187.1" x2="171.4" y2="187.9"/>
<line x1="167.2" y1="188.0" x2="167.7" y2="189.5"/>
<line x1="163.3" y1="188.8" x2="164.0" y2="191.1"/>
<line x1="159.3" y1="189.7" x2="160.3" y2="192.7"/>
<line x1="155.4" y1="190.6" x2="156.6" y2="194.4"/>
<line x1="151.5" y1="191.4" x2="153.0" y2="196.0"/>
<line x1="147.6" y1="192.3" x2="149.3" y2="197.6"/>
<line x1="249.6" y1="310.2" x2="249.6" y2="280.6"/>
<line x1="255.6" y1="310.2" x2="255.6" y2="280.6"/>
<polygon points="61.193204 200.931710 82.098483 183.691951 76.153325 178.338906 " />
<line x1="79.1" y1="181.0" x2="50.2" y2="174.9"/>
<polygon points="652.701492 144.881898 678.170007 154.133642 679.761559 146.293556 " />
<line x1="394.1" y1="270.2" x2="394.1" y2="299.8"/>
<line x1="388.1" y1="270.2" x2="388.1" y2="299.8"/>
<line x1="391.1" y1="270.2" x2="365.5" y2="255.4"/>
<polygon points="83.363382 216.062308 110.087765 211.584879 107.615629 203.976426 " />
<line x1="724.1" y1="72.4" x2="724.8" y2="72.9"/>
<line x1="721.3" y1="75.3" x2="722.6" y2="76.3"/>
<line x1="718.5" y1="78.1" x2="720.4" y2="79.6"/>
<line x1="715.7" y1="81.0" x2="718.2" y2="83.0"/>
<line x1="712.8" y1="83.8" x2="715.9" y2="86.3"/>
<line x1="710.0" y1="86.7" x2="713.7" y2="89.7"/>
<line x1="707.2" y1="89.5" x2="711.5" y2="93.1"/>
<line x1="708.3" y1="92.5" x2="697.7" y2="64.9"/>
<line x1="658.4" y1="89.5" x2="659.1" y2="89.0"/>
<line x1="660.3" y1="93.0" x2="661.6" y2="92.2"/>
<line x1="662.1" y1="96.6" x2="664.1" y2="95.3"/>
<line x1="664.0" y1="100.2" x2="666.6" y2="98.4"/>
<line x1="665.8" y1="103.7" x2="669.2" y2="101.6"/>
<line x1="667.6" y1="107.3" x2="671.7" y2="104.7"/>
<line x1="669.5" y1="110.9" x2="674.2" y2="107.8"/>
<line x1="672.7" y1="110.7" x2="643.1" y2="112.3"/>
<polygon points="508.442734 107.004118 491.578633 128.213599 498.506836 132.213599 " />
<line x1="495.0" y1="130.2" x2="460.4" y2="150.2"/>
<line x1="495.0" y1="130.2" x2="529.7" y2="150.2"/>
<line x1="495.0" y1="130.2" x2="480.2" y2="104.6"/>
<line x1="868.1" y1="74.6" x2="884.2" y2="49.7"/>
<line x1="463.4" y1="150.2" x2="463.4" y2="179.8"/>
<line x1="457.4" y1="150.2" x2="457.4" y2="179.8"/>
<line x1="460.4" y1="150.2" x2="434.8" y2="135.4"/>
<polygon points="761.652892 130.434978 738.066408 117.096395 735.199465 124.565038 " />
<line x1="736.6" y1="120.8" x2="759.6" y2="102.2"/>
<line x1="288.7" y1="372.8" x2="263.1" y2="387.6"/>
<line x1="285.7" y1="367.6" x2="260.1" y2="382.4"/>
<line x1="287.2" y1="370.2" x2="312.8" y2="385.0"/>
<line x1="635.8" y1="63.1" x2="619.7" y2="73.6"/>
<line x1="594.9" y1="54.4" x2="605.3" y2="70.5"/>
<line x1="584.5" y1="92.9" x2="600.6" y2="82.4"/>
<line x1="587.8" y1="97.9" x2="603.9" y2="87.4"/>
<line x1="644.3" y1="279.8" x2="644.3" y2="260.6"/>
<line x1="673.9" y1="253.2" x2="654.7" y2="253.2"/>
<line x1="673.9" y1="247.2" x2="654.7" y2="247.2"/>
<line x1="534.7" y1="250.2" x2="553.9" y2="250.2"/>
<line x1="561.3" y1="279.8" x2="561.3" y2="260.6"/>
<line x1="567.3" y1="279.8" x2="567.3" y2="260.6"/>
<line x1="644.3" y1="220.6" x2="644.3" y2="239.8"/>
<line x1="564.3" y1="220.6" x2="564.3" y2="239.8"/>
<line x1="627.1" y1="104.1" x2="616.6" y2="88.0"/>
<line x1="614.7" y1="250.2" x2="633.9" y2="250.2"/>
<line x1="593.9" y1="250.2" x2="574.7" y2="250.2"/>
<line x1="74.2" y1="306.0" x2="65.9" y2="266.9"/>
<line x1="65.9" y1="266.9" x2="100.5" y2="246.9"/>
<line x1="100.5" y1="246.9" x2="130.3" y2="273.7"/>
<line x1="130.3" y1="273.7" x2="114.0" y2="310.2"/>
<line x1="114.0" y1="310.2" x2="74.2" y2="306.0"/>
<line x1="765.6" y1="55.7" x2="767.2" y2="85.3"/>
<line x1="777.8" y1="98.3" x2="806.4" y2="106.0"/>
<line x1="806.4" y1="106.0" x2="828.1" y2="72.5"/>
<line x1="828.1" y1="72.5" x2="809.5" y2="49.5"/>
<line x1="793.3" y1="45.1" x2="765.6" y2="55.7"/>
<line x1="794.0" y1="52.5" x2="773.8" y2="60.3"/>
<line x1="679.0" y1="150.2" x2="672.7" y2="110.7"/>
<line x1="672.7" y1="110.7" x2="708.3" y2="92.5"/>
<line x1="708.3" y1="92.5" x2="736.6" y2="120.8"/>
<line x1="736.6" y1="120.8" x2="723.2" y2="147.2"/>
<line x1="708.2" y1="154.8" x2="679.0" y2="150.2"/>
<line x1="87.4" y1="141.9" x2="125.5" y2="129.5"/>
<line x1="125.5" y1="129.5" x2="155.2" y2="156.3"/>
<line x1="155.2" y1="156.3" x2="146.9" y2="195.4"/>
<line x1="146.9" y1="195.4" x2="108.9" y2="207.8"/>
<line x1="108.9" y1="207.8" x2="79.1" y2="181.0"/>
<line x1="79.1" y1="181.0" x2="87.4" y2="141.9"/>
<line x1="146.9" y1="195.4" x2="176.6" y2="222.2"/>
<line x1="176.6" y1="222.2" x2="168.3" y2="261.3"/>
<line x1="168.3" y1="261.3" x2="130.3" y2="273.7"/>
<line x1="100.5" y1="246.9" x2="108.9" y2="207.8"/>
<line x1="201.6" y1="104.8" x2="193.3" y2="143.9"/>
<line x1="193.3" y1="143.9" x2="155.2" y2="156.3"/>
<line x1="125.5" y1="129.5" x2="133.8" y2="90.4"/>
<line x1="133.8" y1="90.4" x2="171.8" y2="78.0"/>
<line x1="171.8" y1="78.0" x2="201.6" y2="104.8"/>
<line x1="806.4" y1="106.0" x2="819.8" y2="132.4"/>
<line x1="815.5" y1="108.1" x2="825.3" y2="127.3"/>
<line x1="834.9" y1="142.2" x2="864.5" y2="143.7"/>
<line x1="864.5" y1="143.7" x2="880.6" y2="118.9"/>
<line x1="861.7" y1="134.8" x2="873.5" y2="116.7"/>
<line x1="881.5" y1="100.9" x2="868.1" y2="74.6"/>
<line x1="868.1" y1="74.6" x2="828.1" y2="72.5"/>
<line x1="861.7" y1="81.4" x2="833.8" y2="80.0"/>
<text x="162.632573" y="369.654615" fill="rgb(102,102,102)"  stroke="rgb(102,102,102)" stroke-width="1" font-size="16" >CH</text>
<text x="186.632573" y="374.454615" fill="rgb(102,102,102)"  stroke="rgb(102,102,102)" stroke-width="1" font-size="13" >3</text>
<text x="321.196637" y="335.013599" fill="rgb(102,102,102)"  stroke="rgb(102,102,102)" stroke-width="1" font-size="16" >CH</text>
<text x="345.196637" y="339.813599" fill="rgb(102,102,102)"  stroke="rgb(102,102,102)" stroke-width="1" font-size="13" >3</text>
<text x="563.683751" y="155.013599" fill="rgb(102,102,102)"  stroke="rgb(102,102,102)" stroke-width="1" font-size="16" >CH</text>
<text x="587.683751" y="159.813599" fill="rgb(102,102,102)"  stroke="rgb(102,102,102)" stroke-width="1" font-size="13" >3</text>
<text x="543.683751" y="123.892583" fill="rgb(102,102,102)"  stroke="rgb(102,102,102)" stroke-width="1" font-size="16" >CH</text>
<text x="567.683751" y="131.572583" fill="rgb(102,102,102)"  stroke="rgb(102,102,102)" stroke-width="1" font-size="13" >3</text>
<text x="178.936218" y="187.859293" fill="rgb(102,102,102)"  stroke="rgb(102,102,102)" stroke-width="1" font-size="16" >CH</text>
<text x="202.936218" y="192.659293" fill="rgb(102,102,102)"  stroke="rgb(102,102,102)" stroke-width="1" font-size="13" >3</text>
<text x="162.303283" y="290.832461" fill="rgb(102,102,102)"  stroke="rgb(102,102,102)" stroke-width="1" font-size="16" >CH</text>
<text x="186.303283" y="295.632461" fill="rgb(102,102,102)"  stroke="rgb(102,102,102)" stroke-width="1" font-size="13" >3</text>
<text x="883.872112" y="49.330456" fill="rgb(12,12,255)"  stroke="rgb(12,12,255)" stroke-width="1" font-size="16" >NH</text>
<text x="907.872112" y="57.010456" fill="rgb(12,12,255)"  stroke="rgb(12,12,255)" stroke-width="1" font-size="13" >2</text>
<text x="385.119686" y="315.013599" fill="rgb(12,12,255)"  stroke="rgb(12,12,255)" stroke-width="1" font-size="16" >N</text>
<text x="454.401718" y="195.013599" fill="rgb(12,12,255)"  stroke="rgb(12,12,255)" stroke-width="1" font-size="16" >N</text>
<text x="880.246171" y="114.997539" fill="rgb(12,12,255)"  stroke="rgb(12,12,255)" stroke-width="1" font-size="16" >N</text>
<text x="820.915428" y="146.450924" fill="rgb(12,12,255)"  stroke="rgb(12,12,255)" stroke-width="1" font-size="16" >N</text>
<text x="796.968554" y="49.698002" fill="rgb(12,12,255)"  stroke="rgb(12,12,255)" stroke-width="1" font-size="16" >N</text>
<text x="764.118775" y="100.457901" fill="rgb(12,12,255)"  stroke="rgb(12,12,255)" stroke-width="1" font-size="16" >N</text>
<text x="192.608585" y="56.636468" fill="rgb(255,12,12)"  stroke="rgb(255,12,12)" stroke-width="1" font-size="16" >OH</text>
<text x="246.555621" y="278.533599" fill="rgb(255,12,12)"  stroke="rgb(255,12,12)" stroke-width="1" font-size="16" >O</text>
<text x="24.400000" y="181.018961" fill="rgb(255,12,12)"  stroke="rgb(255,12,12)" stroke-width="1" font-size="16" >HO</text>
<text x="340.878670" y="258.533599" fill="rgb(255,12,12)"  stroke="rgb(255,12,12)" stroke-width="1" font-size="16" >HO</text>
<text x="678.413947" y="63.523228" fill="rgb(255,12,12)"  stroke="rgb(255,12,12)" stroke-width="1" font-size="16" >HO</text>
<text x="459.442734" y="103.892583" fill="rgb(255,12,12)"  stroke="rgb(255,12,12)" stroke-width="1" font-size="16" >HO</text>
<text x="410.160702" y="138.533599" fill="rgb(255,12,12)"  stroke="rgb(255,12,12)" stroke-width="1" font-size="16" >HO</text>
<text x="248.955621" y="395.013599" fill="rgb(255,12,12)"  stroke="rgb(255,12,12)" stroke-width="1" font-size="16" >O</text>
<text x="638.524484" y="65.787120" fill="rgb(255,12,12)"  stroke="rgb(255,12,12)" stroke-width="1" font-size="16" >OH</text>
<text x="573.592100" y="54.025858" fill="rgb(255,12,12)"  stroke="rgb(255,12,12)" stroke-width="1" font-size="16" >HO</text>
<text x="573.830839" y="105.838242" fill="rgb(255,12,12)"  stroke="rgb(255,12,12)" stroke-width="1" font-size="16" >O</text>
<text x="638.324767" y="295.013599" fill="rgb(255,12,12)"  stroke="rgb(255,12,12)" stroke-width="1" font-size="16" >OH</text>
<text x="678.324767" y="258.533599" fill="rgb(255,12,12)"  stroke="rgb(255,12,12)" stroke-width="1" font-size="16" >O</text>
<text x="508.724767" y="255.013599" fill="rgb(255,12,12)"  stroke="rgb(255,12,12)" stroke-width="1" font-size="16" >HO</text>
<text x="558.324767" y="295.013599" fill="rgb(255,12,12)"  stroke="rgb(255,12,12)" stroke-width="1" font-size="16" >O</text>
<text x="640.724767" y="218.533599" fill="rgb(255,12,12)"  stroke="rgb(255,12,12)" stroke-width="1" font-size="16" >O</text>
<text x="558.324767" y="218.533599" fill="rgb(255,12,12)"  stroke="rgb(255,12,12)" stroke-width="1" font-size="16" >O</text>
<text x="712.473316" y="161.270978" fill="rgb(255,12,12)"  stroke="rgb(255,12,12)" stroke-width="1" font-size="16" >O</text>
<text x="629.163223" y="117.599504" fill="rgb(255,12,12)"  stroke="rgb(255,12,12)" stroke-width="1" font-size="16" >O</text>
<text x="598.324767" y="255.013599" fill="rgb(255,12,12)"  stroke="rgb(255,12,12)" stroke-width="1" font-size="16" >O</text>
<text x="604.977661" y="84.052681" fill="rgb(255,127,0)"  stroke="rgb(255,127,0)" stroke-width="1" font-size="16" >P</text>
<text x="638.324767" y="255.013599" fill="rgb(255,127,0)"  stroke="rgb(255,127,0)" stroke-width="1" font-size="16" >P</text>
<text x="558.324767" y="258.533599" fill="rgb(255,127,0)"  stroke="rgb(255,127,0)" stroke-width="1" font-size="16" >P</text>
<text x="315.837654" y="395.013599" fill="rgb(178,178,0)"  stroke="rgb(178,178,0)" stroke-width="1" font-size="16" >S</text>
<text x="125.032573" y="369.654615" fill="rgb(191,191,191)"  stroke="rgb(191,191,191)" stroke-width="1" font-size="16" >H</text>
<text x="301.196637" y="303.892583" fill="rgb(191,191,191)"  stroke="rgb(191,191,191)" stroke-width="1" font-size="16" >H</text>
<text x="92.158839" y="111.083620" fill="rgb(191,191,191)"  stroke="rgb(191,191,191)" stroke-width="1" font-size="16" >H</text>
<text x="155.882681" y="48.320000" fill="rgb(191,191,191)"  stroke="rgb(191,191,191)" stroke-width="1" font-size="16" >H</text>
<text x="107.991557" y="355.013599" fill="rgb(191,191,191)"  stroke="rgb(191,191,191)" stroke-width="1" font-size="16" >H</text>
<text x="80.665764" y="218.684738" fill="rgb(191,191,191)"  stroke="rgb(191,191,191)" stroke-width="1" font-size="16" >H</text>
<text x="178.936218" y="191.379293" fill="rgb(191,191,191)"  stroke="rgb(191,191,191)" stroke-width="1" font-size="16" >H</text>
<text x="48.760680" y="215.541221" fill="rgb(191,191,191)"  stroke="rgb(191,191,191)" stroke-width="1" font-size="16" >H</text>
<text x="636.165349" y="150.575836" fill="rgb(191,191,191)"  stroke="rgb(191,191,191)" stroke-width="1" font-size="16" >H</text>
<text x="67.209436" y="224.941332" fill="rgb(191,191,191)"  stroke="rgb(191,191,191)" stroke-width="1" font-size="16" >H</text>
<text x="727.521481" y="69.780607" fill="rgb(191,191,191)"  stroke="rgb(191,191,191)" stroke-width="1" font-size="16" >H</text>
<text x="647.322843" y="85.479243" fill="rgb(191,191,191)"  stroke="rgb(191,191,191)" stroke-width="1" font-size="16" >H</text>
<text x="509.042734" y="103.892583" fill="rgb(191,191,191)"  stroke="rgb(191,191,191)" stroke-width="1" font-size="16" >H</text>
<text x="767.976154" y="139.965435" fill="rgb(191,191,191)"  stroke="rgb(191,191,191)" stroke-width="1" font-size="16" >H</text>
<text font-size="18.000000" fill ="black" font-family="sans-serif"
x="140.000000" y="20.000000" ></text>
<title> - OBDepict</title>
</svg>
