<?xml version="1.0"?>
<svg xmlns="http://www.w3.org/2000/svg"
xmlns:xlink="http://www.w3.org/1999/xlink" xmlns:cml="http://www.xml-cml.org/schema" width="322.487" height="260" x="0" y="0" font-family="sans-serif" stroke="rgb(0,0,0)" stroke-width="1" >
<line x1="143.9" y1="100.0" x2="143.9" y2="140.0"/>
<line x1="143.9" y1="100.0" x2="178.6" y2="80.0"/>
<line x1="109.3" y1="160.0" x2="143.9" y2="140.0"/>
<line x1="213.2" y1="100.0" x2="178.6" y2="80.0"/>
<line x1="145.4" y1="137.4" x2="171.1" y2="152.2"/>
<line x1="142.4" y1="142.6" x2="168.1" y2="157.4"/>
<line x1="175.6" y1="80.0" x2="175.6" y2="50.4"/>
<line x1="181.6" y1="80.0" x2="181.6" y2="50.4"/>
<line x1="247.8" y1="160.0" x2="282.5" y2="140.0"/>
<line x1="249.4" y1="150.8" x2="273.7" y2="136.8"/>
<line x1="282.5" y1="140.0" x2="282.5" y2="100.0"/>
<line x1="282.5" y1="100.0" x2="247.8" y2="80.0"/>
<line x1="273.7" y1="103.2" x2="249.4" y2="89.2"/>
<line x1="247.8" y1="80.0" x2="213.2" y2="100.0"/>
<line x1="213.2" y1="100.0" x2="213.2" y2="140.0"/>
<line x1="220.4" y1="106.0" x2="220.4" y2="134.0"/>
<line x1="213.2" y1="140.0" x2="247.8" y2="160.0"/>
<line x1="40.0" y1="200.0" x2="40.0" y2="160.0"/>
<line x1="40.0" y1="160.0" x2="74.6" y2="140.0"/>
<line x1="48.8" y1="163.2" x2="73.0" y2="149.2"/>
<line x1="74.6" y1="140.0" x2="109.3" y2="160.0"/>
<line x1="109.3" y1="160.0" x2="109.3" y2="200.0"/>
<line x1="102.1" y1="166.0" x2="102.1" y2="194.0"/>
<line x1="109.3" y1="200.0" x2="74.6" y2="220.0"/>
<line x1="74.6" y1="220.0" x2="40.0" y2="200.0"/>
<line x1="73.0" y1="210.8" x2="48.8" y2="196.8"/>
<text x="172.564065" y="164.800000" fill="rgb(255,12,12)"  stroke="rgb(255,12,12)" stroke-width="1" font-size="16" >O</text>
<text x="172.564065" y="48.320000" fill="rgb(255,12,12)"  stroke="rgb(255,12,12)" stroke-width="1" font-size="16" >O</text>
<text font-size="18.000000" fill ="black" font-family="sans-serif"
x="140.000000" y="20.000000" ></text>
<title> - OBDepict</title>
</svg>
