<?xml version="1.0"?>
<svg xmlns="http://www.w3.org/2000/svg"
xmlns:xlink="http://www.w3.org/1999/xlink" xmlns:cml="http://www.xml-cml.org/schema" width="339.574" height="314.552" x="0" y="0" font-family="sans-serif" stroke="rgb(0,0,0)" stroke-width="1" >
<line x1="48.6" y1="173.3" x2="72.9" y2="173.3"/>
<line x1="89.4" y1="50.5" x2="89.4" y2="69.9"/>
<line x1="88.0" y1="198.8" x2="87.3" y2="199.2"/>
<line x1="86.7" y1="195.7" x2="85.4" y2="196.5"/>
<line x1="85.4" y1="192.7" x2="83.4" y2="193.9"/>
<line x1="84.1" y1="189.6" x2="81.4" y2="191.2"/>
<line x1="82.8" y1="186.6" x2="79.4" y2="188.6"/>
<line x1="81.6" y1="183.5" x2="77.4" y2="185.9"/>
<line x1="80.3" y1="180.5" x2="75.4" y2="183.3"/>
<polygon points="159.413891 201.832101 186.797411 231.892568 192.152825 225.949543 " />
<line x1="124.4" y1="141.1" x2="124.4" y2="100.7"/>
<line x1="122.9" y1="98.1" x2="148.8" y2="83.1"/>
<line x1="125.9" y1="103.3" x2="151.8" y2="88.3"/>
<line x1="124.4" y1="100.7" x2="98.5" y2="85.7"/>
<line x1="97.4" y1="225.2" x2="97.3" y2="224.4"/>
<line x1="101.6" y1="225.2" x2="101.5" y2="223.6"/>
<line x1="105.9" y1="225.2" x2="105.7" y2="222.8"/>
<line x1="110.2" y1="225.1" x2="109.8" y2="221.9"/>
<line x1="114.4" y1="225.1" x2="114.0" y2="221.1"/>
<line x1="118.7" y1="225.0" x2="118.2" y2="220.3"/>
<line x1="123.0" y1="225.0" x2="122.4" y2="219.4"/>
<line x1="159.4" y1="161.4" x2="159.4" y2="201.8"/>
<line x1="159.4" y1="201.8" x2="229.5" y2="201.8"/>
<line x1="229.5" y1="201.8" x2="229.5" y2="161.4"/>
<line x1="229.5" y1="161.4" x2="203.6" y2="146.4"/>
<line x1="185.4" y1="146.4" x2="159.4" y2="161.4"/>
<line x1="124.4" y1="222.1" x2="159.4" y2="201.8"/>
<line x1="159.4" y1="201.8" x2="189.5" y2="228.9"/>
<line x1="189.5" y1="228.9" x2="173.0" y2="265.9"/>
<line x1="173.0" y1="265.9" x2="143.2" y2="262.7"/>
<line x1="130.6" y1="251.3" x2="124.4" y2="222.1"/>
<line x1="299.6" y1="201.9" x2="299.6" y2="161.4"/>
<line x1="292.4" y1="195.9" x2="292.4" y2="167.4"/>
<line x1="299.6" y1="161.4" x2="264.6" y2="141.2"/>
<line x1="264.6" y1="141.2" x2="229.5" y2="161.4"/>
<line x1="263.0" y1="150.4" x2="238.3" y2="164.6"/>
<line x1="229.5" y1="201.8" x2="264.5" y2="222.1"/>
<line x1="238.3" y1="198.6" x2="262.9" y2="212.8"/>
<line x1="264.5" y1="222.1" x2="299.6" y2="201.9"/>
<line x1="73.5" y1="259.0" x2="67.7" y2="226.6"/>
<line x1="79.6" y1="251.8" x2="75.8" y2="231.2"/>
<line x1="67.7" y1="226.6" x2="89.3" y2="201.8"/>
<line x1="89.3" y1="201.8" x2="124.4" y2="222.1"/>
<line x1="124.9" y1="265.0" x2="102.5" y2="274.6"/>
<line x1="102.5" y1="274.6" x2="73.5" y2="259.0"/>
<line x1="89.3" y1="161.3" x2="124.4" y2="141.1"/>
<line x1="124.4" y1="141.1" x2="159.4" y2="161.4"/>
<line x1="126.0" y1="150.4" x2="150.6" y2="164.6"/>
<line x1="89.3" y1="201.8" x2="89.3" y2="161.3"/>
<text x="16.400000" y="181.639795" fill="rgb(102,102,102)"  stroke="rgb(102,102,102)" stroke-width="1" font-size="16" >H</text>
<text x="28.400000" y="189.319795" fill="rgb(102,102,102)"  stroke="rgb(102,102,102)" stroke-width="1" font-size="13" >3</text>
<text x="34.900000" y="181.639795" fill="rgb(102,102,102)"  stroke="rgb(102,102,102)" stroke-width="1" font-size="16" >C</text>
<text x="83.368888" y="48.320000" fill="rgb(102,102,102)"  stroke="rgb(102,102,102)" stroke-width="1" font-size="16" >CH</text>
<text x="107.368888" y="56.000000" fill="rgb(102,102,102)"  stroke="rgb(102,102,102)" stroke-width="1" font-size="13" >3</text>
<text x="188.474513" y="149.460169" fill="rgb(12,12,255)"  stroke="rgb(12,12,255)" stroke-width="1" font-size="16" >NH</text>
<text x="129.158890" y="266.436051" fill="rgb(12,12,255)"  stroke="rgb(12,12,255)" stroke-width="1" font-size="16" >N</text>
<text x="153.418277" y="88.781649" fill="rgb(255,12,12)"  stroke="rgb(255,12,12)" stroke-width="1" font-size="16" >O</text>
<text x="85.760827" y="85.247688" fill="rgb(255,12,12)"  stroke="rgb(255,12,12)" stroke-width="1" font-size="16" >O</text>
<text x="78.548435" y="231.194044" fill="rgb(191,191,191)"  stroke="rgb(191,191,191)" stroke-width="1" font-size="16" >H</text>
<text font-size="18.000000" fill ="black" font-family="sans-serif"
x="140.000000" y="20.000000" ></text>
<title> - OBDepict</title>
</svg>
