<?xml version="1.0"?>
<svg xmlns="http://www.w3.org/2000/svg"
xmlns:xlink="http://www.w3.org/1999/xlink" xmlns:cml="http://www.xml-cml.org/schema" width="599.615" height="367.846" x="0" y="0" font-family="sans-serif" stroke="rgb(0,0,0)" stroke-width="1" >
<line x1="559.6" y1="264.2" x2="559.6" y2="234.6"/>
<line x1="559.6" y1="234.6" x2="525.0" y2="214.6"/>
<line x1="525.0" y1="214.6" x2="525.0" y2="174.6"/>
<line x1="525.0" y1="174.6" x2="490.3" y2="154.6"/>
<line x1="490.3" y1="154.6" x2="490.3" y2="114.6"/>
<line x1="490.3" y1="114.6" x2="516.0" y2="99.8"/>
<line x1="488.8" y1="117.2" x2="454.2" y2="97.2"/>
<line x1="491.8" y1="112.0" x2="457.2" y2="92.0"/>
<line x1="455.7" y1="94.6" x2="455.7" y2="65.0"/>
<line x1="455.7" y1="94.6" x2="421.1" y2="114.6"/>
<line x1="421.1" y1="114.6" x2="421.1" y2="154.6"/>
<line x1="421.1" y1="154.6" x2="446.7" y2="169.4"/>
<line x1="422.6" y1="157.2" x2="387.9" y2="177.2"/>
<line x1="419.6" y1="152.0" x2="384.9" y2="172.0"/>
<line x1="386.4" y1="174.6" x2="386.4" y2="204.2"/>
<line x1="386.4" y1="174.6" x2="351.8" y2="154.6"/>
<line x1="351.8" y1="154.6" x2="351.8" y2="125.0"/>
<line x1="353.3" y1="157.2" x2="318.6" y2="177.2"/>
<line x1="350.3" y1="152.0" x2="315.6" y2="172.0"/>
<line x1="317.1" y1="174.6" x2="317.1" y2="204.2"/>
<line x1="317.1" y1="174.6" x2="282.5" y2="154.6"/>
<line x1="282.5" y1="154.6" x2="282.5" y2="125.0"/>
<line x1="284.0" y1="157.2" x2="249.3" y2="177.2"/>
<line x1="281.0" y1="152.0" x2="246.3" y2="172.0"/>
<line x1="193.2" y1="258.6" x2="213.2" y2="223.9"/>
<line x1="193.2" y1="258.6" x2="153.2" y2="258.6"/>
<line x1="213.2" y1="223.9" x2="193.2" y2="189.3"/>
<line x1="247.8" y1="174.6" x2="247.8" y2="204.2"/>
<line x1="247.8" y1="174.6" x2="213.2" y2="154.6"/>
<line x1="153.2" y1="258.6" x2="133.2" y2="293.2"/>
<line x1="74.6" y1="154.6" x2="74.6" y2="194.6"/>
<line x1="74.6" y1="154.6" x2="100.3" y2="139.8"/>
<line x1="178.6" y1="94.6" x2="143.9" y2="74.6"/>
<line x1="178.6" y1="94.6" x2="178.6" y2="124.2"/>
<line x1="130.8" y1="52.7" x2="131.5" y2="52.3"/>
<line x1="132.4" y1="56.3" x2="133.8" y2="55.5"/>
<line x1="134.1" y1="60.0" x2="136.2" y2="58.8"/>
<line x1="135.7" y1="63.7" x2="138.5" y2="62.1"/>
<line x1="137.4" y1="67.3" x2="140.9" y2="65.3"/>
<line x1="139.0" y1="71.0" x2="143.2" y2="68.6"/>
<line x1="140.7" y1="74.7" x2="145.5" y2="71.9"/>
<line x1="143.9" y1="74.6" x2="109.3" y2="94.6"/>
<line x1="143.9" y1="74.6" x2="158.7" y2="49.0"/>
<polygon points="169.995600 202.682032 195.205081 192.746134 191.205081 185.817931 " />
<line x1="193.2" y1="189.3" x2="213.2" y2="154.6"/>
<line x1="193.2" y1="189.3" x2="167.6" y2="174.5"/>
<polygon points="226.605081 131.431535 209.740979 152.641016 216.669182 156.641016 " />
<line x1="213.2" y1="154.6" x2="187.6" y2="139.8"/>
<line x1="133.2" y1="296.2" x2="103.6" y2="296.2"/>
<line x1="133.2" y1="290.2" x2="103.6" y2="290.2"/>
<line x1="133.2" y1="293.2" x2="148.0" y2="318.8"/>
<line x1="76.1" y1="192.0" x2="101.8" y2="206.8"/>
<line x1="73.1" y1="197.2" x2="98.8" y2="212.0"/>
<line x1="74.6" y1="194.6" x2="49.0" y2="209.4"/>
<line x1="112.3" y1="94.6" x2="112.3" y2="124.2"/>
<line x1="106.3" y1="94.6" x2="106.3" y2="124.2"/>
<line x1="109.3" y1="94.6" x2="83.6" y2="79.8"/>
<text x="553.615242" y="279.441016" fill="rgb(102,102,102)"  stroke="rgb(102,102,102)" stroke-width="1" font-size="16" >CH</text>
<text x="577.615242" y="284.241016" fill="rgb(102,102,102)"  stroke="rgb(102,102,102)" stroke-width="1" font-size="13" >3</text>
<text x="157.923048" y="48.320000" fill="rgb(12,12,255)"  stroke="rgb(12,12,255)" stroke-width="1" font-size="16" >NH</text>
<text x="181.923048" y="56.000000" fill="rgb(12,12,255)"  stroke="rgb(12,12,255)" stroke-width="1" font-size="13" >2</text>
<text x="103.282032" y="139.441016" fill="rgb(12,12,255)"  stroke="rgb(12,12,255)" stroke-width="1" font-size="16" >N</text>
<text x="142.964065" y="177.602032" fill="rgb(255,12,12)"  stroke="rgb(255,12,12)" stroke-width="1" font-size="16" >HO</text>
<text x="89.605081" y="298.005081" fill="rgb(255,12,12)"  stroke="rgb(255,12,12)" stroke-width="1" font-size="16" >O</text>
<text x="147.205081" y="332.646097" fill="rgb(255,12,12)"  stroke="rgb(255,12,12)" stroke-width="1" font-size="16" >OH</text>
<text x="103.282032" y="219.441016" fill="rgb(255,12,12)"  stroke="rgb(255,12,12)" stroke-width="1" font-size="16" >O</text>
<text x="24.400000" y="219.441016" fill="rgb(255,12,12)"  stroke="rgb(255,12,12)" stroke-width="1" font-size="16" >HO</text>
<text x="59.041016" y="82.961016" fill="rgb(255,12,12)"  stroke="rgb(255,12,12)" stroke-width="1" font-size="16" >HO</text>
<text x="174.964065" y="139.441016" fill="rgb(178,178,0)"  stroke="rgb(178,178,0)" stroke-width="1" font-size="16" >S</text>
<text x="518.974226" y="102.961016" fill="rgb(191,191,191)"  stroke="rgb(191,191,191)" stroke-width="1" font-size="16" >H</text>
<text x="449.692194" y="62.961016" fill="rgb(191,191,191)"  stroke="rgb(191,191,191)" stroke-width="1" font-size="16" >H</text>
<text x="449.692194" y="179.441016" fill="rgb(191,191,191)"  stroke="rgb(191,191,191)" stroke-width="1" font-size="16" >H</text>
<text x="380.410162" y="219.441016" fill="rgb(191,191,191)"  stroke="rgb(191,191,191)" stroke-width="1" font-size="16" >H</text>
<text x="345.769145" y="122.961016" fill="rgb(191,191,191)"  stroke="rgb(191,191,191)" stroke-width="1" font-size="16" >H</text>
<text x="311.128129" y="219.441016" fill="rgb(191,191,191)"  stroke="rgb(191,191,191)" stroke-width="1" font-size="16" >H</text>
<text x="276.487113" y="122.961016" fill="rgb(191,191,191)"  stroke="rgb(191,191,191)" stroke-width="1" font-size="16" >H</text>
<text x="241.846097" y="219.441016" fill="rgb(191,191,191)"  stroke="rgb(191,191,191)" stroke-width="1" font-size="16" >H</text>
<text x="120.323048" y="48.320000" fill="rgb(191,191,191)"  stroke="rgb(191,191,191)" stroke-width="1" font-size="16" >H</text>
<text x="154.964065" y="214.082032" fill="rgb(191,191,191)"  stroke="rgb(191,191,191)" stroke-width="1" font-size="16" >H</text>
<text x="227.205081" y="128.320000" fill="rgb(191,191,191)"  stroke="rgb(191,191,191)" stroke-width="1" font-size="16" >H</text>
<text font-size="18.000000" fill ="black" font-family="sans-serif"
x="140.000000" y="20.000000" ></text>
<title> - OBDepict</title>
</svg>
