<?xml version="1.0"?>
<svg xmlns="http://www.w3.org/2000/svg"
xmlns:xlink="http://www.w3.org/1999/xlink" xmlns:cml="http://www.xml-cml.org/schema" width="229.282" height="325.193" x="0" y="0" font-family="sans-serif" stroke="rgb(0,0,0)" stroke-width="1" >
<line x1="50.4" y1="50.0" x2="58.1" y2="78.6"/>
<polygon points="96.709507 88.989795 107.509560 64.138259 99.782154 62.067707 " />
<line x1="58.1" y1="78.6" x2="96.7" y2="89.0"/>
<line x1="169.3" y1="250.6" x2="149.3" y2="215.9"/>
<line x1="169.3" y1="250.6" x2="154.5" y2="276.2"/>
<line x1="135.3" y1="99.3" x2="96.7" y2="89.0"/>
<line x1="135.3" y1="99.3" x2="163.9" y2="107.0"/>
<line x1="136.4" y1="95.3" x2="165.0" y2="102.9"/>
<line x1="134.3" y1="103.4" x2="162.9" y2="111.1"/>
<polygon points="176.082032 215.911099 149.282032 211.911099 149.282032 219.911099 " />
<line x1="127.8" y1="257.9" x2="127.1" y2="258.3"/>
<line x1="126.1" y1="254.2" x2="124.7" y2="255.0"/>
<line x1="124.5" y1="250.6" x2="122.4" y2="251.8"/>
<line x1="122.8" y1="246.9" x2="120.1" y2="248.5"/>
<line x1="121.2" y1="243.2" x2="117.7" y2="245.2"/>
<line x1="119.5" y1="239.6" x2="115.4" y2="242.0"/>
<line x1="117.9" y1="235.9" x2="113.0" y2="238.7"/>
<line x1="114.6" y1="235.9" x2="99.8" y2="261.5"/>
<polygon points="66.600000 239.120580 83.464102 217.911099 76.535898 213.911099 " />
<line x1="80.0" y1="215.9" x2="50.4" y2="215.9"/>
<line x1="54.4" y1="176.3" x2="54.4" y2="175.5"/>
<line x1="58.4" y1="176.7" x2="58.4" y2="175.1"/>
<line x1="62.4" y1="177.1" x2="62.4" y2="174.7"/>
<line x1="66.4" y1="177.5" x2="66.4" y2="174.3"/>
<line x1="70.4" y1="177.9" x2="70.4" y2="173.9"/>
<line x1="74.4" y1="178.3" x2="74.4" y2="173.5"/>
<line x1="78.4" y1="178.7" x2="78.4" y2="173.1"/>
<line x1="80.0" y1="175.9" x2="65.2" y2="150.3"/>
<polygon points="139.400988 145.655183 113.110282 152.215581 116.171750 159.606617 " />
<line x1="114.6" y1="155.9" x2="93.7" y2="135.0"/>
<line x1="96.7" y1="89.0" x2="89.0" y2="117.6"/>
<line x1="80.0" y1="215.9" x2="80.0" y2="175.9"/>
<line x1="80.0" y1="175.9" x2="114.6" y2="155.9"/>
<line x1="114.6" y1="155.9" x2="140.3" y2="170.7"/>
<line x1="149.3" y1="186.3" x2="149.3" y2="215.9"/>
<line x1="149.3" y1="215.9" x2="114.6" y2="235.9"/>
<line x1="114.6" y1="235.9" x2="80.0" y2="215.9"/>
<text x="24.119712" y="48.320000" fill="rgb(102,102,102)"  stroke="rgb(102,102,102)" stroke-width="1" font-size="16" >H</text>
<text x="36.119712" y="56.000000" fill="rgb(102,102,102)"  stroke="rgb(102,102,102)" stroke-width="1" font-size="13" >3</text>
<text x="42.619712" y="48.320000" fill="rgb(102,102,102)"  stroke="rgb(102,102,102)" stroke-width="1" font-size="16" >C</text>
<text x="101.062269" y="58.672762" fill="rgb(102,102,102)"  stroke="rgb(102,102,102)" stroke-width="1" font-size="16" >CH</text>
<text x="125.062269" y="66.352762" fill="rgb(102,102,102)"  stroke="rgb(102,102,102)" stroke-width="1" font-size="13" >3</text>
<text x="167.983573" y="114.495318" fill="rgb(12,12,255)"  stroke="rgb(12,12,255)" stroke-width="1" font-size="16" >N</text>
<text x="133.682032" y="289.993131" fill="rgb(255,12,12)"  stroke="rgb(255,12,12)" stroke-width="1" font-size="16" >HO</text>
<text x="79.041016" y="275.352115" fill="rgb(255,12,12)"  stroke="rgb(255,12,12)" stroke-width="1" font-size="16" >HO</text>
<text x="24.400000" y="220.711099" fill="rgb(255,12,12)"  stroke="rgb(255,12,12)" stroke-width="1" font-size="16" >HO</text>
<text x="44.400000" y="149.590083" fill="rgb(255,12,12)"  stroke="rgb(255,12,12)" stroke-width="1" font-size="16" >HO</text>
<text x="143.282032" y="184.231099" fill="rgb(255,12,12)"  stroke="rgb(255,12,12)" stroke-width="1" font-size="16" >O</text>
<text x="82.756745" y="132.426828" fill="rgb(255,12,12)"  stroke="rgb(255,12,12)" stroke-width="1" font-size="16" >O</text>
<text x="183.282032" y="220.711099" fill="rgb(191,191,191)"  stroke="rgb(191,191,191)" stroke-width="1" font-size="16" >H</text>
<text x="128.641016" y="275.352115" fill="rgb(191,191,191)"  stroke="rgb(191,191,191)" stroke-width="1" font-size="16" >H</text>
<text x="56.400000" y="255.352115" fill="rgb(191,191,191)"  stroke="rgb(191,191,191)" stroke-width="1" font-size="16" >H</text>
<text x="36.400000" y="180.711099" fill="rgb(191,191,191)"  stroke="rgb(191,191,191)" stroke-width="1" font-size="16" >H</text>
<text x="145.596197" y="148.923762" fill="rgb(191,191,191)"  stroke="rgb(191,191,191)" stroke-width="1" font-size="16" >H</text>
<text font-size="18.000000" fill ="black" font-family="sans-serif"
x="140.000000" y="20.000000" ></text>
<title> - OBDepict</title>
</svg>
