<?xml version="1.0"?>
<svg xmlns="http://www.w3.org/2000/svg"
xmlns:xlink="http://www.w3.org/1999/xlink" xmlns:cml="http://www.xml-cml.org/schema" width="217.013" height="197.711" x="0" y="0" font-family="sans-serif" stroke="rgb(0,0,0)" stroke-width="1" >
<line x1="65.7" y1="103.4" x2="91.3" y2="118.2"/>
<line x1="65.7" y1="133.0" x2="91.3" y2="118.2"/>
<line x1="114.9" y1="50.2" x2="108.5" y2="79.1"/>
<line x1="76.1" y1="140.3" x2="50.5" y2="155.1"/>
<line x1="73.1" y1="135.1" x2="47.5" y2="149.9"/>
<line x1="140.9" y1="96.0" x2="166.5" y2="81.2"/>
<line x1="143.9" y1="101.2" x2="169.5" y2="86.4"/>
<line x1="108.5" y1="157.3" x2="142.4" y2="137.7"/>
<line x1="142.4" y1="137.7" x2="142.4" y2="98.6"/>
<line x1="142.4" y1="98.6" x2="108.5" y2="79.1"/>
<line x1="108.5" y1="79.1" x2="91.3" y2="118.2"/>
<line x1="91.3" y1="118.2" x2="108.5" y2="157.3"/>
<line x1="108.5" y1="79.1" x2="74.6" y2="98.6"/>
<line x1="74.6" y1="98.6" x2="74.6" y2="137.7"/>
<line x1="74.6" y1="137.7" x2="108.5" y2="157.3"/>
<text x="33.103892" y="106.477516" fill="rgb(102,102,102)"  stroke="rgb(102,102,102)" stroke-width="1" font-size="16" >H</text>
<text x="45.103892" y="114.157516" fill="rgb(102,102,102)"  stroke="rgb(102,102,102)" stroke-width="1" font-size="13" >3</text>
<text x="51.603892" y="106.477516" fill="rgb(102,102,102)"  stroke="rgb(102,102,102)" stroke-width="1" font-size="16" >C</text>
<text x="33.095288" y="142.957515" fill="rgb(102,102,102)"  stroke="rgb(102,102,102)" stroke-width="1" font-size="16" >H</text>
<text x="45.095288" y="147.757515" fill="rgb(102,102,102)"  stroke="rgb(102,102,102)" stroke-width="1" font-size="13" >3</text>
<text x="51.595288" y="142.957515" fill="rgb(102,102,102)"  stroke="rgb(102,102,102)" stroke-width="1" font-size="16" >C</text>
<text x="111.082382" y="48.320000" fill="rgb(102,102,102)"  stroke="rgb(102,102,102)" stroke-width="1" font-size="16" >CH</text>
<text x="135.082382" y="56.000000" fill="rgb(102,102,102)"  stroke="rgb(102,102,102)" stroke-width="1" font-size="13" >3</text>
<text x="36.400000" y="162.511441" fill="rgb(255,12,12)"  stroke="rgb(255,12,12)" stroke-width="1" font-size="16" >O</text>
<text x="171.013439" y="86.945877" fill="rgb(255,12,12)"  stroke="rgb(255,12,12)" stroke-width="1" font-size="16" >O</text>
<text font-size="18.000000" fill ="black" font-family="sans-serif"
x="140.000000" y="20.000000" ></text>
<title> - OBDepict</title>
</svg>
