<?xml version="1.0"?>
<svg xmlns="http://www.w3.org/2000/svg"
xmlns:xlink="http://www.w3.org/1999/xlink" xmlns:cml="http://www.xml-cml.org/schema" width="347.262" height="315.911" x="0" y="0" font-family="sans-serif" stroke="rgb(0,0,0)" stroke-width="1" >
<line x1="281.3" y1="190.2" x2="260.4" y2="211.1"/>
<line x1="277.1" y1="185.9" x2="256.2" y2="206.9"/>
<line x1="258.3" y1="209.0" x2="268.6" y2="247.6"/>
<line x1="258.3" y1="209.0" x2="229.7" y2="201.3"/>
<line x1="174.6" y1="100.0" x2="174.6" y2="60.0"/>
<line x1="229.3" y1="144.1" x2="229.8" y2="144.7"/>
<line x1="225.9" y1="146.2" x2="226.9" y2="147.5"/>
<line x1="222.5" y1="148.3" x2="224.0" y2="150.2"/>
<line x1="219.1" y1="150.5" x2="221.0" y2="153.0"/>
<line x1="215.7" y1="152.6" x2="218.1" y2="155.7"/>
<line x1="212.3" y1="154.7" x2="215.2" y2="158.5"/>
<line x1="208.8" y1="156.8" x2="212.3" y2="161.2"/>
<line x1="209.3" y1="160.0" x2="216.9" y2="188.6"/>
<polygon points="113.200000 160.000000 140.000000 164.000000 140.000000 156.000000 " />
<line x1="140.0" y1="160.0" x2="125.2" y2="185.6"/>
<polygon points="161.241016 203.209481 178.105118 182.000000 171.176915 178.000000 " />
<line x1="174.6" y1="180.0" x2="189.4" y2="205.6"/>
<line x1="269.4" y1="244.7" x2="298.0" y2="252.4"/>
<line x1="267.8" y1="250.5" x2="296.4" y2="258.2"/>
<line x1="268.6" y1="247.6" x2="247.7" y2="268.6"/>
<line x1="173.1" y1="62.6" x2="147.5" y2="47.8"/>
<line x1="176.1" y1="57.4" x2="150.5" y2="42.6"/>
<line x1="174.6" y1="60.0" x2="200.3" y2="45.2"/>
<line x1="80.0" y1="224.2" x2="80.0" y2="205.0"/>
<line x1="50.4" y1="194.6" x2="69.6" y2="194.6"/>
<line x1="83.0" y1="165.0" x2="83.0" y2="184.2"/>
<line x1="77.0" y1="165.0" x2="77.0" y2="184.2"/>
<line x1="109.6" y1="194.6" x2="90.4" y2="194.6"/>
<line x1="209.3" y1="120.0" x2="174.6" y2="100.0"/>
<line x1="174.6" y1="100.0" x2="140.0" y2="120.0"/>
<line x1="173.0" y1="109.2" x2="148.8" y2="123.2"/>
<line x1="140.0" y1="120.0" x2="140.0" y2="160.0"/>
<line x1="140.0" y1="160.0" x2="174.6" y2="180.0"/>
<line x1="174.6" y1="180.0" x2="209.3" y2="160.0"/>
<line x1="209.3" y1="160.0" x2="209.3" y2="120.0"/>
<text x="280.556098" y="189.025524" fill="rgb(102,102,102)"  stroke="rgb(102,102,102)" stroke-width="1" font-size="16" >CH</text>
<text x="304.556098" y="196.705524" fill="rgb(102,102,102)"  stroke="rgb(102,102,102)" stroke-width="1" font-size="13" >2</text>
<text x="188.641016" y="219.441016" fill="rgb(255,12,12)"  stroke="rgb(255,12,12)" stroke-width="1" font-size="16" >OH</text>
<text x="301.261622" y="262.779590" fill="rgb(255,12,12)"  stroke="rgb(255,12,12)" stroke-width="1" font-size="16" >O</text>
<text x="235.540318" y="295.111099" fill="rgb(255,12,12)"  stroke="rgb(255,12,12)" stroke-width="1" font-size="32" >-</text>
<text x="236.740318" y="280.711099" fill="rgb(255,12,12)"  stroke="rgb(255,12,12)" stroke-width="1" font-size="16" >O</text>
<text x="136.400000" y="48.320000" fill="rgb(255,12,12)"  stroke="rgb(255,12,12)" stroke-width="1" font-size="16" >O</text>
<text x="204.482032" y="33.600000" fill="rgb(255,12,12)"  stroke="rgb(255,12,12)" stroke-width="1" font-size="32" >-</text>
<text x="203.282032" y="48.320000" fill="rgb(255,12,12)"  stroke="rgb(255,12,12)" stroke-width="1" font-size="16" >O</text>
<text x="75.200000" y="253.841016" fill="rgb(255,12,12)"  stroke="rgb(255,12,12)" stroke-width="1" font-size="32" >-</text>
<text x="74.000000" y="239.441016" fill="rgb(255,12,12)"  stroke="rgb(255,12,12)" stroke-width="1" font-size="16" >O</text>
<text x="35.200000" y="213.841016" fill="rgb(255,12,12)"  stroke="rgb(255,12,12)" stroke-width="1" font-size="32" >-</text>
<text x="36.400000" y="199.441016" fill="rgb(255,12,12)"  stroke="rgb(255,12,12)" stroke-width="1" font-size="16" >O</text>
<text x="74.000000" y="162.961016" fill="rgb(255,12,12)"  stroke="rgb(255,12,12)" stroke-width="1" font-size="16" >O</text>
<text x="216.034794" y="203.437033" fill="rgb(255,12,12)"  stroke="rgb(255,12,12)" stroke-width="1" font-size="16" >O</text>
<text x="114.000000" y="199.441016" fill="rgb(255,12,12)"  stroke="rgb(255,12,12)" stroke-width="1" font-size="16" >O</text>
<text x="74.000000" y="202.961016" fill="rgb(255,127,0)"  stroke="rgb(255,127,0)" stroke-width="1" font-size="16" >P</text>
<text x="235.016166" y="143.969543" fill="rgb(191,191,191)"  stroke="rgb(191,191,191)" stroke-width="1" font-size="16" >H</text>
<text x="96.400000" y="164.800000" fill="rgb(191,191,191)"  stroke="rgb(191,191,191)" stroke-width="1" font-size="16" >H</text>
<text x="151.041016" y="219.441016" fill="rgb(191,191,191)"  stroke="rgb(191,191,191)" stroke-width="1" font-size="16" >H</text>
<text font-size="18.000000" fill ="black" font-family="sans-serif"
x="140.000000" y="20.000000" ></text>
<title> - OBDepict</title>
</svg>
