<?xml version="1.0"?>
<svg xmlns="http://www.w3.org/2000/svg"
xmlns:xlink="http://www.w3.org/1999/xlink" xmlns:cml="http://www.xml-cml.org/schema" width="289.282" height="249.282" x="0" y="0" font-family="sans-serif" stroke="rgb(0,0,0)" stroke-width="1" >
<polygon points="236.082 154.641 209.282 150.641 209.282 158.641 " />
<line x1="209.3" y1="154.6" x2="224.1" y2="180.3"/>
<line x1="187.8" y1="196.6" x2="187.1" y2="197.0"/>
<line x1="186.1" y1="192.9" x2="184.7" y2="193.7"/>
<line x1="184.5" y1="189.3" x2="182.4" y2="190.5"/>
<line x1="182.8" y1="185.6" x2="180.1" y2="187.2"/>
<line x1="181.2" y1="182.0" x2="177.7" y2="184.0"/>
<line x1="179.5" y1="178.3" x2="175.4" y2="180.7"/>
<line x1="177.9" y1="174.6" x2="173.0" y2="177.4"/>
<line x1="174.6" y1="174.6" x2="159.8" y2="200.3"/>
<line x1="221.7" y1="92.3" x2="222.4" y2="92.7"/>
<line x1="219.4" y1="95.5" x2="220.8" y2="96.3"/>
<line x1="217.0" y1="98.8" x2="219.1" y2="100.0"/>
<line x1="214.7" y1="102.1" x2="217.5" y2="103.7"/>
<line x1="212.3" y1="105.3" x2="215.8" y2="107.3"/>
<line x1="210.0" y1="108.6" x2="214.2" y2="111.0"/>
<line x1="207.7" y1="111.9" x2="212.5" y2="114.7"/>
<line x1="209.3" y1="114.6" x2="238.9" y2="114.6"/>
<line x1="127.5" y1="177.0" x2="126.9" y2="176.6"/>
<line x1="129.9" y1="173.7" x2="128.5" y2="172.9"/>
<line x1="132.2" y1="170.5" x2="130.2" y2="169.3"/>
<line x1="134.6" y1="167.2" x2="131.8" y2="165.6"/>
<line x1="136.9" y1="164.0" x2="133.5" y2="162.0"/>
<line x1="139.3" y1="160.7" x2="135.1" y2="158.3"/>
<line x1="141.6" y1="157.4" x2="136.8" y2="154.6"/>
<line x1="140.0" y1="154.6" x2="110.4" y2="154.6"/>
<polygon points="161.241016 71.431535 171.176915 96.641016 178.105118 92.641016 " />
<line x1="174.6" y1="94.6" x2="189.4" y2="69.0"/>
<line x1="114.4" y1="115.0" x2="114.4" y2="114.2"/>
<line x1="118.4" y1="115.4" x2="118.4" y2="113.8"/>
<line x1="122.4" y1="115.8" x2="122.4" y2="113.4"/>
<line x1="126.4" y1="116.2" x2="126.4" y2="113.0"/>
<line x1="130.4" y1="116.6" x2="130.4" y2="112.6"/>
<line x1="134.4" y1="117.0" x2="134.4" y2="112.2"/>
<line x1="138.4" y1="117.4" x2="138.4" y2="111.8"/>
<line x1="140.0" y1="114.6" x2="125.2" y2="89.0"/>
<line x1="80.0" y1="50.4" x2="80.0" y2="69.6"/>
<line x1="50.4" y1="80.0" x2="69.6" y2="80.0"/>
<line x1="77.0" y1="109.6" x2="77.0" y2="90.4"/>
<line x1="83.0" y1="109.6" x2="83.0" y2="90.4"/>
<line x1="109.6" y1="80.0" x2="90.4" y2="80.0"/>
<line x1="209.3" y1="154.6" x2="209.3" y2="114.6"/>
<line x1="209.3" y1="114.6" x2="174.6" y2="94.6"/>
<line x1="174.6" y1="94.6" x2="140.0" y2="114.6"/>
<line x1="140.0" y1="114.6" x2="140.0" y2="154.6"/>
<line x1="140.0" y1="154.6" x2="174.6" y2="174.6"/>
<line x1="174.6" y1="174.6" x2="209.3" y2="154.6"/>
<text x="223.282032" y="194.082032" fill="rgb(255,12,12)"  stroke="rgb(255,12,12)" stroke-width="1" font-size="16" >OH</text>
<text x="139.041016" y="214.082032" fill="rgb(255,12,12)"  stroke="rgb(255,12,12)" stroke-width="1" font-size="16" >HO</text>
<text x="243.282032" y="122.961016" fill="rgb(255,12,12)"  stroke="rgb(255,12,12)" stroke-width="1" font-size="16" >OH</text>
<text x="84.400000" y="159.441016" fill="rgb(255,12,12)"  stroke="rgb(255,12,12)" stroke-width="1" font-size="16" >HO</text>
<text x="188.641016" y="68.320000" fill="rgb(255,12,12)"  stroke="rgb(255,12,12)" stroke-width="1" font-size="16" >OH</text>
<text x="74.000000" y="48.320000" fill="rgb(255,12,12)"  stroke="rgb(255,12,12)" stroke-width="1" font-size="16" >OH</text>
<text x="24.400000" y="84.800000" fill="rgb(255,12,12)"  stroke="rgb(255,12,12)" stroke-width="1" font-size="16" >HO</text>
<text x="74.000000" y="124.800000" fill="rgb(255,12,12)"  stroke="rgb(255,12,12)" stroke-width="1" font-size="16" >O</text>
<text x="114.000000" y="88.320000" fill="rgb(255,12,12)"  stroke="rgb(255,12,12)" stroke-width="1" font-size="16" >O</text>
<text x="74.000000" y="88.320000" fill="rgb(255,127,0)"  stroke="rgb(255,127,0)" stroke-width="1" font-size="16" >P</text>
<text x="243.282032" y="159.441016" fill="rgb(191,191,191)"  stroke="rgb(191,191,191)" stroke-width="1" font-size="16" >H</text>
<text x="188.641016" y="214.082032" fill="rgb(191,191,191)"  stroke="rgb(191,191,191)" stroke-width="1" font-size="16" >H</text>
<text x="223.282032" y="88.320000" fill="rgb(191,191,191)"  stroke="rgb(191,191,191)" stroke-width="1" font-size="16" >H</text>
<text x="116.400000" y="194.082032" fill="rgb(191,191,191)"  stroke="rgb(191,191,191)" stroke-width="1" font-size="16" >H</text>
<text x="151.041016" y="68.320000" fill="rgb(191,191,191)"  stroke="rgb(191,191,191)" stroke-width="1" font-size="16" >H</text>
<text x="96.400000" y="119.441016" fill="rgb(191,191,191)"  stroke="rgb(191,191,191)" stroke-width="1" font-size="16" >H</text>
<text font-size="18.000000" fill ="black" font-family="sans-serif"
x="140.000000" y="20.000000" ></text>
<title> - OBDepict</title>
</svg>
