<?xml version="1.0"?>
<svg xmlns="http://www.w3.org/2000/svg"
xmlns:xlink="http://www.w3.org/1999/xlink" xmlns:cml="http://www.xml-cml.org/schema" width="396.631" height="383.001" x="0" y="0" font-family="sans-serif" stroke="rgb(0,0,0)" stroke-width="1" >
<line x1="68.6" y1="333.2" x2="71.1" y2="305.1"/>
<line x1="96.6" y1="293.3" x2="71.1" y2="305.1"/>
<line x1="69.5" y1="165.9" x2="81.3" y2="191.5"/>
<polygon points="251.341500 115.427805 255.868250 141.702396 263.459088 139.176692 " />
<polygon points="152.352859 172.481932 148.324253 225.199601 156.324252 225.203942 " />
<line x1="43.4" y1="245.3" x2="40.0" y2="283.2"/>
<line x1="43.4" y1="245.3" x2="77.9" y2="229.3"/>
<line x1="40.0" y1="283.2" x2="71.1" y2="305.1"/>
<line x1="77.9" y1="229.3" x2="81.3" y2="191.5"/>
<line x1="57.0" y1="189.7" x2="57.1" y2="188.9"/>
<line x1="60.8" y1="190.4" x2="60.9" y2="188.8"/>
<line x1="64.5" y1="191.2" x2="64.8" y2="188.8"/>
<line x1="68.3" y1="191.9" x2="68.6" y2="188.7"/>
<line x1="72.0" y1="192.6" x2="72.4" y2="188.7"/>
<line x1="75.8" y1="193.4" x2="76.2" y2="188.6"/>
<line x1="79.6" y1="194.1" x2="80.1" y2="188.5"/>
<line x1="81.3" y1="191.5" x2="119.4" y2="191.5"/>
<polygon points="259.711487 52.314759 247.568133 76.050482 255.156226 78.584422 " />
<polygon points="343.647697 77.332336 317.284612 73.353225 317.290951 81.353222 " />
<line x1="317.3" y1="77.4" x2="331.8" y2="52.1"/>
<line x1="119.7" y1="216.7" x2="118.9" y2="216.7"/>
<line x1="120.1" y1="212.7" x2="118.5" y2="212.7"/>
<line x1="120.5" y1="208.8" x2="118.1" y2="208.8"/>
<line x1="120.9" y1="204.9" x2="117.7" y2="204.9"/>
<line x1="121.3" y1="200.9" x2="117.3" y2="200.9"/>
<line x1="121.7" y1="197.0" x2="116.9" y2="197.0"/>
<line x1="122.2" y1="193.1" x2="116.6" y2="193.1"/>
<line x1="174.0" y1="121.4" x2="174.4" y2="122.1"/>
<line x1="170.4" y1="123.1" x2="171.2" y2="124.5"/>
<line x1="166.8" y1="124.7" x2="168.0" y2="126.8"/>
<line x1="163.2" y1="126.3" x2="164.8" y2="129.1"/>
<line x1="159.5" y1="127.9" x2="161.5" y2="131.4"/>
<line x1="155.9" y1="129.6" x2="158.3" y2="133.7"/>
<line x1="152.3" y1="131.2" x2="155.1" y2="136.0"/>
<line x1="218.0" y1="110.1" x2="218.8" y2="110.1"/>
<line x1="217.6" y1="113.9" x2="219.2" y2="113.9"/>
<line x1="217.2" y1="117.7" x2="219.6" y2="117.7"/>
<line x1="216.8" y1="121.5" x2="220.0" y2="121.5"/>
<line x1="216.4" y1="125.3" x2="220.4" y2="125.3"/>
<line x1="215.9" y1="129.1" x2="220.7" y2="129.1"/>
<line x1="215.5" y1="132.9" x2="221.1" y2="132.9"/>
<polygon points="172.246398 54.432573 181.923165 79.276199 188.857656 75.287110 " />
<line x1="185.4" y1="77.3" x2="156.3" y2="77.2"/>
<polygon points="172.136076 214.341591 188.791439 193.522262 181.865407 189.518503 " />
<line x1="185.3" y1="191.5" x2="199.9" y2="216.7"/>
<polygon points="185.355893 140.895014 189.369731 115.394179 181.369732 115.389838 " />
<line x1="86.4" y1="172.4" x2="86.4" y2="134.4"/>
<line x1="86.4" y1="134.4" x2="152.4" y2="134.4"/>
<line x1="152.4" y1="134.4" x2="152.4" y2="172.5"/>
<line x1="152.4" y1="172.5" x2="119.4" y2="191.5"/>
<line x1="119.4" y1="191.5" x2="86.4" y2="172.4"/>
<line x1="218.4" y1="58.3" x2="251.4" y2="77.3"/>
<line x1="251.4" y1="77.3" x2="251.3" y2="115.4"/>
<line x1="251.3" y1="115.4" x2="218.3" y2="134.4"/>
<line x1="218.3" y1="134.4" x2="185.4" y2="115.4"/>
<line x1="185.4" y1="115.4" x2="185.4" y2="77.3"/>
<line x1="185.4" y1="77.3" x2="218.4" y2="58.3"/>
<line x1="218.3" y1="172.5" x2="185.3" y2="191.5"/>
<line x1="185.3" y1="191.5" x2="152.4" y2="172.5"/>
<line x1="152.4" y1="134.4" x2="185.4" y2="115.4"/>
<line x1="218.3" y1="134.4" x2="218.3" y2="172.5"/>
<line x1="317.3" y1="115.5" x2="284.3" y2="134.5"/>
<line x1="284.3" y1="134.5" x2="251.3" y2="115.4"/>
<line x1="251.4" y1="77.3" x2="284.3" y2="58.3"/>
<line x1="284.3" y1="58.3" x2="317.3" y2="77.4"/>
<line x1="317.3" y1="77.4" x2="317.3" y2="115.5"/>
<text x="44.102118" y="347.800971" fill="rgb(102,102,102)"  stroke="rgb(102,102,102)" stroke-width="1" font-size="16" >H</text>
<text x="56.102118" y="352.600971" fill="rgb(102,102,102)"  stroke="rgb(102,102,102)" stroke-width="1" font-size="13" >3</text>
<text x="62.602118" y="347.800971" fill="rgb(102,102,102)"  stroke="rgb(102,102,102)" stroke-width="1" font-size="16" >C</text>
<text x="99.617457" y="297.442889" fill="rgb(102,102,102)"  stroke="rgb(102,102,102)" stroke-width="1" font-size="16" >CH</text>
<text x="123.617457" y="305.122889" fill="rgb(102,102,102)"  stroke="rgb(102,102,102)" stroke-width="1" font-size="13" >3</text>
<text x="41.725920" y="165.273014" fill="rgb(102,102,102)"  stroke="rgb(102,102,102)" stroke-width="1" font-size="16" >H</text>
<text x="53.725920" y="172.953014" fill="rgb(102,102,102)"  stroke="rgb(102,102,102)" stroke-width="1" font-size="13" >3</text>
<text x="60.225920" y="165.273014" fill="rgb(102,102,102)"  stroke="rgb(102,102,102)" stroke-width="1" font-size="16" >C</text>
<text x="257.762648" y="157.558759" fill="rgb(102,102,102)"  stroke="rgb(102,102,102)" stroke-width="1" font-size="16" >CH</text>
<text x="281.762648" y="162.358759" fill="rgb(102,102,102)"  stroke="rgb(102,102,102)" stroke-width="1" font-size="13" >3</text>
<text x="146.310163" y="255.968260" fill="rgb(102,102,102)"  stroke="rgb(102,102,102)" stroke-width="1" font-size="16" >CH</text>
<text x="170.310163" y="260.768260" fill="rgb(102,102,102)"  stroke="rgb(102,102,102)" stroke-width="1" font-size="13" >3</text>
<text x="330.932362" y="51.585462" fill="rgb(255,12,12)"  stroke="rgb(255,12,12)" stroke-width="1" font-size="16" >OH</text>
<text x="130.447289" y="85.539725" fill="rgb(255,12,12)"  stroke="rgb(255,12,12)" stroke-width="1" font-size="16" >HO</text>
<text x="198.981517" y="230.403236" fill="rgb(255,12,12)"  stroke="rgb(255,12,12)" stroke-width="1" font-size="16" >OH</text>
<text x="39.835489" y="196.379539" fill="rgb(191,191,191)"  stroke="rgb(191,191,191)" stroke-width="1" font-size="16" >H</text>
<text x="257.823833" y="48.320000" fill="rgb(191,191,191)"  stroke="rgb(191,191,191)" stroke-width="1" font-size="16" >H</text>
<text x="350.630939" y="85.642048" fill="rgb(191,191,191)"  stroke="rgb(191,191,191)" stroke-width="1" font-size="16" >H</text>
<text x="113.287559" y="235.627694" fill="rgb(191,191,191)"  stroke="rgb(191,191,191)" stroke-width="1" font-size="16" >H</text>
<text x="180.434462" y="123.023607" fill="rgb(191,191,191)"  stroke="rgb(191,191,191)" stroke-width="1" font-size="16" >H</text>
<text x="212.365961" y="104.663188" fill="rgb(191,191,191)"  stroke="rgb(191,191,191)" stroke-width="1" font-size="16" >H</text>
<text x="162.172482" y="51.498548" fill="rgb(191,191,191)"  stroke="rgb(191,191,191)" stroke-width="1" font-size="16" >H</text>
<text x="162.038353" y="230.381888" fill="rgb(191,191,191)"  stroke="rgb(191,191,191)" stroke-width="1" font-size="16" >H</text>
<text x="179.349077" y="158.256195" fill="rgb(191,191,191)"  stroke="rgb(191,191,191)" stroke-width="1" font-size="16" >H</text>
<text font-size="18.000000" fill ="black" font-family="sans-serif"
x="140.000000" y="20.000000" ></text>
<title> - OBDepict</title>
</svg>
