<?xml version="1.0"?>
<svg xmlns="http://www.w3.org/2000/svg"
xmlns:xlink="http://www.w3.org/1999/xlink" xmlns:cml="http://www.xml-cml.org/schema" width="290.617" height="216.542" x="0" y="0" font-family="sans-serif" stroke="rgb(0,0,0)" stroke-width="1" >
<line x1="114.6" y1="140.0" x2="149.3" y2="120.0"/>
<line x1="114.6" y1="140.0" x2="89.0" y2="125.2"/>
<line x1="177.7" y1="62.5" x2="178.5" y2="62.7"/>
<line x1="176.5" y1="66.3" x2="178.1" y2="66.7"/>
<line x1="175.3" y1="70.2" x2="177.6" y2="70.7"/>
<line x1="174.1" y1="74.0" x2="177.2" y2="74.7"/>
<line x1="172.8" y1="77.8" x2="176.7" y2="78.7"/>
<line x1="171.6" y1="81.7" x2="176.3" y2="82.7"/>
<line x1="170.4" y1="85.5" x2="175.9" y2="86.7"/>
<line x1="172.8" y1="87.6" x2="150.8" y2="67.8"/>
<polygon points="126.072551 106.600000 147.282032 123.464102 151.282032 116.535898 " />
<line x1="210.8" y1="140.0" x2="222.9" y2="167.0"/>
<line x1="210.8" y1="140.0" x2="240.3" y2="143.1"/>
<line x1="109.6" y1="80.0" x2="90.4" y2="80.0"/>
<line x1="80.0" y1="50.4" x2="80.0" y2="69.6"/>
<line x1="50.4" y1="77.0" x2="69.6" y2="77.0"/>
<line x1="50.4" y1="83.0" x2="69.6" y2="83.0"/>
<line x1="80.0" y1="109.6" x2="80.0" y2="90.4"/>
<line x1="210.8" y1="100.0" x2="172.8" y2="87.6"/>
<line x1="172.8" y1="87.6" x2="149.3" y2="120.0"/>
<line x1="149.3" y1="120.0" x2="166.7" y2="143.9"/>
<line x1="182.7" y1="149.1" x2="210.8" y2="140.0"/>
<line x1="210.8" y1="140.0" x2="210.8" y2="100.0"/>
<text x="127.467649" y="69.194096" fill="rgb(255,12,12)"  stroke="rgb(255,12,12)" stroke-width="1" font-size="16" >HO</text>
<text x="244.616579" y="148.981139" fill="rgb(255,12,12)"  stroke="rgb(255,12,12)" stroke-width="1" font-size="16" >OH</text>
<text x="115.200000" y="99.200000" fill="rgb(255,12,12)"  stroke="rgb(255,12,12)" stroke-width="1" font-size="32" >-</text>
<text x="114.000000" y="84.800000" fill="rgb(255,12,12)"  stroke="rgb(255,12,12)" stroke-width="1" font-size="16" >O</text>
<text x="75.200000" y="33.600000" fill="rgb(255,12,12)"  stroke="rgb(255,12,12)" stroke-width="1" font-size="32" >-</text>
<text x="74.000000" y="48.320000" fill="rgb(255,12,12)"  stroke="rgb(255,12,12)" stroke-width="1" font-size="16" >O</text>
<text x="36.400000" y="84.800000" fill="rgb(255,12,12)"  stroke="rgb(255,12,12)" stroke-width="1" font-size="16" >O</text>
<text x="76.400000" y="124.800000" fill="rgb(255,12,12)"  stroke="rgb(255,12,12)" stroke-width="1" font-size="16" >O</text>
<text x="169.193442" y="157.160680" fill="rgb(255,12,12)"  stroke="rgb(255,12,12)" stroke-width="1" font-size="16" >O</text>
<text x="74.000000" y="84.800000" fill="rgb(255,127,0)"  stroke="rgb(255,127,0)" stroke-width="1" font-size="16" >P</text>
<text x="175.109910" y="56.833416" fill="rgb(191,191,191)"  stroke="rgb(191,191,191)" stroke-width="1" font-size="16" >H</text>
<text x="111.041016" y="108.320000" fill="rgb(191,191,191)"  stroke="rgb(191,191,191)" stroke-width="1" font-size="16" >H</text>
<text x="221.105169" y="181.341818" fill="rgb(191,191,191)"  stroke="rgb(191,191,191)" stroke-width="1" font-size="16" >H</text>
<text font-size="18.000000" fill ="black" font-family="sans-serif"
x="140.000000" y="20.000000" ></text>
<title> - OBDepict</title>
</svg>
