<?xml version="1.0"?>
<svg xmlns="http://www.w3.org/2000/svg"
xmlns:xlink="http://www.w3.org/1999/xlink" xmlns:cml="http://www.xml-cml.org/schema" width="1527.32" height="2223.93" x="0" y="0" font-family="sans-serif" stroke="rgb(0,0,0)" stroke-width="1" >
<line x1="1461.9" y1="45.2" x2="1487.3" y2="59.8"/>
<line x1="47.3" y1="2176.6" x2="68.1" y2="2155.9"/>
<line x1="450.0" y1="1114.1" x2="457.6" y2="1085.7"/>
<line x1="241.2" y1="1663.2" x2="248.8" y2="1634.8"/>
<line x1="1487.3" y1="59.8" x2="1487.3" y2="99.5"/>
<line x1="68.1" y1="2155.9" x2="57.8" y2="2117.5"/>
<line x1="1487.3" y1="99.5" x2="1452.9" y2="119.4"/>
<line x1="57.8" y1="2117.5" x2="85.9" y2="2089.5"/>
<line x1="1452.9" y1="119.4" x2="1452.9" y2="159.1"/>
<line x1="85.9" y1="2089.5" x2="75.6" y2="2051.1"/>
<line x1="1452.9" y1="159.1" x2="1418.6" y2="178.9"/>
<line x1="75.6" y1="2051.1" x2="103.7" y2="2023.0"/>
<line x1="1418.6" y1="178.9" x2="1418.6" y2="218.6"/>
<line x1="103.7" y1="2023.0" x2="93.4" y2="1984.7"/>
<line x1="1418.6" y1="218.6" x2="1384.2" y2="238.5"/>
<line x1="93.4" y1="1984.7" x2="121.5" y2="1956.6"/>
<line x1="1384.2" y1="238.5" x2="1384.2" y2="278.2"/>
<line x1="121.5" y1="1956.6" x2="111.2" y2="1918.3"/>
<line x1="1384.2" y1="278.2" x2="1349.8" y2="298.0"/>
<line x1="111.2" y1="1918.3" x2="139.3" y2="1890.2"/>
<line x1="1349.8" y1="298.0" x2="1349.8" y2="337.7"/>
<line x1="139.3" y1="1890.2" x2="129.0" y2="1851.9"/>
<line x1="1349.8" y1="337.7" x2="1315.4" y2="357.6"/>
<line x1="1315.4" y1="357.6" x2="1315.4" y2="397.3"/>
<line x1="1315.4" y1="397.3" x2="1281.0" y2="417.1"/>
<line x1="1281.0" y1="417.1" x2="1281.0" y2="456.8"/>
<line x1="1281.0" y1="456.8" x2="1246.7" y2="476.7"/>
<line x1="1246.7" y1="476.7" x2="1246.7" y2="516.4"/>
<line x1="771.7" y1="857.7" x2="811.4" y2="857.7"/>
<line x1="771.7" y1="857.7" x2="751.9" y2="892.1"/>
<line x1="811.4" y1="857.7" x2="831.3" y2="823.3"/>
<line x1="129.0" y1="1851.9" x2="157.0" y2="1823.8"/>
<line x1="751.9" y1="892.1" x2="712.2" y2="892.1"/>
<line x1="1246.7" y1="516.4" x2="1212.3" y2="536.2"/>
<line x1="831.3" y1="823.3" x2="871.0" y2="823.3"/>
<line x1="337.8" y1="1302.8" x2="348.0" y2="1341.1"/>
<line x1="337.8" y1="1302.8" x2="365.8" y2="1274.7"/>
<line x1="348.0" y1="1341.1" x2="320.0" y2="1369.2"/>
<line x1="365.8" y1="1274.7" x2="355.6" y2="1236.3"/>
<line x1="157.0" y1="1823.8" x2="146.8" y2="1785.4"/>
<line x1="712.2" y1="892.1" x2="692.3" y2="926.4"/>
<line x1="1212.3" y1="536.2" x2="1212.3" y2="575.9"/>
<line x1="320.0" y1="1369.2" x2="330.2" y2="1407.5"/>
<line x1="871.0" y1="823.3" x2="890.8" y2="788.9"/>
<line x1="355.6" y1="1236.3" x2="383.6" y2="1208.3"/>
<line x1="146.8" y1="1785.4" x2="174.8" y2="1757.4"/>
<line x1="692.3" y1="926.4" x2="652.6" y2="926.4"/>
<line x1="1212.3" y1="575.9" x2="1177.9" y2="595.8"/>
<line x1="330.2" y1="1407.5" x2="302.2" y2="1435.6"/>
<line x1="890.8" y1="788.9" x2="930.5" y2="788.9"/>
<line x1="383.6" y1="1208.3" x2="373.3" y2="1169.9"/>
<line x1="174.8" y1="1757.4" x2="164.6" y2="1719.0"/>
<line x1="652.6" y1="926.4" x2="632.8" y2="960.8"/>
<line x1="1177.9" y1="595.8" x2="1177.9" y2="635.5"/>
<line x1="302.2" y1="1435.6" x2="312.4" y2="1473.9"/>
<line x1="930.5" y1="788.9" x2="950.4" y2="754.5"/>
<line x1="373.3" y1="1169.9" x2="401.4" y2="1141.9"/>
<line x1="164.6" y1="1719.0" x2="192.6" y2="1691.0"/>
<line x1="632.8" y1="960.8" x2="593.1" y2="960.8"/>
<line x1="1177.9" y1="635.5" x2="1143.5" y2="655.3"/>
<line x1="312.4" y1="1473.9" x2="284.4" y2="1502.0"/>
<line x1="950.4" y1="754.5" x2="990.1" y2="754.5"/>
<line x1="401.4" y1="1141.9" x2="391.1" y2="1103.5"/>
<line x1="192.6" y1="1691.0" x2="182.4" y2="1652.6"/>
<line x1="593.1" y1="960.8" x2="573.2" y2="995.2"/>
<line x1="1143.5" y1="655.3" x2="1143.5" y2="695.0"/>
<line x1="284.4" y1="1502.0" x2="294.6" y2="1540.3"/>
<line x1="990.1" y1="754.5" x2="1009.9" y2="720.2"/>
<line x1="391.1" y1="1103.5" x2="419.2" y2="1075.4"/>
<line x1="182.4" y1="1652.6" x2="210.4" y2="1624.6"/>
<line x1="573.2" y1="995.2" x2="533.5" y2="995.2"/>
<line x1="1143.5" y1="695.0" x2="1109.2" y2="714.8"/>
<line x1="294.6" y1="1540.3" x2="266.6" y2="1568.4"/>
<line x1="1009.9" y1="720.2" x2="1049.6" y2="720.2"/>
<line x1="419.2" y1="1075.4" x2="457.6" y2="1085.7"/>
<line x1="210.4" y1="1624.6" x2="248.8" y2="1634.8"/>
<line x1="533.5" y1="995.2" x2="513.7" y2="1029.6"/>
<line x1="1109.2" y1="714.8" x2="1109.2" y2="754.5"/>
<line x1="266.6" y1="1568.4" x2="276.8" y2="1606.8"/>
<line x1="1049.6" y1="720.2" x2="1069.5" y2="754.5"/>
<line x1="1229.8" y1="1082.6" x2="1209.9" y2="1048.2"/>
<line x1="1229.8" y1="1082.6" x2="1215.1" y2="1108.0"/>
<line x1="1143.5" y1="853.8" x2="1109.2" y2="873.6"/>
<line x1="1143.5" y1="853.8" x2="1143.5" y2="824.4"/>
<line x1="457.6" y1="1085.7" x2="478.3" y2="1106.5"/>
<line x1="457.6" y1="1085.7" x2="485.6" y2="1057.6"/>
<line x1="248.8" y1="1634.8" x2="269.6" y2="1655.6"/>
<line x1="248.8" y1="1634.8" x2="276.8" y2="1606.8"/>
<line x1="513.7" y1="1029.6" x2="541.4" y2="1039.4"/>
<line x1="1109.2" y1="754.5" x2="1138.5" y2="754.5"/>
<line x1="1109.2" y1="754.5" x2="1069.5" y2="754.5"/>
<line x1="1109.2" y1="754.5" x2="1109.2" y2="794.2"/>
<line x1="485.6" y1="1057.6" x2="493.2" y2="1086.0"/>
<line x1="277.6" y1="1603.9" x2="306.0" y2="1611.5"/>
<line x1="276.1" y1="1609.7" x2="304.4" y2="1617.3"/>
<line x1="1069.5" y1="754.5" x2="1044.0" y2="769.2"/>
<line x1="1069.5" y1="754.5" x2="1069.5" y2="783.9"/>
<line x1="1197.6" y1="1070.4" x2="1196.9" y2="1070.0"/>
<line x1="1199.9" y1="1067.2" x2="1198.5" y2="1066.4"/>
<line x1="1202.3" y1="1063.9" x2="1200.2" y2="1062.7"/>
<line x1="1204.6" y1="1060.7" x2="1201.8" y2="1059.1"/>
<line x1="1206.9" y1="1057.5" x2="1203.5" y2="1055.5"/>
<line x1="1209.2" y1="1054.2" x2="1205.1" y2="1051.8"/>
<line x1="1211.6" y1="1051.0" x2="1206.7" y2="1048.2"/>
<line x1="1088.8" y1="858.5" x2="1089.2" y2="857.9"/>
<line x1="1091.7" y1="861.2" x2="1092.6" y2="860.0"/>
<line x1="1094.6" y1="864.0" x2="1096.0" y2="862.1"/>
<line x1="1097.5" y1="866.7" x2="1099.4" y2="864.2"/>
<line x1="1100.4" y1="869.4" x2="1102.8" y2="866.2"/>
<line x1="1103.3" y1="872.2" x2="1106.2" y2="868.3"/>
<line x1="1106.2" y1="874.9" x2="1109.6" y2="870.4"/>
<polygon points="1257.623801 1051.399970 1247.789417 1026.366318 1240.861214 1030.366318 " />
<line x1="1244.3" y1="1028.4" x2="1273.7" y2="1028.4"/>
<polygon points="1057.041890 832.529296 1066.945791 884.945972 1074.673198 882.875419 " />
<line x1="1070.8" y1="883.9" x2="1042.4" y2="876.3"/>
<line x1="1269.7" y1="988.3" x2="1269.7" y2="989.1"/>
<line x1="1265.8" y1="987.9" x2="1265.8" y2="989.5"/>
<line x1="1261.8" y1="987.5" x2="1261.8" y2="989.9"/>
<line x1="1257.8" y1="987.1" x2="1257.8" y2="990.3"/>
<line x1="1253.9" y1="986.7" x2="1253.9" y2="990.7"/>
<line x1="1249.9" y1="986.3" x2="1249.9" y2="991.1"/>
<line x1="1245.9" y1="985.9" x2="1245.9" y2="991.5"/>
<line x1="1244.3" y1="988.7" x2="1259.0" y2="963.2"/>
<line x1="1035.9" y1="916.1" x2="1036.1" y2="915.3"/>
<line x1="1039.6" y1="917.5" x2="1040.0" y2="915.9"/>
<line x1="1043.4" y1="918.9" x2="1044.0" y2="916.6"/>
<line x1="1047.1" y1="920.3" x2="1047.9" y2="917.2"/>
<line x1="1050.8" y1="921.7" x2="1051.9" y2="917.9"/>
<line x1="1054.5" y1="923.1" x2="1055.8" y2="918.5"/>
<line x1="1058.3" y1="924.5" x2="1059.7" y2="919.1"/>
<line x1="1060.5" y1="922.3" x2="1039.8" y2="943.0"/>
<polygon points="1223.245216 945.787212 1206.482630 966.820864 1213.410833 970.820864 " />
<line x1="1209.9" y1="968.8" x2="1195.3" y2="943.4"/>
<polygon points="1069.798261 969.131918 1091.433586 953.153447 1085.776732 947.496593 " />
<line x1="1088.6" y1="950.3" x2="1096.2" y2="978.7"/>
<line x1="1110.7" y1="796.8" x2="1085.2" y2="811.5"/>
<line x1="1107.7" y1="791.6" x2="1082.2" y2="806.3"/>
<line x1="1109.2" y1="794.2" x2="1134.6" y2="808.9"/>
<polygon points="1154.467353 1004.860558 1178.003193 991.842762 1173.133102 985.495935 " />
<line x1="1175.6" y1="988.7" x2="1168.0" y2="960.3"/>
<polygon points="1133.833290 965.741388 1130.813191 939.015412 1123.085784 941.085965 " />
<line x1="1126.9" y1="940.1" x2="1155.3" y2="947.7"/>
<line x1="513.7" y1="1029.6" x2="475.4" y2="1019.3"/>
<line x1="475.4" y1="1019.3" x2="485.6" y2="1057.6"/>
<line x1="485.6" y1="1057.6" x2="513.7" y2="1029.6"/>
<line x1="1244.3" y1="988.7" x2="1209.9" y2="968.8"/>
<line x1="1209.9" y1="968.8" x2="1175.6" y2="988.7"/>
<line x1="1175.6" y1="988.7" x2="1175.6" y2="1018.0"/>
<line x1="1184.5" y1="1033.5" x2="1209.9" y2="1048.2"/>
<line x1="1209.9" y1="1048.2" x2="1244.3" y2="1028.4"/>
<line x1="1244.3" y1="1028.4" x2="1244.3" y2="988.7"/>
<line x1="1109.2" y1="873.6" x2="1070.8" y2="883.9"/>
<line x1="1070.8" y1="883.9" x2="1060.5" y2="922.3"/>
<line x1="1060.5" y1="922.3" x2="1088.6" y2="950.3"/>
<line x1="1088.6" y1="950.3" x2="1126.9" y2="940.1"/>
<line x1="1126.9" y1="940.1" x2="1134.6" y2="911.7"/>
<line x1="1129.9" y1="894.4" x2="1109.2" y2="873.6"/>
<text x="1429.339665" y="48.320000" fill="rgb(102,102,102)"  stroke="rgb(102,102,102)" stroke-width="1" font-size="16" >H</text>
<text x="1441.339665" y="56.000000" fill="rgb(102,102,102)"  stroke="rgb(102,102,102)" stroke-width="1" font-size="13" >3</text>
<text x="1447.839665" y="48.320000" fill="rgb(102,102,102)"  stroke="rgb(102,102,102)" stroke-width="1" font-size="16" >C</text>
<text x="16.400000" y="2188.734646" fill="rgb(102,102,102)"  stroke="rgb(102,102,102)" stroke-width="1" font-size="16" >H</text>
<text x="28.400000" y="2193.534646" fill="rgb(102,102,102)"  stroke="rgb(102,102,102)" stroke-width="1" font-size="13" >3</text>
<text x="34.900000" y="2188.734646" fill="rgb(102,102,102)"  stroke="rgb(102,102,102)" stroke-width="1" font-size="16" >C</text>
<text x="423.684952" y="1128.858449" fill="rgb(102,102,102)"  stroke="rgb(102,102,102)" stroke-width="1" font-size="16" >H</text>
<text x="435.684952" y="1133.658449" fill="rgb(102,102,102)"  stroke="rgb(102,102,102)" stroke-width="1" font-size="13" >3</text>
<text x="442.184952" y="1128.858449" fill="rgb(102,102,102)"  stroke="rgb(102,102,102)" stroke-width="1" font-size="16" >C</text>
<text x="214.905310" y="1677.968712" fill="rgb(102,102,102)"  stroke="rgb(102,102,102)" stroke-width="1" font-size="16" >H</text>
<text x="226.905310" y="1682.768712" fill="rgb(102,102,102)"  stroke="rgb(102,102,102)" stroke-width="1" font-size="13" >3</text>
<text x="233.405310" y="1677.968712" fill="rgb(102,102,102)"  stroke="rgb(102,102,102)" stroke-width="1" font-size="16" >C</text>
<text x="1194.346732" y="1121.771971" fill="rgb(255,12,12)"  stroke="rgb(255,12,12)" stroke-width="1" font-size="16" >HO</text>
<text x="309.193967" y="1621.828719" fill="rgb(255,12,12)"  stroke="rgb(255,12,12)" stroke-width="1" font-size="16" >O</text>
<text x="1063.456853" y="799.042424" fill="rgb(255,12,12)"  stroke="rgb(255,12,12)" stroke-width="1" font-size="16" >OH</text>
<text x="1278.022285" y="1033.166318" fill="rgb(255,12,12)"  stroke="rgb(255,12,12)" stroke-width="1" font-size="16" >OH</text>
<text x="1016.865166" y="881.956364" fill="rgb(255,12,12)"  stroke="rgb(255,12,12)" stroke-width="1" font-size="16" >HO</text>
<text x="1258.173801" y="962.610764" fill="rgb(255,12,12)"  stroke="rgb(255,12,12)" stroke-width="1" font-size="16" >OH</text>
<text x="1016.865166" y="955.125020" fill="rgb(255,12,12)"  stroke="rgb(255,12,12)" stroke-width="1" font-size="16" >HO</text>
<text x="1174.498247" y="942.762279" fill="rgb(255,12,12)"  stroke="rgb(255,12,12)" stroke-width="1" font-size="16" >HO</text>
<text x="1092.879491" y="993.469348" fill="rgb(255,12,12)"  stroke="rgb(255,12,12)" stroke-width="1" font-size="16" >OH</text>
<text x="1071.175238" y="818.890909" fill="rgb(255,12,12)"  stroke="rgb(255,12,12)" stroke-width="1" font-size="16" >O</text>
<text x="1137.532407" y="822.410909" fill="rgb(255,12,12)"  stroke="rgb(255,12,12)" stroke-width="1" font-size="16" >O</text>
<text x="1171.968147" y="1033.166318" fill="rgb(255,12,12)"  stroke="rgb(255,12,12)" stroke-width="1" font-size="16" >O</text>
<text x="1131.223819" y="910.026360" fill="rgb(255,12,12)"  stroke="rgb(255,12,12)" stroke-width="1" font-size="16" >O</text>
<text x="1159.293816" y="958.645020" fill="rgb(255,12,12)"  stroke="rgb(255,12,12)" stroke-width="1" font-size="16" >O</text>
<text x="479.629281" y="1118.584118" fill="rgb(191,191,191)"  stroke="rgb(191,191,191)" stroke-width="1" font-size="16" >H</text>
<text x="270.849639" y="1667.694380" fill="rgb(191,191,191)"  stroke="rgb(191,191,191)" stroke-width="1" font-size="16" >H</text>
<text x="545.095705" y="1047.691658" fill="rgb(191,191,191)"  stroke="rgb(191,191,191)" stroke-width="1" font-size="16" >H</text>
<text x="1142.850792" y="759.345455" fill="rgb(191,191,191)"  stroke="rgb(191,191,191)" stroke-width="1" font-size="16" >H</text>
<text x="489.903612" y="1100.788453" fill="rgb(191,191,191)"  stroke="rgb(191,191,191)" stroke-width="1" font-size="16" >H</text>
<text x="1031.478269" y="779.193939" fill="rgb(191,191,191)"  stroke="rgb(191,191,191)" stroke-width="1" font-size="16" >H</text>
<text x="1186.498247" y="1087.393387" fill="rgb(191,191,191)"  stroke="rgb(191,191,191)" stroke-width="1" font-size="16" >H</text>
<text x="1074.060099" y="857.790380" fill="rgb(191,191,191)"  stroke="rgb(191,191,191)" stroke-width="1" font-size="16" >H</text>
<text x="1258.173801" y="1067.544902" fill="rgb(191,191,191)"  stroke="rgb(191,191,191)" stroke-width="1" font-size="16" >H</text>
<text x="1046.660831" y="815.542039" fill="rgb(191,191,191)"  stroke="rgb(191,191,191)" stroke-width="1" font-size="16" >H</text>
<text x="1278.022285" y="993.469348" fill="rgb(191,191,191)"  stroke="rgb(191,191,191)" stroke-width="1" font-size="16" >H</text>
<text x="1018.590834" y="920.300692" fill="rgb(191,191,191)"  stroke="rgb(191,191,191)" stroke-width="1" font-size="16" >H</text>
<text x="1223.795216" y="942.762279" fill="rgb(191,191,191)"  stroke="rgb(191,191,191)" stroke-width="1" font-size="16" >H</text>
<text x="1056.935163" y="983.195017" fill="rgb(191,191,191)"  stroke="rgb(191,191,191)" stroke-width="1" font-size="16" >H</text>
<text x="1140.474424" y="1017.635332" fill="rgb(191,191,191)"  stroke="rgb(191,191,191)" stroke-width="1" font-size="16" >H</text>
<text x="1131.223819" y="983.195017" fill="rgb(191,191,191)"  stroke="rgb(191,191,191)" stroke-width="1" font-size="16" >H</text>
<text font-size="18.000000" fill ="black" font-family="sans-serif"
x="140.000000" y="20.000000" ></text>
<title> - OBDepict</title>
</svg>
