<?xml version="1.0"?>
<svg xmlns="http://www.w3.org/2000/svg"
xmlns:xlink="http://www.w3.org/1999/xlink" xmlns:cml="http://www.xml-cml.org/schema" width="322.487" height="300" x="0" y="0" font-family="sans-serif" stroke="rgb(0,0,0)" stroke-width="1" >
<line x1="247.8" y1="200.0" x2="273.5" y2="214.8"/>
<line x1="249.3" y1="202.6" x2="214.7" y2="222.6"/>
<line x1="246.3" y1="197.4" x2="211.7" y2="217.4"/>
<line x1="247.8" y1="200.0" x2="247.8" y2="160.0"/>
<line x1="213.2" y1="220.0" x2="213.2" y2="249.6"/>
<line x1="213.2" y1="220.0" x2="178.6" y2="200.0"/>
<line x1="109.3" y1="160.0" x2="109.3" y2="200.0"/>
<line x1="109.3" y1="160.0" x2="74.6" y2="140.0"/>
<line x1="247.8" y1="80.0" x2="247.8" y2="50.4"/>
<line x1="109.3" y1="200.0" x2="74.6" y2="220.0"/>
<line x1="109.3" y1="200.0" x2="134.9" y2="214.8"/>
<line x1="71.6" y1="140.0" x2="71.6" y2="110.4"/>
<line x1="77.6" y1="140.0" x2="77.6" y2="110.4"/>
<line x1="74.6" y1="140.0" x2="49.0" y2="154.8"/>
<line x1="175.6" y1="200.0" x2="175.6" y2="170.4"/>
<line x1="181.6" y1="200.0" x2="181.6" y2="170.4"/>
<line x1="178.6" y1="200.0" x2="152.9" y2="214.8"/>
<line x1="73.1" y1="222.6" x2="47.5" y2="207.8"/>
<line x1="76.1" y1="217.4" x2="50.5" y2="202.6"/>
<line x1="74.6" y1="220.0" x2="74.6" y2="249.6"/>
<line x1="213.2" y1="140.0" x2="247.8" y2="160.0"/>
<line x1="222.0" y1="136.8" x2="246.2" y2="150.8"/>
<line x1="247.8" y1="160.0" x2="282.5" y2="140.0"/>
<line x1="282.5" y1="140.0" x2="282.5" y2="100.0"/>
<line x1="275.3" y1="134.0" x2="275.3" y2="106.0"/>
<line x1="282.5" y1="100.0" x2="247.8" y2="80.0"/>
<line x1="247.8" y1="80.0" x2="213.2" y2="100.0"/>
<line x1="246.2" y1="89.2" x2="222.0" y2="103.2"/>
<line x1="213.2" y1="100.0" x2="213.2" y2="140.0"/>
<text x="241.846097" y="48.320000" fill="rgb(255,12,12)"  stroke="rgb(255,12,12)" stroke-width="1" font-size="16" >OH</text>
<text x="68.641016" y="108.320000" fill="rgb(255,12,12)"  stroke="rgb(255,12,12)" stroke-width="1" font-size="16" >O</text>
<text x="24.400000" y="164.800000" fill="rgb(255,12,12)"  stroke="rgb(255,12,12)" stroke-width="1" font-size="16" >HO</text>
<text x="172.564065" y="168.320000" fill="rgb(255,12,12)"  stroke="rgb(255,12,12)" stroke-width="1" font-size="16" >O</text>
<text x="36.400000" y="208.320000" fill="rgb(255,12,12)"  stroke="rgb(255,12,12)" stroke-width="1" font-size="16" >O</text>
<text x="68.641016" y="264.800000" fill="rgb(255,12,12)"  stroke="rgb(255,12,12)" stroke-width="1" font-size="16" >OH</text>
<text x="137.923048" y="224.800000" fill="rgb(255,12,12)"  stroke="rgb(255,12,12)" stroke-width="1" font-size="16" >O</text>
<text x="276.487113" y="224.800000" fill="rgb(191,191,191)"  stroke="rgb(191,191,191)" stroke-width="1" font-size="16" >H</text>
<text x="207.205081" y="264.800000" fill="rgb(191,191,191)"  stroke="rgb(191,191,191)" stroke-width="1" font-size="16" >H</text>
<text font-size="18.000000" fill ="black" font-family="sans-serif"
x="140.000000" y="20.000000" ></text>
<title> - OBDepict</title>
</svg>
