<?xml version="1.0"?>
<svg xmlns="http://www.w3.org/2000/svg"
xmlns:xlink="http://www.w3.org/1999/xlink" xmlns:cml="http://www.xml-cml.org/schema" width="2264.06" height="1735.76" x="0" y="0" font-family="sans-serif" stroke="rgb(0,0,0)" stroke-width="1" >
<line x1="94.5" y1="49.0" x2="79.8" y2="74.4"/>
<line x1="50.3" y1="74.4" x2="79.8" y2="74.4"/>
<line x1="154.2" y1="152.3" x2="139.4" y2="177.8"/>
<line x1="273.5" y1="221.2" x2="258.8" y2="246.7"/>
<line x1="392.8" y1="290.1" x2="378.1" y2="315.6"/>
<line x1="512.1" y1="359.0" x2="497.4" y2="384.5"/>
<line x1="631.5" y1="427.9" x2="616.7" y2="453.4"/>
<line x1="750.8" y1="496.8" x2="736.1" y2="522.2"/>
<line x1="870.1" y1="565.7" x2="855.4" y2="591.1"/>
<line x1="989.4" y1="634.5" x2="974.7" y2="660.0"/>
<line x1="1108.8" y1="703.4" x2="1094.0" y2="728.9"/>
<line x1="1228.1" y1="772.3" x2="1213.4" y2="797.8"/>
<line x1="1347.4" y1="841.2" x2="1332.7" y2="866.7"/>
<line x1="1466.7" y1="910.1" x2="1452.0" y2="935.6"/>
<line x1="1586.1" y1="979.0" x2="1571.3" y2="1004.5"/>
<line x1="1705.4" y1="1047.9" x2="1690.7" y2="1073.4"/>
<line x1="1835.5" y1="1157.0" x2="1810.0" y2="1142.3"/>
<line x1="1987.9" y1="1389.2" x2="1962.4" y2="1374.5"/>
<line x1="1841.9" y1="1242.1" x2="1870.4" y2="1234.5"/>
<line x1="79.8" y1="143.3" x2="99.7" y2="108.9"/>
<line x1="79.8" y1="143.3" x2="99.7" y2="177.8"/>
<line x1="199.1" y1="212.2" x2="159.3" y2="212.2"/>
<line x1="199.1" y1="212.2" x2="219.0" y2="246.7"/>
<line x1="318.4" y1="281.1" x2="278.7" y2="281.1"/>
<line x1="318.4" y1="281.1" x2="338.3" y2="315.6"/>
<line x1="437.8" y1="350.0" x2="398.0" y2="350.0"/>
<line x1="437.8" y1="350.0" x2="457.6" y2="384.5"/>
<line x1="557.1" y1="418.9" x2="517.3" y2="418.9"/>
<line x1="557.1" y1="418.9" x2="577.0" y2="453.4"/>
<line x1="676.4" y1="487.8" x2="636.6" y2="487.8"/>
<line x1="676.4" y1="487.8" x2="696.3" y2="522.2"/>
<line x1="795.7" y1="556.7" x2="756.0" y2="556.7"/>
<line x1="795.7" y1="556.7" x2="815.6" y2="591.1"/>
<line x1="915.1" y1="625.6" x2="875.3" y2="625.6"/>
<line x1="915.1" y1="625.6" x2="934.9" y2="660.0"/>
<line x1="1034.4" y1="694.5" x2="994.6" y2="694.5"/>
<line x1="1034.4" y1="694.5" x2="1054.3" y2="728.9"/>
<line x1="1153.7" y1="763.4" x2="1113.9" y2="763.4"/>
<line x1="1153.7" y1="763.4" x2="1173.6" y2="797.8"/>
<line x1="1273.0" y1="832.3" x2="1233.3" y2="832.3"/>
<line x1="1273.0" y1="832.3" x2="1292.9" y2="866.7"/>
<line x1="1392.4" y1="901.2" x2="1352.6" y2="901.2"/>
<line x1="1392.4" y1="901.2" x2="1412.2" y2="935.6"/>
<line x1="1511.7" y1="970.1" x2="1471.9" y2="970.1"/>
<line x1="1511.7" y1="970.1" x2="1531.6" y2="1004.5"/>
<line x1="1631.0" y1="1038.9" x2="1591.2" y2="1038.9"/>
<line x1="1631.0" y1="1038.9" x2="1650.9" y2="1073.4"/>
<line x1="1750.3" y1="1107.8" x2="1710.6" y2="1107.8"/>
<line x1="1750.3" y1="1107.8" x2="1770.2" y2="1142.3"/>
<line x1="97.1" y1="110.4" x2="77.2" y2="75.9"/>
<line x1="102.3" y1="107.4" x2="82.4" y2="72.9"/>
<line x1="99.7" y1="177.8" x2="139.4" y2="177.8"/>
<line x1="159.3" y1="212.2" x2="144.6" y2="237.7"/>
<line x1="156.7" y1="213.7" x2="136.8" y2="179.3"/>
<line x1="161.9" y1="210.7" x2="142.0" y2="176.3"/>
<line x1="219.0" y1="246.7" x2="258.8" y2="246.7"/>
<line x1="278.7" y1="281.1" x2="263.9" y2="306.6"/>
<line x1="276.1" y1="282.6" x2="256.2" y2="248.2"/>
<line x1="281.2" y1="279.6" x2="261.4" y2="245.2"/>
<line x1="338.3" y1="315.6" x2="378.1" y2="315.6"/>
<line x1="398.0" y1="350.0" x2="383.3" y2="375.5"/>
<line x1="395.4" y1="351.5" x2="375.5" y2="317.1"/>
<line x1="400.6" y1="348.5" x2="380.7" y2="314.1"/>
<line x1="457.6" y1="384.5" x2="497.4" y2="384.5"/>
<line x1="517.3" y1="418.9" x2="502.6" y2="444.4"/>
<line x1="514.7" y1="420.4" x2="494.8" y2="386.0"/>
<line x1="519.9" y1="417.4" x2="500.0" y2="383.0"/>
<line x1="577.0" y1="453.4" x2="616.7" y2="453.4"/>
<line x1="636.6" y1="487.8" x2="621.9" y2="513.3"/>
<line x1="634.0" y1="489.3" x2="614.1" y2="454.9"/>
<line x1="639.2" y1="486.3" x2="619.3" y2="451.9"/>
<line x1="696.3" y1="522.2" x2="736.1" y2="522.2"/>
<line x1="756.0" y1="556.7" x2="741.2" y2="582.2"/>
<line x1="753.4" y1="558.2" x2="733.5" y2="523.7"/>
<line x1="758.6" y1="555.2" x2="738.7" y2="520.7"/>
<line x1="815.6" y1="591.1" x2="855.4" y2="591.1"/>
<line x1="875.3" y1="625.6" x2="860.6" y2="651.1"/>
<line x1="872.7" y1="627.1" x2="852.8" y2="592.6"/>
<line x1="877.9" y1="624.1" x2="858.0" y2="589.6"/>
<line x1="934.9" y1="660.0" x2="974.7" y2="660.0"/>
<line x1="994.6" y1="694.5" x2="979.9" y2="720.0"/>
<line x1="992.0" y1="696.0" x2="972.1" y2="661.5"/>
<line x1="997.2" y1="693.0" x2="977.3" y2="658.5"/>
<line x1="1054.3" y1="728.9" x2="1094.0" y2="728.9"/>
<line x1="1113.9" y1="763.4" x2="1099.2" y2="788.9"/>
<line x1="1111.3" y1="764.9" x2="1091.4" y2="730.4"/>
<line x1="1116.5" y1="761.9" x2="1096.6" y2="727.4"/>
<line x1="1173.6" y1="797.8" x2="1213.4" y2="797.8"/>
<line x1="1233.3" y1="832.3" x2="1218.5" y2="857.8"/>
<line x1="1230.7" y1="833.8" x2="1210.8" y2="799.3"/>
<line x1="1235.9" y1="830.8" x2="1216.0" y2="796.3"/>
<line x1="1292.9" y1="866.7" x2="1332.7" y2="866.7"/>
<line x1="1352.6" y1="901.2" x2="1337.9" y2="926.7"/>
<line x1="1350.0" y1="902.7" x2="1330.1" y2="868.2"/>
<line x1="1355.2" y1="899.7" x2="1335.3" y2="865.2"/>
<line x1="1412.2" y1="935.6" x2="1452.0" y2="935.6"/>
<line x1="1471.9" y1="970.1" x2="1457.2" y2="995.5"/>
<line x1="1469.3" y1="971.6" x2="1449.4" y2="937.1"/>
<line x1="1474.5" y1="968.6" x2="1454.6" y2="934.1"/>
<line x1="1531.6" y1="1004.5" x2="1571.3" y2="1004.5"/>
<line x1="1591.2" y1="1038.9" x2="1576.5" y2="1064.4"/>
<line x1="1588.6" y1="1040.4" x2="1568.8" y2="1006.0"/>
<line x1="1593.8" y1="1037.4" x2="1573.9" y2="1003.0"/>
<line x1="1650.9" y1="1073.4" x2="1690.7" y2="1073.4"/>
<line x1="1710.6" y1="1107.8" x2="1695.8" y2="1133.3"/>
<line x1="1708.0" y1="1109.3" x2="1688.1" y2="1074.9"/>
<line x1="1713.2" y1="1106.3" x2="1693.3" y2="1071.9"/>
<line x1="1770.2" y1="1142.3" x2="1810.0" y2="1142.3"/>
<line x1="1829.9" y1="1107.8" x2="1869.7" y2="1107.8"/>
<line x1="1829.9" y1="1107.8" x2="1810.0" y2="1142.3"/>
<line x1="1869.7" y1="1107.8" x2="1884.4" y2="1133.3"/>
<line x1="2204.2" y1="1562.7" x2="2164.4" y2="1562.7"/>
<line x1="2204.2" y1="1562.7" x2="2218.9" y2="1588.2"/>
<line x1="1990.5" y1="1667.6" x2="1980.2" y2="1629.2"/>
<line x1="1990.5" y1="1667.6" x2="1969.7" y2="1688.4"/>
<line x1="1888.2" y1="1542.8" x2="1888.2" y2="1503.0"/>
<line x1="1888.2" y1="1542.8" x2="1862.7" y2="1557.5"/>
<line x1="1821.6" y1="1395.7" x2="1831.9" y2="1357.3"/>
<line x1="1821.6" y1="1395.7" x2="1793.2" y2="1403.3"/>
<line x1="1810.4" y1="1167.7" x2="1809.6" y2="1167.7"/>
<line x1="1810.8" y1="1163.8" x2="1809.2" y2="1163.8"/>
<line x1="1811.2" y1="1159.8" x2="1808.8" y2="1159.8"/>
<line x1="1811.6" y1="1155.8" x2="1808.4" y2="1155.8"/>
<line x1="1812.0" y1="1151.8" x2="1808.0" y2="1151.8"/>
<line x1="1812.4" y1="1147.9" x2="1807.6" y2="1147.9"/>
<line x1="1812.8" y1="1143.9" x2="1807.2" y2="1143.9"/>
<line x1="1963.9" y1="1377.0" x2="1938.4" y2="1391.8"/>
<line x1="1960.9" y1="1371.9" x2="1935.4" y2="1386.6"/>
<line x1="1962.4" y1="1374.5" x2="1962.4" y2="1345.0"/>
<line x1="1872.5" y1="1232.4" x2="1893.3" y2="1253.2"/>
<line x1="1868.2" y1="1236.6" x2="1889.1" y2="1257.4"/>
<line x1="1870.4" y1="1234.5" x2="1878.0" y2="1206.0"/>
<line x1="2177.5" y1="1584.5" x2="2176.8" y2="1584.9"/>
<line x1="2175.8" y1="1580.9" x2="2174.4" y2="1581.7"/>
<line x1="2174.2" y1="1577.2" x2="2172.1" y2="1578.4"/>
<line x1="2172.5" y1="1573.6" x2="2169.8" y2="1575.2"/>
<line x1="2170.9" y1="1569.9" x2="2167.4" y2="1571.9"/>
<line x1="2169.3" y1="1566.3" x2="2165.1" y2="1568.7"/>
<line x1="2167.6" y1="1562.6" x2="2162.8" y2="1565.4"/>
<line x1="1962.5" y1="1647.5" x2="1962.0" y2="1646.9"/>
<line x1="1965.6" y1="1645.0" x2="1964.5" y2="1643.8"/>
<line x1="1968.7" y1="1642.4" x2="1967.0" y2="1640.7"/>
<line x1="1971.8" y1="1639.9" x2="1969.6" y2="1637.6"/>
<line x1="1974.9" y1="1637.4" x2="1972.1" y2="1634.6"/>
<line x1="1978.0" y1="1634.8" x2="1974.6" y2="1631.5"/>
<line x1="1981.1" y1="1632.3" x2="1977.1" y2="1628.4"/>
<line x1="1866.3" y1="1516.1" x2="1865.9" y2="1515.4"/>
<line x1="1870.0" y1="1514.4" x2="1869.2" y2="1513.1"/>
<line x1="1873.6" y1="1512.8" x2="1872.4" y2="1510.7"/>
<line x1="1877.3" y1="1511.2" x2="1875.7" y2="1508.4"/>
<line x1="1880.9" y1="1509.5" x2="1878.9" y2="1506.0"/>
<line x1="1884.6" y1="1507.9" x2="1882.2" y2="1503.7"/>
<line x1="1888.2" y1="1506.2" x2="1885.4" y2="1501.4"/>
<line x1="1807.5" y1="1364.2" x2="1807.3" y2="1363.5"/>
<line x1="1811.4" y1="1363.6" x2="1811.0" y2="1362.1"/>
<line x1="1815.4" y1="1363.0" x2="1814.7" y2="1360.6"/>
<line x1="1819.3" y1="1362.3" x2="1818.5" y2="1359.2"/>
<line x1="1823.2" y1="1361.7" x2="1822.2" y2="1357.8"/>
<line x1="1827.2" y1="1361.0" x2="1825.9" y2="1356.4"/>
<line x1="1831.1" y1="1360.4" x2="1829.7" y2="1355.0"/>
<polygon points="1951.049623 1420.788853 1925.970533 1430.649470 1929.970533 1437.577673 " />
<line x1="1928.0" y1="1434.1" x2="1928.0" y2="1404.7"/>
<polygon points="1913.936633 1294.125506 1887.159976 1297.159185 1889.230528 1304.886591 " />
<line x1="1888.2" y1="1301.0" x2="1895.8" y2="1272.6"/>
<polygon points="2191.049866 1522.894020 2164.400428 1518.894020 2164.400428 1526.894020 " />
<line x1="2164.4" y1="1522.9" x2="2179.1" y2="1497.4"/>
<polygon points="2025.565060 1644.661423 2022.531382 1617.884766 2014.803975 1619.955318 " />
<line x1="2018.7" y1="1618.9" x2="2047.1" y2="1626.5"/>
<line x1="1970.1" y1="1480.9" x2="1969.7" y2="1481.6"/>
<line x1="1966.9" y1="1478.6" x2="1966.1" y2="1480.0"/>
<line x1="1963.6" y1="1476.3" x2="1962.4" y2="1478.3"/>
<line x1="1960.4" y1="1473.9" x2="1958.8" y2="1476.7"/>
<line x1="1957.1" y1="1471.6" x2="1955.1" y2="1475.1"/>
<line x1="1953.9" y1="1469.3" x2="1951.5" y2="1473.4"/>
<line x1="1950.6" y1="1466.9" x2="1947.8" y2="1471.8"/>
<line x1="1947.9" y1="1468.6" x2="1973.3" y2="1453.8"/>
<line x1="1916.8" y1="1357.2" x2="1916.2" y2="1357.7"/>
<line x1="1914.2" y1="1354.1" x2="1913.1" y2="1355.2"/>
<line x1="1911.7" y1="1351.0" x2="1910.0" y2="1352.7"/>
<line x1="1909.2" y1="1347.9" x2="1906.9" y2="1350.1"/>
<line x1="1906.7" y1="1344.8" x2="1903.8" y2="1347.6"/>
<line x1="1904.1" y1="1341.7" x2="1900.7" y2="1345.1"/>
<line x1="1901.6" y1="1338.6" x2="1897.6" y2="1342.5"/>
<line x1="1898.5" y1="1339.4" x2="1926.9" y2="1331.8"/>
<line x1="2142.3" y1="1480.8" x2="2143.0" y2="1481.2"/>
<line x1="2140.0" y1="1484.0" x2="2141.4" y2="1484.8"/>
<line x1="2137.7" y1="1487.2" x2="2139.7" y2="1488.4"/>
<line x1="2135.3" y1="1490.5" x2="2138.1" y2="1492.1"/>
<line x1="2133.0" y1="1493.7" x2="2136.5" y2="1495.7"/>
<line x1="2130.7" y1="1497.0" x2="2134.8" y2="1499.4"/>
<line x1="2128.3" y1="1500.2" x2="2133.2" y2="1503.0"/>
<line x1="2130.0" y1="1503.0" x2="2115.2" y2="1477.5"/>
<line x1="2082.4" y1="1501.0" x2="2083.1" y2="1500.6"/>
<line x1="2084.1" y1="1504.7" x2="2085.5" y2="1503.9"/>
<line x1="2085.7" y1="1508.3" x2="2087.8" y2="1507.1"/>
<line x1="2087.4" y1="1512.0" x2="2090.1" y2="1510.4"/>
<line x1="2089.0" y1="1515.6" x2="2092.5" y2="1513.6"/>
<line x1="2090.6" y1="1519.3" x2="2094.8" y2="1516.9"/>
<line x1="2092.3" y1="1522.9" x2="2097.1" y2="1520.1"/>
<line x1="2095.5" y1="1522.9" x2="2066.1" y2="1522.9"/>
<line x1="2018.6" y1="1534.1" x2="2019.1" y2="1534.7"/>
<line x1="2015.5" y1="1536.6" x2="2016.6" y2="1537.8"/>
<line x1="2012.4" y1="1539.2" x2="2014.1" y2="1540.8"/>
<line x1="2009.3" y1="1541.7" x2="2011.5" y2="1543.9"/>
<line x1="2006.2" y1="1544.2" x2="2009.0" y2="1547.0"/>
<line x1="2003.1" y1="1546.7" x2="2006.5" y2="1550.1"/>
<line x1="2000.0" y1="1549.3" x2="2003.9" y2="1553.2"/>
<line x1="2000.8" y1="1552.4" x2="1993.2" y2="1523.9"/>
<polygon points="1863.467099 1393.309610 1874.228185 1368.603506 1866.500778 1366.532954 " />
<line x1="1870.4" y1="1367.6" x2="1891.2" y2="1388.4"/>
<polygon points="1927.970533 1529.655817 1931.970533 1503.006379 1923.970533 1503.006379 " />
<line x1="1928.0" y1="1503.0" x2="1953.5" y2="1517.7"/>
<line x1="2053.7" y1="1586.7" x2="2053.4" y2="1587.5"/>
<line x1="2049.9" y1="1585.3" x2="2049.5" y2="1586.8"/>
<line x1="2046.2" y1="1583.9" x2="2045.6" y2="1586.2"/>
<line x1="2042.4" y1="1582.5" x2="2041.6" y2="1585.5"/>
<line x1="2038.7" y1="1581.0" x2="2037.7" y2="1584.9"/>
<line x1="2035.0" y1="1579.6" x2="2033.7" y2="1584.3"/>
<line x1="2031.2" y1="1578.2" x2="2029.8" y2="1583.6"/>
<line x1="2029.0" y1="1580.5" x2="2049.8" y2="1559.7"/>
<line x1="1863.0" y1="1437.8" x2="1862.9" y2="1437.0"/>
<line x1="1867.0" y1="1437.7" x2="1866.8" y2="1436.1"/>
<line x1="1871.0" y1="1437.6" x2="1870.7" y2="1435.2"/>
<line x1="1875.0" y1="1437.5" x2="1874.6" y2="1434.3"/>
<line x1="1879.0" y1="1437.3" x2="1878.5" y2="1433.4"/>
<line x1="1883.0" y1="1437.2" x2="1882.4" y2="1432.5"/>
<line x1="1887.0" y1="1437.1" x2="1886.3" y2="1431.5"/>
<line x1="1888.2" y1="1434.1" x2="1895.8" y2="1405.7"/>
<line x1="1824.5" y1="1287.8" x2="1824.6" y2="1287.0"/>
<line x1="1828.4" y1="1288.7" x2="1828.6" y2="1287.1"/>
<line x1="1832.3" y1="1289.6" x2="1832.6" y2="1287.3"/>
<line x1="1836.2" y1="1290.5" x2="1836.6" y2="1287.4"/>
<line x1="1840.0" y1="1291.5" x2="1840.6" y2="1287.5"/>
<line x1="1843.9" y1="1292.4" x2="1844.6" y2="1287.6"/>
<line x1="1847.8" y1="1293.3" x2="1848.6" y2="1287.7"/>
<line x1="1849.8" y1="1290.7" x2="1879.2" y2="1239.7"/>
<polygon points="2098.986070 1589.090749 2099.473400 1562.147196 2091.541841 1563.191405 " />
<line x1="2095.5" y1="1562.7" x2="2067.1" y2="1555.1"/>
<line x1="1939.1" y1="1572.8" x2="1938.7" y2="1572.0"/>
<line x1="1942.9" y1="1571.6" x2="1942.3" y2="1570.1"/>
<line x1="1946.7" y1="1570.5" x2="1945.8" y2="1568.3"/>
<line x1="1950.5" y1="1569.3" x2="1949.3" y2="1566.4"/>
<line x1="1954.4" y1="1568.2" x2="1952.8" y2="1564.5"/>
<line x1="1958.2" y1="1567.0" x2="1956.4" y2="1562.6"/>
<line x1="1962.0" y1="1565.9" x2="1959.9" y2="1560.7"/>
<line x1="1962.4" y1="1562.7" x2="1962.4" y2="1533.2"/>
<line x1="1929.3" y1="1112.9" x2="1929.3" y2="1131.9"/>
<line x1="1958.8" y1="1145.3" x2="1939.7" y2="1145.3"/>
<line x1="1958.8" y1="1139.3" x2="1939.7" y2="1139.3"/>
<line x1="1958.8" y1="1221.8" x2="1939.7" y2="1221.8"/>
<line x1="1926.3" y1="1251.3" x2="1926.3" y2="1232.2"/>
<line x1="1932.3" y1="1251.3" x2="1932.3" y2="1232.2"/>
<line x1="1899.9" y1="1142.3" x2="1919.0" y2="1142.3"/>
<line x1="1899.9" y1="1221.8" x2="1919.0" y2="1221.8"/>
<line x1="1929.3" y1="1171.7" x2="1929.3" y2="1152.6"/>
<line x1="1929.3" y1="1192.4" x2="1929.3" y2="1211.5"/>
<line x1="2130.0" y1="1503.0" x2="2095.5" y2="1522.9"/>
<line x1="2095.5" y1="1522.9" x2="2095.5" y2="1562.7"/>
<line x1="2095.5" y1="1562.7" x2="2121.0" y2="1577.4"/>
<line x1="2138.9" y1="1577.4" x2="2164.4" y2="1562.7"/>
<line x1="2164.4" y1="1562.7" x2="2164.4" y2="1522.9"/>
<line x1="2164.4" y1="1522.9" x2="2130.0" y2="1503.0"/>
<line x1="2000.8" y1="1552.4" x2="1962.4" y2="1562.7"/>
<line x1="1962.4" y1="1562.7" x2="1954.8" y2="1591.1"/>
<line x1="1959.4" y1="1608.4" x2="1980.2" y2="1629.2"/>
<line x1="1980.2" y1="1629.2" x2="2018.7" y2="1618.9"/>
<line x1="2018.7" y1="1618.9" x2="2029.0" y2="1580.5"/>
<line x1="2029.0" y1="1580.5" x2="2000.8" y2="1552.4"/>
<line x1="1928.0" y1="1434.1" x2="1888.2" y2="1434.1"/>
<line x1="1888.2" y1="1434.1" x2="1873.5" y2="1459.6"/>
<line x1="1873.5" y1="1477.5" x2="1888.2" y2="1503.0"/>
<line x1="1888.2" y1="1503.0" x2="1928.0" y2="1503.0"/>
<line x1="1928.0" y1="1503.0" x2="1947.9" y2="1468.6"/>
<line x1="1947.9" y1="1468.6" x2="1928.0" y2="1434.1"/>
<line x1="1888.2" y1="1301.0" x2="1849.8" y2="1290.7"/>
<line x1="1849.8" y1="1290.7" x2="1829.0" y2="1311.5"/>
<line x1="1824.3" y1="1328.8" x2="1831.9" y2="1357.3"/>
<line x1="1831.9" y1="1357.3" x2="1870.4" y2="1367.6"/>
<line x1="1870.4" y1="1367.6" x2="1898.5" y2="1339.4"/>
<line x1="1898.5" y1="1339.4" x2="1888.2" y2="1301.0"/>
<text x="93.662921" y="48.320000" fill="rgb(102,102,102)"  stroke="rgb(102,102,102)" stroke-width="1" font-size="16" >CH</text>
<text x="117.662921" y="56.000000" fill="rgb(102,102,102)"  stroke="rgb(102,102,102)" stroke-width="1" font-size="13" >3</text>
<text x="16.400000" y="79.246404" fill="rgb(102,102,102)"  stroke="rgb(102,102,102)" stroke-width="1" font-size="16" >H</text>
<text x="28.400000" y="84.046404" fill="rgb(102,102,102)"  stroke="rgb(102,102,102)" stroke-width="1" font-size="13" >3</text>
<text x="34.900000" y="79.246404" fill="rgb(102,102,102)"  stroke="rgb(102,102,102)" stroke-width="1" font-size="16" >C</text>
<text x="153.325843" y="151.659211" fill="rgb(102,102,102)"  stroke="rgb(102,102,102)" stroke-width="1" font-size="16" >CH</text>
<text x="177.325843" y="159.339211" fill="rgb(102,102,102)"  stroke="rgb(102,102,102)" stroke-width="1" font-size="13" >3</text>
<text x="272.651685" y="220.552019" fill="rgb(102,102,102)"  stroke="rgb(102,102,102)" stroke-width="1" font-size="16" >CH</text>
<text x="296.651685" y="228.232019" fill="rgb(102,102,102)"  stroke="rgb(102,102,102)" stroke-width="1" font-size="13" >3</text>
<text x="391.977528" y="289.444826" fill="rgb(102,102,102)"  stroke="rgb(102,102,102)" stroke-width="1" font-size="16" >CH</text>
<text x="415.977528" y="297.124826" fill="rgb(102,102,102)"  stroke="rgb(102,102,102)" stroke-width="1" font-size="13" >3</text>
<text x="511.303371" y="358.337633" fill="rgb(102,102,102)"  stroke="rgb(102,102,102)" stroke-width="1" font-size="16" >CH</text>
<text x="535.303371" y="366.017633" fill="rgb(102,102,102)"  stroke="rgb(102,102,102)" stroke-width="1" font-size="13" >3</text>
<text x="630.629213" y="427.230441" fill="rgb(102,102,102)"  stroke="rgb(102,102,102)" stroke-width="1" font-size="16" >CH</text>
<text x="654.629213" y="434.910441" fill="rgb(102,102,102)"  stroke="rgb(102,102,102)" stroke-width="1" font-size="13" >3</text>
<text x="749.955056" y="496.123248" fill="rgb(102,102,102)"  stroke="rgb(102,102,102)" stroke-width="1" font-size="16" >CH</text>
<text x="773.955056" y="503.803248" fill="rgb(102,102,102)"  stroke="rgb(102,102,102)" stroke-width="1" font-size="13" >3</text>
<text x="869.280899" y="565.016056" fill="rgb(102,102,102)"  stroke="rgb(102,102,102)" stroke-width="1" font-size="16" >CH</text>
<text x="893.280899" y="572.696056" fill="rgb(102,102,102)"  stroke="rgb(102,102,102)" stroke-width="1" font-size="13" >3</text>
<text x="988.606742" y="633.908863" fill="rgb(102,102,102)"  stroke="rgb(102,102,102)" stroke-width="1" font-size="16" >CH</text>
<text x="1012.606742" y="641.588863" fill="rgb(102,102,102)"  stroke="rgb(102,102,102)" stroke-width="1" font-size="13" >3</text>
<text x="1107.932584" y="702.801670" fill="rgb(102,102,102)"  stroke="rgb(102,102,102)" stroke-width="1" font-size="16" >CH</text>
<text x="1131.932584" y="710.481670" fill="rgb(102,102,102)"  stroke="rgb(102,102,102)" stroke-width="1" font-size="13" >3</text>
<text x="1227.258427" y="771.694478" fill="rgb(102,102,102)"  stroke="rgb(102,102,102)" stroke-width="1" font-size="16" >CH</text>
<text x="1251.258427" y="779.374478" fill="rgb(102,102,102)"  stroke="rgb(102,102,102)" stroke-width="1" font-size="13" >3</text>
<text x="1346.584270" y="840.587285" fill="rgb(102,102,102)"  stroke="rgb(102,102,102)" stroke-width="1" font-size="16" >CH</text>
<text x="1370.584270" y="848.267285" fill="rgb(102,102,102)"  stroke="rgb(102,102,102)" stroke-width="1" font-size="13" >3</text>
<text x="1465.910112" y="909.480093" fill="rgb(102,102,102)"  stroke="rgb(102,102,102)" stroke-width="1" font-size="16" >CH</text>
<text x="1489.910112" y="917.160093" fill="rgb(102,102,102)"  stroke="rgb(102,102,102)" stroke-width="1" font-size="13" >3</text>
<text x="1585.235955" y="978.372900" fill="rgb(102,102,102)"  stroke="rgb(102,102,102)" stroke-width="1" font-size="16" >CH</text>
<text x="1609.235955" y="986.052900" fill="rgb(102,102,102)"  stroke="rgb(102,102,102)" stroke-width="1" font-size="13" >3</text>
<text x="1704.561798" y="1047.265707" fill="rgb(102,102,102)"  stroke="rgb(102,102,102)" stroke-width="1" font-size="16" >CH</text>
<text x="1728.561798" y="1054.945707" fill="rgb(102,102,102)"  stroke="rgb(102,102,102)" stroke-width="1" font-size="13" >3</text>
<text x="1838.446404" y="1166.972559" fill="rgb(102,102,102)"  stroke="rgb(102,102,102)" stroke-width="1" font-size="16" >CH</text>
<text x="1862.446404" y="1171.772559" fill="rgb(102,102,102)"  stroke="rgb(102,102,102)" stroke-width="1" font-size="13" >3</text>
<text x="1990.863340" y="1399.138291" fill="rgb(102,102,102)"  stroke="rgb(102,102,102)" stroke-width="1" font-size="16" >CH</text>
<text x="2014.863340" y="1403.938291" fill="rgb(102,102,102)"  stroke="rgb(102,102,102)" stroke-width="1" font-size="13" >3</text>
<text x="1808.344510" y="1249.572146" fill="rgb(102,102,102)"  stroke="rgb(102,102,102)" stroke-width="1" font-size="16" >H</text>
<text x="1820.344510" y="1254.372146" fill="rgb(102,102,102)"  stroke="rgb(102,102,102)" stroke-width="1" font-size="13" >3</text>
<text x="1826.844510" y="1249.572146" fill="rgb(102,102,102)"  stroke="rgb(102,102,102)" stroke-width="1" font-size="16" >C</text>
<text x="1924.370533" y="1402.658291" fill="rgb(12,12,255)"  stroke="rgb(12,12,255)" stroke-width="1" font-size="16" >N</text>
<text x="1892.489852" y="1270.922917" fill="rgb(12,12,255)"  stroke="rgb(12,12,255)" stroke-width="1" font-size="16" >N</text>
<text x="2218.063349" y="1601.915704" fill="rgb(255,12,12)"  stroke="rgb(255,12,12)" stroke-width="1" font-size="16" >OH</text>
<text x="1946.816937" y="1700.559984" fill="rgb(255,12,12)"  stroke="rgb(255,12,12)" stroke-width="1" font-size="16" >HO</text>
<text x="1838.148848" y="1567.469300" fill="rgb(255,12,12)"  stroke="rgb(255,12,12)" stroke-width="1" font-size="16" >HO</text>
<text x="1767.629939" y="1410.788201" fill="rgb(255,12,12)"  stroke="rgb(255,12,12)" stroke-width="1" font-size="16" >HO</text>
<text x="1957.616937" y="1328.275369" fill="rgb(255,12,12)"  stroke="rgb(255,12,12)" stroke-width="1" font-size="32" >-</text>
<text x="1956.416937" y="1342.995369" fill="rgb(255,12,12)"  stroke="rgb(255,12,12)" stroke-width="1" font-size="16" >O</text>
<text x="1875.859082" y="1189.657575" fill="rgb(255,12,12)"  stroke="rgb(255,12,12)" stroke-width="1" font-size="32" >-</text>
<text x="1874.659082" y="1204.377575" fill="rgb(255,12,12)"  stroke="rgb(255,12,12)" stroke-width="1" font-size="16" >O</text>
<text x="2178.288068" y="1496.767616" fill="rgb(255,12,12)"  stroke="rgb(255,12,12)" stroke-width="1" font-size="16" >OH</text>
<text x="2051.087649" y="1634.014642" fill="rgb(255,12,12)"  stroke="rgb(255,12,12)" stroke-width="1" font-size="16" >OH</text>
<text x="1976.304577" y="1456.992335" fill="rgb(255,12,12)"  stroke="rgb(255,12,12)" stroke-width="1" font-size="16" >OH</text>
<text x="1930.909823" y="1337.468259" fill="rgb(255,12,12)"  stroke="rgb(255,12,12)" stroke-width="1" font-size="16" >OH</text>
<text x="2094.466384" y="1476.879975" fill="rgb(255,12,12)"  stroke="rgb(255,12,12)" stroke-width="1" font-size="16" >HO</text>
<text x="2040.132339" y="1527.694020" fill="rgb(255,12,12)"  stroke="rgb(255,12,12)" stroke-width="1" font-size="16" >HO</text>
<text x="1974.942307" y="1522.274729" fill="rgb(255,12,12)"  stroke="rgb(255,12,12)" stroke-width="1" font-size="16" >HO</text>
<text x="1923.325843" y="1110.829638" fill="rgb(255,12,12)"  stroke="rgb(255,12,12)" stroke-width="1" font-size="16" >OH</text>
<text x="1963.101124" y="1150.604918" fill="rgb(255,12,12)"  stroke="rgb(255,12,12)" stroke-width="1" font-size="16" >O</text>
<text x="1963.101124" y="1230.155480" fill="rgb(255,12,12)"  stroke="rgb(255,12,12)" stroke-width="1" font-size="16" >OH</text>
<text x="1923.325843" y="1266.410761" fill="rgb(255,12,12)"  stroke="rgb(255,12,12)" stroke-width="1" font-size="16" >O</text>
<text x="1885.950562" y="1147.084918" fill="rgb(255,12,12)"  stroke="rgb(255,12,12)" stroke-width="1" font-size="16" >O</text>
<text x="2123.954024" y="1587.356941" fill="rgb(255,12,12)"  stroke="rgb(255,12,12)" stroke-width="1" font-size="16" >O</text>
<text x="1948.522336" y="1605.889272" fill="rgb(255,12,12)"  stroke="rgb(255,12,12)" stroke-width="1" font-size="16" >O</text>
<text x="1864.707612" y="1473.359975" fill="rgb(255,12,12)"  stroke="rgb(255,12,12)" stroke-width="1" font-size="16" >O</text>
<text x="1818.049910" y="1327.173658" fill="rgb(255,12,12)"  stroke="rgb(255,12,12)" stroke-width="1" font-size="16" >O</text>
<text x="1892.489852" y="1404.013601" fill="rgb(255,12,12)"  stroke="rgb(255,12,12)" stroke-width="1" font-size="16" >O</text>
<text x="1956.416937" y="1531.214020" fill="rgb(255,12,12)"  stroke="rgb(255,12,12)" stroke-width="1" font-size="16" >O</text>
<text x="2053.487649" y="1560.694700" fill="rgb(255,12,12)"  stroke="rgb(255,12,12)" stroke-width="1" font-size="16" >O</text>
<text x="1883.550562" y="1230.155480" fill="rgb(255,12,12)"  stroke="rgb(255,12,12)" stroke-width="1" font-size="16" >O</text>
<text x="1923.325843" y="1186.860199" fill="rgb(255,12,12)"  stroke="rgb(255,12,12)" stroke-width="1" font-size="16" >O</text>
<text x="1923.325843" y="1147.084918" fill="rgb(255,127,0)"  stroke="rgb(255,127,0)" stroke-width="1" font-size="16" >P</text>
<text x="1923.325843" y="1230.155480" fill="rgb(255,127,0)"  stroke="rgb(255,127,0)" stroke-width="1" font-size="16" >P</text>
<text x="135.838202" y="251.478422" fill="rgb(191,191,191)"  stroke="rgb(191,191,191)" stroke-width="1" font-size="16" >H</text>
<text x="255.164045" y="320.371230" fill="rgb(191,191,191)"  stroke="rgb(191,191,191)" stroke-width="1" font-size="16" >H</text>
<text x="374.489888" y="389.264037" fill="rgb(191,191,191)"  stroke="rgb(191,191,191)" stroke-width="1" font-size="16" >H</text>
<text x="493.815730" y="458.156844" fill="rgb(191,191,191)"  stroke="rgb(191,191,191)" stroke-width="1" font-size="16" >H</text>
<text x="613.141573" y="527.049652" fill="rgb(191,191,191)"  stroke="rgb(191,191,191)" stroke-width="1" font-size="16" >H</text>
<text x="732.467416" y="595.942459" fill="rgb(191,191,191)"  stroke="rgb(191,191,191)" stroke-width="1" font-size="16" >H</text>
<text x="851.793258" y="664.835267" fill="rgb(191,191,191)"  stroke="rgb(191,191,191)" stroke-width="1" font-size="16" >H</text>
<text x="971.119101" y="733.728074" fill="rgb(191,191,191)"  stroke="rgb(191,191,191)" stroke-width="1" font-size="16" >H</text>
<text x="1090.444944" y="802.620881" fill="rgb(191,191,191)"  stroke="rgb(191,191,191)" stroke-width="1" font-size="16" >H</text>
<text x="1209.770787" y="871.513689" fill="rgb(191,191,191)"  stroke="rgb(191,191,191)" stroke-width="1" font-size="16" >H</text>
<text x="1329.096629" y="940.406496" fill="rgb(191,191,191)"  stroke="rgb(191,191,191)" stroke-width="1" font-size="16" >H</text>
<text x="1448.422472" y="1009.299304" fill="rgb(191,191,191)"  stroke="rgb(191,191,191)" stroke-width="1" font-size="16" >H</text>
<text x="1567.748315" y="1078.192111" fill="rgb(191,191,191)"  stroke="rgb(191,191,191)" stroke-width="1" font-size="16" >H</text>
<text x="1687.074157" y="1147.084918" fill="rgb(191,191,191)"  stroke="rgb(191,191,191)" stroke-width="1" font-size="16" >H</text>
<text x="1804.000000" y="1186.860199" fill="rgb(191,191,191)"  stroke="rgb(191,191,191)" stroke-width="1" font-size="16" >H</text>
<text x="2178.288068" y="1601.915704" fill="rgb(191,191,191)"  stroke="rgb(191,191,191)" stroke-width="1" font-size="16" >H</text>
<text x="1948.522336" y="1662.140013" fill="rgb(191,191,191)"  stroke="rgb(191,191,191)" stroke-width="1" font-size="16" >H</text>
<text x="1850.148848" y="1527.694020" fill="rgb(191,191,191)"  stroke="rgb(191,191,191)" stroke-width="1" font-size="16" >H</text>
<text x="1789.924539" y="1372.368230" fill="rgb(191,191,191)"  stroke="rgb(191,191,191)" stroke-width="1" font-size="16" >H</text>
<text x="1956.416937" y="1422.545931" fill="rgb(191,191,191)"  stroke="rgb(191,191,191)" stroke-width="1" font-size="16" >H</text>
<text x="1920.615223" y="1299.048288" fill="rgb(191,191,191)"  stroke="rgb(191,191,191)" stroke-width="1" font-size="16" >H</text>
<text x="2198.175709" y="1531.214020" fill="rgb(191,191,191)"  stroke="rgb(191,191,191)" stroke-width="1" font-size="16" >H</text>
<text x="2022.962278" y="1662.140013" fill="rgb(191,191,191)"  stroke="rgb(191,191,191)" stroke-width="1" font-size="16" >H</text>
<text x="1976.304577" y="1493.247616" fill="rgb(191,191,191)"  stroke="rgb(191,191,191)" stroke-width="1" font-size="16" >H</text>
<text x="1920.615223" y="1372.368230" fill="rgb(191,191,191)"  stroke="rgb(191,191,191)" stroke-width="1" font-size="16" >H</text>
<text x="2143.841665" y="1476.879975" fill="rgb(191,191,191)"  stroke="rgb(191,191,191)" stroke-width="1" font-size="16" >H</text>
<text x="2072.019980" y="1496.767616" fill="rgb(191,191,191)"  stroke="rgb(191,191,191)" stroke-width="1" font-size="16" >H</text>
<text x="2022.962278" y="1532.569329" fill="rgb(191,191,191)"  stroke="rgb(191,191,191)" stroke-width="1" font-size="16" >H</text>
<text x="1856.469881" y="1410.788201" fill="rgb(191,191,191)"  stroke="rgb(191,191,191)" stroke-width="1" font-size="16" >H</text>
<text x="1921.970533" y="1547.581660" fill="rgb(191,191,191)"  stroke="rgb(191,191,191)" stroke-width="1" font-size="16" >H</text>
<text x="2061.382250" y="1595.594671" fill="rgb(191,191,191)"  stroke="rgb(191,191,191)" stroke-width="1" font-size="16" >H</text>
<text x="1845.160254" y="1444.105288" fill="rgb(191,191,191)"  stroke="rgb(191,191,191)" stroke-width="1" font-size="16" >H</text>
<text x="1806.740283" y="1293.856572" fill="rgb(191,191,191)"  stroke="rgb(191,191,191)" stroke-width="1" font-size="16" >H</text>
<text x="2094.699336" y="1606.904298" fill="rgb(191,191,191)"  stroke="rgb(191,191,191)" stroke-width="1" font-size="16" >H</text>
<text x="1922.069369" y="1582.690641" fill="rgb(191,191,191)"  stroke="rgb(191,191,191)" stroke-width="1" font-size="16" >H</text>
<text font-size="18.000000" fill ="black" font-family="sans-serif"
x="140.000000" y="20.000000" ></text>
<title> - OBDepict</title>
</svg>
