<?xml version="1.0"?>
<svg xmlns="http://www.w3.org/2000/svg"
xmlns:xlink="http://www.w3.org/1999/xlink" xmlns:cml="http://www.xml-cml.org/schema" width="358.954" height="337.911" x="0" y="0" font-family="sans-serif" stroke="rgb(0,0,0)" stroke-width="1" >
<line x1="174.6" y1="62.2" x2="202.6" y2="84.9"/>
<polygon points="234.671953 235.863225 202.709362 243.674326 205.539195 251.157110 " />
<line x1="202.6" y1="84.9" x2="230.4" y2="62.0"/>
<line x1="166.4" y1="117.6" x2="135.1" y2="99.6"/>
<line x1="115.7" y1="210.1" x2="115.7" y2="174.1"/>
<line x1="115.7" y1="210.1" x2="146.9" y2="192.1"/>
<line x1="88.7" y1="210.1" x2="52.7" y2="211.8"/>
<polygon points="98.073268 284.359476 119.039954 259.001665 112.300518 254.691212 " />
<line x1="288.8" y1="188.0" x2="288.4" y2="188.7"/>
<line x1="280.6" y1="182.8" x2="279.8" y2="184.1"/>
<line x1="272.4" y1="177.5" x2="271.2" y2="179.6"/>
<line x1="264.1" y1="172.3" x2="262.5" y2="175.0"/>
<line x1="255.9" y1="167.0" x2="253.9" y2="170.5"/>
<line x1="247.7" y1="161.8" x2="245.3" y2="165.9"/>
<line x1="239.5" y1="156.5" x2="236.6" y2="161.4"/>
<line x1="188.0" y1="247.1" x2="216.2" y2="224.6"/>
<line x1="258.7" y1="234.7" x2="275.9" y2="266.3"/>
<line x1="142.9" y1="249.5" x2="114.7" y2="227.0"/>
<line x1="146.6" y1="244.8" x2="118.4" y2="222.3"/>
<line x1="264.2" y1="189.8" x2="291.2" y2="165.9"/>
<line x1="268.2" y1="194.3" x2="295.2" y2="170.4"/>
<line x1="85.7" y1="137.0" x2="132.5" y2="137.0"/>
<line x1="157.9" y1="100.9" x2="157.9" y2="124.3"/>
<line x1="194.0" y1="140.0" x2="170.6" y2="140.0"/>
<line x1="194.0" y1="134.0" x2="170.6" y2="134.0"/>
<line x1="103.1" y1="65.0" x2="111.3" y2="111.0"/>
<line x1="82.8" y1="120.9" x2="104.8" y2="128.9"/>
<line x1="80.7" y1="126.5" x2="102.7" y2="134.5"/>
<line x1="157.9" y1="173.1" x2="157.9" y2="149.7"/>
<line x1="202.6" y1="84.9" x2="166.4" y2="117.6"/>
<line x1="166.4" y1="117.6" x2="186.2" y2="162.1"/>
<line x1="186.2" y1="162.1" x2="234.7" y2="157.0"/>
<line x1="234.7" y1="157.0" x2="242.2" y2="121.7"/>
<line x1="233.8" y1="103.0" x2="202.6" y2="84.9"/>
<line x1="115.7" y1="210.1" x2="129.2" y2="233.5"/>
<line x1="129.2" y1="233.5" x2="115.7" y2="256.8"/>
<line x1="115.7" y1="256.8" x2="102.6" y2="241.3"/>
<line x1="95.6" y1="229.2" x2="88.7" y2="210.1"/>
<line x1="88.7" y1="210.1" x2="115.7" y2="210.1"/>
<line x1="193.3" y1="270.5" x2="166.4" y2="275.3"/>
<line x1="186.2" y1="264.5" x2="171.0" y2="267.2"/>
<line x1="166.4" y1="275.3" x2="146.4" y2="271.8"/>
<line x1="140.8" y1="264.5" x2="144.7" y2="247.1"/>
<line x1="144.7" y1="247.1" x2="160.7" y2="239.4"/>
<line x1="172.0" y1="239.4" x2="188.0" y2="247.1"/>
<line x1="172.1" y1="247.5" x2="179.5" y2="251.0"/>
<line x1="188.0" y1="247.1" x2="193.3" y2="270.5"/>
<line x1="244.0" y1="210.1" x2="234.7" y2="235.9"/>
<line x1="234.7" y1="235.9" x2="258.7" y2="234.7"/>
<line x1="258.7" y1="234.7" x2="269.0" y2="220.2"/>
<line x1="256.3" y1="225.6" x2="261.1" y2="219.0"/>
<line x1="271.0" y1="209.2" x2="266.2" y2="192.1"/>
<line x1="266.2" y1="192.1" x2="249.8" y2="185.2"/>
<line x1="244.0" y1="189.9" x2="244.0" y2="210.1"/>
<line x1="217.1" y1="256.8" x2="193.3" y2="270.5"/>
<line x1="133.2" y1="267.0" x2="115.7" y2="256.8"/>
<line x1="88.7" y1="210.1" x2="88.7" y2="182.7"/>
<line x1="88.7" y1="182.7" x2="95.6" y2="163.7"/>
<line x1="102.6" y1="151.5" x2="111.1" y2="141.5"/>
<line x1="121.8" y1="132.4" x2="133.2" y2="125.9"/>
<line x1="146.4" y1="121.1" x2="166.4" y2="117.6"/>
<line x1="234.7" y1="157.0" x2="241.6" y2="176.0"/>
<line x1="234.7" y1="235.9" x2="217.1" y2="256.8"/>
<text x="141.110206" y="62.583593" fill="rgb(102,102,102)"  stroke="rgb(102,102,102)" stroke-width="1" font-size="16" >H</text>
<text x="153.110206" y="70.263593" fill="rgb(102,102,102)"  stroke="rgb(102,102,102)" stroke-width="1" font-size="13" >3</text>
<text x="159.610206" y="62.583593" fill="rgb(102,102,102)"  stroke="rgb(102,102,102)" stroke-width="1" font-size="16" >C</text>
<text x="165.478409" y="257.905752" fill="rgb(102,102,102)"  stroke="rgb(102,102,102)" stroke-width="1" font-size="16" >H</text>
<text x="177.478409" y="262.705752" fill="rgb(102,102,102)"  stroke="rgb(102,102,102)" stroke-width="1" font-size="13" >3</text>
<text x="183.978409" y="257.905752" fill="rgb(102,102,102)"  stroke="rgb(102,102,102)" stroke-width="1" font-size="16" >C</text>
<text x="160.367591" y="245.036052" fill="rgb(12,12,255)"  stroke="rgb(12,12,255)" stroke-width="1" font-size="16" >N</text>
<text x="266.668510" y="219.971403" fill="rgb(12,12,255)"  stroke="rgb(12,12,255)" stroke-width="1" font-size="16" >N</text>
<text x="135.792092" y="275.342259" fill="rgb(12,12,255)"  stroke="rgb(12,12,255)" stroke-width="1" font-size="16" >N</text>
<text x="240.440446" y="191.051864" fill="rgb(12,12,255)"  stroke="rgb(12,12,255)" stroke-width="1" font-size="16" >N</text>
<text x="220.110646" y="225.061781" fill="rgb(255,12,12)"  stroke="rgb(255,12,12)" stroke-width="1" font-size="16" >OH</text>
<text x="275.965055" y="282.275323" fill="rgb(255,12,12)"  stroke="rgb(255,12,12)" stroke-width="1" font-size="16" >OH</text>
<text x="103.024537" y="225.061781" fill="rgb(255,12,12)"  stroke="rgb(255,12,12)" stroke-width="1" font-size="16" >O</text>
<text x="296.713600" y="168.124476" fill="rgb(255,12,12)"  stroke="rgb(255,12,12)" stroke-width="1" font-size="16" >O</text>
<text x="44.794633" y="145.325988" fill="rgb(255,12,12)"  stroke="rgb(255,12,12)" stroke-width="1" font-size="16" >HO</text>
<text x="151.884653" y="96.580978" fill="rgb(255,12,12)"  stroke="rgb(255,12,12)" stroke-width="1" font-size="16" >OH</text>
<text x="200.629664" y="141.805988" fill="rgb(255,12,12)"  stroke="rgb(255,12,12)" stroke-width="1" font-size="16" >O</text>
<text x="83.141272" y="48.320000" fill="rgb(255,12,12)"  stroke="rgb(255,12,12)" stroke-width="1" font-size="16" >HO</text>
<text x="66.264910" y="127.657153" fill="rgb(255,12,12)"  stroke="rgb(255,12,12)" stroke-width="1" font-size="16" >O</text>
<text x="94.463229" y="165.312142" fill="rgb(255,12,12)"  stroke="rgb(255,12,12)" stroke-width="1" font-size="16" >O</text>
<text x="238.806611" y="117.632327" fill="rgb(255,12,12)"  stroke="rgb(255,12,12)" stroke-width="1" font-size="16" >O</text>
<text x="94.463229" y="240.663225" fill="rgb(255,12,12)"  stroke="rgb(255,12,12)" stroke-width="1" font-size="16" >O</text>
<text x="151.884653" y="190.550998" fill="rgb(255,12,12)"  stroke="rgb(255,12,12)" stroke-width="1" font-size="16" >O</text>
<text x="135.792092" y="130.633108" fill="rgb(255,12,12)"  stroke="rgb(255,12,12)" stroke-width="1" font-size="16" >O</text>
<text x="151.884653" y="145.325988" fill="rgb(255,127,0)"  stroke="rgb(255,127,0)" stroke-width="1" font-size="16" >P</text>
<text x="109.670236" y="140.808928" fill="rgb(255,127,0)"  stroke="rgb(255,127,0)" stroke-width="1" font-size="16" >P</text>
<text x="234.191628" y="62.237917" fill="rgb(191,191,191)"  stroke="rgb(191,191,191)" stroke-width="1" font-size="16" >H</text>
<text x="120.480168" y="101.630984" fill="rgb(191,191,191)"  stroke="rgb(191,191,191)" stroke-width="1" font-size="16" >H</text>
<text x="109.670236" y="169.698493" fill="rgb(191,191,191)"  stroke="rgb(191,191,191)" stroke-width="1" font-size="16" >H</text>
<text x="36.400000" y="217.136791" fill="rgb(191,191,191)"  stroke="rgb(191,191,191)" stroke-width="1" font-size="16" >H</text>
<text x="85.806104" y="302.710674" fill="rgb(191,191,191)"  stroke="rgb(191,191,191)" stroke-width="1" font-size="16" >H</text>
<text x="312.954015" y="210.790491" fill="rgb(191,191,191)"  stroke="rgb(191,191,191)" stroke-width="1" font-size="16" >H</text>
<text font-size="18.000000" fill ="black" font-family="sans-serif"
x="140.000000" y="20.000000" ></text>
<title> - OBDepict</title>
</svg>
