<?xml version="1.0"?>
<svg xmlns="http://www.w3.org/2000/svg"
xmlns:xlink="http://www.w3.org/1999/xlink" xmlns:cml="http://www.xml-cml.org/schema" width="1436.89" height="1432.43" x="0" y="0" font-family="sans-serif" stroke="rgb(0,0,0)" stroke-width="1" >
<line x1="94.4" y1="1383.5" x2="79.7" y2="1358.1"/>
<line x1="50.3" y1="1358.1" x2="79.7" y2="1358.1"/>
<line x1="153.9" y1="1280.4" x2="139.2" y2="1255.0"/>
<line x1="272.9" y1="1211.7" x2="258.2" y2="1186.3"/>
<line x1="391.9" y1="1143.0" x2="377.3" y2="1117.5"/>
<line x1="511.0" y1="1074.2" x2="496.3" y2="1048.8"/>
<line x1="630.0" y1="1005.5" x2="615.3" y2="980.1"/>
<line x1="749.0" y1="936.8" x2="734.4" y2="911.4"/>
<line x1="868.1" y1="868.1" x2="853.4" y2="842.6"/>
<line x1="987.1" y1="799.3" x2="972.4" y2="773.9"/>
<line x1="1106.1" y1="730.6" x2="1091.5" y2="705.2"/>
<line x1="1225.2" y1="661.9" x2="1210.5" y2="636.5"/>
<line x1="1388.0" y1="321.5" x2="1362.5" y2="336.2"/>
<line x1="1278.3" y1="504.1" x2="1270.7" y2="475.8"/>
<line x1="79.7" y1="1289.3" x2="99.5" y2="1323.7"/>
<line x1="79.7" y1="1289.3" x2="99.5" y2="1255.0"/>
<line x1="198.7" y1="1220.6" x2="159.0" y2="1220.6"/>
<line x1="198.7" y1="1220.6" x2="218.5" y2="1186.3"/>
<line x1="317.7" y1="1151.9" x2="278.1" y2="1151.9"/>
<line x1="317.7" y1="1151.9" x2="337.6" y2="1117.5"/>
<line x1="436.8" y1="1083.2" x2="397.1" y2="1083.2"/>
<line x1="436.8" y1="1083.2" x2="456.6" y2="1048.8"/>
<line x1="555.8" y1="1014.5" x2="516.1" y2="1014.5"/>
<line x1="555.8" y1="1014.5" x2="575.6" y2="980.1"/>
<line x1="674.8" y1="945.7" x2="635.2" y2="945.7"/>
<line x1="674.8" y1="945.7" x2="694.7" y2="911.4"/>
<line x1="793.9" y1="877.0" x2="754.2" y2="877.0"/>
<line x1="793.9" y1="877.0" x2="813.7" y2="842.6"/>
<line x1="912.9" y1="808.3" x2="873.2" y2="808.3"/>
<line x1="912.9" y1="808.3" x2="932.7" y2="773.9"/>
<line x1="1031.9" y1="739.6" x2="992.3" y2="739.6"/>
<line x1="1031.9" y1="739.6" x2="1051.8" y2="705.2"/>
<line x1="1151.0" y1="670.8" x2="1111.3" y2="670.8"/>
<line x1="1151.0" y1="670.8" x2="1170.8" y2="636.5"/>
<line x1="102.1" y1="1325.2" x2="82.3" y2="1359.6"/>
<line x1="96.9" y1="1322.2" x2="77.1" y2="1356.6"/>
<line x1="99.5" y1="1255.0" x2="139.2" y2="1255.0"/>
<line x1="159.0" y1="1220.6" x2="144.4" y2="1195.2"/>
<line x1="161.6" y1="1222.1" x2="141.8" y2="1256.5"/>
<line x1="156.4" y1="1219.1" x2="136.6" y2="1253.5"/>
<line x1="218.5" y1="1186.3" x2="258.2" y2="1186.3"/>
<line x1="278.1" y1="1151.9" x2="263.4" y2="1126.5"/>
<line x1="280.7" y1="1153.4" x2="260.8" y2="1187.8"/>
<line x1="275.5" y1="1150.4" x2="255.6" y2="1184.8"/>
<line x1="337.6" y1="1117.5" x2="377.3" y2="1117.5"/>
<line x1="397.1" y1="1083.2" x2="382.4" y2="1057.7"/>
<line x1="399.7" y1="1084.7" x2="379.9" y2="1119.0"/>
<line x1="394.5" y1="1081.7" x2="374.7" y2="1116.0"/>
<line x1="456.6" y1="1048.8" x2="496.3" y2="1048.8"/>
<line x1="516.1" y1="1014.5" x2="501.4" y2="989.0"/>
<line x1="518.7" y1="1016.0" x2="498.9" y2="1050.3"/>
<line x1="513.5" y1="1013.0" x2="493.7" y2="1047.3"/>
<line x1="575.6" y1="980.1" x2="615.3" y2="980.1"/>
<line x1="635.2" y1="945.7" x2="620.5" y2="920.3"/>
<line x1="637.8" y1="947.2" x2="617.9" y2="981.6"/>
<line x1="632.6" y1="944.2" x2="612.7" y2="978.6"/>
<line x1="694.7" y1="911.4" x2="734.4" y2="911.4"/>
<line x1="754.2" y1="877.0" x2="739.5" y2="851.6"/>
<line x1="756.8" y1="878.5" x2="737.0" y2="912.9"/>
<line x1="751.6" y1="875.5" x2="731.8" y2="909.9"/>
<line x1="813.7" y1="842.6" x2="853.4" y2="842.6"/>
<line x1="873.2" y1="808.3" x2="858.5" y2="782.9"/>
<line x1="875.8" y1="809.8" x2="856.0" y2="844.1"/>
<line x1="870.6" y1="806.8" x2="850.8" y2="841.1"/>
<line x1="932.7" y1="773.9" x2="972.4" y2="773.9"/>
<line x1="992.3" y1="739.6" x2="977.6" y2="714.1"/>
<line x1="994.9" y1="741.1" x2="975.0" y2="775.4"/>
<line x1="989.7" y1="738.1" x2="969.8" y2="772.4"/>
<line x1="1051.8" y1="705.2" x2="1091.5" y2="705.2"/>
<line x1="1111.3" y1="670.8" x2="1096.6" y2="645.4"/>
<line x1="1113.9" y1="672.3" x2="1094.0" y2="706.7"/>
<line x1="1108.7" y1="669.3" x2="1088.9" y2="703.7"/>
<line x1="1170.8" y1="636.5" x2="1210.5" y2="636.5"/>
<line x1="1230.3" y1="602.1" x2="1215.6" y2="576.7"/>
<line x1="1230.3" y1="602.1" x2="1270.0" y2="602.1"/>
<line x1="1232.9" y1="603.6" x2="1213.1" y2="638.0"/>
<line x1="1227.7" y1="600.6" x2="1207.9" y2="635.0"/>
<line x1="1270.0" y1="602.1" x2="1284.7" y2="576.7"/>
<line x1="1135.1" y1="40.0" x2="1154.9" y2="74.4"/>
<line x1="1135.1" y1="40.0" x2="1105.7" y2="40.0"/>
<line x1="1222.1" y1="315.0" x2="1232.4" y2="353.3"/>
<line x1="1222.1" y1="315.0" x2="1193.7" y2="307.4"/>
<line x1="1194.6" y1="74.4" x2="1154.9" y2="74.4"/>
<line x1="1194.6" y1="74.4" x2="1209.3" y2="99.8"/>
<line x1="1288.5" y1="168.2" x2="1288.5" y2="207.9"/>
<line x1="1288.5" y1="168.2" x2="1263.1" y2="153.6"/>
<line x1="1361.0" y1="338.8" x2="1335.6" y2="324.1"/>
<line x1="1364.0" y1="333.6" x2="1338.6" y2="318.9"/>
<line x1="1362.5" y1="336.2" x2="1362.5" y2="365.5"/>
<line x1="1268.6" y1="473.7" x2="1289.3" y2="452.9"/>
<line x1="1272.8" y1="477.9" x2="1293.6" y2="457.1"/>
<line x1="1270.7" y1="475.8" x2="1242.3" y2="468.2"/>
<line x1="1154.9" y1="74.4" x2="1129.5" y2="89.0"/>
<line x1="1154.9" y1="74.4" x2="1154.9" y2="103.7"/>
<polygon points="1206.696342 346.410637 1231.339114 357.154752 1233.409666 349.427346 " />
<polygon points="1265.464427 194.624919 1286.486734 211.380956 1290.486734 204.452753 " />
<polygon points="1351.186461 289.932096 1330.164154 273.176059 1326.164154 280.104262 " />
<line x1="1328.2" y1="276.6" x2="1328.2" y2="306.0"/>
<line x1="1313.1" y1="415.6" x2="1312.9" y2="416.4"/>
<line x1="1309.4" y1="414.2" x2="1309.0" y2="415.7"/>
<line x1="1305.7" y1="412.8" x2="1305.0" y2="415.1"/>
<line x1="1301.9" y1="411.3" x2="1301.1" y2="414.4"/>
<line x1="1298.2" y1="409.9" x2="1297.2" y2="413.8"/>
<line x1="1294.5" y1="408.5" x2="1293.2" y2="413.2"/>
<line x1="1290.7" y1="407.1" x2="1289.3" y2="412.5"/>
<line x1="1288.5" y1="409.4" x2="1296.1" y2="437.8"/>
<line x1="1327.8" y1="182.5" x2="1328.6" y2="182.5"/>
<line x1="1327.4" y1="186.5" x2="1329.0" y2="186.5"/>
<line x1="1327.0" y1="190.5" x2="1329.4" y2="190.5"/>
<line x1="1326.6" y1="194.4" x2="1329.8" y2="194.4"/>
<line x1="1326.2" y1="198.4" x2="1330.2" y2="198.4"/>
<line x1="1325.8" y1="202.4" x2="1330.6" y2="202.4"/>
<line x1="1325.4" y1="206.3" x2="1331.0" y2="206.3"/>
<line x1="1328.2" y1="207.9" x2="1353.6" y2="193.2"/>
<polygon points="1371.025171 228.986572 1346.002863 238.814406 1350.002863 245.742609 " />
<line x1="1348.0" y1="242.3" x2="1373.4" y2="257.0"/>
<polygon points="1317.553642 352.280314 1295.927579 368.249522 1301.584433 373.906377 " />
<line x1="1298.8" y1="371.1" x2="1327.1" y2="378.7"/>
<line x1="1263.7" y1="318.6" x2="1264.5" y2="318.4"/>
<line x1="1264.4" y1="322.5" x2="1265.9" y2="322.1"/>
<line x1="1265.0" y1="326.5" x2="1267.3" y2="325.8"/>
<line x1="1265.7" y1="330.4" x2="1268.8" y2="329.6"/>
<line x1="1266.3" y1="334.3" x2="1270.2" y2="333.3"/>
<line x1="1266.9" y1="338.3" x2="1271.6" y2="337.0"/>
<line x1="1267.6" y1="342.2" x2="1273.0" y2="340.8"/>
<line x1="1270.7" y1="343.0" x2="1291.5" y2="322.3"/>
<polygon points="1262.130292 273.170269 1287.964630 280.605940 1289.008839 272.674381 " />
<line x1="1288.5" y1="276.6" x2="1296.1" y2="305.0"/>
<polygon points="1223.804848 423.142557 1250.683395 423.638445 1249.639186 415.706886 " />
<line x1="1250.2" y1="419.7" x2="1279.5" y2="470.5"/>
<line x1="1283.5" y1="108.7" x2="1264.4" y2="108.7"/>
<line x1="1257.1" y1="79.4" x2="1257.1" y2="98.4"/>
<line x1="1251.1" y1="79.4" x2="1251.1" y2="98.4"/>
<line x1="1329.5" y1="597.1" x2="1329.5" y2="578.1"/>
<line x1="1358.9" y1="570.8" x2="1339.8" y2="570.8"/>
<line x1="1358.9" y1="564.8" x2="1339.8" y2="564.8"/>
<line x1="1358.9" y1="488.4" x2="1339.8" y2="488.4"/>
<line x1="1332.5" y1="459.0" x2="1332.5" y2="478.1"/>
<line x1="1326.5" y1="459.0" x2="1326.5" y2="478.1"/>
<line x1="1300.2" y1="567.8" x2="1319.2" y2="567.8"/>
<line x1="1224.8" y1="108.7" x2="1243.8" y2="108.7"/>
<line x1="1254.1" y1="138.1" x2="1254.1" y2="119.0"/>
<line x1="1300.2" y1="488.4" x2="1319.2" y2="488.4"/>
<line x1="1329.5" y1="538.4" x2="1329.5" y2="557.4"/>
<line x1="1329.5" y1="517.8" x2="1329.5" y2="498.7"/>
<line x1="1288.5" y1="409.4" x2="1250.2" y2="419.7"/>
<line x1="1250.2" y1="419.7" x2="1229.4" y2="398.9"/>
<line x1="1224.8" y1="381.7" x2="1232.4" y2="353.3"/>
<line x1="1232.4" y1="353.3" x2="1270.7" y2="343.0"/>
<line x1="1270.7" y1="343.0" x2="1298.8" y2="371.1"/>
<line x1="1298.8" y1="371.1" x2="1288.5" y2="409.4"/>
<line x1="1328.2" y1="276.6" x2="1288.5" y2="276.6"/>
<line x1="1288.5" y1="276.6" x2="1273.8" y2="251.2"/>
<line x1="1273.8" y1="233.3" x2="1288.5" y2="207.9"/>
<line x1="1288.5" y1="207.9" x2="1328.2" y2="207.9"/>
<line x1="1328.2" y1="207.9" x2="1348.0" y2="242.3"/>
<line x1="1348.0" y1="242.3" x2="1328.2" y2="276.6"/>
<text x="93.516129" y="1397.230485" fill="rgb(102,102,102)"  stroke="rgb(102,102,102)" stroke-width="1" font-size="16" >CH</text>
<text x="117.516129" y="1402.030485" fill="rgb(102,102,102)"  stroke="rgb(102,102,102)" stroke-width="1" font-size="13" >3</text>
<text x="16.400000" y="1362.868832" fill="rgb(102,102,102)"  stroke="rgb(102,102,102)" stroke-width="1" font-size="16" >H</text>
<text x="28.400000" y="1367.668832" fill="rgb(102,102,102)"  stroke="rgb(102,102,102)" stroke-width="1" font-size="13" >3</text>
<text x="34.900000" y="1362.868832" fill="rgb(102,102,102)"  stroke="rgb(102,102,102)" stroke-width="1" font-size="16" >C</text>
<text x="153.032258" y="1294.145526" fill="rgb(102,102,102)"  stroke="rgb(102,102,102)" stroke-width="1" font-size="16" >CH</text>
<text x="177.032258" y="1298.945526" fill="rgb(102,102,102)"  stroke="rgb(102,102,102)" stroke-width="1" font-size="13" >3</text>
<text x="272.064516" y="1225.422220" fill="rgb(102,102,102)"  stroke="rgb(102,102,102)" stroke-width="1" font-size="16" >CH</text>
<text x="296.064516" y="1230.222220" fill="rgb(102,102,102)"  stroke="rgb(102,102,102)" stroke-width="1" font-size="13" >3</text>
<text x="391.096774" y="1156.698913" fill="rgb(102,102,102)"  stroke="rgb(102,102,102)" stroke-width="1" font-size="16" >CH</text>
<text x="415.096774" y="1161.498913" fill="rgb(102,102,102)"  stroke="rgb(102,102,102)" stroke-width="1" font-size="13" >3</text>
<text x="510.129032" y="1087.975607" fill="rgb(102,102,102)"  stroke="rgb(102,102,102)" stroke-width="1" font-size="16" >CH</text>
<text x="534.129032" y="1092.775607" fill="rgb(102,102,102)"  stroke="rgb(102,102,102)" stroke-width="1" font-size="13" >3</text>
<text x="629.161290" y="1019.252301" fill="rgb(102,102,102)"  stroke="rgb(102,102,102)" stroke-width="1" font-size="16" >CH</text>
<text x="653.161290" y="1024.052301" fill="rgb(102,102,102)"  stroke="rgb(102,102,102)" stroke-width="1" font-size="13" >3</text>
<text x="748.193548" y="950.528995" fill="rgb(102,102,102)"  stroke="rgb(102,102,102)" stroke-width="1" font-size="16" >CH</text>
<text x="772.193548" y="955.328995" fill="rgb(102,102,102)"  stroke="rgb(102,102,102)" stroke-width="1" font-size="13" >3</text>
<text x="867.225806" y="881.805688" fill="rgb(102,102,102)"  stroke="rgb(102,102,102)" stroke-width="1" font-size="16" >CH</text>
<text x="891.225806" y="886.605688" fill="rgb(102,102,102)"  stroke="rgb(102,102,102)" stroke-width="1" font-size="13" >3</text>
<text x="986.258065" y="813.082382" fill="rgb(102,102,102)"  stroke="rgb(102,102,102)" stroke-width="1" font-size="16" >CH</text>
<text x="1010.258065" y="817.882382" fill="rgb(102,102,102)"  stroke="rgb(102,102,102)" stroke-width="1" font-size="13" >3</text>
<text x="1105.290323" y="744.359076" fill="rgb(102,102,102)"  stroke="rgb(102,102,102)" stroke-width="1" font-size="16" >CH</text>
<text x="1129.290323" y="749.159076" fill="rgb(102,102,102)"  stroke="rgb(102,102,102)" stroke-width="1" font-size="13" >3</text>
<text x="1224.322581" y="675.635770" fill="rgb(102,102,102)"  stroke="rgb(102,102,102)" stroke-width="1" font-size="16" >CH</text>
<text x="1248.322581" y="680.435770" fill="rgb(102,102,102)"  stroke="rgb(102,102,102)" stroke-width="1" font-size="13" >3</text>
<text x="1390.887460" y="324.637580" fill="rgb(102,102,102)"  stroke="rgb(102,102,102)" stroke-width="1" font-size="16" >CH</text>
<text x="1414.887460" y="332.317580" fill="rgb(102,102,102)"  stroke="rgb(102,102,102)" stroke-width="1" font-size="13" >3</text>
<text x="1274.969106" y="518.910454" fill="rgb(102,102,102)"  stroke="rgb(102,102,102)" stroke-width="1" font-size="16" >CH</text>
<text x="1298.969106" y="523.710454" fill="rgb(102,102,102)"  stroke="rgb(102,102,102)" stroke-width="1" font-size="13" >3</text>
<text x="1324.564154" y="321.117580" fill="rgb(12,12,255)"  stroke="rgb(12,12,255)" stroke-width="1" font-size="16" >N</text>
<text x="1292.756006" y="452.528838" fill="rgb(12,12,255)"  stroke="rgb(12,12,255)" stroke-width="1" font-size="16" >N</text>
<text x="1079.815404" y="48.320000" fill="rgb(255,12,12)"  stroke="rgb(255,12,12)" stroke-width="1" font-size="16" >HO</text>
<text x="1168.179674" y="313.016333" fill="rgb(255,12,12)"  stroke="rgb(255,12,12)" stroke-width="1" font-size="16" >HO</text>
<text x="1357.725807" y="395.033709" fill="rgb(255,12,12)"  stroke="rgb(255,12,12)" stroke-width="1" font-size="32" >-</text>
<text x="1356.525807" y="380.633709" fill="rgb(255,12,12)"  stroke="rgb(255,12,12)" stroke-width="1" font-size="16" >O</text>
<text x="1227.574390" y="459.115738" fill="rgb(255,12,12)"  stroke="rgb(255,12,12)" stroke-width="1" font-size="32" >-</text>
<text x="1228.774390" y="473.835738" fill="rgb(255,12,12)"  stroke="rgb(255,12,12)" stroke-width="1" font-size="16" >O</text>
<text x="1148.931533" y="118.839072" fill="rgb(255,12,12)"  stroke="rgb(255,12,12)" stroke-width="1" font-size="16" >OH</text>
<text x="1356.525807" y="196.398145" fill="rgb(255,12,12)"  stroke="rgb(255,12,12)" stroke-width="1" font-size="16" >OH</text>
<text x="1376.364517" y="266.917217" fill="rgb(255,12,12)"  stroke="rgb(255,12,12)" stroke-width="1" font-size="16" >OH</text>
<text x="1331.081450" y="386.147221" fill="rgb(255,12,12)"  stroke="rgb(255,12,12)" stroke-width="1" font-size="16" >OH</text>
<text x="1289.002501" y="127.923306" fill="rgb(255,12,12)"  stroke="rgb(255,12,12)" stroke-width="1" font-size="32" >-</text>
<text x="1287.802501" y="113.523306" fill="rgb(255,12,12)"  stroke="rgb(255,12,12)" stroke-width="1" font-size="16" >O</text>
<text x="1248.125081" y="77.365887" fill="rgb(255,12,12)"  stroke="rgb(255,12,12)" stroke-width="1" font-size="16" >O</text>
<text x="1323.516129" y="612.228230" fill="rgb(255,12,12)"  stroke="rgb(255,12,12)" stroke-width="1" font-size="16" >OH</text>
<text x="1363.193548" y="572.550810" fill="rgb(255,12,12)"  stroke="rgb(255,12,12)" stroke-width="1" font-size="16" >O</text>
<text x="1363.193548" y="493.195972" fill="rgb(255,12,12)"  stroke="rgb(255,12,12)" stroke-width="1" font-size="16" >OH</text>
<text x="1323.516129" y="457.038552" fill="rgb(255,12,12)"  stroke="rgb(255,12,12)" stroke-width="1" font-size="16" >O</text>
<text x="1286.238710" y="576.070810" fill="rgb(255,12,12)"  stroke="rgb(255,12,12)" stroke-width="1" font-size="16" >O</text>
<text x="1210.847662" y="113.523306" fill="rgb(255,12,12)"  stroke="rgb(255,12,12)" stroke-width="1" font-size="16" >O</text>
<text x="1250.525081" y="153.200726" fill="rgb(255,12,12)"  stroke="rgb(255,12,12)" stroke-width="1" font-size="16" >O</text>
<text x="1218.505118" y="396.416493" fill="rgb(255,12,12)"  stroke="rgb(255,12,12)" stroke-width="1" font-size="16" >O</text>
<text x="1265.048025" y="250.598508" fill="rgb(255,12,12)"  stroke="rgb(255,12,12)" stroke-width="1" font-size="16" >O</text>
<text x="1292.756006" y="319.765605" fill="rgb(255,12,12)"  stroke="rgb(255,12,12)" stroke-width="1" font-size="16" >O</text>
<text x="1283.838710" y="493.195972" fill="rgb(255,12,12)"  stroke="rgb(255,12,12)" stroke-width="1" font-size="16" >O</text>
<text x="1323.516129" y="532.873391" fill="rgb(255,12,12)"  stroke="rgb(255,12,12)" stroke-width="1" font-size="16" >O</text>
<text x="1248.125081" y="113.523306" fill="rgb(255,127,0)"  stroke="rgb(255,127,0)" stroke-width="1" font-size="16" >P</text>
<text x="1323.516129" y="576.070810" fill="rgb(255,127,0)"  stroke="rgb(255,127,0)" stroke-width="1" font-size="16" >P</text>
<text x="1323.516129" y="496.715972" fill="rgb(255,127,0)"  stroke="rgb(255,127,0)" stroke-width="1" font-size="16" >P</text>
<text x="135.593548" y="1194.580566" fill="rgb(191,191,191)"  stroke="rgb(191,191,191)" stroke-width="1" font-size="16" >H</text>
<text x="254.625806" y="1125.857260" fill="rgb(191,191,191)"  stroke="rgb(191,191,191)" stroke-width="1" font-size="16" >H</text>
<text x="373.658065" y="1057.133954" fill="rgb(191,191,191)"  stroke="rgb(191,191,191)" stroke-width="1" font-size="16" >H</text>
<text x="492.690323" y="988.410648" fill="rgb(191,191,191)"  stroke="rgb(191,191,191)" stroke-width="1" font-size="16" >H</text>
<text x="611.722581" y="919.687341" fill="rgb(191,191,191)"  stroke="rgb(191,191,191)" stroke-width="1" font-size="16" >H</text>
<text x="730.754839" y="850.964035" fill="rgb(191,191,191)"  stroke="rgb(191,191,191)" stroke-width="1" font-size="16" >H</text>
<text x="849.787097" y="782.240729" fill="rgb(191,191,191)"  stroke="rgb(191,191,191)" stroke-width="1" font-size="16" >H</text>
<text x="968.819355" y="713.517423" fill="rgb(191,191,191)"  stroke="rgb(191,191,191)" stroke-width="1" font-size="16" >H</text>
<text x="1087.851613" y="644.794117" fill="rgb(191,191,191)"  stroke="rgb(191,191,191)" stroke-width="1" font-size="16" >H</text>
<text x="1206.883871" y="576.070810" fill="rgb(191,191,191)"  stroke="rgb(191,191,191)" stroke-width="1" font-size="16" >H</text>
<text x="1116.969880" y="99.000363" fill="rgb(191,191,191)"  stroke="rgb(191,191,191)" stroke-width="1" font-size="16" >H</text>
<text x="1190.448946" y="351.341777" fill="rgb(191,191,191)"  stroke="rgb(191,191,191)" stroke-width="1" font-size="16" >H</text>
<text x="1250.525081" y="196.398145" fill="rgb(191,191,191)"  stroke="rgb(191,191,191)" stroke-width="1" font-size="16" >H</text>
<text x="1356.525807" y="301.278871" fill="rgb(191,191,191)"  stroke="rgb(191,191,191)" stroke-width="1" font-size="16" >H</text>
<text x="1320.812178" y="424.472665" fill="rgb(191,191,191)"  stroke="rgb(191,191,191)" stroke-width="1" font-size="16" >H</text>
<text x="1322.164154" y="176.559435" fill="rgb(191,191,191)"  stroke="rgb(191,191,191)" stroke-width="1" font-size="16" >H</text>
<text x="1376.364517" y="230.759798" fill="rgb(191,191,191)"  stroke="rgb(191,191,191)" stroke-width="1" font-size="16" >H</text>
<text x="1320.812178" y="351.341777" fill="rgb(191,191,191)"  stroke="rgb(191,191,191)" stroke-width="1" font-size="16" >H</text>
<text x="1256.830562" y="313.016333" fill="rgb(191,191,191)"  stroke="rgb(191,191,191)" stroke-width="1" font-size="16" >H</text>
<text x="1245.548761" y="279.781218" fill="rgb(191,191,191)"  stroke="rgb(191,191,191)" stroke-width="1" font-size="16" >H</text>
<text x="1207.223317" y="429.651608" fill="rgb(191,191,191)"  stroke="rgb(191,191,191)" stroke-width="1" font-size="16" >H</text>
<text font-size="18.000000" fill ="black" font-family="sans-serif"
x="140.000000" y="20.000000" ></text>
<title> - OBDepict</title>
</svg>
