<?xml version="1.0"?>
<svg xmlns="http://www.w3.org/2000/svg"
xmlns:xlink="http://www.w3.org/1999/xlink" xmlns:cml="http://www.xml-cml.org/schema" width="876.743" height="540" x="0" y="0" font-family="sans-serif" stroke="rgb(0,0,0)" stroke-width="1" >
<line x1="637.9" y1="145.2" x2="663.5" y2="160.0"/>
<line x1="40.0" y1="50.4" x2="40.0" y2="80.0"/>
<line x1="663.5" y1="160.0" x2="698.2" y2="140.0"/>
<line x1="40.0" y1="80.0" x2="74.6" y2="100.0"/>
<line x1="698.2" y1="140.0" x2="732.8" y2="160.0"/>
<line x1="74.6" y1="100.0" x2="74.6" y2="140.0"/>
<line x1="732.8" y1="160.0" x2="767.5" y2="140.0"/>
<line x1="74.6" y1="140.0" x2="109.3" y2="160.0"/>
<line x1="767.5" y1="140.0" x2="802.1" y2="160.0"/>
<line x1="109.3" y1="160.0" x2="109.3" y2="200.0"/>
<line x1="802.1" y1="160.0" x2="827.7" y2="145.2"/>
<line x1="805.1" y1="160.0" x2="805.1" y2="200.0"/>
<line x1="799.1" y1="160.0" x2="799.1" y2="200.0"/>
<line x1="109.3" y1="200.0" x2="143.9" y2="220.0"/>
<line x1="802.1" y1="200.0" x2="827.7" y2="214.8"/>
<line x1="802.1" y1="200.0" x2="767.5" y2="220.0"/>
<line x1="143.9" y1="220.0" x2="178.6" y2="200.0"/>
<line x1="767.5" y1="220.0" x2="767.5" y2="260.0"/>
<line x1="178.6" y1="200.0" x2="178.6" y2="160.0"/>
<line x1="767.5" y1="260.0" x2="793.1" y2="274.8"/>
<line x1="769.0" y1="262.6" x2="734.3" y2="282.6"/>
<line x1="766.0" y1="257.4" x2="731.3" y2="277.4"/>
<line x1="732.8" y1="280.0" x2="732.8" y2="309.6"/>
<line x1="732.8" y1="280.0" x2="698.2" y2="260.0"/>
<line x1="178.6" y1="160.0" x2="152.9" y2="145.2"/>
<line x1="177.1" y1="157.4" x2="211.7" y2="137.4"/>
<line x1="180.1" y1="162.6" x2="214.7" y2="142.6"/>
<line x1="698.2" y1="260.0" x2="663.5" y2="280.0"/>
<line x1="663.5" y1="280.0" x2="628.9" y2="260.0"/>
<line x1="213.2" y1="140.0" x2="213.2" y2="110.4"/>
<line x1="213.2" y1="140.0" x2="247.8" y2="160.0"/>
<line x1="628.9" y1="260.0" x2="594.3" y2="280.0"/>
<line x1="247.8" y1="160.0" x2="247.8" y2="200.0"/>
<line x1="594.3" y1="280.0" x2="559.6" y2="260.0"/>
<line x1="247.8" y1="200.0" x2="282.5" y2="220.0"/>
<line x1="559.6" y1="260.0" x2="525.0" y2="280.0"/>
<line x1="282.5" y1="220.0" x2="282.5" y2="260.0"/>
<line x1="525.0" y1="280.0" x2="490.3" y2="260.0"/>
<line x1="282.5" y1="260.0" x2="317.1" y2="280.0"/>
<line x1="490.3" y1="260.0" x2="455.7" y2="280.0"/>
<line x1="317.1" y1="280.0" x2="317.1" y2="320.0"/>
<line x1="559.6" y1="380.0" x2="525.0" y2="400.0"/>
<line x1="559.6" y1="380.0" x2="559.6" y2="350.4"/>
<line x1="386.4" y1="280.0" x2="386.4" y2="320.0"/>
<line x1="386.4" y1="280.0" x2="412.0" y2="265.2"/>
<line x1="421.1" y1="340.0" x2="386.4" y2="320.0"/>
<line x1="421.1" y1="340.0" x2="421.1" y2="369.6"/>
<line x1="386.4" y1="320.0" x2="360.8" y2="334.8"/>
<line x1="458.7" y1="280.0" x2="458.7" y2="309.6"/>
<line x1="452.7" y1="280.0" x2="452.7" y2="309.6"/>
<line x1="455.7" y1="280.0" x2="430.1" y2="265.2"/>
<line x1="318.6" y1="322.6" x2="293.0" y2="337.4"/>
<line x1="315.6" y1="317.4" x2="290.0" y2="332.2"/>
<line x1="317.1" y1="320.0" x2="342.8" y2="334.8"/>
<line x1="525.0" y1="440.0" x2="550.6" y2="454.8"/>
<line x1="490.3" y1="460.0" x2="490.3" y2="489.6"/>
<line x1="455.7" y1="440.0" x2="430.1" y2="454.8"/>
<line x1="455.7" y1="400.0" x2="430.1" y2="385.2"/>
<line x1="490.3" y1="460.0" x2="455.7" y2="440.0"/>
<line x1="455.7" y1="440.0" x2="455.7" y2="400.0"/>
<line x1="455.7" y1="400.0" x2="481.3" y2="385.2"/>
<line x1="499.3" y1="385.2" x2="525.0" y2="400.0"/>
<line x1="525.0" y1="400.0" x2="525.0" y2="440.0"/>
<line x1="525.0" y1="440.0" x2="490.3" y2="460.0"/>
<text x="605.297275" y="148.320000" fill="rgb(102,102,102)"  stroke="rgb(102,102,102)" stroke-width="1" font-size="16" >H</text>
<text x="617.297275" y="156.000000" fill="rgb(102,102,102)"  stroke="rgb(102,102,102)" stroke-width="1" font-size="13" >3</text>
<text x="623.797275" y="148.320000" fill="rgb(102,102,102)"  stroke="rgb(102,102,102)" stroke-width="1" font-size="16" >C</text>
<text x="34.000000" y="48.320000" fill="rgb(102,102,102)"  stroke="rgb(102,102,102)" stroke-width="1" font-size="16" >CH</text>
<text x="58.000000" y="56.000000" fill="rgb(102,102,102)"  stroke="rgb(102,102,102)" stroke-width="1" font-size="13" >3</text>
<text x="553.615242" y="348.320000" fill="rgb(255,12,12)"  stroke="rgb(255,12,12)" stroke-width="1" font-size="16" >OH</text>
<text x="449.692194" y="324.800000" fill="rgb(255,12,12)"  stroke="rgb(255,12,12)" stroke-width="1" font-size="16" >O</text>
<text x="278.887113" y="344.800000" fill="rgb(255,12,12)"  stroke="rgb(255,12,12)" stroke-width="1" font-size="16" >O</text>
<text x="553.615242" y="464.800000" fill="rgb(255,12,12)"  stroke="rgb(255,12,12)" stroke-width="1" font-size="16" >OH</text>
<text x="484.333210" y="504.800000" fill="rgb(255,12,12)"  stroke="rgb(255,12,12)" stroke-width="1" font-size="16" >OH</text>
<text x="405.451178" y="464.800000" fill="rgb(255,12,12)"  stroke="rgb(255,12,12)" stroke-width="1" font-size="16" >HO</text>
<text x="415.051178" y="268.320000" fill="rgb(255,12,12)"  stroke="rgb(255,12,12)" stroke-width="1" font-size="16" >O</text>
<text x="417.451178" y="384.800000" fill="rgb(255,12,12)"  stroke="rgb(255,12,12)" stroke-width="1" font-size="16" >O</text>
<text x="345.769145" y="344.800000" fill="rgb(255,12,12)"  stroke="rgb(255,12,12)" stroke-width="1" font-size="16" >O</text>
<text x="484.333210" y="388.320000" fill="rgb(255,12,12)"  stroke="rgb(255,12,12)" stroke-width="1" font-size="16" >O</text>
<text x="830.743371" y="148.320000" fill="rgb(191,191,191)"  stroke="rgb(191,191,191)" stroke-width="1" font-size="16" >H</text>
<text x="830.743371" y="224.800000" fill="rgb(191,191,191)"  stroke="rgb(191,191,191)" stroke-width="1" font-size="16" >H</text>
<text x="796.102355" y="284.800000" fill="rgb(191,191,191)"  stroke="rgb(191,191,191)" stroke-width="1" font-size="16" >H</text>
<text x="726.820323" y="324.800000" fill="rgb(191,191,191)"  stroke="rgb(191,191,191)" stroke-width="1" font-size="16" >H</text>
<text x="140.323048" y="148.320000" fill="rgb(191,191,191)"  stroke="rgb(191,191,191)" stroke-width="1" font-size="16" >H</text>
<text x="207.205081" y="108.320000" fill="rgb(191,191,191)"  stroke="rgb(191,191,191)" stroke-width="1" font-size="16" >H</text>
<text font-size="18.000000" fill ="black" font-family="sans-serif"
x="140.000000" y="20.000000" ></text>
<title> - OBDepict</title>
</svg>
