<?xml version="1.0"?>
<svg xmlns="http://www.w3.org/2000/svg"
xmlns:xlink="http://www.w3.org/1999/xlink" xmlns:cml="http://www.xml-cml.org/schema" width="1148.9" height="546.41" x="0" y="0" font-family="sans-serif" stroke="rgb(0,0,0)" stroke-width="1" >
<line x1="1108.9" y1="416.8" x2="1108.9" y2="446.4"/>
<line x1="45.2" y1="49.0" x2="60.0" y2="74.6"/>
<line x1="296.1" y1="406.1" x2="296.1" y2="425.3"/>
<line x1="266.5" y1="435.7" x2="285.7" y2="435.7"/>
<line x1="296.1" y1="465.3" x2="296.1" y2="446.1"/>
<line x1="1108.9" y1="446.4" x2="1074.3" y2="466.4"/>
<line x1="60.0" y1="74.6" x2="100.0" y2="74.6"/>
<line x1="1074.3" y1="466.4" x2="1039.6" y2="446.4"/>
<line x1="100.0" y1="74.6" x2="120.0" y2="109.3"/>
<line x1="1039.6" y1="446.4" x2="1005.0" y2="466.4"/>
<line x1="120.0" y1="109.3" x2="160.0" y2="109.3"/>
<line x1="1005.0" y1="466.4" x2="970.3" y2="446.4"/>
<line x1="160.0" y1="109.3" x2="180.0" y2="143.9"/>
<line x1="970.3" y1="446.4" x2="935.7" y2="466.4"/>
<line x1="180.0" y1="143.9" x2="220.0" y2="143.9"/>
<line x1="935.7" y1="466.4" x2="901.1" y2="446.4"/>
<line x1="220.0" y1="143.9" x2="240.0" y2="178.6"/>
<line x1="901.1" y1="446.4" x2="866.4" y2="466.4"/>
<line x1="240.0" y1="178.6" x2="280.0" y2="178.6"/>
<line x1="866.4" y1="466.4" x2="866.4" y2="496.0"/>
<line x1="864.9" y1="469.0" x2="830.3" y2="449.0"/>
<line x1="867.9" y1="463.8" x2="833.3" y2="443.8"/>
<line x1="831.8" y1="446.4" x2="806.1" y2="461.2"/>
<line x1="831.8" y1="446.4" x2="831.8" y2="406.4"/>
<line x1="280.0" y1="178.6" x2="300.0" y2="213.2"/>
<line x1="831.8" y1="406.4" x2="797.1" y2="386.4"/>
<line x1="300.0" y1="213.2" x2="340.0" y2="213.2"/>
<line x1="797.1" y1="386.4" x2="762.5" y2="406.4"/>
<line x1="340.0" y1="213.2" x2="360.0" y2="247.8"/>
<line x1="762.5" y1="406.4" x2="727.8" y2="386.4"/>
<line x1="360.0" y1="247.8" x2="400.0" y2="247.8"/>
<line x1="727.8" y1="386.4" x2="693.2" y2="406.4"/>
<line x1="400.0" y1="247.8" x2="420.0" y2="282.5"/>
<line x1="693.2" y1="406.4" x2="658.6" y2="386.4"/>
<line x1="420.0" y1="282.5" x2="460.0" y2="282.5"/>
<line x1="658.6" y1="386.4" x2="623.9" y2="406.4"/>
<line x1="460.0" y1="282.5" x2="480.0" y2="317.1"/>
<line x1="623.9" y1="406.4" x2="589.3" y2="386.4"/>
<line x1="336.1" y1="435.7" x2="356.1" y2="401.1"/>
<line x1="336.1" y1="435.7" x2="306.5" y2="435.7"/>
<line x1="356.1" y1="401.1" x2="385.7" y2="401.1"/>
<line x1="540.0" y1="351.8" x2="520.0" y2="386.4"/>
<line x1="540.0" y1="351.8" x2="525.2" y2="326.1"/>
<line x1="485.4" y1="366.4" x2="520.0" y2="386.4"/>
<line x1="485.4" y1="366.4" x2="459.7" y2="381.2"/>
<line x1="507.5" y1="408.8" x2="506.9" y2="408.4"/>
<line x1="509.9" y1="405.5" x2="508.5" y2="404.7"/>
<line x1="512.2" y1="402.3" x2="510.2" y2="401.1"/>
<line x1="514.6" y1="399.0" x2="511.8" y2="397.4"/>
<line x1="516.9" y1="395.7" x2="513.5" y2="393.7"/>
<line x1="519.3" y1="392.5" x2="515.1" y2="390.1"/>
<line x1="521.6" y1="389.2" x2="516.8" y2="386.4"/>
<line x1="520.0" y1="386.4" x2="545.6" y2="401.2"/>
<line x1="482.6" y1="318.6" x2="467.8" y2="344.3"/>
<line x1="477.4" y1="315.6" x2="462.6" y2="341.3"/>
<line x1="480.0" y1="317.1" x2="509.6" y2="317.1"/>
<line x1="586.3" y1="386.4" x2="586.3" y2="356.8"/>
<line x1="592.3" y1="386.4" x2="592.3" y2="356.8"/>
<line x1="589.3" y1="386.4" x2="563.6" y2="401.2"/>
<line x1="433.5" y1="342.3" x2="423.9" y2="358.9"/>
<line x1="428.3" y1="339.3" x2="418.7" y2="355.9"/>
<line x1="390.4" y1="351.6" x2="407.1" y2="361.2"/>
<line x1="401.3" y1="392.0" x2="410.9" y2="375.4"/>
<line x1="441.7" y1="381.2" x2="425.1" y2="371.6"/>
<text x="1102.897275" y="414.730162" fill="rgb(102,102,102)"  stroke="rgb(102,102,102)" stroke-width="1" font-size="16" >CH</text>
<text x="1126.897275" y="422.410162" fill="rgb(102,102,102)"  stroke="rgb(102,102,102)" stroke-width="1" font-size="13" >3</text>
<text x="16.400000" y="48.320000" fill="rgb(102,102,102)"  stroke="rgb(102,102,102)" stroke-width="1" font-size="16" >H</text>
<text x="28.400000" y="56.000000" fill="rgb(102,102,102)"  stroke="rgb(102,102,102)" stroke-width="1" font-size="13" >3</text>
<text x="34.900000" y="48.320000" fill="rgb(102,102,102)"  stroke="rgb(102,102,102)" stroke-width="1" font-size="16" >C</text>
<text x="290.076952" y="404.012194" fill="rgb(102,102,102)"  stroke="rgb(102,102,102)" stroke-width="1" font-size="16" >CH</text>
<text x="314.076952" y="411.692194" fill="rgb(102,102,102)"  stroke="rgb(102,102,102)" stroke-width="1" font-size="13" >3</text>
<text x="232.476952" y="440.492194" fill="rgb(102,102,102)"  stroke="rgb(102,102,102)" stroke-width="1" font-size="16" >H</text>
<text x="244.476952" y="445.292194" fill="rgb(102,102,102)"  stroke="rgb(102,102,102)" stroke-width="1" font-size="13" >3</text>
<text x="250.976952" y="440.492194" fill="rgb(102,102,102)"  stroke="rgb(102,102,102)" stroke-width="1" font-size="16" >C</text>
<text x="290.076952" y="480.492194" fill="rgb(102,102,102)"  stroke="rgb(102,102,102)" stroke-width="1" font-size="16" >CH</text>
<text x="314.076952" y="485.292194" fill="rgb(102,102,102)"  stroke="rgb(102,102,102)" stroke-width="1" font-size="13" >3</text>
<text x="292.176952" y="451.292194" fill="rgb(12,12,255)"  stroke="rgb(12,12,255)" stroke-width="1" font-size="13" >+</text>
<text x="290.076952" y="440.492194" fill="rgb(12,12,255)"  stroke="rgb(12,12,255)" stroke-width="1" font-size="16" >N</text>
<text x="456.400000" y="356.569145" fill="rgb(255,12,12)"  stroke="rgb(255,12,12)" stroke-width="1" font-size="16" >O</text>
<text x="583.282032" y="354.730162" fill="rgb(255,12,12)"  stroke="rgb(255,12,12)" stroke-width="1" font-size="16" >O</text>
<text x="430.076952" y="340.089145" fill="rgb(255,12,12)"  stroke="rgb(255,12,12)" stroke-width="1" font-size="16" >O</text>
<text x="376.635935" y="340.010162" fill="rgb(255,12,12)"  stroke="rgb(255,12,12)" stroke-width="1" font-size="32" >-</text>
<text x="377.835935" y="354.730162" fill="rgb(255,12,12)"  stroke="rgb(255,12,12)" stroke-width="1" font-size="16" >O</text>
<text x="514.000000" y="325.448129" fill="rgb(255,12,12)"  stroke="rgb(255,12,12)" stroke-width="1" font-size="16" >O</text>
<text x="390.076952" y="405.851178" fill="rgb(255,12,12)"  stroke="rgb(255,12,12)" stroke-width="1" font-size="16" >O</text>
<text x="444.717968" y="391.210162" fill="rgb(255,12,12)"  stroke="rgb(255,12,12)" stroke-width="1" font-size="16" >O</text>
<text x="548.641016" y="411.210162" fill="rgb(255,12,12)"  stroke="rgb(255,12,12)" stroke-width="1" font-size="16" >O</text>
<text x="410.076952" y="371.210162" fill="rgb(255,127,0)"  stroke="rgb(255,127,0)" stroke-width="1" font-size="16" >P</text>
<text x="860.410162" y="511.210162" fill="rgb(191,191,191)"  stroke="rgb(191,191,191)" stroke-width="1" font-size="16" >H</text>
<text x="793.528129" y="471.210162" fill="rgb(191,191,191)"  stroke="rgb(191,191,191)" stroke-width="1" font-size="16" >H</text>
<text x="496.400000" y="425.851178" fill="rgb(191,191,191)"  stroke="rgb(191,191,191)" stroke-width="1" font-size="16" >H</text>
<text font-size="18.000000" fill ="black" font-family="sans-serif"
x="140.000000" y="20.000000" ></text>
<title> - OBDepict</title>
</svg>
