<?xml version="1.0"?>
<svg xmlns="http://www.w3.org/2000/svg"
xmlns:xlink="http://www.w3.org/1999/xlink" xmlns:cml="http://www.xml-cml.org/schema" width="407.846" height="214.641" x="0" y="0" font-family="sans-serif" stroke="rgb(0,0,0)" stroke-width="1" >
<line x1="49.0" y1="69.4" x2="65.6" y2="59.8"/>
<line x1="287.8" y1="74.6" x2="247.8" y2="74.6"/>
<line x1="109.3" y1="74.6" x2="83.6" y2="59.8"/>
<line x1="143.9" y1="134.6" x2="143.9" y2="164.2"/>
<line x1="216.2" y1="134.6" x2="216.2" y2="164.2"/>
<line x1="210.2" y1="134.6" x2="210.2" y2="164.2"/>
<polygon points="261.246097 51.431535 244.381995 72.641016 251.310199 76.641016 " />
<line x1="347.8" y1="109.3" x2="367.8" y2="74.6"/>
<line x1="344.6" y1="100.5" x2="358.6" y2="76.2"/>
<line x1="367.8" y1="74.6" x2="347.8" y2="40.0"/>
<line x1="347.8" y1="40.0" x2="307.8" y2="40.0"/>
<line x1="341.8" y1="47.2" x2="313.8" y2="47.2"/>
<line x1="307.8" y1="40.0" x2="287.8" y2="74.6"/>
<line x1="287.8" y1="74.6" x2="307.8" y2="109.3"/>
<line x1="297.1" y1="76.2" x2="311.1" y2="100.5"/>
<line x1="307.8" y1="109.3" x2="347.8" y2="109.3"/>
<line x1="109.3" y1="114.6" x2="143.9" y2="134.6"/>
<line x1="143.9" y1="134.6" x2="178.6" y2="114.6"/>
<line x1="145.5" y1="125.4" x2="169.8" y2="111.4"/>
<line x1="178.6" y1="114.6" x2="178.6" y2="74.6"/>
<line x1="178.6" y1="74.6" x2="143.9" y2="54.6"/>
<line x1="169.8" y1="77.9" x2="145.5" y2="63.9"/>
<line x1="143.9" y1="54.6" x2="109.3" y2="74.6"/>
<line x1="109.3" y1="74.6" x2="109.3" y2="114.6"/>
<line x1="116.5" y1="80.6" x2="116.5" y2="108.6"/>
<line x1="213.2" y1="134.6" x2="247.8" y2="114.6"/>
<line x1="247.8" y1="114.6" x2="247.8" y2="74.6"/>
<line x1="247.8" y1="74.6" x2="222.2" y2="59.8"/>
<line x1="204.2" y1="59.8" x2="178.6" y2="74.6"/>
<line x1="178.6" y1="114.6" x2="213.2" y2="134.6"/>
<text x="16.400000" y="79.441016" fill="rgb(102,102,102)"  stroke="rgb(102,102,102)" stroke-width="1" font-size="16" >H</text>
<text x="28.400000" y="84.241016" fill="rgb(102,102,102)"  stroke="rgb(102,102,102)" stroke-width="1" font-size="13" >3</text>
<text x="34.900000" y="79.441016" fill="rgb(102,102,102)"  stroke="rgb(102,102,102)" stroke-width="1" font-size="16" >C</text>
<text x="137.923048" y="179.441016" fill="rgb(255,12,12)"  stroke="rgb(255,12,12)" stroke-width="1" font-size="16" >OH</text>
<text x="207.205081" y="179.441016" fill="rgb(255,12,12)"  stroke="rgb(255,12,12)" stroke-width="1" font-size="16" >O</text>
<text x="68.641016" y="62.961016" fill="rgb(255,12,12)"  stroke="rgb(255,12,12)" stroke-width="1" font-size="16" >O</text>
<text x="207.205081" y="62.961016" fill="rgb(255,12,12)"  stroke="rgb(255,12,12)" stroke-width="1" font-size="16" >O</text>
<text x="261.846097" y="48.320000" fill="rgb(191,191,191)"  stroke="rgb(191,191,191)" stroke-width="1" font-size="16" >H</text>
<text font-size="18.000000" fill ="black" font-family="sans-serif"
x="140.000000" y="20.000000" ></text>
<title> - OBDepict</title>
</svg>
