<?xml version="1.0"?>
<svg xmlns="http://www.w3.org/2000/svg"
xmlns:xlink="http://www.w3.org/1999/xlink" xmlns:cml="http://www.xml-cml.org/schema" width="691.828" height="561.111" x="0" y="0" font-family="sans-serif" stroke="rgb(0,0,0)" stroke-width="1" >
<line x1="56.8" y1="198.3" x2="76.0" y2="219.6"/>
<line x1="376.7" y1="445.6" x2="398.1" y2="426.4"/>
<line x1="370.7" y1="417.5" x2="398.1" y2="426.4"/>
<line x1="76.0" y1="219.6" x2="114.0" y2="211.5"/>
<line x1="114.0" y1="211.5" x2="140.0" y2="240.4"/>
<line x1="140.0" y1="240.4" x2="128.0" y2="277.4"/>
<line x1="128.0" y1="277.4" x2="90.0" y2="285.5"/>
<line x1="90.0" y1="285.5" x2="70.8" y2="264.1"/>
<line x1="92.9" y1="286.4" x2="80.9" y2="323.3"/>
<line x1="87.2" y1="284.5" x2="75.2" y2="321.5"/>
<line x1="78.0" y1="322.4" x2="49.9" y2="328.4"/>
<line x1="78.0" y1="322.4" x2="104.0" y2="351.3"/>
<line x1="104.0" y1="351.3" x2="142.0" y2="343.2"/>
<line x1="142.0" y1="343.2" x2="168.0" y2="372.1"/>
<line x1="310.0" y1="479.5" x2="348.0" y2="471.4"/>
<line x1="310.0" y1="479.5" x2="284.0" y2="450.6"/>
<line x1="348.0" y1="471.4" x2="367.3" y2="492.8"/>
<line x1="270.0" y1="384.8" x2="232.0" y2="392.9"/>
<line x1="270.0" y1="384.8" x2="289.3" y2="406.2"/>
<line x1="232.0" y1="392.9" x2="212.8" y2="371.5"/>
<line x1="391.9" y1="210.6" x2="429.9" y2="202.6"/>
<line x1="391.9" y1="210.6" x2="383.0" y2="238.0"/>
<line x1="422.1" y1="352.5" x2="398.1" y2="426.4"/>
<line x1="422.1" y1="352.5" x2="402.8" y2="331.1"/>
<polygon points="421.877969 227.325346 433.727232 203.801336 426.118780 201.329201 " />
<line x1="281.2" y1="449.7" x2="290.1" y2="422.4"/>
<line x1="286.9" y1="451.6" x2="295.8" y2="424.2"/>
<line x1="284.0" y1="450.6" x2="255.9" y2="456.6"/>
<line x1="170.9" y1="373.0" x2="162.0" y2="400.4"/>
<line x1="165.2" y1="371.2" x2="156.3" y2="398.5"/>
<line x1="168.0" y1="372.1" x2="196.1" y2="366.1"/>
<line x1="453.3" y1="124.6" x2="454.1" y2="124.3"/>
<line x1="454.1" y1="128.4" x2="455.6" y2="127.9"/>
<line x1="454.9" y1="132.2" x2="457.2" y2="131.5"/>
<line x1="455.8" y1="136.0" x2="458.8" y2="135.1"/>
<line x1="456.6" y1="139.9" x2="460.4" y2="138.6"/>
<line x1="457.4" y1="143.7" x2="462.0" y2="142.2"/>
<line x1="458.2" y1="147.5" x2="463.5" y2="145.8"/>
<line x1="461.4" y1="148.1" x2="480.6" y2="126.7"/>
<line x1="401.0" y1="164.3" x2="401.0" y2="163.5"/>
<line x1="404.9" y1="164.7" x2="404.9" y2="163.1"/>
<line x1="408.8" y1="165.1" x2="408.8" y2="162.7"/>
<line x1="412.6" y1="165.5" x2="412.6" y2="162.3"/>
<line x1="416.5" y1="165.9" x2="416.5" y2="161.9"/>
<line x1="420.4" y1="166.3" x2="420.4" y2="161.5"/>
<line x1="424.3" y1="166.7" x2="424.3" y2="161.1"/>
<line x1="425.9" y1="163.9" x2="411.5" y2="139.0"/>
<line x1="447.8" y1="462.6" x2="447.6" y2="463.3"/>
<line x1="444.3" y1="461.0" x2="443.8" y2="462.5"/>
<line x1="440.7" y1="459.4" x2="439.9" y2="461.7"/>
<line x1="437.1" y1="457.8" x2="436.1" y2="460.9"/>
<line x1="433.5" y1="456.3" x2="432.3" y2="460.1"/>
<line x1="430.0" y1="454.7" x2="428.5" y2="459.2"/>
<line x1="426.4" y1="453.1" x2="424.7" y2="458.4"/>
<line x1="424.1" y1="455.3" x2="412.0" y2="492.2"/>
<line x1="424.1" y1="455.3" x2="398.1" y2="426.4"/>
<line x1="424.1" y1="455.3" x2="445.4" y2="436.0"/>
<line x1="627.4" y1="76.3" x2="637.7" y2="49.4"/>
<line x1="412.7" y1="495.2" x2="384.5" y2="501.1"/>
<line x1="411.4" y1="489.3" x2="383.3" y2="495.3"/>
<line x1="412.0" y1="492.2" x2="431.3" y2="513.6"/>
<polygon points="503.928128 197.074380 490.444996 174.447202 484.274201 179.538498 " />
<line x1="487.4" y1="177.0" x2="523.6" y2="132.3"/>
<line x1="367.6" y1="101.5" x2="367.6" y2="120.2"/>
<line x1="338.8" y1="130.3" x2="357.5" y2="130.3"/>
<line x1="364.6" y1="159.0" x2="364.6" y2="140.4"/>
<line x1="370.6" y1="159.0" x2="370.6" y2="140.4"/>
<line x1="335.9" y1="227.6" x2="339.8" y2="245.8"/>
<line x1="313.1" y1="258.7" x2="331.4" y2="254.8"/>
<line x1="314.4" y1="264.6" x2="332.6" y2="260.7"/>
<line x1="329.9" y1="337.7" x2="348.2" y2="333.8"/>
<line x1="361.1" y1="360.4" x2="357.2" y2="342.2"/>
<line x1="367.0" y1="359.2" x2="363.1" y2="341.0"/>
<line x1="370.0" y1="249.7" x2="351.8" y2="253.6"/>
<line x1="386.2" y1="325.7" x2="367.9" y2="329.6"/>
<line x1="396.3" y1="130.3" x2="377.7" y2="130.3"/>
<line x1="347.9" y1="283.8" x2="344.0" y2="265.6"/>
<line x1="352.1" y1="303.6" x2="356.0" y2="321.8"/>
<line x1="526.2" y1="79.1" x2="533.7" y2="106.8"/>
<line x1="546.4" y1="117.1" x2="575.1" y2="118.6"/>
<line x1="575.1" y1="118.6" x2="589.0" y2="82.4"/>
<line x1="589.0" y1="82.4" x2="566.6" y2="64.3"/>
<line x1="550.3" y1="63.4" x2="526.2" y2="79.1"/>
<line x1="552.5" y1="70.6" x2="535.2" y2="81.8"/>
<line x1="429.9" y1="202.6" x2="425.9" y2="163.9"/>
<line x1="425.9" y1="163.9" x2="461.4" y2="148.1"/>
<line x1="461.4" y1="148.1" x2="487.4" y2="177.0"/>
<line x1="487.4" y1="177.0" x2="473.0" y2="201.9"/>
<line x1="458.0" y1="208.5" x2="429.9" y2="202.6"/>
<line x1="575.1" y1="118.6" x2="593.2" y2="141.0"/>
<line x1="584.4" y1="118.8" x2="597.4" y2="134.8"/>
<line x1="609.5" y1="147.2" x2="637.9" y2="142.8"/>
<line x1="637.9" y1="142.8" x2="648.2" y2="115.9"/>
<line x1="633.3" y1="134.6" x2="640.7" y2="115.3"/>
<line x1="645.5" y1="98.6" x2="627.4" y2="76.3"/>
<line x1="627.4" y1="76.3" x2="589.0" y2="82.4"/>
<line x1="622.6" y1="84.3" x2="596.0" y2="88.5"/>
<text x="26.422049" y="199.070867" fill="rgb(102,102,102)"  stroke="rgb(102,102,102)" stroke-width="1" font-size="16" >H</text>
<text x="38.422049" y="206.750867" fill="rgb(102,102,102)"  stroke="rgb(102,102,102)" stroke-width="1" font-size="13" >3</text>
<text x="44.922049" y="199.070867" fill="rgb(102,102,102)"  stroke="rgb(102,102,102)" stroke-width="1" font-size="16" >C</text>
<text x="345.574160" y="457.203170" fill="rgb(102,102,102)"  stroke="rgb(102,102,102)" stroke-width="1" font-size="16" >H</text>
<text x="357.574160" y="462.003170" fill="rgb(102,102,102)"  stroke="rgb(102,102,102)" stroke-width="1" font-size="13" >3</text>
<text x="364.074160" y="457.203170" fill="rgb(102,102,102)"  stroke="rgb(102,102,102)" stroke-width="1" font-size="16" >C</text>
<text x="337.495305" y="422.715149" fill="rgb(102,102,102)"  stroke="rgb(102,102,102)" stroke-width="1" font-size="16" >H</text>
<text x="349.495305" y="430.395149" fill="rgb(102,102,102)"  stroke="rgb(102,102,102)" stroke-width="1" font-size="13" >3</text>
<text x="355.995305" y="422.715149" fill="rgb(102,102,102)"  stroke="rgb(102,102,102)" stroke-width="1" font-size="16" >C</text>
<text x="635.299729" y="48.320000" fill="rgb(12,12,255)"  stroke="rgb(12,12,255)" stroke-width="1" font-size="16" >NH</text>
<text x="659.299729" y="56.000000" fill="rgb(12,12,255)"  stroke="rgb(12,12,255)" stroke-width="1" font-size="13" >2</text>
<text x="290.034098" y="422.003890" fill="rgb(12,12,255)"  stroke="rgb(12,12,255)" stroke-width="1" font-size="16" >N</text>
<text x="370.435609" y="505.113344" fill="rgb(12,12,255)"  stroke="rgb(12,12,255)" stroke-width="1" font-size="16" >N</text>
<text x="645.828167" y="114.793940" fill="rgb(12,12,255)"  stroke="rgb(12,12,255)" stroke-width="1" font-size="16" >N</text>
<text x="595.924266" y="153.628804" fill="rgb(12,12,255)"  stroke="rgb(12,12,255)" stroke-width="1" font-size="16" >N</text>
<text x="552.798156" y="66.221272" fill="rgb(12,12,255)"  stroke="rgb(12,12,255)" stroke-width="1" font-size="16" >N</text>
<text x="530.266783" y="124.917507" fill="rgb(12,12,255)"  stroke="rgb(12,12,255)" stroke-width="1" font-size="16" >N</text>
<text x="230.418560" y="463.518083" fill="rgb(255,12,12)"  stroke="rgb(255,12,12)" stroke-width="1" font-size="16" >HO</text>
<text x="152.409532" y="413.843968" fill="rgb(255,12,12)"  stroke="rgb(255,12,12)" stroke-width="1" font-size="16" >O</text>
<text x="481.359598" y="127.559881" fill="rgb(255,12,12)"  stroke="rgb(255,12,12)" stroke-width="1" font-size="16" >OH</text>
<text x="446.927632" y="437.598647" fill="rgb(255,12,12)"  stroke="rgb(255,12,12)" stroke-width="1" font-size="16" >OH</text>
<text x="432.044134" y="525.910974" fill="rgb(255,12,12)"  stroke="rgb(255,12,12)" stroke-width="1" font-size="16" >OH</text>
<text x="361.575614" y="99.732573" fill="rgb(255,12,12)"  stroke="rgb(255,12,12)" stroke-width="1" font-size="16" >OH</text>
<text x="313.118471" y="135.069716" fill="rgb(255,12,12)"  stroke="rgb(255,12,12)" stroke-width="1" font-size="16" >HO</text>
<text x="361.575614" y="173.926859" fill="rgb(255,12,12)"  stroke="rgb(255,12,12)" stroke-width="1" font-size="16" >O</text>
<text x="318.220592" y="225.990295" fill="rgb(255,12,12)"  stroke="rgb(255,12,12)" stroke-width="1" font-size="16" >HO</text>
<text x="300.291425" y="268.557170" fill="rgb(255,12,12)"  stroke="rgb(255,12,12)" stroke-width="1" font-size="16" >O</text>
<text x="304.449133" y="344.573212" fill="rgb(255,12,12)"  stroke="rgb(255,12,12)" stroke-width="1" font-size="16" >HO</text>
<text x="360.136009" y="374.502379" fill="rgb(255,12,12)"  stroke="rgb(255,12,12)" stroke-width="1" font-size="16" >O</text>
<text x="373.907467" y="252.399462" fill="rgb(255,12,12)"  stroke="rgb(255,12,12)" stroke-width="1" font-size="16" >O</text>
<text x="390.065176" y="331.935504" fill="rgb(255,12,12)"  stroke="rgb(255,12,12)" stroke-width="1" font-size="16" >O</text>
<text x="461.931027" y="215.444123" fill="rgb(255,12,12)"  stroke="rgb(255,12,12)" stroke-width="1" font-size="16" >O</text>
<text x="400.432757" y="138.589716" fill="rgb(255,12,12)"  stroke="rgb(255,12,12)" stroke-width="1" font-size="16" >O</text>
<text x="343.978300" y="302.006337" fill="rgb(255,12,12)"  stroke="rgb(255,12,12)" stroke-width="1" font-size="16" >O</text>
<text x="361.575614" y="138.589716" fill="rgb(255,127,0)"  stroke="rgb(255,127,0)" stroke-width="1" font-size="16" >P</text>
<text x="335.899446" y="260.478316" fill="rgb(255,127,0)"  stroke="rgb(255,127,0)" stroke-width="1" font-size="16" >P</text>
<text x="352.057155" y="340.014358" fill="rgb(255,127,0)"  stroke="rgb(255,127,0)" stroke-width="1" font-size="16" >P</text>
<text x="200.025070" y="372.329775" fill="rgb(178,178,0)"  stroke="rgb(178,178,0)" stroke-width="1" font-size="16" >S</text>
<text x="60.415035" y="264.902691" fill="rgb(191,191,191)"  stroke="rgb(191,191,191)" stroke-width="1" font-size="16" >H</text>
<text x="36.400000" y="335.293369" fill="rgb(191,191,191)"  stroke="rgb(191,191,191)" stroke-width="1" font-size="16" >H</text>
<text x="414.315488" y="244.320607" fill="rgb(191,191,191)"  stroke="rgb(191,191,191)" stroke-width="1" font-size="16" >H</text>
<text x="445.751577" y="119.481026" fill="rgb(191,191,191)"  stroke="rgb(191,191,191)" stroke-width="1" font-size="16" >H</text>
<text x="383.404185" y="168.720989" fill="rgb(191,191,191)"  stroke="rgb(191,191,191)" stroke-width="1" font-size="16" >H</text>
<text x="455.006487" y="472.086668" fill="rgb(191,191,191)"  stroke="rgb(191,191,191)" stroke-width="1" font-size="16" >H</text>
<text x="506.088747" y="211.765283" fill="rgb(191,191,191)"  stroke="rgb(191,191,191)" stroke-width="1" font-size="16" >H</text>
<text font-size="18.000000" fill ="black" font-family="sans-serif"
x="140.000000" y="20.000000" ></text>
<title> - OBDepict</title>
</svg>
