<?xml version="1.0"?>
<svg xmlns="http://www.w3.org/2000/svg"
xmlns:xlink="http://www.w3.org/1999/xlink" xmlns:cml="http://www.xml-cml.org/schema" width="477.137" height="285.288" x="0" y="0" font-family="sans-serif" stroke="rgb(0,0,0)" stroke-width="1" >
<line x1="221.0" y1="168.5" x2="192.7" y2="174.5"/>
<line x1="49.8" y1="97.8" x2="67.9" y2="102.6"/>
<line x1="417.6" y1="153.0" x2="378.6" y2="153.0"/>
<line x1="417.6" y1="153.0" x2="432.1" y2="178.0"/>
<line x1="193.4" y1="199.4" x2="192.6" y2="199.4"/>
<line x1="193.7" y1="195.5" x2="192.1" y2="195.5"/>
<line x1="194.1" y1="191.6" x2="191.7" y2="191.6"/>
<line x1="194.4" y1="187.7" x2="191.2" y2="187.8"/>
<line x1="194.8" y1="183.8" x2="190.8" y2="183.9"/>
<line x1="195.2" y1="179.9" x2="190.4" y2="180.0"/>
<line x1="195.5" y1="176.0" x2="189.9" y2="176.1"/>
<polygon points="132.706498 108.992015 150.496040 128.544741 155.530603 122.327573 " />
<line x1="142.9" y1="87.8" x2="105.2" y2="77.7"/>
<line x1="163.2" y1="212.5" x2="162.4" y2="212.7"/>
<line x1="162.5" y1="208.6" x2="161.0" y2="209.0"/>
<line x1="161.9" y1="204.7" x2="159.6" y2="205.3"/>
<line x1="161.3" y1="200.8" x2="158.2" y2="201.7"/>
<line x1="160.7" y1="197.0" x2="156.8" y2="198.0"/>
<line x1="160.0" y1="193.1" x2="155.4" y2="194.3"/>
<line x1="159.4" y1="189.2" x2="154.0" y2="190.7"/>
<line x1="156.3" y1="188.5" x2="135.9" y2="208.9"/>
<polygon points="391.702011 130.384078 375.172909 151.013322 382.101113 155.013322 " />
<polygon points="216.492725 131.442467 190.058691 131.579347 191.310167 139.480853 " />
<line x1="403.6" y1="191.6" x2="403.6" y2="192.4"/>
<line x1="399.7" y1="191.2" x2="399.7" y2="192.8"/>
<line x1="395.8" y1="190.8" x2="395.8" y2="193.2"/>
<line x1="391.9" y1="190.4" x2="391.9" y2="193.6"/>
<line x1="388.0" y1="190.0" x2="388.0" y2="194.0"/>
<line x1="384.1" y1="189.6" x2="384.1" y2="194.4"/>
<line x1="380.2" y1="189.2" x2="380.2" y2="194.8"/>
<line x1="378.6" y1="192.0" x2="393.1" y2="217.0"/>
<polygon points="357.927020 234.142565 348.326122 209.513322 341.397919 213.513322 " />
<line x1="344.9" y1="211.5" x2="330.4" y2="236.5"/>
<line x1="299.0" y1="213.8" x2="298.3" y2="213.4"/>
<line x1="301.2" y1="210.7" x2="299.9" y2="209.9"/>
<line x1="303.5" y1="207.5" x2="301.5" y2="206.3"/>
<line x1="305.8" y1="204.3" x2="303.1" y2="202.7"/>
<line x1="308.1" y1="201.1" x2="304.7" y2="199.1"/>
<line x1="310.4" y1="197.9" x2="306.3" y2="195.5"/>
<line x1="312.7" y1="194.8" x2="307.9" y2="192.0"/>
<line x1="311.1" y1="192.0" x2="282.2" y2="192.0"/>
<line x1="102.4" y1="78.4" x2="94.9" y2="50.6"/>
<line x1="108.1" y1="76.9" x2="100.7" y2="49.0"/>
<line x1="105.2" y1="77.7" x2="84.8" y2="98.1"/>
<line x1="242.3" y1="101.1" x2="242.5" y2="101.9"/>
<line x1="238.4" y1="101.7" x2="238.8" y2="103.3"/>
<line x1="234.5" y1="102.4" x2="235.1" y2="104.7"/>
<line x1="230.7" y1="103.0" x2="231.5" y2="106.1"/>
<line x1="226.8" y1="103.6" x2="227.8" y2="107.5"/>
<line x1="222.9" y1="104.2" x2="224.2" y2="108.9"/>
<line x1="219.0" y1="104.8" x2="220.5" y2="110.3"/>
<line x1="218.3" y1="108.0" x2="259.1" y2="148.8"/>
<polygon points="314.497679 127.106867 307.121250 152.491217 315.052809 153.535426 " />
<line x1="311.1" y1="153.0" x2="283.2" y2="160.5"/>
<line x1="192.7" y1="174.5" x2="156.3" y2="188.5"/>
<line x1="156.3" y1="188.5" x2="131.8" y2="158.1"/>
<line x1="131.8" y1="158.1" x2="153.0" y2="125.4"/>
<line x1="153.0" y1="125.4" x2="190.7" y2="135.5"/>
<line x1="190.7" y1="135.5" x2="192.7" y2="174.5"/>
<line x1="170.5" y1="60.2" x2="198.4" y2="67.7"/>
<line x1="210.8" y1="80.1" x2="218.3" y2="108.0"/>
<line x1="218.3" y1="108.0" x2="190.7" y2="135.5"/>
<line x1="153.0" y1="125.4" x2="142.9" y2="87.8"/>
<line x1="142.9" y1="87.8" x2="170.5" y2="60.2"/>
<line x1="152.3" y1="88.6" x2="171.3" y2="69.5"/>
<line x1="344.9" y1="211.5" x2="311.1" y2="192.0"/>
<line x1="311.1" y1="192.0" x2="311.1" y2="153.0"/>
<line x1="311.1" y1="153.0" x2="336.1" y2="138.6"/>
<line x1="353.6" y1="138.6" x2="378.6" y2="153.0"/>
<line x1="378.6" y1="153.0" x2="378.6" y2="192.0"/>
<line x1="378.6" y1="192.0" x2="344.9" y2="211.5"/>
<text x="224.873288" y="174.688096" fill="rgb(102,102,102)"  stroke="rgb(102,102,102)" stroke-width="1" font-size="16" >CH</text>
<text x="248.873288" y="182.368096" fill="rgb(102,102,102)"  stroke="rgb(102,102,102)" stroke-width="1" font-size="13" >3</text>
<text x="16.400000" y="103.474329" fill="rgb(102,102,102)"  stroke="rgb(102,102,102)" stroke-width="1" font-size="16" >H</text>
<text x="28.400000" y="111.154329" fill="rgb(102,102,102)"  stroke="rgb(102,102,102)" stroke-width="1" font-size="13" >3</text>
<text x="34.900000" y="103.474329" fill="rgb(102,102,102)"  stroke="rgb(102,102,102)" stroke-width="1" font-size="16" >C</text>
<text x="431.137011" y="191.588312" fill="rgb(255,12,12)"  stroke="rgb(255,12,12)" stroke-width="1" font-size="16" >OH</text>
<text x="113.138730" y="220.830166" fill="rgb(255,12,12)"  stroke="rgb(255,12,12)" stroke-width="1" font-size="16" >HO</text>
<text x="392.137011" y="230.588312" fill="rgb(255,12,12)"  stroke="rgb(255,12,12)" stroke-width="1" font-size="16" >OH</text>
<text x="309.762020" y="250.088312" fill="rgb(255,12,12)"  stroke="rgb(255,12,12)" stroke-width="1" font-size="16" >HO</text>
<text x="256.487030" y="196.813322" fill="rgb(255,12,12)"  stroke="rgb(255,12,12)" stroke-width="1" font-size="16" >HO</text>
<text x="91.554329" y="48.320000" fill="rgb(255,12,12)"  stroke="rgb(255,12,12)" stroke-width="1" font-size="16" >O</text>
<text x="71.671107" y="110.048272" fill="rgb(255,12,12)"  stroke="rgb(255,12,12)" stroke-width="1" font-size="16" >O</text>
<text x="202.167651" y="78.601828" fill="rgb(255,12,12)"  stroke="rgb(255,12,12)" stroke-width="1" font-size="16" >O</text>
<text x="338.862020" y="141.833322" fill="rgb(255,12,12)"  stroke="rgb(255,12,12)" stroke-width="1" font-size="16" >O</text>
<text x="267.415922" y="167.907264" fill="rgb(255,12,12)"  stroke="rgb(255,12,12)" stroke-width="1" font-size="16" >O</text>
<text x="187.082734" y="218.275016" fill="rgb(191,191,191)"  stroke="rgb(191,191,191)" stroke-width="1" font-size="16" >H</text>
<text x="119.104629" y="109.212662" fill="rgb(191,191,191)"  stroke="rgb(191,191,191)" stroke-width="1" font-size="16" >H</text>
<text x="160.409837" y="230.924109" fill="rgb(191,191,191)"  stroke="rgb(191,191,191)" stroke-width="1" font-size="16" >H</text>
<text x="392.137011" y="127.558331" fill="rgb(191,191,191)"  stroke="rgb(191,191,191)" stroke-width="1" font-size="16" >H</text>
<text x="223.204274" y="137.749156" fill="rgb(191,191,191)"  stroke="rgb(191,191,191)" stroke-width="1" font-size="16" >H</text>
<text x="411.637011" y="196.813322" fill="rgb(191,191,191)"  stroke="rgb(191,191,191)" stroke-width="1" font-size="16" >H</text>
<text x="358.362020" y="250.088312" fill="rgb(191,191,191)"  stroke="rgb(191,191,191)" stroke-width="1" font-size="16" >H</text>
<text x="287.987030" y="230.588312" fill="rgb(191,191,191)"  stroke="rgb(191,191,191)" stroke-width="1" font-size="16" >H</text>
<text x="249.932701" y="106.178993" fill="rgb(191,191,191)"  stroke="rgb(191,191,191)" stroke-width="1" font-size="16" >H</text>
<text x="310.177551" y="122.666972" fill="rgb(191,191,191)"  stroke="rgb(191,191,191)" stroke-width="1" font-size="16" >H</text>
<text font-size="18.000000" fill ="black" font-family="sans-serif"
x="140.000000" y="20.000000" ></text>
<title> - OBDepict</title>
</svg>
