<?xml version="1.0"?>
<svg xmlns="http://www.w3.org/2000/svg"
xmlns:xlink="http://www.w3.org/1999/xlink" xmlns:cml="http://www.xml-cml.org/schema" width="416.366" height="223.642" x="0" y="0" font-family="sans-serif" stroke="rgb(0,0,0)" stroke-width="1" >
<line x1="66.6" y1="137.6" x2="83.5" y2="127.8"/>
<line x1="291.1" y1="65.8" x2="270.8" y2="101.0"/>
<line x1="291.1" y1="65.8" x2="321.2" y2="65.8"/>
<line x1="306.0" y1="121.3" x2="270.8" y2="101.0"/>
<line x1="165.2" y1="80.6" x2="191.2" y2="65.6"/>
<line x1="165.2" y1="80.6" x2="191.2" y2="95.7"/>
<line x1="270.8" y1="101.0" x2="255.7" y2="127.0"/>
<line x1="270.8" y1="101.0" x2="235.6" y2="80.6"/>
<polygon points="85.574337 54.335452 88.757438 81.674157 96.484931 79.603927 " />
<line x1="147.6" y1="161.6" x2="147.0" y2="162.2"/>
<line x1="145.0" y1="158.4" x2="143.9" y2="159.6"/>
<line x1="142.4" y1="155.3" x2="140.7" y2="157.0"/>
<line x1="139.8" y1="152.1" x2="137.5" y2="154.4"/>
<line x1="137.2" y1="149.0" x2="134.4" y2="151.8"/>
<line x1="134.6" y1="145.8" x2="131.2" y2="149.2"/>
<line x1="132.0" y1="142.6" x2="128.1" y2="146.6"/>
<line x1="51.2" y1="100.9" x2="51.7" y2="100.3"/>
<line x1="54.1" y1="103.8" x2="55.1" y2="102.5"/>
<line x1="57.0" y1="106.6" x2="58.5" y2="104.8"/>
<line x1="59.9" y1="109.5" x2="61.9" y2="107.0"/>
<line x1="62.8" y1="112.4" x2="65.3" y2="109.2"/>
<line x1="65.7" y1="115.2" x2="68.7" y2="111.5"/>
<line x1="68.7" y1="118.1" x2="72.2" y2="113.7"/>
<line x1="91.4" y1="169.1" x2="90.6" y2="169.2"/>
<line x1="91.2" y1="165.0" x2="89.6" y2="165.3"/>
<line x1="90.9" y1="161.0" x2="88.6" y2="161.3"/>
<line x1="90.7" y1="156.9" x2="87.5" y2="157.4"/>
<line x1="90.5" y1="152.8" x2="86.5" y2="153.4"/>
<line x1="90.3" y1="148.7" x2="85.5" y2="149.5"/>
<line x1="90.0" y1="144.7" x2="84.5" y2="145.5"/>
<line x1="232.6" y1="80.6" x2="232.6" y2="50.6"/>
<line x1="238.6" y1="80.6" x2="238.6" y2="50.6"/>
<line x1="235.6" y1="80.6" x2="209.5" y2="95.7"/>
<line x1="64.3" y1="143.5" x2="87.0" y2="143.5"/>
<line x1="87.0" y1="143.5" x2="71.7" y2="116.9"/>
<line x1="71.7" y1="116.9" x2="60.3" y2="136.6"/>
<line x1="92.6" y1="80.6" x2="71.7" y2="116.9"/>
<line x1="87.0" y1="143.5" x2="128.9" y2="143.5"/>
<line x1="128.9" y1="143.5" x2="102.1" y2="128.0"/>
<line x1="92.6" y1="111.6" x2="92.6" y2="80.6"/>
<line x1="341.2" y1="182.3" x2="376.4" y2="161.9"/>
<line x1="342.8" y1="173.0" x2="367.6" y2="158.7"/>
<line x1="376.4" y1="161.9" x2="376.4" y2="121.3"/>
<line x1="376.4" y1="121.3" x2="341.2" y2="101.0"/>
<line x1="367.6" y1="124.5" x2="342.8" y2="110.2"/>
<line x1="341.2" y1="101.0" x2="306.0" y2="121.3"/>
<line x1="306.0" y1="121.3" x2="306.0" y2="161.9"/>
<line x1="313.2" y1="127.3" x2="313.2" y2="155.9"/>
<line x1="306.0" y1="161.9" x2="341.2" y2="182.3"/>
<line x1="128.9" y1="59.7" x2="92.6" y2="80.6"/>
<line x1="128.9" y1="143.5" x2="165.2" y2="122.5"/>
<line x1="165.2" y1="122.5" x2="165.2" y2="80.6"/>
<line x1="165.2" y1="80.6" x2="128.9" y2="59.7"/>
<text x="33.822417" y="147.650875" fill="rgb(102,102,102)"  stroke="rgb(102,102,102)" stroke-width="1" font-size="16" >H</text>
<text x="45.822417" y="152.450875" fill="rgb(102,102,102)"  stroke="rgb(102,102,102)" stroke-width="1" font-size="13" >3</text>
<text x="52.322417" y="147.650875" fill="rgb(102,102,102)"  stroke="rgb(102,102,102)" stroke-width="1" font-size="16" >C</text>
<text x="89.021185" y="127.329838" fill="rgb(12,12,255)"  stroke="rgb(12,12,255)" stroke-width="1" font-size="16" >N</text>
<text x="325.737080" y="70.568985" fill="rgb(255,12,12)"  stroke="rgb(255,12,12)" stroke-width="1" font-size="16" >OH</text>
<text x="229.573956" y="48.320000" fill="rgb(255,12,12)"  stroke="rgb(255,12,12)" stroke-width="1" font-size="16" >O</text>
<text x="194.374339" y="105.764583" fill="rgb(255,12,12)"  stroke="rgb(255,12,12)" stroke-width="1" font-size="16" >O</text>
<text x="52.739424" y="148.276111" fill="rgb(255,12,12)"  stroke="rgb(255,12,12)" stroke-width="1" font-size="16" >O</text>
<text x="194.375188" y="68.641037" fill="rgb(191,191,191)"  stroke="rgb(191,191,191)" stroke-width="1" font-size="16" >H</text>
<text x="246.848517" y="140.963973" fill="rgb(191,191,191)"  stroke="rgb(191,191,191)" stroke-width="1" font-size="16" >H</text>
<text x="78.503502" y="49.699952" fill="rgb(191,191,191)"  stroke="rgb(191,191,191)" stroke-width="1" font-size="16" >H</text>
<text x="151.638129" y="177.016079" fill="rgb(191,191,191)"  stroke="rgb(191,191,191)" stroke-width="1" font-size="16" >H</text>
<text x="36.400000" y="99.768279" fill="rgb(191,191,191)"  stroke="rgb(191,191,191)" stroke-width="1" font-size="16" >H</text>
<text x="87.225457" y="188.441925" fill="rgb(191,191,191)"  stroke="rgb(191,191,191)" stroke-width="1" font-size="16" >H</text>
<text font-size="18.000000" fill ="black" font-family="sans-serif"
x="140.000000" y="20.000000" ></text>
<title> - OBDepict</title>
</svg>
