<?xml version="1.0"?>
<svg xmlns="http://www.w3.org/2000/svg"
xmlns:xlink="http://www.w3.org/1999/xlink" xmlns:cml="http://www.xml-cml.org/schema" width="922.997" height="758.25" x="0" y="0" font-family="sans-serif" stroke="rgb(0,0,0)" stroke-width="1" >
<line x1="874.2" y1="523.2" x2="849.2" y2="508.7"/>
<line x1="829.2" y1="235.0" x2="821.7" y2="262.9"/>
<line x1="625.8" y1="48.8" x2="611.3" y2="73.8"/>
<line x1="740.0" y1="319.9" x2="740.0" y2="291.0"/>
<line x1="50.2" y1="194.8" x2="79.0" y2="194.8"/>
<line x1="849.2" y1="508.7" x2="815.4" y2="528.3"/>
<line x1="821.7" y1="262.9" x2="784.0" y2="273.0"/>
<line x1="611.3" y1="73.8" x2="630.9" y2="107.6"/>
<line x1="740.0" y1="291.0" x2="706.1" y2="271.4"/>
<line x1="79.0" y1="194.8" x2="98.6" y2="161.0"/>
<line x1="815.4" y1="528.3" x2="815.4" y2="567.3"/>
<line x1="784.0" y1="273.0" x2="763.8" y2="348.4"/>
<line x1="630.9" y1="107.6" x2="611.3" y2="141.4"/>
<line x1="706.1" y1="271.4" x2="672.3" y2="291.0"/>
<line x1="98.6" y1="161.0" x2="137.6" y2="161.0"/>
<line x1="815.4" y1="567.3" x2="781.6" y2="586.8"/>
<line x1="763.8" y1="348.4" x2="791.4" y2="376.0"/>
<line x1="611.3" y1="141.4" x2="630.9" y2="175.2"/>
<line x1="672.3" y1="291.0" x2="672.3" y2="330.0"/>
<line x1="137.6" y1="161.0" x2="157.1" y2="194.8"/>
<line x1="781.6" y1="586.8" x2="781.6" y2="625.9"/>
<line x1="791.4" y1="376.0" x2="781.3" y2="413.8"/>
<line x1="630.9" y1="175.2" x2="611.3" y2="209.1"/>
<line x1="672.3" y1="330.0" x2="638.5" y2="349.5"/>
<line x1="157.1" y1="194.8" x2="196.2" y2="194.8"/>
<line x1="781.6" y1="625.9" x2="747.8" y2="645.4"/>
<line x1="781.3" y1="413.8" x2="808.9" y2="441.4"/>
<line x1="611.3" y1="209.1" x2="630.9" y2="242.9"/>
<line x1="638.5" y1="349.5" x2="638.5" y2="388.6"/>
<line x1="196.2" y1="194.8" x2="215.7" y2="228.6"/>
<line x1="747.8" y1="645.4" x2="747.8" y2="684.4"/>
<line x1="808.9" y1="441.4" x2="798.8" y2="479.1"/>
<line x1="630.9" y1="242.9" x2="611.3" y2="276.7"/>
<line x1="638.5" y1="388.6" x2="604.7" y2="408.1"/>
<line x1="215.7" y1="228.6" x2="254.7" y2="228.6"/>
<line x1="747.8" y1="684.4" x2="713.9" y2="704.0"/>
<line x1="798.8" y1="479.1" x2="761.0" y2="489.2"/>
<line x1="611.3" y1="276.7" x2="572.3" y2="276.7"/>
<line x1="604.7" y1="408.1" x2="570.9" y2="388.6"/>
<line x1="254.7" y1="228.6" x2="274.3" y2="262.4"/>
<line x1="713.9" y1="704.0" x2="680.1" y2="684.4"/>
<line x1="761.0" y1="489.2" x2="750.9" y2="526.9"/>
<line x1="572.3" y1="276.7" x2="552.8" y2="310.5"/>
<line x1="570.9" y1="388.6" x2="537.1" y2="408.1"/>
<line x1="274.3" y1="262.4" x2="313.3" y2="262.4"/>
<line x1="680.1" y1="684.4" x2="646.3" y2="704.0"/>
<line x1="750.9" y1="526.9" x2="713.2" y2="537.0"/>
<line x1="552.8" y1="310.5" x2="513.7" y2="310.5"/>
<line x1="537.1" y1="408.1" x2="469.5" y2="369.1"/>
<line x1="313.3" y1="262.4" x2="332.8" y2="296.2"/>
<line x1="646.3" y1="704.0" x2="612.5" y2="684.4"/>
<line x1="713.2" y1="537.0" x2="685.6" y2="509.4"/>
<line x1="513.7" y1="310.5" x2="494.2" y2="276.7"/>
<line x1="469.5" y1="369.1" x2="469.5" y2="330.0"/>
<line x1="332.8" y1="296.2" x2="371.9" y2="296.2"/>
<line x1="612.5" y1="645.4" x2="612.5" y2="684.4"/>
<line x1="612.5" y1="645.4" x2="578.7" y2="625.9"/>
<line x1="647.9" y1="519.5" x2="685.6" y2="509.4"/>
<line x1="647.9" y1="519.5" x2="637.8" y2="557.2"/>
<line x1="455.2" y1="276.7" x2="494.2" y2="276.7"/>
<line x1="455.2" y1="276.7" x2="435.6" y2="310.5"/>
<line x1="508.5" y1="330.0" x2="469.5" y2="330.0"/>
<line x1="508.5" y1="330.0" x2="528.0" y2="363.8"/>
<line x1="148.8" y1="562.9" x2="115.0" y2="543.3"/>
<line x1="148.8" y1="562.9" x2="148.8" y2="591.8"/>
<line x1="352.1" y1="553.3" x2="314.3" y2="563.4"/>
<line x1="352.1" y1="553.3" x2="372.5" y2="573.7"/>
<line x1="534.8" y1="454.2" x2="524.7" y2="491.9"/>
<line x1="534.8" y1="454.2" x2="514.4" y2="433.7"/>
<line x1="362.8" y1="436.7" x2="401.8" y2="436.7"/>
<line x1="362.8" y1="436.7" x2="348.4" y2="461.7"/>
<line x1="587.5" y1="684.8" x2="587.5" y2="684.0"/>
<line x1="591.4" y1="685.2" x2="591.4" y2="683.6"/>
<line x1="595.3" y1="685.6" x2="595.3" y2="683.2"/>
<line x1="599.2" y1="686.0" x2="599.2" y2="682.8"/>
<line x1="603.1" y1="686.4" x2="603.1" y2="682.4"/>
<line x1="607.0" y1="686.8" x2="607.0" y2="682.0"/>
<line x1="610.9" y1="687.2" x2="610.9" y2="681.6"/>
<line x1="612.5" y1="684.4" x2="598.1" y2="709.5"/>
<polygon points="704.122416 490.894847 682.797430 506.562979 688.454284 512.219833 " />
<line x1="685.6" y1="509.4" x2="678.1" y2="481.5"/>
<polygon points="516.866226 263.599997 492.212661 273.214937 496.212661 280.143140 " />
<line x1="494.2" y1="276.7" x2="494.2" y2="247.8"/>
<line x1="469.1" y1="305.0" x2="469.9" y2="305.0"/>
<line x1="468.7" y1="308.9" x2="470.3" y2="308.9"/>
<line x1="468.3" y1="312.8" x2="470.7" y2="312.8"/>
<line x1="467.9" y1="316.7" x2="471.1" y2="316.7"/>
<line x1="467.5" y1="320.6" x2="471.5" y2="320.6"/>
<line x1="467.1" y1="324.5" x2="471.9" y2="324.5"/>
<line x1="466.7" y1="328.4" x2="472.3" y2="328.4"/>
<line x1="469.5" y1="330.0" x2="411.7" y2="330.0"/>
<polygon points="115.034033 410.517703 111.034033 436.675786 119.034033 436.675786 " />
<line x1="115.0" y1="436.7" x2="90.0" y2="422.2"/>
<line x1="102.9" y1="565.2" x2="102.2" y2="564.8"/>
<line x1="105.2" y1="562.0" x2="103.8" y2="561.2"/>
<line x1="107.5" y1="558.8" x2="105.4" y2="557.6"/>
<line x1="109.8" y1="555.6" x2="107.0" y2="554.0"/>
<line x1="112.1" y1="552.5" x2="108.6" y2="550.5"/>
<line x1="114.4" y1="549.3" x2="110.2" y2="546.9"/>
<line x1="116.7" y1="546.1" x2="111.8" y2="543.3"/>
<line x1="115.0" y1="543.3" x2="115.0" y2="504.3"/>
<line x1="115.0" y1="543.3" x2="86.1" y2="543.3"/>
<line x1="321.2" y1="587.4" x2="320.4" y2="587.7"/>
<line x1="320.6" y1="583.6" x2="319.0" y2="584.0"/>
<line x1="319.9" y1="579.7" x2="317.6" y2="580.3"/>
<line x1="319.3" y1="575.8" x2="316.2" y2="576.6"/>
<line x1="318.7" y1="571.9" x2="314.8" y2="573.0"/>
<line x1="318.1" y1="568.1" x2="313.4" y2="569.3"/>
<line x1="317.4" y1="564.2" x2="312.0" y2="565.6"/>
<line x1="314.3" y1="563.4" x2="286.7" y2="535.8"/>
<line x1="314.3" y1="563.4" x2="293.9" y2="583.8"/>
<polygon points="220.418748 469.492531 236.086879 490.817517 241.743733 485.160663 " />
<line x1="238.9" y1="488.0" x2="211.0" y2="495.5"/>
<polygon points="506.178127 473.392835 521.846258 494.717821 527.503112 489.060967 " />
<polygon points="388.759454 459.329352 405.302597 438.675786 398.374394 434.675786 " />
<line x1="575.7" y1="625.9" x2="575.7" y2="597.0"/>
<line x1="581.7" y1="625.9" x2="581.7" y2="597.0"/>
<line x1="578.7" y1="625.9" x2="553.7" y2="640.3"/>
<line x1="530.6" y1="365.3" x2="516.2" y2="390.3"/>
<line x1="525.4" y1="362.3" x2="511.0" y2="387.3"/>
<line x1="528.0" y1="363.8" x2="556.9" y2="363.8"/>
<line x1="369.3" y1="294.7" x2="383.7" y2="269.7"/>
<line x1="374.5" y1="297.7" x2="388.9" y2="272.7"/>
<line x1="371.9" y1="296.2" x2="386.3" y2="321.2"/>
<line x1="639.9" y1="555.1" x2="660.4" y2="575.5"/>
<line x1="635.7" y1="559.3" x2="656.1" y2="579.8"/>
<line x1="637.8" y1="557.2" x2="609.9" y2="564.7"/>
<line x1="435.6" y1="313.5" x2="406.8" y2="313.5"/>
<line x1="435.6" y1="307.5" x2="406.8" y2="307.5"/>
<line x1="435.6" y1="310.5" x2="450.1" y2="335.5"/>
<line x1="505.5" y1="598.1" x2="505.0" y2="597.4"/>
<line x1="511.9" y1="593.6" x2="510.9" y2="592.3"/>
<line x1="518.4" y1="589.2" x2="516.9" y2="587.3"/>
<line x1="524.8" y1="584.7" x2="522.8" y2="582.2"/>
<line x1="531.2" y1="580.3" x2="528.8" y2="577.1"/>
<line x1="537.7" y1="575.9" x2="534.8" y2="572.1"/>
<line x1="544.1" y1="571.4" x2="540.7" y2="567.0"/>
<line x1="544.9" y1="567.3" x2="569.9" y2="581.8"/>
<line x1="481.6" y1="375.8" x2="482.3" y2="376.2"/>
<line x1="479.3" y1="379.0" x2="480.7" y2="379.8"/>
<line x1="477.0" y1="382.2" x2="479.1" y2="383.4"/>
<line x1="474.7" y1="385.3" x2="477.5" y2="386.9"/>
<line x1="472.4" y1="388.5" x2="475.9" y2="390.5"/>
<line x1="470.1" y1="391.7" x2="474.3" y2="394.1"/>
<line x1="467.8" y1="394.9" x2="472.7" y2="397.7"/>
<line x1="469.5" y1="397.6" x2="498.4" y2="397.6"/>
<polygon points="72.859510 457.408036 93.513075 473.951179 97.513075 467.022976 " />
<line x1="95.5" y1="470.5" x2="70.5" y2="484.9"/>
<polygon points="223.753329 532.470895 250.055374 529.564388 247.984821 521.836982 " />
<line x1="249.0" y1="525.7" x2="241.5" y2="553.6"/>
<line x1="568.5" y1="477.8" x2="569.2" y2="478.0"/>
<line x1="567.1" y1="481.4" x2="568.6" y2="481.8"/>
<line x1="565.7" y1="485.1" x2="568.0" y2="485.7"/>
<line x1="564.3" y1="488.8" x2="567.4" y2="489.6"/>
<line x1="562.9" y1="492.4" x2="566.7" y2="493.5"/>
<line x1="561.5" y1="496.1" x2="566.1" y2="497.3"/>
<line x1="560.1" y1="499.8" x2="565.5" y2="501.2"/>
<line x1="562.4" y1="502.0" x2="590.3" y2="494.5"/>
<polygon points="92.380468 517.377411 117.034033 507.762470 113.034033 500.834267 " />
<polygon points="279.961483 561.072245 290.595396 536.840753 282.867989 534.770200 " />
<line x1="376.9" y1="398.0" x2="376.9" y2="397.2"/>
<line x1="380.8" y1="398.4" x2="380.8" y2="396.8"/>
<line x1="384.7" y1="398.8" x2="384.7" y2="396.4"/>
<line x1="388.6" y1="399.2" x2="388.6" y2="396.0"/>
<line x1="392.5" y1="399.6" x2="392.5" y2="395.6"/>
<line x1="396.4" y1="400.0" x2="396.4" y2="395.2"/>
<line x1="400.3" y1="400.4" x2="400.3" y2="394.8"/>
<line x1="401.8" y1="397.6" x2="387.4" y2="372.6"/>
<polygon points="597.757841 532.935570 571.455796 535.842077 573.526348 543.569484 " />
<line x1="572.5" y1="539.7" x2="592.9" y2="560.1"/>
<polygon points="422.570745 355.459347 432.185685 380.112912 439.113888 376.112912 " />
<line x1="435.6" y1="378.1" x2="450.1" y2="353.1"/>
<polygon points="466.046763 462.610084 473.426857 437.197891 465.495298 436.153682 " />
<line x1="469.5" y1="436.7" x2="497.4" y2="429.2"/>
<line x1="501.1" y1="581.4" x2="500.3" y2="581.2"/>
<line x1="502.5" y1="577.8" x2="500.9" y2="577.4"/>
<line x1="503.9" y1="574.1" x2="501.6" y2="573.5"/>
<line x1="505.3" y1="570.4" x2="502.2" y2="569.6"/>
<line x1="506.7" y1="566.8" x2="502.8" y2="565.7"/>
<line x1="508.1" y1="563.1" x2="503.4" y2="561.9"/>
<line x1="509.5" y1="559.4" x2="504.1" y2="558.0"/>
<line x1="507.2" y1="557.2" x2="479.3" y2="564.7"/>
<line x1="303.1" y1="466.7" x2="302.4" y2="467.0"/>
<line x1="302.0" y1="463.0" x2="300.5" y2="463.6"/>
<line x1="300.9" y1="459.2" x2="298.6" y2="460.1"/>
<line x1="299.7" y1="455.4" x2="296.8" y2="456.7"/>
<line x1="298.6" y1="451.7" x2="294.9" y2="453.2"/>
<line x1="297.5" y1="447.9" x2="293.1" y2="449.8"/>
<line x1="296.4" y1="444.2" x2="291.2" y2="446.3"/>
<line x1="288.9" y1="437.4" x2="260.3" y2="433.6"/>
<line x1="289.7" y1="431.4" x2="261.0" y2="427.7"/>
<line x1="289.3" y1="434.4" x2="306.9" y2="411.5"/>
<line x1="175.5" y1="467.0" x2="174.7" y2="466.7"/>
<line x1="177.3" y1="463.6" x2="175.8" y2="463.0"/>
<line x1="179.2" y1="460.1" x2="177.0" y2="459.2"/>
<line x1="181.1" y1="456.7" x2="178.1" y2="455.4"/>
<line x1="182.9" y1="453.2" x2="179.2" y2="451.7"/>
<line x1="184.8" y1="449.8" x2="180.3" y2="447.9"/>
<line x1="186.6" y1="446.3" x2="181.5" y2="444.2"/>
<line x1="186.2" y1="436.2" x2="168.6" y2="413.3"/>
<line x1="190.9" y1="432.6" x2="173.3" y2="409.7"/>
<line x1="188.5" y1="434.4" x2="217.2" y2="430.6"/>
<line x1="304.2" y1="470.5" x2="333.1" y2="470.5"/>
<line x1="173.6" y1="470.5" x2="194.0" y2="490.9"/>
<line x1="343.3" y1="334.9" x2="343.3" y2="353.7"/>
<line x1="314.4" y1="363.8" x2="333.1" y2="363.8"/>
<line x1="340.3" y1="392.7" x2="340.3" y2="374.0"/>
<line x1="346.3" y1="392.7" x2="346.3" y2="374.0"/>
<line x1="462.3" y1="519.3" x2="449.0" y2="532.5"/>
<line x1="421.4" y1="519.3" x2="434.7" y2="532.5"/>
<line x1="419.3" y1="558.0" x2="432.6" y2="544.8"/>
<line x1="423.5" y1="562.3" x2="436.8" y2="549.0"/>
<line x1="372.2" y1="363.8" x2="353.4" y2="363.8"/>
<line x1="462.3" y1="560.1" x2="449.0" y2="546.9"/>
<line x1="544.9" y1="567.3" x2="572.5" y2="539.7"/>
<line x1="572.5" y1="539.7" x2="562.4" y2="502.0"/>
<line x1="562.4" y1="502.0" x2="524.7" y2="491.9"/>
<line x1="524.7" y1="491.9" x2="504.2" y2="512.3"/>
<line x1="499.7" y1="529.3" x2="507.2" y2="557.2"/>
<line x1="507.2" y1="557.2" x2="544.9" y2="567.3"/>
<line x1="469.5" y1="397.6" x2="469.5" y2="436.7"/>
<line x1="469.5" y1="436.7" x2="444.4" y2="451.1"/>
<line x1="426.9" y1="451.1" x2="401.8" y2="436.7"/>
<line x1="401.8" y1="436.7" x2="401.8" y2="397.6"/>
<line x1="401.8" y1="397.6" x2="435.6" y2="378.1"/>
<line x1="435.6" y1="378.1" x2="469.5" y2="397.6"/>
<line x1="154.1" y1="436.7" x2="115.0" y2="436.7"/>
<line x1="115.0" y1="436.7" x2="95.5" y2="470.5"/>
<line x1="95.5" y1="470.5" x2="115.0" y2="504.3"/>
<line x1="115.0" y1="504.3" x2="143.9" y2="504.3"/>
<line x1="159.2" y1="495.5" x2="173.6" y2="470.5"/>
<line x1="173.6" y1="470.5" x2="154.1" y2="436.7"/>
<line x1="266.5" y1="460.4" x2="238.9" y2="488.0"/>
<line x1="238.9" y1="488.0" x2="249.0" y2="525.7"/>
<line x1="249.0" y1="525.7" x2="286.7" y2="535.8"/>
<line x1="286.7" y1="535.8" x2="307.2" y2="515.4"/>
<line x1="311.7" y1="498.4" x2="304.2" y2="470.5"/>
<line x1="304.2" y1="470.5" x2="266.5" y2="460.4"/>
<text x="876.997180" y="533.070668" fill="rgb(102,102,102)"  stroke="rgb(102,102,102)" stroke-width="1" font-size="16" >CH</text>
<text x="900.997180" y="537.870668" fill="rgb(102,102,102)"  stroke="rgb(102,102,102)" stroke-width="1" font-size="13" >3</text>
<text x="825.782588" y="233.520657" fill="rgb(102,102,102)"  stroke="rgb(102,102,102)" stroke-width="1" font-size="16" >CH</text>
<text x="849.782588" y="241.200657" fill="rgb(102,102,102)"  stroke="rgb(102,102,102)" stroke-width="1" font-size="13" >3</text>
<text x="624.859367" y="48.320000" fill="rgb(102,102,102)"  stroke="rgb(102,102,102)" stroke-width="1" font-size="16" >CH</text>
<text x="648.859367" y="56.000000" fill="rgb(102,102,102)"  stroke="rgb(102,102,102)" stroke-width="1" font-size="13" >3</text>
<text x="733.951408" y="334.811288" fill="rgb(102,102,102)"  stroke="rgb(102,102,102)" stroke-width="1" font-size="16" >CH</text>
<text x="757.951408" y="339.611288" fill="rgb(102,102,102)"  stroke="rgb(102,102,102)" stroke-width="1" font-size="13" >3</text>
<text x="16.400000" y="203.086123" fill="rgb(102,102,102)"  stroke="rgb(102,102,102)" stroke-width="1" font-size="16" >H</text>
<text x="28.400000" y="210.766123" fill="rgb(102,102,102)"  stroke="rgb(102,102,102)" stroke-width="1" font-size="13" >3</text>
<text x="34.900000" y="203.086123" fill="rgb(102,102,102)"  stroke="rgb(102,102,102)" stroke-width="1" font-size="16" >C</text>
<text x="572.695559" y="595.153542" fill="rgb(12,12,255)"  stroke="rgb(12,12,255)" stroke-width="1" font-size="16" >N</text>
<text x="502.502994" y="402.433870" fill="rgb(12,12,255)"  stroke="rgb(12,12,255)" stroke-width="1" font-size="16" >N</text>
<text x="142.845324" y="606.703159" fill="rgb(255,12,12)"  stroke="rgb(255,12,12)" stroke-width="1" font-size="16" >OH</text>
<text x="373.656895" y="585.714292" fill="rgb(255,12,12)"  stroke="rgb(255,12,12)" stroke-width="1" font-size="16" >OH</text>
<text x="577.385892" y="723.049624" fill="rgb(255,12,12)"  stroke="rgb(255,12,12)" stroke-width="1" font-size="16" >HO</text>
<text x="659.921066" y="479.999811" fill="rgb(255,12,12)"  stroke="rgb(255,12,12)" stroke-width="1" font-size="16" >HO</text>
<text x="488.212661" y="245.957122" fill="rgb(255,12,12)"  stroke="rgb(255,12,12)" stroke-width="1" font-size="16" >OH</text>
<text x="65.622742" y="425.474828" fill="rgb(255,12,12)"  stroke="rgb(255,12,12)" stroke-width="1" font-size="16" >HO</text>
<text x="60.392117" y="551.660285" fill="rgb(255,12,12)"  stroke="rgb(255,12,12)" stroke-width="1" font-size="16" >HO</text>
<text x="271.131693" y="595.819084" fill="rgb(255,12,12)"  stroke="rgb(255,12,12)" stroke-width="1" font-size="16" >HO</text>
<text x="540.084268" y="664.596416" fill="rgb(255,12,12)"  stroke="rgb(255,12,12)" stroke-width="1" font-size="32" >-</text>
<text x="541.284268" y="650.196416" fill="rgb(255,12,12)"  stroke="rgb(255,12,12)" stroke-width="1" font-size="16" >O</text>
<text x="562.265868" y="383.022579" fill="rgb(255,12,12)"  stroke="rgb(255,12,12)" stroke-width="1" font-size="32" >-</text>
<text x="561.065868" y="368.622579" fill="rgb(255,12,12)"  stroke="rgb(255,12,12)" stroke-width="1" font-size="16" >O</text>
<text x="385.377246" y="270.708705" fill="rgb(255,12,12)"  stroke="rgb(255,12,12)" stroke-width="1" font-size="16" >O</text>
<text x="659.416274" y="589.614596" fill="rgb(255,12,12)"  stroke="rgb(255,12,12)" stroke-width="1" font-size="16" >O</text>
<text x="393.007870" y="318.810330" fill="rgb(255,12,12)"  stroke="rgb(255,12,12)" stroke-width="1" font-size="16" >O</text>
<text x="46.101784" y="494.808036" fill="rgb(255,12,12)"  stroke="rgb(255,12,12)" stroke-width="1" font-size="16" >HO</text>
<text x="223.315306" y="568.212280" fill="rgb(255,12,12)"  stroke="rgb(255,12,12)" stroke-width="1" font-size="16" >HO</text>
<text x="594.097875" y="500.209394" fill="rgb(255,12,12)"  stroke="rgb(255,12,12)" stroke-width="1" font-size="16" >OH</text>
<text x="246.985103" y="437.641058" fill="rgb(255,12,12)"  stroke="rgb(255,12,12)" stroke-width="1" font-size="16" >O</text>
<text x="308.260223" y="397.043016" fill="rgb(255,12,12)"  stroke="rgb(255,12,12)" stroke-width="1" font-size="32" >-</text>
<text x="307.060223" y="411.763016" fill="rgb(255,12,12)"  stroke="rgb(255,12,12)" stroke-width="1" font-size="16" >O</text>
<text x="161.170389" y="411.763016" fill="rgb(255,12,12)"  stroke="rgb(255,12,12)" stroke-width="1" font-size="16" >O</text>
<text x="222.445509" y="422.921058" fill="rgb(255,12,12)"  stroke="rgb(255,12,12)" stroke-width="1" font-size="32" >-</text>
<text x="221.245509" y="437.641058" fill="rgb(255,12,12)"  stroke="rgb(255,12,12)" stroke-width="1" font-size="16" >O</text>
<text x="338.475621" y="318.380663" fill="rgb(255,12,12)"  stroke="rgb(255,12,12)" stroke-width="1" font-size="32" >-</text>
<text x="337.275621" y="333.100663" fill="rgb(255,12,12)"  stroke="rgb(255,12,12)" stroke-width="1" font-size="16" >O</text>
<text x="299.433705" y="357.422579" fill="rgb(255,12,12)"  stroke="rgb(255,12,12)" stroke-width="1" font-size="32" >-</text>
<text x="300.633705" y="372.142579" fill="rgb(255,12,12)"  stroke="rgb(255,12,12)" stroke-width="1" font-size="16" >O</text>
<text x="337.275621" y="407.664495" fill="rgb(255,12,12)"  stroke="rgb(255,12,12)" stroke-width="1" font-size="16" >O</text>
<text x="463.461078" y="520.418977" fill="rgb(255,12,12)"  stroke="rgb(255,12,12)" stroke-width="1" font-size="16" >OH</text>
<text x="398.647470" y="520.418977" fill="rgb(255,12,12)"  stroke="rgb(255,12,12)" stroke-width="1" font-size="16" >HO</text>
<text x="410.647470" y="572.112584" fill="rgb(255,12,12)"  stroke="rgb(255,12,12)" stroke-width="1" font-size="16" >O</text>
<text x="501.172673" y="434.890995" fill="rgb(255,12,12)"  stroke="rgb(255,12,12)" stroke-width="1" font-size="16" >O</text>
<text x="337.275621" y="475.287078" fill="rgb(255,12,12)"  stroke="rgb(255,12,12)" stroke-width="1" font-size="16" >O</text>
<text x="387.777246" y="334.811288" fill="rgb(255,12,12)"  stroke="rgb(255,12,12)" stroke-width="1" font-size="16" >O</text>
<text x="493.467882" y="527.816197" fill="rgb(255,12,12)"  stroke="rgb(255,12,12)" stroke-width="1" font-size="16" >O</text>
<text x="429.649787" y="460.996744" fill="rgb(255,12,12)"  stroke="rgb(255,12,12)" stroke-width="1" font-size="16" >O</text>
<text x="596.497875" y="572.112584" fill="rgb(255,12,12)"  stroke="rgb(255,12,12)" stroke-width="1" font-size="16" >O</text>
<text x="449.170745" y="349.101621" fill="rgb(255,12,12)"  stroke="rgb(255,12,12)" stroke-width="1" font-size="16" >O</text>
<text x="197.603711" y="502.893881" fill="rgb(255,12,12)"  stroke="rgb(255,12,12)" stroke-width="1" font-size="16" >O</text>
<text x="308.338496" y="512.998673" fill="rgb(255,12,12)"  stroke="rgb(255,12,12)" stroke-width="1" font-size="16" >O</text>
<text x="148.075949" y="509.098369" fill="rgb(255,12,12)"  stroke="rgb(255,12,12)" stroke-width="1" font-size="16" >O</text>
<text x="376.317537" y="372.142579" fill="rgb(255,12,12)"  stroke="rgb(255,12,12)" stroke-width="1" font-size="16" >O</text>
<text x="465.861078" y="572.112584" fill="rgb(255,12,12)"  stroke="rgb(255,12,12)" stroke-width="1" font-size="16" >O</text>
<text x="337.275621" y="368.622579" fill="rgb(255,127,0)"  stroke="rgb(255,127,0)" stroke-width="1" font-size="16" >P</text>
<text x="435.854274" y="544.505780" fill="rgb(255,127,0)"  stroke="rgb(255,127,0)" stroke-width="1" font-size="16" >P</text>
<text x="569.864934" y="692.758333" fill="rgb(191,191,191)"  stroke="rgb(191,191,191)" stroke-width="1" font-size="16" >H</text>
<text x="707.232661" y="490.104602" fill="rgb(191,191,191)"  stroke="rgb(191,191,191)" stroke-width="1" font-size="16" >H</text>
<text x="522.023952" y="265.478080" fill="rgb(191,191,191)"  stroke="rgb(191,191,191)" stroke-width="1" font-size="16" >H</text>
<text x="463.461078" y="299.289372" fill="rgb(191,191,191)"  stroke="rgb(191,191,191)" stroke-width="1" font-size="16" >H</text>
<text x="109.034033" y="405.953870" fill="rgb(191,191,191)"  stroke="rgb(191,191,191)" stroke-width="1" font-size="16" >H</text>
<text x="91.913075" y="581.951576" fill="rgb(191,191,191)"  stroke="rgb(191,191,191)" stroke-width="1" font-size="16" >H</text>
<text x="318.443288" y="605.923875" fill="rgb(191,191,191)"  stroke="rgb(191,191,191)" stroke-width="1" font-size="16" >H</text>
<text x="207.708503" y="468.702286" fill="rgb(191,191,191)"  stroke="rgb(191,191,191)" stroke-width="1" font-size="16" >H</text>
<text x="493.467882" y="472.602590" fill="rgb(191,191,191)"  stroke="rgb(191,191,191)" stroke-width="1" font-size="16" >H</text>
<text x="378.717537" y="475.287078" fill="rgb(191,191,191)"  stroke="rgb(191,191,191)" stroke-width="1" font-size="16" >H</text>
<text x="479.336199" y="619.647009" fill="rgb(191,191,191)"  stroke="rgb(191,191,191)" stroke-width="1" font-size="16" >H</text>
<text x="482.982036" y="372.142579" fill="rgb(191,191,191)"  stroke="rgb(191,191,191)" stroke-width="1" font-size="16" >H</text>
<text x="58.101784" y="459.286120" fill="rgb(191,191,191)"  stroke="rgb(191,191,191)" stroke-width="1" font-size="16" >H</text>
<text x="207.708503" y="540.605476" fill="rgb(191,191,191)"  stroke="rgb(191,191,191)" stroke-width="1" font-size="16" >H</text>
<text x="566.491072" y="472.602590" fill="rgb(191,191,191)"  stroke="rgb(191,191,191)" stroke-width="1" font-size="16" >H</text>
<text x="77.622742" y="528.619327" fill="rgb(191,191,191)"  stroke="rgb(191,191,191)" stroke-width="1" font-size="16" >H</text>
<text x="273.026901" y="578.317072" fill="rgb(191,191,191)"  stroke="rgb(191,191,191)" stroke-width="1" font-size="16" >H</text>
<text x="359.196579" y="405.953870" fill="rgb(191,191,191)"  stroke="rgb(191,191,191)" stroke-width="1" font-size="16" >H</text>
<text x="604.202667" y="537.920989" fill="rgb(191,191,191)"  stroke="rgb(191,191,191)" stroke-width="1" font-size="16" >H</text>
<text x="412.528829" y="352.621621" fill="rgb(191,191,191)"  stroke="rgb(191,191,191)" stroke-width="1" font-size="16" >H</text>
<text x="460.765085" y="480.183694" fill="rgb(191,191,191)"  stroke="rgb(191,191,191)" stroke-width="1" font-size="16" >H</text>
<text x="493.467882" y="599.719388" fill="rgb(191,191,191)"  stroke="rgb(191,191,191)" stroke-width="1" font-size="16" >H</text>
<text font-size="18.000000" fill ="black" font-family="sans-serif"
x="140.000000" y="20.000000" ></text>
<title> - OBDepict</title>
</svg>
