<?xml version="1.0"?>
<svg xmlns="http://www.w3.org/2000/svg"
xmlns:xlink="http://www.w3.org/1999/xlink" xmlns:cml="http://www.xml-cml.org/schema" width="322.487" height="200" x="0" y="0" font-family="sans-serif" stroke="rgb(0,0,0)" stroke-width="1" >
<line x1="74.6" y1="149.6" x2="74.6" y2="130.4"/>
<line x1="40.0" y1="70.4" x2="40.0" y2="89.6"/>
<line x1="178.6" y1="100.0" x2="152.9" y2="114.8"/>
<line x1="247.8" y1="60.0" x2="273.5" y2="45.2"/>
<line x1="247.8" y1="100.0" x2="273.5" y2="114.8"/>
<line x1="110.8" y1="97.4" x2="136.4" y2="112.2"/>
<line x1="107.8" y1="102.6" x2="133.4" y2="117.4"/>
<line x1="109.3" y1="100.0" x2="83.6" y2="114.8"/>
<line x1="109.3" y1="100.0" x2="109.3" y2="70.4"/>
<line x1="65.6" y1="114.8" x2="49.0" y2="105.2"/>
<line x1="178.6" y1="60.0" x2="213.2" y2="40.0"/>
<line x1="187.4" y1="63.2" x2="211.6" y2="49.2"/>
<line x1="213.2" y1="40.0" x2="247.8" y2="60.0"/>
<line x1="247.8" y1="60.0" x2="247.8" y2="100.0"/>
<line x1="240.6" y1="66.0" x2="240.6" y2="94.0"/>
<line x1="247.8" y1="100.0" x2="213.2" y2="120.0"/>
<line x1="213.2" y1="120.0" x2="178.6" y2="100.0"/>
<line x1="211.6" y1="110.8" x2="187.4" y2="96.8"/>
<line x1="178.6" y1="100.0" x2="178.6" y2="60.0"/>
<text x="68.641016" y="164.800000" fill="rgb(102,102,102)"  stroke="rgb(102,102,102)" stroke-width="1" font-size="16" >CH</text>
<text x="92.641016" y="169.600000" fill="rgb(102,102,102)"  stroke="rgb(102,102,102)" stroke-width="1" font-size="13" >3</text>
<text x="34.000000" y="68.320000" fill="rgb(102,102,102)"  stroke="rgb(102,102,102)" stroke-width="1" font-size="16" >CH</text>
<text x="58.000000" y="76.000000" fill="rgb(102,102,102)"  stroke="rgb(102,102,102)" stroke-width="1" font-size="13" >3</text>
<text x="276.487113" y="48.320000" fill="rgb(30,239,30)"  stroke="rgb(30,239,30)" stroke-width="1" font-size="16" >Cl</text>
<text x="276.487113" y="124.800000" fill="rgb(30,239,30)"  stroke="rgb(30,239,30)" stroke-width="1" font-size="16" >Cl</text>
<text x="137.923048" y="124.800000" fill="rgb(12,12,255)"  stroke="rgb(12,12,255)" stroke-width="1" font-size="16" >N</text>
<text x="68.641016" y="124.800000" fill="rgb(12,12,255)"  stroke="rgb(12,12,255)" stroke-width="1" font-size="16" >N</text>
<text x="103.282032" y="68.320000" fill="rgb(255,12,12)"  stroke="rgb(255,12,12)" stroke-width="1" font-size="16" >OH</text>
<text x="36.400000" y="104.800000" fill="rgb(255,12,12)"  stroke="rgb(255,12,12)" stroke-width="1" font-size="16" >O</text>
<text font-size="18.000000" fill ="black" font-family="sans-serif"
x="140.000000" y="20.000000" ></text>
<title> - OBDepict</title>
</svg>
