<?xml version="1.0"?>
<svg xmlns="http://www.w3.org/2000/svg"
xmlns:xlink="http://www.w3.org/1999/xlink" xmlns:cml="http://www.xml-cml.org/schema" width="495.399" height="329.173" x="0" y="0" font-family="sans-serif" stroke="rgb(0,0,0)" stroke-width="1" >
<line x1="389.6" y1="177.5" x2="379.8" y2="141.0"/>
<line x1="389.6" y1="177.5" x2="369.9" y2="197.2"/>
<line x1="181.0" y1="129.4" x2="148.3" y2="110.5"/>
<line x1="181.0" y1="129.4" x2="205.2" y2="115.4"/>
<line x1="257.7" y1="173.7" x2="238.9" y2="206.4"/>
<line x1="257.7" y1="173.7" x2="285.7" y2="173.7"/>
<line x1="398.8" y1="125.9" x2="399.3" y2="126.6"/>
<line x1="395.5" y1="127.9" x2="396.5" y2="129.2"/>
<line x1="392.3" y1="129.9" x2="393.8" y2="131.8"/>
<line x1="389.1" y1="131.9" x2="391.0" y2="134.4"/>
<line x1="385.8" y1="133.9" x2="388.3" y2="137.0"/>
<line x1="382.6" y1="135.9" x2="385.5" y2="139.7"/>
<line x1="379.3" y1="137.8" x2="382.7" y2="142.3"/>
<polygon points="170.192136 97.838737 146.272071 107.030191 150.272071 113.958395 " />
<polygon points="269.671632 246.575571 242.028189 203.979217 235.681362 208.849308 " />
<polygon points="430.465584 103.203454 379.843362 99.203454 379.843362 107.203454 " />
<line x1="379.8" y1="103.2" x2="393.8" y2="79.0"/>
<line x1="252.5" y1="248.8" x2="252.3" y2="249.5"/>
<line x1="249.0" y1="247.4" x2="248.6" y2="249.0"/>
<line x1="245.4" y1="246.0" x2="244.8" y2="248.4"/>
<line x1="241.9" y1="244.7" x2="241.1" y2="247.8"/>
<line x1="238.4" y1="243.3" x2="237.3" y2="247.2"/>
<line x1="234.8" y1="242.0" x2="233.6" y2="246.6"/>
<line x1="231.3" y1="240.6" x2="229.8" y2="246.0"/>
<line x1="229.1" y1="242.9" x2="236.3" y2="269.9"/>
<line x1="358.9" y1="63.2" x2="359.6" y2="63.6"/>
<line x1="356.6" y1="66.2" x2="358.0" y2="67.0"/>
<line x1="354.4" y1="69.3" x2="356.5" y2="70.5"/>
<line x1="352.2" y1="72.4" x2="354.9" y2="74.0"/>
<line x1="349.9" y1="75.5" x2="353.4" y2="77.5"/>
<line x1="347.7" y1="78.5" x2="351.8" y2="80.9"/>
<line x1="345.5" y1="81.6" x2="350.3" y2="84.4"/>
<line x1="347.1" y1="84.3" x2="333.1" y2="60.1"/>
<polygon points="199.137634 277.131058 196.450339 251.647126 188.722933 253.717678 " />
<line x1="192.6" y1="252.7" x2="172.8" y2="272.4"/>
<polygon points="91.605404 193.833031 95.605404 143.210808 87.605404 143.210808 " />
<line x1="91.6" y1="143.2" x2="67.4" y2="157.2"/>
<line x1="52.0" y1="122.9" x2="51.6" y2="122.2"/>
<line x1="55.4" y1="121.4" x2="54.6" y2="120.0"/>
<line x1="58.9" y1="119.8" x2="57.7" y2="117.8"/>
<line x1="62.4" y1="118.3" x2="60.8" y2="115.5"/>
<line x1="65.9" y1="116.8" x2="63.9" y2="113.3"/>
<line x1="69.3" y1="115.2" x2="66.9" y2="111.1"/>
<line x1="72.8" y1="113.7" x2="70.0" y2="108.8"/>
<line x1="72.7" y1="110.5" x2="48.5" y2="96.5"/>
<polygon points="301.754776 81.283389 310.946230 105.203454 317.874433 101.203454 " />
<line x1="314.4" y1="103.2" x2="286.5" y2="103.2"/>
<line x1="149.1" y1="243.3" x2="148.5" y2="242.8"/>
<line x1="152.0" y1="241.0" x2="150.9" y2="239.8"/>
<line x1="155.0" y1="238.6" x2="153.3" y2="236.9"/>
<line x1="157.9" y1="236.2" x2="155.7" y2="233.9"/>
<line x1="160.9" y1="233.8" x2="158.0" y2="231.0"/>
<line x1="163.8" y1="231.4" x2="160.4" y2="228.0"/>
<line x1="166.8" y1="229.0" x2="162.8" y2="225.1"/>
<line x1="165.9" y1="226.0" x2="138.9" y2="218.7"/>
<line x1="115.0" y1="162.6" x2="114.3" y2="162.1"/>
<line x1="117.6" y1="159.9" x2="116.3" y2="158.9"/>
<line x1="120.2" y1="157.1" x2="118.3" y2="155.7"/>
<line x1="122.8" y1="154.4" x2="120.3" y2="152.4"/>
<line x1="125.5" y1="151.6" x2="122.3" y2="149.2"/>
<line x1="128.1" y1="148.9" x2="124.3" y2="145.9"/>
<line x1="130.7" y1="146.1" x2="126.2" y2="142.7"/>
<line x1="129.4" y1="143.2" x2="156.4" y2="150.4"/>
<line x1="91.6" y1="77.8" x2="67.4" y2="63.8"/>
<line x1="91.6" y1="77.8" x2="91.6" y2="49.8"/>
<polygon points="289.099220 140.981232 314.410331 144.981232 314.410331 136.981232 " />
<line x1="314.4" y1="141.0" x2="300.4" y2="165.2"/>
<line x1="152.2" y1="183.6" x2="152.4" y2="182.8"/>
<line x1="155.7" y1="185.0" x2="156.2" y2="183.4"/>
<line x1="159.3" y1="186.3" x2="159.9" y2="184.0"/>
<line x1="162.8" y1="187.7" x2="163.7" y2="184.6"/>
<line x1="166.4" y1="189.1" x2="167.4" y2="185.2"/>
<line x1="169.9" y1="190.4" x2="171.2" y2="185.8"/>
<line x1="173.5" y1="191.8" x2="174.9" y2="186.4"/>
<line x1="175.7" y1="189.5" x2="168.4" y2="162.5"/>
<line x1="148.3" y1="110.5" x2="129.4" y2="143.2"/>
<line x1="129.4" y1="143.2" x2="91.6" y2="143.2"/>
<line x1="91.6" y1="143.2" x2="72.7" y2="110.5"/>
<line x1="72.7" y1="110.5" x2="91.6" y2="77.8"/>
<line x1="91.6" y1="77.8" x2="119.6" y2="77.8"/>
<line x1="134.3" y1="86.3" x2="148.3" y2="110.5"/>
<line x1="379.8" y1="141.0" x2="379.8" y2="103.2"/>
<line x1="379.8" y1="103.2" x2="347.1" y2="84.3"/>
<line x1="347.1" y1="84.3" x2="314.4" y2="103.2"/>
<line x1="314.4" y1="103.2" x2="314.4" y2="141.0"/>
<line x1="314.4" y1="141.0" x2="338.6" y2="155.0"/>
<line x1="355.6" y1="155.0" x2="379.8" y2="141.0"/>
<line x1="238.9" y1="206.4" x2="229.1" y2="242.9"/>
<line x1="229.1" y1="242.9" x2="192.6" y2="252.7"/>
<line x1="192.6" y1="252.7" x2="165.9" y2="226.0"/>
<line x1="165.9" y1="226.0" x2="175.7" y2="189.5"/>
<line x1="175.7" y1="189.5" x2="202.7" y2="182.2"/>
<line x1="219.1" y1="186.6" x2="238.9" y2="206.4"/>
<text x="347.308047" y="208.984686" fill="rgb(255,12,12)"  stroke="rgb(255,12,12)" stroke-width="1" font-size="16" >HO</text>
<text x="207.705101" y="118.814293" fill="rgb(255,12,12)"  stroke="rgb(255,12,12)" stroke-width="1" font-size="16" >OH</text>
<text x="392.732251" y="78.806939" fill="rgb(255,12,12)"  stroke="rgb(255,12,12)" stroke-width="1" font-size="16" >OH</text>
<text x="232.854776" y="284.195325" fill="rgb(255,12,12)"  stroke="rgb(255,12,12)" stroke-width="1" font-size="16" >OH</text>
<text x="312.637957" y="59.918050" fill="rgb(255,12,12)"  stroke="rgb(255,12,12)" stroke-width="1" font-size="16" >HO</text>
<text x="150.273713" y="284.195325" fill="rgb(255,12,12)"  stroke="rgb(255,12,12)" stroke-width="1" font-size="16" >HO</text>
<text x="43.288889" y="166.899697" fill="rgb(255,12,12)"  stroke="rgb(255,12,12)" stroke-width="1" font-size="16" >HO</text>
<text x="24.400000" y="99.925404" fill="rgb(255,12,12)"  stroke="rgb(255,12,12)" stroke-width="1" font-size="16" >HO</text>
<text x="261.032553" y="108.003454" fill="rgb(255,12,12)"  stroke="rgb(255,12,12)" stroke-width="1" font-size="16" >HO</text>
<text x="113.783182" y="224.511871" fill="rgb(255,12,12)"  stroke="rgb(255,12,12)" stroke-width="1" font-size="16" >HO</text>
<text x="85.605404" y="48.320000" fill="rgb(255,12,12)"  stroke="rgb(255,12,12)" stroke-width="1" font-size="16" >OH</text>
<text x="289.521442" y="178.497747" fill="rgb(255,12,12)"  stroke="rgb(255,12,12)" stroke-width="1" font-size="16" >O</text>
<text x="123.383182" y="86.097778" fill="rgb(255,12,12)"  stroke="rgb(255,12,12)" stroke-width="1" font-size="16" >O</text>
<text x="341.126846" y="164.670121" fill="rgb(255,12,12)"  stroke="rgb(255,12,12)" stroke-width="1" font-size="16" >O</text>
<text x="206.141853" y="188.021340" fill="rgb(255,12,12)"  stroke="rgb(255,12,12)" stroke-width="1" font-size="16" >O</text>
<text x="159.873713" y="161.308417" fill="rgb(255,12,12)"  stroke="rgb(255,12,12)" stroke-width="1" font-size="16" >O</text>
<text x="403.814488" y="126.303578" fill="rgb(191,191,191)"  stroke="rgb(191,191,191)" stroke-width="1" font-size="16" >H</text>
<text x="174.988586" y="99.925404" fill="rgb(191,191,191)"  stroke="rgb(191,191,191)" stroke-width="1" font-size="16" >H</text>
<text x="278.850084" y="271.156515" fill="rgb(191,191,191)"  stroke="rgb(191,191,191)" stroke-width="1" font-size="16" >H</text>
<text x="449.398917" y="111.523454" fill="rgb(191,191,191)"  stroke="rgb(191,191,191)" stroke-width="1" font-size="16" >H</text>
<text x="259.567698" y="257.482402" fill="rgb(191,191,191)"  stroke="rgb(191,191,191)" stroke-width="1" font-size="16" >H</text>
<text x="360.015735" y="59.918050" fill="rgb(191,191,191)"  stroke="rgb(191,191,191)" stroke-width="1" font-size="16" >H</text>
<text x="196.364244" y="293.972933" fill="rgb(191,191,191)"  stroke="rgb(191,191,191)" stroke-width="1" font-size="16" >H</text>
<text x="85.605404" y="223.566364" fill="rgb(191,191,191)"  stroke="rgb(191,191,191)" stroke-width="1" font-size="16" >H</text>
<text x="36.400000" y="134.183182" fill="rgb(191,191,191)"  stroke="rgb(191,191,191)" stroke-width="1" font-size="16" >H</text>
<text x="291.921442" y="78.806939" fill="rgb(191,191,191)"  stroke="rgb(191,191,191)" stroke-width="1" font-size="16" >H</text>
<text x="135.560790" y="257.482402" fill="rgb(191,191,191)"  stroke="rgb(191,191,191)" stroke-width="1" font-size="16" >H</text>
<text x="102.785528" y="177.981934" fill="rgb(191,191,191)"  stroke="rgb(191,191,191)" stroke-width="1" font-size="16" >H</text>
<text x="55.288889" y="67.208889" fill="rgb(191,191,191)"  stroke="rgb(191,191,191)" stroke-width="1" font-size="16" >H</text>
<text x="273.032553" y="145.781232" fill="rgb(191,191,191)"  stroke="rgb(191,191,191)" stroke-width="1" font-size="16" >H</text>
<text x="135.560790" y="188.021340" fill="rgb(191,191,191)"  stroke="rgb(191,191,191)" stroke-width="1" font-size="16" >H</text>
<text font-size="18.000000" fill ="black" font-family="sans-serif"
x="140.000000" y="20.000000" ></text>
<title> - OBDepict</title>
</svg>
