<?xml version="1.0"?>
<svg xmlns="http://www.w3.org/2000/svg"
xmlns:xlink="http://www.w3.org/1999/xlink" xmlns:cml="http://www.xml-cml.org/schema" width="347.603" height="542.053" x="0" y="0" font-family="sans-serif" stroke="rgb(0,0,0)" stroke-width="1" >
<line x1="263.4" y1="491.9" x2="269.6" y2="462.9"/>
<line x1="297.7" y1="453.8" x2="269.6" y2="462.9"/>
<line x1="204.7" y1="311.3" x2="226.7" y2="331.1"/>
<line x1="280.6" y1="219.9" x2="251.7" y2="213.8"/>
<line x1="50.4" y1="114.6" x2="80.0" y2="114.6"/>
<line x1="65.2" y1="140.3" x2="80.0" y2="114.6"/>
<polygon points="221.965309 187.001696 212.480685 212.384405 220.305866 214.047698 " />
<polygon points="149.282032 114.641016 174.491513 104.705118 170.491513 97.776915 " />
<line x1="248.2" y1="397.0" x2="239.8" y2="436.2"/>
<line x1="248.2" y1="397.0" x2="218.4" y2="370.3"/>
<line x1="273.1" y1="279.7" x2="264.8" y2="318.8"/>
<line x1="273.1" y1="279.7" x2="243.4" y2="252.9"/>
<line x1="241.8" y1="433.9" x2="271.6" y2="460.7"/>
<line x1="237.8" y1="438.4" x2="267.6" y2="465.2"/>
<line x1="218.4" y1="370.3" x2="226.7" y2="331.1"/>
<line x1="264.8" y1="318.8" x2="286.8" y2="338.6"/>
<line x1="265.7" y1="321.6" x2="227.7" y2="334.0"/>
<line x1="263.9" y1="315.9" x2="225.8" y2="328.3"/>
<line x1="243.4" y1="252.9" x2="251.7" y2="213.8"/>
<line x1="268.5" y1="194.5" x2="269.1" y2="195.0"/>
<line x1="265.5" y1="197.2" x2="266.7" y2="198.3"/>
<line x1="262.6" y1="199.9" x2="264.4" y2="201.5"/>
<line x1="259.6" y1="202.6" x2="262.0" y2="204.7"/>
<line x1="256.6" y1="205.3" x2="259.6" y2="208.0"/>
<line x1="253.7" y1="208.0" x2="257.2" y2="211.2"/>
<line x1="250.7" y1="210.7" x2="254.8" y2="214.5"/>
<line x1="251.7" y1="213.8" x2="222.0" y2="187.0"/>
<line x1="92.7" y1="147.8" x2="92.3" y2="147.1"/>
<line x1="96.3" y1="146.1" x2="95.5" y2="144.7"/>
<line x1="100.0" y1="144.5" x2="98.8" y2="142.4"/>
<line x1="103.7" y1="142.8" x2="102.1" y2="140.1"/>
<line x1="107.3" y1="141.2" x2="105.3" y2="137.7"/>
<line x1="111.0" y1="139.5" x2="108.6" y2="135.4"/>
<line x1="114.7" y1="137.9" x2="111.9" y2="133.0"/>
<line x1="54.4" y1="75.0" x2="54.4" y2="74.2"/>
<line x1="58.4" y1="75.4" x2="58.4" y2="73.8"/>
<line x1="62.4" y1="75.8" x2="62.4" y2="73.4"/>
<line x1="66.4" y1="76.2" x2="66.4" y2="73.0"/>
<line x1="70.4" y1="76.6" x2="70.4" y2="72.6"/>
<line x1="74.4" y1="77.0" x2="74.4" y2="72.2"/>
<line x1="78.4" y1="77.4" x2="78.4" y2="71.8"/>
<line x1="80.0" y1="74.6" x2="65.2" y2="49.0"/>
<line x1="245.5" y1="154.6" x2="222.0" y2="122.3"/>
<line x1="222.0" y1="122.3" x2="183.9" y2="134.6"/>
<line x1="183.9" y1="134.6" x2="183.9" y2="174.6"/>
<line x1="191.1" y1="140.6" x2="191.1" y2="168.6"/>
<line x1="183.9" y1="174.6" x2="222.0" y2="187.0"/>
<line x1="222.0" y1="187.0" x2="245.5" y2="154.6"/>
<line x1="114.6" y1="134.6" x2="114.6" y2="174.6"/>
<line x1="114.6" y1="174.6" x2="149.3" y2="194.6"/>
<line x1="149.3" y1="194.6" x2="183.9" y2="174.6"/>
<line x1="183.9" y1="134.6" x2="149.3" y2="114.6"/>
<line x1="149.3" y1="114.6" x2="114.6" y2="134.6"/>
<line x1="80.0" y1="74.6" x2="80.0" y2="114.6"/>
<line x1="80.0" y1="114.6" x2="114.6" y2="134.6"/>
<line x1="149.3" y1="114.6" x2="149.3" y2="74.6"/>
<line x1="149.3" y1="74.6" x2="114.6" y2="54.6"/>
<line x1="114.6" y1="54.6" x2="80.0" y2="74.6"/>
<text x="237.643882" y="506.852793" fill="rgb(102,102,102)"  stroke="rgb(102,102,102)" stroke-width="1" font-size="16" >H</text>
<text x="249.643882" y="511.652793" fill="rgb(102,102,102)"  stroke="rgb(102,102,102)" stroke-width="1" font-size="13" >3</text>
<text x="256.143882" y="506.852793" fill="rgb(102,102,102)"  stroke="rgb(102,102,102)" stroke-width="1" font-size="16" >C</text>
<text x="301.602611" y="458.886209" fill="rgb(102,102,102)"  stroke="rgb(102,102,102)" stroke-width="1" font-size="16" >CH</text>
<text x="325.602611" y="466.566209" fill="rgb(102,102,102)"  stroke="rgb(102,102,102)" stroke-width="1" font-size="13" >3</text>
<text x="173.415906" y="312.699408" fill="rgb(102,102,102)"  stroke="rgb(102,102,102)" stroke-width="1" font-size="16" >H</text>
<text x="185.415906" y="320.379408" fill="rgb(102,102,102)"  stroke="rgb(102,102,102)" stroke-width="1" font-size="13" >3</text>
<text x="191.915906" y="312.699408" fill="rgb(102,102,102)"  stroke="rgb(102,102,102)" stroke-width="1" font-size="16" >C</text>
<text x="284.817006" y="226.883388" fill="rgb(102,102,102)"  stroke="rgb(102,102,102)" stroke-width="1" font-size="16" >CH</text>
<text x="308.817006" y="231.683388" fill="rgb(102,102,102)"  stroke="rgb(102,102,102)" stroke-width="1" font-size="13" >3</text>
<text x="16.400000" y="119.441016" fill="rgb(102,102,102)"  stroke="rgb(102,102,102)" stroke-width="1" font-size="16" >H</text>
<text x="28.400000" y="124.241016" fill="rgb(102,102,102)"  stroke="rgb(102,102,102)" stroke-width="1" font-size="13" >3</text>
<text x="34.900000" y="119.441016" fill="rgb(102,102,102)"  stroke="rgb(102,102,102)" stroke-width="1" font-size="16" >C</text>
<text x="36.400000" y="154.082032" fill="rgb(102,102,102)"  stroke="rgb(102,102,102)" stroke-width="1" font-size="16" >H</text>
<text x="48.400000" y="158.882032" fill="rgb(102,102,102)"  stroke="rgb(102,102,102)" stroke-width="1" font-size="13" >3</text>
<text x="54.900000" y="154.082032" fill="rgb(102,102,102)"  stroke="rgb(102,102,102)" stroke-width="1" font-size="16" >C</text>
<text x="190.048841" y="230.927600" fill="rgb(102,102,102)"  stroke="rgb(102,102,102)" stroke-width="1" font-size="16" >H</text>
<text x="202.048841" y="235.727600" fill="rgb(102,102,102)"  stroke="rgb(102,102,102)" stroke-width="1" font-size="13" >3</text>
<text x="208.548841" y="230.927600" fill="rgb(102,102,102)"  stroke="rgb(102,102,102)" stroke-width="1" font-size="16" >C</text>
<text x="177.923048" y="102.961016" fill="rgb(102,102,102)"  stroke="rgb(102,102,102)" stroke-width="1" font-size="16" >CH</text>
<text x="201.923048" y="110.641016" fill="rgb(102,102,102)"  stroke="rgb(102,102,102)" stroke-width="1" font-size="13" >3</text>
<text x="44.400000" y="48.320000" fill="rgb(255,12,12)"  stroke="rgb(255,12,12)" stroke-width="1" font-size="16" >HO</text>
<text x="288.509753" y="350.349177" fill="rgb(191,191,191)"  stroke="rgb(191,191,191)" stroke-width="1" font-size="16" >H</text>
<text x="272.456326" y="192.361127" fill="rgb(191,191,191)"  stroke="rgb(191,191,191)" stroke-width="1" font-size="16" >H</text>
<text x="76.400000" y="159.441016" fill="rgb(191,191,191)"  stroke="rgb(191,191,191)" stroke-width="1" font-size="16" >H</text>
<text x="36.400000" y="79.441016" fill="rgb(191,191,191)"  stroke="rgb(191,191,191)" stroke-width="1" font-size="16" >H</text>
<text font-size="18.000000" fill ="black" font-family="sans-serif"
x="140.000000" y="20.000000" ></text>
<title> - OBDepict</title>
</svg>
