<?xml version="1.0"?>
<svg xmlns="http://www.w3.org/2000/svg"
xmlns:xlink="http://www.w3.org/1999/xlink" xmlns:cml="http://www.xml-cml.org/schema" width="373.205" height="229.282" x="0" y="0" font-family="sans-serif" stroke="rgb(0,0,0)" stroke-width="1" >
<line x1="313.2" y1="154.6" x2="273.2" y2="154.6"/>
<line x1="313.2" y1="154.6" x2="328.0" y2="180.3"/>
<line x1="273.2" y1="154.6" x2="258.4" y2="129.0"/>
<line x1="143.9" y1="120.0" x2="143.9" y2="160.0"/>
<line x1="143.9" y1="120.0" x2="118.3" y2="105.2"/>
<line x1="178.6" y1="180.0" x2="143.9" y2="160.0"/>
<line x1="178.6" y1="180.0" x2="204.2" y2="165.2"/>
<line x1="107.8" y1="62.6" x2="82.1" y2="47.8"/>
<line x1="110.8" y1="57.4" x2="85.1" y2="42.6"/>
<line x1="109.3" y1="60.0" x2="109.3" y2="89.6"/>
<line x1="76.1" y1="162.6" x2="50.5" y2="177.4"/>
<line x1="73.1" y1="157.4" x2="47.5" y2="172.2"/>
<line x1="74.6" y1="160.0" x2="100.3" y2="174.8"/>
<line x1="143.9" y1="160.0" x2="118.3" y2="174.8"/>
<line x1="213.2" y1="90.4" x2="213.2" y2="109.6"/>
<line x1="183.6" y1="117.0" x2="202.8" y2="117.0"/>
<line x1="183.6" y1="123.0" x2="202.8" y2="123.0"/>
<line x1="242.8" y1="120.0" x2="223.6" y2="120.0"/>
<line x1="213.2" y1="149.6" x2="213.2" y2="130.4"/>
<text x="327.205081" y="194.082032" fill="rgb(12,12,255)"  stroke="rgb(12,12,255)" stroke-width="1" font-size="16" >NH</text>
<text x="351.205081" y="198.882032" fill="rgb(12,12,255)"  stroke="rgb(12,12,255)" stroke-width="1" font-size="13" >2</text>
<text x="71.041016" y="48.320000" fill="rgb(255,12,12)"  stroke="rgb(255,12,12)" stroke-width="1" font-size="16" >O</text>
<text x="36.400000" y="184.800000" fill="rgb(255,12,12)"  stroke="rgb(255,12,12)" stroke-width="1" font-size="16" >O</text>
<text x="207.205081" y="88.320000" fill="rgb(255,12,12)"  stroke="rgb(255,12,12)" stroke-width="1" font-size="16" >OH</text>
<text x="169.605081" y="124.800000" fill="rgb(255,12,12)"  stroke="rgb(255,12,12)" stroke-width="1" font-size="16" >O</text>
<text x="105.682032" y="104.800000" fill="rgb(255,12,12)"  stroke="rgb(255,12,12)" stroke-width="1" font-size="16" >O</text>
<text x="103.282032" y="184.800000" fill="rgb(255,12,12)"  stroke="rgb(255,12,12)" stroke-width="1" font-size="16" >O</text>
<text x="247.205081" y="128.320000" fill="rgb(255,12,12)"  stroke="rgb(255,12,12)" stroke-width="1" font-size="16" >O</text>
<text x="207.205081" y="164.800000" fill="rgb(255,12,12)"  stroke="rgb(255,12,12)" stroke-width="1" font-size="16" >O</text>
<text x="207.205081" y="128.320000" fill="rgb(255,127,0)"  stroke="rgb(255,127,0)" stroke-width="1" font-size="16" >P</text>
<text font-size="18.000000" fill ="black" font-family="sans-serif"
x="140.000000" y="20.000000" ></text>
<title> - OBDepict</title>
</svg>
