<?xml version="1.0"?>
<svg xmlns="http://www.w3.org/2000/svg"
xmlns:xlink="http://www.w3.org/1999/xlink" xmlns:cml="http://www.xml-cml.org/schema" width="478.564" height="438.564" x="0" y="0" font-family="sans-serif" stroke="rgb(0,0,0)" stroke-width="1" >
<line x1="98.3" y1="189.4" x2="123.9" y2="174.6"/>
<line x1="109.3" y1="298.6" x2="109.3" y2="338.6"/>
<line x1="109.3" y1="298.6" x2="143.9" y2="278.6"/>
<line x1="109.3" y1="338.6" x2="74.6" y2="358.6"/>
<line x1="278.6" y1="183.9" x2="258.6" y2="149.3"/>
<line x1="278.6" y1="183.9" x2="308.2" y2="183.9"/>
<line x1="218.6" y1="80.0" x2="258.6" y2="80.0"/>
<line x1="218.6" y1="80.0" x2="203.8" y2="105.6"/>
<polygon points="110.523048 151.431535 120.458947 176.641016 127.387150 172.641016 " />
<line x1="123.9" y1="174.6" x2="143.9" y2="209.3"/>
<line x1="123.9" y1="174.6" x2="149.6" y2="159.8"/>
<line x1="338.6" y1="80.0" x2="323.8" y2="54.4"/>
<polygon points="167.132529 265.164065 141.923048 275.099963 145.923048 282.028166 " />
<line x1="143.9" y1="278.6" x2="163.9" y2="313.2"/>
<line x1="143.9" y1="278.6" x2="129.1" y2="252.9"/>
<polygon points="235.354584 162.682032 260.564065 152.746134 256.564065 145.817931 " />
<line x1="258.6" y1="149.3" x2="278.6" y2="114.6"/>
<line x1="258.6" y1="149.3" x2="232.9" y2="134.5"/>
<line x1="280.5" y1="66.9" x2="280.9" y2="67.5"/>
<line x1="276.9" y1="68.5" x2="277.7" y2="69.9"/>
<line x1="273.2" y1="70.2" x2="274.4" y2="72.2"/>
<line x1="269.5" y1="71.8" x2="271.1" y2="74.6"/>
<line x1="265.9" y1="73.5" x2="267.9" y2="76.9"/>
<line x1="262.2" y1="75.1" x2="264.6" y2="79.3"/>
<line x1="258.5" y1="76.8" x2="261.3" y2="81.6"/>
<line x1="258.6" y1="80.0" x2="278.6" y2="114.6"/>
<line x1="258.6" y1="80.0" x2="258.6" y2="50.4"/>
<line x1="77.6" y1="358.6" x2="77.6" y2="388.2"/>
<line x1="71.6" y1="358.6" x2="71.6" y2="388.2"/>
<line x1="74.6" y1="358.6" x2="49.0" y2="343.8"/>
<line x1="300.9" y1="127.1" x2="300.5" y2="127.8"/>
<line x1="297.7" y1="124.7" x2="296.9" y2="126.1"/>
<line x1="294.4" y1="122.4" x2="293.2" y2="124.5"/>
<line x1="291.1" y1="120.1" x2="289.5" y2="122.8"/>
<line x1="287.9" y1="117.7" x2="285.9" y2="121.2"/>
<line x1="284.6" y1="115.4" x2="282.2" y2="119.5"/>
<line x1="281.3" y1="113.0" x2="278.5" y2="117.9"/>
<line x1="278.6" y1="114.6" x2="304.2" y2="99.8"/>
<line x1="146.5" y1="210.8" x2="131.7" y2="236.4"/>
<line x1="141.3" y1="207.8" x2="126.5" y2="233.4"/>
<line x1="143.9" y1="209.3" x2="173.5" y2="209.3"/>
<line x1="398.6" y1="253.2" x2="428.2" y2="253.2"/>
<line x1="166.5" y1="314.7" x2="151.7" y2="340.3"/>
<line x1="161.3" y1="311.7" x2="146.5" y2="337.3"/>
<line x1="163.9" y1="313.2" x2="193.5" y2="313.2"/>
<line x1="341.2" y1="289.3" x2="326.4" y2="315.0"/>
<line x1="336.0" y1="286.3" x2="321.2" y2="312.0"/>
<line x1="129.0" y1="114.6" x2="148.2" y2="114.6"/>
<line x1="161.6" y1="85.0" x2="161.6" y2="104.2"/>
<line x1="155.6" y1="85.0" x2="155.6" y2="104.2"/>
<line x1="188.2" y1="114.6" x2="169.0" y2="114.6"/>
<line x1="158.6" y1="144.2" x2="158.6" y2="125.0"/>
<line x1="318.6" y1="114.6" x2="338.6" y2="149.3"/>
<line x1="338.6" y1="149.3" x2="378.6" y2="149.3"/>
<line x1="344.6" y1="142.1" x2="372.6" y2="142.1"/>
<line x1="378.6" y1="149.3" x2="398.6" y2="114.6"/>
<line x1="398.6" y1="114.6" x2="378.6" y2="80.0"/>
<line x1="389.3" y1="113.0" x2="375.3" y2="88.8"/>
<line x1="378.6" y1="80.0" x2="338.6" y2="80.0"/>
<line x1="338.6" y1="80.0" x2="318.6" y2="114.6"/>
<line x1="341.8" y1="88.8" x2="327.8" y2="113.0"/>
<line x1="338.6" y1="218.6" x2="378.6" y2="218.6"/>
<line x1="378.6" y1="218.6" x2="398.6" y2="183.9"/>
<line x1="375.3" y1="209.8" x2="389.3" y2="185.5"/>
<line x1="398.6" y1="183.9" x2="378.6" y2="149.3"/>
<line x1="338.6" y1="149.3" x2="323.8" y2="174.9"/>
<line x1="323.8" y1="192.9" x2="338.6" y2="218.6"/>
<line x1="398.6" y1="253.2" x2="383.8" y2="278.8"/>
<line x1="389.3" y1="254.8" x2="378.5" y2="273.5"/>
<line x1="368.2" y1="287.8" x2="338.6" y2="287.8"/>
<line x1="338.6" y1="287.8" x2="323.8" y2="262.2"/>
<line x1="323.8" y1="244.2" x2="338.6" y2="218.6"/>
<line x1="331.0" y1="246.1" x2="341.8" y2="227.4"/>
<line x1="378.6" y1="218.6" x2="398.6" y2="253.2"/>
<text x="65.682032" y="199.441016" fill="rgb(102,102,102)"  stroke="rgb(102,102,102)" stroke-width="1" font-size="16" >H</text>
<text x="77.682032" y="204.241016" fill="rgb(102,102,102)"  stroke="rgb(102,102,102)" stroke-width="1" font-size="13" >3</text>
<text x="84.182032" y="199.441016" fill="rgb(102,102,102)"  stroke="rgb(102,102,102)" stroke-width="1" font-size="16" >C</text>
<text x="120.323048" y="248.723048" fill="rgb(12,12,255)"  stroke="rgb(12,12,255)" stroke-width="1" font-size="16" >N</text>
<text x="314.964065" y="258.005081" fill="rgb(12,12,255)"  stroke="rgb(12,12,255)" stroke-width="1" font-size="16" >N</text>
<text x="372.564065" y="292.646097" fill="rgb(12,12,255)"  stroke="rgb(12,12,255)" stroke-width="1" font-size="16" >N</text>
<text x="312.564065" y="188.723048" fill="rgb(12,12,255)"  stroke="rgb(12,12,255)" stroke-width="1" font-size="16" >N</text>
<text x="313.764065" y="38.958984" fill="rgb(255,12,12)"  stroke="rgb(255,12,12)" stroke-width="1" font-size="32" >-</text>
<text x="314.964065" y="53.678984" fill="rgb(255,12,12)"  stroke="rgb(255,12,12)" stroke-width="1" font-size="16" >O</text>
<text x="208.323048" y="137.602032" fill="rgb(255,12,12)"  stroke="rgb(255,12,12)" stroke-width="1" font-size="16" >HO</text>
<text x="252.564065" y="48.320000" fill="rgb(255,12,12)"  stroke="rgb(255,12,12)" stroke-width="1" font-size="16" >OH</text>
<text x="68.641016" y="403.364065" fill="rgb(255,12,12)"  stroke="rgb(255,12,12)" stroke-width="1" font-size="16" >O</text>
<text x="35.200000" y="332.164065" fill="rgb(255,12,12)"  stroke="rgb(255,12,12)" stroke-width="1" font-size="32" >-</text>
<text x="36.400000" y="346.884065" fill="rgb(255,12,12)"  stroke="rgb(255,12,12)" stroke-width="1" font-size="16" >O</text>
<text x="307.205081" y="102.961016" fill="rgb(255,12,12)"  stroke="rgb(255,12,12)" stroke-width="1" font-size="16" >OH</text>
<text x="179.123048" y="228.482032" fill="rgb(255,12,12)"  stroke="rgb(255,12,12)" stroke-width="1" font-size="32" >-</text>
<text x="177.923048" y="214.082032" fill="rgb(255,12,12)"  stroke="rgb(255,12,12)" stroke-width="1" font-size="16" >O</text>
<text x="432.564065" y="258.005081" fill="rgb(255,12,12)"  stroke="rgb(255,12,12)" stroke-width="1" font-size="16" >OH</text>
<text x="140.323048" y="352.646097" fill="rgb(255,12,12)"  stroke="rgb(255,12,12)" stroke-width="1" font-size="16" >O</text>
<text x="197.923048" y="318.005081" fill="rgb(255,12,12)"  stroke="rgb(255,12,12)" stroke-width="1" font-size="16" >OH</text>
<text x="314.964065" y="327.287113" fill="rgb(255,12,12)"  stroke="rgb(255,12,12)" stroke-width="1" font-size="16" >O</text>
<text x="102.964065" y="119.441016" fill="rgb(255,12,12)"  stroke="rgb(255,12,12)" stroke-width="1" font-size="16" >HO</text>
<text x="152.564065" y="82.961016" fill="rgb(255,12,12)"  stroke="rgb(255,12,12)" stroke-width="1" font-size="16" >O</text>
<text x="192.564065" y="119.441016" fill="rgb(255,12,12)"  stroke="rgb(255,12,12)" stroke-width="1" font-size="16" >O</text>
<text x="152.564065" y="159.441016" fill="rgb(255,12,12)"  stroke="rgb(255,12,12)" stroke-width="1" font-size="16" >O</text>
<text x="152.564065" y="122.961016" fill="rgb(255,127,0)"  stroke="rgb(255,127,0)" stroke-width="1" font-size="16" >P</text>
<text x="100.323048" y="148.320000" fill="rgb(191,191,191)"  stroke="rgb(191,191,191)" stroke-width="1" font-size="16" >H</text>
<text x="172.564065" y="266.884065" fill="rgb(191,191,191)"  stroke="rgb(191,191,191)" stroke-width="1" font-size="16" >H</text>
<text x="220.323048" y="174.082032" fill="rgb(191,191,191)"  stroke="rgb(191,191,191)" stroke-width="1" font-size="16" >H</text>
<text x="287.205081" y="68.320000" fill="rgb(191,191,191)"  stroke="rgb(191,191,191)" stroke-width="1" font-size="16" >H</text>
<text x="307.205081" y="139.441016" fill="rgb(191,191,191)"  stroke="rgb(191,191,191)" stroke-width="1" font-size="16" >H</text>
<text font-size="18.000000" fill ="black" font-family="sans-serif"
x="140.000000" y="20.000000" ></text>
<title> - OBDepict</title>
</svg>
