<?xml version="1.0"?>
<svg xmlns="http://www.w3.org/2000/svg"
xmlns:xlink="http://www.w3.org/1999/xlink" xmlns:cml="http://www.xml-cml.org/schema" width="287.846" height="200" x="0" y="0" font-family="sans-serif" stroke="rgb(0,0,0)" stroke-width="1" >
<line x1="143.9" y1="60.0" x2="118.3" y2="45.2"/>
<line x1="146.9" y1="60.0" x2="146.9" y2="100.0"/>
<line x1="140.9" y1="60.0" x2="140.9" y2="100.0"/>
<line x1="143.9" y1="60.0" x2="178.6" y2="40.0"/>
<line x1="143.9" y1="100.0" x2="169.6" y2="114.8"/>
<line x1="143.9" y1="100.0" x2="109.3" y2="120.0"/>
<line x1="178.6" y1="40.0" x2="213.2" y2="60.0"/>
<line x1="109.3" y1="120.0" x2="74.6" y2="100.0"/>
<line x1="112.3" y1="120.0" x2="112.3" y2="149.6"/>
<line x1="106.3" y1="120.0" x2="106.3" y2="149.6"/>
<line x1="216.2" y1="60.0" x2="216.2" y2="89.6"/>
<line x1="210.2" y1="60.0" x2="210.2" y2="89.6"/>
<line x1="213.2" y1="60.0" x2="238.8" y2="45.2"/>
<line x1="74.6" y1="100.0" x2="74.6" y2="70.4"/>
<line x1="76.1" y1="102.6" x2="50.5" y2="117.4"/>
<line x1="73.1" y1="97.4" x2="47.5" y2="112.2"/>
<text x="103.282032" y="164.800000" fill="rgb(255,12,12)"  stroke="rgb(255,12,12)" stroke-width="1" font-size="16" >O</text>
<text x="207.205081" y="104.800000" fill="rgb(255,12,12)"  stroke="rgb(255,12,12)" stroke-width="1" font-size="16" >O</text>
<text x="243.046097" y="33.600000" fill="rgb(255,12,12)"  stroke="rgb(255,12,12)" stroke-width="1" font-size="32" >-</text>
<text x="241.846097" y="48.320000" fill="rgb(255,12,12)"  stroke="rgb(255,12,12)" stroke-width="1" font-size="16" >O</text>
<text x="69.841016" y="53.600000" fill="rgb(255,12,12)"  stroke="rgb(255,12,12)" stroke-width="1" font-size="32" >-</text>
<text x="68.641016" y="68.320000" fill="rgb(255,12,12)"  stroke="rgb(255,12,12)" stroke-width="1" font-size="16" >O</text>
<text x="36.400000" y="124.800000" fill="rgb(255,12,12)"  stroke="rgb(255,12,12)" stroke-width="1" font-size="16" >O</text>
<text x="105.682032" y="48.320000" fill="rgb(191,191,191)"  stroke="rgb(191,191,191)" stroke-width="1" font-size="16" >H</text>
<text x="172.564065" y="124.800000" fill="rgb(191,191,191)"  stroke="rgb(191,191,191)" stroke-width="1" font-size="16" >H</text>
<text font-size="18.000000" fill ="black" font-family="sans-serif"
x="140.000000" y="20.000000" ></text>
<title> - OBDepict</title>
</svg>
