<?xml version="1.0"?>
<svg xmlns="http://www.w3.org/2000/svg"
xmlns:xlink="http://www.w3.org/1999/xlink" xmlns:cml="http://www.xml-cml.org/schema" width="502.826" height="283.982" x="0" y="0" font-family="sans-serif" stroke="rgb(0,0,0)" stroke-width="1" >
<line x1="308.2" y1="115.4" x2="273.5" y2="135.4"/>
<line x1="308.2" y1="115.4" x2="333.8" y2="130.2"/>
<line x1="245.1" y1="192.8" x2="244.3" y2="192.7"/>
<line x1="246.3" y1="189.0" x2="244.8" y2="188.7"/>
<line x1="247.5" y1="185.2" x2="245.2" y2="184.7"/>
<line x1="248.8" y1="181.4" x2="245.6" y2="180.7"/>
<line x1="250.0" y1="177.5" x2="246.1" y2="176.7"/>
<line x1="251.2" y1="173.7" x2="246.5" y2="172.7"/>
<line x1="252.4" y1="169.9" x2="247.0" y2="168.7"/>
<line x1="250.0" y1="167.7" x2="272.0" y2="187.5"/>
<polygon points="296.753568 148.763973 275.544087 131.899871 271.544087 138.828075 " />
<polygon points="201.089874 90.880955 208.336235 116.990920 215.644598 113.737026 " />
<line x1="212.0" y1="115.4" x2="182.6" y2="112.3"/>
<line x1="76.5" y1="148.2" x2="49.5" y2="136.1"/>
<line x1="120.2" y1="203.9" x2="123.3" y2="233.3"/>
<line x1="114.3" y1="204.5" x2="117.4" y2="234.0"/>
<line x1="152.2" y1="76.5" x2="164.2" y2="49.5"/>
<line x1="452.4" y1="95.4" x2="433.2" y2="95.4"/>
<line x1="422.8" y1="65.8" x2="422.8" y2="85.0"/>
<line x1="393.2" y1="92.4" x2="412.4" y2="92.4"/>
<line x1="393.2" y1="98.4" x2="412.4" y2="98.4"/>
<line x1="313.2" y1="175.4" x2="332.4" y2="175.4"/>
<line x1="339.8" y1="205.0" x2="339.8" y2="185.8"/>
<line x1="345.8" y1="205.0" x2="345.8" y2="185.8"/>
<line x1="422.8" y1="205.0" x2="422.8" y2="185.8"/>
<line x1="452.4" y1="178.4" x2="433.2" y2="178.4"/>
<line x1="452.4" y1="172.4" x2="433.2" y2="172.4"/>
<line x1="342.8" y1="145.8" x2="342.8" y2="165.0"/>
<line x1="422.8" y1="125.0" x2="422.8" y2="105.8"/>
<line x1="422.8" y1="145.8" x2="422.8" y2="165.0"/>
<line x1="372.4" y1="175.4" x2="353.2" y2="175.4"/>
<line x1="393.2" y1="175.4" x2="412.4" y2="175.4"/>
<line x1="212.0" y1="155.4" x2="250.0" y2="167.7"/>
<line x1="250.0" y1="167.7" x2="273.5" y2="135.4"/>
<line x1="273.5" y1="135.4" x2="256.1" y2="111.4"/>
<line x1="240.1" y1="106.2" x2="212.0" y2="115.4"/>
<line x1="212.0" y1="115.4" x2="212.0" y2="155.4"/>
<line x1="145.4" y1="140.9" x2="108.9" y2="124.6"/>
<line x1="142.9" y1="131.9" x2="117.3" y2="120.5"/>
<line x1="108.9" y1="124.6" x2="112.0" y2="95.2"/>
<line x1="123.3" y1="82.7" x2="152.2" y2="76.5"/>
<line x1="126.7" y1="89.3" x2="147.8" y2="84.8"/>
<line x1="152.2" y1="76.5" x2="167.0" y2="102.2"/>
<line x1="165.3" y1="118.9" x2="145.4" y2="140.9"/>
<line x1="76.5" y1="148.2" x2="108.9" y2="124.6"/>
<line x1="145.4" y1="140.9" x2="148.5" y2="170.3"/>
<line x1="141.2" y1="186.8" x2="117.3" y2="204.2"/>
<line x1="117.3" y1="204.2" x2="90.2" y2="192.2"/>
<line x1="79.6" y1="177.6" x2="76.5" y2="148.2"/>
<line x1="86.6" y1="174.8" x2="84.3" y2="153.4"/>
<text x="115.445914" y="248.781789" fill="rgb(12,12,255)"  stroke="rgb(12,12,255)" stroke-width="1" font-size="16" >NH</text>
<text x="109.483637" y="93.178286" fill="rgb(12,12,255)"  stroke="rgb(12,12,255)" stroke-width="1" font-size="16" >N</text>
<text x="143.625455" y="185.489503" fill="rgb(12,12,255)"  stroke="rgb(12,12,255)" stroke-width="1" font-size="16" >NH</text>
<text x="77.122957" y="192.731448" fill="rgb(12,12,255)"  stroke="rgb(12,12,255)" stroke-width="1" font-size="16" >N</text>
<text x="166.209541" y="115.982834" fill="rgb(12,12,255)"  stroke="rgb(12,12,255)" stroke-width="1" font-size="16" >N</text>
<text x="273.758470" y="199.289877" fill="rgb(255,12,12)"  stroke="rgb(255,12,12)" stroke-width="1" font-size="16" >OH</text>
<text x="24.400000" y="140.201106" fill="rgb(255,12,12)"  stroke="rgb(255,12,12)" stroke-width="1" font-size="16" >HO</text>
<text x="162.479006" y="48.320000" fill="rgb(255,12,12)"  stroke="rgb(255,12,12)" stroke-width="1" font-size="16" >OH</text>
<text x="456.826120" y="100.163973" fill="rgb(255,12,12)"  stroke="rgb(255,12,12)" stroke-width="1" font-size="16" >OH</text>
<text x="416.826120" y="63.683973" fill="rgb(255,12,12)"  stroke="rgb(255,12,12)" stroke-width="1" font-size="16" >OH</text>
<text x="379.226120" y="100.163973" fill="rgb(255,12,12)"  stroke="rgb(255,12,12)" stroke-width="1" font-size="16" >O</text>
<text x="287.226120" y="183.683973" fill="rgb(255,12,12)"  stroke="rgb(255,12,12)" stroke-width="1" font-size="16" >HO</text>
<text x="336.826120" y="220.163973" fill="rgb(255,12,12)"  stroke="rgb(255,12,12)" stroke-width="1" font-size="16" >O</text>
<text x="416.826120" y="220.163973" fill="rgb(255,12,12)"  stroke="rgb(255,12,12)" stroke-width="1" font-size="16" >OH</text>
<text x="456.826120" y="180.163973" fill="rgb(255,12,12)"  stroke="rgb(255,12,12)" stroke-width="1" font-size="16" >O</text>
<text x="336.826120" y="143.683973" fill="rgb(255,12,12)"  stroke="rgb(255,12,12)" stroke-width="1" font-size="16" >O</text>
<text x="244.032677" y="111.323293" fill="rgb(255,12,12)"  stroke="rgb(255,12,12)" stroke-width="1" font-size="16" >O</text>
<text x="416.826120" y="140.163973" fill="rgb(255,12,12)"  stroke="rgb(255,12,12)" stroke-width="1" font-size="16" >O</text>
<text x="376.826120" y="180.163973" fill="rgb(255,12,12)"  stroke="rgb(255,12,12)" stroke-width="1" font-size="16" >O</text>
<text x="416.826120" y="100.163973" fill="rgb(255,127,0)"  stroke="rgb(255,127,0)" stroke-width="1" font-size="16" >P</text>
<text x="336.826120" y="180.163973" fill="rgb(255,127,0)"  stroke="rgb(255,127,0)" stroke-width="1" font-size="16" >P</text>
<text x="416.826120" y="183.683973" fill="rgb(255,127,0)"  stroke="rgb(255,127,0)" stroke-width="1" font-size="16" >P</text>
<text x="238.116209" y="211.650557" fill="rgb(191,191,191)"  stroke="rgb(191,191,191)" stroke-width="1" font-size="16" >H</text>
<text x="302.185103" y="160.163973" fill="rgb(191,191,191)"  stroke="rgb(191,191,191)" stroke-width="1" font-size="16" >H</text>
<text x="192.120951" y="87.142155" fill="rgb(191,191,191)"  stroke="rgb(191,191,191)" stroke-width="1" font-size="16" >H</text>
<text font-size="18.000000" fill ="black" font-family="sans-serif"
x="140.000000" y="20.000000" ></text>
<title> - OBDepict</title>
</svg>
