<?xml version="1.0"?>
<svg xmlns="http://www.w3.org/2000/svg"
xmlns:xlink="http://www.w3.org/1999/xlink" xmlns:cml="http://www.xml-cml.org/schema" width="253.205" height="240" x="0" y="0" font-family="sans-serif" stroke="rgb(0,0,0)" stroke-width="1" >
<line x1="109.3" y1="100.0" x2="143.9" y2="80.0"/>
<line x1="109.3" y1="100.0" x2="109.3" y2="140.0"/>
<line x1="178.6" y1="100.0" x2="143.9" y2="80.0"/>
<line x1="178.6" y1="100.0" x2="204.2" y2="85.2"/>
<line x1="143.9" y1="80.0" x2="143.9" y2="50.4"/>
<line x1="109.3" y1="140.0" x2="74.6" y2="160.0"/>
<line x1="110.8" y1="137.4" x2="136.4" y2="152.2"/>
<line x1="107.8" y1="142.6" x2="133.4" y2="157.4"/>
<line x1="74.6" y1="160.0" x2="49.0" y2="145.2"/>
<line x1="77.6" y1="160.0" x2="77.6" y2="189.6"/>
<line x1="71.6" y1="160.0" x2="71.6" y2="189.6"/>
<text x="207.205081" y="88.320000" fill="rgb(30,239,30)"  stroke="rgb(30,239,30)" stroke-width="1" font-size="16" >Cl</text>
<text x="137.923048" y="48.320000" fill="rgb(255,12,12)"  stroke="rgb(255,12,12)" stroke-width="1" font-size="16" >OH</text>
<text x="137.923048" y="164.800000" fill="rgb(255,12,12)"  stroke="rgb(255,12,12)" stroke-width="1" font-size="16" >O</text>
<text x="35.200000" y="133.600000" fill="rgb(255,12,12)"  stroke="rgb(255,12,12)" stroke-width="1" font-size="32" >-</text>
<text x="36.400000" y="148.320000" fill="rgb(255,12,12)"  stroke="rgb(255,12,12)" stroke-width="1" font-size="16" >O</text>
<text x="68.641016" y="204.800000" fill="rgb(255,12,12)"  stroke="rgb(255,12,12)" stroke-width="1" font-size="16" >O</text>
<text font-size="18.000000" fill ="black" font-family="sans-serif"
x="140.000000" y="20.000000" ></text>
<title> - OBDepict</title>
</svg>
