<?xml version="1.0"?>
<svg xmlns="http://www.w3.org/2000/svg"
xmlns:xlink="http://www.w3.org/1999/xlink" xmlns:cml="http://www.xml-cml.org/schema" width="253.205" height="400" x="0" y="0" font-family="sans-serif" stroke="rgb(0,0,0)" stroke-width="1" >
<line x1="204.2" y1="294.8" x2="178.6" y2="280.0"/>
<line x1="143.9" y1="220.0" x2="109.3" y2="240.0"/>
<line x1="143.9" y1="220.0" x2="169.6" y2="234.8"/>
<line x1="180.1" y1="282.6" x2="154.4" y2="297.4"/>
<line x1="177.1" y1="277.4" x2="151.4" y2="292.2"/>
<line x1="178.6" y1="280.0" x2="178.6" y2="250.4"/>
<line x1="74.6" y1="180.0" x2="74.6" y2="220.0"/>
<line x1="74.6" y1="100.0" x2="74.6" y2="70.4"/>
<line x1="109.3" y1="240.0" x2="74.6" y2="220.0"/>
<line x1="109.3" y1="240.0" x2="109.3" y2="269.6"/>
<line x1="74.6" y1="220.0" x2="49.0" y2="234.8"/>
<line x1="74.6" y1="340.0" x2="74.6" y2="300.0"/>
<line x1="74.6" y1="340.0" x2="100.3" y2="354.8"/>
<line x1="74.6" y1="340.0" x2="49.0" y2="354.8"/>
<line x1="73.1" y1="297.4" x2="98.8" y2="282.6"/>
<line x1="76.1" y1="302.6" x2="101.8" y2="287.8"/>
<line x1="74.6" y1="300.0" x2="49.0" y2="285.2"/>
<line x1="82.1" y1="52.2" x2="98.8" y2="42.6"/>
<line x1="85.1" y1="57.4" x2="101.8" y2="47.8"/>
<line x1="64.1" y1="57.4" x2="47.5" y2="47.8"/>
<line x1="67.1" y1="52.2" x2="50.5" y2="42.6"/>
<line x1="40.0" y1="160.0" x2="74.6" y2="180.0"/>
<line x1="48.8" y1="156.8" x2="73.0" y2="170.8"/>
<line x1="74.6" y1="180.0" x2="109.3" y2="160.0"/>
<line x1="109.3" y1="160.0" x2="109.3" y2="120.0"/>
<line x1="102.1" y1="154.0" x2="102.1" y2="126.0"/>
<line x1="109.3" y1="120.0" x2="74.6" y2="100.0"/>
<line x1="74.6" y1="100.0" x2="40.0" y2="120.0"/>
<line x1="73.0" y1="109.2" x2="48.8" y2="123.2"/>
<line x1="40.0" y1="120.0" x2="40.0" y2="160.0"/>
<text x="207.205081" y="304.800000" fill="rgb(102,102,102)"  stroke="rgb(102,102,102)" stroke-width="1" font-size="16" >CH</text>
<text x="231.205081" y="309.600000" fill="rgb(102,102,102)"  stroke="rgb(102,102,102)" stroke-width="1" font-size="13" >3</text>
<text x="103.282032" y="364.800000" fill="rgb(30,239,30)"  stroke="rgb(30,239,30)" stroke-width="1" font-size="16" >Cl</text>
<text x="24.400000" y="364.800000" fill="rgb(30,239,30)"  stroke="rgb(30,239,30)" stroke-width="1" font-size="16" >Cl</text>
<text x="103.282032" y="284.800000" fill="rgb(12,12,255)"  stroke="rgb(12,12,255)" stroke-width="1" font-size="16" >N</text>
<text x="68.641016" y="64.800000" fill="rgb(12,12,255)"  stroke="rgb(12,12,255)" stroke-width="1" font-size="16" >N</text>
<text x="140.323048" y="304.800000" fill="rgb(255,12,12)"  stroke="rgb(255,12,12)" stroke-width="1" font-size="16" >O</text>
<text x="24.400000" y="244.800000" fill="rgb(255,12,12)"  stroke="rgb(255,12,12)" stroke-width="1" font-size="16" >HO</text>
<text x="24.400000" y="288.320000" fill="rgb(255,12,12)"  stroke="rgb(255,12,12)" stroke-width="1" font-size="16" >HO</text>
<text x="103.282032" y="48.320000" fill="rgb(255,12,12)"  stroke="rgb(255,12,12)" stroke-width="1" font-size="16" >O</text>
<text x="36.400000" y="48.320000" fill="rgb(255,12,12)"  stroke="rgb(255,12,12)" stroke-width="1" font-size="16" >O</text>
<text x="172.564065" y="248.320000" fill="rgb(255,12,12)"  stroke="rgb(255,12,12)" stroke-width="1" font-size="16" >O</text>
<text font-size="18.000000" fill ="black" font-family="sans-serif"
x="140.000000" y="20.000000" ></text>
<title> - OBDepict</title>
</svg>
