<?xml version="1.0"?>
<svg xmlns="http://www.w3.org/2000/svg"
xmlns:xlink="http://www.w3.org/1999/xlink" xmlns:cml="http://www.xml-cml.org/schema" width="347.356" height="241.605" x="0" y="0" font-family="sans-serif" stroke="rgb(0,0,0)" stroke-width="1" >
<line x1="298.0" y1="157.6" x2="271.3" y2="142.2"/>
<line x1="51.7" y1="81.3" x2="79.0" y2="95.5"/>
<line x1="269.8" y1="100.1" x2="296.5" y2="84.7"/>
<line x1="272.8" y1="105.3" x2="299.5" y2="89.9"/>
<line x1="79.3" y1="130.4" x2="51.1" y2="142.9"/>
<line x1="76.8" y1="124.9" x2="48.7" y2="137.4"/>
<line x1="234.0" y1="82.9" x2="234.0" y2="52.1"/>
<line x1="240.0" y1="82.9" x2="240.0" y2="52.1"/>
<line x1="105.5" y1="149.2" x2="97.7" y2="179.0"/>
<line x1="99.7" y1="147.7" x2="91.9" y2="177.5"/>
<line x1="202.7" y1="142.2" x2="237.0" y2="162.0"/>
<line x1="237.0" y1="162.0" x2="237.0" y2="191.3"/>
<line x1="219.2" y1="201.6" x2="168.4" y2="201.6"/>
<line x1="168.4" y1="201.6" x2="168.5" y2="162.0"/>
<line x1="175.6" y1="195.6" x2="175.6" y2="168.0"/>
<line x1="168.5" y1="162.0" x2="202.7" y2="142.2"/>
<line x1="131.1" y1="41.1" x2="160.2" y2="44.1"/>
<line x1="160.2" y1="44.1" x2="168.5" y2="82.9"/>
<line x1="154.4" y1="51.5" x2="160.2" y2="78.5"/>
<line x1="168.5" y1="82.9" x2="134.2" y2="102.6"/>
<line x1="134.2" y1="102.6" x2="104.8" y2="76.2"/>
<line x1="104.8" y1="76.2" x2="116.7" y2="49.4"/>
<line x1="168.5" y1="82.9" x2="202.7" y2="102.7"/>
<line x1="202.7" y1="102.7" x2="202.7" y2="142.2"/>
<line x1="195.5" y1="108.7" x2="195.5" y2="136.2"/>
<line x1="168.5" y1="162.0" x2="134.2" y2="142.2"/>
<line x1="134.2" y1="142.2" x2="134.2" y2="102.6"/>
<line x1="141.4" y1="136.2" x2="141.4" y2="108.6"/>
<line x1="78.0" y1="127.6" x2="79.0" y2="95.5"/>
<line x1="79.0" y1="95.5" x2="104.8" y2="76.2"/>
<line x1="88.1" y1="97.6" x2="104.3" y2="85.5"/>
<line x1="134.2" y1="142.2" x2="102.6" y2="148.4"/>
<line x1="102.6" y1="148.4" x2="78.0" y2="127.6"/>
<line x1="271.3" y1="102.7" x2="237.0" y2="82.9"/>
<line x1="237.0" y1="82.9" x2="202.7" y2="102.7"/>
<line x1="237.0" y1="162.0" x2="271.3" y2="142.2"/>
<line x1="238.6" y1="152.8" x2="262.5" y2="139.0"/>
<line x1="271.3" y1="142.2" x2="271.3" y2="102.7"/>
<text x="301.353426" y="167.848215" fill="rgb(102,102,102)"  stroke="rgb(102,102,102)" stroke-width="1" font-size="16" >CH</text>
<text x="325.353426" y="172.648215" fill="rgb(102,102,102)"  stroke="rgb(102,102,102)" stroke-width="1" font-size="13" >3</text>
<text x="18.452474" y="84.586439" fill="rgb(102,102,102)"  stroke="rgb(102,102,102)" stroke-width="1" font-size="16" >H</text>
<text x="30.452474" y="92.266439" fill="rgb(102,102,102)"  stroke="rgb(102,102,102)" stroke-width="1" font-size="13" >3</text>
<text x="36.952474" y="84.586439" fill="rgb(102,102,102)"  stroke="rgb(102,102,102)" stroke-width="1" font-size="16" >C</text>
<text x="230.992501" y="206.404937" fill="rgb(12,12,255)"  stroke="rgb(12,12,255)" stroke-width="1" font-size="16" >NH</text>
<text x="105.275291" y="48.320000" fill="rgb(12,12,255)"  stroke="rgb(12,12,255)" stroke-width="1" font-size="16" >HN</text>
<text x="301.356332" y="90.166616" fill="rgb(255,12,12)"  stroke="rgb(255,12,12)" stroke-width="1" font-size="16" >O</text>
<text x="36.400000" y="149.358007" fill="rgb(255,12,12)"  stroke="rgb(255,12,12)" stroke-width="1" font-size="16" >O</text>
<text x="231.010577" y="49.544345" fill="rgb(255,12,12)"  stroke="rgb(255,12,12)" stroke-width="1" font-size="16" >O</text>
<text x="88.512801" y="193.541792" fill="rgb(255,12,12)"  stroke="rgb(255,12,12)" stroke-width="1" font-size="16" >O</text>
<text font-size="18.000000" fill ="black" font-family="sans-serif"
x="140.000000" y="20.000000" ></text>
<title> - OBDepict</title>
</svg>
