<?xml version="1.0"?>
<svg xmlns="http://www.w3.org/2000/svg"
xmlns:xlink="http://www.w3.org/1999/xlink" xmlns:cml="http://www.xml-cml.org/schema" width="380.341" height="395.239" x="0" y="0" font-family="sans-serif" stroke="rgb(0,0,0)" stroke-width="1" >
<line x1="152.8" y1="319.4" x2="168.4" y2="295.2"/>
<line x1="170.5" y1="256.4" x2="137.8" y2="235.2"/>
<line x1="170.5" y1="256.4" x2="168.4" y2="295.2"/>
<line x1="137.8" y1="235.2" x2="139.4" y2="206.5"/>
<line x1="201.0" y1="316.4" x2="168.4" y2="295.2"/>
<line x1="201.0" y1="316.4" x2="199.5" y2="345.1"/>
<line x1="320.9" y1="132.0" x2="282.0" y2="132.0"/>
<line x1="320.9" y1="132.0" x2="335.3" y2="107.1"/>
<line x1="168.4" y1="295.2" x2="139.7" y2="293.7"/>
<line x1="294.8" y1="153.4" x2="294.1" y2="153.8"/>
<line x1="293.2" y1="149.8" x2="291.8" y2="150.6"/>
<line x1="291.6" y1="146.2" x2="289.5" y2="147.4"/>
<line x1="290.0" y1="142.7" x2="287.2" y2="144.3"/>
<line x1="288.4" y1="139.1" x2="284.9" y2="141.1"/>
<line x1="286.8" y1="135.5" x2="282.7" y2="137.9"/>
<line x1="285.2" y1="132.0" x2="280.4" y2="134.8"/>
<polygon points="308.063502 93.123210 282.007946 89.123210 282.007946 97.123210 " />
<line x1="282.0" y1="93.1" x2="296.4" y2="68.2"/>
<line x1="260.4" y1="51.9" x2="261.1" y2="52.3"/>
<line x1="258.1" y1="55.1" x2="259.5" y2="55.9"/>
<line x1="255.8" y1="58.3" x2="257.9" y2="59.5"/>
<line x1="253.6" y1="61.4" x2="256.3" y2="63.0"/>
<line x1="251.3" y1="64.6" x2="254.7" y2="66.6"/>
<line x1="249.0" y1="67.8" x2="253.1" y2="70.2"/>
<line x1="246.7" y1="70.9" x2="251.5" y2="73.7"/>
<line x1="248.3" y1="73.7" x2="233.9" y2="48.8"/>
<polygon points="201.622637 70.558437 211.186313 95.123210 218.114516 91.123210 " />
<line x1="214.7" y1="93.1" x2="185.9" y2="93.1"/>
<line x1="107.3" y1="175.2" x2="131.4" y2="190.9"/>
<polygon points="218.051347 157.844746 218.616194 131.489994 210.684635 132.534204 " />
<line x1="214.7" y1="132.0" x2="159.1" y2="117.1"/>
<line x1="125.6" y1="75.6" x2="135.9" y2="102.4"/>
<line x1="131.7" y1="118.2" x2="109.3" y2="136.4"/>
<line x1="109.3" y1="136.4" x2="76.7" y2="115.2"/>
<line x1="76.7" y1="115.2" x2="84.1" y2="87.4"/>
<line x1="96.8" y1="77.1" x2="125.6" y2="75.6"/>
<line x1="99.3" y1="84.2" x2="120.0" y2="83.1"/>
<line x1="109.3" y1="136.4" x2="107.3" y2="175.2"/>
<line x1="101.8" y1="142.0" x2="100.4" y2="168.8"/>
<line x1="107.3" y1="175.2" x2="81.6" y2="188.3"/>
<line x1="64.1" y1="187.3" x2="40.0" y2="171.7"/>
<line x1="66.3" y1="180.2" x2="49.0" y2="168.9"/>
<line x1="40.0" y1="171.7" x2="41.5" y2="142.9"/>
<line x1="51.0" y1="128.2" x2="76.7" y2="115.2"/>
<line x1="56.2" y1="133.7" x2="74.6" y2="124.3"/>
<line x1="248.3" y1="73.7" x2="214.7" y2="93.1"/>
<line x1="214.7" y1="93.1" x2="214.7" y2="132.0"/>
<line x1="214.7" y1="132.0" x2="239.6" y2="146.4"/>
<line x1="257.1" y1="146.4" x2="282.0" y2="132.0"/>
<line x1="282.0" y1="132.0" x2="282.0" y2="93.1"/>
<line x1="282.0" y1="93.1" x2="248.3" y2="73.7"/>
<text x="123.644172" y="332.637859" fill="rgb(102,102,102)"  stroke="rgb(102,102,102)" stroke-width="1" font-size="16" >H</text>
<text x="135.644172" y="337.437859" fill="rgb(102,102,102)"  stroke="rgb(102,102,102)" stroke-width="1" font-size="13" >3</text>
<text x="142.144172" y="332.637859" fill="rgb(102,102,102)"  stroke="rgb(102,102,102)" stroke-width="1" font-size="16" >C</text>
<text x="133.880187" y="204.691300" fill="rgb(12,12,255)"  stroke="rgb(12,12,255)" stroke-width="1" font-size="16" >NH</text>
<text x="69.014967" y="197.646079" fill="rgb(12,12,255)"  stroke="rgb(12,12,255)" stroke-width="1" font-size="16" >N</text>
<text x="38.435287" y="141.150079" fill="rgb(12,12,255)"  stroke="rgb(12,12,255)" stroke-width="1" font-size="16" >N</text>
<text x="83.150726" y="85.931111" fill="rgb(12,12,255)"  stroke="rgb(12,12,255)" stroke-width="1" font-size="16" >N</text>
<text x="135.922850" y="120.201729" fill="rgb(12,12,255)"  stroke="rgb(12,12,255)" stroke-width="1" font-size="16" >N</text>
<text x="183.404258" y="360.038892" fill="rgb(255,12,12)"  stroke="rgb(255,12,12)" stroke-width="1" font-size="16" >HO</text>
<text x="334.341279" y="106.653333" fill="rgb(255,12,12)"  stroke="rgb(255,12,12)" stroke-width="1" font-size="16" >OH</text>
<text x="295.452390" y="67.764444" fill="rgb(255,12,12)"  stroke="rgb(255,12,12)" stroke-width="1" font-size="16" >OH</text>
<text x="213.284736" y="48.320000" fill="rgb(255,12,12)"  stroke="rgb(255,12,12)" stroke-width="1" font-size="16" >HO</text>
<text x="160.161526" y="101.443210" fill="rgb(255,12,12)"  stroke="rgb(255,12,12)" stroke-width="1" font-size="16" >HO</text>
<text x="242.329180" y="156.256543" fill="rgb(255,12,12)"  stroke="rgb(255,12,12)" stroke-width="1" font-size="16" >O</text>
<text x="125.988986" y="301.507605" fill="rgb(191,191,191)"  stroke="rgb(191,191,191)" stroke-width="1" font-size="16" >H</text>
<text x="295.452390" y="170.490865" fill="rgb(191,191,191)"  stroke="rgb(191,191,191)" stroke-width="1" font-size="16" >H</text>
<text x="314.896835" y="101.443210" fill="rgb(191,191,191)"  stroke="rgb(191,191,191)" stroke-width="1" font-size="16" >H</text>
<text x="261.773625" y="48.320000" fill="rgb(191,191,191)"  stroke="rgb(191,191,191)" stroke-width="1" font-size="16" >H</text>
<text x="191.605970" y="67.764444" fill="rgb(191,191,191)"  stroke="rgb(191,191,191)" stroke-width="1" font-size="16" >H</text>
<text x="213.726433" y="175.368288" fill="rgb(191,191,191)"  stroke="rgb(191,191,191)" stroke-width="1" font-size="16" >H</text>
<text font-size="18.000000" fill ="black" font-family="sans-serif"
x="140.000000" y="20.000000" ></text>
<title> - OBDepict</title>
</svg>
