<?xml version="1.0"?>
<svg xmlns="http://www.w3.org/2000/svg"
xmlns:xlink="http://www.w3.org/1999/xlink" xmlns:cml="http://www.xml-cml.org/schema" width="348.574" height="215.733" x="0" y="0" font-family="sans-serif" stroke="rgb(0,0,0)" stroke-width="1" >
<line x1="273.9" y1="155.7" x2="299.6" y2="170.5"/>
<line x1="40.0" y1="59.3" x2="73.4" y2="40.0"/>
<line x1="73.4" y1="40.0" x2="106.8" y2="59.3"/>
<line x1="106.8" y1="59.3" x2="106.8" y2="97.9"/>
<line x1="106.8" y1="97.9" x2="40.0" y2="97.9"/>
<line x1="40.0" y1="97.9" x2="40.0" y2="59.3"/>
<line x1="240.5" y1="97.8" x2="273.9" y2="117.1"/>
<line x1="273.9" y1="117.1" x2="273.9" y2="155.7"/>
<line x1="273.9" y1="155.7" x2="240.5" y2="175.0"/>
<line x1="240.5" y1="175.0" x2="207.1" y2="155.8"/>
<line x1="207.1" y1="155.8" x2="207.1" y2="117.2"/>
<line x1="207.1" y1="117.2" x2="240.5" y2="97.8"/>
<line x1="140.3" y1="117.2" x2="173.7" y2="97.9"/>
<line x1="173.7" y1="97.9" x2="207.1" y2="117.2"/>
<line x1="207.1" y1="155.8" x2="173.7" y2="175.1"/>
<line x1="173.7" y1="175.1" x2="140.3" y2="155.8"/>
<line x1="140.3" y1="155.8" x2="140.3" y2="117.2"/>
<line x1="140.2" y1="40.0" x2="173.7" y2="59.3"/>
<line x1="173.7" y1="59.3" x2="173.7" y2="97.9"/>
<line x1="140.3" y1="117.2" x2="106.8" y2="97.9"/>
<line x1="106.8" y1="59.3" x2="140.2" y2="40.0"/>
<text x="302.573837" y="180.533125" fill="rgb(255,12,12)"  stroke="rgb(255,12,12)" stroke-width="1" font-size="16" >OH</text>
<text font-size="18.000000" fill ="black" font-family="sans-serif"
x="140.000000" y="20.000000" ></text>
<title> - OBDepict</title>
</svg>
