<?xml version="1.0"?>
<svg xmlns="http://www.w3.org/2000/svg"
xmlns:xlink="http://www.w3.org/1999/xlink" xmlns:cml="http://www.xml-cml.org/schema" width="498.298" height="303.291" x="0" y="0" font-family="sans-serif" stroke="rgb(0,0,0)" stroke-width="1" >
<line x1="407.8" y1="185.3" x2="400.3" y2="213.3"/>
<line x1="400.3" y1="213.3" x2="362.5" y2="223.4"/>
<line x1="362.5" y1="223.4" x2="334.9" y2="195.7"/>
<line x1="334.9" y1="195.7" x2="297.1" y2="205.8"/>
<line x1="297.1" y1="205.8" x2="269.5" y2="178.2"/>
<line x1="334.9" y1="50.1" x2="297.1" y2="40.0"/>
<line x1="334.9" y1="50.1" x2="345.0" y2="87.9"/>
<line x1="297.1" y1="40.0" x2="269.5" y2="67.6"/>
<line x1="269.5" y1="178.2" x2="241.6" y2="185.7"/>
<line x1="266.6" y1="177.4" x2="276.7" y2="139.7"/>
<line x1="272.4" y1="179.0" x2="282.5" y2="141.2"/>
<line x1="345.0" y1="87.9" x2="382.8" y2="98.0"/>
<line x1="269.5" y1="67.6" x2="231.7" y2="57.5"/>
<line x1="279.6" y1="140.4" x2="307.6" y2="133.0"/>
<line x1="279.6" y1="140.4" x2="252.0" y2="112.8"/>
<line x1="382.8" y1="98.0" x2="392.9" y2="135.8"/>
<line x1="231.7" y1="57.5" x2="204.1" y2="85.2"/>
<line x1="252.0" y1="112.8" x2="214.2" y2="122.9"/>
<line x1="392.9" y1="135.8" x2="430.7" y2="145.9"/>
<line x1="204.1" y1="85.2" x2="183.6" y2="64.7"/>
<line x1="204.1" y1="85.2" x2="214.2" y2="122.9"/>
<line x1="204.1" y1="85.2" x2="176.2" y2="92.7"/>
<line x1="214.2" y1="122.9" x2="221.7" y2="150.9"/>
<line x1="214.2" y1="122.9" x2="186.3" y2="130.4"/>
<line x1="433.6" y1="145.1" x2="441.0" y2="173.0"/>
<line x1="427.8" y1="146.6" x2="435.2" y2="174.6"/>
<line x1="430.7" y1="145.9" x2="451.1" y2="125.4"/>
<line x1="145.3" y1="250.9" x2="144.7" y2="251.3"/>
<line x1="143.7" y1="247.3" x2="142.4" y2="248.1"/>
<line x1="142.1" y1="243.7" x2="140.1" y2="244.9"/>
<line x1="140.5" y1="240.1" x2="137.7" y2="241.7"/>
<line x1="138.9" y1="236.6" x2="135.4" y2="238.6"/>
<line x1="137.3" y1="233.0" x2="133.1" y2="235.4"/>
<line x1="135.7" y1="229.4" x2="130.8" y2="232.2"/>
<line x1="132.5" y1="229.4" x2="118.0" y2="254.5"/>
<line x1="86.5" y1="231.8" x2="85.8" y2="231.4"/>
<line x1="88.8" y1="228.6" x2="87.4" y2="227.8"/>
<line x1="91.1" y1="225.4" x2="89.0" y2="224.2"/>
<line x1="93.4" y1="222.2" x2="90.6" y2="220.6"/>
<line x1="95.7" y1="219.0" x2="92.2" y2="217.0"/>
<line x1="98.0" y1="215.8" x2="93.8" y2="213.4"/>
<line x1="100.3" y1="212.6" x2="95.4" y2="209.8"/>
<line x1="98.6" y1="209.9" x2="69.7" y2="209.9"/>
<line x1="216.4" y1="209.5" x2="216.4" y2="210.3"/>
<line x1="208.6" y1="209.1" x2="208.6" y2="210.7"/>
<line x1="200.7" y1="208.7" x2="200.7" y2="211.1"/>
<line x1="192.9" y1="208.3" x2="192.9" y2="211.5"/>
<line x1="185.1" y1="207.9" x2="185.1" y2="211.9"/>
<line x1="177.3" y1="207.5" x2="177.3" y2="212.3"/>
<line x1="169.5" y1="207.1" x2="169.5" y2="212.7"/>
<line x1="166.3" y1="209.9" x2="180.8" y2="234.9"/>
<line x1="73.6" y1="171.2" x2="73.6" y2="170.4"/>
<line x1="77.5" y1="171.6" x2="77.5" y2="170.0"/>
<line x1="81.4" y1="172.0" x2="81.4" y2="169.6"/>
<line x1="85.3" y1="172.4" x2="85.3" y2="169.2"/>
<line x1="89.3" y1="172.8" x2="89.3" y2="168.8"/>
<line x1="93.2" y1="173.2" x2="93.2" y2="168.4"/>
<line x1="97.1" y1="173.6" x2="97.1" y2="168.0"/>
<line x1="98.6" y1="170.8" x2="79.1" y2="136.9"/>
<line x1="76.5" y1="135.4" x2="91.0" y2="110.4"/>
<line x1="81.7" y1="138.4" x2="96.2" y2="113.4"/>
<line x1="79.1" y1="136.9" x2="50.2" y2="136.9"/>
<line x1="166.3" y1="170.8" x2="189.3" y2="188.4"/>
<line x1="166.3" y1="170.8" x2="173.8" y2="142.9"/>
<line x1="132.5" y1="229.4" x2="98.6" y2="209.9"/>
<line x1="98.6" y1="209.9" x2="98.6" y2="170.8"/>
<line x1="98.6" y1="170.8" x2="123.7" y2="156.3"/>
<line x1="141.3" y1="156.3" x2="166.3" y2="170.8"/>
<line x1="166.3" y1="170.8" x2="166.3" y2="209.9"/>
<line x1="166.3" y1="209.9" x2="132.5" y2="229.4"/>
<text x="404.421291" y="183.816266" fill="rgb(102,102,102)"  stroke="rgb(102,102,102)" stroke-width="1" font-size="16" >CH</text>
<text x="428.421291" y="191.496266" fill="rgb(102,102,102)"  stroke="rgb(102,102,102)" stroke-width="1" font-size="13" >3</text>
<text x="150.743804" y="100.082894" fill="rgb(255,12,12)"  stroke="rgb(255,12,12)" stroke-width="1" font-size="16" >HO</text>
<text x="434.773707" y="188.429171" fill="rgb(255,12,12)"  stroke="rgb(255,12,12)" stroke-width="1" font-size="16" >O</text>
<text x="453.497682" y="111.828806" fill="rgb(255,12,12)"  stroke="rgb(255,12,12)" stroke-width="1" font-size="32" >-</text>
<text x="452.297682" y="126.548806" fill="rgb(255,12,12)"  stroke="rgb(255,12,12)" stroke-width="1" font-size="16" >O</text>
<text x="97.344629" y="268.090815" fill="rgb(255,12,12)"  stroke="rgb(255,12,12)" stroke-width="1" font-size="16" >HO</text>
<text x="43.945455" y="214.691640" fill="rgb(255,12,12)"  stroke="rgb(255,12,12)" stroke-width="1" font-size="16" >HO</text>
<text x="179.889259" y="248.545361" fill="rgb(255,12,12)"  stroke="rgb(255,12,12)" stroke-width="1" font-size="16" >OH</text>
<text x="92.636364" y="111.413290" fill="rgb(255,12,12)"  stroke="rgb(255,12,12)" stroke-width="1" font-size="16" >O</text>
<text x="35.200000" y="156.147011" fill="rgb(255,12,12)"  stroke="rgb(255,12,12)" stroke-width="1" font-size="32" >-</text>
<text x="36.400000" y="141.747011" fill="rgb(255,12,12)"  stroke="rgb(255,12,12)" stroke-width="1" font-size="16" >O</text>
<text x="172.861276" y="141.361812" fill="rgb(255,12,12)"  stroke="rgb(255,12,12)" stroke-width="1" font-size="16" >O</text>
<text x="126.490084" y="159.575277" fill="rgb(255,12,12)"  stroke="rgb(255,12,12)" stroke-width="1" font-size="16" >O</text>
<text x="228.144170" y="193.124706" fill="rgb(191,191,191)"  stroke="rgb(191,191,191)" stroke-width="1" font-size="16" >H</text>
<text x="311.379479" y="138.650844" fill="rgb(191,191,191)"  stroke="rgb(191,191,191)" stroke-width="1" font-size="16" >H</text>
<text x="172.861276" y="65.843975" fill="rgb(191,191,191)"  stroke="rgb(191,191,191)" stroke-width="1" font-size="16" >H</text>
<text x="218.337666" y="165.483259" fill="rgb(191,191,191)"  stroke="rgb(191,191,191)" stroke-width="1" font-size="16" >H</text>
<text x="146.035539" y="268.090815" fill="rgb(191,191,191)"  stroke="rgb(191,191,191)" stroke-width="1" font-size="16" >H</text>
<text x="75.490909" y="248.545361" fill="rgb(191,191,191)"  stroke="rgb(191,191,191)" stroke-width="1" font-size="16" >H</text>
<text x="238.525622" y="218.211640" fill="rgb(191,191,191)"  stroke="rgb(191,191,191)" stroke-width="1" font-size="16" >H</text>
<text x="55.945455" y="175.600731" fill="rgb(191,191,191)"  stroke="rgb(191,191,191)" stroke-width="1" font-size="16" >H</text>
<text x="191.356708" y="199.397769" fill="rgb(191,191,191)"  stroke="rgb(191,191,191)" stroke-width="1" font-size="16" >H</text>
<text font-size="18.000000" fill ="black" font-family="sans-serif"
x="140.000000" y="20.000000" ></text>
<title> - OBDepict</title>
</svg>
