<?xml version="1.0"?>
<svg xmlns="http://www.w3.org/2000/svg"
xmlns:xlink="http://www.w3.org/1999/xlink" xmlns:cml="http://www.xml-cml.org/schema" width="383.997" height="324.756" x="0" y="0" font-family="sans-serif" stroke="rgb(0,0,0)" stroke-width="1" >
<line x1="142.1" y1="194.4" x2="144.2" y2="154.4"/>
<line x1="142.1" y1="194.4" x2="166.9" y2="210.5"/>
<polygon points="118.231882 147.722931 143.181294 158.294915 145.180983 150.548869 " />
<line x1="168.3" y1="74.1" x2="169.0" y2="73.9"/>
<line x1="169.1" y1="78.1" x2="170.6" y2="77.6"/>
<line x1="170.0" y1="82.0" x2="172.2" y2="81.3"/>
<line x1="170.8" y1="85.9" x2="173.9" y2="84.9"/>
<line x1="171.7" y1="89.9" x2="175.5" y2="88.6"/>
<line x1="172.5" y1="93.8" x2="177.1" y2="92.3"/>
<line x1="173.4" y1="97.7" x2="178.7" y2="96.0"/>
<line x1="176.5" y1="98.4" x2="196.3" y2="76.4"/>
<line x1="114.4" y1="115.0" x2="114.4" y2="114.2"/>
<line x1="118.4" y1="115.4" x2="118.4" y2="113.8"/>
<line x1="122.4" y1="115.8" x2="122.4" y2="113.4"/>
<line x1="126.4" y1="116.2" x2="126.4" y2="113.0"/>
<line x1="130.4" y1="116.6" x2="130.4" y2="112.6"/>
<line x1="134.4" y1="117.0" x2="134.4" y2="112.2"/>
<line x1="138.4" y1="117.4" x2="138.4" y2="111.8"/>
<line x1="140.0" y1="114.6" x2="125.2" y2="89.0"/>
<line x1="304.2" y1="224.2" x2="333.7" y2="227.3"/>
<polygon points="224.988698 112.344699 200.955902 124.861275 205.658184 131.333411 " />
<line x1="203.3" y1="128.1" x2="230.3" y2="140.1"/>
<line x1="243.4" y1="254.2" x2="226.0" y2="278.1"/>
<line x1="238.5" y1="250.6" x2="221.1" y2="274.6"/>
<line x1="80.0" y1="109.6" x2="80.0" y2="90.4"/>
<line x1="50.4" y1="80.0" x2="69.6" y2="80.0"/>
<line x1="83.0" y1="50.4" x2="83.0" y2="69.6"/>
<line x1="77.0" y1="50.4" x2="77.0" y2="69.6"/>
<line x1="109.6" y1="80.0" x2="90.4" y2="80.0"/>
<line x1="274.5" y1="124.4" x2="248.9" y2="139.2"/>
<line x1="242.0" y1="154.5" x2="248.2" y2="183.5"/>
<line x1="248.2" y1="183.5" x2="287.9" y2="187.7"/>
<line x1="254.9" y1="177.0" x2="282.7" y2="179.9"/>
<line x1="287.9" y1="187.7" x2="300.0" y2="160.6"/>
<line x1="296.5" y1="144.2" x2="274.5" y2="124.4"/>
<line x1="290.2" y1="148.2" x2="274.1" y2="133.7"/>
<line x1="144.2" y1="154.4" x2="140.0" y2="114.6"/>
<line x1="140.0" y1="114.6" x2="176.5" y2="98.4"/>
<line x1="176.5" y1="98.4" x2="203.3" y2="128.1"/>
<line x1="203.3" y1="128.1" x2="188.5" y2="153.7"/>
<line x1="173.1" y1="160.6" x2="144.2" y2="154.4"/>
<line x1="304.2" y1="224.2" x2="287.9" y2="187.7"/>
<line x1="248.2" y1="183.5" x2="230.8" y2="207.4"/>
<line x1="228.9" y1="225.4" x2="240.9" y2="252.4"/>
<line x1="240.9" y1="252.4" x2="270.4" y2="255.5"/>
<line x1="286.8" y1="248.2" x2="304.2" y2="224.2"/>
<line x1="282.2" y1="242.3" x2="294.9" y2="224.8"/>
<text x="201.811974" y="289.555891" fill="rgb(12,12,255)"  stroke="rgb(12,12,255)" stroke-width="1" font-size="16" >HN</text>
<text x="298.215670" y="159.452033" fill="rgb(12,12,255)"  stroke="rgb(12,12,255)" stroke-width="1" font-size="16" >N</text>
<text x="209.053918" y="224.173393" fill="rgb(12,12,255)"  stroke="rgb(12,12,255)" stroke-width="1" font-size="16" >HN</text>
<text x="274.704260" y="261.376350" fill="rgb(12,12,255)"  stroke="rgb(12,12,255)" stroke-width="1" font-size="16" >N</text>
<text x="236.248861" y="152.686809" fill="rgb(12,12,255)"  stroke="rgb(12,12,255)" stroke-width="1" font-size="16" >N</text>
<text x="169.634523" y="220.952635" fill="rgb(255,12,12)"  stroke="rgb(255,12,12)" stroke-width="1" font-size="16" >OH</text>
<text x="197.307043" y="76.965757" fill="rgb(255,12,12)"  stroke="rgb(255,12,12)" stroke-width="1" font-size="16" >OH</text>
<text x="339.196546" y="247.596809" fill="rgb(255,12,12)"  stroke="rgb(255,12,12)" stroke-width="1" font-size="32" >-</text>
<text x="337.996546" y="233.196809" fill="rgb(255,12,12)"  stroke="rgb(255,12,12)" stroke-width="1" font-size="16" >O</text>
<text x="75.200000" y="139.200000" fill="rgb(255,12,12)"  stroke="rgb(255,12,12)" stroke-width="1" font-size="32" >-</text>
<text x="74.000000" y="124.800000" fill="rgb(255,12,12)"  stroke="rgb(255,12,12)" stroke-width="1" font-size="16" >O</text>
<text x="24.400000" y="84.800000" fill="rgb(255,12,12)"  stroke="rgb(255,12,12)" stroke-width="1" font-size="16" >HO</text>
<text x="74.000000" y="48.320000" fill="rgb(255,12,12)"  stroke="rgb(255,12,12)" stroke-width="1" font-size="16" >O</text>
<text x="177.307043" y="167.538360" fill="rgb(255,12,12)"  stroke="rgb(255,12,12)" stroke-width="1" font-size="16" >O</text>
<text x="114.000000" y="88.320000" fill="rgb(255,12,12)"  stroke="rgb(255,12,12)" stroke-width="1" font-size="16" >O</text>
<text x="74.000000" y="84.800000" fill="rgb(255,127,0)"  stroke="rgb(255,127,0)" stroke-width="1" font-size="16" >P</text>
<text x="101.850905" y="152.743443" fill="rgb(191,191,191)"  stroke="rgb(191,191,191)" stroke-width="1" font-size="16" >H</text>
<text x="160.581139" y="68.649290" fill="rgb(191,191,191)"  stroke="rgb(191,191,191)" stroke-width="1" font-size="16" >H</text>
<text x="96.400000" y="119.441016" fill="rgb(191,191,191)"  stroke="rgb(191,191,191)" stroke-width="1" font-size="16" >H</text>
<text x="229.667722" y="112.905933" fill="rgb(191,191,191)"  stroke="rgb(191,191,191)" stroke-width="1" font-size="16" >H</text>
<text font-size="18.000000" fill ="black" font-family="sans-serif"
x="140.000000" y="20.000000" ></text>
<title> - OBDepict</title>
</svg>
