<?xml version="1.0"?>
<svg xmlns="http://www.w3.org/2000/svg"
xmlns:xlink="http://www.w3.org/1999/xlink" xmlns:cml="http://www.xml-cml.org/schema" width="548.275" height="525.398" x="0" y="0" font-family="sans-serif" stroke="rgb(0,0,0)" stroke-width="1" >
<line x1="416.7" y1="263.6" x2="387.7" y2="273.2"/>
<line x1="337.9" y1="127.1" x2="315.0" y2="147.4"/>
<line x1="261.8" y1="411.3" x2="252.2" y2="382.3"/>
<line x1="114.1" y1="256.4" x2="143.1" y2="246.7"/>
<line x1="410.6" y1="328.4" x2="443.1" y2="309.5"/>
<line x1="410.6" y1="328.4" x2="378.0" y2="309.6"/>
<line x1="183.3" y1="391.4" x2="183.3" y2="429.0"/>
<line x1="183.3" y1="391.4" x2="215.8" y2="372.6"/>
<line x1="259.8" y1="105.1" x2="222.2" y2="105.1"/>
<line x1="259.8" y1="105.1" x2="278.6" y2="137.7"/>
<line x1="134.0" y1="177.9" x2="96.4" y2="177.9"/>
<line x1="134.0" y1="177.9" x2="152.8" y2="210.4"/>
<line x1="443.1" y1="309.5" x2="475.7" y2="328.3"/>
<line x1="183.3" y1="429.0" x2="150.8" y2="447.8"/>
<line x1="222.2" y1="105.1" x2="203.4" y2="72.6"/>
<line x1="96.4" y1="177.9" x2="77.6" y2="145.3"/>
<line x1="351.4" y1="210.3" x2="377.8" y2="195.0"/>
<line x1="315.1" y1="345.9" x2="330.4" y2="372.4"/>
<line x1="179.5" y1="309.7" x2="153.0" y2="325.0"/>
<line x1="215.7" y1="174.1" x2="200.4" y2="147.6"/>
<line x1="478.7" y1="328.3" x2="478.7" y2="356.2"/>
<line x1="472.7" y1="328.3" x2="472.7" y2="356.2"/>
<line x1="475.7" y1="328.3" x2="499.8" y2="314.4"/>
<line x1="149.3" y1="450.4" x2="125.2" y2="436.5"/>
<line x1="152.3" y1="445.2" x2="128.2" y2="431.3"/>
<line x1="150.8" y1="447.8" x2="150.8" y2="475.6"/>
<line x1="200.8" y1="71.1" x2="214.7" y2="47.0"/>
<line x1="206.0" y1="74.1" x2="219.9" y2="50.0"/>
<line x1="203.4" y1="72.6" x2="175.6" y2="72.6"/>
<line x1="75.0" y1="143.8" x2="88.9" y2="119.7"/>
<line x1="80.2" y1="146.8" x2="94.1" y2="122.7"/>
<line x1="77.6" y1="145.3" x2="49.8" y2="145.3"/>
<line x1="179.4" y1="267.7" x2="143.1" y2="246.7"/>
<line x1="177.8" y1="258.5" x2="151.9" y2="243.5"/>
<line x1="143.1" y1="246.7" x2="152.8" y2="210.4"/>
<line x1="152.8" y1="210.4" x2="194.8" y2="210.4"/>
<line x1="158.8" y1="217.6" x2="188.8" y2="217.6"/>
<line x1="194.8" y1="210.4" x2="210.3" y2="237.3"/>
<line x1="206.3" y1="252.2" x2="179.4" y2="267.7"/>
<line x1="252.2" y1="382.3" x2="215.8" y2="372.6"/>
<line x1="248.2" y1="373.8" x2="223.5" y2="367.2"/>
<line x1="215.8" y1="372.6" x2="215.8" y2="330.6"/>
<line x1="215.8" y1="330.6" x2="242.7" y2="315.1"/>
<line x1="257.6" y1="319.1" x2="273.1" y2="346.0"/>
<line x1="252.3" y1="324.2" x2="263.9" y2="344.4"/>
<line x1="273.1" y1="346.0" x2="252.2" y2="382.3"/>
<line x1="315.0" y1="147.4" x2="278.6" y2="137.7"/>
<line x1="307.3" y1="152.8" x2="282.6" y2="146.2"/>
<line x1="278.6" y1="137.7" x2="257.7" y2="174.0"/>
<line x1="257.7" y1="174.0" x2="273.2" y2="200.9"/>
<line x1="288.1" y1="204.9" x2="315.0" y2="189.3"/>
<line x1="286.1" y1="197.7" x2="306.2" y2="186.1"/>
<line x1="315.0" y1="189.3" x2="315.0" y2="147.4"/>
<line x1="387.7" y1="273.2" x2="378.0" y2="309.6"/>
<line x1="379.2" y1="277.2" x2="372.6" y2="301.9"/>
<line x1="378.0" y1="309.6" x2="336.0" y2="309.6"/>
<line x1="336.0" y1="309.6" x2="320.5" y2="282.7"/>
<line x1="324.5" y1="267.8" x2="351.4" y2="252.3"/>
<line x1="351.4" y1="252.3" x2="387.7" y2="273.2"/>
<line x1="315.1" y1="345.9" x2="273.1" y2="346.0"/>
<line x1="215.8" y1="330.6" x2="179.5" y2="309.7"/>
<line x1="214.2" y1="321.4" x2="188.3" y2="306.4"/>
<line x1="179.5" y1="309.7" x2="179.4" y2="267.7"/>
<line x1="194.8" y1="210.4" x2="215.7" y2="174.1"/>
<line x1="215.7" y1="174.1" x2="257.7" y2="174.0"/>
<line x1="221.7" y1="181.2" x2="251.7" y2="181.2"/>
<line x1="315.0" y1="189.3" x2="351.4" y2="210.3"/>
<line x1="351.4" y1="210.3" x2="351.4" y2="252.3"/>
<line x1="344.2" y1="216.3" x2="344.2" y2="246.3"/>
<line x1="336.0" y1="309.6" x2="315.1" y2="345.9"/>
<line x1="326.8" y1="311.2" x2="311.8" y2="337.1"/>
<text x="420.927270" y="268.480931" fill="rgb(102,102,102)"  stroke="rgb(102,102,102)" stroke-width="1" font-size="16" >CH</text>
<text x="444.927270" y="276.160931" fill="rgb(102,102,102)"  stroke="rgb(102,102,102)" stroke-width="1" font-size="13" >3</text>
<text x="339.888814" y="128.267945" fill="rgb(102,102,102)"  stroke="rgb(102,102,102)" stroke-width="1" font-size="16" >CH</text>
<text x="363.888814" y="135.947945" fill="rgb(102,102,102)"  stroke="rgb(102,102,102)" stroke-width="1" font-size="13" >3</text>
<text x="259.234203" y="426.301676" fill="rgb(102,102,102)"  stroke="rgb(102,102,102)" stroke-width="1" font-size="16" >CH</text>
<text x="283.234203" y="431.101676" fill="rgb(102,102,102)"  stroke="rgb(102,102,102)" stroke-width="1" font-size="13" >3</text>
<text x="80.296677" y="264.607536" fill="rgb(102,102,102)"  stroke="rgb(102,102,102)" stroke-width="1" font-size="16" >H</text>
<text x="92.296677" y="269.407536" fill="rgb(102,102,102)"  stroke="rgb(102,102,102)" stroke-width="1" font-size="13" >3</text>
<text x="98.796677" y="264.607536" fill="rgb(102,102,102)"  stroke="rgb(102,102,102)" stroke-width="1" font-size="16" >C</text>
<text x="299.447035" y="281.595315" fill="rgb(12,12,255)"  stroke="rgb(12,12,255)" stroke-width="1" font-size="16" >HN</text>
<text x="275.074858" y="215.144065" fill="rgb(12,12,255)"  stroke="rgb(12,12,255)" stroke-width="1" font-size="16" >N</text>
<text x="246.132974" y="317.957557" fill="rgb(12,12,255)"  stroke="rgb(12,12,255)" stroke-width="1" font-size="16" >N</text>
<text x="209.760797" y="251.506306" fill="rgb(12,12,255)"  stroke="rgb(12,12,255)" stroke-width="1" font-size="16" >NH</text>
<text x="469.729359" y="370.738796" fill="rgb(255,12,12)"  stroke="rgb(255,12,12)" stroke-width="1" font-size="16" >O</text>
<text x="502.274969" y="317.827913" fill="rgb(255,12,12)"  stroke="rgb(255,12,12)" stroke-width="1" font-size="16" >OH</text>
<text x="114.587622" y="437.338644" fill="rgb(255,12,12)"  stroke="rgb(255,12,12)" stroke-width="1" font-size="16" >O</text>
<text x="144.773224" y="490.198354" fill="rgb(255,12,12)"  stroke="rgb(255,12,12)" stroke-width="1" font-size="16" >OH</text>
<text x="216.186753" y="48.320000" fill="rgb(255,12,12)"  stroke="rgb(255,12,12)" stroke-width="1" font-size="16" >O</text>
<text x="150.185986" y="77.397773" fill="rgb(255,12,12)"  stroke="rgb(255,12,12)" stroke-width="1" font-size="16" >HO</text>
<text x="90.379710" y="121.080954" fill="rgb(255,12,12)"  stroke="rgb(255,12,12)" stroke-width="1" font-size="16" >O</text>
<text x="24.400000" y="150.146557" fill="rgb(255,12,12)"  stroke="rgb(255,12,12)" stroke-width="1" font-size="16" >HO</text>
<text x="381.151302" y="197.978927" fill="rgb(191,191,191)"  stroke="rgb(191,191,191)" stroke-width="1" font-size="16" >H</text>
<text x="329.756372" y="386.514846" fill="rgb(191,191,191)"  stroke="rgb(191,191,191)" stroke-width="1" font-size="16" >H</text>
<text x="140.103240" y="335.163835" fill="rgb(191,191,191)"  stroke="rgb(191,191,191)" stroke-width="1" font-size="16" >H</text>
<text x="191.451460" y="146.586775" fill="rgb(191,191,191)"  stroke="rgb(191,191,191)" stroke-width="1" font-size="16" >H</text>
<text font-size="18.000000" fill ="black" font-family="sans-serif"
x="140.000000" y="20.000000" ></text>
<title> - OBDepict</title>
</svg>
