<?xml version="1.0"?>
<svg xmlns="http://www.w3.org/2000/svg"
xmlns:xlink="http://www.w3.org/1999/xlink" xmlns:cml="http://www.xml-cml.org/schema" width="411.741" height="315.463" x="0" y="0" font-family="sans-serif" stroke="rgb(0,0,0)" stroke-width="1" >
<line x1="276.5" y1="176.1" x2="310.2" y2="156.7"/>
<line x1="276.5" y1="176.1" x2="251.6" y2="161.7"/>
<line x1="90.3" y1="273.4" x2="111.5" y2="240.8"/>
<line x1="90.3" y1="273.4" x2="61.5" y2="271.9"/>
<polygon points="123.279534 264.028172 115.014586 238.996540 107.886533 242.628464 " />
<line x1="65.6" y1="240.7" x2="64.9" y2="240.3"/>
<line x1="68.1" y1="237.7" x2="66.7" y2="236.8"/>
<line x1="70.5" y1="234.6" x2="68.5" y2="233.3"/>
<line x1="73.0" y1="231.6" x2="70.3" y2="229.8"/>
<line x1="75.4" y1="228.5" x2="72.1" y2="226.4"/>
<line x1="77.9" y1="225.5" x2="73.9" y2="222.9"/>
<line x1="80.3" y1="222.5" x2="75.6" y2="219.4"/>
<line x1="78.8" y1="219.6" x2="50.1" y2="218.1"/>
<polygon points="54.851033 179.432860 80.661536 184.791021 81.080224 176.801984 " />
<line x1="80.9" y1="180.8" x2="67.8" y2="155.2"/>
<line x1="103.9" y1="141.1" x2="104.6" y2="140.8"/>
<line x1="105.3" y1="144.8" x2="106.7" y2="144.1"/>
<line x1="106.7" y1="148.4" x2="108.8" y2="147.4"/>
<line x1="108.1" y1="152.1" x2="110.9" y2="150.6"/>
<line x1="109.5" y1="155.7" x2="113.1" y2="153.9"/>
<line x1="110.9" y1="159.4" x2="115.2" y2="157.2"/>
<line x1="112.3" y1="163.0" x2="117.3" y2="160.5"/>
<line x1="115.5" y1="163.1" x2="131.2" y2="139.0"/>
<line x1="242.8" y1="117.8" x2="242.8" y2="146.6"/>
<line x1="167.3" y1="200.2" x2="166.8" y2="200.8"/>
<line x1="164.6" y1="197.4" x2="163.6" y2="198.6"/>
<line x1="161.9" y1="194.5" x2="160.4" y2="196.3"/>
<line x1="159.2" y1="191.7" x2="157.2" y2="194.1"/>
<line x1="156.5" y1="188.9" x2="153.9" y2="191.9"/>
<line x1="153.8" y1="186.0" x2="150.7" y2="189.7"/>
<line x1="151.1" y1="183.2" x2="147.5" y2="187.5"/>
<line x1="148.1" y1="184.3" x2="165.9" y2="129.6"/>
<line x1="149.3" y1="78.9" x2="166.2" y2="102.2"/>
<line x1="181.8" y1="107.2" x2="209.2" y2="98.3"/>
<line x1="209.2" y1="98.3" x2="209.2" y2="59.4"/>
<line x1="209.2" y1="59.4" x2="181.8" y2="50.6"/>
<line x1="166.2" y1="55.6" x2="149.3" y2="78.9"/>
<line x1="170.8" y1="61.5" x2="158.7" y2="78.3"/>
<line x1="371.7" y1="143.6" x2="345.7" y2="172.5"/>
<line x1="345.7" y1="172.5" x2="310.2" y2="156.7"/>
<line x1="343.2" y1="163.5" x2="318.6" y2="152.5"/>
<line x1="310.2" y1="156.7" x2="313.2" y2="128.0"/>
<line x1="324.1" y1="115.9" x2="352.3" y2="109.9"/>
<line x1="352.3" y1="109.9" x2="371.7" y2="143.6"/>
<line x1="349.1" y1="118.7" x2="362.5" y2="142.0"/>
<line x1="209.2" y1="98.3" x2="242.8" y2="117.8"/>
<line x1="218.0" y1="95.1" x2="241.2" y2="108.5"/>
<line x1="242.8" y1="117.8" x2="267.8" y2="103.4"/>
<line x1="276.5" y1="88.2" x2="276.5" y2="59.4"/>
<line x1="269.3" y1="86.1" x2="269.3" y2="65.4"/>
<line x1="276.5" y1="59.4" x2="251.6" y2="45.1"/>
<line x1="234.1" y1="45.1" x2="209.2" y2="59.4"/>
<line x1="235.9" y1="52.3" x2="218.0" y2="62.7"/>
<line x1="80.9" y1="180.8" x2="115.5" y2="163.1"/>
<line x1="115.5" y1="163.1" x2="148.1" y2="184.3"/>
<line x1="148.1" y1="184.3" x2="146.6" y2="213.1"/>
<line x1="137.1" y1="227.7" x2="111.5" y2="240.8"/>
<line x1="111.5" y1="240.8" x2="78.8" y2="219.6"/>
<line x1="78.8" y1="219.6" x2="80.9" y2="180.8"/>
<text x="227.235052" y="161.466667" fill="rgb(12,12,255)"  stroke="rgb(12,12,255)" stroke-width="1" font-size="16" >HN</text>
<text x="270.513818" y="103.133333" fill="rgb(12,12,255)"  stroke="rgb(12,12,255)" stroke-width="1" font-size="16" >N</text>
<text x="236.835052" y="48.320000" fill="rgb(12,12,255)"  stroke="rgb(12,12,255)" stroke-width="1" font-size="16" >N</text>
<text x="168.570756" y="55.747117" fill="rgb(12,12,255)"  stroke="rgb(12,12,255)" stroke-width="1" font-size="16" >N</text>
<text x="166.170756" y="118.670661" fill="rgb(12,12,255)"  stroke="rgb(12,12,255)" stroke-width="1" font-size="16" >N</text>
<text x="35.834560" y="279.712182" fill="rgb(255,12,12)"  stroke="rgb(255,12,12)" stroke-width="1" font-size="16" >HO</text>
<text x="24.400000" y="225.916808" fill="rgb(255,12,12)"  stroke="rgb(255,12,12)" stroke-width="1" font-size="16" >HO</text>
<text x="47.615694" y="154.466249" fill="rgb(255,12,12)"  stroke="rgb(255,12,12)" stroke-width="1" font-size="16" >HO</text>
<text x="130.701541" y="138.846350" fill="rgb(255,12,12)"  stroke="rgb(255,12,12)" stroke-width="1" font-size="16" >OH</text>
<text x="310.657580" y="126.310815" fill="rgb(255,12,12)"  stroke="rgb(255,12,12)" stroke-width="1" font-size="16" >O</text>
<text x="140.100813" y="227.957316" fill="rgb(255,12,12)"  stroke="rgb(255,12,12)" stroke-width="1" font-size="16" >O</text>
<text x="123.105746" y="280.262756" fill="rgb(191,191,191)"  stroke="rgb(191,191,191)" stroke-width="1" font-size="16" >H</text>
<text x="54.055186" y="257.047062" fill="rgb(191,191,191)"  stroke="rgb(191,191,191)" stroke-width="1" font-size="16" >H</text>
<text x="38.435287" y="187.081215" fill="rgb(191,191,191)"  stroke="rgb(191,191,191)" stroke-width="1" font-size="16" >H</text>
<text x="94.265948" y="136.811063" fill="rgb(191,191,191)"  stroke="rgb(191,191,191)" stroke-width="1" font-size="16" >H</text>
<text x="171.707444" y="214.378036" fill="rgb(191,191,191)"  stroke="rgb(191,191,191)" stroke-width="1" font-size="16" >H</text>
<text font-size="18.000000" fill ="black" font-family="sans-serif"
x="140.000000" y="20.000000" ></text>
<title> - OBDepict</title>
</svg>
