<?xml version="1.0"?>
<svg xmlns="http://www.w3.org/2000/svg"
xmlns:xlink="http://www.w3.org/1999/xlink" xmlns:cml="http://www.xml-cml.org/schema" width="473.169" height="375.213" x="0" y="0" font-family="sans-serif" stroke="rgb(0,0,0)" stroke-width="1" >
<line x1="312.2" y1="80.4" x2="340.1" y2="87.9"/>
<line x1="211.8" y1="153.3" x2="177.9" y2="172.8"/>
<line x1="211.8" y1="153.3" x2="236.8" y2="167.7"/>
<polygon points="333.348552 62.577915 336.263554 88.911667 343.990961 86.841114 " />
<line x1="375.0" y1="77.0" x2="382.5" y2="49.0"/>
<line x1="380.8" y1="78.5" x2="388.3" y2="50.6"/>
<line x1="408.7" y1="191.4" x2="408.0" y2="191.6"/>
<line x1="407.1" y1="183.7" x2="405.6" y2="184.1"/>
<line x1="405.5" y1="176.1" x2="403.2" y2="176.7"/>
<line x1="403.8" y1="168.4" x2="400.7" y2="169.2"/>
<line x1="402.2" y1="160.8" x2="398.3" y2="161.8"/>
<line x1="400.6" y1="153.1" x2="395.9" y2="154.4"/>
<line x1="398.9" y1="145.5" x2="393.5" y2="146.9"/>
<line x1="395.4" y1="143.2" x2="423.4" y2="150.6"/>
<line x1="199.8" y1="185.0" x2="199.4" y2="185.7"/>
<line x1="196.6" y1="182.7" x2="195.8" y2="184.1"/>
<line x1="193.4" y1="180.4" x2="192.2" y2="182.5"/>
<line x1="190.2" y1="178.1" x2="188.6" y2="180.9"/>
<line x1="187.0" y1="175.8" x2="185.0" y2="179.2"/>
<line x1="183.8" y1="173.5" x2="181.4" y2="177.6"/>
<line x1="180.7" y1="171.2" x2="177.9" y2="176.0"/>
<line x1="72.8" y1="300.7" x2="61.0" y2="327.1"/>
<line x1="67.3" y1="298.3" x2="55.5" y2="324.7"/>
<polygon points="174.394832 123.671862 152.254671 138.224421 157.607716 144.169580 " />
<line x1="154.9" y1="141.2" x2="148.9" y2="112.9"/>
<polygon points="107.100728 129.350170 114.099348 154.903703 121.407712 151.649809 " />
<line x1="117.8" y1="153.3" x2="89.0" y2="150.3"/>
<line x1="92.9" y1="195.4" x2="92.8" y2="194.6"/>
<line x1="96.8" y1="195.4" x2="96.7" y2="193.8"/>
<line x1="100.8" y1="195.4" x2="100.5" y2="193.0"/>
<line x1="104.7" y1="195.3" x2="104.4" y2="192.2"/>
<line x1="108.6" y1="195.3" x2="108.2" y2="191.4"/>
<line x1="112.6" y1="195.3" x2="112.1" y2="190.6"/>
<line x1="116.5" y1="195.3" x2="115.9" y2="189.7"/>
<line x1="117.8" y1="192.4" x2="106.0" y2="218.8"/>
<line x1="357.7" y1="153.3" x2="380.6" y2="170.9"/>
<line x1="357.7" y1="153.3" x2="332.6" y2="167.7"/>
<line x1="63.0" y1="232.2" x2="46.0" y2="208.8"/>
<line x1="216.7" y1="211.9" x2="235.5" y2="211.9"/>
<line x1="242.6" y1="240.8" x2="242.6" y2="222.1"/>
<line x1="248.6" y1="240.8" x2="248.6" y2="222.1"/>
<line x1="323.8" y1="240.8" x2="323.8" y2="222.1"/>
<line x1="352.7" y1="214.9" x2="334.0" y2="214.9"/>
<line x1="352.7" y1="208.9" x2="334.0" y2="208.9"/>
<line x1="245.6" y1="183.0" x2="245.6" y2="201.7"/>
<line x1="323.8" y1="183.0" x2="323.8" y2="201.7"/>
<line x1="274.5" y1="211.9" x2="255.8" y2="211.9"/>
<line x1="294.9" y1="211.9" x2="313.6" y2="211.9"/>
<line x1="177.9" y1="172.8" x2="154.9" y2="141.2"/>
<line x1="154.9" y1="141.2" x2="117.8" y2="153.3"/>
<line x1="117.8" y1="153.3" x2="117.8" y2="192.4"/>
<line x1="117.8" y1="192.4" x2="145.3" y2="201.3"/>
<line x1="160.9" y1="196.2" x2="177.9" y2="172.8"/>
<line x1="405.5" y1="105.4" x2="395.4" y2="143.2"/>
<line x1="395.4" y1="143.2" x2="357.7" y2="153.3"/>
<line x1="357.7" y1="153.3" x2="337.2" y2="132.8"/>
<line x1="332.6" y1="115.8" x2="340.1" y2="87.9"/>
<line x1="340.1" y1="87.9" x2="377.9" y2="77.8"/>
<line x1="377.9" y1="77.8" x2="405.5" y2="105.4"/>
<line x1="108.9" y1="295.4" x2="70.1" y2="299.5"/>
<line x1="70.1" y1="299.5" x2="53.1" y2="276.1"/>
<line x1="51.2" y1="258.6" x2="63.0" y2="232.2"/>
<line x1="58.6" y1="259.6" x2="67.1" y2="240.6"/>
<line x1="63.0" y1="232.2" x2="91.7" y2="229.1"/>
<line x1="107.8" y1="236.3" x2="124.8" y2="259.7"/>
<line x1="124.8" y1="259.7" x2="108.9" y2="295.4"/>
<line x1="115.8" y1="262.3" x2="104.8" y2="287.0"/>
<text x="278.768339" y="86.078919" fill="rgb(102,102,102)"  stroke="rgb(102,102,102)" stroke-width="1" font-size="16" >H</text>
<text x="290.768339" y="93.758919" fill="rgb(102,102,102)"  stroke="rgb(102,102,102)" stroke-width="1" font-size="13" >3</text>
<text x="297.268339" y="86.078919" fill="rgb(102,102,102)"  stroke="rgb(102,102,102)" stroke-width="1" font-size="16" >C</text>
<text x="38.554709" y="340.012955" fill="rgb(12,12,255)"  stroke="rgb(12,12,255)" stroke-width="1" font-size="16" >HN</text>
<text x="43.477355" y="272.676423" fill="rgb(12,12,255)"  stroke="rgb(12,12,255)" stroke-width="1" font-size="16" >N</text>
<text x="95.853825" y="236.398988" fill="rgb(12,12,255)"  stroke="rgb(12,12,255)" stroke-width="1" font-size="16" >N</text>
<text x="382.003648" y="48.320000" fill="rgb(255,12,12)"  stroke="rgb(255,12,12)" stroke-width="1" font-size="16" >O</text>
<text x="427.169070" y="158.076756" fill="rgb(255,12,12)"  stroke="rgb(255,12,12)" stroke-width="1" font-size="16" >OH</text>
<text x="131.203737" y="111.280322" fill="rgb(255,12,12)"  stroke="rgb(255,12,12)" stroke-width="1" font-size="16" >HO</text>
<text x="63.276765" y="157.510643" fill="rgb(255,12,12)"  stroke="rgb(255,12,12)" stroke-width="1" font-size="16" >HO</text>
<text x="35.200000" y="194.139890" fill="rgb(255,12,12)"  stroke="rgb(255,12,12)" stroke-width="1" font-size="32" >-</text>
<text x="36.400000" y="208.859890" fill="rgb(255,12,12)"  stroke="rgb(255,12,12)" stroke-width="1" font-size="16" >O</text>
<text x="201.724785" y="231.113120" fill="rgb(255,12,12)"  stroke="rgb(255,12,12)" stroke-width="1" font-size="32" >-</text>
<text x="202.924785" y="216.713120" fill="rgb(255,12,12)"  stroke="rgb(255,12,12)" stroke-width="1" font-size="16" >O</text>
<text x="239.615694" y="255.804029" fill="rgb(255,12,12)"  stroke="rgb(255,12,12)" stroke-width="1" font-size="16" >O</text>
<text x="317.797513" y="255.804029" fill="rgb(255,12,12)"  stroke="rgb(255,12,12)" stroke-width="1" font-size="16" >OH</text>
<text x="356.888422" y="220.233120" fill="rgb(255,12,12)"  stroke="rgb(255,12,12)" stroke-width="1" font-size="16" >O</text>
<text x="239.615694" y="181.142211" fill="rgb(255,12,12)"  stroke="rgb(255,12,12)" stroke-width="1" font-size="16" >O</text>
<text x="326.409786" y="130.435309" fill="rgb(255,12,12)"  stroke="rgb(255,12,12)" stroke-width="1" font-size="16" >O</text>
<text x="148.931194" y="209.247420" fill="rgb(255,12,12)"  stroke="rgb(255,12,12)" stroke-width="1" font-size="16" >O</text>
<text x="320.197513" y="181.142211" fill="rgb(255,12,12)"  stroke="rgb(255,12,12)" stroke-width="1" font-size="16" >O</text>
<text x="278.706603" y="216.713120" fill="rgb(255,12,12)"  stroke="rgb(255,12,12)" stroke-width="1" font-size="16" >O</text>
<text x="239.615694" y="216.713120" fill="rgb(255,127,0)"  stroke="rgb(255,127,0)" stroke-width="1" font-size="16" >P</text>
<text x="317.797513" y="216.713120" fill="rgb(255,127,0)"  stroke="rgb(255,127,0)" stroke-width="1" font-size="16" >P</text>
<text x="326.409786" y="58.437472" fill="rgb(191,191,191)"  stroke="rgb(191,191,191)" stroke-width="1" font-size="16" >H</text>
<text x="409.645095" y="223.477122" fill="rgb(191,191,191)"  stroke="rgb(191,191,191)" stroke-width="1" font-size="16" >H</text>
<text x="205.761974" y="197.167665" fill="rgb(191,191,191)"  stroke="rgb(191,191,191)" stroke-width="1" font-size="16" >H</text>
<text x="177.981401" y="123.360077" fill="rgb(191,191,191)"  stroke="rgb(191,191,191)" stroke-width="1" font-size="16" >H</text>
<text x="98.253825" y="125.885434" fill="rgb(191,191,191)"  stroke="rgb(191,191,191)" stroke-width="1" font-size="16" >H</text>
<text x="75.276765" y="201.253778" fill="rgb(191,191,191)"  stroke="rgb(191,191,191)" stroke-width="1" font-size="16" >H</text>
<text x="382.664136" y="181.873794" fill="rgb(191,191,191)"  stroke="rgb(191,191,191)" stroke-width="1" font-size="16" >H</text>
<text font-size="18.000000" fill ="black" font-family="sans-serif"
x="140.000000" y="20.000000" ></text>
<title> - OBDepict</title>
</svg>
