<?xml version="1.0"?>
<svg xmlns="http://www.w3.org/2000/svg"
xmlns:xlink="http://www.w3.org/1999/xlink" xmlns:cml="http://www.xml-cml.org/schema" width="356.635" height="317.705" x="0" y="0" font-family="sans-serif" stroke="rgb(0,0,0)" stroke-width="1" >
<line x1="136.9" y1="176.3" x2="141.5" y2="145.6"/>
<line x1="176.4" y1="268.3" x2="165.9" y2="251.1"/>
<line x1="141.5" y1="145.6" x2="108.7" y2="119.3"/>
<line x1="81.3" y1="109.1" x2="50.7" y2="103.2"/>
<line x1="83.3" y1="95.3" x2="83.4" y2="94.5"/>
<line x1="87.2" y1="96.7" x2="87.6" y2="95.1"/>
<line x1="91.2" y1="98.1" x2="91.8" y2="95.7"/>
<line x1="95.2" y1="99.5" x2="96.0" y2="96.3"/>
<line x1="99.2" y1="100.8" x2="100.2" y2="97.0"/>
<line x1="103.2" y1="102.2" x2="104.3" y2="97.6"/>
<line x1="107.2" y1="103.6" x2="108.5" y2="98.2"/>
<polygon points="137.143320 132.937735 177.175895 206.976509 184.024306 202.841384 " />
<line x1="180.5" y1="201.9" x2="211.6" y2="201.3"/>
<line x1="180.7" y1="207.9" x2="211.8" y2="207.3"/>
<line x1="180.6" y1="204.9" x2="165.6" y2="232.1"/>
<line x1="179.1" y1="131.1" x2="203.8" y2="97.0"/>
<line x1="188.5" y1="130.4" x2="206.1" y2="106.1"/>
<line x1="203.8" y1="97.0" x2="243.8" y2="110.0"/>
<line x1="243.8" y1="110.0" x2="243.8" y2="152.1"/>
<line x1="243.8" y1="152.1" x2="214.2" y2="161.7"/>
<line x1="197.4" y1="156.2" x2="179.1" y2="131.1"/>
<line x1="280.2" y1="89.0" x2="316.6" y2="110.0"/>
<line x1="316.6" y1="110.0" x2="316.6" y2="152.1"/>
<line x1="309.4" y1="116.0" x2="309.4" y2="146.1"/>
<line x1="316.6" y1="152.1" x2="280.2" y2="173.1"/>
<line x1="280.2" y1="173.1" x2="243.8" y2="152.1"/>
<line x1="278.6" y1="163.9" x2="252.6" y2="148.8"/>
<line x1="243.8" y1="110.0" x2="280.2" y2="89.0"/>
<line x1="252.6" y1="113.3" x2="278.6" y2="98.3"/>
<line x1="91.2" y1="124.2" x2="81.3" y2="109.1"/>
<line x1="81.3" y1="109.1" x2="103.5" y2="134.5"/>
<line x1="103.5" y1="134.5" x2="137.1" y2="132.9"/>
<line x1="137.1" y1="132.9" x2="109.5" y2="101.3"/>
<line x1="109.5" y1="101.3" x2="108.7" y2="119.3"/>
<line x1="108.7" y1="119.3" x2="91.2" y2="124.2"/>
<line x1="101.0" y1="114.0" x2="95.1" y2="115.6"/>
<line x1="87.3" y1="75.9" x2="81.3" y2="109.1"/>
<line x1="109.5" y1="101.3" x2="115.0" y2="70.7"/>
<line x1="109.3" y1="64.1" x2="87.3" y2="75.9"/>
<line x1="154.0" y1="40.0" x2="192.7" y2="56.5"/>
<line x1="192.7" y1="56.5" x2="203.8" y2="97.0"/>
<line x1="179.1" y1="131.1" x2="137.1" y2="132.9"/>
<line x1="126.6" y1="54.7" x2="154.0" y2="40.0"/>
<text x="111.674985" y="191.919011" fill="rgb(102,102,102)"  stroke="rgb(102,102,102)" stroke-width="1" font-size="16" >H</text>
<text x="123.674985" y="196.719011" fill="rgb(102,102,102)"  stroke="rgb(102,102,102)" stroke-width="1" font-size="13" >3</text>
<text x="130.174985" y="191.919011" fill="rgb(102,102,102)"  stroke="rgb(102,102,102)" stroke-width="1" font-size="16" >C</text>
<text x="176.028237" y="282.504693" fill="rgb(102,102,102)"  stroke="rgb(102,102,102)" stroke-width="1" font-size="16" >CH</text>
<text x="200.028237" y="287.304693" fill="rgb(102,102,102)"  stroke="rgb(102,102,102)" stroke-width="1" font-size="13" >3</text>
<text x="188.246293" y="169.860194" fill="rgb(12,12,255)"  stroke="rgb(12,12,255)" stroke-width="1" font-size="16" >HN</text>
<text x="110.991675" y="68.239889" fill="rgb(12,12,255)"  stroke="rgb(12,12,255)" stroke-width="1" font-size="16" >N</text>
<text x="216.628744" y="212.404412" fill="rgb(255,12,12)"  stroke="rgb(255,12,12)" stroke-width="1" font-size="16" >O</text>
<text x="156.699847" y="246.519087" fill="rgb(255,12,12)"  stroke="rgb(255,12,12)" stroke-width="1" font-size="16" >O</text>
<text x="36.400000" y="109.478400" fill="rgb(191,191,191)"  stroke="rgb(191,191,191)" stroke-width="1" font-size="16" >H</text>
<text x="65.040199" y="99.664798" fill="rgb(191,191,191)"  stroke="rgb(191,191,191)" stroke-width="1" font-size="16" >H</text>
<text font-size="18.000000" fill ="black" font-family="sans-serif"
x="140.000000" y="20.000000" ></text>
<title> - OBDepict</title>
</svg>
