<?xml version="1.0"?>
<svg xmlns="http://www.w3.org/2000/svg"
xmlns:xlink="http://www.w3.org/1999/xlink" xmlns:cml="http://www.xml-cml.org/schema" width="495.692" height="360" x="0" y="0" font-family="sans-serif" stroke="rgb(0,0,0)" stroke-width="1" >
<line x1="386.4" y1="200.0" x2="351.8" y2="220.0"/>
<line x1="386.4" y1="200.0" x2="421.1" y2="220.0"/>
<line x1="213.2" y1="260.0" x2="238.8" y2="274.8"/>
<line x1="178.6" y1="200.0" x2="178.6" y2="170.4"/>
<line x1="282.5" y1="220.0" x2="256.9" y2="205.2"/>
<line x1="317.1" y1="280.0" x2="317.1" y2="309.6"/>
<line x1="143.9" y1="220.0" x2="118.3" y2="205.2"/>
<line x1="424.1" y1="220.0" x2="424.1" y2="249.6"/>
<line x1="418.1" y1="220.0" x2="418.1" y2="249.6"/>
<line x1="421.1" y1="220.0" x2="446.7" y2="205.2"/>
<line x1="74.6" y1="100.0" x2="49.0" y2="85.2"/>
<line x1="109.3" y1="80.0" x2="109.3" y2="50.4"/>
<line x1="74.6" y1="140.0" x2="49.0" y2="154.8"/>
<line x1="282.5" y1="260.0" x2="256.9" y2="274.8"/>
<line x1="143.9" y1="100.0" x2="178.6" y2="80.0"/>
<line x1="180.1" y1="77.4" x2="205.7" y2="92.2"/>
<line x1="177.1" y1="82.6" x2="202.7" y2="97.4"/>
<line x1="178.6" y1="80.0" x2="178.6" y2="50.4"/>
<line x1="109.3" y1="160.0" x2="109.3" y2="189.6"/>
<line x1="317.1" y1="200.0" x2="282.5" y2="220.0"/>
<line x1="282.5" y1="220.0" x2="282.5" y2="260.0"/>
<line x1="289.7" y1="226.0" x2="289.7" y2="254.0"/>
<line x1="282.5" y1="260.0" x2="317.1" y2="280.0"/>
<line x1="317.1" y1="280.0" x2="351.8" y2="260.0"/>
<line x1="318.7" y1="270.8" x2="343.0" y2="256.8"/>
<line x1="351.8" y1="260.0" x2="351.8" y2="220.0"/>
<line x1="351.8" y1="220.0" x2="317.1" y2="200.0"/>
<line x1="343.0" y1="223.2" x2="318.7" y2="209.2"/>
<line x1="178.6" y1="280.0" x2="213.2" y2="260.0"/>
<line x1="213.2" y1="260.0" x2="213.2" y2="220.0"/>
<line x1="206.0" y1="254.0" x2="206.0" y2="226.0"/>
<line x1="213.2" y1="220.0" x2="178.6" y2="200.0"/>
<line x1="178.6" y1="200.0" x2="143.9" y2="220.0"/>
<line x1="177.0" y1="209.2" x2="152.7" y2="223.2"/>
<line x1="143.9" y1="220.0" x2="143.9" y2="260.0"/>
<line x1="143.9" y1="260.0" x2="178.6" y2="280.0"/>
<line x1="152.7" y1="256.8" x2="177.0" y2="270.8"/>
<line x1="74.6" y1="100.0" x2="109.3" y2="80.0"/>
<line x1="109.3" y1="80.0" x2="143.9" y2="100.0"/>
<line x1="143.9" y1="100.0" x2="143.9" y2="129.6"/>
<line x1="134.9" y1="145.2" x2="109.3" y2="160.0"/>
<line x1="109.3" y1="160.0" x2="74.6" y2="140.0"/>
<line x1="74.6" y1="140.0" x2="74.6" y2="100.0"/>
<text x="172.564065" y="168.320000" fill="rgb(147,0,147)"  stroke="rgb(147,0,147)" stroke-width="1" font-size="16" >I</text>
<text x="244.246097" y="208.320000" fill="rgb(147,0,147)"  stroke="rgb(147,0,147)" stroke-width="1" font-size="16" >I</text>
<text x="311.128129" y="324.800000" fill="rgb(147,0,147)"  stroke="rgb(147,0,147)" stroke-width="1" font-size="16" >I</text>
<text x="415.051178" y="264.800000" fill="rgb(255,12,12)"  stroke="rgb(255,12,12)" stroke-width="1" font-size="16" >O</text>
<text x="450.892194" y="193.600000" fill="rgb(255,12,12)"  stroke="rgb(255,12,12)" stroke-width="1" font-size="32" >-</text>
<text x="449.692194" y="208.320000" fill="rgb(255,12,12)"  stroke="rgb(255,12,12)" stroke-width="1" font-size="16" >O</text>
<text x="24.400000" y="88.320000" fill="rgb(255,12,12)"  stroke="rgb(255,12,12)" stroke-width="1" font-size="16" >HO</text>
<text x="103.282032" y="48.320000" fill="rgb(255,12,12)"  stroke="rgb(255,12,12)" stroke-width="1" font-size="16" >OH</text>
<text x="24.400000" y="164.800000" fill="rgb(255,12,12)"  stroke="rgb(255,12,12)" stroke-width="1" font-size="16" >HO</text>
<text x="207.205081" y="104.800000" fill="rgb(255,12,12)"  stroke="rgb(255,12,12)" stroke-width="1" font-size="16" >O</text>
<text x="173.764065" y="33.600000" fill="rgb(255,12,12)"  stroke="rgb(255,12,12)" stroke-width="1" font-size="32" >-</text>
<text x="172.564065" y="48.320000" fill="rgb(255,12,12)"  stroke="rgb(255,12,12)" stroke-width="1" font-size="16" >O</text>
<text x="241.846097" y="284.800000" fill="rgb(255,12,12)"  stroke="rgb(255,12,12)" stroke-width="1" font-size="16" >O</text>
<text x="105.682032" y="204.800000" fill="rgb(255,12,12)"  stroke="rgb(255,12,12)" stroke-width="1" font-size="16" >O</text>
<text x="137.923048" y="144.800000" fill="rgb(255,12,12)"  stroke="rgb(255,12,12)" stroke-width="1" font-size="16" >O</text>
<text font-size="18.000000" fill ="black" font-family="sans-serif"
x="140.000000" y="20.000000" ></text>
<title> - OBDepict</title>
</svg>
