<?xml version="1.0"?>
<svg xmlns="http://www.w3.org/2000/svg"
xmlns:xlink="http://www.w3.org/1999/xlink" xmlns:cml="http://www.xml-cml.org/schema" width="259.871" height="629.535" x="0" y="0" font-family="sans-serif" stroke="rgb(0,0,0)" stroke-width="1" >
<line x1="115.5" y1="47.7" x2="144.1" y2="40.0"/>
<line x1="144.1" y1="40.0" x2="172.4" y2="68.3"/>
<line x1="172.4" y1="68.3" x2="162.1" y2="106.9"/>
<line x1="80.0" y1="347.0" x2="100.0" y2="381.7"/>
<line x1="80.0" y1="347.0" x2="100.0" y2="312.4"/>
<line x1="100.0" y1="381.7" x2="80.0" y2="416.3"/>
<line x1="100.0" y1="312.4" x2="140.0" y2="312.4"/>
<line x1="80.0" y1="416.3" x2="100.0" y2="451.0"/>
<line x1="140.0" y1="312.4" x2="154.8" y2="338.0"/>
<line x1="137.4" y1="310.9" x2="157.4" y2="276.3"/>
<line x1="142.6" y1="313.9" x2="162.6" y2="279.3"/>
<line x1="100.0" y1="451.0" x2="80.0" y2="485.6"/>
<line x1="162.1" y1="106.9" x2="190.4" y2="135.2"/>
<line x1="160.0" y1="277.8" x2="189.6" y2="277.8"/>
<line x1="160.0" y1="277.8" x2="140.0" y2="243.1"/>
<line x1="80.0" y1="485.6" x2="100.0" y2="520.3"/>
<line x1="190.4" y1="135.2" x2="180.0" y2="173.8"/>
<line x1="140.0" y1="243.1" x2="160.0" y2="208.5"/>
<line x1="100.0" y1="520.3" x2="80.0" y2="554.9"/>
<line x1="205.5" y1="175.5" x2="205.5" y2="176.3"/>
<line x1="201.6" y1="174.8" x2="201.5" y2="176.4"/>
<line x1="197.6" y1="174.1" x2="197.4" y2="176.5"/>
<line x1="193.7" y1="173.3" x2="193.4" y2="176.5"/>
<line x1="189.7" y1="172.6" x2="189.4" y2="176.6"/>
<line x1="185.8" y1="171.9" x2="185.4" y2="176.7"/>
<line x1="181.8" y1="171.2" x2="181.4" y2="176.8"/>
<line x1="173.1" y1="230.5" x2="172.5" y2="230.9"/>
<line x1="171.5" y1="226.8" x2="170.1" y2="227.6"/>
<line x1="169.8" y1="223.1" x2="167.8" y2="224.3"/>
<line x1="168.2" y1="219.5" x2="165.4" y2="221.1"/>
<line x1="166.5" y1="215.8" x2="163.1" y2="217.8"/>
<line x1="164.9" y1="212.1" x2="160.7" y2="214.5"/>
<line x1="163.2" y1="208.5" x2="158.4" y2="211.3"/>
<line x1="80.0" y1="557.9" x2="50.4" y2="557.9"/>
<line x1="80.0" y1="551.9" x2="50.4" y2="551.9"/>
<line x1="80.0" y1="554.9" x2="94.8" y2="580.5"/>
<line x1="180.0" y1="173.8" x2="160.0" y2="208.5"/>
<line x1="160.0" y1="208.5" x2="145.2" y2="182.8"/>
<line x1="150.4" y1="173.8" x2="180.0" y2="173.8"/>
<text x="81.899948" y="55.152762" fill="rgb(102,102,102)"  stroke="rgb(102,102,102)" stroke-width="1" font-size="16" >H</text>
<text x="93.899948" y="59.952762" fill="rgb(102,102,102)"  stroke="rgb(102,102,102)" stroke-width="1" font-size="13" >3</text>
<text x="100.399948" y="55.152762" fill="rgb(102,102,102)"  stroke="rgb(102,102,102)" stroke-width="1" font-size="16" >C</text>
<text x="36.400000" y="559.693786" fill="rgb(255,12,12)"  stroke="rgb(255,12,12)" stroke-width="1" font-size="16" >O</text>
<text x="94.000000" y="594.334802" fill="rgb(255,12,12)"  stroke="rgb(255,12,12)" stroke-width="1" font-size="16" >OH</text>
<text x="136.400000" y="182.162609" fill="rgb(255,12,12)"  stroke="rgb(255,12,12)" stroke-width="1" font-size="16" >O</text>
<text x="154.000000" y="351.847689" fill="rgb(191,191,191)"  stroke="rgb(191,191,191)" stroke-width="1" font-size="16" >H</text>
<text x="194.000000" y="282.565657" fill="rgb(191,191,191)"  stroke="rgb(191,191,191)" stroke-width="1" font-size="16" >H</text>
<text x="213.871059" y="181.851758" fill="rgb(191,191,191)"  stroke="rgb(191,191,191)" stroke-width="1" font-size="16" >H</text>
<text x="174.000000" y="247.924641" fill="rgb(191,191,191)"  stroke="rgb(191,191,191)" stroke-width="1" font-size="16" >H</text>
<text font-size="18.000000" fill ="black" font-family="sans-serif"
x="140.000000" y="20.000000" ></text>
<title> - OBDepict</title>
</svg>
