<?xml version="1.0"?>
<svg xmlns="http://www.w3.org/2000/svg"
xmlns:xlink="http://www.w3.org/1999/xlink" xmlns:cml="http://www.xml-cml.org/schema" width="584.636" height="526.362" x="0" y="0" font-family="sans-serif" stroke="rgb(0,0,0)" stroke-width="1" >
<line x1="219.8" y1="328.8" x2="198.2" y2="348.3"/>
<line x1="192.1" y1="319.8" x2="198.2" y2="348.3"/>
<line x1="303.5" y1="465.3" x2="277.2" y2="436.1"/>
<line x1="303.5" y1="465.3" x2="342.0" y2="457.1"/>
<line x1="277.2" y1="436.1" x2="248.7" y2="442.1"/>
<line x1="392.7" y1="411.5" x2="404.8" y2="374.1"/>
<line x1="392.7" y1="411.5" x2="364.2" y2="417.6"/>
<line x1="404.8" y1="374.1" x2="433.3" y2="368.0"/>
<line x1="494.0" y1="320.3" x2="506.1" y2="282.9"/>
<line x1="494.0" y1="320.3" x2="455.5" y2="328.5"/>
<line x1="129.2" y1="212.8" x2="167.6" y2="204.6"/>
<line x1="129.2" y1="212.8" x2="120.2" y2="240.5"/>
<line x1="159.7" y1="356.5" x2="198.2" y2="348.3"/>
<line x1="159.7" y1="356.5" x2="140.2" y2="334.9"/>
<polygon points="159.497757 229.724674 171.450063 205.883529 163.841611 203.411393 " />
<line x1="339.2" y1="456.2" x2="348.2" y2="428.5"/>
<line x1="344.9" y1="458.0" x2="353.9" y2="430.3"/>
<line x1="342.0" y1="457.1" x2="361.5" y2="478.8"/>
<line x1="505.5" y1="279.9" x2="534.0" y2="273.9"/>
<line x1="506.8" y1="285.8" x2="535.3" y2="279.7"/>
<line x1="506.1" y1="282.9" x2="486.7" y2="261.2"/>
<line x1="453.3" y1="330.5" x2="433.8" y2="308.8"/>
<line x1="457.7" y1="326.5" x2="438.2" y2="304.8"/>
<line x1="455.5" y1="328.5" x2="446.5" y2="356.2"/>
<line x1="191.3" y1="125.7" x2="192.1" y2="125.4"/>
<line x1="192.2" y1="129.5" x2="193.7" y2="129.0"/>
<line x1="193.0" y1="133.4" x2="195.3" y2="132.7"/>
<line x1="193.8" y1="137.3" x2="196.9" y2="136.3"/>
<line x1="194.7" y1="141.1" x2="198.5" y2="139.9"/>
<line x1="195.5" y1="145.0" x2="200.1" y2="143.5"/>
<line x1="196.3" y1="148.9" x2="201.7" y2="147.1"/>
<line x1="199.5" y1="149.5" x2="219.0" y2="127.9"/>
<line x1="138.3" y1="165.9" x2="138.3" y2="165.1"/>
<line x1="142.3" y1="166.3" x2="142.3" y2="164.7"/>
<line x1="146.2" y1="166.7" x2="146.2" y2="164.3"/>
<line x1="150.2" y1="167.1" x2="150.2" y2="163.9"/>
<line x1="154.1" y1="167.5" x2="154.1" y2="163.5"/>
<line x1="158.0" y1="167.9" x2="158.0" y2="163.1"/>
<line x1="162.0" y1="168.3" x2="162.0" y2="162.7"/>
<line x1="163.5" y1="165.5" x2="149.0" y2="140.3"/>
<line x1="248.6" y1="385.0" x2="248.3" y2="385.7"/>
<line x1="245.0" y1="383.4" x2="244.5" y2="384.9"/>
<line x1="241.4" y1="381.8" x2="240.6" y2="384.1"/>
<line x1="237.7" y1="380.2" x2="236.7" y2="383.2"/>
<line x1="234.1" y1="378.6" x2="232.9" y2="382.4"/>
<line x1="230.5" y1="377.0" x2="229.0" y2="381.5"/>
<line x1="226.9" y1="375.4" x2="225.1" y2="380.7"/>
<line x1="224.5" y1="377.6" x2="212.4" y2="415.0"/>
<line x1="224.5" y1="377.6" x2="198.2" y2="348.3"/>
<line x1="224.5" y1="377.6" x2="246.2" y2="358.1"/>
<line x1="367.6" y1="76.7" x2="378.1" y2="49.6"/>
<line x1="214.6" y1="413.0" x2="234.1" y2="434.6"/>
<line x1="210.1" y1="417.0" x2="229.6" y2="438.6"/>
<line x1="212.4" y1="415.0" x2="183.9" y2="421.0"/>
<polygon points="242.598843 199.086244 228.903495 176.201855 222.732700 181.293150 " />
<line x1="225.8" y1="178.7" x2="262.5" y2="133.5"/>
<line x1="104.5" y1="102.3" x2="104.5" y2="121.2"/>
<line x1="75.4" y1="131.4" x2="94.3" y2="131.4"/>
<line x1="101.5" y1="160.5" x2="101.5" y2="141.7"/>
<line x1="107.5" y1="160.5" x2="107.5" y2="141.7"/>
<line x1="72.4" y1="230.0" x2="76.4" y2="248.4"/>
<line x1="49.4" y1="261.6" x2="67.9" y2="257.6"/>
<line x1="50.6" y1="267.4" x2="69.1" y2="263.5"/>
<line x1="66.4" y1="341.5" x2="84.9" y2="337.6"/>
<line x1="98.0" y1="364.5" x2="94.1" y2="346.1"/>
<line x1="103.8" y1="363.3" x2="99.9" y2="344.8"/>
<line x1="107.0" y1="252.4" x2="88.5" y2="256.3"/>
<line x1="123.3" y1="329.4" x2="104.9" y2="333.3"/>
<line x1="133.6" y1="131.4" x2="114.7" y2="131.4"/>
<line x1="84.5" y1="286.9" x2="80.6" y2="268.4"/>
<line x1="88.8" y1="306.9" x2="92.7" y2="325.4"/>
<line x1="265.2" y1="79.6" x2="272.7" y2="107.7"/>
<line x1="285.6" y1="118.1" x2="314.7" y2="119.6"/>
<line x1="314.7" y1="119.6" x2="328.8" y2="82.9"/>
<line x1="328.8" y1="82.9" x2="306.1" y2="64.6"/>
<line x1="289.6" y1="63.7" x2="265.2" y2="79.6"/>
<line x1="291.8" y1="70.9" x2="274.1" y2="82.3"/>
<line x1="167.6" y1="204.6" x2="163.5" y2="165.5"/>
<line x1="163.5" y1="165.5" x2="199.5" y2="149.5"/>
<line x1="199.5" y1="149.5" x2="225.8" y2="178.7"/>
<line x1="225.8" y1="178.7" x2="211.3" y2="204.0"/>
<line x1="196.1" y1="210.7" x2="167.6" y2="204.6"/>
<line x1="314.7" y1="119.6" x2="333.0" y2="142.3"/>
<line x1="324.0" y1="119.8" x2="337.3" y2="136.1"/>
<line x1="349.5" y1="148.6" x2="378.3" y2="144.1"/>
<line x1="378.3" y1="144.1" x2="388.7" y2="116.9"/>
<line x1="373.7" y1="135.9" x2="381.3" y2="116.2"/>
<line x1="386.0" y1="99.4" x2="367.6" y2="76.7"/>
<line x1="367.6" y1="76.7" x2="328.8" y2="82.9"/>
<line x1="362.8" y1="84.8" x2="335.8" y2="89.1"/>
<text x="221.429057" y="330.298637" fill="rgb(102,102,102)"  stroke="rgb(102,102,102)" stroke-width="1" font-size="16" >CH</text>
<text x="245.429057" y="337.978637" fill="rgb(102,102,102)"  stroke="rgb(102,102,102)" stroke-width="1" font-size="13" >3</text>
<text x="166.400381" y="318.137323" fill="rgb(102,102,102)"  stroke="rgb(102,102,102)" stroke-width="1" font-size="16" >H</text>
<text x="178.400381" y="325.817323" fill="rgb(102,102,102)"  stroke="rgb(102,102,102)" stroke-width="1" font-size="13" >3</text>
<text x="184.900381" y="318.137323" fill="rgb(102,102,102)"  stroke="rgb(102,102,102)" stroke-width="1" font-size="16" >C</text>
<text x="375.729948" y="48.320000" fill="rgb(12,12,255)"  stroke="rgb(12,12,255)" stroke-width="1" font-size="16" >NH</text>
<text x="399.729948" y="56.000000" fill="rgb(12,12,255)"  stroke="rgb(12,12,255)" stroke-width="1" font-size="13" >2</text>
<text x="350.572976" y="428.006536" fill="rgb(12,12,255)"  stroke="rgb(12,12,255)" stroke-width="1" font-size="16" >N</text>
<text x="235.088453" y="449.033529" fill="rgb(12,12,255)"  stroke="rgb(12,12,255)" stroke-width="1" font-size="16" >N</text>
<text x="386.393237" y="115.645361" fill="rgb(12,12,255)"  stroke="rgb(12,12,255)" stroke-width="1" font-size="16" >N</text>
<text x="335.819409" y="155.022721" fill="rgb(12,12,255)"  stroke="rgb(12,12,255)" stroke-width="1" font-size="16" >N</text>
<text x="292.171666" y="66.450558" fill="rgb(12,12,255)"  stroke="rgb(12,12,255)" stroke-width="1" font-size="16" >N</text>
<text x="269.351703" y="125.898594" fill="rgb(12,12,255)"  stroke="rgb(12,12,255)" stroke-width="1" font-size="16" >N</text>
<text x="363.545189" y="505.561557" fill="rgb(255,12,12)"  stroke="rgb(255,12,12)" stroke-width="1" font-size="32" >-</text>
<text x="362.345189" y="491.161557" fill="rgb(255,12,12)"  stroke="rgb(255,12,12)" stroke-width="1" font-size="16" >O</text>
<text x="538.636282" y="282.991184" fill="rgb(255,12,12)"  stroke="rgb(255,12,12)" stroke-width="1" font-size="16" >O</text>
<text x="475.007914" y="247.207171" fill="rgb(255,12,12)"  stroke="rgb(255,12,12)" stroke-width="1" font-size="32" >-</text>
<text x="476.207914" y="261.927171" fill="rgb(255,12,12)"  stroke="rgb(255,12,12)" stroke-width="1" font-size="16" >O</text>
<text x="425.551759" y="307.538178" fill="rgb(255,12,12)"  stroke="rgb(255,12,12)" stroke-width="1" font-size="16" >O</text>
<text x="219.818098" y="128.574813" fill="rgb(255,12,12)"  stroke="rgb(255,12,12)" stroke-width="1" font-size="16" >OH</text>
<text x="247.762584" y="359.544982" fill="rgb(255,12,12)"  stroke="rgb(255,12,12)" stroke-width="1" font-size="16" >OH</text>
<text x="169.060084" y="442.369515" fill="rgb(255,12,12)"  stroke="rgb(255,12,12)" stroke-width="1" font-size="32" >-</text>
<text x="170.260084" y="427.969515" fill="rgb(255,12,12)"  stroke="rgb(255,12,12)" stroke-width="1" font-size="16" >O</text>
<text x="99.699878" y="85.671084" fill="rgb(255,12,12)"  stroke="rgb(255,12,12)" stroke-width="1" font-size="32" >-</text>
<text x="98.499878" y="100.391084" fill="rgb(255,12,12)"  stroke="rgb(255,12,12)" stroke-width="1" font-size="16" >O</text>
<text x="60.345040" y="125.025922" fill="rgb(255,12,12)"  stroke="rgb(255,12,12)" stroke-width="1" font-size="32" >-</text>
<text x="61.545040" y="139.745922" fill="rgb(255,12,12)"  stroke="rgb(255,12,12)" stroke-width="1" font-size="16" >O</text>
<text x="98.499878" y="175.580761" fill="rgb(255,12,12)"  stroke="rgb(255,12,12)" stroke-width="1" font-size="16" >O</text>
<text x="54.712510" y="228.265958" fill="rgb(255,12,12)"  stroke="rgb(255,12,12)" stroke-width="1" font-size="16" >HO</text>
<text x="36.400000" y="271.423130" fill="rgb(255,12,12)"  stroke="rgb(255,12,12)" stroke-width="1" font-size="16" >O</text>
<text x="40.764662" y="348.412812" fill="rgb(255,12,12)"  stroke="rgb(255,12,12)" stroke-width="1" font-size="16" >HO</text>
<text x="97.041834" y="378.725322" fill="rgb(255,12,12)"  stroke="rgb(255,12,12)" stroke-width="1" font-size="16" >O</text>
<text x="110.989682" y="255.058468" fill="rgb(255,12,12)"  stroke="rgb(255,12,12)" stroke-width="1" font-size="16" >O</text>
<text x="127.354344" y="335.568150" fill="rgb(255,12,12)"  stroke="rgb(255,12,12)" stroke-width="1" font-size="16" >O</text>
<text x="200.140678" y="217.629792" fill="rgb(255,12,12)"  stroke="rgb(255,12,12)" stroke-width="1" font-size="16" >O</text>
<text x="137.854717" y="139.745922" fill="rgb(255,12,12)"  stroke="rgb(255,12,12)" stroke-width="1" font-size="16" >O</text>
<text x="80.677172" y="301.735640" fill="rgb(255,12,12)"  stroke="rgb(255,12,12)" stroke-width="1" font-size="16" >O</text>
<text x="98.499878" y="136.225922" fill="rgb(255,127,0)"  stroke="rgb(255,127,0)" stroke-width="1" font-size="16" >P</text>
<text x="72.494841" y="266.760799" fill="rgb(255,127,0)"  stroke="rgb(255,127,0)" stroke-width="1" font-size="16" >P</text>
<text x="88.859503" y="343.750481" fill="rgb(255,127,0)"  stroke="rgb(255,127,0)" stroke-width="1" font-size="16" >P</text>
<text x="437.323972" y="370.693198" fill="rgb(178,178,0)"  stroke="rgb(178,178,0)" stroke-width="1" font-size="16" >S</text>
<text x="151.884523" y="246.876137" fill="rgb(191,191,191)"  stroke="rgb(191,191,191)" stroke-width="1" font-size="16" >H</text>
<text x="183.723257" y="120.392482" fill="rgb(191,191,191)"  stroke="rgb(191,191,191)" stroke-width="1" font-size="16" >H</text>
<text x="120.577298" y="173.828212" fill="rgb(191,191,191)"  stroke="rgb(191,191,191)" stroke-width="1" font-size="16" >H</text>
<text x="255.944915" y="394.519823" fill="rgb(191,191,191)"  stroke="rgb(191,191,191)" stroke-width="1" font-size="16" >H</text>
<text x="244.863986" y="213.903833" fill="rgb(191,191,191)"  stroke="rgb(191,191,191)" stroke-width="1" font-size="16" >H</text>
<text font-size="18.000000" fill ="black" font-family="sans-serif"
x="140.000000" y="20.000000" ></text>
<title> - OBDepict</title>
</svg>
