<?xml version="1.0"?>
<svg xmlns="http://www.w3.org/2000/svg"
xmlns:xlink="http://www.w3.org/1999/xlink" xmlns:cml="http://www.xml-cml.org/schema" width="333.97" height="236.083" x="0" y="0" font-family="sans-serif" stroke="rgb(0,0,0)" stroke-width="1" >
<line x1="74.6" y1="104.9" x2="49.0" y2="119.7"/>
<line x1="167.2" y1="171.7" x2="138.9" y2="180.5"/>
<line x1="165.4" y1="166.0" x2="137.1" y2="174.7"/>
<line x1="166.3" y1="168.9" x2="172.9" y2="140.0"/>
<line x1="166.3" y1="168.9" x2="188.0" y2="189.0"/>
<line x1="294.0" y1="115.0" x2="271.4" y2="82.0"/>
<line x1="271.4" y1="82.0" x2="231.5" y2="84.9"/>
<line x1="266.0" y1="89.6" x2="238.1" y2="91.7"/>
<line x1="231.5" y1="84.9" x2="214.2" y2="121.0"/>
<line x1="214.2" y1="121.0" x2="236.7" y2="154.0"/>
<line x1="223.5" y1="121.9" x2="239.3" y2="145.0"/>
<line x1="236.7" y1="154.0" x2="276.6" y2="151.0"/>
<line x1="276.6" y1="151.0" x2="294.0" y2="115.0"/>
<line x1="272.7" y1="142.5" x2="284.9" y2="117.3"/>
<line x1="109.3" y1="44.9" x2="74.6" y2="64.9"/>
<line x1="107.7" y1="54.2" x2="83.4" y2="68.2"/>
<line x1="74.6" y1="64.9" x2="74.6" y2="104.9"/>
<line x1="74.6" y1="104.9" x2="109.3" y2="124.9"/>
<line x1="83.4" y1="101.7" x2="107.7" y2="115.7"/>
<line x1="109.3" y1="124.9" x2="143.9" y2="104.9"/>
<line x1="143.9" y1="104.9" x2="143.9" y2="64.9"/>
<line x1="136.7" y1="98.9" x2="136.7" y2="70.9"/>
<line x1="143.9" y1="64.9" x2="109.3" y2="44.9"/>
<line x1="231.5" y1="84.9" x2="214.2" y2="48.9"/>
<line x1="214.2" y1="48.9" x2="175.2" y2="40.0"/>
<line x1="206.7" y1="54.6" x2="179.4" y2="48.4"/>
<line x1="175.2" y1="40.0" x2="143.9" y2="64.9"/>
<line x1="143.9" y1="104.9" x2="167.1" y2="123.4"/>
<line x1="185.3" y1="127.6" x2="214.2" y2="121.0"/>
<text x="112.472558" y="185.466508" fill="rgb(12,12,255)"  stroke="rgb(12,12,255)" stroke-width="1" font-size="16" >HN</text>
<text x="169.196308" y="138.199184" fill="rgb(12,12,255)"  stroke="rgb(12,12,255)" stroke-width="1" font-size="16" >N</text>
<text x="24.400000" y="129.739592" fill="rgb(255,12,12)"  stroke="rgb(255,12,12)" stroke-width="1" font-size="16" >HO</text>
<text x="189.617545" y="200.883210" fill="rgb(255,12,12)"  stroke="rgb(255,12,12)" stroke-width="1" font-size="16" >OH</text>
<text font-size="18.000000" fill ="black" font-family="sans-serif"
x="140.000000" y="20.000000" ></text>
<title> - OBDepict</title>
</svg>
