<?xml version="1.0"?>
<svg xmlns="http://www.w3.org/2000/svg"
xmlns:xlink="http://www.w3.org/1999/xlink" xmlns:cml="http://www.xml-cml.org/schema" width="242.08" height="227.319" x="0" y="0" font-family="sans-serif" stroke="rgb(0,0,0)" stroke-width="1" >
<line x1="52.5" y1="102.5" x2="71.1" y2="79.5"/>
<polygon points="75.278282 53.037486 67.135085 78.881796 75.036592 80.133271 " />
<line x1="71.1" y1="79.5" x2="110.6" y2="85.8"/>
<line x1="71.1" y1="79.5" x2="48.1" y2="60.9"/>
<line x1="152.9" y1="60.3" x2="153.7" y2="60.3"/>
<line x1="152.1" y1="64.2" x2="153.6" y2="64.4"/>
<line x1="151.2" y1="68.1" x2="153.6" y2="68.4"/>
<line x1="150.4" y1="72.1" x2="153.6" y2="72.4"/>
<line x1="149.6" y1="76.0" x2="153.6" y2="76.4"/>
<line x1="148.8" y1="79.9" x2="153.6" y2="80.4"/>
<line x1="148.0" y1="83.9" x2="153.5" y2="84.5"/>
<line x1="150.6" y1="85.8" x2="177.6" y2="73.7"/>
<line x1="187.9" y1="118.1" x2="188.1" y2="118.9"/>
<line x1="183.9" y1="118.5" x2="184.2" y2="120.1"/>
<line x1="179.9" y1="119.0" x2="180.4" y2="121.3"/>
<line x1="175.9" y1="119.4" x2="176.6" y2="122.5"/>
<line x1="171.9" y1="119.9" x2="172.8" y2="123.8"/>
<line x1="167.9" y1="120.3" x2="168.9" y2="125.0"/>
<line x1="163.9" y1="120.7" x2="165.1" y2="126.2"/>
<line x1="163.0" y1="123.8" x2="182.8" y2="145.8"/>
<line x1="119.2" y1="61.6" x2="119.9" y2="61.9"/>
<line x1="117.4" y1="65.2" x2="118.9" y2="65.8"/>
<line x1="115.6" y1="68.9" x2="117.9" y2="69.7"/>
<line x1="113.9" y1="72.5" x2="116.8" y2="73.6"/>
<line x1="112.1" y1="76.1" x2="115.8" y2="77.5"/>
<line x1="110.3" y1="79.7" x2="114.8" y2="81.4"/>
<line x1="108.5" y1="83.3" x2="113.8" y2="85.2"/>
<line x1="133.6" y1="147.3" x2="133.6" y2="176.9"/>
<line x1="127.6" y1="147.3" x2="127.6" y2="176.9"/>
<line x1="150.6" y1="85.8" x2="163.0" y2="123.8"/>
<line x1="163.0" y1="123.8" x2="130.6" y2="147.3"/>
<line x1="130.6" y1="147.3" x2="106.6" y2="129.9"/>
<line x1="101.4" y1="113.9" x2="110.6" y2="85.8"/>
<line x1="110.6" y1="85.8" x2="150.6" y2="85.8"/>
<text x="22.313023" y="115.393372" fill="rgb(102,102,102)"  stroke="rgb(102,102,102)" stroke-width="1" font-size="16" >H</text>
<text x="34.313023" y="120.193372" fill="rgb(102,102,102)"  stroke="rgb(102,102,102)" stroke-width="1" font-size="13" >3</text>
<text x="40.813023" y="115.393372" fill="rgb(102,102,102)"  stroke="rgb(102,102,102)" stroke-width="1" font-size="16" >C</text>
<text x="24.400000" y="62.654718" fill="rgb(255,12,12)"  stroke="rgb(255,12,12)" stroke-width="1" font-size="16" >HO</text>
<text x="181.135190" y="77.815447" fill="rgb(255,12,12)"  stroke="rgb(255,12,12)" stroke-width="1" font-size="16" >OH</text>
<text x="183.719276" y="158.332966" fill="rgb(255,12,12)"  stroke="rgb(255,12,12)" stroke-width="1" font-size="16" >OH</text>
<text x="124.593372" y="192.118583" fill="rgb(255,12,12)"  stroke="rgb(255,12,12)" stroke-width="1" font-size="16" >O</text>
<text x="94.632692" y="128.607173" fill="rgb(255,12,12)"  stroke="rgb(255,12,12)" stroke-width="1" font-size="16" >O</text>
<text x="71.343217" y="48.320000" fill="rgb(191,191,191)"  stroke="rgb(191,191,191)" stroke-width="1" font-size="16" >H</text>
<text x="148.774511" y="54.304036" fill="rgb(191,191,191)"  stroke="rgb(191,191,191)" stroke-width="1" font-size="16" >H</text>
<text x="196.079956" y="123.810705" fill="rgb(191,191,191)"  stroke="rgb(191,191,191)" stroke-width="1" font-size="16" >H</text>
<text x="118.585461" y="56.611969" fill="rgb(191,191,191)"  stroke="rgb(191,191,191)" stroke-width="1" font-size="16" >H</text>
<text font-size="18.000000" fill ="black" font-family="sans-serif"
x="140.000000" y="20.000000" ></text>
<title> - OBDepict</title>
</svg>
