<?xml version="1.0"?>
<svg xmlns="http://www.w3.org/2000/svg"
xmlns:xlink="http://www.w3.org/1999/xlink" xmlns:cml="http://www.xml-cml.org/schema" width="428.106" height="407.057" x="0" y="0" font-family="sans-serif" stroke="rgb(0,0,0)" stroke-width="1" >
<line x1="50.1" y1="185.0" x2="78.8" y2="186.5"/>
<line x1="78.8" y1="186.5" x2="100.0" y2="153.9"/>
<line x1="100.0" y1="153.9" x2="87.0" y2="128.3"/>
<line x1="100.2" y1="150.9" x2="139.0" y2="152.9"/>
<line x1="99.9" y1="156.9" x2="138.7" y2="158.9"/>
<line x1="299.2" y1="174.7" x2="313.5" y2="149.8"/>
<line x1="299.2" y1="174.7" x2="260.3" y2="174.7"/>
<line x1="301.8" y1="173.2" x2="321.2" y2="206.9"/>
<line x1="296.6" y1="176.2" x2="316.0" y2="209.9"/>
<line x1="260.3" y1="174.7" x2="240.8" y2="141.0"/>
<line x1="138.9" y1="155.9" x2="154.5" y2="131.8"/>
<line x1="138.9" y1="155.9" x2="156.5" y2="190.6"/>
<line x1="318.6" y1="208.4" x2="347.4" y2="208.4"/>
<line x1="318.6" y1="208.4" x2="299.2" y2="242.1"/>
<line x1="240.8" y1="141.0" x2="260.3" y2="107.4"/>
<line x1="156.5" y1="190.6" x2="195.3" y2="192.6"/>
<line x1="299.2" y1="242.1" x2="318.6" y2="275.8"/>
<line x1="260.3" y1="107.4" x2="240.8" y2="73.7"/>
<line x1="213.0" y1="227.3" x2="197.3" y2="251.4"/>
<line x1="213.2" y1="224.3" x2="252.0" y2="226.3"/>
<line x1="212.8" y1="230.3" x2="251.7" y2="232.3"/>
<line x1="213.0" y1="227.3" x2="195.3" y2="192.6"/>
<line x1="251.8" y1="229.3" x2="267.5" y2="205.2"/>
<line x1="251.8" y1="229.3" x2="287.1" y2="298.6"/>
<polygon points="218.558042 180.794652 193.526410 189.059601 197.158334 196.187653 " />
<line x1="195.3" y1="192.6" x2="196.8" y2="163.9"/>
<line x1="330.7" y1="254.0" x2="331.4" y2="254.4"/>
<line x1="328.4" y1="257.2" x2="329.8" y2="258.0"/>
<line x1="326.1" y1="260.3" x2="328.2" y2="261.5"/>
<line x1="323.8" y1="263.5" x2="326.6" y2="265.1"/>
<line x1="321.5" y1="266.7" x2="325.0" y2="268.7"/>
<line x1="319.2" y1="269.8" x2="323.4" y2="272.2"/>
<line x1="317.0" y1="273.0" x2="321.8" y2="275.8"/>
<polygon points="266.745219 314.820819 289.632228 301.741185 284.654819 295.478166 " />
<line x1="374.5" y1="303.4" x2="374.3" y2="304.2"/>
<line x1="370.8" y1="302.2" x2="370.4" y2="303.8"/>
<line x1="367.1" y1="301.0" x2="366.6" y2="303.3"/>
<line x1="363.3" y1="299.8" x2="362.7" y2="302.9"/>
<line x1="359.6" y1="298.6" x2="358.8" y2="302.5"/>
<line x1="355.9" y1="297.4" x2="354.9" y2="302.1"/>
<line x1="352.2" y1="296.2" x2="351.0" y2="301.7"/>
<line x1="350.1" y1="298.6" x2="369.3" y2="277.2"/>
<line x1="301.6" y1="337.4" x2="284.7" y2="360.6"/>
<line x1="296.7" y1="333.8" x2="279.8" y2="357.1"/>
<line x1="240.8" y1="76.7" x2="212.0" y2="76.7"/>
<line x1="240.8" y1="70.7" x2="212.0" y2="70.7"/>
<line x1="240.8" y1="73.7" x2="255.2" y2="48.8"/>
<line x1="318.6" y1="275.8" x2="287.1" y2="298.6"/>
<line x1="287.1" y1="298.6" x2="299.2" y2="335.6"/>
<line x1="299.2" y1="335.6" x2="338.0" y2="335.6"/>
<line x1="338.0" y1="335.6" x2="350.1" y2="298.6"/>
<line x1="350.1" y1="298.6" x2="318.6" y2="275.8"/>
<text x="16.400000" y="192.802478" fill="rgb(102,102,102)"  stroke="rgb(102,102,102)" stroke-width="1" font-size="16" >H</text>
<text x="28.400000" y="200.482478" fill="rgb(102,102,102)"  stroke="rgb(102,102,102)" stroke-width="1" font-size="13" >3</text>
<text x="34.900000" y="192.802478" fill="rgb(102,102,102)"  stroke="rgb(102,102,102)" stroke-width="1" font-size="16" >C</text>
<text x="191.377659" y="162.108034" fill="rgb(255,12,12)"  stroke="rgb(255,12,12)" stroke-width="1" font-size="16" >OH</text>
<text x="370.088813" y="278.029599" fill="rgb(255,12,12)"  stroke="rgb(255,12,12)" stroke-width="1" font-size="16" >OH</text>
<text x="272.702536" y="371.856978" fill="rgb(255,12,12)"  stroke="rgb(255,12,12)" stroke-width="1" font-size="16" >O</text>
<text x="198.338629" y="81.998766" fill="rgb(255,12,12)"  stroke="rgb(255,12,12)" stroke-width="1" font-size="16" >O</text>
<text x="254.271962" y="48.320000" fill="rgb(255,12,12)"  stroke="rgb(255,12,12)" stroke-width="1" font-size="16" >OH</text>
<text x="78.760814" y="127.572545" fill="rgb(191,191,191)"  stroke="rgb(191,191,191)" stroke-width="1" font-size="16" >H</text>
<text x="312.605295" y="149.356297" fill="rgb(191,191,191)"  stroke="rgb(191,191,191)" stroke-width="1" font-size="16" >H</text>
<text x="154.032000" y="131.643120" fill="rgb(191,191,191)"  stroke="rgb(191,191,191)" stroke-width="1" font-size="16" >H</text>
<text x="351.494184" y="213.193829" fill="rgb(191,191,191)"  stroke="rgb(191,191,191)" stroke-width="1" font-size="16" >H</text>
<text x="188.217151" y="264.688847" fill="rgb(191,191,191)"  stroke="rgb(191,191,191)" stroke-width="1" font-size="16" >H</text>
<text x="267.013558" y="205.014201" fill="rgb(191,191,191)"  stroke="rgb(191,191,191)" stroke-width="1" font-size="16" >H</text>
<text x="223.992626" y="183.288441" fill="rgb(191,191,191)"  stroke="rgb(191,191,191)" stroke-width="1" font-size="16" >H</text>
<text x="332.049740" y="250.392594" fill="rgb(191,191,191)"  stroke="rgb(191,191,191)" stroke-width="1" font-size="16" >H</text>
<text x="253.098294" y="327.605412" fill="rgb(191,191,191)"  stroke="rgb(191,191,191)" stroke-width="1" font-size="16" >H</text>
<text x="382.106141" y="311.495130" fill="rgb(191,191,191)"  stroke="rgb(191,191,191)" stroke-width="1" font-size="16" >H</text>
<text font-size="18.000000" fill ="black" font-family="sans-serif"
x="140.000000" y="20.000000" ></text>
<title> - OBDepict</title>
</svg>
