<?xml version="1.0"?>
<svg xmlns="http://www.w3.org/2000/svg"
xmlns:xlink="http://www.w3.org/1999/xlink" xmlns:cml="http://www.xml-cml.org/schema" width="362.057" height="420.587" x="0" y="0" font-family="sans-serif" stroke="rgb(0,0,0)" stroke-width="1" >
<line x1="70.0" y1="166.3" x2="79.1" y2="194.5"/>
<line x1="162.7" y1="63.3" x2="171.8" y2="91.5"/>
<line x1="213.2" y1="301.9" x2="212.4" y2="301.9"/>
<line x1="213.6" y1="297.9" x2="212.0" y2="297.9"/>
<line x1="214.0" y1="293.9" x2="211.6" y2="293.9"/>
<line x1="214.4" y1="289.9" x2="211.2" y2="289.9"/>
<line x1="214.8" y1="285.9" x2="210.8" y2="285.9"/>
<line x1="215.2" y1="281.9" x2="210.4" y2="281.9"/>
<line x1="215.6" y1="277.9" x2="210.0" y2="277.9"/>
<line x1="110.8" y1="242.5" x2="110.1" y2="242.1"/>
<line x1="112.8" y1="239.0" x2="111.4" y2="238.3"/>
<line x1="114.8" y1="235.5" x2="112.6" y2="234.5"/>
<line x1="116.8" y1="232.0" x2="113.9" y2="230.7"/>
<line x1="118.8" y1="228.5" x2="115.2" y2="226.9"/>
<line x1="120.8" y1="225.0" x2="116.4" y2="223.0"/>
<line x1="122.8" y1="221.5" x2="117.7" y2="219.2"/>
<line x1="125.5" y1="143.0" x2="117.2" y2="182.1"/>
<line x1="125.5" y1="143.0" x2="163.5" y2="130.6"/>
<line x1="117.2" y1="182.1" x2="79.1" y2="194.5"/>
<line x1="163.5" y1="130.6" x2="171.8" y2="91.5"/>
<polygon points="52.911548 188.887718 78.294257 198.372342 79.957551 190.547161 " />
<line x1="79.1" y1="194.5" x2="70.8" y2="233.6"/>
<line x1="171.8" y1="91.5" x2="142.9" y2="85.3"/>
<line x1="171.8" y1="91.5" x2="209.9" y2="79.1"/>
<polygon points="295.456778 369.155816 285.520879 343.946335 278.592676 347.946335 " />
<line x1="282.1" y1="345.9" x2="311.7" y2="345.9"/>
<polygon points="50.893155 215.652955 68.132914 236.558235 73.485959 230.613076 " />
<polygon points="119.752239 310.429353 112.505879 284.319389 105.197515 287.573282 " />
<polygon points="201.343210 272.546335 176.133729 282.482234 180.133729 289.410437 " />
<line x1="117.9" y1="346.3" x2="117.9" y2="345.5"/>
<line x1="121.9" y1="346.7" x2="121.9" y2="345.1"/>
<line x1="125.9" y1="347.1" x2="125.9" y2="344.7"/>
<line x1="129.9" y1="347.5" x2="129.9" y2="344.3"/>
<line x1="133.9" y1="347.9" x2="133.9" y2="343.9"/>
<line x1="137.9" y1="348.3" x2="137.9" y2="343.5"/>
<line x1="141.9" y1="348.7" x2="141.9" y2="343.1"/>
<line x1="143.5" y1="345.9" x2="128.7" y2="371.6"/>
<line x1="121.5" y1="319.1" x2="121.1" y2="318.4"/>
<line x1="125.2" y1="317.4" x2="124.4" y2="316.1"/>
<line x1="128.9" y1="315.8" x2="127.7" y2="313.7"/>
<line x1="132.5" y1="314.1" x2="130.9" y2="311.4"/>
<line x1="136.2" y1="312.5" x2="134.2" y2="309.0"/>
<line x1="139.8" y1="310.8" x2="137.4" y2="306.7"/>
<line x1="143.5" y1="309.2" x2="140.7" y2="304.3"/>
<line x1="211.9" y1="76.9" x2="233.9" y2="96.7"/>
<line x1="207.9" y1="81.4" x2="229.9" y2="101.2"/>
<line x1="209.9" y1="79.1" x2="216.0" y2="50.2"/>
<line x1="47.3" y1="265.9" x2="70.8" y2="298.3"/>
<line x1="70.8" y1="298.3" x2="108.9" y2="285.9"/>
<line x1="108.9" y1="285.9" x2="108.9" y2="245.9"/>
<line x1="108.9" y1="245.9" x2="70.8" y2="233.6"/>
<line x1="70.8" y1="233.6" x2="47.3" y2="265.9"/>
<line x1="178.1" y1="365.9" x2="212.8" y2="345.9"/>
<line x1="179.7" y1="356.7" x2="204.0" y2="342.7"/>
<line x1="212.8" y1="345.9" x2="212.8" y2="305.9"/>
<line x1="212.8" y1="305.9" x2="178.1" y2="285.9"/>
<line x1="178.1" y1="285.9" x2="143.5" y2="305.9"/>
<line x1="143.5" y1="305.9" x2="143.5" y2="345.9"/>
<line x1="143.5" y1="345.9" x2="178.1" y2="365.9"/>
<line x1="178.1" y1="285.9" x2="178.1" y2="245.9"/>
<line x1="178.1" y1="245.9" x2="143.5" y2="225.9"/>
<line x1="143.5" y1="225.9" x2="108.9" y2="245.9"/>
<line x1="108.9" y1="285.9" x2="143.5" y2="305.9"/>
<line x1="282.1" y1="305.9" x2="247.4" y2="285.9"/>
<line x1="247.4" y1="285.9" x2="212.8" y2="305.9"/>
<line x1="212.8" y1="345.9" x2="247.4" y2="365.9"/>
<line x1="247.4" y1="365.9" x2="282.1" y2="345.9"/>
<line x1="282.1" y1="345.9" x2="282.1" y2="305.9"/>
<text x="43.165224" y="164.737491" fill="rgb(102,102,102)"  stroke="rgb(102,102,102)" stroke-width="1" font-size="16" >H</text>
<text x="55.165224" y="172.417491" fill="rgb(102,102,102)"  stroke="rgb(102,102,102)" stroke-width="1" font-size="13" >3</text>
<text x="61.665224" y="164.737491" fill="rgb(102,102,102)"  stroke="rgb(102,102,102)" stroke-width="1" font-size="16" >C</text>
<text x="135.882681" y="61.764323" fill="rgb(102,102,102)"  stroke="rgb(102,102,102)" stroke-width="1" font-size="16" >H</text>
<text x="147.882681" y="69.444323" fill="rgb(102,102,102)"  stroke="rgb(102,102,102)" stroke-width="1" font-size="13" >3</text>
<text x="154.382681" y="61.764323" fill="rgb(102,102,102)"  stroke="rgb(102,102,102)" stroke-width="1" font-size="16" >C</text>
<text x="206.774746" y="274.266335" fill="rgb(102,102,102)"  stroke="rgb(102,102,102)" stroke-width="1" font-size="16" >CH</text>
<text x="230.774746" y="281.946335" fill="rgb(102,102,102)"  stroke="rgb(102,102,102)" stroke-width="1" font-size="13" >3</text>
<text x="119.121163" y="217.724517" fill="rgb(102,102,102)"  stroke="rgb(102,102,102)" stroke-width="1" font-size="16" >CH</text>
<text x="143.121163" y="225.404517" fill="rgb(102,102,102)"  stroke="rgb(102,102,102)" stroke-width="1" font-size="13" >3</text>
<text x="316.056778" y="350.746335" fill="rgb(255,12,12)"  stroke="rgb(255,12,12)" stroke-width="1" font-size="16" >OH</text>
<text x="107.892713" y="385.387351" fill="rgb(255,12,12)"  stroke="rgb(255,12,12)" stroke-width="1" font-size="16" >HO</text>
<text x="233.611414" y="110.691128" fill="rgb(255,12,12)"  stroke="rgb(255,12,12)" stroke-width="1" font-size="16" >O</text>
<text x="212.202089" y="48.320000" fill="rgb(255,12,12)"  stroke="rgb(255,12,12)" stroke-width="1" font-size="16" >OH</text>
<text x="36.400000" y="194.463284" fill="rgb(191,191,191)"  stroke="rgb(191,191,191)" stroke-width="1" font-size="16" >H</text>
<text x="129.117457" y="91.490116" fill="rgb(191,191,191)"  stroke="rgb(191,191,191)" stroke-width="1" font-size="16" >H</text>
<text x="296.056778" y="385.387351" fill="rgb(191,191,191)"  stroke="rgb(191,191,191)" stroke-width="1" font-size="16" >H</text>
<text x="37.483643" y="215.140431" fill="rgb(191,191,191)"  stroke="rgb(191,191,191)" stroke-width="1" font-size="16" >H</text>
<text x="119.121163" y="327.288154" fill="rgb(191,191,191)"  stroke="rgb(191,191,191)" stroke-width="1" font-size="16" >H</text>
<text x="206.774746" y="274.266335" fill="rgb(191,191,191)"  stroke="rgb(191,191,191)" stroke-width="1" font-size="16" >H</text>
<text x="99.892713" y="350.746335" fill="rgb(191,191,191)"  stroke="rgb(191,191,191)" stroke-width="1" font-size="16" >H</text>
<text x="105.251697" y="330.746335" fill="rgb(191,191,191)"  stroke="rgb(191,191,191)" stroke-width="1" font-size="16" >H</text>
<text font-size="18.000000" fill ="black" font-family="sans-serif"
x="140.000000" y="20.000000" ></text>
<title> - OBDepict</title>
</svg>
