<?xml version="1.0"?>
<svg xmlns="http://www.w3.org/2000/svg"
xmlns:xlink="http://www.w3.org/1999/xlink" xmlns:cml="http://www.xml-cml.org/schema" width="305.193" height="296.569" x="0" y="0" font-family="sans-serif" stroke="rgb(0,0,0)" stroke-width="1" >
<line x1="114.6" y1="140.0" x2="114.6" y2="180.0"/>
<line x1="114.6" y1="140.0" x2="89.0" y2="125.2"/>
<polygon points="101.241016 203.209481 118.105118 182.000000 111.176915 178.000000 " />
<line x1="114.6" y1="180.0" x2="149.3" y2="200.0"/>
<line x1="114.6" y1="180.0" x2="85.0" y2="180.0"/>
<polygon points="217.222289 132.059743 195.443400 148.181778 201.100254 153.838632 " />
<line x1="198.3" y1="151.0" x2="190.6" y2="122.4"/>
<line x1="152.6" y1="136.7" x2="153.4" y2="136.5"/>
<line x1="153.3" y1="140.7" x2="154.8" y2="140.3"/>
<line x1="153.9" y1="144.7" x2="156.2" y2="144.1"/>
<line x1="154.6" y1="148.6" x2="157.7" y2="147.8"/>
<line x1="155.2" y1="152.6" x2="159.1" y2="151.6"/>
<line x1="155.9" y1="156.6" x2="160.5" y2="155.3"/>
<line x1="156.5" y1="160.5" x2="161.9" y2="159.1"/>
<line x1="159.6" y1="161.4" x2="131.0" y2="153.7"/>
<polygon points="252.442911 186.230827 227.591375 175.430773 225.520822 183.158180 " />
<line x1="226.6" y1="179.3" x2="247.5" y2="158.4"/>
<polygon points="145.783930 226.570722 153.247812 200.522105 145.316253 199.477895 " />
<polygon points="223.139687 243.818322 220.067040 216.896233 212.339633 218.966786 " />
<line x1="216.2" y1="217.9" x2="244.8" y2="225.6"/>
<line x1="109.6" y1="80.0" x2="90.4" y2="80.0"/>
<line x1="80.0" y1="50.4" x2="80.0" y2="69.6"/>
<line x1="50.4" y1="77.0" x2="69.6" y2="77.0"/>
<line x1="50.4" y1="83.0" x2="69.6" y2="83.0"/>
<line x1="80.0" y1="109.6" x2="80.0" y2="90.4"/>
<line x1="198.3" y1="151.0" x2="226.6" y2="179.3"/>
<line x1="226.6" y1="179.3" x2="216.2" y2="217.9"/>
<line x1="216.2" y1="217.9" x2="187.6" y2="225.6"/>
<line x1="170.2" y1="220.9" x2="149.3" y2="200.0"/>
<line x1="149.3" y1="200.0" x2="159.6" y2="161.4"/>
<line x1="159.6" y1="161.4" x2="198.3" y2="151.0"/>
<text x="59.041016" y="184.800000" fill="rgb(255,12,12)"  stroke="rgb(255,12,12)" stroke-width="1" font-size="16" >HO</text>
<text x="172.319065" y="120.693172" fill="rgb(255,12,12)"  stroke="rgb(255,12,12)" stroke-width="1" font-size="16" >HO</text>
<text x="105.397761" y="159.330205" fill="rgb(255,12,12)"  stroke="rgb(255,12,12)" stroke-width="1" font-size="16" >HO</text>
<text x="248.840370" y="159.330205" fill="rgb(255,12,12)"  stroke="rgb(255,12,12)" stroke-width="1" font-size="16" >OH</text>
<text x="248.840370" y="233.084271" fill="rgb(255,12,12)"  stroke="rgb(255,12,12)" stroke-width="1" font-size="16" >OH</text>
<text x="115.200000" y="99.200000" fill="rgb(255,12,12)"  stroke="rgb(255,12,12)" stroke-width="1" font-size="32" >-</text>
<text x="114.000000" y="84.800000" fill="rgb(255,12,12)"  stroke="rgb(255,12,12)" stroke-width="1" font-size="16" >O</text>
<text x="75.200000" y="33.600000" fill="rgb(255,12,12)"  stroke="rgb(255,12,12)" stroke-width="1" font-size="32" >-</text>
<text x="74.000000" y="48.320000" fill="rgb(255,12,12)"  stroke="rgb(255,12,12)" stroke-width="1" font-size="16" >O</text>
<text x="36.400000" y="84.800000" fill="rgb(255,12,12)"  stroke="rgb(255,12,12)" stroke-width="1" font-size="16" >O</text>
<text x="76.400000" y="124.800000" fill="rgb(255,12,12)"  stroke="rgb(255,12,12)" stroke-width="1" font-size="16" >O</text>
<text x="173.966304" y="233.084271" fill="rgb(255,12,12)"  stroke="rgb(255,12,12)" stroke-width="1" font-size="16" >O</text>
<text x="74.000000" y="84.800000" fill="rgb(255,127,0)"  stroke="rgb(255,127,0)" stroke-width="1" font-size="16" >P</text>
<text x="91.041016" y="219.441016" fill="rgb(191,191,191)"  stroke="rgb(191,191,191)" stroke-width="1" font-size="16" >H</text>
<text x="220.556098" y="131.045934" fill="rgb(191,191,191)"  stroke="rgb(191,191,191)" stroke-width="1" font-size="16" >H</text>
<text x="145.682032" y="131.045934" fill="rgb(191,191,191)"  stroke="rgb(191,191,191)" stroke-width="1" font-size="16" >H</text>
<text x="259.193131" y="194.447238" fill="rgb(191,191,191)"  stroke="rgb(191,191,191)" stroke-width="1" font-size="16" >H</text>
<text x="140.460985" y="244.457794" fill="rgb(191,191,191)"  stroke="rgb(191,191,191)" stroke-width="1" font-size="16" >H</text>
<text x="220.556098" y="261.368542" fill="rgb(191,191,191)"  stroke="rgb(191,191,191)" stroke-width="1" font-size="16" >H</text>
<text font-size="18.000000" fill ="black" font-family="sans-serif"
x="140.000000" y="20.000000" ></text>
<title> - OBDepict</title>
</svg>
