<?xml version="1.0"?>
<svg xmlns="http://www.w3.org/2000/svg"
xmlns:xlink="http://www.w3.org/1999/xlink" xmlns:cml="http://www.xml-cml.org/schema" width="396.764" height="221.986" x="0" y="0" font-family="sans-serif" stroke="rgb(0,0,0)" stroke-width="1" >
<line x1="206.8" y1="106.1" x2="239.2" y2="129.6"/>
<line x1="206.8" y1="106.1" x2="170.3" y2="122.4"/>
<line x1="333.3" y1="76.5" x2="345.3" y2="49.5"/>
<line x1="105.9" y1="129.1" x2="66.8" y2="120.8"/>
<line x1="63.9" y1="121.8" x2="54.8" y2="93.6"/>
<line x1="69.6" y1="119.9" x2="60.5" y2="91.8"/>
<line x1="66.8" y1="120.8" x2="47.0" y2="142.8"/>
<line x1="239.2" y1="169.6" x2="267.3" y2="178.8"/>
<line x1="283.3" y1="173.6" x2="300.7" y2="149.6"/>
<line x1="300.7" y1="149.6" x2="277.2" y2="117.3"/>
<line x1="291.4" y1="149.0" x2="274.9" y2="126.4"/>
<line x1="277.2" y1="117.3" x2="239.2" y2="129.6"/>
<line x1="239.2" y1="129.6" x2="239.2" y2="169.6"/>
<line x1="246.4" y1="135.6" x2="246.4" y2="163.6"/>
<line x1="170.3" y1="122.4" x2="164.1" y2="151.3"/>
<line x1="151.6" y1="162.6" x2="122.2" y2="165.7"/>
<line x1="122.2" y1="165.7" x2="105.9" y2="129.1"/>
<line x1="105.9" y1="129.1" x2="127.9" y2="109.3"/>
<line x1="144.6" y1="107.6" x2="170.3" y2="122.4"/>
<line x1="356.8" y1="108.9" x2="333.3" y2="76.5"/>
<line x1="333.3" y1="76.5" x2="293.5" y2="80.7"/>
<line x1="328.0" y1="84.3" x2="300.2" y2="87.3"/>
<line x1="293.5" y1="80.7" x2="277.2" y2="117.3"/>
<line x1="300.7" y1="149.6" x2="340.5" y2="145.4"/>
<line x1="340.5" y1="145.4" x2="356.8" y2="108.9"/>
<line x1="336.4" y1="137.0" x2="347.7" y2="111.5"/>
<text x="271.202696" y="186.786135" fill="rgb(12,12,255)"  stroke="rgb(12,12,255)" stroke-width="1" font-size="16" >NH</text>
<text x="120.016921" y="110.703511" fill="rgb(12,12,255)"  stroke="rgb(12,12,255)" stroke-width="1" font-size="16" >HN</text>
<text x="343.522503" y="48.320000" fill="rgb(255,12,12)"  stroke="rgb(255,12,12)" stroke-width="1" font-size="16" >OH</text>
<text x="50.804544" y="91.110007" fill="rgb(255,12,12)"  stroke="rgb(255,12,12)" stroke-width="1" font-size="16" >O</text>
<text x="24.400000" y="155.358060" fill="rgb(255,12,12)"  stroke="rgb(255,12,12)" stroke-width="1" font-size="16" >HO</text>
<text x="155.941470" y="166.309415" fill="rgb(178,178,0)"  stroke="rgb(178,178,0)" stroke-width="1" font-size="16" >S</text>
<text font-size="18.000000" fill ="black" font-family="sans-serif"
x="140.000000" y="20.000000" ></text>
<title> - OBDepict</title>
</svg>
