<?xml version="1.0"?>
<svg xmlns="http://www.w3.org/2000/svg"
xmlns:xlink="http://www.w3.org/1999/xlink" xmlns:cml="http://www.xml-cml.org/schema" width="590.611" height="492.294" x="0" y="0" font-family="sans-serif" stroke="rgb(0,0,0)" stroke-width="1" >
<line x1="358.0" y1="175.7" x2="334.4" y2="192.8"/>
<line x1="382.8" y1="207.6" x2="405.5" y2="226.0"/>
<line x1="117.5" y1="138.6" x2="117.5" y2="99.1"/>
<line x1="117.5" y1="138.6" x2="151.6" y2="158.3"/>
<line x1="117.5" y1="99.1" x2="83.3" y2="79.4"/>
<line x1="231.0" y1="341.0" x2="247.0" y2="305.0"/>
<line x1="231.0" y1="341.0" x2="254.2" y2="372.9"/>
<line x1="175.7" y1="381.2" x2="198.9" y2="413.1"/>
<line x1="175.7" y1="381.2" x2="146.7" y2="384.2"/>
<line x1="126.6" y1="251.6" x2="126.6" y2="291.0"/>
<line x1="126.6" y1="251.6" x2="101.4" y2="237.0"/>
<line x1="370.0" y1="324.1" x2="388.4" y2="301.4"/>
<line x1="372.8" y1="323.0" x2="383.3" y2="350.3"/>
<line x1="367.2" y1="325.2" x2="377.7" y2="352.4"/>
<polygon points="331.595868 166.568715 330.379124 193.259256 338.335299 192.423028 " />
<line x1="334.4" y1="192.8" x2="380.7" y2="256.6"/>
<line x1="334.4" y1="192.8" x2="305.3" y2="195.9"/>
<polygon points="409.654033 199.904252 401.570728 225.370418 409.472235 226.621894 " />
<line x1="279.1" y1="233.0" x2="291.0" y2="206.3"/>
<polygon points="275.543905 357.412497 251.820847 369.704036 256.523129 376.176172 " />
<line x1="254.2" y1="372.9" x2="238.1" y2="409.0"/>
<line x1="254.2" y1="372.9" x2="280.8" y2="384.8"/>
<polygon points="201.683709 439.353731 202.900453 412.663190 194.944278 413.499418 " />
<line x1="198.9" y1="413.1" x2="238.1" y2="409.0"/>
<line x1="198.9" y1="413.1" x2="175.3" y2="430.2"/>
<line x1="173.7" y1="170.6" x2="173.3" y2="171.2"/>
<line x1="170.5" y1="168.2" x2="169.7" y2="169.6"/>
<line x1="167.2" y1="165.9" x2="166.0" y2="168.0"/>
<line x1="164.0" y1="163.6" x2="162.4" y2="166.4"/>
<line x1="160.8" y1="161.3" x2="158.8" y2="164.7"/>
<line x1="157.6" y1="159.0" x2="155.2" y2="163.1"/>
<line x1="154.4" y1="156.6" x2="151.6" y2="161.5"/>
<line x1="151.6" y1="158.3" x2="171.3" y2="124.1"/>
<line x1="151.6" y1="158.3" x2="137.0" y2="183.6"/>
<line x1="148.3" y1="278.0" x2="148.7" y2="278.7"/>
<line x1="144.7" y1="279.7" x2="145.5" y2="281.1"/>
<line x1="141.0" y1="281.3" x2="142.2" y2="283.4"/>
<line x1="137.4" y1="282.9" x2="139.0" y2="285.7"/>
<line x1="133.8" y1="284.5" x2="135.8" y2="288.0"/>
<line x1="130.2" y1="286.2" x2="132.6" y2="290.3"/>
<line x1="126.6" y1="287.8" x2="129.4" y2="292.6"/>
<line x1="84.8" y1="82.0" x2="59.6" y2="96.6"/>
<line x1="81.8" y1="76.8" x2="56.6" y2="91.4"/>
<line x1="83.3" y1="79.4" x2="83.3" y2="50.3"/>
<line x1="380.7" y1="256.6" x2="365.5" y2="281.5"/>
<polygon points="262.268204 419.704716 239.761889 405.305714 236.507996 412.614078 " />
<line x1="238.1" y1="409.0" x2="241.2" y2="438.0"/>
<polygon points="81.917806 269.284830 83.497648 295.956342 91.322829 294.293049 " />
<line x1="87.4" y1="295.1" x2="59.7" y2="286.1"/>
<polygon points="52.940151 330.930315 78.794464 337.669745 79.630691 329.713570 " />
<line x1="79.2" y1="333.7" x2="62.1" y2="357.3"/>
<line x1="447.9" y1="336.4" x2="429.5" y2="359.1"/>
<line x1="168.7" y1="125.6" x2="154.1" y2="100.4"/>
<line x1="173.9" y1="122.6" x2="159.3" y2="97.4"/>
<line x1="171.3" y1="124.1" x2="200.5" y2="124.1"/>
<polygon points="102.613902 377.539204 117.012904 355.032890 109.704540 351.778997 " />
<line x1="113.4" y1="353.4" x2="130.5" y2="377.0"/>
<line x1="512.1" y1="309.0" x2="541.0" y2="313.6"/>
<line x1="511.2" y1="314.9" x2="540.0" y2="319.5"/>
<line x1="63.3" y1="192.4" x2="82.2" y2="192.4"/>
<line x1="95.5" y1="163.3" x2="95.5" y2="182.2"/>
<line x1="89.5" y1="163.3" x2="89.5" y2="182.2"/>
<line x1="92.5" y1="221.6" x2="92.5" y2="202.7"/>
<line x1="121.7" y1="192.4" x2="102.7" y2="192.4"/>
<line x1="79.2" y1="333.7" x2="113.4" y2="353.4"/>
<line x1="113.4" y1="353.4" x2="135.0" y2="333.9"/>
<line x1="138.5" y1="317.7" x2="126.6" y2="291.0"/>
<line x1="126.6" y1="291.0" x2="87.4" y2="295.1"/>
<line x1="87.4" y1="295.1" x2="79.2" y2="333.7"/>
<line x1="223.9" y1="273.1" x2="239.9" y2="237.1"/>
<line x1="239.9" y1="237.1" x2="279.1" y2="233.0"/>
<line x1="246.6" y1="243.6" x2="273.9" y2="240.8"/>
<line x1="279.1" y1="233.0" x2="302.3" y2="264.9"/>
<line x1="302.3" y1="264.9" x2="286.2" y2="300.9"/>
<line x1="293.3" y1="267.4" x2="282.1" y2="292.5"/>
<line x1="286.2" y1="300.9" x2="247.0" y2="305.0"/>
<line x1="247.0" y1="305.0" x2="223.9" y2="273.1"/>
<line x1="249.3" y1="295.9" x2="233.2" y2="273.7"/>
<line x1="405.5" y1="226.0" x2="380.7" y2="256.6"/>
<line x1="380.7" y1="256.6" x2="391.2" y2="283.9"/>
<line x1="405.0" y1="295.1" x2="433.8" y2="299.6"/>
<line x1="433.8" y1="299.6" x2="458.6" y2="269.0"/>
<line x1="432.0" y1="290.4" x2="449.2" y2="269.1"/>
<line x1="458.6" y1="269.0" x2="448.1" y2="241.7"/>
<line x1="434.3" y1="230.6" x2="405.5" y2="226.0"/>
<line x1="447.9" y1="336.4" x2="433.8" y2="299.6"/>
<line x1="458.6" y1="269.0" x2="487.4" y2="273.5"/>
<line x1="501.2" y1="284.7" x2="511.7" y2="312.0"/>
<line x1="511.7" y1="312.0" x2="493.3" y2="334.6"/>
<line x1="476.7" y1="341.0" x2="447.9" y2="336.4"/>
<line x1="475.8" y1="333.6" x2="455.0" y2="330.3"/>
<text x="360.255596" y="177.985610" fill="rgb(102,102,102)"  stroke="rgb(102,102,102)" stroke-width="1" font-size="16" >CH</text>
<text x="384.255596" y="185.665610" fill="rgb(102,102,102)"  stroke="rgb(102,102,102)" stroke-width="1" font-size="13" >3</text>
<text x="351.279726" y="209.502952" fill="rgb(102,102,102)"  stroke="rgb(102,102,102)" stroke-width="1" font-size="16" >H</text>
<text x="363.279726" y="217.182952" fill="rgb(102,102,102)"  stroke="rgb(102,102,102)" stroke-width="1" font-size="13" >3</text>
<text x="369.779726" y="209.502952" fill="rgb(102,102,102)"  stroke="rgb(102,102,102)" stroke-width="1" font-size="16" >C</text>
<text x="544.610775" y="322.919603" fill="rgb(12,12,255)"  stroke="rgb(12,12,255)" stroke-width="1" font-size="16" >NH</text>
<text x="279.544634" y="205.282550" fill="rgb(12,12,255)"  stroke="rgb(12,12,255)" stroke-width="1" font-size="16" >HN</text>
<text x="438.464621" y="240.484143" fill="rgb(12,12,255)"  stroke="rgb(12,12,255)" stroke-width="1" font-size="16" >NH</text>
<text x="491.537698" y="283.461873" fill="rgb(12,12,255)"  stroke="rgb(12,12,255)" stroke-width="1" font-size="16" >NH</text>
<text x="480.854430" y="347.393371" fill="rgb(12,12,255)"  stroke="rgb(12,12,255)" stroke-width="1" font-size="16" >N</text>
<text x="388.838213" y="298.247654" fill="rgb(12,12,255)"  stroke="rgb(12,12,255)" stroke-width="1" font-size="16" >N</text>
<text x="378.154946" y="365.699151" fill="rgb(255,12,12)"  stroke="rgb(255,12,12)" stroke-width="1" font-size="16" >O</text>
<text x="284.191780" y="393.777149" fill="rgb(255,12,12)"  stroke="rgb(255,12,12)" stroke-width="1" font-size="16" >OH</text>
<text x="151.423981" y="441.056837" fill="rgb(255,12,12)"  stroke="rgb(255,12,12)" stroke-width="1" font-size="16" >HO</text>
<text x="45.581095" y="103.942857" fill="rgb(255,12,12)"  stroke="rgb(255,12,12)" stroke-width="1" font-size="16" >O</text>
<text x="78.527240" y="33.600000" fill="rgb(255,12,12)"  stroke="rgb(255,12,12)" stroke-width="1" font-size="32" >-</text>
<text x="77.327240" y="48.320000" fill="rgb(255,12,12)"  stroke="rgb(255,12,12)" stroke-width="1" font-size="16" >O</text>
<text x="236.256351" y="452.972474" fill="rgb(255,12,12)"  stroke="rgb(255,12,12)" stroke-width="1" font-size="16" >OH</text>
<text x="34.311439" y="291.260597" fill="rgb(255,12,12)"  stroke="rgb(255,12,12)" stroke-width="1" font-size="16" >HO</text>
<text x="40.437045" y="370.390042" fill="rgb(255,12,12)"  stroke="rgb(255,12,12)" stroke-width="1" font-size="16" >HO</text>
<text x="418.298086" y="386.267139" fill="rgb(255,12,12)"  stroke="rgb(255,12,12)" stroke-width="1" font-size="32" >-</text>
<text x="419.498086" y="371.867139" fill="rgb(255,12,12)"  stroke="rgb(255,12,12)" stroke-width="1" font-size="16" >O</text>
<text x="148.019529" y="98.313425" fill="rgb(255,12,12)"  stroke="rgb(255,12,12)" stroke-width="1" font-size="16" >O</text>
<text x="205.962386" y="143.339570" fill="rgb(255,12,12)"  stroke="rgb(255,12,12)" stroke-width="1" font-size="32" >-</text>
<text x="204.762386" y="128.939570" fill="rgb(255,12,12)"  stroke="rgb(255,12,12)" stroke-width="1" font-size="16" >O</text>
<text x="37.448100" y="200.751859" fill="rgb(255,12,12)"  stroke="rgb(255,12,12)" stroke-width="1" font-size="16" >HO</text>
<text x="86.476672" y="161.323287" fill="rgb(255,12,12)"  stroke="rgb(255,12,12)" stroke-width="1" font-size="16" >O</text>
<text x="132.934255" y="390.104328" fill="rgb(255,12,12)"  stroke="rgb(255,12,12)" stroke-width="1" font-size="16" >O</text>
<text x="88.876672" y="236.660430" fill="rgb(255,12,12)"  stroke="rgb(255,12,12)" stroke-width="1" font-size="16" >O</text>
<text x="136.659861" y="331.823080" fill="rgb(255,12,12)"  stroke="rgb(255,12,12)" stroke-width="1" font-size="16" >O</text>
<text x="125.905243" y="197.231859" fill="rgb(255,12,12)"  stroke="rgb(255,12,12)" stroke-width="1" font-size="16" >O</text>
<text x="86.476672" y="197.231859" fill="rgb(255,127,0)"  stroke="rgb(255,127,0)" stroke-width="1" font-size="16" >P</text>
<text x="326.635804" y="161.948565" fill="rgb(191,191,191)"  stroke="rgb(191,191,191)" stroke-width="1" font-size="16" >H</text>
<text x="405.689469" y="195.373016" fill="rgb(191,191,191)"  stroke="rgb(191,191,191)" stroke-width="1" font-size="16" >H</text>
<text x="280.070372" y="358.084571" fill="rgb(191,191,191)"  stroke="rgb(191,191,191)" stroke-width="1" font-size="16" >H</text>
<text x="197.043773" y="457.093882" fill="rgb(191,191,191)"  stroke="rgb(191,191,191)" stroke-width="1" font-size="16" >H</text>
<text x="179.765673" y="182.800000" fill="rgb(191,191,191)"  stroke="rgb(191,191,191)" stroke-width="1" font-size="16" >H</text>
<text x="154.768961" y="279.609002" fill="rgb(191,191,191)"  stroke="rgb(191,191,191)" stroke-width="1" font-size="16" >H</text>
<text x="356.506905" y="295.056295" fill="rgb(191,191,191)"  stroke="rgb(191,191,191)" stroke-width="1" font-size="16" >H</text>
<text x="268.154735" y="429.796941" fill="rgb(191,191,191)"  stroke="rgb(191,191,191)" stroke-width="1" font-size="16" >H</text>
<text x="75.612578" y="264.877733" fill="rgb(191,191,191)"  stroke="rgb(191,191,191)" stroke-width="1" font-size="16" >H</text>
<text x="36.400000" y="337.890250" fill="rgb(191,191,191)"  stroke="rgb(191,191,191)" stroke-width="1" font-size="16" >H</text>
<text x="93.721677" y="394.225736" fill="rgb(191,191,191)"  stroke="rgb(191,191,191)" stroke-width="1" font-size="16" >H</text>
<text font-size="18.000000" fill ="black" font-family="sans-serif"
x="140.000000" y="20.000000" ></text>
<title> - OBDepict</title>
</svg>
