<?xml version="1.0"?>
<svg xmlns="http://www.w3.org/2000/svg"
xmlns:xlink="http://www.w3.org/1999/xlink" xmlns:cml="http://www.xml-cml.org/schema" width="249.282" height="223.923" x="0" y="0" font-family="sans-serif" stroke="rgb(0,0,0)" stroke-width="1" >
<line x1="160.0" y1="149.3" x2="140.0" y2="114.6"/>
<line x1="160.0" y1="149.3" x2="145.2" y2="174.9"/>
<line x1="118.0" y1="127.8" x2="117.6" y2="127.1"/>
<line x1="121.7" y1="126.1" x2="120.9" y2="124.7"/>
<line x1="125.4" y1="124.5" x2="124.2" y2="122.4"/>
<line x1="129.0" y1="122.8" x2="127.4" y2="120.1"/>
<line x1="132.7" y1="121.2" x2="130.7" y2="117.7"/>
<line x1="136.4" y1="119.5" x2="134.0" y2="115.4"/>
<line x1="140.0" y1="117.9" x2="137.2" y2="113.0"/>
<line x1="140.0" y1="114.6" x2="174.6" y2="94.6"/>
<line x1="140.0" y1="114.6" x2="125.2" y2="89.0"/>
<line x1="176.1" y1="92.0" x2="201.8" y2="106.8"/>
<line x1="173.1" y1="97.2" x2="198.8" y2="112.0"/>
<line x1="174.6" y1="94.6" x2="174.6" y2="65.0"/>
<line x1="80.0" y1="109.6" x2="80.0" y2="90.4"/>
<line x1="50.4" y1="80.0" x2="69.6" y2="80.0"/>
<line x1="83.0" y1="50.4" x2="83.0" y2="69.6"/>
<line x1="77.0" y1="50.4" x2="77.0" y2="69.6"/>
<line x1="109.6" y1="80.0" x2="90.4" y2="80.0"/>
<text x="124.400000" y="188.723048" fill="rgb(255,12,12)"  stroke="rgb(255,12,12)" stroke-width="1" font-size="16" >HO</text>
<text x="203.282032" y="119.441016" fill="rgb(255,12,12)"  stroke="rgb(255,12,12)" stroke-width="1" font-size="16" >O</text>
<text x="168.641016" y="62.961016" fill="rgb(255,12,12)"  stroke="rgb(255,12,12)" stroke-width="1" font-size="16" >OH</text>
<text x="74.000000" y="124.800000" fill="rgb(255,12,12)"  stroke="rgb(255,12,12)" stroke-width="1" font-size="16" >OH</text>
<text x="24.400000" y="84.800000" fill="rgb(255,12,12)"  stroke="rgb(255,12,12)" stroke-width="1" font-size="16" >HO</text>
<text x="74.000000" y="48.320000" fill="rgb(255,12,12)"  stroke="rgb(255,12,12)" stroke-width="1" font-size="16" >O</text>
<text x="114.000000" y="88.320000" fill="rgb(255,12,12)"  stroke="rgb(255,12,12)" stroke-width="1" font-size="16" >O</text>
<text x="74.000000" y="84.800000" fill="rgb(255,127,0)"  stroke="rgb(255,127,0)" stroke-width="1" font-size="16" >P</text>
<text x="101.758984" y="139.441016" fill="rgb(191,191,191)"  stroke="rgb(191,191,191)" stroke-width="1" font-size="16" >H</text>
<text font-size="18.000000" fill ="black" font-family="sans-serif"
x="140.000000" y="20.000000" ></text>
<title> - OBDepict</title>
</svg>
