<?xml version="1.0"?>
<svg xmlns="http://www.w3.org/2000/svg"
xmlns:xlink="http://www.w3.org/1999/xlink" xmlns:cml="http://www.xml-cml.org/schema" width="245.477" height="240" x="0" y="0" font-family="sans-serif" stroke="rgb(0,0,0)" stroke-width="1" >
<line x1="191.1" y1="59.5" x2="185.2" y2="77.7"/>
<line x1="109.3" y1="189.6" x2="109.3" y2="170.4"/>
<line x1="49.0" y1="85.2" x2="65.6" y2="94.8"/>
<line x1="106.3" y1="80.0" x2="106.3" y2="50.4"/>
<line x1="112.3" y1="80.0" x2="112.3" y2="50.4"/>
<line x1="76.1" y1="142.6" x2="50.5" y2="157.4"/>
<line x1="73.1" y1="137.4" x2="47.5" y2="152.2"/>
<line x1="205.5" y1="120.0" x2="188.1" y2="96.1"/>
<line x1="172.1" y1="90.9" x2="143.9" y2="100.0"/>
<line x1="143.9" y1="100.0" x2="143.9" y2="140.0"/>
<line x1="151.1" y1="106.0" x2="151.1" y2="134.0"/>
<line x1="143.9" y1="140.0" x2="172.1" y2="149.1"/>
<line x1="188.1" y1="143.9" x2="205.5" y2="120.0"/>
<line x1="183.4" y1="138.1" x2="196.1" y2="120.6"/>
<line x1="74.6" y1="140.0" x2="100.3" y2="154.8"/>
<line x1="118.3" y1="154.8" x2="143.9" y2="140.0"/>
<line x1="143.9" y1="100.0" x2="109.3" y2="80.0"/>
<line x1="109.3" y1="80.0" x2="83.6" y2="94.8"/>
<line x1="74.6" y1="110.4" x2="74.6" y2="140.0"/>
<text x="188.325989" y="57.917060" fill="rgb(102,102,102)"  stroke="rgb(102,102,102)" stroke-width="1" font-size="16" >CH</text>
<text x="212.325989" y="65.597060" fill="rgb(102,102,102)"  stroke="rgb(102,102,102)" stroke-width="1" font-size="13" >3</text>
<text x="103.282032" y="204.800000" fill="rgb(102,102,102)"  stroke="rgb(102,102,102)" stroke-width="1" font-size="16" >CH</text>
<text x="127.282032" y="209.600000" fill="rgb(102,102,102)"  stroke="rgb(102,102,102)" stroke-width="1" font-size="13" >3</text>
<text x="16.400000" y="88.320000" fill="rgb(102,102,102)"  stroke="rgb(102,102,102)" stroke-width="1" font-size="16" >H</text>
<text x="28.400000" y="96.000000" fill="rgb(102,102,102)"  stroke="rgb(102,102,102)" stroke-width="1" font-size="13" >3</text>
<text x="34.900000" y="88.320000" fill="rgb(102,102,102)"  stroke="rgb(102,102,102)" stroke-width="1" font-size="16" >C</text>
<text x="175.965309" y="157.160680" fill="rgb(12,12,255)"  stroke="rgb(12,12,255)" stroke-width="1" font-size="16" >N</text>
<text x="175.965309" y="95.959320" fill="rgb(12,12,255)"  stroke="rgb(12,12,255)" stroke-width="1" font-size="16" >N</text>
<text x="103.282032" y="168.320000" fill="rgb(12,12,255)"  stroke="rgb(12,12,255)" stroke-width="1" font-size="16" >N</text>
<text x="68.641016" y="104.800000" fill="rgb(12,12,255)"  stroke="rgb(12,12,255)" stroke-width="1" font-size="16" >N</text>
<text x="103.282032" y="48.320000" fill="rgb(255,12,12)"  stroke="rgb(255,12,12)" stroke-width="1" font-size="16" >O</text>
<text x="36.400000" y="164.800000" fill="rgb(255,12,12)"  stroke="rgb(255,12,12)" stroke-width="1" font-size="16" >O</text>
<text font-size="18.000000" fill ="black" font-family="sans-serif"
x="140.000000" y="20.000000" ></text>
<title> - OBDepict</title>
</svg>
