<?xml version="1.0"?>
<svg xmlns="http://www.w3.org/2000/svg"
xmlns:xlink="http://www.w3.org/1999/xlink" xmlns:cml="http://www.xml-cml.org/schema" width="289.746" height="250.456" x="0" y="0" font-family="sans-serif" stroke="rgb(0,0,0)" stroke-width="1" >
<line x1="239.4" y1="120.4" x2="210.0" y2="117.3"/>
<line x1="49.9" y1="156.1" x2="78.0" y2="146.9"/>
<line x1="210.0" y1="117.3" x2="193.7" y2="80.7"/>
<line x1="193.7" y1="80.7" x2="153.9" y2="76.5"/>
<line x1="153.9" y1="76.5" x2="141.9" y2="49.5"/>
<line x1="156.3" y1="78.3" x2="132.8" y2="110.7"/>
<line x1="151.5" y1="74.8" x2="128.0" y2="107.1"/>
<line x1="110.4" y1="170.5" x2="110.4" y2="200.1"/>
<line x1="143.7" y1="144.1" x2="171.8" y2="153.2"/>
<line x1="141.8" y1="149.8" x2="170.0" y2="158.9"/>
<line x1="130.4" y1="108.9" x2="100.8" y2="108.9"/>
<line x1="87.2" y1="118.8" x2="78.0" y2="146.9"/>
<line x1="78.0" y1="146.9" x2="110.4" y2="170.5"/>
<line x1="87.1" y1="144.6" x2="109.8" y2="161.1"/>
<line x1="110.4" y1="170.5" x2="142.8" y2="146.9"/>
<line x1="142.8" y1="146.9" x2="130.4" y2="108.9"/>
<text x="243.745568" y="126.245914" fill="rgb(102,102,102)"  stroke="rgb(102,102,102)" stroke-width="1" font-size="16" >CH</text>
<text x="267.745568" y="131.045914" fill="rgb(102,102,102)"  stroke="rgb(102,102,102)" stroke-width="1" font-size="13" >3</text>
<text x="16.400000" y="164.105439" fill="rgb(102,102,102)"  stroke="rgb(102,102,102)" stroke-width="1" font-size="16" >H</text>
<text x="28.400000" y="168.905439" fill="rgb(102,102,102)"  stroke="rgb(102,102,102)" stroke-width="1" font-size="13" >3</text>
<text x="34.900000" y="164.105439" fill="rgb(102,102,102)"  stroke="rgb(102,102,102)" stroke-width="1" font-size="16" >C</text>
<text x="105.602940" y="229.656169" fill="rgb(255,12,12)"  stroke="rgb(255,12,12)" stroke-width="1" font-size="32" >-</text>
<text x="104.402940" y="215.256169" fill="rgb(255,12,12)"  stroke="rgb(255,12,12)" stroke-width="1" font-size="16" >O</text>
<text x="174.805881" y="164.105439" fill="rgb(255,12,12)"  stroke="rgb(255,12,12)" stroke-width="1" font-size="16" >O</text>
<text x="86.802940" y="117.222498" fill="rgb(255,12,12)"  stroke="rgb(255,12,12)" stroke-width="1" font-size="16" >O</text>
<text x="134.044885" y="48.320000" fill="rgb(191,191,191)"  stroke="rgb(191,191,191)" stroke-width="1" font-size="16" >H</text>
<text font-size="18.000000" fill ="black" font-family="sans-serif"
x="140.000000" y="20.000000" ></text>
<title> - OBDepict</title>
</svg>
