<?xml version="1.0"?>
<svg xmlns="http://www.w3.org/2000/svg"
xmlns:xlink="http://www.w3.org/1999/xlink" xmlns:cml="http://www.xml-cml.org/schema" width="397.128" height="360" x="0" y="0" font-family="sans-serif" stroke="rgb(0,0,0)" stroke-width="1" >
<line x1="54.4" y1="205.2" x2="80.0" y2="220.0"/>
<line x1="80.0" y1="220.0" x2="80.0" y2="260.0"/>
<line x1="322.5" y1="160.0" x2="348.1" y2="145.2"/>
<line x1="321.0" y1="162.6" x2="286.3" y2="142.6"/>
<line x1="324.0" y1="157.4" x2="289.3" y2="137.4"/>
<line x1="322.5" y1="160.0" x2="322.5" y2="200.0"/>
<line x1="287.8" y1="140.0" x2="262.2" y2="154.8"/>
<line x1="287.8" y1="140.0" x2="287.8" y2="100.0"/>
<line x1="183.9" y1="280.0" x2="183.9" y2="309.6"/>
<line x1="183.9" y1="280.0" x2="149.3" y2="260.0"/>
<line x1="182.4" y1="277.4" x2="217.1" y2="257.4"/>
<line x1="185.4" y1="282.6" x2="220.1" y2="262.6"/>
<line x1="322.5" y1="200.0" x2="348.1" y2="214.8"/>
<line x1="324.0" y1="202.6" x2="289.3" y2="222.6"/>
<line x1="321.0" y1="197.4" x2="286.3" y2="217.4"/>
<line x1="287.8" y1="100.0" x2="313.5" y2="85.2"/>
<line x1="286.3" y1="102.6" x2="251.7" y2="82.6"/>
<line x1="289.3" y1="97.4" x2="254.7" y2="77.4"/>
<line x1="149.3" y1="260.0" x2="149.3" y2="230.4"/>
<line x1="150.8" y1="262.6" x2="116.1" y2="282.6"/>
<line x1="147.8" y1="257.4" x2="113.1" y2="277.4"/>
<line x1="218.6" y1="260.0" x2="218.6" y2="230.4"/>
<line x1="218.6" y1="260.0" x2="253.2" y2="280.0"/>
<line x1="183.9" y1="160.0" x2="218.6" y2="140.0"/>
<line x1="183.9" y1="160.0" x2="149.3" y2="140.0"/>
<line x1="114.6" y1="280.0" x2="114.6" y2="309.6"/>
<line x1="114.6" y1="280.0" x2="80.0" y2="260.0"/>
<line x1="287.8" y1="220.0" x2="262.2" y2="205.2"/>
<line x1="287.8" y1="220.0" x2="287.8" y2="260.0"/>
<line x1="253.2" y1="80.0" x2="253.2" y2="50.4"/>
<line x1="253.2" y1="80.0" x2="218.6" y2="100.0"/>
<line x1="253.2" y1="280.0" x2="287.8" y2="260.0"/>
<line x1="218.6" y1="140.0" x2="218.6" y2="100.0"/>
<line x1="149.3" y1="140.0" x2="114.6" y2="160.0"/>
<polygon points="66.600000 283.209481 83.464102 262.000000 76.535898 258.000000 " />
<line x1="80.0" y1="260.0" x2="50.4" y2="260.0"/>
<polygon points="314.646097 260.000000 287.846097 256.000000 287.846097 264.000000 " />
<line x1="287.8" y1="260.0" x2="302.6" y2="285.6"/>
<polygon points="191.764065 100.000000 218.564065 104.000000 218.564065 96.000000 " />
<line x1="218.6" y1="100.0" x2="203.8" y2="74.4"/>
<line x1="117.6" y1="160.0" x2="117.6" y2="189.6"/>
<line x1="111.6" y1="160.0" x2="111.6" y2="189.6"/>
<line x1="114.6" y1="160.0" x2="89.0" y2="145.2"/>
<text x="21.758984" y="208.320000" fill="rgb(102,102,102)"  stroke="rgb(102,102,102)" stroke-width="1" font-size="16" >H</text>
<text x="33.758984" y="216.000000" fill="rgb(102,102,102)"  stroke="rgb(102,102,102)" stroke-width="1" font-size="13" >3</text>
<text x="40.258984" y="208.320000" fill="rgb(102,102,102)"  stroke="rgb(102,102,102)" stroke-width="1" font-size="16" >C</text>
<text x="24.400000" y="268.320000" fill="rgb(255,12,12)"  stroke="rgb(255,12,12)" stroke-width="1" font-size="16" >HO</text>
<text x="301.846097" y="299.441016" fill="rgb(255,12,12)"  stroke="rgb(255,12,12)" stroke-width="1" font-size="16" >OH</text>
<text x="182.964065" y="73.678984" fill="rgb(255,12,12)"  stroke="rgb(255,12,12)" stroke-width="1" font-size="16" >HO</text>
<text x="108.641016" y="204.800000" fill="rgb(255,12,12)"  stroke="rgb(255,12,12)" stroke-width="1" font-size="16" >O</text>
<text x="64.400000" y="148.320000" fill="rgb(255,12,12)"  stroke="rgb(255,12,12)" stroke-width="1" font-size="16" >HO</text>
<text x="351.128129" y="148.320000" fill="rgb(191,191,191)"  stroke="rgb(191,191,191)" stroke-width="1" font-size="16" >H</text>
<text x="249.605081" y="164.800000" fill="rgb(191,191,191)"  stroke="rgb(191,191,191)" stroke-width="1" font-size="16" >H</text>
<text x="177.923048" y="324.800000" fill="rgb(191,191,191)"  stroke="rgb(191,191,191)" stroke-width="1" font-size="16" >H</text>
<text x="351.128129" y="224.800000" fill="rgb(191,191,191)"  stroke="rgb(191,191,191)" stroke-width="1" font-size="16" >H</text>
<text x="316.487113" y="88.320000" fill="rgb(191,191,191)"  stroke="rgb(191,191,191)" stroke-width="1" font-size="16" >H</text>
<text x="143.282032" y="228.320000" fill="rgb(191,191,191)"  stroke="rgb(191,191,191)" stroke-width="1" font-size="16" >H</text>
<text x="212.564065" y="228.320000" fill="rgb(191,191,191)"  stroke="rgb(191,191,191)" stroke-width="1" font-size="16" >H</text>
<text x="108.641016" y="324.800000" fill="rgb(191,191,191)"  stroke="rgb(191,191,191)" stroke-width="1" font-size="16" >H</text>
<text x="249.605081" y="208.320000" fill="rgb(191,191,191)"  stroke="rgb(191,191,191)" stroke-width="1" font-size="16" >H</text>
<text x="247.205081" y="48.320000" fill="rgb(191,191,191)"  stroke="rgb(191,191,191)" stroke-width="1" font-size="16" >H</text>
<text x="56.400000" y="299.441016" fill="rgb(191,191,191)"  stroke="rgb(191,191,191)" stroke-width="1" font-size="16" >H</text>
<text x="321.846097" y="264.800000" fill="rgb(191,191,191)"  stroke="rgb(191,191,191)" stroke-width="1" font-size="16" >H</text>
<text x="174.964065" y="108.320000" fill="rgb(191,191,191)"  stroke="rgb(191,191,191)" stroke-width="1" font-size="16" >H</text>
<text font-size="18.000000" fill ="black" font-family="sans-serif"
x="140.000000" y="20.000000" ></text>
<title> - OBDepict</title>
</svg>
