<?xml version="1.0"?>
<svg xmlns="http://www.w3.org/2000/svg"
xmlns:xlink="http://www.w3.org/1999/xlink" xmlns:cml="http://www.xml-cml.org/schema" width="349.282" height="338.564" x="0" y="0" font-family="sans-serif" stroke="rgb(0,0,0)" stroke-width="1" >
<line x1="127.5" y1="226.3" x2="126.9" y2="225.9"/>
<line x1="129.9" y1="223.0" x2="128.5" y2="222.2"/>
<line x1="132.2" y1="219.8" x2="130.2" y2="218.6"/>
<line x1="134.6" y1="216.5" x2="131.8" y2="214.9"/>
<line x1="136.9" y1="213.2" x2="133.5" y2="211.2"/>
<line x1="139.3" y1="210.0" x2="135.1" y2="207.6"/>
<line x1="141.6" y1="206.7" x2="136.8" y2="203.9"/>
<line x1="140.0" y1="203.9" x2="110.4" y2="203.9"/>
<line x1="114.4" y1="164.3" x2="114.4" y2="163.5"/>
<line x1="118.4" y1="164.7" x2="118.4" y2="163.1"/>
<line x1="122.4" y1="165.1" x2="122.4" y2="162.7"/>
<line x1="126.4" y1="165.5" x2="126.4" y2="162.3"/>
<line x1="130.4" y1="165.9" x2="130.4" y2="161.9"/>
<line x1="134.4" y1="166.3" x2="134.4" y2="161.5"/>
<line x1="138.4" y1="166.7" x2="138.4" y2="161.1"/>
<line x1="140.0" y1="163.9" x2="125.2" y2="138.3"/>
<line x1="187.8" y1="245.9" x2="187.1" y2="246.3"/>
<line x1="186.1" y1="242.2" x2="184.7" y2="243.0"/>
<line x1="184.5" y1="238.6" x2="182.4" y2="239.8"/>
<line x1="182.8" y1="234.9" x2="180.1" y2="236.5"/>
<line x1="181.2" y1="231.2" x2="177.7" y2="233.2"/>
<line x1="179.5" y1="227.6" x2="175.4" y2="230.0"/>
<line x1="177.9" y1="223.9" x2="173.0" y2="226.7"/>
<line x1="174.6" y1="223.9" x2="159.8" y2="249.6"/>
<polygon points="161.241016 120.713568 171.176915 145.923048 178.105118 141.923048 " />
<line x1="174.6" y1="143.9" x2="189.4" y2="118.3"/>
<polygon points="236.082032 203.923048 209.282032 199.923048 209.282032 207.923048 " />
<line x1="209.3" y1="203.9" x2="224.1" y2="229.6"/>
<line x1="221.7" y1="141.6" x2="222.4" y2="142.0"/>
<line x1="219.4" y1="144.8" x2="220.8" y2="145.6"/>
<line x1="217.0" y1="148.1" x2="219.1" y2="149.3"/>
<line x1="214.7" y1="151.3" x2="217.5" y2="152.9"/>
<line x1="212.3" y1="154.6" x2="215.8" y2="156.6"/>
<line x1="210.0" y1="157.9" x2="214.2" y2="160.3"/>
<line x1="207.7" y1="161.1" x2="212.5" y2="163.9"/>
<line x1="209.3" y1="163.9" x2="238.9" y2="163.9"/>
<line x1="80.0" y1="158.9" x2="80.0" y2="139.7"/>
<line x1="50.4" y1="129.3" x2="69.6" y2="129.3"/>
<line x1="83.0" y1="99.7" x2="83.0" y2="118.9"/>
<line x1="77.0" y1="99.7" x2="77.0" y2="118.9"/>
<line x1="114.6" y1="229.0" x2="114.6" y2="248.2"/>
<line x1="85.0" y1="258.6" x2="104.2" y2="258.6"/>
<line x1="111.6" y1="288.2" x2="111.6" y2="269.0"/>
<line x1="117.6" y1="288.2" x2="117.6" y2="269.0"/>
<line x1="149.0" y1="89.4" x2="165.6" y2="79.8"/>
<line x1="159.8" y1="49.0" x2="169.4" y2="65.6"/>
<line x1="201.8" y1="62.4" x2="185.1" y2="72.0"/>
<line x1="198.8" y1="57.2" x2="182.1" y2="66.8"/>
<line x1="269.3" y1="268.2" x2="269.3" y2="249.0"/>
<line x1="298.9" y1="238.6" x2="279.7" y2="238.6"/>
<line x1="272.3" y1="209.0" x2="272.3" y2="228.2"/>
<line x1="266.3" y1="209.0" x2="266.3" y2="228.2"/>
<line x1="294.9" y1="144.1" x2="278.3" y2="134.5"/>
<line x1="284.1" y1="103.6" x2="274.5" y2="120.3"/>
<line x1="245.1" y1="111.9" x2="261.8" y2="121.5"/>
<line x1="242.1" y1="117.1" x2="258.8" y2="126.7"/>
<line x1="109.6" y1="129.3" x2="90.4" y2="129.3"/>
<line x1="144.2" y1="258.6" x2="125.0" y2="258.6"/>
<line x1="189.4" y1="100.3" x2="179.8" y2="83.6"/>
<line x1="239.7" y1="238.6" x2="258.9" y2="238.6"/>
<line x1="254.5" y1="154.9" x2="264.1" y2="138.3"/>
<line x1="140.0" y1="203.9" x2="174.6" y2="223.9"/>
<line x1="174.6" y1="223.9" x2="209.3" y2="203.9"/>
<line x1="209.3" y1="203.9" x2="209.3" y2="163.9"/>
<line x1="209.3" y1="163.9" x2="174.6" y2="143.9"/>
<line x1="174.6" y1="143.9" x2="140.0" y2="163.9"/>
<line x1="140.0" y1="163.9" x2="140.0" y2="203.9"/>
<text x="84.400000" y="208.723048" fill="rgb(255,12,12)"  stroke="rgb(255,12,12)" stroke-width="1" font-size="16" >HO</text>
<text x="74.000000" y="174.082032" fill="rgb(255,12,12)"  stroke="rgb(255,12,12)" stroke-width="1" font-size="16" >OH</text>
<text x="24.400000" y="134.082032" fill="rgb(255,12,12)"  stroke="rgb(255,12,12)" stroke-width="1" font-size="16" >HO</text>
<text x="74.000000" y="97.602032" fill="rgb(255,12,12)"  stroke="rgb(255,12,12)" stroke-width="1" font-size="16" >O</text>
<text x="108.641016" y="226.884065" fill="rgb(255,12,12)"  stroke="rgb(255,12,12)" stroke-width="1" font-size="16" >OH</text>
<text x="59.041016" y="263.364065" fill="rgb(255,12,12)"  stroke="rgb(255,12,12)" stroke-width="1" font-size="16" >HO</text>
<text x="108.641016" y="303.364065" fill="rgb(255,12,12)"  stroke="rgb(255,12,12)" stroke-width="1" font-size="16" >O</text>
<text x="124.400000" y="99.441016" fill="rgb(255,12,12)"  stroke="rgb(255,12,12)" stroke-width="1" font-size="16" >HO</text>
<text x="139.041016" y="48.320000" fill="rgb(255,12,12)"  stroke="rgb(255,12,12)" stroke-width="1" font-size="16" >HO</text>
<text x="203.282032" y="62.961016" fill="rgb(255,12,12)"  stroke="rgb(255,12,12)" stroke-width="1" font-size="16" >O</text>
<text x="263.282032" y="283.364065" fill="rgb(255,12,12)"  stroke="rgb(255,12,12)" stroke-width="1" font-size="16" >OH</text>
<text x="303.282032" y="246.884065" fill="rgb(255,12,12)"  stroke="rgb(255,12,12)" stroke-width="1" font-size="16" >OH</text>
<text x="263.282032" y="206.884065" fill="rgb(255,12,12)"  stroke="rgb(255,12,12)" stroke-width="1" font-size="16" >O</text>
<text x="297.923048" y="154.082032" fill="rgb(255,12,12)"  stroke="rgb(255,12,12)" stroke-width="1" font-size="16" >OH</text>
<text x="283.282032" y="102.961016" fill="rgb(255,12,12)"  stroke="rgb(255,12,12)" stroke-width="1" font-size="16" >OH</text>
<text x="231.041016" y="117.602032" fill="rgb(255,12,12)"  stroke="rgb(255,12,12)" stroke-width="1" font-size="16" >O</text>
<text x="114.000000" y="137.602032" fill="rgb(255,12,12)"  stroke="rgb(255,12,12)" stroke-width="1" font-size="16" >O</text>
<text x="148.641016" y="263.364065" fill="rgb(255,12,12)"  stroke="rgb(255,12,12)" stroke-width="1" font-size="16" >O</text>
<text x="188.641016" y="117.602032" fill="rgb(255,12,12)"  stroke="rgb(255,12,12)" stroke-width="1" font-size="16" >O</text>
<text x="225.682032" y="243.364065" fill="rgb(255,12,12)"  stroke="rgb(255,12,12)" stroke-width="1" font-size="16" >O</text>
<text x="243.282032" y="168.723048" fill="rgb(255,12,12)"  stroke="rgb(255,12,12)" stroke-width="1" font-size="16" >O</text>
<text x="74.000000" y="134.082032" fill="rgb(255,127,0)"  stroke="rgb(255,127,0)" stroke-width="1" font-size="16" >P</text>
<text x="108.641016" y="266.884065" fill="rgb(255,127,0)"  stroke="rgb(255,127,0)" stroke-width="1" font-size="16" >P</text>
<text x="168.641016" y="79.441016" fill="rgb(255,127,0)"  stroke="rgb(255,127,0)" stroke-width="1" font-size="16" >P</text>
<text x="263.282032" y="246.884065" fill="rgb(255,127,0)"  stroke="rgb(255,127,0)" stroke-width="1" font-size="16" >P</text>
<text x="263.282032" y="134.082032" fill="rgb(255,127,0)"  stroke="rgb(255,127,0)" stroke-width="1" font-size="16" >P</text>
<text x="116.400000" y="243.364065" fill="rgb(191,191,191)"  stroke="rgb(191,191,191)" stroke-width="1" font-size="16" >H</text>
<text x="96.400000" y="168.723048" fill="rgb(191,191,191)"  stroke="rgb(191,191,191)" stroke-width="1" font-size="16" >H</text>
<text x="188.641016" y="263.364065" fill="rgb(191,191,191)"  stroke="rgb(191,191,191)" stroke-width="1" font-size="16" >H</text>
<text x="151.041016" y="117.602032" fill="rgb(191,191,191)"  stroke="rgb(191,191,191)" stroke-width="1" font-size="16" >H</text>
<text x="243.282032" y="212.243048" fill="rgb(191,191,191)"  stroke="rgb(191,191,191)" stroke-width="1" font-size="16" >H</text>
<text x="223.282032" y="137.602032" fill="rgb(191,191,191)"  stroke="rgb(191,191,191)" stroke-width="1" font-size="16" >H</text>
<text font-size="18.000000" fill ="black" font-family="sans-serif"
x="140.000000" y="20.000000" ></text>
<title> - OBDepict</title>
</svg>
