<?xml version="1.0"?>
<svg xmlns="http://www.w3.org/2000/svg"
xmlns:xlink="http://www.w3.org/1999/xlink" xmlns:cml="http://www.xml-cml.org/schema" width="397.128" height="360" x="0" y="0" font-family="sans-serif" stroke="rgb(0,0,0)" stroke-width="1" >
<line x1="178.6" y1="50.4" x2="178.6" y2="80.0"/>
<line x1="238.8" y1="85.2" x2="213.2" y2="100.0"/>
<line x1="213.2" y1="220.0" x2="213.2" y2="260.0"/>
<line x1="213.2" y1="220.0" x2="187.6" y2="205.2"/>
<line x1="282.5" y1="220.0" x2="282.5" y2="260.0"/>
<line x1="282.5" y1="220.0" x2="308.1" y2="205.2"/>
<line x1="200.8" y1="282.4" x2="200.1" y2="282.0"/>
<line x1="203.1" y1="279.1" x2="201.7" y2="278.3"/>
<line x1="205.4" y1="275.8" x2="203.4" y2="274.6"/>
<line x1="207.8" y1="272.6" x2="205.0" y2="271.0"/>
<line x1="210.1" y1="269.3" x2="206.7" y2="267.3"/>
<line x1="212.5" y1="266.0" x2="208.3" y2="263.6"/>
<line x1="214.8" y1="262.8" x2="210.0" y2="260.0"/>
<line x1="213.2" y1="260.0" x2="247.8" y2="280.0"/>
<line x1="213.2" y1="260.0" x2="183.6" y2="260.0"/>
<line x1="308.1" y1="259.6" x2="308.1" y2="260.4"/>
<line x1="304.1" y1="259.2" x2="304.1" y2="260.8"/>
<line x1="300.1" y1="258.8" x2="300.1" y2="261.2"/>
<line x1="296.1" y1="258.4" x2="296.1" y2="261.6"/>
<line x1="292.1" y1="258.0" x2="292.1" y2="262.0"/>
<line x1="288.1" y1="257.6" x2="288.1" y2="262.4"/>
<line x1="284.1" y1="257.2" x2="284.1" y2="262.8"/>
<line x1="282.5" y1="260.0" x2="247.8" y2="280.0"/>
<line x1="282.5" y1="260.0" x2="297.3" y2="285.6"/>
<line x1="261.0" y1="302.0" x2="260.3" y2="302.4"/>
<line x1="259.3" y1="298.3" x2="258.0" y2="299.1"/>
<line x1="257.7" y1="294.6" x2="255.6" y2="295.8"/>
<line x1="256.0" y1="291.0" x2="253.3" y2="292.6"/>
<line x1="254.4" y1="287.3" x2="250.9" y2="289.3"/>
<line x1="252.7" y1="283.6" x2="248.6" y2="286.0"/>
<line x1="251.1" y1="280.0" x2="246.2" y2="282.8"/>
<line x1="247.8" y1="280.0" x2="233.0" y2="305.6"/>
<line x1="74.6" y1="220.0" x2="49.0" y2="205.2"/>
<line x1="109.3" y1="280.0" x2="109.3" y2="309.6"/>
<line x1="346.7" y1="160.0" x2="327.5" y2="160.0"/>
<line x1="317.1" y1="130.4" x2="317.1" y2="149.6"/>
<line x1="287.5" y1="157.0" x2="306.7" y2="157.0"/>
<line x1="287.5" y1="163.0" x2="306.7" y2="163.0"/>
<line x1="317.1" y1="189.6" x2="317.1" y2="170.4"/>
<line x1="143.9" y1="100.0" x2="178.6" y2="80.0"/>
<line x1="152.7" y1="103.2" x2="177.0" y2="89.2"/>
<line x1="178.6" y1="80.0" x2="213.2" y2="100.0"/>
<line x1="213.2" y1="100.0" x2="213.2" y2="140.0"/>
<line x1="206.0" y1="106.0" x2="206.0" y2="134.0"/>
<line x1="213.2" y1="140.0" x2="178.6" y2="160.0"/>
<line x1="178.6" y1="160.0" x2="143.9" y2="140.0"/>
<line x1="177.0" y1="150.8" x2="152.7" y2="136.8"/>
<line x1="143.9" y1="140.0" x2="143.9" y2="100.0"/>
<line x1="109.3" y1="200.0" x2="109.3" y2="170.4"/>
<line x1="118.3" y1="154.8" x2="143.9" y2="140.0"/>
<line x1="178.6" y1="160.0" x2="178.6" y2="189.6"/>
<line x1="169.6" y1="205.2" x2="143.9" y2="220.0"/>
<line x1="143.9" y1="220.0" x2="109.3" y2="200.0"/>
<line x1="142.3" y1="210.8" x2="118.1" y2="196.8"/>
<line x1="74.6" y1="220.0" x2="109.3" y2="200.0"/>
<line x1="143.9" y1="220.0" x2="143.9" y2="249.6"/>
<line x1="134.9" y1="265.2" x2="109.3" y2="280.0"/>
<line x1="129.6" y1="260.0" x2="110.9" y2="270.8"/>
<line x1="109.3" y1="280.0" x2="83.6" y2="265.2"/>
<line x1="74.6" y1="249.6" x2="74.6" y2="220.0"/>
<line x1="81.8" y1="247.6" x2="81.8" y2="226.0"/>
<text x="172.564065" y="48.320000" fill="rgb(102,102,102)"  stroke="rgb(102,102,102)" stroke-width="1" font-size="16" >CH</text>
<text x="196.564065" y="56.000000" fill="rgb(102,102,102)"  stroke="rgb(102,102,102)" stroke-width="1" font-size="13" >3</text>
<text x="241.846097" y="88.320000" fill="rgb(102,102,102)"  stroke="rgb(102,102,102)" stroke-width="1" font-size="16" >CH</text>
<text x="265.846097" y="96.000000" fill="rgb(102,102,102)"  stroke="rgb(102,102,102)" stroke-width="1" font-size="13" >3</text>
<text x="93.682032" y="168.320000" fill="rgb(12,12,255)"  stroke="rgb(12,12,255)" stroke-width="1" font-size="16" >HN</text>
<text x="137.923048" y="264.800000" fill="rgb(12,12,255)"  stroke="rgb(12,12,255)" stroke-width="1" font-size="16" >N</text>
<text x="71.041016" y="264.800000" fill="rgb(12,12,255)"  stroke="rgb(12,12,255)" stroke-width="1" font-size="16" >N</text>
<text x="172.564065" y="204.800000" fill="rgb(12,12,255)"  stroke="rgb(12,12,255)" stroke-width="1" font-size="16" >N</text>
<text x="157.605081" y="264.800000" fill="rgb(255,12,12)"  stroke="rgb(255,12,12)" stroke-width="1" font-size="16" >HO</text>
<text x="296.487113" y="299.441016" fill="rgb(255,12,12)"  stroke="rgb(255,12,12)" stroke-width="1" font-size="16" >OH</text>
<text x="212.246097" y="319.441016" fill="rgb(255,12,12)"  stroke="rgb(255,12,12)" stroke-width="1" font-size="16" >HO</text>
<text x="35.200000" y="193.600000" fill="rgb(255,12,12)"  stroke="rgb(255,12,12)" stroke-width="1" font-size="32" >-</text>
<text x="36.400000" y="208.320000" fill="rgb(255,12,12)"  stroke="rgb(255,12,12)" stroke-width="1" font-size="16" >O</text>
<text x="104.482032" y="339.200000" fill="rgb(255,12,12)"  stroke="rgb(255,12,12)" stroke-width="1" font-size="32" >-</text>
<text x="103.282032" y="324.800000" fill="rgb(255,12,12)"  stroke="rgb(255,12,12)" stroke-width="1" font-size="16" >O</text>
<text x="351.128129" y="168.320000" fill="rgb(255,12,12)"  stroke="rgb(255,12,12)" stroke-width="1" font-size="16" >OH</text>
<text x="311.128129" y="128.320000" fill="rgb(255,12,12)"  stroke="rgb(255,12,12)" stroke-width="1" font-size="16" >OH</text>
<text x="273.528129" y="164.800000" fill="rgb(255,12,12)"  stroke="rgb(255,12,12)" stroke-width="1" font-size="16" >O</text>
<text x="311.128129" y="204.800000" fill="rgb(255,12,12)"  stroke="rgb(255,12,12)" stroke-width="1" font-size="16" >O</text>
<text x="311.128129" y="164.800000" fill="rgb(255,127,0)"  stroke="rgb(255,127,0)" stroke-width="1" font-size="16" >P</text>
<text x="189.605081" y="299.441016" fill="rgb(191,191,191)"  stroke="rgb(191,191,191)" stroke-width="1" font-size="16" >H</text>
<text x="316.487113" y="264.800000" fill="rgb(191,191,191)"  stroke="rgb(191,191,191)" stroke-width="1" font-size="16" >H</text>
<text x="261.846097" y="319.441016" fill="rgb(191,191,191)"  stroke="rgb(191,191,191)" stroke-width="1" font-size="16" >H</text>
<text font-size="18.000000" fill ="black" font-family="sans-serif"
x="140.000000" y="20.000000" ></text>
<title> - OBDepict</title>
</svg>
