<?xml version="1.0"?>
<svg xmlns="http://www.w3.org/2000/svg"
xmlns:xlink="http://www.w3.org/1999/xlink" xmlns:cml="http://www.xml-cml.org/schema" width="234.641" height="223.923" x="0" y="0" font-family="sans-serif" stroke="rgb(0,0,0)" stroke-width="1" >
<line x1="50.4" y1="109.3" x2="80.0" y2="109.3"/>
<polygon points="103.209481 95.882032 78.000000 105.817931 82.000000 112.746134 " />
<line x1="80.0" y1="109.3" x2="100.0" y2="143.9"/>
<line x1="80.0" y1="109.3" x2="80.0" y2="79.7"/>
<line x1="100.4" y1="169.5" x2="99.6" y2="169.5"/>
<line x1="100.8" y1="165.5" x2="99.2" y2="165.5"/>
<line x1="101.2" y1="161.5" x2="98.8" y2="161.5"/>
<line x1="101.6" y1="157.5" x2="98.4" y2="157.5"/>
<line x1="102.0" y1="153.5" x2="98.0" y2="153.5"/>
<line x1="102.4" y1="149.5" x2="97.6" y2="149.5"/>
<line x1="102.8" y1="145.5" x2="97.2" y2="145.5"/>
<line x1="100.0" y1="143.9" x2="140.0" y2="143.9"/>
<line x1="100.0" y1="143.9" x2="74.4" y2="158.7"/>
<polygon points="163.209481 157.323048 142.000000 140.458947 138.000000 147.387150 " />
<line x1="140.0" y1="143.9" x2="160.0" y2="109.3"/>
<line x1="140.0" y1="143.9" x2="140.0" y2="173.5"/>
<polygon points="183.209481 95.882032 158.000000 105.817931 162.000000 112.746134 " />
<line x1="160.0" y1="109.3" x2="140.0" y2="74.6"/>
<line x1="160.0" y1="109.3" x2="185.6" y2="124.1"/>
<line x1="140.0" y1="77.6" x2="110.4" y2="77.6"/>
<line x1="140.0" y1="71.6" x2="110.4" y2="71.6"/>
<line x1="140.0" y1="74.6" x2="154.8" y2="49.0"/>
<text x="16.400000" y="114.082032" fill="rgb(102,102,102)"  stroke="rgb(102,102,102)" stroke-width="1" font-size="16" >H</text>
<text x="28.400000" y="118.882032" fill="rgb(102,102,102)"  stroke="rgb(102,102,102)" stroke-width="1" font-size="13" >3</text>
<text x="34.900000" y="114.082032" fill="rgb(102,102,102)"  stroke="rgb(102,102,102)" stroke-width="1" font-size="16" >C</text>
<text x="74.000000" y="77.602032" fill="rgb(255,12,12)"  stroke="rgb(255,12,12)" stroke-width="1" font-size="16" >OH</text>
<text x="49.758984" y="168.723048" fill="rgb(255,12,12)"  stroke="rgb(255,12,12)" stroke-width="1" font-size="16" >HO</text>
<text x="134.000000" y="188.723048" fill="rgb(255,12,12)"  stroke="rgb(255,12,12)" stroke-width="1" font-size="16" >OH</text>
<text x="188.641016" y="134.082032" fill="rgb(255,12,12)"  stroke="rgb(255,12,12)" stroke-width="1" font-size="16" >OH</text>
<text x="96.400000" y="82.961016" fill="rgb(255,12,12)"  stroke="rgb(255,12,12)" stroke-width="1" font-size="16" >O</text>
<text x="154.000000" y="48.320000" fill="rgb(255,12,12)"  stroke="rgb(255,12,12)" stroke-width="1" font-size="16" >OH</text>
<text x="108.641016" y="97.602032" fill="rgb(191,191,191)"  stroke="rgb(191,191,191)" stroke-width="1" font-size="16" >H</text>
<text x="94.000000" y="188.723048" fill="rgb(191,191,191)"  stroke="rgb(191,191,191)" stroke-width="1" font-size="16" >H</text>
<text x="168.641016" y="168.723048" fill="rgb(191,191,191)"  stroke="rgb(191,191,191)" stroke-width="1" font-size="16" >H</text>
<text x="188.641016" y="97.602032" fill="rgb(191,191,191)"  stroke="rgb(191,191,191)" stroke-width="1" font-size="16" >H</text>
<text font-size="18.000000" fill ="black" font-family="sans-serif"
x="140.000000" y="20.000000" ></text>
<title> - OBDepict</title>
</svg>
