<?xml version="1.0"?>
<svg xmlns="http://www.w3.org/2000/svg"
xmlns:xlink="http://www.w3.org/1999/xlink" xmlns:cml="http://www.xml-cml.org/schema" width="268.354" height="280.35" x="0" y="0" font-family="sans-serif" stroke="rgb(0,0,0)" stroke-width="1" >
<line x1="203.1" y1="101.3" x2="203.8" y2="101.7"/>
<line x1="200.9" y1="104.3" x2="202.3" y2="105.1"/>
<line x1="198.7" y1="107.3" x2="200.8" y2="108.5"/>
<line x1="196.5" y1="110.2" x2="199.3" y2="111.8"/>
<line x1="194.4" y1="113.2" x2="197.8" y2="115.2"/>
<line x1="192.2" y1="116.2" x2="196.3" y2="118.6"/>
<line x1="190.0" y1="119.2" x2="194.8" y2="122.0"/>
<line x1="191.7" y1="121.8" x2="218.8" y2="121.8"/>
<polygon points="216.253659 158.508530 191.686993 154.508530 191.686993 162.508530 " />
<line x1="191.7" y1="158.5" x2="205.3" y2="182.0"/>
<polygon points="135.366061 60.957815 156.468626 105.508530 163.396829 101.508530 " />
<line x1="159.9" y1="103.5" x2="173.5" y2="80.0"/>
<line x1="172.0" y1="197.0" x2="171.3" y2="197.4"/>
<line x1="170.5" y1="193.6" x2="169.1" y2="194.4"/>
<line x1="169.0" y1="190.2" x2="167.0" y2="191.4"/>
<line x1="167.6" y1="186.8" x2="164.8" y2="188.4"/>
<line x1="166.1" y1="183.5" x2="162.6" y2="185.5"/>
<line x1="164.6" y1="180.1" x2="160.4" y2="182.5"/>
<line x1="163.1" y1="176.7" x2="158.2" y2="179.5"/>
<line x1="159.9" y1="176.8" x2="132.8" y2="223.8"/>
<line x1="137.4" y1="100.2" x2="138.1" y2="100.6"/>
<line x1="135.5" y1="103.4" x2="137.0" y2="104.1"/>
<line x1="133.6" y1="106.6" x2="135.8" y2="107.6"/>
<line x1="131.8" y1="109.8" x2="134.7" y2="111.1"/>
<line x1="129.9" y1="113.0" x2="133.6" y2="114.6"/>
<line x1="128.1" y1="116.2" x2="132.5" y2="118.1"/>
<line x1="126.2" y1="119.4" x2="131.3" y2="121.6"/>
<line x1="138.1" y1="179.8" x2="137.4" y2="180.1"/>
<line x1="137.0" y1="176.3" x2="135.5" y2="176.9"/>
<line x1="135.8" y1="172.8" x2="133.6" y2="173.7"/>
<line x1="134.7" y1="169.2" x2="131.8" y2="170.5"/>
<line x1="133.6" y1="165.7" x2="129.9" y2="167.4"/>
<line x1="132.5" y1="162.2" x2="128.1" y2="164.2"/>
<line x1="131.3" y1="158.7" x2="126.2" y2="161.0"/>
<line x1="48.3" y1="126.6" x2="63.5" y2="135.4"/>
<line x1="46.8" y1="151.1" x2="62.0" y2="142.3"/>
<line x1="49.8" y1="156.3" x2="65.0" y2="147.5"/>
<line x1="102.4" y1="113.5" x2="128.2" y2="121.8"/>
<line x1="128.2" y1="121.8" x2="128.2" y2="158.5"/>
<line x1="128.2" y1="158.5" x2="102.4" y2="166.9"/>
<line x1="87.7" y1="162.1" x2="77.4" y2="147.9"/>
<line x1="77.4" y1="132.5" x2="87.7" y2="118.2"/>
<line x1="191.7" y1="121.8" x2="159.9" y2="103.5"/>
<line x1="159.9" y1="103.5" x2="128.2" y2="121.8"/>
<line x1="128.2" y1="158.5" x2="159.9" y2="176.8"/>
<line x1="159.9" y1="176.8" x2="191.7" y2="158.5"/>
<line x1="191.7" y1="158.5" x2="191.7" y2="121.8"/>
<text x="222.353659" y="126.641863" fill="rgb(255,12,12)"  stroke="rgb(255,12,12)" stroke-width="1" font-size="16" >OH</text>
<text x="204.020326" y="195.062794" fill="rgb(255,12,12)"  stroke="rgb(255,12,12)" stroke-width="1" font-size="16" >OH</text>
<text x="172.266061" y="80.074265" fill="rgb(255,12,12)"  stroke="rgb(255,12,12)" stroke-width="1" font-size="16" >OH</text>
<text x="107.666061" y="245.150393" fill="rgb(255,12,12)"  stroke="rgb(255,12,12)" stroke-width="1" font-size="16" >HO</text>
<text x="24.400000" y="130.161863" fill="rgb(255,12,12)"  stroke="rgb(255,12,12)" stroke-width="1" font-size="16" >HO</text>
<text x="36.400000" y="163.308530" fill="rgb(255,12,12)"  stroke="rgb(255,12,12)" stroke-width="1" font-size="16" >O</text>
<text x="89.706391" y="118.831240" fill="rgb(255,12,12)"  stroke="rgb(255,12,12)" stroke-width="1" font-size="16" >O</text>
<text x="89.706391" y="174.639153" fill="rgb(255,12,12)"  stroke="rgb(255,12,12)" stroke-width="1" font-size="16" >O</text>
<text x="65.754265" y="148.495196" fill="rgb(255,127,0)"  stroke="rgb(255,127,0)" stroke-width="1" font-size="16" >P</text>
<text x="204.020326" y="98.407598" fill="rgb(191,191,191)"  stroke="rgb(191,191,191)" stroke-width="1" font-size="16" >H</text>
<text x="222.353659" y="166.828530" fill="rgb(191,191,191)"  stroke="rgb(191,191,191)" stroke-width="1" font-size="16" >H</text>
<text x="119.666061" y="48.320000" fill="rgb(191,191,191)"  stroke="rgb(191,191,191)" stroke-width="1" font-size="16" >H</text>
<text x="172.266061" y="213.396128" fill="rgb(191,191,191)"  stroke="rgb(191,191,191)" stroke-width="1" font-size="16" >H</text>
<text x="137.092140" y="96.665196" fill="rgb(191,191,191)"  stroke="rgb(191,191,191)" stroke-width="1" font-size="16" >H</text>
<text x="137.092140" y="196.805196" fill="rgb(191,191,191)"  stroke="rgb(191,191,191)" stroke-width="1" font-size="16" >H</text>
<text font-size="18.000000" fill ="black" font-family="sans-serif"
x="140.000000" y="20.000000" ></text>
<title> - OBDepict</title>
</svg>
