<?xml version="1.0"?>
<svg xmlns="http://www.w3.org/2000/svg"
xmlns:xlink="http://www.w3.org/1999/xlink" xmlns:cml="http://www.xml-cml.org/schema" width="229.282" height="200" x="0" y="0" font-family="sans-serif" stroke="rgb(0,0,0)" stroke-width="1" >
<line x1="149.3" y1="60.0" x2="149.3" y2="100.0"/>
<line x1="149.3" y1="60.0" x2="123.6" y2="45.2"/>
<line x1="80.0" y1="60.0" x2="80.0" y2="100.0"/>
<line x1="80.0" y1="60.0" x2="54.4" y2="45.2"/>
<line x1="162.4" y1="122.0" x2="161.7" y2="122.4"/>
<line x1="160.8" y1="118.3" x2="159.4" y2="119.1"/>
<line x1="159.1" y1="114.6" x2="157.0" y2="115.8"/>
<line x1="157.5" y1="111.0" x2="154.7" y2="112.6"/>
<line x1="155.8" y1="107.3" x2="152.3" y2="109.3"/>
<line x1="154.2" y1="103.6" x2="150.0" y2="106.0"/>
<line x1="152.5" y1="100.0" x2="147.7" y2="102.8"/>
<line x1="149.3" y1="100.0" x2="114.6" y2="120.0"/>
<line x1="149.3" y1="100.0" x2="178.9" y2="100.0"/>
<polygon points="53.200000 100.000000 80.000000 104.000000 80.000000 96.000000 " />
<line x1="80.0" y1="100.0" x2="114.6" y2="120.0"/>
<line x1="80.0" y1="100.0" x2="65.2" y2="125.6"/>
<line x1="114.6" y1="120.0" x2="114.6" y2="149.6"/>
<text x="99.041016" y="48.320000" fill="rgb(255,12,12)"  stroke="rgb(255,12,12)" stroke-width="1" font-size="16" >HO</text>
<text x="29.758984" y="48.320000" fill="rgb(255,12,12)"  stroke="rgb(255,12,12)" stroke-width="1" font-size="16" >HO</text>
<text x="183.282032" y="104.800000" fill="rgb(255,12,12)"  stroke="rgb(255,12,12)" stroke-width="1" font-size="16" >OH</text>
<text x="44.400000" y="139.441016" fill="rgb(255,12,12)"  stroke="rgb(255,12,12)" stroke-width="1" font-size="16" >HO</text>
<text x="108.641016" y="164.800000" fill="rgb(255,12,12)"  stroke="rgb(255,12,12)" stroke-width="1" font-size="16" >OH</text>
<text x="163.282032" y="139.441016" fill="rgb(191,191,191)"  stroke="rgb(191,191,191)" stroke-width="1" font-size="16" >H</text>
<text x="36.400000" y="104.800000" fill="rgb(191,191,191)"  stroke="rgb(191,191,191)" stroke-width="1" font-size="16" >H</text>
<text font-size="18.000000" fill ="black" font-family="sans-serif"
x="140.000000" y="20.000000" ></text>
<title> - OBDepict</title>
</svg>
