<?xml version="1.0"?>
<svg xmlns="http://www.w3.org/2000/svg"
xmlns:xlink="http://www.w3.org/1999/xlink" xmlns:cml="http://www.xml-cml.org/schema" width="626.767" height="561.111" x="0" y="0" font-family="sans-serif" stroke="rgb(0,0,0)" stroke-width="1" >
<line x1="121.9" y1="356.1" x2="113.0" y2="328.8"/>
<line x1="84.9" y1="322.8" x2="113.0" y2="328.8"/>
<line x1="49.6" y1="226.8" x2="77.0" y2="217.9"/>
<line x1="311.6" y1="115.5" x2="333.0" y2="134.7"/>
<line x1="305.6" y1="143.6" x2="333.0" y2="134.7"/>
<line x1="139.0" y1="299.9" x2="127.0" y2="262.9"/>
<line x1="139.0" y1="299.9" x2="113.0" y2="328.8"/>
<line x1="127.0" y1="262.9" x2="89.0" y2="254.9"/>
<line x1="245.0" y1="81.6" x2="283.0" y2="89.7"/>
<line x1="245.0" y1="81.6" x2="219.0" y2="110.5"/>
<line x1="283.0" y1="89.7" x2="302.2" y2="68.3"/>
<line x1="205.0" y1="176.3" x2="167.0" y2="168.2"/>
<line x1="205.0" y1="176.3" x2="224.2" y2="154.9"/>
<line x1="167.0" y1="168.2" x2="147.7" y2="189.6"/>
<line x1="326.9" y1="350.5" x2="364.9" y2="358.5"/>
<line x1="326.9" y1="350.5" x2="318.0" y2="323.1"/>
<line x1="357.0" y1="208.6" x2="333.0" y2="134.7"/>
<line x1="357.0" y1="208.6" x2="337.8" y2="230.0"/>
<line x1="58.2" y1="201.6" x2="58.7" y2="201.0"/>
<line x1="60.8" y1="204.5" x2="61.9" y2="203.3"/>
<line x1="63.4" y1="207.4" x2="65.1" y2="205.6"/>
<line x1="66.1" y1="210.2" x2="68.2" y2="207.9"/>
<line x1="68.7" y1="213.1" x2="71.4" y2="210.2"/>
<line x1="71.3" y1="216.0" x2="74.5" y2="212.5"/>
<line x1="73.9" y1="218.9" x2="77.7" y2="214.8"/>
<line x1="77.0" y1="217.9" x2="89.0" y2="254.9"/>
<line x1="77.0" y1="217.9" x2="103.0" y2="189.0"/>
<polygon points="83.550024 280.319543 92.875447 255.685815 85.050266 254.022522 " />
<line x1="89.0" y1="254.9" x2="61.6" y2="263.7"/>
<polygon points="356.816762 333.785629 361.057573 359.781774 368.666025 357.309638 " />
<line x1="221.8" y1="109.5" x2="230.7" y2="136.9"/>
<line x1="216.1" y1="111.4" x2="225.0" y2="138.7"/>
<line x1="219.0" y1="110.5" x2="190.8" y2="104.5"/>
<polygon points="388.252851 437.754686 400.102114 414.230677 392.493662 411.758541 " />
<line x1="396.3" y1="413.0" x2="415.5" y2="434.4"/>
<polygon points="334.765836 397.189985 360.800121 401.189985 360.800121 393.189985 " />
<line x1="360.8" y1="397.2" x2="346.4" y2="422.1"/>
<line x1="359.0" y1="105.8" x2="386.3" y2="96.9"/>
<line x1="359.0" y1="105.8" x2="347.0" y2="68.9"/>
<line x1="359.0" y1="105.8" x2="333.0" y2="134.7"/>
<line x1="359.0" y1="105.8" x2="380.4" y2="125.1"/>
<line x1="562.3" y1="484.8" x2="572.6" y2="511.7"/>
<line x1="346.4" y1="71.8" x2="318.2" y2="65.8"/>
<line x1="347.6" y1="65.9" x2="319.5" y2="60.0"/>
<line x1="347.0" y1="68.9" x2="366.2" y2="47.5"/>
<polygon points="438.866921 364.036594 419.212994 381.572477 425.383789 386.663772 " />
<line x1="422.3" y1="384.1" x2="458.5" y2="428.8"/>
<line x1="100.1" y1="189.9" x2="91.2" y2="162.6"/>
<line x1="105.8" y1="188.1" x2="96.9" y2="160.7"/>
<line x1="103.0" y1="189.0" x2="131.1" y2="195.0"/>
<line x1="302.5" y1="459.6" x2="302.5" y2="440.9"/>
<line x1="273.8" y1="430.8" x2="292.4" y2="430.8"/>
<line x1="305.5" y1="402.1" x2="305.5" y2="420.7"/>
<line x1="299.5" y1="402.1" x2="299.5" y2="420.7"/>
<line x1="270.9" y1="333.6" x2="274.7" y2="315.3"/>
<line x1="249.3" y1="296.5" x2="267.6" y2="300.4"/>
<line x1="248.1" y1="302.4" x2="266.3" y2="306.3"/>
<line x1="264.9" y1="223.4" x2="283.1" y2="227.3"/>
<line x1="301.9" y1="201.9" x2="298.0" y2="220.2"/>
<line x1="296.0" y1="200.7" x2="292.2" y2="218.9"/>
<line x1="305.0" y1="311.4" x2="286.7" y2="307.5"/>
<line x1="321.1" y1="235.4" x2="302.9" y2="231.5"/>
<line x1="331.3" y1="430.8" x2="312.6" y2="430.8"/>
<line x1="282.8" y1="277.3" x2="278.9" y2="295.6"/>
<line x1="287.0" y1="257.5" x2="290.9" y2="239.3"/>
<line x1="461.1" y1="482.0" x2="468.6" y2="454.3"/>
<line x1="481.3" y1="444.0" x2="510.0" y2="442.5"/>
<line x1="510.0" y1="442.5" x2="523.9" y2="478.8"/>
<line x1="523.9" y1="478.8" x2="501.6" y2="496.9"/>
<line x1="485.3" y1="497.7" x2="461.1" y2="482.0"/>
<line x1="487.4" y1="490.5" x2="470.1" y2="479.3"/>
<line x1="364.9" y1="358.5" x2="360.8" y2="397.2"/>
<line x1="360.8" y1="397.2" x2="396.3" y2="413.0"/>
<line x1="396.3" y1="413.0" x2="422.3" y2="384.1"/>
<line x1="422.3" y1="384.1" x2="407.9" y2="359.2"/>
<line x1="393.0" y1="352.6" x2="364.9" y2="358.5"/>
<line x1="510.0" y1="442.5" x2="528.1" y2="420.1"/>
<line x1="519.4" y1="442.3" x2="532.4" y2="426.3"/>
<line x1="544.4" y1="413.9" x2="572.8" y2="418.4"/>
<line x1="572.8" y1="418.4" x2="583.1" y2="445.2"/>
<line x1="568.3" y1="426.5" x2="575.7" y2="445.8"/>
<line x1="580.4" y1="462.5" x2="562.3" y2="484.8"/>
<line x1="562.3" y1="484.8" x2="523.9" y2="478.8"/>
<line x1="557.5" y1="476.8" x2="531.0" y2="472.6"/>
<text x="118.985409" y="370.520185" fill="rgb(102,102,102)"  stroke="rgb(102,102,102)" stroke-width="1" font-size="16" >CH</text>
<text x="142.985409" y="375.320185" fill="rgb(102,102,102)"  stroke="rgb(102,102,102)" stroke-width="1" font-size="13" >3</text>
<text x="51.369870" y="329.005992" fill="rgb(102,102,102)"  stroke="rgb(102,102,102)" stroke-width="1" font-size="16" >H</text>
<text x="63.369870" y="336.685992" fill="rgb(102,102,102)"  stroke="rgb(102,102,102)" stroke-width="1" font-size="13" >3</text>
<text x="69.869870" y="329.005992" fill="rgb(102,102,102)"  stroke="rgb(102,102,102)" stroke-width="1" font-size="16" >C</text>
<text x="16.400000" y="234.706347" fill="rgb(102,102,102)"  stroke="rgb(102,102,102)" stroke-width="1" font-size="16" >H</text>
<text x="28.400000" y="239.506347" fill="rgb(102,102,102)"  stroke="rgb(102,102,102)" stroke-width="1" font-size="13" >3</text>
<text x="34.900000" y="234.706347" fill="rgb(102,102,102)"  stroke="rgb(102,102,102)" stroke-width="1" font-size="16" >C</text>
<text x="280.512953" y="117.027805" fill="rgb(102,102,102)"  stroke="rgb(102,102,102)" stroke-width="1" font-size="16" >H</text>
<text x="292.512953" y="124.707805" fill="rgb(102,102,102)"  stroke="rgb(102,102,102)" stroke-width="1" font-size="13" >3</text>
<text x="299.012953" y="117.027805" fill="rgb(102,102,102)"  stroke="rgb(102,102,102)" stroke-width="1" font-size="16" >C</text>
<text x="272.434098" y="151.515826" fill="rgb(102,102,102)"  stroke="rgb(102,102,102)" stroke-width="1" font-size="16" >H</text>
<text x="284.434098" y="156.315826" fill="rgb(102,102,102)"  stroke="rgb(102,102,102)" stroke-width="1" font-size="13" >3</text>
<text x="290.934098" y="151.515826" fill="rgb(102,102,102)"  stroke="rgb(102,102,102)" stroke-width="1" font-size="16" >C</text>
<text x="570.238523" y="525.910974" fill="rgb(12,12,255)"  stroke="rgb(12,12,255)" stroke-width="1" font-size="16" >NH</text>
<text x="594.238523" y="530.710974" fill="rgb(12,12,255)"  stroke="rgb(12,12,255)" stroke-width="1" font-size="13" >2</text>
<text x="224.972892" y="152.227084" fill="rgb(12,12,255)"  stroke="rgb(12,12,255)" stroke-width="1" font-size="16" >N</text>
<text x="305.374402" y="69.117630" fill="rgb(12,12,255)"  stroke="rgb(12,12,255)" stroke-width="1" font-size="16" >N</text>
<text x="580.766960" y="459.437035" fill="rgb(12,12,255)"  stroke="rgb(12,12,255)" stroke-width="1" font-size="16" >N</text>
<text x="530.863059" y="420.602170" fill="rgb(12,12,255)"  stroke="rgb(12,12,255)" stroke-width="1" font-size="16" >N</text>
<text x="487.736949" y="508.009702" fill="rgb(12,12,255)"  stroke="rgb(12,12,255)" stroke-width="1" font-size="16" >N</text>
<text x="465.205576" y="449.313468" fill="rgb(12,12,255)"  stroke="rgb(12,12,255)" stroke-width="1" font-size="16" >N</text>
<text x="36.407517" y="271.661686" fill="rgb(255,12,12)"  stroke="rgb(255,12,12)" stroke-width="1" font-size="16" >HO</text>
<text x="176.157353" y="95.992891" fill="rgb(255,12,12)"  stroke="rgb(255,12,12)" stroke-width="1" font-size="32" >-</text>
<text x="177.357353" y="110.712891" fill="rgb(255,12,12)"  stroke="rgb(255,12,12)" stroke-width="1" font-size="16" >O</text>
<text x="416.298391" y="446.671094" fill="rgb(255,12,12)"  stroke="rgb(255,12,12)" stroke-width="1" font-size="16" >OH</text>
<text x="381.866426" y="136.632327" fill="rgb(255,12,12)"  stroke="rgb(255,12,12)" stroke-width="1" font-size="16" >OH</text>
<text x="368.182927" y="33.600000" fill="rgb(255,12,12)"  stroke="rgb(255,12,12)" stroke-width="1" font-size="32" >-</text>
<text x="366.982927" y="48.320000" fill="rgb(255,12,12)"  stroke="rgb(255,12,12)" stroke-width="1" font-size="16" >O</text>
<text x="87.348325" y="160.387006" fill="rgb(255,12,12)"  stroke="rgb(255,12,12)" stroke-width="1" font-size="16" >O</text>
<text x="297.714407" y="488.898401" fill="rgb(255,12,12)"  stroke="rgb(255,12,12)" stroke-width="1" font-size="32" >-</text>
<text x="296.514407" y="474.498401" fill="rgb(255,12,12)"  stroke="rgb(255,12,12)" stroke-width="1" font-size="16" >O</text>
<text x="258.857264" y="450.041258" fill="rgb(255,12,12)"  stroke="rgb(255,12,12)" stroke-width="1" font-size="32" >-</text>
<text x="260.057264" y="435.641258" fill="rgb(255,12,12)"  stroke="rgb(255,12,12)" stroke-width="1" font-size="16" >O</text>
<text x="296.514407" y="400.304115" fill="rgb(255,12,12)"  stroke="rgb(255,12,12)" stroke-width="1" font-size="16" >O</text>
<text x="253.159385" y="348.240680" fill="rgb(255,12,12)"  stroke="rgb(255,12,12)" stroke-width="1" font-size="16" >HO</text>
<text x="235.230218" y="305.673804" fill="rgb(255,12,12)"  stroke="rgb(255,12,12)" stroke-width="1" font-size="16" >O</text>
<text x="239.387927" y="229.657762" fill="rgb(255,12,12)"  stroke="rgb(255,12,12)" stroke-width="1" font-size="16" >HO</text>
<text x="295.074802" y="199.728595" fill="rgb(255,12,12)"  stroke="rgb(255,12,12)" stroke-width="1" font-size="16" >O</text>
<text x="308.846260" y="321.831513" fill="rgb(255,12,12)"  stroke="rgb(255,12,12)" stroke-width="1" font-size="16" >O</text>
<text x="325.003969" y="242.295471" fill="rgb(255,12,12)"  stroke="rgb(255,12,12)" stroke-width="1" font-size="16" >O</text>
<text x="396.869820" y="358.786852" fill="rgb(255,12,12)"  stroke="rgb(255,12,12)" stroke-width="1" font-size="16" >O</text>
<text x="335.371550" y="435.641258" fill="rgb(255,12,12)"  stroke="rgb(255,12,12)" stroke-width="1" font-size="16" >O</text>
<text x="278.917093" y="275.744637" fill="rgb(255,12,12)"  stroke="rgb(255,12,12)" stroke-width="1" font-size="16" >O</text>
<text x="296.514407" y="439.161258" fill="rgb(255,127,0)"  stroke="rgb(255,127,0)" stroke-width="1" font-size="16" >P</text>
<text x="270.838239" y="310.232659" fill="rgb(255,127,0)"  stroke="rgb(255,127,0)" stroke-width="1" font-size="16" >P</text>
<text x="286.995948" y="234.216616" fill="rgb(255,127,0)"  stroke="rgb(255,127,0)" stroke-width="1" font-size="16" >P</text>
<text x="134.963864" y="201.901199" fill="rgb(178,178,0)"  stroke="rgb(178,178,0)" stroke-width="1" font-size="16" >S</text>
<text x="44.478854" y="200.218326" fill="rgb(191,191,191)"  stroke="rgb(191,191,191)" stroke-width="1" font-size="16" >H</text>
<text x="77.284002" y="297.662190" fill="rgb(191,191,191)"  stroke="rgb(191,191,191)" stroke-width="1" font-size="16" >H</text>
<text x="349.254281" y="329.910367" fill="rgb(191,191,191)"  stroke="rgb(191,191,191)" stroke-width="1" font-size="16" >H</text>
<text x="380.690370" y="454.749948" fill="rgb(191,191,191)"  stroke="rgb(191,191,191)" stroke-width="1" font-size="16" >H</text>
<text x="318.342979" y="405.509985" fill="rgb(191,191,191)"  stroke="rgb(191,191,191)" stroke-width="1" font-size="16" >H</text>
<text x="389.945280" y="102.144306" fill="rgb(191,191,191)"  stroke="rgb(191,191,191)" stroke-width="1" font-size="16" >H</text>
<text x="441.027540" y="362.465691" fill="rgb(191,191,191)"  stroke="rgb(191,191,191)" stroke-width="1" font-size="16" >H</text>
<text font-size="18.000000" fill ="black" font-family="sans-serif"
x="140.000000" y="20.000000" ></text>
<title> - OBDepict</title>
</svg>
