<?xml version="1.0"?>
<svg xmlns="http://www.w3.org/2000/svg"
xmlns:xlink="http://www.w3.org/1999/xlink" xmlns:cml="http://www.xml-cml.org/schema" width="461.619" height="316.186" x="0" y="0" font-family="sans-serif" stroke="rgb(0,0,0)" stroke-width="1" >
<line x1="404.7" y1="170.9" x2="384.7" y2="150.9"/>
<line x1="103.9" y1="196.3" x2="103.3" y2="196.8"/>
<line x1="102.0" y1="193.0" x2="100.7" y2="193.9"/>
<line x1="100.1" y1="189.7" x2="98.1" y2="191.1"/>
<line x1="98.2" y1="186.3" x2="95.6" y2="188.2"/>
<line x1="96.2" y1="183.0" x2="93.0" y2="185.4"/>
<line x1="94.3" y1="179.7" x2="90.4" y2="182.5"/>
<line x1="92.4" y1="176.4" x2="87.9" y2="179.6"/>
<line x1="408.2" y1="144.1" x2="408.4" y2="144.9"/>
<line x1="404.4" y1="144.8" x2="404.8" y2="146.3"/>
<line x1="400.6" y1="145.4" x2="401.2" y2="147.7"/>
<line x1="396.8" y1="146.0" x2="397.6" y2="149.1"/>
<line x1="393.0" y1="146.6" x2="394.0" y2="150.4"/>
<line x1="389.2" y1="147.2" x2="390.5" y2="151.8"/>
<line x1="385.4" y1="147.8" x2="386.9" y2="153.2"/>
<line x1="271.5" y1="104.0" x2="296.1" y2="89.9"/>
<polygon points="172.127915 135.768204 168.127915 161.402987 176.127915 161.402987 " />
<line x1="172.5" y1="248.6" x2="171.7" y2="248.6"/>
<line x1="172.9" y1="241.0" x2="171.3" y2="241.0"/>
<line x1="173.3" y1="233.3" x2="170.9" y2="233.3"/>
<line x1="173.7" y1="225.7" x2="170.5" y2="225.7"/>
<line x1="174.1" y1="218.0" x2="170.1" y2="218.0"/>
<line x1="174.5" y1="210.4" x2="169.7" y2="210.4"/>
<line x1="174.9" y1="202.7" x2="169.3" y2="202.7"/>
<polygon points="164.487383 221.473856 139.411144 214.816203 138.574916 222.772379 " />
<line x1="76.8" y1="228.2" x2="49.1" y2="222.3"/>
<line x1="78.0" y1="222.3" x2="50.4" y2="216.4"/>
<polygon points="350.972854 202.687305 361.471327 178.961283 353.743920 176.890730 " />
<line x1="357.6" y1="177.9" x2="377.6" y2="197.9"/>
<polygon points="399.520801 107.279554 373.724226 110.050621 375.794778 117.778027 " />
<line x1="374.8" y1="113.9" x2="389.4" y2="59.2"/>
<line x1="297.1" y1="174.7" x2="296.9" y2="174.0"/>
<line x1="300.9" y1="174.1" x2="300.5" y2="172.6"/>
<line x1="304.7" y1="173.5" x2="304.1" y2="171.2"/>
<line x1="308.5" y1="172.9" x2="307.7" y2="169.8"/>
<line x1="312.3" y1="172.3" x2="311.3" y2="168.5"/>
<line x1="316.1" y1="171.7" x2="314.9" y2="167.1"/>
<line x1="319.9" y1="171.1" x2="318.4" y2="165.7"/>
<line x1="320.7" y1="168.0" x2="310.7" y2="205.0"/>
<line x1="311.5" y1="207.9" x2="284.2" y2="215.2"/>
<line x1="310.0" y1="202.1" x2="282.6" y2="209.4"/>
<line x1="310.7" y1="205.0" x2="330.8" y2="225.0"/>
<line x1="357.0" y1="88.8" x2="357.5" y2="89.4"/>
<line x1="353.7" y1="90.8" x2="354.7" y2="92.1"/>
<line x1="350.4" y1="92.8" x2="351.9" y2="94.7"/>
<line x1="347.1" y1="94.8" x2="349.1" y2="97.4"/>
<line x1="343.9" y1="96.8" x2="346.3" y2="100.0"/>
<line x1="340.6" y1="98.8" x2="343.5" y2="102.7"/>
<line x1="337.3" y1="100.9" x2="340.7" y2="105.3"/>
<line x1="337.8" y1="104.0" x2="313.3" y2="89.9"/>
<line x1="93.0" y1="260.2" x2="77.4" y2="225.3"/>
<line x1="77.4" y1="225.3" x2="105.9" y2="199.7"/>
<line x1="105.9" y1="199.7" x2="139.0" y2="218.8"/>
<line x1="139.0" y1="218.8" x2="131.0" y2="256.2"/>
<line x1="131.0" y1="256.2" x2="93.0" y2="260.2"/>
<line x1="238.4" y1="199.7" x2="205.3" y2="218.8"/>
<line x1="205.3" y1="218.8" x2="172.1" y2="199.7"/>
<line x1="172.1" y1="199.7" x2="172.1" y2="161.4"/>
<line x1="172.1" y1="161.4" x2="205.3" y2="142.3"/>
<line x1="205.3" y1="142.3" x2="238.4" y2="161.4"/>
<line x1="238.4" y1="161.4" x2="238.4" y2="199.7"/>
<line x1="271.5" y1="104.0" x2="271.5" y2="142.3"/>
<line x1="271.5" y1="142.3" x2="238.4" y2="161.4"/>
<line x1="262.7" y1="139.0" x2="240.0" y2="152.2"/>
<line x1="205.3" y1="142.3" x2="205.3" y2="104.0"/>
<line x1="212.5" y1="136.3" x2="212.5" y2="110.0"/>
<line x1="205.3" y1="104.0" x2="238.4" y2="84.9"/>
<line x1="238.4" y1="84.9" x2="271.5" y2="104.0"/>
<line x1="240.0" y1="94.1" x2="262.7" y2="107.2"/>
<line x1="105.9" y1="199.7" x2="105.9" y2="161.4"/>
<line x1="105.9" y1="161.4" x2="139.0" y2="142.3"/>
<line x1="139.0" y1="142.3" x2="172.1" y2="161.4"/>
<line x1="172.1" y1="199.7" x2="139.0" y2="218.8"/>
<line x1="384.7" y1="150.9" x2="374.8" y2="113.9"/>
<line x1="374.8" y1="113.9" x2="337.8" y2="104.0"/>
<line x1="337.8" y1="104.0" x2="317.8" y2="124.0"/>
<line x1="313.3" y1="140.7" x2="320.7" y2="168.0"/>
<line x1="320.7" y1="168.0" x2="357.6" y2="177.9"/>
<line x1="357.6" y1="177.9" x2="384.7" y2="150.9"/>
<text x="405.716664" y="182.726006" fill="rgb(102,102,102)"  stroke="rgb(102,102,102)" stroke-width="1" font-size="16" >CH</text>
<text x="429.716664" y="187.526006" fill="rgb(102,102,102)"  stroke="rgb(102,102,102)" stroke-width="1" font-size="13" >3</text>
<text x="59.768970" y="177.030163" fill="rgb(102,102,102)"  stroke="rgb(102,102,102)" stroke-width="1" font-size="16" >H</text>
<text x="71.768970" y="184.710163" fill="rgb(102,102,102)"  stroke="rgb(102,102,102)" stroke-width="1" font-size="13" >3</text>
<text x="78.268970" y="177.030163" fill="rgb(102,102,102)"  stroke="rgb(102,102,102)" stroke-width="1" font-size="16" >C</text>
<text x="36.400000" y="225.630493" fill="rgb(255,12,12)"  stroke="rgb(255,12,12)" stroke-width="1" font-size="16" >O</text>
<text x="378.662144" y="209.780527" fill="rgb(255,12,12)"  stroke="rgb(255,12,12)" stroke-width="1" font-size="16" >OH</text>
<text x="388.564786" y="48.320000" fill="rgb(255,12,12)"  stroke="rgb(255,12,12)" stroke-width="1" font-size="16" >OH</text>
<text x="270.190658" y="219.683169" fill="rgb(255,12,12)"  stroke="rgb(255,12,12)" stroke-width="1" font-size="16" >O</text>
<text x="331.802340" y="236.835047" fill="rgb(255,12,12)"  stroke="rgb(255,12,12)" stroke-width="1" font-size="16" >OH</text>
<text x="298.667455" y="93.201248" fill="rgb(255,12,12)"  stroke="rgb(255,12,12)" stroke-width="1" font-size="16" >O</text>
<text x="307.147820" y="139.386203" fill="rgb(255,12,12)"  stroke="rgb(255,12,12)" stroke-width="1" font-size="16" >O</text>
<text x="415.619306" y="149.288844" fill="rgb(191,191,191)"  stroke="rgb(191,191,191)" stroke-width="1" font-size="16" >H</text>
<text x="166.127915" y="131.462117" fill="rgb(191,191,191)"  stroke="rgb(191,191,191)" stroke-width="1" font-size="16" >H</text>
<text x="166.127915" y="280.985595" fill="rgb(191,191,191)"  stroke="rgb(191,191,191)" stroke-width="1" font-size="16" >H</text>
<text x="171.044303" y="227.593641" fill="rgb(191,191,191)"  stroke="rgb(191,191,191)" stroke-width="1" font-size="16" >H</text>
<text x="344.104982" y="219.683169" fill="rgb(191,191,191)"  stroke="rgb(191,191,191)" stroke-width="1" font-size="16" >H</text>
<text x="405.716664" y="112.331682" fill="rgb(191,191,191)"  stroke="rgb(191,191,191)" stroke-width="1" font-size="16" >H</text>
<text x="280.093299" y="182.726006" fill="rgb(191,191,191)"  stroke="rgb(191,191,191)" stroke-width="1" font-size="16" >H</text>
<text x="362.156729" y="89.039941" fill="rgb(191,191,191)"  stroke="rgb(191,191,191)" stroke-width="1" font-size="16" >H</text>
<text font-size="18.000000" fill ="black" font-family="sans-serif"
x="140.000000" y="20.000000" ></text>
<title> - OBDepict</title>
</svg>
