<?xml version="1.0"?>
<svg xmlns="http://www.w3.org/2000/svg"
xmlns:xlink="http://www.w3.org/1999/xlink" xmlns:cml="http://www.xml-cml.org/schema" width="423.086" height="337.065" x="0" y="0" font-family="sans-serif" stroke="rgb(0,0,0)" stroke-width="1" >
<line x1="85.7" y1="159.1" x2="105.2" y2="125.4"/>
<line x1="85.7" y1="159.1" x2="56.9" y2="159.1"/>
<line x1="310.4" y1="243.8" x2="276.6" y2="224.3"/>
<line x1="310.4" y1="243.8" x2="335.3" y2="229.4"/>
<polygon points="89.308895 104.663293 102.031960 127.815032 108.378787 122.944940 " />
<polygon points="299.220297 211.281734 274.605932 220.874043 278.605932 227.802246 " />
<line x1="67.0" y1="75.2" x2="67.2" y2="74.4"/>
<line x1="74.4" y1="77.6" x2="74.8" y2="76.1"/>
<line x1="81.9" y1="80.0" x2="82.5" y2="77.7"/>
<line x1="89.3" y1="82.4" x2="90.1" y2="79.3"/>
<line x1="96.7" y1="84.8" x2="97.7" y2="81.0"/>
<line x1="104.1" y1="87.2" x2="105.4" y2="82.6"/>
<line x1="111.6" y1="89.6" x2="113.0" y2="84.2"/>
<line x1="115.3" y1="87.7" x2="107.8" y2="59.9"/>
<line x1="278.9" y1="270.2" x2="278.5" y2="270.9"/>
<line x1="275.7" y1="267.9" x2="274.9" y2="269.3"/>
<line x1="272.6" y1="265.6" x2="271.4" y2="267.7"/>
<line x1="269.4" y1="263.3" x2="267.8" y2="266.1"/>
<line x1="266.2" y1="261.0" x2="264.2" y2="264.5"/>
<line x1="263.0" y1="258.7" x2="260.6" y2="262.9"/>
<line x1="259.9" y1="256.4" x2="257.1" y2="261.3"/>
<line x1="257.1" y1="258.1" x2="257.1" y2="286.9"/>
<polygon points="146.180524 52.423292 149.075316 78.681616 156.802723 76.611064 " />
<line x1="152.9" y1="77.6" x2="173.3" y2="57.3"/>
<polygon points="218.144393 284.203750 222.144393 258.090930 214.144393 258.090930 " />
<line x1="218.1" y1="258.1" x2="193.2" y2="272.5"/>
<line x1="197.9" y1="87.3" x2="198.4" y2="87.9"/>
<line x1="194.8" y1="89.8" x2="195.9" y2="90.9"/>
<line x1="191.8" y1="92.2" x2="193.5" y2="93.9"/>
<line x1="188.7" y1="94.7" x2="191.0" y2="97.0"/>
<line x1="185.7" y1="97.2" x2="188.5" y2="100.0"/>
<line x1="182.7" y1="99.7" x2="186.1" y2="103.0"/>
<line x1="179.6" y1="102.1" x2="183.6" y2="106.1"/>
<line x1="180.5" y1="105.2" x2="208.4" y2="112.7"/>
<line x1="177.3" y1="237.2" x2="176.9" y2="236.5"/>
<line x1="180.8" y1="235.6" x2="180.0" y2="234.2"/>
<line x1="184.4" y1="234.0" x2="183.2" y2="231.9"/>
<line x1="188.0" y1="232.3" x2="186.4" y2="229.6"/>
<line x1="191.6" y1="230.7" x2="189.6" y2="227.3"/>
<line x1="195.1" y1="229.1" x2="192.7" y2="225.0"/>
<line x1="198.7" y1="227.5" x2="195.9" y2="222.7"/>
<line x1="198.7" y1="224.3" x2="173.7" y2="209.9"/>
<line x1="194.6" y1="148.9" x2="194.4" y2="149.7"/>
<line x1="190.9" y1="147.5" x2="190.5" y2="149.1"/>
<line x1="187.3" y1="146.1" x2="186.7" y2="148.4"/>
<line x1="183.6" y1="144.7" x2="182.8" y2="147.8"/>
<line x1="180.0" y1="143.3" x2="178.9" y2="147.2"/>
<line x1="176.3" y1="141.9" x2="175.1" y2="146.6"/>
<line x1="172.6" y1="140.6" x2="171.2" y2="146.0"/>
<line x1="170.4" y1="142.9" x2="177.9" y2="170.7"/>
<line x1="233.0" y1="170.6" x2="233.6" y2="171.0"/>
<line x1="230.3" y1="173.4" x2="231.6" y2="174.4"/>
<line x1="227.6" y1="176.2" x2="229.5" y2="177.7"/>
<line x1="224.9" y1="179.1" x2="227.5" y2="181.0"/>
<line x1="222.3" y1="181.9" x2="225.4" y2="184.4"/>
<line x1="219.6" y1="184.8" x2="223.4" y2="187.7"/>
<line x1="216.9" y1="187.6" x2="221.3" y2="191.1"/>
<line x1="218.1" y1="190.6" x2="190.3" y2="183.1"/>
<line x1="315.3" y1="185.4" x2="334.0" y2="185.4"/>
<line x1="344.1" y1="156.5" x2="344.1" y2="175.2"/>
<line x1="373.0" y1="188.4" x2="354.2" y2="188.4"/>
<line x1="373.0" y1="182.4" x2="354.2" y2="182.4"/>
<line x1="344.1" y1="214.2" x2="344.1" y2="195.5"/>
<line x1="218.1" y1="258.1" x2="198.7" y2="224.3"/>
<line x1="198.7" y1="224.3" x2="218.1" y2="190.6"/>
<line x1="218.1" y1="190.6" x2="247.0" y2="190.6"/>
<line x1="262.2" y1="199.4" x2="276.6" y2="224.3"/>
<line x1="276.6" y1="224.3" x2="257.1" y2="258.1"/>
<line x1="257.1" y1="258.1" x2="218.1" y2="258.1"/>
<line x1="105.2" y1="125.4" x2="115.3" y2="87.7"/>
<line x1="115.3" y1="87.7" x2="152.9" y2="77.6"/>
<line x1="152.9" y1="77.6" x2="180.5" y2="105.2"/>
<line x1="180.5" y1="105.2" x2="170.4" y2="142.9"/>
<line x1="170.4" y1="142.9" x2="142.6" y2="150.3"/>
<line x1="125.6" y1="145.8" x2="105.2" y2="125.4"/>
<text x="31.143835" y="167.452771" fill="rgb(255,12,12)"  stroke="rgb(255,12,12)" stroke-width="1" font-size="16" >HO</text>
<text x="89.605373" y="58.407306" fill="rgb(255,12,12)"  stroke="rgb(255,12,12)" stroke-width="1" font-size="16" >HO</text>
<text x="251.118752" y="301.865288" fill="rgb(255,12,12)"  stroke="rgb(255,12,12)" stroke-width="1" font-size="16" >OH</text>
<text x="174.498053" y="58.407306" fill="rgb(255,12,12)"  stroke="rgb(255,12,12)" stroke-width="1" font-size="16" >OH</text>
<text x="168.791608" y="282.378109" fill="rgb(255,12,12)"  stroke="rgb(255,12,12)" stroke-width="1" font-size="16" >HO</text>
<text x="212.144393" y="120.092680" fill="rgb(255,12,12)"  stroke="rgb(255,12,12)" stroke-width="1" font-size="16" >OH</text>
<text x="149.304429" y="213.170965" fill="rgb(255,12,12)"  stroke="rgb(255,12,12)" stroke-width="1" font-size="16" >HO</text>
<text x="300.337143" y="204.563786" fill="rgb(255,12,12)"  stroke="rgb(255,12,12)" stroke-width="1" font-size="32" >-</text>
<text x="301.537143" y="190.163786" fill="rgb(255,12,12)"  stroke="rgb(255,12,12)" stroke-width="1" font-size="16" >O</text>
<text x="339.311502" y="139.989427" fill="rgb(255,12,12)"  stroke="rgb(255,12,12)" stroke-width="1" font-size="32" >-</text>
<text x="338.111502" y="154.709427" fill="rgb(255,12,12)"  stroke="rgb(255,12,12)" stroke-width="1" font-size="16" >O</text>
<text x="377.085860" y="190.163786" fill="rgb(255,12,12)"  stroke="rgb(255,12,12)" stroke-width="1" font-size="16" >O</text>
<text x="338.111502" y="229.138145" fill="rgb(255,12,12)"  stroke="rgb(255,12,12)" stroke-width="1" font-size="16" >O</text>
<text x="129.164407" y="157.739020" fill="rgb(255,12,12)"  stroke="rgb(255,12,12)" stroke-width="1" font-size="16" >O</text>
<text x="251.118752" y="198.905360" fill="rgb(255,12,12)"  stroke="rgb(255,12,12)" stroke-width="1" font-size="16" >O</text>
<text x="176.898053" y="185.298053" fill="rgb(255,12,12)"  stroke="rgb(255,12,12)" stroke-width="1" font-size="16" >O</text>
<text x="338.111502" y="190.163786" fill="rgb(255,127,0)"  stroke="rgb(255,127,0)" stroke-width="1" font-size="16" >P</text>
<text x="77.879287" y="102.779548" fill="rgb(191,191,191)"  stroke="rgb(191,191,191)" stroke-width="1" font-size="16" >H</text>
<text x="304.358717" y="213.170965" fill="rgb(191,191,191)"  stroke="rgb(191,191,191)" stroke-width="1" font-size="16" >H</text>
<text x="36.400000" y="75.879034" fill="rgb(191,191,191)"  stroke="rgb(191,191,191)" stroke-width="1" font-size="16" >H</text>
<text x="284.871537" y="282.378109" fill="rgb(191,191,191)"  stroke="rgb(191,191,191)" stroke-width="1" font-size="16" >H</text>
<text x="139.251713" y="48.320000" fill="rgb(191,191,191)"  stroke="rgb(191,191,191)" stroke-width="1" font-size="16" >H</text>
<text x="212.144393" y="301.865288" fill="rgb(191,191,191)"  stroke="rgb(191,191,191)" stroke-width="1" font-size="16" >H</text>
<text x="202.057087" y="85.966340" fill="rgb(191,191,191)"  stroke="rgb(191,191,191)" stroke-width="1" font-size="16" >H</text>
<text x="161.304429" y="248.625324" fill="rgb(191,191,191)"  stroke="rgb(191,191,191)" stroke-width="1" font-size="16" >H</text>
<text x="202.057087" y="157.739020" fill="rgb(191,191,191)"  stroke="rgb(191,191,191)" stroke-width="1" font-size="16" >H</text>
<text x="235.870480" y="167.984922" fill="rgb(191,191,191)"  stroke="rgb(191,191,191)" stroke-width="1" font-size="16" >H</text>
<text font-size="18.000000" fill ="black" font-family="sans-serif"
x="140.000000" y="20.000000" ></text>
<title> - OBDepict</title>
</svg>
