<?xml version="1.0"?>
<svg xmlns="http://www.w3.org/2000/svg"
xmlns:xlink="http://www.w3.org/1999/xlink" xmlns:cml="http://www.xml-cml.org/schema" width="218.564" height="300" x="0" y="0" font-family="sans-serif" stroke="rgb(0,0,0)" stroke-width="1" >
<line x1="143.9" y1="249.6" x2="143.9" y2="220.0"/>
<line x1="169.6" y1="205.2" x2="143.9" y2="220.0"/>
<line x1="143.9" y1="220.0" x2="109.3" y2="200.0"/>
<line x1="109.3" y1="80.0" x2="109.3" y2="50.4"/>
<line x1="74.6" y1="140.0" x2="49.0" y2="154.8"/>
<line x1="143.9" y1="140.0" x2="169.6" y2="154.8"/>
<line x1="109.3" y1="160.0" x2="109.3" y2="200.0"/>
<line x1="110.8" y1="202.6" x2="85.1" y2="217.4"/>
<line x1="107.8" y1="197.4" x2="82.1" y2="212.2"/>
<line x1="74.6" y1="100.0" x2="74.6" y2="140.0"/>
<line x1="74.6" y1="140.0" x2="109.3" y2="160.0"/>
<line x1="83.4" y1="136.8" x2="107.7" y2="150.8"/>
<line x1="109.3" y1="160.0" x2="143.9" y2="140.0"/>
<line x1="143.9" y1="140.0" x2="143.9" y2="100.0"/>
<line x1="136.7" y1="134.0" x2="136.7" y2="106.0"/>
<line x1="143.9" y1="100.0" x2="109.3" y2="80.0"/>
<line x1="109.3" y1="80.0" x2="74.6" y2="100.0"/>
<line x1="107.7" y1="89.2" x2="83.4" y2="103.2"/>
<text x="137.923048" y="264.800000" fill="rgb(102,102,102)"  stroke="rgb(102,102,102)" stroke-width="1" font-size="16" >CH</text>
<text x="161.923048" y="269.600000" fill="rgb(102,102,102)"  stroke="rgb(102,102,102)" stroke-width="1" font-size="13" >3</text>
<text x="172.564065" y="208.320000" fill="rgb(102,102,102)"  stroke="rgb(102,102,102)" stroke-width="1" font-size="16" >CH</text>
<text x="196.564065" y="216.000000" fill="rgb(102,102,102)"  stroke="rgb(102,102,102)" stroke-width="1" font-size="13" >3</text>
<text x="103.282032" y="48.320000" fill="rgb(255,12,12)"  stroke="rgb(255,12,12)" stroke-width="1" font-size="16" >OH</text>
<text x="24.400000" y="164.800000" fill="rgb(255,12,12)"  stroke="rgb(255,12,12)" stroke-width="1" font-size="16" >HO</text>
<text x="172.564065" y="164.800000" fill="rgb(255,12,12)"  stroke="rgb(255,12,12)" stroke-width="1" font-size="16" >OH</text>
<text x="71.041016" y="224.800000" fill="rgb(255,12,12)"  stroke="rgb(255,12,12)" stroke-width="1" font-size="16" >O</text>
<text font-size="18.000000" fill ="black" font-family="sans-serif"
x="140.000000" y="20.000000" ></text>
<title> - OBDepict</title>
</svg>
