<?xml version="1.0"?>
<svg xmlns="http://www.w3.org/2000/svg"
xmlns:xlink="http://www.w3.org/1999/xlink" xmlns:cml="http://www.xml-cml.org/schema" width="800" height="703.538" x="0" y="0" font-family="sans-serif" stroke="rgb(0,0,0)" stroke-width="1" >
<line x1="754.8" y1="100.3" x2="740.0" y2="74.6"/>
<line x1="249.6" y1="490.3" x2="220.0" y2="490.3"/>
<line x1="418.9" y1="335.7" x2="399.7" y2="335.7"/>
<line x1="389.3" y1="306.1" x2="389.3" y2="325.3"/>
<line x1="359.7" y1="335.7" x2="378.9" y2="335.7"/>
<line x1="740.0" y1="74.6" x2="700.0" y2="74.6"/>
<line x1="220.0" y1="490.3" x2="200.0" y2="525.0"/>
<line x1="700.0" y1="74.6" x2="685.2" y2="49.0"/>
<line x1="702.6" y1="76.1" x2="682.6" y2="110.8"/>
<line x1="697.4" y1="73.1" x2="677.4" y2="107.8"/>
<line x1="200.0" y1="525.0" x2="160.0" y2="525.0"/>
<line x1="680.0" y1="109.3" x2="650.4" y2="109.3"/>
<line x1="680.0" y1="109.3" x2="700.0" y2="143.9"/>
<line x1="160.0" y1="525.0" x2="140.0" y2="490.3"/>
<line x1="700.0" y1="143.9" x2="680.0" y2="178.6"/>
<line x1="140.0" y1="490.3" x2="100.0" y2="490.3"/>
<line x1="680.0" y1="178.6" x2="650.4" y2="178.6"/>
<line x1="682.6" y1="177.1" x2="702.6" y2="211.7"/>
<line x1="677.4" y1="180.1" x2="697.4" y2="214.7"/>
<line x1="100.0" y1="490.3" x2="85.2" y2="464.7"/>
<line x1="102.6" y1="491.8" x2="82.6" y2="526.5"/>
<line x1="97.4" y1="488.8" x2="77.4" y2="523.5"/>
<line x1="700.0" y1="213.2" x2="729.6" y2="213.2"/>
<line x1="700.0" y1="213.2" x2="680.0" y2="247.8"/>
<line x1="80.0" y1="525.0" x2="50.4" y2="525.0"/>
<line x1="80.0" y1="525.0" x2="100.0" y2="559.6"/>
<line x1="680.0" y1="247.8" x2="700.0" y2="282.5"/>
<line x1="100.0" y1="559.6" x2="80.0" y2="594.3"/>
<line x1="700.0" y1="282.5" x2="729.6" y2="282.5"/>
<line x1="702.6" y1="284.0" x2="682.6" y2="318.6"/>
<line x1="697.4" y1="281.0" x2="677.4" y2="315.6"/>
<line x1="80.0" y1="594.3" x2="50.4" y2="594.3"/>
<line x1="82.6" y1="592.8" x2="102.6" y2="627.4"/>
<line x1="77.4" y1="595.8" x2="97.4" y2="630.4"/>
<line x1="680.0" y1="317.1" x2="694.8" y2="342.8"/>
<line x1="680.0" y1="317.1" x2="640.0" y2="317.1"/>
<line x1="100.0" y1="628.9" x2="85.2" y2="654.5"/>
<line x1="100.0" y1="628.9" x2="140.0" y2="628.9"/>
<line x1="640.0" y1="317.1" x2="620.0" y2="351.8"/>
<line x1="140.0" y1="628.9" x2="160.0" y2="594.3"/>
<line x1="620.0" y1="351.8" x2="580.0" y2="351.8"/>
<line x1="160.0" y1="594.3" x2="200.0" y2="594.3"/>
<line x1="580.0" y1="351.8" x2="560.0" y2="386.4"/>
<line x1="200.0" y1="594.3" x2="220.0" y2="559.6"/>
<line x1="560.0" y1="386.4" x2="520.0" y2="386.4"/>
<line x1="220.0" y1="559.6" x2="260.0" y2="559.6"/>
<line x1="520.0" y1="386.4" x2="500.0" y2="421.1"/>
<line x1="260.0" y1="559.6" x2="280.0" y2="525.0"/>
<line x1="500.0" y1="421.1" x2="460.0" y2="421.1"/>
<line x1="280.0" y1="525.0" x2="320.0" y2="525.0"/>
<line x1="460.0" y1="421.1" x2="440.0" y2="455.7"/>
<line x1="320.0" y1="525.0" x2="340.0" y2="559.6"/>
<line x1="389.3" y1="375.7" x2="354.6" y2="395.7"/>
<line x1="389.3" y1="375.7" x2="389.3" y2="346.1"/>
<line x1="354.6" y1="395.7" x2="354.6" y2="425.3"/>
<line x1="440.0" y1="525.0" x2="400.0" y2="525.0"/>
<line x1="440.0" y1="525.0" x2="454.8" y2="499.3"/>
<line x1="380.0" y1="490.3" x2="400.0" y2="525.0"/>
<line x1="380.0" y1="490.3" x2="350.4" y2="490.3"/>
<line x1="400.0" y1="525.0" x2="385.2" y2="550.6"/>
<line x1="440.0" y1="458.7" x2="410.4" y2="458.7"/>
<line x1="440.0" y1="452.7" x2="410.4" y2="452.7"/>
<line x1="440.0" y1="455.7" x2="454.8" y2="481.3"/>
<line x1="342.6" y1="561.1" x2="327.8" y2="586.7"/>
<line x1="337.4" y1="558.1" x2="322.6" y2="583.7"/>
<line x1="340.0" y1="559.6" x2="369.6" y2="559.6"/>
<line x1="292.9" y1="467.9" x2="309.5" y2="458.3"/>
<line x1="295.9" y1="473.1" x2="312.5" y2="463.5"/>
<line x1="305.2" y1="430.1" x2="314.8" y2="446.7"/>
<line x1="345.6" y1="440.9" x2="329.0" y2="450.5"/>
<line x1="334.8" y1="481.3" x2="325.2" y2="464.7"/>
<text x="754.000000" y="114.082032" fill="rgb(102,102,102)"  stroke="rgb(102,102,102)" stroke-width="1" font-size="16" >CH</text>
<text x="778.000000" y="118.882032" fill="rgb(102,102,102)"  stroke="rgb(102,102,102)" stroke-width="1" font-size="13" >3</text>
<text x="254.000000" y="495.133210" fill="rgb(102,102,102)"  stroke="rgb(102,102,102)" stroke-width="1" font-size="16" >CH</text>
<text x="278.000000" y="499.933210" fill="rgb(102,102,102)"  stroke="rgb(102,102,102)" stroke-width="1" font-size="13" >3</text>
<text x="423.282032" y="344.012194" fill="rgb(102,102,102)"  stroke="rgb(102,102,102)" stroke-width="1" font-size="16" >CH</text>
<text x="447.282032" y="351.692194" fill="rgb(102,102,102)"  stroke="rgb(102,102,102)" stroke-width="1" font-size="13" >3</text>
<text x="383.282032" y="304.012194" fill="rgb(102,102,102)"  stroke="rgb(102,102,102)" stroke-width="1" font-size="16" >CH</text>
<text x="407.282032" y="311.692194" fill="rgb(102,102,102)"  stroke="rgb(102,102,102)" stroke-width="1" font-size="13" >3</text>
<text x="325.682032" y="340.492194" fill="rgb(102,102,102)"  stroke="rgb(102,102,102)" stroke-width="1" font-size="16" >H</text>
<text x="337.682032" y="345.292194" fill="rgb(102,102,102)"  stroke="rgb(102,102,102)" stroke-width="1" font-size="13" >3</text>
<text x="344.182032" y="340.492194" fill="rgb(102,102,102)"  stroke="rgb(102,102,102)" stroke-width="1" font-size="16" >C</text>
<text x="384.482032" y="354.892194" fill="rgb(12,12,255)"  stroke="rgb(12,12,255)" stroke-width="1" font-size="16" >+</text>
<text x="383.282032" y="340.492194" fill="rgb(12,12,255)"  stroke="rgb(12,12,255)" stroke-width="1" font-size="16" >N</text>
<text x="396.400000" y="460.492194" fill="rgb(255,12,12)"  stroke="rgb(255,12,12)" stroke-width="1" font-size="16" >O</text>
<text x="316.400000" y="599.056258" fill="rgb(255,12,12)"  stroke="rgb(255,12,12)" stroke-width="1" font-size="16" >O</text>
<text x="281.758984" y="480.492194" fill="rgb(255,12,12)"  stroke="rgb(255,12,12)" stroke-width="1" font-size="16" >O</text>
<text x="295.200000" y="414.651178" fill="rgb(255,12,12)"  stroke="rgb(255,12,12)" stroke-width="1" font-size="32" >-</text>
<text x="296.400000" y="429.371178" fill="rgb(255,12,12)"  stroke="rgb(255,12,12)" stroke-width="1" font-size="16" >O</text>
<text x="454.000000" y="495.133210" fill="rgb(255,12,12)"  stroke="rgb(255,12,12)" stroke-width="1" font-size="16" >O</text>
<text x="348.641016" y="440.492194" fill="rgb(255,12,12)"  stroke="rgb(255,12,12)" stroke-width="1" font-size="16" >O</text>
<text x="336.400000" y="495.133210" fill="rgb(255,12,12)"  stroke="rgb(255,12,12)" stroke-width="1" font-size="16" >O</text>
<text x="374.000000" y="564.415242" fill="rgb(255,12,12)"  stroke="rgb(255,12,12)" stroke-width="1" font-size="16" >O</text>
<text x="314.000000" y="460.492194" fill="rgb(255,127,0)"  stroke="rgb(255,127,0)" stroke-width="1" font-size="16" >P</text>
<text x="676.400000" y="48.320000" fill="rgb(191,191,191)"  stroke="rgb(191,191,191)" stroke-width="1" font-size="16" >H</text>
<text x="636.400000" y="117.602032" fill="rgb(191,191,191)"  stroke="rgb(191,191,191)" stroke-width="1" font-size="16" >H</text>
<text x="636.400000" y="186.884065" fill="rgb(191,191,191)"  stroke="rgb(191,191,191)" stroke-width="1" font-size="16" >H</text>
<text x="76.400000" y="464.012194" fill="rgb(191,191,191)"  stroke="rgb(191,191,191)" stroke-width="1" font-size="16" >H</text>
<text x="734.000000" y="221.525081" fill="rgb(191,191,191)"  stroke="rgb(191,191,191)" stroke-width="1" font-size="16" >H</text>
<text x="36.400000" y="529.774226" fill="rgb(191,191,191)"  stroke="rgb(191,191,191)" stroke-width="1" font-size="16" >H</text>
<text x="734.000000" y="287.287113" fill="rgb(191,191,191)"  stroke="rgb(191,191,191)" stroke-width="1" font-size="16" >H</text>
<text x="36.400000" y="599.056258" fill="rgb(191,191,191)"  stroke="rgb(191,191,191)" stroke-width="1" font-size="16" >H</text>
<text x="694.000000" y="356.569145" fill="rgb(191,191,191)"  stroke="rgb(191,191,191)" stroke-width="1" font-size="16" >H</text>
<text x="76.400000" y="668.338291" fill="rgb(191,191,191)"  stroke="rgb(191,191,191)" stroke-width="1" font-size="16" >H</text>
<text font-size="18.000000" fill ="black" font-family="sans-serif"
x="140.000000" y="20.000000" ></text>
<title> - OBDepict</title>
</svg>
