<?xml version="1.0"?>
<svg xmlns="http://www.w3.org/2000/svg"
xmlns:xlink="http://www.w3.org/1999/xlink" xmlns:cml="http://www.xml-cml.org/schema" width="333.205" height="294.641" x="0" y="0" font-family="sans-serif" stroke="rgb(0,0,0)" stroke-width="1" >
<line x1="42.4" y1="244.2" x2="42.4" y2="214.6"/>
<line x1="48.4" y1="244.2" x2="48.4" y2="214.6"/>
<line x1="65.2" y1="129.0" x2="80.0" y2="154.6"/>
<line x1="233.4" y1="49.0" x2="218.6" y2="74.6"/>
<line x1="203.8" y1="49.0" x2="218.6" y2="74.6"/>
<polygon points="183.923048 134.641016 179.923048 161.441016 187.923048 161.441016 " />
<line x1="45.4" y1="214.6" x2="80.0" y2="194.6"/>
<polygon points="53.200000 154.641016 80.000000 158.641016 80.000000 150.641016 " />
<polygon points="91.431535 121.241016 112.641016 138.105118 116.641016 131.176915 " />
<line x1="150.8" y1="192.0" x2="176.4" y2="206.8"/>
<line x1="147.8" y1="197.2" x2="173.4" y2="212.0"/>
<line x1="183.5" y1="69.0" x2="184.3" y2="69.0"/>
<line x1="183.1" y1="73.0" x2="184.7" y2="73.0"/>
<line x1="182.7" y1="77.0" x2="185.1" y2="77.0"/>
<line x1="182.3" y1="81.0" x2="185.5" y2="81.0"/>
<line x1="181.9" y1="85.0" x2="185.9" y2="85.0"/>
<line x1="181.5" y1="89.0" x2="186.3" y2="89.0"/>
<line x1="181.1" y1="93.0" x2="186.7" y2="93.0"/>
<line x1="265.7" y1="72.3" x2="266.4" y2="72.7"/>
<line x1="263.3" y1="75.5" x2="264.7" y2="76.3"/>
<line x1="261.0" y1="78.8" x2="263.0" y2="80.0"/>
<line x1="258.6" y1="82.1" x2="261.4" y2="83.7"/>
<line x1="256.3" y1="85.3" x2="259.7" y2="87.3"/>
<line x1="253.9" y1="88.6" x2="258.1" y2="91.0"/>
<line x1="251.6" y1="91.9" x2="256.4" y2="94.7"/>
<line x1="253.2" y1="94.6" x2="282.8" y2="94.6"/>
<line x1="231.7" y1="176.6" x2="231.0" y2="177.0"/>
<line x1="230.1" y1="172.9" x2="228.7" y2="173.7"/>
<line x1="228.4" y1="169.3" x2="226.3" y2="170.5"/>
<line x1="226.7" y1="165.6" x2="224.0" y2="167.2"/>
<line x1="225.1" y1="162.0" x2="221.6" y2="164.0"/>
<line x1="223.4" y1="158.3" x2="219.3" y2="160.7"/>
<line x1="221.8" y1="154.6" x2="216.9" y2="157.4"/>
<line x1="218.6" y1="154.6" x2="203.8" y2="180.3"/>
<line x1="171.7" y1="167.1" x2="171.3" y2="167.8"/>
<line x1="168.4" y1="164.7" x2="167.6" y2="166.1"/>
<line x1="165.1" y1="162.4" x2="163.9" y2="164.5"/>
<line x1="161.9" y1="160.1" x2="160.3" y2="162.8"/>
<line x1="158.6" y1="157.7" x2="156.6" y2="161.2"/>
<line x1="155.3" y1="155.4" x2="152.9" y2="159.5"/>
<line x1="152.1" y1="153.0" x2="149.3" y2="157.9"/>
<line x1="114.6" y1="94.6" x2="149.3" y2="74.6"/>
<line x1="149.3" y1="74.6" x2="183.9" y2="94.6"/>
<line x1="183.9" y1="94.6" x2="183.9" y2="134.6"/>
<line x1="183.9" y1="134.6" x2="149.3" y2="154.6"/>
<line x1="149.3" y1="154.6" x2="114.6" y2="134.6"/>
<line x1="114.6" y1="134.6" x2="114.6" y2="94.6"/>
<line x1="114.6" y1="214.6" x2="80.0" y2="194.6"/>
<line x1="113.0" y1="205.4" x2="88.8" y2="191.4"/>
<line x1="80.0" y1="194.6" x2="80.0" y2="154.6"/>
<line x1="80.0" y1="154.6" x2="114.6" y2="134.6"/>
<line x1="149.3" y1="154.6" x2="149.3" y2="194.6"/>
<line x1="149.3" y1="194.6" x2="114.6" y2="214.6"/>
<line x1="253.2" y1="134.6" x2="218.6" y2="154.6"/>
<line x1="218.6" y1="154.6" x2="183.9" y2="134.6"/>
<line x1="183.9" y1="94.6" x2="218.6" y2="74.6"/>
<line x1="218.6" y1="74.6" x2="253.2" y2="94.6"/>
<line x1="253.2" y1="94.6" x2="253.2" y2="134.6"/>
<text x="39.358984" y="259.441016" fill="rgb(102,102,102)"  stroke="rgb(102,102,102)" stroke-width="1" font-size="16" >CH</text>
<text x="63.358984" y="264.241016" fill="rgb(102,102,102)"  stroke="rgb(102,102,102)" stroke-width="1" font-size="13" >2</text>
<text x="36.400000" y="128.320000" fill="rgb(102,102,102)"  stroke="rgb(102,102,102)" stroke-width="1" font-size="16" >H</text>
<text x="48.400000" y="136.000000" fill="rgb(102,102,102)"  stroke="rgb(102,102,102)" stroke-width="1" font-size="13" >3</text>
<text x="54.900000" y="128.320000" fill="rgb(102,102,102)"  stroke="rgb(102,102,102)" stroke-width="1" font-size="16" >C</text>
<text x="232.564065" y="48.320000" fill="rgb(102,102,102)"  stroke="rgb(102,102,102)" stroke-width="1" font-size="16" >CH</text>
<text x="256.564065" y="56.000000" fill="rgb(102,102,102)"  stroke="rgb(102,102,102)" stroke-width="1" font-size="13" >3</text>
<text x="174.964065" y="48.320000" fill="rgb(102,102,102)"  stroke="rgb(102,102,102)" stroke-width="1" font-size="16" >H</text>
<text x="186.964065" y="56.000000" fill="rgb(102,102,102)"  stroke="rgb(102,102,102)" stroke-width="1" font-size="13" >3</text>
<text x="193.464065" y="48.320000" fill="rgb(102,102,102)"  stroke="rgb(102,102,102)" stroke-width="1" font-size="16" >C</text>
<text x="177.923048" y="179.441016" fill="rgb(102,102,102)"  stroke="rgb(102,102,102)" stroke-width="1" font-size="16" >CH</text>
<text x="201.923048" y="184.241016" fill="rgb(102,102,102)"  stroke="rgb(102,102,102)" stroke-width="1" font-size="13" >3</text>
<text x="177.923048" y="219.441016" fill="rgb(255,12,12)"  stroke="rgb(255,12,12)" stroke-width="1" font-size="16" >O</text>
<text x="287.205081" y="99.441016" fill="rgb(255,12,12)"  stroke="rgb(255,12,12)" stroke-width="1" font-size="16" >OH</text>
<text x="182.964065" y="194.082032" fill="rgb(255,12,12)"  stroke="rgb(255,12,12)" stroke-width="1" font-size="16" >HO</text>
<text x="36.400000" y="162.961016" fill="rgb(191,191,191)"  stroke="rgb(191,191,191)" stroke-width="1" font-size="16" >H</text>
<text x="76.400000" y="122.961016" fill="rgb(191,191,191)"  stroke="rgb(191,191,191)" stroke-width="1" font-size="16" >H</text>
<text x="177.923048" y="62.961016" fill="rgb(191,191,191)"  stroke="rgb(191,191,191)" stroke-width="1" font-size="16" >H</text>
<text x="267.205081" y="68.320000" fill="rgb(191,191,191)"  stroke="rgb(191,191,191)" stroke-width="1" font-size="16" >H</text>
<text x="232.564065" y="194.082032" fill="rgb(191,191,191)"  stroke="rgb(191,191,191)" stroke-width="1" font-size="16" >H</text>
<text x="177.923048" y="179.441016" fill="rgb(191,191,191)"  stroke="rgb(191,191,191)" stroke-width="1" font-size="16" >H</text>
<text font-size="18.000000" fill ="black" font-family="sans-serif"
x="140.000000" y="20.000000" ></text>
<title> - OBDepict</title>
</svg>
