<?xml version="1.0"?>
<svg xmlns="http://www.w3.org/2000/svg"
xmlns:xlink="http://www.w3.org/1999/xlink" xmlns:cml="http://www.xml-cml.org/schema" width="391.769" height="380" x="0" y="0" font-family="sans-serif" stroke="rgb(0,0,0)" stroke-width="1" >
<line x1="342.8" y1="285.2" x2="317.1" y2="300.0"/>
<line x1="317.1" y1="329.6" x2="317.1" y2="300.0"/>
<line x1="238.8" y1="225.2" x2="213.2" y2="240.0"/>
<line x1="109.3" y1="209.6" x2="109.3" y2="180.0"/>
<line x1="40.0" y1="70.4" x2="40.0" y2="89.6"/>
<line x1="134.9" y1="45.2" x2="118.3" y2="54.8"/>
<line x1="247.8" y1="300.0" x2="282.5" y2="280.0"/>
<line x1="247.8" y1="300.0" x2="213.2" y2="280.0"/>
<line x1="284.0" y1="277.4" x2="318.6" y2="297.4"/>
<line x1="281.0" y1="282.6" x2="315.6" y2="302.6"/>
<line x1="213.2" y1="280.0" x2="213.2" y2="240.0"/>
<line x1="178.6" y1="220.0" x2="152.9" y2="234.8"/>
<line x1="178.6" y1="220.0" x2="178.6" y2="180.0"/>
<line x1="180.1" y1="217.4" x2="214.7" y2="237.4"/>
<line x1="177.1" y1="222.6" x2="211.7" y2="242.6"/>
<line x1="178.6" y1="180.0" x2="204.2" y2="165.2"/>
<line x1="177.1" y1="182.6" x2="142.4" y2="162.6"/>
<line x1="180.1" y1="177.4" x2="145.4" y2="157.4"/>
<line x1="76.1" y1="162.6" x2="50.5" y2="177.4"/>
<line x1="73.1" y1="157.4" x2="47.5" y2="172.2"/>
<line x1="142.4" y1="117.4" x2="168.1" y2="102.6"/>
<line x1="145.4" y1="122.6" x2="171.1" y2="107.8"/>
<line x1="74.6" y1="120.0" x2="49.0" y2="105.2"/>
<line x1="109.3" y1="100.0" x2="109.3" y2="70.4"/>
<line x1="109.3" y1="180.0" x2="74.6" y2="160.0"/>
<line x1="74.6" y1="160.0" x2="74.6" y2="120.0"/>
<line x1="74.6" y1="120.0" x2="109.3" y2="100.0"/>
<line x1="83.4" y1="123.2" x2="107.7" y2="109.2"/>
<line x1="109.3" y1="100.0" x2="143.9" y2="120.0"/>
<line x1="143.9" y1="120.0" x2="143.9" y2="160.0"/>
<line x1="143.9" y1="160.0" x2="109.3" y2="180.0"/>
<text x="345.769145" y="288.320000" fill="rgb(102,102,102)"  stroke="rgb(102,102,102)" stroke-width="1" font-size="16" >CH</text>
<text x="369.769145" y="296.000000" fill="rgb(102,102,102)"  stroke="rgb(102,102,102)" stroke-width="1" font-size="13" >3</text>
<text x="311.128129" y="344.800000" fill="rgb(102,102,102)"  stroke="rgb(102,102,102)" stroke-width="1" font-size="16" >CH</text>
<text x="335.128129" y="349.600000" fill="rgb(102,102,102)"  stroke="rgb(102,102,102)" stroke-width="1" font-size="13" >3</text>
<text x="241.846097" y="228.320000" fill="rgb(102,102,102)"  stroke="rgb(102,102,102)" stroke-width="1" font-size="16" >CH</text>
<text x="265.846097" y="236.000000" fill="rgb(102,102,102)"  stroke="rgb(102,102,102)" stroke-width="1" font-size="13" >3</text>
<text x="103.282032" y="224.800000" fill="rgb(102,102,102)"  stroke="rgb(102,102,102)" stroke-width="1" font-size="16" >CH</text>
<text x="127.282032" y="229.600000" fill="rgb(102,102,102)"  stroke="rgb(102,102,102)" stroke-width="1" font-size="13" >3</text>
<text x="34.000000" y="68.320000" fill="rgb(102,102,102)"  stroke="rgb(102,102,102)" stroke-width="1" font-size="16" >CH</text>
<text x="58.000000" y="76.000000" fill="rgb(102,102,102)"  stroke="rgb(102,102,102)" stroke-width="1" font-size="13" >3</text>
<text x="137.923048" y="48.320000" fill="rgb(102,102,102)"  stroke="rgb(102,102,102)" stroke-width="1" font-size="16" >CH</text>
<text x="161.923048" y="56.000000" fill="rgb(102,102,102)"  stroke="rgb(102,102,102)" stroke-width="1" font-size="13" >3</text>
<text x="36.400000" y="184.800000" fill="rgb(255,12,12)"  stroke="rgb(255,12,12)" stroke-width="1" font-size="16" >O</text>
<text x="172.564065" y="108.320000" fill="rgb(255,12,12)"  stroke="rgb(255,12,12)" stroke-width="1" font-size="16" >O</text>
<text x="36.400000" y="104.800000" fill="rgb(255,12,12)"  stroke="rgb(255,12,12)" stroke-width="1" font-size="16" >O</text>
<text x="105.682032" y="68.320000" fill="rgb(255,12,12)"  stroke="rgb(255,12,12)" stroke-width="1" font-size="16" >O</text>
<text x="140.323048" y="244.800000" fill="rgb(191,191,191)"  stroke="rgb(191,191,191)" stroke-width="1" font-size="16" >H</text>
<text x="207.205081" y="168.320000" fill="rgb(191,191,191)"  stroke="rgb(191,191,191)" stroke-width="1" font-size="16" >H</text>
<text font-size="18.000000" fill ="black" font-family="sans-serif"
x="140.000000" y="20.000000" ></text>
<title> - OBDepict</title>
</svg>
