<?xml version="1.0"?>
<svg xmlns="http://www.w3.org/2000/svg"
xmlns:xlink="http://www.w3.org/1999/xlink" xmlns:cml="http://www.xml-cml.org/schema" width="390.386" height="248.52" x="0" y="0" font-family="sans-serif" stroke="rgb(0,0,0)" stroke-width="1" >
<line x1="183.3" y1="121.7" x2="145.9" y2="131.7"/>
<line x1="183.3" y1="121.7" x2="203.6" y2="141.9"/>
<polygon points="309.646973 59.146771 299.063680 83.189344 306.791087 85.259897 " />
<line x1="302.9" y1="84.2" x2="330.6" y2="76.8"/>
<polygon points="139.089396 183.164259 149.832748 132.205589 141.901189 131.161380 " />
<polygon points="338.034471 114.934657 311.921345 117.790543 313.991898 125.517950 " />
<line x1="313.0" y1="121.7" x2="333.2" y2="141.9"/>
<line x1="125.1" y1="172.3" x2="124.4" y2="172.7"/>
<line x1="123.5" y1="168.8" x2="122.1" y2="169.6"/>
<line x1="121.9" y1="165.2" x2="119.8" y2="166.4"/>
<line x1="120.3" y1="161.7" x2="117.5" y2="163.3"/>
<line x1="118.7" y1="158.1" x2="115.2" y2="160.1"/>
<line x1="117.1" y1="154.6" x2="112.9" y2="157.0"/>
<line x1="115.5" y1="151.0" x2="110.7" y2="153.8"/>
<line x1="112.3" y1="151.1" x2="98.0" y2="175.9"/>
<polygon points="65.768750 154.167669 82.214102 133.683484 75.285898 129.683484 " />
<line x1="78.8" y1="131.7" x2="50.1" y2="131.7"/>
<line x1="54.0" y1="93.3" x2="54.0" y2="92.5"/>
<line x1="57.8" y1="93.7" x2="57.8" y2="92.1"/>
<line x1="61.7" y1="94.1" x2="61.7" y2="91.7"/>
<line x1="65.6" y1="94.5" x2="65.6" y2="91.3"/>
<line x1="69.5" y1="94.9" x2="69.5" y2="90.9"/>
<line x1="73.3" y1="95.3" x2="73.3" y2="90.5"/>
<line x1="77.2" y1="95.7" x2="77.2" y2="90.1"/>
<line x1="78.8" y1="92.9" x2="64.4" y2="68.1"/>
<line x1="303.4" y1="166.3" x2="302.8" y2="166.9"/>
<line x1="300.9" y1="163.3" x2="299.8" y2="164.4"/>
<line x1="298.5" y1="160.3" x2="296.8" y2="162.0"/>
<line x1="296.0" y1="157.2" x2="293.7" y2="159.5"/>
<line x1="293.5" y1="154.2" x2="290.7" y2="157.0"/>
<line x1="291.1" y1="151.2" x2="287.7" y2="154.6"/>
<line x1="288.6" y1="148.2" x2="284.7" y2="152.1"/>
<line x1="285.6" y1="149.1" x2="278.1" y2="176.8"/>
<line x1="112.3" y1="73.6" x2="98.0" y2="48.7"/>
<line x1="112.3" y1="73.6" x2="126.6" y2="48.7"/>
<polygon points="241.407019 164.103245 251.990311 140.060672 244.262905 137.990120 " />
<line x1="248.1" y1="139.0" x2="220.4" y2="146.4"/>
<line x1="145.9" y1="131.7" x2="112.3" y2="151.1"/>
<line x1="112.3" y1="151.1" x2="78.8" y2="131.7"/>
<line x1="78.8" y1="131.7" x2="78.8" y2="92.9"/>
<line x1="78.8" y1="92.9" x2="112.3" y2="73.6"/>
<line x1="112.3" y1="73.6" x2="137.1" y2="87.9"/>
<line x1="145.9" y1="103.0" x2="145.9" y2="131.7"/>
<line x1="265.5" y1="74.2" x2="302.9" y2="84.2"/>
<line x1="302.9" y1="84.2" x2="313.0" y2="121.7"/>
<line x1="313.0" y1="121.7" x2="285.6" y2="149.1"/>
<line x1="285.6" y1="149.1" x2="248.1" y2="139.0"/>
<line x1="248.1" y1="139.0" x2="240.7" y2="111.3"/>
<line x1="245.2" y1="94.5" x2="265.5" y2="74.2"/>
<text x="334.357009" y="82.515383" fill="rgb(255,12,12)"  stroke="rgb(255,12,12)" stroke-width="1" font-size="16" >OH</text>
<text x="334.357009" y="153.854634" fill="rgb(255,12,12)"  stroke="rgb(255,12,12)" stroke-width="1" font-size="16" >OH</text>
<text x="77.333484" y="189.416969" fill="rgb(255,12,12)"  stroke="rgb(255,12,12)" stroke-width="1" font-size="16" >HO</text>
<text x="24.400000" y="136.483484" fill="rgb(255,12,12)"  stroke="rgb(255,12,12)" stroke-width="1" font-size="16" >HO</text>
<text x="43.775000" y="67.695000" fill="rgb(255,12,12)"  stroke="rgb(255,12,12)" stroke-width="1" font-size="16" >HO</text>
<text x="259.926996" y="191.284260" fill="rgb(255,12,12)"  stroke="rgb(255,12,12)" stroke-width="1" font-size="16" >HO</text>
<text x="125.683484" y="48.320000" fill="rgb(255,12,12)"  stroke="rgb(255,12,12)" stroke-width="1" font-size="16" >OH</text>
<text x="234.497370" y="109.915770" fill="rgb(255,12,12)"  stroke="rgb(255,12,12)" stroke-width="1" font-size="16" >O</text>
<text x="207.096982" y="153.854634" fill="rgb(255,12,12)"  stroke="rgb(255,12,12)" stroke-width="1" font-size="16" >O</text>
<text x="139.866969" y="101.253484" fill="rgb(255,12,12)"  stroke="rgb(255,12,12)" stroke-width="1" font-size="16" >O</text>
<text x="306.956622" y="55.114995" fill="rgb(191,191,191)"  stroke="rgb(191,191,191)" stroke-width="1" font-size="16" >H</text>
<text x="132.151189" y="213.320461" fill="rgb(191,191,191)"  stroke="rgb(191,191,191)" stroke-width="1" font-size="16" >H</text>
<text x="344.386247" y="119.945008" fill="rgb(191,191,191)"  stroke="rgb(191,191,191)" stroke-width="1" font-size="16" >H</text>
<text x="125.683484" y="189.416969" fill="rgb(191,191,191)"  stroke="rgb(191,191,191)" stroke-width="1" font-size="16" >H</text>
<text x="55.775000" y="170.041969" fill="rgb(191,191,191)"  stroke="rgb(191,191,191)" stroke-width="1" font-size="16" >H</text>
<text x="36.400000" y="101.253484" fill="rgb(191,191,191)"  stroke="rgb(191,191,191)" stroke-width="1" font-size="16" >H</text>
<text x="306.956622" y="181.255022" fill="rgb(191,191,191)"  stroke="rgb(191,191,191)" stroke-width="1" font-size="16" >H</text>
<text x="89.333484" y="48.320000" fill="rgb(191,191,191)"  stroke="rgb(191,191,191)" stroke-width="1" font-size="16" >H</text>
<text x="234.497370" y="181.255022" fill="rgb(191,191,191)"  stroke="rgb(191,191,191)" stroke-width="1" font-size="16" >H</text>
<text font-size="18.000000" fill ="black" font-family="sans-serif"
x="140.000000" y="20.000000" ></text>
<title> - OBDepict</title>
</svg>
