<?xml version="1.0"?>
<svg xmlns="http://www.w3.org/2000/svg"
xmlns:xlink="http://www.w3.org/1999/xlink" xmlns:cml="http://www.xml-cml.org/schema" width="287.846" height="220" x="0" y="0" font-family="sans-serif" stroke="rgb(0,0,0)" stroke-width="1" >
<line x1="49.0" y1="54.8" x2="74.6" y2="40.0"/>
<line x1="100.3" y1="174.8" x2="74.6" y2="160.0"/>
<line x1="238.8" y1="174.8" x2="213.2" y2="160.0"/>
<line x1="74.6" y1="40.0" x2="109.3" y2="60.0"/>
<line x1="74.6" y1="160.0" x2="74.6" y2="120.0"/>
<line x1="213.2" y1="160.0" x2="213.2" y2="120.0"/>
<line x1="109.3" y1="60.0" x2="109.3" y2="89.6"/>
<line x1="74.6" y1="120.0" x2="100.3" y2="105.2"/>
<line x1="213.2" y1="120.0" x2="187.6" y2="105.2"/>
<line x1="143.9" y1="120.0" x2="118.3" y2="105.2"/>
<line x1="146.9" y1="120.0" x2="146.9" y2="149.6"/>
<line x1="140.9" y1="120.0" x2="140.9" y2="149.6"/>
<line x1="143.9" y1="120.0" x2="169.6" y2="105.2"/>
<text x="16.400000" y="64.800000" fill="rgb(102,102,102)"  stroke="rgb(102,102,102)" stroke-width="1" font-size="16" >H</text>
<text x="28.400000" y="69.600000" fill="rgb(102,102,102)"  stroke="rgb(102,102,102)" stroke-width="1" font-size="13" >3</text>
<text x="34.900000" y="64.800000" fill="rgb(102,102,102)"  stroke="rgb(102,102,102)" stroke-width="1" font-size="16" >C</text>
<text x="103.282032" y="184.800000" fill="rgb(102,102,102)"  stroke="rgb(102,102,102)" stroke-width="1" font-size="16" >CH</text>
<text x="127.282032" y="189.600000" fill="rgb(102,102,102)"  stroke="rgb(102,102,102)" stroke-width="1" font-size="13" >3</text>
<text x="241.846097" y="184.800000" fill="rgb(102,102,102)"  stroke="rgb(102,102,102)" stroke-width="1" font-size="16" >CH</text>
<text x="265.846097" y="189.600000" fill="rgb(102,102,102)"  stroke="rgb(102,102,102)" stroke-width="1" font-size="13" >3</text>
<text x="103.282032" y="108.320000" fill="rgb(12,12,255)"  stroke="rgb(12,12,255)" stroke-width="1" font-size="16" >N</text>
<text x="137.923048" y="164.800000" fill="rgb(255,12,12)"  stroke="rgb(255,12,12)" stroke-width="1" font-size="16" >O</text>
<text x="172.564065" y="108.320000" fill="rgb(178,178,0)"  stroke="rgb(178,178,0)" stroke-width="1" font-size="16" >S</text>
<text font-size="18.000000" fill ="black" font-family="sans-serif"
x="140.000000" y="20.000000" ></text>
<title> - OBDepict</title>
</svg>
