<?xml version="1.0"?>
<svg xmlns="http://www.w3.org/2000/svg"
xmlns:xlink="http://www.w3.org/1999/xlink" xmlns:cml="http://www.xml-cml.org/schema" width="329.616" height="315.01" x="0" y="0" font-family="sans-serif" stroke="rgb(0,0,0)" stroke-width="1" >
<line x1="243.4" y1="140.0" x2="243.4" y2="180.0"/>
<line x1="243.4" y1="140.0" x2="217.8" y2="125.2"/>
<polygon points="269.677406 185.331701 244.208892 176.079957 242.617339 183.920043 " />
<line x1="275.2" y1="217.8" x2="275.3" y2="218.6"/>
<line x1="271.2" y1="217.6" x2="271.3" y2="219.2"/>
<line x1="267.2" y1="217.4" x2="267.3" y2="219.8"/>
<line x1="263.2" y1="217.2" x2="263.3" y2="220.4"/>
<line x1="259.2" y1="217.0" x2="259.4" y2="221.0"/>
<line x1="255.1" y1="216.8" x2="255.4" y2="221.6"/>
<line x1="251.1" y1="216.6" x2="251.4" y2="222.2"/>
<line x1="249.7" y1="219.5" x2="265.8" y2="244.3"/>
<line x1="223.6" y1="261.4" x2="222.8" y2="261.7"/>
<line x1="222.5" y1="257.5" x2="221.0" y2="258.1"/>
<line x1="221.5" y1="253.7" x2="219.2" y2="254.5"/>
<line x1="220.4" y1="249.8" x2="217.4" y2="250.9"/>
<line x1="219.3" y1="245.9" x2="215.6" y2="247.3"/>
<line x1="218.3" y1="242.0" x2="213.8" y2="243.8"/>
<line x1="217.2" y1="238.2" x2="212.0" y2="240.2"/>
<line x1="214.0" y1="237.7" x2="195.4" y2="260.7"/>
<line x1="79.9" y1="118.7" x2="50.4" y2="117.1"/>
<polygon points="164.918450 226.248669 188.263243 212.491466 183.228680 206.274299 " />
<line x1="185.7" y1="209.4" x2="158.1" y2="198.8"/>
<line x1="141.7" y1="87.2" x2="157.8" y2="62.4"/>
<line x1="238.4" y1="80.0" x2="219.2" y2="80.0"/>
<line x1="208.8" y1="50.4" x2="208.8" y2="69.6"/>
<line x1="179.2" y1="77.0" x2="198.4" y2="77.0"/>
<line x1="179.2" y1="83.0" x2="198.4" y2="83.0"/>
<line x1="208.8" y1="109.6" x2="208.8" y2="90.4"/>
<line x1="114.9" y1="216.8" x2="139.7" y2="200.7"/>
<line x1="145.7" y1="185.0" x2="138.0" y2="156.4"/>
<line x1="138.0" y1="156.4" x2="98.1" y2="154.3"/>
<line x1="131.7" y1="163.3" x2="103.7" y2="161.8"/>
<line x1="98.1" y1="154.3" x2="87.5" y2="182.0"/>
<line x1="91.9" y1="198.2" x2="114.9" y2="216.8"/>
<line x1="97.9" y1="193.9" x2="114.7" y2="207.5"/>
<line x1="243.4" y1="180.0" x2="249.7" y2="219.5"/>
<line x1="249.7" y1="219.5" x2="214.0" y2="237.7"/>
<line x1="214.0" y1="237.7" x2="185.7" y2="209.4"/>
<line x1="185.7" y1="209.4" x2="199.2" y2="183.0"/>
<line x1="214.2" y1="175.4" x2="243.4" y2="180.0"/>
<line x1="79.9" y1="118.7" x2="98.1" y2="154.3"/>
<line x1="138.0" y1="156.4" x2="154.2" y2="131.6"/>
<line x1="155.1" y1="113.6" x2="141.7" y2="87.2"/>
<line x1="147.8" y1="115.1" x2="138.0" y2="95.8"/>
<line x1="141.7" y1="87.2" x2="112.1" y2="85.7"/>
<line x1="96.1" y1="93.9" x2="79.9" y2="118.7"/>
<line x1="101.0" y1="99.5" x2="89.3" y2="117.6"/>
<text x="80.170083" y="196.460910" fill="rgb(12,12,255)"  stroke="rgb(12,12,255)" stroke-width="1" font-size="16" >N</text>
<text x="153.835544" y="127.664309" fill="rgb(12,12,255)"  stroke="rgb(12,12,255)" stroke-width="1" font-size="16" >N</text>
<text x="98.130743" y="93.450609" fill="rgb(12,12,255)"  stroke="rgb(12,12,255)" stroke-width="1" font-size="16" >N</text>
<text x="142.402745" y="199.848164" fill="rgb(12,12,255)"  stroke="rgb(12,12,255)" stroke-width="1" font-size="16" >N</text>
<text x="265.456055" y="257.854356" fill="rgb(255,12,12)"  stroke="rgb(255,12,12)" stroke-width="1" font-size="16" >OH</text>
<text x="173.257417" y="273.552992" fill="rgb(255,12,12)"  stroke="rgb(255,12,12)" stroke-width="1" font-size="16" >HO</text>
<text x="157.461486" y="61.997225" fill="rgb(255,12,12)"  stroke="rgb(255,12,12)" stroke-width="1" font-size="16" >OH</text>
<text x="242.772099" y="88.320000" fill="rgb(255,12,12)"  stroke="rgb(255,12,12)" stroke-width="1" font-size="16" >OH</text>
<text x="202.772099" y="48.320000" fill="rgb(255,12,12)"  stroke="rgb(255,12,12)" stroke-width="1" font-size="16" >OH</text>
<text x="165.172099" y="84.800000" fill="rgb(255,12,12)"  stroke="rgb(255,12,12)" stroke-width="1" font-size="16" >O</text>
<text x="205.172099" y="124.800000" fill="rgb(255,12,12)"  stroke="rgb(255,12,12)" stroke-width="1" font-size="16" >O</text>
<text x="200.305582" y="182.062621" fill="rgb(255,12,12)"  stroke="rgb(255,12,12)" stroke-width="1" font-size="16" >O</text>
<text x="202.772099" y="84.800000" fill="rgb(255,127,0)"  stroke="rgb(255,127,0)" stroke-width="1" font-size="16" >P</text>
<text x="24.400000" y="124.903994" fill="rgb(178,178,0)"  stroke="rgb(178,178,0)" stroke-width="1" font-size="16" >HS</text>
<text x="276.613549" y="192.757763" fill="rgb(191,191,191)"  stroke="rgb(191,191,191)" stroke-width="1" font-size="16" >H</text>
<text x="283.615675" y="225.734095" fill="rgb(191,191,191)"  stroke="rgb(191,191,191)" stroke-width="1" font-size="16" >H</text>
<text x="222.364951" y="279.810371" fill="rgb(191,191,191)"  stroke="rgb(191,191,191)" stroke-width="1" font-size="16" >H</text>
<text x="151.060123" y="239.355698" fill="rgb(191,191,191)"  stroke="rgb(191,191,191)" stroke-width="1" font-size="16" >H</text>
<text font-size="18.000000" fill ="black" font-family="sans-serif"
x="140.000000" y="20.000000" ></text>
<title> - OBDepict</title>
</svg>
