<?xml version="1.0"?>
<svg xmlns="http://www.w3.org/2000/svg"
xmlns:xlink="http://www.w3.org/1999/xlink" xmlns:cml="http://www.xml-cml.org/schema" width="783.464" height="834.843" x="0" y="0" font-family="sans-serif" stroke="rgb(0,0,0)" stroke-width="1" >
<line x1="617.6" y1="775.3" x2="637.1" y2="794.8"/>
<line x1="362.6" y1="67.1" x2="348.8" y2="91.0"/>
<line x1="323.2" y1="236.5" x2="309.4" y2="260.5"/>
<line x1="637.1" y1="794.8" x2="673.2" y2="785.2"/>
<line x1="673.2" y1="785.2" x2="682.9" y2="749.1"/>
<line x1="682.9" y1="749.1" x2="656.4" y2="722.7"/>
<line x1="656.4" y1="722.7" x2="666.1" y2="686.6"/>
<line x1="666.1" y1="686.6" x2="639.7" y2="660.2"/>
<line x1="639.7" y1="660.2" x2="649.4" y2="624.1"/>
<line x1="649.4" y1="624.1" x2="623.0" y2="597.7"/>
<line x1="623.0" y1="597.7" x2="632.6" y2="561.6"/>
<line x1="632.6" y1="561.6" x2="606.2" y2="535.2"/>
<line x1="606.2" y1="535.2" x2="615.9" y2="499.1"/>
<line x1="615.9" y1="499.1" x2="589.5" y2="472.7"/>
<line x1="589.5" y1="472.7" x2="599.1" y2="436.6"/>
<line x1="599.1" y1="436.6" x2="579.6" y2="417.1"/>
<line x1="598.4" y1="433.7" x2="634.4" y2="424.0"/>
<line x1="599.9" y1="439.5" x2="636.0" y2="429.8"/>
<line x1="635.2" y1="426.9" x2="642.4" y2="400.2"/>
<line x1="635.2" y1="426.9" x2="661.6" y2="453.4"/>
<line x1="66.4" y1="252.7" x2="102.5" y2="262.4"/>
<line x1="66.4" y1="252.7" x2="46.9" y2="272.3"/>
<line x1="234.7" y1="399.9" x2="253.4" y2="367.5"/>
<line x1="234.7" y1="399.9" x2="207.1" y2="399.9"/>
<line x1="562.9" y1="205.0" x2="600.3" y2="269.7"/>
<line x1="562.9" y1="205.0" x2="535.3" y2="205.0"/>
<line x1="439.7" y1="183.9" x2="466.1" y2="210.3"/>
<line x1="439.7" y1="183.9" x2="446.9" y2="157.2"/>
<line x1="678.4" y1="371.5" x2="697.7" y2="443.7"/>
<line x1="678.4" y1="371.5" x2="651.7" y2="364.4"/>
<line x1="746.4" y1="398.7" x2="739.2" y2="425.4"/>
<line x1="740.6" y1="397.2" x2="733.4" y2="423.9"/>
<line x1="743.5" y1="397.9" x2="723.9" y2="378.4"/>
<polygon points="373.780058 91.028387 348.751959 87.028387 348.751959 95.028387 " />
<line x1="309.4" y1="263.5" x2="281.8" y2="263.5"/>
<line x1="309.4" y1="257.5" x2="281.8" y2="257.5"/>
<line x1="309.4" y1="260.5" x2="323.2" y2="284.4"/>
<polygon points="704.190935 467.861445 701.576890 442.650882 693.849483 444.721434 " />
<line x1="697.7" y1="443.7" x2="661.6" y2="453.4"/>
<line x1="697.7" y1="443.7" x2="724.4" y2="436.5"/>
<polygon points="668.108417 477.529727 665.494371 452.319163 657.766965 454.389716 " />
<line x1="661.6" y1="453.4" x2="642.1" y2="472.9"/>
<polygon points="84.799217 280.084212 105.325182 265.215101 99.668328 259.558247 " />
<polygon points="265.891319 389.191357 256.841371 365.516388 249.913168 369.516388 " />
<line x1="611.9" y1="248.8" x2="612.6" y2="249.2"/>
<line x1="609.7" y1="251.9" x2="611.1" y2="252.7"/>
<line x1="607.5" y1="254.9" x2="609.5" y2="256.1"/>
<line x1="605.2" y1="257.9" x2="608.0" y2="259.5"/>
<line x1="603.0" y1="261.0" x2="606.5" y2="263.0"/>
<line x1="600.8" y1="264.0" x2="605.0" y2="266.4"/>
<line x1="598.6" y1="267.0" x2="603.4" y2="269.8"/>
<line x1="471.9" y1="187.1" x2="472.7" y2="187.3"/>
<line x1="470.6" y1="190.6" x2="472.1" y2="191.0"/>
<line x1="469.2" y1="194.1" x2="471.6" y2="194.7"/>
<line x1="467.9" y1="197.6" x2="471.0" y2="198.5"/>
<line x1="466.5" y1="201.1" x2="470.4" y2="202.2"/>
<line x1="465.2" y1="204.6" x2="469.8" y2="205.9"/>
<line x1="463.8" y1="208.1" x2="469.2" y2="209.6"/>
<line x1="241.1" y1="272.3" x2="241.8" y2="271.9"/>
<line x1="242.6" y1="275.7" x2="244.0" y2="274.9"/>
<line x1="244.1" y1="279.2" x2="246.2" y2="278.0"/>
<line x1="245.6" y1="282.6" x2="248.4" y2="281.0"/>
<line x1="247.2" y1="286.0" x2="250.6" y2="284.0"/>
<line x1="248.7" y1="289.5" x2="252.8" y2="287.1"/>
<line x1="250.2" y1="292.9" x2="255.1" y2="290.1"/>
<line x1="253.4" y1="292.8" x2="267.2" y2="268.9"/>
<polygon points="328.915307 50.675731 312.937156 70.350701 319.865359 74.350701 " />
<line x1="316.4" y1="72.4" x2="302.6" y2="48.4"/>
<polygon points="87.989750 219.826406 111.129761 230.167858 113.200313 222.440452 " />
<line x1="112.2" y1="226.3" x2="105.0" y2="199.6"/>
<line x1="209.4" y1="369.7" x2="208.7" y2="369.3"/>
<line x1="211.6" y1="366.7" x2="210.2" y2="365.9"/>
<line x1="213.8" y1="363.7" x2="211.8" y2="362.5"/>
<line x1="216.1" y1="360.6" x2="213.3" y2="359.0"/>
<line x1="218.3" y1="357.6" x2="214.8" y2="355.6"/>
<line x1="220.5" y1="354.6" x2="216.3" y2="352.2"/>
<line x1="222.7" y1="351.5" x2="217.9" y2="348.7"/>
<line x1="221.0" y1="348.8" x2="193.4" y2="348.8"/>
<polygon points="271.536507 69.353417 280.586455 93.028387 287.514658 89.028387 " />
<line x1="284.1" y1="91.0" x2="256.4" y2="91.0"/>
<polygon points="141.769807 192.460586 144.383852 217.671150 152.111259 215.600597 " />
<line x1="148.2" y1="216.6" x2="167.8" y2="197.1"/>
<line x1="544.0" y1="326.2" x2="544.0" y2="325.4"/>
<line x1="547.8" y1="326.6" x2="547.8" y2="325.0"/>
<line x1="551.5" y1="327.0" x2="551.5" y2="324.6"/>
<line x1="555.2" y1="327.4" x2="555.2" y2="324.2"/>
<line x1="559.0" y1="327.8" x2="559.0" y2="323.8"/>
<line x1="562.7" y1="328.2" x2="562.7" y2="323.4"/>
<line x1="566.4" y1="328.6" x2="566.4" y2="323.0"/>
<line x1="567.9" y1="325.8" x2="554.1" y2="349.7"/>
<line x1="426.4" y1="279.4" x2="426.2" y2="278.6"/>
<line x1="430.1" y1="278.8" x2="429.7" y2="277.3"/>
<line x1="433.8" y1="278.2" x2="433.2" y2="275.9"/>
<line x1="437.5" y1="277.6" x2="436.7" y2="274.6"/>
<line x1="441.3" y1="277.1" x2="440.2" y2="273.2"/>
<line x1="445.0" y1="276.5" x2="443.7" y2="271.8"/>
<line x1="448.7" y1="275.9" x2="447.2" y2="270.5"/>
<line x1="449.4" y1="272.8" x2="442.2" y2="299.5"/>
<line x1="260.1" y1="128.8" x2="260.1" y2="128.0"/>
<line x1="263.9" y1="129.2" x2="263.9" y2="127.6"/>
<line x1="267.6" y1="129.6" x2="267.6" y2="127.2"/>
<line x1="271.3" y1="130.0" x2="271.3" y2="126.8"/>
<line x1="275.1" y1="130.4" x2="275.1" y2="126.4"/>
<line x1="278.8" y1="130.8" x2="278.8" y2="126.0"/>
<line x1="282.6" y1="131.2" x2="282.6" y2="125.6"/>
<line x1="284.1" y1="128.4" x2="270.2" y2="152.3"/>
<polygon points="587.761072 366.122977 603.739223 346.448007 596.811020 342.448007 " />
<line x1="600.3" y1="344.4" x2="614.1" y2="368.4"/>
<polygon points="478.999377 306.653772 489.340829 283.513761 481.613423 281.443209 " />
<line x1="485.5" y1="282.5" x2="505.0" y2="302.0"/>
<line x1="422.5" y1="220.1" x2="423.1" y2="219.5"/>
<line x1="424.9" y1="223.0" x2="426.0" y2="221.9"/>
<line x1="427.3" y1="226.0" x2="429.0" y2="224.3"/>
<line x1="429.6" y1="228.9" x2="431.9" y2="226.6"/>
<line x1="432.0" y1="231.8" x2="434.8" y2="229.0"/>
<line x1="434.3" y1="234.7" x2="437.7" y2="231.3"/>
<line x1="436.7" y1="237.7" x2="440.6" y2="233.7"/>
<line x1="439.7" y1="236.7" x2="332.9" y2="265.3"/>
<polygon points="555.410371 266.739979 564.460319 290.414949 571.388522 286.414949 " />
<line x1="567.9" y1="288.4" x2="540.3" y2="288.4"/>
<polygon points="195.998469 311.483330 221.026568 315.483330 221.026568 307.483330 " />
<line x1="221.0" y1="311.5" x2="207.2" y2="287.5"/>
<line x1="191.3" y1="225.9" x2="191.8" y2="226.4"/>
<line x1="188.4" y1="228.2" x2="189.5" y2="229.4"/>
<line x1="185.4" y1="230.6" x2="187.1" y2="232.3"/>
<line x1="182.5" y1="232.9" x2="184.8" y2="235.2"/>
<line x1="179.6" y1="235.3" x2="182.4" y2="238.1"/>
<line x1="176.7" y1="237.7" x2="180.1" y2="241.0"/>
<line x1="173.7" y1="240.0" x2="177.7" y2="244.0"/>
<line x1="174.7" y1="243.1" x2="201.4" y2="250.2"/>
<polygon points="305.584097 326.719471 288.163016 308.309916 283.292925 314.656743 " />
<line x1="285.7" y1="311.5" x2="292.9" y2="284.8"/>
<line x1="651.3" y1="310.9" x2="651.8" y2="311.5"/>
<line x1="648.1" y1="312.9" x2="649.1" y2="314.1"/>
<line x1="644.9" y1="314.8" x2="646.4" y2="316.7"/>
<line x1="641.7" y1="316.8" x2="643.7" y2="319.3"/>
<line x1="638.5" y1="318.7" x2="641.0" y2="321.9"/>
<line x1="635.3" y1="320.7" x2="638.2" y2="324.5"/>
<line x1="632.1" y1="322.6" x2="635.5" y2="327.1"/>
<line x1="632.6" y1="325.8" x2="639.8" y2="352.5"/>
<line x1="338.6" y1="155.8" x2="338.3" y2="156.6"/>
<line x1="335.3" y1="154.0" x2="334.7" y2="155.5"/>
<line x1="332.0" y1="152.2" x2="331.1" y2="154.5"/>
<line x1="328.7" y1="150.4" x2="327.5" y2="153.4"/>
<line x1="325.4" y1="148.6" x2="323.9" y2="152.3"/>
<line x1="322.2" y1="146.8" x2="320.3" y2="151.3"/>
<line x1="318.9" y1="145.0" x2="316.7" y2="150.2"/>
<line x1="316.4" y1="147.1" x2="238.2" y2="225.2"/>
<line x1="526.1" y1="236.9" x2="526.8" y2="237.3"/>
<line x1="523.5" y1="239.6" x2="524.8" y2="240.5"/>
<line x1="520.9" y1="242.3" x2="522.8" y2="243.8"/>
<line x1="518.4" y1="245.0" x2="520.9" y2="247.0"/>
<line x1="515.8" y1="247.7" x2="518.9" y2="250.2"/>
<line x1="513.2" y1="250.5" x2="517.0" y2="253.4"/>
<line x1="510.6" y1="253.2" x2="515.0" y2="256.6"/>
<line x1="511.9" y1="256.1" x2="525.7" y2="280.0"/>
<polygon points="155.415672 302.255577 168.689029 280.663362 161.297992 277.601895 " />
<line x1="165.0" y1="279.1" x2="192.6" y2="279.1"/>
<line x1="284.1" y1="91.0" x2="284.1" y2="128.4"/>
<line x1="284.1" y1="128.4" x2="316.4" y2="147.1"/>
<line x1="316.4" y1="147.1" x2="340.3" y2="133.2"/>
<line x1="348.8" y1="118.7" x2="348.8" y2="91.0"/>
<line x1="348.8" y1="91.0" x2="316.4" y2="72.4"/>
<line x1="316.4" y1="72.4" x2="284.1" y2="91.0"/>
<line x1="148.2" y1="216.6" x2="174.7" y2="243.1"/>
<line x1="174.7" y1="243.1" x2="165.0" y2="279.1"/>
<line x1="165.0" y1="279.1" x2="138.3" y2="286.3"/>
<line x1="122.0" y1="281.9" x2="102.5" y2="262.4"/>
<line x1="102.5" y1="262.4" x2="112.2" y2="226.3"/>
<line x1="112.2" y1="226.3" x2="148.2" y2="216.6"/>
<line x1="253.4" y1="292.8" x2="285.7" y2="311.5"/>
<line x1="285.7" y1="311.5" x2="285.7" y2="339.1"/>
<line x1="277.3" y1="353.7" x2="253.4" y2="367.5"/>
<line x1="253.4" y1="367.5" x2="221.0" y2="348.8"/>
<line x1="221.0" y1="348.8" x2="221.0" y2="311.5"/>
<line x1="221.0" y1="311.5" x2="253.4" y2="292.8"/>
<line x1="567.9" y1="325.8" x2="600.3" y2="344.4"/>
<line x1="600.3" y1="344.4" x2="632.6" y2="325.8"/>
<line x1="632.6" y1="325.8" x2="632.6" y2="298.1"/>
<line x1="624.2" y1="283.6" x2="600.3" y2="269.7"/>
<line x1="600.3" y1="269.7" x2="567.9" y2="288.4"/>
<line x1="567.9" y1="288.4" x2="567.9" y2="325.8"/>
<line x1="449.4" y1="272.8" x2="485.5" y2="282.5"/>
<line x1="485.5" y1="282.5" x2="511.9" y2="256.1"/>
<line x1="511.9" y1="256.1" x2="504.7" y2="229.4"/>
<line x1="492.8" y1="217.5" x2="466.1" y2="210.3"/>
<line x1="466.1" y1="210.3" x2="439.7" y2="236.7"/>
<line x1="439.7" y1="236.7" x2="449.4" y2="272.8"/>
<text x="587.098651" y="776.748824" fill="rgb(102,102,102)"  stroke="rgb(102,102,102)" stroke-width="1" font-size="16" >H</text>
<text x="599.098651" y="784.428824" fill="rgb(102,102,102)"  stroke="rgb(102,102,102)" stroke-width="1" font-size="13" >3</text>
<text x="605.598651" y="776.748824" fill="rgb(102,102,102)"  stroke="rgb(102,102,102)" stroke-width="1" font-size="16" >C</text>
<text x="361.429645" y="66.997686" fill="rgb(102,102,102)"  stroke="rgb(102,102,102)" stroke-width="1" font-size="16" >CH</text>
<text x="385.429645" y="74.677686" fill="rgb(102,102,102)"  stroke="rgb(102,102,102)" stroke-width="1" font-size="13" >3</text>
<text x="322.088013" y="236.424242" fill="rgb(102,102,102)"  stroke="rgb(102,102,102)" stroke-width="1" font-size="16" >CH</text>
<text x="346.088013" y="244.104242" fill="rgb(102,102,102)"  stroke="rgb(102,102,102)" stroke-width="1" font-size="13" >3</text>
<text x="727.795705" y="438.817876" fill="rgb(12,12,255)"  stroke="rgb(12,12,255)" stroke-width="1" font-size="16" >N</text>
<text x="268.454955" y="268.774943" fill="rgb(12,12,255)"  stroke="rgb(12,12,255)" stroke-width="1" font-size="16" >N</text>
<text x="24.400000" y="283.932629" fill="rgb(255,12,12)"  stroke="rgb(255,12,12)" stroke-width="1" font-size="16" >HO</text>
<text x="181.744212" y="404.667089" fill="rgb(255,12,12)"  stroke="rgb(255,12,12)" stroke-width="1" font-size="16" >HO</text>
<text x="509.964378" y="209.835861" fill="rgb(255,12,12)"  stroke="rgb(255,12,12)" stroke-width="1" font-size="16" >HO</text>
<text x="443.394608" y="156.136693" fill="rgb(255,12,12)"  stroke="rgb(255,12,12)" stroke-width="1" font-size="16" >OH</text>
<text x="701.449750" y="379.841121" fill="rgb(255,12,12)"  stroke="rgb(255,12,12)" stroke-width="1" font-size="16" >HO</text>
<text x="322.088013" y="297.605644" fill="rgb(255,12,12)"  stroke="rgb(255,12,12)" stroke-width="1" font-size="16" >OH</text>
<text x="619.616431" y="484.568676" fill="rgb(255,12,12)"  stroke="rgb(255,12,12)" stroke-width="1" font-size="16" >HO</text>
<text x="282.123572" y="48.320000" fill="rgb(255,12,12)"  stroke="rgb(255,12,12)" stroke-width="1" font-size="16" >HO</text>
<text x="86.896755" y="198.541637" fill="rgb(255,12,12)"  stroke="rgb(255,12,12)" stroke-width="1" font-size="16" >HO</text>
<text x="168.071196" y="353.638702" fill="rgb(255,12,12)"  stroke="rgb(255,12,12)" stroke-width="1" font-size="16" >HO</text>
<text x="231.095185" y="95.828387" fill="rgb(255,12,12)"  stroke="rgb(255,12,12)" stroke-width="1" font-size="16" >HO</text>
<text x="168.661792" y="198.541637" fill="rgb(255,12,12)"  stroke="rgb(255,12,12)" stroke-width="1" font-size="16" >OH</text>
<text x="533.646735" y="362.921022" fill="rgb(255,12,12)"  stroke="rgb(255,12,12)" stroke-width="1" font-size="16" >HO</text>
<text x="424.126326" y="313.692722" fill="rgb(255,12,12)"  stroke="rgb(255,12,12)" stroke-width="1" font-size="16" >HO</text>
<text x="249.772871" y="165.534460" fill="rgb(255,12,12)"  stroke="rgb(255,12,12)" stroke-width="1" font-size="16" >HO</text>
<text x="612.952808" y="381.598708" fill="rgb(255,12,12)"  stroke="rgb(255,12,12)" stroke-width="1" font-size="16" >OH</text>
<text x="505.891363" y="313.692722" fill="rgb(255,12,12)"  stroke="rgb(255,12,12)" stroke-width="1" font-size="16" >OH</text>
<text x="638.694105" y="366.652839" fill="rgb(255,12,12)"  stroke="rgb(255,12,12)" stroke-width="1" font-size="16" >O</text>
<text x="342.751959" y="133.183759" fill="rgb(255,12,12)"  stroke="rgb(255,12,12)" stroke-width="1" font-size="16" >O</text>
<text x="279.727970" y="353.638702" fill="rgb(255,12,12)"  stroke="rgb(255,12,12)" stroke-width="1" font-size="16" >O</text>
<text x="125.310992" y="293.600910" fill="rgb(255,12,12)"  stroke="rgb(255,12,12)" stroke-width="1" font-size="16" >O</text>
<text x="626.625823" y="296.734949" fill="rgb(255,12,12)"  stroke="rgb(255,12,12)" stroke-width="1" font-size="16" >O</text>
<text x="496.223081" y="228.301729" fill="rgb(255,12,12)"  stroke="rgb(255,12,12)" stroke-width="1" font-size="16" >O</text>
<text x="291.796252" y="280.200811" fill="rgb(255,12,12)"  stroke="rgb(255,12,12)" stroke-width="1" font-size="16" >O</text>
<text x="526.969049" y="293.214949" fill="rgb(255,12,12)"  stroke="rgb(255,12,12)" stroke-width="1" font-size="16" >O</text>
<text x="196.348882" y="287.452629" fill="rgb(255,12,12)"  stroke="rgb(255,12,12)" stroke-width="1" font-size="16" >O</text>
<text x="207.144311" y="257.518392" fill="rgb(255,12,12)"  stroke="rgb(255,12,12)" stroke-width="1" font-size="16" >O</text>
<text x="569.119676" y="418.514248" fill="rgb(191,191,191)"  stroke="rgb(191,191,191)" stroke-width="1" font-size="16" >H</text>
<text x="638.884713" y="399.177684" fill="rgb(191,191,191)"  stroke="rgb(191,191,191)" stroke-width="1" font-size="16" >H</text>
<text x="380.107331" y="99.348387" fill="rgb(191,191,191)"  stroke="rgb(191,191,191)" stroke-width="1" font-size="16" >H</text>
<text x="701.381468" y="484.568676" fill="rgb(191,191,191)"  stroke="rgb(191,191,191)" stroke-width="1" font-size="16" >H</text>
<text x="665.298950" y="494.236958" fill="rgb(191,191,191)"  stroke="rgb(191,191,191)" stroke-width="1" font-size="16" >H</text>
<text x="72.482518" y="293.600910" fill="rgb(191,191,191)"  stroke="rgb(191,191,191)" stroke-width="1" font-size="16" >H</text>
<text x="266.054955" y="404.667089" fill="rgb(191,191,191)"  stroke="rgb(191,191,191)" stroke-width="1" font-size="16" >H</text>
<text x="612.952808" y="245.706562" fill="rgb(191,191,191)"  stroke="rgb(191,191,191)" stroke-width="1" font-size="16" >H</text>
<text x="469.808844" y="182.550929" fill="rgb(191,191,191)"  stroke="rgb(191,191,191)" stroke-width="1" font-size="16" >H</text>
<text x="231.099583" y="268.774943" fill="rgb(191,191,191)"  stroke="rgb(191,191,191)" stroke-width="1" font-size="16" >H</text>
<text x="329.078944" y="48.320000" fill="rgb(191,191,191)"  stroke="rgb(191,191,191)" stroke-width="1" font-size="16" >H</text>
<text x="72.482518" y="224.955874" fill="rgb(191,191,191)"  stroke="rgb(191,191,191)" stroke-width="1" font-size="16" >H</text>
<text x="198.748882" y="385.989403" fill="rgb(191,191,191)"  stroke="rgb(191,191,191)" stroke-width="1" font-size="16" >H</text>
<text x="261.772871" y="66.997686" fill="rgb(191,191,191)"  stroke="rgb(191,191,191)" stroke-width="1" font-size="16" >H</text>
<text x="134.979274" y="188.873355" fill="rgb(191,191,191)"  stroke="rgb(191,191,191)" stroke-width="1" font-size="16" >H</text>
<text x="526.969049" y="330.570321" fill="rgb(191,191,191)"  stroke="rgb(191,191,191)" stroke-width="1" font-size="16" >H</text>
<text x="409.712089" y="287.278485" fill="rgb(191,191,191)"  stroke="rgb(191,191,191)" stroke-width="1" font-size="16" >H</text>
<text x="243.095185" y="133.183759" fill="rgb(191,191,191)"  stroke="rgb(191,191,191)" stroke-width="1" font-size="16" >H</text>
<text x="577.997436" y="381.598708" fill="rgb(191,191,191)"  stroke="rgb(191,191,191)" stroke-width="1" font-size="16" >H</text>
<text x="472.208844" y="323.361003" fill="rgb(191,191,191)"  stroke="rgb(191,191,191)" stroke-width="1" font-size="16" >H</text>
<text x="409.712089" y="218.633448" fill="rgb(191,191,191)"  stroke="rgb(191,191,191)" stroke-width="1" font-size="16" >H</text>
<text x="545.646735" y="264.384248" fill="rgb(191,191,191)"  stroke="rgb(191,191,191)" stroke-width="1" font-size="16" >H</text>
<text x="180.071196" y="316.283330" fill="rgb(191,191,191)"  stroke="rgb(191,191,191)" stroke-width="1" font-size="16" >H</text>
<text x="195.076029" y="224.955874" fill="rgb(191,191,191)"  stroke="rgb(191,191,191)" stroke-width="1" font-size="16" >H</text>
<text x="309.363980" y="339.023839" fill="rgb(191,191,191)"  stroke="rgb(191,191,191)" stroke-width="1" font-size="16" >H</text>
<text x="656.261832" y="311.349811" fill="rgb(191,191,191)"  stroke="rgb(191,191,191)" stroke-width="1" font-size="16" >H</text>
<text x="344.913121" y="166.156727" fill="rgb(191,191,191)"  stroke="rgb(191,191,191)" stroke-width="1" font-size="16" >H</text>
<text x="528.631873" y="234.748239" fill="rgb(191,191,191)"  stroke="rgb(191,191,191)" stroke-width="1" font-size="16" >H</text>
<text x="147.098229" y="318.444492" fill="rgb(191,191,191)"  stroke="rgb(191,191,191)" stroke-width="1" font-size="16" >H</text>
<text font-size="18.000000" fill ="black" font-family="sans-serif"
x="140.000000" y="20.000000" ></text>
<title> - OBDepict</title>
</svg>
