<?xml version="1.0"?>
<svg xmlns="http://www.w3.org/2000/svg"
xmlns:xlink="http://www.w3.org/1999/xlink" xmlns:cml="http://www.xml-cml.org/schema" width="189.282" height="194.641" x="0" y="0" font-family="sans-serif" stroke="rgb(0,0,0)" stroke-width="1" >
<line x1="49.0" y1="69.4" x2="74.6" y2="54.6"/>
<line x1="113.3" y1="75.0" x2="113.3" y2="74.2"/>
<line x1="117.3" y1="75.4" x2="117.3" y2="73.8"/>
<line x1="121.3" y1="75.8" x2="121.3" y2="73.4"/>
<line x1="125.3" y1="76.2" x2="125.3" y2="73.0"/>
<line x1="129.3" y1="76.6" x2="129.3" y2="72.6"/>
<line x1="133.3" y1="77.0" x2="133.3" y2="72.2"/>
<line x1="137.3" y1="77.4" x2="137.3" y2="71.8"/>
<line x1="74.6" y1="54.6" x2="109.3" y2="74.6"/>
<line x1="109.3" y1="114.6" x2="109.3" y2="74.6"/>
<line x1="109.3" y1="114.6" x2="109.3" y2="144.2"/>
<line x1="113.5" y1="114.6" x2="113.5" y2="144.2"/>
<line x1="105.1" y1="114.6" x2="105.1" y2="144.2"/>
<line x1="109.3" y1="74.6" x2="124.1" y2="49.0"/>
<text x="16.400000" y="79.441016" fill="rgb(102,102,102)"  stroke="rgb(102,102,102)" stroke-width="1" font-size="16" >H</text>
<text x="28.400000" y="84.241016" fill="rgb(102,102,102)"  stroke="rgb(102,102,102)" stroke-width="1" font-size="13" >3</text>
<text x="34.900000" y="79.441016" fill="rgb(102,102,102)"  stroke="rgb(102,102,102)" stroke-width="1" font-size="16" >C</text>
<text x="143.282032" y="79.441016" fill="rgb(102,102,102)"  stroke="rgb(102,102,102)" stroke-width="1" font-size="16" >CH</text>
<text x="167.282032" y="84.241016" fill="rgb(102,102,102)"  stroke="rgb(102,102,102)" stroke-width="1" font-size="13" >3</text>
<text x="103.282032" y="159.441016" fill="rgb(12,12,255)"  stroke="rgb(12,12,255)" stroke-width="1" font-size="16" >N</text>
<text x="123.282032" y="48.320000" fill="rgb(255,12,12)"  stroke="rgb(255,12,12)" stroke-width="1" font-size="16" >OH</text>
<text font-size="18.000000" fill ="black" font-family="sans-serif"
x="140.000000" y="20.000000" ></text>
<title> - OBDepict</title>
</svg>
