<?xml version="1.0"?>
<svg xmlns="http://www.w3.org/2000/svg"
xmlns:xlink="http://www.w3.org/1999/xlink" xmlns:cml="http://www.xml-cml.org/schema" width="668.897" height="800" x="0" y="0" font-family="sans-serif" stroke="rgb(0,0,0)" stroke-width="1" >
<line x1="134.9" y1="205.2" x2="109.3" y2="220.0"/>
<line x1="619.9" y1="754.8" x2="594.3" y2="740.0"/>
<line x1="109.3" y1="220.0" x2="74.6" y2="200.0"/>
<line x1="594.3" y1="740.0" x2="559.6" y2="760.0"/>
<line x1="74.6" y1="200.0" x2="49.0" y2="214.8"/>
<line x1="71.6" y1="200.0" x2="71.6" y2="160.0"/>
<line x1="77.6" y1="200.0" x2="77.6" y2="160.0"/>
<line x1="559.6" y1="760.0" x2="525.0" y2="740.0"/>
<line x1="74.6" y1="160.0" x2="49.0" y2="145.2"/>
<line x1="74.6" y1="160.0" x2="109.3" y2="140.0"/>
<line x1="525.0" y1="740.0" x2="525.0" y2="700.0"/>
<line x1="109.3" y1="140.0" x2="109.3" y2="100.0"/>
<line x1="525.0" y1="700.0" x2="490.3" y2="680.0"/>
<line x1="109.3" y1="100.0" x2="83.6" y2="85.2"/>
<line x1="107.8" y1="97.4" x2="142.4" y2="77.4"/>
<line x1="110.8" y1="102.6" x2="145.4" y2="82.6"/>
<line x1="490.3" y1="680.0" x2="490.3" y2="650.4"/>
<line x1="491.8" y1="682.6" x2="457.2" y2="702.6"/>
<line x1="488.8" y1="677.4" x2="454.2" y2="697.4"/>
<line x1="143.9" y1="80.0" x2="143.9" y2="50.4"/>
<line x1="143.9" y1="80.0" x2="178.6" y2="100.0"/>
<line x1="455.7" y1="700.0" x2="455.7" y2="729.6"/>
<line x1="455.7" y1="700.0" x2="421.1" y2="680.0"/>
<line x1="178.6" y1="100.0" x2="213.2" y2="80.0"/>
<line x1="421.1" y1="680.0" x2="386.4" y2="700.0"/>
<line x1="213.2" y1="80.0" x2="213.2" y2="50.4"/>
<line x1="214.7" y1="77.4" x2="249.3" y2="97.4"/>
<line x1="211.7" y1="82.6" x2="246.3" y2="102.6"/>
<line x1="386.4" y1="700.0" x2="386.4" y2="729.6"/>
<line x1="384.9" y1="702.6" x2="350.3" y2="682.6"/>
<line x1="387.9" y1="697.4" x2="353.3" y2="677.4"/>
<line x1="247.8" y1="100.0" x2="273.5" y2="85.2"/>
<line x1="247.8" y1="100.0" x2="247.8" y2="140.0"/>
<line x1="351.8" y1="680.0" x2="326.1" y2="694.8"/>
<line x1="351.8" y1="680.0" x2="351.8" y2="640.0"/>
<line x1="247.8" y1="140.0" x2="282.5" y2="160.0"/>
<line x1="351.8" y1="640.0" x2="386.4" y2="620.0"/>
<line x1="282.5" y1="160.0" x2="282.5" y2="200.0"/>
<line x1="386.4" y1="620.0" x2="386.4" y2="580.0"/>
<line x1="282.5" y1="200.0" x2="317.1" y2="220.0"/>
<line x1="386.4" y1="580.0" x2="421.1" y2="560.0"/>
<line x1="317.1" y1="220.0" x2="317.1" y2="260.0"/>
<line x1="421.1" y1="560.0" x2="421.1" y2="520.0"/>
<line x1="317.1" y1="260.0" x2="351.8" y2="280.0"/>
<line x1="421.1" y1="520.0" x2="455.7" y2="500.0"/>
<line x1="351.8" y1="280.0" x2="351.8" y2="320.0"/>
<line x1="455.7" y1="500.0" x2="455.7" y2="460.0"/>
<line x1="351.8" y1="320.0" x2="386.4" y2="340.0"/>
<line x1="455.7" y1="460.0" x2="490.3" y2="440.0"/>
<line x1="421.1" y1="200.0" x2="455.7" y2="220.0"/>
<line x1="421.1" y1="200.0" x2="421.1" y2="170.4"/>
<line x1="421.1" y1="400.0" x2="455.7" y2="380.0"/>
<line x1="421.1" y1="400.0" x2="395.4" y2="385.2"/>
<line x1="455.7" y1="340.0" x2="455.7" y2="380.0"/>
<line x1="455.7" y1="340.0" x2="481.3" y2="325.2"/>
<line x1="455.7" y1="380.0" x2="481.3" y2="394.8"/>
<line x1="384.9" y1="337.4" x2="410.5" y2="322.6"/>
<line x1="387.9" y1="342.6" x2="413.5" y2="327.8"/>
<line x1="386.4" y1="340.0" x2="386.4" y2="369.6"/>
<line x1="491.8" y1="437.4" x2="517.5" y2="452.2"/>
<line x1="488.8" y1="442.6" x2="514.5" y2="457.4"/>
<line x1="490.3" y1="440.0" x2="490.3" y2="410.4"/>
<line x1="525.0" y1="220.0" x2="550.6" y2="205.2"/>
<line x1="525.0" y1="260.0" x2="550.6" y2="274.8"/>
<line x1="490.3" y1="200.0" x2="490.3" y2="170.4"/>
<line x1="490.3" y1="280.0" x2="490.3" y2="309.6"/>
<line x1="516.0" y1="145.2" x2="499.3" y2="154.8"/>
<line x1="525.0" y1="220.0" x2="525.0" y2="260.0"/>
<line x1="525.0" y1="260.0" x2="490.3" y2="280.0"/>
<line x1="490.3" y1="280.0" x2="464.7" y2="265.2"/>
<line x1="455.7" y1="249.6" x2="455.7" y2="220.0"/>
<line x1="455.7" y1="220.0" x2="490.3" y2="200.0"/>
<line x1="490.3" y1="200.0" x2="525.0" y2="220.0"/>
<text x="137.923048" y="208.320000" fill="rgb(102,102,102)"  stroke="rgb(102,102,102)" stroke-width="1" font-size="16" >CH</text>
<text x="161.923048" y="216.000000" fill="rgb(102,102,102)"  stroke="rgb(102,102,102)" stroke-width="1" font-size="13" >3</text>
<text x="622.897275" y="764.800000" fill="rgb(102,102,102)"  stroke="rgb(102,102,102)" stroke-width="1" font-size="16" >CH</text>
<text x="646.897275" y="769.600000" fill="rgb(102,102,102)"  stroke="rgb(102,102,102)" stroke-width="1" font-size="13" >3</text>
<text x="415.051178" y="168.320000" fill="rgb(255,12,12)"  stroke="rgb(255,12,12)" stroke-width="1" font-size="16" >OH</text>
<text x="415.051178" y="328.320000" fill="rgb(255,12,12)"  stroke="rgb(255,12,12)" stroke-width="1" font-size="16" >O</text>
<text x="518.974226" y="464.800000" fill="rgb(255,12,12)"  stroke="rgb(255,12,12)" stroke-width="1" font-size="16" >O</text>
<text x="553.615242" y="208.320000" fill="rgb(255,12,12)"  stroke="rgb(255,12,12)" stroke-width="1" font-size="16" >OH</text>
<text x="553.615242" y="284.800000" fill="rgb(255,12,12)"  stroke="rgb(255,12,12)" stroke-width="1" font-size="16" >OH</text>
<text x="518.974226" y="148.320000" fill="rgb(255,12,12)"  stroke="rgb(255,12,12)" stroke-width="1" font-size="16" >OH</text>
<text x="382.810162" y="384.800000" fill="rgb(255,12,12)"  stroke="rgb(255,12,12)" stroke-width="1" font-size="16" >O</text>
<text x="484.333210" y="324.800000" fill="rgb(255,12,12)"  stroke="rgb(255,12,12)" stroke-width="1" font-size="16" >O</text>
<text x="484.333210" y="408.320000" fill="rgb(255,12,12)"  stroke="rgb(255,12,12)" stroke-width="1" font-size="16" >O</text>
<text x="452.092194" y="264.800000" fill="rgb(255,12,12)"  stroke="rgb(255,12,12)" stroke-width="1" font-size="16" >O</text>
<text x="486.733210" y="168.320000" fill="rgb(255,12,12)"  stroke="rgb(255,12,12)" stroke-width="1" font-size="16" >O</text>
<text x="36.400000" y="224.800000" fill="rgb(191,191,191)"  stroke="rgb(191,191,191)" stroke-width="1" font-size="16" >H</text>
<text x="36.400000" y="148.320000" fill="rgb(191,191,191)"  stroke="rgb(191,191,191)" stroke-width="1" font-size="16" >H</text>
<text x="71.041016" y="88.320000" fill="rgb(191,191,191)"  stroke="rgb(191,191,191)" stroke-width="1" font-size="16" >H</text>
<text x="484.333210" y="648.320000" fill="rgb(191,191,191)"  stroke="rgb(191,191,191)" stroke-width="1" font-size="16" >H</text>
<text x="137.923048" y="48.320000" fill="rgb(191,191,191)"  stroke="rgb(191,191,191)" stroke-width="1" font-size="16" >H</text>
<text x="449.692194" y="744.800000" fill="rgb(191,191,191)"  stroke="rgb(191,191,191)" stroke-width="1" font-size="16" >H</text>
<text x="207.205081" y="48.320000" fill="rgb(191,191,191)"  stroke="rgb(191,191,191)" stroke-width="1" font-size="16" >H</text>
<text x="380.410162" y="744.800000" fill="rgb(191,191,191)"  stroke="rgb(191,191,191)" stroke-width="1" font-size="16" >H</text>
<text x="276.487113" y="88.320000" fill="rgb(191,191,191)"  stroke="rgb(191,191,191)" stroke-width="1" font-size="16" >H</text>
<text x="313.528129" y="704.800000" fill="rgb(191,191,191)"  stroke="rgb(191,191,191)" stroke-width="1" font-size="16" >H</text>
<text font-size="18.000000" fill ="black" font-family="sans-serif"
x="140.000000" y="20.000000" ></text>
<title> - OBDepict</title>
</svg>
