<?xml version="1.0"?>
<svg xmlns="http://www.w3.org/2000/svg"
xmlns:xlink="http://www.w3.org/1999/xlink" xmlns:cml="http://www.xml-cml.org/schema" width="287.846" height="200" x="0" y="0" font-family="sans-serif" stroke="rgb(0,0,0)" stroke-width="1" >
<line x1="247.8" y1="50.4" x2="247.8" y2="69.6"/>
<line x1="213.2" y1="140.0" x2="238.8" y2="154.8"/>
<line x1="213.2" y1="100.0" x2="238.8" y2="85.2"/>
<line x1="73.1" y1="102.6" x2="47.5" y2="87.8"/>
<line x1="76.1" y1="97.4" x2="50.5" y2="82.6"/>
<line x1="109.3" y1="160.0" x2="74.6" y2="140.0"/>
<line x1="107.7" y1="150.8" x2="83.4" y2="136.8"/>
<line x1="74.6" y1="140.0" x2="74.6" y2="100.0"/>
<line x1="74.6" y1="100.0" x2="100.3" y2="85.2"/>
<line x1="118.3" y1="85.2" x2="143.9" y2="100.0"/>
<line x1="143.9" y1="100.0" x2="143.9" y2="140.0"/>
<line x1="143.9" y1="140.0" x2="109.3" y2="160.0"/>
<line x1="178.6" y1="80.0" x2="213.2" y2="100.0"/>
<line x1="213.2" y1="100.0" x2="213.2" y2="140.0"/>
<line x1="206.0" y1="106.0" x2="206.0" y2="134.0"/>
<line x1="213.2" y1="140.0" x2="178.6" y2="160.0"/>
<line x1="178.6" y1="160.0" x2="143.9" y2="140.0"/>
<line x1="177.0" y1="150.8" x2="152.7" y2="136.8"/>
<line x1="143.9" y1="100.0" x2="178.6" y2="80.0"/>
<line x1="152.7" y1="103.2" x2="177.0" y2="89.2"/>
<text x="241.846097" y="48.320000" fill="rgb(102,102,102)"  stroke="rgb(102,102,102)" stroke-width="1" font-size="16" >CH</text>
<text x="265.846097" y="56.000000" fill="rgb(102,102,102)"  stroke="rgb(102,102,102)" stroke-width="1" font-size="13" >3</text>
<text x="241.846097" y="164.800000" fill="rgb(255,12,12)"  stroke="rgb(255,12,12)" stroke-width="1" font-size="16" >OH</text>
<text x="36.400000" y="88.320000" fill="rgb(255,12,12)"  stroke="rgb(255,12,12)" stroke-width="1" font-size="16" >O</text>
<text x="241.846097" y="84.800000" fill="rgb(255,12,12)"  stroke="rgb(255,12,12)" stroke-width="1" font-size="16" >O</text>
<text x="103.282032" y="88.320000" fill="rgb(255,12,12)"  stroke="rgb(255,12,12)" stroke-width="1" font-size="16" >O</text>
<text font-size="18.000000" fill ="black" font-family="sans-serif"
x="140.000000" y="20.000000" ></text>
<title> - OBDepict</title>
</svg>
