<?xml version="1.0"?>
<svg xmlns="http://www.w3.org/2000/svg"
xmlns:xlink="http://www.w3.org/1999/xlink" xmlns:cml="http://www.xml-cml.org/schema" width="1077.83" height="562.054" x="0" y="0" font-family="sans-serif" stroke="rgb(0,0,0)" stroke-width="1" >
<line x1="49.9" y1="358.1" x2="78.1" y2="364.1"/>
<line x1="762.1" y1="115.6" x2="783.6" y2="134.9"/>
<line x1="756.2" y1="143.8" x2="783.6" y2="134.9"/>
<line x1="78.1" y1="364.1" x2="104.1" y2="335.2"/>
<line x1="104.1" y1="335.2" x2="142.2" y2="343.3"/>
<line x1="142.2" y1="343.3" x2="168.3" y2="314.3"/>
<line x1="168.3" y1="314.3" x2="206.4" y2="322.4"/>
<line x1="206.4" y1="322.4" x2="232.4" y2="293.5"/>
<line x1="232.4" y1="293.5" x2="270.5" y2="301.6"/>
<line x1="270.5" y1="301.6" x2="296.5" y2="272.7"/>
<line x1="296.5" y1="272.7" x2="334.6" y2="280.8"/>
<line x1="334.6" y1="280.8" x2="360.7" y2="251.8"/>
<line x1="360.7" y1="251.8" x2="398.8" y2="259.9"/>
<line x1="398.8" y1="259.9" x2="424.8" y2="231.0"/>
<line x1="424.8" y1="231.0" x2="462.9" y2="239.1"/>
<line x1="462.9" y1="239.1" x2="488.9" y2="210.2"/>
<line x1="488.9" y1="210.2" x2="527.0" y2="218.2"/>
<line x1="527.0" y1="218.2" x2="553.1" y2="189.3"/>
<line x1="695.4" y1="81.7" x2="733.4" y2="89.8"/>
<line x1="695.4" y1="81.7" x2="669.3" y2="110.6"/>
<line x1="733.4" y1="89.8" x2="752.7" y2="68.4"/>
<line x1="655.3" y1="176.6" x2="617.2" y2="168.5"/>
<line x1="655.3" y1="176.6" x2="674.6" y2="155.2"/>
<line x1="617.2" y1="168.5" x2="597.9" y2="189.9"/>
<line x1="777.4" y1="351.1" x2="815.5" y2="359.2"/>
<line x1="777.4" y1="351.1" x2="768.5" y2="323.7"/>
<line x1="807.6" y1="208.9" x2="783.6" y2="134.9"/>
<line x1="807.6" y1="208.9" x2="788.3" y2="230.4"/>
<line x1="807.4" y1="335.6" x2="808.2" y2="335.3"/>
<line x1="808.2" y1="339.4" x2="809.8" y2="338.9"/>
<line x1="809.1" y1="343.2" x2="811.3" y2="342.5"/>
<line x1="809.9" y1="347.1" x2="812.9" y2="346.1"/>
<line x1="810.7" y1="350.9" x2="814.5" y2="349.7"/>
<line x1="811.5" y1="354.7" x2="816.1" y2="353.2"/>
<line x1="812.3" y1="358.6" x2="817.7" y2="356.8"/>
<line x1="672.2" y1="109.7" x2="681.1" y2="137.1"/>
<line x1="666.5" y1="111.5" x2="675.4" y2="138.9"/>
<line x1="669.3" y1="110.6" x2="641.1" y2="104.6"/>
<line x1="550.2" y1="190.2" x2="541.3" y2="162.8"/>
<line x1="555.9" y1="188.4" x2="547.0" y2="161.0"/>
<line x1="553.1" y1="189.3" x2="581.3" y2="195.3"/>
<polygon points="838.928667 438.534597 850.793704 414.962039 843.185252 412.489903 " />
<line x1="847.0" y1="413.7" x2="866.3" y2="435.1"/>
<polygon points="785.336775 397.890358 811.422108 401.890358 811.422108 393.890358 " />
<line x1="811.4" y1="397.9" x2="797.0" y2="422.8"/>
<polygon points="834.417005 97.900094 808.372310 102.156680 810.844446 109.765132 " />
<line x1="809.6" y1="106.0" x2="797.6" y2="68.9"/>
<line x1="809.6" y1="106.0" x2="783.6" y2="134.9"/>
<line x1="809.6" y1="106.0" x2="831.0" y2="125.2"/>
<line x1="1013.3" y1="485.7" x2="1023.7" y2="512.6"/>
<line x1="797.0" y1="71.9" x2="768.8" y2="65.9"/>
<line x1="798.2" y1="66.0" x2="770.0" y2="60.0"/>
<line x1="797.6" y1="68.9" x2="816.9" y2="47.5"/>
<line x1="888.6" y1="365.3" x2="889.2" y2="365.8"/>
<line x1="885.8" y1="368.1" x2="887.0" y2="369.1"/>
<line x1="883.0" y1="370.8" x2="884.9" y2="372.3"/>
<line x1="880.2" y1="373.6" x2="882.7" y2="375.6"/>
<line x1="877.4" y1="376.3" x2="880.5" y2="378.9"/>
<line x1="874.7" y1="379.1" x2="878.4" y2="382.1"/>
<line x1="871.9" y1="381.8" x2="876.2" y2="385.4"/>
<line x1="873.0" y1="384.8" x2="909.3" y2="429.6"/>
<line x1="753.0" y1="460.4" x2="753.0" y2="441.7"/>
<line x1="724.2" y1="431.6" x2="742.9" y2="431.6"/>
<line x1="756.0" y1="402.8" x2="756.0" y2="421.5"/>
<line x1="750.0" y1="402.8" x2="750.0" y2="421.5"/>
<line x1="721.3" y1="334.1" x2="725.2" y2="315.9"/>
<line x1="699.7" y1="297.0" x2="718.0" y2="300.9"/>
<line x1="698.5" y1="302.9" x2="716.8" y2="306.8"/>
<line x1="715.3" y1="223.8" x2="733.6" y2="227.7"/>
<line x1="752.4" y1="202.2" x2="748.5" y2="220.5"/>
<line x1="746.5" y1="201.0" x2="742.7" y2="219.3"/>
<line x1="755.5" y1="311.9" x2="737.2" y2="308.1"/>
<line x1="771.7" y1="235.8" x2="753.4" y2="231.9"/>
<line x1="781.8" y1="431.6" x2="763.1" y2="431.6"/>
<line x1="733.3" y1="277.8" x2="729.4" y2="296.1"/>
<line x1="737.5" y1="258.0" x2="741.4" y2="239.7"/>
<line x1="912.0" y1="482.9" x2="919.4" y2="455.1"/>
<line x1="932.2" y1="444.8" x2="960.9" y2="443.3"/>
<line x1="960.9" y1="443.3" x2="974.9" y2="479.6"/>
<line x1="974.9" y1="479.6" x2="952.5" y2="497.7"/>
<line x1="936.1" y1="498.6" x2="912.0" y2="482.9"/>
<line x1="938.3" y1="491.4" x2="920.9" y2="480.1"/>
<line x1="815.5" y1="359.2" x2="811.4" y2="397.9"/>
<line x1="811.4" y1="397.9" x2="847.0" y2="413.7"/>
<line x1="847.0" y1="413.7" x2="873.0" y2="384.8"/>
<line x1="873.0" y1="384.8" x2="858.6" y2="359.8"/>
<line x1="843.7" y1="353.2" x2="815.5" y2="359.2"/>
<line x1="960.9" y1="443.3" x2="979.1" y2="420.9"/>
<line x1="970.3" y1="443.1" x2="983.3" y2="427.0"/>
<line x1="995.4" y1="414.6" x2="1023.9" y2="419.1"/>
<line x1="1023.9" y1="419.1" x2="1034.2" y2="446.0"/>
<line x1="1019.3" y1="427.3" x2="1026.7" y2="446.6"/>
<line x1="1031.5" y1="463.3" x2="1013.3" y2="485.7"/>
<line x1="1013.3" y1="485.7" x2="974.9" y2="479.6"/>
<line x1="1008.5" y1="477.7" x2="981.9" y2="473.4"/>
<text x="16.400000" y="364.341826" fill="rgb(102,102,102)"  stroke="rgb(102,102,102)" stroke-width="1" font-size="16" >H</text>
<text x="28.400000" y="372.021826" fill="rgb(102,102,102)"  stroke="rgb(102,102,102)" stroke-width="1" font-size="13" >3</text>
<text x="34.900000" y="364.341826" fill="rgb(102,102,102)"  stroke="rgb(102,102,102)" stroke-width="1" font-size="16" >C</text>
<text x="731.023788" y="117.162526" fill="rgb(102,102,102)"  stroke="rgb(102,102,102)" stroke-width="1" font-size="16" >H</text>
<text x="743.023788" y="124.842526" fill="rgb(102,102,102)"  stroke="rgb(102,102,102)" stroke-width="1" font-size="13" >3</text>
<text x="749.523788" y="117.162526" fill="rgb(102,102,102)"  stroke="rgb(102,102,102)" stroke-width="1" font-size="16" >C</text>
<text x="722.929093" y="151.725072" fill="rgb(102,102,102)"  stroke="rgb(102,102,102)" stroke-width="1" font-size="16" >H</text>
<text x="734.929093" y="156.525072" fill="rgb(102,102,102)"  stroke="rgb(102,102,102)" stroke-width="1" font-size="13" >3</text>
<text x="741.429093" y="151.725072" fill="rgb(102,102,102)"  stroke="rgb(102,102,102)" stroke-width="1" font-size="16" >C</text>
<text x="1021.282938" y="526.854329" fill="rgb(12,12,255)"  stroke="rgb(12,12,255)" stroke-width="1" font-size="16" >NH</text>
<text x="1045.282938" y="531.654329" fill="rgb(12,12,255)"  stroke="rgb(12,12,255)" stroke-width="1" font-size="13" >2</text>
<text x="675.340315" y="152.437726" fill="rgb(12,12,255)"  stroke="rgb(12,12,255)" stroke-width="1" font-size="16" >N</text>
<text x="755.894770" y="69.158410" fill="rgb(12,12,255)"  stroke="rgb(12,12,255)" stroke-width="1" font-size="16" >N</text>
<text x="1031.832019" y="460.250049" fill="rgb(12,12,255)"  stroke="rgb(12,12,255)" stroke-width="1" font-size="16" >N</text>
<text x="981.825561" y="421.332136" fill="rgb(12,12,255)"  stroke="rgb(12,12,255)" stroke-width="1" font-size="16" >N</text>
<text x="938.619597" y="508.917957" fill="rgb(12,12,255)"  stroke="rgb(12,12,255)" stroke-width="1" font-size="16" >N</text>
<text x="916.044044" y="450.106632" fill="rgb(12,12,255)"  stroke="rgb(12,12,255)" stroke-width="1" font-size="16" >N</text>
<text x="615.626707" y="110.835230" fill="rgb(255,12,12)"  stroke="rgb(255,12,12)" stroke-width="1" font-size="16" >HO</text>
<text x="537.441191" y="160.606745" fill="rgb(255,12,12)"  stroke="rgb(255,12,12)" stroke-width="1" font-size="16" >O</text>
<text x="867.040963" y="447.459076" fill="rgb(255,12,12)"  stroke="rgb(255,12,12)" stroke-width="1" font-size="16" >OH</text>
<text x="832.541484" y="136.812391" fill="rgb(255,12,12)"  stroke="rgb(255,12,12)" stroke-width="1" font-size="16" >OH</text>
<text x="817.628802" y="48.320000" fill="rgb(255,12,12)"  stroke="rgb(255,12,12)" stroke-width="1" font-size="16" >OH</text>
<text x="747.022108" y="475.340947" fill="rgb(255,12,12)"  stroke="rgb(255,12,12)" stroke-width="1" font-size="16" >OH</text>
<text x="698.488775" y="436.407614" fill="rgb(255,12,12)"  stroke="rgb(255,12,12)" stroke-width="1" font-size="16" >HO</text>
<text x="747.022108" y="400.994280" fill="rgb(255,12,12)"  stroke="rgb(255,12,12)" stroke-width="1" font-size="16" >O</text>
<text x="703.600900" y="348.835661" fill="rgb(255,12,12)"  stroke="rgb(255,12,12)" stroke-width="1" font-size="16" >HO</text>
<text x="685.613048" y="306.178420" fill="rgb(255,12,12)"  stroke="rgb(255,12,12)" stroke-width="1" font-size="16" >O</text>
<text x="689.802439" y="230.013326" fill="rgb(255,12,12)"  stroke="rgb(255,12,12)" stroke-width="1" font-size="16" >HO</text>
<text x="745.579680" y="200.025475" fill="rgb(255,12,12)"  stroke="rgb(255,12,12)" stroke-width="1" font-size="16" >O</text>
<text x="759.378141" y="322.367810" fill="rgb(255,12,12)"  stroke="rgb(255,12,12)" stroke-width="1" font-size="16" >O</text>
<text x="775.567532" y="242.682717" fill="rgb(255,12,12)"  stroke="rgb(255,12,12)" stroke-width="1" font-size="16" >O</text>
<text x="847.574296" y="359.395610" fill="rgb(255,12,12)"  stroke="rgb(255,12,12)" stroke-width="1" font-size="16" >O</text>
<text x="785.955442" y="436.407614" fill="rgb(255,12,12)"  stroke="rgb(255,12,12)" stroke-width="1" font-size="16" >O</text>
<text x="729.390290" y="276.190568" fill="rgb(255,12,12)"  stroke="rgb(255,12,12)" stroke-width="1" font-size="16" >O</text>
<text x="747.022108" y="439.927614" fill="rgb(255,127,0)"  stroke="rgb(255,127,0)" stroke-width="1" font-size="16" >P</text>
<text x="721.295595" y="314.273115" fill="rgb(255,127,0)"  stroke="rgb(255,127,0)" stroke-width="1" font-size="16" >P</text>
<text x="737.484985" y="234.588022" fill="rgb(255,127,0)"  stroke="rgb(255,127,0)" stroke-width="1" font-size="16" >P</text>
<text x="585.154799" y="202.209241" fill="rgb(178,178,0)"  stroke="rgb(178,178,0)" stroke-width="1" font-size="16" >S</text>
<text x="799.860688" y="330.462505" fill="rgb(191,191,191)"  stroke="rgb(191,191,191)" stroke-width="1" font-size="16" >H</text>
<text x="831.358416" y="455.553772" fill="rgb(191,191,191)"  stroke="rgb(191,191,191)" stroke-width="1" font-size="16" >H</text>
<text x="768.888775" y="406.210358" fill="rgb(191,191,191)"  stroke="rgb(191,191,191)" stroke-width="1" font-size="16" >H</text>
<text x="840.636179" y="102.249844" fill="rgb(191,191,191)"  stroke="rgb(191,191,191)" stroke-width="1" font-size="16" >H</text>
<text x="891.818600" y="363.081663" fill="rgb(191,191,191)"  stroke="rgb(191,191,191)" stroke-width="1" font-size="16" >H</text>
<text font-size="18.000000" fill ="black" font-family="sans-serif"
x="140.000000" y="20.000000" ></text>
<title> - OBDepict</title>
</svg>
