<?xml version="1.0"?>
<svg xmlns="http://www.w3.org/2000/svg"
xmlns:xlink="http://www.w3.org/1999/xlink" xmlns:cml="http://www.xml-cml.org/schema" width="379.837" height="243.147" x="0" y="0" font-family="sans-serif" stroke="rgb(0,0,0)" stroke-width="1" >
<line x1="136.9" y1="89.8" x2="138.4" y2="61.1"/>
<line x1="114.3" y1="45.5" x2="138.4" y2="61.1"/>
<line x1="173.0" y1="43.5" x2="205.5" y2="64.7"/>
<line x1="174.3" y1="46.2" x2="139.7" y2="63.8"/>
<line x1="171.6" y1="40.8" x2="137.0" y2="58.5"/>
<line x1="205.5" y1="64.7" x2="231.1" y2="51.6"/>
<line x1="59.4" y1="111.3" x2="98.2" y2="111.3"/>
<line x1="59.4" y1="111.3" x2="45.0" y2="136.2"/>
<line x1="85.5" y1="90.0" x2="86.2" y2="89.6"/>
<line x1="87.1" y1="93.5" x2="88.4" y2="92.7"/>
<line x1="88.7" y1="97.1" x2="90.7" y2="95.9"/>
<line x1="90.2" y1="100.7" x2="93.0" y2="99.1"/>
<line x1="91.8" y1="104.2" x2="95.3" y2="102.2"/>
<line x1="93.4" y1="107.8" x2="97.6" y2="105.4"/>
<line x1="95.0" y1="111.3" x2="99.9" y2="108.5"/>
<polygon points="72.223529 150.113155 98.235294 154.113155 98.235294 146.113155 " />
<line x1="98.2" y1="150.1" x2="83.9" y2="175.0"/>
<line x1="119.8" y1="191.2" x2="119.1" y2="190.8"/>
<line x1="122.1" y1="188.1" x2="120.7" y2="187.3"/>
<line x1="124.4" y1="184.9" x2="122.3" y2="183.7"/>
<line x1="126.6" y1="181.8" x2="123.9" y2="180.2"/>
<line x1="128.9" y1="178.6" x2="125.5" y2="176.6"/>
<line x1="131.2" y1="175.4" x2="127.1" y2="173.0"/>
<line x1="133.5" y1="172.3" x2="128.7" y2="169.5"/>
<line x1="131.9" y1="169.5" x2="146.2" y2="194.4"/>
<polygon points="178.485502 172.640004 168.943721 148.113155 162.015518 152.113155 " />
<line x1="165.5" y1="150.1" x2="194.2" y2="150.1"/>
<line x1="272.7" y1="68.2" x2="248.6" y2="52.5"/>
<polygon points="162.084403 85.500395 161.513840 111.811731 169.445399 110.767521 " />
<line x1="165.5" y1="111.3" x2="221.0" y2="126.2"/>
<line x1="254.4" y1="167.6" x2="244.1" y2="140.8"/>
<line x1="248.3" y1="125.0" x2="270.7" y2="107.0"/>
<line x1="270.7" y1="107.0" x2="303.2" y2="128.1"/>
<line x1="303.2" y1="128.1" x2="295.8" y2="155.8"/>
<line x1="283.1" y1="166.1" x2="254.4" y2="167.6"/>
<line x1="280.6" y1="159.0" x2="260.0" y2="160.1"/>
<line x1="270.7" y1="107.0" x2="272.7" y2="68.2"/>
<line x1="278.2" y1="101.3" x2="279.6" y2="74.6"/>
<line x1="272.7" y1="68.2" x2="298.3" y2="55.1"/>
<line x1="315.7" y1="56.1" x2="339.8" y2="71.7"/>
<line x1="313.6" y1="63.2" x2="330.9" y2="74.5"/>
<line x1="339.8" y1="71.7" x2="338.3" y2="100.4"/>
<line x1="328.8" y1="115.1" x2="303.2" y2="128.1"/>
<line x1="323.7" y1="109.6" x2="305.3" y2="119.0"/>
<line x1="131.9" y1="169.5" x2="165.5" y2="150.1"/>
<line x1="165.5" y1="150.1" x2="165.5" y2="111.3"/>
<line x1="165.5" y1="111.3" x2="140.6" y2="96.9"/>
<line x1="123.1" y1="96.9" x2="98.2" y2="111.3"/>
<line x1="98.2" y1="111.3" x2="98.2" y2="150.1"/>
<line x1="98.2" y1="150.1" x2="131.9" y2="169.5"/>
<text x="112.748129" y="104.715133" fill="rgb(102,102,102)"  stroke="rgb(102,102,102)" stroke-width="1" font-size="16" >H</text>
<text x="124.748129" y="109.515133" fill="rgb(102,102,102)"  stroke="rgb(102,102,102)" stroke-width="1" font-size="13" >3</text>
<text x="131.248129" y="104.715133" fill="rgb(102,102,102)"  stroke="rgb(102,102,102)" stroke-width="1" font-size="16" >C</text>
<text x="82.219844" y="48.320000" fill="rgb(102,102,102)"  stroke="rgb(102,102,102)" stroke-width="1" font-size="16" >H</text>
<text x="94.219844" y="56.000000" fill="rgb(102,102,102)"  stroke="rgb(102,102,102)" stroke-width="1" font-size="13" >3</text>
<text x="100.719844" y="48.320000" fill="rgb(102,102,102)"  stroke="rgb(102,102,102)" stroke-width="1" font-size="16" >C</text>
<text x="234.124183" y="55.358592" fill="rgb(12,12,255)"  stroke="rgb(12,12,255)" stroke-width="1" font-size="16" >NH</text>
<text x="301.276353" y="58.877888" fill="rgb(12,12,255)"  stroke="rgb(12,12,255)" stroke-width="1" font-size="16" >N</text>
<text x="331.804638" y="115.273021" fill="rgb(12,12,255)"  stroke="rgb(12,12,255)" stroke-width="1" font-size="16" >N</text>
<text x="287.164351" y="170.399184" fill="rgb(12,12,255)"  stroke="rgb(12,12,255)" stroke-width="1" font-size="16" >N</text>
<text x="234.480919" y="136.186164" fill="rgb(12,12,255)"  stroke="rgb(12,12,255)" stroke-width="1" font-size="16" >N</text>
<text x="24.400000" y="149.711789" fill="rgb(255,12,12)"  stroke="rgb(255,12,12)" stroke-width="1" font-size="16" >HO</text>
<text x="63.223529" y="188.535318" fill="rgb(255,12,12)"  stroke="rgb(255,12,12)" stroke-width="1" font-size="16" >HO</text>
<text x="145.269222" y="207.947083" fill="rgb(255,12,12)"  stroke="rgb(255,12,12)" stroke-width="1" font-size="16" >OH</text>
<text x="198.303149" y="154.913155" fill="rgb(255,12,12)"  stroke="rgb(255,12,12)" stroke-width="1" font-size="16" >OH</text>
<text x="125.857457" y="100.197861" fill="rgb(255,12,12)"  stroke="rgb(255,12,12)" stroke-width="1" font-size="16" >O</text>
<text x="75.223529" y="85.987463" fill="rgb(191,191,191)"  stroke="rgb(191,191,191)" stroke-width="1" font-size="16" >H</text>
<text x="55.811765" y="154.913155" fill="rgb(191,191,191)"  stroke="rgb(191,191,191)" stroke-width="1" font-size="16" >H</text>
<text x="108.845692" y="207.947083" fill="rgb(191,191,191)"  stroke="rgb(191,191,191)" stroke-width="1" font-size="16" >H</text>
<text x="178.891384" y="188.535318" fill="rgb(191,191,191)"  stroke="rgb(191,191,191)" stroke-width="1" font-size="16" >H</text>
<text x="156.812132" y="81.118237" fill="rgb(191,191,191)"  stroke="rgb(191,191,191)" stroke-width="1" font-size="16" >H</text>
<text font-size="18.000000" fill ="black" font-family="sans-serif"
x="140.000000" y="20.000000" ></text>
<title> - OBDepict</title>
</svg>
