<?xml version="1.0"?>
<svg xmlns="http://www.w3.org/2000/svg"
xmlns:xlink="http://www.w3.org/1999/xlink" xmlns:cml="http://www.xml-cml.org/schema" width="939.269" height="605.5" x="0" y="0" font-family="sans-serif" stroke="rgb(0,0,0)" stroke-width="1" >
<line x1="748.4" y1="430.2" x2="720.4" y2="458.2"/>
<line x1="744.1" y1="426.0" x2="716.1" y2="454.0"/>
<line x1="746.2" y1="428.1" x2="784.5" y2="438.3"/>
<line x1="151.3" y1="169.6" x2="189.5" y2="159.4"/>
<line x1="152.8" y1="175.4" x2="191.1" y2="165.2"/>
<line x1="152.0" y1="172.5" x2="124.0" y2="144.5"/>
<line x1="718.2" y1="456.1" x2="680.0" y2="445.8"/>
<line x1="190.3" y1="162.3" x2="218.3" y2="190.3"/>
<line x1="699.4" y1="326.9" x2="661.2" y2="316.6"/>
<line x1="699.4" y1="326.9" x2="720.1" y2="306.1"/>
<line x1="613.7" y1="463.6" x2="585.7" y2="491.6"/>
<line x1="613.7" y1="463.6" x2="642.0" y2="471.2"/>
<line x1="284.6" y1="208.0" x2="322.8" y2="197.8"/>
<line x1="284.6" y1="208.0" x2="263.8" y2="187.3"/>
<line x1="492.0" y1="239.4" x2="492.0" y2="279.1"/>
<line x1="423.4" y1="397.9" x2="398.0" y2="412.5"/>
<line x1="861.0" y1="458.8" x2="889.3" y2="466.4"/>
<line x1="68.0" y1="88.5" x2="47.3" y2="67.8"/>
<line x1="833.0" y1="486.8" x2="840.6" y2="515.1"/>
<line x1="106.3" y1="78.3" x2="113.9" y2="49.9"/>
<line x1="526.3" y1="180.0" x2="551.7" y2="165.4"/>
<line x1="492.0" y1="397.9" x2="517.4" y2="412.5"/>
<line x1="457.7" y1="180.0" x2="432.3" y2="165.4"/>
<line x1="526.3" y1="298.9" x2="551.7" y2="284.2"/>
<line x1="668.1" y1="341.0" x2="667.3" y2="341.2"/>
<line x1="667.5" y1="337.1" x2="665.9" y2="337.5"/>
<line x1="666.8" y1="333.1" x2="664.5" y2="333.8"/>
<line x1="666.2" y1="329.2" x2="663.1" y2="330.0"/>
<line x1="665.5" y1="325.3" x2="661.7" y2="326.3"/>
<line x1="664.9" y1="321.3" x2="660.3" y2="322.6"/>
<line x1="664.3" y1="317.4" x2="658.9" y2="318.9"/>
<polygon points="595.854502 516.108399 589.394652 490.060439 582.003616 493.121906 " />
<polygon points="315.948216 223.423603 326.680266 198.825859 318.952859 196.755307 " />
<line x1="677.1" y1="446.6" x2="669.5" y2="418.3"/>
<line x1="682.9" y1="445.1" x2="675.3" y2="416.7"/>
<line x1="680.0" y1="445.8" x2="659.2" y2="466.6"/>
<line x1="221.2" y1="191.1" x2="213.6" y2="219.4"/>
<line x1="215.4" y1="189.5" x2="207.8" y2="217.8"/>
<line x1="218.3" y1="190.3" x2="246.6" y2="182.7"/>
<line x1="492.0" y1="160.2" x2="492.0" y2="130.9"/>
<polygon points="697.039663 285.224220 672.441919 274.492170 670.371367 282.219577 " />
<line x1="671.4" y1="278.4" x2="692.1" y2="257.6"/>
<line x1="610.0" y1="550.9" x2="609.6" y2="551.6"/>
<line x1="603.3" y1="546.6" x2="602.5" y2="548.0"/>
<line x1="596.7" y1="542.3" x2="595.5" y2="544.4"/>
<line x1="590.0" y1="538.0" x2="588.4" y2="540.7"/>
<line x1="583.4" y1="533.7" x2="581.4" y2="537.1"/>
<line x1="576.7" y1="529.4" x2="574.3" y2="533.5"/>
<line x1="570.0" y1="525.1" x2="567.2" y2="529.9"/>
<line x1="565.9" y1="525.9" x2="565.9" y2="555.2"/>
<line x1="288.2" y1="166.5" x2="288.0" y2="165.7"/>
<line x1="292.1" y1="165.8" x2="291.7" y2="164.3"/>
<line x1="296.0" y1="165.2" x2="295.4" y2="162.9"/>
<line x1="300.0" y1="164.6" x2="299.1" y2="161.5"/>
<line x1="303.9" y1="163.9" x2="302.9" y2="160.1"/>
<line x1="307.8" y1="163.3" x2="306.6" y2="158.6"/>
<line x1="311.8" y1="162.6" x2="310.3" y2="157.2"/>
<line x1="312.6" y1="159.5" x2="291.8" y2="138.8"/>
<line x1="661.0" y1="232.1" x2="661.6" y2="232.7"/>
<line x1="658.0" y1="234.7" x2="659.1" y2="235.8"/>
<line x1="654.9" y1="237.2" x2="656.6" y2="238.9"/>
<line x1="651.8" y1="239.7" x2="654.1" y2="242.0"/>
<line x1="648.7" y1="242.2" x2="651.5" y2="245.0"/>
<line x1="645.6" y1="244.7" x2="649.0" y2="248.1"/>
<line x1="642.5" y1="247.2" x2="646.5" y2="251.2"/>
<line x1="643.4" y1="250.3" x2="635.8" y2="222.0"/>
<polygon points="526.287369 552.429826 530.287369 525.892571 522.287369 525.892571 " />
<line x1="526.3" y1="525.9" x2="500.9" y2="540.5"/>
<polygon points="321.807600 112.760697 337.743846 134.353797 343.400700 128.696942 " />
<line x1="340.6" y1="131.5" x2="348.2" y2="103.2"/>
<polygon points="598.273083 234.967143 601.277727 261.635439 609.005133 259.564887 " />
<line x1="605.1" y1="260.6" x2="576.8" y2="253.0"/>
<line x1="484.7" y1="504.6" x2="484.3" y2="503.9"/>
<line x1="488.4" y1="503.0" x2="487.6" y2="501.6"/>
<line x1="492.0" y1="501.3" x2="490.8" y2="499.3"/>
<line x1="495.6" y1="499.7" x2="494.0" y2="496.9"/>
<line x1="499.3" y1="498.1" x2="497.3" y2="494.6"/>
<line x1="502.9" y1="496.4" x2="500.5" y2="492.3"/>
<line x1="506.5" y1="494.8" x2="503.7" y2="490.0"/>
<line x1="506.5" y1="491.6" x2="481.1" y2="476.9"/>
<line x1="385.0" y1="117.2" x2="385.8" y2="117.4"/>
<line x1="383.6" y1="120.9" x2="385.1" y2="121.3"/>
<line x1="382.2" y1="124.6" x2="384.5" y2="125.3"/>
<line x1="380.8" y1="128.4" x2="383.9" y2="129.2"/>
<line x1="379.4" y1="132.1" x2="383.2" y2="133.1"/>
<line x1="377.9" y1="135.8" x2="382.6" y2="137.0"/>
<line x1="376.5" y1="139.5" x2="381.9" y2="141.0"/>
<line x1="378.8" y1="141.8" x2="407.1" y2="134.2"/>
<polygon points="503.305432 444.021147 524.287369 460.753876 528.287369 453.825673 " />
<line x1="526.3" y1="457.3" x2="526.3" y2="428.0"/>
<polygon points="392.545583 206.345097 393.047555 179.512768 385.115996 180.556977 " />
<line x1="389.1" y1="180.0" x2="414.5" y2="165.4"/>
<line x1="592.0" y1="324.0" x2="591.2" y2="323.9"/>
<line x1="592.9" y1="320.2" x2="591.3" y2="320.0"/>
<line x1="593.8" y1="316.3" x2="591.4" y2="316.0"/>
<line x1="594.7" y1="312.4" x2="591.5" y2="312.0"/>
<line x1="595.6" y1="308.5" x2="591.7" y2="308.0"/>
<line x1="596.5" y1="304.7" x2="591.8" y2="304.0"/>
<line x1="597.5" y1="300.8" x2="591.9" y2="300.1"/>
<line x1="594.9" y1="298.9" x2="569.5" y2="284.2"/>
<line x1="812.5" y1="410.3" x2="784.5" y2="438.3"/>
<line x1="784.5" y1="438.3" x2="794.7" y2="476.6"/>
<line x1="793.0" y1="442.3" x2="800.1" y2="468.9"/>
<line x1="794.7" y1="476.6" x2="833.0" y2="486.8"/>
<line x1="833.0" y1="486.8" x2="861.0" y2="458.8"/>
<line x1="832.2" y1="477.5" x2="851.7" y2="458.0"/>
<line x1="861.0" y1="458.8" x2="850.8" y2="420.6"/>
<line x1="850.8" y1="420.6" x2="812.5" y2="410.3"/>
<line x1="843.1" y1="426.0" x2="816.4" y2="418.8"/>
<line x1="457.7" y1="417.7" x2="423.4" y2="397.9"/>
<line x1="423.4" y1="397.9" x2="423.4" y2="358.3"/>
<line x1="430.6" y1="391.9" x2="430.6" y2="364.3"/>
<line x1="423.4" y1="358.3" x2="457.7" y2="338.5"/>
<line x1="457.7" y1="338.5" x2="492.0" y2="358.3"/>
<line x1="492.0" y1="358.3" x2="492.0" y2="397.9"/>
<line x1="492.0" y1="397.9" x2="457.7" y2="417.7"/>
<line x1="483.2" y1="394.6" x2="459.3" y2="408.4"/>
<line x1="492.0" y1="279.1" x2="526.3" y2="298.9"/>
<line x1="493.6" y1="288.3" x2="517.5" y2="302.1"/>
<line x1="526.3" y1="298.9" x2="526.3" y2="338.5"/>
<line x1="526.3" y1="338.5" x2="492.0" y2="358.3"/>
<line x1="517.5" y1="335.2" x2="493.6" y2="349.0"/>
<line x1="457.7" y1="338.5" x2="457.7" y2="309.2"/>
<line x1="464.9" y1="332.5" x2="464.9" y2="311.2"/>
<line x1="466.6" y1="293.7" x2="492.0" y2="279.1"/>
<line x1="85.8" y1="154.8" x2="57.8" y2="126.8"/>
<line x1="86.6" y1="145.4" x2="67.1" y2="125.9"/>
<line x1="57.8" y1="126.8" x2="68.0" y2="88.5"/>
<line x1="68.0" y1="88.5" x2="106.3" y2="78.3"/>
<line x1="75.7" y1="93.9" x2="102.3" y2="86.8"/>
<line x1="106.3" y1="78.3" x2="134.3" y2="106.3"/>
<line x1="134.3" y1="106.3" x2="124.0" y2="144.5"/>
<line x1="125.8" y1="110.2" x2="118.6" y2="136.9"/>
<line x1="124.0" y1="144.5" x2="85.8" y2="154.8"/>
<line x1="526.3" y1="219.6" x2="492.0" y2="239.4"/>
<line x1="517.5" y1="216.4" x2="493.6" y2="230.2"/>
<line x1="492.0" y1="239.4" x2="457.7" y2="219.6"/>
<line x1="457.7" y1="219.6" x2="457.7" y2="180.0"/>
<line x1="464.9" y1="213.6" x2="464.9" y2="186.0"/>
<line x1="457.7" y1="180.0" x2="492.0" y2="160.2"/>
<line x1="492.0" y1="160.2" x2="526.3" y2="180.0"/>
<line x1="493.6" y1="169.5" x2="517.5" y2="183.3"/>
<line x1="526.3" y1="180.0" x2="526.3" y2="219.6"/>
<line x1="643.4" y1="250.3" x2="605.1" y2="260.6"/>
<line x1="605.1" y1="260.6" x2="594.9" y2="298.9"/>
<line x1="594.9" y1="298.9" x2="615.6" y2="319.6"/>
<line x1="632.8" y1="324.2" x2="661.2" y2="316.6"/>
<line x1="661.2" y1="316.6" x2="671.4" y2="278.4"/>
<line x1="671.4" y1="278.4" x2="643.4" y2="250.3"/>
<line x1="340.6" y1="131.5" x2="378.8" y2="141.8"/>
<line x1="378.8" y1="141.8" x2="389.1" y2="180.0"/>
<line x1="389.1" y1="180.0" x2="368.4" y2="200.8"/>
<line x1="351.1" y1="205.4" x2="322.8" y2="197.8"/>
<line x1="322.8" y1="197.8" x2="312.6" y2="159.5"/>
<line x1="312.6" y1="159.5" x2="340.6" y2="131.5"/>
<line x1="585.7" y1="491.6" x2="565.9" y2="525.9"/>
<line x1="565.9" y1="525.9" x2="526.3" y2="525.9"/>
<line x1="526.3" y1="525.9" x2="506.5" y2="491.6"/>
<line x1="506.5" y1="491.6" x2="526.3" y2="457.3"/>
<line x1="526.3" y1="457.3" x2="555.6" y2="457.3"/>
<line x1="571.0" y1="466.2" x2="585.7" y2="491.6"/>
<text x="721.420592" y="307.178402" fill="rgb(255,12,12)"  stroke="rgb(255,12,12)" stroke-width="1" font-size="16" >OH</text>
<text x="373.481776" y="422.481931" fill="rgb(255,12,12)"  stroke="rgb(255,12,12)" stroke-width="1" font-size="16" >HO</text>
<text x="893.269489" y="473.877834" fill="rgb(255,12,12)"  stroke="rgb(255,12,12)" stroke-width="1" font-size="16" >OH</text>
<text x="24.400000" y="68.822528" fill="rgb(255,12,12)"  stroke="rgb(255,12,12)" stroke-width="1" font-size="16" >HO</text>
<text x="837.255540" y="529.891783" fill="rgb(255,12,12)"  stroke="rgb(255,12,12)" stroke-width="1" font-size="16" >OH</text>
<text x="110.516477" y="48.320000" fill="rgb(255,12,12)"  stroke="rgb(255,12,12)" stroke-width="1" font-size="16" >OH</text>
<text x="554.588767" y="168.550951" fill="rgb(255,12,12)"  stroke="rgb(255,12,12)" stroke-width="1" font-size="16" >OH</text>
<text x="666.120057" y="415.890249" fill="rgb(255,12,12)"  stroke="rgb(255,12,12)" stroke-width="1" font-size="16" >O</text>
<text x="204.441847" y="233.344375" fill="rgb(255,12,12)"  stroke="rgb(255,12,12)" stroke-width="1" font-size="16" >O</text>
<text x="485.985971" y="128.943108" fill="rgb(255,12,12)"  stroke="rgb(255,12,12)" stroke-width="1" font-size="16" >OH</text>
<text x="693.413617" y="258.668899" fill="rgb(255,12,12)"  stroke="rgb(255,12,12)" stroke-width="1" font-size="16" >OH</text>
<text x="559.895212" y="570.300414" fill="rgb(255,12,12)"  stroke="rgb(255,12,12)" stroke-width="1" font-size="16" >OH</text>
<text x="268.958324" y="139.845370" fill="rgb(255,12,12)"  stroke="rgb(255,12,12)" stroke-width="1" font-size="16" >HO</text>
<text x="617.548404" y="220.410660" fill="rgb(255,12,12)"  stroke="rgb(255,12,12)" stroke-width="1" font-size="16" >HO</text>
<text x="476.385971" y="550.496493" fill="rgb(255,12,12)"  stroke="rgb(255,12,12)" stroke-width="1" font-size="16" >HO</text>
<text x="344.823537" y="101.587131" fill="rgb(255,12,12)"  stroke="rgb(255,12,12)" stroke-width="1" font-size="16" >OH</text>
<text x="551.283191" y="258.668899" fill="rgb(255,12,12)"  stroke="rgb(255,12,12)" stroke-width="1" font-size="16" >HO</text>
<text x="456.582049" y="480.107251" fill="rgb(255,12,12)"  stroke="rgb(255,12,12)" stroke-width="1" font-size="16" >HO</text>
<text x="411.088750" y="139.845370" fill="rgb(255,12,12)"  stroke="rgb(255,12,12)" stroke-width="1" font-size="16" >OH</text>
<text x="645.964347" y="478.635462" fill="rgb(255,12,12)"  stroke="rgb(255,12,12)" stroke-width="1" font-size="16" >O</text>
<text x="250.551350" y="188.354872" fill="rgb(255,12,12)"  stroke="rgb(255,12,12)" stroke-width="1" font-size="16" >O</text>
<text x="452.884572" y="292.458402" fill="rgb(255,12,12)"  stroke="rgb(255,12,12)" stroke-width="1" font-size="16" >+</text>
<text x="454.084572" y="307.178402" fill="rgb(255,12,12)"  stroke="rgb(255,12,12)" stroke-width="1" font-size="16" >O</text>
<text x="520.287369" y="426.001931" fill="rgb(255,12,12)"  stroke="rgb(255,12,12)" stroke-width="1" font-size="16" >O</text>
<text x="417.383174" y="168.550951" fill="rgb(255,12,12)"  stroke="rgb(255,12,12)" stroke-width="1" font-size="16" >O</text>
<text x="554.588767" y="287.374480" fill="rgb(255,12,12)"  stroke="rgb(255,12,12)" stroke-width="1" font-size="16" >O</text>
<text x="619.297140" y="331.665376" fill="rgb(255,12,12)"  stroke="rgb(255,12,12)" stroke-width="1" font-size="16" >O</text>
<text x="559.895212" y="465.609774" fill="rgb(255,12,12)"  stroke="rgb(255,12,12)" stroke-width="1" font-size="16" >O</text>
<text x="355.074801" y="212.841847" fill="rgb(255,12,12)"  stroke="rgb(255,12,12)" stroke-width="1" font-size="16" >O</text>
<text x="665.406643" y="359.672351" fill="rgb(191,191,191)"  stroke="rgb(191,191,191)" stroke-width="1" font-size="16" >H</text>
<text x="594.856399" y="532.984048" fill="rgb(191,191,191)"  stroke="rgb(191,191,191)" stroke-width="1" font-size="16" >H</text>
<text x="308.965299" y="240.848821" fill="rgb(191,191,191)"  stroke="rgb(191,191,191)" stroke-width="1" font-size="16" >H</text>
<text x="703.664882" y="293.407138" fill="rgb(191,191,191)"  stroke="rgb(191,191,191)" stroke-width="1" font-size="16" >H</text>
<text x="628.498009" y="570.300414" fill="rgb(191,191,191)"  stroke="rgb(191,191,191)" stroke-width="1" font-size="16" >H</text>
<text x="270.707060" y="174.583608" fill="rgb(191,191,191)"  stroke="rgb(191,191,191)" stroke-width="1" font-size="16" >H</text>
<text x="665.406643" y="230.661925" fill="rgb(191,191,191)"  stroke="rgb(191,191,191)" stroke-width="1" font-size="16" >H</text>
<text x="520.287369" y="570.300414" fill="rgb(191,191,191)"  stroke="rgb(191,191,191)" stroke-width="1" font-size="16" >H</text>
<text x="308.965299" y="111.838395" fill="rgb(191,191,191)"  stroke="rgb(191,191,191)" stroke-width="1" font-size="16" >H</text>
<text x="591.290166" y="230.661925" fill="rgb(191,191,191)"  stroke="rgb(191,191,191)" stroke-width="1" font-size="16" >H</text>
<text x="468.582049" y="516.195094" fill="rgb(191,191,191)"  stroke="rgb(191,191,191)" stroke-width="1" font-size="16" >H</text>
<text x="383.081776" y="111.838395" fill="rgb(191,191,191)"  stroke="rgb(191,191,191)" stroke-width="1" font-size="16" >H</text>
<text x="488.385971" y="445.805853" fill="rgb(191,191,191)"  stroke="rgb(191,191,191)" stroke-width="1" font-size="16" >H</text>
<text x="388.251637" y="224.103865" fill="rgb(191,191,191)"  stroke="rgb(191,191,191)" stroke-width="1" font-size="16" >H</text>
<text x="586.120305" y="342.927394" fill="rgb(191,191,191)"  stroke="rgb(191,191,191)" stroke-width="1" font-size="16" >H</text>
<text font-size="18.000000" fill ="black" font-family="sans-serif"
x="140.000000" y="20.000000" ></text>
<title> - OBDepict</title>
</svg>
