<?xml version="1.0"?>
<svg xmlns="http://www.w3.org/2000/svg"
xmlns:xlink="http://www.w3.org/1999/xlink" xmlns:cml="http://www.xml-cml.org/schema" width="439.842" height="410.996" x="0" y="0" font-family="sans-serif" stroke="rgb(0,0,0)" stroke-width="1" >
<line x1="175.6" y1="366.8" x2="159.3" y2="330.3"/>
<line x1="175.6" y1="366.8" x2="205.0" y2="369.9"/>
<line x1="329.4" y1="140.0" x2="329.4" y2="180.0"/>
<line x1="329.4" y1="140.0" x2="303.8" y2="125.2"/>
<line x1="285.9" y1="273.9" x2="309.4" y2="241.6"/>
<line x1="238.9" y1="338.6" x2="221.5" y2="362.6"/>
<line x1="361.8" y1="203.5" x2="390.0" y2="194.4"/>
<line x1="349.4" y1="241.6" x2="366.8" y2="265.5"/>
<line x1="63.5" y1="285.4" x2="46.1" y2="309.3"/>
<line x1="68.0" y1="217.7" x2="56.0" y2="190.6"/>
<line x1="73.5" y1="215.2" x2="61.5" y2="188.2"/>
<line x1="324.4" y1="80.0" x2="305.2" y2="80.0"/>
<line x1="294.8" y1="50.4" x2="294.8" y2="69.6"/>
<line x1="265.2" y1="77.0" x2="284.4" y2="77.0"/>
<line x1="265.2" y1="83.0" x2="284.4" y2="83.0"/>
<line x1="294.8" y1="109.6" x2="294.8" y2="90.4"/>
<line x1="349.4" y1="241.6" x2="309.4" y2="241.6"/>
<line x1="309.4" y1="241.6" x2="300.3" y2="213.4"/>
<line x1="305.5" y1="197.4" x2="329.4" y2="180.0"/>
<line x1="329.4" y1="180.0" x2="361.8" y2="203.5"/>
<line x1="361.8" y1="203.5" x2="349.4" y2="241.6"/>
<line x1="302.2" y1="310.5" x2="285.9" y2="273.9"/>
<line x1="293.2" y1="307.9" x2="281.8" y2="282.3"/>
<line x1="285.9" y1="273.9" x2="246.1" y2="269.7"/>
<line x1="246.1" y1="269.7" x2="222.6" y2="302.1"/>
<line x1="248.4" y1="278.8" x2="232.0" y2="301.5"/>
<line x1="222.6" y1="302.1" x2="238.9" y2="338.6"/>
<line x1="238.9" y1="338.6" x2="278.7" y2="342.8"/>
<line x1="245.6" y1="332.1" x2="273.5" y2="335.0"/>
<line x1="278.7" y1="342.8" x2="302.2" y2="310.5"/>
<line x1="182.9" y1="297.9" x2="159.3" y2="330.3"/>
<line x1="159.3" y1="330.3" x2="129.9" y2="327.2"/>
<line x1="154.1" y1="322.5" x2="132.6" y2="320.2"/>
<line x1="115.3" y1="316.6" x2="103.3" y2="289.6"/>
<line x1="103.3" y1="289.6" x2="126.8" y2="257.2"/>
<line x1="112.6" y1="288.9" x2="129.1" y2="266.3"/>
<line x1="126.8" y1="257.2" x2="156.2" y2="260.3"/>
<line x1="170.8" y1="270.9" x2="182.9" y2="297.9"/>
<line x1="165.1" y1="275.6" x2="173.8" y2="295.4"/>
<line x1="63.5" y1="285.4" x2="103.3" y2="289.6"/>
<line x1="126.8" y1="257.2" x2="114.8" y2="230.1"/>
<line x1="100.2" y1="219.6" x2="70.8" y2="216.5"/>
<line x1="70.8" y1="216.5" x2="53.4" y2="240.4"/>
<line x1="51.5" y1="258.3" x2="63.5" y2="285.4"/>
<line x1="58.9" y1="257.2" x2="67.6" y2="277.0"/>
<text x="38.883889" y="188.245021" fill="rgb(12,12,255)"  stroke="rgb(12,12,255)" stroke-width="1" font-size="16" >HN</text>
<text x="209.392969" y="375.796390" fill="rgb(12,12,255)"  stroke="rgb(12,12,255)" stroke-width="1" font-size="16" >NH</text>
<text x="160.584572" y="269.690935" fill="rgb(12,12,255)"  stroke="rgb(12,12,255)" stroke-width="1" font-size="16" >N</text>
<text x="115.961752" y="330.892294" fill="rgb(12,12,255)"  stroke="rgb(12,12,255)" stroke-width="1" font-size="16" >N</text>
<text x="104.534230" y="228.967978" fill="rgb(12,12,255)"  stroke="rgb(12,12,255)" stroke-width="1" font-size="16" >NH</text>
<text x="43.641944" y="257.147519" fill="rgb(12,12,255)"  stroke="rgb(12,12,255)" stroke-width="1" font-size="16" >N</text>
<text x="393.841550" y="199.470730" fill="rgb(255,12,12)"  stroke="rgb(255,12,12)" stroke-width="1" font-size="16" >OH</text>
<text x="366.950019" y="278.714351" fill="rgb(255,12,12)"  stroke="rgb(255,12,12)" stroke-width="1" font-size="16" >OH</text>
<text x="35.200000" y="336.930017" fill="rgb(255,12,12)"  stroke="rgb(255,12,12)" stroke-width="1" font-size="32" >-</text>
<text x="36.400000" y="322.530017" fill="rgb(255,12,12)"  stroke="rgb(255,12,12)" stroke-width="1" font-size="16" >O</text>
<text x="329.997593" y="99.200000" fill="rgb(255,12,12)"  stroke="rgb(255,12,12)" stroke-width="1" font-size="32" >-</text>
<text x="328.797593" y="84.800000" fill="rgb(255,12,12)"  stroke="rgb(255,12,12)" stroke-width="1" font-size="16" >O</text>
<text x="288.797593" y="48.320000" fill="rgb(255,12,12)"  stroke="rgb(255,12,12)" stroke-width="1" font-size="16" >OH</text>
<text x="251.197593" y="84.800000" fill="rgb(255,12,12)"  stroke="rgb(255,12,12)" stroke-width="1" font-size="16" >O</text>
<text x="291.197593" y="124.800000" fill="rgb(255,12,12)"  stroke="rgb(255,12,12)" stroke-width="1" font-size="16" >O</text>
<text x="293.477930" y="211.831410" fill="rgb(255,12,12)"  stroke="rgb(255,12,12)" stroke-width="1" font-size="16" >O</text>
<text x="288.797593" y="84.800000" fill="rgb(255,127,0)"  stroke="rgb(255,127,0)" stroke-width="1" font-size="16" >P</text>
<text font-size="18.000000" fill ="black" font-family="sans-serif"
x="140.000000" y="20.000000" ></text>
<title> - OBDepict</title>
</svg>
