<?xml version="1.0"?>
<svg xmlns="http://www.w3.org/2000/svg"
xmlns:xlink="http://www.w3.org/1999/xlink" xmlns:cml="http://www.xml-cml.org/schema" width="564.982" height="501.217" x="0" y="0" font-family="sans-serif" stroke="rgb(0,0,0)" stroke-width="1" >
<line x1="481.9" y1="49.9" x2="487.9" y2="78.1"/>
<line x1="515.3" y1="87.0" x2="487.9" y2="78.1"/>
<line x1="259.6" y1="386.5" x2="245.2" y2="361.6"/>
<line x1="230.7" y1="386.5" x2="245.2" y2="361.6"/>
<polygon points="278.906128 303.110114 282.906128 250.884473 274.906128 250.884473 " />
<polygon points="346.411698 303.110114 370.599470 313.732313 372.670022 306.004906 " />
<line x1="378.2" y1="287.0" x2="378.9" y2="287.3"/>
<line x1="376.3" y1="290.4" x2="377.7" y2="291.1"/>
<line x1="374.3" y1="293.8" x2="376.5" y2="294.8"/>
<line x1="372.4" y1="297.2" x2="375.3" y2="298.5"/>
<line x1="370.4" y1="300.6" x2="374.1" y2="302.2"/>
<line x1="368.5" y1="304.0" x2="372.8" y2="306.0"/>
<line x1="366.5" y1="307.4" x2="371.6" y2="309.7"/>
<polygon points="446.194894 206.525900 472.568734 205.009330 470.905440 197.184149 " />
<line x1="467.1" y1="142.3" x2="459.0" y2="104.2"/>
<line x1="467.1" y1="142.3" x2="438.1" y2="168.4"/>
<line x1="456.9" y1="102.0" x2="485.9" y2="75.9"/>
<line x1="461.0" y1="106.4" x2="489.9" y2="80.4"/>
<line x1="438.1" y1="168.4" x2="446.2" y2="206.5"/>
<line x1="196.1" y1="190.9" x2="176.6" y2="224.6"/>
<line x1="196.1" y1="190.9" x2="224.9" y2="190.9"/>
<line x1="77.6" y1="451.1" x2="105.2" y2="423.6"/>
<line x1="77.6" y1="451.1" x2="49.8" y2="443.7"/>
<line x1="411.7" y1="208.3" x2="412.4" y2="208.1"/>
<line x1="412.1" y1="212.2" x2="413.6" y2="211.9"/>
<line x1="412.5" y1="216.1" x2="414.8" y2="215.6"/>
<line x1="412.9" y1="220.0" x2="416.0" y2="219.3"/>
<line x1="413.3" y1="223.9" x2="417.2" y2="223.0"/>
<line x1="413.7" y1="227.8" x2="418.4" y2="226.8"/>
<line x1="414.2" y1="231.7" x2="419.6" y2="230.5"/>
<line x1="417.2" y1="232.6" x2="446.2" y2="206.5"/>
<line x1="371.0" y1="181.8" x2="371.7" y2="182.2"/>
<line x1="366.8" y1="188.3" x2="368.2" y2="189.1"/>
<line x1="362.5" y1="194.9" x2="364.6" y2="196.1"/>
<line x1="358.3" y1="201.4" x2="361.0" y2="203.0"/>
<line x1="354.0" y1="208.0" x2="357.5" y2="210.0"/>
<line x1="349.8" y1="214.5" x2="353.9" y2="216.9"/>
<line x1="345.5" y1="221.1" x2="350.4" y2="223.9"/>
<line x1="346.4" y1="225.2" x2="332.0" y2="200.2"/>
<line x1="201.5" y1="224.2" x2="201.5" y2="225.0"/>
<line x1="197.7" y1="223.8" x2="197.7" y2="225.4"/>
<line x1="193.8" y1="223.4" x2="193.8" y2="225.8"/>
<line x1="189.9" y1="223.0" x2="189.9" y2="226.2"/>
<line x1="186.0" y1="222.6" x2="186.0" y2="226.6"/>
<line x1="182.1" y1="222.2" x2="182.1" y2="227.0"/>
<line x1="178.2" y1="221.8" x2="178.2" y2="227.4"/>
<polygon points="111.963869 448.793952 109.069077 422.535628 101.341670 424.606181 " />
<line x1="279.3" y1="367.0" x2="278.5" y2="367.0"/>
<line x1="279.7" y1="363.1" x2="278.1" y2="363.1"/>
<line x1="280.1" y1="359.2" x2="277.7" y2="359.2"/>
<line x1="280.5" y1="355.3" x2="277.3" y2="355.3"/>
<line x1="280.9" y1="351.4" x2="276.9" y2="351.4"/>
<line x1="281.3" y1="347.5" x2="276.5" y2="347.5"/>
<line x1="281.7" y1="343.6" x2="276.1" y2="343.6"/>
<line x1="290.9" y1="271.5" x2="291.3" y2="270.8"/>
<line x1="294.0" y1="273.8" x2="294.8" y2="272.4"/>
<line x1="297.2" y1="276.1" x2="298.4" y2="274.0"/>
<line x1="300.4" y1="278.4" x2="302.0" y2="275.6"/>
<line x1="303.6" y1="280.7" x2="305.6" y2="277.2"/>
<line x1="306.7" y1="283.0" x2="309.1" y2="278.8"/>
<line x1="309.9" y1="285.3" x2="312.7" y2="280.4"/>
<line x1="199.3" y1="363.9" x2="198.6" y2="363.5"/>
<line x1="201.6" y1="360.7" x2="200.2" y2="359.9"/>
<line x1="203.9" y1="357.5" x2="201.8" y2="356.3"/>
<line x1="206.2" y1="354.4" x2="203.4" y2="352.8"/>
<line x1="208.5" y1="351.2" x2="205.0" y2="349.2"/>
<line x1="210.8" y1="348.0" x2="206.6" y2="345.6"/>
<line x1="213.0" y1="344.8" x2="208.2" y2="342.0"/>
<line x1="211.4" y1="342.1" x2="182.6" y2="342.1"/>
<polygon points="369.543442 220.793327 376.510301 246.275522 383.818665 243.021629 " />
<polygon points="129.795303 182.509767 139.387612 207.124133 146.315815 203.124133 " />
<line x1="142.9" y1="205.1" x2="157.3" y2="180.1"/>
<line x1="53.4" y1="389.9" x2="53.7" y2="389.2"/>
<line x1="57.1" y1="391.3" x2="57.5" y2="389.8"/>
<line x1="60.8" y1="392.7" x2="61.4" y2="390.4"/>
<line x1="64.4" y1="394.1" x2="65.3" y2="391.0"/>
<line x1="68.1" y1="395.5" x2="69.1" y2="391.7"/>
<line x1="71.8" y1="396.9" x2="73.0" y2="392.3"/>
<line x1="75.4" y1="398.3" x2="76.9" y2="392.9"/>
<line x1="77.6" y1="396.0" x2="57.3" y2="416.4"/>
<line x1="84.2" y1="225.0" x2="84.2" y2="224.2"/>
<line x1="88.1" y1="225.4" x2="88.1" y2="223.8"/>
<line x1="92.0" y1="225.8" x2="92.0" y2="223.4"/>
<line x1="95.8" y1="226.2" x2="95.8" y2="223.0"/>
<line x1="99.7" y1="226.6" x2="99.7" y2="222.6"/>
<line x1="103.6" y1="227.0" x2="103.6" y2="222.2"/>
<line x1="107.5" y1="227.4" x2="107.5" y2="221.8"/>
<line x1="109.1" y1="224.6" x2="94.7" y2="199.6"/>
<polygon points="80.975151 333.142483 83.869943 359.400807 91.597350 357.330255 " />
<line x1="87.7" y1="358.4" x2="59.9" y2="350.9"/>
<polygon points="96.042518 286.200038 112.563030 265.585672 105.634827 261.585672 " />
<line x1="109.1" y1="263.6" x2="80.3" y2="263.6"/>
<line x1="142.7" y1="330.4" x2="143.3" y2="330.9"/>
<line x1="139.7" y1="332.8" x2="140.8" y2="334.0"/>
<line x1="136.7" y1="335.3" x2="138.4" y2="337.0"/>
<line x1="133.6" y1="337.8" x2="135.9" y2="340.0"/>
<line x1="130.6" y1="340.2" x2="133.4" y2="343.1"/>
<line x1="127.5" y1="342.7" x2="130.9" y2="346.1"/>
<line x1="124.5" y1="345.2" x2="128.5" y2="349.2"/>
<line x1="125.4" y1="348.3" x2="117.9" y2="320.4"/>
<line x1="166.0" y1="292.2" x2="165.7" y2="293.0"/>
<line x1="162.6" y1="290.4" x2="162.0" y2="291.9"/>
<line x1="159.2" y1="288.5" x2="158.2" y2="290.7"/>
<line x1="155.7" y1="286.7" x2="154.5" y2="289.6"/>
<line x1="152.3" y1="284.8" x2="150.7" y2="288.5"/>
<line x1="148.8" y1="282.9" x2="147.0" y2="287.4"/>
<line x1="145.4" y1="281.1" x2="143.2" y2="286.3"/>
<line x1="142.9" y1="283.1" x2="122.5" y2="303.5"/>
<polygon points="168.835498 396.553952 156.112433 373.402212 149.765606 378.272304 " />
<line x1="152.9" y1="375.8" x2="167.4" y2="350.9"/>
<line x1="446.2" y1="206.5" x2="465.5" y2="228.0"/>
<line x1="440.1" y1="264.1" x2="417.2" y2="295.7"/>
<line x1="417.2" y1="295.7" x2="380.2" y2="283.6"/>
<line x1="380.2" y1="283.6" x2="380.2" y2="244.6"/>
<line x1="380.2" y1="244.6" x2="417.2" y2="232.6"/>
<line x1="417.2" y1="232.6" x2="440.1" y2="264.1"/>
<line x1="346.4" y1="342.1" x2="312.7" y2="361.6"/>
<line x1="312.7" y1="361.6" x2="278.9" y2="342.1"/>
<line x1="278.9" y1="342.1" x2="278.9" y2="303.1"/>
<line x1="278.9" y1="303.1" x2="312.7" y2="283.6"/>
<line x1="312.7" y1="283.6" x2="346.4" y2="303.1"/>
<line x1="346.4" y1="303.1" x2="346.4" y2="342.1"/>
<line x1="211.4" y1="342.1" x2="211.4" y2="303.1"/>
<line x1="211.4" y1="303.1" x2="245.2" y2="283.6"/>
<line x1="245.2" y1="283.6" x2="278.9" y2="303.1"/>
<line x1="278.9" y1="342.1" x2="245.2" y2="361.6"/>
<line x1="245.2" y1="361.6" x2="211.4" y2="342.1"/>
<line x1="380.2" y1="283.6" x2="346.4" y2="303.1"/>
<line x1="312.7" y1="283.6" x2="312.7" y2="244.6"/>
<line x1="312.7" y1="244.6" x2="346.4" y2="225.2"/>
<line x1="346.4" y1="225.2" x2="380.2" y2="244.6"/>
<line x1="109.1" y1="224.6" x2="109.1" y2="263.6"/>
<line x1="109.1" y1="263.6" x2="142.9" y2="283.1"/>
<line x1="142.9" y1="283.1" x2="167.8" y2="268.7"/>
<line x1="176.6" y1="253.5" x2="176.6" y2="224.6"/>
<line x1="176.6" y1="224.6" x2="142.9" y2="205.1"/>
<line x1="142.9" y1="205.1" x2="109.1" y2="224.6"/>
<line x1="87.7" y1="358.4" x2="125.4" y2="348.3"/>
<line x1="125.4" y1="348.3" x2="152.9" y2="375.8"/>
<line x1="152.9" y1="375.8" x2="145.5" y2="403.7"/>
<line x1="133.1" y1="416.1" x2="105.2" y2="423.6"/>
<line x1="105.2" y1="423.6" x2="77.6" y2="396.0"/>
<line x1="77.6" y1="396.0" x2="87.7" y2="358.4"/>
<text x="456.212406" y="48.320000" fill="rgb(102,102,102)"  stroke="rgb(102,102,102)" stroke-width="1" font-size="16" >H</text>
<text x="468.212406" y="56.000000" fill="rgb(102,102,102)"  stroke="rgb(102,102,102)" stroke-width="1" font-size="13" >3</text>
<text x="474.712406" y="48.320000" fill="rgb(102,102,102)"  stroke="rgb(102,102,102)" stroke-width="1" font-size="16" >C</text>
<text x="518.982449" y="94.966415" fill="rgb(102,102,102)"  stroke="rgb(102,102,102)" stroke-width="1" font-size="16" >CH</text>
<text x="542.982449" y="99.766415" fill="rgb(102,102,102)"  stroke="rgb(102,102,102)" stroke-width="1" font-size="13" >3</text>
<text x="258.640523" y="400.124438" fill="rgb(102,102,102)"  stroke="rgb(102,102,102)" stroke-width="1" font-size="16" >CH</text>
<text x="282.640523" y="404.924438" fill="rgb(102,102,102)"  stroke="rgb(102,102,102)" stroke-width="1" font-size="13" >3</text>
<text x="202.066164" y="400.124438" fill="rgb(102,102,102)"  stroke="rgb(102,102,102)" stroke-width="1" font-size="16" >H</text>
<text x="214.066164" y="404.924438" fill="rgb(102,102,102)"  stroke="rgb(102,102,102)" stroke-width="1" font-size="13" >3</text>
<text x="220.566164" y="400.124438" fill="rgb(102,102,102)"  stroke="rgb(102,102,102)" stroke-width="1" font-size="16" >C</text>
<text x="272.906128" y="233.481396" fill="rgb(102,102,102)"  stroke="rgb(102,102,102)" stroke-width="1" font-size="16" >CH</text>
<text x="296.906128" y="241.161396" fill="rgb(102,102,102)"  stroke="rgb(102,102,102)" stroke-width="1" font-size="13" >3</text>
<text x="378.058038" y="317.997421" fill="rgb(102,102,102)"  stroke="rgb(102,102,102)" stroke-width="1" font-size="16" >CH</text>
<text x="402.058038" y="322.797421" fill="rgb(102,102,102)"  stroke="rgb(102,102,102)" stroke-width="1" font-size="13" >3</text>
<text x="340.712183" y="324.027783" fill="rgb(102,102,102)"  stroke="rgb(102,102,102)" stroke-width="1" font-size="16" >H</text>
<text x="352.712183" y="328.827783" fill="rgb(102,102,102)"  stroke="rgb(102,102,102)" stroke-width="1" font-size="13" >3</text>
<text x="359.212183" y="324.027783" fill="rgb(102,102,102)"  stroke="rgb(102,102,102)" stroke-width="1" font-size="16" >C</text>
<text x="478.317570" y="206.742675" fill="rgb(102,102,102)"  stroke="rgb(102,102,102)" stroke-width="1" font-size="16" >CH</text>
<text x="502.317570" y="214.422675" fill="rgb(102,102,102)"  stroke="rgb(102,102,102)" stroke-width="1" font-size="13" >3</text>
<text x="229.066037" y="195.658528" fill="rgb(255,12,12)"  stroke="rgb(255,12,12)" stroke-width="1" font-size="16" >OH</text>
<text x="24.400000" y="449.362632" fill="rgb(255,12,12)"  stroke="rgb(255,12,12)" stroke-width="1" font-size="16" >HO</text>
<text x="311.324519" y="199.728611" fill="rgb(255,12,12)"  stroke="rgb(255,12,12)" stroke-width="1" font-size="16" >HO</text>
<text x="156.338893" y="179.691348" fill="rgb(255,12,12)"  stroke="rgb(255,12,12)" stroke-width="1" font-size="16" >OH</text>
<text x="34.487306" y="428.370904" fill="rgb(255,12,12)"  stroke="rgb(255,12,12)" stroke-width="1" font-size="16" >HO</text>
<text x="74.011749" y="199.178528" fill="rgb(255,12,12)"  stroke="rgb(255,12,12)" stroke-width="1" font-size="16" >HO</text>
<text x="34.487306" y="356.598225" fill="rgb(255,12,12)"  stroke="rgb(255,12,12)" stroke-width="1" font-size="16" >HO</text>
<text x="54.524569" y="271.905672" fill="rgb(255,12,12)"  stroke="rgb(255,12,12)" stroke-width="1" font-size="16" >HO</text>
<text x="466.273831" y="240.289493" fill="rgb(255,12,12)"  stroke="rgb(255,12,12)" stroke-width="1" font-size="16" >OH</text>
<text x="170.604498" y="268.385672" fill="rgb(255,12,12)"  stroke="rgb(255,12,12)" stroke-width="1" font-size="16" >O</text>
<text x="136.851713" y="418.283598" fill="rgb(255,12,12)"  stroke="rgb(255,12,12)" stroke-width="1" font-size="16" >O</text>
<text x="168.826199" y="350.404473" fill="rgb(255,12,12)"  stroke="rgb(255,12,12)" stroke-width="1" font-size="16" >O</text>
<text x="111.692680" y="318.951885" fill="rgb(255,12,12)"  stroke="rgb(255,12,12)" stroke-width="1" font-size="16" >O</text>
<text x="405.528076" y="202.802161" fill="rgb(191,191,191)"  stroke="rgb(191,191,191)" stroke-width="1" font-size="16" >H</text>
<text x="379.386057" y="165.975826" fill="rgb(191,191,191)"  stroke="rgb(191,191,191)" stroke-width="1" font-size="16" >H</text>
<text x="209.578857" y="229.411313" fill="rgb(191,191,191)"  stroke="rgb(191,191,191)" stroke-width="1" font-size="16" >H</text>
<text x="109.292680" y="466.017244" fill="rgb(191,191,191)"  stroke="rgb(191,191,191)" stroke-width="1" font-size="16" >H</text>
<text x="272.906128" y="385.858832" fill="rgb(191,191,191)"  stroke="rgb(191,191,191)" stroke-width="1" font-size="16" >H</text>
<text x="275.306128" y="272.455755" fill="rgb(191,191,191)"  stroke="rgb(191,191,191)" stroke-width="1" font-size="16" >H</text>
<text x="188.313379" y="380.637258" fill="rgb(191,191,191)"  stroke="rgb(191,191,191)" stroke-width="1" font-size="16" >H</text>
<text x="360.712183" y="217.363727" fill="rgb(191,191,191)"  stroke="rgb(191,191,191)" stroke-width="1" font-size="16" >H</text>
<text x="119.764534" y="179.691348" fill="rgb(191,191,191)"  stroke="rgb(191,191,191)" stroke-width="1" font-size="16" >H</text>
<text x="36.400000" y="394.244565" fill="rgb(191,191,191)"  stroke="rgb(191,191,191)" stroke-width="1" font-size="16" >H</text>
<text x="66.524569" y="232.931313" fill="rgb(191,191,191)"  stroke="rgb(191,191,191)" stroke-width="1" font-size="16" >H</text>
<text x="74.046340" y="329.039191" fill="rgb(191,191,191)"  stroke="rgb(191,191,191)" stroke-width="1" font-size="16" >H</text>
<text x="86.011749" y="302.138457" fill="rgb(191,191,191)"  stroke="rgb(191,191,191)" stroke-width="1" font-size="16" >H</text>
<text x="146.939020" y="329.039191" fill="rgb(191,191,191)"  stroke="rgb(191,191,191)" stroke-width="1" font-size="16" >H</text>
<text x="172.859326" y="302.787693" fill="rgb(191,191,191)"  stroke="rgb(191,191,191)" stroke-width="1" font-size="16" >H</text>
<text x="170.665106" y="411.557696" fill="rgb(191,191,191)"  stroke="rgb(191,191,191)" stroke-width="1" font-size="16" >H</text>
<text font-size="18.000000" fill ="black" font-family="sans-serif"
x="140.000000" y="20.000000" ></text>
<title> - OBDepict</title>
</svg>
