<?xml version="1.0"?>
<svg xmlns="http://www.w3.org/2000/svg"
xmlns:xlink="http://www.w3.org/1999/xlink" xmlns:cml="http://www.xml-cml.org/schema" width="1103.71" height="1058.57" x="0" y="0" font-family="sans-serif" stroke="rgb(0,0,0)" stroke-width="1" >
<line x1="1038.6" y1="1013.5" x2="1063.7" y2="999.0"/>
<line x1="394.5" y1="54.5" x2="419.6" y2="40.0"/>
<line x1="45.1" y1="525.9" x2="59.6" y2="500.8"/>
<line x1="309.4" y1="647.5" x2="329.9" y2="627.0"/>
<line x1="1063.7" y1="999.0" x2="1063.7" y2="959.9"/>
<line x1="419.6" y1="40.0" x2="453.5" y2="59.6"/>
<line x1="1063.7" y1="959.9" x2="1029.8" y2="940.3"/>
<line x1="453.5" y1="59.6" x2="453.5" y2="98.7"/>
<line x1="1029.8" y1="940.3" x2="1029.8" y2="901.1"/>
<line x1="453.5" y1="98.7" x2="487.4" y2="118.3"/>
<line x1="1029.8" y1="901.1" x2="995.9" y2="881.6"/>
<line x1="487.4" y1="118.3" x2="487.4" y2="157.4"/>
<line x1="995.9" y1="881.6" x2="995.9" y2="842.4"/>
<line x1="487.4" y1="157.4" x2="521.3" y2="177.0"/>
<line x1="995.9" y1="842.4" x2="962.0" y2="822.9"/>
<line x1="521.3" y1="177.0" x2="521.3" y2="216.1"/>
<line x1="962.0" y1="822.9" x2="962.0" y2="783.7"/>
<line x1="521.3" y1="216.1" x2="555.2" y2="235.7"/>
<line x1="962.0" y1="783.7" x2="987.1" y2="769.2"/>
<line x1="960.5" y1="786.3" x2="926.6" y2="766.7"/>
<line x1="963.5" y1="781.1" x2="929.6" y2="761.5"/>
<line x1="928.1" y1="764.1" x2="928.1" y2="735.2"/>
<line x1="928.1" y1="764.1" x2="894.2" y2="783.7"/>
<line x1="894.2" y1="783.7" x2="860.3" y2="764.1"/>
<line x1="860.3" y1="764.1" x2="860.3" y2="725.0"/>
<line x1="860.3" y1="725.0" x2="826.4" y2="705.4"/>
<line x1="826.4" y1="705.4" x2="826.4" y2="666.3"/>
<line x1="826.4" y1="666.3" x2="792.5" y2="646.7"/>
<line x1="792.5" y1="646.7" x2="792.5" y2="607.6"/>
<line x1="555.2" y1="235.7" x2="555.2" y2="274.9"/>
<line x1="792.5" y1="607.6" x2="758.6" y2="588.0"/>
<line x1="555.2" y1="274.9" x2="589.1" y2="294.4"/>
<line x1="758.6" y1="588.0" x2="758.6" y2="548.9"/>
<line x1="589.1" y1="294.4" x2="589.1" y2="333.6"/>
<line x1="758.6" y1="548.9" x2="724.7" y2="529.3"/>
<line x1="589.1" y1="333.6" x2="623.0" y2="353.1"/>
<line x1="724.7" y1="529.3" x2="724.7" y2="490.1"/>
<line x1="623.0" y1="353.1" x2="656.9" y2="333.6"/>
<line x1="724.7" y1="490.1" x2="690.8" y2="470.6"/>
<line x1="656.9" y1="333.6" x2="656.9" y2="304.6"/>
<line x1="658.4" y1="331.0" x2="692.3" y2="350.5"/>
<line x1="655.4" y1="336.2" x2="689.3" y2="355.7"/>
<line x1="690.8" y1="470.6" x2="656.9" y2="490.1"/>
<line x1="690.8" y1="353.1" x2="715.9" y2="338.7"/>
<line x1="690.8" y1="353.1" x2="690.8" y2="392.3"/>
<line x1="656.9" y1="490.1" x2="623.0" y2="470.6"/>
<line x1="113.0" y1="554.3" x2="152.2" y2="554.3"/>
<line x1="113.0" y1="554.3" x2="98.6" y2="579.4"/>
<line x1="401.6" y1="291.6" x2="421.2" y2="325.5"/>
<line x1="401.6" y1="291.6" x2="416.1" y2="266.5"/>
<line x1="234.0" y1="496.0" x2="271.8" y2="485.9"/>
<line x1="234.0" y1="496.0" x2="213.5" y2="475.5"/>
<line x1="503.0" y1="487.5" x2="530.7" y2="459.8"/>
<line x1="503.0" y1="487.5" x2="510.5" y2="515.5"/>
<line x1="637.4" y1="378.0" x2="656.9" y2="411.9"/>
<line x1="637.4" y1="378.0" x2="608.4" y2="378.0"/>
<line x1="59.6" y1="497.8" x2="88.5" y2="497.8"/>
<line x1="59.6" y1="503.8" x2="88.5" y2="503.8"/>
<line x1="59.6" y1="500.8" x2="45.1" y2="475.8"/>
<line x1="327.0" y1="627.8" x2="319.5" y2="599.8"/>
<line x1="332.8" y1="626.2" x2="325.3" y2="598.2"/>
<line x1="329.9" y1="627.0" x2="357.9" y2="634.5"/>
<line x1="669.8" y1="433.4" x2="669.1" y2="433.8"/>
<line x1="668.2" y1="429.8" x2="666.8" y2="430.6"/>
<line x1="666.6" y1="426.2" x2="664.5" y2="427.4"/>
<line x1="665.0" y1="422.6" x2="662.2" y2="424.2"/>
<line x1="663.4" y1="419.0" x2="659.9" y2="421.0"/>
<line x1="661.7" y1="415.4" x2="657.6" y2="417.8"/>
<line x1="660.1" y1="411.8" x2="655.3" y2="414.6"/>
<line x1="656.9" y1="411.9" x2="690.8" y2="392.3"/>
<line x1="656.9" y1="411.9" x2="631.8" y2="426.3"/>
<line x1="715.9" y1="391.9" x2="715.9" y2="392.7"/>
<line x1="712.0" y1="391.5" x2="712.0" y2="393.1"/>
<line x1="708.0" y1="391.1" x2="708.0" y2="393.5"/>
<line x1="704.1" y1="390.7" x2="704.1" y2="393.9"/>
<line x1="700.2" y1="390.3" x2="700.2" y2="394.3"/>
<line x1="696.3" y1="389.9" x2="696.3" y2="394.7"/>
<line x1="692.4" y1="389.5" x2="692.4" y2="395.1"/>
<line x1="690.8" y1="392.3" x2="705.3" y2="417.4"/>
<line x1="105.4" y1="406.3" x2="106.1" y2="405.9"/>
<line x1="107.0" y1="409.9" x2="108.4" y2="409.1"/>
<line x1="108.6" y1="413.5" x2="110.7" y2="412.3"/>
<line x1="110.2" y1="417.1" x2="113.0" y2="415.5"/>
<line x1="111.9" y1="420.7" x2="115.3" y2="418.7"/>
<line x1="113.5" y1="424.3" x2="117.6" y2="421.9"/>
<line x1="115.1" y1="427.8" x2="119.9" y2="425.0"/>
<line x1="118.3" y1="427.8" x2="89.3" y2="427.8"/>
<polygon points="410.591626 558.150080 386.294808 547.498662 384.224255 555.226069 " />
<line x1="385.3" y1="551.4" x2="392.8" y2="579.3"/>
<polygon points="152.184423 580.541576 156.184423 554.315862 148.184423 554.315862 " />
<line x1="152.2" y1="554.3" x2="171.8" y2="520.4"/>
<line x1="152.2" y1="554.3" x2="177.3" y2="568.8"/>
<line x1="433.4" y1="303.6" x2="434.1" y2="304.0"/>
<line x1="431.1" y1="306.8" x2="432.4" y2="307.6"/>
<line x1="428.8" y1="309.9" x2="430.8" y2="311.1"/>
<line x1="426.5" y1="313.1" x2="429.2" y2="314.7"/>
<line x1="424.1" y1="316.3" x2="427.6" y2="318.3"/>
<line x1="421.8" y1="319.5" x2="426.0" y2="321.9"/>
<line x1="419.5" y1="322.7" x2="424.4" y2="325.5"/>
<line x1="295.9" y1="479.0" x2="296.1" y2="479.8"/>
<line x1="292.0" y1="479.6" x2="292.5" y2="481.2"/>
<line x1="288.2" y1="480.3" x2="288.8" y2="482.6"/>
<line x1="284.3" y1="480.9" x2="285.1" y2="484.0"/>
<line x1="280.4" y1="481.5" x2="281.4" y2="485.4"/>
<line x1="276.5" y1="482.1" x2="277.7" y2="486.8"/>
<line x1="272.6" y1="482.8" x2="274.1" y2="488.2"/>
<line x1="271.8" y1="485.9" x2="282.0" y2="523.7"/>
<line x1="271.8" y1="485.9" x2="264.3" y2="457.9"/>
<polygon points="537.487022 485.129251 534.563011 458.761880 526.835605 460.832433 " />
<line x1="620.0" y1="470.6" x2="620.0" y2="441.6"/>
<line x1="626.0" y1="470.6" x2="626.0" y2="441.6"/>
<line x1="623.0" y1="470.6" x2="597.9" y2="485.1"/>
<polygon points="92.060000 466.947016 118.285714 470.947016 118.285714 462.947016 " />
<line x1="118.3" y1="466.9" x2="103.8" y2="492.0"/>
<line x1="354.3" y1="585.6" x2="353.5" y2="585.8"/>
<line x1="353.7" y1="581.7" x2="352.1" y2="582.1"/>
<line x1="353.1" y1="577.8" x2="350.7" y2="578.4"/>
<line x1="352.4" y1="573.9" x2="349.3" y2="574.8"/>
<line x1="351.8" y1="570.0" x2="348.0" y2="571.1"/>
<line x1="351.2" y1="566.2" x2="346.6" y2="567.4"/>
<line x1="350.6" y1="562.3" x2="345.2" y2="563.7"/>
<line x1="347.5" y1="561.5" x2="327.0" y2="582.0"/>
<polygon points="194.467986 533.530010 173.755852 516.953051 169.755852 523.881255 " />
<line x1="171.8" y1="520.4" x2="152.2" y2="486.5"/>
<line x1="171.8" y1="520.4" x2="196.8" y2="505.9"/>
<line x1="374.4" y1="323.5" x2="375.1" y2="323.1"/>
<line x1="376.0" y1="327.1" x2="377.4" y2="326.3"/>
<line x1="377.6" y1="330.7" x2="379.7" y2="329.5"/>
<line x1="379.2" y1="334.3" x2="382.0" y2="332.7"/>
<line x1="380.9" y1="337.9" x2="384.3" y2="335.9"/>
<line x1="382.5" y1="341.5" x2="386.6" y2="339.1"/>
<line x1="384.1" y1="345.1" x2="388.9" y2="342.3"/>
<line x1="387.3" y1="345.0" x2="358.3" y2="345.0"/>
<polygon points="256.631064 530.471900 282.998435 527.547889 280.927883 519.820482 " />
<line x1="282.0" y1="523.7" x2="319.8" y2="533.8"/>
<line x1="282.0" y1="523.7" x2="274.5" y2="551.7"/>
<polygon points="487.819950 387.522166 512.116769 398.173583 514.187321 390.446177 " />
<line x1="513.2" y1="394.3" x2="498.2" y2="338.4"/>
<line x1="551.0" y1="384.2" x2="543.5" y2="356.2"/>
<line x1="551.0" y1="384.2" x2="571.4" y2="363.7"/>
<polygon points="408.069549 426.462527 424.646508 405.750392 417.718304 401.750392 " />
<line x1="421.2" y1="403.8" x2="435.7" y2="428.8"/>
<line x1="485.6" y1="450.1" x2="485.0" y2="449.6"/>
<line x1="488.6" y1="447.6" x2="487.5" y2="446.5"/>
<line x1="491.7" y1="445.1" x2="490.0" y2="443.4"/>
<line x1="494.7" y1="442.7" x2="492.5" y2="440.4"/>
<line x1="497.8" y1="440.2" x2="495.0" y2="437.3"/>
<line x1="500.8" y1="437.7" x2="497.4" y2="434.3"/>
<line x1="503.9" y1="435.2" x2="499.9" y2="431.2"/>
<line x1="503.0" y1="432.1" x2="475.0" y2="424.6"/>
<line x1="152.2" y1="486.5" x2="137.7" y2="511.6"/>
<line x1="319.8" y1="533.8" x2="299.3" y2="554.3"/>
<line x1="362.2" y1="384.6" x2="362.2" y2="383.8"/>
<line x1="366.1" y1="385.0" x2="366.1" y2="383.4"/>
<line x1="370.1" y1="385.4" x2="370.1" y2="383.0"/>
<line x1="374.0" y1="385.8" x2="374.0" y2="382.6"/>
<line x1="377.9" y1="386.2" x2="377.9" y2="382.2"/>
<line x1="381.8" y1="386.6" x2="381.8" y2="381.8"/>
<line x1="385.7" y1="387.0" x2="385.7" y2="381.4"/>
<line x1="387.3" y1="384.2" x2="358.3" y2="434.3"/>
<polygon points="594.604525 432.663401 581.812735 409.422097 575.465908 414.292189 " />
<line x1="578.6" y1="411.9" x2="593.1" y2="386.8"/>
<line x1="474.7" y1="368.6" x2="475.2" y2="369.2"/>
<line x1="471.4" y1="370.7" x2="472.3" y2="371.9"/>
<line x1="468.0" y1="372.7" x2="469.5" y2="374.6"/>
<line x1="464.7" y1="374.8" x2="466.6" y2="377.3"/>
<line x1="461.3" y1="376.9" x2="463.8" y2="380.0"/>
<line x1="458.0" y1="378.9" x2="460.9" y2="382.7"/>
<line x1="454.6" y1="381.0" x2="458.0" y2="385.4"/>
<line x1="455.1" y1="384.2" x2="462.6" y2="412.2"/>
<line x1="186.0" y1="423.9" x2="185.2" y2="424.0"/>
<line x1="185.9" y1="419.9" x2="184.3" y2="420.1"/>
<line x1="185.7" y1="416.0" x2="183.4" y2="416.3"/>
<line x1="185.6" y1="412.1" x2="182.5" y2="412.5"/>
<line x1="185.5" y1="408.1" x2="181.5" y2="408.7"/>
<line x1="185.4" y1="404.2" x2="180.6" y2="404.8"/>
<line x1="185.3" y1="400.3" x2="179.7" y2="401.0"/>
<line x1="179.8" y1="391.8" x2="153.1" y2="380.7"/>
<line x1="182.1" y1="386.2" x2="155.4" y2="375.1"/>
<line x1="181.0" y1="389.0" x2="204.0" y2="371.4"/>
<polygon points="367.712269 485.875089 407.042358 484.731700 405.998149 476.800142 " />
<line x1="408.9" y1="478.9" x2="426.5" y2="501.9"/>
<line x1="404.1" y1="482.6" x2="421.8" y2="505.6"/>
<line x1="406.5" y1="480.8" x2="417.6" y2="454.0"/>
<line x1="186.1" y1="427.8" x2="242.0" y2="442.8"/>
<line x1="367.7" y1="485.9" x2="353.2" y2="460.8"/>
<line x1="421.2" y1="403.8" x2="455.1" y2="384.2"/>
<line x1="455.1" y1="384.2" x2="455.1" y2="355.2"/>
<line x1="446.3" y1="339.9" x2="421.2" y2="325.5"/>
<line x1="421.2" y1="325.5" x2="387.3" y2="345.0"/>
<line x1="387.3" y1="345.0" x2="387.3" y2="384.2"/>
<line x1="387.3" y1="384.2" x2="421.2" y2="403.8"/>
<line x1="513.2" y1="394.3" x2="551.0" y2="384.2"/>
<line x1="551.0" y1="384.2" x2="578.6" y2="411.9"/>
<line x1="578.6" y1="411.9" x2="571.1" y2="439.8"/>
<line x1="558.7" y1="452.3" x2="530.7" y2="459.8"/>
<line x1="530.7" y1="459.8" x2="503.0" y2="432.1"/>
<line x1="503.0" y1="432.1" x2="513.2" y2="394.3"/>
<line x1="152.2" y1="408.2" x2="118.3" y2="427.8"/>
<line x1="118.3" y1="427.8" x2="118.3" y2="466.9"/>
<line x1="118.3" y1="466.9" x2="152.2" y2="486.5"/>
<line x1="152.2" y1="486.5" x2="177.3" y2="472.0"/>
<line x1="186.1" y1="456.8" x2="186.1" y2="427.8"/>
<line x1="186.1" y1="427.8" x2="152.2" y2="408.2"/>
<line x1="395.4" y1="513.6" x2="385.3" y2="551.4"/>
<line x1="385.3" y1="551.4" x2="347.5" y2="561.5"/>
<line x1="347.5" y1="561.5" x2="319.8" y2="533.8"/>
<line x1="319.8" y1="533.8" x2="327.3" y2="505.8"/>
<line x1="339.7" y1="493.4" x2="367.7" y2="485.9"/>
<line x1="367.7" y1="485.9" x2="395.4" y2="513.6"/>
<text x="1006.210831" y="1023.371429" fill="rgb(102,102,102)"  stroke="rgb(102,102,102)" stroke-width="1" font-size="16" >H</text>
<text x="1018.210831" y="1028.171429" fill="rgb(102,102,102)"  stroke="rgb(102,102,102)" stroke-width="1" font-size="13" >3</text>
<text x="1024.710831" y="1023.371429" fill="rgb(102,102,102)"  stroke="rgb(102,102,102)" stroke-width="1" font-size="16" >C</text>
<text x="362.135367" y="64.371429" fill="rgb(102,102,102)"  stroke="rgb(102,102,102)" stroke-width="1" font-size="16" >H</text>
<text x="374.135367" y="69.171429" fill="rgb(102,102,102)"  stroke="rgb(102,102,102)" stroke-width="1" font-size="13" >3</text>
<text x="380.635367" y="64.371429" fill="rgb(102,102,102)"  stroke="rgb(102,102,102)" stroke-width="1" font-size="16" >C</text>
<text x="16.400000" y="539.544433" fill="rgb(102,102,102)"  stroke="rgb(102,102,102)" stroke-width="1" font-size="16" >H</text>
<text x="28.400000" y="544.344433" fill="rgb(102,102,102)"  stroke="rgb(102,102,102)" stroke-width="1" font-size="13" >3</text>
<text x="34.900000" y="539.544433" fill="rgb(102,102,102)"  stroke="rgb(102,102,102)" stroke-width="1" font-size="16" >C</text>
<text x="278.624993" y="659.458738" fill="rgb(102,102,102)"  stroke="rgb(102,102,102)" stroke-width="1" font-size="16" >H</text>
<text x="290.624993" y="664.258738" fill="rgb(102,102,102)"  stroke="rgb(102,102,102)" stroke-width="1" font-size="13" >3</text>
<text x="297.124993" y="659.458738" fill="rgb(102,102,102)"  stroke="rgb(102,102,102)" stroke-width="1" font-size="16" >C</text>
<text x="92.714286" y="505.645724" fill="rgb(12,12,255)"  stroke="rgb(12,12,255)" stroke-width="1" font-size="16" >N</text>
<text x="316.172255" y="597.491462" fill="rgb(12,12,255)"  stroke="rgb(12,12,255)" stroke-width="1" font-size="16" >N</text>
<text x="619.426327" y="439.748571" fill="rgb(12,12,255)"  stroke="rgb(12,12,255)" stroke-width="1" font-size="16" >N</text>
<text x="77.870137" y="593.014570" fill="rgb(255,12,12)"  stroke="rgb(255,12,12)" stroke-width="1" font-size="16" >HO</text>
<text x="415.182406" y="265.987260" fill="rgb(255,12,12)"  stroke="rgb(255,12,12)" stroke-width="1" font-size="16" >OH</text>
<text x="190.744965" y="476.647826" fill="rgb(255,12,12)"  stroke="rgb(255,12,12)" stroke-width="1" font-size="16" >HO</text>
<text x="507.152045" y="530.084433" fill="rgb(255,12,12)"  stroke="rgb(255,12,12)" stroke-width="1" font-size="16" >OH</text>
<text x="24.400000" y="475.267016" fill="rgb(255,12,12)"  stroke="rgb(255,12,12)" stroke-width="1" font-size="16" >HO</text>
<text x="361.712269" y="641.911476" fill="rgb(255,12,12)"  stroke="rgb(255,12,12)" stroke-width="1" font-size="16" >OH</text>
<text x="704.395173" y="430.984423" fill="rgb(255,12,12)"  stroke="rgb(255,12,12)" stroke-width="1" font-size="16" >OH</text>
<text x="63.542857" y="436.124159" fill="rgb(255,12,12)"  stroke="rgb(255,12,12)" stroke-width="1" font-size="16" >HO</text>
<text x="389.390449" y="593.971462" fill="rgb(255,12,12)"  stroke="rgb(255,12,12)" stroke-width="1" font-size="16" >OH</text>
<text x="180.083132" y="578.687290" fill="rgb(255,12,12)"  stroke="rgb(255,12,12)" stroke-width="1" font-size="16" >OH</text>
<text x="573.527619" y="494.942857" fill="rgb(255,12,12)"  stroke="rgb(255,12,12)" stroke-width="1" font-size="16" >HO</text>
<text x="199.654560" y="509.165724" fill="rgb(255,12,12)"  stroke="rgb(255,12,12)" stroke-width="1" font-size="16" >OH</text>
<text x="332.540840" y="353.356106" fill="rgb(255,12,12)"  stroke="rgb(255,12,12)" stroke-width="1" font-size="16" >HO</text>
<text x="256.232242" y="566.293282" fill="rgb(255,12,12)"  stroke="rgb(255,12,12)" stroke-width="1" font-size="16" >HO</text>
<text x="477.290211" y="327.011687" fill="rgb(255,12,12)"  stroke="rgb(255,12,12)" stroke-width="1" font-size="16" >HO</text>
<text x="572.639322" y="364.820783" fill="rgb(255,12,12)"  stroke="rgb(255,12,12)" stroke-width="1" font-size="16" >OH</text>
<text x="434.753835" y="442.449100" fill="rgb(255,12,12)"  stroke="rgb(255,12,12)" stroke-width="1" font-size="16" >OH</text>
<text x="141.210679" y="382.336851" fill="rgb(255,12,12)"  stroke="rgb(255,12,12)" stroke-width="1" font-size="16" >O</text>
<text x="206.028080" y="373.487512" fill="rgb(255,12,12)"  stroke="rgb(255,12,12)" stroke-width="1" font-size="16" >OH</text>
<text x="424.348915" y="516.620037" fill="rgb(255,12,12)"  stroke="rgb(255,12,12)" stroke-width="1" font-size="16" >O</text>
<text x="415.499576" y="452.922636" fill="rgb(255,12,12)"  stroke="rgb(255,12,12)" stroke-width="1" font-size="16" >OH</text>
<text x="594.610750" y="386.278434" fill="rgb(255,12,12)"  stroke="rgb(255,12,12)" stroke-width="1" font-size="16" >O</text>
<text x="449.081115" y="353.356106" fill="rgb(255,12,12)"  stroke="rgb(255,12,12)" stroke-width="1" font-size="16" >O</text>
<text x="562.508405" y="454.466239" fill="rgb(255,12,12)"  stroke="rgb(255,12,12)" stroke-width="1" font-size="16" >O</text>
<text x="461.612032" y="426.788060" fill="rgb(255,12,12)"  stroke="rgb(255,12,12)" stroke-width="1" font-size="16" >O</text>
<text x="255.701325" y="456.385992" fill="rgb(255,12,12)"  stroke="rgb(255,12,12)" stroke-width="1" font-size="16" >O</text>
<text x="180.083132" y="471.747016" fill="rgb(255,12,12)"  stroke="rgb(255,12,12)" stroke-width="1" font-size="16" >O</text>
<text x="326.303172" y="504.326006" fill="rgb(255,12,12)"  stroke="rgb(255,12,12)" stroke-width="1" font-size="16" >O</text>
<text x="344.540840" y="456.776380" fill="rgb(255,12,12)"  stroke="rgb(255,12,12)" stroke-width="1" font-size="16" >O</text>
<text x="989.912122" y="772.462857" fill="rgb(191,191,191)"  stroke="rgb(191,191,191)" stroke-width="1" font-size="16" >H</text>
<text x="922.114705" y="733.320000" fill="rgb(191,191,191)"  stroke="rgb(191,191,191)" stroke-width="1" font-size="16" >H</text>
<text x="650.925036" y="302.748571" fill="rgb(191,191,191)"  stroke="rgb(191,191,191)" stroke-width="1" font-size="16" >H</text>
<text x="718.722453" y="341.891429" fill="rgb(191,191,191)"  stroke="rgb(191,191,191)" stroke-width="1" font-size="16" >H</text>
<text x="670.496464" y="450.555852" fill="rgb(191,191,191)"  stroke="rgb(191,191,191)" stroke-width="1" font-size="16" >H</text>
<text x="723.966602" y="400.605714" fill="rgb(191,191,191)"  stroke="rgb(191,191,191)" stroke-width="1" font-size="16" >H</text>
<text x="95.114286" y="402.225450" fill="rgb(191,191,191)"  stroke="rgb(191,191,191)" stroke-width="1" font-size="16" >H</text>
<text x="417.068628" y="566.293282" fill="rgb(191,191,191)"  stroke="rgb(191,191,191)" stroke-width="1" font-size="16" >H</text>
<text x="146.184423" y="598.258719" fill="rgb(191,191,191)"  stroke="rgb(191,191,191)" stroke-width="1" font-size="16" >H</text>
<text x="434.753835" y="299.885969" fill="rgb(191,191,191)"  stroke="rgb(191,191,191)" stroke-width="1" font-size="16" >H</text>
<text x="303.641338" y="484.064172" fill="rgb(191,191,191)"  stroke="rgb(191,191,191)" stroke-width="1" font-size="16" >H</text>
<text x="534.830225" y="502.406253" fill="rgb(191,191,191)"  stroke="rgb(191,191,191)" stroke-width="1" font-size="16" >H</text>
<text x="75.542857" y="475.267016" fill="rgb(191,191,191)"  stroke="rgb(191,191,191)" stroke-width="1" font-size="16" >H</text>
<text x="351.581352" y="604.102379" fill="rgb(191,191,191)"  stroke="rgb(191,191,191)" stroke-width="1" font-size="16" >H</text>
<text x="199.654560" y="544.788582" fill="rgb(191,191,191)"  stroke="rgb(191,191,191)" stroke-width="1" font-size="16" >H</text>
<text x="364.112269" y="319.457397" fill="rgb(191,191,191)"  stroke="rgb(191,191,191)" stroke-width="1" font-size="16" >H</text>
<text x="240.554062" y="538.615103" fill="rgb(191,191,191)"  stroke="rgb(191,191,191)" stroke-width="1" font-size="16" >H</text>
<text x="471.742949" y="392.498963" fill="rgb(191,191,191)"  stroke="rgb(191,191,191)" stroke-width="1" font-size="16" >H</text>
<text x="537.230225" y="354.689867" fill="rgb(191,191,191)"  stroke="rgb(191,191,191)" stroke-width="1" font-size="16" >H</text>
<text x="398.010978" y="442.449100" fill="rgb(191,191,191)"  stroke="rgb(191,191,191)" stroke-width="1" font-size="16" >H</text>
<text x="471.742949" y="464.597156" fill="rgb(191,191,191)"  stroke="rgb(191,191,191)" stroke-width="1" font-size="16" >H</text>
<text x="129.012994" y="525.217153" fill="rgb(191,191,191)"  stroke="rgb(191,191,191)" stroke-width="1" font-size="16" >H</text>
<text x="288.494076" y="566.293282" fill="rgb(191,191,191)"  stroke="rgb(191,191,191)" stroke-width="1" font-size="16" >H</text>
<text x="344.540840" y="392.498963" fill="rgb(191,191,191)"  stroke="rgb(191,191,191)" stroke-width="1" font-size="16" >H</text>
<text x="596.467983" y="447.711259" fill="rgb(191,191,191)"  stroke="rgb(191,191,191)" stroke-width="1" font-size="16" >H</text>
<text x="480.135231" y="368.670301" fill="rgb(191,191,191)"  stroke="rgb(191,191,191)" stroke-width="1" font-size="16" >H</text>
<text font-size="18.000000" fill ="black" font-family="sans-serif"
x="140.000000" y="20.000000" ></text>
<title> - OBDepict</title>
</svg>
