<?xml version="1.0"?>
<svg xmlns="http://www.w3.org/2000/svg"
xmlns:xlink="http://www.w3.org/1999/xlink" xmlns:cml="http://www.xml-cml.org/schema" width="400.295" height="368.983" x="0" y="0" font-family="sans-serif" stroke="rgb(0,0,0)" stroke-width="1" >
<line x1="48.8" y1="128.1" x2="73.9" y2="142.6"/>
<line x1="306.7" y1="197.0" x2="321.2" y2="222.1"/>
<line x1="311.0" y1="329.0" x2="292.2" y2="329.0"/>
<line x1="73.9" y1="142.6" x2="107.8" y2="123.0"/>
<line x1="155.6" y1="295.1" x2="194.7" y2="295.1"/>
<line x1="155.6" y1="295.1" x2="141.1" y2="320.2"/>
<line x1="211.0" y1="170.9" x2="183.4" y2="143.3"/>
<line x1="211.0" y1="170.9" x2="203.5" y2="198.9"/>
<line x1="323.8" y1="223.6" x2="309.3" y2="248.7"/>
<line x1="318.6" y1="220.6" x2="304.1" y2="245.7"/>
<line x1="321.2" y1="222.1" x2="350.1" y2="222.1"/>
<line x1="104.1" y1="98.2" x2="104.9" y2="98.1"/>
<line x1="104.2" y1="102.2" x2="105.8" y2="102.0"/>
<line x1="104.3" y1="106.1" x2="106.7" y2="105.8"/>
<line x1="104.5" y1="110.0" x2="107.6" y2="109.6"/>
<line x1="104.6" y1="114.0" x2="108.5" y2="113.4"/>
<line x1="104.7" y1="117.9" x2="109.4" y2="117.3"/>
<line x1="104.8" y1="121.8" x2="110.3" y2="121.1"/>
<polygon points="181.584540 317.800059 198.157337 297.095132 191.229134 293.095132 " />
<line x1="207.5" y1="136.4" x2="207.7" y2="137.2"/>
<line x1="203.6" y1="137.0" x2="204.0" y2="138.6"/>
<line x1="199.7" y1="137.6" x2="200.3" y2="140.0"/>
<line x1="195.8" y1="138.3" x2="196.6" y2="141.4"/>
<line x1="191.9" y1="138.9" x2="193.0" y2="142.8"/>
<line x1="188.0" y1="139.5" x2="189.3" y2="144.2"/>
<line x1="184.2" y1="140.2" x2="185.6" y2="145.6"/>
<line x1="274.6" y1="234.1" x2="275.3" y2="234.5"/>
<line x1="272.3" y1="237.3" x2="273.7" y2="238.1"/>
<line x1="270.0" y1="240.5" x2="272.1" y2="241.7"/>
<line x1="267.7" y1="243.6" x2="270.5" y2="245.2"/>
<line x1="265.4" y1="246.8" x2="268.9" y2="248.8"/>
<line x1="263.1" y1="250.0" x2="267.3" y2="252.4"/>
<line x1="260.8" y1="253.2" x2="265.7" y2="256.0"/>
<line x1="262.5" y1="256.0" x2="291.4" y2="256.0"/>
<polygon points="98.368307 58.261801 132.616870 98.167219 138.273724 92.510364 " />
<line x1="135.4" y1="95.3" x2="142.9" y2="67.4"/>
<line x1="179.3" y1="81.2" x2="180.1" y2="81.4"/>
<line x1="177.9" y1="84.8" x2="179.5" y2="85.3"/>
<line x1="176.5" y1="88.5" x2="178.9" y2="89.1"/>
<line x1="175.1" y1="92.2" x2="178.2" y2="93.0"/>
<line x1="173.7" y1="95.9" x2="177.6" y2="96.9"/>
<line x1="172.3" y1="99.6" x2="177.0" y2="100.8"/>
<line x1="170.9" y1="103.2" x2="176.4" y2="104.7"/>
<line x1="173.2" y1="105.5" x2="201.2" y2="98.0"/>
<line x1="111.8" y1="185.1" x2="111.0" y2="184.9"/>
<line x1="113.2" y1="181.4" x2="111.7" y2="181.0"/>
<line x1="114.6" y1="177.7" x2="112.3" y2="177.1"/>
<line x1="116.0" y1="174.1" x2="112.9" y2="173.2"/>
<line x1="117.4" y1="170.4" x2="113.5" y2="169.4"/>
<line x1="118.8" y1="166.7" x2="114.2" y2="165.5"/>
<line x1="120.2" y1="163.0" x2="114.8" y2="161.6"/>
<line x1="117.9" y1="160.8" x2="80.1" y2="170.9"/>
<polygon points="168.475844 255.964697 194.693235 259.964697 194.693235 251.964697 " />
<line x1="194.7" y1="256.0" x2="180.2" y2="230.9"/>
<polygon points="252.802897 226.366519 227.050452 232.703962 230.111920 240.094998 " />
<line x1="228.6" y1="236.4" x2="208.1" y2="215.9"/>
<line x1="78.0" y1="173.1" x2="57.5" y2="152.6"/>
<line x1="82.2" y1="168.8" x2="61.8" y2="148.3"/>
<line x1="80.1" y1="170.9" x2="72.6" y2="198.9"/>
<polygon points="288.686528 295.095132 262.469137 291.095132 262.469137 299.095132 " />
<line x1="262.5" y1="295.1" x2="276.9" y2="320.2"/>
<line x1="136.0" y1="251.0" x2="136.0" y2="232.3"/>
<line x1="107.0" y1="219.1" x2="125.8" y2="219.1"/>
<line x1="107.0" y1="225.1" x2="125.8" y2="225.1"/>
<line x1="139.0" y1="193.1" x2="139.0" y2="211.9"/>
<line x1="133.0" y1="193.1" x2="133.0" y2="211.9"/>
<line x1="165.0" y1="222.1" x2="146.2" y2="222.1"/>
<line x1="262.5" y1="256.0" x2="228.6" y2="236.4"/>
<line x1="228.6" y1="236.4" x2="194.7" y2="256.0"/>
<line x1="194.7" y1="256.0" x2="194.7" y2="295.1"/>
<line x1="194.7" y1="295.1" x2="219.8" y2="309.6"/>
<line x1="237.4" y1="309.6" x2="262.5" y2="295.1"/>
<line x1="262.5" y1="295.1" x2="262.5" y2="256.0"/>
<line x1="107.8" y1="123.0" x2="135.4" y2="95.3"/>
<line x1="135.4" y1="95.3" x2="173.2" y2="105.5"/>
<line x1="173.2" y1="105.5" x2="183.4" y2="143.3"/>
<line x1="183.4" y1="143.3" x2="162.9" y2="163.7"/>
<line x1="145.9" y1="168.3" x2="117.9" y2="160.8"/>
<line x1="117.9" y1="160.8" x2="107.8" y2="123.0"/>
<text x="16.400000" y="131.328187" fill="rgb(102,102,102)"  stroke="rgb(102,102,102)" stroke-width="1" font-size="16" >H</text>
<text x="28.400000" y="139.008187" fill="rgb(102,102,102)"  stroke="rgb(102,102,102)" stroke-width="1" font-size="13" >3</text>
<text x="34.900000" y="131.328187" fill="rgb(102,102,102)"  stroke="rgb(102,102,102)" stroke-width="1" font-size="16" >C</text>
<text x="277.999571" y="196.508796" fill="rgb(102,102,102)"  stroke="rgb(102,102,102)" stroke-width="1" font-size="16" >H</text>
<text x="289.999571" y="204.188796" fill="rgb(102,102,102)"  stroke="rgb(102,102,102)" stroke-width="1" font-size="13" >3</text>
<text x="296.499571" y="196.508796" fill="rgb(102,102,102)"  stroke="rgb(102,102,102)" stroke-width="1" font-size="16" >C</text>
<text x="315.164789" y="333.783083" fill="rgb(102,102,102)"  stroke="rgb(102,102,102)" stroke-width="1" font-size="16" >CH</text>
<text x="339.164789" y="338.583083" fill="rgb(102,102,102)"  stroke="rgb(102,102,102)" stroke-width="1" font-size="13" >3</text>
<text x="295.599571" y="260.764697" fill="rgb(12,12,255)"  stroke="rgb(12,12,255)" stroke-width="1" font-size="16" >N</text>
<text x="120.397583" y="333.783083" fill="rgb(255,12,12)"  stroke="rgb(255,12,12)" stroke-width="1" font-size="16" >HO</text>
<text x="355.495224" y="215.676747" fill="rgb(255,12,12)"  stroke="rgb(255,12,12)" stroke-width="1" font-size="32" >-</text>
<text x="354.295224" y="230.396747" fill="rgb(255,12,12)"  stroke="rgb(255,12,12)" stroke-width="1" font-size="16" >O</text>
<text x="139.572999" y="65.861694" fill="rgb(255,12,12)"  stroke="rgb(255,12,12)" stroke-width="1" font-size="16" >OH</text>
<text x="205.039492" y="103.658792" fill="rgb(255,12,12)"  stroke="rgb(255,12,12)" stroke-width="1" font-size="16" >OH</text>
<text x="48.837110" y="151.583591" fill="rgb(255,12,12)"  stroke="rgb(255,12,12)" stroke-width="1" font-size="16" >O</text>
<text x="54.378804" y="213.530084" fill="rgb(255,12,12)"  stroke="rgb(255,12,12)" stroke-width="1" font-size="16" >HO</text>
<text x="129.997583" y="266.007182" fill="rgb(255,12,12)"  stroke="rgb(255,12,12)" stroke-width="1" font-size="16" >OH</text>
<text x="93.267149" y="230.396747" fill="rgb(255,12,12)"  stroke="rgb(255,12,12)" stroke-width="1" font-size="16" >O</text>
<text x="129.997583" y="191.266312" fill="rgb(255,12,12)"  stroke="rgb(255,12,12)" stroke-width="1" font-size="16" >O</text>
<text x="278.434354" y="333.783083" fill="rgb(255,12,12)"  stroke="rgb(255,12,12)" stroke-width="1" font-size="16" >O</text>
<text x="197.311790" y="213.530084" fill="rgb(255,12,12)"  stroke="rgb(255,12,12)" stroke-width="1" font-size="16" >O</text>
<text x="149.700700" y="175.732987" fill="rgb(255,12,12)"  stroke="rgb(255,12,12)" stroke-width="1" font-size="16" >O</text>
<text x="222.581186" y="319.460350" fill="rgb(255,12,12)"  stroke="rgb(255,12,12)" stroke-width="1" font-size="16" >O</text>
<text x="169.128018" y="230.396747" fill="rgb(255,12,12)"  stroke="rgb(255,12,12)" stroke-width="1" font-size="16" >O</text>
<text x="129.997583" y="226.876747" fill="rgb(178,178,0)"  stroke="rgb(178,178,0)" stroke-width="1" font-size="16" >S</text>
<text x="99.068355" y="92.532519" fill="rgb(191,191,191)"  stroke="rgb(191,191,191)" stroke-width="1" font-size="16" >H</text>
<text x="171.528018" y="333.783083" fill="rgb(191,191,191)"  stroke="rgb(191,191,191)" stroke-width="1" font-size="16" >H</text>
<text x="215.167194" y="141.455889" fill="rgb(191,191,191)"  stroke="rgb(191,191,191)" stroke-width="1" font-size="16" >H</text>
<text x="276.034354" y="230.396747" fill="rgb(191,191,191)"  stroke="rgb(191,191,191)" stroke-width="1" font-size="16" >H</text>
<text x="76.506505" y="48.320000" fill="rgb(191,191,191)"  stroke="rgb(191,191,191)" stroke-width="1" font-size="16" >H</text>
<text x="177.370096" y="75.989396" fill="rgb(191,191,191)"  stroke="rgb(191,191,191)" stroke-width="1" font-size="16" >H</text>
<text x="104.175901" y="203.402382" fill="rgb(191,191,191)"  stroke="rgb(191,191,191)" stroke-width="1" font-size="16" >H</text>
<text x="151.962801" y="260.764697" fill="rgb(191,191,191)"  stroke="rgb(191,191,191)" stroke-width="1" font-size="16" >H</text>
<text x="258.732994" y="229.744911" fill="rgb(191,191,191)"  stroke="rgb(191,191,191)" stroke-width="1" font-size="16" >H</text>
<text x="295.599571" y="299.895132" fill="rgb(191,191,191)"  stroke="rgb(191,191,191)" stroke-width="1" font-size="16" >H</text>
<text font-size="18.000000" fill ="black" font-family="sans-serif"
x="140.000000" y="20.000000" ></text>
<title> - OBDepict</title>
</svg>
