<?xml version="1.0"?>
<svg xmlns="http://www.w3.org/2000/svg"
xmlns:xlink="http://www.w3.org/1999/xlink" xmlns:cml="http://www.xml-cml.org/schema" width="447.846" height="243.923" x="0" y="0" font-family="sans-serif" stroke="rgb(0,0,0)" stroke-width="1" >
<line x1="80.0" y1="50.4" x2="80.0" y2="69.6"/>
<line x1="50.4" y1="80.0" x2="69.6" y2="80.0"/>
<line x1="80.0" y1="109.6" x2="80.0" y2="90.4"/>
<line x1="120.0" y1="80.0" x2="140.0" y2="114.6"/>
<line x1="120.0" y1="80.0" x2="90.4" y2="80.0"/>
<line x1="140.0" y1="114.6" x2="169.6" y2="114.6"/>
<line x1="283.9" y1="134.6" x2="303.9" y2="100.0"/>
<line x1="283.9" y1="134.6" x2="298.7" y2="160.3"/>
<line x1="269.3" y1="80.0" x2="303.9" y2="100.0"/>
<line x1="269.3" y1="80.0" x2="243.6" y2="94.8"/>
<line x1="346.5" y1="167.8" x2="361.3" y2="193.4"/>
<line x1="341.3" y1="170.8" x2="356.1" y2="196.4"/>
<line x1="343.9" y1="169.3" x2="314.3" y2="169.3"/>
<line x1="374.7" y1="97.4" x2="400.3" y2="112.2"/>
<line x1="371.7" y1="102.6" x2="397.3" y2="117.4"/>
<line x1="373.2" y1="100.0" x2="347.6" y2="114.8"/>
<polygon points="317.323048 76.790519 300.458947 98.000000 307.387150 102.000000 " />
<line x1="303.9" y1="100.0" x2="329.6" y2="114.8"/>
<line x1="175.9" y1="62.6" x2="192.5" y2="72.2"/>
<line x1="172.9" y1="67.8" x2="189.5" y2="77.4"/>
<line x1="214.8" y1="54.4" x2="205.2" y2="71.0"/>
<line x1="185.2" y1="105.6" x2="194.8" y2="89.0"/>
<line x1="225.6" y1="94.8" x2="209.0" y2="85.2"/>
<text x="74.000000" y="48.320000" fill="rgb(102,102,102)"  stroke="rgb(102,102,102)" stroke-width="1" font-size="16" >CH</text>
<text x="98.000000" y="56.000000" fill="rgb(102,102,102)"  stroke="rgb(102,102,102)" stroke-width="1" font-size="13" >3</text>
<text x="16.400000" y="84.800000" fill="rgb(102,102,102)"  stroke="rgb(102,102,102)" stroke-width="1" font-size="16" >H</text>
<text x="28.400000" y="89.600000" fill="rgb(102,102,102)"  stroke="rgb(102,102,102)" stroke-width="1" font-size="13" >3</text>
<text x="34.900000" y="84.800000" fill="rgb(102,102,102)"  stroke="rgb(102,102,102)" stroke-width="1" font-size="16" >C</text>
<text x="74.000000" y="124.800000" fill="rgb(102,102,102)"  stroke="rgb(102,102,102)" stroke-width="1" font-size="16" >CH</text>
<text x="98.000000" y="129.600000" fill="rgb(102,102,102)"  stroke="rgb(102,102,102)" stroke-width="1" font-size="13" >3</text>
<text x="76.100000" y="95.600000" fill="rgb(12,12,255)"  stroke="rgb(12,12,255)" stroke-width="1" font-size="13" >+</text>
<text x="74.000000" y="84.800000" fill="rgb(12,12,255)"  stroke="rgb(12,12,255)" stroke-width="1" font-size="16" >N</text>
<text x="357.923048" y="208.723048" fill="rgb(255,12,12)"  stroke="rgb(255,12,12)" stroke-width="1" font-size="16" >O</text>
<text x="401.846097" y="124.800000" fill="rgb(255,12,12)"  stroke="rgb(255,12,12)" stroke-width="1" font-size="16" >O</text>
<text x="161.758984" y="68.320000" fill="rgb(255,12,12)"  stroke="rgb(255,12,12)" stroke-width="1" font-size="16" >O</text>
<text x="215.200000" y="38.958984" fill="rgb(255,12,12)"  stroke="rgb(255,12,12)" stroke-width="1" font-size="32" >-</text>
<text x="214.000000" y="53.678984" fill="rgb(255,12,12)"  stroke="rgb(255,12,12)" stroke-width="1" font-size="16" >O</text>
<text x="300.323048" y="174.082032" fill="rgb(255,12,12)"  stroke="rgb(255,12,12)" stroke-width="1" font-size="16" >O</text>
<text x="332.564065" y="124.800000" fill="rgb(255,12,12)"  stroke="rgb(255,12,12)" stroke-width="1" font-size="16" >O</text>
<text x="174.000000" y="119.441016" fill="rgb(255,12,12)"  stroke="rgb(255,12,12)" stroke-width="1" font-size="16" >O</text>
<text x="228.641016" y="104.800000" fill="rgb(255,12,12)"  stroke="rgb(255,12,12)" stroke-width="1" font-size="16" >O</text>
<text x="194.000000" y="88.320000" fill="rgb(255,127,0)"  stroke="rgb(255,127,0)" stroke-width="1" font-size="16" >P</text>
<text x="317.923048" y="73.678984" fill="rgb(191,191,191)"  stroke="rgb(191,191,191)" stroke-width="1" font-size="16" >H</text>
<text font-size="18.000000" fill ="black" font-family="sans-serif"
x="140.000000" y="20.000000" ></text>
<title> - OBDepict</title>
</svg>
