<?xml version="1.0"?>
<svg xmlns="http://www.w3.org/2000/svg"
xmlns:xlink="http://www.w3.org/1999/xlink" xmlns:cml="http://www.xml-cml.org/schema" width="380.589" height="272.533" x="0" y="0" font-family="sans-serif" stroke="rgb(0,0,0)" stroke-width="1" >
<line x1="48.7" y1="83.5" x2="73.4" y2="97.8"/>
<line x1="106.7" y1="50.0" x2="106.7" y2="78.5"/>
<line x1="338.6" y1="179.7" x2="304.3" y2="162.2"/>
<line x1="338.6" y1="179.7" x2="340.1" y2="208.1"/>
<polygon points="325.897014 148.128302 302.074545 158.829342 306.431658 165.538706 " />
<line x1="302.7" y1="209.7" x2="302.2" y2="210.3"/>
<line x1="299.9" y1="207.0" x2="298.9" y2="208.2"/>
<line x1="297.2" y1="204.2" x2="295.7" y2="206.1"/>
<line x1="294.5" y1="201.5" x2="292.4" y2="204.0"/>
<line x1="291.7" y1="198.8" x2="289.2" y2="201.9"/>
<line x1="289.0" y1="196.0" x2="286.0" y2="199.7"/>
<line x1="286.2" y1="193.3" x2="282.7" y2="197.6"/>
<line x1="283.3" y1="194.5" x2="278.8" y2="222.6"/>
<line x1="237.6" y1="207.7" x2="236.9" y2="207.4"/>
<line x1="239.4" y1="204.2" x2="237.9" y2="203.7"/>
<line x1="241.1" y1="200.8" x2="238.9" y2="199.9"/>
<line x1="242.9" y1="197.3" x2="239.9" y2="196.2"/>
<line x1="244.6" y1="193.9" x2="240.9" y2="192.4"/>
<line x1="246.4" y1="190.4" x2="241.9" y2="188.7"/>
<line x1="248.1" y1="187.0" x2="242.9" y2="185.0"/>
<line x1="246.1" y1="184.5" x2="217.9" y2="189.0"/>
<line x1="243.4" y1="121.4" x2="244.2" y2="121.4"/>
<line x1="243.1" y1="125.3" x2="244.7" y2="125.2"/>
<line x1="242.7" y1="129.1" x2="245.1" y2="129.1"/>
<line x1="242.3" y1="133.0" x2="245.5" y2="132.9"/>
<line x1="242.0" y1="136.8" x2="246.0" y2="136.8"/>
<line x1="241.6" y1="140.7" x2="246.4" y2="140.6"/>
<line x1="241.2" y1="144.5" x2="246.8" y2="144.5"/>
<line x1="244.1" y1="146.1" x2="188.3" y2="157.9"/>
<line x1="153.0" y1="197.3" x2="124.7" y2="194.3"/>
<line x1="147.8" y1="189.5" x2="127.6" y2="187.3"/>
<line x1="112.6" y1="183.4" x2="106.7" y2="155.6"/>
<line x1="106.7" y1="155.6" x2="140.1" y2="136.3"/>
<line x1="115.5" y1="158.8" x2="138.5" y2="145.5"/>
<line x1="140.1" y1="136.3" x2="161.3" y2="155.4"/>
<line x1="164.6" y1="171.2" x2="153.0" y2="197.3"/>
<line x1="246.1" y1="184.5" x2="244.1" y2="146.1"/>
<line x1="244.1" y1="146.1" x2="270.7" y2="135.8"/>
<line x1="286.3" y1="140.0" x2="304.3" y2="162.2"/>
<line x1="304.3" y1="162.2" x2="283.3" y2="194.5"/>
<line x1="283.3" y1="194.5" x2="246.1" y2="184.5"/>
<line x1="73.4" y1="136.3" x2="73.4" y2="97.8"/>
<line x1="80.6" y1="130.3" x2="80.6" y2="103.8"/>
<line x1="73.4" y1="97.8" x2="106.7" y2="78.5"/>
<line x1="106.7" y1="78.5" x2="140.1" y2="97.8"/>
<line x1="108.3" y1="87.8" x2="131.3" y2="101.0"/>
<line x1="140.1" y1="97.8" x2="140.1" y2="136.3"/>
<line x1="106.7" y1="155.6" x2="73.4" y2="136.3"/>
<text x="16.400000" y="86.838519" fill="rgb(102,102,102)"  stroke="rgb(102,102,102)" stroke-width="1" font-size="16" >H</text>
<text x="28.400000" y="94.518519" fill="rgb(102,102,102)"  stroke="rgb(102,102,102)" stroke-width="1" font-size="13" >3</text>
<text x="34.900000" y="86.838519" fill="rgb(102,102,102)"  stroke="rgb(102,102,102)" stroke-width="1" font-size="16" >C</text>
<text x="100.716031" y="48.320000" fill="rgb(102,102,102)"  stroke="rgb(102,102,102)" stroke-width="1" font-size="16" >CH</text>
<text x="124.716031" y="56.000000" fill="rgb(102,102,102)"  stroke="rgb(102,102,102)" stroke-width="1" font-size="13" >3</text>
<text x="111.124481" y="198.032352" fill="rgb(12,12,255)"  stroke="rgb(12,12,255)" stroke-width="1" font-size="16" >N</text>
<text x="165.098884" y="166.870216" fill="rgb(12,12,255)"  stroke="rgb(12,12,255)" stroke-width="1" font-size="16" >N</text>
<text x="334.589256" y="222.936796" fill="rgb(255,12,12)"  stroke="rgb(255,12,12)" stroke-width="1" font-size="16" >OH</text>
<text x="261.648789" y="237.332663" fill="rgb(255,12,12)"  stroke="rgb(255,12,12)" stroke-width="1" font-size="16" >HO</text>
<text x="192.424089" y="195.344669" fill="rgb(255,12,12)"  stroke="rgb(255,12,12)" stroke-width="1" font-size="16" >HO</text>
<text x="274.012612" y="140.569513" fill="rgb(255,12,12)"  stroke="rgb(255,12,12)" stroke-width="1" font-size="16" >O</text>
<text x="330.557449" y="149.525335" fill="rgb(191,191,191)"  stroke="rgb(191,191,191)" stroke-width="1" font-size="16" >H</text>
<text x="307.208924" y="223.528861" fill="rgb(191,191,191)"  stroke="rgb(191,191,191)" stroke-width="1" font-size="16" >H</text>
<text x="228.664578" y="225.279180" fill="rgb(191,191,191)"  stroke="rgb(191,191,191)" stroke-width="1" font-size="16" >H</text>
<text x="240.099685" y="115.856412" fill="rgb(191,191,191)"  stroke="rgb(191,191,191)" stroke-width="1" font-size="16" >H</text>
<text font-size="18.000000" fill ="black" font-family="sans-serif"
x="140.000000" y="20.000000" ></text>
<title> - OBDepict</title>
</svg>
