<?xml version="1.0"?>
<svg xmlns="http://www.w3.org/2000/svg"
xmlns:xlink="http://www.w3.org/1999/xlink" xmlns:cml="http://www.xml-cml.org/schema" width="491.202" height="345.922" x="0" y="0" font-family="sans-serif" stroke="rgb(0,0,0)" stroke-width="1" >
<line x1="419.6" y1="50.4" x2="419.6" y2="80.0"/>
<line x1="413.6" y1="50.4" x2="413.6" y2="80.0"/>
<line x1="201.1" y1="267.3" x2="210.2" y2="239.1"/>
<line x1="290.0" y1="227.0" x2="278.0" y2="200.0"/>
<line x1="71.4" y1="202.7" x2="82.0" y2="230.3"/>
<line x1="312.6" y1="100.0" x2="287.0" y2="85.2"/>
<line x1="312.6" y1="100.0" x2="347.3" y2="80.0"/>
<line x1="315.6" y1="100.0" x2="315.6" y2="140.0"/>
<line x1="309.6" y1="100.0" x2="309.6" y2="140.0"/>
<line x1="347.3" y1="80.0" x2="347.3" y2="50.4"/>
<line x1="348.8" y1="77.4" x2="383.4" y2="97.4"/>
<line x1="345.8" y1="82.6" x2="380.4" y2="102.6"/>
<line x1="172.2" y1="226.8" x2="210.2" y2="239.1"/>
<line x1="172.2" y1="226.8" x2="142.5" y2="253.5"/>
<polygon points="228.161968 259.042185 213.201847 236.449382 207.256688 241.802426 " />
<line x1="210.2" y1="239.1" x2="240.0" y2="212.4"/>
<line x1="429.7" y1="182.0" x2="429.0" y2="182.4"/>
<line x1="428.1" y1="178.3" x2="426.7" y2="179.1"/>
<line x1="426.4" y1="174.6" x2="424.3" y2="175.8"/>
<line x1="424.7" y1="171.0" x2="422.0" y2="172.6"/>
<line x1="423.1" y1="167.3" x2="419.6" y2="169.3"/>
<line x1="421.4" y1="163.6" x2="417.3" y2="166.0"/>
<line x1="419.8" y1="160.0" x2="414.9" y2="162.8"/>
<line x1="416.6" y1="160.0" x2="401.8" y2="185.6"/>
<line x1="155.8" y1="275.4" x2="155.1" y2="275.8"/>
<line x1="154.1" y1="271.7" x2="152.7" y2="272.5"/>
<line x1="152.4" y1="268.1" x2="150.4" y2="269.3"/>
<line x1="150.7" y1="264.4" x2="148.0" y2="266.1"/>
<line x1="149.1" y1="260.8" x2="145.6" y2="262.8"/>
<line x1="147.4" y1="257.1" x2="143.2" y2="259.6"/>
<line x1="145.7" y1="253.5" x2="140.9" y2="256.3"/>
<line x1="245.7" y1="237.3" x2="244.9" y2="237.5"/>
<line x1="245.2" y1="233.3" x2="243.7" y2="233.7"/>
<line x1="244.8" y1="229.3" x2="242.4" y2="229.8"/>
<line x1="244.3" y1="225.3" x2="241.2" y2="226.0"/>
<line x1="243.9" y1="221.3" x2="240.0" y2="222.2"/>
<line x1="243.5" y1="217.3" x2="238.8" y2="218.3"/>
<line x1="243.0" y1="213.3" x2="237.5" y2="214.5"/>
<line x1="288.0" y1="136.5" x2="288.8" y2="136.8"/>
<line x1="286.1" y1="139.9" x2="287.5" y2="140.6"/>
<line x1="284.1" y1="143.4" x2="286.3" y2="144.4"/>
<line x1="282.1" y1="146.9" x2="285.0" y2="148.2"/>
<line x1="280.1" y1="150.4" x2="283.7" y2="152.0"/>
<line x1="278.1" y1="153.9" x2="282.5" y2="155.9"/>
<line x1="276.1" y1="157.4" x2="281.2" y2="159.7"/>
<line x1="79.9" y1="270.3" x2="66.5" y2="296.7"/>
<line x1="79.9" y1="270.3" x2="50.4" y2="271.8"/>
<line x1="82.0" y1="230.3" x2="52.8" y2="225.7"/>
<line x1="240.0" y1="147.6" x2="216.4" y2="180.0"/>
<line x1="216.4" y1="180.0" x2="240.0" y2="212.4"/>
<line x1="240.0" y1="212.4" x2="278.0" y2="200.0"/>
<line x1="278.0" y1="200.0" x2="278.0" y2="160.0"/>
<line x1="278.0" y1="160.0" x2="240.0" y2="147.6"/>
<line x1="120.7" y1="220.0" x2="142.5" y2="253.5"/>
<line x1="142.5" y1="253.5" x2="123.8" y2="276.5"/>
<line x1="107.6" y1="280.9" x2="79.9" y2="270.3"/>
<line x1="79.9" y1="270.3" x2="82.0" y2="230.3"/>
<line x1="82.0" y1="230.3" x2="120.7" y2="220.0"/>
<line x1="347.3" y1="200.0" x2="347.3" y2="160.0"/>
<line x1="347.3" y1="160.0" x2="312.6" y2="140.0"/>
<line x1="312.6" y1="140.0" x2="278.0" y2="160.0"/>
<line x1="278.0" y1="200.0" x2="312.6" y2="220.0"/>
<line x1="312.6" y1="220.0" x2="347.3" y2="200.0"/>
<line x1="451.2" y1="100.0" x2="416.6" y2="80.0"/>
<line x1="416.6" y1="80.0" x2="381.9" y2="100.0"/>
<line x1="381.9" y1="100.0" x2="381.9" y2="140.0"/>
<line x1="381.9" y1="140.0" x2="416.6" y2="160.0"/>
<line x1="416.6" y1="160.0" x2="451.2" y2="140.0"/>
<line x1="451.2" y1="140.0" x2="451.2" y2="100.0"/>
<text x="410.561386" y="48.320000" fill="rgb(102,102,102)"  stroke="rgb(102,102,102)" stroke-width="1" font-size="16" >CH</text>
<text x="434.561386" y="56.000000" fill="rgb(102,102,102)"  stroke="rgb(102,102,102)" stroke-width="1" font-size="13" >2</text>
<text x="174.268588" y="281.968165" fill="rgb(102,102,102)"  stroke="rgb(102,102,102)" stroke-width="1" font-size="16" >H</text>
<text x="186.268588" y="286.768165" fill="rgb(102,102,102)"  stroke="rgb(102,102,102)" stroke-width="1" font-size="13" >3</text>
<text x="192.768588" y="281.968165" fill="rgb(102,102,102)"  stroke="rgb(102,102,102)" stroke-width="1" font-size="16" >C</text>
<text x="288.266787" y="241.341818" fill="rgb(102,102,102)"  stroke="rgb(102,102,102)" stroke-width="1" font-size="16" >CH</text>
<text x="312.266787" y="246.141818" fill="rgb(102,102,102)"  stroke="rgb(102,102,102)" stroke-width="1" font-size="13" >3</text>
<text x="44.103902" y="201.313171" fill="rgb(102,102,102)"  stroke="rgb(102,102,102)" stroke-width="1" font-size="16" >H</text>
<text x="56.103902" y="208.993171" fill="rgb(102,102,102)"  stroke="rgb(102,102,102)" stroke-width="1" font-size="13" >3</text>
<text x="62.603902" y="201.313171" fill="rgb(102,102,102)"  stroke="rgb(102,102,102)" stroke-width="1" font-size="16" >C</text>
<text x="380.961386" y="199.441016" fill="rgb(255,12,12)"  stroke="rgb(255,12,12)" stroke-width="1" font-size="16" >HO</text>
<text x="24.400000" y="277.175007" fill="rgb(255,12,12)"  stroke="rgb(255,12,12)" stroke-width="1" font-size="16" >HO</text>
<text x="26.931086" y="232.399009" fill="rgb(255,12,12)"  stroke="rgb(255,12,12)" stroke-width="1" font-size="16" >HO</text>
<text x="111.288398" y="289.416287" fill="rgb(255,12,12)"  stroke="rgb(255,12,12)" stroke-width="1" font-size="16" >O</text>
<text x="274.397321" y="88.320000" fill="rgb(191,191,191)"  stroke="rgb(191,191,191)" stroke-width="1" font-size="16" >H</text>
<text x="341.279354" y="48.320000" fill="rgb(191,191,191)"  stroke="rgb(191,191,191)" stroke-width="1" font-size="16" >H</text>
<text x="230.994492" y="273.651697" fill="rgb(191,191,191)"  stroke="rgb(191,191,191)" stroke-width="1" font-size="16" >H</text>
<text x="430.561386" y="199.441016" fill="rgb(191,191,191)"  stroke="rgb(191,191,191)" stroke-width="1" font-size="16" >H</text>
<text x="156.777654" y="292.786831" fill="rgb(191,191,191)"  stroke="rgb(191,191,191)" stroke-width="1" font-size="16" >H</text>
<text x="242.271528" y="256.286584" fill="rgb(191,191,191)"  stroke="rgb(191,191,191)" stroke-width="1" font-size="16" >H</text>
<text x="288.266787" y="131.778182" fill="rgb(191,191,191)"  stroke="rgb(191,191,191)" stroke-width="1" font-size="16" >H</text>
<text x="58.185561" y="310.721830" fill="rgb(191,191,191)"  stroke="rgb(191,191,191)" stroke-width="1" font-size="16" >H</text>
<text font-size="18.000000" fill ="black" font-family="sans-serif"
x="140.000000" y="20.000000" ></text>
<title> - OBDepict</title>
</svg>
