<?xml version="1.0"?>
<svg xmlns="http://www.w3.org/2000/svg"
xmlns:xlink="http://www.w3.org/1999/xlink" xmlns:cml="http://www.xml-cml.org/schema" width="670.533" height="373.843" x="0" y="0" font-family="sans-serif" stroke="rgb(0,0,0)" stroke-width="1" >
<line x1="621.5" y1="219.0" x2="604.9" y2="228.6"/>
<line x1="119.9" y1="279.0" x2="136.6" y2="288.6"/>
<line x1="457.3" y1="233.8" x2="457.3" y2="263.4"/>
<line x1="455.8" y1="236.4" x2="421.2" y2="216.4"/>
<line x1="458.8" y1="231.2" x2="424.2" y2="211.2"/>
<line x1="457.3" y1="233.8" x2="492.0" y2="213.8"/>
<line x1="284.1" y1="293.8" x2="284.1" y2="323.4"/>
<line x1="282.6" y1="291.2" x2="317.3" y2="271.2"/>
<line x1="285.6" y1="296.4" x2="320.3" y2="276.4"/>
<line x1="284.1" y1="293.8" x2="249.5" y2="273.8"/>
<line x1="422.7" y1="213.8" x2="422.7" y2="184.2"/>
<line x1="422.7" y1="213.8" x2="388.0" y2="233.8"/>
<line x1="318.8" y1="273.8" x2="344.4" y2="288.6"/>
<line x1="318.8" y1="273.8" x2="318.8" y2="233.8"/>
<line x1="353.4" y1="213.8" x2="353.4" y2="184.2"/>
<line x1="354.9" y1="211.2" x2="389.5" y2="231.2"/>
<line x1="351.9" y1="216.4" x2="386.5" y2="236.4"/>
<line x1="353.4" y1="213.8" x2="318.8" y2="233.8"/>
<line x1="117.3" y1="68.3" x2="127.6" y2="106.9"/>
<line x1="117.3" y1="68.3" x2="138.2" y2="47.4"/>
<line x1="388.0" y1="233.8" x2="388.0" y2="263.4"/>
<line x1="317.3" y1="236.4" x2="291.6" y2="221.6"/>
<line x1="320.3" y1="231.2" x2="294.6" y2="216.4"/>
<line x1="561.3" y1="173.8" x2="586.9" y2="159.0"/>
<line x1="180.2" y1="233.8" x2="154.6" y2="219.0"/>
<line x1="561.3" y1="213.8" x2="586.9" y2="228.6"/>
<line x1="180.2" y1="273.8" x2="154.6" y2="288.6"/>
<line x1="145.4" y1="88.5" x2="146.0" y2="89.1"/>
<line x1="142.3" y1="91.1" x2="143.5" y2="92.2"/>
<line x1="139.2" y1="93.6" x2="140.9" y2="95.3"/>
<line x1="136.1" y1="96.2" x2="138.4" y2="98.4"/>
<line x1="133.0" y1="98.7" x2="135.8" y2="101.5"/>
<line x1="129.9" y1="101.3" x2="133.3" y2="104.7"/>
<line x1="126.8" y1="103.8" x2="130.7" y2="107.8"/>
<polygon points="82.053444 91.387254 85.126092 118.309342 92.853498 116.238790 " />
<line x1="89.0" y1="117.3" x2="60.4" y2="109.6"/>
<line x1="53.8" y1="149.7" x2="54.0" y2="148.9"/>
<line x1="57.6" y1="151.1" x2="58.0" y2="149.5"/>
<line x1="61.3" y1="152.5" x2="61.9" y2="150.2"/>
<line x1="65.1" y1="153.9" x2="65.9" y2="150.8"/>
<line x1="68.8" y1="155.4" x2="69.9" y2="151.5"/>
<line x1="72.6" y1="156.8" x2="73.8" y2="152.1"/>
<line x1="76.4" y1="158.2" x2="77.8" y2="152.8"/>
<line x1="78.6" y1="155.9" x2="57.7" y2="176.8"/>
<polygon points="87.970843 203.145832 109.749731 187.023798 104.092877 181.366943 " />
<line x1="106.9" y1="184.2" x2="114.6" y2="212.8"/>
<line x1="169.1" y1="163.7" x2="169.4" y2="164.4"/>
<line x1="165.2" y1="164.8" x2="165.8" y2="166.3"/>
<line x1="161.4" y1="166.0" x2="162.3" y2="168.2"/>
<line x1="157.5" y1="167.2" x2="158.7" y2="170.1"/>
<line x1="153.7" y1="168.3" x2="155.2" y2="172.0"/>
<line x1="149.8" y1="169.5" x2="151.7" y2="173.9"/>
<line x1="146.0" y1="170.6" x2="148.1" y2="175.8"/>
<line x1="145.6" y1="173.8" x2="145.6" y2="203.4"/>
<line x1="526.6" y1="233.8" x2="492.0" y2="213.8"/>
<line x1="525.0" y1="224.6" x2="500.8" y2="210.6"/>
<line x1="492.0" y1="213.8" x2="492.0" y2="173.8"/>
<line x1="492.0" y1="173.8" x2="526.6" y2="153.8"/>
<line x1="500.8" y1="177.1" x2="525.0" y2="163.1"/>
<line x1="526.6" y1="153.8" x2="561.3" y2="173.8"/>
<line x1="561.3" y1="173.8" x2="561.3" y2="213.8"/>
<line x1="554.1" y1="179.8" x2="554.1" y2="207.8"/>
<line x1="561.3" y1="213.8" x2="526.6" y2="233.8"/>
<line x1="249.5" y1="233.8" x2="214.8" y2="213.8"/>
<line x1="240.7" y1="237.1" x2="216.4" y2="223.1"/>
<line x1="214.8" y1="213.8" x2="180.2" y2="233.8"/>
<line x1="180.2" y1="233.8" x2="180.2" y2="273.8"/>
<line x1="187.4" y1="239.8" x2="187.4" y2="267.8"/>
<line x1="180.2" y1="273.8" x2="214.8" y2="293.8"/>
<line x1="214.8" y1="293.8" x2="249.5" y2="273.8"/>
<line x1="216.4" y1="284.6" x2="240.7" y2="270.6"/>
<line x1="249.5" y1="273.8" x2="249.5" y2="233.8"/>
<line x1="78.6" y1="155.9" x2="106.9" y2="184.2"/>
<line x1="106.9" y1="184.2" x2="145.6" y2="173.8"/>
<line x1="145.6" y1="173.8" x2="153.2" y2="145.3"/>
<line x1="148.6" y1="127.9" x2="127.6" y2="106.9"/>
<line x1="127.6" y1="106.9" x2="89.0" y2="117.3"/>
<line x1="89.0" y1="117.3" x2="78.6" y2="155.9"/>
<text x="624.532563" y="222.162609" fill="rgb(102,102,102)"  stroke="rgb(102,102,102)" stroke-width="1" font-size="16" >CH</text>
<text x="648.532563" y="229.842609" fill="rgb(102,102,102)"  stroke="rgb(102,102,102)" stroke-width="1" font-size="13" >3</text>
<text x="87.317321" y="282.162609" fill="rgb(102,102,102)"  stroke="rgb(102,102,102)" stroke-width="1" font-size="16" >H</text>
<text x="99.317321" y="289.842609" fill="rgb(102,102,102)"  stroke="rgb(102,102,102)" stroke-width="1" font-size="13" >3</text>
<text x="105.817321" y="282.162609" fill="rgb(102,102,102)"  stroke="rgb(102,102,102)" stroke-width="1" font-size="16" >C</text>
<text x="139.558337" y="48.320000" fill="rgb(255,12,12)"  stroke="rgb(255,12,12)" stroke-width="1" font-size="16" >OH</text>
<text x="382.045450" y="278.642609" fill="rgb(255,12,12)"  stroke="rgb(255,12,12)" stroke-width="1" font-size="16" >OH</text>
<text x="280.522402" y="222.162609" fill="rgb(255,12,12)"  stroke="rgb(255,12,12)" stroke-width="1" font-size="16" >O</text>
<text x="589.891547" y="162.162609" fill="rgb(255,12,12)"  stroke="rgb(255,12,12)" stroke-width="1" font-size="16" >OH</text>
<text x="34.752762" y="115.241304" fill="rgb(255,12,12)"  stroke="rgb(255,12,12)" stroke-width="1" font-size="16" >HO</text>
<text x="34.752762" y="188.995370" fill="rgb(255,12,12)"  stroke="rgb(255,12,12)" stroke-width="1" font-size="16" >HO</text>
<text x="111.274066" y="227.632403" fill="rgb(255,12,12)"  stroke="rgb(255,12,12)" stroke-width="1" font-size="16" >OH</text>
<text x="589.891547" y="238.642609" fill="rgb(255,12,12)"  stroke="rgb(255,12,12)" stroke-width="1" font-size="16" >O</text>
<text x="139.558337" y="298.642609" fill="rgb(255,12,12)"  stroke="rgb(255,12,12)" stroke-width="1" font-size="16" >O</text>
<text x="141.958337" y="218.642609" fill="rgb(255,12,12)"  stroke="rgb(255,12,12)" stroke-width="1" font-size="16" >O</text>
<text x="149.911099" y="143.525576" fill="rgb(255,12,12)"  stroke="rgb(255,12,12)" stroke-width="1" font-size="16" >O</text>
<text x="451.327483" y="278.642609" fill="rgb(191,191,191)"  stroke="rgb(191,191,191)" stroke-width="1" font-size="16" >H</text>
<text x="278.122402" y="338.642609" fill="rgb(191,191,191)"  stroke="rgb(191,191,191)" stroke-width="1" font-size="16" >H</text>
<text x="416.686467" y="182.162609" fill="rgb(191,191,191)"  stroke="rgb(191,191,191)" stroke-width="1" font-size="16" >H</text>
<text x="347.404434" y="298.642609" fill="rgb(191,191,191)"  stroke="rgb(191,191,191)" stroke-width="1" font-size="16" >H</text>
<text x="347.404434" y="182.162609" fill="rgb(191,191,191)"  stroke="rgb(191,191,191)" stroke-width="1" font-size="16" >H</text>
<text x="149.911099" y="86.957033" fill="rgb(191,191,191)"  stroke="rgb(191,191,191)" stroke-width="1" font-size="16" >H</text>
<text x="75.037033" y="86.957033" fill="rgb(191,191,191)"  stroke="rgb(191,191,191)" stroke-width="1" font-size="16" >H</text>
<text x="36.400000" y="153.878337" fill="rgb(191,191,191)"  stroke="rgb(191,191,191)" stroke-width="1" font-size="16" >H</text>
<text x="75.037033" y="217.279642" fill="rgb(191,191,191)"  stroke="rgb(191,191,191)" stroke-width="1" font-size="16" >H</text>
<text x="176.513519" y="166.855271" fill="rgb(191,191,191)"  stroke="rgb(191,191,191)" stroke-width="1" font-size="16" >H</text>
<text font-size="18.000000" fill ="black" font-family="sans-serif"
x="140.000000" y="20.000000" ></text>
<title> - OBDepict</title>
</svg>
