<?xml version="1.0"?>
<svg xmlns="http://www.w3.org/2000/svg"
xmlns:xlink="http://www.w3.org/1999/xlink" xmlns:cml="http://www.xml-cml.org/schema" width="258.564" height="220" x="0" y="0" font-family="sans-serif" stroke="rgb(0,0,0)" stroke-width="1" >
<line x1="209.6" y1="105.2" x2="183.9" y2="120.0"/>
<line x1="158.3" y1="105.2" x2="183.9" y2="120.0"/>
<line x1="183.9" y1="160.0" x2="149.3" y2="180.0"/>
<line x1="180.9" y1="160.0" x2="180.9" y2="120.0"/>
<line x1="186.9" y1="160.0" x2="186.9" y2="120.0"/>
<line x1="149.3" y1="180.0" x2="123.6" y2="165.2"/>
<line x1="114.6" y1="120.0" x2="80.0" y2="100.0"/>
<line x1="114.6" y1="120.0" x2="114.6" y2="149.6"/>
<polygon points="53.200000 100.000000 80.000000 104.000000 80.000000 96.000000 " />
<line x1="80.0" y1="100.0" x2="80.0" y2="60.0"/>
<line x1="80.0" y1="100.0" x2="65.2" y2="125.6"/>
<line x1="78.5" y1="57.4" x2="104.1" y2="42.6"/>
<line x1="81.5" y1="62.6" x2="107.1" y2="47.8"/>
<line x1="80.0" y1="60.0" x2="54.4" y2="45.2"/>
<text x="212.564065" y="108.320000" fill="rgb(102,102,102)"  stroke="rgb(102,102,102)" stroke-width="1" font-size="16" >CH</text>
<text x="236.564065" y="116.000000" fill="rgb(102,102,102)"  stroke="rgb(102,102,102)" stroke-width="1" font-size="13" >3</text>
<text x="125.682032" y="108.320000" fill="rgb(102,102,102)"  stroke="rgb(102,102,102)" stroke-width="1" font-size="16" >H</text>
<text x="137.682032" y="116.000000" fill="rgb(102,102,102)"  stroke="rgb(102,102,102)" stroke-width="1" font-size="13" >3</text>
<text x="144.182032" y="108.320000" fill="rgb(102,102,102)"  stroke="rgb(102,102,102)" stroke-width="1" font-size="16" >C</text>
<text x="36.400000" y="139.441016" fill="rgb(12,12,255)"  stroke="rgb(12,12,255)" stroke-width="1" font-size="16" >H</text>
<text x="48.400000" y="144.241016" fill="rgb(12,12,255)"  stroke="rgb(12,12,255)" stroke-width="1" font-size="13" >2</text>
<text x="54.900000" y="139.441016" fill="rgb(12,12,255)"  stroke="rgb(12,12,255)" stroke-width="1" font-size="16" >N</text>
<text x="108.641016" y="48.320000" fill="rgb(255,12,12)"  stroke="rgb(255,12,12)" stroke-width="1" font-size="16" >O</text>
<text x="29.758984" y="48.320000" fill="rgb(255,12,12)"  stroke="rgb(255,12,12)" stroke-width="1" font-size="16" >HO</text>
<text x="111.041016" y="164.800000" fill="rgb(178,178,0)"  stroke="rgb(178,178,0)" stroke-width="1" font-size="16" >S</text>
<text x="36.400000" y="104.800000" fill="rgb(191,191,191)"  stroke="rgb(191,191,191)" stroke-width="1" font-size="16" >H</text>
<text font-size="18.000000" fill ="black" font-family="sans-serif"
x="140.000000" y="20.000000" ></text>
<title> - OBDepict</title>
</svg>
