<?xml version="1.0"?>
<svg xmlns="http://www.w3.org/2000/svg"
xmlns:xlink="http://www.w3.org/1999/xlink" xmlns:cml="http://www.xml-cml.org/schema" width="334.641" height="229.282" x="0" y="0" font-family="sans-serif" stroke="rgb(0,0,0)" stroke-width="1" >
<line x1="140.0" y1="114.6" x2="180.0" y2="114.6"/>
<line x1="140.0" y1="114.6" x2="125.2" y2="140.3"/>
<polygon points="203.209481 128.041016 182.000000 111.176915 178.000000 118.105118 " />
<line x1="180.0" y1="114.6" x2="200.0" y2="80.0"/>
<line x1="180.0" y1="114.6" x2="180.0" y2="144.2"/>
<line x1="199.6" y1="54.4" x2="200.4" y2="54.4"/>
<line x1="199.2" y1="58.4" x2="200.8" y2="58.4"/>
<line x1="198.8" y1="62.4" x2="201.2" y2="62.4"/>
<line x1="198.4" y1="66.4" x2="201.6" y2="66.4"/>
<line x1="198.0" y1="70.4" x2="202.0" y2="70.4"/>
<line x1="197.6" y1="74.4" x2="202.4" y2="74.4"/>
<line x1="197.2" y1="78.4" x2="202.8" y2="78.4"/>
<line x1="200.0" y1="80.0" x2="240.0" y2="80.0"/>
<line x1="200.0" y1="80.0" x2="174.4" y2="65.2"/>
<polygon points="263.209481 66.600000 238.000000 76.535898 242.000000 83.464102 " />
<line x1="240.0" y1="80.0" x2="260.0" y2="114.6"/>
<line x1="240.0" y1="80.0" x2="240.0" y2="50.4"/>
<line x1="282.4" y1="127.1" x2="282.0" y2="127.8"/>
<line x1="279.1" y1="124.7" x2="278.3" y2="126.1"/>
<line x1="275.8" y1="122.4" x2="274.6" y2="124.5"/>
<line x1="272.6" y1="120.1" x2="271.0" y2="122.8"/>
<line x1="269.3" y1="117.7" x2="267.3" y2="121.2"/>
<line x1="266.0" y1="115.4" x2="263.6" y2="119.5"/>
<line x1="262.8" y1="113.0" x2="260.0" y2="117.9"/>
<line x1="260.0" y1="114.6" x2="240.0" y2="149.3"/>
<line x1="260.0" y1="114.6" x2="285.6" y2="99.8"/>
<line x1="240.0" y1="152.3" x2="210.4" y2="152.3"/>
<line x1="240.0" y1="146.3" x2="210.4" y2="146.3"/>
<line x1="240.0" y1="149.3" x2="254.8" y2="174.9"/>
<line x1="80.0" y1="119.7" x2="80.0" y2="138.9"/>
<line x1="50.4" y1="149.3" x2="69.6" y2="149.3"/>
<line x1="77.0" y1="178.9" x2="77.0" y2="159.7"/>
<line x1="83.0" y1="178.9" x2="83.0" y2="159.7"/>
<line x1="109.6" y1="149.3" x2="90.4" y2="149.3"/>
<text x="174.000000" y="159.441016" fill="rgb(255,12,12)"  stroke="rgb(255,12,12)" stroke-width="1" font-size="16" >OH</text>
<text x="149.758984" y="68.320000" fill="rgb(255,12,12)"  stroke="rgb(255,12,12)" stroke-width="1" font-size="16" >HO</text>
<text x="234.000000" y="48.320000" fill="rgb(255,12,12)"  stroke="rgb(255,12,12)" stroke-width="1" font-size="16" >OH</text>
<text x="288.641016" y="102.961016" fill="rgb(255,12,12)"  stroke="rgb(255,12,12)" stroke-width="1" font-size="16" >OH</text>
<text x="196.400000" y="154.082032" fill="rgb(255,12,12)"  stroke="rgb(255,12,12)" stroke-width="1" font-size="16" >O</text>
<text x="255.200000" y="203.123048" fill="rgb(255,12,12)"  stroke="rgb(255,12,12)" stroke-width="1" font-size="32" >-</text>
<text x="254.000000" y="188.723048" fill="rgb(255,12,12)"  stroke="rgb(255,12,12)" stroke-width="1" font-size="16" >O</text>
<text x="75.200000" y="102.882032" fill="rgb(255,12,12)"  stroke="rgb(255,12,12)" stroke-width="1" font-size="32" >-</text>
<text x="74.000000" y="117.602032" fill="rgb(255,12,12)"  stroke="rgb(255,12,12)" stroke-width="1" font-size="16" >O</text>
<text x="35.200000" y="168.482032" fill="rgb(255,12,12)"  stroke="rgb(255,12,12)" stroke-width="1" font-size="32" >-</text>
<text x="36.400000" y="154.082032" fill="rgb(255,12,12)"  stroke="rgb(255,12,12)" stroke-width="1" font-size="16" >O</text>
<text x="74.000000" y="194.082032" fill="rgb(255,12,12)"  stroke="rgb(255,12,12)" stroke-width="1" font-size="16" >O</text>
<text x="114.000000" y="154.082032" fill="rgb(255,12,12)"  stroke="rgb(255,12,12)" stroke-width="1" font-size="16" >O</text>
<text x="74.000000" y="154.082032" fill="rgb(255,127,0)"  stroke="rgb(255,127,0)" stroke-width="1" font-size="16" >P</text>
<text x="208.641016" y="139.441016" fill="rgb(191,191,191)"  stroke="rgb(191,191,191)" stroke-width="1" font-size="16" >H</text>
<text x="194.000000" y="48.320000" fill="rgb(191,191,191)"  stroke="rgb(191,191,191)" stroke-width="1" font-size="16" >H</text>
<text x="268.641016" y="68.320000" fill="rgb(191,191,191)"  stroke="rgb(191,191,191)" stroke-width="1" font-size="16" >H</text>
<text x="288.641016" y="139.441016" fill="rgb(191,191,191)"  stroke="rgb(191,191,191)" stroke-width="1" font-size="16" >H</text>
<text font-size="18.000000" fill ="black" font-family="sans-serif"
x="140.000000" y="20.000000" ></text>
<title> - OBDepict</title>
</svg>
