<?xml version="1.0"?>
<svg xmlns="http://www.w3.org/2000/svg"
xmlns:xlink="http://www.w3.org/1999/xlink" xmlns:cml="http://www.xml-cml.org/schema" width="1135.06" height="736.996" x="0" y="0" font-family="sans-serif" stroke="rgb(0,0,0)" stroke-width="1" >
<line x1="1087.6" y1="687.2" x2="1095.1" y2="659.3"/>
<line x1="508.7" y1="237.8" x2="494.3" y2="262.8"/>
<line x1="323.0" y1="58.9" x2="337.5" y2="83.9"/>
<line x1="635.8" y1="251.2" x2="660.8" y2="236.8"/>
<line x1="1095.1" y1="659.3" x2="1067.5" y2="631.8"/>
<line x1="1067.5" y1="631.8" x2="1029.8" y2="641.9"/>
<line x1="1029.8" y1="641.9" x2="1002.3" y2="614.3"/>
<line x1="1002.3" y1="614.3" x2="964.6" y2="624.4"/>
<line x1="964.6" y1="624.4" x2="937.0" y2="596.8"/>
<line x1="937.0" y1="596.8" x2="899.4" y2="606.9"/>
<line x1="899.4" y1="606.9" x2="871.8" y2="579.3"/>
<line x1="871.8" y1="579.3" x2="834.2" y2="589.4"/>
<line x1="834.2" y1="589.4" x2="806.6" y2="561.9"/>
<line x1="806.6" y1="561.9" x2="768.9" y2="571.9"/>
<line x1="768.9" y1="571.9" x2="741.4" y2="544.4"/>
<line x1="741.4" y1="544.4" x2="703.7" y2="554.5"/>
<line x1="703.7" y1="554.5" x2="696.2" y2="582.3"/>
<line x1="701.6" y1="556.6" x2="674.0" y2="529.0"/>
<line x1="705.8" y1="552.4" x2="678.3" y2="524.8"/>
<line x1="676.1" y1="526.9" x2="648.3" y2="534.4"/>
<line x1="676.1" y1="526.9" x2="686.2" y2="489.2"/>
<line x1="348.8" y1="369.3" x2="368.3" y2="335.5"/>
<line x1="348.8" y1="369.3" x2="363.2" y2="394.3"/>
<line x1="50.1" y1="179.0" x2="87.7" y2="168.9"/>
<line x1="50.1" y1="179.0" x2="42.6" y2="206.8"/>
<line x1="787.1" y1="106.9" x2="777.0" y2="144.6"/>
<line x1="787.1" y1="106.9" x2="766.7" y2="86.5"/>
<line x1="172.5" y1="78.7" x2="211.5" y2="78.7"/>
<line x1="172.5" y1="78.7" x2="158.0" y2="53.7"/>
<line x1="554.3" y1="91.3" x2="588.1" y2="110.8"/>
<line x1="554.3" y1="91.3" x2="554.3" y2="62.5"/>
<line x1="832.3" y1="296.8" x2="812.8" y2="330.6"/>
<line x1="832.3" y1="296.8" x2="861.1" y2="296.8"/>
<line x1="686.2" y1="434.1" x2="658.7" y2="461.7"/>
<line x1="686.2" y1="434.1" x2="714.1" y2="441.6"/>
<line x1="364.4" y1="136.5" x2="402.1" y2="146.6"/>
<line x1="364.4" y1="136.5" x2="356.9" y2="108.6"/>
<line x1="644.1" y1="397.2" x2="636.6" y2="425.1"/>
<line x1="638.3" y1="395.7" x2="630.8" y2="423.5"/>
<line x1="641.2" y1="396.4" x2="620.8" y2="376.0"/>
<line x1="494.3" y1="265.8" x2="465.4" y2="265.8"/>
<line x1="494.3" y1="259.8" x2="465.4" y2="259.8"/>
<line x1="494.3" y1="262.8" x2="508.7" y2="287.8"/>
<line x1="340.1" y1="85.4" x2="325.6" y2="110.4"/>
<line x1="334.9" y1="82.4" x2="320.4" y2="107.4"/>
<line x1="337.5" y1="83.9" x2="366.3" y2="83.9"/>
<line x1="657.8" y1="236.8" x2="657.8" y2="208.0"/>
<line x1="663.8" y1="236.8" x2="663.8" y2="208.0"/>
<line x1="660.8" y1="236.8" x2="685.8" y2="251.2"/>
<line x1="641.3" y1="479.6" x2="640.7" y2="479.0"/>
<line x1="644.3" y1="477.1" x2="643.2" y2="476.0"/>
<line x1="647.4" y1="474.7" x2="645.7" y2="473.0"/>
<line x1="650.4" y1="472.2" x2="648.1" y2="469.9"/>
<line x1="653.5" y1="469.7" x2="650.6" y2="466.9"/>
<line x1="656.5" y1="467.2" x2="653.1" y2="463.8"/>
<line x1="659.5" y1="464.8" x2="655.6" y2="460.8"/>
<line x1="658.7" y1="461.7" x2="686.2" y2="489.2"/>
<line x1="658.7" y1="461.7" x2="638.3" y2="441.3"/>
<polygon points="704.692588 470.773904 683.393458 486.416180 689.050312 492.073034 " />
<line x1="686.2" y1="489.2" x2="714.1" y2="496.7"/>
<line x1="343.3" y1="335.9" x2="343.3" y2="335.1"/>
<line x1="347.2" y1="336.3" x2="347.2" y2="334.7"/>
<line x1="351.1" y1="336.7" x2="351.1" y2="334.3"/>
<line x1="355.0" y1="337.1" x2="355.0" y2="333.9"/>
<line x1="358.9" y1="337.5" x2="358.9" y2="333.5"/>
<line x1="362.8" y1="337.9" x2="362.8" y2="333.1"/>
<line x1="366.7" y1="338.3" x2="366.7" y2="332.7"/>
<line x1="69.8" y1="151.5" x2="70.4" y2="151.0"/>
<line x1="72.3" y1="154.6" x2="73.4" y2="153.4"/>
<line x1="74.8" y1="157.6" x2="76.5" y2="155.9"/>
<line x1="77.2" y1="160.6" x2="79.5" y2="158.4"/>
<line x1="79.7" y1="163.7" x2="82.5" y2="160.9"/>
<line x1="82.2" y1="166.7" x2="85.6" y2="163.3"/>
<line x1="84.7" y1="169.8" x2="88.6" y2="165.8"/>
<line x1="801.0" y1="137.7" x2="801.2" y2="138.5"/>
<line x1="797.1" y1="138.3" x2="797.5" y2="139.9"/>
<line x1="793.3" y1="139.0" x2="793.9" y2="141.3"/>
<line x1="789.4" y1="139.6" x2="790.2" y2="142.7"/>
<line x1="785.5" y1="140.2" x2="786.6" y2="144.1"/>
<line x1="781.7" y1="140.8" x2="782.9" y2="145.5"/>
<line x1="777.8" y1="141.5" x2="779.2" y2="146.9"/>
<line x1="198.6" y1="57.2" x2="199.3" y2="56.8"/>
<line x1="200.2" y1="60.8" x2="201.6" y2="60.0"/>
<line x1="201.8" y1="64.4" x2="203.9" y2="63.2"/>
<line x1="203.4" y1="68.0" x2="206.2" y2="66.4"/>
<line x1="205.0" y1="71.6" x2="208.5" y2="69.6"/>
<line x1="206.7" y1="75.1" x2="210.8" y2="72.7"/>
<line x1="208.3" y1="78.7" x2="213.1" y2="75.9"/>
<line x1="587.7" y1="85.9" x2="588.5" y2="85.9"/>
<line x1="587.3" y1="89.8" x2="588.9" y2="89.8"/>
<line x1="586.9" y1="93.7" x2="589.3" y2="93.7"/>
<line x1="586.5" y1="97.5" x2="589.7" y2="97.5"/>
<line x1="586.1" y1="101.4" x2="590.1" y2="101.4"/>
<line x1="585.7" y1="105.3" x2="590.5" y2="105.3"/>
<line x1="585.3" y1="109.2" x2="590.9" y2="109.2"/>
<line x1="837.7" y1="330.2" x2="837.7" y2="331.0"/>
<line x1="833.8" y1="329.8" x2="833.8" y2="331.4"/>
<line x1="829.9" y1="329.4" x2="829.9" y2="331.8"/>
<line x1="826.0" y1="329.0" x2="826.0" y2="332.2"/>
<line x1="822.1" y1="328.6" x2="822.1" y2="332.6"/>
<line x1="818.2" y1="328.2" x2="818.2" y2="333.0"/>
<line x1="814.3" y1="327.8" x2="814.3" y2="333.4"/>
<line x1="395.2" y1="122.6" x2="396.0" y2="122.4"/>
<line x1="395.8" y1="126.5" x2="397.4" y2="126.0"/>
<line x1="396.5" y1="130.3" x2="398.8" y2="129.7"/>
<line x1="397.1" y1="134.2" x2="400.2" y2="133.4"/>
<line x1="397.7" y1="138.1" x2="401.6" y2="137.0"/>
<line x1="398.3" y1="141.9" x2="403.0" y2="140.7"/>
<line x1="398.9" y1="145.8" x2="404.4" y2="144.4"/>
<polygon points="461.938565 296.532539 435.817046 292.532539 435.817046 300.532539 " />
<line x1="435.8" y1="296.5" x2="450.2" y2="271.5"/>
<polygon points="292.046470 140.263040 282.449812 115.641141 275.521609 119.641141 " />
<line x1="279.0" y1="117.6" x2="307.8" y2="117.6"/>
<polygon points="627.053210 204.454103 631.053210 178.332584 623.053210 178.332584 " />
<line x1="627.1" y1="178.3" x2="652.0" y2="192.8"/>
<polygon points="388.992258 377.635450 405.517120 357.013551 398.588916 353.013551 " />
<line x1="402.1" y1="355.0" x2="416.5" y2="380.0"/>
<line x1="73.8" y1="213.4" x2="73.6" y2="212.6"/>
<line x1="77.7" y1="212.8" x2="77.3" y2="211.2"/>
<line x1="81.6" y1="212.1" x2="81.0" y2="209.8"/>
<line x1="85.5" y1="211.5" x2="84.6" y2="208.4"/>
<line x1="89.3" y1="210.9" x2="88.3" y2="207.0"/>
<line x1="93.2" y1="210.3" x2="91.9" y2="205.6"/>
<line x1="97.1" y1="209.6" x2="95.6" y2="204.2"/>
<line x1="97.8" y1="206.5" x2="90.4" y2="234.4"/>
<line x1="745.4" y1="110.3" x2="746.2" y2="110.5"/>
<line x1="744.0" y1="113.9" x2="745.6" y2="114.3"/>
<line x1="742.6" y1="117.6" x2="744.9" y2="118.2"/>
<line x1="741.2" y1="121.3" x2="744.3" y2="122.1"/>
<line x1="739.8" y1="124.9" x2="743.7" y2="126.0"/>
<line x1="738.4" y1="128.6" x2="743.1" y2="129.8"/>
<line x1="737.0" y1="132.2" x2="742.5" y2="133.7"/>
<line x1="739.3" y1="134.5" x2="718.9" y2="114.1"/>
<line x1="367.8" y1="178.2" x2="368.0" y2="177.4"/>
<line x1="371.4" y1="179.6" x2="371.8" y2="178.0"/>
<line x1="375.1" y1="181.0" x2="375.7" y2="178.6"/>
<line x1="378.7" y1="182.4" x2="379.6" y2="179.3"/>
<line x1="382.4" y1="183.8" x2="383.4" y2="179.9"/>
<line x1="386.1" y1="185.1" x2="387.3" y2="180.5"/>
<line x1="389.7" y1="186.5" x2="391.2" y2="181.1"/>
<line x1="392.0" y1="184.2" x2="371.6" y2="204.6"/>
<line x1="448.6" y1="356.9" x2="447.9" y2="357.3"/>
<line x1="447.0" y1="353.4" x2="445.7" y2="354.2"/>
<line x1="445.4" y1="349.8" x2="443.4" y2="351.0"/>
<line x1="443.8" y1="346.2" x2="441.1" y2="347.8"/>
<line x1="442.2" y1="342.6" x2="438.8" y2="344.6"/>
<line x1="440.6" y1="339.0" x2="436.5" y2="341.4"/>
<line x1="439.0" y1="335.5" x2="434.2" y2="338.3"/>
<line x1="435.8" y1="335.5" x2="464.7" y2="335.5"/>
<line x1="233.1" y1="158.9" x2="232.4" y2="158.5"/>
<line x1="235.4" y1="155.8" x2="234.0" y2="155.0"/>
<line x1="237.7" y1="152.6" x2="235.6" y2="151.4"/>
<line x1="240.0" y1="149.4" x2="237.2" y2="147.8"/>
<line x1="242.3" y1="146.2" x2="238.8" y2="144.2"/>
<line x1="244.6" y1="143.1" x2="240.4" y2="140.7"/>
<line x1="246.9" y1="139.9" x2="242.0" y2="137.1"/>
<line x1="245.2" y1="137.1" x2="259.6" y2="162.1"/>
<line x1="566.7" y1="191.2" x2="566.3" y2="190.5"/>
<line x1="570.2" y1="189.6" x2="569.4" y2="188.2"/>
<line x1="573.8" y1="187.9" x2="572.6" y2="185.9"/>
<line x1="577.4" y1="186.3" x2="575.8" y2="183.6"/>
<line x1="581.0" y1="184.7" x2="579.0" y2="181.3"/>
<line x1="584.5" y1="183.1" x2="582.1" y2="179.0"/>
<line x1="588.1" y1="181.5" x2="585.3" y2="176.7"/>
<line x1="588.1" y1="178.3" x2="588.1" y2="207.2"/>
<line x1="129.4" y1="240.8" x2="128.7" y2="240.6"/>
<line x1="130.8" y1="237.2" x2="129.3" y2="236.8"/>
<line x1="132.2" y1="233.5" x2="129.9" y2="232.9"/>
<line x1="133.6" y1="229.9" x2="130.5" y2="229.0"/>
<line x1="135.0" y1="226.2" x2="131.1" y2="225.2"/>
<line x1="136.4" y1="222.5" x2="131.8" y2="221.3"/>
<line x1="137.8" y1="218.9" x2="132.4" y2="217.4"/>
<line x1="135.5" y1="216.6" x2="155.9" y2="237.0"/>
<line x1="732.4" y1="309.2" x2="733.1" y2="308.8"/>
<line x1="734.0" y1="312.7" x2="735.4" y2="311.9"/>
<line x1="735.6" y1="316.3" x2="737.7" y2="315.1"/>
<line x1="737.2" y1="319.9" x2="740.0" y2="318.3"/>
<line x1="738.8" y1="323.5" x2="742.3" y2="321.5"/>
<line x1="740.4" y1="327.1" x2="744.6" y2="324.7"/>
<line x1="742.0" y1="330.6" x2="746.9" y2="327.8"/>
<line x1="745.3" y1="330.6" x2="716.4" y2="330.6"/>
<polygon points="181.538011 207.534753 165.895735 186.235623 160.238880 191.892477 " />
<line x1="163.1" y1="189.1" x2="190.9" y2="181.6"/>
<polygon points="719.131645 369.568748 745.253164 373.568748 745.253164 365.568748 " />
<line x1="745.3" y1="369.6" x2="730.8" y2="394.6"/>
<polygon points="696.633192 206.465730 722.899918 203.568687 720.829365 195.841280 " />
<line x1="721.9" y1="199.7" x2="714.4" y2="227.6"/>
<polygon points="463.950192 226.952557 461.053149 200.685831 453.325742 202.756383 " />
<line x1="457.2" y1="201.7" x2="485.1" y2="209.2"/>
<polygon points="185.336135 117.641141 211.457654 121.641141 211.457654 113.641141 " />
<line x1="211.5" y1="117.6" x2="197.0" y2="142.6"/>
<polygon points="545.950298 131.507796 566.572197 148.032658 570.572197 141.104454 " />
<line x1="568.6" y1="144.6" x2="518.6" y2="173.4"/>
<polygon points="792.077952 288.465836 775.553091 309.087735 782.481294 313.087735 " />
<line x1="779.0" y1="311.1" x2="750.2" y2="261.1"/>
<line x1="693.8" y1="144.7" x2="694.4" y2="144.1"/>
<line x1="696.3" y1="147.7" x2="697.5" y2="146.6"/>
<line x1="698.8" y1="150.8" x2="700.5" y2="149.1"/>
<line x1="701.3" y1="153.8" x2="703.5" y2="151.5"/>
<line x1="703.7" y1="156.8" x2="706.6" y2="154.0"/>
<line x1="706.2" y1="159.9" x2="709.6" y2="156.5"/>
<line x1="708.7" y1="162.9" x2="712.7" y2="159.0"/>
<line x1="711.8" y1="162.0" x2="683.9" y2="169.5"/>
<line x1="402.2" y1="229.7" x2="401.6" y2="229.2"/>
<line x1="405.2" y1="227.3" x2="404.1" y2="226.1"/>
<line x1="408.2" y1="224.8" x2="406.6" y2="223.1"/>
<line x1="411.3" y1="222.3" x2="409.0" y2="220.1"/>
<line x1="414.3" y1="219.8" x2="411.5" y2="217.0"/>
<line x1="417.4" y1="217.4" x2="414.0" y2="214.0"/>
<line x1="420.4" y1="214.9" x2="416.4" y2="210.9"/>
<line x1="419.5" y1="211.8" x2="427.0" y2="239.7"/>
<line x1="275.3" y1="54.0" x2="276.1" y2="53.9"/>
<line x1="275.4" y1="57.9" x2="277.0" y2="57.7"/>
<line x1="275.6" y1="61.8" x2="277.9" y2="61.5"/>
<line x1="275.7" y1="65.7" x2="278.8" y2="65.3"/>
<line x1="275.8" y1="69.6" x2="279.7" y2="69.1"/>
<line x1="275.9" y1="73.6" x2="280.7" y2="72.9"/>
<line x1="276.0" y1="77.5" x2="281.6" y2="76.7"/>
<line x1="279.0" y1="78.7" x2="334.7" y2="93.6"/>
<line x1="378.8" y1="267.9" x2="379.2" y2="267.1"/>
<line x1="382.3" y1="269.7" x2="382.9" y2="268.2"/>
<line x1="385.7" y1="271.6" x2="386.7" y2="269.4"/>
<line x1="389.2" y1="273.4" x2="390.4" y2="270.5"/>
<line x1="392.6" y1="275.3" x2="394.2" y2="271.6"/>
<line x1="396.1" y1="277.2" x2="397.9" y2="272.7"/>
<line x1="399.5" y1="279.0" x2="401.7" y2="273.9"/>
<line x1="402.1" y1="277.0" x2="422.5" y2="256.6"/>
<line x1="655.7" y1="121.4" x2="656.5" y2="121.7"/>
<line x1="653.9" y1="124.8" x2="655.3" y2="125.4"/>
<line x1="652.0" y1="128.3" x2="654.2" y2="129.2"/>
<line x1="650.1" y1="131.7" x2="653.1" y2="132.9"/>
<line x1="648.3" y1="135.2" x2="652.0" y2="136.7"/>
<line x1="646.4" y1="138.6" x2="650.9" y2="140.4"/>
<line x1="644.6" y1="142.1" x2="649.7" y2="144.2"/>
<line x1="646.5" y1="144.6" x2="666.9" y2="165.0"/>
<line x1="802.2" y1="398.2" x2="801.9" y2="399.0"/>
<line x1="798.8" y1="396.4" x2="798.2" y2="397.9"/>
<line x1="795.3" y1="394.5" x2="794.4" y2="396.7"/>
<line x1="791.9" y1="392.7" x2="790.7" y2="395.6"/>
<line x1="788.4" y1="390.8" x2="786.9" y2="394.5"/>
<line x1="785.0" y1="388.9" x2="783.1" y2="393.4"/>
<line x1="781.5" y1="387.1" x2="779.4" y2="392.2"/>
<line x1="779.0" y1="389.1" x2="738.2" y2="429.9"/>
<line x1="143.1" y1="128.5" x2="143.8" y2="128.2"/>
<line x1="144.2" y1="132.3" x2="145.7" y2="131.6"/>
<line x1="145.3" y1="136.0" x2="147.5" y2="135.1"/>
<line x1="146.4" y1="139.8" x2="149.4" y2="138.5"/>
<line x1="147.5" y1="143.5" x2="151.2" y2="142.0"/>
<line x1="148.7" y1="147.3" x2="153.1" y2="145.4"/>
<line x1="149.8" y1="151.0" x2="155.0" y2="148.9"/>
<line x1="153.0" y1="151.4" x2="181.8" y2="151.4"/>
<line x1="784.3" y1="212.7" x2="784.2" y2="213.4"/>
<line x1="780.5" y1="211.8" x2="780.3" y2="213.3"/>
<line x1="776.7" y1="210.8" x2="776.4" y2="213.2"/>
<line x1="772.9" y1="209.9" x2="772.5" y2="213.1"/>
<line x1="769.1" y1="209.0" x2="768.5" y2="213.0"/>
<line x1="765.2" y1="208.1" x2="764.6" y2="212.9"/>
<line x1="761.4" y1="207.2" x2="760.7" y2="212.8"/>
<line x1="759.5" y1="209.8" x2="745.1" y2="234.8"/>
<line x1="470.1" y1="139.3" x2="470.9" y2="139.4"/>
<line x1="469.2" y1="143.1" x2="470.8" y2="143.3"/>
<line x1="468.3" y1="146.9" x2="470.7" y2="147.2"/>
<line x1="467.4" y1="150.7" x2="470.6" y2="151.1"/>
<line x1="466.5" y1="154.5" x2="470.5" y2="155.0"/>
<line x1="465.6" y1="158.3" x2="470.4" y2="159.0"/>
<line x1="464.7" y1="162.2" x2="470.3" y2="162.9"/>
<line x1="467.3" y1="164.1" x2="492.3" y2="178.5"/>
<line x1="435.8" y1="296.5" x2="402.1" y2="277.0"/>
<line x1="402.1" y1="277.0" x2="377.1" y2="291.5"/>
<line x1="368.3" y1="306.7" x2="368.3" y2="335.5"/>
<line x1="368.3" y1="335.5" x2="402.1" y2="355.0"/>
<line x1="402.1" y1="355.0" x2="435.8" y2="335.5"/>
<line x1="435.8" y1="335.5" x2="435.8" y2="296.5"/>
<line x1="135.5" y1="216.6" x2="163.1" y2="189.1"/>
<line x1="163.1" y1="189.1" x2="153.0" y2="151.4"/>
<line x1="153.0" y1="151.4" x2="125.1" y2="143.9"/>
<line x1="108.2" y1="148.5" x2="87.7" y2="168.9"/>
<line x1="87.7" y1="168.9" x2="97.8" y2="206.5"/>
<line x1="97.8" y1="206.5" x2="135.5" y2="216.6"/>
<line x1="721.9" y1="199.7" x2="759.5" y2="209.8"/>
<line x1="759.5" y1="209.8" x2="779.9" y2="189.4"/>
<line x1="784.5" y1="172.4" x2="777.0" y2="144.6"/>
<line x1="777.0" y1="144.6" x2="739.3" y2="134.5"/>
<line x1="739.3" y1="134.5" x2="711.8" y2="162.0"/>
<line x1="711.8" y1="162.0" x2="721.9" y2="199.7"/>
<line x1="279.0" y1="117.6" x2="279.0" y2="78.7"/>
<line x1="279.0" y1="78.7" x2="254.0" y2="64.2"/>
<line x1="236.4" y1="64.2" x2="211.5" y2="78.7"/>
<line x1="211.5" y1="78.7" x2="211.5" y2="117.6"/>
<line x1="211.5" y1="117.6" x2="245.2" y2="137.1"/>
<line x1="245.2" y1="137.1" x2="279.0" y2="117.6"/>
<line x1="627.1" y1="178.3" x2="646.5" y2="144.6"/>
<line x1="646.5" y1="144.6" x2="632.1" y2="119.6"/>
<line x1="616.9" y1="110.8" x2="588.1" y2="110.8"/>
<line x1="588.1" y1="110.8" x2="568.6" y2="144.6"/>
<line x1="568.6" y1="144.6" x2="588.1" y2="178.3"/>
<line x1="588.1" y1="178.3" x2="627.1" y2="178.3"/>
<line x1="745.3" y1="330.6" x2="745.3" y2="369.6"/>
<line x1="745.3" y1="369.6" x2="779.0" y2="389.1"/>
<line x1="779.0" y1="389.1" x2="804.0" y2="374.6"/>
<line x1="812.8" y1="359.4" x2="812.8" y2="330.6"/>
<line x1="812.8" y1="330.6" x2="779.0" y2="311.1"/>
<line x1="779.0" y1="311.1" x2="745.3" y2="330.6"/>
<line x1="457.2" y1="201.7" x2="467.3" y2="164.1"/>
<line x1="467.3" y1="164.1" x2="446.9" y2="143.7"/>
<line x1="429.9" y1="139.1" x2="402.1" y2="146.6"/>
<line x1="402.1" y1="146.6" x2="392.0" y2="184.2"/>
<line x1="392.0" y1="184.2" x2="419.5" y2="211.8"/>
<line x1="419.5" y1="211.8" x2="457.2" y2="201.7"/>
<text x="1061.371330" y="701.795865" fill="rgb(102,102,102)"  stroke="rgb(102,102,102)" stroke-width="1" font-size="16" >H</text>
<text x="1073.371330" y="706.595865" fill="rgb(102,102,102)"  stroke="rgb(102,102,102)" stroke-width="1" font-size="13" >3</text>
<text x="1079.871330" y="701.795865" fill="rgb(102,102,102)"  stroke="rgb(102,102,102)" stroke-width="1" font-size="16" >C</text>
<text x="507.791730" y="237.324482" fill="rgb(102,102,102)"  stroke="rgb(102,102,102)" stroke-width="1" font-size="16" >CH</text>
<text x="531.791730" y="245.004482" fill="rgb(102,102,102)"  stroke="rgb(102,102,102)" stroke-width="1" font-size="13" >3</text>
<text x="294.373052" y="58.433085" fill="rgb(102,102,102)"  stroke="rgb(102,102,102)" stroke-width="1" font-size="16" >H</text>
<text x="306.373052" y="66.113085" fill="rgb(102,102,102)"  stroke="rgb(102,102,102)" stroke-width="1" font-size="13" >3</text>
<text x="312.873052" y="58.433085" fill="rgb(102,102,102)"  stroke="rgb(102,102,102)" stroke-width="1" font-size="16" >C</text>
<text x="603.453210" y="261.107268" fill="rgb(102,102,102)"  stroke="rgb(102,102,102)" stroke-width="1" font-size="16" >H</text>
<text x="615.453210" y="265.907268" fill="rgb(102,102,102)"  stroke="rgb(102,102,102)" stroke-width="1" font-size="13" >3</text>
<text x="621.953210" y="261.107268" fill="rgb(102,102,102)"  stroke="rgb(102,102,102)" stroke-width="1" font-size="16" >C</text>
<text x="627.485457" y="438.908180" fill="rgb(12,12,255)"  stroke="rgb(12,12,255)" stroke-width="1" font-size="16" >N</text>
<text x="451.710717" y="271.088510" fill="rgb(12,12,255)"  stroke="rgb(12,12,255)" stroke-width="1" font-size="16" >N</text>
<text x="311.973052" y="122.441141" fill="rgb(12,12,255)"  stroke="rgb(12,12,255)" stroke-width="1" font-size="16" >N</text>
<text x="654.817238" y="206.146255" fill="rgb(12,12,255)"  stroke="rgb(12,12,255)" stroke-width="1" font-size="16" >N</text>
<text x="362.288990" y="407.847937" fill="rgb(255,12,12)"  stroke="rgb(255,12,12)" stroke-width="1" font-size="16" >OH</text>
<text x="24.400000" y="221.432264" fill="rgb(255,12,12)"  stroke="rgb(255,12,12)" stroke-width="1" font-size="16" >HO</text>
<text x="743.923522" y="87.661462" fill="rgb(255,12,12)"  stroke="rgb(255,12,12)" stroke-width="1" font-size="16" >HO</text>
<text x="137.376641" y="53.209771" fill="rgb(255,12,12)"  stroke="rgb(255,12,12)" stroke-width="1" font-size="16" >HO</text>
<text x="548.301840" y="60.643515" fill="rgb(255,12,12)"  stroke="rgb(255,12,12)" stroke-width="1" font-size="16" >OH</text>
<text x="865.262234" y="305.137378" fill="rgb(255,12,12)"  stroke="rgb(255,12,12)" stroke-width="1" font-size="16" >OH</text>
<text x="598.007910" y="377.201086" fill="rgb(255,12,12)"  stroke="rgb(255,12,12)" stroke-width="1" font-size="16" >HO</text>
<text x="507.791730" y="301.332539" fill="rgb(255,12,12)"  stroke="rgb(255,12,12)" stroke-width="1" font-size="16" >OH</text>
<text x="370.454065" y="92.197113" fill="rgb(255,12,12)"  stroke="rgb(255,12,12)" stroke-width="1" font-size="16" >OH</text>
<text x="688.581267" y="261.107268" fill="rgb(255,12,12)"  stroke="rgb(255,12,12)" stroke-width="1" font-size="16" >OH</text>
<text x="717.880765" y="504.135274" fill="rgb(255,12,12)"  stroke="rgb(255,12,12)" stroke-width="1" font-size="16" >OH</text>
<text x="415.546689" y="393.577580" fill="rgb(255,12,12)"  stroke="rgb(255,12,12)" stroke-width="1" font-size="16" >OH</text>
<text x="72.149547" y="249.000478" fill="rgb(255,12,12)"  stroke="rgb(255,12,12)" stroke-width="1" font-size="16" >HO</text>
<text x="696.173975" y="115.229676" fill="rgb(255,12,12)"  stroke="rgb(255,12,12)" stroke-width="1" font-size="16" >HO</text>
<text x="348.794138" y="216.611774" fill="rgb(255,12,12)"  stroke="rgb(255,12,12)" stroke-width="1" font-size="16" >HO</text>
<text x="468.804388" y="340.319880" fill="rgb(255,12,12)"  stroke="rgb(255,12,12)" stroke-width="1" font-size="16" >OH</text>
<text x="258.715353" y="175.698841" fill="rgb(255,12,12)"  stroke="rgb(255,12,12)" stroke-width="1" font-size="16" >OH</text>
<text x="582.065868" y="222.119926" fill="rgb(255,12,12)"  stroke="rgb(255,12,12)" stroke-width="1" font-size="16" >OH</text>
<text x="157.067308" y="249.000478" fill="rgb(255,12,12)"  stroke="rgb(255,12,12)" stroke-width="1" font-size="16" >OH</text>
<text x="690.665822" y="335.381406" fill="rgb(255,12,12)"  stroke="rgb(255,12,12)" stroke-width="1" font-size="16" >HO</text>
<text x="194.726188" y="187.293384" fill="rgb(255,12,12)"  stroke="rgb(255,12,12)" stroke-width="1" font-size="16" >OH</text>
<text x="710.159493" y="408.132776" fill="rgb(255,12,12)"  stroke="rgb(255,12,12)" stroke-width="1" font-size="16" >HO</text>
<text x="696.173975" y="242.163864" fill="rgb(255,12,12)"  stroke="rgb(255,12,12)" stroke-width="1" font-size="16" >HO</text>
<text x="488.848326" y="216.611774" fill="rgb(255,12,12)"  stroke="rgb(255,12,12)" stroke-width="1" font-size="16" >OH</text>
<text x="720.280765" y="448.998846" fill="rgb(255,12,12)"  stroke="rgb(255,12,12)" stroke-width="1" font-size="16" >O</text>
<text x="348.303471" y="107.155133" fill="rgb(255,12,12)"  stroke="rgb(255,12,12)" stroke-width="1" font-size="16" >O</text>
<text x="364.688990" y="304.852539" fill="rgb(255,12,12)"  stroke="rgb(255,12,12)" stroke-width="1" font-size="16" >O</text>
<text x="111.717761" y="149.634503" fill="rgb(255,12,12)"  stroke="rgb(255,12,12)" stroke-width="1" font-size="16" >O</text>
<text x="781.091735" y="187.027436" fill="rgb(255,12,12)"  stroke="rgb(255,12,12)" stroke-width="1" font-size="16" >O</text>
<text x="239.221682" y="67.480129" fill="rgb(255,12,12)"  stroke="rgb(255,12,12)" stroke-width="1" font-size="16" >O</text>
<text x="621.053210" y="119.124528" fill="rgb(255,12,12)"  stroke="rgb(255,12,12)" stroke-width="1" font-size="16" >O</text>
<text x="806.781221" y="374.368748" fill="rgb(255,12,12)"  stroke="rgb(255,12,12)" stroke-width="1" font-size="16" >O</text>
<text x="433.711898" y="144.814013" fill="rgb(255,12,12)"  stroke="rgb(255,12,12)" stroke-width="1" font-size="16" >O</text>
<text x="185.963983" y="156.205170" fill="rgb(255,12,12)"  stroke="rgb(255,12,12)" stroke-width="1" font-size="16" >O</text>
<text x="497.444140" y="188.355898" fill="rgb(255,12,12)"  stroke="rgb(255,12,12)" stroke-width="1" font-size="16" >O</text>
<text x="736.429851" y="251.879678" fill="rgb(255,12,12)"  stroke="rgb(255,12,12)" stroke-width="1" font-size="16" >O</text>
<text x="670.515094" y="176.936770" fill="rgb(255,12,12)"  stroke="rgb(255,12,12)" stroke-width="1" font-size="16" >O</text>
<text x="423.621232" y="254.270654" fill="rgb(255,12,12)"  stroke="rgb(255,12,12)" stroke-width="1" font-size="16" >O</text>
<text x="690.008765" y="596.930582" fill="rgb(191,191,191)"  stroke="rgb(191,191,191)" stroke-width="1" font-size="16" >H</text>
<text x="634.872338" y="541.794154" fill="rgb(191,191,191)"  stroke="rgb(191,191,191)" stroke-width="1" font-size="16" >H</text>
<text x="627.485457" y="494.044607" fill="rgb(191,191,191)"  stroke="rgb(191,191,191)" stroke-width="1" font-size="16" >H</text>
<text x="707.790099" y="469.996393" fill="rgb(191,191,191)"  stroke="rgb(191,191,191)" stroke-width="1" font-size="16" >H</text>
<text x="325.701648" y="343.839880" fill="rgb(191,191,191)"  stroke="rgb(191,191,191)" stroke-width="1" font-size="16" >H</text>
<text x="56.581333" y="149.634503" fill="rgb(191,191,191)"  stroke="rgb(191,191,191)" stroke-width="1" font-size="16" >H</text>
<text x="808.659949" y="142.797889" fill="rgb(191,191,191)"  stroke="rgb(191,191,191)" stroke-width="1" font-size="16" >H</text>
<text x="188.363983" y="53.209771" fill="rgb(191,191,191)"  stroke="rgb(191,191,191)" stroke-width="1" font-size="16" >H</text>
<text x="582.065868" y="80.137186" fill="rgb(191,191,191)"  stroke="rgb(191,191,191)" stroke-width="1" font-size="16" >H</text>
<text x="845.768563" y="338.901406" fill="rgb(191,191,191)"  stroke="rgb(191,191,191)" stroke-width="1" font-size="16" >H</text>
<text x="388.362351" y="117.245799" fill="rgb(191,191,191)"  stroke="rgb(191,191,191)" stroke-width="1" font-size="16" >H</text>
<text x="468.804388" y="301.332539" fill="rgb(191,191,191)"  stroke="rgb(191,191,191)" stroke-width="1" font-size="16" >H</text>
<text x="292.479381" y="156.205170" fill="rgb(191,191,191)"  stroke="rgb(191,191,191)" stroke-width="1" font-size="16" >H</text>
<text x="621.053210" y="222.119926" fill="rgb(191,191,191)"  stroke="rgb(191,191,191)" stroke-width="1" font-size="16" >H</text>
<text x="378.959347" y="393.577580" fill="rgb(191,191,191)"  stroke="rgb(191,191,191)" stroke-width="1" font-size="16" >H</text>
<text x="56.581333" y="221.432264" fill="rgb(191,191,191)"  stroke="rgb(191,191,191)" stroke-width="1" font-size="16" >H</text>
<text x="743.432855" y="105.139009" fill="rgb(191,191,191)"  stroke="rgb(191,191,191)" stroke-width="1" font-size="16" >H</text>
<text x="350.703471" y="182.472893" fill="rgb(191,191,191)"  stroke="rgb(191,191,191)" stroke-width="1" font-size="16" >H</text>
<text x="449.310717" y="374.083909" fill="rgb(191,191,191)"  stroke="rgb(191,191,191)" stroke-width="1" font-size="16" >H</text>
<text x="222.128011" y="175.698841" fill="rgb(191,191,191)"  stroke="rgb(191,191,191)" stroke-width="1" font-size="16" >H</text>
<text x="550.701840" y="202.626255" fill="rgb(191,191,191)"  stroke="rgb(191,191,191)" stroke-width="1" font-size="16" >H</text>
<text x="121.808427" y="259.091144" fill="rgb(191,191,191)"  stroke="rgb(191,191,191)" stroke-width="1" font-size="16" >H</text>
<text x="722.159493" y="305.137378" fill="rgb(191,191,191)"  stroke="rgb(191,191,191)" stroke-width="1" font-size="16" >H</text>
<text x="184.635521" y="221.432264" fill="rgb(191,191,191)"  stroke="rgb(191,191,191)" stroke-width="1" font-size="16" >H</text>
<text x="702.665822" y="377.888748" fill="rgb(191,191,191)"  stroke="rgb(191,191,191)" stroke-width="1" font-size="16" >H</text>
<text x="680.605761" y="214.595650" fill="rgb(191,191,191)"  stroke="rgb(191,191,191)" stroke-width="1" font-size="16" >H</text>
<text x="461.280112" y="244.179987" fill="rgb(191,191,191)"  stroke="rgb(191,191,191)" stroke-width="1" font-size="16" >H</text>
<text x="168.870312" y="122.441141" fill="rgb(191,191,191)"  stroke="rgb(191,191,191)" stroke-width="1" font-size="16" >H</text>
<text x="531.208169" y="133.394885" fill="rgb(191,191,191)"  stroke="rgb(191,191,191)" stroke-width="1" font-size="16" >H</text>
<text x="792.510863" y="285.643707" fill="rgb(191,191,191)"  stroke="rgb(191,191,191)" stroke-width="1" font-size="16" >H</text>
<text x="680.605761" y="142.797889" fill="rgb(191,191,191)"  stroke="rgb(191,191,191)" stroke-width="1" font-size="16" >H</text>
<text x="388.362351" y="244.179987" fill="rgb(191,191,191)"  stroke="rgb(191,191,191)" stroke-width="1" font-size="16" >H</text>
<text x="270.296841" y="48.320000" fill="rgb(191,191,191)"  stroke="rgb(191,191,191)" stroke-width="1" font-size="16" >H</text>
<text x="362.433411" y="270.439058" fill="rgb(191,191,191)"  stroke="rgb(191,191,191)" stroke-width="1" font-size="16" >H</text>
<text x="655.466691" y="116.868949" fill="rgb(191,191,191)"  stroke="rgb(191,191,191)" stroke-width="1" font-size="16" >H</text>
<text x="809.036800" y="408.782229" fill="rgb(191,191,191)"  stroke="rgb(191,191,191)" stroke-width="1" font-size="16" >H</text>
<text x="134.456831" y="123.705563" fill="rgb(191,191,191)"  stroke="rgb(191,191,191)" stroke-width="1" font-size="16" >H</text>
<text x="792.177321" y="219.684519" fill="rgb(191,191,191)"  stroke="rgb(191,191,191)" stroke-width="1" font-size="16" >H</text>
<text x="466.368981" y="133.728427" fill="rgb(191,191,191)"  stroke="rgb(191,191,191)" stroke-width="1" font-size="16" >H</text>
<text font-size="18.000000" fill ="black" font-family="sans-serif"
x="140.000000" y="20.000000" ></text>
<title> - OBDepict</title>
</svg>
