<?xml version="1.0"?>
<svg xmlns="http://www.w3.org/2000/svg"
xmlns:xlink="http://www.w3.org/1999/xlink" xmlns:cml="http://www.xml-cml.org/schema" width="309.282" height="194.641" x="0" y="0" font-family="sans-serif" stroke="rgb(0,0,0)" stroke-width="1" >
<line x1="249.3" y1="114.6" x2="209.3" y2="114.6"/>
<line x1="249.3" y1="114.6" x2="264.1" y2="140.3"/>
<line x1="209.3" y1="114.6" x2="194.5" y2="89.0"/>
<line x1="80.0" y1="80.0" x2="80.0" y2="120.0"/>
<line x1="80.0" y1="80.0" x2="54.4" y2="65.2"/>
<line x1="114.6" y1="140.0" x2="80.0" y2="120.0"/>
<line x1="114.6" y1="140.0" x2="140.3" y2="125.2"/>
<line x1="54.4" y1="120.4" x2="54.4" y2="119.6"/>
<line x1="58.4" y1="120.8" x2="58.4" y2="119.2"/>
<line x1="62.4" y1="121.2" x2="62.4" y2="118.8"/>
<line x1="66.4" y1="121.6" x2="66.4" y2="118.4"/>
<line x1="70.4" y1="122.0" x2="70.4" y2="118.0"/>
<line x1="74.4" y1="122.4" x2="74.4" y2="117.6"/>
<line x1="78.4" y1="122.8" x2="78.4" y2="117.2"/>
<line x1="80.0" y1="120.0" x2="65.2" y2="145.6"/>
<line x1="149.3" y1="50.4" x2="149.3" y2="69.6"/>
<line x1="119.7" y1="77.0" x2="138.9" y2="77.0"/>
<line x1="119.7" y1="83.0" x2="138.9" y2="83.0"/>
<line x1="178.9" y1="80.0" x2="159.7" y2="80.0"/>
<line x1="149.3" y1="109.6" x2="149.3" y2="90.4"/>
<text x="263.282032" y="154.082032" fill="rgb(12,12,255)"  stroke="rgb(12,12,255)" stroke-width="1" font-size="16" >NH</text>
<text x="287.282032" y="158.882032" fill="rgb(12,12,255)"  stroke="rgb(12,12,255)" stroke-width="1" font-size="13" >2</text>
<text x="29.758984" y="68.320000" fill="rgb(255,12,12)"  stroke="rgb(255,12,12)" stroke-width="1" font-size="16" >HO</text>
<text x="44.400000" y="159.441016" fill="rgb(255,12,12)"  stroke="rgb(255,12,12)" stroke-width="1" font-size="16" >HO</text>
<text x="143.282032" y="48.320000" fill="rgb(255,12,12)"  stroke="rgb(255,12,12)" stroke-width="1" font-size="16" >OH</text>
<text x="105.682032" y="84.800000" fill="rgb(255,12,12)"  stroke="rgb(255,12,12)" stroke-width="1" font-size="16" >O</text>
<text x="183.282032" y="88.320000" fill="rgb(255,12,12)"  stroke="rgb(255,12,12)" stroke-width="1" font-size="16" >O</text>
<text x="143.282032" y="124.800000" fill="rgb(255,12,12)"  stroke="rgb(255,12,12)" stroke-width="1" font-size="16" >O</text>
<text x="143.282032" y="84.800000" fill="rgb(255,127,0)"  stroke="rgb(255,127,0)" stroke-width="1" font-size="16" >P</text>
<text x="36.400000" y="124.800000" fill="rgb(191,191,191)"  stroke="rgb(191,191,191)" stroke-width="1" font-size="16" >H</text>
<text font-size="18.000000" fill ="black" font-family="sans-serif"
x="140.000000" y="20.000000" ></text>
<title> - OBDepict</title>
</svg>
