<?xml version="1.0"?>
<svg xmlns="http://www.w3.org/2000/svg"
xmlns:xlink="http://www.w3.org/1999/xlink" xmlns:cml="http://www.xml-cml.org/schema" width="183.923" height="220" x="0" y="0" font-family="sans-serif" stroke="rgb(0,0,0)" stroke-width="1" >
<line x1="40.0" y1="60.0" x2="40.0" y2="100.0"/>
<line x1="40.0" y1="60.0" x2="65.6" y2="45.2"/>
<line x1="40.0" y1="100.0" x2="65.6" y2="114.8"/>
<line x1="124.1" y1="74.4" x2="114.5" y2="91.0"/>
<line x1="97.1" y1="72.9" x2="106.7" y2="89.5"/>
<line x1="91.9" y1="75.9" x2="101.5" y2="92.5"/>
<line x1="109.3" y1="180.0" x2="143.9" y2="160.0"/>
<line x1="143.9" y1="160.0" x2="143.9" y2="130.4"/>
<line x1="134.9" y1="114.8" x2="118.3" y2="105.2"/>
<line x1="100.3" y1="105.2" x2="83.6" y2="114.8"/>
<line x1="74.6" y1="130.4" x2="74.6" y2="160.0"/>
<line x1="74.6" y1="160.0" x2="109.3" y2="180.0"/>
<text x="68.641016" y="48.320000" fill="rgb(30,239,30)"  stroke="rgb(30,239,30)" stroke-width="1" font-size="16" >Cl</text>
<text x="123.282032" y="73.678984" fill="rgb(12,12,255)"  stroke="rgb(12,12,255)" stroke-width="1" font-size="16" >NH</text>
<text x="147.282032" y="81.358984" fill="rgb(12,12,255)"  stroke="rgb(12,12,255)" stroke-width="1" font-size="13" >2</text>
<text x="68.641016" y="124.800000" fill="rgb(12,12,255)"  stroke="rgb(12,12,255)" stroke-width="1" font-size="16" >N</text>
<text x="85.682032" y="73.678984" fill="rgb(255,12,12)"  stroke="rgb(255,12,12)" stroke-width="1" font-size="16" >O</text>
<text x="137.923048" y="128.320000" fill="rgb(255,12,12)"  stroke="rgb(255,12,12)" stroke-width="1" font-size="16" >O</text>
<text x="103.282032" y="104.800000" fill="rgb(255,127,0)"  stroke="rgb(255,127,0)" stroke-width="1" font-size="16" >P</text>
<text font-size="18.000000" fill ="black" font-family="sans-serif"
x="140.000000" y="20.000000" ></text>
<title> - OBDepict</title>
</svg>
