<?xml version="1.0"?>
<svg xmlns="http://www.w3.org/2000/svg"
xmlns:xlink="http://www.w3.org/1999/xlink" xmlns:cml="http://www.xml-cml.org/schema" width="461.062" height="455.985" x="0" y="0" font-family="sans-serif" stroke="rgb(0,0,0)" stroke-width="1" >
<line x1="138.3" y1="113.4" x2="177.6" y2="113.4"/>
<line x1="138.3" y1="113.4" x2="123.8" y2="88.2"/>
<line x1="138.3" y1="192.0" x2="118.6" y2="226.1"/>
<line x1="138.3" y1="192.0" x2="123.8" y2="166.8"/>
<line x1="164.7" y1="91.8" x2="165.4" y2="91.4"/>
<line x1="166.3" y1="95.4" x2="167.7" y2="94.6"/>
<line x1="167.9" y1="99.0" x2="170.0" y2="97.8"/>
<line x1="169.6" y1="102.6" x2="172.3" y2="101.0"/>
<line x1="171.2" y1="106.2" x2="174.6" y2="104.2"/>
<line x1="172.8" y1="109.8" x2="177.0" y2="107.4"/>
<line x1="174.4" y1="113.4" x2="179.3" y2="110.6"/>
<line x1="93.6" y1="223.2" x2="93.7" y2="222.4"/>
<line x1="97.5" y1="224.1" x2="97.7" y2="222.5"/>
<line x1="101.3" y1="225.0" x2="101.6" y2="222.6"/>
<line x1="105.2" y1="225.9" x2="105.6" y2="222.7"/>
<line x1="109.0" y1="226.8" x2="109.5" y2="222.9"/>
<line x1="112.9" y1="227.7" x2="113.5" y2="223.0"/>
<line x1="116.7" y1="228.6" x2="117.5" y2="223.1"/>
<line x1="121.5" y1="320.1" x2="120.9" y2="319.6"/>
<line x1="124.5" y1="317.6" x2="123.4" y2="316.5"/>
<line x1="127.6" y1="315.1" x2="125.9" y2="313.4"/>
<line x1="130.7" y1="312.6" x2="128.4" y2="310.4"/>
<line x1="133.7" y1="310.1" x2="130.9" y2="307.3"/>
<line x1="136.8" y1="307.6" x2="133.4" y2="304.2"/>
<line x1="139.9" y1="305.1" x2="135.9" y2="301.2"/>
<polygon points="155.967346 157.960130 182.569037 156.395128 180.905744 148.569947 " />
<line x1="181.7" y1="152.5" x2="172.7" y2="180.2"/>
<polygon points="217.446261 186.859486 224.178231 161.076162 216.222056 160.239935 " />
<line x1="220.2" y1="160.7" x2="243.7" y2="177.8"/>
<line x1="90.8" y1="253.9" x2="62.7" y2="246.3"/>
<line x1="101.0" y1="291.9" x2="80.4" y2="312.4"/>
<line x1="399.6" y1="196.8" x2="415.5" y2="221.2"/>
<line x1="197.3" y1="388.2" x2="176.8" y2="408.8"/>
<line x1="184.3" y1="256.2" x2="184.9" y2="256.7"/>
<line x1="181.3" y1="258.7" x2="182.4" y2="259.8"/>
<line x1="178.2" y1="261.2" x2="179.9" y2="262.8"/>
<line x1="175.1" y1="263.6" x2="177.4" y2="265.9"/>
<line x1="172.1" y1="266.1" x2="174.9" y2="269.0"/>
<line x1="169.0" y1="268.6" x2="172.4" y2="272.0"/>
<line x1="165.9" y1="271.1" x2="169.9" y2="275.1"/>
<line x1="251.1" y1="104.1" x2="251.8" y2="104.5"/>
<line x1="249.0" y1="107.4" x2="250.4" y2="108.1"/>
<line x1="246.8" y1="110.7" x2="248.9" y2="111.8"/>
<line x1="244.6" y1="114.0" x2="247.5" y2="115.5"/>
<line x1="242.4" y1="117.3" x2="246.0" y2="119.2"/>
<line x1="240.3" y1="120.6" x2="244.5" y2="122.8"/>
<line x1="238.1" y1="123.9" x2="243.1" y2="126.5"/>
<line x1="239.9" y1="126.6" x2="285.1" y2="163.2"/>
<line x1="263.9" y1="367.7" x2="292.0" y2="375.2"/>
<line x1="262.3" y1="373.5" x2="290.5" y2="381.0"/>
<line x1="79.3" y1="50.2" x2="79.3" y2="69.1"/>
<line x1="50.2" y1="76.3" x2="69.1" y2="76.3"/>
<line x1="50.2" y1="82.3" x2="69.1" y2="82.3"/>
<line x1="50.2" y1="158.0" x2="69.1" y2="158.0"/>
<line x1="76.3" y1="187.1" x2="76.3" y2="168.2"/>
<line x1="82.3" y1="187.1" x2="82.3" y2="168.2"/>
<line x1="108.4" y1="79.3" x2="89.5" y2="79.3"/>
<line x1="108.4" y1="158.0" x2="89.5" y2="158.0"/>
<line x1="79.3" y1="108.4" x2="79.3" y2="89.5"/>
<line x1="79.3" y1="128.9" x2="79.3" y2="147.7"/>
<line x1="298.9" y1="215.4" x2="300.4" y2="186.3"/>
<line x1="310.9" y1="173.5" x2="339.0" y2="165.9"/>
<line x1="339.0" y1="165.9" x2="360.4" y2="198.9"/>
<line x1="360.4" y1="198.9" x2="342.1" y2="221.5"/>
<line x1="326.1" y1="225.8" x2="298.9" y2="215.4"/>
<line x1="326.7" y1="218.3" x2="307.1" y2="210.8"/>
<line x1="177.6" y1="113.4" x2="181.7" y2="152.5"/>
<line x1="181.7" y1="152.5" x2="220.2" y2="160.7"/>
<line x1="220.2" y1="160.7" x2="239.9" y2="126.6"/>
<line x1="239.9" y1="126.6" x2="220.4" y2="105.0"/>
<line x1="204.2" y1="101.5" x2="177.6" y2="113.4"/>
<line x1="339.0" y1="165.9" x2="352.2" y2="140.0"/>
<line x1="348.1" y1="163.8" x2="357.6" y2="145.1"/>
<line x1="367.0" y1="130.3" x2="396.1" y2="128.8"/>
<line x1="396.1" y1="128.8" x2="411.9" y2="153.2"/>
<line x1="393.3" y1="137.8" x2="404.8" y2="155.4"/>
<line x1="412.9" y1="170.9" x2="399.6" y2="196.8"/>
<line x1="399.6" y1="196.8" x2="360.4" y2="198.9"/>
<line x1="393.3" y1="190.0" x2="366.0" y2="191.4"/>
<line x1="118.6" y1="226.1" x2="90.8" y2="253.9"/>
<line x1="90.8" y1="253.9" x2="101.0" y2="291.9"/>
<line x1="99.3" y1="257.8" x2="106.4" y2="284.2"/>
<line x1="101.0" y1="291.9" x2="139.0" y2="302.0"/>
<line x1="139.0" y1="302.0" x2="166.8" y2="274.2"/>
<line x1="166.8" y1="274.2" x2="159.3" y2="246.1"/>
<line x1="146.8" y1="233.6" x2="118.6" y2="226.1"/>
<line x1="187.2" y1="350.2" x2="159.1" y2="342.7"/>
<line x1="146.5" y1="330.1" x2="139.0" y2="302.0"/>
<line x1="166.8" y1="274.2" x2="194.9" y2="281.8"/>
<line x1="207.4" y1="294.3" x2="215.0" y2="322.4"/>
<line x1="215.0" y1="322.4" x2="187.2" y2="350.2"/>
<line x1="205.6" y1="321.5" x2="186.3" y2="340.9"/>
<line x1="197.3" y1="388.2" x2="187.2" y2="350.2"/>
<line x1="215.0" y1="322.4" x2="243.1" y2="329.9"/>
<line x1="255.6" y1="342.4" x2="263.1" y2="370.6"/>
<line x1="263.1" y1="370.6" x2="242.5" y2="391.1"/>
<line x1="225.4" y1="395.7" x2="197.3" y2="388.2"/>
<line x1="225.3" y1="388.2" x2="205.0" y2="382.8"/>
<text x="415.062022" y="234.617701" fill="rgb(12,12,255)"  stroke="rgb(12,12,255)" stroke-width="1" font-size="16" >NH</text>
<text x="439.062022" y="239.417701" fill="rgb(12,12,255)"  stroke="rgb(12,12,255)" stroke-width="1" font-size="13" >2</text>
<text x="295.104614" y="385.529532" fill="rgb(12,12,255)"  stroke="rgb(12,12,255)" stroke-width="1" font-size="16" >NH</text>
<text x="411.497537" y="170.123280" fill="rgb(12,12,255)"  stroke="rgb(12,12,255)" stroke-width="1" font-size="16" >N</text>
<text x="353.213078" y="139.203004" fill="rgb(12,12,255)"  stroke="rgb(12,12,255)" stroke-width="1" font-size="16" >N</text>
<text x="329.631405" y="234.256385" fill="rgb(12,12,255)"  stroke="rgb(12,12,255)" stroke-width="1" font-size="16" >N</text>
<text x="133.575942" y="344.820367" fill="rgb(12,12,255)"  stroke="rgb(12,12,255)" stroke-width="1" font-size="16" >HN</text>
<text x="198.785695" y="292.730613" fill="rgb(12,12,255)"  stroke="rgb(12,12,255)" stroke-width="1" font-size="16" >NH</text>
<text x="246.945155" y="340.890072" fill="rgb(12,12,255)"  stroke="rgb(12,12,255)" stroke-width="1" font-size="16" >NH</text>
<text x="229.317569" y="403.157117" fill="rgb(12,12,255)"  stroke="rgb(12,12,255)" stroke-width="1" font-size="16" >N</text>
<text x="294.979080" y="180.896484" fill="rgb(12,12,255)"  stroke="rgb(12,12,255)" stroke-width="1" font-size="16" >N</text>
<text x="153.986214" y="194.680014" fill="rgb(255,12,12)"  stroke="rgb(255,12,12)" stroke-width="1" font-size="16" >HO</text>
<text x="246.012337" y="188.570960" fill="rgb(255,12,12)"  stroke="rgb(255,12,12)" stroke-width="1" font-size="16" >OH</text>
<text x="164.730524" y="435.184703" fill="rgb(255,12,12)"  stroke="rgb(255,12,12)" stroke-width="1" font-size="32" >-</text>
<text x="165.930524" y="420.784703" fill="rgb(255,12,12)"  stroke="rgb(255,12,12)" stroke-width="1" font-size="16" >O</text>
<text x="74.522034" y="33.600000" fill="rgb(255,12,12)"  stroke="rgb(255,12,12)" stroke-width="1" font-size="32" >-</text>
<text x="73.322034" y="48.320000" fill="rgb(255,12,12)"  stroke="rgb(255,12,12)" stroke-width="1" font-size="16" >O</text>
<text x="36.400000" y="84.122034" fill="rgb(255,12,12)"  stroke="rgb(255,12,12)" stroke-width="1" font-size="16" >O</text>
<text x="35.200000" y="151.566102" fill="rgb(255,12,12)"  stroke="rgb(255,12,12)" stroke-width="1" font-size="32" >-</text>
<text x="36.400000" y="166.286102" fill="rgb(255,12,12)"  stroke="rgb(255,12,12)" stroke-width="1" font-size="16" >O</text>
<text x="73.322034" y="202.088136" fill="rgb(255,12,12)"  stroke="rgb(255,12,12)" stroke-width="1" font-size="16" >O</text>
<text x="112.644068" y="87.642034" fill="rgb(255,12,12)"  stroke="rgb(255,12,12)" stroke-width="1" font-size="16" >O</text>
<text x="112.644068" y="166.286102" fill="rgb(255,12,12)"  stroke="rgb(255,12,12)" stroke-width="1" font-size="16" >O</text>
<text x="150.626236" y="244.571154" fill="rgb(255,12,12)"  stroke="rgb(255,12,12)" stroke-width="1" font-size="16" >O</text>
<text x="207.549584" y="105.702202" fill="rgb(255,12,12)"  stroke="rgb(255,12,12)" stroke-width="1" font-size="16" >O</text>
<text x="73.322034" y="123.444068" fill="rgb(255,12,12)"  stroke="rgb(255,12,12)" stroke-width="1" font-size="16" >O</text>
<text x="73.322034" y="87.642034" fill="rgb(255,127,0)"  stroke="rgb(255,127,0)" stroke-width="1" font-size="16" >P</text>
<text x="73.322034" y="166.286102" fill="rgb(255,127,0)"  stroke="rgb(255,127,0)" stroke-width="1" font-size="16" >P</text>
<text x="37.257023" y="252.021448" fill="rgb(178,178,0)"  stroke="rgb(178,178,0)" stroke-width="1" font-size="16" >HS</text>
<text x="57.611605" y="324.465784" fill="rgb(178,178,0)"  stroke="rgb(178,178,0)" stroke-width="1" font-size="16" >HS</text>
<text x="154.366102" y="87.642034" fill="rgb(191,191,191)"  stroke="rgb(191,191,191)" stroke-width="1" font-size="16" >H</text>
<text x="76.058439" y="229.261307" fill="rgb(191,191,191)"  stroke="rgb(191,191,191)" stroke-width="1" font-size="16" >H</text>
<text x="107.593774" y="334.643075" fill="rgb(191,191,191)"  stroke="rgb(191,191,191)" stroke-width="1" font-size="16" >H</text>
<text x="139.674637" y="165.458048" fill="rgb(191,191,191)"  stroke="rgb(191,191,191)" stroke-width="1" font-size="16" >H</text>
<text x="212.489872" y="204.564672" fill="rgb(191,191,191)"  stroke="rgb(191,191,191)" stroke-width="1" font-size="16" >H</text>
<text x="188.608404" y="254.748445" fill="rgb(191,191,191)"  stroke="rgb(191,191,191)" stroke-width="1" font-size="16" >H</text>
<text x="252.033139" y="100.052955" fill="rgb(191,191,191)"  stroke="rgb(191,191,191)" stroke-width="1" font-size="16" >H</text>
<text font-size="18.000000" fill ="black" font-family="sans-serif"
x="140.000000" y="20.000000" ></text>
<title> - OBDepict</title>
</svg>
