<?xml version="1.0"?>
<svg xmlns="http://www.w3.org/2000/svg"
xmlns:xlink="http://www.w3.org/1999/xlink" xmlns:cml="http://www.xml-cml.org/schema" width="508.026" height="316.548" x="0" y="0" font-family="sans-serif" stroke="rgb(0,0,0)" stroke-width="1" >
<line x1="204.6" y1="182.0" x2="233.2" y2="174.3"/>
<line x1="222.8" y1="135.7" x2="184.2" y2="125.3"/>
<line x1="222.8" y1="135.7" x2="233.2" y2="174.3"/>
<line x1="184.2" y1="125.3" x2="163.3" y2="146.3"/>
<line x1="448.0" y1="181.9" x2="408.0" y2="181.9"/>
<line x1="448.0" y1="181.9" x2="462.8" y2="156.3"/>
<line x1="271.8" y1="164.0" x2="233.2" y2="174.3"/>
<line x1="271.8" y1="164.0" x2="292.8" y2="184.9"/>
<line x1="233.2" y1="174.3" x2="240.8" y2="202.9"/>
<polygon points="421.425535 158.697246 404.561433 179.906727 411.489637 183.906727 " />
<line x1="433.6" y1="221.5" x2="433.6" y2="222.3"/>
<line x1="429.6" y1="221.1" x2="429.6" y2="222.7"/>
<line x1="425.6" y1="220.7" x2="425.6" y2="223.1"/>
<line x1="421.6" y1="220.3" x2="421.6" y2="223.5"/>
<line x1="417.6" y1="219.9" x2="417.6" y2="223.9"/>
<line x1="413.6" y1="219.5" x2="413.6" y2="224.3"/>
<line x1="409.6" y1="219.1" x2="409.6" y2="224.7"/>
<line x1="408.0" y1="221.9" x2="422.8" y2="247.5"/>
<polygon points="386.784519 265.116208 376.848620 239.906727 369.920417 243.906727 " />
<line x1="373.4" y1="241.9" x2="358.6" y2="267.5"/>
<line x1="326.3" y1="244.3" x2="325.6" y2="243.9"/>
<line x1="328.6" y1="241.0" x2="327.3" y2="240.2"/>
<line x1="331.0" y1="237.7" x2="328.9" y2="236.5"/>
<line x1="333.3" y1="234.5" x2="330.6" y2="232.9"/>
<line x1="335.7" y1="231.2" x2="332.2" y2="229.2"/>
<line x1="338.0" y1="228.0" x2="333.9" y2="225.6"/>
<line x1="340.4" y1="224.7" x2="335.5" y2="221.9"/>
<line x1="338.7" y1="221.9" x2="309.1" y2="221.9"/>
<line x1="117.3" y1="143.3" x2="145.9" y2="150.9"/>
<line x1="341.7" y1="156.5" x2="342.5" y2="156.6"/>
<line x1="340.8" y1="160.4" x2="342.4" y2="160.6"/>
<line x1="339.9" y1="164.3" x2="342.2" y2="164.6"/>
<line x1="338.9" y1="168.2" x2="342.1" y2="168.6"/>
<line x1="338.0" y1="172.1" x2="342.0" y2="172.6"/>
<line x1="337.1" y1="176.0" x2="341.9" y2="176.7"/>
<line x1="336.2" y1="180.0" x2="341.7" y2="180.7"/>
<line x1="338.7" y1="181.9" x2="310.2" y2="189.6"/>
<line x1="106.9" y1="104.6" x2="123.0" y2="79.8"/>
<line x1="122.2" y1="63.0" x2="103.5" y2="40.0"/>
<line x1="115.3" y1="66.0" x2="101.7" y2="49.2"/>
<line x1="103.5" y1="40.0" x2="75.9" y2="50.6"/>
<line x1="66.7" y1="64.7" x2="68.3" y2="94.3"/>
<line x1="74.0" y1="66.3" x2="75.2" y2="87.9"/>
<line x1="68.3" y1="94.3" x2="106.9" y2="104.6"/>
<line x1="50.4" y1="161.2" x2="78.9" y2="168.9"/>
<line x1="58.0" y1="155.8" x2="78.9" y2="161.4"/>
<line x1="96.3" y1="164.2" x2="117.3" y2="143.3"/>
<line x1="117.3" y1="143.3" x2="106.9" y2="104.6"/>
<line x1="108.8" y1="139.3" x2="101.5" y2="112.3"/>
<line x1="68.3" y1="94.3" x2="47.4" y2="115.2"/>
<line x1="42.7" y1="132.6" x2="50.4" y2="161.2"/>
<line x1="373.4" y1="241.9" x2="338.7" y2="221.9"/>
<line x1="338.7" y1="221.9" x2="338.7" y2="181.9"/>
<line x1="338.7" y1="181.9" x2="364.4" y2="167.1"/>
<line x1="382.4" y1="167.1" x2="408.0" y2="181.9"/>
<line x1="408.0" y1="181.9" x2="408.0" y2="221.9"/>
<line x1="408.0" y1="221.9" x2="373.4" y2="241.9"/>
<text x="170.948132" y="189.480741" fill="rgb(102,102,102)"  stroke="rgb(102,102,102)" stroke-width="1" font-size="16" >H</text>
<text x="182.948132" y="194.280741" fill="rgb(102,102,102)"  stroke="rgb(102,102,102)" stroke-width="1" font-size="13" >3</text>
<text x="189.448132" y="189.480741" fill="rgb(102,102,102)"  stroke="rgb(102,102,102)" stroke-width="1" font-size="16" >C</text>
<text x="149.911099" y="158.422456" fill="rgb(12,12,255)"  stroke="rgb(12,12,255)" stroke-width="1" font-size="16" >NH</text>
<text x="122.706866" y="79.405838" fill="rgb(12,12,255)"  stroke="rgb(12,12,255)" stroke-width="1" font-size="16" >N</text>
<text x="62.590833" y="62.654718" fill="rgb(12,12,255)"  stroke="rgb(12,12,255)" stroke-width="1" font-size="16" >N</text>
<text x="82.989795" y="176.353965" fill="rgb(12,12,255)"  stroke="rgb(12,12,255)" stroke-width="1" font-size="16" >N</text>
<text x="24.400000" y="130.884171" fill="rgb(12,12,255)"  stroke="rgb(12,12,255)" stroke-width="1" font-size="16" >HN</text>
<text x="462.025535" y="155.585711" fill="rgb(255,12,12)"  stroke="rgb(255,12,12)" stroke-width="1" font-size="16" >OH</text>
<text x="422.025535" y="261.347743" fill="rgb(255,12,12)"  stroke="rgb(255,12,12)" stroke-width="1" font-size="16" >OH</text>
<text x="337.784519" y="281.347743" fill="rgb(255,12,12)"  stroke="rgb(255,12,12)" stroke-width="1" font-size="16" >HO</text>
<text x="283.143503" y="226.706727" fill="rgb(255,12,12)"  stroke="rgb(255,12,12)" stroke-width="1" font-size="16" >HO</text>
<text x="296.506470" y="197.059489" fill="rgb(255,12,12)"  stroke="rgb(255,12,12)" stroke-width="1" font-size="16" >O</text>
<text x="367.384519" y="170.226727" fill="rgb(255,12,12)"  stroke="rgb(255,12,12)" stroke-width="1" font-size="16" >O</text>
<text x="237.537927" y="217.765013" fill="rgb(191,191,191)"  stroke="rgb(191,191,191)" stroke-width="1" font-size="16" >H</text>
<text x="422.025535" y="155.585711" fill="rgb(191,191,191)"  stroke="rgb(191,191,191)" stroke-width="1" font-size="16" >H</text>
<text x="442.025535" y="226.706727" fill="rgb(191,191,191)"  stroke="rgb(191,191,191)" stroke-width="1" font-size="16" >H</text>
<text x="387.384519" y="281.347743" fill="rgb(191,191,191)"  stroke="rgb(191,191,191)" stroke-width="1" font-size="16" >H</text>
<text x="315.143503" y="261.347743" fill="rgb(191,191,191)"  stroke="rgb(191,191,191)" stroke-width="1" font-size="16" >H</text>
<text x="337.964550" y="150.568933" fill="rgb(191,191,191)"  stroke="rgb(191,191,191)" stroke-width="1" font-size="16" >H</text>
<text font-size="18.000000" fill ="black" font-family="sans-serif"
x="140.000000" y="20.000000" ></text>
<title> - OBDepict</title>
</svg>
