<?xml version="1.0"?>
<svg xmlns="http://www.w3.org/2000/svg"
xmlns:xlink="http://www.w3.org/1999/xlink" xmlns:cml="http://www.xml-cml.org/schema" width="703.538" height="300" x="0" y="0" font-family="sans-serif" stroke="rgb(0,0,0)" stroke-width="1" >
<line x1="74.6" y1="249.6" x2="74.6" y2="220.0"/>
<line x1="49.0" y1="205.2" x2="74.6" y2="220.0"/>
<line x1="178.6" y1="189.6" x2="178.6" y2="160.0"/>
<line x1="317.1" y1="189.6" x2="317.1" y2="160.0"/>
<line x1="455.7" y1="189.6" x2="455.7" y2="160.0"/>
<line x1="654.5" y1="85.2" x2="628.9" y2="100.0"/>
<line x1="594.3" y1="50.4" x2="594.3" y2="80.0"/>
<line x1="109.3" y1="160.0" x2="109.3" y2="200.0"/>
<line x1="109.3" y1="160.0" x2="143.9" y2="140.0"/>
<line x1="247.8" y1="160.0" x2="213.2" y2="140.0"/>
<line x1="247.8" y1="160.0" x2="282.5" y2="140.0"/>
<line x1="386.4" y1="160.0" x2="351.8" y2="140.0"/>
<line x1="386.4" y1="160.0" x2="421.1" y2="140.0"/>
<line x1="109.3" y1="200.0" x2="74.6" y2="220.0"/>
<line x1="143.9" y1="140.0" x2="178.6" y2="160.0"/>
<line x1="213.2" y1="140.0" x2="178.6" y2="160.0"/>
<line x1="282.5" y1="140.0" x2="317.1" y2="160.0"/>
<line x1="351.8" y1="140.0" x2="317.1" y2="160.0"/>
<line x1="421.1" y1="140.0" x2="455.7" y2="160.0"/>
<line x1="490.3" y1="140.0" x2="490.3" y2="110.4"/>
<line x1="490.3" y1="140.0" x2="525.0" y2="160.0"/>
<line x1="491.8" y1="142.6" x2="457.2" y2="162.6"/>
<line x1="488.8" y1="137.4" x2="454.2" y2="157.4"/>
<line x1="525.0" y1="160.0" x2="559.6" y2="140.0"/>
<line x1="628.9" y1="140.0" x2="654.5" y2="154.8"/>
<line x1="559.6" y1="100.0" x2="534.0" y2="85.2"/>
<line x1="594.3" y1="160.0" x2="628.9" y2="140.0"/>
<line x1="595.9" y1="150.8" x2="620.1" y2="136.8"/>
<line x1="628.9" y1="140.0" x2="628.9" y2="100.0"/>
<line x1="628.9" y1="100.0" x2="594.3" y2="80.0"/>
<line x1="620.1" y1="103.2" x2="595.9" y2="89.2"/>
<line x1="594.3" y1="80.0" x2="559.6" y2="100.0"/>
<line x1="559.6" y1="100.0" x2="559.6" y2="140.0"/>
<line x1="566.8" y1="106.0" x2="566.8" y2="134.0"/>
<line x1="559.6" y1="140.0" x2="594.3" y2="160.0"/>
<text x="68.641016" y="264.800000" fill="rgb(102,102,102)"  stroke="rgb(102,102,102)" stroke-width="1" font-size="16" >CH</text>
<text x="92.641016" y="269.600000" fill="rgb(102,102,102)"  stroke="rgb(102,102,102)" stroke-width="1" font-size="13" >3</text>
<text x="16.400000" y="208.320000" fill="rgb(102,102,102)"  stroke="rgb(102,102,102)" stroke-width="1" font-size="16" >H</text>
<text x="28.400000" y="216.000000" fill="rgb(102,102,102)"  stroke="rgb(102,102,102)" stroke-width="1" font-size="13" >3</text>
<text x="34.900000" y="208.320000" fill="rgb(102,102,102)"  stroke="rgb(102,102,102)" stroke-width="1" font-size="16" >C</text>
<text x="172.564065" y="204.800000" fill="rgb(102,102,102)"  stroke="rgb(102,102,102)" stroke-width="1" font-size="16" >CH</text>
<text x="196.564065" y="209.600000" fill="rgb(102,102,102)"  stroke="rgb(102,102,102)" stroke-width="1" font-size="13" >3</text>
<text x="311.128129" y="204.800000" fill="rgb(102,102,102)"  stroke="rgb(102,102,102)" stroke-width="1" font-size="16" >CH</text>
<text x="335.128129" y="209.600000" fill="rgb(102,102,102)"  stroke="rgb(102,102,102)" stroke-width="1" font-size="13" >3</text>
<text x="449.692194" y="204.800000" fill="rgb(102,102,102)"  stroke="rgb(102,102,102)" stroke-width="1" font-size="16" >CH</text>
<text x="473.692194" y="209.600000" fill="rgb(102,102,102)"  stroke="rgb(102,102,102)" stroke-width="1" font-size="13" >3</text>
<text x="657.538291" y="88.320000" fill="rgb(102,102,102)"  stroke="rgb(102,102,102)" stroke-width="1" font-size="16" >CH</text>
<text x="681.538291" y="96.000000" fill="rgb(102,102,102)"  stroke="rgb(102,102,102)" stroke-width="1" font-size="13" >3</text>
<text x="588.256258" y="48.320000" fill="rgb(102,102,102)"  stroke="rgb(102,102,102)" stroke-width="1" font-size="16" >CH</text>
<text x="612.256258" y="56.000000" fill="rgb(102,102,102)"  stroke="rgb(102,102,102)" stroke-width="1" font-size="13" >3</text>
<text x="657.538291" y="164.800000" fill="rgb(255,12,12)"  stroke="rgb(255,12,12)" stroke-width="1" font-size="16" >OH</text>
<text x="509.374226" y="88.320000" fill="rgb(255,12,12)"  stroke="rgb(255,12,12)" stroke-width="1" font-size="16" >HO</text>
<text x="484.333210" y="108.320000" fill="rgb(191,191,191)"  stroke="rgb(191,191,191)" stroke-width="1" font-size="16" >H</text>
<text font-size="18.000000" fill ="black" font-family="sans-serif"
x="140.000000" y="20.000000" ></text>
<title> - OBDepict</title>
</svg>
