<?xml version="1.0"?>
<svg xmlns="http://www.w3.org/2000/svg"
xmlns:xlink="http://www.w3.org/1999/xlink" xmlns:cml="http://www.xml-cml.org/schema" width="567.846" height="378.564" x="0" y="0" font-family="sans-serif" stroke="rgb(0,0,0)" stroke-width="1" >
<line x1="143.9" y1="198.6" x2="143.9" y2="238.6"/>
<line x1="143.9" y1="198.6" x2="109.3" y2="178.6"/>
<line x1="447.8" y1="120.0" x2="407.8" y2="120.0"/>
<line x1="447.8" y1="120.0" x2="467.8" y2="85.4"/>
<line x1="143.9" y1="238.6" x2="178.6" y2="258.6"/>
<line x1="407.8" y1="120.0" x2="387.8" y2="85.4"/>
<line x1="351.8" y1="278.6" x2="351.8" y2="318.6"/>
<line x1="351.8" y1="278.6" x2="326.1" y2="263.8"/>
<line x1="223.9" y1="100.0" x2="223.9" y2="60.0"/>
<line x1="223.9" y1="100.0" x2="249.6" y2="114.8"/>
<line x1="267.8" y1="223.9" x2="247.8" y2="258.6"/>
<line x1="267.8" y1="223.9" x2="297.4" y2="223.9"/>
<line x1="307.8" y1="154.6" x2="327.8" y2="120.0"/>
<line x1="307.8" y1="154.6" x2="322.6" y2="180.3"/>
<line x1="96.1" y1="156.6" x2="96.8" y2="156.2"/>
<line x1="97.8" y1="160.3" x2="99.2" y2="159.5"/>
<line x1="99.4" y1="163.9" x2="101.5" y2="162.7"/>
<line x1="101.1" y1="167.6" x2="103.9" y2="166.0"/>
<line x1="102.7" y1="171.3" x2="106.2" y2="169.3"/>
<line x1="104.4" y1="174.9" x2="108.6" y2="172.5"/>
<line x1="106.1" y1="178.6" x2="110.9" y2="175.8"/>
<line x1="109.3" y1="178.6" x2="74.6" y2="198.6"/>
<line x1="109.3" y1="178.6" x2="124.1" y2="152.9"/>
<polygon points="467.846097 58.558984 463.846097 85.358984 471.846097 85.358984 " />
<line x1="467.8" y1="85.4" x2="507.8" y2="85.4"/>
<line x1="467.8" y1="85.4" x2="442.2" y2="70.6"/>
<line x1="235.4" y1="280.9" x2="234.7" y2="280.5"/>
<line x1="237.7" y1="277.7" x2="236.4" y2="276.9"/>
<line x1="240.1" y1="274.4" x2="238.0" y2="273.2"/>
<line x1="242.4" y1="271.1" x2="239.7" y2="269.5"/>
<line x1="244.8" y1="267.9" x2="241.3" y2="265.9"/>
<line x1="247.1" y1="264.6" x2="243.0" y2="262.2"/>
<line x1="249.5" y1="261.3" x2="244.6" y2="258.5"/>
<line x1="247.8" y1="258.6" x2="282.5" y2="278.6"/>
<line x1="247.8" y1="258.6" x2="222.2" y2="243.8"/>
<line x1="350.2" y1="132.5" x2="349.8" y2="133.1"/>
<line x1="347.0" y1="130.1" x2="346.2" y2="131.5"/>
<line x1="343.7" y1="127.8" x2="342.5" y2="129.8"/>
<line x1="340.4" y1="125.4" x2="338.8" y2="128.2"/>
<line x1="337.2" y1="123.1" x2="335.2" y2="126.5"/>
<line x1="333.9" y1="120.7" x2="331.5" y2="124.9"/>
<line x1="330.6" y1="118.4" x2="327.8" y2="123.2"/>
<line x1="327.8" y1="120.0" x2="293.2" y2="100.0"/>
<line x1="327.8" y1="120.0" x2="342.6" y2="94.4"/>
<line x1="177.1" y1="256.0" x2="202.7" y2="241.2"/>
<line x1="180.1" y1="261.2" x2="205.7" y2="246.4"/>
<line x1="178.6" y1="258.6" x2="178.6" y2="288.2"/>
<line x1="387.8" y1="88.4" x2="358.2" y2="88.4"/>
<line x1="387.8" y1="82.4" x2="358.2" y2="82.4"/>
<line x1="387.8" y1="85.4" x2="402.6" y2="59.7"/>
<line x1="353.3" y1="316.0" x2="378.9" y2="330.8"/>
<line x1="350.3" y1="321.2" x2="375.9" y2="336.0"/>
<line x1="351.8" y1="318.6" x2="326.1" y2="333.4"/>
<line x1="222.4" y1="62.6" x2="196.8" y2="47.8"/>
<line x1="225.4" y1="57.4" x2="199.8" y2="42.6"/>
<line x1="223.9" y1="60.0" x2="249.6" y2="45.2"/>
<line x1="281.0" y1="276.0" x2="306.6" y2="261.2"/>
<line x1="284.0" y1="281.2" x2="309.6" y2="266.4"/>
<line x1="282.5" y1="278.6" x2="282.5" y2="308.2"/>
<line x1="294.7" y1="102.6" x2="269.1" y2="117.4"/>
<line x1="291.7" y1="97.4" x2="266.1" y2="112.2"/>
<line x1="293.2" y1="100.0" x2="293.2" y2="70.4"/>
<line x1="77.6" y1="198.6" x2="77.6" y2="228.2"/>
<line x1="71.6" y1="198.6" x2="71.6" y2="228.2"/>
<line x1="74.6" y1="198.6" x2="49.0" y2="183.8"/>
<line x1="510.4" y1="83.9" x2="525.2" y2="109.5"/>
<line x1="505.2" y1="86.9" x2="520.0" y2="112.5"/>
<line x1="507.8" y1="85.4" x2="522.6" y2="59.7"/>
<line x1="313.0" y1="214.9" x2="322.6" y2="198.3"/>
<text x="123.282032" y="152.243048" fill="rgb(12,12,255)"  stroke="rgb(12,12,255)" stroke-width="1" font-size="16" >NH</text>
<text x="147.282032" y="159.923048" fill="rgb(12,12,255)"  stroke="rgb(12,12,255)" stroke-width="1" font-size="13" >2</text>
<text x="409.605081" y="73.678984" fill="rgb(12,12,255)"  stroke="rgb(12,12,255)" stroke-width="1" font-size="16" >H</text>
<text x="421.605081" y="81.358984" fill="rgb(12,12,255)"  stroke="rgb(12,12,255)" stroke-width="1" font-size="13" >2</text>
<text x="428.105081" y="73.678984" fill="rgb(12,12,255)"  stroke="rgb(12,12,255)" stroke-width="1" font-size="16" >N</text>
<text x="311.128129" y="266.884065" fill="rgb(12,12,255)"  stroke="rgb(12,12,255)" stroke-width="1" font-size="16" >N</text>
<text x="252.564065" y="124.800000" fill="rgb(12,12,255)"  stroke="rgb(12,12,255)" stroke-width="1" font-size="16" >N</text>
<text x="207.205081" y="246.884065" fill="rgb(12,12,255)"  stroke="rgb(12,12,255)" stroke-width="1" font-size="16" >N</text>
<text x="344.246097" y="93.678984" fill="rgb(12,12,255)"  stroke="rgb(12,12,255)" stroke-width="1" font-size="16" >N</text>
<text x="173.764065" y="317.764065" fill="rgb(255,12,12)"  stroke="rgb(255,12,12)" stroke-width="1" font-size="32" >-</text>
<text x="172.564065" y="303.364065" fill="rgb(255,12,12)"  stroke="rgb(255,12,12)" stroke-width="1" font-size="16" >O</text>
<text x="403.046097" y="44.317968" fill="rgb(255,12,12)"  stroke="rgb(255,12,12)" stroke-width="1" font-size="32" >-</text>
<text x="401.846097" y="59.037968" fill="rgb(255,12,12)"  stroke="rgb(255,12,12)" stroke-width="1" font-size="16" >O</text>
<text x="380.410162" y="343.364065" fill="rgb(255,12,12)"  stroke="rgb(255,12,12)" stroke-width="1" font-size="16" >O</text>
<text x="301.528129" y="343.364065" fill="rgb(255,12,12)"  stroke="rgb(255,12,12)" stroke-width="1" font-size="16" >HO</text>
<text x="185.682032" y="48.320000" fill="rgb(255,12,12)"  stroke="rgb(255,12,12)" stroke-width="1" font-size="16" >O</text>
<text x="252.564065" y="48.320000" fill="rgb(255,12,12)"  stroke="rgb(255,12,12)" stroke-width="1" font-size="16" >OH</text>
<text x="276.487113" y="323.364065" fill="rgb(255,12,12)"  stroke="rgb(255,12,12)" stroke-width="1" font-size="16" >OH</text>
<text x="287.205081" y="68.320000" fill="rgb(255,12,12)"  stroke="rgb(255,12,12)" stroke-width="1" font-size="16" >OH</text>
<text x="68.641016" y="243.364065" fill="rgb(255,12,12)"  stroke="rgb(255,12,12)" stroke-width="1" font-size="16" >O</text>
<text x="24.400000" y="186.884065" fill="rgb(255,12,12)"  stroke="rgb(255,12,12)" stroke-width="1" font-size="16" >HO</text>
<text x="521.846097" y="124.800000" fill="rgb(255,12,12)"  stroke="rgb(255,12,12)" stroke-width="1" font-size="16" >O</text>
<text x="521.846097" y="59.037968" fill="rgb(255,12,12)"  stroke="rgb(255,12,12)" stroke-width="1" font-size="16" >OH</text>
<text x="301.846097" y="228.723048" fill="rgb(178,178,0)"  stroke="rgb(178,178,0)" stroke-width="1" font-size="16" >S</text>
<text x="321.846097" y="194.082032" fill="rgb(178,178,0)"  stroke="rgb(178,178,0)" stroke-width="1" font-size="16" >S</text>
<text x="85.682032" y="152.243048" fill="rgb(191,191,191)"  stroke="rgb(191,191,191)" stroke-width="1" font-size="16" >H</text>
<text x="461.846097" y="53.678984" fill="rgb(191,191,191)"  stroke="rgb(191,191,191)" stroke-width="1" font-size="16" >H</text>
<text x="224.246097" y="298.005081" fill="rgb(191,191,191)"  stroke="rgb(191,191,191)" stroke-width="1" font-size="16" >H</text>
<text x="356.487113" y="144.800000" fill="rgb(191,191,191)"  stroke="rgb(191,191,191)" stroke-width="1" font-size="16" >H</text>
<text font-size="18.000000" fill ="black" font-family="sans-serif"
x="140.000000" y="20.000000" ></text>
<title> - OBDepict</title>
</svg>
