<?xml version="1.0"?>
<svg xmlns="http://www.w3.org/2000/svg"
xmlns:xlink="http://www.w3.org/1999/xlink" xmlns:cml="http://www.xml-cml.org/schema" width="253.205" height="289.282" x="0" y="0" font-family="sans-serif" stroke="rgb(0,0,0)" stroke-width="1" >
<line x1="74.6" y1="129.3" x2="74.6" y2="169.3"/>
<line x1="74.6" y1="129.3" x2="109.3" y2="109.3"/>
<line x1="178.6" y1="149.3" x2="178.6" y2="109.3"/>
<line x1="178.6" y1="149.3" x2="204.2" y2="164.1"/>
<line x1="122.4" y1="131.3" x2="121.7" y2="131.7"/>
<line x1="120.8" y1="127.6" x2="119.4" y2="128.4"/>
<line x1="119.1" y1="123.9" x2="117.0" y2="125.1"/>
<line x1="117.5" y1="120.3" x2="114.7" y2="121.9"/>
<line x1="115.8" y1="116.6" x2="112.3" y2="118.6"/>
<line x1="114.2" y1="112.9" x2="110.0" y2="115.3"/>
<line x1="112.5" y1="109.3" x2="107.7" y2="112.1"/>
<line x1="109.3" y1="109.3" x2="89.3" y2="74.6"/>
<line x1="109.3" y1="109.3" x2="134.9" y2="94.5"/>
<line x1="177.1" y1="111.9" x2="151.4" y2="97.1"/>
<line x1="180.1" y1="106.7" x2="154.4" y2="91.9"/>
<line x1="178.6" y1="109.3" x2="204.2" y2="94.5"/>
<line x1="89.3" y1="77.6" x2="59.7" y2="77.6"/>
<line x1="89.3" y1="71.6" x2="59.7" y2="71.6"/>
<line x1="89.3" y1="74.6" x2="104.1" y2="49.0"/>
<line x1="74.6" y1="249.3" x2="109.3" y2="229.3"/>
<line x1="109.3" y1="229.3" x2="109.3" y2="189.3"/>
<line x1="102.1" y1="223.3" x2="102.1" y2="195.3"/>
<line x1="109.3" y1="189.3" x2="74.6" y2="169.3"/>
<line x1="74.6" y1="169.3" x2="40.0" y2="189.3"/>
<line x1="73.0" y1="178.5" x2="48.8" y2="192.5"/>
<line x1="40.0" y1="189.3" x2="40.0" y2="229.3"/>
<line x1="40.0" y1="229.3" x2="74.6" y2="249.3"/>
<line x1="48.8" y1="226.0" x2="73.0" y2="240.0"/>
<text x="207.205081" y="174.082032" fill="rgb(12,12,255)"  stroke="rgb(12,12,255)" stroke-width="1" font-size="16" >NH</text>
<text x="231.205081" y="178.882032" fill="rgb(12,12,255)"  stroke="rgb(12,12,255)" stroke-width="1" font-size="13" >2</text>
<text x="137.923048" y="97.602032" fill="rgb(12,12,255)"  stroke="rgb(12,12,255)" stroke-width="1" font-size="16" >N</text>
<text x="207.205081" y="97.602032" fill="rgb(255,12,12)"  stroke="rgb(255,12,12)" stroke-width="1" font-size="16" >OH</text>
<text x="45.682032" y="82.961016" fill="rgb(255,12,12)"  stroke="rgb(255,12,12)" stroke-width="1" font-size="16" >O</text>
<text x="103.282032" y="48.320000" fill="rgb(255,12,12)"  stroke="rgb(255,12,12)" stroke-width="1" font-size="16" >OH</text>
<text x="123.282032" y="148.723048" fill="rgb(191,191,191)"  stroke="rgb(191,191,191)" stroke-width="1" font-size="16" >H</text>
<text font-size="18.000000" fill ="black" font-family="sans-serif"
x="140.000000" y="20.000000" ></text>
<title> - OBDepict</title>
</svg>
