<?xml version="1.0"?>
<svg xmlns="http://www.w3.org/2000/svg"
xmlns:xlink="http://www.w3.org/1999/xlink" xmlns:cml="http://www.xml-cml.org/schema" width="274.641" height="263.923" x="0" y="0" font-family="sans-serif" stroke="rgb(0,0,0)" stroke-width="1" >
<line x1="140.0" y1="80.0" x2="180.0" y2="80.0"/>
<line x1="140.0" y1="80.0" x2="125.2" y2="105.6"/>
<line x1="140.0" y1="149.3" x2="180.0" y2="149.3"/>
<line x1="140.0" y1="149.3" x2="125.2" y2="174.9"/>
<polygon points="203.209481 66.600000 178.000000 76.535898 182.000000 83.464102 " />
<line x1="180.0" y1="80.0" x2="200.0" y2="114.6"/>
<line x1="180.0" y1="80.0" x2="180.0" y2="50.4"/>
<polygon points="180.000000 176.082032 184.000000 149.282032 176.000000 149.282032 " />
<line x1="180.0" y1="149.3" x2="200.0" y2="114.6"/>
<line x1="180.0" y1="149.3" x2="205.6" y2="164.1"/>
<polygon points="223.209481 128.041016 202.000000 111.176915 198.000000 118.105118 " />
<line x1="200.0" y1="114.6" x2="225.6" y2="99.8"/>
<line x1="80.0" y1="154.3" x2="80.0" y2="173.5"/>
<line x1="50.4" y1="183.9" x2="69.6" y2="183.9"/>
<line x1="77.0" y1="213.5" x2="77.0" y2="194.3"/>
<line x1="83.0" y1="213.5" x2="83.0" y2="194.3"/>
<line x1="109.6" y1="183.9" x2="90.4" y2="183.9"/>
<text x="104.400000" y="119.441016" fill="rgb(255,12,12)"  stroke="rgb(255,12,12)" stroke-width="1" font-size="16" >HO</text>
<text x="174.000000" y="48.320000" fill="rgb(255,12,12)"  stroke="rgb(255,12,12)" stroke-width="1" font-size="16" >OH</text>
<text x="208.641016" y="174.082032" fill="rgb(255,12,12)"  stroke="rgb(255,12,12)" stroke-width="1" font-size="16" >OH</text>
<text x="228.641016" y="102.961016" fill="rgb(255,12,12)"  stroke="rgb(255,12,12)" stroke-width="1" font-size="16" >OH</text>
<text x="75.200000" y="137.523048" fill="rgb(255,12,12)"  stroke="rgb(255,12,12)" stroke-width="1" font-size="32" >-</text>
<text x="74.000000" y="152.243048" fill="rgb(255,12,12)"  stroke="rgb(255,12,12)" stroke-width="1" font-size="16" >O</text>
<text x="35.200000" y="203.123048" fill="rgb(255,12,12)"  stroke="rgb(255,12,12)" stroke-width="1" font-size="32" >-</text>
<text x="36.400000" y="188.723048" fill="rgb(255,12,12)"  stroke="rgb(255,12,12)" stroke-width="1" font-size="16" >O</text>
<text x="74.000000" y="228.723048" fill="rgb(255,12,12)"  stroke="rgb(255,12,12)" stroke-width="1" font-size="16" >O</text>
<text x="114.000000" y="188.723048" fill="rgb(255,12,12)"  stroke="rgb(255,12,12)" stroke-width="1" font-size="16" >O</text>
<text x="74.000000" y="188.723048" fill="rgb(255,127,0)"  stroke="rgb(255,127,0)" stroke-width="1" font-size="16" >P</text>
<text x="208.641016" y="68.320000" fill="rgb(191,191,191)"  stroke="rgb(191,191,191)" stroke-width="1" font-size="16" >H</text>
<text x="174.000000" y="194.082032" fill="rgb(191,191,191)"  stroke="rgb(191,191,191)" stroke-width="1" font-size="16" >H</text>
<text x="228.641016" y="139.441016" fill="rgb(191,191,191)"  stroke="rgb(191,191,191)" stroke-width="1" font-size="16" >H</text>
<text font-size="18.000000" fill ="black" font-family="sans-serif"
x="140.000000" y="20.000000" ></text>
<title> - OBDepict</title>
</svg>
