<?xml version="1.0"?>
<svg xmlns="http://www.w3.org/2000/svg"
xmlns:xlink="http://www.w3.org/1999/xlink" xmlns:cml="http://www.xml-cml.org/schema" width="478.35" height="351.836" x="0" y="0" font-family="sans-serif" stroke="rgb(0,0,0)" stroke-width="1" >
<line x1="394.0" y1="155.5" x2="375.1" y2="122.8"/>
<line x1="394.0" y1="155.5" x2="380.1" y2="179.7"/>
<line x1="133.8" y1="189.7" x2="114.9" y2="157.0"/>
<line x1="133.8" y1="189.7" x2="161.8" y2="189.7"/>
<line x1="265.7" y1="186.0" x2="255.9" y2="222.5"/>
<line x1="265.7" y1="186.0" x2="292.7" y2="178.7"/>
<line x1="389.5" y1="103.3" x2="390.2" y2="103.8"/>
<line x1="386.9" y1="106.1" x2="388.2" y2="107.1"/>
<line x1="384.3" y1="108.8" x2="386.2" y2="110.3"/>
<line x1="381.7" y1="111.6" x2="384.2" y2="113.5"/>
<line x1="379.1" y1="114.3" x2="382.3" y2="116.8"/>
<line x1="376.5" y1="117.1" x2="380.3" y2="120.0"/>
<line x1="373.8" y1="119.9" x2="378.3" y2="123.3"/>
<polygon points="64.720025 163.627151 115.431272 160.985405 114.387063 153.053846 " />
<polygon points="296.059062 253.269512 258.332799 219.279243 253.462708 225.626069 " />
<line x1="412.0" y1="73.4" x2="412.2" y2="74.1"/>
<line x1="404.6" y1="74.9" x2="405.0" y2="76.5"/>
<line x1="397.2" y1="76.5" x2="397.8" y2="78.8"/>
<line x1="389.8" y1="78.1" x2="390.6" y2="81.2"/>
<line x1="382.4" y1="79.6" x2="383.4" y2="83.5"/>
<line x1="375.0" y1="81.2" x2="376.2" y2="85.8"/>
<line x1="367.6" y1="82.8" x2="369.0" y2="88.2"/>
<line x1="365.4" y1="86.3" x2="372.6" y2="59.3"/>
<line x1="71.4" y1="147.7" x2="70.8" y2="147.1"/>
<line x1="74.3" y1="145.3" x2="73.2" y2="144.2"/>
<line x1="77.3" y1="142.9" x2="75.6" y2="141.2"/>
<line x1="80.2" y1="140.5" x2="78.0" y2="138.3"/>
<line x1="83.2" y1="138.1" x2="80.4" y2="135.3"/>
<line x1="86.2" y1="135.7" x2="82.8" y2="132.3"/>
<line x1="89.1" y1="133.4" x2="85.1" y2="129.4"/>
<line x1="88.2" y1="130.3" x2="61.2" y2="123.1"/>
<polygon points="281.208864 260.230434 255.897753 256.230434 255.897753 264.230434 " />
<line x1="255.9" y1="260.2" x2="269.9" y2="284.4"/>
<polygon points="73.525197 87.265174 96.938577 97.679875 99.009129 89.952468 " />
<line x1="98.0" y1="93.8" x2="90.7" y2="66.8"/>
<line x1="334.8" y1="53.0" x2="335.5" y2="53.2"/>
<line x1="333.4" y1="56.6" x2="334.9" y2="57.0"/>
<line x1="332.0" y1="60.1" x2="334.3" y2="60.7"/>
<line x1="330.7" y1="63.7" x2="333.7" y2="64.5"/>
<line x1="329.3" y1="67.2" x2="333.2" y2="68.3"/>
<line x1="327.9" y1="70.8" x2="332.6" y2="72.0"/>
<line x1="326.6" y1="74.3" x2="332.0" y2="75.8"/>
<line x1="328.9" y1="76.5" x2="309.1" y2="56.7"/>
<polygon points="235.836794 301.039388 226.645340 277.119323 219.717136 281.119323 " />
<line x1="223.2" y1="279.1" x2="209.2" y2="303.3"/>
<line x1="127.8" y1="60.8" x2="128.6" y2="60.6"/>
<line x1="128.4" y1="64.5" x2="130.0" y2="64.1"/>
<line x1="129.0" y1="68.3" x2="131.3" y2="67.7"/>
<line x1="129.6" y1="72.0" x2="132.7" y2="71.2"/>
<line x1="130.2" y1="75.8" x2="134.0" y2="74.8"/>
<line x1="130.8" y1="79.6" x2="135.4" y2="78.3"/>
<line x1="131.4" y1="83.3" x2="136.8" y2="81.9"/>
<line x1="134.5" y1="84.0" x2="154.2" y2="64.3"/>
<polygon points="284.268235 85.305796 299.337466 106.031881 304.994320 100.375027 " />
<line x1="302.2" y1="103.2" x2="275.2" y2="110.4"/>
<line x1="178.7" y1="281.4" x2="178.0" y2="281.0"/>
<line x1="181.0" y1="278.3" x2="179.6" y2="277.5"/>
<line x1="183.2" y1="275.2" x2="181.1" y2="274.0"/>
<line x1="185.4" y1="272.2" x2="182.7" y2="270.6"/>
<line x1="187.7" y1="269.1" x2="184.2" y2="267.1"/>
<line x1="189.9" y1="266.0" x2="185.7" y2="263.6"/>
<line x1="192.1" y1="262.9" x2="187.3" y2="260.1"/>
<line x1="190.5" y1="260.2" x2="162.5" y2="260.2"/>
<polygon points="179.074965 92.853828 158.348880 107.923059 164.005734 113.579913 " />
<line x1="161.2" y1="110.8" x2="188.2" y2="118.0"/>
<polygon points="287.494845 146.244983 312.978778 143.557689 310.908225 135.830282 " />
<line x1="311.9" y1="139.7" x2="304.7" y2="166.7"/>
<line x1="166.3" y1="222.9" x2="166.3" y2="222.1"/>
<line x1="170.1" y1="223.3" x2="170.1" y2="221.7"/>
<line x1="173.8" y1="223.7" x2="173.8" y2="221.3"/>
<line x1="177.6" y1="224.1" x2="177.6" y2="220.9"/>
<line x1="181.4" y1="224.5" x2="181.4" y2="220.5"/>
<line x1="185.2" y1="224.9" x2="185.2" y2="220.1"/>
<line x1="189.0" y1="225.3" x2="189.0" y2="219.7"/>
<line x1="190.5" y1="222.5" x2="176.5" y2="198.2"/>
<line x1="114.9" y1="157.0" x2="88.2" y2="130.3"/>
<line x1="88.2" y1="130.3" x2="98.0" y2="93.8"/>
<line x1="98.0" y1="93.8" x2="134.5" y2="84.0"/>
<line x1="134.5" y1="84.0" x2="161.2" y2="110.8"/>
<line x1="161.2" y1="110.8" x2="153.9" y2="137.8"/>
<line x1="141.9" y1="149.8" x2="114.9" y2="157.0"/>
<line x1="375.1" y1="122.8" x2="365.4" y2="86.3"/>
<line x1="365.4" y1="86.3" x2="328.9" y2="76.5"/>
<line x1="328.9" y1="76.5" x2="302.2" y2="103.2"/>
<line x1="302.2" y1="103.2" x2="311.9" y2="139.7"/>
<line x1="311.9" y1="139.7" x2="338.9" y2="146.9"/>
<line x1="355.4" y1="142.5" x2="375.1" y2="122.8"/>
<line x1="255.9" y1="222.5" x2="255.9" y2="260.2"/>
<line x1="255.9" y1="260.2" x2="223.2" y2="279.1"/>
<line x1="223.2" y1="279.1" x2="190.5" y2="260.2"/>
<line x1="190.5" y1="260.2" x2="190.5" y2="222.5"/>
<line x1="190.5" y1="222.5" x2="214.7" y2="208.5"/>
<line x1="231.7" y1="208.5" x2="255.9" y2="222.5"/>
<text x="359.546955" y="192.991701" fill="rgb(255,12,12)"  stroke="rgb(255,12,12)" stroke-width="1" font-size="16" >HO</text>
<text x="369.146955" y="58.097608" fill="rgb(255,12,12)"  stroke="rgb(255,12,12)" stroke-width="1" font-size="16" >OH</text>
<text x="36.105713" y="128.849094" fill="rgb(255,12,12)"  stroke="rgb(255,12,12)" stroke-width="1" font-size="16" >HO</text>
<text x="268.786642" y="297.746949" fill="rgb(255,12,12)"  stroke="rgb(255,12,12)" stroke-width="1" font-size="16" >OH</text>
<text x="72.596244" y="65.645640" fill="rgb(255,12,12)"  stroke="rgb(255,12,12)" stroke-width="1" font-size="16" >HO</text>
<text x="286.565893" y="58.097608" fill="rgb(255,12,12)"  stroke="rgb(255,12,12)" stroke-width="1" font-size="16" >HO</text>
<text x="188.692349" y="316.635838" fill="rgb(255,12,12)"  stroke="rgb(255,12,12)" stroke-width="1" font-size="16" >HO</text>
<text x="155.177307" y="65.645640" fill="rgb(255,12,12)"  stroke="rgb(255,12,12)" stroke-width="1" font-size="16" >OH</text>
<text x="250.075362" y="117.781062" fill="rgb(255,12,12)"  stroke="rgb(255,12,12)" stroke-width="1" font-size="16" >HO</text>
<text x="137.086945" y="265.030434" fill="rgb(255,12,12)"  stroke="rgb(255,12,12)" stroke-width="1" font-size="16" >HO</text>
<text x="191.667838" y="125.329094" fill="rgb(255,12,12)"  stroke="rgb(255,12,12)" stroke-width="1" font-size="16" >OH</text>
<text x="165.575834" y="198.056141" fill="rgb(255,12,12)"  stroke="rgb(255,12,12)" stroke-width="1" font-size="16" >O</text>
<text x="296.165893" y="180.984516" fill="rgb(255,12,12)"  stroke="rgb(255,12,12)" stroke-width="1" font-size="16" >O</text>
<text x="145.399699" y="152.042017" fill="rgb(255,12,12)"  stroke="rgb(255,12,12)" stroke-width="1" font-size="16" >O</text>
<text x="342.434033" y="154.271594" fill="rgb(255,12,12)"  stroke="rgb(255,12,12)" stroke-width="1" font-size="16" >O</text>
<text x="217.181238" y="211.883767" fill="rgb(255,12,12)"  stroke="rgb(255,12,12)" stroke-width="1" font-size="16" >O</text>
<text x="392.144609" y="101.107545" fill="rgb(191,191,191)"  stroke="rgb(191,191,191)" stroke-width="1" font-size="16" >H</text>
<text x="36.400000" y="171.681605" fill="rgb(191,191,191)"  stroke="rgb(191,191,191)" stroke-width="1" font-size="16" >H</text>
<text x="309.840006" y="273.247964" fill="rgb(191,191,191)"  stroke="rgb(191,191,191)" stroke-width="1" font-size="16" >H</text>
<text x="432.350409" y="75.032923" fill="rgb(191,191,191)"  stroke="rgb(191,191,191)" stroke-width="1" font-size="16" >H</text>
<text x="57.883322" y="161.819626" fill="rgb(191,191,191)"  stroke="rgb(191,191,191)" stroke-width="1" font-size="16" >H</text>
<text x="287.675531" y="265.030434" fill="rgb(191,191,191)"  stroke="rgb(191,191,191)" stroke-width="1" font-size="16" >H</text>
<text x="57.883322" y="92.358563" fill="rgb(191,191,191)"  stroke="rgb(191,191,191)" stroke-width="1" font-size="16" >H</text>
<text x="332.656424" y="48.320000" fill="rgb(191,191,191)"  stroke="rgb(191,191,191)" stroke-width="1" font-size="16" >H</text>
<text x="236.070127" y="316.635838" fill="rgb(191,191,191)"  stroke="rgb(191,191,191)" stroke-width="1" font-size="16" >H</text>
<text x="121.086776" y="55.868032" fill="rgb(191,191,191)"  stroke="rgb(191,191,191)" stroke-width="1" font-size="16" >H</text>
<text x="271.852970" y="84.810531" fill="rgb(191,191,191)"  stroke="rgb(191,191,191)" stroke-width="1" font-size="16" >H</text>
<text x="167.975834" y="297.746949" fill="rgb(191,191,191)"  stroke="rgb(191,191,191)" stroke-width="1" font-size="16" >H</text>
<text x="181.890230" y="92.358563" fill="rgb(191,191,191)"  stroke="rgb(191,191,191)" stroke-width="1" font-size="16" >H</text>
<text x="271.852970" y="154.271594" fill="rgb(191,191,191)"  stroke="rgb(191,191,191)" stroke-width="1" font-size="16" >H</text>
<text x="149.086945" y="227.252656" fill="rgb(191,191,191)"  stroke="rgb(191,191,191)" stroke-width="1" font-size="16" >H</text>
<text font-size="18.000000" fill ="black" font-family="sans-serif"
x="140.000000" y="20.000000" ></text>
<title> - OBDepict</title>
</svg>
