<?xml version="1.0"?>
<svg xmlns="http://www.w3.org/2000/svg"
xmlns:xlink="http://www.w3.org/1999/xlink" xmlns:cml="http://www.xml-cml.org/schema" width="731.002" height="739.345" x="0" y="0" font-family="sans-serif" stroke="rgb(0,0,0)" stroke-width="1" >
<line x1="471.0" y1="528.8" x2="446.6" y2="542.9"/>
<line x1="468.0" y1="523.6" x2="443.6" y2="537.7"/>
<line x1="638.8" y1="68.6" x2="652.9" y2="93.0"/>
<line x1="681.1" y1="93.0" x2="652.9" y2="93.0"/>
<line x1="581.7" y1="167.6" x2="595.8" y2="192.0"/>
<line x1="467.5" y1="233.6" x2="481.6" y2="258.0"/>
<line x1="451.4" y1="474.7" x2="422.0" y2="484.5"/>
<line x1="294.5" y1="624.3" x2="284.7" y2="594.9"/>
<line x1="301.7" y1="317.8" x2="311.5" y2="347.2"/>
<line x1="445.1" y1="540.3" x2="412.1" y2="521.3"/>
<line x1="652.9" y1="159.0" x2="633.9" y2="126.0"/>
<line x1="652.9" y1="159.0" x2="633.9" y2="192.0"/>
<line x1="538.7" y1="225.0" x2="576.8" y2="225.0"/>
<line x1="538.7" y1="225.0" x2="519.7" y2="258.0"/>
<line x1="424.5" y1="291.0" x2="462.5" y2="291.0"/>
<line x1="424.5" y1="291.0" x2="405.4" y2="324.0"/>
<line x1="631.3" y1="124.5" x2="650.3" y2="91.5"/>
<line x1="636.5" y1="127.5" x2="655.5" y2="94.5"/>
<line x1="633.9" y1="192.0" x2="595.8" y2="192.0"/>
<line x1="576.8" y1="225.0" x2="590.9" y2="249.4"/>
<line x1="574.2" y1="223.5" x2="593.2" y2="190.5"/>
<line x1="579.4" y1="226.5" x2="598.4" y2="193.5"/>
<line x1="519.7" y1="258.0" x2="481.6" y2="258.0"/>
<line x1="462.5" y1="291.0" x2="476.7" y2="315.4"/>
<line x1="459.9" y1="289.5" x2="479.0" y2="256.5"/>
<line x1="465.1" y1="292.5" x2="484.2" y2="259.5"/>
<line x1="405.4" y1="324.0" x2="367.3" y2="324.0"/>
<line x1="214.9" y1="604.1" x2="214.9" y2="642.2"/>
<line x1="214.9" y1="604.1" x2="247.9" y2="585.1"/>
<line x1="136.2" y1="457.6" x2="117.1" y2="490.6"/>
<line x1="136.2" y1="457.6" x2="174.2" y2="457.6"/>
<line x1="214.9" y1="642.2" x2="182.0" y2="661.3"/>
<line x1="117.1" y1="490.6" x2="79.1" y2="490.7"/>
<line x1="348.4" y1="558.1" x2="363.9" y2="584.9"/>
<line x1="247.8" y1="384.0" x2="232.3" y2="357.2"/>
<line x1="385.1" y1="420.8" x2="412.0" y2="405.3"/>
<line x1="211.1" y1="521.4" x2="184.3" y2="536.9"/>
<line x1="167.6" y1="386.4" x2="186.7" y2="419.3"/>
<line x1="162.4" y1="389.4" x2="181.5" y2="422.3"/>
<line x1="165.0" y1="387.9" x2="136.8" y2="387.9"/>
<line x1="367.3" y1="324.0" x2="348.3" y2="357.0"/>
<line x1="367.3" y1="324.0" x2="353.2" y2="299.6"/>
<line x1="180.5" y1="663.9" x2="156.1" y2="649.8"/>
<line x1="183.5" y1="658.7" x2="159.1" y2="644.6"/>
<line x1="182.0" y1="661.3" x2="182.0" y2="689.4"/>
<line x1="76.5" y1="492.2" x2="62.4" y2="467.8"/>
<line x1="81.7" y1="489.1" x2="67.6" y2="464.8"/>
<line x1="79.1" y1="490.7" x2="65.0" y2="515.1"/>
<line x1="348.3" y1="399.5" x2="348.3" y2="357.0"/>
<line x1="348.3" y1="357.0" x2="311.5" y2="347.2"/>
<line x1="340.7" y1="362.4" x2="315.4" y2="355.7"/>
<line x1="311.5" y1="347.2" x2="290.3" y2="384.0"/>
<line x1="290.3" y1="384.0" x2="306.0" y2="411.2"/>
<line x1="321.1" y1="415.2" x2="348.3" y2="399.5"/>
<line x1="319.0" y1="408.1" x2="339.5" y2="396.3"/>
<line x1="284.7" y1="594.9" x2="247.9" y2="585.1"/>
<line x1="280.7" y1="586.4" x2="255.6" y2="579.7"/>
<line x1="247.9" y1="585.1" x2="247.9" y2="542.6"/>
<line x1="247.9" y1="542.6" x2="275.1" y2="526.9"/>
<line x1="290.2" y1="530.9" x2="305.9" y2="558.1"/>
<line x1="305.9" y1="558.1" x2="284.7" y2="594.9"/>
<line x1="211.0" y1="478.9" x2="174.2" y2="457.6"/>
<line x1="209.4" y1="469.6" x2="183.0" y2="454.4"/>
<line x1="174.2" y1="457.6" x2="184.1" y2="420.8"/>
<line x1="184.1" y1="420.8" x2="226.6" y2="420.8"/>
<line x1="226.6" y1="420.8" x2="242.3" y2="448.0"/>
<line x1="223.3" y1="429.6" x2="235.2" y2="450.1"/>
<line x1="238.2" y1="463.1" x2="211.0" y2="478.9"/>
<line x1="422.0" y1="484.5" x2="385.2" y2="463.2"/>
<line x1="385.2" y1="463.2" x2="357.9" y2="479.0"/>
<line x1="353.9" y1="494.1" x2="369.6" y2="521.3"/>
<line x1="361.0" y1="492.0" x2="372.9" y2="512.5"/>
<line x1="369.6" y1="521.3" x2="412.1" y2="521.3"/>
<line x1="412.1" y1="521.3" x2="422.0" y2="484.5"/>
<line x1="406.7" y1="513.6" x2="413.5" y2="488.4"/>
<line x1="247.8" y1="384.0" x2="290.3" y2="384.0"/>
<line x1="253.8" y1="391.2" x2="284.3" y2="391.2"/>
<line x1="348.3" y1="399.5" x2="385.1" y2="420.8"/>
<line x1="385.1" y1="420.8" x2="385.2" y2="463.2"/>
<line x1="377.9" y1="426.8" x2="378.0" y2="457.2"/>
<line x1="369.6" y1="521.3" x2="348.4" y2="558.1"/>
<line x1="348.4" y1="558.1" x2="305.9" y2="558.1"/>
<line x1="342.4" y1="550.9" x2="311.9" y2="550.9"/>
<line x1="247.9" y1="542.6" x2="211.1" y2="521.4"/>
<line x1="246.3" y1="533.4" x2="219.9" y2="518.1"/>
<line x1="211.1" y1="521.4" x2="211.0" y2="478.9"/>
<line x1="226.6" y1="420.8" x2="247.8" y2="384.0"/>
<text x="472.088710" y="529.558267" fill="rgb(102,102,102)"  stroke="rgb(102,102,102)" stroke-width="1" font-size="16" >CH</text>
<text x="496.088710" y="537.238267" fill="rgb(102,102,102)"  stroke="rgb(102,102,102)" stroke-width="1" font-size="13" >2</text>
<text x="610.250213" y="68.320000" fill="rgb(102,102,102)"  stroke="rgb(102,102,102)" stroke-width="1" font-size="16" >H</text>
<text x="622.250213" y="76.000000" fill="rgb(102,102,102)"  stroke="rgb(102,102,102)" stroke-width="1" font-size="13" >3</text>
<text x="628.750213" y="68.320000" fill="rgb(102,102,102)"  stroke="rgb(102,102,102)" stroke-width="1" font-size="16" >C</text>
<text x="685.001947" y="101.281350" fill="rgb(102,102,102)"  stroke="rgb(102,102,102)" stroke-width="1" font-size="16" >CH</text>
<text x="709.001947" y="108.961350" fill="rgb(102,102,102)"  stroke="rgb(102,102,102)" stroke-width="1" font-size="13" >3</text>
<text x="553.159481" y="167.309707" fill="rgb(102,102,102)"  stroke="rgb(102,102,102)" stroke-width="1" font-size="16" >H</text>
<text x="565.159481" y="174.989707" fill="rgb(102,102,102)"  stroke="rgb(102,102,102)" stroke-width="1" font-size="13" >3</text>
<text x="571.659481" y="167.309707" fill="rgb(102,102,102)"  stroke="rgb(102,102,102)" stroke-width="1" font-size="16" >C</text>
<text x="438.917014" y="233.338064" fill="rgb(102,102,102)"  stroke="rgb(102,102,102)" stroke-width="1" font-size="16" >H</text>
<text x="450.917014" y="241.018064" fill="rgb(102,102,102)"  stroke="rgb(102,102,102)" stroke-width="1" font-size="13" >3</text>
<text x="457.417014" y="233.338064" fill="rgb(102,102,102)"  stroke="rgb(102,102,102)" stroke-width="1" font-size="16" >C</text>
<text x="455.677400" y="479.550423" fill="rgb(102,102,102)"  stroke="rgb(102,102,102)" stroke-width="1" font-size="16" >CH</text>
<text x="479.677400" y="487.230423" fill="rgb(102,102,102)"  stroke="rgb(102,102,102)" stroke-width="1" font-size="13" >3</text>
<text x="291.918857" y="639.432144" fill="rgb(102,102,102)"  stroke="rgb(102,102,102)" stroke-width="1" font-size="16" >CH</text>
<text x="315.918857" y="644.232144" fill="rgb(102,102,102)"  stroke="rgb(102,102,102)" stroke-width="1" font-size="13" >3</text>
<text x="274.646706" y="315.809425" fill="rgb(102,102,102)"  stroke="rgb(102,102,102)" stroke-width="1" font-size="16" >H</text>
<text x="286.646706" y="323.489425" fill="rgb(102,102,102)"  stroke="rgb(102,102,102)" stroke-width="1" font-size="13" >3</text>
<text x="293.146706" y="315.809425" fill="rgb(102,102,102)"  stroke="rgb(102,102,102)" stroke-width="1" font-size="16" >C</text>
<text x="344.768000" y="492.832331" fill="rgb(12,12,255)"  stroke="rgb(12,12,255)" stroke-width="1" font-size="16" >N</text>
<text x="279.850271" y="514.939066" fill="rgb(12,12,255)"  stroke="rgb(12,12,255)" stroke-width="1" font-size="32" >-</text>
<text x="278.650271" y="529.659066" fill="rgb(12,12,255)"  stroke="rgb(12,12,255)" stroke-width="1" font-size="16" >N</text>
<text x="307.931204" y="425.577193" fill="rgb(12,12,255)"  stroke="rgb(12,12,255)" stroke-width="1" font-size="16" >N</text>
<text x="241.813475" y="462.403928" fill="rgb(12,12,255)"  stroke="rgb(12,12,255)" stroke-width="1" font-size="16" >N</text>
<text x="122.137897" y="407.098448" fill="rgb(255,12,12)"  stroke="rgb(255,12,12)" stroke-width="1" font-size="32" >-</text>
<text x="123.337897" y="392.698448" fill="rgb(255,12,12)"  stroke="rgb(255,12,12)" stroke-width="1" font-size="16" >O</text>
<text x="332.674548" y="299.366422" fill="rgb(255,12,12)"  stroke="rgb(255,12,12)" stroke-width="1" font-size="16" >HO</text>
<text x="145.393894" y="650.565133" fill="rgb(255,12,12)"  stroke="rgb(255,12,12)" stroke-width="1" font-size="16" >O</text>
<text x="177.195747" y="718.545041" fill="rgb(255,12,12)"  stroke="rgb(255,12,12)" stroke-width="1" font-size="32" >-</text>
<text x="175.995747" y="704.145041" fill="rgb(255,12,12)"  stroke="rgb(255,12,12)" stroke-width="1" font-size="16" >O</text>
<text x="56.400000" y="466.004190" fill="rgb(255,12,12)"  stroke="rgb(255,12,12)" stroke-width="1" font-size="16" >O</text>
<text x="55.230490" y="542.835087" fill="rgb(255,12,12)"  stroke="rgb(255,12,12)" stroke-width="1" font-size="32" >-</text>
<text x="56.430490" y="528.435087" fill="rgb(255,12,12)"  stroke="rgb(255,12,12)" stroke-width="1" font-size="16" >O</text>
<text x="35.200000" y="59.200000" fill="rgb(224,102,51)"  stroke="rgb(224,102,51)" stroke-width="1" font-size="16" >2+</text>
<text x="34.000000" y="44.800000" fill="rgb(224,102,51)"  stroke="rgb(224,102,51)" stroke-width="1" font-size="16" >Fe</text>
<text x="589.850726" y="262.744194" fill="rgb(191,191,191)"  stroke="rgb(191,191,191)" stroke-width="1" font-size="16" >H</text>
<text x="475.608260" y="328.772552" fill="rgb(191,191,191)"  stroke="rgb(191,191,191)" stroke-width="1" font-size="16" >H</text>
<text x="363.341880" y="599.137074" fill="rgb(191,191,191)"  stroke="rgb(191,191,191)" stroke-width="1" font-size="16" >H</text>
<text x="223.239595" y="356.099185" fill="rgb(191,191,191)"  stroke="rgb(191,191,191)" stroke-width="1" font-size="16" >H</text>
<text x="415.393331" y="408.147823" fill="rgb(191,191,191)"  stroke="rgb(191,191,191)" stroke-width="1" font-size="16" >H</text>
<text x="171.235450" y="547.130103" fill="rgb(191,191,191)"  stroke="rgb(191,191,191)" stroke-width="1" font-size="16" >H</text>
<text font-size="18.000000" fill ="black" font-family="sans-serif"
x="140.000000" y="20.000000" ></text>
<title> - OBDepict</title>
</svg>
