<?xml version="1.0"?>
<svg xmlns="http://www.w3.org/2000/svg"
xmlns:xlink="http://www.w3.org/1999/xlink" xmlns:cml="http://www.xml-cml.org/schema" width="459.556" height="333.291" x="0" y="0" font-family="sans-serif" stroke="rgb(0,0,0)" stroke-width="1" >
<line x1="227.6" y1="268.6" x2="191.1" y2="254.6"/>
<line x1="227.6" y1="268.6" x2="250.2" y2="250.4"/>
<line x1="137.9" y1="73.9" x2="177.1" y2="73.9"/>
<line x1="137.9" y1="73.9" x2="123.4" y2="99.0"/>
<line x1="195.4" y1="279.3" x2="194.6" y2="279.4"/>
<line x1="195.2" y1="275.4" x2="193.6" y2="275.6"/>
<line x1="194.9" y1="271.4" x2="192.6" y2="271.8"/>
<line x1="194.7" y1="267.5" x2="191.6" y2="268.0"/>
<line x1="194.5" y1="263.6" x2="190.6" y2="264.2"/>
<line x1="194.3" y1="259.6" x2="189.6" y2="260.4"/>
<line x1="194.1" y1="255.7" x2="188.5" y2="256.6"/>
<line x1="164.2" y1="52.4" x2="164.9" y2="52.0"/>
<line x1="165.8" y1="56.0" x2="167.2" y2="55.2"/>
<line x1="167.4" y1="59.6" x2="169.5" y2="58.4"/>
<line x1="169.0" y1="63.2" x2="171.8" y2="61.6"/>
<line x1="170.7" y1="66.8" x2="174.1" y2="64.8"/>
<line x1="172.3" y1="70.4" x2="176.4" y2="68.0"/>
<line x1="173.9" y1="74.0" x2="178.7" y2="71.2"/>
<polygon points="227.121402 220.879733 201.828552 212.823878 200.577076 220.725385 " />
<line x1="201.2" y1="216.8" x2="219.4" y2="194.3"/>
<polygon points="155.509142 118.327385 182.009012 116.784026 180.345718 108.958845 " />
<line x1="181.2" y1="112.9" x2="172.2" y2="140.4"/>
<polygon points="216.745145 147.112556 223.466233 121.432758 215.510058 120.596530 " />
<line x1="219.5" y1="121.0" x2="242.9" y2="138.1"/>
<polygon points="180.268351 172.061440 164.790857 193.626974 171.918910 197.258898 " />
<line x1="168.4" y1="195.4" x2="152.6" y2="171.1"/>
<line x1="398.2" y1="157.1" x2="414.0" y2="181.4"/>
<line x1="250.3" y1="64.7" x2="251.0" y2="65.1"/>
<line x1="248.1" y1="68.0" x2="249.6" y2="68.7"/>
<line x1="246.0" y1="71.3" x2="248.1" y2="72.4"/>
<line x1="243.8" y1="74.5" x2="246.6" y2="76.0"/>
<line x1="241.6" y1="77.8" x2="245.2" y2="79.7"/>
<line x1="239.5" y1="81.1" x2="243.7" y2="83.3"/>
<line x1="237.3" y1="84.4" x2="242.3" y2="87.0"/>
<line x1="239.1" y1="87.1" x2="284.1" y2="123.6"/>
<polygon points="118.255301 237.471070 140.565851 223.088287 135.267482 217.094349 " />
<line x1="137.9" y1="220.1" x2="123.4" y2="195.0"/>
<line x1="79.2" y1="78.9" x2="79.2" y2="97.7"/>
<line x1="50.2" y1="104.8" x2="69.0" y2="104.8"/>
<line x1="50.2" y1="110.8" x2="69.0" y2="110.8"/>
<line x1="50.2" y1="186.2" x2="69.0" y2="186.2"/>
<line x1="76.2" y1="215.2" x2="76.2" y2="196.4"/>
<line x1="82.2" y1="215.2" x2="82.2" y2="196.4"/>
<line x1="108.2" y1="107.8" x2="89.4" y2="107.8"/>
<line x1="108.2" y1="186.2" x2="89.4" y2="186.2"/>
<line x1="79.2" y1="136.8" x2="79.2" y2="118.0"/>
<line x1="79.2" y1="157.2" x2="79.2" y2="176.0"/>
<line x1="297.9" y1="175.5" x2="299.4" y2="146.6"/>
<line x1="309.8" y1="133.8" x2="337.8" y2="126.3"/>
<line x1="337.8" y1="126.3" x2="359.1" y2="159.1"/>
<line x1="359.1" y1="159.1" x2="340.9" y2="181.6"/>
<line x1="325.0" y1="185.9" x2="297.9" y2="175.5"/>
<line x1="325.6" y1="178.4" x2="306.1" y2="170.9"/>
<line x1="177.1" y1="73.9" x2="181.2" y2="112.9"/>
<line x1="181.2" y1="112.9" x2="219.5" y2="121.0"/>
<line x1="219.5" y1="121.0" x2="239.1" y2="87.1"/>
<line x1="239.1" y1="87.1" x2="219.7" y2="65.6"/>
<line x1="203.6" y1="62.1" x2="177.1" y2="73.9"/>
<line x1="191.1" y1="254.6" x2="201.2" y2="216.8"/>
<line x1="201.2" y1="216.8" x2="168.4" y2="195.4"/>
<line x1="168.4" y1="195.4" x2="137.9" y2="220.1"/>
<line x1="137.9" y1="220.1" x2="148.3" y2="247.1"/>
<line x1="162.1" y1="256.1" x2="191.1" y2="254.6"/>
<line x1="337.8" y1="126.3" x2="350.9" y2="100.4"/>
<line x1="346.9" y1="124.2" x2="356.4" y2="105.6"/>
<line x1="365.7" y1="90.8" x2="394.7" y2="89.3"/>
<line x1="394.7" y1="89.3" x2="410.5" y2="113.6"/>
<line x1="391.9" y1="98.3" x2="403.3" y2="115.8"/>
<line x1="411.4" y1="131.2" x2="398.2" y2="157.1"/>
<line x1="398.2" y1="157.1" x2="359.1" y2="159.1"/>
<line x1="391.9" y1="150.2" x2="364.7" y2="151.6"/>
<text x="413.556389" y="194.701036" fill="rgb(12,12,255)"  stroke="rgb(12,12,255)" stroke-width="1" font-size="16" >NH</text>
<text x="437.556389" y="199.501036" fill="rgb(12,12,255)"  stroke="rgb(12,12,255)" stroke-width="1" font-size="13" >2</text>
<text x="410.005988" y="130.475350" fill="rgb(12,12,255)"  stroke="rgb(12,12,255)" stroke-width="1" font-size="16" >N</text>
<text x="351.961302" y="99.677245" fill="rgb(12,12,255)"  stroke="rgb(12,12,255)" stroke-width="1" font-size="16" >N</text>
<text x="328.463321" y="194.341148" fill="rgb(12,12,255)"  stroke="rgb(12,12,255)" stroke-width="1" font-size="16" >N</text>
<text x="293.947913" y="141.192079" fill="rgb(12,12,255)"  stroke="rgb(12,12,255)" stroke-width="1" font-size="16" >N</text>
<text x="252.069185" y="252.314423" fill="rgb(255,12,12)"  stroke="rgb(255,12,12)" stroke-width="1" font-size="16" >OH</text>
<text x="219.851196" y="194.656415" fill="rgb(255,12,12)"  stroke="rgb(255,12,12)" stroke-width="1" font-size="16" >OH</text>
<text x="153.474199" y="154.921149" fill="rgb(255,12,12)"  stroke="rgb(255,12,12)" stroke-width="1" font-size="16" >HO</text>
<text x="245.174645" y="148.836233" fill="rgb(255,12,12)"  stroke="rgb(255,12,12)" stroke-width="1" font-size="16" >OH</text>
<text x="131.423188" y="170.915006" fill="rgb(255,12,12)"  stroke="rgb(255,12,12)" stroke-width="1" font-size="16" >HO</text>
<text x="73.166667" y="76.991990" fill="rgb(255,12,12)"  stroke="rgb(255,12,12)" stroke-width="1" font-size="16" >OH</text>
<text x="36.400000" y="112.638657" fill="rgb(255,12,12)"  stroke="rgb(255,12,12)" stroke-width="1" font-size="16" >O</text>
<text x="24.400000" y="194.491990" fill="rgb(255,12,12)"  stroke="rgb(255,12,12)" stroke-width="1" font-size="16" >HO</text>
<text x="73.166667" y="230.138657" fill="rgb(255,12,12)"  stroke="rgb(255,12,12)" stroke-width="1" font-size="16" >O</text>
<text x="112.333333" y="112.638657" fill="rgb(255,12,12)"  stroke="rgb(255,12,12)" stroke-width="1" font-size="16" >O</text>
<text x="206.863864" y="66.308810" fill="rgb(255,12,12)"  stroke="rgb(255,12,12)" stroke-width="1" font-size="16" >O</text>
<text x="148.352745" y="261.456552" fill="rgb(255,12,12)"  stroke="rgb(255,12,12)" stroke-width="1" font-size="16" >O</text>
<text x="112.333333" y="194.491990" fill="rgb(255,12,12)"  stroke="rgb(255,12,12)" stroke-width="1" font-size="16" >O</text>
<text x="73.166667" y="151.805323" fill="rgb(255,12,12)"  stroke="rgb(255,12,12)" stroke-width="1" font-size="16" >O</text>
<text x="73.166667" y="116.158657" fill="rgb(255,127,0)"  stroke="rgb(255,127,0)" stroke-width="1" font-size="16" >P</text>
<text x="73.166667" y="194.491990" fill="rgb(255,127,0)"  stroke="rgb(255,127,0)" stroke-width="1" font-size="16" >P</text>
<text x="191.192751" y="298.091187" fill="rgb(191,191,191)"  stroke="rgb(191,191,191)" stroke-width="1" font-size="16" >H</text>
<text x="153.900000" y="48.320000" fill="rgb(191,191,191)"  stroke="rgb(191,191,191)" stroke-width="1" font-size="16" >H</text>
<text x="233.887274" y="227.701648" fill="rgb(191,191,191)"  stroke="rgb(191,191,191)" stroke-width="1" font-size="16" >H</text>
<text x="139.266584" y="125.814644" fill="rgb(191,191,191)"  stroke="rgb(191,191,191)" stroke-width="1" font-size="16" >H</text>
<text x="211.794114" y="164.766751" fill="rgb(191,191,191)"  stroke="rgb(191,191,191)" stroke-width="1" font-size="16" >H</text>
<text x="180.136178" y="168.865181" fill="rgb(191,191,191)"  stroke="rgb(191,191,191)" stroke-width="1" font-size="16" >H</text>
<text x="251.171658" y="60.681883" fill="rgb(191,191,191)"  stroke="rgb(191,191,191)" stroke-width="1" font-size="16" >H</text>
<text x="104.971345" y="250.831247" fill="rgb(191,191,191)"  stroke="rgb(191,191,191)" stroke-width="1" font-size="16" >H</text>
<text font-size="18.000000" fill ="black" font-family="sans-serif"
x="140.000000" y="20.000000" ></text>
<title> - OBDepict</title>
</svg>
