<?xml version="1.0"?>
<svg xmlns="http://www.w3.org/2000/svg"
xmlns:xlink="http://www.w3.org/1999/xlink" xmlns:cml="http://www.xml-cml.org/schema" width="441.222" height="410.888" x="0" y="0" font-family="sans-serif" stroke="rgb(0,0,0)" stroke-width="1" >
<line x1="114.0" y1="216.6" x2="143.0" y2="210.4"/>
<line x1="112.0" y1="353.5" x2="105.9" y2="324.5"/>
<polygon points="297.299156 100.000000 293.299156 126.800000 301.299156 126.800000 " />
<polygon points="193.376108 160.000000 200.622468 186.109965 207.930832 182.856072 " />
<line x1="157.4" y1="278.2" x2="169.7" y2="240.1"/>
<line x1="157.4" y1="278.2" x2="118.3" y2="286.5"/>
<line x1="169.7" y1="240.1" x2="143.0" y2="210.4"/>
<line x1="118.3" y1="286.5" x2="105.9" y2="324.5"/>
<line x1="140.1" y1="209.5" x2="152.5" y2="171.4"/>
<line x1="145.8" y1="211.3" x2="158.2" y2="173.3"/>
<polygon points="131.379443 332.811378 107.127196 320.725496 104.655060 328.333948 " />
<line x1="105.9" y1="324.5" x2="66.8" y2="332.8"/>
<line x1="365.1" y1="57.4" x2="390.7" y2="42.6"/>
<line x1="368.1" y1="62.6" x2="393.7" y2="47.8"/>
<polygon points="204.807643 86.600000 226.017124 103.464102 230.017124 96.535898 " />
<line x1="203.4" y1="96.5" x2="204.2" y2="96.8"/>
<line x1="201.4" y1="99.9" x2="202.9" y2="100.6"/>
<line x1="199.4" y1="103.4" x2="201.6" y2="104.4"/>
<line x1="197.4" y1="106.9" x2="200.4" y2="108.2"/>
<line x1="195.5" y1="110.4" x2="199.1" y2="112.0"/>
<line x1="193.5" y1="113.9" x2="197.8" y2="115.9"/>
<line x1="191.5" y1="117.4" x2="196.6" y2="119.7"/>
<line x1="285.0" y1="132.5" x2="284.6" y2="133.1"/>
<line x1="281.8" y1="130.1" x2="281.0" y2="131.5"/>
<line x1="278.5" y1="127.8" x2="277.3" y2="129.8"/>
<line x1="275.2" y1="125.4" x2="273.6" y2="128.2"/>
<line x1="272.0" y1="123.1" x2="270.0" y2="126.5"/>
<line x1="268.7" y1="120.7" x2="266.3" y2="124.9"/>
<line x1="265.4" y1="118.4" x2="262.6" y2="123.2"/>
<line x1="64.5" y1="334.9" x2="44.7" y2="312.9"/>
<line x1="69.0" y1="330.8" x2="49.2" y2="308.8"/>
<line x1="66.8" y1="332.8" x2="57.6" y2="361.0"/>
<line x1="131.8" y1="140.0" x2="155.3" y2="107.6"/>
<line x1="155.3" y1="107.6" x2="193.4" y2="120.0"/>
<line x1="193.4" y1="120.0" x2="193.4" y2="160.0"/>
<line x1="193.4" y1="160.0" x2="155.3" y2="172.4"/>
<line x1="155.3" y1="172.4" x2="131.8" y2="140.0"/>
<line x1="228.0" y1="60.0" x2="262.7" y2="40.0"/>
<line x1="262.7" y1="40.0" x2="297.3" y2="60.0"/>
<line x1="297.3" y1="60.0" x2="297.3" y2="100.0"/>
<line x1="297.3" y1="100.0" x2="262.7" y2="120.0"/>
<line x1="262.7" y1="120.0" x2="228.0" y2="100.0"/>
<line x1="228.0" y1="100.0" x2="228.0" y2="60.0"/>
<line x1="331.9" y1="40.0" x2="366.6" y2="60.0"/>
<line x1="366.6" y1="60.0" x2="366.6" y2="100.0"/>
<line x1="366.6" y1="100.0" x2="331.9" y2="120.0"/>
<line x1="331.9" y1="120.0" x2="297.3" y2="100.0"/>
<line x1="297.3" y1="60.0" x2="331.9" y2="40.0"/>
<line x1="306.1" y1="63.2" x2="330.3" y2="49.2"/>
<line x1="193.4" y1="120.0" x2="228.0" y2="100.0"/>
<line x1="262.7" y1="120.0" x2="262.7" y2="160.0"/>
<line x1="262.7" y1="160.0" x2="228.0" y2="180.0"/>
<line x1="228.0" y1="180.0" x2="193.4" y2="160.0"/>
<text x="80.247264" y="223.519408" fill="rgb(102,102,102)"  stroke="rgb(102,102,102)" stroke-width="1" font-size="16" >H</text>
<text x="92.247264" y="228.319408" fill="rgb(102,102,102)"  stroke="rgb(102,102,102)" stroke-width="1" font-size="13" >3</text>
<text x="98.747264" y="223.519408" fill="rgb(102,102,102)"  stroke="rgb(102,102,102)" stroke-width="1" font-size="16" >C</text>
<text x="108.207596" y="368.455626" fill="rgb(102,102,102)"  stroke="rgb(102,102,102)" stroke-width="1" font-size="16" >CH</text>
<text x="132.207596" y="373.255626" fill="rgb(102,102,102)"  stroke="rgb(102,102,102)" stroke-width="1" font-size="13" >3</text>
<text x="291.299156" y="144.800000" fill="rgb(102,102,102)"  stroke="rgb(102,102,102)" stroke-width="1" font-size="16" >CH</text>
<text x="315.299156" y="149.600000" fill="rgb(102,102,102)"  stroke="rgb(102,102,102)" stroke-width="1" font-size="13" >3</text>
<text x="203.645574" y="201.341818" fill="rgb(102,102,102)"  stroke="rgb(102,102,102)" stroke-width="1" font-size="16" >CH</text>
<text x="227.645574" y="206.141818" fill="rgb(102,102,102)"  stroke="rgb(102,102,102)" stroke-width="1" font-size="13" >3</text>
<text x="395.222205" y="48.320000" fill="rgb(255,12,12)"  stroke="rgb(255,12,12)" stroke-width="1" font-size="16" >O</text>
<text x="36.400000" y="311.440397" fill="rgb(255,12,12)"  stroke="rgb(255,12,12)" stroke-width="1" font-size="16" >O</text>
<text x="49.604544" y="390.088451" fill="rgb(255,12,12)"  stroke="rgb(255,12,12)" stroke-width="1" font-size="32" >-</text>
<text x="50.804544" y="375.688451" fill="rgb(255,12,12)"  stroke="rgb(255,12,12)" stroke-width="1" font-size="16" >O</text>
<text x="137.933389" y="341.690402" fill="rgb(191,191,191)"  stroke="rgb(191,191,191)" stroke-width="1" font-size="16" >H</text>
<text x="189.776108" y="88.320000" fill="rgb(191,191,191)"  stroke="rgb(191,191,191)" stroke-width="1" font-size="16" >H</text>
<text x="203.645574" y="91.778182" fill="rgb(191,191,191)"  stroke="rgb(191,191,191)" stroke-width="1" font-size="16" >H</text>
<text x="291.299156" y="144.800000" fill="rgb(191,191,191)"  stroke="rgb(191,191,191)" stroke-width="1" font-size="16" >H</text>
<text font-size="18.000000" fill ="black" font-family="sans-serif"
x="140.000000" y="20.000000" ></text>
<title> - OBDepict</title>
</svg>
