<?xml version="1.0"?>
<svg xmlns="http://www.w3.org/2000/svg"
xmlns:xlink="http://www.w3.org/1999/xlink" xmlns:cml="http://www.xml-cml.org/schema" width="497.626" height="419.787" x="0" y="0" font-family="sans-serif" stroke="rgb(0,0,0)" stroke-width="1" >
<line x1="58.9" y1="296.2" x2="87.3" y2="296.2"/>
<line x1="58.9" y1="302.2" x2="87.3" y2="302.2"/>
<line x1="101.5" y1="323.8" x2="87.3" y2="299.2"/>
<line x1="320.3" y1="48.9" x2="305.6" y2="74.3"/>
<line x1="290.9" y1="48.9" x2="305.6" y2="74.3"/>
<polygon points="272.416460 131.783529 262.604105 106.800752 255.676860 110.802412 " />
<line x1="175.9" y1="153.2" x2="176.3" y2="152.5"/>
<line x1="179.1" y1="155.5" x2="179.9" y2="154.1"/>
<line x1="182.2" y1="157.8" x2="183.4" y2="155.7"/>
<line x1="185.3" y1="160.0" x2="186.9" y2="157.3"/>
<line x1="188.4" y1="162.3" x2="190.4" y2="158.8"/>
<line x1="191.5" y1="164.6" x2="193.9" y2="160.4"/>
<line x1="194.7" y1="166.8" x2="197.5" y2="162.0"/>
<polygon points="206.005291 131.780484 191.383593 109.272099 185.399242 114.581293 " />
<line x1="452.5" y1="221.8" x2="443.0" y2="205.3"/>
<line x1="378.4" y1="162.1" x2="398.2" y2="127.8"/>
<line x1="378.4" y1="162.1" x2="393.1" y2="187.5"/>
<line x1="282.1" y1="341.5" x2="310.1" y2="313.5"/>
<line x1="282.1" y1="341.5" x2="289.7" y2="369.8"/>
<line x1="87.3" y1="299.2" x2="106.4" y2="266.0"/>
<polygon points="106.458217 292.543376 110.444278 266.000340 102.444279 266.004541 " />
<line x1="172.8" y1="189.3" x2="148.2" y2="175.1"/>
<polygon points="316.945342 339.148903 313.939745 312.477049 306.212338 314.547601 " />
<line x1="272.4" y1="93.5" x2="299.9" y2="103.6"/>
<line x1="239.2" y1="151.0" x2="268.0" y2="156.8"/>
<line x1="351.1" y1="71.3" x2="351.8" y2="71.7"/>
<line x1="348.8" y1="74.5" x2="350.2" y2="75.3"/>
<line x1="346.5" y1="77.8" x2="348.5" y2="79.0"/>
<line x1="344.1" y1="81.0" x2="346.9" y2="82.6"/>
<line x1="341.8" y1="84.2" x2="345.3" y2="86.2"/>
<line x1="339.5" y1="87.5" x2="343.6" y2="89.9"/>
<line x1="337.2" y1="90.7" x2="342.0" y2="93.5"/>
<line x1="338.8" y1="93.5" x2="368.1" y2="93.5"/>
<line x1="398.2" y1="124.8" x2="427.5" y2="124.8"/>
<line x1="398.2" y1="130.8" x2="427.5" y2="130.8"/>
<line x1="398.2" y1="127.8" x2="383.5" y2="102.4"/>
<line x1="139.6" y1="208.5" x2="165.0" y2="193.9"/>
<line x1="264.4" y1="303.7" x2="263.9" y2="303.1"/>
<line x1="267.5" y1="301.2" x2="266.4" y2="300.1"/>
<line x1="270.6" y1="298.7" x2="268.9" y2="297.0"/>
<line x1="273.7" y1="296.2" x2="271.4" y2="293.9"/>
<line x1="276.8" y1="293.6" x2="273.9" y2="290.8"/>
<line x1="279.8" y1="291.1" x2="276.4" y2="287.7"/>
<line x1="282.9" y1="288.6" x2="279.0" y2="284.6"/>
<line x1="282.1" y1="285.5" x2="253.8" y2="277.9"/>
<polygon points="266.681287 240.368611 291.282590 251.101615 293.353142 243.374208 " />
<line x1="292.3" y1="247.2" x2="284.7" y2="218.9"/>
<line x1="323.6" y1="212.6" x2="324.4" y2="212.4"/>
<line x1="324.3" y1="216.5" x2="325.8" y2="216.1"/>
<line x1="324.9" y1="220.5" x2="327.2" y2="219.8"/>
<line x1="325.6" y1="224.4" x2="328.6" y2="223.6"/>
<line x1="326.2" y1="228.3" x2="330.1" y2="227.3"/>
<line x1="326.8" y1="232.2" x2="331.5" y2="231.0"/>
<line x1="327.5" y1="236.2" x2="332.9" y2="234.7"/>
<line x1="330.6" y1="237.0" x2="351.3" y2="216.3"/>
<line x1="358.6" y1="265.0" x2="376.4" y2="288.3"/>
<line x1="358.6" y1="265.0" x2="387.9" y2="214.2"/>
<polygon points="106.404017 189.342717 75.196585 166.716904 71.198245 173.646066 " />
<line x1="70.2" y1="170.2" x2="70.2" y2="141.8"/>
<line x1="76.2" y1="170.2" x2="76.2" y2="141.8"/>
<line x1="73.2" y1="170.2" x2="48.6" y2="184.4"/>
<line x1="408.5" y1="196.4" x2="427.5" y2="196.4"/>
<line x1="73.2" y1="246.8" x2="73.2" y2="208.5"/>
<line x1="73.2" y1="208.5" x2="106.4" y2="189.3"/>
<line x1="106.4" y1="189.3" x2="139.6" y2="208.5"/>
<line x1="139.6" y1="208.5" x2="106.4" y2="266.0"/>
<line x1="106.4" y1="266.0" x2="73.2" y2="246.8"/>
<line x1="206.0" y1="93.5" x2="239.2" y2="74.3"/>
<line x1="239.2" y1="74.3" x2="272.4" y2="93.5"/>
<line x1="272.4" y1="93.5" x2="272.4" y2="131.8"/>
<line x1="272.4" y1="131.8" x2="239.2" y2="151.0"/>
<line x1="239.2" y1="151.0" x2="206.0" y2="131.8"/>
<line x1="206.0" y1="131.8" x2="206.0" y2="93.5"/>
<line x1="172.8" y1="189.3" x2="172.8" y2="151.0"/>
<line x1="172.8" y1="151.0" x2="206.0" y2="131.8"/>
<line x1="239.2" y1="151.0" x2="239.2" y2="189.3"/>
<line x1="239.2" y1="189.3" x2="206.0" y2="208.5"/>
<line x1="206.0" y1="208.5" x2="172.8" y2="189.3"/>
<line x1="338.8" y1="93.5" x2="338.8" y2="131.8"/>
<line x1="338.8" y1="131.8" x2="305.6" y2="150.9"/>
<line x1="305.6" y1="150.9" x2="272.4" y2="131.8"/>
<line x1="272.4" y1="93.5" x2="305.6" y2="74.3"/>
<line x1="305.6" y1="74.3" x2="338.8" y2="93.5"/>
<line x1="139.6" y1="131.8" x2="172.8" y2="151.0"/>
<line x1="172.8" y1="189.3" x2="139.6" y2="208.5"/>
<line x1="106.4" y1="189.3" x2="106.4" y2="151.0"/>
<line x1="106.4" y1="151.0" x2="139.6" y2="131.8"/>
<line x1="292.3" y1="247.2" x2="330.6" y2="237.0"/>
<line x1="330.6" y1="237.0" x2="358.6" y2="265.0"/>
<line x1="358.6" y1="265.0" x2="351.0" y2="293.3"/>
<line x1="338.4" y1="305.9" x2="310.1" y2="313.5"/>
<line x1="310.1" y1="313.5" x2="282.1" y2="285.5"/>
<line x1="282.1" y1="285.5" x2="292.3" y2="247.2"/>
<text x="25.329002" y="304.027280" fill="rgb(102,102,102)"  stroke="rgb(102,102,102)" stroke-width="1" font-size="16" >H</text>
<text x="37.329002" y="308.827280" fill="rgb(102,102,102)"  stroke="rgb(102,102,102)" stroke-width="1" font-size="13" >2</text>
<text x="43.829002" y="304.027280" fill="rgb(102,102,102)"  stroke="rgb(102,102,102)" stroke-width="1" font-size="16" >C</text>
<text x="100.460195" y="337.224551" fill="rgb(102,102,102)"  stroke="rgb(102,102,102)" stroke-width="1" font-size="16" >CH</text>
<text x="124.460195" y="342.024551" fill="rgb(102,102,102)"  stroke="rgb(102,102,102)" stroke-width="1" font-size="13" >3</text>
<text x="319.407705" y="48.320000" fill="rgb(102,102,102)"  stroke="rgb(102,102,102)" stroke-width="1" font-size="16" >CH</text>
<text x="343.407705" y="56.000000" fill="rgb(102,102,102)"  stroke="rgb(102,102,102)" stroke-width="1" font-size="13" >3</text>
<text x="262.194363" y="48.320000" fill="rgb(102,102,102)"  stroke="rgb(102,102,102)" stroke-width="1" font-size="16" >H</text>
<text x="274.194363" y="56.000000" fill="rgb(102,102,102)"  stroke="rgb(102,102,102)" stroke-width="1" font-size="13" >3</text>
<text x="280.694363" y="48.320000" fill="rgb(102,102,102)"  stroke="rgb(102,102,102)" stroke-width="1" font-size="16" >C</text>
<text x="229.001569" y="105.802116" fill="rgb(102,102,102)"  stroke="rgb(102,102,102)" stroke-width="1" font-size="16" >H</text>
<text x="241.001569" y="113.482116" fill="rgb(102,102,102)"  stroke="rgb(102,102,102)" stroke-width="1" font-size="13" >3</text>
<text x="247.501569" y="105.802116" fill="rgb(102,102,102)"  stroke="rgb(102,102,102)" stroke-width="1" font-size="16" >C</text>
<text x="200.033937" y="174.942093" fill="rgb(102,102,102)"  stroke="rgb(102,102,102)" stroke-width="1" font-size="16" >CH</text>
<text x="224.033937" y="179.742093" fill="rgb(102,102,102)"  stroke="rgb(102,102,102)" stroke-width="1" font-size="13" >3</text>
<text x="156.115927" y="110.467964" fill="rgb(102,102,102)"  stroke="rgb(102,102,102)" stroke-width="1" font-size="16" >H</text>
<text x="168.115927" y="118.147964" fill="rgb(102,102,102)"  stroke="rgb(102,102,102)" stroke-width="1" font-size="13" >3</text>
<text x="174.615927" y="110.467964" fill="rgb(102,102,102)"  stroke="rgb(102,102,102)" stroke-width="1" font-size="16" >C</text>
<text x="451.625635" y="235.489926" fill="rgb(102,102,102)"  stroke="rgb(102,102,102)" stroke-width="1" font-size="16" >CH</text>
<text x="475.625635" y="240.289926" fill="rgb(102,102,102)"  stroke="rgb(102,102,102)" stroke-width="1" font-size="13" >3</text>
<text x="392.205621" y="204.703766" fill="rgb(12,12,255)"  stroke="rgb(12,12,255)" stroke-width="1" font-size="16" >N</text>
<text x="286.317866" y="384.586738" fill="rgb(255,12,12)"  stroke="rgb(255,12,12)" stroke-width="1" font-size="16" >OH</text>
<text x="431.818964" y="136.091444" fill="rgb(255,12,12)"  stroke="rgb(255,12,12)" stroke-width="1" font-size="16" >O</text>
<text x="228.201628" y="283.568774" fill="rgb(255,12,12)"  stroke="rgb(255,12,12)" stroke-width="1" font-size="16" >HO</text>
<text x="266.465179" y="217.294361" fill="rgb(255,12,12)"  stroke="rgb(255,12,12)" stroke-width="1" font-size="16" >HO</text>
<text x="352.592279" y="217.294361" fill="rgb(255,12,12)"  stroke="rgb(255,12,12)" stroke-width="1" font-size="16" >OH</text>
<text x="67.188228" y="140.163108" fill="rgb(255,12,12)"  stroke="rgb(255,12,12)" stroke-width="1" font-size="16" >O</text>
<text x="24.400000" y="194.158629" fill="rgb(255,12,12)"  stroke="rgb(255,12,12)" stroke-width="1" font-size="16" >HO</text>
<text x="431.818964" y="204.703766" fill="rgb(255,12,12)"  stroke="rgb(255,12,12)" stroke-width="1" font-size="16" >O</text>
<text x="342.339592" y="308.059637" fill="rgb(255,12,12)"  stroke="rgb(255,12,12)" stroke-width="1" font-size="16" >O</text>
<text x="372.398950" y="101.785284" fill="rgb(255,12,12)"  stroke="rgb(255,12,12)" stroke-width="1" font-size="16" >O</text>
<text x="100.465083" y="310.415777" fill="rgb(191,191,191)"  stroke="rgb(191,191,191)" stroke-width="1" font-size="16" >H</text>
<text x="136.011152" y="178.479178" fill="rgb(191,191,191)"  stroke="rgb(191,191,191)" stroke-width="1" font-size="16" >H</text>
<text x="314.328729" y="356.575875" fill="rgb(191,191,191)"  stroke="rgb(191,191,191)" stroke-width="1" font-size="16" >H</text>
<text x="303.568248" y="112.011612" fill="rgb(191,191,191)"  stroke="rgb(191,191,191)" stroke-width="1" font-size="16" >H</text>
<text x="272.052074" y="163.690951" fill="rgb(191,191,191)"  stroke="rgb(191,191,191)" stroke-width="1" font-size="16" >H</text>
<text x="352.592279" y="67.479123" fill="rgb(191,191,191)"  stroke="rgb(191,191,191)" stroke-width="1" font-size="16" >H</text>
<text x="167.943135" y="197.052508" fill="rgb(191,191,191)"  stroke="rgb(191,191,191)" stroke-width="1" font-size="16" >H</text>
<text x="250.454316" y="318.312325" fill="rgb(191,191,191)"  stroke="rgb(191,191,191)" stroke-width="1" font-size="16" >H</text>
<text x="250.454316" y="245.305224" fill="rgb(191,191,191)"  stroke="rgb(191,191,191)" stroke-width="1" font-size="16" >H</text>
<text x="316.728729" y="207.041674" fill="rgb(191,191,191)"  stroke="rgb(191,191,191)" stroke-width="1" font-size="16" >H</text>
<text x="376.707354" y="301.223464" fill="rgb(191,191,191)"  stroke="rgb(191,191,191)" stroke-width="1" font-size="16" >H</text>
<text font-size="18.000000" fill ="black" font-family="sans-serif"
x="140.000000" y="20.000000" ></text>
<title> - OBDepict</title>
</svg>
