<?xml version="1.0"?>
<svg xmlns="http://www.w3.org/2000/svg"
xmlns:xlink="http://www.w3.org/1999/xlink" xmlns:cml="http://www.xml-cml.org/schema" width="343.923" height="338.564" x="0" y="0" font-family="sans-serif" stroke="rgb(0,0,0)" stroke-width="1" >
<line x1="234.9" y1="203.5" x2="234.9" y2="204.3"/>
<line x1="230.9" y1="203.1" x2="230.9" y2="204.7"/>
<line x1="226.9" y1="202.7" x2="226.9" y2="205.1"/>
<line x1="222.9" y1="202.3" x2="222.9" y2="205.5"/>
<line x1="218.9" y1="201.9" x2="218.9" y2="205.9"/>
<line x1="214.9" y1="201.5" x2="214.9" y2="206.3"/>
<line x1="210.9" y1="201.1" x2="210.9" y2="206.7"/>
<line x1="209.3" y1="203.9" x2="224.1" y2="229.6"/>
<polygon points="126.600000 227.132529 143.464102 205.923048 136.535898 201.923048 " />
<line x1="140.0" y1="203.9" x2="110.4" y2="203.9"/>
<polygon points="188.041016 247.132529 178.105118 221.923048 171.176915 225.923048 " />
<line x1="174.6" y1="223.9" x2="159.8" y2="249.6"/>
<polygon points="222.682032 140.713568 205.817931 161.923048 212.746134 165.923048 " />
<line x1="209.3" y1="163.9" x2="238.9" y2="163.9"/>
<polygon points="113.200000 163.923048 140.000000 167.923048 140.000000 159.923048 " />
<line x1="140.0" y1="163.9" x2="125.2" y2="138.3"/>
<line x1="161.5" y1="122.0" x2="162.2" y2="121.6"/>
<line x1="163.1" y1="125.6" x2="164.5" y2="124.8"/>
<line x1="164.8" y1="129.3" x2="166.9" y2="128.1"/>
<line x1="166.5" y1="132.9" x2="169.2" y2="131.3"/>
<line x1="168.1" y1="136.6" x2="171.6" y2="134.6"/>
<line x1="169.8" y1="140.3" x2="173.9" y2="137.9"/>
<line x1="171.4" y1="143.9" x2="176.3" y2="141.1"/>
<line x1="174.6" y1="143.9" x2="189.4" y2="118.3"/>
<line x1="114.6" y1="229.0" x2="114.6" y2="248.2"/>
<line x1="85.0" y1="258.6" x2="104.2" y2="258.6"/>
<line x1="111.6" y1="288.2" x2="111.6" y2="269.0"/>
<line x1="117.6" y1="288.2" x2="117.6" y2="269.0"/>
<line x1="243.6" y1="213.4" x2="260.3" y2="203.8"/>
<line x1="284.1" y1="224.2" x2="274.5" y2="207.6"/>
<line x1="296.4" y1="186.4" x2="279.8" y2="196.0"/>
<line x1="293.4" y1="181.2" x2="276.8" y2="190.8"/>
<line x1="80.0" y1="99.7" x2="80.0" y2="118.9"/>
<line x1="50.4" y1="129.3" x2="69.6" y2="129.3"/>
<line x1="77.0" y1="158.9" x2="77.0" y2="139.7"/>
<line x1="83.0" y1="158.9" x2="83.0" y2="139.7"/>
<line x1="200.3" y1="59.8" x2="183.6" y2="69.4"/>
<line x1="159.8" y1="49.0" x2="169.4" y2="65.6"/>
<line x1="147.5" y1="86.8" x2="164.1" y2="77.2"/>
<line x1="150.5" y1="92.0" x2="167.1" y2="82.4"/>
<line x1="144.2" y1="258.6" x2="125.0" y2="258.6"/>
<line x1="254.5" y1="172.9" x2="264.1" y2="189.6"/>
<line x1="109.6" y1="129.3" x2="90.4" y2="129.3"/>
<line x1="189.4" y1="100.3" x2="179.8" y2="83.6"/>
<line x1="209.3" y1="203.9" x2="174.6" y2="223.9"/>
<line x1="174.6" y1="223.9" x2="140.0" y2="203.9"/>
<line x1="140.0" y1="203.9" x2="140.0" y2="163.9"/>
<line x1="140.0" y1="163.9" x2="174.6" y2="143.9"/>
<line x1="174.6" y1="143.9" x2="209.3" y2="163.9"/>
<line x1="209.3" y1="163.9" x2="209.3" y2="203.9"/>
<text x="223.282032" y="243.364065" fill="rgb(255,12,12)"  stroke="rgb(255,12,12)" stroke-width="1" font-size="16" >OH</text>
<text x="84.400000" y="212.243048" fill="rgb(255,12,12)"  stroke="rgb(255,12,12)" stroke-width="1" font-size="16" >HO</text>
<text x="108.641016" y="226.884065" fill="rgb(255,12,12)"  stroke="rgb(255,12,12)" stroke-width="1" font-size="16" >OH</text>
<text x="59.041016" y="263.364065" fill="rgb(255,12,12)"  stroke="rgb(255,12,12)" stroke-width="1" font-size="16" >HO</text>
<text x="108.641016" y="303.364065" fill="rgb(255,12,12)"  stroke="rgb(255,12,12)" stroke-width="1" font-size="16" >O</text>
<text x="219.041016" y="223.364065" fill="rgb(255,12,12)"  stroke="rgb(255,12,12)" stroke-width="1" font-size="16" >HO</text>
<text x="283.282032" y="238.005081" fill="rgb(255,12,12)"  stroke="rgb(255,12,12)" stroke-width="1" font-size="16" >OH</text>
<text x="297.923048" y="186.884065" fill="rgb(255,12,12)"  stroke="rgb(255,12,12)" stroke-width="1" font-size="16" >O</text>
<text x="74.000000" y="97.602032" fill="rgb(255,12,12)"  stroke="rgb(255,12,12)" stroke-width="1" font-size="16" >OH</text>
<text x="24.400000" y="137.602032" fill="rgb(255,12,12)"  stroke="rgb(255,12,12)" stroke-width="1" font-size="16" >HO</text>
<text x="74.000000" y="174.082032" fill="rgb(255,12,12)"  stroke="rgb(255,12,12)" stroke-width="1" font-size="16" >O</text>
<text x="203.282032" y="62.961016" fill="rgb(255,12,12)"  stroke="rgb(255,12,12)" stroke-width="1" font-size="16" >OH</text>
<text x="139.041016" y="48.320000" fill="rgb(255,12,12)"  stroke="rgb(255,12,12)" stroke-width="1" font-size="16" >HO</text>
<text x="136.400000" y="99.441016" fill="rgb(255,12,12)"  stroke="rgb(255,12,12)" stroke-width="1" font-size="16" >O</text>
<text x="148.641016" y="263.364065" fill="rgb(255,12,12)"  stroke="rgb(255,12,12)" stroke-width="1" font-size="16" >O</text>
<text x="243.282032" y="172.243048" fill="rgb(255,12,12)"  stroke="rgb(255,12,12)" stroke-width="1" font-size="16" >O</text>
<text x="114.000000" y="137.602032" fill="rgb(255,12,12)"  stroke="rgb(255,12,12)" stroke-width="1" font-size="16" >O</text>
<text x="188.641016" y="114.082032" fill="rgb(255,12,12)"  stroke="rgb(255,12,12)" stroke-width="1" font-size="16" >O</text>
<text x="108.641016" y="263.364065" fill="rgb(255,127,0)"  stroke="rgb(255,127,0)" stroke-width="1" font-size="16" >P</text>
<text x="263.282032" y="206.884065" fill="rgb(255,127,0)"  stroke="rgb(255,127,0)" stroke-width="1" font-size="16" >P</text>
<text x="74.000000" y="137.602032" fill="rgb(255,127,0)"  stroke="rgb(255,127,0)" stroke-width="1" font-size="16" >P</text>
<text x="168.641016" y="82.961016" fill="rgb(255,127,0)"  stroke="rgb(255,127,0)" stroke-width="1" font-size="16" >P</text>
<text x="243.282032" y="208.723048" fill="rgb(191,191,191)"  stroke="rgb(191,191,191)" stroke-width="1" font-size="16" >H</text>
<text x="116.400000" y="243.364065" fill="rgb(191,191,191)"  stroke="rgb(191,191,191)" stroke-width="1" font-size="16" >H</text>
<text x="188.641016" y="263.364065" fill="rgb(191,191,191)"  stroke="rgb(191,191,191)" stroke-width="1" font-size="16" >H</text>
<text x="223.282032" y="137.602032" fill="rgb(191,191,191)"  stroke="rgb(191,191,191)" stroke-width="1" font-size="16" >H</text>
<text x="96.400000" y="172.243048" fill="rgb(191,191,191)"  stroke="rgb(191,191,191)" stroke-width="1" font-size="16" >H</text>
<text x="151.041016" y="117.602032" fill="rgb(191,191,191)"  stroke="rgb(191,191,191)" stroke-width="1" font-size="16" >H</text>
<text font-size="18.000000" fill ="black" font-family="sans-serif"
x="140.000000" y="20.000000" ></text>
<title> - OBDepict</title>
</svg>
