<?xml version="1.0"?>
<svg xmlns="http://www.w3.org/2000/svg"
xmlns:xlink="http://www.w3.org/1999/xlink" xmlns:cml="http://www.xml-cml.org/schema" width="379.913" height="245.77" x="0" y="0" font-family="sans-serif" stroke="rgb(0,0,0)" stroke-width="1" >
<line x1="107.4" y1="86.4" x2="106.7" y2="86.1"/>
<line x1="109.4" y1="83.0" x2="107.9" y2="82.4"/>
<line x1="111.3" y1="79.7" x2="109.1" y2="78.7"/>
<line x1="113.3" y1="76.3" x2="110.3" y2="75.0"/>
<line x1="115.2" y1="72.9" x2="111.5" y2="71.3"/>
<line x1="117.1" y1="69.6" x2="112.8" y2="67.6"/>
<line x1="119.1" y1="66.2" x2="114.0" y2="63.9"/>
<line x1="331.2" y1="142.7" x2="315.1" y2="133.5"/>
<polygon points="194.917581 115.483698 170.481750 124.972929 174.481750 131.901133 " />
<line x1="96.3" y1="172.9" x2="95.9" y2="172.2"/>
<line x1="103.2" y1="169.3" x2="102.4" y2="168.0"/>
<line x1="110.1" y1="165.8" x2="108.9" y2="163.7"/>
<line x1="117.0" y1="162.3" x2="115.4" y2="159.5"/>
<line x1="123.9" y1="158.8" x2="121.9" y2="155.3"/>
<line x1="130.8" y1="155.3" x2="128.4" y2="151.1"/>
<line x1="137.7" y1="151.7" x2="134.9" y2="146.9"/>
<polygon points="116.046309 152.103949 109.163300 126.810084 101.854937 130.063978 " />
<line x1="272.9" y1="186.4" x2="297.7" y2="200.7"/>
<line x1="272.9" y1="147.8" x2="297.7" y2="133.5"/>
<polygon points="49.482528 60.486764 66.058411 80.794287 71.411456 74.849128 " />
<line x1="68.7" y1="77.8" x2="74.7" y2="49.8"/>
<line x1="105.5" y1="128.4" x2="68.7" y2="140.4"/>
<line x1="68.7" y1="140.4" x2="46.0" y2="109.1"/>
<line x1="46.0" y1="109.1" x2="68.7" y2="77.8"/>
<line x1="68.7" y1="77.8" x2="105.5" y2="89.8"/>
<line x1="105.5" y1="89.8" x2="105.5" y2="128.4"/>
<line x1="139.0" y1="186.4" x2="172.5" y2="205.8"/>
<line x1="172.5" y1="205.8" x2="206.0" y2="186.4"/>
<line x1="206.0" y1="186.4" x2="206.0" y2="147.8"/>
<line x1="206.0" y1="147.8" x2="172.5" y2="128.4"/>
<line x1="172.5" y1="128.4" x2="139.0" y2="147.8"/>
<line x1="139.0" y1="147.8" x2="139.0" y2="186.4"/>
<line x1="239.5" y1="205.8" x2="272.9" y2="186.4"/>
<line x1="272.9" y1="186.4" x2="272.9" y2="147.8"/>
<line x1="265.7" y1="180.4" x2="265.7" y2="153.8"/>
<line x1="272.9" y1="147.8" x2="239.5" y2="128.4"/>
<line x1="239.5" y1="128.4" x2="206.0" y2="147.8"/>
<line x1="237.9" y1="137.7" x2="214.8" y2="151.0"/>
<line x1="206.0" y1="186.4" x2="239.5" y2="205.8"/>
<line x1="214.8" y1="183.2" x2="237.9" y2="196.5"/>
<line x1="105.5" y1="128.4" x2="139.0" y2="147.8"/>
<line x1="172.5" y1="128.4" x2="172.5" y2="89.8"/>
<line x1="172.5" y1="89.8" x2="139.0" y2="70.4"/>
<line x1="139.0" y1="70.4" x2="105.5" y2="89.8"/>
<text x="115.236269" y="62.766607" fill="rgb(102,102,102)"  stroke="rgb(102,102,102)" stroke-width="1" font-size="16" >CH</text>
<text x="139.236269" y="70.446607" fill="rgb(102,102,102)"  stroke="rgb(102,102,102)" stroke-width="1" font-size="13" >3</text>
<text x="333.913328" y="152.570364" fill="rgb(102,102,102)"  stroke="rgb(102,102,102)" stroke-width="1" font-size="16" >CH</text>
<text x="357.913328" y="157.370364" fill="rgb(102,102,102)"  stroke="rgb(102,102,102)" stroke-width="1" font-size="13" >3</text>
<text x="300.427012" y="210.570364" fill="rgb(255,12,12)"  stroke="rgb(255,12,12)" stroke-width="1" font-size="16" >OH</text>
<text x="70.774185" y="48.320000" fill="rgb(255,12,12)"  stroke="rgb(255,12,12)" stroke-width="1" font-size="16" >OH</text>
<text x="300.427012" y="136.757031" fill="rgb(255,12,12)"  stroke="rgb(255,12,12)" stroke-width="1" font-size="16" >O</text>
<text x="199.968065" y="117.423698" fill="rgb(191,191,191)"  stroke="rgb(191,191,191)" stroke-width="1" font-size="16" >H</text>
<text x="68.422803" y="191.237031" fill="rgb(191,191,191)"  stroke="rgb(191,191,191)" stroke-width="1" font-size="16" >H</text>
<text x="115.236269" y="168.560789" fill="rgb(191,191,191)"  stroke="rgb(191,191,191)" stroke-width="1" font-size="16" >H</text>
<text x="36.400000" y="60.268657" fill="rgb(191,191,191)"  stroke="rgb(191,191,191)" stroke-width="1" font-size="16" >H</text>
<text font-size="18.000000" fill ="black" font-family="sans-serif"
x="140.000000" y="20.000000" ></text>
<title> - OBDepict</title>
</svg>
