<?xml version="1.0"?>
<svg xmlns="http://www.w3.org/2000/svg"
xmlns:xlink="http://www.w3.org/1999/xlink" xmlns:cml="http://www.xml-cml.org/schema" width="1057.97" height="564.132" x="0" y="0" font-family="sans-serif" stroke="rgb(0,0,0)" stroke-width="1" >
<line x1="43.1" y1="441.4" x2="52.1" y2="468.9"/>
<line x1="741.1" y1="115.9" x2="762.6" y2="135.3"/>
<line x1="735.1" y1="144.2" x2="762.6" y2="135.3"/>
<line x1="52.1" y1="468.9" x2="90.3" y2="477.1"/>
<line x1="90.3" y1="477.1" x2="116.5" y2="448.0"/>
<line x1="116.5" y1="448.0" x2="154.7" y2="456.1"/>
<line x1="154.7" y1="456.1" x2="180.9" y2="427.1"/>
<line x1="180.9" y1="427.1" x2="172.0" y2="399.6"/>
<line x1="181.5" y1="424.2" x2="219.8" y2="432.3"/>
<line x1="180.3" y1="430.0" x2="218.5" y2="438.2"/>
<line x1="219.2" y1="435.2" x2="238.5" y2="413.7"/>
<line x1="219.2" y1="435.2" x2="231.2" y2="472.4"/>
<line x1="231.2" y1="472.4" x2="269.5" y2="480.5"/>
<line x1="269.5" y1="480.5" x2="278.4" y2="508.1"/>
<line x1="267.3" y1="478.5" x2="293.4" y2="449.5"/>
<line x1="271.7" y1="482.5" x2="297.9" y2="453.5"/>
<line x1="295.6" y1="451.5" x2="323.9" y2="457.5"/>
<line x1="295.6" y1="451.5" x2="283.6" y2="414.3"/>
<line x1="283.6" y1="414.3" x2="309.7" y2="385.2"/>
<line x1="309.7" y1="385.2" x2="338.0" y2="391.2"/>
<line x1="306.9" y1="386.2" x2="294.8" y2="349.0"/>
<line x1="312.6" y1="384.3" x2="300.5" y2="347.1"/>
<line x1="297.6" y1="348.0" x2="269.3" y2="342.0"/>
<line x1="297.6" y1="348.0" x2="323.8" y2="319.0"/>
<line x1="323.8" y1="319.0" x2="311.7" y2="281.8"/>
<line x1="311.7" y1="281.8" x2="283.4" y2="275.8"/>
<line x1="309.5" y1="279.8" x2="335.7" y2="250.7"/>
<line x1="314.0" y1="283.8" x2="340.1" y2="254.8"/>
<line x1="337.9" y1="252.7" x2="328.9" y2="225.2"/>
<line x1="337.9" y1="252.7" x2="376.1" y2="260.9"/>
<line x1="376.1" y1="260.9" x2="402.3" y2="231.8"/>
<line x1="402.3" y1="231.8" x2="440.5" y2="239.9"/>
<line x1="440.5" y1="239.9" x2="466.7" y2="210.9"/>
<line x1="674.0" y1="81.9" x2="712.3" y2="90.0"/>
<line x1="674.0" y1="81.9" x2="647.9" y2="110.9"/>
<line x1="712.3" y1="90.0" x2="731.6" y2="68.5"/>
<line x1="633.8" y1="177.2" x2="595.5" y2="169.0"/>
<line x1="633.8" y1="177.2" x2="653.1" y2="155.7"/>
<line x1="595.5" y1="169.0" x2="576.2" y2="190.5"/>
<line x1="505.0" y1="219.0" x2="466.7" y2="210.9"/>
<line x1="505.0" y1="219.0" x2="531.1" y2="190.0"/>
<line x1="756.4" y1="352.4" x2="794.7" y2="360.5"/>
<line x1="756.4" y1="352.4" x2="747.5" y2="324.9"/>
<line x1="786.8" y1="209.7" x2="762.6" y2="135.3"/>
<line x1="786.8" y1="209.7" x2="767.4" y2="231.2"/>
<line x1="463.9" y1="211.8" x2="454.9" y2="184.3"/>
<line x1="469.6" y1="210.0" x2="460.6" y2="182.4"/>
<polygon points="786.572498 335.630284 790.863823 361.781896 798.472275 359.309760 " />
<line x1="650.7" y1="110.0" x2="659.7" y2="137.5"/>
<line x1="645.0" y1="111.8" x2="653.9" y2="139.4"/>
<line x1="647.9" y1="110.9" x2="619.6" y2="104.9"/>
<line x1="528.3" y1="190.9" x2="519.3" y2="163.4"/>
<line x1="534.0" y1="189.0" x2="525.0" y2="161.5"/>
<line x1="531.1" y1="190.0" x2="559.4" y2="196.0"/>
<polygon points="818.205971 440.252155 830.105748 416.572679 822.497296 414.100543 " />
<line x1="826.3" y1="415.3" x2="845.7" y2="436.8"/>
<polygon points="764.383115 399.432751 790.580868 403.432751 790.580868 395.432751 " />
<line x1="790.6" y1="399.4" x2="776.1" y2="424.5"/>
<line x1="788.8" y1="106.2" x2="816.3" y2="97.3"/>
<line x1="788.8" y1="106.2" x2="776.7" y2="69.1"/>
<line x1="788.8" y1="106.2" x2="762.6" y2="135.3"/>
<line x1="788.8" y1="106.2" x2="810.3" y2="125.6"/>
<line x1="993.4" y1="487.6" x2="1003.7" y2="514.6"/>
<line x1="776.1" y1="72.0" x2="747.8" y2="66.0"/>
<line x1="777.3" y1="66.1" x2="749.0" y2="60.1"/>
<line x1="776.7" y1="69.1" x2="796.0" y2="47.6"/>
<polygon points="869.137843 366.071193 849.379883 383.733166 855.550678 388.824461 " />
<line x1="852.5" y1="386.3" x2="888.9" y2="431.3"/>
<line x1="731.9" y1="462.2" x2="731.9" y2="443.5"/>
<line x1="703.0" y1="433.3" x2="721.8" y2="433.3"/>
<line x1="734.9" y1="404.4" x2="734.9" y2="423.1"/>
<line x1="728.9" y1="404.4" x2="728.9" y2="423.1"/>
<line x1="700.1" y1="335.4" x2="704.0" y2="317.0"/>
<line x1="678.4" y1="298.1" x2="696.8" y2="302.1"/>
<line x1="677.2" y1="304.0" x2="695.5" y2="307.9"/>
<line x1="694.0" y1="224.6" x2="712.4" y2="228.5"/>
<line x1="731.3" y1="202.9" x2="727.4" y2="221.3"/>
<line x1="725.4" y1="201.7" x2="721.5" y2="220.0"/>
<line x1="734.4" y1="313.1" x2="716.0" y2="309.2"/>
<line x1="750.7" y1="236.6" x2="732.3" y2="232.7"/>
<line x1="760.9" y1="433.3" x2="742.1" y2="433.3"/>
<line x1="712.1" y1="278.8" x2="708.2" y2="297.2"/>
<line x1="716.3" y1="258.9" x2="720.2" y2="240.6"/>
<line x1="891.6" y1="484.8" x2="899.0" y2="456.9"/>
<line x1="911.8" y1="446.5" x2="940.7" y2="445.0"/>
<line x1="940.7" y1="445.0" x2="954.7" y2="481.5"/>
<line x1="954.7" y1="481.5" x2="932.3" y2="499.7"/>
<line x1="915.8" y1="500.6" x2="891.6" y2="484.8"/>
<line x1="918.0" y1="493.4" x2="900.5" y2="482.1"/>
<line x1="794.7" y1="360.5" x2="790.6" y2="399.4"/>
<line x1="790.6" y1="399.4" x2="826.3" y2="415.3"/>
<line x1="826.3" y1="415.3" x2="852.5" y2="386.3"/>
<line x1="852.5" y1="386.3" x2="838.0" y2="361.2"/>
<line x1="823.0" y1="354.5" x2="794.7" y2="360.5"/>
<line x1="940.7" y1="445.0" x2="958.9" y2="422.5"/>
<line x1="950.1" y1="444.9" x2="963.2" y2="428.7"/>
<line x1="975.4" y1="416.2" x2="1004.0" y2="420.7"/>
<line x1="1004.0" y1="420.7" x2="1014.3" y2="447.7"/>
<line x1="999.4" y1="428.9" x2="1006.9" y2="448.4"/>
<line x1="1011.6" y1="465.1" x2="993.4" y2="487.6"/>
<line x1="993.4" y1="487.6" x2="954.7" y2="481.5"/>
<line x1="988.6" y1="479.6" x2="961.8" y2="475.3"/>
<text x="16.400000" y="440.078536" fill="rgb(102,102,102)"  stroke="rgb(102,102,102)" stroke-width="1" font-size="16" >H</text>
<text x="28.400000" y="447.758536" fill="rgb(102,102,102)"  stroke="rgb(102,102,102)" stroke-width="1" font-size="13" >3</text>
<text x="34.900000" y="440.078536" fill="rgb(102,102,102)"  stroke="rgb(102,102,102)" stroke-width="1" font-size="16" >C</text>
<text x="709.937766" y="117.459215" fill="rgb(102,102,102)"  stroke="rgb(102,102,102)" stroke-width="1" font-size="16" >H</text>
<text x="721.937766" y="125.139215" fill="rgb(102,102,102)"  stroke="rgb(102,102,102)" stroke-width="1" font-size="13" >3</text>
<text x="728.437766" y="117.459215" fill="rgb(102,102,102)"  stroke="rgb(102,102,102)" stroke-width="1" font-size="16" >C</text>
<text x="701.808185" y="152.185885" fill="rgb(102,102,102)"  stroke="rgb(102,102,102)" stroke-width="1" font-size="16" >H</text>
<text x="713.808185" y="156.985885" fill="rgb(102,102,102)"  stroke="rgb(102,102,102)" stroke-width="1" font-size="13" >3</text>
<text x="720.308185" y="152.185885" fill="rgb(102,102,102)"  stroke="rgb(102,102,102)" stroke-width="1" font-size="16" >C</text>
<text x="1001.371989" y="528.931830" fill="rgb(12,12,255)"  stroke="rgb(12,12,255)" stroke-width="1" font-size="16" >NH</text>
<text x="1025.371989" y="533.731830" fill="rgb(12,12,255)"  stroke="rgb(12,12,255)" stroke-width="1" font-size="13" >2</text>
<text x="653.938464" y="152.901610" fill="rgb(12,12,255)"  stroke="rgb(12,12,255)" stroke-width="1" font-size="16" >N</text>
<text x="734.829740" y="69.248217" fill="rgb(12,12,255)"  stroke="rgb(12,12,255)" stroke-width="1" font-size="16" >N</text>
<text x="1011.966534" y="462.040506" fill="rgb(12,12,255)"  stroke="rgb(12,12,255)" stroke-width="1" font-size="16" >N</text>
<text x="961.734221" y="422.939699" fill="rgb(12,12,255)"  stroke="rgb(12,12,255)" stroke-width="1" font-size="16" >N</text>
<text x="918.352396" y="510.918157" fill="rgb(12,12,255)"  stroke="rgb(12,12,255)" stroke-width="1" font-size="16" >N</text>
<text x="895.679549" y="451.853374" fill="rgb(12,12,255)"  stroke="rgb(12,12,255)" stroke-width="1" font-size="16" >N</text>
<text x="451.024266" y="182.018882" fill="rgb(255,12,12)"  stroke="rgb(255,12,12)" stroke-width="1" font-size="16" >O</text>
<text x="604.808882" y="96.384651" fill="rgb(255,12,12)"  stroke="rgb(255,12,12)" stroke-width="1" font-size="32" >-</text>
<text x="606.008882" y="111.104651" fill="rgb(255,12,12)"  stroke="rgb(255,12,12)" stroke-width="1" font-size="16" >O</text>
<text x="515.434695" y="161.090665" fill="rgb(255,12,12)"  stroke="rgb(255,12,12)" stroke-width="1" font-size="16" >O</text>
<text x="846.465281" y="449.194409" fill="rgb(255,12,12)"  stroke="rgb(255,12,12)" stroke-width="1" font-size="16" >OH</text>
<text x="811.817120" y="137.208935" fill="rgb(255,12,12)"  stroke="rgb(255,12,12)" stroke-width="1" font-size="16" >OH</text>
<text x="798.040169" y="33.600000" fill="rgb(255,12,12)"  stroke="rgb(255,12,12)" stroke-width="1" font-size="32" >-</text>
<text x="796.840169" y="48.320000" fill="rgb(255,12,12)"  stroke="rgb(255,12,12)" stroke-width="1" font-size="16" >O</text>
<text x="727.129183" y="491.596441" fill="rgb(255,12,12)"  stroke="rgb(255,12,12)" stroke-width="1" font-size="32" >-</text>
<text x="725.929183" y="477.196441" fill="rgb(255,12,12)"  stroke="rgb(255,12,12)" stroke-width="1" font-size="16" >O</text>
<text x="688.028059" y="426.895318" fill="rgb(255,12,12)"  stroke="rgb(255,12,12)" stroke-width="1" font-size="32" >-</text>
<text x="689.228059" y="441.615318" fill="rgb(255,12,12)"  stroke="rgb(255,12,12)" stroke-width="1" font-size="16" >O</text>
<text x="725.929183" y="402.514194" fill="rgb(255,12,12)"  stroke="rgb(255,12,12)" stroke-width="1" font-size="16" >O</text>
<text x="682.362216" y="350.145958" fill="rgb(255,12,12)"  stroke="rgb(255,12,12)" stroke-width="1" font-size="16" >HO</text>
<text x="664.245126" y="307.289707" fill="rgb(255,12,12)"  stroke="rgb(255,12,12)" stroke-width="1" font-size="16" >O</text>
<text x="668.504288" y="230.796367" fill="rgb(255,12,12)"  stroke="rgb(255,12,12)" stroke-width="1" font-size="16" >HO</text>
<text x="724.480539" y="200.679277" fill="rgb(255,12,12)"  stroke="rgb(255,12,12)" stroke-width="1" font-size="16" >O</text>
<text x="738.338467" y="323.548869" fill="rgb(255,12,12)"  stroke="rgb(255,12,12)" stroke-width="1" font-size="16" >O</text>
<text x="754.597628" y="243.535528" fill="rgb(255,12,12)"  stroke="rgb(255,12,12)" stroke-width="1" font-size="16" >O</text>
<text x="826.914719" y="360.736247" fill="rgb(255,12,12)"  stroke="rgb(255,12,12)" stroke-width="1" font-size="16" >O</text>
<text x="765.030307" y="438.095318" fill="rgb(255,12,12)"  stroke="rgb(255,12,12)" stroke-width="1" font-size="16" >O</text>
<text x="708.221377" y="277.172618" fill="rgb(255,12,12)"  stroke="rgb(255,12,12)" stroke-width="1" font-size="16" >O</text>
<text x="725.929183" y="438.095318" fill="rgb(255,127,0)"  stroke="rgb(255,127,0)" stroke-width="1" font-size="16" >P</text>
<text x="700.091797" y="311.899288" fill="rgb(255,127,0)"  stroke="rgb(255,127,0)" stroke-width="1" font-size="16" >P</text>
<text x="716.350958" y="238.925947" fill="rgb(255,127,0)"  stroke="rgb(255,127,0)" stroke-width="1" font-size="16" >P</text>
<text x="563.364277" y="202.887625" fill="rgb(178,178,0)"  stroke="rgb(178,178,0)" stroke-width="1" font-size="16" >S</text>
<text x="165.220858" y="398.222102" fill="rgb(191,191,191)"  stroke="rgb(191,191,191)" stroke-width="1" font-size="16" >H</text>
<text x="239.314198" y="414.481264" fill="rgb(191,191,191)"  stroke="rgb(191,191,191)" stroke-width="1" font-size="16" >H</text>
<text x="275.562933" y="522.523399" fill="rgb(191,191,191)"  stroke="rgb(191,191,191)" stroke-width="1" font-size="16" >H</text>
<text x="327.890450" y="464.407804" fill="rgb(191,191,191)"  stroke="rgb(191,191,191)" stroke-width="1" font-size="16" >H</text>
<text x="341.971297" y="398.162628" fill="rgb(191,191,191)"  stroke="rgb(191,191,191)" stroke-width="1" font-size="16" >H</text>
<text x="255.795045" y="348.236088" fill="rgb(191,191,191)"  stroke="rgb(191,191,191)" stroke-width="1" font-size="16" >H</text>
<text x="269.875892" y="281.990912" fill="rgb(191,191,191)"  stroke="rgb(191,191,191)" stroke-width="1" font-size="16" >H</text>
<text x="322.203409" y="223.875316" fill="rgb(191,191,191)"  stroke="rgb(191,191,191)" stroke-width="1" font-size="16" >H</text>
<text x="778.985137" y="331.678449" fill="rgb(191,191,191)"  stroke="rgb(191,191,191)" stroke-width="1" font-size="16" >H</text>
<text x="810.618610" y="457.323989" fill="rgb(191,191,191)"  stroke="rgb(191,191,191)" stroke-width="1" font-size="16" >H</text>
<text x="747.879745" y="407.752751" fill="rgb(191,191,191)"  stroke="rgb(191,191,191)" stroke-width="1" font-size="16" >H</text>
<text x="819.946700" y="102.482264" fill="rgb(191,191,191)"  stroke="rgb(191,191,191)" stroke-width="1" font-size="16" >H</text>
<text x="871.349701" y="364.438186" fill="rgb(191,191,191)"  stroke="rgb(191,191,191)" stroke-width="1" font-size="16" >H</text>
<text font-size="18.000000" fill ="black" font-family="sans-serif"
x="140.000000" y="20.000000" ></text>
<title> - OBDepict</title>
</svg>
