<?xml version="1.0"?>
<svg xmlns="http://www.w3.org/2000/svg"
xmlns:xlink="http://www.w3.org/1999/xlink" xmlns:cml="http://www.xml-cml.org/schema" width="628.505" height="540.378" x="0" y="0" font-family="sans-serif" stroke="rgb(0,0,0)" stroke-width="1" >
<line x1="220.3" y1="329.5" x2="198.6" y2="349.1"/>
<line x1="192.5" y1="320.5" x2="198.6" y2="349.1"/>
<line x1="578.5" y1="477.9" x2="559.9" y2="481.8"/>
<line x1="521.5" y1="350.3" x2="550.1" y2="344.2"/>
<line x1="519.3" y1="352.3" x2="492.9" y2="323.0"/>
<line x1="523.7" y1="348.3" x2="497.3" y2="319.0"/>
<line x1="521.5" y1="350.3" x2="509.3" y2="387.8"/>
<line x1="495.1" y1="321.0" x2="504.1" y2="293.2"/>
<line x1="495.1" y1="321.0" x2="456.5" y2="329.2"/>
<line x1="304.2" y1="466.3" x2="277.8" y2="437.0"/>
<line x1="304.2" y1="466.3" x2="342.8" y2="458.1"/>
<line x1="277.8" y1="437.0" x2="249.2" y2="443.1"/>
<line x1="393.5" y1="412.4" x2="405.7" y2="374.9"/>
<line x1="393.5" y1="412.4" x2="365.0" y2="418.5"/>
<line x1="405.7" y1="374.9" x2="434.3" y2="368.8"/>
<line x1="129.4" y1="213.3" x2="168.0" y2="205.1"/>
<line x1="129.4" y1="213.3" x2="120.3" y2="241.0"/>
<line x1="160.0" y1="357.3" x2="198.6" y2="349.1"/>
<line x1="160.0" y1="357.3" x2="140.4" y2="335.6"/>
<line x1="458.5" y1="433.5" x2="430.0" y2="439.6"/>
<line x1="523.5" y1="454.7" x2="543.1" y2="476.3"/>
<polygon points="159.792946 230.193340 171.765380 206.290249 164.156928 203.818113 " />
<line x1="339.9" y1="457.2" x2="348.9" y2="429.5"/>
<line x1="345.6" y1="459.1" x2="354.6" y2="431.3"/>
<line x1="342.8" y1="458.1" x2="362.3" y2="479.8"/>
<line x1="454.3" y1="331.2" x2="434.7" y2="309.5"/>
<line x1="458.7" y1="327.2" x2="439.2" y2="305.5"/>
<line x1="456.5" y1="329.2" x2="447.5" y2="356.9"/>
<line x1="484.9" y1="462.9" x2="475.9" y2="490.6"/>
<line x1="191.7" y1="125.9" x2="192.5" y2="125.6"/>
<line x1="192.5" y1="129.8" x2="194.1" y2="129.3"/>
<line x1="193.4" y1="133.6" x2="195.7" y2="132.9"/>
<line x1="194.2" y1="137.5" x2="197.3" y2="136.5"/>
<line x1="195.1" y1="141.4" x2="198.9" y2="140.1"/>
<line x1="195.9" y1="145.3" x2="200.5" y2="143.8"/>
<line x1="196.7" y1="149.1" x2="202.1" y2="147.4"/>
<line x1="199.9" y1="149.8" x2="219.4" y2="128.1"/>
<line x1="138.6" y1="166.2" x2="138.6" y2="165.4"/>
<line x1="142.5" y1="166.6" x2="142.5" y2="165.0"/>
<line x1="146.5" y1="167.0" x2="146.5" y2="164.6"/>
<line x1="150.4" y1="167.4" x2="150.4" y2="164.2"/>
<line x1="154.4" y1="167.8" x2="154.4" y2="163.8"/>
<line x1="158.3" y1="168.2" x2="158.3" y2="163.4"/>
<line x1="162.3" y1="168.6" x2="162.3" y2="163.0"/>
<line x1="163.8" y1="165.8" x2="149.2" y2="140.5"/>
<line x1="249.1" y1="385.8" x2="248.9" y2="386.6"/>
<line x1="245.5" y1="384.2" x2="245.0" y2="385.7"/>
<line x1="241.9" y1="382.6" x2="241.1" y2="384.9"/>
<line x1="238.2" y1="381.0" x2="237.2" y2="384.1"/>
<line x1="234.6" y1="379.4" x2="233.4" y2="383.2"/>
<line x1="231.0" y1="377.8" x2="229.5" y2="382.4"/>
<line x1="227.3" y1="376.2" x2="225.6" y2="381.5"/>
<line x1="225.0" y1="378.4" x2="212.8" y2="415.9"/>
<line x1="225.0" y1="378.4" x2="198.6" y2="349.1"/>
<line x1="225.0" y1="378.4" x2="246.7" y2="358.9"/>
<line x1="368.4" y1="76.8" x2="378.9" y2="49.6"/>
<line x1="215.0" y1="413.9" x2="234.5" y2="435.6"/>
<line x1="210.6" y1="417.9" x2="230.1" y2="439.6"/>
<line x1="212.8" y1="415.9" x2="184.2" y2="422.0"/>
<polygon points="243.099311 199.479226 229.362511 176.544595 223.191716 181.635890 " />
<line x1="226.3" y1="179.1" x2="263.0" y2="133.7"/>
<line x1="104.7" y1="102.5" x2="104.7" y2="121.4"/>
<line x1="75.5" y1="131.7" x2="94.4" y2="131.7"/>
<line x1="101.7" y1="160.8" x2="101.7" y2="141.9"/>
<line x1="107.7" y1="160.8" x2="107.7" y2="141.9"/>
<line x1="72.5" y1="230.4" x2="76.5" y2="248.9"/>
<line x1="49.4" y1="262.1" x2="67.9" y2="258.2"/>
<line x1="50.7" y1="268.0" x2="69.2" y2="264.0"/>
<line x1="66.4" y1="342.2" x2="85.0" y2="338.3"/>
<line x1="98.1" y1="365.3" x2="94.2" y2="346.8"/>
<line x1="104.0" y1="364.1" x2="100.1" y2="345.6"/>
<line x1="107.1" y1="252.9" x2="88.6" y2="256.8"/>
<line x1="123.6" y1="330.1" x2="105.0" y2="334.0"/>
<line x1="133.9" y1="131.7" x2="114.9" y2="131.7"/>
<line x1="84.7" y1="287.5" x2="80.7" y2="269.0"/>
<line x1="88.9" y1="307.6" x2="92.9" y2="326.1"/>
<line x1="265.7" y1="79.7" x2="273.3" y2="107.9"/>
<line x1="286.2" y1="118.3" x2="315.3" y2="119.8"/>
<line x1="315.3" y1="119.8" x2="329.5" y2="83.0"/>
<line x1="329.5" y1="83.0" x2="306.8" y2="64.6"/>
<line x1="290.2" y1="63.8" x2="265.7" y2="79.7"/>
<line x1="292.4" y1="70.9" x2="274.7" y2="82.4"/>
<line x1="168.0" y1="205.1" x2="163.8" y2="165.8"/>
<line x1="163.8" y1="165.8" x2="199.9" y2="149.8"/>
<line x1="199.9" y1="149.8" x2="226.3" y2="179.1"/>
<line x1="226.3" y1="179.1" x2="211.7" y2="204.4"/>
<line x1="196.5" y1="211.1" x2="168.0" y2="205.1"/>
<line x1="315.3" y1="119.8" x2="333.7" y2="142.5"/>
<line x1="324.7" y1="120.0" x2="338.0" y2="136.4"/>
<line x1="350.3" y1="148.9" x2="379.1" y2="144.3"/>
<line x1="379.1" y1="144.3" x2="389.6" y2="117.1"/>
<line x1="374.6" y1="136.1" x2="382.1" y2="116.4"/>
<line x1="386.8" y1="99.5" x2="368.4" y2="76.8"/>
<line x1="368.4" y1="76.8" x2="329.5" y2="83.0"/>
<line x1="363.6" y1="84.9" x2="336.5" y2="89.2"/>
<line x1="470.7" y1="396.0" x2="509.3" y2="387.8"/>
<line x1="478.1" y1="401.8" x2="504.9" y2="396.1"/>
<line x1="509.3" y1="387.8" x2="535.7" y2="417.1"/>
<line x1="535.7" y1="417.1" x2="523.5" y2="454.7"/>
<line x1="527.0" y1="420.6" x2="518.5" y2="446.7"/>
<line x1="523.5" y1="454.7" x2="484.9" y2="462.9"/>
<line x1="484.9" y1="462.9" x2="458.5" y2="433.5"/>
<line x1="486.3" y1="453.6" x2="467.9" y2="433.2"/>
<line x1="458.5" y1="433.5" x2="470.7" y2="396.0"/>
<text x="221.892053" y="330.995193" fill="rgb(102,102,102)"  stroke="rgb(102,102,102)" stroke-width="1" font-size="16" >CH</text>
<text x="245.892053" y="338.675193" fill="rgb(102,102,102)"  stroke="rgb(102,102,102)" stroke-width="1" font-size="13" >3</text>
<text x="166.770919" y="318.803838" fill="rgb(102,102,102)"  stroke="rgb(102,102,102)" stroke-width="1" font-size="16" >H</text>
<text x="178.770919" y="326.483838" fill="rgb(102,102,102)"  stroke="rgb(102,102,102)" stroke-width="1" font-size="13" >3</text>
<text x="185.270919" y="318.803838" fill="rgb(102,102,102)"  stroke="rgb(102,102,102)" stroke-width="1" font-size="16" >C</text>
<text x="582.504523" y="484.090052" fill="rgb(102,102,102)"  stroke="rgb(102,102,102)" stroke-width="1" font-size="16" >CH</text>
<text x="606.504523" y="491.770052" fill="rgb(102,102,102)"  stroke="rgb(102,102,102)" stroke-width="1" font-size="13" >3</text>
<text x="376.574104" y="48.320000" fill="rgb(12,12,255)"  stroke="rgb(12,12,255)" stroke-width="1" font-size="16" >NH</text>
<text x="400.574104" y="56.000000" fill="rgb(12,12,255)"  stroke="rgb(12,12,255)" stroke-width="1" font-size="13" >2</text>
<text x="351.349060" y="428.944455" fill="rgb(12,12,255)"  stroke="rgb(12,12,255)" stroke-width="1" font-size="16" >N</text>
<text x="235.579262" y="450.032085" fill="rgb(12,12,255)"  stroke="rgb(12,12,255)" stroke-width="1" font-size="16" >N</text>
<text x="387.263735" y="115.811671" fill="rgb(12,12,255)"  stroke="rgb(12,12,255)" stroke-width="1" font-size="16" >N</text>
<text x="336.559049" y="155.294998" fill="rgb(12,12,255)"  stroke="rgb(12,12,255)" stroke-width="1" font-size="16" >N</text>
<text x="292.809413" y="66.495345" fill="rgb(12,12,255)"  stroke="rgb(12,12,255)" stroke-width="1" font-size="16" >N</text>
<text x="269.933079" y="126.090232" fill="rgb(12,12,255)"  stroke="rgb(12,12,255)" stroke-width="1" font-size="16" >N</text>
<text x="415.137570" y="460.940502" fill="rgb(255,12,12)"  stroke="rgb(255,12,12)" stroke-width="1" font-size="32" >-</text>
<text x="416.337570" y="446.540502" fill="rgb(255,12,12)"  stroke="rgb(255,12,12)" stroke-width="1" font-size="16" >O</text>
<text x="364.356282" y="506.664179" fill="rgb(255,12,12)"  stroke="rgb(255,12,12)" stroke-width="1" font-size="32" >-</text>
<text x="363.156282" y="492.264179" fill="rgb(255,12,12)"  stroke="rgb(255,12,12)" stroke-width="1" font-size="16" >O</text>
<text x="426.513059" y="308.178510" fill="rgb(255,12,12)"  stroke="rgb(255,12,12)" stroke-width="1" font-size="16" >O</text>
<text x="467.934725" y="519.577682" fill="rgb(255,12,12)"  stroke="rgb(255,12,12)" stroke-width="1" font-size="32" >-</text>
<text x="469.134725" y="505.177682" fill="rgb(255,12,12)"  stroke="rgb(255,12,12)" stroke-width="1" font-size="16" >O</text>
<text x="220.277114" y="128.773062" fill="rgb(255,12,12)"  stroke="rgb(255,12,12)" stroke-width="1" font-size="16" >OH</text>
<text x="248.290630" y="360.313783" fill="rgb(255,12,12)"  stroke="rgb(255,12,12)" stroke-width="1" font-size="16" >OH</text>
<text x="169.390752" y="443.316038" fill="rgb(255,12,12)"  stroke="rgb(255,12,12)" stroke-width="1" font-size="32" >-</text>
<text x="170.590752" y="428.916038" fill="rgb(255,12,12)"  stroke="rgb(255,12,12)" stroke-width="1" font-size="16" >O</text>
<text x="98.659209" y="100.519712" fill="rgb(255,12,12)"  stroke="rgb(255,12,12)" stroke-width="1" font-size="16" >OH</text>
<text x="49.607154" y="136.451767" fill="rgb(255,12,12)"  stroke="rgb(255,12,12)" stroke-width="1" font-size="16" >HO</text>
<text x="98.659209" y="175.903822" fill="rgb(255,12,12)"  stroke="rgb(255,12,12)" stroke-width="1" font-size="16" >O</text>
<text x="54.787389" y="228.710469" fill="rgb(255,12,12)"  stroke="rgb(255,12,12)" stroke-width="1" font-size="16" >HO</text>
<text x="36.400000" y="271.982945" fill="rgb(255,12,12)"  stroke="rgb(255,12,12)" stroke-width="1" font-size="16" >O</text>
<text x="40.805087" y="349.162810" fill="rgb(255,12,12)"  stroke="rgb(255,12,12)" stroke-width="1" font-size="16" >HO</text>
<text x="97.197563" y="379.550200" fill="rgb(255,12,12)"  stroke="rgb(255,12,12)" stroke-width="1" font-size="16" >O</text>
<text x="546.314590" y="488.772596" fill="rgb(255,12,12)"  stroke="rgb(255,12,12)" stroke-width="1" font-size="16" >O</text>
<text x="111.179865" y="255.577858" fill="rgb(255,12,12)"  stroke="rgb(255,12,12)" stroke-width="1" font-size="16" >O</text>
<text x="127.584952" y="336.277723" fill="rgb(255,12,12)"  stroke="rgb(255,12,12)" stroke-width="1" font-size="16" >O</text>
<text x="200.551086" y="218.056724" fill="rgb(255,12,12)"  stroke="rgb(255,12,12)" stroke-width="1" font-size="16" >O</text>
<text x="138.111264" y="139.971767" fill="rgb(255,12,12)"  stroke="rgb(255,12,12)" stroke-width="1" font-size="16" >O</text>
<text x="80.792476" y="302.370334" fill="rgb(255,12,12)"  stroke="rgb(255,12,12)" stroke-width="1" font-size="16" >O</text>
<text x="98.659209" y="139.971767" fill="rgb(255,127,0)"  stroke="rgb(255,127,0)" stroke-width="1" font-size="16" >P</text>
<text x="72.589933" y="263.780401" fill="rgb(255,127,0)"  stroke="rgb(255,127,0)" stroke-width="1" font-size="16" >P</text>
<text x="88.995020" y="344.480267" fill="rgb(255,127,0)"  stroke="rgb(255,127,0)" stroke-width="1" font-size="16" >P</text>
<text x="438.320281" y="371.498234" fill="rgb(178,178,0)"  stroke="rgb(178,178,0)" stroke-width="1" font-size="16" >S</text>
<text x="554.090079" y="350.410604" fill="rgb(191,191,191)"  stroke="rgb(191,191,191)" stroke-width="1" font-size="16" >H</text>
<text x="501.292924" y="291.773423" fill="rgb(191,191,191)"  stroke="rgb(191,191,191)" stroke-width="1" font-size="16" >H</text>
<text x="152.169798" y="247.375315" fill="rgb(191,191,191)"  stroke="rgb(191,191,191)" stroke-width="1" font-size="16" >H</text>
<text x="184.087181" y="120.570518" fill="rgb(191,191,191)"  stroke="rgb(191,191,191)" stroke-width="1" font-size="16" >H</text>
<text x="120.785236" y="170.618248" fill="rgb(191,191,191)"  stroke="rgb(191,191,191)" stroke-width="1" font-size="16" >H</text>
<text x="256.493174" y="395.383716" fill="rgb(191,191,191)"  stroke="rgb(191,191,191)" stroke-width="1" font-size="16" >H</text>
<text x="245.384871" y="214.321561" fill="rgb(191,191,191)"  stroke="rgb(191,191,191)" stroke-width="1" font-size="16" >H</text>
<text font-size="18.000000" fill ="black" font-family="sans-serif"
x="140.000000" y="20.000000" ></text>
<title> - OBDepict</title>
</svg>
