<?xml version="1.0"?>
<svg xmlns="http://www.w3.org/2000/svg"
xmlns:xlink="http://www.w3.org/1999/xlink" xmlns:cml="http://www.xml-cml.org/schema" width="497.128" height="420" x="0" y="0" font-family="sans-serif" stroke="rgb(0,0,0)" stroke-width="1" >
<line x1="451.9" y1="116.4" x2="437.1" y2="90.7"/>
<line x1="437.1" y1="90.7" x2="397.1" y2="90.7"/>
<line x1="397.1" y1="90.7" x2="377.1" y2="125.4"/>
<line x1="178.6" y1="160.0" x2="213.2" y2="140.0"/>
<line x1="178.6" y1="160.0" x2="178.6" y2="200.0"/>
<line x1="213.2" y1="140.0" x2="213.2" y2="100.0"/>
<line x1="178.6" y1="200.0" x2="143.9" y2="220.0"/>
<line x1="213.2" y1="100.0" x2="187.6" y2="85.2"/>
<line x1="211.7" y1="97.4" x2="246.3" y2="77.4"/>
<line x1="214.7" y1="102.6" x2="249.3" y2="82.6"/>
<line x1="143.9" y1="220.0" x2="143.9" y2="260.0"/>
<line x1="247.8" y1="80.0" x2="247.8" y2="50.4"/>
<line x1="247.8" y1="80.0" x2="282.5" y2="100.0"/>
<line x1="143.9" y1="260.0" x2="109.3" y2="280.0"/>
<line x1="377.1" y1="125.4" x2="337.1" y2="125.4"/>
<line x1="282.5" y1="100.0" x2="308.1" y2="85.2"/>
<line x1="285.5" y1="100.0" x2="285.5" y2="140.0"/>
<line x1="279.5" y1="100.0" x2="279.5" y2="140.0"/>
<line x1="109.3" y1="280.0" x2="109.3" y2="320.0"/>
<line x1="337.1" y1="125.4" x2="317.1" y2="160.0"/>
<line x1="282.5" y1="140.0" x2="256.9" y2="154.8"/>
<line x1="282.5" y1="140.0" x2="317.1" y2="160.0"/>
<line x1="109.3" y1="320.0" x2="74.6" y2="340.0"/>
<polygon points="340.337610 173.400000 319.128129 156.535898 315.128129 163.464102 " />
<line x1="317.1" y1="160.0" x2="302.3" y2="185.6"/>
<line x1="77.6" y1="340.0" x2="77.6" y2="369.6"/>
<line x1="71.6" y1="340.0" x2="71.6" y2="369.6"/>
<line x1="74.6" y1="340.0" x2="49.0" y2="325.2"/>
<line x1="311.9" y1="220.3" x2="302.3" y2="203.6"/>
<text x="451.128129" y="130.158984" fill="rgb(102,102,102)"  stroke="rgb(102,102,102)" stroke-width="1" font-size="16" >CH</text>
<text x="475.128129" y="134.958984" fill="rgb(102,102,102)"  stroke="rgb(102,102,102)" stroke-width="1" font-size="13" >3</text>
<text x="68.641016" y="384.800000" fill="rgb(255,12,12)"  stroke="rgb(255,12,12)" stroke-width="1" font-size="16" >O</text>
<text x="35.200000" y="313.600000" fill="rgb(255,12,12)"  stroke="rgb(255,12,12)" stroke-width="1" font-size="32" >-</text>
<text x="36.400000" y="328.320000" fill="rgb(255,12,12)"  stroke="rgb(255,12,12)" stroke-width="1" font-size="16" >O</text>
<text x="311.128129" y="234.082032" fill="rgb(255,12,12)"  stroke="rgb(255,12,12)" stroke-width="1" font-size="16" >OH</text>
<text x="293.528129" y="202.961016" fill="rgb(255,12,12)"  stroke="rgb(255,12,12)" stroke-width="1" font-size="16" >O</text>
<text x="174.964065" y="88.320000" fill="rgb(191,191,191)"  stroke="rgb(191,191,191)" stroke-width="1" font-size="16" >H</text>
<text x="241.846097" y="48.320000" fill="rgb(191,191,191)"  stroke="rgb(191,191,191)" stroke-width="1" font-size="16" >H</text>
<text x="311.128129" y="88.320000" fill="rgb(191,191,191)"  stroke="rgb(191,191,191)" stroke-width="1" font-size="16" >H</text>
<text x="244.246097" y="164.800000" fill="rgb(191,191,191)"  stroke="rgb(191,191,191)" stroke-width="1" font-size="16" >H</text>
<text x="345.769145" y="184.800000" fill="rgb(191,191,191)"  stroke="rgb(191,191,191)" stroke-width="1" font-size="16" >H</text>
<text font-size="18.000000" fill ="black" font-family="sans-serif"
x="140.000000" y="20.000000" ></text>
<title> - OBDepict</title>
</svg>
