<?xml version="1.0"?>
<svg xmlns="http://www.w3.org/2000/svg"
xmlns:xlink="http://www.w3.org/1999/xlink" xmlns:cml="http://www.xml-cml.org/schema" width="697.77" height="335.334" x="0" y="0" font-family="sans-serif" stroke="rgb(0,0,0)" stroke-width="1" >
<line x1="140.0" y1="110.4" x2="180.0" y2="110.4"/>
<line x1="140.0" y1="110.4" x2="125.2" y2="136.0"/>
<line x1="494.0" y1="173.4" x2="464.3" y2="200.2"/>
<line x1="494.0" y1="173.4" x2="522.2" y2="182.5"/>
<line x1="203.5" y1="78.0" x2="194.4" y2="49.9"/>
<line x1="468.5" y1="239.9" x2="494.1" y2="254.7"/>
<line x1="241.6" y1="90.4" x2="265.5" y2="73.0"/>
<line x1="431.9" y1="256.2" x2="425.8" y2="285.2"/>
<line x1="269.7" y1="193.7" x2="242.7" y2="205.7"/>
<line x1="241.6" y1="130.4" x2="265.5" y2="147.8"/>
<line x1="405.2" y1="226.5" x2="375.7" y2="229.6"/>
<line x1="83.0" y1="115.4" x2="83.0" y2="134.6"/>
<line x1="77.0" y1="115.4" x2="77.0" y2="134.6"/>
<line x1="50.4" y1="145.0" x2="69.6" y2="145.0"/>
<line x1="80.0" y1="174.6" x2="80.0" y2="155.4"/>
<line x1="631.6" y1="126.8" x2="612.8" y2="130.8"/>
<line x1="630.3" y1="120.9" x2="611.6" y2="124.9"/>
<line x1="595.9" y1="101.0" x2="599.8" y2="119.8"/>
<line x1="573.1" y1="136.1" x2="591.8" y2="132.2"/>
<line x1="510.8" y1="228.1" x2="529.6" y2="224.1"/>
<line x1="512.1" y1="234.0" x2="530.8" y2="230.0"/>
<line x1="546.5" y1="253.8" x2="542.6" y2="235.1"/>
<line x1="621.9" y1="237.8" x2="617.9" y2="219.0"/>
<line x1="627.7" y1="236.6" x2="623.7" y2="217.8"/>
<line x1="647.6" y1="202.1" x2="628.8" y2="206.1"/>
<line x1="109.6" y1="145.0" x2="90.4" y2="145.0"/>
<line x1="534.2" y1="195.9" x2="538.2" y2="214.7"/>
<line x1="608.2" y1="158.9" x2="604.2" y2="140.2"/>
<line x1="612.5" y1="179.3" x2="616.5" y2="198.1"/>
<line x1="569.3" y1="218.7" x2="550.6" y2="222.7"/>
<line x1="589.7" y1="214.4" x2="608.5" y2="210.4"/>
<line x1="302.1" y1="217.2" x2="305.2" y2="246.6"/>
<line x1="316.4" y1="259.1" x2="345.4" y2="265.3"/>
<line x1="319.9" y1="252.5" x2="341.0" y2="257.0"/>
<line x1="345.4" y1="265.3" x2="360.2" y2="239.7"/>
<line x1="358.4" y1="222.9" x2="338.6" y2="200.9"/>
<line x1="338.6" y1="200.9" x2="302.1" y2="217.2"/>
<line x1="336.1" y1="210.0" x2="310.5" y2="221.3"/>
<line x1="431.9" y1="256.2" x2="405.2" y2="226.5"/>
<line x1="405.2" y1="226.5" x2="420.0" y2="200.8"/>
<line x1="435.4" y1="194.0" x2="464.3" y2="200.2"/>
<line x1="464.3" y1="200.2" x2="468.5" y2="239.9"/>
<line x1="468.5" y1="239.9" x2="431.9" y2="256.2"/>
<line x1="180.0" y1="110.4" x2="203.5" y2="78.0"/>
<line x1="203.5" y1="78.0" x2="241.6" y2="90.4"/>
<line x1="241.6" y1="90.4" x2="241.6" y2="130.4"/>
<line x1="241.6" y1="130.4" x2="213.4" y2="139.5"/>
<line x1="197.4" y1="134.3" x2="180.0" y2="110.4"/>
<line x1="272.8" y1="164.3" x2="269.7" y2="193.7"/>
<line x1="279.8" y1="167.0" x2="277.5" y2="188.5"/>
<line x1="269.7" y1="193.7" x2="302.1" y2="217.2"/>
<line x1="338.6" y1="200.9" x2="341.7" y2="171.5"/>
<line x1="334.4" y1="155.0" x2="310.5" y2="137.6"/>
<line x1="328.6" y1="159.7" x2="311.1" y2="147.0"/>
<line x1="310.5" y1="137.6" x2="283.4" y2="149.7"/>
<text x="209.591394" y="214.764692" fill="rgb(12,12,255)"  stroke="rgb(12,12,255)" stroke-width="1" font-size="16" >H</text>
<text x="221.591394" y="219.564692" fill="rgb(12,12,255)"  stroke="rgb(12,12,255)" stroke-width="1" font-size="13" >2</text>
<text x="228.091394" y="214.764692" fill="rgb(12,12,255)"  stroke="rgb(12,12,255)" stroke-width="1" font-size="16" >N</text>
<text x="302.675030" y="261.787512" fill="rgb(12,12,255)"  stroke="rgb(12,12,255)" stroke-width="1" font-size="16" >N</text>
<text x="336.816849" y="169.476295" fill="rgb(12,12,255)"  stroke="rgb(12,12,255)" stroke-width="1" font-size="16" >N</text>
<text x="269.114351" y="173.114351" fill="rgb(12,12,255)"  stroke="rgb(12,12,255)" stroke-width="1" font-size="16" >+</text>
<text x="267.914351" y="158.714351" fill="rgb(12,12,255)"  stroke="rgb(12,12,255)" stroke-width="1" font-size="16" >N</text>
<text x="359.400934" y="238.982964" fill="rgb(12,12,255)"  stroke="rgb(12,12,255)" stroke-width="1" font-size="16" >N</text>
<text x="175.550730" y="48.320000" fill="rgb(255,12,12)"  stroke="rgb(255,12,12)" stroke-width="1" font-size="16" >HO</text>
<text x="497.129869" y="264.738152" fill="rgb(255,12,12)"  stroke="rgb(255,12,12)" stroke-width="1" font-size="16" >OH</text>
<text x="267.914351" y="75.211530" fill="rgb(255,12,12)"  stroke="rgb(255,12,12)" stroke-width="1" font-size="16" >OH</text>
<text x="408.030567" y="300.133522" fill="rgb(255,12,12)"  stroke="rgb(255,12,12)" stroke-width="1" font-size="16" >HO</text>
<text x="74.000000" y="113.363957" fill="rgb(255,12,12)"  stroke="rgb(255,12,12)" stroke-width="1" font-size="16" >O</text>
<text x="24.400000" y="153.363957" fill="rgb(255,12,12)"  stroke="rgb(255,12,12)" stroke-width="1" font-size="16" >HO</text>
<text x="74.000000" y="189.843957" fill="rgb(255,12,12)"  stroke="rgb(255,12,12)" stroke-width="1" font-size="16" >OH</text>
<text x="635.137012" y="129.997425" fill="rgb(255,12,12)"  stroke="rgb(255,12,12)" stroke-width="1" font-size="16" >O</text>
<text x="578.094641" y="99.187989" fill="rgb(255,12,12)"  stroke="rgb(255,12,12)" stroke-width="1" font-size="16" >HO</text>
<text x="547.285204" y="143.110361" fill="rgb(255,12,12)"  stroke="rgb(255,12,12)" stroke-width="1" font-size="16" >HO</text>
<text x="497.666331" y="237.995104" fill="rgb(255,12,12)"  stroke="rgb(255,12,12)" stroke-width="1" font-size="16" >O</text>
<text x="542.708703" y="268.804540" fill="rgb(255,12,12)"  stroke="rgb(255,12,12)" stroke-width="1" font-size="16" >OH</text>
<text x="620.960511" y="252.171605" fill="rgb(255,12,12)"  stroke="rgb(255,12,12)" stroke-width="1" font-size="16" >O</text>
<text x="651.769948" y="208.249233" fill="rgb(255,12,12)"  stroke="rgb(255,12,12)" stroke-width="1" font-size="16" >OH</text>
<text x="114.000000" y="149.843957" fill="rgb(255,12,12)"  stroke="rgb(255,12,12)" stroke-width="1" font-size="16" >O</text>
<text x="526.075768" y="194.072732" fill="rgb(255,12,12)"  stroke="rgb(255,12,12)" stroke-width="1" font-size="16" >O</text>
<text x="199.911410" y="147.563620" fill="rgb(255,12,12)"  stroke="rgb(255,12,12)" stroke-width="1" font-size="16" >O</text>
<text x="421.581810" y="200.160809" fill="rgb(255,12,12)"  stroke="rgb(255,12,12)" stroke-width="1" font-size="16" >O</text>
<text x="604.327576" y="177.439797" fill="rgb(255,12,12)"  stroke="rgb(255,12,12)" stroke-width="1" font-size="16" >O</text>
<text x="573.518139" y="221.362169" fill="rgb(255,12,12)"  stroke="rgb(255,12,12)" stroke-width="1" font-size="16" >O</text>
<text x="74.000000" y="149.843957" fill="rgb(255,127,0)"  stroke="rgb(255,127,0)" stroke-width="1" font-size="16" >P</text>
<text x="596.011108" y="134.793893" fill="rgb(255,127,0)"  stroke="rgb(255,127,0)" stroke-width="1" font-size="16" >P</text>
<text x="534.392235" y="233.198636" fill="rgb(255,127,0)"  stroke="rgb(255,127,0)" stroke-width="1" font-size="16" >P</text>
<text x="612.644044" y="213.045701" fill="rgb(255,127,0)"  stroke="rgb(255,127,0)" stroke-width="1" font-size="16" >P</text>
<text font-size="18.000000" fill ="black" font-family="sans-serif"
x="140.000000" y="20.000000" ></text>
<title> - OBDepict</title>
</svg>
