<?xml version="1.0"?>
<svg xmlns="http://www.w3.org/2000/svg"
xmlns:xlink="http://www.w3.org/1999/xlink" xmlns:cml="http://www.xml-cml.org/schema" width="634.256" height="940" x="0" y="0" font-family="sans-serif" stroke="rgb(0,0,0)" stroke-width="1" >
<line x1="49.0" y1="54.8" x2="74.6" y2="40.0"/>
<line x1="585.2" y1="894.8" x2="559.6" y2="880.0"/>
<line x1="74.6" y1="40.0" x2="109.3" y2="60.0"/>
<line x1="559.6" y1="880.0" x2="559.6" y2="840.0"/>
<line x1="109.3" y1="60.0" x2="109.3" y2="100.0"/>
<line x1="559.6" y1="840.0" x2="525.0" y2="820.0"/>
<line x1="109.3" y1="100.0" x2="143.9" y2="120.0"/>
<line x1="525.0" y1="820.0" x2="525.0" y2="780.0"/>
<line x1="143.9" y1="120.0" x2="143.9" y2="160.0"/>
<line x1="525.0" y1="780.0" x2="490.3" y2="760.0"/>
<line x1="143.9" y1="160.0" x2="178.6" y2="180.0"/>
<line x1="490.3" y1="760.0" x2="490.3" y2="720.0"/>
<line x1="178.6" y1="180.0" x2="178.6" y2="220.0"/>
<line x1="490.3" y1="720.0" x2="455.7" y2="700.0"/>
<line x1="178.6" y1="220.0" x2="213.2" y2="240.0"/>
<line x1="455.7" y1="700.0" x2="455.7" y2="660.0"/>
<line x1="213.2" y1="240.0" x2="213.2" y2="280.0"/>
<line x1="213.2" y1="280.0" x2="247.8" y2="300.0"/>
<line x1="455.7" y1="660.0" x2="421.1" y2="640.0"/>
<line x1="247.8" y1="300.0" x2="247.8" y2="340.0"/>
<line x1="421.1" y1="640.0" x2="421.1" y2="600.0"/>
<line x1="247.8" y1="340.0" x2="282.5" y2="360.0"/>
<line x1="421.1" y1="600.0" x2="386.4" y2="580.0"/>
<line x1="282.5" y1="360.0" x2="282.5" y2="400.0"/>
<line x1="386.4" y1="580.0" x2="386.4" y2="540.0"/>
<line x1="282.5" y1="400.0" x2="317.1" y2="420.0"/>
<line x1="386.4" y1="540.0" x2="351.8" y2="520.0"/>
<line x1="317.1" y1="420.0" x2="317.1" y2="460.0"/>
<line x1="351.8" y1="520.0" x2="351.8" y2="480.0"/>
<line x1="317.1" y1="460.0" x2="351.8" y2="480.0"/>
<line x1="351.8" y1="480.0" x2="377.4" y2="465.2"/>
<text x="16.400000" y="64.800000" fill="rgb(102,102,102)"  stroke="rgb(102,102,102)" stroke-width="1" font-size="16" >H</text>
<text x="28.400000" y="69.600000" fill="rgb(102,102,102)"  stroke="rgb(102,102,102)" stroke-width="1" font-size="13" >3</text>
<text x="34.900000" y="64.800000" fill="rgb(102,102,102)"  stroke="rgb(102,102,102)" stroke-width="1" font-size="16" >C</text>
<text x="588.256258" y="904.800000" fill="rgb(102,102,102)"  stroke="rgb(102,102,102)" stroke-width="1" font-size="16" >CH</text>
<text x="612.256258" y="909.600000" fill="rgb(102,102,102)"  stroke="rgb(102,102,102)" stroke-width="1" font-size="13" >3</text>
<text x="380.410162" y="468.320000" fill="rgb(255,12,12)"  stroke="rgb(255,12,12)" stroke-width="1" font-size="16" >OH</text>
<text font-size="18.000000" fill ="black" font-family="sans-serif"
x="140.000000" y="20.000000" ></text>
<title> - OBDepict</title>
</svg>
