<?xml version="1.0"?>
<svg xmlns="http://www.w3.org/2000/svg"
xmlns:xlink="http://www.w3.org/1999/xlink" xmlns:cml="http://www.xml-cml.org/schema" width="1084.59" height="540" x="0" y="0" font-family="sans-serif" stroke="rgb(0,0,0)" stroke-width="1" >
<line x1="40.0" y1="369.6" x2="40.0" y2="340.0"/>
<line x1="1044.6" y1="50.4" x2="1044.6" y2="80.0"/>
<line x1="40.0" y1="340.0" x2="74.6" y2="320.0"/>
<line x1="1044.6" y1="80.0" x2="1009.9" y2="100.0"/>
<line x1="74.6" y1="320.0" x2="109.3" y2="340.0"/>
<line x1="1009.9" y1="100.0" x2="1009.9" y2="140.0"/>
<line x1="109.3" y1="340.0" x2="143.9" y2="320.0"/>
<line x1="1009.9" y1="140.0" x2="975.3" y2="160.0"/>
<line x1="143.9" y1="320.0" x2="178.6" y2="340.0"/>
<line x1="975.3" y1="160.0" x2="975.3" y2="200.0"/>
<line x1="178.6" y1="340.0" x2="213.2" y2="320.0"/>
<line x1="975.3" y1="200.0" x2="940.7" y2="220.0"/>
<line x1="213.2" y1="320.0" x2="247.8" y2="340.0"/>
<line x1="940.7" y1="220.0" x2="940.7" y2="260.0"/>
<line x1="247.8" y1="340.0" x2="282.5" y2="320.0"/>
<line x1="940.7" y1="260.0" x2="906.0" y2="280.0"/>
<line x1="282.5" y1="320.0" x2="282.5" y2="290.4"/>
<line x1="284.0" y1="317.4" x2="318.6" y2="337.4"/>
<line x1="281.0" y1="322.6" x2="315.6" y2="342.6"/>
<line x1="317.1" y1="340.0" x2="342.8" y2="325.2"/>
<line x1="317.1" y1="340.0" x2="317.1" y2="380.0"/>
<line x1="906.0" y1="280.0" x2="871.4" y2="260.0"/>
<line x1="317.1" y1="380.0" x2="351.8" y2="400.0"/>
<line x1="351.8" y1="400.0" x2="386.4" y2="380.0"/>
<line x1="871.4" y1="260.0" x2="836.7" y2="280.0"/>
<line x1="386.4" y1="380.0" x2="421.1" y2="400.0"/>
<line x1="836.7" y1="280.0" x2="836.7" y2="320.0"/>
<line x1="421.1" y1="400.0" x2="455.7" y2="380.0"/>
<line x1="836.7" y1="320.0" x2="802.1" y2="340.0"/>
<line x1="455.7" y1="380.0" x2="490.3" y2="400.0"/>
<line x1="802.1" y1="340.0" x2="767.5" y2="320.0"/>
<line x1="490.3" y1="400.0" x2="525.0" y2="380.0"/>
<line x1="767.5" y1="320.0" x2="732.8" y2="340.0"/>
<line x1="525.0" y1="380.0" x2="559.6" y2="400.0"/>
<line x1="732.8" y1="340.0" x2="698.2" y2="320.0"/>
<line x1="975.3" y1="280.0" x2="975.3" y2="320.0"/>
<line x1="975.3" y1="280.0" x2="1000.9" y2="265.2"/>
<line x1="628.9" y1="400.0" x2="663.5" y2="380.0"/>
<line x1="628.9" y1="400.0" x2="603.3" y2="385.2"/>
<line x1="698.2" y1="400.0" x2="663.5" y2="380.0"/>
<line x1="698.2" y1="400.0" x2="723.8" y2="385.2"/>
<line x1="871.4" y1="380.0" x2="836.7" y2="400.0"/>
<line x1="871.4" y1="380.0" x2="897.0" y2="394.8"/>
<line x1="663.5" y1="380.0" x2="663.5" y2="350.4"/>
<line x1="562.6" y1="400.0" x2="562.6" y2="429.6"/>
<line x1="556.6" y1="400.0" x2="556.6" y2="429.6"/>
<line x1="559.6" y1="400.0" x2="585.2" y2="385.2"/>
<line x1="695.2" y1="320.0" x2="695.2" y2="290.4"/>
<line x1="701.2" y1="320.0" x2="701.2" y2="290.4"/>
<line x1="698.2" y1="320.0" x2="672.5" y2="334.8"/>
<line x1="1009.9" y1="340.0" x2="1035.6" y2="325.2"/>
<line x1="836.7" y1="440.0" x2="862.4" y2="454.8"/>
<line x1="1009.9" y1="380.0" x2="1035.6" y2="394.8"/>
<line x1="802.1" y1="460.0" x2="802.1" y2="489.6"/>
<line x1="975.3" y1="400.0" x2="975.3" y2="429.6"/>
<line x1="767.5" y1="440.0" x2="741.8" y2="454.8"/>
<line x1="767.5" y1="400.0" x2="741.8" y2="385.2"/>
<line x1="940.7" y1="380.0" x2="915.0" y2="394.8"/>
<line x1="1009.9" y1="380.0" x2="975.3" y2="400.0"/>
<line x1="975.3" y1="400.0" x2="940.7" y2="380.0"/>
<line x1="940.7" y1="380.0" x2="940.7" y2="350.4"/>
<line x1="949.7" y1="334.8" x2="975.3" y2="320.0"/>
<line x1="975.3" y1="320.0" x2="1009.9" y2="340.0"/>
<line x1="1009.9" y1="340.0" x2="1009.9" y2="380.0"/>
<line x1="802.1" y1="460.0" x2="767.5" y2="440.0"/>
<line x1="767.5" y1="440.0" x2="767.5" y2="400.0"/>
<line x1="767.5" y1="400.0" x2="793.1" y2="385.2"/>
<line x1="811.1" y1="385.2" x2="836.7" y2="400.0"/>
<line x1="836.7" y1="400.0" x2="836.7" y2="440.0"/>
<line x1="836.7" y1="440.0" x2="802.1" y2="460.0"/>
<text x="34.000000" y="384.800000" fill="rgb(102,102,102)"  stroke="rgb(102,102,102)" stroke-width="1" font-size="16" >CH</text>
<text x="58.000000" y="389.600000" fill="rgb(102,102,102)"  stroke="rgb(102,102,102)" stroke-width="1" font-size="13" >3</text>
<text x="1038.589468" y="48.320000" fill="rgb(102,102,102)"  stroke="rgb(102,102,102)" stroke-width="1" font-size="16" >CH</text>
<text x="1062.589468" y="56.000000" fill="rgb(102,102,102)"  stroke="rgb(102,102,102)" stroke-width="1" font-size="13" >3</text>
<text x="1003.948452" y="268.320000" fill="rgb(255,12,12)"  stroke="rgb(255,12,12)" stroke-width="1" font-size="16" >OH</text>
<text x="553.615242" y="444.800000" fill="rgb(255,12,12)"  stroke="rgb(255,12,12)" stroke-width="1" font-size="16" >O</text>
<text x="692.179307" y="288.320000" fill="rgb(255,12,12)"  stroke="rgb(255,12,12)" stroke-width="1" font-size="16" >O</text>
<text x="1038.589468" y="328.320000" fill="rgb(255,12,12)"  stroke="rgb(255,12,12)" stroke-width="1" font-size="16" >OH</text>
<text x="865.384388" y="464.800000" fill="rgb(255,12,12)"  stroke="rgb(255,12,12)" stroke-width="1" font-size="16" >OH</text>
<text x="1038.589468" y="404.800000" fill="rgb(255,12,12)"  stroke="rgb(255,12,12)" stroke-width="1" font-size="16" >OH</text>
<text x="796.102355" y="504.800000" fill="rgb(255,12,12)"  stroke="rgb(255,12,12)" stroke-width="1" font-size="16" >OH</text>
<text x="969.307436" y="444.800000" fill="rgb(255,12,12)"  stroke="rgb(255,12,12)" stroke-width="1" font-size="16" >OH</text>
<text x="717.220323" y="464.800000" fill="rgb(255,12,12)"  stroke="rgb(255,12,12)" stroke-width="1" font-size="16" >HO</text>
<text x="588.256258" y="388.320000" fill="rgb(255,12,12)"  stroke="rgb(255,12,12)" stroke-width="1" font-size="16" >O</text>
<text x="726.820323" y="388.320000" fill="rgb(255,12,12)"  stroke="rgb(255,12,12)" stroke-width="1" font-size="16" >O</text>
<text x="900.025404" y="404.800000" fill="rgb(255,12,12)"  stroke="rgb(255,12,12)" stroke-width="1" font-size="16" >O</text>
<text x="659.938291" y="348.320000" fill="rgb(255,12,12)"  stroke="rgb(255,12,12)" stroke-width="1" font-size="16" >O</text>
<text x="937.066420" y="348.320000" fill="rgb(255,12,12)"  stroke="rgb(255,12,12)" stroke-width="1" font-size="16" >O</text>
<text x="796.102355" y="388.320000" fill="rgb(255,12,12)"  stroke="rgb(255,12,12)" stroke-width="1" font-size="16" >O</text>
<text x="276.487113" y="288.320000" fill="rgb(191,191,191)"  stroke="rgb(191,191,191)" stroke-width="1" font-size="16" >H</text>
<text x="345.769145" y="328.320000" fill="rgb(191,191,191)"  stroke="rgb(191,191,191)" stroke-width="1" font-size="16" >H</text>
<text font-size="18.000000" fill ="black" font-family="sans-serif"
x="140.000000" y="20.000000" ></text>
<title> - OBDepict</title>
</svg>
