<?xml version="1.0"?>
<svg xmlns="http://www.w3.org/2000/svg"
xmlns:xlink="http://www.w3.org/1999/xlink" xmlns:cml="http://www.xml-cml.org/schema" width="434.181" height="413.019" x="0" y="0" font-family="sans-serif" stroke="rgb(0,0,0)" stroke-width="1" >
<line x1="109.2" y1="71.9" x2="136.4" y2="71.9"/>
<line x1="150.0" y1="48.3" x2="136.4" y2="71.9"/>
<line x1="384.6" y1="135.7" x2="357.4" y2="135.7"/>
<line x1="343.7" y1="112.1" x2="357.4" y2="135.7"/>
<line x1="354.9" y1="311.7" x2="329.0" y2="320.1"/>
<line x1="323.3" y1="346.7" x2="329.0" y2="320.1"/>
<line x1="379.4" y1="172.2" x2="363.4" y2="194.3"/>
<line x1="374.5" y1="219.2" x2="363.4" y2="194.3"/>
<line x1="118.2" y1="163.5" x2="145.3" y2="160.6"/>
<line x1="156.4" y1="135.7" x2="145.3" y2="160.6"/>
<line x1="61.7" y1="295.3" x2="67.4" y2="322.0"/>
<line x1="47.1" y1="340.2" x2="67.4" y2="322.0"/>
<line x1="143.8" y1="270.9" x2="149.5" y2="244.3"/>
<line x1="129.2" y1="226.0" x2="149.5" y2="244.3"/>
<line x1="139.9" y1="299.0" x2="167.0" y2="301.9"/>
<line x1="178.0" y1="326.8" x2="167.0" y2="301.9"/>
<line x1="191.4" y1="351.8" x2="215.0" y2="338.2"/>
<line x1="238.6" y1="351.8" x2="215.0" y2="338.2"/>
<line x1="302.3" y1="336.5" x2="275.2" y2="339.4"/>
<line x1="264.1" y1="364.3" x2="275.2" y2="339.4"/>
<line x1="154.8" y1="103.8" x2="191.6" y2="103.8"/>
<line x1="152.2" y1="105.3" x2="133.8" y2="73.4"/>
<line x1="157.4" y1="102.3" x2="139.0" y2="70.4"/>
<line x1="338.9" y1="167.6" x2="302.1" y2="167.6"/>
<line x1="336.3" y1="166.1" x2="354.8" y2="134.2"/>
<line x1="341.5" y1="169.1" x2="360.0" y2="137.2"/>
<line x1="301.6" y1="295.4" x2="309.3" y2="259.4"/>
<line x1="303.6" y1="293.2" x2="331.0" y2="317.8"/>
<line x1="299.6" y1="297.7" x2="327.0" y2="322.3"/>
<line x1="326.8" y1="190.4" x2="305.1" y2="220.2"/>
<line x1="327.1" y1="187.4" x2="363.7" y2="191.3"/>
<line x1="326.5" y1="193.4" x2="363.1" y2="197.2"/>
<line x1="167.0" y1="190.4" x2="203.6" y2="186.6"/>
<line x1="164.5" y1="192.2" x2="142.9" y2="162.4"/>
<line x1="169.4" y1="188.7" x2="147.7" y2="158.9"/>
<line x1="102.4" y1="333.3" x2="211.9" y2="234.8"/>
<line x1="101.5" y1="336.2" x2="66.4" y2="324.8"/>
<line x1="103.3" y1="330.5" x2="68.3" y2="319.1"/>
<line x1="184.5" y1="232.9" x2="211.9" y2="257.5"/>
<line x1="185.4" y1="235.7" x2="150.4" y2="247.1"/>
<line x1="183.6" y1="230.0" x2="148.5" y2="241.4"/>
<line x1="188.6" y1="272.1" x2="225.2" y2="275.9"/>
<line x1="191.0" y1="273.9" x2="169.4" y2="303.7"/>
<line x1="186.2" y1="270.3" x2="164.5" y2="300.1"/>
<line x1="215.0" y1="301.4" x2="246.9" y2="283.0"/>
<line x1="218.0" y1="301.4" x2="218.0" y2="338.2"/>
<line x1="212.0" y1="301.4" x2="212.0" y2="338.2"/>
<line x1="253.5" y1="309.6" x2="268.5" y2="275.9"/>
<line x1="256.0" y1="307.8" x2="277.6" y2="337.6"/>
<line x1="251.1" y1="311.3" x2="272.8" y2="341.1"/>
<line x1="191.6" y1="103.8" x2="205.3" y2="127.4"/>
<line x1="302.1" y1="167.6" x2="288.5" y2="144.0"/>
<line x1="309.3" y1="259.4" x2="289.0" y2="241.2"/>
<line x1="305.1" y1="220.2" x2="278.0" y2="217.4"/>
<line x1="203.6" y1="186.6" x2="235.6" y2="230.7"/>
<line x1="211.9" y1="234.8" x2="237.8" y2="243.2"/>
<line x1="211.9" y1="257.5" x2="237.8" y2="249.1"/>
<line x1="225.2" y1="275.9" x2="241.3" y2="253.9"/>
<line x1="246.9" y1="283.0" x2="246.9" y2="255.7"/>
<line x1="268.5" y1="275.9" x2="252.5" y2="253.9"/>
<line x1="249.9" y1="108.4" x2="249.9" y2="126.1"/>
<line x1="243.9" y1="108.4" x2="243.9" y2="126.1"/>
<line x1="271.9" y1="257.4" x2="255.1" y2="252.0"/>
<line x1="273.7" y1="251.7" x2="256.9" y2="246.3"/>
<line x1="219.6" y1="135.7" x2="237.3" y2="135.7"/>
<line x1="274.1" y1="135.7" x2="256.5" y2="135.7"/>
<line x1="272.8" y1="237.7" x2="256.0" y2="243.2"/>
<line x1="262.9" y1="224.1" x2="252.5" y2="238.4"/>
<line x1="246.9" y1="190.2" x2="246.9" y2="154.8"/>
<line x1="246.9" y1="218.9" x2="246.9" y2="236.6"/>
<text x="75.977495" y="76.691729" fill="rgb(102,102,102)"  stroke="rgb(102,102,102)" stroke-width="1" font-size="16" >H</text>
<text x="87.977495" y="81.491729" fill="rgb(102,102,102)"  stroke="rgb(102,102,102)" stroke-width="1" font-size="13" >3</text>
<text x="94.477495" y="76.691729" fill="rgb(102,102,102)"  stroke="rgb(102,102,102)" stroke-width="1" font-size="16" >C</text>
<text x="148.815591" y="48.320000" fill="rgb(102,102,102)"  stroke="rgb(102,102,102)" stroke-width="1" font-size="16" >CH</text>
<text x="172.815591" y="56.000000" fill="rgb(102,102,102)"  stroke="rgb(102,102,102)" stroke-width="1" font-size="13" >3</text>
<text x="388.180670" y="143.995187" fill="rgb(102,102,102)"  stroke="rgb(102,102,102)" stroke-width="1" font-size="16" >CH</text>
<text x="412.180670" y="151.675187" fill="rgb(102,102,102)"  stroke="rgb(102,102,102)" stroke-width="1" font-size="13" >3</text>
<text x="315.342575" y="112.103458" fill="rgb(102,102,102)"  stroke="rgb(102,102,102)" stroke-width="1" font-size="16" >H</text>
<text x="327.342575" y="119.783458" fill="rgb(102,102,102)"  stroke="rgb(102,102,102)" stroke-width="1" font-size="13" >3</text>
<text x="333.842575" y="112.103458" fill="rgb(102,102,102)"  stroke="rgb(102,102,102)" stroke-width="1" font-size="16" >C</text>
<text x="358.001926" y="317.014705" fill="rgb(102,102,102)"  stroke="rgb(102,102,102)" stroke-width="1" font-size="16" >CH</text>
<text x="382.001926" y="324.694705" fill="rgb(102,102,102)"  stroke="rgb(102,102,102)" stroke-width="1" font-size="13" >3</text>
<text x="297.722461" y="360.895052" fill="rgb(102,102,102)"  stroke="rgb(102,102,102)" stroke-width="1" font-size="16" >H</text>
<text x="309.722461" y="365.695052" fill="rgb(102,102,102)"  stroke="rgb(102,102,102)" stroke-width="1" font-size="13" >3</text>
<text x="316.222461" y="360.895052" fill="rgb(102,102,102)"  stroke="rgb(102,102,102)" stroke-width="1" font-size="16" >C</text>
<text x="379.062685" y="172.792867" fill="rgb(102,102,102)"  stroke="rgb(102,102,102)" stroke-width="1" font-size="16" >CH</text>
<text x="403.062685" y="180.472867" fill="rgb(102,102,102)"  stroke="rgb(102,102,102)" stroke-width="1" font-size="13" >3</text>
<text x="372.395498" y="232.706913" fill="rgb(102,102,102)"  stroke="rgb(102,102,102)" stroke-width="1" font-size="16" >CH</text>
<text x="396.395498" y="237.506913" fill="rgb(102,102,102)"  stroke="rgb(102,102,102)" stroke-width="1" font-size="13" >3</text>
<text x="85.095480" y="169.272867" fill="rgb(102,102,102)"  stroke="rgb(102,102,102)" stroke-width="1" font-size="16" >H</text>
<text x="97.095480" y="174.072867" fill="rgb(102,102,102)"  stroke="rgb(102,102,102)" stroke-width="1" font-size="13" >3</text>
<text x="103.595480" y="169.272867" fill="rgb(102,102,102)"  stroke="rgb(102,102,102)" stroke-width="1" font-size="16" >C</text>
<text x="154.297382" y="135.301891" fill="rgb(102,102,102)"  stroke="rgb(102,102,102)" stroke-width="1" font-size="16" >CH</text>
<text x="178.297382" y="142.981891" fill="rgb(102,102,102)"  stroke="rgb(102,102,102)" stroke-width="1" font-size="13" >3</text>
<text x="36.110173" y="294.255358" fill="rgb(102,102,102)"  stroke="rgb(102,102,102)" stroke-width="1" font-size="16" >H</text>
<text x="48.110173" y="301.935358" fill="rgb(102,102,102)"  stroke="rgb(102,102,102)" stroke-width="1" font-size="13" >3</text>
<text x="54.610173" y="294.255358" fill="rgb(102,102,102)"  stroke="rgb(102,102,102)" stroke-width="1" font-size="16" >C</text>
<text x="16.400000" y="351.397032" fill="rgb(102,102,102)"  stroke="rgb(102,102,102)" stroke-width="1" font-size="16" >H</text>
<text x="28.400000" y="356.197032" fill="rgb(102,102,102)"  stroke="rgb(102,102,102)" stroke-width="1" font-size="13" >3</text>
<text x="34.900000" y="351.397032" fill="rgb(102,102,102)"  stroke="rgb(102,102,102)" stroke-width="1" font-size="16" >C</text>
<text x="118.209982" y="285.090398" fill="rgb(102,102,102)"  stroke="rgb(102,102,102)" stroke-width="1" font-size="16" >H</text>
<text x="130.209982" y="289.890398" fill="rgb(102,102,102)"  stroke="rgb(102,102,102)" stroke-width="1" font-size="13" >3</text>
<text x="136.709982" y="285.090398" fill="rgb(102,102,102)"  stroke="rgb(102,102,102)" stroke-width="1" font-size="16" >C</text>
<text x="98.499809" y="227.948725" fill="rgb(102,102,102)"  stroke="rgb(102,102,102)" stroke-width="1" font-size="16" >H</text>
<text x="110.499809" y="235.628725" fill="rgb(102,102,102)"  stroke="rgb(102,102,102)" stroke-width="1" font-size="13" >3</text>
<text x="116.999809" y="227.948725" fill="rgb(102,102,102)"  stroke="rgb(102,102,102)" stroke-width="1" font-size="16" >C</text>
<text x="106.740905" y="306.357517" fill="rgb(102,102,102)"  stroke="rgb(102,102,102)" stroke-width="1" font-size="16" >H</text>
<text x="118.740905" y="314.037517" fill="rgb(102,102,102)"  stroke="rgb(102,102,102)" stroke-width="1" font-size="13" >3</text>
<text x="125.240905" y="306.357517" fill="rgb(102,102,102)"  stroke="rgb(102,102,102)" stroke-width="1" font-size="16" >C</text>
<text x="175.942807" y="340.328494" fill="rgb(102,102,102)"  stroke="rgb(102,102,102)" stroke-width="1" font-size="16" >CH</text>
<text x="199.942807" y="345.128494" fill="rgb(102,102,102)"  stroke="rgb(102,102,102)" stroke-width="1" font-size="13" >3</text>
<text x="159.495624" y="361.427568" fill="rgb(102,102,102)"  stroke="rgb(102,102,102)" stroke-width="1" font-size="16" >H</text>
<text x="171.495624" y="366.227568" fill="rgb(102,102,102)"  stroke="rgb(102,102,102)" stroke-width="1" font-size="13" >3</text>
<text x="177.995624" y="361.427568" fill="rgb(102,102,102)"  stroke="rgb(102,102,102)" stroke-width="1" font-size="16" >C</text>
<text x="240.879083" y="361.427568" fill="rgb(102,102,102)"  stroke="rgb(102,102,102)" stroke-width="1" font-size="16" >CH</text>
<text x="264.879083" y="366.227568" fill="rgb(102,102,102)"  stroke="rgb(102,102,102)" stroke-width="1" font-size="13" >3</text>
<text x="305.815358" y="343.848494" fill="rgb(102,102,102)"  stroke="rgb(102,102,102)" stroke-width="1" font-size="16" >CH</text>
<text x="329.815358" y="351.528494" fill="rgb(102,102,102)"  stroke="rgb(102,102,102)" stroke-width="1" font-size="13" >3</text>
<text x="236.613456" y="377.819470" fill="rgb(102,102,102)"  stroke="rgb(102,102,102)" stroke-width="1" font-size="16" >H</text>
<text x="248.613456" y="382.619470" fill="rgb(102,102,102)"  stroke="rgb(102,102,102)" stroke-width="1" font-size="13" >3</text>
<text x="255.113456" y="377.819470" fill="rgb(102,102,102)"  stroke="rgb(102,102,102)" stroke-width="1" font-size="16" >C</text>
<text x="240.879083" y="107.169791" fill="rgb(255,12,12)"  stroke="rgb(255,12,12)" stroke-width="1" font-size="16" >O</text>
<text x="275.902116" y="262.331051" fill="rgb(255,12,12)"  stroke="rgb(255,12,12)" stroke-width="1" font-size="16" >O</text>
<text x="206.453686" y="140.475187" fill="rgb(255,12,12)"  stroke="rgb(255,12,12)" stroke-width="1" font-size="16" >O</text>
<text x="277.704480" y="143.995187" fill="rgb(255,12,12)"  stroke="rgb(255,12,12)" stroke-width="1" font-size="16" >O</text>
<text x="275.902116" y="243.091704" fill="rgb(255,12,12)"  stroke="rgb(255,12,12)" stroke-width="1" font-size="16" >O</text>
<text x="264.924508" y="224.679006" fill="rgb(255,12,12)"  stroke="rgb(255,12,12)" stroke-width="1" font-size="16" >O</text>
<text x="240.879083" y="214.125981" fill="rgb(255,12,12)"  stroke="rgb(255,12,12)" stroke-width="1" font-size="16" >O</text>
<text x="240.879083" y="143.995187" fill="rgb(255,127,0)"  stroke="rgb(255,127,0)" stroke-width="1" font-size="16" >P</text>
<text x="240.879083" y="250.951378" fill="rgb(255,127,0)"  stroke="rgb(255,127,0)" stroke-width="1" font-size="16" >P</text>
<text font-size="18.000000" fill ="black" font-family="sans-serif"
x="140.000000" y="20.000000" ></text>
<title> - OBDepict</title>
</svg>
