<?xml version="1.0"?>
<svg xmlns="http://www.w3.org/2000/svg"
xmlns:xlink="http://www.w3.org/1999/xlink" xmlns:cml="http://www.xml-cml.org/schema" width="911.384" height="900" x="0" y="0" font-family="sans-serif" stroke="rgb(0,0,0)" stroke-width="1" >
<line x1="862.4" y1="54.8" x2="836.7" y2="40.0"/>
<line x1="49.0" y1="854.8" x2="74.6" y2="840.0"/>
<line x1="440.7" y1="256.1" x2="459.9" y2="256.1"/>
<line x1="470.3" y1="226.5" x2="470.3" y2="245.7"/>
<line x1="499.9" y1="256.1" x2="480.7" y2="256.1"/>
<line x1="836.7" y1="40.0" x2="802.1" y2="60.0"/>
<line x1="74.6" y1="840.0" x2="74.6" y2="800.0"/>
<line x1="802.1" y1="60.0" x2="802.1" y2="100.0"/>
<line x1="74.6" y1="800.0" x2="109.3" y2="780.0"/>
<line x1="802.1" y1="100.0" x2="767.5" y2="120.0"/>
<line x1="109.3" y1="780.0" x2="109.3" y2="740.0"/>
<line x1="767.5" y1="120.0" x2="767.5" y2="160.0"/>
<line x1="109.3" y1="740.0" x2="143.9" y2="720.0"/>
<line x1="767.5" y1="160.0" x2="732.8" y2="180.0"/>
<line x1="143.9" y1="720.0" x2="143.9" y2="680.0"/>
<line x1="732.8" y1="180.0" x2="732.8" y2="220.0"/>
<line x1="143.9" y1="680.0" x2="178.6" y2="660.0"/>
<line x1="732.8" y1="220.0" x2="698.2" y2="240.0"/>
<line x1="178.6" y1="660.0" x2="178.6" y2="620.0"/>
<line x1="698.2" y1="240.0" x2="698.2" y2="280.0"/>
<line x1="178.6" y1="620.0" x2="213.2" y2="600.0"/>
<line x1="698.2" y1="280.0" x2="663.5" y2="300.0"/>
<line x1="213.2" y1="600.0" x2="213.2" y2="560.0"/>
<line x1="663.5" y1="300.0" x2="663.5" y2="340.0"/>
<line x1="213.2" y1="560.0" x2="247.8" y2="540.0"/>
<line x1="663.5" y1="340.0" x2="628.9" y2="360.0"/>
<line x1="247.8" y1="540.0" x2="247.8" y2="500.0"/>
<line x1="628.9" y1="360.0" x2="628.9" y2="400.0"/>
<line x1="247.8" y1="500.0" x2="282.5" y2="480.0"/>
<line x1="628.9" y1="400.0" x2="594.3" y2="420.0"/>
<line x1="282.5" y1="480.0" x2="282.5" y2="440.0"/>
<line x1="594.3" y1="420.0" x2="594.3" y2="460.0"/>
<line x1="282.5" y1="440.0" x2="317.1" y2="420.0"/>
<line x1="594.3" y1="460.0" x2="559.6" y2="480.0"/>
<line x1="317.1" y1="420.0" x2="351.8" y2="440.0"/>
<line x1="559.6" y1="480.0" x2="525.0" y2="460.0"/>
<line x1="351.8" y1="440.0" x2="351.8" y2="480.0"/>
<line x1="470.3" y1="296.1" x2="435.7" y2="316.1"/>
<line x1="470.3" y1="296.1" x2="470.3" y2="266.5"/>
<line x1="435.7" y1="316.1" x2="435.7" y2="345.7"/>
<line x1="455.7" y1="460.0" x2="421.1" y2="480.0"/>
<line x1="455.7" y1="460.0" x2="481.3" y2="474.8"/>
<line x1="401.1" y1="445.4" x2="421.1" y2="480.0"/>
<line x1="401.1" y1="445.4" x2="415.9" y2="419.7"/>
<line x1="434.2" y1="502.0" x2="433.5" y2="502.4"/>
<line x1="432.5" y1="498.3" x2="431.2" y2="499.1"/>
<line x1="430.9" y1="494.6" x2="428.8" y2="495.8"/>
<line x1="429.2" y1="491.0" x2="426.5" y2="492.6"/>
<line x1="427.6" y1="487.3" x2="424.1" y2="489.3"/>
<line x1="425.9" y1="483.6" x2="421.8" y2="486.0"/>
<line x1="424.3" y1="480.0" x2="419.4" y2="482.8"/>
<line x1="421.1" y1="480.0" x2="395.4" y2="494.8"/>
<line x1="522.0" y1="460.0" x2="522.0" y2="430.4"/>
<line x1="528.0" y1="460.0" x2="528.0" y2="430.4"/>
<line x1="525.0" y1="460.0" x2="499.3" y2="474.8"/>
<line x1="353.3" y1="482.6" x2="327.6" y2="497.4"/>
<line x1="350.3" y1="477.4" x2="324.6" y2="492.2"/>
<line x1="351.8" y1="480.0" x2="377.4" y2="494.8"/>
<line x1="373.9" y1="388.3" x2="390.5" y2="378.7"/>
<line x1="376.9" y1="393.5" x2="393.5" y2="383.9"/>
<line x1="386.3" y1="350.4" x2="395.9" y2="367.1"/>
<line x1="426.7" y1="361.3" x2="410.1" y2="370.9"/>
<line x1="415.9" y1="401.7" x2="406.3" y2="385.1"/>
<text x="865.384388" y="64.800000" fill="rgb(102,102,102)"  stroke="rgb(102,102,102)" stroke-width="1" font-size="16" >CH</text>
<text x="889.384388" y="69.600000" fill="rgb(102,102,102)"  stroke="rgb(102,102,102)" stroke-width="1" font-size="13" >3</text>
<text x="16.400000" y="864.800000" fill="rgb(102,102,102)"  stroke="rgb(102,102,102)" stroke-width="1" font-size="16" >H</text>
<text x="28.400000" y="869.600000" fill="rgb(102,102,102)"  stroke="rgb(102,102,102)" stroke-width="1" font-size="13" >3</text>
<text x="34.900000" y="864.800000" fill="rgb(102,102,102)"  stroke="rgb(102,102,102)" stroke-width="1" font-size="16" >C</text>
<text x="406.733210" y="264.396952" fill="rgb(102,102,102)"  stroke="rgb(102,102,102)" stroke-width="1" font-size="16" >H</text>
<text x="418.733210" y="272.076952" fill="rgb(102,102,102)"  stroke="rgb(102,102,102)" stroke-width="1" font-size="13" >3</text>
<text x="425.233210" y="264.396952" fill="rgb(102,102,102)"  stroke="rgb(102,102,102)" stroke-width="1" font-size="16" >C</text>
<text x="464.333210" y="224.396952" fill="rgb(102,102,102)"  stroke="rgb(102,102,102)" stroke-width="1" font-size="16" >CH</text>
<text x="488.333210" y="232.076952" fill="rgb(102,102,102)"  stroke="rgb(102,102,102)" stroke-width="1" font-size="13" >3</text>
<text x="504.333210" y="260.876952" fill="rgb(102,102,102)"  stroke="rgb(102,102,102)" stroke-width="1" font-size="16" >CH</text>
<text x="528.333210" y="265.676952" fill="rgb(102,102,102)"  stroke="rgb(102,102,102)" stroke-width="1" font-size="13" >3</text>
<text x="466.433210" y="250.876952" fill="rgb(12,12,255)"  stroke="rgb(12,12,255)" stroke-width="1" font-size="13" >+</text>
<text x="464.333210" y="264.396952" fill="rgb(12,12,255)"  stroke="rgb(12,12,255)" stroke-width="1" font-size="16" >N</text>
<text x="518.974226" y="428.320000" fill="rgb(255,12,12)"  stroke="rgb(255,12,12)" stroke-width="1" font-size="16" >O</text>
<text x="313.528129" y="504.800000" fill="rgb(255,12,12)"  stroke="rgb(255,12,12)" stroke-width="1" font-size="16" >O</text>
<text x="362.810162" y="400.876952" fill="rgb(255,12,12)"  stroke="rgb(255,12,12)" stroke-width="1" font-size="16" >O</text>
<text x="376.251178" y="335.035935" fill="rgb(255,12,12)"  stroke="rgb(255,12,12)" stroke-width="1" font-size="32" >-</text>
<text x="377.451178" y="349.755935" fill="rgb(255,12,12)"  stroke="rgb(255,12,12)" stroke-width="1" font-size="16" >O</text>
<text x="484.333210" y="484.800000" fill="rgb(255,12,12)"  stroke="rgb(255,12,12)" stroke-width="1" font-size="16" >O</text>
<text x="429.692194" y="360.876952" fill="rgb(255,12,12)"  stroke="rgb(255,12,12)" stroke-width="1" font-size="16" >O</text>
<text x="415.051178" y="415.517968" fill="rgb(255,12,12)"  stroke="rgb(255,12,12)" stroke-width="1" font-size="16" >O</text>
<text x="380.410162" y="504.800000" fill="rgb(255,12,12)"  stroke="rgb(255,12,12)" stroke-width="1" font-size="16" >O</text>
<text x="395.051178" y="384.396952" fill="rgb(255,127,0)"  stroke="rgb(255,127,0)" stroke-width="1" font-size="16" >P</text>
<text x="435.051178" y="519.441016" fill="rgb(191,191,191)"  stroke="rgb(191,191,191)" stroke-width="1" font-size="16" >H</text>
<text font-size="18.000000" fill ="black" font-family="sans-serif"
x="140.000000" y="20.000000" ></text>
<title> - OBDepict</title>
</svg>
