<?xml version="1.0"?>
<svg xmlns="http://www.w3.org/2000/svg"
xmlns:xlink="http://www.w3.org/1999/xlink" xmlns:cml="http://www.xml-cml.org/schema" width="805.376" height="625.496" x="0" y="0" font-family="sans-serif" stroke="rgb(0,0,0)" stroke-width="1" >
<line x1="763.0" y1="359.5" x2="749.0" y2="383.9"/>
<line x1="757.8" y1="356.5" x2="743.8" y2="380.9"/>
<line x1="593.2" y1="576.9" x2="579.1" y2="552.6"/>
<line x1="73.0" y1="158.2" x2="73.0" y2="130.1"/>
<line x1="48.6" y1="116.0" x2="73.0" y2="130.1"/>
<line x1="199.9" y1="72.9" x2="171.8" y2="73.0"/>
<line x1="298.8" y1="130.0" x2="270.7" y2="130.0"/>
<line x1="369.6" y1="215.2" x2="369.5" y2="187.0"/>
<line x1="719.0" y1="322.5" x2="698.5" y2="345.6"/>
<line x1="594.2" y1="251.6" x2="571.1" y2="272.2"/>
<line x1="450.2" y1="469.3" x2="470.8" y2="446.2"/>
<line x1="424.6" y1="252.1" x2="424.6" y2="272.2"/>
<line x1="746.4" y1="382.4" x2="708.3" y2="382.4"/>
<line x1="579.1" y1="552.6" x2="598.1" y2="519.6"/>
<line x1="105.9" y1="73.0" x2="105.9" y2="111.0"/>
<line x1="105.9" y1="73.0" x2="138.8" y2="54.0"/>
<line x1="204.8" y1="130.0" x2="171.8" y2="111.0"/>
<line x1="204.8" y1="130.0" x2="237.7" y2="111.0"/>
<line x1="303.6" y1="187.0" x2="270.7" y2="168.0"/>
<line x1="303.6" y1="187.0" x2="336.6" y2="168.0"/>
<line x1="105.9" y1="111.0" x2="73.0" y2="130.1"/>
<line x1="138.8" y1="54.0" x2="171.8" y2="73.0"/>
<line x1="171.8" y1="111.0" x2="171.8" y2="73.0"/>
<line x1="237.7" y1="111.0" x2="270.7" y2="130.0"/>
<line x1="270.7" y1="168.0" x2="270.7" y2="130.0"/>
<line x1="336.6" y1="168.0" x2="369.5" y2="187.0"/>
<line x1="534.3" y1="244.0" x2="501.4" y2="225.0"/>
<line x1="534.3" y1="244.0" x2="534.3" y2="282.1"/>
<line x1="501.4" y1="225.0" x2="501.3" y2="187.0"/>
<line x1="402.5" y1="168.0" x2="402.5" y2="139.8"/>
<line x1="402.5" y1="168.0" x2="435.4" y2="187.0"/>
<line x1="404.0" y1="170.6" x2="371.0" y2="189.6"/>
<line x1="401.0" y1="165.4" x2="368.0" y2="184.4"/>
<line x1="435.4" y1="187.0" x2="459.8" y2="172.9"/>
<line x1="634.8" y1="308.9" x2="650.3" y2="282.1"/>
<line x1="534.5" y1="482.9" x2="519.0" y2="509.7"/>
<line x1="671.6" y1="446.1" x2="698.4" y2="461.5"/>
<line x1="653.9" y1="542.7" x2="634.9" y2="509.8"/>
<line x1="653.9" y1="539.7" x2="682.0" y2="539.7"/>
<line x1="653.9" y1="545.7" x2="682.0" y2="545.7"/>
<line x1="183.6" y1="51.7" x2="184.3" y2="52.1"/>
<line x1="181.4" y1="54.8" x2="182.7" y2="55.6"/>
<line x1="179.1" y1="57.9" x2="181.2" y2="59.1"/>
<line x1="176.9" y1="61.0" x2="179.6" y2="62.6"/>
<line x1="174.6" y1="64.1" x2="178.1" y2="66.0"/>
<line x1="172.4" y1="67.1" x2="176.5" y2="69.5"/>
<line x1="170.1" y1="70.2" x2="175.0" y2="73.0"/>
<line x1="282.5" y1="108.7" x2="283.2" y2="109.1"/>
<line x1="280.2" y1="111.8" x2="281.6" y2="112.6"/>
<line x1="278.0" y1="114.9" x2="280.1" y2="116.1"/>
<line x1="275.7" y1="118.0" x2="278.5" y2="119.6"/>
<line x1="273.5" y1="121.1" x2="277.0" y2="123.1"/>
<line x1="271.2" y1="124.2" x2="275.4" y2="126.6"/>
<line x1="269.0" y1="127.3" x2="273.9" y2="130.1"/>
<polygon points="565.452084 244.739519 567.170578 272.985959 575.006970 271.376312 " />
<line x1="514.0" y1="264.6" x2="514.6" y2="264.0"/>
<line x1="516.9" y1="267.7" x2="518.0" y2="266.5"/>
<line x1="519.8" y1="270.8" x2="521.4" y2="269.0"/>
<line x1="522.6" y1="273.8" x2="524.8" y2="271.4"/>
<line x1="525.5" y1="276.9" x2="528.2" y2="273.9"/>
<line x1="528.4" y1="280.0" x2="531.6" y2="276.4"/>
<line x1="531.2" y1="283.0" x2="534.9" y2="278.9"/>
<line x1="499.8" y1="184.4" x2="524.2" y2="170.3"/>
<line x1="502.9" y1="189.6" x2="527.2" y2="175.5"/>
<line x1="501.3" y1="187.0" x2="477.0" y2="172.9"/>
<polygon points="436.593916 331.761279 458.863297 349.222359 462.860093 342.292307 " />
<line x1="460.9" y1="345.8" x2="460.8" y2="303.9"/>
<line x1="442.5" y1="380.6" x2="411.6" y2="380.6"/>
<line x1="442.5" y1="374.6" x2="411.6" y2="374.6"/>
<line x1="459.3" y1="301.3" x2="486.1" y2="285.9"/>
<line x1="462.3" y1="306.5" x2="489.1" y2="291.1"/>
<line x1="460.8" y1="303.9" x2="434.0" y2="288.5"/>
<line x1="513.2" y1="446.1" x2="470.8" y2="446.2"/>
<line x1="507.2" y1="438.9" x2="476.8" y2="439.0"/>
<line x1="470.8" y1="446.2" x2="460.9" y2="409.4"/>
<line x1="460.9" y1="409.4" x2="497.6" y2="388.2"/>
<line x1="469.7" y1="412.7" x2="496.0" y2="397.4"/>
<line x1="497.6" y1="388.2" x2="524.8" y2="403.9"/>
<line x1="528.9" y1="418.9" x2="513.2" y2="446.1"/>
<line x1="460.9" y1="345.8" x2="497.6" y2="345.7"/>
<line x1="497.6" y1="345.7" x2="497.6" y2="388.2"/>
<line x1="460.9" y1="409.4" x2="442.5" y2="377.6"/>
<line x1="442.5" y1="377.6" x2="460.9" y2="345.8"/>
<line x1="634.9" y1="509.8" x2="598.1" y2="519.6"/>
<line x1="627.2" y1="504.4" x2="602.1" y2="511.1"/>
<line x1="598.1" y1="519.6" x2="576.9" y2="482.9"/>
<line x1="576.9" y1="482.9" x2="592.6" y2="455.7"/>
<line x1="607.6" y1="451.6" x2="634.9" y2="467.3"/>
<line x1="605.6" y1="458.7" x2="626.1" y2="470.6"/>
<line x1="634.9" y1="467.3" x2="634.9" y2="509.8"/>
<line x1="571.1" y1="272.2" x2="534.3" y2="282.1"/>
<line x1="534.3" y1="282.1" x2="534.4" y2="324.5"/>
<line x1="534.4" y1="324.5" x2="561.6" y2="340.2"/>
<line x1="576.6" y1="336.1" x2="592.3" y2="308.9"/>
<line x1="571.3" y1="331.0" x2="583.1" y2="310.5"/>
<line x1="592.3" y1="308.9" x2="571.1" y2="272.2"/>
<line x1="698.5" y1="345.6" x2="656.0" y2="345.7"/>
<line x1="656.0" y1="345.7" x2="640.3" y2="372.9"/>
<line x1="644.4" y1="387.9" x2="671.6" y2="403.6"/>
<line x1="671.6" y1="403.6" x2="708.3" y2="382.4"/>
<line x1="708.3" y1="382.4" x2="698.5" y2="345.6"/>
<line x1="699.8" y1="378.5" x2="693.1" y2="353.3"/>
<line x1="634.8" y1="308.9" x2="656.0" y2="345.7"/>
<line x1="631.6" y1="317.7" x2="646.8" y2="344.1"/>
<line x1="671.6" y1="403.6" x2="671.6" y2="446.1"/>
<line x1="664.4" y1="409.6" x2="664.4" y2="440.1"/>
<line x1="671.6" y1="446.1" x2="634.9" y2="467.3"/>
<line x1="576.9" y1="482.9" x2="534.5" y2="482.9"/>
<line x1="570.9" y1="475.7" x2="540.4" y2="475.7"/>
<line x1="534.5" y1="482.9" x2="513.2" y2="446.1"/>
<line x1="497.6" y1="345.7" x2="534.4" y2="324.5"/>
<line x1="506.4" y1="349.0" x2="532.8" y2="333.7"/>
<line x1="592.3" y1="308.9" x2="634.8" y2="308.9"/>
<text x="759.376398" y="357.738747" fill="rgb(102,102,102)"  stroke="rgb(102,102,102)" stroke-width="1" font-size="16" >CH</text>
<text x="783.376398" y="365.418747" fill="rgb(102,102,102)"  stroke="rgb(102,102,102)" stroke-width="1" font-size="13" >2</text>
<text x="592.161584" y="590.296278" fill="rgb(102,102,102)"  stroke="rgb(102,102,102)" stroke-width="1" font-size="16" >CH</text>
<text x="616.161584" y="595.096278" fill="rgb(102,102,102)"  stroke="rgb(102,102,102)" stroke-width="1" font-size="13" >3</text>
<text x="66.977434" y="172.927030" fill="rgb(102,102,102)"  stroke="rgb(102,102,102)" stroke-width="1" font-size="16" >CH</text>
<text x="90.977434" y="177.727030" fill="rgb(102,102,102)"  stroke="rgb(102,102,102)" stroke-width="1" font-size="13" >3</text>
<text x="16.400000" y="119.389372" fill="rgb(102,102,102)"  stroke="rgb(102,102,102)" stroke-width="1" font-size="16" >H</text>
<text x="28.400000" y="127.069372" fill="rgb(102,102,102)"  stroke="rgb(102,102,102)" stroke-width="1" font-size="13" >3</text>
<text x="34.900000" y="119.389372" fill="rgb(102,102,102)"  stroke="rgb(102,102,102)" stroke-width="1" font-size="16" >C</text>
<text x="203.835200" y="81.262254" fill="rgb(102,102,102)"  stroke="rgb(102,102,102)" stroke-width="1" font-size="16" >CH</text>
<text x="227.835200" y="88.942254" fill="rgb(102,102,102)"  stroke="rgb(102,102,102)" stroke-width="1" font-size="13" >3</text>
<text x="302.714733" y="138.289445" fill="rgb(102,102,102)"  stroke="rgb(102,102,102)" stroke-width="1" font-size="16" >CH</text>
<text x="326.714733" y="145.969445" fill="rgb(102,102,102)"  stroke="rgb(102,102,102)" stroke-width="1" font-size="13" >3</text>
<text x="363.563261" y="229.862820" fill="rgb(102,102,102)"  stroke="rgb(102,102,102)" stroke-width="1" font-size="16" >CH</text>
<text x="387.563261" y="234.662820" fill="rgb(102,102,102)"  stroke="rgb(102,102,102)" stroke-width="1" font-size="13" >3</text>
<text x="720.203513" y="322.675408" fill="rgb(102,102,102)"  stroke="rgb(102,102,102)" stroke-width="1" font-size="16" >CH</text>
<text x="744.203513" y="330.355408" fill="rgb(102,102,102)"  stroke="rgb(102,102,102)" stroke-width="1" font-size="13" >3</text>
<text x="596.352643" y="252.736471" fill="rgb(102,102,102)"  stroke="rgb(102,102,102)" stroke-width="1" font-size="16" >CH</text>
<text x="620.352643" y="260.416471" fill="rgb(102,102,102)"  stroke="rgb(102,102,102)" stroke-width="1" font-size="13" >3</text>
<text x="419.413821" y="482.242234" fill="rgb(102,102,102)"  stroke="rgb(102,102,102)" stroke-width="1" font-size="16" >H</text>
<text x="431.413821" y="487.042234" fill="rgb(102,102,102)"  stroke="rgb(102,102,102)" stroke-width="1" font-size="13" >3</text>
<text x="437.913821" y="482.242234" fill="rgb(102,102,102)"  stroke="rgb(102,102,102)" stroke-width="1" font-size="16" >C</text>
<text x="418.602469" y="249.562208" fill="rgb(102,102,102)"  stroke="rgb(102,102,102)" stroke-width="1" font-size="16" >CH</text>
<text x="442.602469" y="257.242208" fill="rgb(102,102,102)"  stroke="rgb(102,102,102)" stroke-width="1" font-size="13" >3</text>
<text x="619.217473" y="387.236719" fill="rgb(12,12,255)"  stroke="rgb(12,12,255)" stroke-width="1" font-size="16" >HN</text>
<text x="594.490591" y="454.437516" fill="rgb(12,12,255)"  stroke="rgb(12,12,255)" stroke-width="1" font-size="16" >N</text>
<text x="565.119277" y="350.499803" fill="rgb(12,12,255)"  stroke="rgb(12,12,255)" stroke-width="1" font-size="16" >N</text>
<text x="528.392395" y="417.700599" fill="rgb(12,12,255)"  stroke="rgb(12,12,255)" stroke-width="1" font-size="16" >NH</text>
<text x="685.931787" y="550.990147" fill="rgb(255,12,12)"  stroke="rgb(255,12,12)" stroke-width="1" font-size="16" >O</text>
<text x="528.292121" y="176.233761" fill="rgb(255,12,12)"  stroke="rgb(255,12,12)" stroke-width="1" font-size="16" >O</text>
<text x="397.085508" y="382.417062" fill="rgb(255,12,12)"  stroke="rgb(255,12,12)" stroke-width="1" font-size="16" >O</text>
<text x="491.043600" y="291.341473" fill="rgb(255,12,12)"  stroke="rgb(255,12,12)" stroke-width="1" font-size="16" >O</text>
<text x="421.021799" y="287.854954" fill="rgb(255,12,12)"  stroke="rgb(255,12,12)" stroke-width="1" font-size="16" >O</text>
<text x="462.390023" y="176.264228" fill="rgb(255,12,12)"  stroke="rgb(255,12,12)" stroke-width="1" font-size="16" >O</text>
<text x="396.470335" y="138.246101" fill="rgb(191,191,191)"  stroke="rgb(191,191,191)" stroke-width="1" font-size="16" >H</text>
<text x="649.693750" y="281.027382" fill="rgb(191,191,191)"  stroke="rgb(191,191,191)" stroke-width="1" font-size="16" >H</text>
<text x="509.977851" y="523.922354" fill="rgb(191,191,191)"  stroke="rgb(191,191,191)" stroke-width="1" font-size="16" >H</text>
<text x="701.812424" y="471.766611" fill="rgb(191,191,191)"  stroke="rgb(191,191,191)" stroke-width="1" font-size="16" >H</text>
<text x="184.795670" y="48.320000" fill="rgb(191,191,191)"  stroke="rgb(191,191,191)" stroke-width="1" font-size="16" >H</text>
<text x="283.675202" y="105.347191" fill="rgb(191,191,191)"  stroke="rgb(191,191,191)" stroke-width="1" font-size="16" >H</text>
<text x="559.075803" y="239.543499" fill="rgb(191,191,191)"  stroke="rgb(191,191,191)" stroke-width="1" font-size="16" >H</text>
<text x="499.446529" y="262.653768" fill="rgb(191,191,191)"  stroke="rgb(191,191,191)" stroke-width="1" font-size="16" >H</text>
<text x="421.041130" y="333.187700" fill="rgb(191,191,191)"  stroke="rgb(191,191,191)" stroke-width="1" font-size="16" >H</text>
<text font-size="18.000000" fill ="black" font-family="sans-serif"
x="140.000000" y="20.000000" ></text>
<title> - OBDepict</title>
</svg>
