<?xml version="1.0"?>
<svg xmlns="http://www.w3.org/2000/svg"
xmlns:xlink="http://www.w3.org/1999/xlink" xmlns:cml="http://www.xml-cml.org/schema" width="357.128" height="320" x="0" y="0" font-family="sans-serif" stroke="rgb(0,0,0)" stroke-width="1" >
<line x1="204.2" y1="165.2" x2="178.6" y2="180.0"/>
<line x1="178.6" y1="180.0" x2="143.9" y2="160.0"/>
<line x1="143.9" y1="160.0" x2="143.9" y2="120.0"/>
<line x1="143.9" y1="120.0" x2="109.3" y2="100.0"/>
<line x1="109.3" y1="100.0" x2="74.6" y2="120.0"/>
<line x1="282.5" y1="160.0" x2="308.1" y2="174.8"/>
<line x1="282.5" y1="160.0" x2="247.8" y2="180.0"/>
<line x1="279.5" y1="160.0" x2="279.5" y2="120.0"/>
<line x1="285.5" y1="160.0" x2="285.5" y2="120.0"/>
<line x1="247.8" y1="180.0" x2="247.8" y2="220.0"/>
<line x1="282.5" y1="120.0" x2="308.1" y2="105.2"/>
<line x1="282.5" y1="120.0" x2="247.8" y2="100.0"/>
<line x1="74.6" y1="120.0" x2="49.0" y2="105.2"/>
<line x1="77.6" y1="120.0" x2="77.6" y2="160.0"/>
<line x1="71.6" y1="120.0" x2="71.6" y2="160.0"/>
<line x1="247.8" y1="220.0" x2="273.5" y2="234.8"/>
<line x1="249.3" y1="222.6" x2="214.7" y2="242.6"/>
<line x1="246.3" y1="217.4" x2="211.7" y2="237.4"/>
<line x1="247.8" y1="100.0" x2="247.8" y2="60.0"/>
<line x1="74.6" y1="160.0" x2="49.0" y2="174.8"/>
<line x1="74.6" y1="160.0" x2="109.3" y2="180.0"/>
<line x1="213.2" y1="240.0" x2="213.2" y2="269.6"/>
<line x1="213.2" y1="240.0" x2="178.6" y2="220.0"/>
<line x1="247.8" y1="60.0" x2="213.2" y2="40.0"/>
<line x1="109.3" y1="180.0" x2="109.3" y2="220.0"/>
<line x1="178.6" y1="220.0" x2="143.9" y2="240.0"/>
<line x1="213.2" y1="40.0" x2="178.6" y2="60.0"/>
<line x1="109.3" y1="220.0" x2="143.9" y2="240.0"/>
<line x1="109.3" y1="220.0" x2="83.6" y2="234.8"/>
<line x1="143.9" y1="240.0" x2="143.9" y2="269.6"/>
<line x1="181.6" y1="60.0" x2="181.6" y2="89.6"/>
<line x1="175.6" y1="60.0" x2="175.6" y2="89.6"/>
<line x1="178.6" y1="60.0" x2="152.9" y2="45.2"/>
<text x="207.205081" y="168.320000" fill="rgb(102,102,102)"  stroke="rgb(102,102,102)" stroke-width="1" font-size="16" >CH</text>
<text x="231.205081" y="176.000000" fill="rgb(102,102,102)"  stroke="rgb(102,102,102)" stroke-width="1" font-size="13" >3</text>
<text x="59.041016" y="244.800000" fill="rgb(255,12,12)"  stroke="rgb(255,12,12)" stroke-width="1" font-size="16" >HO</text>
<text x="137.923048" y="284.800000" fill="rgb(255,12,12)"  stroke="rgb(255,12,12)" stroke-width="1" font-size="16" >OH</text>
<text x="172.564065" y="104.800000" fill="rgb(255,12,12)"  stroke="rgb(255,12,12)" stroke-width="1" font-size="16" >O</text>
<text x="128.323048" y="48.320000" fill="rgb(255,12,12)"  stroke="rgb(255,12,12)" stroke-width="1" font-size="16" >HO</text>
<text x="311.128129" y="184.800000" fill="rgb(191,191,191)"  stroke="rgb(191,191,191)" stroke-width="1" font-size="16" >H</text>
<text x="311.128129" y="108.320000" fill="rgb(191,191,191)"  stroke="rgb(191,191,191)" stroke-width="1" font-size="16" >H</text>
<text x="36.400000" y="108.320000" fill="rgb(191,191,191)"  stroke="rgb(191,191,191)" stroke-width="1" font-size="16" >H</text>
<text x="276.487113" y="244.800000" fill="rgb(191,191,191)"  stroke="rgb(191,191,191)" stroke-width="1" font-size="16" >H</text>
<text x="36.400000" y="184.800000" fill="rgb(191,191,191)"  stroke="rgb(191,191,191)" stroke-width="1" font-size="16" >H</text>
<text x="207.205081" y="284.800000" fill="rgb(191,191,191)"  stroke="rgb(191,191,191)" stroke-width="1" font-size="16" >H</text>
<text font-size="18.000000" fill ="black" font-family="sans-serif"
x="140.000000" y="20.000000" ></text>
<title> - OBDepict</title>
</svg>
