<?xml version="1.0"?>
<svg xmlns="http://www.w3.org/2000/svg"
xmlns:xlink="http://www.w3.org/1999/xlink" xmlns:cml="http://www.xml-cml.org/schema" width="557.958" height="399.834" x="0" y="0" font-family="sans-serif" stroke="rgb(0,0,0)" stroke-width="1" >
<line x1="483.3" y1="305.2" x2="448.7" y2="285.2"/>
<line x1="483.3" y1="305.2" x2="509.0" y2="290.4"/>
<line x1="487.6" y1="134.6" x2="447.6" y2="134.6"/>
<line x1="487.6" y1="134.6" x2="502.4" y2="160.3"/>
<line x1="63.5" y1="197.5" x2="103.3" y2="193.3"/>
<line x1="63.5" y1="197.5" x2="46.1" y2="173.5"/>
<line x1="339.7" y1="201.6" x2="301.0" y2="191.2"/>
<line x1="339.7" y1="201.6" x2="347.3" y2="230.2"/>
<polygon points="164.845957 173.278049 197.486973 196.742151 201.486973 189.813948 " />
<line x1="199.5" y1="193.3" x2="199.5" y2="222.9"/>
<polygon points="471.885602 271.793131 446.676121 281.729030 450.676121 288.657233 " />
<line x1="460.8" y1="156.6" x2="460.1" y2="157.0"/>
<line x1="459.1" y1="152.9" x2="457.7" y2="153.7"/>
<line x1="457.4" y1="149.3" x2="455.4" y2="150.5"/>
<line x1="455.8" y1="145.6" x2="453.0" y2="147.2"/>
<line x1="454.1" y1="142.0" x2="450.7" y2="144.0"/>
<line x1="452.5" y1="138.3" x2="448.3" y2="140.7"/>
<line x1="450.8" y1="134.6" x2="446.0" y2="137.4"/>
<polygon points="92.391744 217.761067 106.946468 194.904996 99.638104 191.651103 " />
<line x1="308.1" y1="215.8" x2="307.3" y2="216.0"/>
<line x1="307.4" y1="211.9" x2="305.9" y2="212.3"/>
<line x1="306.8" y1="207.9" x2="304.4" y2="208.5"/>
<line x1="306.1" y1="203.9" x2="303.0" y2="204.8"/>
<line x1="305.5" y1="200.0" x2="301.6" y2="201.0"/>
<line x1="304.8" y1="196.0" x2="300.2" y2="197.2"/>
<line x1="304.2" y1="192.0" x2="298.8" y2="193.5"/>
<polygon points="451.885602 333.234148 430.676121 316.370046 426.676121 323.298249 " />
<line x1="428.7" y1="319.8" x2="428.7" y2="349.4"/>
<line x1="473.2" y1="94.2" x2="473.2" y2="95.0"/>
<line x1="469.2" y1="93.8" x2="469.2" y2="95.4"/>
<line x1="465.2" y1="93.4" x2="465.2" y2="95.8"/>
<line x1="461.2" y1="93.0" x2="461.2" y2="96.2"/>
<line x1="457.2" y1="92.6" x2="457.2" y2="96.6"/>
<line x1="453.2" y1="92.2" x2="453.2" y2="97.0"/>
<line x1="449.2" y1="91.8" x2="449.2" y2="97.4"/>
<line x1="447.6" y1="94.6" x2="462.4" y2="69.0"/>
<line x1="77.8" y1="151.0" x2="77.9" y2="150.2"/>
<line x1="81.7" y1="151.8" x2="81.9" y2="150.2"/>
<line x1="85.7" y1="152.6" x2="85.9" y2="150.2"/>
<line x1="89.6" y1="153.4" x2="89.9" y2="150.3"/>
<line x1="93.5" y1="154.3" x2="94.0" y2="150.3"/>
<line x1="97.5" y1="155.1" x2="98.0" y2="150.3"/>
<line x1="101.4" y1="155.9" x2="102.0" y2="150.3"/>
<line x1="103.3" y1="153.3" x2="91.3" y2="126.2"/>
<polygon points="388.676121 346.634148 392.676121 319.834148 384.676121 319.834148 " />
<line x1="388.7" y1="319.8" x2="363.0" y2="334.6"/>
<line x1="425.4" y1="52.3" x2="426.1" y2="52.7"/>
<line x1="423.1" y1="55.5" x2="424.5" y2="56.3"/>
<line x1="420.7" y1="58.8" x2="422.8" y2="60.0"/>
<line x1="418.4" y1="62.1" x2="421.2" y2="63.7"/>
<line x1="416.0" y1="65.3" x2="419.5" y2="67.3"/>
<line x1="413.7" y1="68.6" x2="417.8" y2="71.0"/>
<line x1="411.3" y1="71.9" x2="416.2" y2="74.7"/>
<line x1="413.0" y1="74.6" x2="398.2" y2="49.0"/>
<line x1="300.9" y1="105.9" x2="301.5" y2="106.5"/>
<line x1="297.8" y1="108.4" x2="299.0" y2="109.6"/>
<line x1="294.7" y1="111.0" x2="296.4" y2="112.7"/>
<line x1="291.6" y1="113.5" x2="293.9" y2="115.8"/>
<line x1="288.5" y1="116.1" x2="291.3" y2="118.9"/>
<line x1="285.4" y1="118.6" x2="288.8" y2="122.0"/>
<line x1="282.3" y1="121.2" x2="286.2" y2="125.1"/>
<line x1="283.1" y1="124.3" x2="275.5" y2="95.7"/>
<line x1="346.7" y1="298.3" x2="346.3" y2="297.6"/>
<line x1="350.4" y1="296.7" x2="349.6" y2="295.3"/>
<line x1="354.0" y1="295.0" x2="352.8" y2="293.0"/>
<line x1="357.7" y1="293.4" x2="356.1" y2="290.6"/>
<line x1="361.4" y1="291.7" x2="359.4" y2="288.3"/>
<line x1="365.0" y1="290.1" x2="362.6" y2="285.9"/>
<line x1="368.7" y1="288.4" x2="365.9" y2="283.6"/>
<line x1="368.7" y1="285.2" x2="343.0" y2="270.4"/>
<polygon points="364.923359 71.431535 374.859258 96.641016 381.787461 92.641016 " />
<line x1="378.3" y1="94.6" x2="348.7" y2="94.6"/>
<polygon points="237.544400 108.754204 240.617047 135.676292 248.344454 133.605740 " />
<line x1="244.5" y1="134.6" x2="215.9" y2="127.0"/>
<polygon points="337.288867 159.508876 312.437331 148.708822 310.366779 156.436229 " />
<line x1="311.4" y1="152.6" x2="332.3" y2="131.6"/>
<polygon points="135.762513 114.703014 137.421956 141.749016 145.247137 140.085723 " />
<line x1="141.3" y1="140.9" x2="163.3" y2="121.1"/>
<line x1="403.9" y1="230.0" x2="404.6" y2="230.5"/>
<line x1="401.2" y1="232.9" x2="402.5" y2="233.9"/>
<line x1="398.4" y1="235.9" x2="400.3" y2="237.3"/>
<line x1="395.7" y1="238.8" x2="398.2" y2="240.7"/>
<line x1="392.9" y1="241.7" x2="396.1" y2="244.2"/>
<line x1="390.2" y1="244.6" x2="394.0" y2="247.6"/>
<line x1="387.4" y1="247.6" x2="391.9" y2="251.0"/>
<line x1="388.7" y1="250.6" x2="360.1" y2="242.9"/>
<line x1="378.3" y1="134.6" x2="382.2" y2="164.0"/>
<line x1="378.3" y1="134.6" x2="349.7" y2="127.0"/>
<polygon points="230.629887 199.848771 238.093768 173.800154 230.162210 172.755944 " />
<line x1="234.1" y1="173.3" x2="208.5" y2="158.5"/>
<line x1="164.8" y1="173.3" x2="190.5" y2="158.5"/>
<line x1="141.3" y1="140.9" x2="164.8" y2="173.3"/>
<line x1="164.8" y1="173.3" x2="147.4" y2="197.2"/>
<line x1="131.4" y1="202.4" x2="103.3" y2="193.3"/>
<line x1="103.3" y1="193.3" x2="103.3" y2="153.3"/>
<line x1="103.3" y1="153.3" x2="141.3" y2="140.9"/>
<line x1="413.0" y1="74.6" x2="378.3" y2="94.6"/>
<line x1="378.3" y1="94.6" x2="378.3" y2="134.6"/>
<line x1="378.3" y1="134.6" x2="404.0" y2="149.4"/>
<line x1="422.0" y1="149.4" x2="447.6" y2="134.6"/>
<line x1="447.6" y1="134.6" x2="447.6" y2="94.6"/>
<line x1="447.6" y1="94.6" x2="413.0" y2="74.6"/>
<line x1="448.7" y1="285.2" x2="428.7" y2="319.8"/>
<line x1="428.7" y1="319.8" x2="388.7" y2="319.8"/>
<line x1="388.7" y1="319.8" x2="368.7" y2="285.2"/>
<line x1="368.7" y1="285.2" x2="388.7" y2="250.6"/>
<line x1="388.7" y1="250.6" x2="418.3" y2="250.6"/>
<line x1="433.9" y1="259.6" x2="448.7" y2="285.2"/>
<line x1="301.0" y1="191.2" x2="311.4" y2="152.6"/>
<line x1="311.4" y1="152.6" x2="283.1" y2="124.3"/>
<line x1="283.1" y1="124.3" x2="244.5" y2="134.6"/>
<line x1="244.5" y1="134.6" x2="234.1" y2="173.3"/>
<line x1="234.1" y1="173.3" x2="255.1" y2="194.2"/>
<line x1="272.5" y1="198.9" x2="301.0" y2="191.2"/>
<text x="511.958153" y="293.513131" fill="rgb(255,12,12)"  stroke="rgb(255,12,12)" stroke-width="1" font-size="16" >OH</text>
<text x="501.605392" y="174.082032" fill="rgb(255,12,12)"  stroke="rgb(255,12,12)" stroke-width="1" font-size="16" >OH</text>
<text x="24.400000" y="173.418508" fill="rgb(255,12,12)"  stroke="rgb(255,12,12)" stroke-width="1" font-size="16" >HO</text>
<text x="193.486973" y="238.078049" fill="rgb(255,12,12)"  stroke="rgb(255,12,12)" stroke-width="1" font-size="16" >OH</text>
<text x="422.676121" y="364.634148" fill="rgb(255,12,12)"  stroke="rgb(255,12,12)" stroke-width="1" font-size="16" >OH</text>
<text x="461.605392" y="68.320000" fill="rgb(255,12,12)"  stroke="rgb(255,12,12)" stroke-width="1" font-size="16" >OH</text>
<text x="71.422820" y="125.056231" fill="rgb(255,12,12)"  stroke="rgb(255,12,12)" stroke-width="1" font-size="16" >HO</text>
<text x="338.435105" y="344.634148" fill="rgb(255,12,12)"  stroke="rgb(255,12,12)" stroke-width="1" font-size="16" >HO</text>
<text x="377.364376" y="48.320000" fill="rgb(255,12,12)"  stroke="rgb(255,12,12)" stroke-width="1" font-size="16" >HO</text>
<text x="257.165022" y="93.971221" fill="rgb(255,12,12)"  stroke="rgb(255,12,12)" stroke-width="1" font-size="16" >HO</text>
<text x="318.435105" y="273.513131" fill="rgb(255,12,12)"  stroke="rgb(255,12,12)" stroke-width="1" font-size="16" >HO</text>
<text x="322.723359" y="99.441016" fill="rgb(255,12,12)"  stroke="rgb(255,12,12)" stroke-width="1" font-size="16" >HO</text>
<text x="190.243718" y="132.608254" fill="rgb(255,12,12)"  stroke="rgb(255,12,12)" stroke-width="1" font-size="16" >HO</text>
<text x="165.060340" y="122.472145" fill="rgb(255,12,12)"  stroke="rgb(255,12,12)" stroke-width="1" font-size="16" >OH</text>
<text x="346.439088" y="244.999354" fill="rgb(255,12,12)"  stroke="rgb(255,12,12)" stroke-width="1" font-size="16" >O</text>
<text x="422.676121" y="258.872115" fill="rgb(255,12,12)"  stroke="rgb(255,12,12)" stroke-width="1" font-size="16" >O</text>
<text x="406.964376" y="159.441016" fill="rgb(255,12,12)"  stroke="rgb(255,12,12)" stroke-width="1" font-size="16" >O</text>
<text x="258.812260" y="206.362320" fill="rgb(255,12,12)"  stroke="rgb(255,12,12)" stroke-width="1" font-size="16" >O</text>
<text x="336.086326" y="132.608254" fill="rgb(255,12,12)"  stroke="rgb(255,12,12)" stroke-width="1" font-size="16" >O</text>
<text x="135.334547" y="210.438729" fill="rgb(255,12,12)"  stroke="rgb(255,12,12)" stroke-width="1" font-size="16" >O</text>
<text x="193.486973" y="161.598049" fill="rgb(255,12,12)"  stroke="rgb(255,12,12)" stroke-width="1" font-size="16" >O</text>
<text x="477.317137" y="273.513131" fill="rgb(191,191,191)"  stroke="rgb(191,191,191)" stroke-width="1" font-size="16" >H</text>
<text x="461.605392" y="174.082032" fill="rgb(191,191,191)"  stroke="rgb(191,191,191)" stroke-width="1" font-size="16" >H</text>
<text x="83.422820" y="234.619868" fill="rgb(191,191,191)"  stroke="rgb(191,191,191)" stroke-width="1" font-size="16" >H</text>
<text x="305.402055" y="234.646592" fill="rgb(191,191,191)"  stroke="rgb(191,191,191)" stroke-width="1" font-size="16" >H</text>
<text x="457.317137" y="344.634148" fill="rgb(191,191,191)"  stroke="rgb(191,191,191)" stroke-width="1" font-size="16" >H</text>
<text x="481.605392" y="102.961016" fill="rgb(191,191,191)"  stroke="rgb(191,191,191)" stroke-width="1" font-size="16" >H</text>
<text x="59.911410" y="157.416911" fill="rgb(191,191,191)"  stroke="rgb(191,191,191)" stroke-width="1" font-size="16" >H</text>
<text x="382.676121" y="364.634148" fill="rgb(191,191,191)"  stroke="rgb(191,191,191)" stroke-width="1" font-size="16" >H</text>
<text x="426.964376" y="48.320000" fill="rgb(191,191,191)"  stroke="rgb(191,191,191)" stroke-width="1" font-size="16" >H</text>
<text x="305.402055" y="104.323983" fill="rgb(191,191,191)"  stroke="rgb(191,191,191)" stroke-width="1" font-size="16" >H</text>
<text x="330.435105" y="309.993131" fill="rgb(191,191,191)"  stroke="rgb(191,191,191)" stroke-width="1" font-size="16" >H</text>
<text x="354.723359" y="68.320000" fill="rgb(191,191,191)"  stroke="rgb(191,191,191)" stroke-width="1" font-size="16" >H</text>
<text x="230.527989" y="104.323983" fill="rgb(191,191,191)"  stroke="rgb(191,191,191)" stroke-width="1" font-size="16" >H</text>
<text x="344.039088" y="167.725287" fill="rgb(191,191,191)"  stroke="rgb(191,191,191)" stroke-width="1" font-size="16" >H</text>
<text x="129.418079" y="110.111465" fill="rgb(191,191,191)"  stroke="rgb(191,191,191)" stroke-width="1" font-size="16" >H</text>
<text x="407.026578" y="227.137982" fill="rgb(191,191,191)"  stroke="rgb(191,191,191)" stroke-width="1" font-size="16" >H</text>
<text x="377.544407" y="179.098811" fill="rgb(191,191,191)"  stroke="rgb(191,191,191)" stroke-width="1" font-size="16" >H</text>
<text x="225.306941" y="217.735844" fill="rgb(191,191,191)"  stroke="rgb(191,191,191)" stroke-width="1" font-size="16" >H</text>
<text font-size="18.000000" fill ="black" font-family="sans-serif"
x="140.000000" y="20.000000" ></text>
<title> - OBDepict</title>
</svg>
