<?xml version="1.0"?>
<svg xmlns="http://www.w3.org/2000/svg"
xmlns:xlink="http://www.w3.org/1999/xlink" xmlns:cml="http://www.xml-cml.org/schema" width="901.367" height="563.182" x="0" y="0" font-family="sans-serif" stroke="rgb(0,0,0)" stroke-width="1" >
<line x1="56.9" y1="70.2" x2="76.2" y2="91.6"/>
<line x1="585.0" y1="447.4" x2="606.5" y2="428.1"/>
<line x1="579.0" y1="419.1" x2="606.5" y2="428.1"/>
<line x1="76.2" y1="91.6" x2="114.3" y2="83.5"/>
<line x1="114.3" y1="83.5" x2="140.5" y2="112.5"/>
<line x1="140.5" y1="112.5" x2="128.4" y2="149.6"/>
<line x1="128.4" y1="149.6" x2="90.2" y2="157.7"/>
<line x1="90.2" y1="157.7" x2="70.9" y2="136.3"/>
<line x1="93.1" y1="158.7" x2="81.0" y2="195.8"/>
<line x1="87.4" y1="156.8" x2="75.3" y2="193.9"/>
<line x1="78.2" y1="194.9" x2="49.9" y2="200.9"/>
<line x1="78.2" y1="194.9" x2="104.3" y2="223.9"/>
<line x1="104.3" y1="223.9" x2="92.2" y2="261.0"/>
<line x1="92.2" y1="261.0" x2="64.0" y2="267.0"/>
<line x1="94.5" y1="259.0" x2="120.6" y2="288.0"/>
<line x1="90.0" y1="263.0" x2="116.1" y2="292.0"/>
<line x1="118.3" y1="290.0" x2="109.4" y2="317.4"/>
<line x1="118.3" y1="290.0" x2="156.5" y2="281.9"/>
<line x1="156.5" y1="281.9" x2="182.6" y2="310.9"/>
<line x1="182.6" y1="310.9" x2="220.8" y2="302.7"/>
<line x1="220.8" y1="302.7" x2="246.9" y2="331.7"/>
<line x1="246.9" y1="331.7" x2="285.1" y2="323.6"/>
<line x1="285.1" y1="323.6" x2="311.2" y2="352.6"/>
<line x1="518.1" y1="481.4" x2="556.3" y2="473.3"/>
<line x1="518.1" y1="481.4" x2="492.0" y2="452.4"/>
<line x1="556.3" y1="473.3" x2="575.6" y2="494.8"/>
<line x1="477.9" y1="386.3" x2="439.8" y2="394.4"/>
<line x1="477.9" y1="386.3" x2="497.3" y2="407.8"/>
<line x1="439.8" y1="394.4" x2="420.4" y2="372.9"/>
<line x1="349.4" y1="344.5" x2="311.2" y2="352.6"/>
<line x1="349.4" y1="344.5" x2="375.5" y2="373.5"/>
<line x1="600.3" y1="211.4" x2="638.5" y2="203.3"/>
<line x1="600.3" y1="211.4" x2="591.4" y2="238.8"/>
<line x1="630.6" y1="353.8" x2="606.5" y2="428.1"/>
<line x1="630.6" y1="353.8" x2="611.3" y2="332.4"/>
<line x1="292.9" y1="369.6" x2="292.4" y2="369.0"/>
<line x1="296.1" y1="367.3" x2="295.0" y2="366.1"/>
<line x1="299.2" y1="365.0" x2="297.6" y2="363.2"/>
<line x1="302.4" y1="362.7" x2="300.3" y2="360.3"/>
<line x1="305.6" y1="360.4" x2="302.9" y2="357.4"/>
<line x1="308.7" y1="358.1" x2="305.5" y2="354.5"/>
<line x1="311.9" y1="355.8" x2="308.2" y2="351.6"/>
<line x1="311.2" y1="352.6" x2="317.2" y2="380.9"/>
<polygon points="630.426930 228.131624 642.310820 204.501043 634.702368 202.028908 " />
<line x1="489.1" y1="451.5" x2="498.1" y2="424.0"/>
<line x1="494.8" y1="453.3" x2="503.8" y2="425.9"/>
<line x1="492.0" y1="452.4" x2="463.7" y2="458.4"/>
<line x1="378.3" y1="374.4" x2="369.4" y2="401.9"/>
<line x1="372.6" y1="372.6" x2="363.7" y2="400.1"/>
<line x1="375.5" y1="373.5" x2="403.7" y2="367.5"/>
<polygon points="661.998325 123.715067 666.273763 149.817783 673.882215 147.345648 " />
<line x1="670.1" y1="148.6" x2="689.4" y2="127.1"/>
<polygon points="608.281093 164.454365 634.427434 168.454365 634.427434 160.454365 " />
<line x1="634.4" y1="164.5" x2="620.0" y2="139.4"/>
<line x1="632.6" y1="457.1" x2="660.1" y2="466.0"/>
<line x1="632.6" y1="457.1" x2="620.6" y2="494.2"/>
<line x1="632.6" y1="457.1" x2="606.5" y2="428.1"/>
<line x1="632.6" y1="457.1" x2="654.1" y2="437.7"/>
<line x1="836.8" y1="76.4" x2="847.2" y2="49.5"/>
<line x1="621.2" y1="497.1" x2="592.9" y2="503.1"/>
<line x1="619.9" y1="491.2" x2="591.7" y2="497.3"/>
<line x1="620.6" y1="494.2" x2="639.9" y2="515.6"/>
<polygon points="712.830246 197.750454 699.275800 175.036842 693.105005 180.128137 " />
<line x1="696.2" y1="177.6" x2="732.5" y2="132.7"/>
<line x1="575.9" y1="101.8" x2="575.9" y2="120.5"/>
<line x1="547.0" y1="130.7" x2="565.7" y2="130.7"/>
<line x1="572.9" y1="159.5" x2="572.9" y2="140.8"/>
<line x1="578.9" y1="159.5" x2="578.9" y2="140.8"/>
<line x1="544.1" y1="228.4" x2="548.0" y2="246.7"/>
<line x1="521.2" y1="259.7" x2="539.6" y2="255.8"/>
<line x1="522.5" y1="265.5" x2="540.8" y2="261.7"/>
<line x1="538.1" y1="339.0" x2="556.4" y2="335.1"/>
<line x1="569.4" y1="361.8" x2="565.5" y2="343.5"/>
<line x1="575.3" y1="360.6" x2="571.4" y2="342.3"/>
<line x1="578.4" y1="250.6" x2="560.0" y2="254.5"/>
<line x1="594.6" y1="326.9" x2="576.3" y2="330.8"/>
<line x1="604.8" y1="130.7" x2="586.0" y2="130.7"/>
<line x1="556.1" y1="284.9" x2="552.2" y2="266.5"/>
<line x1="560.3" y1="304.7" x2="564.2" y2="323.0"/>
<line x1="735.2" y1="79.2" x2="742.7" y2="107.1"/>
<line x1="755.4" y1="117.5" x2="784.3" y2="119.0"/>
<line x1="784.3" y1="119.0" x2="798.3" y2="82.5"/>
<line x1="798.3" y1="82.5" x2="775.8" y2="64.4"/>
<line x1="759.4" y1="63.5" x2="735.2" y2="79.2"/>
<line x1="761.6" y1="70.7" x2="744.2" y2="82.0"/>
<line x1="638.5" y1="203.3" x2="634.4" y2="164.5"/>
<line x1="634.4" y1="164.5" x2="670.1" y2="148.6"/>
<line x1="670.1" y1="148.6" x2="696.2" y2="177.6"/>
<line x1="696.2" y1="177.6" x2="681.8" y2="202.6"/>
<line x1="666.8" y1="209.3" x2="638.5" y2="203.3"/>
<line x1="784.3" y1="119.0" x2="802.5" y2="141.4"/>
<line x1="793.7" y1="119.1" x2="806.7" y2="135.3"/>
<line x1="818.9" y1="147.7" x2="847.4" y2="143.2"/>
<line x1="847.4" y1="143.2" x2="857.7" y2="116.2"/>
<line x1="842.8" y1="135.0" x2="850.3" y2="115.6"/>
<line x1="855.0" y1="98.9" x2="836.8" y2="76.4"/>
<line x1="836.8" y1="76.4" x2="798.3" y2="82.5"/>
<line x1="832.0" y1="84.5" x2="805.3" y2="88.7"/>
<text x="26.465185" y="70.943109" fill="rgb(102,102,102)"  stroke="rgb(102,102,102)" stroke-width="1" font-size="16" >H</text>
<text x="38.465185" y="78.623109" fill="rgb(102,102,102)"  stroke="rgb(102,102,102)" stroke-width="1" font-size="13" >3</text>
<text x="44.965185" y="70.943109" fill="rgb(102,102,102)"  stroke="rgb(102,102,102)" stroke-width="1" font-size="16" >C</text>
<text x="553.896275" y="458.978219" fill="rgb(102,102,102)"  stroke="rgb(102,102,102)" stroke-width="1" font-size="16" >H</text>
<text x="565.896275" y="463.778219" fill="rgb(102,102,102)"  stroke="rgb(102,102,102)" stroke-width="1" font-size="13" >3</text>
<text x="572.396275" y="458.978219" fill="rgb(102,102,102)"  stroke="rgb(102,102,102)" stroke-width="1" font-size="16" >C</text>
<text x="545.782648" y="424.326606" fill="rgb(102,102,102)"  stroke="rgb(102,102,102)" stroke-width="1" font-size="16" >H</text>
<text x="557.782648" y="432.006606" fill="rgb(102,102,102)"  stroke="rgb(102,102,102)" stroke-width="1" font-size="13" >3</text>
<text x="564.282648" y="424.326606" fill="rgb(102,102,102)"  stroke="rgb(102,102,102)" stroke-width="1" font-size="16" >C</text>
<text x="844.793117" y="48.320000" fill="rgb(12,12,255)"  stroke="rgb(12,12,255)" stroke-width="1" font-size="16" >NH</text>
<text x="868.793117" y="56.000000" fill="rgb(12,12,255)"  stroke="rgb(12,12,255)" stroke-width="1" font-size="13" >2</text>
<text x="498.041407" y="423.612286" fill="rgb(12,12,255)"  stroke="rgb(12,12,255)" stroke-width="1" font-size="16" >N</text>
<text x="578.778649" y="507.094607" fill="rgb(12,12,255)"  stroke="rgb(12,12,255)" stroke-width="1" font-size="16" >N</text>
<text x="855.366871" y="115.080054" fill="rgb(12,12,255)"  stroke="rgb(12,12,255)" stroke-width="1" font-size="16" >N</text>
<text x="805.237845" y="154.097221" fill="rgb(12,12,255)"  stroke="rgb(12,12,255)" stroke-width="1" font-size="16" >N</text>
<text x="761.936444" y="66.298322" fill="rgb(12,12,255)"  stroke="rgb(12,12,255)" stroke-width="1" font-size="16" >N</text>
<text x="739.308092" y="125.247195" fill="rgb(12,12,255)"  stroke="rgb(12,12,255)" stroke-width="1" font-size="16" >N</text>
<text x="313.302951" y="395.602459" fill="rgb(255,12,12)"  stroke="rgb(255,12,12)" stroke-width="1" font-size="16" >OH</text>
<text x="449.010594" y="479.720313" fill="rgb(255,12,12)"  stroke="rgb(255,12,12)" stroke-width="1" font-size="32" >-</text>
<text x="450.210594" y="465.320313" fill="rgb(255,12,12)"  stroke="rgb(255,12,12)" stroke-width="1" font-size="16" >O</text>
<text x="359.814152" y="415.432393" fill="rgb(255,12,12)"  stroke="rgb(255,12,12)" stroke-width="1" font-size="16" >O</text>
<text x="690.190403" y="127.900942" fill="rgb(255,12,12)"  stroke="rgb(255,12,12)" stroke-width="1" font-size="16" >OH</text>
<text x="655.610236" y="439.274165" fill="rgb(255,12,12)"  stroke="rgb(255,12,12)" stroke-width="1" font-size="16" >OH</text>
<text x="641.862677" y="542.381753" fill="rgb(255,12,12)"  stroke="rgb(255,12,12)" stroke-width="1" font-size="32" >-</text>
<text x="640.662677" y="527.981753" fill="rgb(255,12,12)"  stroke="rgb(255,12,12)" stroke-width="1" font-size="16" >O</text>
<text x="571.090849" y="85.233861" fill="rgb(255,12,12)"  stroke="rgb(255,12,12)" stroke-width="1" font-size="32" >-</text>
<text x="569.890849" y="99.953861" fill="rgb(255,12,12)"  stroke="rgb(255,12,12)" stroke-width="1" font-size="16" >O</text>
<text x="532.066459" y="124.258252" fill="rgb(255,12,12)"  stroke="rgb(255,12,12)" stroke-width="1" font-size="32" >-</text>
<text x="533.266459" y="138.978252" fill="rgb(255,12,12)"  stroke="rgb(255,12,12)" stroke-width="1" font-size="16" >O</text>
<text x="569.890849" y="174.482642" fill="rgb(255,12,12)"  stroke="rgb(255,12,12)" stroke-width="1" font-size="16" >O</text>
<text x="526.390540" y="226.755016" fill="rgb(255,12,12)"  stroke="rgb(255,12,12)" stroke-width="1" font-size="16" >HO</text>
<text x="508.332553" y="269.520257" fill="rgb(255,12,12)"  stroke="rgb(255,12,12)" stroke-width="1" font-size="16" >O</text>
<text x="512.559807" y="345.863484" fill="rgb(255,12,12)"  stroke="rgb(255,12,12)" stroke-width="1" font-size="16" >HO</text>
<text x="568.445047" y="375.921471" fill="rgb(255,12,12)"  stroke="rgb(255,12,12)" stroke-width="1" font-size="16" >O</text>
<text x="582.275780" y="253.293003" fill="rgb(255,12,12)"  stroke="rgb(255,12,12)" stroke-width="1" font-size="16" >O</text>
<text x="598.503034" y="333.156230" fill="rgb(255,12,12)"  stroke="rgb(255,12,12)" stroke-width="1" font-size="16" >O</text>
<text x="670.678207" y="216.178602" fill="rgb(255,12,12)"  stroke="rgb(255,12,12)" stroke-width="1" font-size="16" >O</text>
<text x="608.915239" y="138.978252" fill="rgb(255,12,12)"  stroke="rgb(255,12,12)" stroke-width="1" font-size="16" >O</text>
<text x="552.217794" y="299.578244" fill="rgb(255,12,12)"  stroke="rgb(255,12,12)" stroke-width="1" font-size="16" >O</text>
<text x="569.890849" y="135.458252" fill="rgb(255,127,0)"  stroke="rgb(255,127,0)" stroke-width="1" font-size="16" >P</text>
<text x="544.104167" y="264.926630" fill="rgb(255,127,0)"  stroke="rgb(255,127,0)" stroke-width="1" font-size="16" >P</text>
<text x="560.331421" y="337.749857" fill="rgb(255,127,0)"  stroke="rgb(255,127,0)" stroke-width="1" font-size="16" >P</text>
<text x="407.644966" y="373.724365" fill="rgb(178,178,0)"  stroke="rgb(178,178,0)" stroke-width="1" font-size="16" >S</text>
<text x="60.518400" y="137.058283" fill="rgb(191,191,191)"  stroke="rgb(191,191,191)" stroke-width="1" font-size="16" >H</text>
<text x="36.400000" y="207.767084" fill="rgb(191,191,191)"  stroke="rgb(191,191,191)" stroke-width="1" font-size="16" >H</text>
<text x="50.453214" y="273.882259" fill="rgb(191,191,191)"  stroke="rgb(191,191,191)" stroke-width="1" font-size="16" >H</text>
<text x="102.678042" y="331.883806" fill="rgb(191,191,191)"  stroke="rgb(191,191,191)" stroke-width="1" font-size="16" >H</text>
<text x="278.588551" y="383.543259" fill="rgb(191,191,191)"  stroke="rgb(191,191,191)" stroke-width="1" font-size="16" >H</text>
<text x="622.847394" y="245.179376" fill="rgb(191,191,191)"  stroke="rgb(191,191,191)" stroke-width="1" font-size="16" >H</text>
<text x="654.418789" y="119.787315" fill="rgb(191,191,191)"  stroke="rgb(191,191,191)" stroke-width="1" font-size="16" >H</text>
<text x="591.803044" y="172.774365" fill="rgb(191,191,191)"  stroke="rgb(191,191,191)" stroke-width="1" font-size="16" >H</text>
<text x="663.723863" y="473.925779" fill="rgb(191,191,191)"  stroke="rgb(191,191,191)" stroke-width="1" font-size="16" >H</text>
<text x="715.025989" y="212.483929" fill="rgb(191,191,191)"  stroke="rgb(191,191,191)" stroke-width="1" font-size="16" >H</text>
<text font-size="18.000000" fill ="black" font-family="sans-serif"
x="140.000000" y="20.000000" ></text>
<title> - OBDepict</title>
</svg>
