<?xml version="1.0"?>
<svg xmlns="http://www.w3.org/2000/svg"
xmlns:xlink="http://www.w3.org/1999/xlink" xmlns:cml="http://www.xml-cml.org/schema" width="480.221" height="268.92" x="0" y="0" font-family="sans-serif" stroke="rgb(0,0,0)" stroke-width="1" >
<line x1="74.7" y1="139.6" x2="72.6" y2="100.8"/>
<line x1="74.7" y1="139.6" x2="100.3" y2="152.7"/>
<line x1="420.8" y1="136.9" x2="381.9" y2="136.9"/>
<line x1="420.8" y1="136.9" x2="435.2" y2="161.8"/>
<polygon points="394.915911 114.343055 378.424031 134.907828 385.352234 138.907828 " />
<line x1="406.8" y1="175.4" x2="406.8" y2="176.2"/>
<line x1="402.9" y1="175.0" x2="402.9" y2="176.6"/>
<line x1="399.0" y1="174.6" x2="399.0" y2="177.0"/>
<line x1="395.1" y1="174.2" x2="395.1" y2="177.4"/>
<line x1="391.2" y1="173.8" x2="391.2" y2="177.8"/>
<line x1="387.3" y1="173.4" x2="387.3" y2="178.2"/>
<line x1="383.4" y1="173.0" x2="383.4" y2="178.6"/>
<line x1="381.9" y1="175.8" x2="396.3" y2="200.7"/>
<polygon points="361.237145 217.805935 351.673469 193.241162 344.745266 197.241162 " />
<line x1="348.2" y1="195.2" x2="333.8" y2="220.2"/>
<line x1="302.4" y1="197.6" x2="301.7" y2="197.2"/>
<line x1="304.7" y1="194.4" x2="303.3" y2="193.6"/>
<line x1="307.0" y1="191.2" x2="304.9" y2="190.0"/>
<line x1="309.3" y1="188.0" x2="306.5" y2="186.4"/>
<line x1="311.6" y1="184.9" x2="308.1" y2="182.9"/>
<line x1="313.9" y1="181.7" x2="309.7" y2="179.3"/>
<line x1="316.2" y1="178.5" x2="311.3" y2="175.7"/>
<line x1="314.5" y1="175.8" x2="285.8" y2="175.8"/>
<line x1="141.9" y1="136.1" x2="117.8" y2="151.8"/>
<line x1="317.4" y1="112.2" x2="318.2" y2="112.3"/>
<line x1="316.5" y1="116.0" x2="318.1" y2="116.2"/>
<line x1="315.6" y1="119.8" x2="318.0" y2="120.1"/>
<line x1="314.7" y1="123.6" x2="317.8" y2="124.0"/>
<line x1="313.8" y1="127.4" x2="317.7" y2="127.9"/>
<line x1="312.9" y1="131.2" x2="317.6" y2="131.8"/>
<line x1="312.0" y1="135.0" x2="317.5" y2="135.7"/>
<line x1="314.5" y1="136.9" x2="258.9" y2="151.8"/>
<line x1="225.5" y1="193.3" x2="196.7" y2="191.8"/>
<line x1="219.9" y1="185.8" x2="199.2" y2="184.8"/>
<line x1="184.0" y1="181.5" x2="176.6" y2="153.7"/>
<line x1="176.6" y1="153.7" x2="209.2" y2="132.6"/>
<line x1="209.2" y1="132.6" x2="231.5" y2="150.7"/>
<line x1="235.8" y1="166.5" x2="225.5" y2="193.3"/>
<line x1="50.1" y1="42.0" x2="40.0" y2="79.6"/>
<line x1="40.0" y1="79.6" x2="72.6" y2="100.8"/>
<line x1="49.0" y1="76.8" x2="71.5" y2="91.5"/>
<line x1="72.6" y1="100.8" x2="95.0" y2="82.7"/>
<line x1="99.2" y1="66.9" x2="88.9" y2="40.0"/>
<line x1="88.9" y1="40.0" x2="50.1" y2="42.0"/>
<line x1="83.3" y1="47.5" x2="56.4" y2="48.9"/>
<line x1="176.6" y1="153.7" x2="141.9" y2="136.1"/>
<line x1="174.5" y1="144.6" x2="150.5" y2="132.4"/>
<line x1="141.9" y1="136.1" x2="140.4" y2="107.4"/>
<line x1="148.4" y1="91.7" x2="172.5" y2="76.1"/>
<line x1="154.1" y1="96.6" x2="171.4" y2="85.4"/>
<line x1="172.5" y1="76.1" x2="198.1" y2="89.1"/>
<line x1="207.7" y1="103.8" x2="209.2" y2="132.6"/>
<line x1="200.6" y1="106.3" x2="201.7" y2="126.9"/>
<line x1="348.2" y1="195.2" x2="314.5" y2="175.8"/>
<line x1="314.5" y1="175.8" x2="314.5" y2="136.9"/>
<line x1="314.5" y1="136.9" x2="339.5" y2="122.5"/>
<line x1="357.0" y1="122.5" x2="381.9" y2="136.9"/>
<line x1="381.9" y1="136.9" x2="381.9" y2="175.8"/>
<line x1="381.9" y1="175.8" x2="348.2" y2="195.2"/>
<text x="103.300507" y="162.070255" fill="rgb(12,12,255)"  stroke="rgb(12,12,255)" stroke-width="1" font-size="16" >NH</text>
<text x="136.280187" y="105.574255" fill="rgb(12,12,255)"  stroke="rgb(12,12,255)" stroke-width="1" font-size="16" >N</text>
<text x="201.145407" y="102.049035" fill="rgb(12,12,255)"  stroke="rgb(12,12,255)" stroke-width="1" font-size="16" >N</text>
<text x="183.030913" y="196.108817" fill="rgb(12,12,255)"  stroke="rgb(12,12,255)" stroke-width="1" font-size="16" >N</text>
<text x="235.803037" y="161.838198" fill="rgb(12,12,255)"  stroke="rgb(12,12,255)" stroke-width="1" font-size="16" >N</text>
<text x="434.221466" y="175.386594" fill="rgb(255,12,12)"  stroke="rgb(255,12,12)" stroke-width="1" font-size="16" >OH</text>
<text x="395.332577" y="214.275483" fill="rgb(255,12,12)"  stroke="rgb(255,12,12)" stroke-width="1" font-size="16" >OH</text>
<text x="313.164923" y="233.719927" fill="rgb(255,12,12)"  stroke="rgb(255,12,12)" stroke-width="1" font-size="16" >HO</text>
<text x="260.041713" y="180.596717" fill="rgb(255,12,12)"  stroke="rgb(255,12,12)" stroke-width="1" font-size="16" >HO</text>
<text x="96.837309" y="81.105905" fill="rgb(255,12,12)"  stroke="rgb(255,12,12)" stroke-width="1" font-size="16" >O</text>
<text x="342.209367" y="125.783384" fill="rgb(255,12,12)"  stroke="rgb(255,12,12)" stroke-width="1" font-size="16" >O</text>
<text x="395.332577" y="111.549063" fill="rgb(191,191,191)"  stroke="rgb(191,191,191)" stroke-width="1" font-size="16" >H</text>
<text x="414.777022" y="180.596717" fill="rgb(191,191,191)"  stroke="rgb(191,191,191)" stroke-width="1" font-size="16" >H</text>
<text x="361.653812" y="233.719927" fill="rgb(191,191,191)"  stroke="rgb(191,191,191)" stroke-width="1" font-size="16" >H</text>
<text x="291.486157" y="214.275483" fill="rgb(191,191,191)"  stroke="rgb(191,191,191)" stroke-width="1" font-size="16" >H</text>
<text x="313.606620" y="106.671639" fill="rgb(191,191,191)"  stroke="rgb(191,191,191)" stroke-width="1" font-size="16" >H</text>
<text font-size="18.000000" fill ="black" font-family="sans-serif"
x="140.000000" y="20.000000" ></text>
<title> - OBDepict</title>
</svg>
