<?xml version="1.0"?>
<svg xmlns="http://www.w3.org/2000/svg"
xmlns:xlink="http://www.w3.org/1999/xlink" xmlns:cml="http://www.xml-cml.org/schema" width="580" height="546.41" x="0" y="0" font-family="sans-serif" stroke="rgb(0,0,0)" stroke-width="1" >
<line x1="94.8" y1="497.4" x2="80.0" y2="471.8"/>
<line x1="50.4" y1="471.8" x2="80.0" y2="471.8"/>
<line x1="154.8" y1="393.5" x2="140.0" y2="367.8"/>
<line x1="274.8" y1="324.2" x2="260.0" y2="298.6"/>
<line x1="394.8" y1="254.9" x2="380.0" y2="229.3"/>
<line x1="80.0" y1="402.5" x2="100.0" y2="437.1"/>
<line x1="80.0" y1="402.5" x2="100.0" y2="367.8"/>
<line x1="200.0" y1="333.2" x2="160.0" y2="333.2"/>
<line x1="200.0" y1="333.2" x2="220.0" y2="298.6"/>
<line x1="320.0" y1="263.9" x2="280.0" y2="263.9"/>
<line x1="320.0" y1="263.9" x2="340.0" y2="229.3"/>
<line x1="102.6" y1="438.6" x2="82.6" y2="473.3"/>
<line x1="97.4" y1="435.6" x2="77.4" y2="470.3"/>
<line x1="100.0" y1="367.8" x2="140.0" y2="367.8"/>
<line x1="160.0" y1="333.2" x2="145.2" y2="307.6"/>
<line x1="162.6" y1="334.7" x2="142.6" y2="369.3"/>
<line x1="157.4" y1="331.7" x2="137.4" y2="366.3"/>
<line x1="220.0" y1="298.6" x2="260.0" y2="298.6"/>
<line x1="280.0" y1="263.9" x2="265.2" y2="238.3"/>
<line x1="282.6" y1="265.4" x2="262.6" y2="300.1"/>
<line x1="277.4" y1="262.4" x2="257.4" y2="297.1"/>
<line x1="340.0" y1="229.3" x2="380.0" y2="229.3"/>
<line x1="400.0" y1="194.6" x2="385.2" y2="169.0"/>
<line x1="400.0" y1="194.6" x2="440.0" y2="194.6"/>
<line x1="402.6" y1="196.1" x2="382.6" y2="230.8"/>
<line x1="397.4" y1="193.1" x2="377.4" y2="227.8"/>
<line x1="440.0" y1="194.6" x2="454.8" y2="169.0"/>
<line x1="529.6" y1="80.0" x2="510.4" y2="80.0"/>
<line x1="500.0" y1="50.4" x2="500.0" y2="69.6"/>
<line x1="470.4" y1="77.0" x2="489.6" y2="77.0"/>
<line x1="470.4" y1="83.0" x2="489.6" y2="83.0"/>
<line x1="500.0" y1="189.6" x2="500.0" y2="170.4"/>
<line x1="529.6" y1="163.0" x2="510.4" y2="163.0"/>
<line x1="529.6" y1="157.0" x2="510.4" y2="157.0"/>
<line x1="470.4" y1="160.0" x2="489.6" y2="160.0"/>
<line x1="500.0" y1="109.6" x2="500.0" y2="90.4"/>
<line x1="500.0" y1="130.4" x2="500.0" y2="149.6"/>
<text x="94.000000" y="511.210162" fill="rgb(102,102,102)"  stroke="rgb(102,102,102)" stroke-width="1" font-size="16" >CH</text>
<text x="118.000000" y="516.010162" fill="rgb(102,102,102)"  stroke="rgb(102,102,102)" stroke-width="1" font-size="13" >3</text>
<text x="16.400000" y="476.569145" fill="rgb(102,102,102)"  stroke="rgb(102,102,102)" stroke-width="1" font-size="16" >H</text>
<text x="28.400000" y="481.369145" fill="rgb(102,102,102)"  stroke="rgb(102,102,102)" stroke-width="1" font-size="13" >3</text>
<text x="34.900000" y="476.569145" fill="rgb(102,102,102)"  stroke="rgb(102,102,102)" stroke-width="1" font-size="16" >C</text>
<text x="154.000000" y="407.287113" fill="rgb(102,102,102)"  stroke="rgb(102,102,102)" stroke-width="1" font-size="16" >CH</text>
<text x="178.000000" y="412.087113" fill="rgb(102,102,102)"  stroke="rgb(102,102,102)" stroke-width="1" font-size="13" >3</text>
<text x="274.000000" y="338.005081" fill="rgb(102,102,102)"  stroke="rgb(102,102,102)" stroke-width="1" font-size="16" >CH</text>
<text x="298.000000" y="342.805081" fill="rgb(102,102,102)"  stroke="rgb(102,102,102)" stroke-width="1" font-size="13" >3</text>
<text x="394.000000" y="268.723048" fill="rgb(102,102,102)"  stroke="rgb(102,102,102)" stroke-width="1" font-size="16" >CH</text>
<text x="418.000000" y="273.523048" fill="rgb(102,102,102)"  stroke="rgb(102,102,102)" stroke-width="1" font-size="13" >3</text>
<text x="536.100000" y="74.800000" fill="rgb(255,12,12)"  stroke="rgb(255,12,12)" stroke-width="1" font-size="26" >-</text>
<text x="534.000000" y="88.320000" fill="rgb(255,12,12)"  stroke="rgb(255,12,12)" stroke-width="1" font-size="16" >O</text>
<text x="495.200000" y="33.600000" fill="rgb(255,12,12)"  stroke="rgb(255,12,12)" stroke-width="1" font-size="32" >-</text>
<text x="494.000000" y="48.320000" fill="rgb(255,12,12)"  stroke="rgb(255,12,12)" stroke-width="1" font-size="16" >O</text>
<text x="456.400000" y="84.800000" fill="rgb(255,12,12)"  stroke="rgb(255,12,12)" stroke-width="1" font-size="16" >O</text>
<text x="495.200000" y="219.200000" fill="rgb(255,12,12)"  stroke="rgb(255,12,12)" stroke-width="1" font-size="32" >-</text>
<text x="494.000000" y="204.800000" fill="rgb(255,12,12)"  stroke="rgb(255,12,12)" stroke-width="1" font-size="16" >O</text>
<text x="534.000000" y="168.320000" fill="rgb(255,12,12)"  stroke="rgb(255,12,12)" stroke-width="1" font-size="16" >O</text>
<text x="456.400000" y="168.320000" fill="rgb(255,12,12)"  stroke="rgb(255,12,12)" stroke-width="1" font-size="16" >O</text>
<text x="494.000000" y="128.320000" fill="rgb(255,12,12)"  stroke="rgb(255,12,12)" stroke-width="1" font-size="16" >O</text>
<text x="494.000000" y="84.800000" fill="rgb(255,127,0)"  stroke="rgb(255,127,0)" stroke-width="1" font-size="16" >P</text>
<text x="494.000000" y="164.800000" fill="rgb(255,127,0)"  stroke="rgb(255,127,0)" stroke-width="1" font-size="16" >P</text>
<text x="136.400000" y="306.884065" fill="rgb(191,191,191)"  stroke="rgb(191,191,191)" stroke-width="1" font-size="16" >H</text>
<text x="256.400000" y="237.602032" fill="rgb(191,191,191)"  stroke="rgb(191,191,191)" stroke-width="1" font-size="16" >H</text>
<text x="376.400000" y="168.320000" fill="rgb(191,191,191)"  stroke="rgb(191,191,191)" stroke-width="1" font-size="16" >H</text>
<text font-size="18.000000" fill ="black" font-family="sans-serif"
x="140.000000" y="20.000000" ></text>
<title> - OBDepict</title>
</svg>
