<?xml version="1.0"?>
<svg xmlns="http://www.w3.org/2000/svg"
xmlns:xlink="http://www.w3.org/1999/xlink" xmlns:cml="http://www.xml-cml.org/schema" width="251.172" height="266.487" x="0" y="0" font-family="sans-serif" stroke="rgb(0,0,0)" stroke-width="1" >
<line x1="59.8" y1="47.7" x2="47.0" y2="62.0"/>
<line x1="91.5" y1="116.1" x2="52.4" y2="107.8"/>
<line x1="91.5" y1="116.1" x2="103.8" y2="154.1"/>
<line x1="52.4" y1="107.8" x2="43.2" y2="79.6"/>
<line x1="80.3" y1="186.5" x2="103.8" y2="154.1"/>
<line x1="89.7" y1="185.9" x2="106.1" y2="163.2"/>
<line x1="103.8" y1="154.1" x2="141.9" y2="166.5"/>
<line x1="141.9" y1="166.5" x2="141.9" y2="206.5"/>
<line x1="141.9" y1="206.5" x2="113.7" y2="215.6"/>
<line x1="97.7" y1="210.4" x2="80.3" y2="186.5"/>
<line x1="211.2" y1="166.5" x2="211.2" y2="206.5"/>
<line x1="204.0" y1="172.5" x2="204.0" y2="200.5"/>
<line x1="211.2" y1="206.5" x2="176.5" y2="226.5"/>
<line x1="176.5" y1="226.5" x2="141.9" y2="206.5"/>
<line x1="174.9" y1="217.3" x2="150.7" y2="203.3"/>
<line x1="141.9" y1="166.5" x2="176.5" y2="146.5"/>
<line x1="150.7" y1="169.7" x2="174.9" y2="155.7"/>
<line x1="176.5" y1="146.5" x2="211.2" y2="166.5"/>
<text x="60.765224" y="48.320000" fill="rgb(102,102,102)"  stroke="rgb(102,102,102)" stroke-width="1" font-size="16" >CH</text>
<text x="84.765224" y="56.000000" fill="rgb(102,102,102)"  stroke="rgb(102,102,102)" stroke-width="1" font-size="13" >3</text>
<text x="24.400000" y="78.045793" fill="rgb(12,12,255)"  stroke="rgb(12,12,255)" stroke-width="1" font-size="16" >HN</text>
<text x="88.247264" y="223.648142" fill="rgb(12,12,255)"  stroke="rgb(12,12,255)" stroke-width="1" font-size="16" >HN</text>
<text font-size="18.000000" fill ="black" font-family="sans-serif"
x="140.000000" y="20.000000" ></text>
<title> - OBDepict</title>
</svg>
