<?xml version="1.0"?>
<svg xmlns="http://www.w3.org/2000/svg"
xmlns:xlink="http://www.w3.org/1999/xlink" xmlns:cml="http://www.xml-cml.org/schema" width="399.015" height="325.017" x="0" y="0" font-family="sans-serif" stroke="rgb(0,0,0)" stroke-width="1" >
<line x1="250.1" y1="201.0" x2="249.3" y2="201.0"/>
<line x1="250.5" y1="197.0" x2="248.9" y2="197.0"/>
<line x1="250.9" y1="193.0" x2="248.5" y2="193.0"/>
<line x1="251.3" y1="189.0" x2="248.1" y2="189.0"/>
<line x1="251.7" y1="185.0" x2="247.7" y2="185.0"/>
<line x1="252.1" y1="181.0" x2="247.3" y2="181.0"/>
<line x1="252.5" y1="177.0" x2="246.9" y2="177.0"/>
<line x1="86.4" y1="66.8" x2="78.0" y2="105.9"/>
<line x1="86.4" y1="66.8" x2="64.4" y2="47.0"/>
<line x1="147.8" y1="141.5" x2="147.1" y2="141.2"/>
<line x1="149.8" y1="138.0" x2="148.3" y2="137.4"/>
<line x1="151.8" y1="134.5" x2="149.6" y2="133.6"/>
<line x1="153.8" y1="131.1" x2="150.9" y2="129.7"/>
<line x1="155.8" y1="127.6" x2="152.1" y2="125.9"/>
<line x1="157.8" y1="124.1" x2="153.4" y2="122.1"/>
<line x1="159.8" y1="120.6" x2="154.6" y2="118.3"/>
<line x1="161.8" y1="105.5" x2="191.2" y2="102.4"/>
<line x1="162.4" y1="111.5" x2="191.8" y2="108.4"/>
<line x1="250.1" y1="270.6" x2="249.3" y2="270.6"/>
<line x1="250.5" y1="266.6" x2="248.9" y2="266.6"/>
<line x1="250.9" y1="262.6" x2="248.5" y2="262.6"/>
<line x1="251.3" y1="258.6" x2="248.1" y2="258.6"/>
<line x1="251.7" y1="254.6" x2="247.7" y2="254.6"/>
<line x1="252.1" y1="250.6" x2="247.3" y2="250.6"/>
<line x1="252.5" y1="246.6" x2="246.9" y2="246.6"/>
<line x1="344.6" y1="244.6" x2="344.6" y2="245.4"/>
<line x1="340.6" y1="244.2" x2="340.6" y2="245.8"/>
<line x1="336.6" y1="243.8" x2="336.6" y2="246.2"/>
<line x1="332.6" y1="243.4" x2="332.6" y2="246.6"/>
<line x1="328.6" y1="243.0" x2="328.6" y2="247.0"/>
<line x1="324.6" y1="242.6" x2="324.6" y2="247.4"/>
<line x1="320.6" y1="242.2" x2="320.6" y2="247.8"/>
<line x1="319.0" y1="245.0" x2="333.8" y2="270.7"/>
<line x1="158.5" y1="218.2" x2="158.1" y2="217.5"/>
<line x1="162.1" y1="216.5" x2="161.3" y2="215.1"/>
<line x1="165.8" y1="214.9" x2="164.6" y2="212.8"/>
<line x1="169.5" y1="213.2" x2="167.9" y2="210.4"/>
<line x1="173.1" y1="211.5" x2="171.1" y2="208.1"/>
<line x1="176.8" y1="209.9" x2="174.4" y2="205.7"/>
<line x1="180.5" y1="208.2" x2="177.7" y2="203.4"/>
<polygon points="156.710856 209.500051 149.464496 183.390086 142.156132 186.643979 " />
<polygon points="113.340087 106.441997 103.855463 131.824706 111.680644 133.487999 " />
<line x1="107.8" y1="132.7" x2="78.0" y2="105.9"/>
<polygon points="228.492347 121.807551 211.628245 143.017032 218.556448 147.017032 " />
<line x1="215.1" y1="145.0" x2="244.7" y2="145.0"/>
<line x1="79.0" y1="108.7" x2="50.8" y2="117.9"/>
<line x1="77.1" y1="103.0" x2="49.0" y2="112.2"/>
<polygon points="238.301827 171.617032 213.092347 181.552931 217.092347 188.481134 " />
<line x1="84.3" y1="165.0" x2="107.8" y2="132.7"/>
<line x1="107.8" y1="132.7" x2="145.8" y2="145.0"/>
<line x1="145.8" y1="145.0" x2="145.8" y2="185.0"/>
<line x1="145.8" y1="185.0" x2="107.8" y2="197.4"/>
<line x1="107.8" y1="197.4" x2="84.3" y2="165.0"/>
<line x1="215.1" y1="265.0" x2="180.5" y2="245.0"/>
<line x1="180.5" y1="245.0" x2="180.5" y2="205.0"/>
<line x1="180.5" y1="205.0" x2="215.1" y2="185.0"/>
<line x1="215.1" y1="185.0" x2="249.7" y2="205.0"/>
<line x1="249.7" y1="205.0" x2="249.7" y2="245.0"/>
<line x1="249.7" y1="245.0" x2="215.1" y2="265.0"/>
<line x1="319.0" y1="245.0" x2="284.4" y2="265.0"/>
<line x1="284.4" y1="265.0" x2="249.7" y2="245.0"/>
<line x1="249.7" y1="205.0" x2="284.4" y2="185.0"/>
<line x1="284.4" y1="185.0" x2="319.0" y2="205.0"/>
<line x1="319.0" y1="205.0" x2="319.0" y2="245.0"/>
<line x1="145.8" y1="145.0" x2="180.5" y2="125.0"/>
<line x1="180.5" y1="125.0" x2="215.1" y2="145.0"/>
<line x1="215.1" y1="145.0" x2="215.1" y2="185.0"/>
<line x1="180.5" y1="205.0" x2="145.8" y2="185.0"/>
<text x="243.733363" y="173.337032" fill="rgb(102,102,102)"  stroke="rgb(102,102,102)" stroke-width="1" font-size="16" >CH</text>
<text x="267.733363" y="181.017032" fill="rgb(102,102,102)"  stroke="rgb(102,102,102)" stroke-width="1" font-size="13" >3</text>
<text x="41.032935" y="48.320000" fill="rgb(255,12,12)"  stroke="rgb(255,12,12)" stroke-width="1" font-size="16" >HO</text>
<text x="195.860656" y="112.614075" fill="rgb(255,12,12)"  stroke="rgb(255,12,12)" stroke-width="1" font-size="16" >O</text>
<text x="333.015395" y="284.458048" fill="rgb(255,12,12)"  stroke="rgb(255,12,12)" stroke-width="1" font-size="16" >OH</text>
<text x="249.092347" y="153.337032" fill="rgb(255,12,12)"  stroke="rgb(255,12,12)" stroke-width="1" font-size="16" >OH</text>
<text x="36.400000" y="123.051808" fill="rgb(255,12,12)"  stroke="rgb(255,12,12)" stroke-width="1" font-size="16" >O</text>
<text x="243.733363" y="289.817032" fill="rgb(191,191,191)"  stroke="rgb(191,191,191)" stroke-width="1" font-size="16" >H</text>
<text x="353.015395" y="249.817032" fill="rgb(191,191,191)"  stroke="rgb(191,191,191)" stroke-width="1" font-size="16" >H</text>
<text x="142.210314" y="229.817032" fill="rgb(191,191,191)"  stroke="rgb(191,191,191)" stroke-width="1" font-size="16" >H</text>
<text x="156.079780" y="226.358851" fill="rgb(191,191,191)"  stroke="rgb(191,191,191)" stroke-width="1" font-size="16" >H</text>
<text x="110.084521" y="101.850449" fill="rgb(191,191,191)"  stroke="rgb(191,191,191)" stroke-width="1" font-size="16" >H</text>
<text x="229.092347" y="118.696016" fill="rgb(191,191,191)"  stroke="rgb(191,191,191)" stroke-width="1" font-size="16" >H</text>
<text x="243.733363" y="173.337032" fill="rgb(191,191,191)"  stroke="rgb(191,191,191)" stroke-width="1" font-size="16" >H</text>
<text font-size="18.000000" fill ="black" font-family="sans-serif"
x="140.000000" y="20.000000" ></text>
<title> - OBDepict</title>
</svg>
