<?xml version="1.0"?>
<svg xmlns="http://www.w3.org/2000/svg"
xmlns:xlink="http://www.w3.org/1999/xlink" xmlns:cml="http://www.xml-cml.org/schema" width="360.973" height="271.487" x="0" y="0" font-family="sans-serif" stroke="rgb(0,0,0)" stroke-width="1" >
<line x1="211.7" y1="121.9" x2="211.7" y2="151.5"/>
<line x1="119.8" y1="64.4" x2="107.8" y2="91.5"/>
<line x1="211.7" y1="191.5" x2="211.7" y2="221.1"/>
<line x1="306.6" y1="191.1" x2="306.6" y2="191.9"/>
<line x1="302.6" y1="190.7" x2="302.6" y2="192.3"/>
<line x1="298.6" y1="190.3" x2="298.6" y2="192.7"/>
<line x1="294.6" y1="189.9" x2="294.6" y2="193.1"/>
<line x1="290.6" y1="189.5" x2="290.6" y2="193.5"/>
<line x1="286.6" y1="189.1" x2="286.6" y2="193.9"/>
<line x1="282.6" y1="188.7" x2="282.6" y2="194.3"/>
<line x1="281.0" y1="191.5" x2="295.8" y2="217.1"/>
<line x1="142.4" y1="151.5" x2="116.8" y2="166.3"/>
<line x1="107.8" y1="131.5" x2="119.8" y2="158.5"/>
<line x1="177.1" y1="131.5" x2="202.7" y2="116.7"/>
<polygon points="49.809512 61.193204 67.049271 82.098483 72.402315 76.153325 " />
<line x1="69.7" y1="79.1" x2="75.9" y2="50.2"/>
<line x1="46.2" y1="111.5" x2="69.7" y2="79.1"/>
<line x1="69.7" y1="79.1" x2="107.8" y2="91.5"/>
<line x1="107.8" y1="91.5" x2="107.8" y2="131.5"/>
<line x1="107.8" y1="131.5" x2="69.7" y2="143.8"/>
<line x1="69.7" y1="143.8" x2="46.2" y2="111.5"/>
<line x1="177.1" y1="211.5" x2="142.4" y2="191.5"/>
<line x1="142.4" y1="191.5" x2="142.4" y2="151.5"/>
<line x1="142.4" y1="151.5" x2="177.1" y2="131.5"/>
<line x1="177.1" y1="131.5" x2="211.7" y2="151.5"/>
<line x1="211.7" y1="151.5" x2="211.7" y2="191.5"/>
<line x1="211.7" y1="191.5" x2="177.1" y2="211.5"/>
<line x1="281.0" y1="191.5" x2="246.3" y2="211.5"/>
<line x1="246.3" y1="211.5" x2="211.7" y2="191.5"/>
<line x1="211.7" y1="151.5" x2="246.3" y2="131.5"/>
<line x1="246.3" y1="131.5" x2="281.0" y2="151.5"/>
<line x1="281.0" y1="151.5" x2="281.0" y2="191.5"/>
<line x1="107.8" y1="91.5" x2="142.4" y2="71.5"/>
<line x1="142.4" y1="71.5" x2="177.1" y2="91.5"/>
<line x1="177.1" y1="91.5" x2="177.1" y2="131.5"/>
<line x1="142.4" y1="151.5" x2="107.8" y2="131.5"/>
<text x="205.691102" y="119.806584" fill="rgb(102,102,102)"  stroke="rgb(102,102,102)" stroke-width="1" font-size="16" >CH</text>
<text x="229.691102" y="127.486584" fill="rgb(102,102,102)"  stroke="rgb(102,102,102)" stroke-width="1" font-size="13" >3</text>
<text x="118.037519" y="63.264765" fill="rgb(102,102,102)"  stroke="rgb(102,102,102)" stroke-width="1" font-size="16" >CH</text>
<text x="142.037519" y="70.944765" fill="rgb(102,102,102)"  stroke="rgb(102,102,102)" stroke-width="1" font-size="13" >3</text>
<text x="294.973134" y="230.927600" fill="rgb(255,12,12)"  stroke="rgb(255,12,12)" stroke-width="1" font-size="16" >OH</text>
<text x="72.042261" y="48.320000" fill="rgb(255,12,12)"  stroke="rgb(255,12,12)" stroke-width="1" font-size="16" >OH</text>
<text x="205.691102" y="236.286584" fill="rgb(191,191,191)"  stroke="rgb(191,191,191)" stroke-width="1" font-size="16" >H</text>
<text x="314.973134" y="196.286584" fill="rgb(191,191,191)"  stroke="rgb(191,191,191)" stroke-width="1" font-size="16" >H</text>
<text x="104.168054" y="176.286584" fill="rgb(191,191,191)"  stroke="rgb(191,191,191)" stroke-width="1" font-size="16" >H</text>
<text x="118.037519" y="172.828402" fill="rgb(191,191,191)"  stroke="rgb(191,191,191)" stroke-width="1" font-size="16" >H</text>
<text x="205.691102" y="119.806584" fill="rgb(191,191,191)"  stroke="rgb(191,191,191)" stroke-width="1" font-size="16" >H</text>
<text x="36.400000" y="60.680680" fill="rgb(191,191,191)"  stroke="rgb(191,191,191)" stroke-width="1" font-size="16" >H</text>
<text font-size="18.000000" fill ="black" font-family="sans-serif"
x="140.000000" y="20.000000" ></text>
<title> - OBDepict</title>
</svg>
