<?xml version="1.0"?>
<svg xmlns="http://www.w3.org/2000/svg"
xmlns:xlink="http://www.w3.org/1999/xlink" xmlns:cml="http://www.xml-cml.org/schema" width="440" height="397.128" x="0" y="0" font-family="sans-serif" stroke="rgb(0,0,0)" stroke-width="1" >
<line x1="105.2" y1="49.0" x2="120.0" y2="74.6"/>
<line x1="120.0" y1="74.6" x2="100.0" y2="109.3"/>
<line x1="100.0" y1="109.3" x2="60.0" y2="109.3"/>
<line x1="60.0" y1="109.3" x2="40.0" y2="143.9"/>
<line x1="40.0" y1="143.9" x2="60.0" y2="178.6"/>
<line x1="60.0" y1="178.6" x2="45.2" y2="204.2"/>
<line x1="60.0" y1="175.6" x2="100.0" y2="175.6"/>
<line x1="60.0" y1="181.6" x2="100.0" y2="181.6"/>
<line x1="100.0" y1="178.6" x2="114.8" y2="204.2"/>
<line x1="100.0" y1="178.6" x2="120.0" y2="143.9"/>
<line x1="120.0" y1="143.9" x2="160.0" y2="143.9"/>
<line x1="160.0" y1="143.9" x2="174.8" y2="169.6"/>
<line x1="157.4" y1="142.4" x2="177.4" y2="107.8"/>
<line x1="162.6" y1="145.4" x2="182.6" y2="110.8"/>
<line x1="180.0" y1="109.3" x2="165.2" y2="83.6"/>
<line x1="180.0" y1="109.3" x2="220.0" y2="109.3"/>
<line x1="220.0" y1="109.3" x2="240.0" y2="74.6"/>
<line x1="240.0" y1="74.6" x2="225.2" y2="49.0"/>
<line x1="240.0" y1="71.6" x2="280.0" y2="71.6"/>
<line x1="240.0" y1="77.6" x2="280.0" y2="77.6"/>
<line x1="280.0" y1="74.6" x2="294.8" y2="49.0"/>
<line x1="280.0" y1="74.6" x2="300.0" y2="109.3"/>
<line x1="300.0" y1="109.3" x2="340.0" y2="109.3"/>
<line x1="340.0" y1="109.3" x2="354.8" y2="83.6"/>
<line x1="342.6" y1="107.8" x2="362.6" y2="142.4"/>
<line x1="337.4" y1="110.8" x2="357.4" y2="145.4"/>
<line x1="360.0" y1="143.9" x2="389.6" y2="143.9"/>
<line x1="360.0" y1="143.9" x2="340.0" y2="178.6"/>
<line x1="340.0" y1="178.6" x2="360.0" y2="213.2"/>
<line x1="360.0" y1="213.2" x2="340.0" y2="247.8"/>
<line x1="340.0" y1="247.8" x2="300.0" y2="247.8"/>
<line x1="240.0" y1="242.5" x2="240.0" y2="282.5"/>
<line x1="240.0" y1="242.5" x2="214.4" y2="227.7"/>
<line x1="200.0" y1="282.5" x2="240.0" y2="282.5"/>
<line x1="200.0" y1="282.5" x2="185.2" y2="308.1"/>
<line x1="240.4" y1="308.1" x2="239.6" y2="308.1"/>
<line x1="240.8" y1="304.1" x2="239.2" y2="304.1"/>
<line x1="241.2" y1="300.1" x2="238.8" y2="300.1"/>
<line x1="241.6" y1="296.1" x2="238.4" y2="296.1"/>
<line x1="242.0" y1="292.1" x2="238.0" y2="292.1"/>
<line x1="242.4" y1="288.1" x2="237.6" y2="288.1"/>
<line x1="242.8" y1="284.1" x2="237.2" y2="284.1"/>
<line x1="240.0" y1="282.5" x2="269.6" y2="282.5"/>
<line x1="297.4" y1="249.3" x2="282.6" y2="223.7"/>
<line x1="302.6" y1="246.3" x2="287.8" y2="220.7"/>
<line x1="300.0" y1="247.8" x2="285.2" y2="273.5"/>
<line x1="140.0" y1="287.5" x2="140.0" y2="306.7"/>
<line x1="110.4" y1="317.1" x2="129.6" y2="317.1"/>
<line x1="137.0" y1="346.7" x2="137.0" y2="327.5"/>
<line x1="143.0" y1="346.7" x2="143.0" y2="327.5"/>
<line x1="169.6" y1="317.1" x2="150.4" y2="317.1"/>
<text x="76.400000" y="48.320000" fill="rgb(102,102,102)"  stroke="rgb(102,102,102)" stroke-width="1" font-size="16" >H</text>
<text x="88.400000" y="56.000000" fill="rgb(102,102,102)"  stroke="rgb(102,102,102)" stroke-width="1" font-size="13" >3</text>
<text x="94.900000" y="48.320000" fill="rgb(102,102,102)"  stroke="rgb(102,102,102)" stroke-width="1" font-size="16" >C</text>
<text x="189.758984" y="230.807113" fill="rgb(255,12,12)"  stroke="rgb(255,12,12)" stroke-width="1" font-size="16" >HO</text>
<text x="276.400000" y="221.525081" fill="rgb(255,12,12)"  stroke="rgb(255,12,12)" stroke-width="1" font-size="16" >O</text>
<text x="135.200000" y="270.728129" fill="rgb(255,12,12)"  stroke="rgb(255,12,12)" stroke-width="1" font-size="32" >-</text>
<text x="134.000000" y="285.448129" fill="rgb(255,12,12)"  stroke="rgb(255,12,12)" stroke-width="1" font-size="16" >O</text>
<text x="95.200000" y="336.328129" fill="rgb(255,12,12)"  stroke="rgb(255,12,12)" stroke-width="1" font-size="32" >-</text>
<text x="96.400000" y="321.928129" fill="rgb(255,12,12)"  stroke="rgb(255,12,12)" stroke-width="1" font-size="16" >O</text>
<text x="134.000000" y="361.928129" fill="rgb(255,12,12)"  stroke="rgb(255,12,12)" stroke-width="1" font-size="16" >O</text>
<text x="174.000000" y="321.928129" fill="rgb(255,12,12)"  stroke="rgb(255,12,12)" stroke-width="1" font-size="16" >O</text>
<text x="274.000000" y="287.287113" fill="rgb(255,12,12)"  stroke="rgb(255,12,12)" stroke-width="1" font-size="16" >O</text>
<text x="134.000000" y="321.928129" fill="rgb(255,127,0)"  stroke="rgb(255,127,0)" stroke-width="1" font-size="16" >P</text>
<text x="36.400000" y="218.005081" fill="rgb(191,191,191)"  stroke="rgb(191,191,191)" stroke-width="1" font-size="16" >H</text>
<text x="114.000000" y="218.005081" fill="rgb(191,191,191)"  stroke="rgb(191,191,191)" stroke-width="1" font-size="16" >H</text>
<text x="174.000000" y="183.364065" fill="rgb(191,191,191)"  stroke="rgb(191,191,191)" stroke-width="1" font-size="16" >H</text>
<text x="156.400000" y="82.961016" fill="rgb(191,191,191)"  stroke="rgb(191,191,191)" stroke-width="1" font-size="16" >H</text>
<text x="216.400000" y="48.320000" fill="rgb(191,191,191)"  stroke="rgb(191,191,191)" stroke-width="1" font-size="16" >H</text>
<text x="294.000000" y="48.320000" fill="rgb(191,191,191)"  stroke="rgb(191,191,191)" stroke-width="1" font-size="16" >H</text>
<text x="354.000000" y="82.961016" fill="rgb(191,191,191)"  stroke="rgb(191,191,191)" stroke-width="1" font-size="16" >H</text>
<text x="394.000000" y="148.723048" fill="rgb(191,191,191)"  stroke="rgb(191,191,191)" stroke-width="1" font-size="16" >H</text>
<text x="234.000000" y="327.287113" fill="rgb(191,191,191)"  stroke="rgb(191,191,191)" stroke-width="1" font-size="16" >H</text>
<text font-size="18.000000" fill ="black" font-family="sans-serif"
x="140.000000" y="20.000000" ></text>
<title> - OBDepict</title>
</svg>
