<?xml version="1.0"?>
<svg xmlns="http://www.w3.org/2000/svg"
xmlns:xlink="http://www.w3.org/1999/xlink" xmlns:cml="http://www.xml-cml.org/schema" width="322.487" height="260" x="0" y="0" font-family="sans-serif" stroke="rgb(0,0,0)" stroke-width="1" >
<line x1="178.6" y1="100.0" x2="178.6" y2="140.0"/>
<line x1="178.6" y1="100.0" x2="213.2" y2="80.0"/>
<line x1="143.9" y1="160.0" x2="178.6" y2="140.0"/>
<line x1="74.6" y1="160.0" x2="49.0" y2="145.2"/>
<line x1="180.1" y1="137.4" x2="205.7" y2="152.2"/>
<line x1="177.1" y1="142.6" x2="202.7" y2="157.4"/>
<line x1="213.2" y1="80.0" x2="247.8" y2="100.0"/>
<line x1="210.2" y1="80.0" x2="210.2" y2="50.4"/>
<line x1="216.2" y1="80.0" x2="216.2" y2="50.4"/>
<line x1="109.3" y1="140.0" x2="109.3" y2="110.4"/>
<line x1="247.8" y1="100.0" x2="247.8" y2="129.6"/>
<line x1="246.3" y1="97.4" x2="272.0" y2="82.6"/>
<line x1="249.3" y1="102.6" x2="275.0" y2="87.8"/>
<line x1="109.3" y1="220.0" x2="74.6" y2="200.0"/>
<line x1="74.6" y1="200.0" x2="74.6" y2="160.0"/>
<line x1="81.8" y1="194.0" x2="81.8" y2="166.0"/>
<line x1="74.6" y1="160.0" x2="109.3" y2="140.0"/>
<line x1="109.3" y1="140.0" x2="143.9" y2="160.0"/>
<line x1="110.9" y1="149.2" x2="135.1" y2="163.2"/>
<line x1="143.9" y1="160.0" x2="143.9" y2="200.0"/>
<line x1="143.9" y1="200.0" x2="109.3" y2="220.0"/>
<line x1="135.1" y1="196.8" x2="110.9" y2="210.8"/>
<text x="103.282032" y="108.320000" fill="rgb(12,12,255)"  stroke="rgb(12,12,255)" stroke-width="1" font-size="16" >NH</text>
<text x="127.282032" y="116.000000" fill="rgb(12,12,255)"  stroke="rgb(12,12,255)" stroke-width="1" font-size="13" >2</text>
<text x="36.100000" y="134.800000" fill="rgb(255,12,12)"  stroke="rgb(255,12,12)" stroke-width="1" font-size="26" >-</text>
<text x="36.400000" y="148.320000" fill="rgb(255,12,12)"  stroke="rgb(255,12,12)" stroke-width="1" font-size="16" >O</text>
<text x="207.205081" y="164.800000" fill="rgb(255,12,12)"  stroke="rgb(255,12,12)" stroke-width="1" font-size="16" >O</text>
<text x="207.205081" y="48.320000" fill="rgb(255,12,12)"  stroke="rgb(255,12,12)" stroke-width="1" font-size="16" >O</text>
<text x="241.846097" y="144.800000" fill="rgb(255,12,12)"  stroke="rgb(255,12,12)" stroke-width="1" font-size="16" >OH</text>
<text x="276.487113" y="88.320000" fill="rgb(255,12,12)"  stroke="rgb(255,12,12)" stroke-width="1" font-size="16" >O</text>
<text font-size="18.000000" fill ="black" font-family="sans-serif"
x="140.000000" y="20.000000" ></text>
<title> - OBDepict</title>
</svg>
