<?xml version="1.0"?>
<svg xmlns="http://www.w3.org/2000/svg"
xmlns:xlink="http://www.w3.org/1999/xlink" xmlns:cml="http://www.xml-cml.org/schema" width="412.75" height="248.468" x="0" y="0" font-family="sans-serif" stroke="rgb(0,0,0)" stroke-width="1" >
<line x1="140.0" y1="127.9" x2="180.0" y2="127.9"/>
<line x1="140.0" y1="127.9" x2="125.2" y2="102.2"/>
<line x1="275.7" y1="137.9" x2="243.3" y2="114.4"/>
<line x1="340.4" y1="185.0" x2="364.3" y2="202.4"/>
<polygon points="166.600000 151.087700 183.464102 129.878219 176.535898 125.878219 " />
<line x1="159.1" y1="83.2" x2="159.2" y2="82.4"/>
<line x1="162.9" y1="84.4" x2="163.2" y2="82.8"/>
<line x1="166.7" y1="85.6" x2="167.2" y2="83.3"/>
<line x1="170.5" y1="86.8" x2="171.2" y2="83.7"/>
<line x1="174.4" y1="88.1" x2="175.2" y2="84.1"/>
<line x1="178.2" y1="89.3" x2="179.2" y2="84.6"/>
<line x1="182.0" y1="90.5" x2="183.2" y2="85.0"/>
<line x1="184.2" y1="88.1" x2="175.0" y2="59.9"/>
<line x1="220.2" y1="54.4" x2="221.0" y2="54.3"/>
<line x1="220.3" y1="58.4" x2="221.8" y2="58.2"/>
<line x1="220.3" y1="62.4" x2="222.7" y2="62.2"/>
<line x1="220.3" y1="66.4" x2="223.5" y2="66.1"/>
<line x1="220.3" y1="70.4" x2="224.3" y2="70.0"/>
<line x1="220.3" y1="74.5" x2="225.1" y2="74.0"/>
<line x1="220.4" y1="78.5" x2="225.9" y2="77.9"/>
<line x1="223.3" y1="79.8" x2="247.3" y2="62.4"/>
<line x1="266.5" y1="103.6" x2="266.9" y2="104.4"/>
<line x1="262.7" y1="104.9" x2="263.4" y2="106.4"/>
<line x1="258.9" y1="106.2" x2="259.9" y2="108.4"/>
<line x1="255.1" y1="107.4" x2="256.4" y2="110.4"/>
<line x1="251.3" y1="108.7" x2="252.9" y2="112.3"/>
<line x1="247.4" y1="110.0" x2="249.4" y2="114.3"/>
<line x1="243.6" y1="111.2" x2="245.9" y2="116.3"/>
<line x1="80.0" y1="63.6" x2="80.0" y2="82.8"/>
<line x1="50.4" y1="93.2" x2="69.6" y2="93.2"/>
<line x1="77.0" y1="122.8" x2="77.0" y2="103.6"/>
<line x1="83.0" y1="122.8" x2="83.0" y2="103.6"/>
<line x1="109.6" y1="93.2" x2="90.4" y2="93.2"/>
<line x1="223.3" y1="79.8" x2="243.3" y2="114.4"/>
<line x1="243.3" y1="114.4" x2="223.5" y2="136.4"/>
<line x1="207.0" y1="139.9" x2="180.0" y2="127.9"/>
<line x1="180.0" y1="127.9" x2="184.2" y2="88.1"/>
<line x1="184.2" y1="88.1" x2="223.3" y2="79.8"/>
<line x1="312.2" y1="121.7" x2="275.7" y2="137.9"/>
<line x1="309.7" y1="130.7" x2="284.1" y2="142.1"/>
<line x1="275.7" y1="137.9" x2="271.5" y2="177.7"/>
<line x1="271.5" y1="177.7" x2="303.8" y2="201.2"/>
<line x1="280.6" y1="175.4" x2="303.2" y2="191.9"/>
<line x1="303.8" y1="201.2" x2="340.4" y2="185.0"/>
<line x1="340.4" y1="185.0" x2="344.6" y2="145.2"/>
<line x1="333.9" y1="178.2" x2="336.8" y2="150.4"/>
<line x1="344.6" y1="145.2" x2="312.2" y2="121.7"/>
<text x="366.749762" y="213.267532" fill="rgb(12,12,255)"  stroke="rgb(12,12,255)" stroke-width="1" font-size="16" >NH</text>
<text x="390.749762" y="218.067532" fill="rgb(12,12,255)"  stroke="rgb(12,12,255)" stroke-width="1" font-size="13" >2</text>
<text x="156.220459" y="58.375083" fill="rgb(255,12,12)"  stroke="rgb(255,12,12)" stroke-width="1" font-size="16" >HO</text>
<text x="249.667722" y="64.589466" fill="rgb(255,12,12)"  stroke="rgb(255,12,12)" stroke-width="1" font-size="16" >OH</text>
<text x="75.200000" y="46.837203" fill="rgb(255,12,12)"  stroke="rgb(255,12,12)" stroke-width="1" font-size="32" >-</text>
<text x="74.000000" y="61.557203" fill="rgb(255,12,12)"  stroke="rgb(255,12,12)" stroke-width="1" font-size="16" >O</text>
<text x="35.200000" y="112.437203" fill="rgb(255,12,12)"  stroke="rgb(255,12,12)" stroke-width="1" font-size="32" >-</text>
<text x="36.400000" y="98.037203" fill="rgb(255,12,12)"  stroke="rgb(255,12,12)" stroke-width="1" font-size="16" >O</text>
<text x="74.000000" y="138.037203" fill="rgb(255,12,12)"  stroke="rgb(255,12,12)" stroke-width="1" font-size="16" >O</text>
<text x="114.000000" y="101.557203" fill="rgb(255,12,12)"  stroke="rgb(255,12,12)" stroke-width="1" font-size="16" >O</text>
<text x="210.541818" y="148.947685" fill="rgb(255,12,12)"  stroke="rgb(255,12,12)" stroke-width="1" font-size="16" >O</text>
<text x="74.000000" y="98.037203" fill="rgb(255,127,0)"  stroke="rgb(255,127,0)" stroke-width="1" font-size="16" >P</text>
<text x="156.400000" y="167.319235" fill="rgb(191,191,191)"  stroke="rgb(191,191,191)" stroke-width="1" font-size="16" >H</text>
<text x="141.455235" y="88.100876" fill="rgb(191,191,191)"  stroke="rgb(191,191,191)" stroke-width="1" font-size="16" >H</text>
<text x="215.525904" y="48.320000" fill="rgb(191,191,191)"  stroke="rgb(191,191,191)" stroke-width="1" font-size="16" >H</text>
<text x="273.848861" y="106.472426" fill="rgb(191,191,191)"  stroke="rgb(191,191,191)" stroke-width="1" font-size="16" >H</text>
<text font-size="18.000000" fill ="black" font-family="sans-serif"
x="140.000000" y="20.000000" ></text>
<title> - OBDepict</title>
</svg>
