<?xml version="1.0"?>
<svg xmlns="http://www.w3.org/2000/svg"
xmlns:xlink="http://www.w3.org/1999/xlink" xmlns:cml="http://www.xml-cml.org/schema" width="287.846" height="200" x="0" y="0" font-family="sans-serif" stroke="rgb(0,0,0)" stroke-width="1" >
<line x1="238.8" y1="154.8" x2="222.2" y2="145.2"/>
<line x1="74.6" y1="140.0" x2="49.0" y2="154.8"/>
<line x1="74.6" y1="100.0" x2="49.0" y2="85.2"/>
<line x1="178.6" y1="80.0" x2="178.6" y2="50.4"/>
<line x1="109.3" y1="160.0" x2="143.9" y2="140.0"/>
<line x1="110.9" y1="150.8" x2="135.1" y2="136.8"/>
<line x1="143.9" y1="140.0" x2="143.9" y2="100.0"/>
<line x1="143.9" y1="100.0" x2="109.3" y2="80.0"/>
<line x1="135.1" y1="103.2" x2="110.9" y2="89.2"/>
<line x1="109.3" y1="80.0" x2="74.6" y2="100.0"/>
<line x1="74.6" y1="100.0" x2="74.6" y2="140.0"/>
<line x1="81.8" y1="106.0" x2="81.8" y2="134.0"/>
<line x1="74.6" y1="140.0" x2="109.3" y2="160.0"/>
<line x1="178.6" y1="160.0" x2="143.9" y2="140.0"/>
<line x1="143.9" y1="100.0" x2="178.6" y2="80.0"/>
<line x1="178.6" y1="80.0" x2="213.2" y2="100.0"/>
<line x1="213.2" y1="100.0" x2="213.2" y2="129.6"/>
<line x1="204.2" y1="145.2" x2="178.6" y2="160.0"/>
<text x="241.846097" y="164.800000" fill="rgb(102,102,102)"  stroke="rgb(102,102,102)" stroke-width="1" font-size="16" >CH</text>
<text x="265.846097" y="169.600000" fill="rgb(102,102,102)"  stroke="rgb(102,102,102)" stroke-width="1" font-size="13" >3</text>
<text x="207.205081" y="144.800000" fill="rgb(12,12,255)"  stroke="rgb(12,12,255)" stroke-width="1" font-size="16" >N</text>
<text x="24.400000" y="164.800000" fill="rgb(255,12,12)"  stroke="rgb(255,12,12)" stroke-width="1" font-size="16" >HO</text>
<text x="24.400000" y="88.320000" fill="rgb(255,12,12)"  stroke="rgb(255,12,12)" stroke-width="1" font-size="16" >HO</text>
<text x="172.564065" y="48.320000" fill="rgb(255,12,12)"  stroke="rgb(255,12,12)" stroke-width="1" font-size="16" >OH</text>
<text font-size="18.000000" fill ="black" font-family="sans-serif"
x="140.000000" y="20.000000" ></text>
<title> - OBDepict</title>
</svg>
