<?xml version="1.0"?>
<svg xmlns="http://www.w3.org/2000/svg"
xmlns:xlink="http://www.w3.org/1999/xlink" xmlns:cml="http://www.xml-cml.org/schema" width="349.308" height="256.278" x="0" y="0" font-family="sans-serif" stroke="rgb(0,0,0)" stroke-width="1" >
<line x1="242.3" y1="129.2" x2="242.3" y2="99.5"/>
<line x1="141.7" y1="118.8" x2="141.7" y2="157.5"/>
<line x1="140.2" y1="121.4" x2="115.4" y2="107.1"/>
<line x1="143.2" y1="116.2" x2="118.4" y2="101.9"/>
<line x1="76.2" y1="198.8" x2="50.5" y2="213.7"/>
<line x1="73.2" y1="193.6" x2="47.5" y2="208.5"/>
<line x1="275.8" y1="80.1" x2="275.9" y2="50.4"/>
<line x1="242.3" y1="138.2" x2="309.3" y2="138.2"/>
<line x1="309.3" y1="138.2" x2="309.3" y2="99.5"/>
<line x1="309.3" y1="99.5" x2="275.8" y2="80.1"/>
<line x1="275.8" y1="80.1" x2="242.3" y2="99.5"/>
<line x1="242.3" y1="99.5" x2="242.3" y2="138.2"/>
<line x1="208.8" y1="196.2" x2="175.3" y2="215.6"/>
<line x1="175.3" y1="215.6" x2="141.7" y2="196.2"/>
<line x1="141.7" y1="196.2" x2="141.7" y2="157.5"/>
<line x1="141.7" y1="157.5" x2="175.3" y2="138.2"/>
<line x1="175.3" y1="138.2" x2="208.8" y2="157.5"/>
<line x1="208.8" y1="157.5" x2="208.8" y2="196.2"/>
<line x1="108.2" y1="215.6" x2="74.7" y2="196.2"/>
<line x1="74.7" y1="196.2" x2="74.7" y2="157.5"/>
<line x1="74.7" y1="157.5" x2="108.2" y2="138.1"/>
<line x1="108.2" y1="138.1" x2="141.7" y2="157.5"/>
<line x1="141.7" y1="196.2" x2="108.2" y2="215.6"/>
<line x1="132.9" y1="193.0" x2="109.8" y2="206.3"/>
<line x1="242.3" y1="138.2" x2="208.8" y2="157.5"/>
<line x1="175.3" y1="138.2" x2="175.3" y2="99.5"/>
<line x1="175.3" y1="99.5" x2="208.8" y2="80.1"/>
<line x1="208.8" y1="80.1" x2="242.3" y2="99.5"/>
<text x="236.306796" y="144.381478" fill="rgb(102,102,102)"  stroke="rgb(102,102,102)" stroke-width="1" font-size="16" >CH</text>
<text x="260.306796" y="149.181478" fill="rgb(102,102,102)"  stroke="rgb(102,102,102)" stroke-width="1" font-size="13" >3</text>
<text x="104.630749" y="107.790369" fill="rgb(255,12,12)"  stroke="rgb(255,12,12)" stroke-width="1" font-size="16" >O</text>
<text x="36.400000" y="221.077952" fill="rgb(255,12,12)"  stroke="rgb(255,12,12)" stroke-width="1" font-size="16" >O</text>
<text x="269.880843" y="48.320000" fill="rgb(255,12,12)"  stroke="rgb(255,12,12)" stroke-width="1" font-size="16" >OH</text>
<text font-size="18.000000" fill ="black" font-family="sans-serif"
x="140.000000" y="20.000000" ></text>
<title> - OBDepict</title>
</svg>
