<?xml version="1.0"?>
<svg xmlns="http://www.w3.org/2000/svg"
xmlns:xlink="http://www.w3.org/1999/xlink" xmlns:cml="http://www.xml-cml.org/schema" width="409.723" height="280.743" x="0" y="0" font-family="sans-serif" stroke="rgb(0,0,0)" stroke-width="1" >
<line x1="100.2" y1="145.9" x2="123.0" y2="145.9"/>
<line x1="236.9" y1="86.4" x2="236.9" y2="105.5"/>
<line x1="48.5" y1="82.8" x2="64.3" y2="91.9"/>
<line x1="137.2" y1="169.8" x2="136.5" y2="170.2"/>
<line x1="136.0" y1="166.9" x2="134.6" y2="167.7"/>
<line x1="134.8" y1="164.0" x2="132.7" y2="165.2"/>
<line x1="133.6" y1="161.1" x2="130.9" y2="162.7"/>
<line x1="132.4" y1="158.3" x2="129.0" y2="160.3"/>
<line x1="131.2" y1="155.4" x2="127.1" y2="157.8"/>
<line x1="130.1" y1="152.5" x2="125.2" y2="155.3"/>
<polygon points="204.036866 172.634957 229.514107 200.977625 234.869521 195.034600 " />
<line x1="335.3" y1="134.8" x2="360.8" y2="120.0"/>
<line x1="145.9" y1="194.6" x2="145.9" y2="193.8"/>
<line x1="149.9" y1="194.6" x2="149.8" y2="193.0"/>
<line x1="153.9" y1="194.6" x2="153.7" y2="192.2"/>
<line x1="157.9" y1="194.5" x2="157.6" y2="191.4"/>
<line x1="161.9" y1="194.5" x2="161.5" y2="190.6"/>
<line x1="165.9" y1="194.5" x2="165.4" y2="189.8"/>
<line x1="169.9" y1="194.5" x2="169.3" y2="188.9"/>
<polygon points="204.049727 108.099556 200.044420 134.727728 208.044420 134.729322 " />
<line x1="125.4" y1="112.9" x2="126.1" y2="112.5"/>
<line x1="127.0" y1="116.5" x2="128.4" y2="115.7"/>
<line x1="128.6" y1="120.2" x2="130.7" y2="119.0"/>
<line x1="130.3" y1="123.8" x2="133.1" y2="122.2"/>
<line x1="131.9" y1="127.5" x2="135.4" y2="125.5"/>
<line x1="133.6" y1="131.1" x2="137.7" y2="128.7"/>
<line x1="135.2" y1="134.7" x2="140.0" y2="131.9"/>
<line x1="138.4" y1="134.7" x2="79.6" y2="134.7"/>
<line x1="164.9" y1="111.6" x2="164.5" y2="112.3"/>
<line x1="158.5" y1="107.5" x2="157.7" y2="108.9"/>
<line x1="152.1" y1="103.4" x2="150.9" y2="105.4"/>
<line x1="145.8" y1="99.2" x2="144.2" y2="102.0"/>
<line x1="139.4" y1="95.1" x2="137.4" y2="98.6"/>
<line x1="133.1" y1="91.0" x2="130.7" y2="95.1"/>
<line x1="126.7" y1="86.8" x2="123.9" y2="91.7"/>
<line x1="102.6" y1="77.9" x2="102.6" y2="49.8"/>
<line x1="108.6" y1="77.9" x2="108.6" y2="49.9"/>
<line x1="105.6" y1="77.9" x2="81.3" y2="91.9"/>
<line x1="171.2" y1="115.8" x2="171.2" y2="86.4"/>
<line x1="171.2" y1="191.6" x2="204.0" y2="172.6"/>
<line x1="204.0" y1="172.6" x2="232.2" y2="198.0"/>
<line x1="232.2" y1="198.0" x2="216.8" y2="232.6"/>
<line x1="216.8" y1="232.6" x2="188.9" y2="229.7"/>
<line x1="177.0" y1="219.0" x2="171.2" y2="191.6"/>
<line x1="204.0" y1="134.7" x2="228.3" y2="120.7"/>
<line x1="245.4" y1="120.7" x2="269.7" y2="134.7"/>
<line x1="269.7" y1="134.7" x2="269.7" y2="172.6"/>
<line x1="262.5" y1="140.7" x2="262.5" y2="166.6"/>
<line x1="269.7" y1="172.6" x2="204.0" y2="172.6"/>
<line x1="204.0" y1="172.6" x2="204.0" y2="134.7"/>
<line x1="123.6" y1="226.1" x2="118.1" y2="195.8"/>
<line x1="129.6" y1="218.9" x2="126.3" y2="200.4"/>
<line x1="118.1" y1="195.8" x2="138.4" y2="172.6"/>
<line x1="138.4" y1="172.6" x2="171.2" y2="191.6"/>
<line x1="171.7" y1="231.8" x2="150.7" y2="240.7"/>
<line x1="150.7" y1="240.7" x2="123.6" y2="226.1"/>
<line x1="171.2" y1="115.8" x2="138.4" y2="134.7"/>
<line x1="138.4" y1="134.7" x2="138.4" y2="172.6"/>
<line x1="204.0" y1="134.7" x2="171.2" y2="115.8"/>
<line x1="335.3" y1="172.7" x2="302.5" y2="191.6"/>
<line x1="326.5" y1="169.4" x2="304.1" y2="182.4"/>
<line x1="302.5" y1="191.6" x2="269.7" y2="172.6"/>
<line x1="269.7" y1="134.7" x2="302.5" y2="115.8"/>
<line x1="302.5" y1="115.8" x2="335.3" y2="134.8"/>
<line x1="304.1" y1="125.0" x2="326.5" y2="138.0"/>
<line x1="335.3" y1="134.8" x2="335.3" y2="172.7"/>
<text x="68.595397" y="154.250709" fill="rgb(102,102,102)"  stroke="rgb(102,102,102)" stroke-width="1" font-size="16" >H</text>
<text x="80.595397" y="161.930709" fill="rgb(102,102,102)"  stroke="rgb(102,102,102)" stroke-width="1" font-size="13" >3</text>
<text x="87.095397" y="154.250709" fill="rgb(102,102,102)"  stroke="rgb(102,102,102)" stroke-width="1" font-size="16" >C</text>
<text x="230.902759" y="84.366976" fill="rgb(102,102,102)"  stroke="rgb(102,102,102)" stroke-width="1" font-size="16" >CH</text>
<text x="254.902759" y="92.046976" fill="rgb(102,102,102)"  stroke="rgb(102,102,102)" stroke-width="1" font-size="13" >3</text>
<text x="16.400000" y="86.189692" fill="rgb(102,102,102)"  stroke="rgb(102,102,102)" stroke-width="1" font-size="16" >H</text>
<text x="28.400000" y="93.869692" fill="rgb(102,102,102)"  stroke="rgb(102,102,102)" stroke-width="1" font-size="13" >3</text>
<text x="34.900000" y="86.189692" fill="rgb(102,102,102)"  stroke="rgb(102,102,102)" stroke-width="1" font-size="16" >C</text>
<text x="230.874181" y="120.591697" fill="rgb(12,12,255)"  stroke="rgb(12,12,255)" stroke-width="1" font-size="16" >N</text>
<text x="175.472146" y="233.446544" fill="rgb(12,12,255)"  stroke="rgb(12,12,255)" stroke-width="1" font-size="16" >N</text>
<text x="363.722737" y="123.191606" fill="rgb(255,12,12)"  stroke="rgb(255,12,12)" stroke-width="1" font-size="16" >OH</text>
<text x="43.322699" y="142.979020" fill="rgb(255,12,12)"  stroke="rgb(255,12,12)" stroke-width="1" font-size="16" >HO</text>
<text x="99.622430" y="48.320000" fill="rgb(255,12,12)"  stroke="rgb(255,12,12)" stroke-width="1" font-size="16" >O</text>
<text x="165.209474" y="84.353884" fill="rgb(255,12,12)"  stroke="rgb(255,12,12)" stroke-width="1" font-size="16" >OH</text>
<text x="66.803665" y="101.617615" fill="rgb(255,12,12)"  stroke="rgb(255,12,12)" stroke-width="1" font-size="16" >O</text>
<text x="128.071064" y="200.439347" fill="rgb(191,191,191)"  stroke="rgb(191,191,191)" stroke-width="1" font-size="16" >H</text>
<text x="198.052341" y="103.303794" fill="rgb(191,191,191)"  stroke="rgb(191,191,191)" stroke-width="1" font-size="16" >H</text>
<text x="114.964214" y="108.601401" fill="rgb(191,191,191)"  stroke="rgb(191,191,191)" stroke-width="1" font-size="16" >H</text>
<text font-size="18.000000" fill ="black" font-family="sans-serif"
x="140.000000" y="20.000000" ></text>
<title> - OBDepict</title>
</svg>
