<?xml version="1.0"?>
<svg xmlns="http://www.w3.org/2000/svg"
xmlns:xlink="http://www.w3.org/1999/xlink" xmlns:cml="http://www.xml-cml.org/schema" width="322.885" height="260.193" x="0" y="0" font-family="sans-serif" stroke="rgb(0,0,0)" stroke-width="1" >
<line x1="75.3" y1="160.3" x2="49.7" y2="175.2"/>
<line x1="109.9" y1="180.1" x2="109.8" y2="209.8"/>
<line x1="74.9" y1="40.1" x2="40.0" y2="60.5"/>
<line x1="73.3" y1="49.4" x2="48.8" y2="63.7"/>
<line x1="40.0" y1="60.5" x2="40.3" y2="100.6"/>
<line x1="40.3" y1="100.6" x2="75.1" y2="120.5"/>
<line x1="49.1" y1="97.3" x2="73.5" y2="111.3"/>
<line x1="75.1" y1="120.5" x2="109.6" y2="100.3"/>
<line x1="109.6" y1="100.3" x2="109.7" y2="60.0"/>
<line x1="102.4" y1="94.3" x2="102.5" y2="66.0"/>
<line x1="109.7" y1="60.0" x2="74.9" y2="40.1"/>
<line x1="179.3" y1="99.8" x2="178.7" y2="59.8"/>
<line x1="178.7" y1="59.8" x2="144.1" y2="40.0"/>
<line x1="169.9" y1="63.1" x2="145.7" y2="49.2"/>
<line x1="144.1" y1="40.0" x2="109.7" y2="60.0"/>
<line x1="109.6" y1="100.3" x2="144.2" y2="120.1"/>
<line x1="144.2" y1="120.1" x2="179.3" y2="99.8"/>
<line x1="145.8" y1="110.8" x2="170.5" y2="96.6"/>
<line x1="109.9" y1="180.1" x2="144.7" y2="160.3"/>
<line x1="144.7" y1="160.3" x2="144.2" y2="120.1"/>
<line x1="75.1" y1="120.5" x2="75.3" y2="160.3"/>
<line x1="75.3" y1="160.3" x2="109.9" y2="180.1"/>
<line x1="84.1" y1="157.1" x2="108.3" y2="170.9"/>
<line x1="179.5" y1="180.2" x2="214.1" y2="159.5"/>
<line x1="214.1" y1="159.5" x2="214.1" y2="119.7"/>
<line x1="214.1" y1="119.7" x2="179.3" y2="99.8"/>
<line x1="144.7" y1="160.3" x2="179.5" y2="180.2"/>
<line x1="153.5" y1="157.0" x2="177.9" y2="171.0"/>
<line x1="282.9" y1="159.5" x2="248.5" y2="179.3"/>
<line x1="248.5" y1="179.3" x2="214.1" y2="159.5"/>
<line x1="246.9" y1="170.1" x2="222.9" y2="156.2"/>
<line x1="214.1" y1="119.7" x2="248.5" y2="99.9"/>
<line x1="222.9" y1="123.0" x2="246.9" y2="109.1"/>
<line x1="248.5" y1="99.9" x2="282.9" y2="119.7"/>
<line x1="282.9" y1="119.7" x2="282.9" y2="159.5"/>
<line x1="275.7" y1="125.7" x2="275.7" y2="153.5"/>
<text x="25.046485" y="185.273684" fill="rgb(255,12,12)"  stroke="rgb(255,12,12)" stroke-width="1" font-size="16" >HO</text>
<text x="94.111138" y="224.992900" fill="rgb(255,12,12)"  stroke="rgb(255,12,12)" stroke-width="1" font-size="16" >HO</text>
<text font-size="18.000000" fill ="black" font-family="sans-serif"
x="140.000000" y="20.000000" ></text>
<title> - OBDepict</title>
</svg>
