<?xml version="1.0"?>
<svg xmlns="http://www.w3.org/2000/svg"
xmlns:xlink="http://www.w3.org/1999/xlink" xmlns:cml="http://www.xml-cml.org/schema" width="352.624" height="218.951" x="0" y="0" font-family="sans-serif" stroke="rgb(0,0,0)" stroke-width="1" >
<line x1="44.2" y1="94.9" x2="80.7" y2="111.2"/>
<line x1="44.2" y1="94.9" x2="41.1" y2="65.5"/>
<polygon points="115.769837 166.396942 111.292407 139.672559 103.683955 142.144695 " />
<line x1="107.5" y1="140.9" x2="87.7" y2="162.9"/>
<line x1="60.2" y1="126.6" x2="59.8" y2="125.9"/>
<line x1="63.7" y1="124.5" x2="62.8" y2="123.2"/>
<line x1="67.2" y1="122.5" x2="65.8" y2="120.6"/>
<line x1="70.7" y1="120.5" x2="68.8" y2="117.9"/>
<line x1="74.1" y1="118.4" x2="71.8" y2="115.2"/>
<line x1="77.6" y1="116.4" x2="74.8" y2="112.5"/>
<line x1="81.1" y1="114.4" x2="77.8" y2="109.9"/>
<line x1="147.4" y1="60.4" x2="148.1" y2="60.6"/>
<line x1="145.8" y1="64.1" x2="147.3" y2="64.6"/>
<line x1="144.1" y1="67.7" x2="146.4" y2="68.5"/>
<line x1="142.5" y1="71.4" x2="145.6" y2="72.4"/>
<line x1="140.9" y1="75.1" x2="144.7" y2="76.3"/>
<line x1="139.3" y1="78.8" x2="143.9" y2="80.3"/>
<line x1="137.7" y1="82.5" x2="143.0" y2="84.2"/>
<line x1="139.8" y1="84.9" x2="168.8" y2="78.7"/>
<line x1="278.0" y1="103.3" x2="303.6" y2="88.5"/>
<line x1="195.2" y1="40.0" x2="183.2" y2="67.0"/>
<line x1="186.7" y1="83.5" x2="208.7" y2="103.3"/>
<line x1="208.7" y1="103.3" x2="243.3" y2="83.3"/>
<line x1="210.3" y1="94.1" x2="234.5" y2="80.1"/>
<line x1="243.3" y1="83.3" x2="237.2" y2="54.4"/>
<line x1="224.7" y1="43.1" x2="195.2" y2="40.0"/>
<line x1="221.9" y1="50.0" x2="200.5" y2="47.8"/>
<line x1="144.0" y1="124.6" x2="107.5" y2="140.9"/>
<line x1="107.5" y1="140.9" x2="80.7" y2="111.2"/>
<line x1="80.7" y1="111.2" x2="95.5" y2="85.5"/>
<line x1="110.9" y1="78.7" x2="139.8" y2="84.9"/>
<line x1="139.8" y1="84.9" x2="144.0" y2="124.6"/>
<line x1="208.7" y1="103.3" x2="208.7" y2="132.9"/>
<line x1="217.7" y1="148.5" x2="243.3" y2="163.3"/>
<line x1="223.0" y1="143.3" x2="241.7" y2="154.1"/>
<line x1="243.3" y1="163.3" x2="269.0" y2="148.5"/>
<line x1="278.0" y1="132.9" x2="278.0" y2="103.3"/>
<line x1="270.8" y1="130.9" x2="270.8" y2="109.3"/>
<line x1="278.0" y1="103.3" x2="243.3" y2="83.3"/>
<text x="205.100558" y="148.107043" fill="rgb(12,12,255)"  stroke="rgb(12,12,255)" stroke-width="1" font-size="16" >N</text>
<text x="271.982590" y="148.107043" fill="rgb(12,12,255)"  stroke="rgb(12,12,255)" stroke-width="1" font-size="16" >N</text>
<text x="229.025106" y="52.501139" fill="rgb(12,12,255)"  stroke="rgb(12,12,255)" stroke-width="1" font-size="16" >N</text>
<text x="175.374765" y="81.341818" fill="rgb(12,12,255)"  stroke="rgb(12,12,255)" stroke-width="1" font-size="16" >N</text>
<text x="24.400000" y="63.452493" fill="rgb(255,12,12)"  stroke="rgb(255,12,12)" stroke-width="1" font-size="16" >HO</text>
<text x="65.122957" y="175.434420" fill="rgb(255,12,12)"  stroke="rgb(255,12,12)" stroke-width="1" font-size="16" >HO</text>
<text x="306.623606" y="91.627043" fill="rgb(255,12,12)"  stroke="rgb(255,12,12)" stroke-width="1" font-size="16" >OH</text>
<text x="97.122957" y="84.861818" fill="rgb(255,12,12)"  stroke="rgb(255,12,12)" stroke-width="1" font-size="16" >O</text>
<text x="113.848861" y="183.750888" fill="rgb(191,191,191)"  stroke="rgb(191,191,191)" stroke-width="1" font-size="16" >H</text>
<text x="44.762277" y="139.494245" fill="rgb(191,191,191)"  stroke="rgb(191,191,191)" stroke-width="1" font-size="16" >H</text>
<text x="146.209541" y="55.136025" fill="rgb(191,191,191)"  stroke="rgb(191,191,191)" stroke-width="1" font-size="16" >H</text>
<text font-size="18.000000" fill ="black" font-family="sans-serif"
x="140.000000" y="20.000000" ></text>
<title> - OBDepict</title>
</svg>
