<?xml version="1.0"?>
<svg xmlns="http://www.w3.org/2000/svg"
xmlns:xlink="http://www.w3.org/1999/xlink" xmlns:cml="http://www.xml-cml.org/schema" width="258.564" height="220" x="0" y="0" font-family="sans-serif" stroke="rgb(0,0,0)" stroke-width="1" >
<line x1="143.9" y1="100.0" x2="178.6" y2="120.0"/>
<line x1="74.6" y1="60.0" x2="49.0" y2="45.2"/>
<line x1="204.2" y1="119.6" x2="204.2" y2="120.4"/>
<line x1="200.2" y1="119.2" x2="200.2" y2="120.8"/>
<line x1="196.2" y1="118.8" x2="196.2" y2="121.2"/>
<line x1="192.2" y1="118.4" x2="192.2" y2="121.6"/>
<line x1="188.2" y1="118.0" x2="188.2" y2="122.0"/>
<line x1="184.2" y1="117.6" x2="184.2" y2="122.4"/>
<line x1="180.2" y1="117.2" x2="180.2" y2="122.8"/>
<line x1="178.6" y1="120.0" x2="178.6" y2="160.0"/>
<line x1="178.6" y1="120.0" x2="193.4" y2="94.4"/>
<line x1="180.1" y1="162.6" x2="154.4" y2="177.4"/>
<line x1="177.1" y1="157.4" x2="151.4" y2="172.2"/>
<line x1="178.6" y1="160.0" x2="204.2" y2="174.8"/>
<line x1="109.3" y1="120.0" x2="143.9" y2="100.0"/>
<line x1="110.9" y1="110.8" x2="135.1" y2="96.8"/>
<line x1="143.9" y1="100.0" x2="143.9" y2="60.0"/>
<line x1="143.9" y1="60.0" x2="109.3" y2="40.0"/>
<line x1="135.1" y1="63.2" x2="110.9" y2="49.2"/>
<line x1="109.3" y1="40.0" x2="74.6" y2="60.0"/>
<line x1="74.6" y1="60.0" x2="74.6" y2="100.0"/>
<line x1="81.8" y1="66.0" x2="81.8" y2="94.0"/>
<line x1="74.6" y1="100.0" x2="109.3" y2="120.0"/>
<text x="24.400000" y="48.320000" fill="rgb(255,12,12)"  stroke="rgb(255,12,12)" stroke-width="1" font-size="16" >HO</text>
<text x="192.564065" y="93.678984" fill="rgb(255,12,12)"  stroke="rgb(255,12,12)" stroke-width="1" font-size="16" >OH</text>
<text x="140.323048" y="184.800000" fill="rgb(255,12,12)"  stroke="rgb(255,12,12)" stroke-width="1" font-size="16" >O</text>
<text x="207.205081" y="184.800000" fill="rgb(255,12,12)"  stroke="rgb(255,12,12)" stroke-width="1" font-size="16" >OH</text>
<text x="212.564065" y="128.320000" fill="rgb(191,191,191)"  stroke="rgb(191,191,191)" stroke-width="1" font-size="16" >H</text>
<text font-size="18.000000" fill ="black" font-family="sans-serif"
x="140.000000" y="20.000000" ></text>
<title> - OBDepict</title>
</svg>
