<?xml version="1.0"?>
<svg xmlns="http://www.w3.org/2000/svg"
xmlns:xlink="http://www.w3.org/1999/xlink" xmlns:cml="http://www.xml-cml.org/schema" width="495.348" height="371.402" x="0" y="0" font-family="sans-serif" stroke="rgb(0,0,0)" stroke-width="1" >
<line x1="60.5" y1="74.8" x2="40.0" y2="95.3"/>
<line x1="40.0" y1="95.3" x2="50.1" y2="133.0"/>
<line x1="50.1" y1="133.0" x2="87.9" y2="143.2"/>
<line x1="231.5" y1="95.3" x2="259.1" y2="122.9"/>
<line x1="231.5" y1="95.3" x2="193.7" y2="105.4"/>
<line x1="259.1" y1="122.9" x2="296.9" y2="112.8"/>
<line x1="193.7" y1="105.4" x2="166.1" y2="77.8"/>
<line x1="296.9" y1="112.8" x2="324.5" y2="140.4"/>
<line x1="166.1" y1="77.8" x2="173.6" y2="49.8"/>
<line x1="166.9" y1="80.7" x2="129.1" y2="90.8"/>
<line x1="165.3" y1="74.9" x2="127.6" y2="85.0"/>
<line x1="324.5" y1="140.4" x2="362.3" y2="130.3"/>
<line x1="87.9" y1="143.2" x2="98.0" y2="180.9"/>
<line x1="128.3" y1="87.9" x2="107.9" y2="67.4"/>
<line x1="128.3" y1="87.9" x2="118.2" y2="125.6"/>
<line x1="362.3" y1="130.3" x2="389.9" y2="158.0"/>
<line x1="118.2" y1="125.6" x2="145.9" y2="153.3"/>
<line x1="98.0" y1="180.9" x2="135.8" y2="191.0"/>
<line x1="389.9" y1="158.0" x2="427.7" y2="147.9"/>
<line x1="145.9" y1="153.3" x2="166.3" y2="132.8"/>
<line x1="145.9" y1="153.3" x2="135.8" y2="191.0"/>
<line x1="145.9" y1="153.3" x2="173.8" y2="160.8"/>
<line x1="135.8" y1="191.0" x2="128.3" y2="219.0"/>
<line x1="135.8" y1="191.0" x2="163.7" y2="198.5"/>
<line x1="429.8" y1="145.7" x2="450.3" y2="166.2"/>
<line x1="425.6" y1="150.0" x2="446.0" y2="170.4"/>
<line x1="427.7" y1="147.9" x2="435.2" y2="119.9"/>
<line x1="205.3" y1="319.4" x2="204.6" y2="319.0"/>
<line x1="207.6" y1="316.2" x2="206.2" y2="315.4"/>
<line x1="209.9" y1="313.0" x2="207.8" y2="311.8"/>
<line x1="212.2" y1="309.9" x2="209.5" y2="308.3"/>
<line x1="214.5" y1="306.7" x2="211.1" y2="304.7"/>
<line x1="216.8" y1="303.5" x2="212.7" y2="301.1"/>
<line x1="219.1" y1="300.3" x2="214.3" y2="297.5"/>
<line x1="217.5" y1="297.5" x2="231.9" y2="322.6"/>
<line x1="264.2" y1="299.5" x2="263.5" y2="299.9"/>
<line x1="262.6" y1="295.9" x2="261.2" y2="296.7"/>
<line x1="261.0" y1="292.3" x2="258.9" y2="293.5"/>
<line x1="259.4" y1="288.7" x2="256.6" y2="290.3"/>
<line x1="257.8" y1="285.1" x2="254.3" y2="287.1"/>
<line x1="256.2" y1="281.5" x2="252.0" y2="283.9"/>
<line x1="254.5" y1="278.0" x2="249.7" y2="280.8"/>
<line x1="251.3" y1="278.0" x2="280.3" y2="278.0"/>
<line x1="133.6" y1="278.4" x2="133.6" y2="277.6"/>
<line x1="141.4" y1="278.8" x2="141.4" y2="277.2"/>
<line x1="149.2" y1="279.2" x2="149.2" y2="276.8"/>
<line x1="157.0" y1="279.6" x2="157.0" y2="276.4"/>
<line x1="164.9" y1="280.0" x2="164.9" y2="276.0"/>
<line x1="172.7" y1="280.4" x2="172.7" y2="275.6"/>
<line x1="180.5" y1="280.8" x2="180.5" y2="275.2"/>
<line x1="183.6" y1="278.0" x2="169.2" y2="303.1"/>
<line x1="276.4" y1="238.5" x2="276.4" y2="239.3"/>
<line x1="272.4" y1="238.1" x2="272.4" y2="239.7"/>
<line x1="268.5" y1="237.7" x2="268.5" y2="240.1"/>
<line x1="264.6" y1="237.3" x2="264.6" y2="240.5"/>
<line x1="260.7" y1="236.9" x2="260.7" y2="240.9"/>
<line x1="256.8" y1="236.5" x2="256.8" y2="241.3"/>
<line x1="252.9" y1="236.1" x2="252.9" y2="241.7"/>
<line x1="251.3" y1="238.9" x2="270.9" y2="205.1"/>
<line x1="268.3" y1="206.6" x2="253.8" y2="181.5"/>
<line x1="273.5" y1="203.6" x2="259.0" y2="178.5"/>
<line x1="270.9" y1="205.1" x2="299.8" y2="205.1"/>
<line x1="183.6" y1="238.9" x2="160.7" y2="256.5"/>
<line x1="183.6" y1="238.9" x2="176.1" y2="211.0"/>
<line x1="217.5" y1="297.5" x2="251.3" y2="278.0"/>
<line x1="251.3" y1="278.0" x2="251.3" y2="238.9"/>
<line x1="251.3" y1="238.9" x2="226.3" y2="224.4"/>
<line x1="208.7" y1="224.4" x2="183.6" y2="238.9"/>
<line x1="183.6" y1="238.9" x2="183.6" y2="278.0"/>
<line x1="183.6" y1="278.0" x2="217.5" y2="297.5"/>
<text x="61.641447" y="75.961447" fill="rgb(102,102,102)"  stroke="rgb(102,102,102)" stroke-width="1" font-size="16" >CH</text>
<text x="85.641447" y="83.641447" fill="rgb(102,102,102)"  stroke="rgb(102,102,102)" stroke-width="1" font-size="13" >3</text>
<text x="177.629171" y="168.194228" fill="rgb(255,12,12)"  stroke="rgb(255,12,12)" stroke-width="1" font-size="16" >OH</text>
<text x="449.348105" y="180.296266" fill="rgb(255,12,12)"  stroke="rgb(255,12,12)" stroke-width="1" font-size="16" >O</text>
<text x="433.024130" y="103.695901" fill="rgb(255,12,12)"  stroke="rgb(255,12,12)" stroke-width="1" font-size="32" >-</text>
<text x="431.824130" y="118.415901" fill="rgb(255,12,12)"  stroke="rgb(255,12,12)" stroke-width="1" font-size="16" >O</text>
<text x="231.028346" y="336.202149" fill="rgb(255,12,12)"  stroke="rgb(255,12,12)" stroke-width="1" font-size="16" >OH</text>
<text x="284.427521" y="282.802974" fill="rgb(255,12,12)"  stroke="rgb(255,12,12)" stroke-width="1" font-size="16" >OH</text>
<text x="148.483717" y="316.656695" fill="rgb(255,12,12)"  stroke="rgb(255,12,12)" stroke-width="1" font-size="16" >HO</text>
<text x="247.736612" y="179.524624" fill="rgb(255,12,12)"  stroke="rgb(255,12,12)" stroke-width="1" font-size="16" >O</text>
<text x="305.172976" y="224.258345" fill="rgb(255,12,12)"  stroke="rgb(255,12,12)" stroke-width="1" font-size="32" >-</text>
<text x="303.972976" y="209.858345" fill="rgb(255,12,12)"  stroke="rgb(255,12,12)" stroke-width="1" font-size="16" >O</text>
<text x="167.511700" y="209.473146" fill="rgb(255,12,12)"  stroke="rgb(255,12,12)" stroke-width="1" font-size="16" >O</text>
<text x="211.482892" y="227.686611" fill="rgb(255,12,12)"  stroke="rgb(255,12,12)" stroke-width="1" font-size="16" >O</text>
<text x="170.222668" y="48.320000" fill="rgb(191,191,191)"  stroke="rgb(191,191,191)" stroke-width="1" font-size="16" >H</text>
<text x="97.104831" y="68.554944" fill="rgb(191,191,191)"  stroke="rgb(191,191,191)" stroke-width="1" font-size="16" >H</text>
<text x="167.511700" y="133.955309" fill="rgb(191,191,191)"  stroke="rgb(191,191,191)" stroke-width="1" font-size="16" >H</text>
<text x="122.035309" y="233.594593" fill="rgb(191,191,191)"  stroke="rgb(191,191,191)" stroke-width="1" font-size="16" >H</text>
<text x="194.337437" y="336.202149" fill="rgb(191,191,191)"  stroke="rgb(191,191,191)" stroke-width="1" font-size="16" >H</text>
<text x="264.882066" y="316.656695" fill="rgb(191,191,191)"  stroke="rgb(191,191,191)" stroke-width="1" font-size="16" >H</text>
<text x="101.847353" y="282.802974" fill="rgb(191,191,191)"  stroke="rgb(191,191,191)" stroke-width="1" font-size="16" >H</text>
<text x="284.427521" y="243.712065" fill="rgb(191,191,191)"  stroke="rgb(191,191,191)" stroke-width="1" font-size="16" >H</text>
<text x="149.016268" y="267.509103" fill="rgb(191,191,191)"  stroke="rgb(191,191,191)" stroke-width="1" font-size="16" >H</text>
<text font-size="18.000000" fill ="black" font-family="sans-serif"
x="140.000000" y="20.000000" ></text>
<title> - OBDepict</title>
</svg>
