<?xml version="1.0"?>
<svg xmlns="http://www.w3.org/2000/svg"
xmlns:xlink="http://www.w3.org/1999/xlink" xmlns:cml="http://www.xml-cml.org/schema" width="950.94" height="528.801" x="0" y="0" font-family="sans-serif" stroke="rgb(0,0,0)" stroke-width="1" >
<line x1="220.8" y1="330.4" x2="199.0" y2="350.0"/>
<line x1="193.0" y1="321.4" x2="199.0" y2="350.0"/>
<line x1="588.1" y1="372.4" x2="575.9" y2="410.0"/>
<line x1="588.1" y1="372.4" x2="561.6" y2="343.0"/>
<line x1="575.9" y1="410.0" x2="547.3" y2="416.1"/>
<line x1="578.1" y1="408.0" x2="604.6" y2="437.4"/>
<line x1="573.7" y1="412.0" x2="600.1" y2="441.4"/>
<line x1="561.6" y1="343.0" x2="522.9" y2="351.2"/>
<line x1="757.2" y1="406.5" x2="776.8" y2="428.3"/>
<line x1="754.3" y1="405.6" x2="766.6" y2="368.0"/>
<line x1="760.0" y1="407.5" x2="772.3" y2="369.8"/>
<line x1="757.2" y1="406.5" x2="718.5" y2="414.8"/>
<line x1="769.4" y1="368.9" x2="749.8" y2="347.1"/>
<line x1="769.4" y1="368.9" x2="808.1" y2="360.7"/>
<line x1="602.4" y1="439.4" x2="593.3" y2="467.3"/>
<line x1="602.4" y1="439.4" x2="641.1" y2="431.2"/>
<line x1="718.5" y1="414.8" x2="709.4" y2="442.6"/>
<line x1="716.3" y1="416.8" x2="689.8" y2="387.4"/>
<line x1="720.7" y1="412.7" x2="694.2" y2="383.3"/>
<line x1="808.1" y1="360.7" x2="817.2" y2="332.8"/>
<line x1="810.4" y1="358.7" x2="836.8" y2="388.1"/>
<line x1="805.9" y1="362.7" x2="832.4" y2="392.1"/>
<line x1="522.9" y1="351.2" x2="513.9" y2="379.1"/>
<line x1="520.7" y1="353.2" x2="494.2" y2="323.8"/>
<line x1="525.2" y1="349.2" x2="498.7" y2="319.8"/>
<line x1="859.1" y1="314.8" x2="885.5" y2="344.2"/>
<line x1="859.1" y1="314.8" x2="871.3" y2="277.2"/>
<line x1="641.1" y1="431.2" x2="653.3" y2="393.6"/>
<line x1="692.0" y1="385.4" x2="701.1" y2="357.5"/>
<line x1="692.0" y1="385.4" x2="653.3" y2="393.6"/>
<line x1="834.6" y1="390.1" x2="825.6" y2="417.9"/>
<line x1="834.6" y1="390.1" x2="873.3" y2="381.8"/>
<line x1="885.5" y1="344.2" x2="873.3" y2="381.8"/>
<line x1="871.3" y1="277.2" x2="844.8" y2="247.8"/>
<line x1="496.5" y1="321.8" x2="505.5" y2="294.0"/>
<line x1="496.5" y1="321.8" x2="457.8" y2="330.0"/>
<line x1="305.0" y1="467.6" x2="278.5" y2="438.2"/>
<line x1="305.0" y1="467.6" x2="343.7" y2="459.4"/>
<line x1="278.5" y1="438.2" x2="249.8" y2="444.3"/>
<line x1="394.6" y1="413.5" x2="406.8" y2="375.9"/>
<line x1="394.6" y1="413.5" x2="366.0" y2="419.6"/>
<line x1="406.8" y1="375.9" x2="435.5" y2="369.8"/>
<line x1="129.6" y1="213.8" x2="168.3" y2="205.5"/>
<line x1="129.6" y1="213.8" x2="120.6" y2="241.6"/>
<line x1="160.3" y1="358.2" x2="199.0" y2="350.0"/>
<line x1="160.3" y1="358.2" x2="140.7" y2="336.5"/>
<polygon points="647.791443 367.645703 649.390971 394.409831 657.216152 392.746537 " />
<line x1="653.3" y1="393.6" x2="625.5" y2="384.5"/>
<line x1="897.5" y1="389.3" x2="897.3" y2="390.1"/>
<line x1="893.9" y1="387.7" x2="893.4" y2="389.2"/>
<line x1="890.2" y1="386.1" x2="889.5" y2="388.4"/>
<line x1="886.6" y1="384.5" x2="885.6" y2="387.5"/>
<line x1="883.0" y1="382.9" x2="881.7" y2="386.7"/>
<line x1="879.3" y1="381.3" x2="877.8" y2="385.8"/>
<line x1="875.7" y1="379.7" x2="873.9" y2="385.0"/>
<line x1="873.3" y1="381.8" x2="879.4" y2="410.5"/>
<polygon points="160.150750 230.761421 172.147581 206.783242 164.539129 204.311106 " />
<line x1="340.8" y1="458.5" x2="349.9" y2="430.6"/>
<line x1="346.5" y1="460.3" x2="355.6" y2="432.5"/>
<line x1="343.7" y1="459.4" x2="363.3" y2="481.2"/>
<line x1="842.0" y1="246.8" x2="851.0" y2="219.0"/>
<line x1="847.7" y1="248.7" x2="856.7" y2="220.8"/>
<line x1="844.8" y1="247.8" x2="816.2" y2="253.9"/>
<line x1="455.5" y1="332.0" x2="435.9" y2="310.3"/>
<line x1="460.0" y1="328.0" x2="440.4" y2="306.3"/>
<line x1="457.8" y1="330.0" x2="448.7" y2="357.9"/>
<polygon points="192.163465 124.885278 196.551845 151.335592 204.160297 148.863456 " />
<line x1="200.4" y1="150.1" x2="219.9" y2="128.3"/>
<polygon points="137.695347 166.194050 164.207175 170.194050 164.207175 162.194050 " />
<line x1="164.2" y1="166.2" x2="149.6" y2="140.8"/>
<line x1="225.5" y1="379.4" x2="253.4" y2="388.5"/>
<line x1="225.5" y1="379.4" x2="213.3" y2="417.0"/>
<line x1="225.5" y1="379.4" x2="199.0" y2="350.0"/>
<line x1="225.5" y1="379.4" x2="247.3" y2="359.8"/>
<line x1="369.4" y1="76.9" x2="379.9" y2="49.6"/>
<line x1="215.5" y1="415.0" x2="235.1" y2="436.8"/>
<line x1="211.1" y1="419.0" x2="230.7" y2="440.8"/>
<line x1="213.3" y1="417.0" x2="184.7" y2="423.1"/>
<polygon points="243.705940 199.955568 229.918895 176.960038 223.748099 182.051333 " />
<line x1="226.8" y1="179.5" x2="263.7" y2="134.0"/>
<line x1="104.9" y1="102.6" x2="104.9" y2="121.6"/>
<line x1="75.6" y1="131.9" x2="94.6" y2="131.9"/>
<line x1="101.9" y1="161.2" x2="101.9" y2="142.2"/>
<line x1="107.9" y1="161.2" x2="107.9" y2="142.2"/>
<line x1="72.6" y1="231.0" x2="76.6" y2="249.6"/>
<line x1="49.4" y1="262.8" x2="68.0" y2="258.8"/>
<line x1="50.7" y1="268.7" x2="69.3" y2="264.7"/>
<line x1="66.5" y1="343.1" x2="85.1" y2="339.2"/>
<line x1="98.3" y1="366.3" x2="94.4" y2="347.7"/>
<line x1="104.2" y1="365.1" x2="100.2" y2="346.5"/>
<line x1="107.3" y1="253.5" x2="88.8" y2="257.5"/>
<line x1="123.8" y1="331.0" x2="105.2" y2="334.9"/>
<line x1="134.1" y1="131.9" x2="115.1" y2="131.9"/>
<line x1="84.8" y1="288.3" x2="80.8" y2="269.7"/>
<line x1="89.1" y1="308.4" x2="93.0" y2="327.0"/>
<line x1="266.4" y1="79.8" x2="274.0" y2="108.1"/>
<line x1="286.9" y1="118.5" x2="316.2" y2="120.1"/>
<line x1="316.2" y1="120.1" x2="330.3" y2="83.1"/>
<line x1="330.3" y1="83.1" x2="307.6" y2="64.7"/>
<line x1="291.0" y1="63.8" x2="266.4" y2="79.8"/>
<line x1="293.2" y1="71.0" x2="275.3" y2="82.6"/>
<line x1="168.3" y1="205.5" x2="164.2" y2="166.2"/>
<line x1="164.2" y1="166.2" x2="200.4" y2="150.1"/>
<line x1="200.4" y1="150.1" x2="226.8" y2="179.5"/>
<line x1="226.8" y1="179.5" x2="212.2" y2="204.9"/>
<line x1="197.0" y1="211.6" x2="168.3" y2="205.5"/>
<line x1="316.2" y1="120.1" x2="334.6" y2="142.8"/>
<line x1="325.5" y1="120.2" x2="338.9" y2="136.7"/>
<line x1="351.2" y1="149.2" x2="380.1" y2="144.6"/>
<line x1="380.1" y1="144.6" x2="390.6" y2="117.3"/>
<line x1="375.6" y1="136.5" x2="383.2" y2="116.6"/>
<line x1="387.8" y1="99.7" x2="369.4" y2="76.9"/>
<line x1="369.4" y1="76.9" x2="330.3" y2="83.1"/>
<line x1="364.6" y1="85.0" x2="337.4" y2="89.3"/>
<text x="222.453260" y="331.839504" fill="rgb(102,102,102)"  stroke="rgb(102,102,102)" stroke-width="1" font-size="16" >CH</text>
<text x="246.453260" y="339.519504" fill="rgb(102,102,102)"  stroke="rgb(102,102,102)" stroke-width="1" font-size="13" >3</text>
<text x="167.220056" y="319.611734" fill="rgb(102,102,102)"  stroke="rgb(102,102,102)" stroke-width="1" font-size="16" >H</text>
<text x="179.220056" y="327.291734" fill="rgb(102,102,102)"  stroke="rgb(102,102,102)" stroke-width="1" font-size="13" >3</text>
<text x="185.720056" y="319.611734" fill="rgb(102,102,102)"  stroke="rgb(102,102,102)" stroke-width="1" font-size="16" >C</text>
<text x="377.597325" y="48.320000" fill="rgb(12,12,255)"  stroke="rgb(12,12,255)" stroke-width="1" font-size="16" >NH</text>
<text x="401.597325" y="56.000000" fill="rgb(12,12,255)"  stroke="rgb(12,12,255)" stroke-width="1" font-size="13" >2</text>
<text x="352.289768" y="430.081326" fill="rgb(12,12,255)"  stroke="rgb(12,12,255)" stroke-width="1" font-size="16" >N</text>
<text x="236.174182" y="451.242456" fill="rgb(12,12,255)"  stroke="rgb(12,12,255)" stroke-width="1" font-size="16" >N</text>
<text x="388.318884" y="116.013259" fill="rgb(12,12,255)"  stroke="rgb(12,12,255)" stroke-width="1" font-size="16" >N</text>
<text x="337.455581" y="155.625031" fill="rgb(12,12,255)"  stroke="rgb(12,12,255)" stroke-width="1" font-size="16" >N</text>
<text x="293.582440" y="66.549632" fill="rgb(12,12,255)"  stroke="rgb(12,12,255)" stroke-width="1" font-size="16" >N</text>
<text x="270.637777" y="126.322521" fill="rgb(12,12,255)"  stroke="rgb(12,12,255)" stroke-width="1" font-size="16" >N</text>
<text x="600.070358" y="389.670415" fill="rgb(255,12,12)"  stroke="rgb(255,12,12)" stroke-width="1" font-size="16" >HO</text>
<text x="875.534008" y="425.354324" fill="rgb(255,12,12)"  stroke="rgb(255,12,12)" stroke-width="1" font-size="16" >OH</text>
<text x="365.339425" y="508.000691" fill="rgb(255,12,12)"  stroke="rgb(255,12,12)" stroke-width="1" font-size="32" >-</text>
<text x="364.139425" y="493.600691" fill="rgb(255,12,12)"  stroke="rgb(255,12,12)" stroke-width="1" font-size="16" >O</text>
<text x="851.035420" y="218.457195" fill="rgb(255,12,12)"  stroke="rgb(255,12,12)" stroke-width="1" font-size="16" >O</text>
<text x="801.302456" y="275.197442" fill="rgb(255,12,12)"  stroke="rgb(255,12,12)" stroke-width="1" font-size="32" >-</text>
<text x="802.502456" y="260.797442" fill="rgb(255,12,12)"  stroke="rgb(255,12,12)" stroke-width="1" font-size="16" >O</text>
<text x="427.678271" y="308.954670" fill="rgb(255,12,12)"  stroke="rgb(255,12,12)" stroke-width="1" font-size="16" >O</text>
<text x="220.833497" y="129.013364" fill="rgb(255,12,12)"  stroke="rgb(255,12,12)" stroke-width="1" font-size="16" >OH</text>
<text x="248.930686" y="361.245664" fill="rgb(255,12,12)"  stroke="rgb(255,12,12)" stroke-width="1" font-size="16" >OH</text>
<text x="169.791560" y="444.463338" fill="rgb(255,12,12)"  stroke="rgb(255,12,12)" stroke-width="1" font-size="32" >-</text>
<text x="170.991560" y="430.063338" fill="rgb(255,12,12)"  stroke="rgb(255,12,12)" stroke-width="1" font-size="16" >O</text>
<text x="100.052337" y="85.955625" fill="rgb(255,12,12)"  stroke="rgb(255,12,12)" stroke-width="1" font-size="32" >-</text>
<text x="98.852337" y="100.675625" fill="rgb(255,12,12)"  stroke="rgb(255,12,12)" stroke-width="1" font-size="16" >O</text>
<text x="49.682444" y="140.245518" fill="rgb(255,12,12)"  stroke="rgb(255,12,12)" stroke-width="1" font-size="16" >HO</text>
<text x="98.852337" y="176.295410" fill="rgb(255,12,12)"  stroke="rgb(255,12,12)" stroke-width="1" font-size="16" >O</text>
<text x="54.878152" y="229.249269" fill="rgb(255,12,12)"  stroke="rgb(255,12,12)" stroke-width="1" font-size="16" >HO</text>
<text x="36.400000" y="272.661508" fill="rgb(255,12,12)"  stroke="rgb(255,12,12)" stroke-width="1" font-size="16" >O</text>
<text x="40.854086" y="350.071899" fill="rgb(255,12,12)"  stroke="rgb(255,12,12)" stroke-width="1" font-size="16" >HO</text>
<text x="97.386325" y="380.550051" fill="rgb(255,12,12)"  stroke="rgb(255,12,12)" stroke-width="1" font-size="16" >O</text>
<text x="111.410391" y="256.207421" fill="rgb(255,12,12)"  stroke="rgb(255,12,12)" stroke-width="1" font-size="16" >O</text>
<text x="127.864477" y="337.137812" fill="rgb(255,12,12)"  stroke="rgb(255,12,12)" stroke-width="1" font-size="16" >O</text>
<text x="201.048551" y="218.574217" fill="rgb(255,12,12)"  stroke="rgb(255,12,12)" stroke-width="1" font-size="16" >O</text>
<text x="138.422229" y="140.245518" fill="rgb(255,12,12)"  stroke="rgb(255,12,12)" stroke-width="1" font-size="16" >O</text>
<text x="80.932239" y="303.139660" fill="rgb(255,12,12)"  stroke="rgb(255,12,12)" stroke-width="1" font-size="16" >O</text>
<text x="98.852337" y="136.725518" fill="rgb(255,127,0)"  stroke="rgb(255,127,0)" stroke-width="1" font-size="16" >P</text>
<text x="72.705195" y="267.954465" fill="rgb(255,127,0)"  stroke="rgb(255,127,0)" stroke-width="1" font-size="16" >P</text>
<text x="89.159282" y="345.364855" fill="rgb(255,127,0)"  stroke="rgb(255,127,0)" stroke-width="1" font-size="16" >P</text>
<text x="439.527928" y="372.474035" fill="rgb(178,178,0)"  stroke="rgb(178,178,0)" stroke-width="1" font-size="16" >S</text>
<text x="533.587976" y="423.059314" fill="rgb(191,191,191)"  stroke="rgb(191,191,191)" stroke-width="1" font-size="16" >H</text>
<text x="777.668805" y="440.736419" fill="rgb(191,191,191)"  stroke="rgb(191,191,191)" stroke-width="1" font-size="16" >H</text>
<text x="739.341722" y="347.810893" fill="rgb(191,191,191)"  stroke="rgb(191,191,191)" stroke-width="1" font-size="16" >H</text>
<text x="586.542828" y="481.871635" fill="rgb(191,191,191)"  stroke="rgb(191,191,191)" stroke-width="1" font-size="16" >H</text>
<text x="702.658414" y="457.190506" fill="rgb(191,191,191)"  stroke="rgb(191,191,191)" stroke-width="1" font-size="16" >H</text>
<text x="814.352113" y="331.356807" fill="rgb(191,191,191)"  stroke="rgb(191,191,191)" stroke-width="1" font-size="16" >H</text>
<text x="507.110550" y="393.653153" fill="rgb(191,191,191)"  stroke="rgb(191,191,191)" stroke-width="1" font-size="16" >H</text>
<text x="698.236526" y="356.037937" fill="rgb(191,191,191)"  stroke="rgb(191,191,191)" stroke-width="1" font-size="16" >H</text>
<text x="818.774000" y="432.509376" fill="rgb(191,191,191)"  stroke="rgb(191,191,191)" stroke-width="1" font-size="16" >H</text>
<text x="502.688662" y="292.500584" fill="rgb(191,191,191)"  stroke="rgb(191,191,191)" stroke-width="1" font-size="16" >H</text>
<text x="641.476519" y="363.192989" fill="rgb(191,191,191)"  stroke="rgb(191,191,191)" stroke-width="1" font-size="16" >H</text>
<text x="904.940169" y="398.876898" fill="rgb(191,191,191)"  stroke="rgb(191,191,191)" stroke-width="1" font-size="16" >H</text>
<text x="152.515586" y="247.980378" fill="rgb(191,191,191)"  stroke="rgb(191,191,191)" stroke-width="1" font-size="16" >H</text>
<text x="184.528302" y="120.786320" fill="rgb(191,191,191)"  stroke="rgb(191,191,191)" stroke-width="1" font-size="16" >H</text>
<text x="121.037283" y="174.514050" fill="rgb(191,191,191)"  stroke="rgb(191,191,191)" stroke-width="1" font-size="16" >H</text>
<text x="257.157729" y="396.430860" fill="rgb(191,191,191)"  stroke="rgb(191,191,191)" stroke-width="1" font-size="16" >H</text>
<text x="246.016248" y="214.827898" fill="rgb(191,191,191)"  stroke="rgb(191,191,191)" stroke-width="1" font-size="16" >H</text>
<text font-size="18.000000" fill ="black" font-family="sans-serif"
x="140.000000" y="20.000000" ></text>
<title> - OBDepict</title>
</svg>
