<?xml version="1.0"?>
<svg xmlns="http://www.w3.org/2000/svg"
xmlns:xlink="http://www.w3.org/1999/xlink" xmlns:cml="http://www.xml-cml.org/schema" width="482.652" height="273.488" x="0" y="0" font-family="sans-serif" stroke="rgb(0,0,0)" stroke-width="1" >
<line x1="409.1" y1="223.4" x2="409.1" y2="194.8"/>
<line x1="433.9" y1="180.5" x2="409.1" y2="194.8"/>
<line x1="375.6" y1="175.4" x2="375.6" y2="136.7"/>
<line x1="377.1" y1="172.8" x2="410.6" y2="192.2"/>
<line x1="374.1" y1="178.0" x2="407.6" y2="197.4"/>
<line x1="375.6" y1="136.7" x2="350.8" y2="122.4"/>
<line x1="42.0" y1="93.1" x2="76.5" y2="110.7"/>
<line x1="42.0" y1="93.1" x2="40.5" y2="64.5"/>
<polygon points="54.765156 124.823241 78.695039 114.052446 74.337927 107.343082 " />
<line x1="78.1" y1="63.0" x2="78.6" y2="62.3"/>
<line x1="80.9" y1="65.7" x2="81.9" y2="64.5"/>
<line x1="83.6" y1="68.4" x2="85.1" y2="66.6"/>
<line x1="86.4" y1="71.2" x2="88.4" y2="68.7"/>
<line x1="89.1" y1="73.9" x2="91.6" y2="70.8"/>
<line x1="91.9" y1="76.7" x2="94.9" y2="73.0"/>
<line x1="94.6" y1="79.4" x2="98.2" y2="75.1"/>
<line x1="97.6" y1="78.2" x2="102.1" y2="49.9"/>
<line x1="143.5" y1="65.0" x2="144.2" y2="65.3"/>
<line x1="141.7" y1="68.5" x2="143.2" y2="69.0"/>
<line x1="140.0" y1="71.9" x2="142.2" y2="72.8"/>
<line x1="138.2" y1="75.4" x2="141.2" y2="76.5"/>
<line x1="136.5" y1="78.9" x2="140.2" y2="80.3"/>
<line x1="134.7" y1="82.3" x2="139.2" y2="84.1"/>
<line x1="132.9" y1="85.8" x2="138.2" y2="87.8"/>
<line x1="135.0" y1="88.3" x2="163.3" y2="83.8"/>
<line x1="308.6" y1="136.7" x2="333.4" y2="122.4"/>
<polygon points="137.253414 152.842922 141.015702 126.871890 133.016037 126.945162 " />
<line x1="137.0" y1="126.9" x2="193.1" y2="115.0"/>
<line x1="228.5" y1="75.4" x2="257.0" y2="78.4"/>
<line x1="233.7" y1="83.2" x2="254.1" y2="85.4"/>
<line x1="269.1" y1="89.3" x2="275.0" y2="117.4"/>
<line x1="275.0" y1="117.4" x2="241.5" y2="136.7"/>
<line x1="241.5" y1="136.7" x2="220.2" y2="117.5"/>
<line x1="216.8" y1="101.6" x2="228.5" y2="75.4"/>
<line x1="135.0" y1="88.3" x2="137.0" y2="126.9"/>
<line x1="137.0" y1="126.9" x2="110.3" y2="137.2"/>
<line x1="94.5" y1="133.0" x2="76.5" y2="110.7"/>
<line x1="76.5" y1="110.7" x2="97.6" y2="78.2"/>
<line x1="97.6" y1="78.2" x2="135.0" y2="88.3"/>
<line x1="275.0" y1="117.4" x2="308.6" y2="136.7"/>
<line x1="276.6" y1="126.6" x2="299.8" y2="139.9"/>
<line x1="308.6" y1="136.7" x2="308.6" y2="165.4"/>
<line x1="299.8" y1="180.5" x2="275.0" y2="194.8"/>
<line x1="294.4" y1="175.3" x2="276.6" y2="185.5"/>
<line x1="275.0" y1="194.8" x2="250.2" y2="180.5"/>
<line x1="241.5" y1="165.4" x2="241.5" y2="136.7"/>
<line x1="248.7" y1="163.2" x2="248.7" y2="142.7"/>
<text x="403.128142" y="238.288160" fill="rgb(102,102,102)"  stroke="rgb(102,102,102)" stroke-width="1" font-size="16" >CH</text>
<text x="427.128142" y="243.088160" fill="rgb(102,102,102)"  stroke="rgb(102,102,102)" stroke-width="1" font-size="13" >3</text>
<text x="436.651706" y="183.743644" fill="rgb(102,102,102)"  stroke="rgb(102,102,102)" stroke-width="1" font-size="16" >CH</text>
<text x="460.651706" y="191.423644" fill="rgb(102,102,102)"  stroke="rgb(102,102,102)" stroke-width="1" font-size="13" >3</text>
<text x="336.081014" y="125.679128" fill="rgb(12,12,255)"  stroke="rgb(12,12,255)" stroke-width="1" font-size="16" >NH</text>
<text x="302.557450" y="180.223644" fill="rgb(12,12,255)"  stroke="rgb(12,12,255)" stroke-width="1" font-size="16" >N</text>
<text x="237.910322" y="180.223644" fill="rgb(12,12,255)"  stroke="rgb(12,12,255)" stroke-width="1" font-size="16" >N</text>
<text x="260.985692" y="87.815350" fill="rgb(12,12,255)"  stroke="rgb(12,12,255)" stroke-width="1" font-size="16" >N</text>
<text x="206.743426" y="119.132137" fill="rgb(12,12,255)"  stroke="rgb(12,12,255)" stroke-width="1" font-size="16" >N</text>
<text x="24.400000" y="62.787311" fill="rgb(255,12,12)"  stroke="rgb(255,12,12)" stroke-width="1" font-size="16" >HO</text>
<text x="97.654812" y="48.320000" fill="rgb(255,12,12)"  stroke="rgb(255,12,12)" stroke-width="1" font-size="16" >OH</text>
<text x="167.223059" y="90.516371" fill="rgb(255,12,12)"  stroke="rgb(255,12,12)" stroke-width="1" font-size="16" >OH</text>
<text x="97.277272" y="145.580834" fill="rgb(255,12,12)"  stroke="rgb(255,12,12)" stroke-width="1" font-size="16" >O</text>
<text x="40.451816" y="136.580566" fill="rgb(191,191,191)"  stroke="rgb(191,191,191)" stroke-width="1" font-size="16" >H</text>
<text x="63.916215" y="62.192308" fill="rgb(191,191,191)"  stroke="rgb(191,191,191)" stroke-width="1" font-size="16" >H</text>
<text x="142.862269" y="60.433302" fill="rgb(191,191,191)"  stroke="rgb(191,191,191)" stroke-width="1" font-size="16" >H</text>
<text x="131.370413" y="170.416580" fill="rgb(191,191,191)"  stroke="rgb(191,191,191)" stroke-width="1" font-size="16" >H</text>
<text font-size="18.000000" fill ="black" font-family="sans-serif"
x="140.000000" y="20.000000" ></text>
<title> - OBDepict</title>
</svg>
