<?xml version="1.0"?>
<svg xmlns="http://www.w3.org/2000/svg"
xmlns:xlink="http://www.w3.org/1999/xlink" xmlns:cml="http://www.xml-cml.org/schema" width="338.931" height="255.793" x="0" y="0" font-family="sans-serif" stroke="rgb(0,0,0)" stroke-width="1" >
<line x1="277.2" y1="215.7" x2="258.1" y2="215.4"/>
<line x1="119.8" y1="98.9" x2="159.7" y2="99.4"/>
<line x1="228.3" y1="180.6" x2="242.7" y2="206.3"/>
<line x1="194.9" y1="163.0" x2="169.0" y2="177.6"/>
<line x1="191.9" y1="157.8" x2="166.1" y2="172.3"/>
<line x1="60.4" y1="63.5" x2="40.0" y2="97.8"/>
<line x1="63.5" y1="72.4" x2="49.3" y2="96.3"/>
<line x1="40.0" y1="97.8" x2="59.5" y2="132.6"/>
<line x1="59.5" y1="132.6" x2="99.4" y2="133.2"/>
<line x1="65.6" y1="125.5" x2="93.5" y2="125.9"/>
<line x1="99.4" y1="133.2" x2="119.8" y2="98.9"/>
<line x1="119.8" y1="98.9" x2="100.3" y2="64.1"/>
<line x1="110.6" y1="97.2" x2="97.0" y2="72.8"/>
<line x1="100.3" y1="64.1" x2="60.4" y2="63.5"/>
<line x1="298.9" y1="61.3" x2="264.7" y2="40.9"/>
<line x1="290.1" y1="64.4" x2="266.2" y2="50.2"/>
<line x1="264.7" y1="40.9" x2="229.4" y2="60.4"/>
<line x1="229.4" y1="60.4" x2="228.9" y2="100.3"/>
<line x1="236.6" y1="66.5" x2="236.2" y2="94.4"/>
<line x1="228.9" y1="100.3" x2="263.6" y2="121.2"/>
<line x1="263.6" y1="121.2" x2="298.4" y2="101.2"/>
<line x1="265.3" y1="112.0" x2="289.6" y2="98.0"/>
<line x1="298.4" y1="101.2" x2="298.9" y2="61.3"/>
<line x1="195.0" y1="40.0" x2="160.2" y2="59.5"/>
<line x1="193.3" y1="49.2" x2="169.0" y2="62.8"/>
<line x1="160.2" y1="59.5" x2="159.7" y2="99.4"/>
<line x1="159.7" y1="99.4" x2="193.9" y2="120.3"/>
<line x1="168.6" y1="96.4" x2="192.5" y2="111.0"/>
<line x1="193.9" y1="120.3" x2="228.9" y2="100.3"/>
<line x1="229.4" y1="60.4" x2="195.0" y2="40.0"/>
<line x1="193.4" y1="160.4" x2="228.3" y2="180.6"/>
<line x1="228.3" y1="180.6" x2="263.1" y2="161.3"/>
<line x1="230.1" y1="171.4" x2="254.4" y2="157.9"/>
<line x1="263.1" y1="161.3" x2="263.6" y2="121.2"/>
<line x1="193.9" y1="120.3" x2="193.4" y2="160.4"/>
<text x="281.495130" y="220.592845" fill="rgb(102,102,102)"  stroke="rgb(102,102,102)" stroke-width="1" font-size="16" >CH</text>
<text x="305.495130" y="225.392845" fill="rgb(102,102,102)"  stroke="rgb(102,102,102)" stroke-width="1" font-size="13" >3</text>
<text x="154.851420" y="184.850224" fill="rgb(255,12,12)"  stroke="rgb(255,12,12)" stroke-width="1" font-size="16" >O</text>
<text x="244.155806" y="220.068443" fill="rgb(255,12,12)"  stroke="rgb(255,12,12)" stroke-width="1" font-size="16" >O</text>
<text font-size="18.000000" fill ="black" font-family="sans-serif"
x="140.000000" y="20.000000" ></text>
<title> - OBDepict</title>
</svg>
