<?xml version="1.0"?>
<svg xmlns="http://www.w3.org/2000/svg"
xmlns:xlink="http://www.w3.org/1999/xlink" xmlns:cml="http://www.xml-cml.org/schema" width="501.396" height="353.477" x="0" y="0" font-family="sans-serif" stroke="rgb(0,0,0)" stroke-width="1" >
<line x1="60.0" y1="218.3" x2="100.0" y2="218.3"/>
<line x1="60.0" y1="218.3" x2="45.2" y2="192.6"/>
<line x1="406.8" y1="74.6" x2="386.8" y2="109.3"/>
<line x1="406.8" y1="74.6" x2="392.0" y2="49.0"/>
<polygon points="239.619748 300.727182 250.419802 275.875646 242.692395 273.805093 " />
<line x1="246.6" y1="274.8" x2="218.0" y2="282.5"/>
<polygon points="339.364215 249.972510 312.442127 253.045157 314.512679 260.772564 " />
<line x1="313.5" y1="256.9" x2="334.4" y2="277.8"/>
<polygon points="86.600000 241.481308 103.464102 220.271827 96.535898 216.271827 " />
<polygon points="373.355452 86.072551 383.291350 111.282032 390.219554 107.282032 " />
<polygon points="448.196468 169.282032 421.396468 165.282032 421.396468 173.282032 " />
<line x1="421.4" y1="169.3" x2="436.2" y2="194.9"/>
<line x1="181.7" y1="155.9" x2="182.4" y2="156.3"/>
<line x1="179.4" y1="159.2" x2="180.8" y2="160.0"/>
<line x1="177.0" y1="162.4" x2="179.1" y2="163.6"/>
<line x1="174.7" y1="165.7" x2="177.5" y2="167.3"/>
<line x1="172.3" y1="169.0" x2="175.8" y2="171.0"/>
<line x1="170.0" y1="172.2" x2="174.2" y2="174.6"/>
<line x1="167.7" y1="175.5" x2="172.5" y2="178.3"/>
<line x1="169.3" y1="178.3" x2="198.9" y2="178.3"/>
<line x1="433.9" y1="106.9" x2="434.5" y2="107.3"/>
<line x1="431.5" y1="110.2" x2="432.9" y2="111.0"/>
<line x1="429.2" y1="113.4" x2="431.2" y2="114.6"/>
<line x1="426.8" y1="116.7" x2="429.6" y2="118.3"/>
<line x1="424.5" y1="120.0" x2="427.9" y2="122.0"/>
<line x1="422.1" y1="123.2" x2="426.3" y2="125.6"/>
<line x1="419.8" y1="126.5" x2="424.6" y2="129.3"/>
<line x1="421.4" y1="129.3" x2="451.0" y2="129.3"/>
<line x1="74.4" y1="178.7" x2="74.4" y2="177.9"/>
<line x1="78.4" y1="179.1" x2="78.4" y2="177.5"/>
<line x1="82.4" y1="179.5" x2="82.4" y2="177.1"/>
<line x1="86.4" y1="179.9" x2="86.4" y2="176.7"/>
<line x1="90.4" y1="180.3" x2="90.4" y2="176.3"/>
<line x1="94.4" y1="180.7" x2="94.4" y2="175.9"/>
<line x1="98.4" y1="181.1" x2="98.4" y2="175.5"/>
<line x1="100.0" y1="178.3" x2="85.2" y2="152.6"/>
<polygon points="121.241016 135.062346 131.176915 160.271827 138.105118 156.271827 " />
<line x1="134.6" y1="158.3" x2="149.4" y2="132.6"/>
<line x1="399.9" y1="211.3" x2="399.2" y2="211.7"/>
<line x1="398.2" y1="207.6" x2="396.9" y2="208.4"/>
<line x1="396.6" y1="203.9" x2="394.5" y2="205.1"/>
<line x1="394.9" y1="200.3" x2="392.2" y2="201.9"/>
<line x1="393.3" y1="196.6" x2="389.8" y2="198.6"/>
<line x1="391.6" y1="192.9" x2="387.5" y2="195.3"/>
<line x1="390.0" y1="189.3" x2="385.1" y2="192.1"/>
<line x1="386.8" y1="189.3" x2="372.0" y2="214.9"/>
<polygon points="245.537146 188.968604 261.659181 210.747492 267.316035 205.090638 " />
<line x1="264.5" y1="207.9" x2="272.1" y2="179.3"/>
<line x1="211.6" y1="243.2" x2="211.4" y2="242.4"/>
<line x1="215.5" y1="242.6" x2="215.1" y2="241.0"/>
<line x1="219.5" y1="241.9" x2="218.9" y2="239.6"/>
<line x1="223.5" y1="241.3" x2="222.7" y2="238.2"/>
<line x1="227.4" y1="240.6" x2="226.4" y2="236.8"/>
<line x1="231.4" y1="240.0" x2="230.2" y2="235.3"/>
<line x1="235.4" y1="239.3" x2="233.9" y2="233.9"/>
<line x1="236.2" y1="236.2" x2="215.3" y2="215.3"/>
<line x1="309.4" y1="193.4" x2="310.1" y2="193.6"/>
<line x1="307.9" y1="197.2" x2="309.5" y2="197.6"/>
<line x1="306.5" y1="201.0" x2="308.8" y2="201.6"/>
<line x1="305.1" y1="204.7" x2="308.2" y2="205.5"/>
<line x1="303.7" y1="208.5" x2="307.5" y2="209.5"/>
<line x1="302.3" y1="212.2" x2="306.9" y2="213.5"/>
<line x1="300.8" y1="216.0" x2="306.2" y2="217.5"/>
<line x1="303.1" y1="218.3" x2="331.7" y2="210.6"/>
<line x1="166.3" y1="243.7" x2="165.5" y2="243.6"/>
<line x1="167.3" y1="239.8" x2="165.7" y2="239.6"/>
<line x1="168.2" y1="235.9" x2="165.8" y2="235.6"/>
<line x1="169.1" y1="232.0" x2="165.9" y2="231.5"/>
<line x1="170.0" y1="228.1" x2="166.0" y2="227.5"/>
<line x1="170.9" y1="224.1" x2="166.2" y2="223.5"/>
<line x1="171.8" y1="220.2" x2="166.3" y2="219.5"/>
<line x1="169.3" y1="218.3" x2="197.9" y2="210.6"/>
<line x1="331.6" y1="154.0" x2="332.0" y2="153.4"/>
<line x1="334.5" y1="156.8" x2="335.5" y2="155.5"/>
<line x1="337.4" y1="159.5" x2="338.9" y2="157.6"/>
<line x1="340.4" y1="162.3" x2="342.3" y2="159.7"/>
<line x1="343.3" y1="165.0" x2="345.7" y2="161.9"/>
<line x1="346.2" y1="167.8" x2="349.1" y2="164.0"/>
<line x1="349.1" y1="170.5" x2="352.5" y2="166.1"/>
<line x1="352.1" y1="169.3" x2="344.5" y2="197.9"/>
<line x1="169.3" y1="178.3" x2="169.3" y2="218.3"/>
<line x1="169.3" y1="218.3" x2="143.6" y2="233.1"/>
<line x1="125.6" y1="233.1" x2="100.0" y2="218.3"/>
<line x1="100.0" y1="218.3" x2="100.0" y2="178.3"/>
<line x1="100.0" y1="178.3" x2="134.6" y2="158.3"/>
<line x1="134.6" y1="158.3" x2="169.3" y2="178.3"/>
<line x1="421.4" y1="169.3" x2="386.8" y2="189.3"/>
<line x1="386.8" y1="189.3" x2="352.1" y2="169.3"/>
<line x1="352.1" y1="169.3" x2="352.1" y2="139.7"/>
<line x1="361.1" y1="124.1" x2="386.8" y2="109.3"/>
<line x1="386.8" y1="109.3" x2="421.4" y2="129.3"/>
<line x1="421.4" y1="129.3" x2="421.4" y2="169.3"/>
<line x1="285.2" y1="285.2" x2="246.6" y2="274.8"/>
<line x1="246.6" y1="274.8" x2="236.2" y2="236.2"/>
<line x1="236.2" y1="236.2" x2="264.5" y2="207.9"/>
<line x1="264.5" y1="207.9" x2="303.1" y2="218.3"/>
<line x1="303.1" y1="218.3" x2="313.5" y2="256.9"/>
<line x1="313.5" y1="256.9" x2="285.2" y2="285.2"/>
<text x="16.400000" y="191.950811" fill="rgb(12,12,255)"  stroke="rgb(12,12,255)" stroke-width="1" font-size="16" >H</text>
<text x="28.400000" y="199.630811" fill="rgb(12,12,255)"  stroke="rgb(12,12,255)" stroke-width="1" font-size="13" >2</text>
<text x="34.900000" y="191.950811" fill="rgb(12,12,255)"  stroke="rgb(12,12,255)" stroke-width="1" font-size="16" >N</text>
<text x="184.319065" y="289.993131" fill="rgb(12,12,255)"  stroke="rgb(12,12,255)" stroke-width="1" font-size="16" >H</text>
<text x="196.319065" y="294.793131" fill="rgb(12,12,255)"  stroke="rgb(12,12,255)" stroke-width="1" font-size="13" >2</text>
<text x="202.819065" y="289.993131" fill="rgb(12,12,255)"  stroke="rgb(12,12,255)" stroke-width="1" font-size="16" >N</text>
<text x="335.761674" y="289.993131" fill="rgb(12,12,255)"  stroke="rgb(12,12,255)" stroke-width="1" font-size="16" >NH</text>
<text x="359.761674" y="294.793131" fill="rgb(12,12,255)"  stroke="rgb(12,12,255)" stroke-width="1" font-size="13" >2</text>
<text x="435.396468" y="208.723048" fill="rgb(12,12,255)"  stroke="rgb(12,12,255)" stroke-width="1" font-size="16" >NH</text>
<text x="459.396468" y="213.523048" fill="rgb(12,12,255)"  stroke="rgb(12,12,255)" stroke-width="1" font-size="13" >2</text>
<text x="203.282032" y="183.071827" fill="rgb(12,12,255)"  stroke="rgb(12,12,255)" stroke-width="1" font-size="16" >NH</text>
<text x="227.282032" y="187.871827" fill="rgb(12,12,255)"  stroke="rgb(12,12,255)" stroke-width="1" font-size="13" >2</text>
<text x="371.155452" y="48.320000" fill="rgb(255,12,12)"  stroke="rgb(255,12,12)" stroke-width="1" font-size="16" >HO</text>
<text x="455.396468" y="134.082032" fill="rgb(255,12,12)"  stroke="rgb(255,12,12)" stroke-width="1" font-size="16" >OH</text>
<text x="64.400000" y="151.950811" fill="rgb(255,12,12)"  stroke="rgb(255,12,12)" stroke-width="1" font-size="16" >HO</text>
<text x="148.641016" y="131.950811" fill="rgb(255,12,12)"  stroke="rgb(255,12,12)" stroke-width="1" font-size="16" >OH</text>
<text x="351.155452" y="228.723048" fill="rgb(255,12,12)"  stroke="rgb(255,12,12)" stroke-width="1" font-size="16" >HO</text>
<text x="268.840370" y="177.602032" fill="rgb(255,12,12)"  stroke="rgb(255,12,12)" stroke-width="1" font-size="16" >OH</text>
<text x="128.641016" y="243.071827" fill="rgb(255,12,12)"  stroke="rgb(255,12,12)" stroke-width="1" font-size="16" >O</text>
<text x="348.514436" y="137.602032" fill="rgb(255,12,12)"  stroke="rgb(255,12,12)" stroke-width="1" font-size="16" >O</text>
<text x="201.919065" y="216.239065" fill="rgb(255,12,12)"  stroke="rgb(255,12,12)" stroke-width="1" font-size="16" >O</text>
<text x="335.761674" y="212.719065" fill="rgb(255,12,12)"  stroke="rgb(255,12,12)" stroke-width="1" font-size="16" >O</text>
<text x="232.603337" y="318.277403" fill="rgb(191,191,191)"  stroke="rgb(191,191,191)" stroke-width="1" font-size="16" >H</text>
<text x="346.114436" y="254.876098" fill="rgb(191,191,191)"  stroke="rgb(191,191,191)" stroke-width="1" font-size="16" >H</text>
<text x="76.400000" y="257.712843" fill="rgb(191,191,191)"  stroke="rgb(191,191,191)" stroke-width="1" font-size="16" >H</text>
<text x="363.155452" y="82.961016" fill="rgb(191,191,191)"  stroke="rgb(191,191,191)" stroke-width="1" font-size="16" >H</text>
<text x="455.396468" y="174.082032" fill="rgb(191,191,191)"  stroke="rgb(191,191,191)" stroke-width="1" font-size="16" >H</text>
<text x="183.282032" y="151.950811" fill="rgb(191,191,191)"  stroke="rgb(191,191,191)" stroke-width="1" font-size="16" >H</text>
<text x="435.396468" y="102.961016" fill="rgb(191,191,191)"  stroke="rgb(191,191,191)" stroke-width="1" font-size="16" >H</text>
<text x="56.400000" y="186.591827" fill="rgb(191,191,191)"  stroke="rgb(191,191,191)" stroke-width="1" font-size="16" >H</text>
<text x="111.041016" y="131.950811" fill="rgb(191,191,191)"  stroke="rgb(191,191,191)" stroke-width="1" font-size="16" >H</text>
<text x="400.755452" y="228.723048" fill="rgb(191,191,191)"  stroke="rgb(191,191,191)" stroke-width="1" font-size="16" >H</text>
<text x="232.603337" y="187.954794" fill="rgb(191,191,191)"  stroke="rgb(191,191,191)" stroke-width="1" font-size="16" >H</text>
<text x="193.966304" y="251.356098" fill="rgb(191,191,191)"  stroke="rgb(191,191,191)" stroke-width="1" font-size="16" >H</text>
<text x="307.477403" y="187.954794" fill="rgb(191,191,191)"  stroke="rgb(191,191,191)" stroke-width="1" font-size="16" >H</text>
<text x="160.460985" y="262.729622" fill="rgb(191,191,191)"  stroke="rgb(191,191,191)" stroke-width="1" font-size="16" >H</text>
<text x="316.780302" y="153.251575" fill="rgb(191,191,191)"  stroke="rgb(191,191,191)" stroke-width="1" font-size="16" >H</text>
<text font-size="18.000000" fill ="black" font-family="sans-serif"
x="140.000000" y="20.000000" ></text>
<title> - OBDepict</title>
</svg>
