<?xml version="1.0"?>
<svg xmlns="http://www.w3.org/2000/svg"
xmlns:xlink="http://www.w3.org/1999/xlink" xmlns:cml="http://www.xml-cml.org/schema" width="472.085" height="494.516" x="0" y="0" font-family="sans-serif" stroke="rgb(0,0,0)" stroke-width="1" >
<line x1="336.9" y1="236.8" x2="364.5" y2="245.8"/>
<line x1="245.6" y1="392.0" x2="220.5" y2="377.4"/>
<line x1="48.8" y1="313.2" x2="74.0" y2="327.7"/>
<line x1="99.1" y1="313.2" x2="74.0" y2="327.7"/>
<line x1="422.1" y1="213.5" x2="393.7" y2="219.5"/>
<line x1="249.5" y1="338.2" x2="220.5" y2="338.2"/>
<line x1="364.5" y1="245.8" x2="393.7" y2="219.5"/>
<line x1="220.5" y1="377.4" x2="220.5" y2="338.2"/>
<line x1="74.0" y1="366.9" x2="74.0" y2="327.7"/>
<line x1="74.0" y1="366.9" x2="108.0" y2="386.5"/>
<line x1="172.1" y1="197.0" x2="172.1" y2="157.7"/>
<line x1="172.1" y1="197.0" x2="206.1" y2="216.6"/>
<polygon points="411.291525 239.047353 396.669757 216.830328 390.724598 222.183373 " />
<line x1="393.7" y1="219.5" x2="385.5" y2="181.1"/>
<polygon points="233.599972 315.417085 216.988701 336.188651 223.916904 340.188651 " />
<line x1="220.5" y1="338.2" x2="186.5" y2="318.6"/>
<line x1="172.1" y1="79.2" x2="172.1" y2="50.2"/>
<polygon points="228.859598 229.750943 208.088032 213.139672 204.088032 220.067875 " />
<line x1="206.1" y1="216.6" x2="186.5" y2="250.6"/>
<line x1="206.1" y1="216.6" x2="220.6" y2="191.5"/>
<polygon points="130.746390 399.688004 109.974824 383.076732 105.974824 390.004936 " />
<line x1="108.0" y1="386.5" x2="88.4" y2="420.5"/>
<line x1="108.0" y1="386.5" x2="122.5" y2="361.4"/>
<polygon points="277.906900 114.641537 304.201239 118.641537 304.201239 110.641537 " />
<line x1="304.2" y1="114.6" x2="265.0" y2="182.6"/>
<polygon points="393.663022 156.111768 381.733399 179.883103 389.341851 182.355239 " />
<line x1="385.5" y1="181.1" x2="348.2" y2="169.0"/>
<line x1="385.5" y1="181.1" x2="413.9" y2="175.1"/>
<polygon points="163.693824 305.418840 184.465390 322.030111 188.465390 315.101908 " />
<line x1="186.5" y1="318.6" x2="166.8" y2="352.6"/>
<line x1="186.5" y1="318.6" x2="201.0" y2="293.4"/>
<line x1="189.1" y1="249.1" x2="203.6" y2="274.2"/>
<line x1="183.9" y1="252.1" x2="198.4" y2="277.2"/>
<line x1="186.5" y1="250.6" x2="157.4" y2="250.6"/>
<line x1="265.0" y1="185.6" x2="235.9" y2="185.6"/>
<line x1="265.0" y1="179.6" x2="235.9" y2="179.6"/>
<line x1="265.0" y1="182.6" x2="279.5" y2="207.8"/>
<line x1="166.8" y1="355.6" x2="137.8" y2="355.6"/>
<line x1="166.8" y1="349.6" x2="137.8" y2="349.6"/>
<line x1="166.8" y1="352.6" x2="181.4" y2="377.7"/>
<line x1="348.2" y1="169.0" x2="342.2" y2="140.6"/>
<line x1="350.2" y1="171.2" x2="328.6" y2="190.7"/>
<line x1="346.2" y1="166.8" x2="324.6" y2="186.2"/>
<line x1="88.4" y1="423.5" x2="59.3" y2="423.5"/>
<line x1="88.4" y1="417.5" x2="59.3" y2="417.5"/>
<line x1="88.4" y1="420.5" x2="102.9" y2="445.7"/>
<line x1="366.3" y1="101.4" x2="346.7" y2="67.5"/>
<line x1="346.7" y1="67.5" x2="308.3" y2="75.6"/>
<line x1="308.3" y1="75.6" x2="304.2" y2="114.6"/>
<line x1="304.2" y1="114.6" x2="330.7" y2="126.5"/>
<line x1="346.9" y1="123.0" x2="366.3" y2="101.4"/>
<line x1="206.1" y1="138.1" x2="172.1" y2="157.7"/>
<line x1="197.3" y1="134.9" x2="173.7" y2="148.5"/>
<line x1="172.1" y1="157.7" x2="138.1" y2="138.1"/>
<line x1="138.1" y1="138.1" x2="138.1" y2="98.9"/>
<line x1="145.3" y1="132.1" x2="145.3" y2="104.9"/>
<line x1="138.1" y1="98.9" x2="172.1" y2="79.2"/>
<line x1="172.1" y1="79.2" x2="206.1" y2="98.9"/>
<line x1="173.7" y1="88.5" x2="197.3" y2="102.1"/>
<line x1="206.1" y1="98.9" x2="206.1" y2="138.1"/>
<text x="303.607767" y="241.959611" fill="rgb(102,102,102)"  stroke="rgb(102,102,102)" stroke-width="1" font-size="16" >H</text>
<text x="315.607767" y="249.639611" fill="rgb(102,102,102)"  stroke="rgb(102,102,102)" stroke-width="1" font-size="13" >3</text>
<text x="322.107767" y="241.959611" fill="rgb(102,102,102)"  stroke="rgb(102,102,102)" stroke-width="1" font-size="16" >C</text>
<text x="248.440214" y="401.856576" fill="rgb(102,102,102)"  stroke="rgb(102,102,102)" stroke-width="1" font-size="16" >CH</text>
<text x="272.440214" y="406.656576" fill="rgb(102,102,102)"  stroke="rgb(102,102,102)" stroke-width="1" font-size="13" >3</text>
<text x="16.400000" y="316.370268" fill="rgb(102,102,102)"  stroke="rgb(102,102,102)" stroke-width="1" font-size="16" >H</text>
<text x="28.400000" y="324.050268" fill="rgb(102,102,102)"  stroke="rgb(102,102,102)" stroke-width="1" font-size="13" >3</text>
<text x="34.900000" y="316.370268" fill="rgb(102,102,102)"  stroke="rgb(102,102,102)" stroke-width="1" font-size="16" >C</text>
<text x="101.974824" y="316.370268" fill="rgb(102,102,102)"  stroke="rgb(102,102,102)" stroke-width="1" font-size="16" >CH</text>
<text x="125.974824" y="324.050268" fill="rgb(102,102,102)"  stroke="rgb(102,102,102)" stroke-width="1" font-size="13" >3</text>
<text x="426.084857" y="219.667297" fill="rgb(102,102,102)"  stroke="rgb(102,102,102)" stroke-width="1" font-size="16" >CH</text>
<text x="450.084857" y="227.347297" fill="rgb(102,102,102)"  stroke="rgb(102,102,102)" stroke-width="1" font-size="13" >3</text>
<text x="253.698085" y="342.988651" fill="rgb(102,102,102)"  stroke="rgb(102,102,102)" stroke-width="1" font-size="16" >CH</text>
<text x="277.698085" y="347.788651" fill="rgb(102,102,102)"  stroke="rgb(102,102,102)" stroke-width="1" font-size="13" >3</text>
<text x="417.925304" y="181.279618" fill="rgb(12,12,255)"  stroke="rgb(12,12,255)" stroke-width="1" font-size="16" >NH</text>
<text x="441.925304" y="188.959618" fill="rgb(12,12,255)"  stroke="rgb(12,12,255)" stroke-width="1" font-size="13" >2</text>
<text x="222.110673" y="190.936362" fill="rgb(12,12,255)"  stroke="rgb(12,12,255)" stroke-width="1" font-size="16" >N</text>
<text x="123.997466" y="360.873422" fill="rgb(12,12,255)"  stroke="rgb(12,12,255)" stroke-width="1" font-size="16" >N</text>
<text x="200.088032" y="289.378598" fill="rgb(12,12,255)"  stroke="rgb(12,12,255)" stroke-width="1" font-size="16" >N</text>
<text x="334.053589" y="135.404032" fill="rgb(12,12,255)"  stroke="rgb(12,12,255)" stroke-width="1" font-size="16" >N</text>
<text x="166.100620" y="48.320000" fill="rgb(255,12,12)"  stroke="rgb(255,12,12)" stroke-width="1" font-size="16" >OH</text>
<text x="131.620107" y="258.911186" fill="rgb(255,12,12)"  stroke="rgb(255,12,12)" stroke-width="1" font-size="16" >HO</text>
<text x="278.578598" y="221.403774" fill="rgb(255,12,12)"  stroke="rgb(255,12,12)" stroke-width="1" font-size="16" >OH</text>
<text x="180.465390" y="391.340834" fill="rgb(255,12,12)"  stroke="rgb(255,12,12)" stroke-width="1" font-size="16" >OH</text>
<text x="315.448213" y="200.051931" fill="rgb(255,12,12)"  stroke="rgb(255,12,12)" stroke-width="1" font-size="16" >O</text>
<text x="45.506900" y="428.848246" fill="rgb(255,12,12)"  stroke="rgb(255,12,12)" stroke-width="1" font-size="16" >O</text>
<text x="101.974824" y="459.315658" fill="rgb(255,12,12)"  stroke="rgb(255,12,12)" stroke-width="1" font-size="16" >OH</text>
<text x="413.957398" y="253.471779" fill="rgb(191,191,191)"  stroke="rgb(191,191,191)" stroke-width="1" font-size="16" >H</text>
<text x="234.075444" y="312.521239" fill="rgb(191,191,191)"  stroke="rgb(191,191,191)" stroke-width="1" font-size="16" >H</text>
<text x="234.075444" y="241.026415" fill="rgb(191,191,191)"  stroke="rgb(191,191,191)" stroke-width="1" font-size="16" >H</text>
<text x="135.962236" y="410.963475" fill="rgb(191,191,191)"  stroke="rgb(191,191,191)" stroke-width="1" font-size="16" >H</text>
<text x="261.355956" y="119.441537" fill="rgb(191,191,191)"  stroke="rgb(191,191,191)" stroke-width="1" font-size="16" >H</text>
<text x="391.665084" y="152.114689" fill="rgb(191,191,191)"  stroke="rgb(191,191,191)" stroke-width="1" font-size="16" >H</text>
<text x="148.877978" y="307.263368" fill="rgb(191,191,191)"  stroke="rgb(191,191,191)" stroke-width="1" font-size="16" >H</text>
<text font-size="18.000000" fill ="black" font-family="sans-serif"
x="140.000000" y="20.000000" ></text>
<title> - OBDepict</title>
</svg>
