<?xml version="1.0"?>
<svg xmlns="http://www.w3.org/2000/svg"
xmlns:xlink="http://www.w3.org/1999/xlink" xmlns:cml="http://www.xml-cml.org/schema" width="961.269" height="561.876" x="0" y="0" font-family="sans-serif" stroke="rgb(0,0,0)" stroke-width="1" >
<line x1="43.1" y1="286.9" x2="52.0" y2="314.2"/>
<line x1="645.7" y1="115.6" x2="667.1" y2="134.9"/>
<line x1="639.7" y1="143.8" x2="667.1" y2="134.9"/>
<line x1="52.0" y1="314.2" x2="90.1" y2="322.3"/>
<line x1="90.1" y1="322.3" x2="116.1" y2="293.4"/>
<line x1="116.1" y1="293.4" x2="154.2" y2="301.5"/>
<line x1="154.2" y1="301.5" x2="180.2" y2="272.6"/>
<line x1="180.2" y1="272.6" x2="218.3" y2="280.7"/>
<line x1="218.3" y1="280.7" x2="244.4" y2="251.8"/>
<line x1="244.4" y1="251.8" x2="282.4" y2="259.8"/>
<line x1="282.4" y1="259.8" x2="308.5" y2="230.9"/>
<line x1="308.5" y1="230.9" x2="346.5" y2="239.0"/>
<line x1="346.5" y1="239.0" x2="372.6" y2="210.1"/>
<line x1="578.9" y1="81.7" x2="617.0" y2="89.8"/>
<line x1="578.9" y1="81.7" x2="552.9" y2="110.6"/>
<line x1="617.0" y1="89.8" x2="636.3" y2="68.4"/>
<line x1="538.9" y1="176.5" x2="500.8" y2="168.4"/>
<line x1="538.9" y1="176.5" x2="558.1" y2="155.1"/>
<line x1="500.8" y1="168.4" x2="481.5" y2="189.8"/>
<line x1="410.6" y1="218.2" x2="372.6" y2="210.1"/>
<line x1="410.6" y1="218.2" x2="436.7" y2="189.3"/>
<line x1="660.9" y1="351.0" x2="699.0" y2="359.1"/>
<line x1="660.9" y1="351.0" x2="652.0" y2="323.6"/>
<line x1="691.1" y1="208.9" x2="667.1" y2="134.9"/>
<line x1="691.1" y1="208.9" x2="671.9" y2="230.3"/>
<polygon points="353.200039 192.641927 369.901520 213.062539 375.254565 207.117380 " />
<line x1="372.6" y1="210.1" x2="378.6" y2="181.9"/>
<line x1="690.9" y1="335.5" x2="691.7" y2="335.2"/>
<line x1="691.8" y1="339.3" x2="693.3" y2="338.8"/>
<line x1="692.6" y1="343.1" x2="694.9" y2="342.4"/>
<line x1="693.4" y1="347.0" x2="696.4" y2="346.0"/>
<line x1="694.2" y1="350.8" x2="698.0" y2="349.6"/>
<line x1="695.0" y1="354.6" x2="699.6" y2="353.1"/>
<line x1="695.9" y1="358.4" x2="701.2" y2="356.7"/>
<line x1="555.7" y1="109.7" x2="564.6" y2="137.0"/>
<line x1="550.0" y1="111.5" x2="558.9" y2="138.9"/>
<line x1="552.9" y1="110.6" x2="524.7" y2="104.6"/>
<line x1="433.8" y1="190.2" x2="424.9" y2="162.8"/>
<line x1="439.5" y1="188.3" x2="430.6" y2="160.9"/>
<line x1="436.7" y1="189.3" x2="464.9" y2="195.2"/>
<polygon points="722.438910 438.387047 734.300963 414.823673 726.692511 412.351537 " />
<line x1="730.5" y1="413.6" x2="749.8" y2="435.0"/>
<polygon points="668.866860 397.757855 694.942535 401.757855 694.942535 393.757855 " />
<line x1="694.9" y1="397.8" x2="680.5" y2="422.7"/>
<polygon points="717.928918 97.878658 691.893409 102.132259 694.365545 109.740711 " />
<line x1="693.1" y1="105.9" x2="681.1" y2="68.9"/>
<line x1="693.1" y1="105.9" x2="667.1" y2="134.9"/>
<line x1="693.1" y1="105.9" x2="714.5" y2="125.2"/>
<line x1="896.8" y1="485.5" x2="907.1" y2="512.4"/>
<line x1="680.5" y1="71.9" x2="652.3" y2="65.9"/>
<line x1="681.7" y1="66.0" x2="653.6" y2="60.0"/>
<line x1="681.1" y1="68.9" x2="700.4" y2="47.5"/>
<line x1="772.1" y1="365.2" x2="772.7" y2="365.7"/>
<line x1="769.3" y1="367.9" x2="770.5" y2="369.0"/>
<line x1="766.5" y1="370.7" x2="768.4" y2="372.2"/>
<line x1="763.7" y1="373.4" x2="766.2" y2="375.5"/>
<line x1="760.9" y1="376.2" x2="764.0" y2="378.7"/>
<line x1="758.2" y1="378.9" x2="761.9" y2="382.0"/>
<line x1="755.4" y1="381.7" x2="759.7" y2="385.2"/>
<line x1="756.5" y1="384.7" x2="792.8" y2="429.4"/>
<line x1="636.6" y1="460.3" x2="636.6" y2="441.6"/>
<line x1="607.8" y1="431.5" x2="626.4" y2="431.5"/>
<line x1="639.6" y1="402.7" x2="639.6" y2="421.3"/>
<line x1="633.6" y1="402.7" x2="633.6" y2="421.3"/>
<line x1="604.9" y1="334.0" x2="608.7" y2="315.8"/>
<line x1="583.3" y1="296.9" x2="601.6" y2="300.8"/>
<line x1="582.1" y1="302.8" x2="600.3" y2="306.7"/>
<line x1="598.9" y1="223.7" x2="617.1" y2="227.6"/>
<line x1="636.0" y1="202.2" x2="632.1" y2="220.4"/>
<line x1="630.1" y1="200.9" x2="626.2" y2="219.2"/>
<line x1="639.0" y1="311.8" x2="620.7" y2="308.0"/>
<line x1="655.2" y1="235.7" x2="636.9" y2="231.8"/>
<line x1="665.4" y1="431.5" x2="646.7" y2="431.5"/>
<line x1="616.8" y1="277.7" x2="613.0" y2="296.0"/>
<line x1="621.0" y1="257.9" x2="624.9" y2="239.6"/>
<line x1="795.5" y1="482.7" x2="802.9" y2="454.9"/>
<line x1="815.6" y1="444.6" x2="844.4" y2="443.1"/>
<line x1="844.4" y1="443.1" x2="858.3" y2="479.5"/>
<line x1="858.3" y1="479.5" x2="836.0" y2="497.6"/>
<line x1="819.6" y1="498.4" x2="795.5" y2="482.7"/>
<line x1="821.8" y1="491.2" x2="804.4" y2="480.0"/>
<line x1="699.0" y1="359.1" x2="694.9" y2="397.8"/>
<line x1="694.9" y1="397.8" x2="730.5" y2="413.6"/>
<line x1="730.5" y1="413.6" x2="756.5" y2="384.7"/>
<line x1="756.5" y1="384.7" x2="742.1" y2="359.7"/>
<line x1="727.2" y1="353.1" x2="699.0" y2="359.1"/>
<line x1="844.4" y1="443.1" x2="862.5" y2="420.7"/>
<line x1="853.8" y1="443.0" x2="866.8" y2="426.9"/>
<line x1="878.9" y1="414.5" x2="907.3" y2="419.0"/>
<line x1="907.3" y1="419.0" x2="917.6" y2="445.8"/>
<line x1="902.7" y1="427.1" x2="910.2" y2="446.5"/>
<line x1="914.9" y1="463.2" x2="896.8" y2="485.5"/>
<line x1="896.8" y1="485.5" x2="858.3" y2="479.5"/>
<line x1="892.0" y1="477.5" x2="865.4" y2="473.3"/>
<text x="16.400000" y="285.549343" fill="rgb(102,102,102)"  stroke="rgb(102,102,102)" stroke-width="1" font-size="16" >H</text>
<text x="28.400000" y="293.229343" fill="rgb(102,102,102)"  stroke="rgb(102,102,102)" stroke-width="1" font-size="13" >3</text>
<text x="34.900000" y="285.549343" fill="rgb(102,102,102)"  stroke="rgb(102,102,102)" stroke-width="1" font-size="16" >C</text>
<text x="614.565244" y="117.137038" fill="rgb(102,102,102)"  stroke="rgb(102,102,102)" stroke-width="1" font-size="16" >H</text>
<text x="626.565244" y="124.817038" fill="rgb(102,102,102)"  stroke="rgb(102,102,102)" stroke-width="1" font-size="13" >3</text>
<text x="633.065244" y="117.137038" fill="rgb(102,102,102)"  stroke="rgb(102,102,102)" stroke-width="1" font-size="16" >C</text>
<text x="606.473546" y="151.685485" fill="rgb(102,102,102)"  stroke="rgb(102,102,102)" stroke-width="1" font-size="16" >H</text>
<text x="618.473546" y="156.485485" fill="rgb(102,102,102)"  stroke="rgb(102,102,102)" stroke-width="1" font-size="13" >3</text>
<text x="624.973546" y="151.685485" fill="rgb(102,102,102)"  stroke="rgb(102,102,102)" stroke-width="1" font-size="16" >C</text>
<text x="904.723446" y="526.675857" fill="rgb(12,12,255)"  stroke="rgb(12,12,255)" stroke-width="1" font-size="16" >NH</text>
<text x="928.723446" y="531.475857" fill="rgb(12,12,255)"  stroke="rgb(12,12,255)" stroke-width="1" font-size="13" >2</text>
<text x="558.908903" y="152.397875" fill="rgb(12,12,255)"  stroke="rgb(12,12,255)" stroke-width="1" font-size="16" >N</text>
<text x="639.434423" y="69.150695" fill="rgb(12,12,255)"  stroke="rgb(12,12,255)" stroke-width="1" font-size="16" >N</text>
<text x="915.268622" y="460.096235" fill="rgb(12,12,255)"  stroke="rgb(12,12,255)" stroke-width="1" font-size="16" >N</text>
<text x="865.281567" y="421.194034" fill="rgb(12,12,255)"  stroke="rgb(12,12,255)" stroke-width="1" font-size="16" >N</text>
<text x="822.090710" y="508.746125" fill="rgb(12,12,255)"  stroke="rgb(12,12,255)" stroke-width="1" font-size="16" >N</text>
<text x="799.523515" y="449.956574" fill="rgb(12,12,255)"  stroke="rgb(12,12,255)" stroke-width="1" font-size="16" >N</text>
<text x="374.669740" y="180.341512" fill="rgb(255,12,12)"  stroke="rgb(255,12,12)" stroke-width="1" font-size="16" >OH</text>
<text x="510.013849" y="96.092085" fill="rgb(255,12,12)"  stroke="rgb(255,12,12)" stroke-width="1" font-size="32" >-</text>
<text x="511.213849" y="110.812085" fill="rgb(255,12,12)"  stroke="rgb(255,12,12)" stroke-width="1" font-size="16" >O</text>
<text x="421.061722" y="160.565173" fill="rgb(255,12,12)"  stroke="rgb(255,12,12)" stroke-width="1" font-size="16" >O</text>
<text x="750.538577" y="447.309999" fill="rgb(255,12,12)"  stroke="rgb(255,12,12)" stroke-width="1" font-size="16" >OH</text>
<text x="716.051870" y="136.778324" fill="rgb(255,12,12)"  stroke="rgb(255,12,12)" stroke-width="1" font-size="16" >OH</text>
<text x="702.344710" y="33.600000" fill="rgb(255,12,12)"  stroke="rgb(255,12,12)" stroke-width="1" font-size="32" >-</text>
<text x="701.144710" y="48.320000" fill="rgb(255,12,12)"  stroke="rgb(255,12,12)" stroke-width="1" font-size="16" >O</text>
<text x="631.764157" y="489.581546" fill="rgb(255,12,12)"  stroke="rgb(255,12,12)" stroke-width="1" font-size="32" >-</text>
<text x="630.564157" y="475.181546" fill="rgb(255,12,12)"  stroke="rgb(255,12,12)" stroke-width="1" font-size="16" >O</text>
<text x="592.845238" y="425.062627" fill="rgb(255,12,12)"  stroke="rgb(255,12,12)" stroke-width="1" font-size="32" >-</text>
<text x="594.045238" y="439.782627" fill="rgb(255,12,12)"  stroke="rgb(255,12,12)" stroke-width="1" font-size="16" >O</text>
<text x="630.564157" y="400.863709" fill="rgb(255,12,12)"  stroke="rgb(255,12,12)" stroke-width="1" font-size="16" >O</text>
<text x="587.155470" y="348.723097" fill="rgb(255,12,12)"  stroke="rgb(255,12,12)" stroke-width="1" font-size="16" >HO</text>
<text x="569.178721" y="306.082952" fill="rgb(255,12,12)"  stroke="rgb(255,12,12)" stroke-width="1" font-size="16" >O</text>
<text x="573.362118" y="229.946057" fill="rgb(255,12,12)"  stroke="rgb(255,12,12)" stroke-width="1" font-size="16" >HO</text>
<text x="629.122263" y="199.969309" fill="rgb(255,12,12)"  stroke="rgb(255,12,12)" stroke-width="1" font-size="16" >O</text>
<text x="642.915616" y="322.266348" fill="rgb(255,12,12)"  stroke="rgb(255,12,12)" stroke-width="1" font-size="16" >O</text>
<text x="659.099012" y="242.609454" fill="rgb(255,12,12)"  stroke="rgb(255,12,12)" stroke-width="1" font-size="16" >O</text>
<text x="731.079117" y="359.280440" fill="rgb(255,12,12)"  stroke="rgb(255,12,12)" stroke-width="1" font-size="16" >O</text>
<text x="669.483076" y="436.262627" fill="rgb(255,12,12)"  stroke="rgb(255,12,12)" stroke-width="1" font-size="16" >O</text>
<text x="612.938867" y="272.586203" fill="rgb(255,12,12)"  stroke="rgb(255,12,12)" stroke-width="1" font-size="16" >O</text>
<text x="630.564157" y="436.262627" fill="rgb(255,127,0)"  stroke="rgb(255,127,0)" stroke-width="1" font-size="16" >P</text>
<text x="604.847169" y="310.654650" fill="rgb(255,127,0)"  stroke="rgb(255,127,0)" stroke-width="1" font-size="16" >P</text>
<text x="621.030565" y="238.037756" fill="rgb(255,127,0)"  stroke="rgb(255,127,0)" stroke-width="1" font-size="16" >P</text>
<text x="468.756776" y="202.150963" fill="rgb(178,178,0)"  stroke="rgb(178,178,0)" stroke-width="1" font-size="16" >S</text>
<text x="340.055649" y="192.368120" fill="rgb(191,191,191)"  stroke="rgb(191,191,191)" stroke-width="1" font-size="16" >H</text>
<text x="683.384063" y="330.358047" fill="rgb(191,191,191)"  stroke="rgb(191,191,191)" stroke-width="1" font-size="16" >H</text>
<text x="714.870130" y="455.401697" fill="rgb(191,191,191)"  stroke="rgb(191,191,191)" stroke-width="1" font-size="16" >H</text>
<text x="652.423617" y="406.077855" fill="rgb(191,191,191)"  stroke="rgb(191,191,191)" stroke-width="1" font-size="16" >H</text>
<text x="724.143569" y="102.229877" fill="rgb(191,191,191)"  stroke="rgb(191,191,191)" stroke-width="1" font-size="16" >H</text>
<text x="775.307040" y="362.965128" fill="rgb(191,191,191)"  stroke="rgb(191,191,191)" stroke-width="1" font-size="16" >H</text>
<text font-size="18.000000" fill ="black" font-family="sans-serif"
x="140.000000" y="20.000000" ></text>
<title> - OBDepict</title>
</svg>
