<?xml version="1.0"?>
<svg xmlns="http://www.w3.org/2000/svg"
xmlns:xlink="http://www.w3.org/1999/xlink" xmlns:cml="http://www.xml-cml.org/schema" width="414.465" height="273.103" x="0" y="0" font-family="sans-serif" stroke="rgb(0,0,0)" stroke-width="1" >
<line x1="207.2" y1="194.5" x2="274.1" y2="155.9"/>
<line x1="207.2" y1="194.5" x2="173.8" y2="175.2"/>
<line x1="274.1" y1="117.2" x2="249.4" y2="103.0"/>
<line x1="140.3" y1="194.5" x2="140.3" y2="223.1"/>
<line x1="310.6" y1="175.2" x2="310.6" y2="203.8"/>
<line x1="304.6" y1="175.2" x2="304.6" y2="203.8"/>
<line x1="172.3" y1="134.0" x2="197.0" y2="119.7"/>
<line x1="175.3" y1="139.1" x2="200.0" y2="124.9"/>
<line x1="40.0" y1="175.2" x2="40.0" y2="136.6"/>
<line x1="47.2" y1="169.2" x2="47.2" y2="142.6"/>
<line x1="40.0" y1="136.6" x2="73.4" y2="117.2"/>
<line x1="73.4" y1="117.2" x2="106.9" y2="136.6"/>
<line x1="75.0" y1="126.5" x2="98.1" y2="139.8"/>
<line x1="106.9" y1="136.6" x2="106.9" y2="175.2"/>
<line x1="106.9" y1="175.2" x2="73.4" y2="194.5"/>
<line x1="98.1" y1="171.9" x2="75.0" y2="185.2"/>
<line x1="73.4" y1="194.5" x2="40.0" y2="175.2"/>
<line x1="173.8" y1="136.6" x2="173.8" y2="175.2"/>
<line x1="173.8" y1="175.2" x2="140.3" y2="194.5"/>
<line x1="165.0" y1="171.9" x2="141.9" y2="185.2"/>
<line x1="140.3" y1="194.5" x2="106.9" y2="175.2"/>
<line x1="106.9" y1="136.6" x2="131.6" y2="122.3"/>
<line x1="149.0" y1="122.3" x2="173.8" y2="136.6"/>
<line x1="341.0" y1="40.0" x2="307.6" y2="59.3"/>
<line x1="307.6" y1="59.3" x2="307.6" y2="97.9"/>
<line x1="314.8" y1="65.3" x2="314.8" y2="91.9"/>
<line x1="307.6" y1="97.9" x2="341.0" y2="117.2"/>
<line x1="341.0" y1="117.2" x2="374.5" y2="97.9"/>
<line x1="342.6" y1="108.0" x2="365.7" y2="94.7"/>
<line x1="374.5" y1="97.9" x2="374.5" y2="59.3"/>
<line x1="374.5" y1="59.3" x2="341.0" y2="40.0"/>
<line x1="365.7" y1="62.5" x2="342.6" y2="49.2"/>
<line x1="274.1" y1="155.9" x2="274.1" y2="117.2"/>
<line x1="281.3" y1="149.9" x2="281.3" y2="123.2"/>
<line x1="274.1" y1="117.2" x2="307.6" y2="97.9"/>
<line x1="341.0" y1="117.2" x2="341.0" y2="145.8"/>
<line x1="332.3" y1="160.9" x2="307.6" y2="175.2"/>
<line x1="307.6" y1="175.2" x2="274.1" y2="155.9"/>
<text x="225.078990" y="106.251034" fill="rgb(255,12,12)"  stroke="rgb(255,12,12)" stroke-width="1" font-size="16" >HO</text>
<text x="134.339495" y="237.903448" fill="rgb(255,12,12)"  stroke="rgb(255,12,12)" stroke-width="1" font-size="16" >OH</text>
<text x="301.571987" y="218.593103" fill="rgb(255,12,12)"  stroke="rgb(255,12,12)" stroke-width="1" font-size="16" >O</text>
<text x="201.232492" y="125.561379" fill="rgb(255,12,12)"  stroke="rgb(255,12,12)" stroke-width="1" font-size="16" >O</text>
<text x="335.018485" y="160.662069" fill="rgb(255,12,12)"  stroke="rgb(255,12,12)" stroke-width="1" font-size="16" >O</text>
<text x="134.339495" y="125.561379" fill="rgb(255,12,12)"  stroke="rgb(255,12,12)" stroke-width="1" font-size="16" >O</text>
<text font-size="18.000000" fill ="black" font-family="sans-serif"
x="140.000000" y="20.000000" ></text>
<title> - OBDepict</title>
</svg>
