<?xml version="1.0"?>
<svg xmlns="http://www.w3.org/2000/svg"
xmlns:xlink="http://www.w3.org/1999/xlink" xmlns:cml="http://www.xml-cml.org/schema" width="375.949" height="253.084" x="0" y="0" font-family="sans-serif" stroke="rgb(0,0,0)" stroke-width="1" >
<line x1="74.6" y1="193.1" x2="49.0" y2="207.9"/>
<line x1="296.2" y1="72.4" x2="325.6" y2="69.3"/>
<line x1="168.5" y1="156.6" x2="167.8" y2="156.3"/>
<line x1="170.5" y1="153.1" x2="169.0" y2="152.5"/>
<line x1="172.5" y1="149.7" x2="170.3" y2="148.7"/>
<line x1="174.5" y1="146.2" x2="171.6" y2="144.9"/>
<line x1="176.5" y1="142.7" x2="172.8" y2="141.0"/>
<line x1="178.5" y1="139.2" x2="174.1" y2="137.2"/>
<line x1="180.5" y1="135.7" x2="175.4" y2="133.4"/>
<line x1="167.8" y1="69.9" x2="168.5" y2="69.5"/>
<line x1="169.0" y1="73.7" x2="170.5" y2="73.0"/>
<line x1="170.3" y1="77.5" x2="172.5" y2="76.5"/>
<line x1="171.6" y1="81.3" x2="174.5" y2="80.0"/>
<line x1="172.8" y1="85.1" x2="176.5" y2="83.5"/>
<line x1="174.1" y1="88.9" x2="178.5" y2="87.0"/>
<line x1="175.4" y1="92.8" x2="180.5" y2="90.5"/>
<line x1="178.6" y1="133.1" x2="178.6" y2="93.1"/>
<line x1="178.6" y1="93.1" x2="216.6" y2="80.7"/>
<line x1="216.6" y1="80.7" x2="240.1" y2="113.1"/>
<line x1="214.3" y1="89.8" x2="230.8" y2="112.5"/>
<line x1="240.1" y1="113.1" x2="222.7" y2="137.0"/>
<line x1="206.7" y1="142.2" x2="178.6" y2="133.1"/>
<line x1="232.9" y1="44.2" x2="272.7" y2="40.0"/>
<line x1="239.6" y1="50.7" x2="267.4" y2="47.8"/>
<line x1="272.7" y1="40.0" x2="296.2" y2="72.4"/>
<line x1="296.2" y1="72.4" x2="279.9" y2="108.9"/>
<line x1="287.2" y1="74.9" x2="275.8" y2="100.5"/>
<line x1="279.9" y1="108.9" x2="240.1" y2="113.1"/>
<line x1="216.6" y1="80.7" x2="232.9" y2="44.2"/>
<line x1="109.3" y1="213.1" x2="74.6" y2="193.1"/>
<line x1="74.6" y1="193.1" x2="74.6" y2="153.1"/>
<line x1="81.8" y1="187.1" x2="81.8" y2="159.1"/>
<line x1="74.6" y1="153.1" x2="109.3" y2="133.1"/>
<line x1="109.3" y1="133.1" x2="143.9" y2="153.1"/>
<line x1="110.9" y1="142.3" x2="135.1" y2="156.3"/>
<line x1="143.9" y1="153.1" x2="143.9" y2="193.1"/>
<line x1="143.9" y1="193.1" x2="109.3" y2="213.1"/>
<line x1="135.1" y1="189.8" x2="110.9" y2="203.8"/>
<line x1="143.9" y1="73.1" x2="178.6" y2="93.1"/>
<line x1="178.6" y1="133.1" x2="143.9" y2="153.1"/>
<line x1="109.3" y1="133.1" x2="109.3" y2="103.5"/>
<line x1="118.3" y1="87.9" x2="143.9" y2="73.1"/>
<text x="24.400000" y="217.883637" fill="rgb(255,12,12)"  stroke="rgb(255,12,12)" stroke-width="1" font-size="16" >HO</text>
<text x="329.948953" y="76.499541" fill="rgb(255,12,12)"  stroke="rgb(255,12,12)" stroke-width="1" font-size="16" >OH</text>
<text x="146.694599" y="64.861818" fill="rgb(255,12,12)"  stroke="rgb(255,12,12)" stroke-width="1" font-size="16" >HO</text>
<text x="105.682032" y="101.403637" fill="rgb(255,12,12)"  stroke="rgb(255,12,12)" stroke-width="1" font-size="16" >O</text>
<text x="210.606325" y="150.244316" fill="rgb(255,12,12)"  stroke="rgb(255,12,12)" stroke-width="1" font-size="16" >O</text>
<text x="158.694599" y="174.425455" fill="rgb(191,191,191)"  stroke="rgb(191,191,191)" stroke-width="1" font-size="16" >H</text>
<text font-size="18.000000" fill ="black" font-family="sans-serif"
x="140.000000" y="20.000000" ></text>
<title> - OBDepict</title>
</svg>
