<?xml version="1.0"?>
<svg xmlns="http://www.w3.org/2000/svg"
xmlns:xlink="http://www.w3.org/1999/xlink" xmlns:cml="http://www.xml-cml.org/schema" width="374.066" height="378.784" x="0" y="0" font-family="sans-serif" stroke="rgb(0,0,0)" stroke-width="1" >
<line x1="47.7" y1="331.8" x2="69.7" y2="312.0"/>
<line x1="63.6" y1="283.1" x2="69.7" y2="312.0"/>
<line x1="82.0" y1="274.3" x2="91.1" y2="246.1"/>
<line x1="274.2" y1="49.0" x2="259.4" y2="74.6"/>
<line x1="244.6" y1="49.0" x2="259.4" y2="74.6"/>
<polygon points="224.783960 134.641016 220.783960 161.441016 228.783960 161.441016 " />
<polygon points="120.860911 194.641016 128.107272 220.750981 135.415635 217.497088 " />
<line x1="137.5" y1="297.6" x2="107.8" y2="324.4"/>
<line x1="137.5" y1="297.6" x2="129.2" y2="258.5"/>
<line x1="107.8" y1="324.4" x2="69.7" y2="312.0"/>
<line x1="129.2" y1="258.5" x2="91.1" y2="246.1"/>
<line x1="122.9" y1="151.1" x2="122.1" y2="150.8"/>
<line x1="124.8" y1="147.7" x2="123.4" y2="147.0"/>
<line x1="126.8" y1="144.2" x2="124.6" y2="143.2"/>
<line x1="128.8" y1="140.7" x2="125.9" y2="139.4"/>
<line x1="130.8" y1="137.2" x2="127.2" y2="135.6"/>
<line x1="132.8" y1="133.7" x2="128.4" y2="131.7"/>
<line x1="134.8" y1="130.2" x2="129.7" y2="127.9"/>
<line x1="134.7" y1="119.9" x2="117.3" y2="95.9"/>
<line x1="139.6" y1="116.3" x2="122.2" y2="92.4"/>
<line x1="91.1" y1="246.1" x2="62.2" y2="252.3"/>
<line x1="91.1" y1="246.1" x2="82.8" y2="207.0"/>
<line x1="82.8" y1="207.0" x2="60.8" y2="226.8"/>
<line x1="224.8" y1="94.6" x2="224.8" y2="65.0"/>
<line x1="306.5" y1="72.3" x2="307.2" y2="72.7"/>
<line x1="304.2" y1="75.5" x2="305.6" y2="76.3"/>
<line x1="301.8" y1="78.8" x2="303.9" y2="80.0"/>
<line x1="299.5" y1="82.1" x2="302.3" y2="83.7"/>
<line x1="297.1" y1="85.3" x2="300.6" y2="87.3"/>
<line x1="294.8" y1="88.6" x2="298.9" y2="91.0"/>
<line x1="292.4" y1="91.9" x2="297.3" y2="94.7"/>
<line x1="294.1" y1="94.6" x2="323.7" y2="94.6"/>
<line x1="59.3" y1="174.6" x2="82.8" y2="142.3"/>
<line x1="82.8" y1="142.3" x2="120.9" y2="154.6"/>
<line x1="120.9" y1="154.6" x2="120.9" y2="194.6"/>
<line x1="120.9" y1="194.6" x2="82.8" y2="207.0"/>
<line x1="82.8" y1="207.0" x2="59.3" y2="174.6"/>
<line x1="155.5" y1="94.6" x2="190.1" y2="74.6"/>
<line x1="190.1" y1="74.6" x2="224.8" y2="94.6"/>
<line x1="224.8" y1="94.6" x2="224.8" y2="134.6"/>
<line x1="224.8" y1="134.6" x2="190.1" y2="154.6"/>
<line x1="190.1" y1="154.6" x2="155.5" y2="134.6"/>
<line x1="188.5" y1="145.4" x2="164.3" y2="131.4"/>
<line x1="155.5" y1="134.6" x2="155.5" y2="94.6"/>
<line x1="294.1" y1="94.6" x2="294.1" y2="134.6"/>
<line x1="294.1" y1="134.6" x2="259.4" y2="154.6"/>
<line x1="259.4" y1="154.6" x2="224.8" y2="134.6"/>
<line x1="224.8" y1="94.6" x2="259.4" y2="74.6"/>
<line x1="259.4" y1="74.6" x2="294.1" y2="94.6"/>
<line x1="120.9" y1="154.6" x2="155.5" y2="134.6"/>
<line x1="190.1" y1="154.6" x2="190.1" y2="194.6"/>
<line x1="190.1" y1="194.6" x2="155.5" y2="214.6"/>
<line x1="155.5" y1="214.6" x2="120.9" y2="194.6"/>
<text x="16.400000" y="343.583952" fill="rgb(102,102,102)"  stroke="rgb(102,102,102)" stroke-width="1" font-size="16" >H</text>
<text x="28.400000" y="348.383952" fill="rgb(102,102,102)"  stroke="rgb(102,102,102)" stroke-width="1" font-size="13" >3</text>
<text x="34.900000" y="343.583952" fill="rgb(102,102,102)"  stroke="rgb(102,102,102)" stroke-width="1" font-size="16" >C</text>
<text x="37.809325" y="281.212824" fill="rgb(102,102,102)"  stroke="rgb(102,102,102)" stroke-width="1" font-size="16" >H</text>
<text x="49.809325" y="288.892824" fill="rgb(102,102,102)"  stroke="rgb(102,102,102)" stroke-width="1" font-size="13" >3</text>
<text x="56.309325" y="281.212824" fill="rgb(102,102,102)"  stroke="rgb(102,102,102)" stroke-width="1" font-size="16" >C</text>
<text x="55.174439" y="288.969861" fill="rgb(102,102,102)"  stroke="rgb(102,102,102)" stroke-width="1" font-size="16" >H</text>
<text x="67.174439" y="293.769861" fill="rgb(102,102,102)"  stroke="rgb(102,102,102)" stroke-width="1" font-size="13" >3</text>
<text x="73.674439" y="288.969861" fill="rgb(102,102,102)"  stroke="rgb(102,102,102)" stroke-width="1" font-size="16" >C</text>
<text x="273.424976" y="48.320000" fill="rgb(102,102,102)"  stroke="rgb(102,102,102)" stroke-width="1" font-size="16" >CH</text>
<text x="297.424976" y="56.000000" fill="rgb(102,102,102)"  stroke="rgb(102,102,102)" stroke-width="1" font-size="13" >3</text>
<text x="215.824976" y="48.320000" fill="rgb(102,102,102)"  stroke="rgb(102,102,102)" stroke-width="1" font-size="16" >H</text>
<text x="227.824976" y="56.000000" fill="rgb(102,102,102)"  stroke="rgb(102,102,102)" stroke-width="1" font-size="13" >3</text>
<text x="234.324976" y="48.320000" fill="rgb(102,102,102)"  stroke="rgb(102,102,102)" stroke-width="1" font-size="16" >C</text>
<text x="218.783960" y="179.441016" fill="rgb(102,102,102)"  stroke="rgb(102,102,102)" stroke-width="1" font-size="16" >CH</text>
<text x="242.783960" y="184.241016" fill="rgb(102,102,102)"  stroke="rgb(102,102,102)" stroke-width="1" font-size="13" >3</text>
<text x="131.130377" y="235.982834" fill="rgb(102,102,102)"  stroke="rgb(102,102,102)" stroke-width="1" font-size="16" >CH</text>
<text x="155.130377" y="240.782834" fill="rgb(102,102,102)"  stroke="rgb(102,102,102)" stroke-width="1" font-size="13" >3</text>
<text x="110.018967" y="94.058518" fill="rgb(255,12,12)"  stroke="rgb(255,12,12)" stroke-width="1" font-size="16" >O</text>
<text x="328.065992" y="99.441016" fill="rgb(255,12,12)"  stroke="rgb(255,12,12)" stroke-width="1" font-size="16" >OH</text>
<text x="48.409214" y="259.244068" fill="rgb(191,191,191)"  stroke="rgb(191,191,191)" stroke-width="1" font-size="16" >H</text>
<text x="49.492858" y="238.566920" fill="rgb(191,191,191)"  stroke="rgb(191,191,191)" stroke-width="1" font-size="16" >H</text>
<text x="218.783960" y="62.961016" fill="rgb(191,191,191)"  stroke="rgb(191,191,191)" stroke-width="1" font-size="16" >H</text>
<text x="308.065992" y="68.320000" fill="rgb(191,191,191)"  stroke="rgb(191,191,191)" stroke-width="1" font-size="16" >H</text>
<text font-size="18.000000" fill ="black" font-family="sans-serif"
x="140.000000" y="20.000000" ></text>
<title> - OBDepict</title>
</svg>
