<?xml version="1.0"?>
<svg xmlns="http://www.w3.org/2000/svg"
xmlns:xlink="http://www.w3.org/1999/xlink" xmlns:cml="http://www.xml-cml.org/schema" width="1224.81" height="747.484" x="0" y="0" font-family="sans-serif" stroke="rgb(0,0,0)" stroke-width="1" >
<line x1="54.7" y1="132.6" x2="40.0" y2="158.0"/>
<line x1="288.3" y1="707.5" x2="317.6" y2="707.5"/>
<line x1="968.1" y1="285.0" x2="968.1" y2="255.6"/>
<line x1="40.0" y1="158.0" x2="59.8" y2="192.3"/>
<line x1="317.6" y1="707.5" x2="337.4" y2="673.1"/>
<line x1="59.8" y1="192.3" x2="99.5" y2="192.3"/>
<line x1="337.4" y1="673.1" x2="377.1" y2="673.1"/>
<line x1="99.5" y1="192.3" x2="119.3" y2="226.7"/>
<line x1="377.1" y1="673.1" x2="396.9" y2="638.8"/>
<line x1="119.3" y1="226.7" x2="159.0" y2="226.7"/>
<line x1="396.9" y1="638.8" x2="436.6" y2="638.8"/>
<line x1="159.0" y1="226.7" x2="178.8" y2="261.0"/>
<line x1="436.6" y1="638.8" x2="456.4" y2="604.4"/>
<line x1="178.8" y1="261.0" x2="218.5" y2="261.0"/>
<line x1="456.4" y1="604.4" x2="496.1" y2="604.4"/>
<line x1="218.5" y1="261.0" x2="238.3" y2="295.3"/>
<line x1="496.1" y1="604.4" x2="515.9" y2="570.1"/>
<line x1="238.3" y1="295.3" x2="277.9" y2="295.3"/>
<line x1="277.9" y1="295.3" x2="297.8" y2="329.7"/>
<line x1="297.8" y1="329.7" x2="337.4" y2="329.7"/>
<line x1="337.4" y1="329.7" x2="357.3" y2="364.0"/>
<line x1="515.9" y1="570.1" x2="555.6" y2="570.1"/>
<line x1="357.3" y1="364.0" x2="396.9" y2="364.0"/>
<line x1="555.6" y1="570.1" x2="575.4" y2="535.8"/>
<line x1="396.9" y1="364.0" x2="416.8" y2="398.4"/>
<line x1="575.4" y1="535.8" x2="615.0" y2="535.8"/>
<line x1="416.8" y1="398.4" x2="456.4" y2="398.4"/>
<line x1="615.0" y1="535.8" x2="634.9" y2="501.4"/>
<line x1="456.4" y1="398.4" x2="476.2" y2="432.7"/>
<line x1="634.9" y1="501.4" x2="674.5" y2="501.4"/>
<line x1="476.2" y1="432.7" x2="515.9" y2="432.7"/>
<line x1="674.5" y1="501.4" x2="689.2" y2="526.8"/>
<line x1="671.9" y1="499.9" x2="691.8" y2="465.6"/>
<line x1="677.1" y1="502.9" x2="697.0" y2="468.6"/>
<line x1="515.9" y1="432.7" x2="535.7" y2="467.1"/>
<line x1="694.4" y1="467.1" x2="723.7" y2="467.1"/>
<line x1="694.4" y1="467.1" x2="674.5" y2="432.7"/>
<line x1="535.7" y1="467.1" x2="575.4" y2="467.1"/>
<line x1="1150.5" y1="275.4" x2="1116.1" y2="255.6"/>
<line x1="1150.5" y1="275.4" x2="1175.9" y2="260.8"/>
<line x1="1018.3" y1="78.3" x2="990.3" y2="106.3"/>
<line x1="1018.3" y1="78.3" x2="1010.7" y2="50.0"/>
<line x1="697.3" y1="228.9" x2="687.0" y2="267.2"/>
<line x1="697.3" y1="228.9" x2="676.5" y2="208.2"/>
<line x1="828.0" y1="135.1" x2="808.2" y2="169.4"/>
<line x1="828.0" y1="135.1" x2="813.4" y2="109.7"/>
<line x1="634.9" y1="393.1" x2="634.9" y2="432.7"/>
<line x1="634.9" y1="393.1" x2="660.3" y2="378.4"/>
<line x1="966.6" y1="253.0" x2="992.0" y2="238.3"/>
<line x1="969.6" y1="258.2" x2="995.0" y2="243.5"/>
<line x1="968.1" y1="255.6" x2="942.7" y2="240.9"/>
<line x1="635.3" y1="458.1" x2="634.5" y2="458.1"/>
<line x1="635.7" y1="454.1" x2="634.1" y2="454.1"/>
<line x1="636.1" y1="450.2" x2="633.7" y2="450.2"/>
<line x1="636.5" y1="446.2" x2="633.3" y2="446.2"/>
<line x1="636.9" y1="442.2" x2="632.9" y2="442.2"/>
<line x1="637.3" y1="438.3" x2="632.5" y2="438.3"/>
<line x1="637.7" y1="434.3" x2="632.1" y2="434.3"/>
<line x1="634.9" y1="432.7" x2="674.5" y2="432.7"/>
<line x1="634.9" y1="432.7" x2="605.5" y2="432.7"/>
<polygon points="697.541024 419.439423 672.529915 429.260792 676.529915 436.188995 " />
<line x1="674.5" y1="432.7" x2="674.5" y2="403.4"/>
<polygon points="1139.126735 242.329202 1114.115626 252.150571 1118.115626 259.078774 " />
<polygon points="983.402054 80.683770 986.415416 107.384604 994.142823 105.314051 " />
<polygon points="668.206491 248.441775 684.166556 270.058694 689.823410 264.401840 " />
<polygon points="794.932332 146.425176 804.753701 171.436285 811.681904 167.436285 " />
<line x1="572.8" y1="465.6" x2="587.5" y2="440.2"/>
<line x1="578.0" y1="468.6" x2="592.7" y2="443.2"/>
<line x1="575.4" y1="467.1" x2="590.1" y2="492.5"/>
<line x1="1015.0" y1="268.7" x2="1014.6" y2="268.0"/>
<line x1="1018.7" y1="267.0" x2="1017.9" y2="265.6"/>
<line x1="1022.3" y1="265.4" x2="1021.1" y2="263.3"/>
<line x1="1025.9" y1="263.7" x2="1024.3" y2="261.0"/>
<line x1="1029.6" y1="262.1" x2="1027.6" y2="258.6"/>
<line x1="1033.2" y1="260.5" x2="1030.8" y2="256.3"/>
<line x1="1036.8" y1="258.8" x2="1034.0" y2="254.0"/>
<line x1="1036.8" y1="255.6" x2="1011.4" y2="240.9"/>
<polygon points="1119.297675 303.245082 1098.286566 286.495510 1094.286566 293.423713 " />
<line x1="1096.3" y1="290.0" x2="1096.3" y2="319.3"/>
<polygon points="1037.110137 115.603361 1015.493218 131.563426 1021.150072 137.220280 " />
<line x1="1018.3" y1="134.4" x2="1046.7" y2="142.0"/>
<polygon points="1056.628447 316.530552 1060.628447 289.959612 1052.628447 289.959612 " />
<line x1="1056.6" y1="290.0" x2="1031.2" y2="304.6"/>
<polygon points="761.231619 308.924280 734.530785 311.937642 736.601337 319.665049 " />
<line x1="735.6" y1="315.8" x2="756.3" y2="336.6"/>
<polygon points="869.133682 228.923465 842.562741 224.923465 842.562741 232.923465 " />
<line x1="842.6" y1="228.9" x2="857.2" y2="254.3"/>
<line x1="707.5" y1="343.8" x2="728.3" y2="364.6"/>
<line x1="707.5" y1="343.8" x2="699.9" y2="372.2"/>
<line x1="821.3" y1="270.5" x2="820.6" y2="270.9"/>
<line x1="819.6" y1="266.9" x2="818.2" y2="267.7"/>
<line x1="818.0" y1="263.3" x2="815.9" y2="264.5"/>
<line x1="816.3" y1="259.6" x2="813.6" y2="261.2"/>
<line x1="814.7" y1="256.0" x2="811.2" y2="258.0"/>
<line x1="813.1" y1="252.4" x2="808.9" y2="254.8"/>
<line x1="811.4" y1="248.7" x2="806.6" y2="251.5"/>
<line x1="808.2" y1="248.8" x2="793.5" y2="274.2"/>
<line x1="976.7" y1="207.4" x2="975.9" y2="207.6"/>
<line x1="976.1" y1="203.4" x2="974.5" y2="203.9"/>
<line x1="975.4" y1="199.5" x2="973.1" y2="200.1"/>
<line x1="974.8" y1="195.6" x2="971.7" y2="196.4"/>
<line x1="974.1" y1="191.6" x2="970.3" y2="192.7"/>
<line x1="973.5" y1="187.7" x2="968.9" y2="188.9"/>
<line x1="972.9" y1="183.8" x2="967.5" y2="185.2"/>
<line x1="969.8" y1="183.0" x2="949.0" y2="203.7"/>
<line x1="731.5" y1="252.9" x2="732.3" y2="253.1"/>
<line x1="730.1" y1="256.6" x2="731.6" y2="257.0"/>
<line x1="728.7" y1="260.3" x2="731.0" y2="261.0"/>
<line x1="727.2" y1="264.1" x2="730.3" y2="264.9"/>
<line x1="725.8" y1="267.8" x2="729.7" y2="268.8"/>
<line x1="724.4" y1="271.5" x2="729.1" y2="272.8"/>
<line x1="723.0" y1="275.2" x2="728.4" y2="276.7"/>
<line x1="725.3" y1="277.5" x2="753.6" y2="269.9"/>
<polygon points="855.848212 166.254236 839.098640 187.265345 846.026843 191.265345 " />
<line x1="842.6" y1="189.3" x2="901.3" y2="189.3"/>
<polygon points="1033.722925 179.575720 1009.092644 168.834951 1007.022092 176.562358 " />
<line x1="1008.1" y1="172.7" x2="1015.7" y2="201.0"/>
<polygon points="1072.803810 200.189589 1053.455033 218.834688 1059.801860 223.704779 " />
<line x1="1056.6" y1="221.3" x2="1028.3" y2="213.7"/>
<polygon points="644.668386 323.411336 667.686000 337.275112 670.747468 329.884076 " />
<line x1="669.2" y1="333.6" x2="669.2" y2="362.9"/>
<polygon points="752.792719 212.748101 771.437818 232.096878 776.307909 225.750051 " />
<line x1="773.9" y1="228.9" x2="766.3" y2="257.3"/>
<line x1="925.9" y1="135.0" x2="926.6" y2="134.5"/>
<line x1="928.0" y1="138.4" x2="929.3" y2="137.4"/>
<line x1="930.1" y1="141.8" x2="932.0" y2="140.3"/>
<line x1="932.2" y1="145.2" x2="934.8" y2="143.2"/>
<line x1="934.3" y1="148.6" x2="937.5" y2="146.2"/>
<line x1="936.4" y1="152.0" x2="940.2" y2="149.1"/>
<line x1="938.5" y1="155.4" x2="943.0" y2="152.0"/>
<line x1="941.7" y1="154.9" x2="927.0" y2="180.3"/>
<line x1="1036.8" y1="255.6" x2="1056.6" y2="221.3"/>
<line x1="1056.6" y1="221.3" x2="1086.0" y2="221.3"/>
<line x1="1101.4" y1="230.2" x2="1116.1" y2="255.6"/>
<line x1="1116.1" y1="255.6" x2="1096.3" y2="290.0"/>
<line x1="1096.3" y1="290.0" x2="1056.6" y2="290.0"/>
<line x1="1056.6" y1="290.0" x2="1036.8" y2="255.6"/>
<line x1="969.8" y1="183.0" x2="941.7" y2="154.9"/>
<line x1="941.7" y1="154.9" x2="949.3" y2="126.6"/>
<line x1="961.9" y1="113.9" x2="990.3" y2="106.3"/>
<line x1="990.3" y1="106.3" x2="1018.3" y2="134.4"/>
<line x1="1018.3" y1="134.4" x2="1008.1" y2="172.7"/>
<line x1="1008.1" y1="172.7" x2="969.8" y2="183.0"/>
<line x1="735.6" y1="315.8" x2="707.5" y2="343.8"/>
<line x1="707.5" y1="343.8" x2="669.2" y2="333.6"/>
<line x1="669.2" y1="333.6" x2="661.6" y2="305.2"/>
<line x1="666.2" y1="288.0" x2="687.0" y2="267.2"/>
<line x1="687.0" y1="267.2" x2="725.3" y2="277.5"/>
<line x1="725.3" y1="277.5" x2="735.6" y2="315.8"/>
<line x1="842.6" y1="228.9" x2="808.2" y2="248.8"/>
<line x1="808.2" y1="248.8" x2="773.9" y2="228.9"/>
<line x1="773.9" y1="228.9" x2="773.9" y2="199.6"/>
<line x1="782.8" y1="184.1" x2="808.2" y2="169.4"/>
<line x1="808.2" y1="169.4" x2="842.6" y2="189.3"/>
<line x1="842.6" y1="189.3" x2="842.6" y2="228.9"/>
<text x="53.829060" y="131.940441" fill="rgb(102,102,102)"  stroke="rgb(102,102,102)" stroke-width="1" font-size="16" >CH</text>
<text x="77.829060" y="139.620441" fill="rgb(102,102,102)"  stroke="rgb(102,102,102)" stroke-width="1" font-size="13" >3</text>
<text x="254.348718" y="712.284406" fill="rgb(102,102,102)"  stroke="rgb(102,102,102)" stroke-width="1" font-size="16" >H</text>
<text x="266.348718" y="717.084406" fill="rgb(102,102,102)"  stroke="rgb(102,102,102)" stroke-width="1" font-size="13" >3</text>
<text x="272.848718" y="712.284406" fill="rgb(102,102,102)"  stroke="rgb(102,102,102)" stroke-width="1" font-size="16" >C</text>
<text x="962.109509" y="300.072792" fill="rgb(102,102,102)"  stroke="rgb(102,102,102)" stroke-width="1" font-size="16" >CH</text>
<text x="986.109509" y="304.872792" fill="rgb(102,102,102)"  stroke="rgb(102,102,102)" stroke-width="1" font-size="13" >3</text>
<text x="996.454448" y="244.105613" fill="rgb(12,12,255)"  stroke="rgb(12,12,255)" stroke-width="1" font-size="16" >N</text>
<text x="591.613675" y="441.044893" fill="rgb(12,12,255)"  stroke="rgb(12,12,255)" stroke-width="1" font-size="16" >N</text>
<text x="1178.805504" y="263.934672" fill="rgb(255,12,12)"  stroke="rgb(255,12,12)" stroke-width="1" font-size="16" >OH</text>
<text x="992.457368" y="48.320000" fill="rgb(255,12,12)"  stroke="rgb(255,12,12)" stroke-width="1" font-size="16" >HO</text>
<text x="653.616734" y="209.200939" fill="rgb(255,12,12)"  stroke="rgb(255,12,12)" stroke-width="1" font-size="16" >HO</text>
<text x="792.617802" y="109.066407" fill="rgb(255,12,12)"  stroke="rgb(255,12,12)" stroke-width="1" font-size="16" >HO</text>
<text x="918.164570" y="244.105613" fill="rgb(255,12,12)"  stroke="rgb(255,12,12)" stroke-width="1" font-size="16" >HO</text>
<text x="668.529915" y="401.386774" fill="rgb(255,12,12)"  stroke="rgb(255,12,12)" stroke-width="1" font-size="16" >OH</text>
<text x="589.213675" y="506.214771" fill="rgb(255,12,12)"  stroke="rgb(255,12,12)" stroke-width="1" font-size="16" >OH</text>
<text x="1090.286566" y="334.417731" fill="rgb(255,12,12)"  stroke="rgb(255,12,12)" stroke-width="1" font-size="16" >OH</text>
<text x="1050.628447" y="149.456129" fill="rgb(255,12,12)"  stroke="rgb(255,12,12)" stroke-width="1" font-size="16" >OH</text>
<text x="1006.683508" y="314.588671" fill="rgb(255,12,12)"  stroke="rgb(255,12,12)" stroke-width="1" font-size="16" >HO</text>
<text x="757.608587" y="348.643871" fill="rgb(255,12,12)"  stroke="rgb(255,12,12)" stroke-width="1" font-size="16" >OH</text>
<text x="856.391801" y="268.068404" fill="rgb(255,12,12)"  stroke="rgb(255,12,12)" stroke-width="1" font-size="16" >OH</text>
<text x="681.659259" y="386.950673" fill="rgb(255,12,12)"  stroke="rgb(255,12,12)" stroke-width="1" font-size="16" >HO</text>
<text x="772.788743" y="287.897464" fill="rgb(255,12,12)"  stroke="rgb(255,12,12)" stroke-width="1" font-size="16" >HO</text>
<text x="926.108041" y="215.805457" fill="rgb(255,12,12)"  stroke="rgb(255,12,12)" stroke-width="1" font-size="16" >HO</text>
<text x="663.216734" y="378.037714" fill="rgb(255,12,12)"  stroke="rgb(255,12,12)" stroke-width="1" font-size="16" >O</text>
<text x="1090.286566" y="229.589733" fill="rgb(255,12,12)"  stroke="rgb(255,12,12)" stroke-width="1" font-size="16" >O</text>
<text x="948.372317" y="124.933604" fill="rgb(255,12,12)"  stroke="rgb(255,12,12)" stroke-width="1" font-size="16" >O</text>
<text x="655.352457" y="303.592792" fill="rgb(255,12,12)"  stroke="rgb(255,12,12)" stroke-width="1" font-size="16" >O</text>
<text x="770.272863" y="197.585345" fill="rgb(255,12,12)"  stroke="rgb(255,12,12)" stroke-width="1" font-size="16" >O</text>
<text x="757.608587" y="272.030267" fill="rgb(255,12,12)"  stroke="rgb(255,12,12)" stroke-width="1" font-size="16" >O</text>
<text x="915.878981" y="194.065345" fill="rgb(255,12,12)"  stroke="rgb(255,12,12)" stroke-width="1" font-size="16" >O</text>
<text x="1014.721645" y="215.805457" fill="rgb(255,12,12)"  stroke="rgb(255,12,12)" stroke-width="1" font-size="16" >O</text>
<text x="688.358974" y="540.559711" fill="rgb(191,191,191)"  stroke="rgb(191,191,191)" stroke-width="1" font-size="16" >H</text>
<text x="728.017094" y="471.869832" fill="rgb(191,191,191)"  stroke="rgb(191,191,191)" stroke-width="1" font-size="16" >H</text>
<text x="628.871795" y="477.183013" fill="rgb(191,191,191)"  stroke="rgb(191,191,191)" stroke-width="1" font-size="16" >H</text>
<text x="702.874854" y="421.215833" fill="rgb(191,191,191)"  stroke="rgb(191,191,191)" stroke-width="1" font-size="16" >H</text>
<text x="1144.460565" y="244.105613" fill="rgb(191,191,191)"  stroke="rgb(191,191,191)" stroke-width="1" font-size="16" >H</text>
<text x="976.414843" y="76.362525" fill="rgb(191,191,191)"  stroke="rgb(191,191,191)" stroke-width="1" font-size="16" >H</text>
<text x="655.352457" y="247.507741" fill="rgb(191,191,191)"  stroke="rgb(191,191,191)" stroke-width="1" font-size="16" >H</text>
<text x="784.788743" y="143.411346" fill="rgb(191,191,191)"  stroke="rgb(191,191,191)" stroke-width="1" font-size="16" >H</text>
<text x="998.854448" y="280.243732" fill="rgb(191,191,191)"  stroke="rgb(191,191,191)" stroke-width="1" font-size="16" >H</text>
<text x="1124.631505" y="314.588671" fill="rgb(191,191,191)"  stroke="rgb(191,191,191)" stroke-width="1" font-size="16" >H</text>
<text x="1040.364170" y="114.669327" fill="rgb(191,191,191)"  stroke="rgb(191,191,191)" stroke-width="1" font-size="16" >H</text>
<text x="1050.628447" y="334.417731" fill="rgb(191,191,191)"  stroke="rgb(191,191,191)" stroke-width="1" font-size="16" >H</text>
<text x="767.872863" y="313.857069" fill="rgb(191,191,191)"  stroke="rgb(191,191,191)" stroke-width="1" font-size="16" >H</text>
<text x="876.220861" y="237.243465" fill="rgb(191,191,191)"  stroke="rgb(191,191,191)" stroke-width="1" font-size="16" >H</text>
<text x="729.566061" y="376.686396" fill="rgb(191,191,191)"  stroke="rgb(191,191,191)" stroke-width="1" font-size="16" >H</text>
<text x="822.046862" y="287.897464" fill="rgb(191,191,191)"  stroke="rgb(191,191,191)" stroke-width="1" font-size="16" >H</text>
<text x="974.014843" y="226.069733" fill="rgb(191,191,191)"  stroke="rgb(191,191,191)" stroke-width="1" font-size="16" >H</text>
<text x="729.566061" y="247.507741" fill="rgb(191,191,191)"  stroke="rgb(191,191,191)" stroke-width="1" font-size="16" >H</text>
<text x="856.391801" y="163.240406" fill="rgb(191,191,191)"  stroke="rgb(191,191,191)" stroke-width="1" font-size="16" >H</text>
<text x="1040.364170" y="187.762931" fill="rgb(191,191,191)"  stroke="rgb(191,191,191)" stroke-width="1" font-size="16" >H</text>
<text x="1074.770780" y="198.126832" fill="rgb(191,191,191)"  stroke="rgb(191,191,191)" stroke-width="1" font-size="16" >H</text>
<text x="628.977409" y="326.723089" fill="rgb(191,191,191)"  stroke="rgb(191,191,191)" stroke-width="1" font-size="16" >H</text>
<text x="738.809962" y="213.101131" fill="rgb(191,191,191)"  stroke="rgb(191,191,191)" stroke-width="1" font-size="16" >H</text>
<text x="913.965707" y="131.777504" fill="rgb(191,191,191)"  stroke="rgb(191,191,191)" stroke-width="1" font-size="16" >H</text>
<text font-size="18.000000" fill ="black" font-family="sans-serif"
x="140.000000" y="20.000000" ></text>
<title> - OBDepict</title>
</svg>
