<?xml version="1.0"?>
<svg xmlns="http://www.w3.org/2000/svg"
xmlns:xlink="http://www.w3.org/1999/xlink" xmlns:cml="http://www.xml-cml.org/schema" width="410.263" height="274.958" x="0" y="0" font-family="sans-serif" stroke="rgb(0,0,0)" stroke-width="1" >
<line x1="234.8" y1="172.0" x2="218.0" y2="162.3"/>
<line x1="370.3" y1="79.0" x2="353.3" y2="102.4"/>
<line x1="337.7" y1="107.4" x2="310.3" y2="98.5"/>
<line x1="310.3" y1="98.5" x2="310.3" y2="59.5"/>
<line x1="317.5" y1="92.5" x2="317.5" y2="65.5"/>
<line x1="310.3" y1="59.5" x2="337.7" y2="50.6"/>
<line x1="353.3" y1="55.7" x2="370.3" y2="79.0"/>
<line x1="40.0" y1="215.5" x2="65.0" y2="229.9"/>
<line x1="82.6" y1="219.8" x2="107.6" y2="176.5"/>
<line x1="107.6" y1="176.5" x2="73.8" y2="157.0"/>
<line x1="98.8" y1="179.7" x2="75.4" y2="166.2"/>
<line x1="73.8" y1="157.0" x2="48.8" y2="171.4"/>
<line x1="40.0" y1="186.6" x2="40.0" y2="215.5"/>
<line x1="175.2" y1="59.5" x2="208.9" y2="40.0"/>
<line x1="183.9" y1="62.7" x2="207.3" y2="49.2"/>
<line x1="208.9" y1="40.0" x2="242.7" y2="59.5"/>
<line x1="242.7" y1="59.5" x2="242.7" y2="98.5"/>
<line x1="242.7" y1="98.5" x2="208.9" y2="118.0"/>
<line x1="208.9" y1="118.0" x2="175.2" y2="98.5"/>
<line x1="175.2" y1="98.5" x2="175.2" y2="59.5"/>
<line x1="276.5" y1="40.0" x2="310.3" y2="59.5"/>
<line x1="310.3" y1="98.5" x2="276.5" y2="118.0"/>
<line x1="276.5" y1="118.0" x2="242.7" y2="98.5"/>
<line x1="274.9" y1="108.8" x2="251.5" y2="95.3"/>
<line x1="242.7" y1="59.5" x2="276.5" y2="40.0"/>
<line x1="251.5" y1="62.8" x2="274.9" y2="49.3"/>
<line x1="175.1" y1="176.5" x2="141.3" y2="157.0"/>
<line x1="173.5" y1="167.3" x2="150.1" y2="153.8"/>
<line x1="141.3" y1="157.0" x2="141.4" y2="118.0"/>
<line x1="141.4" y1="118.0" x2="175.2" y2="98.5"/>
<line x1="150.2" y1="121.2" x2="173.6" y2="107.7"/>
<line x1="208.9" y1="118.0" x2="208.9" y2="146.9"/>
<line x1="201.7" y1="124.0" x2="201.7" y2="144.8"/>
<line x1="200.1" y1="162.1" x2="175.1" y2="176.5"/>
<line x1="107.6" y1="98.5" x2="73.8" y2="118.0"/>
<line x1="106.0" y1="107.7" x2="82.6" y2="121.2"/>
<line x1="73.8" y1="118.0" x2="73.8" y2="157.0"/>
<line x1="107.6" y1="176.5" x2="141.3" y2="157.0"/>
<line x1="141.4" y1="118.0" x2="107.6" y2="98.5"/>
<text x="237.930999" y="182.029972" fill="rgb(102,102,102)"  stroke="rgb(102,102,102)" stroke-width="1" font-size="16" >CH</text>
<text x="261.930999" y="186.829972" fill="rgb(102,102,102)"  stroke="rgb(102,102,102)" stroke-width="1" font-size="13" >3</text>
<text x="205.022634" y="151.804551" fill="rgb(12,12,255)"  stroke="rgb(12,12,255)" stroke-width="1" font-size="13" >+</text>
<text x="205.322634" y="165.324551" fill="rgb(12,12,255)"  stroke="rgb(12,12,255)" stroke-width="1" font-size="16" >N</text>
<text x="36.400000" y="184.798693" fill="rgb(255,12,12)"  stroke="rgb(255,12,12)" stroke-width="1" font-size="16" >O</text>
<text x="341.342932" y="55.786614" fill="rgb(255,12,12)"  stroke="rgb(255,12,12)" stroke-width="1" font-size="16" >O</text>
<text x="341.342932" y="115.361352" fill="rgb(255,12,12)"  stroke="rgb(255,12,12)" stroke-width="1" font-size="16" >O</text>
<text x="67.772879" y="239.757720" fill="rgb(255,12,12)"  stroke="rgb(255,12,12)" stroke-width="1" font-size="16" >O</text>
<text font-size="18.000000" fill ="black" font-family="sans-serif"
x="140.000000" y="20.000000" ></text>
<title> - OBDepict</title>
</svg>
