<?xml version="1.0"?>
<svg xmlns="http://www.w3.org/2000/svg"
xmlns:xlink="http://www.w3.org/1999/xlink" xmlns:cml="http://www.xml-cml.org/schema" width="720" height="501.051" x="0" y="0" font-family="sans-serif" stroke="rgb(0,0,0)" stroke-width="1" >
<line x1="665.2" y1="49.0" x2="680.0" y2="74.6"/>
<line x1="80.0" y1="391.5" x2="80.0" y2="410.7"/>
<line x1="50.4" y1="421.1" x2="69.6" y2="421.1"/>
<line x1="80.0" y1="450.7" x2="80.0" y2="431.5"/>
<line x1="680.0" y1="74.6" x2="660.0" y2="109.3"/>
<line x1="660.0" y1="109.3" x2="620.0" y2="109.3"/>
<line x1="620.0" y1="109.3" x2="600.0" y2="143.9"/>
<line x1="600.0" y1="143.9" x2="560.0" y2="143.9"/>
<line x1="560.0" y1="143.9" x2="540.0" y2="178.6"/>
<line x1="540.0" y1="178.6" x2="500.0" y2="178.6"/>
<line x1="500.0" y1="178.6" x2="480.0" y2="213.2"/>
<line x1="480.0" y1="213.2" x2="440.0" y2="213.2"/>
<line x1="440.0" y1="213.2" x2="420.0" y2="247.8"/>
<line x1="420.0" y1="247.8" x2="380.0" y2="247.8"/>
<line x1="380.0" y1="247.8" x2="360.0" y2="282.5"/>
<line x1="360.0" y1="282.5" x2="320.0" y2="282.5"/>
<line x1="320.0" y1="282.5" x2="300.0" y2="317.1"/>
<line x1="300.0" y1="317.1" x2="260.0" y2="317.1"/>
<line x1="260.0" y1="317.1" x2="240.0" y2="351.8"/>
<line x1="240.0" y1="351.8" x2="200.0" y2="351.8"/>
<line x1="120.0" y1="351.8" x2="140.0" y2="386.4"/>
<line x1="120.0" y1="351.8" x2="80.0" y2="351.8"/>
<line x1="120.0" y1="421.1" x2="140.0" y2="386.4"/>
<line x1="120.0" y1="421.1" x2="90.4" y2="421.1"/>
<line x1="140.0" y1="386.4" x2="169.6" y2="386.4"/>
<line x1="77.4" y1="353.3" x2="62.6" y2="327.6"/>
<line x1="82.6" y1="350.3" x2="67.8" y2="324.6"/>
<line x1="80.0" y1="351.8" x2="65.2" y2="377.4"/>
<line x1="197.4" y1="353.3" x2="182.6" y2="327.6"/>
<line x1="202.6" y1="350.3" x2="187.8" y2="324.6"/>
<line x1="200.0" y1="351.8" x2="185.2" y2="377.4"/>
<text x="636.400000" y="48.320000" fill="rgb(102,102,102)"  stroke="rgb(102,102,102)" stroke-width="1" font-size="16" >H</text>
<text x="648.400000" y="56.000000" fill="rgb(102,102,102)"  stroke="rgb(102,102,102)" stroke-width="1" font-size="13" >3</text>
<text x="654.900000" y="48.320000" fill="rgb(102,102,102)"  stroke="rgb(102,102,102)" stroke-width="1" font-size="16" >C</text>
<text x="74.000000" y="389.371178" fill="rgb(102,102,102)"  stroke="rgb(102,102,102)" stroke-width="1" font-size="16" >CH</text>
<text x="98.000000" y="397.051178" fill="rgb(102,102,102)"  stroke="rgb(102,102,102)" stroke-width="1" font-size="13" >3</text>
<text x="16.400000" y="425.851178" fill="rgb(102,102,102)"  stroke="rgb(102,102,102)" stroke-width="1" font-size="16" >H</text>
<text x="28.400000" y="430.651178" fill="rgb(102,102,102)"  stroke="rgb(102,102,102)" stroke-width="1" font-size="13" >3</text>
<text x="34.900000" y="425.851178" fill="rgb(102,102,102)"  stroke="rgb(102,102,102)" stroke-width="1" font-size="16" >C</text>
<text x="74.000000" y="465.851178" fill="rgb(102,102,102)"  stroke="rgb(102,102,102)" stroke-width="1" font-size="16" >CH</text>
<text x="98.000000" y="470.651178" fill="rgb(102,102,102)"  stroke="rgb(102,102,102)" stroke-width="1" font-size="13" >3</text>
<text x="76.100000" y="436.651178" fill="rgb(12,12,255)"  stroke="rgb(12,12,255)" stroke-width="1" font-size="13" >+</text>
<text x="74.000000" y="425.851178" fill="rgb(12,12,255)"  stroke="rgb(12,12,255)" stroke-width="1" font-size="16" >N</text>
<text x="56.400000" y="325.448129" fill="rgb(255,12,12)"  stroke="rgb(255,12,12)" stroke-width="1" font-size="16" >O</text>
<text x="55.200000" y="405.610162" fill="rgb(255,12,12)"  stroke="rgb(255,12,12)" stroke-width="1" font-size="32" >-</text>
<text x="56.400000" y="391.210162" fill="rgb(255,12,12)"  stroke="rgb(255,12,12)" stroke-width="1" font-size="16" >O</text>
<text x="176.400000" y="325.448129" fill="rgb(255,12,12)"  stroke="rgb(255,12,12)" stroke-width="1" font-size="16" >O</text>
<text x="174.000000" y="391.210162" fill="rgb(255,12,12)"  stroke="rgb(255,12,12)" stroke-width="1" font-size="16" >O</text>
<text font-size="18.000000" fill ="black" font-family="sans-serif"
x="140.000000" y="20.000000" ></text>
<title> - OBDepict</title>
</svg>
