<?xml version="1.0"?>
<svg xmlns="http://www.w3.org/2000/svg"
xmlns:xlink="http://www.w3.org/1999/xlink" xmlns:cml="http://www.xml-cml.org/schema" width="966.178" height="563.469" x="0" y="0" font-family="sans-serif" stroke="rgb(0,0,0)" stroke-width="1" >
<line x1="56.9" y1="49.3" x2="76.2" y2="70.8"/>
<line x1="649.7" y1="447.6" x2="671.2" y2="428.3"/>
<line x1="643.7" y1="419.4" x2="671.2" y2="428.3"/>
<line x1="76.2" y1="70.8" x2="114.4" y2="62.6"/>
<line x1="114.4" y1="62.6" x2="140.5" y2="91.7"/>
<line x1="140.5" y1="91.7" x2="128.5" y2="128.8"/>
<line x1="128.5" y1="128.8" x2="90.3" y2="136.9"/>
<line x1="90.3" y1="136.9" x2="70.9" y2="115.4"/>
<line x1="93.1" y1="137.8" x2="81.0" y2="175.0"/>
<line x1="87.4" y1="136.0" x2="75.3" y2="173.1"/>
<line x1="78.2" y1="174.0" x2="49.9" y2="180.1"/>
<line x1="78.2" y1="174.0" x2="104.3" y2="203.1"/>
<line x1="104.3" y1="203.1" x2="92.3" y2="240.2"/>
<line x1="92.3" y1="240.2" x2="64.0" y2="246.2"/>
<line x1="94.5" y1="238.2" x2="120.6" y2="267.2"/>
<line x1="90.0" y1="242.2" x2="116.2" y2="271.2"/>
<line x1="118.4" y1="269.2" x2="109.5" y2="296.7"/>
<line x1="118.4" y1="269.2" x2="156.6" y2="261.1"/>
<line x1="156.6" y1="261.1" x2="182.7" y2="290.1"/>
<line x1="182.7" y1="290.1" x2="220.9" y2="282.0"/>
<line x1="220.9" y1="282.0" x2="247.0" y2="311.0"/>
<line x1="247.0" y1="311.0" x2="285.2" y2="302.9"/>
<line x1="285.2" y1="302.9" x2="311.4" y2="331.9"/>
<line x1="311.4" y1="331.9" x2="349.5" y2="323.8"/>
<line x1="349.5" y1="323.8" x2="375.7" y2="352.8"/>
<line x1="582.7" y1="481.7" x2="620.9" y2="473.6"/>
<line x1="582.7" y1="481.7" x2="556.6" y2="452.7"/>
<line x1="620.9" y1="473.6" x2="640.2" y2="495.0"/>
<line x1="542.5" y1="386.5" x2="504.3" y2="394.6"/>
<line x1="542.5" y1="386.5" x2="561.8" y2="408.0"/>
<line x1="504.3" y1="394.6" x2="485.0" y2="373.1"/>
<line x1="413.9" y1="344.7" x2="375.7" y2="352.8"/>
<line x1="413.9" y1="344.7" x2="440.0" y2="373.7"/>
<line x1="665.0" y1="211.5" x2="703.2" y2="203.4"/>
<line x1="665.0" y1="211.5" x2="656.1" y2="239.0"/>
<line x1="695.3" y1="354.0" x2="671.2" y2="428.3"/>
<line x1="695.3" y1="354.0" x2="676.0" y2="332.6"/>
<line x1="357.4" y1="369.8" x2="356.8" y2="369.2"/>
<line x1="360.5" y1="367.5" x2="359.5" y2="366.3"/>
<line x1="363.7" y1="365.2" x2="362.1" y2="363.4"/>
<line x1="366.9" y1="362.9" x2="364.7" y2="360.5"/>
<line x1="370.0" y1="360.6" x2="367.4" y2="357.6"/>
<line x1="373.2" y1="358.3" x2="370.0" y2="354.7"/>
<line x1="376.4" y1="355.9" x2="372.6" y2="351.8"/>
<line x1="375.7" y1="352.8" x2="381.7" y2="381.1"/>
<line x1="695.8" y1="227.3" x2="695.1" y2="227.0"/>
<line x1="697.4" y1="223.7" x2="695.9" y2="223.2"/>
<line x1="699.0" y1="220.1" x2="696.7" y2="219.3"/>
<line x1="700.6" y1="216.5" x2="697.6" y2="215.5"/>
<line x1="702.2" y1="212.9" x2="698.4" y2="211.7"/>
<line x1="703.8" y1="209.3" x2="699.2" y2="207.8"/>
<line x1="705.4" y1="205.7" x2="700.0" y2="204.0"/>
<line x1="553.7" y1="451.7" x2="562.6" y2="424.2"/>
<line x1="559.4" y1="453.6" x2="568.4" y2="426.1"/>
<line x1="556.6" y1="452.7" x2="528.3" y2="458.7"/>
<line x1="442.8" y1="374.6" x2="433.9" y2="402.1"/>
<line x1="437.1" y1="372.8" x2="428.2" y2="400.3"/>
<line x1="440.0" y1="373.7" x2="468.3" y2="367.7"/>
<line x1="726.7" y1="125.0" x2="727.4" y2="124.8"/>
<line x1="727.5" y1="128.8" x2="729.0" y2="128.3"/>
<line x1="728.3" y1="132.7" x2="730.6" y2="131.9"/>
<line x1="729.2" y1="136.5" x2="732.2" y2="135.5"/>
<line x1="730.0" y1="140.4" x2="733.8" y2="139.1"/>
<line x1="730.8" y1="144.2" x2="735.4" y2="142.7"/>
<line x1="731.6" y1="148.0" x2="737.0" y2="146.3"/>
<line x1="734.8" y1="148.6" x2="754.1" y2="127.2"/>
<line x1="674.1" y1="164.9" x2="674.1" y2="164.1"/>
<line x1="678.0" y1="165.3" x2="678.0" y2="163.7"/>
<line x1="681.9" y1="165.7" x2="681.9" y2="163.3"/>
<line x1="685.8" y1="166.1" x2="685.8" y2="162.9"/>
<line x1="689.7" y1="166.5" x2="689.7" y2="162.5"/>
<line x1="693.6" y1="166.9" x2="693.6" y2="162.1"/>
<line x1="697.5" y1="167.3" x2="697.5" y2="161.7"/>
<line x1="699.1" y1="164.5" x2="684.7" y2="139.5"/>
<line x1="697.3" y1="457.3" x2="724.8" y2="466.2"/>
<line x1="697.3" y1="457.3" x2="685.2" y2="494.5"/>
<line x1="697.3" y1="457.3" x2="671.2" y2="428.3"/>
<line x1="697.3" y1="457.3" x2="718.8" y2="438.0"/>
<line x1="901.6" y1="76.5" x2="912.0" y2="49.5"/>
<line x1="685.8" y1="497.4" x2="657.6" y2="503.4"/>
<line x1="684.6" y1="491.5" x2="656.3" y2="497.5"/>
<line x1="685.2" y1="494.5" x2="704.6" y2="515.9"/>
<line x1="777.1" y1="196.7" x2="776.5" y2="197.2"/>
<line x1="774.9" y1="193.4" x2="773.7" y2="194.4"/>
<line x1="772.8" y1="190.2" x2="770.9" y2="191.7"/>
<line x1="770.6" y1="186.9" x2="768.1" y2="188.9"/>
<line x1="768.4" y1="183.6" x2="765.3" y2="186.2"/>
<line x1="766.2" y1="180.4" x2="762.5" y2="183.4"/>
<line x1="764.1" y1="177.1" x2="759.7" y2="180.7"/>
<line x1="760.9" y1="177.7" x2="797.3" y2="132.8"/>
<line x1="640.5" y1="101.8" x2="640.5" y2="120.6"/>
<line x1="611.6" y1="130.7" x2="630.4" y2="130.7"/>
<line x1="637.5" y1="159.6" x2="637.5" y2="140.9"/>
<line x1="643.5" y1="159.6" x2="643.5" y2="140.9"/>
<line x1="608.7" y1="228.5" x2="612.6" y2="246.8"/>
<line x1="585.8" y1="259.8" x2="604.2" y2="255.9"/>
<line x1="587.1" y1="265.7" x2="605.4" y2="261.8"/>
<line x1="602.7" y1="339.1" x2="621.0" y2="335.2"/>
<line x1="634.0" y1="362.0" x2="630.1" y2="343.7"/>
<line x1="639.9" y1="360.8" x2="636.0" y2="342.4"/>
<line x1="643.0" y1="250.7" x2="624.7" y2="254.6"/>
<line x1="659.2" y1="327.1" x2="640.9" y2="331.0"/>
<line x1="669.4" y1="130.7" x2="650.7" y2="130.7"/>
<line x1="620.7" y1="285.0" x2="616.8" y2="266.7"/>
<line x1="625.0" y1="304.9" x2="628.9" y2="323.2"/>
<line x1="799.9" y1="79.3" x2="807.4" y2="107.2"/>
<line x1="820.2" y1="117.5" x2="849.0" y2="119.0"/>
<line x1="849.0" y1="119.0" x2="863.0" y2="82.6"/>
<line x1="863.0" y1="82.6" x2="840.6" y2="64.4"/>
<line x1="824.2" y1="63.5" x2="799.9" y2="79.3"/>
<line x1="826.3" y1="70.7" x2="808.9" y2="82.0"/>
<line x1="703.2" y1="203.4" x2="699.1" y2="164.5"/>
<line x1="699.1" y1="164.5" x2="734.8" y2="148.6"/>
<line x1="734.8" y1="148.6" x2="760.9" y2="177.7"/>
<line x1="760.9" y1="177.7" x2="746.5" y2="202.7"/>
<line x1="731.4" y1="209.4" x2="703.2" y2="203.4"/>
<line x1="849.0" y1="119.0" x2="867.2" y2="141.5"/>
<line x1="858.4" y1="119.1" x2="871.5" y2="135.3"/>
<line x1="883.6" y1="147.8" x2="912.2" y2="143.3"/>
<line x1="912.2" y1="143.3" x2="922.5" y2="116.3"/>
<line x1="907.6" y1="135.1" x2="915.1" y2="115.7"/>
<line x1="919.8" y1="98.9" x2="901.6" y2="76.5"/>
<line x1="901.6" y1="76.5" x2="863.0" y2="82.6"/>
<line x1="896.8" y1="84.5" x2="870.1" y2="88.7"/>
<text x="26.471177" y="50.056995" fill="rgb(102,102,102)"  stroke="rgb(102,102,102)" stroke-width="1" font-size="16" >H</text>
<text x="38.471177" y="57.736995" fill="rgb(102,102,102)"  stroke="rgb(102,102,102)" stroke-width="1" font-size="13" >3</text>
<text x="44.971177" y="50.056995" fill="rgb(102,102,102)"  stroke="rgb(102,102,102)" stroke-width="1" font-size="16" >C</text>
<text x="618.538505" y="459.224754" fill="rgb(102,102,102)"  stroke="rgb(102,102,102)" stroke-width="1" font-size="16" >H</text>
<text x="630.538505" y="464.024754" fill="rgb(102,102,102)"  stroke="rgb(102,102,102)" stroke-width="1" font-size="13" >3</text>
<text x="637.038505" y="459.224754" fill="rgb(102,102,102)"  stroke="rgb(102,102,102)" stroke-width="1" font-size="16" >C</text>
<text x="610.420049" y="424.550419" fill="rgb(102,102,102)"  stroke="rgb(102,102,102)" stroke-width="1" font-size="16" >H</text>
<text x="622.420049" y="432.230419" fill="rgb(102,102,102)"  stroke="rgb(102,102,102)" stroke-width="1" font-size="13" >3</text>
<text x="628.920049" y="424.550419" fill="rgb(102,102,102)"  stroke="rgb(102,102,102)" stroke-width="1" font-size="16" >C</text>
<text x="909.598024" y="48.320000" fill="rgb(12,12,255)"  stroke="rgb(12,12,255)" stroke-width="1" font-size="16" >NH</text>
<text x="933.598024" y="56.000000" fill="rgb(12,12,255)"  stroke="rgb(12,12,255)" stroke-width="1" font-size="13" >2</text>
<text x="562.639914" y="423.835674" fill="rgb(12,12,255)"  stroke="rgb(12,12,255)" stroke-width="1" font-size="16" >N</text>
<text x="643.423785" y="507.369782" fill="rgb(12,12,255)"  stroke="rgb(12,12,255)" stroke-width="1" font-size="16" >N</text>
<text x="920.178072" y="115.119792" fill="rgb(12,12,255)"  stroke="rgb(12,12,255)" stroke-width="1" font-size="16" >N</text>
<text x="870.017778" y="154.162279" fill="rgb(12,12,255)"  stroke="rgb(12,12,255)" stroke-width="1" font-size="16" >N</text>
<text x="826.692031" y="66.309023" fill="rgb(12,12,255)"  stroke="rgb(12,12,255)" stroke-width="1" font-size="16" >N</text>
<text x="804.050210" y="125.292985" fill="rgb(12,12,255)"  stroke="rgb(12,12,255)" stroke-width="1" font-size="16" >N</text>
<text x="377.791495" y="395.811270" fill="rgb(255,12,12)"  stroke="rgb(255,12,12)" stroke-width="1" font-size="16" >OH</text>
<text x="513.579202" y="479.970623" fill="rgb(255,12,12)"  stroke="rgb(255,12,12)" stroke-width="1" font-size="32" >-</text>
<text x="514.779202" y="465.570623" fill="rgb(255,12,12)"  stroke="rgb(255,12,12)" stroke-width="1" font-size="16" >O</text>
<text x="424.328953" y="415.653007" fill="rgb(255,12,12)"  stroke="rgb(255,12,12)" stroke-width="1" font-size="16" >O</text>
<text x="754.903284" y="127.948311" fill="rgb(255,12,12)"  stroke="rgb(255,12,12)" stroke-width="1" font-size="16" >OH</text>
<text x="720.302534" y="439.506876" fill="rgb(255,12,12)"  stroke="rgb(255,12,12)" stroke-width="1" font-size="16" >OH</text>
<text x="706.546077" y="542.669362" fill="rgb(255,12,12)"  stroke="rgb(255,12,12)" stroke-width="1" font-size="32" >-</text>
<text x="705.346077" y="528.269362" fill="rgb(255,12,12)"  stroke="rgb(255,12,12)" stroke-width="1" font-size="16" >O</text>
<text x="635.732123" y="85.264596" fill="rgb(255,12,12)"  stroke="rgb(255,12,12)" stroke-width="1" font-size="32" >-</text>
<text x="634.532123" y="99.984596" fill="rgb(255,12,12)"  stroke="rgb(255,12,12)" stroke-width="1" font-size="16" >O</text>
<text x="596.684504" y="149.912215" fill="rgb(255,12,12)"  stroke="rgb(255,12,12)" stroke-width="1" font-size="32" >-</text>
<text x="597.884504" y="135.512215" fill="rgb(255,12,12)"  stroke="rgb(255,12,12)" stroke-width="1" font-size="16" >O</text>
<text x="634.532123" y="174.559834" fill="rgb(255,12,12)"  stroke="rgb(255,12,12)" stroke-width="1" font-size="16" >O</text>
<text x="591.011635" y="226.861228" fill="rgb(255,12,12)"  stroke="rgb(255,12,12)" stroke-width="1" font-size="16" >HO</text>
<text x="572.935757" y="269.654019" fill="rgb(255,12,12)"  stroke="rgb(255,12,12)" stroke-width="1" font-size="16" >O</text>
<text x="577.172670" y="346.042689" fill="rgb(255,12,12)"  stroke="rgb(255,12,12)" stroke-width="1" font-size="16" >HO</text>
<text x="633.085461" y="376.118567" fill="rgb(255,12,12)"  stroke="rgb(255,12,12)" stroke-width="1" font-size="16" >O</text>
<text x="646.924427" y="253.417106" fill="rgb(255,12,12)"  stroke="rgb(255,12,12)" stroke-width="1" font-size="16" >O</text>
<text x="663.161340" y="333.325776" fill="rgb(255,12,12)"  stroke="rgb(255,12,12)" stroke-width="1" font-size="16" >O</text>
<text x="735.379474" y="216.280614" fill="rgb(255,12,12)"  stroke="rgb(255,12,12)" stroke-width="1" font-size="16" >O</text>
<text x="673.579742" y="139.032215" fill="rgb(255,12,12)"  stroke="rgb(255,12,12)" stroke-width="1" font-size="16" >O</text>
<text x="616.848548" y="299.729897" fill="rgb(255,12,12)"  stroke="rgb(255,12,12)" stroke-width="1" font-size="16" >O</text>
<text x="634.532123" y="139.032215" fill="rgb(255,127,0)"  stroke="rgb(255,127,0)" stroke-width="1" font-size="16" >P</text>
<text x="608.730092" y="261.535563" fill="rgb(255,127,0)"  stroke="rgb(255,127,0)" stroke-width="1" font-size="16" >P</text>
<text x="624.967005" y="341.444232" fill="rgb(255,127,0)"  stroke="rgb(255,127,0)" stroke-width="1" font-size="16" >P</text>
<text x="472.189665" y="373.918058" fill="rgb(178,178,0)"  stroke="rgb(178,178,0)" stroke-width="1" font-size="16" >S</text>
<text x="60.532756" y="116.211524" fill="rgb(191,191,191)"  stroke="rgb(191,191,191)" stroke-width="1" font-size="16" >H</text>
<text x="36.400000" y="186.964509" fill="rgb(191,191,191)"  stroke="rgb(191,191,191)" stroke-width="1" font-size="16" >H</text>
<text x="50.461579" y="253.119038" fill="rgb(191,191,191)"  stroke="rgb(191,191,191)" stroke-width="1" font-size="16" >H</text>
<text x="102.717493" y="311.155110" fill="rgb(191,191,191)"  stroke="rgb(191,191,191)" stroke-width="1" font-size="16" >H</text>
<text x="343.055003" y="383.744892" fill="rgb(191,191,191)"  stroke="rgb(191,191,191)" stroke-width="1" font-size="16" >H</text>
<text x="687.518762" y="245.298650" fill="rgb(191,191,191)"  stroke="rgb(191,191,191)" stroke-width="1" font-size="16" >H</text>
<text x="719.108949" y="119.829855" fill="rgb(191,191,191)"  stroke="rgb(191,191,191)" stroke-width="1" font-size="16" >H</text>
<text x="656.455933" y="169.328445" fill="rgb(191,191,191)"  stroke="rgb(191,191,191)" stroke-width="1" font-size="16" >H</text>
<text x="728.420991" y="474.181211" fill="rgb(191,191,191)"  stroke="rgb(191,191,191)" stroke-width="1" font-size="16" >H</text>
<text x="779.753654" y="212.583741" fill="rgb(191,191,191)"  stroke="rgb(191,191,191)" stroke-width="1" font-size="16" >H</text>
<text font-size="18.000000" fill ="black" font-family="sans-serif"
x="140.000000" y="20.000000" ></text>
<title> - OBDepict</title>
</svg>
