<?xml version="1.0"?>
<svg xmlns="http://www.w3.org/2000/svg"
xmlns:xlink="http://www.w3.org/1999/xlink" xmlns:cml="http://www.xml-cml.org/schema" width="249.282" height="180" x="0" y="0" font-family="sans-serif" stroke="rgb(0,0,0)" stroke-width="1" >
<line x1="49.0" y1="54.8" x2="74.6" y2="40.0"/>
<line x1="198.9" y1="134.6" x2="169.3" y2="134.6"/>
<line x1="74.6" y1="40.0" x2="100.3" y2="54.8"/>
<line x1="169.3" y1="134.6" x2="154.5" y2="109.0"/>
<line x1="79.7" y1="100.0" x2="98.9" y2="100.0"/>
<line x1="106.3" y1="129.6" x2="106.3" y2="110.4"/>
<line x1="112.3" y1="129.6" x2="112.3" y2="110.4"/>
<line x1="109.3" y1="70.4" x2="109.3" y2="89.6"/>
<line x1="138.9" y1="100.0" x2="119.7" y2="100.0"/>
<text x="16.400000" y="64.800000" fill="rgb(102,102,102)"  stroke="rgb(102,102,102)" stroke-width="1" font-size="16" >H</text>
<text x="28.400000" y="69.600000" fill="rgb(102,102,102)"  stroke="rgb(102,102,102)" stroke-width="1" font-size="13" >3</text>
<text x="34.900000" y="64.800000" fill="rgb(102,102,102)"  stroke="rgb(102,102,102)" stroke-width="1" font-size="16" >C</text>
<text x="203.282032" y="139.441016" fill="rgb(102,102,102)"  stroke="rgb(102,102,102)" stroke-width="1" font-size="16" >CH</text>
<text x="227.282032" y="144.241016" fill="rgb(102,102,102)"  stroke="rgb(102,102,102)" stroke-width="1" font-size="13" >3</text>
<text x="53.682032" y="104.800000" fill="rgb(255,12,12)"  stroke="rgb(255,12,12)" stroke-width="1" font-size="16" >HO</text>
<text x="103.282032" y="144.800000" fill="rgb(255,12,12)"  stroke="rgb(255,12,12)" stroke-width="1" font-size="16" >O</text>
<text x="103.282032" y="68.320000" fill="rgb(255,12,12)"  stroke="rgb(255,12,12)" stroke-width="1" font-size="16" >O</text>
<text x="143.282032" y="108.320000" fill="rgb(255,12,12)"  stroke="rgb(255,12,12)" stroke-width="1" font-size="16" >O</text>
<text x="103.282032" y="108.320000" fill="rgb(255,127,0)"  stroke="rgb(255,127,0)" stroke-width="1" font-size="16" >P</text>
<text font-size="18.000000" fill ="black" font-family="sans-serif"
x="140.000000" y="20.000000" ></text>
<title> - OBDepict</title>
</svg>
