<?xml version="1.0"?>
<svg xmlns="http://www.w3.org/2000/svg"
xmlns:xlink="http://www.w3.org/1999/xlink" xmlns:cml="http://www.xml-cml.org/schema" width="599.615" height="500" x="0" y="0" font-family="sans-serif" stroke="rgb(0,0,0)" stroke-width="1" >
<line x1="351.8" y1="160.0" x2="351.8" y2="120.0"/>
<line x1="351.8" y1="160.0" x2="317.1" y2="180.0"/>
<line x1="490.3" y1="120.0" x2="490.3" y2="160.0"/>
<line x1="490.3" y1="120.0" x2="455.7" y2="100.0"/>
<line x1="351.8" y1="120.0" x2="386.4" y2="100.0"/>
<line x1="490.3" y1="160.0" x2="525.0" y2="180.0"/>
<line x1="247.8" y1="420.0" x2="213.2" y2="400.0"/>
<line x1="247.8" y1="420.0" x2="273.5" y2="405.2"/>
<line x1="282.5" y1="280.0" x2="282.5" y2="240.0"/>
<line x1="282.5" y1="360.0" x2="282.5" y2="389.6"/>
<line x1="455.7" y1="100.0" x2="455.7" y2="60.0"/>
<line x1="455.7" y1="100.0" x2="430.1" y2="114.8"/>
<line x1="317.1" y1="180.0" x2="282.5" y2="160.0"/>
<line x1="317.1" y1="180.0" x2="317.1" y2="209.6"/>
<line x1="387.9" y1="97.4" x2="413.5" y2="112.2"/>
<line x1="384.9" y1="102.6" x2="410.5" y2="117.4"/>
<line x1="386.4" y1="100.0" x2="386.4" y2="70.4"/>
<line x1="528.0" y1="180.0" x2="528.0" y2="209.6"/>
<line x1="522.0" y1="180.0" x2="522.0" y2="209.6"/>
<line x1="525.0" y1="180.0" x2="550.6" y2="165.2"/>
<line x1="282.5" y1="240.0" x2="308.1" y2="225.2"/>
<line x1="281.0" y1="242.6" x2="255.4" y2="227.8"/>
<line x1="284.0" y1="237.4" x2="258.4" y2="222.6"/>
<line x1="109.3" y1="420.0" x2="109.3" y2="449.6"/>
<line x1="454.2" y1="57.4" x2="479.8" y2="42.6"/>
<line x1="457.2" y1="62.6" x2="482.8" y2="47.8"/>
<line x1="455.7" y1="60.0" x2="430.1" y2="45.2"/>
<line x1="279.5" y1="160.0" x2="279.5" y2="130.4"/>
<line x1="285.5" y1="160.0" x2="285.5" y2="130.4"/>
<line x1="282.5" y1="160.0" x2="256.9" y2="174.8"/>
<line x1="73.1" y1="362.6" x2="47.5" y2="347.8"/>
<line x1="76.1" y1="357.4" x2="50.5" y2="342.6"/>
<line x1="317.1" y1="300.0" x2="282.5" y2="280.0"/>
<line x1="308.3" y1="303.2" x2="284.1" y2="289.2"/>
<line x1="282.5" y1="280.0" x2="247.8" y2="300.0"/>
<line x1="247.8" y1="300.0" x2="247.8" y2="340.0"/>
<line x1="255.0" y1="306.0" x2="255.0" y2="334.0"/>
<line x1="247.8" y1="340.0" x2="282.5" y2="360.0"/>
<line x1="282.5" y1="360.0" x2="317.1" y2="340.0"/>
<line x1="284.1" y1="350.8" x2="308.3" y2="336.8"/>
<line x1="317.1" y1="340.0" x2="317.1" y2="300.0"/>
<line x1="213.2" y1="360.0" x2="213.2" y2="400.0"/>
<line x1="213.2" y1="400.0" x2="187.6" y2="414.8"/>
<line x1="169.6" y1="414.8" x2="143.9" y2="400.0"/>
<line x1="143.9" y1="400.0" x2="143.9" y2="360.0"/>
<line x1="151.1" y1="394.0" x2="151.1" y2="366.0"/>
<line x1="143.9" y1="360.0" x2="169.6" y2="345.2"/>
<line x1="187.6" y1="345.2" x2="213.2" y2="360.0"/>
<line x1="109.3" y1="420.0" x2="143.9" y2="400.0"/>
<line x1="143.9" y1="360.0" x2="118.3" y2="345.2"/>
<line x1="100.3" y1="345.2" x2="74.6" y2="360.0"/>
<line x1="74.6" y1="360.0" x2="74.6" y2="389.6"/>
<line x1="83.6" y1="405.2" x2="109.3" y2="420.0"/>
<line x1="89.0" y1="400.0" x2="107.7" y2="410.8"/>
<text x="24.400000" y="348.320000" fill="rgb(12,12,255)"  stroke="rgb(12,12,255)" stroke-width="1" font-size="16" >HN</text>
<text x="276.487113" y="404.800000" fill="rgb(12,12,255)"  stroke="rgb(12,12,255)" stroke-width="1" font-size="16" >NH</text>
<text x="172.564065" y="348.320000" fill="rgb(12,12,255)"  stroke="rgb(12,12,255)" stroke-width="1" font-size="16" >NH</text>
<text x="172.564065" y="424.800000" fill="rgb(12,12,255)"  stroke="rgb(12,12,255)" stroke-width="1" font-size="16" >NH</text>
<text x="415.051178" y="124.800000" fill="rgb(12,12,255)"  stroke="rgb(12,12,255)" stroke-width="1" font-size="16" >N</text>
<text x="311.128129" y="224.800000" fill="rgb(12,12,255)"  stroke="rgb(12,12,255)" stroke-width="1" font-size="16" >NH</text>
<text x="103.282032" y="348.320000" fill="rgb(12,12,255)"  stroke="rgb(12,12,255)" stroke-width="1" font-size="16" >NH</text>
<text x="71.041016" y="404.800000" fill="rgb(12,12,255)"  stroke="rgb(12,12,255)" stroke-width="1" font-size="16" >N</text>
<text x="381.610162" y="53.600000" fill="rgb(255,12,12)"  stroke="rgb(255,12,12)" stroke-width="1" font-size="32" >-</text>
<text x="380.410162" y="68.320000" fill="rgb(255,12,12)"  stroke="rgb(255,12,12)" stroke-width="1" font-size="16" >O</text>
<text x="518.974226" y="224.800000" fill="rgb(255,12,12)"  stroke="rgb(255,12,12)" stroke-width="1" font-size="16" >O</text>
<text x="554.815242" y="153.600000" fill="rgb(255,12,12)"  stroke="rgb(255,12,12)" stroke-width="1" font-size="32" >-</text>
<text x="553.615242" y="168.320000" fill="rgb(255,12,12)"  stroke="rgb(255,12,12)" stroke-width="1" font-size="16" >O</text>
<text x="244.246097" y="228.320000" fill="rgb(255,12,12)"  stroke="rgb(255,12,12)" stroke-width="1" font-size="16" >O</text>
<text x="104.482032" y="479.200000" fill="rgb(255,12,12)"  stroke="rgb(255,12,12)" stroke-width="1" font-size="32" >-</text>
<text x="103.282032" y="464.800000" fill="rgb(255,12,12)"  stroke="rgb(255,12,12)" stroke-width="1" font-size="16" >O</text>
<text x="484.333210" y="48.320000" fill="rgb(255,12,12)"  stroke="rgb(255,12,12)" stroke-width="1" font-size="16" >O</text>
<text x="405.451178" y="48.320000" fill="rgb(255,12,12)"  stroke="rgb(255,12,12)" stroke-width="1" font-size="16" >HO</text>
<text x="276.487113" y="128.320000" fill="rgb(255,12,12)"  stroke="rgb(255,12,12)" stroke-width="1" font-size="16" >O</text>
<text x="232.246097" y="184.800000" fill="rgb(255,12,12)"  stroke="rgb(255,12,12)" stroke-width="1" font-size="16" >HO</text>
<text font-size="18.000000" fill ="black" font-family="sans-serif"
x="140.000000" y="20.000000" ></text>
<title> - OBDepict</title>
</svg>
