<?xml version="1.0"?>
<svg xmlns="http://www.w3.org/2000/svg"
xmlns:xlink="http://www.w3.org/1999/xlink" xmlns:cml="http://www.xml-cml.org/schema" width="597.314" height="363.573" x="0" y="0" font-family="sans-serif" stroke="rgb(0,0,0)" stroke-width="1" >
<line x1="137.9" y1="85.2" x2="177.1" y2="85.2"/>
<line x1="137.9" y1="85.2" x2="123.4" y2="110.3"/>
<line x1="453.7" y1="121.5" x2="416.5" y2="133.6"/>
<line x1="453.7" y1="121.5" x2="475.2" y2="140.9"/>
<line x1="216.0" y1="205.7" x2="244.6" y2="201.2"/>
<line x1="216.9" y1="211.7" x2="245.6" y2="207.1"/>
<line x1="216.5" y1="208.7" x2="198.2" y2="186.2"/>
<polygon points="182.303957 59.522889 173.163290 84.444230 181.003377 86.035783 " />
<polygon points="421.914175 107.920003 412.545635 132.756580 420.370816 134.419873 " />
<line x1="269.7" y1="270.9" x2="233.1" y2="284.9"/>
<line x1="214.1" y1="54.1" x2="214.9" y2="54.1"/>
<line x1="213.9" y1="58.0" x2="215.5" y2="58.0"/>
<line x1="213.7" y1="62.0" x2="216.1" y2="61.8"/>
<line x1="213.5" y1="65.9" x2="216.7" y2="65.7"/>
<line x1="213.3" y1="69.8" x2="217.3" y2="69.6"/>
<line x1="213.1" y1="73.8" x2="217.9" y2="73.5"/>
<line x1="212.9" y1="77.7" x2="218.5" y2="77.4"/>
<line x1="215.8" y1="79.1" x2="240.1" y2="63.3"/>
<line x1="449.5" y1="168.9" x2="449.6" y2="169.7"/>
<line x1="445.6" y1="168.9" x2="445.7" y2="170.5"/>
<line x1="441.6" y1="168.9" x2="441.9" y2="171.3"/>
<line x1="437.7" y1="168.9" x2="438.0" y2="172.1"/>
<line x1="433.7" y1="168.9" x2="434.2" y2="172.9"/>
<line x1="429.8" y1="168.9" x2="430.3" y2="173.7"/>
<line x1="425.9" y1="169.0" x2="426.5" y2="174.5"/>
<line x1="424.6" y1="171.9" x2="441.6" y2="195.3"/>
<line x1="256.8" y1="104.7" x2="257.1" y2="105.4"/>
<line x1="253.0" y1="105.7" x2="253.6" y2="107.2"/>
<line x1="249.2" y1="106.7" x2="250.1" y2="109.0"/>
<line x1="245.4" y1="107.7" x2="246.6" y2="110.7"/>
<line x1="241.6" y1="108.8" x2="243.0" y2="112.5"/>
<line x1="237.8" y1="109.8" x2="239.5" y2="114.3"/>
<line x1="234.0" y1="110.8" x2="236.0" y2="116.1"/>
<line x1="233.5" y1="114.0" x2="256.1" y2="132.3"/>
<line x1="401.2" y1="214.2" x2="400.5" y2="214.5"/>
<line x1="400.0" y1="210.5" x2="398.6" y2="211.1"/>
<line x1="398.8" y1="206.7" x2="396.6" y2="207.7"/>
<line x1="397.6" y1="203.0" x2="394.6" y2="204.3"/>
<line x1="396.3" y1="199.3" x2="392.7" y2="200.9"/>
<line x1="395.1" y1="195.5" x2="390.7" y2="197.5"/>
<line x1="393.9" y1="191.8" x2="388.8" y2="194.1"/>
<line x1="390.7" y1="191.5" x2="373.6" y2="214.9"/>
<line x1="233.1" y1="284.9" x2="210.6" y2="266.6"/>
<line x1="236.1" y1="285.4" x2="231.5" y2="314.0"/>
<line x1="230.1" y1="284.4" x2="225.6" y2="313.0"/>
<line x1="279.8" y1="233.0" x2="261.6" y2="210.5"/>
<polygon points="222.368488 162.099367 208.962656 139.188480 202.745488 144.223043 " />
<line x1="205.9" y1="141.7" x2="195.5" y2="168.8"/>
<polygon points="342.850765 146.889796 358.773197 168.128940 364.378002 162.420511 " />
<line x1="361.6" y1="165.3" x2="330.0" y2="213.9"/>
<line x1="79.2" y1="90.2" x2="79.2" y2="109.0"/>
<line x1="50.2" y1="119.2" x2="69.0" y2="119.2"/>
<line x1="76.2" y1="148.1" x2="76.2" y2="129.3"/>
<line x1="82.2" y1="148.1" x2="82.2" y2="129.3"/>
<line x1="529.0" y1="163.2" x2="523.2" y2="145.3"/>
<line x1="547.6" y1="126.6" x2="529.7" y2="132.4"/>
<line x1="514.0" y1="107.1" x2="519.8" y2="125.0"/>
<line x1="508.3" y1="109.0" x2="514.1" y2="126.8"/>
<line x1="108.2" y1="119.2" x2="89.4" y2="119.2"/>
<line x1="492.5" y1="144.5" x2="510.4" y2="138.7"/>
<line x1="269.7" y1="270.9" x2="279.8" y2="233.0"/>
<line x1="278.2" y1="266.9" x2="285.2" y2="240.7"/>
<line x1="279.8" y1="233.0" x2="308.7" y2="231.5"/>
<line x1="322.6" y1="240.5" x2="332.9" y2="267.5"/>
<line x1="332.9" y1="267.5" x2="310.4" y2="285.8"/>
<line x1="323.8" y1="265.7" x2="307.5" y2="278.9"/>
<line x1="294.0" y1="286.6" x2="269.7" y2="270.9"/>
<line x1="390.7" y1="191.5" x2="361.6" y2="165.3"/>
<line x1="361.6" y1="165.3" x2="373.4" y2="138.8"/>
<line x1="387.6" y1="130.6" x2="416.5" y2="133.6"/>
<line x1="416.5" y1="133.6" x2="424.6" y2="171.9"/>
<line x1="424.6" y1="171.9" x2="390.7" y2="191.5"/>
<line x1="177.1" y1="85.2" x2="215.8" y2="79.1"/>
<line x1="215.8" y1="79.1" x2="233.5" y2="114.0"/>
<line x1="233.5" y1="114.0" x2="205.9" y2="141.7"/>
<line x1="205.9" y1="141.7" x2="180.0" y2="128.5"/>
<line x1="172.5" y1="113.9" x2="177.1" y2="85.2"/>
<text x="179.058689" y="268.560203" fill="rgb(12,12,255)"  stroke="rgb(12,12,255)" stroke-width="1" font-size="16" >H</text>
<text x="191.058689" y="276.240203" fill="rgb(12,12,255)"  stroke="rgb(12,12,255)" stroke-width="1" font-size="13" >2</text>
<text x="197.558689" y="268.560203" fill="rgb(12,12,255)"  stroke="rgb(12,12,255)" stroke-width="1" font-size="16" >N</text>
<text x="249.150836" y="210.902195" fill="rgb(12,12,255)"  stroke="rgb(12,12,255)" stroke-width="1" font-size="16" >N</text>
<text x="176.217994" y="183.070995" fill="rgb(12,12,255)"  stroke="rgb(12,12,255)" stroke-width="1" font-size="16" >HN</text>
<text x="296.510070" y="296.984202" fill="rgb(12,12,255)"  stroke="rgb(12,12,255)" stroke-width="1" font-size="16" >N</text>
<text x="315.312208" y="235.770587" fill="rgb(12,12,255)"  stroke="rgb(12,12,255)" stroke-width="1" font-size="16" >N</text>
<text x="242.615724" y="66.101295" fill="rgb(255,12,12)"  stroke="rgb(255,12,12)" stroke-width="1" font-size="16" >OH</text>
<text x="441.623022" y="208.385507" fill="rgb(255,12,12)"  stroke="rgb(255,12,12)" stroke-width="1" font-size="16" >OH</text>
<text x="257.987305" y="143.459128" fill="rgb(255,12,12)"  stroke="rgb(255,12,12)" stroke-width="1" font-size="16" >OH</text>
<text x="352.060516" y="227.968840" fill="rgb(255,12,12)"  stroke="rgb(255,12,12)" stroke-width="1" font-size="16" >HO</text>
<text x="223.369889" y="328.373045" fill="rgb(255,12,12)"  stroke="rgb(255,12,12)" stroke-width="1" font-size="16" >O</text>
<text x="74.366667" y="73.592668" fill="rgb(255,12,12)"  stroke="rgb(255,12,12)" stroke-width="1" font-size="32" >-</text>
<text x="73.166667" y="88.312668" fill="rgb(255,12,12)"  stroke="rgb(255,12,12)" stroke-width="1" font-size="16" >O</text>
<text x="35.200000" y="138.359335" fill="rgb(255,12,12)"  stroke="rgb(255,12,12)" stroke-width="1" font-size="32" >-</text>
<text x="36.400000" y="123.959335" fill="rgb(255,12,12)"  stroke="rgb(255,12,12)" stroke-width="1" font-size="16" >O</text>
<text x="73.166667" y="163.126002" fill="rgb(255,12,12)"  stroke="rgb(255,12,12)" stroke-width="1" font-size="16" >O</text>
<text x="527.367324" y="192.039224" fill="rgb(255,12,12)"  stroke="rgb(255,12,12)" stroke-width="1" font-size="32" >-</text>
<text x="526.167324" y="177.639224" fill="rgb(255,12,12)"  stroke="rgb(255,12,12)" stroke-width="1" font-size="16" >O</text>
<text x="552.513872" y="117.086345" fill="rgb(255,12,12)"  stroke="rgb(255,12,12)" stroke-width="1" font-size="32" >-</text>
<text x="551.313872" y="131.806345" fill="rgb(255,12,12)"  stroke="rgb(255,12,12)" stroke-width="1" font-size="16" >O</text>
<text x="504.360993" y="106.659797" fill="rgb(255,12,12)"  stroke="rgb(255,12,12)" stroke-width="1" font-size="16" >O</text>
<text x="112.333333" y="123.959335" fill="rgb(255,12,12)"  stroke="rgb(255,12,12)" stroke-width="1" font-size="16" >O</text>
<text x="479.214445" y="152.492676" fill="rgb(255,12,12)"  stroke="rgb(255,12,12)" stroke-width="1" font-size="16" >O</text>
<text x="167.356317" y="128.724467" fill="rgb(255,12,12)"  stroke="rgb(255,12,12)" stroke-width="1" font-size="16" >O</text>
<text x="373.906118" y="137.814195" fill="rgb(255,12,12)"  stroke="rgb(255,12,12)" stroke-width="1" font-size="16" >O</text>
<text x="73.166667" y="123.959335" fill="rgb(255,127,0)"  stroke="rgb(255,127,0)" stroke-width="1" font-size="16" >P</text>
<text x="514.064158" y="140.389511" fill="rgb(255,127,0)"  stroke="rgb(255,127,0)" stroke-width="1" font-size="16" >P</text>
<text x="178.875310" y="55.176249" fill="rgb(191,191,191)"  stroke="rgb(191,191,191)" stroke-width="1" font-size="16" >H</text>
<text x="418.601433" y="103.597446" fill="rgb(191,191,191)"  stroke="rgb(191,191,191)" stroke-width="1" font-size="16" >H</text>
<text x="210.117968" y="48.320000" fill="rgb(191,191,191)"  stroke="rgb(191,191,191)" stroke-width="1" font-size="16" >H</text>
<text x="457.553541" y="176.124976" fill="rgb(191,191,191)"  stroke="rgb(191,191,191)" stroke-width="1" font-size="16" >H</text>
<text x="264.114321" y="108.294668" fill="rgb(191,191,191)"  stroke="rgb(191,191,191)" stroke-width="1" font-size="16" >H</text>
<text x="400.612624" y="232.062871" fill="rgb(191,191,191)"  stroke="rgb(191,191,191)" stroke-width="1" font-size="16" >H</text>
<text x="224.502454" y="176.943978" fill="rgb(191,191,191)"  stroke="rgb(191,191,191)" stroke-width="1" font-size="16" >H</text>
<text x="330.028086" y="146.154532" fill="rgb(191,191,191)"  stroke="rgb(191,191,191)" stroke-width="1" font-size="16" >H</text>
<text font-size="18.000000" fill ="black" font-family="sans-serif"
x="140.000000" y="20.000000" ></text>
<title> - OBDepict</title>
</svg>
