<?xml version="1.0"?>
<svg xmlns="http://www.w3.org/2000/svg"
xmlns:xlink="http://www.w3.org/1999/xlink" xmlns:cml="http://www.xml-cml.org/schema" width="475.96" height="440.489" x="0" y="0" font-family="sans-serif" stroke="rgb(0,0,0)" stroke-width="1" >
<polygon points="375.637 145.689 368.609 120.069 361.301 123.323 " />
<line x1="79.2" y1="141.8" x2="98.8" y2="175.8"/>
<line x1="79.2" y1="141.8" x2="98.8" y2="107.9"/>
<line x1="98.8" y1="175.8" x2="79.2" y2="209.7"/>
<line x1="171.9" y1="341.7" x2="205.9" y2="361.3"/>
<line x1="171.9" y1="341.7" x2="171.9" y2="312.7"/>
<line x1="138.0" y1="204.5" x2="138.0" y2="243.7"/>
<line x1="138.0" y1="204.5" x2="163.1" y2="190.0"/>
<line x1="307.7" y1="184.9" x2="282.6" y2="170.4"/>
<line x1="341.7" y1="204.5" x2="391.9" y2="233.5"/>
<line x1="375.6" y1="184.9" x2="363.8" y2="211.4"/>
<polygon points="121.545291 94.764392 96.800000 104.432290 100.800000 111.360493 " />
<line x1="98.8" y1="107.9" x2="79.2" y2="73.9"/>
<line x1="98.8" y1="107.9" x2="123.9" y2="122.4"/>
<polygon points="164.264000 243.689175 138.000000 239.689175 138.000000 247.689175 " />
<line x1="138.0" y1="243.7" x2="138.0" y2="282.9"/>
<line x1="138.0" y1="243.7" x2="109.0" y2="243.7"/>
<line x1="205.9" y1="204.5" x2="180.8" y2="190.0"/>
<line x1="410.1" y1="132.6" x2="419.0" y2="105.1"/>
<line x1="415.8" y1="134.5" x2="424.7" y2="106.9"/>
<line x1="81.8" y1="208.2" x2="96.3" y2="233.4"/>
<line x1="76.6" y1="211.2" x2="91.1" y2="236.4"/>
<line x1="79.2" y1="209.7" x2="50.2" y2="209.7"/>
<line x1="204.4" y1="358.7" x2="229.5" y2="344.2"/>
<line x1="207.4" y1="363.9" x2="232.5" y2="349.4"/>
<line x1="205.9" y1="361.3" x2="205.9" y2="390.3"/>
<line x1="239.8" y1="263.3" x2="239.8" y2="292.3"/>
<line x1="205.9" y1="243.7" x2="180.8" y2="258.2"/>
<line x1="139.5" y1="280.3" x2="164.6" y2="294.8"/>
<line x1="136.5" y1="285.5" x2="161.6" y2="300.0"/>
<line x1="138.0" y1="282.9" x2="112.9" y2="297.4"/>
<line x1="79.2" y1="76.9" x2="50.2" y2="76.9"/>
<line x1="79.2" y1="70.9" x2="50.2" y2="70.9"/>
<line x1="79.2" y1="73.9" x2="93.7" y2="48.8"/>
<line x1="375.6" y1="184.9" x2="412.9" y2="197.0"/>
<line x1="412.9" y1="197.0" x2="436.0" y2="165.3"/>
<line x1="436.0" y1="165.3" x2="412.9" y2="133.6"/>
<line x1="412.9" y1="133.6" x2="375.6" y2="145.7"/>
<line x1="375.6" y1="145.7" x2="375.6" y2="184.9"/>
<line x1="341.7" y1="243.7" x2="307.7" y2="263.3"/>
<line x1="307.7" y1="263.3" x2="273.8" y2="243.7"/>
<line x1="273.8" y1="243.7" x2="273.8" y2="204.5"/>
<line x1="273.8" y1="204.5" x2="307.7" y2="184.9"/>
<line x1="307.7" y1="184.9" x2="341.7" y2="204.5"/>
<line x1="341.7" y1="204.5" x2="341.7" y2="243.7"/>
<line x1="239.8" y1="263.3" x2="205.9" y2="243.7"/>
<line x1="205.9" y1="243.7" x2="205.9" y2="204.5"/>
<line x1="213.1" y1="237.7" x2="213.1" y2="210.5"/>
<line x1="205.9" y1="204.5" x2="239.8" y2="184.9"/>
<line x1="239.8" y1="184.9" x2="273.8" y2="204.5"/>
<line x1="241.4" y1="194.1" x2="265.0" y2="207.7"/>
<line x1="273.8" y1="243.7" x2="239.8" y2="263.3"/>
<line x1="265.0" y1="240.5" x2="241.4" y2="254.1"/>
<line x1="375.6" y1="184.9" x2="341.7" y2="204.5"/>
<line x1="307.7" y1="184.9" x2="307.7" y2="145.7"/>
<line x1="307.7" y1="145.7" x2="341.7" y2="126.1"/>
<line x1="341.7" y1="126.1" x2="375.6" y2="145.7"/>
<text x="336.093294" y="118.198193" fill="rgb(102,102,102)"  stroke="rgb(102,102,102)" stroke-width="1" font-size="16" >H</text>
<text x="348.093294" y="125.878193" fill="rgb(102,102,102)"  stroke="rgb(102,102,102)" stroke-width="1" font-size="13" >3</text>
<text x="354.593294" y="118.198193" fill="rgb(102,102,102)"  stroke="rgb(102,102,102)" stroke-width="1" font-size="16" >C</text>
<text x="126.748196" y="132.296392" fill="rgb(12,12,255)"  stroke="rgb(12,12,255)" stroke-width="1" font-size="16" >NH</text>
<text x="150.748196" y="137.096392" fill="rgb(12,12,255)"  stroke="rgb(12,12,255)" stroke-width="1" font-size="13" >2</text>
<text x="165.948196" y="310.809175" fill="rgb(12,12,255)"  stroke="rgb(12,12,255)" stroke-width="1" font-size="16" >N</text>
<text x="95.200000" y="248.489175" fill="rgb(12,12,255)"  stroke="rgb(12,12,255)" stroke-width="1" font-size="16" >N</text>
<text x="419.032252" y="104.614293" fill="rgb(255,12,12)"  stroke="rgb(255,12,12)" stroke-width="1" font-size="16" >O</text>
<text x="24.400000" y="214.540979" fill="rgb(255,12,12)"  stroke="rgb(255,12,12)" stroke-width="1" font-size="16" >HO</text>
<text x="233.844587" y="350.009175" fill="rgb(255,12,12)"  stroke="rgb(255,12,12)" stroke-width="1" font-size="16" >O</text>
<text x="199.896392" y="405.289175" fill="rgb(255,12,12)"  stroke="rgb(255,12,12)" stroke-width="1" font-size="16" >OH</text>
<text x="233.844587" y="307.289175" fill="rgb(255,12,12)"  stroke="rgb(255,12,12)" stroke-width="1" font-size="16" >OH</text>
<text x="156.348196" y="268.089175" fill="rgb(255,12,12)"  stroke="rgb(255,12,12)" stroke-width="1" font-size="16" >HO</text>
<text x="88.451804" y="307.289175" fill="rgb(255,12,12)"  stroke="rgb(255,12,12)" stroke-width="1" font-size="16" >HO</text>
<text x="36.400000" y="78.748196" fill="rgb(255,12,12)"  stroke="rgb(255,12,12)" stroke-width="1" font-size="16" >O</text>
<text x="92.800000" y="48.320000" fill="rgb(255,12,12)"  stroke="rgb(255,12,12)" stroke-width="1" font-size="16" >OH</text>
<text x="165.948196" y="193.209175" fill="rgb(178,178,0)"  stroke="rgb(178,178,0)" stroke-width="1" font-size="16" >S</text>
<text x="270.192783" y="173.609175" fill="rgb(191,191,191)"  stroke="rgb(191,191,191)" stroke-width="1" font-size="16" >H</text>
<text x="403.585567" y="248.489175" fill="rgb(191,191,191)"  stroke="rgb(191,191,191)" stroke-width="1" font-size="16" >H</text>
<text x="356.093294" y="225.500157" fill="rgb(191,191,191)"  stroke="rgb(191,191,191)" stroke-width="1" font-size="16" >H</text>
<text x="126.748196" y="96.616392" fill="rgb(191,191,191)"  stroke="rgb(191,191,191)" stroke-width="1" font-size="16" >H</text>
<text x="171.200000" y="248.489175" fill="rgb(191,191,191)"  stroke="rgb(191,191,191)" stroke-width="1" font-size="16" >H</text>
<text font-size="18.000000" fill ="black" font-family="sans-serif"
x="140.000000" y="20.000000" ></text>
<title> - OBDepict</title>
</svg>
