<?xml version="1.0"?>
<svg xmlns="http://www.w3.org/2000/svg"
xmlns:xlink="http://www.w3.org/1999/xlink" xmlns:cml="http://www.xml-cml.org/schema" width="350.522" height="246.546" x="0" y="0" font-family="sans-serif" stroke="rgb(0,0,0)" stroke-width="1" >
<line x1="166.1" y1="199.6" x2="188.1" y2="179.8"/>
<line x1="149.3" y1="120.0" x2="114.6" y2="140.0"/>
<line x1="149.3" y1="120.0" x2="183.9" y2="140.0"/>
<line x1="114.6" y1="140.0" x2="89.0" y2="125.2"/>
<line x1="247.2" y1="153.5" x2="287.0" y2="149.3"/>
<line x1="287.0" y1="149.3" x2="304.4" y2="173.2"/>
<line x1="284.3" y1="148.1" x2="296.3" y2="121.0"/>
<line x1="289.8" y1="150.5" x2="301.8" y2="123.5"/>
<line x1="109.6" y1="80.0" x2="90.4" y2="80.0"/>
<line x1="80.0" y1="50.4" x2="80.0" y2="69.6"/>
<line x1="50.4" y1="77.0" x2="69.6" y2="77.0"/>
<line x1="50.4" y1="83.0" x2="69.6" y2="83.0"/>
<line x1="80.0" y1="109.6" x2="80.0" y2="90.4"/>
<line x1="188.1" y1="179.8" x2="217.1" y2="185.9"/>
<line x1="232.4" y1="179.1" x2="247.2" y2="153.5"/>
<line x1="227.2" y1="173.8" x2="238.0" y2="155.1"/>
<line x1="247.2" y1="153.5" x2="227.4" y2="131.5"/>
<line x1="211.0" y1="128.0" x2="183.9" y2="140.0"/>
<line x1="183.9" y1="140.0" x2="188.1" y2="179.8"/>
<line x1="191.7" y1="145.2" x2="194.6" y2="173.1"/>
<text x="134.778394" y="211.346100" fill="rgb(102,102,102)"  stroke="rgb(102,102,102)" stroke-width="1" font-size="16" >H</text>
<text x="146.778394" y="216.146100" fill="rgb(102,102,102)"  stroke="rgb(102,102,102)" stroke-width="1" font-size="13" >3</text>
<text x="153.278394" y="211.346100" fill="rgb(102,102,102)"  stroke="rgb(102,102,102)" stroke-width="1" font-size="16" >C</text>
<text x="221.230091" y="192.897343" fill="rgb(12,12,255)"  stroke="rgb(12,12,255)" stroke-width="1" font-size="16" >N</text>
<text x="304.522377" y="186.435869" fill="rgb(255,12,12)"  stroke="rgb(255,12,12)" stroke-width="1" font-size="16" >OH</text>
<text x="297.280433" y="121.053370" fill="rgb(255,12,12)"  stroke="rgb(255,12,12)" stroke-width="1" font-size="16" >O</text>
<text x="114.000000" y="84.800000" fill="rgb(255,12,12)"  stroke="rgb(255,12,12)" stroke-width="1" font-size="16" >OH</text>
<text x="74.000000" y="48.320000" fill="rgb(255,12,12)"  stroke="rgb(255,12,12)" stroke-width="1" font-size="16" >OH</text>
<text x="36.400000" y="88.320000" fill="rgb(255,12,12)"  stroke="rgb(255,12,12)" stroke-width="1" font-size="16" >O</text>
<text x="76.400000" y="124.800000" fill="rgb(255,12,12)"  stroke="rgb(255,12,12)" stroke-width="1" font-size="16" >O</text>
<text x="74.000000" y="84.800000" fill="rgb(255,127,0)"  stroke="rgb(255,127,0)" stroke-width="1" font-size="16" >P</text>
<text x="214.464867" y="132.050534" fill="rgb(178,178,0)"  stroke="rgb(178,178,0)" stroke-width="1" font-size="16" >S</text>
<text font-size="18.000000" fill ="black" font-family="sans-serif"
x="140.000000" y="20.000000" ></text>
<title> - OBDepict</title>
</svg>
