<?xml version="1.0"?>
<svg xmlns="http://www.w3.org/2000/svg"
xmlns:xlink="http://www.w3.org/1999/xlink" xmlns:cml="http://www.xml-cml.org/schema" width="302.17" height="318.703" x="0" y="0" font-family="sans-serif" stroke="rgb(0,0,0)" stroke-width="1" >
<line x1="90.2" y1="221.0" x2="108.9" y2="212.4"/>
<line x1="50.2" y1="44.6" x2="68.9" y2="53.0"/>
<line x1="166.2" y1="168.4" x2="166.0" y2="169.2"/>
<line x1="163.6" y1="167.4" x2="163.2" y2="168.9"/>
<line x1="161.0" y1="166.3" x2="160.4" y2="168.6"/>
<line x1="158.4" y1="165.2" x2="157.6" y2="168.4"/>
<line x1="155.8" y1="164.2" x2="154.8" y2="168.1"/>
<line x1="153.1" y1="163.1" x2="152.0" y2="167.8"/>
<line x1="150.5" y1="162.1" x2="149.2" y2="167.5"/>
<line x1="141.2" y1="252.1" x2="140.5" y2="251.7"/>
<line x1="145.8" y1="244.9" x2="144.4" y2="244.1"/>
<line x1="150.5" y1="237.7" x2="148.4" y2="236.5"/>
<line x1="155.1" y1="230.4" x2="152.3" y2="228.8"/>
<line x1="159.7" y1="223.2" x2="156.2" y2="221.2"/>
<line x1="164.3" y1="216.0" x2="160.2" y2="213.6"/>
<line x1="168.9" y1="208.7" x2="164.1" y2="205.9"/>
<line x1="154.8" y1="249.1" x2="154.1" y2="249.5"/>
<line x1="152.9" y1="245.2" x2="151.6" y2="246.0"/>
<line x1="151.1" y1="241.3" x2="149.1" y2="242.5"/>
<line x1="149.3" y1="237.4" x2="146.5" y2="239.0"/>
<line x1="147.5" y1="233.5" x2="144.0" y2="235.5"/>
<line x1="145.7" y1="229.6" x2="141.5" y2="232.0"/>
<line x1="143.8" y1="225.7" x2="139.0" y2="228.5"/>
<line x1="231.0" y1="124.3" x2="231.7" y2="124.6"/>
<line x1="228.7" y1="128.0" x2="230.2" y2="128.7"/>
<line x1="226.5" y1="131.7" x2="228.7" y2="132.7"/>
<line x1="224.3" y1="135.3" x2="227.2" y2="136.7"/>
<line x1="222.1" y1="139.0" x2="225.7" y2="140.8"/>
<line x1="219.9" y1="142.7" x2="224.2" y2="144.8"/>
<line x1="217.6" y1="146.4" x2="222.7" y2="148.8"/>
<line x1="219.4" y1="149.2" x2="251.1" y2="146.8"/>
<line x1="83.5" y1="100.2" x2="80.2" y2="68.7"/>
<line x1="209.2" y1="112.4" x2="209.8" y2="113.0"/>
<line x1="205.9" y1="115.2" x2="207.1" y2="116.3"/>
<line x1="202.7" y1="118.0" x2="204.4" y2="119.7"/>
<line x1="199.4" y1="120.8" x2="201.7" y2="123.1"/>
<line x1="196.1" y1="123.6" x2="199.0" y2="126.4"/>
<line x1="192.8" y1="126.4" x2="196.3" y2="129.8"/>
<line x1="189.6" y1="129.2" x2="193.6" y2="133.1"/>
<line x1="122.6" y1="117.8" x2="126.9" y2="160.4"/>
<line x1="126.9" y1="160.4" x2="168.8" y2="169.5"/>
<line x1="168.8" y1="169.5" x2="190.4" y2="132.4"/>
<line x1="190.4" y1="132.4" x2="169.2" y2="108.8"/>
<line x1="151.6" y1="105.0" x2="122.6" y2="117.8"/>
<line x1="201.6" y1="206.9" x2="224.4" y2="182.3"/>
<line x1="200.4" y1="197.6" x2="215.0" y2="181.8"/>
<line x1="224.4" y1="182.3" x2="219.4" y2="149.2"/>
<line x1="219.4" y1="149.2" x2="190.4" y2="132.4"/>
<line x1="168.8" y1="169.5" x2="168.2" y2="204.3"/>
<line x1="168.2" y1="204.3" x2="201.6" y2="206.9"/>
<line x1="106.7" y1="217.2" x2="140.6" y2="225.6"/>
<line x1="140.6" y1="225.6" x2="168.2" y2="204.3"/>
<line x1="126.9" y1="160.4" x2="92.2" y2="185.5"/>
<line x1="126.3" y1="169.8" x2="101.2" y2="187.9"/>
<line x1="92.2" y1="185.5" x2="106.7" y2="217.2"/>
<line x1="124.6" y1="212.4" x2="140.6" y2="225.6"/>
<line x1="168.8" y1="169.5" x2="141.7" y2="162.8"/>
<line x1="141.7" y1="162.8" x2="119.5" y2="179.8"/>
<line x1="119.5" y1="179.8" x2="119.2" y2="200.5"/>
<line x1="53.0" y1="168.0" x2="48.7" y2="125.3"/>
<line x1="59.6" y1="161.3" x2="56.5" y2="130.6"/>
<line x1="48.7" y1="125.3" x2="83.5" y2="100.2"/>
<line x1="83.5" y1="100.2" x2="122.6" y2="117.8"/>
<line x1="86.0" y1="109.2" x2="114.2" y2="121.9"/>
<line x1="92.2" y1="185.5" x2="53.0" y2="168.0"/>
<text x="56.460773" y="230.467206" fill="rgb(102,102,102)"  stroke="rgb(102,102,102)" stroke-width="1" font-size="16" >H</text>
<text x="68.460773" y="235.267206" fill="rgb(102,102,102)"  stroke="rgb(102,102,102)" stroke-width="1" font-size="13" >3</text>
<text x="74.960773" y="230.467206" fill="rgb(102,102,102)"  stroke="rgb(102,102,102)" stroke-width="1" font-size="16" >C</text>
<text x="16.400000" y="48.320000" fill="rgb(102,102,102)"  stroke="rgb(102,102,102)" stroke-width="1" font-size="16" >H</text>
<text x="28.400000" y="56.000000" fill="rgb(102,102,102)"  stroke="rgb(102,102,102)" stroke-width="1" font-size="13" >3</text>
<text x="34.900000" y="48.320000" fill="rgb(102,102,102)"  stroke="rgb(102,102,102)" stroke-width="1" font-size="16" >C</text>
<text x="114.223577" y="201.364842" fill="rgb(12,12,255)"  stroke="rgb(12,12,255)" stroke-width="1" font-size="16" >+</text>
<text x="113.023577" y="216.084842" fill="rgb(12,12,255)"  stroke="rgb(12,12,255)" stroke-width="1" font-size="16" >NH</text>
<text x="256.169714" y="154.286603" fill="rgb(255,12,12)"  stroke="rgb(255,12,12)" stroke-width="1" font-size="16" >OH</text>
<text x="73.116897" y="65.883118" fill="rgb(255,12,12)"  stroke="rgb(255,12,12)" stroke-width="1" font-size="16" >O</text>
<text x="155.808391" y="108.786520" fill="rgb(255,12,12)"  stroke="rgb(255,12,12)" stroke-width="1" font-size="16" >O</text>
<text x="121.883042" y="283.502632" fill="rgb(191,191,191)"  stroke="rgb(191,191,191)" stroke-width="1" font-size="16" >H</text>
<text x="156.208649" y="267.406079" fill="rgb(191,191,191)"  stroke="rgb(191,191,191)" stroke-width="1" font-size="16" >H</text>
<text x="232.015204" y="118.858445" fill="rgb(191,191,191)"  stroke="rgb(191,191,191)" stroke-width="1" font-size="16" >H</text>
<text x="214.204427" y="109.914819" fill="rgb(191,191,191)"  stroke="rgb(191,191,191)" stroke-width="1" font-size="16" >H</text>
<text font-size="18.000000" fill ="black" font-family="sans-serif"
x="140.000000" y="20.000000" ></text>
<title> - OBDepict</title>
</svg>
