<?xml version="1.0"?>
<svg xmlns="http://www.w3.org/2000/svg"
xmlns:xlink="http://www.w3.org/1999/xlink" xmlns:cml="http://www.xml-cml.org/schema" width="409.07" height="363.49" x="0" y="0" font-family="sans-serif" stroke="rgb(0,0,0)" stroke-width="1" >
<line x1="94.6" y1="271.3" x2="114.6" y2="236.6"/>
<line x1="94.6" y1="271.3" x2="109.4" y2="296.9"/>
<line x1="332.1" y1="203.5" x2="332.1" y2="163.5"/>
<line x1="332.1" y1="283.5" x2="332.1" y2="313.1"/>
<line x1="198.3" y1="127.6" x2="169.7" y2="135.3"/>
<line x1="247.3" y1="78.6" x2="254.9" y2="50.0"/>
<line x1="311.3" y1="95.8" x2="318.9" y2="67.2"/>
<line x1="317.1" y1="97.3" x2="324.7" y2="68.8"/>
<line x1="355.6" y1="153.3" x2="355.9" y2="154.1"/>
<line x1="351.8" y1="154.5" x2="352.4" y2="156.0"/>
<line x1="347.9" y1="155.6" x2="348.8" y2="157.9"/>
<line x1="344.1" y1="156.8" x2="345.3" y2="159.8"/>
<line x1="340.2" y1="158.0" x2="341.7" y2="161.7"/>
<line x1="336.4" y1="159.1" x2="338.2" y2="163.6"/>
<line x1="332.5" y1="160.3" x2="334.7" y2="165.5"/>
<polygon points="128.041016 259.826104 118.105118 234.616623 111.176915 238.616623 " />
<line x1="67.5" y1="239.0" x2="66.9" y2="238.6"/>
<line x1="69.9" y1="235.7" x2="68.5" y2="234.9"/>
<line x1="72.2" y1="232.5" x2="70.2" y2="231.3"/>
<line x1="74.6" y1="229.2" x2="71.8" y2="227.6"/>
<line x1="76.9" y1="225.9" x2="73.5" y2="223.9"/>
<line x1="79.3" y1="222.7" x2="75.1" y2="220.3"/>
<line x1="81.6" y1="219.4" x2="76.8" y2="216.6"/>
<line x1="80.0" y1="216.6" x2="50.4" y2="216.6"/>
<polygon points="53.200000 176.616623 80.000000 180.616623 80.000000 172.616623 " />
<line x1="80.0" y1="176.6" x2="65.2" y2="151.0"/>
<line x1="101.5" y1="134.6" x2="102.2" y2="134.2"/>
<line x1="103.1" y1="138.3" x2="104.5" y2="137.5"/>
<line x1="104.8" y1="142.0" x2="106.9" y2="140.8"/>
<line x1="106.5" y1="145.6" x2="109.2" y2="144.0"/>
<line x1="108.1" y1="149.3" x2="111.6" y2="147.3"/>
<line x1="109.8" y1="153.0" x2="113.9" y2="150.6"/>
<line x1="111.4" y1="156.6" x2="116.3" y2="153.8"/>
<line x1="114.6" y1="156.6" x2="129.4" y2="131.0"/>
<polygon points="170.543902 192.931429 151.717078 173.443209 146.846987 179.790036 " />
<line x1="149.3" y1="176.6" x2="156.9" y2="148.0"/>
<line x1="297.5" y1="223.5" x2="332.1" y2="203.5"/>
<line x1="306.3" y1="226.7" x2="330.5" y2="212.7"/>
<line x1="332.1" y1="203.5" x2="366.8" y2="223.5"/>
<line x1="366.8" y1="223.5" x2="366.8" y2="263.5"/>
<line x1="359.6" y1="229.5" x2="359.6" y2="257.5"/>
<line x1="366.8" y1="263.5" x2="332.1" y2="283.5"/>
<line x1="332.1" y1="283.5" x2="297.5" y2="263.5"/>
<line x1="330.5" y1="274.3" x2="306.3" y2="260.3"/>
<line x1="297.5" y1="263.5" x2="297.5" y2="223.5"/>
<line x1="226.6" y1="155.9" x2="265.2" y2="145.6"/>
<line x1="230.5" y1="147.4" x2="257.5" y2="140.2"/>
<line x1="265.2" y1="145.6" x2="275.5" y2="106.9"/>
<line x1="275.5" y1="106.9" x2="247.3" y2="78.6"/>
<line x1="266.2" y1="107.8" x2="246.4" y2="88.0"/>
<line x1="247.3" y1="78.6" x2="208.6" y2="89.0"/>
<line x1="208.6" y1="89.0" x2="198.3" y2="127.6"/>
<line x1="214.0" y1="96.6" x2="206.8" y2="123.7"/>
<line x1="198.3" y1="127.6" x2="226.6" y2="155.9"/>
<line x1="332.1" y1="163.5" x2="342.5" y2="124.9"/>
<line x1="342.5" y1="124.9" x2="314.2" y2="96.6"/>
<line x1="314.2" y1="96.6" x2="275.5" y2="106.9"/>
<line x1="265.2" y1="145.6" x2="286.1" y2="166.5"/>
<line x1="303.5" y1="171.2" x2="332.1" y2="163.5"/>
<line x1="80.0" y1="176.6" x2="114.6" y2="156.6"/>
<line x1="114.6" y1="156.6" x2="149.3" y2="176.6"/>
<line x1="149.3" y1="176.6" x2="149.3" y2="206.2"/>
<line x1="140.3" y1="221.8" x2="114.6" y2="236.6"/>
<line x1="114.6" y1="236.6" x2="80.0" y2="216.6"/>
<line x1="80.0" y1="216.6" x2="80.0" y2="176.6"/>
<text x="108.641016" y="310.698655" fill="rgb(255,12,12)"  stroke="rgb(255,12,12)" stroke-width="1" font-size="16" >OH</text>
<text x="326.114436" y="328.289847" fill="rgb(255,12,12)"  stroke="rgb(255,12,12)" stroke-width="1" font-size="16" >OH</text>
<text x="251.614384" y="48.320000" fill="rgb(255,12,12)"  stroke="rgb(255,12,12)" stroke-width="1" font-size="16" >OH</text>
<text x="318.535688" y="66.251509" fill="rgb(255,12,12)"  stroke="rgb(255,12,12)" stroke-width="1" font-size="16" >O</text>
<text x="24.400000" y="221.416623" fill="rgb(255,12,12)"  stroke="rgb(255,12,12)" stroke-width="1" font-size="16" >HO</text>
<text x="44.400000" y="150.295607" fill="rgb(255,12,12)"  stroke="rgb(255,12,12)" stroke-width="1" font-size="16" >HO</text>
<text x="128.641016" y="130.295607" fill="rgb(255,12,12)"  stroke="rgb(255,12,12)" stroke-width="1" font-size="16" >OH</text>
<text x="156.034794" y="146.299590" fill="rgb(255,12,12)"  stroke="rgb(255,12,12)" stroke-width="1" font-size="16" >O</text>
<text x="289.877403" y="178.642609" fill="rgb(255,12,12)"  stroke="rgb(255,12,12)" stroke-width="1" font-size="16" >O</text>
<text x="143.282032" y="221.416623" fill="rgb(255,12,12)"  stroke="rgb(255,12,12)" stroke-width="1" font-size="16" >O</text>
<text x="363.069617" y="156.502509" fill="rgb(191,191,191)"  stroke="rgb(191,191,191)" stroke-width="1" font-size="16" >H</text>
<text x="128.641016" y="276.057639" fill="rgb(191,191,191)"  stroke="rgb(191,191,191)" stroke-width="1" font-size="16" >H</text>
<text x="56.400000" y="256.057639" fill="rgb(191,191,191)"  stroke="rgb(191,191,191)" stroke-width="1" font-size="16" >H</text>
<text x="36.400000" y="181.416623" fill="rgb(191,191,191)"  stroke="rgb(191,191,191)" stroke-width="1" font-size="16" >H</text>
<text x="91.041016" y="130.295607" fill="rgb(191,191,191)"  stroke="rgb(191,191,191)" stroke-width="1" font-size="16" >H</text>
<text x="175.016166" y="205.767080" fill="rgb(191,191,191)"  stroke="rgb(191,191,191)" stroke-width="1" font-size="16" >H</text>
<text font-size="18.000000" fill ="black" font-family="sans-serif"
x="140.000000" y="20.000000" ></text>
<title> - OBDepict</title>
</svg>
