<?xml version="1.0"?>
<svg xmlns="http://www.w3.org/2000/svg"
xmlns:xlink="http://www.w3.org/1999/xlink" xmlns:cml="http://www.xml-cml.org/schema" width="604.938" height="596.275" x="0" y="0" font-family="sans-serif" stroke="rgb(0,0,0)" stroke-width="1" >
<line x1="306.6" y1="361.7" x2="271.7" y2="361.3"/>
<polygon points="313.900783 393.952610 329.611378 421.676983 336.021409 416.890386 " />
<line x1="320.0" y1="220.3" x2="319.6" y2="221.0"/>
<line x1="316.2" y1="217.6" x2="315.3" y2="219.0"/>
<line x1="312.3" y1="214.8" x2="311.1" y2="216.9"/>
<line x1="308.4" y1="212.1" x2="306.8" y2="214.8"/>
<line x1="304.6" y1="209.3" x2="302.6" y2="212.8"/>
<line x1="300.7" y1="206.6" x2="298.3" y2="210.7"/>
<line x1="296.9" y1="203.8" x2="294.0" y2="208.6"/>
<line x1="245.6" y1="318.8" x2="245.2" y2="319.5"/>
<line x1="241.8" y1="316.0" x2="240.9" y2="317.4"/>
<line x1="237.9" y1="313.3" x2="236.7" y2="315.3"/>
<line x1="234.0" y1="310.5" x2="232.4" y2="313.3"/>
<line x1="230.2" y1="307.8" x2="228.2" y2="311.2"/>
<line x1="226.3" y1="305.0" x2="223.9" y2="309.1"/>
<line x1="222.5" y1="302.2" x2="219.6" y2="307.1"/>
<line x1="462.3" y1="388.9" x2="447.7" y2="433.7"/>
<line x1="462.3" y1="388.9" x2="430.7" y2="353.8"/>
<line x1="374.3" y1="182.9" x2="351.2" y2="141.7"/>
<line x1="374.3" y1="182.9" x2="350.1" y2="223.4"/>
<line x1="155.4" y1="294.0" x2="131.3" y2="334.6"/>
<line x1="155.4" y1="294.0" x2="249.8" y2="295.2"/>
<line x1="447.7" y1="433.7" x2="479.3" y2="468.8"/>
<line x1="351.2" y1="141.7" x2="375.3" y2="101.2"/>
<line x1="131.3" y1="334.6" x2="84.1" y2="333.9"/>
<line x1="323.5" y1="475.1" x2="295.3" y2="437.3"/>
<line x1="323.5" y1="475.1" x2="304.9" y2="518.5"/>
<line x1="295.3" y1="437.3" x2="313.9" y2="394.0"/>
<line x1="483.7" y1="288.5" x2="440.6" y2="307.6"/>
<line x1="483.7" y1="288.5" x2="521.8" y2="316.2"/>
<line x1="251.9" y1="411.8" x2="289.7" y2="383.6"/>
<line x1="251.9" y1="411.8" x2="257.5" y2="458.7"/>
<line x1="324.5" y1="175.9" x2="283.9" y2="151.8"/>
<line x1="324.5" y1="175.9" x2="323.9" y2="223.1"/>
<line x1="271.7" y1="361.3" x2="288.8" y2="391.7"/>
<polygon points="234.348257 267.656051 246.305689 297.193883 253.285657 293.284913 " />
<line x1="478.7" y1="465.9" x2="512.8" y2="458.6"/>
<line x1="479.9" y1="471.7" x2="514.1" y2="464.5"/>
<line x1="479.3" y1="468.8" x2="468.5" y2="502.0"/>
<line x1="375.4" y1="98.2" x2="410.3" y2="98.6"/>
<line x1="375.3" y1="104.2" x2="410.2" y2="104.6"/>
<line x1="375.3" y1="101.2" x2="358.3" y2="70.7"/>
<line x1="86.7" y1="335.5" x2="68.9" y2="365.5"/>
<line x1="81.5" y1="332.4" x2="63.7" y2="362.4"/>
<line x1="84.1" y1="333.9" x2="67.1" y2="303.5"/>
<line x1="305.2" y1="521.4" x2="270.6" y2="525.6"/>
<line x1="304.5" y1="515.5" x2="269.9" y2="519.6"/>
<line x1="304.9" y1="518.5" x2="325.8" y2="546.4"/>
<line x1="520.6" y1="313.4" x2="552.5" y2="299.2"/>
<line x1="523.1" y1="318.9" x2="555.0" y2="304.7"/>
<line x1="521.8" y1="316.2" x2="518.2" y2="350.9"/>
<line x1="258.7" y1="455.9" x2="290.7" y2="469.7"/>
<line x1="256.3" y1="461.4" x2="288.4" y2="475.2"/>
<line x1="257.5" y1="458.7" x2="229.5" y2="479.6"/>
<line x1="285.4" y1="154.4" x2="254.9" y2="171.5"/>
<line x1="282.5" y1="149.2" x2="252.0" y2="166.2"/>
<line x1="283.9" y1="151.8" x2="284.4" y2="116.9"/>
<line x1="227.6" y1="363.3" x2="197.2" y2="380.4"/>
<line x1="224.7" y1="358.1" x2="194.2" y2="375.1"/>
<polygon points="272.049260 334.976035 283.296225 359.639157 290.005590 355.282044 " />
<line x1="272.7" y1="282.4" x2="249.8" y2="295.2"/>
<line x1="249.8" y1="295.2" x2="249.5" y2="321.5"/>
<line x1="249.5" y1="321.5" x2="272.0" y2="335.0"/>
<line x1="272.0" y1="335.0" x2="268.4" y2="315.5"/>
<line x1="268.6" y1="301.8" x2="272.7" y2="282.4"/>
<line x1="430.7" y1="353.8" x2="440.6" y2="307.6"/>
<line x1="440.6" y1="307.6" x2="399.7" y2="284.1"/>
<line x1="431.8" y1="310.9" x2="401.3" y2="293.3"/>
<line x1="399.7" y1="284.1" x2="373.7" y2="307.4"/>
<line x1="369.6" y1="326.8" x2="383.8" y2="358.7"/>
<line x1="383.8" y1="358.7" x2="430.7" y2="353.8"/>
<line x1="389.0" y1="350.9" x2="424.0" y2="347.3"/>
<line x1="310.4" y1="245.7" x2="323.9" y2="223.1"/>
<line x1="323.9" y1="223.1" x2="350.1" y2="223.4"/>
<line x1="350.1" y1="223.4" x2="363.0" y2="246.4"/>
<line x1="346.8" y1="232.2" x2="353.8" y2="244.7"/>
<line x1="363.0" y1="246.4" x2="343.6" y2="242.3"/>
<line x1="329.9" y1="242.1" x2="310.4" y2="245.7"/>
<line x1="325.3" y1="235.6" x2="315.0" y2="237.5"/>
<line x1="289.7" y1="383.6" x2="286.7" y2="357.5"/>
<line x1="296.2" y1="376.8" x2="294.5" y2="362.6"/>
<line x1="286.7" y1="357.5" x2="303.0" y2="368.7"/>
<line x1="315.6" y1="374.1" x2="335.0" y2="378.2"/>
<line x1="317.3" y1="381.8" x2="327.6" y2="384.0"/>
<line x1="335.0" y1="378.2" x2="313.9" y2="394.0"/>
<line x1="313.9" y1="394.0" x2="289.7" y2="383.6"/>
<line x1="271.7" y1="361.3" x2="272.0" y2="335.0"/>
<line x1="249.5" y1="321.5" x2="226.5" y2="334.4"/>
<line x1="226.5" y1="334.4" x2="226.2" y2="360.7"/>
<line x1="226.2" y1="360.7" x2="242.9" y2="370.6"/>
<line x1="254.7" y1="370.8" x2="271.7" y2="361.3"/>
<line x1="361.3" y1="373.3" x2="335.0" y2="378.2"/>
<line x1="286.7" y1="357.5" x2="272.0" y2="335.0"/>
<line x1="272.7" y1="282.4" x2="287.9" y2="260.3"/>
<line x1="282.1" y1="281.5" x2="290.5" y2="269.3"/>
<line x1="287.9" y1="260.3" x2="310.4" y2="245.7"/>
<line x1="363.0" y1="246.4" x2="385.1" y2="261.6"/>
<line x1="385.1" y1="261.6" x2="399.7" y2="284.1"/>
<line x1="383.8" y1="358.7" x2="361.3" y2="373.3"/>
<text x="312.886546" y="366.686050" fill="rgb(102,102,102)"  stroke="rgb(102,102,102)" stroke-width="1" font-size="16" >CH</text>
<text x="336.886546" y="371.486050" fill="rgb(102,102,102)"  stroke="rgb(102,102,102)" stroke-width="1" font-size="13" >3</text>
<text x="336.133037" y="436.560184" fill="rgb(102,102,102)"  stroke="rgb(102,102,102)" stroke-width="1" font-size="16" >CH</text>
<text x="360.133037" y="441.360184" fill="rgb(102,102,102)"  stroke="rgb(102,102,102)" stroke-width="1" font-size="13" >3</text>
<text x="259.700146" y="207.291602" fill="rgb(102,102,102)"  stroke="rgb(102,102,102)" stroke-width="1" font-size="16" >H</text>
<text x="271.700146" y="214.971602" fill="rgb(102,102,102)"  stroke="rgb(102,102,102)" stroke-width="1" font-size="13" >3</text>
<text x="278.200146" y="207.291602" fill="rgb(102,102,102)"  stroke="rgb(102,102,102)" stroke-width="1" font-size="16" >C</text>
<text x="185.299953" y="305.726146" fill="rgb(102,102,102)"  stroke="rgb(102,102,102)" stroke-width="1" font-size="16" >H</text>
<text x="197.299953" y="313.406146" fill="rgb(102,102,102)"  stroke="rgb(102,102,102)" stroke-width="1" font-size="13" >3</text>
<text x="203.799953" y="305.726146" fill="rgb(102,102,102)"  stroke="rgb(102,102,102)" stroke-width="1" font-size="16" >C</text>
<text x="359.822780" y="309.226433" fill="rgb(12,12,255)"  stroke="rgb(12,12,255)" stroke-width="1" font-size="32" >-</text>
<text x="361.022780" y="323.946433" fill="rgb(12,12,255)"  stroke="rgb(12,12,255)" stroke-width="1" font-size="16" >N</text>
<text x="330.768257" y="249.129309" fill="rgb(12,12,255)"  stroke="rgb(12,12,255)" stroke-width="1" font-size="16" >N</text>
<text x="305.145541" y="377.445822" fill="rgb(12,12,255)"  stroke="rgb(12,12,255)" stroke-width="1" font-size="16" >N</text>
<text x="262.363567" y="302.215197" fill="rgb(12,12,255)"  stroke="rgb(12,12,255)" stroke-width="1" font-size="32" >-</text>
<text x="263.563567" y="316.935197" fill="rgb(12,12,255)"  stroke="rgb(12,12,255)" stroke-width="1" font-size="16" >N</text>
<text x="519.461704" y="467.317331" fill="rgb(255,12,12)"  stroke="rgb(255,12,12)" stroke-width="1" font-size="16" >O</text>
<text x="459.926179" y="532.883843" fill="rgb(255,12,12)"  stroke="rgb(255,12,12)" stroke-width="1" font-size="32" >-</text>
<text x="461.126179" y="518.483843" fill="rgb(255,12,12)"  stroke="rgb(255,12,12)" stroke-width="1" font-size="16" >O</text>
<text x="416.520939" y="106.586813" fill="rgb(255,12,12)"  stroke="rgb(255,12,12)" stroke-width="1" font-size="16" >O</text>
<text x="347.483621" y="53.600000" fill="rgb(255,12,12)"  stroke="rgb(255,12,12)" stroke-width="1" font-size="32" >-</text>
<text x="348.683621" y="68.320000" fill="rgb(255,12,12)"  stroke="rgb(255,12,12)" stroke-width="1" font-size="16" >O</text>
<text x="56.400000" y="379.289548" fill="rgb(255,12,12)"  stroke="rgb(255,12,12)" stroke-width="1" font-size="16" >O</text>
<text x="56.269783" y="286.368840" fill="rgb(255,12,12)"  stroke="rgb(255,12,12)" stroke-width="1" font-size="32" >-</text>
<text x="57.469783" y="301.088840" fill="rgb(255,12,12)"  stroke="rgb(255,12,12)" stroke-width="1" font-size="16" >O</text>
<text x="254.422206" y="528.813520" fill="rgb(255,12,12)"  stroke="rgb(255,12,12)" stroke-width="1" font-size="16" >O</text>
<text x="328.312908" y="575.475031" fill="rgb(255,12,12)"  stroke="rgb(255,12,12)" stroke-width="1" font-size="32" >-</text>
<text x="327.112908" y="561.075031" fill="rgb(255,12,12)"  stroke="rgb(255,12,12)" stroke-width="1" font-size="16" >O</text>
<text x="558.938416" y="305.316712" fill="rgb(255,12,12)"  stroke="rgb(255,12,12)" stroke-width="1" font-size="16" >O</text>
<text x="512.100074" y="382.315818" fill="rgb(255,12,12)"  stroke="rgb(255,12,12)" stroke-width="1" font-size="32" >-</text>
<text x="513.300074" y="367.915818" fill="rgb(255,12,12)"  stroke="rgb(255,12,12)" stroke-width="1" font-size="16" >O</text>
<text x="294.833635" y="482.089860" fill="rgb(255,12,12)"  stroke="rgb(255,12,12)" stroke-width="1" font-size="16" >O</text>
<text x="214.872424" y="506.095923" fill="rgb(255,12,12)"  stroke="rgb(255,12,12)" stroke-width="1" font-size="32" >-</text>
<text x="216.072424" y="491.695923" fill="rgb(255,12,12)"  stroke="rgb(255,12,12)" stroke-width="1" font-size="16" >O</text>
<text x="239.148612" y="179.645974" fill="rgb(255,12,12)"  stroke="rgb(255,12,12)" stroke-width="1" font-size="16" >O</text>
<text x="279.735425" y="98.208657" fill="rgb(255,12,12)"  stroke="rgb(255,12,12)" stroke-width="1" font-size="32" >-</text>
<text x="278.535425" y="112.928657" fill="rgb(255,12,12)"  stroke="rgb(255,12,12)" stroke-width="1" font-size="16" >O</text>
<text x="181.396169" y="388.528108" fill="rgb(255,12,12)"  stroke="rgb(255,12,12)" stroke-width="1" font-size="16" >O</text>
<text x="245.163115" y="378.916525" fill="rgb(255,12,12)"  stroke="rgb(255,12,12)" stroke-width="1" font-size="16" >O</text>
<text x="35.200000" y="59.200000" fill="rgb(239,142,160)"  stroke="rgb(239,142,160)" stroke-width="1" font-size="16" >6+</text>
<text x="34.000000" y="44.800000" fill="rgb(239,142,160)"  stroke="rgb(239,142,160)" stroke-width="1" font-size="16" >Co</text>
<text x="288.760919" y="407.237584" fill="rgb(191,191,191)"  stroke="rgb(191,191,191)" stroke-width="1" font-size="16" >H</text>
<text x="223.139828" y="262.390224" fill="rgb(191,191,191)"  stroke="rgb(191,191,191)" stroke-width="1" font-size="16" >H</text>
<text font-size="18.000000" fill ="black" font-family="sans-serif"
x="140.000000" y="20.000000" ></text>
<title> - OBDepict</title>
</svg>
