<?xml version="1.0"?>
<svg xmlns="http://www.w3.org/2000/svg"
xmlns:xlink="http://www.w3.org/1999/xlink" xmlns:cml="http://www.xml-cml.org/schema" width="574.768" height="358.136" x="0" y="0" font-family="sans-serif" stroke="rgb(0,0,0)" stroke-width="1" >
<line x1="213.1" y1="164.8" x2="226.9" y2="188.8"/>
<polygon points="431.325702 114.104316 435.706427 139.940040 443.297265 137.414336 " />
<polygon points="334.073958 170.157347 330.045854 221.949971 338.045853 221.954311 " />
<line x1="208.2" y1="221.1" x2="170.8" y2="221.1"/>
<line x1="208.2" y1="221.1" x2="226.9" y2="188.8"/>
<line x1="170.8" y1="221.1" x2="152.1" y2="253.5"/>
<line x1="96.1" y1="285.8" x2="58.7" y2="285.8"/>
<line x1="96.1" y1="285.8" x2="109.9" y2="261.9"/>
<line x1="247.8" y1="200.4" x2="247.4" y2="201.1"/>
<line x1="244.8" y1="198.2" x2="244.0" y2="199.6"/>
<line x1="241.8" y1="196.0" x2="240.6" y2="198.1"/>
<line x1="238.7" y1="193.8" x2="237.1" y2="196.5"/>
<line x1="235.7" y1="191.5" x2="233.7" y2="195.0"/>
<line x1="232.6" y1="189.3" x2="230.2" y2="193.5"/>
<line x1="229.6" y1="187.1" x2="226.8" y2="192.0"/>
<line x1="226.9" y1="188.8" x2="301.7" y2="188.8"/>
<polygon points="439.548825 52.098679 427.551972 75.395694 435.140064 77.929633 " />
<polygon points="522.012254 76.677287 496.111692 72.697809 496.118031 80.697807 " />
<line x1="496.1" y1="76.7" x2="510.4" y2="51.9"/>
<line x1="302.0" y1="213.6" x2="301.2" y2="213.6"/>
<line x1="302.4" y1="209.7" x2="300.8" y2="209.7"/>
<line x1="302.8" y1="205.8" x2="300.4" y2="205.8"/>
<line x1="303.2" y1="202.0" x2="300.0" y2="202.0"/>
<line x1="303.6" y1="198.1" x2="299.6" y2="198.1"/>
<line x1="304.0" y1="194.2" x2="299.2" y2="194.2"/>
<line x1="304.5" y1="190.4" x2="298.9" y2="190.4"/>
<line x1="355.3" y1="120.0" x2="355.7" y2="120.7"/>
<line x1="351.8" y1="121.6" x2="352.6" y2="123.0"/>
<line x1="348.2" y1="123.2" x2="349.4" y2="125.3"/>
<line x1="344.7" y1="124.8" x2="346.3" y2="127.5"/>
<line x1="341.1" y1="126.4" x2="343.1" y2="129.8"/>
<line x1="337.6" y1="128.0" x2="340.0" y2="132.1"/>
<line x1="334.0" y1="129.5" x2="336.8" y2="134.4"/>
<line x1="398.5" y1="108.8" x2="399.3" y2="108.8"/>
<line x1="398.1" y1="112.6" x2="399.7" y2="112.6"/>
<line x1="397.7" y1="116.3" x2="400.1" y2="116.3"/>
<line x1="397.3" y1="120.1" x2="400.5" y2="120.1"/>
<line x1="396.9" y1="123.8" x2="400.9" y2="123.8"/>
<line x1="396.5" y1="127.5" x2="401.3" y2="127.5"/>
<line x1="396.1" y1="131.3" x2="401.7" y2="131.3"/>
<polygon points="353.618437 54.179333 363.064573 78.622039 369.999064 74.632950 " />
<line x1="366.5" y1="76.6" x2="337.9" y2="76.6"/>
<polygon points="353.510050 211.282518 369.933934 190.863620 363.007903 186.859861 " />
<line x1="366.5" y1="188.9" x2="380.8" y2="213.6"/>
<line x1="152.1" y1="256.5" x2="124.5" y2="256.5"/>
<line x1="152.1" y1="250.5" x2="124.5" y2="250.5"/>
<line x1="152.1" y1="253.5" x2="166.0" y2="277.4"/>
<line x1="56.1" y1="287.3" x2="42.3" y2="263.3"/>
<line x1="61.3" y1="284.3" x2="47.5" y2="260.3"/>
<line x1="58.7" y1="285.8" x2="44.9" y2="309.7"/>
<polygon points="366.497906 139.124666 370.511501 114.071318 362.511502 114.066977 " />
<line x1="269.3" y1="170.1" x2="269.3" y2="132.7"/>
<line x1="269.3" y1="132.7" x2="334.1" y2="132.7"/>
<line x1="334.1" y1="132.7" x2="334.1" y2="170.2"/>
<line x1="334.1" y1="170.2" x2="301.7" y2="188.8"/>
<line x1="301.7" y1="188.8" x2="269.3" y2="170.1"/>
<line x1="398.9" y1="58.0" x2="431.3" y2="76.7"/>
<line x1="431.3" y1="76.7" x2="431.3" y2="114.1"/>
<line x1="431.3" y1="114.1" x2="398.9" y2="132.8"/>
<line x1="398.9" y1="132.8" x2="366.5" y2="114.1"/>
<line x1="366.5" y1="114.1" x2="366.5" y2="76.6"/>
<line x1="366.5" y1="76.6" x2="398.9" y2="58.0"/>
<line x1="398.9" y1="170.2" x2="366.5" y2="188.9"/>
<line x1="366.5" y1="188.9" x2="334.1" y2="170.2"/>
<line x1="334.1" y1="132.7" x2="366.5" y2="114.1"/>
<line x1="398.9" y1="132.8" x2="398.9" y2="170.2"/>
<line x1="496.1" y1="114.1" x2="463.7" y2="132.8"/>
<line x1="463.7" y1="132.8" x2="431.3" y2="114.1"/>
<line x1="431.3" y1="76.7" x2="463.7" y2="58.0"/>
<line x1="463.7" y1="58.0" x2="496.1" y2="76.7"/>
<line x1="496.1" y1="76.7" x2="496.1" y2="114.1"/>
<text x="184.650538" y="164.732945" fill="rgb(102,102,102)"  stroke="rgb(102,102,102)" stroke-width="1" font-size="16" >H</text>
<text x="196.650538" y="172.412945" fill="rgb(102,102,102)"  stroke="rgb(102,102,102)" stroke-width="1" font-size="13" >3</text>
<text x="203.150538" y="164.732945" fill="rgb(102,102,102)"  stroke="rgb(102,102,102)" stroke-width="1" font-size="16" >C</text>
<text x="437.528903" y="155.580245" fill="rgb(102,102,102)"  stroke="rgb(102,102,102)" stroke-width="1" font-size="16" >CH</text>
<text x="461.528903" y="160.380245" fill="rgb(102,102,102)"  stroke="rgb(102,102,102)" stroke-width="1" font-size="13" >3</text>
<text x="328.032011" y="252.263010" fill="rgb(102,102,102)"  stroke="rgb(102,102,102)" stroke-width="1" font-size="16" >CH</text>
<text x="352.032011" y="257.063010" fill="rgb(102,102,102)"  stroke="rgb(102,102,102)" stroke-width="1" font-size="13" >3</text>
<text x="111.174114" y="261.771052" fill="rgb(12,12,255)"  stroke="rgb(12,12,255)" stroke-width="1" font-size="16" >N</text>
<text x="509.414749" y="51.528165" fill="rgb(255,12,12)"  stroke="rgb(255,12,12)" stroke-width="1" font-size="16" >OH</text>
<text x="312.279029" y="84.886652" fill="rgb(255,12,12)"  stroke="rgb(255,12,12)" stroke-width="1" font-size="16" >HO</text>
<text x="379.779171" y="227.146561" fill="rgb(255,12,12)"  stroke="rgb(255,12,12)" stroke-width="1" font-size="16" >OH</text>
<text x="164.810799" y="290.644401" fill="rgb(255,12,12)"  stroke="rgb(255,12,12)" stroke-width="1" font-size="16" >OH</text>
<text x="36.435121" y="261.730498" fill="rgb(255,12,12)"  stroke="rgb(255,12,12)" stroke-width="1" font-size="16" >O</text>
<text x="24.400000" y="322.936365" fill="rgb(255,12,12)"  stroke="rgb(255,12,12)" stroke-width="1" font-size="16" >HO</text>
<text x="253.270520" y="212.288326" fill="rgb(191,191,191)"  stroke="rgb(191,191,191)" stroke-width="1" font-size="16" >H</text>
<text x="437.589014" y="48.320000" fill="rgb(191,191,191)"  stroke="rgb(191,191,191)" stroke-width="1" font-size="16" >H</text>
<text x="528.767686" y="84.987180" fill="rgb(191,191,191)"  stroke="rgb(191,191,191)" stroke-width="1" font-size="16" >H</text>
<text x="295.588836" y="232.279349" fill="rgb(191,191,191)"  stroke="rgb(191,191,191)" stroke-width="1" font-size="16" >H</text>
<text x="361.557551" y="121.712825" fill="rgb(191,191,191)"  stroke="rgb(191,191,191)" stroke-width="1" font-size="16" >H</text>
<text x="392.928766" y="103.674566" fill="rgb(191,191,191)"  stroke="rgb(191,191,191)" stroke-width="1" font-size="16" >H</text>
<text x="343.658115" y="51.442775" fill="rgb(191,191,191)"  stroke="rgb(191,191,191)" stroke-width="1" font-size="16" >H</text>
<text x="343.526339" y="227.125588" fill="rgb(191,191,191)"  stroke="rgb(191,191,191)" stroke-width="1" font-size="16" >H</text>
<text x="360.491210" y="156.265444" fill="rgb(191,191,191)"  stroke="rgb(191,191,191)" stroke-width="1" font-size="16" >H</text>
<text font-size="18.000000" fill ="black" font-family="sans-serif"
x="140.000000" y="20.000000" ></text>
<title> - OBDepict</title>
</svg>
