<?xml version="1.0"?>
<svg xmlns="http://www.w3.org/2000/svg"
xmlns:xlink="http://www.w3.org/1999/xlink" xmlns:cml="http://www.xml-cml.org/schema" width="558.564" height="353.205" x="0" y="0" font-family="sans-serif" stroke="rgb(0,0,0)" stroke-width="1" >
<line x1="383.9" y1="74.6" x2="343.9" y2="74.6"/>
<line x1="383.9" y1="74.6" x2="398.7" y2="100.3"/>
<line x1="323.9" y1="109.3" x2="343.9" y2="74.6"/>
<line x1="323.9" y1="109.3" x2="294.3" y2="109.3"/>
<line x1="438.6" y1="209.3" x2="478.6" y2="209.3"/>
<line x1="438.6" y1="209.3" x2="423.8" y2="234.9"/>
<line x1="140.0" y1="158.6" x2="160.0" y2="123.9"/>
<line x1="140.0" y1="158.6" x2="110.4" y2="158.6"/>
<line x1="478.6" y1="169.3" x2="478.6" y2="209.3"/>
<line x1="478.6" y1="169.3" x2="452.9" y2="154.5"/>
<line x1="194.6" y1="143.9" x2="160.0" y2="123.9"/>
<line x1="194.6" y1="143.9" x2="220.3" y2="129.1"/>
<line x1="441.2" y1="280.1" x2="426.4" y2="305.7"/>
<line x1="436.0" y1="277.1" x2="421.2" y2="302.7"/>
<line x1="438.6" y1="278.6" x2="423.8" y2="252.9"/>
<line x1="80.0" y1="196.2" x2="50.4" y2="196.2"/>
<line x1="80.0" y1="190.2" x2="50.4" y2="190.2"/>
<line x1="80.0" y1="193.2" x2="94.8" y2="167.6"/>
<line x1="516.2" y1="269.3" x2="516.2" y2="298.9"/>
<line x1="510.2" y1="269.3" x2="510.2" y2="298.9"/>
<line x1="513.2" y1="269.3" x2="487.6" y2="254.5"/>
<line x1="89.2" y1="126.5" x2="63.6" y2="111.7"/>
<line x1="92.2" y1="121.3" x2="66.6" y2="106.5"/>
<line x1="90.7" y1="123.9" x2="116.4" y2="109.1"/>
<line x1="343.9" y1="74.6" x2="329.1" y2="49.0"/>
<polygon points="505.364065 209.282032 478.564065 205.282032 478.564065 213.282032 " />
<line x1="478.6" y1="209.3" x2="478.6" y2="238.9"/>
<line x1="172.5" y1="101.6" x2="173.1" y2="102.0"/>
<line x1="170.1" y1="104.8" x2="171.5" y2="105.6"/>
<line x1="167.8" y1="108.1" x2="169.8" y2="109.3"/>
<line x1="165.4" y1="111.3" x2="168.2" y2="112.9"/>
<line x1="163.1" y1="114.6" x2="166.5" y2="116.6"/>
<line x1="160.7" y1="117.9" x2="164.9" y2="120.3"/>
<line x1="158.4" y1="121.1" x2="163.2" y2="123.9"/>
<line x1="160.0" y1="123.9" x2="134.4" y2="109.1"/>
<line x1="443.9" y1="79.7" x2="443.9" y2="98.9"/>
<line x1="473.5" y1="112.3" x2="454.3" y2="112.3"/>
<line x1="473.5" y1="106.3" x2="454.3" y2="106.3"/>
<line x1="289.6" y1="158.7" x2="272.9" y2="149.1"/>
<line x1="246.5" y1="168.1" x2="256.1" y2="151.4"/>
<line x1="251.7" y1="171.1" x2="261.3" y2="154.4"/>
<line x1="414.3" y1="109.3" x2="433.5" y2="109.3"/>
<line x1="278.7" y1="118.3" x2="269.1" y2="134.9"/>
<line x1="443.9" y1="138.9" x2="443.9" y2="119.7"/>
<line x1="238.3" y1="129.1" x2="254.9" y2="138.7"/>
<text x="414.964065" y="318.005081" fill="rgb(255,12,12)"  stroke="rgb(255,12,12)" stroke-width="1" font-size="16" >O</text>
<text x="36.400000" y="198.005081" fill="rgb(255,12,12)"  stroke="rgb(255,12,12)" stroke-width="1" font-size="16" >O</text>
<text x="507.205081" y="314.082032" fill="rgb(255,12,12)"  stroke="rgb(255,12,12)" stroke-width="1" font-size="16" >O</text>
<text x="52.476952" y="112.243048" fill="rgb(255,12,12)"  stroke="rgb(255,12,12)" stroke-width="1" font-size="16" >O</text>
<text x="308.323048" y="48.320000" fill="rgb(255,12,12)"  stroke="rgb(255,12,12)" stroke-width="1" font-size="16" >HO</text>
<text x="439.123048" y="62.882032" fill="rgb(255,12,12)"  stroke="rgb(255,12,12)" stroke-width="1" font-size="32" >-</text>
<text x="437.923048" y="77.602032" fill="rgb(255,12,12)"  stroke="rgb(255,12,12)" stroke-width="1" font-size="16" >O</text>
<text x="477.923048" y="114.082032" fill="rgb(255,12,12)"  stroke="rgb(255,12,12)" stroke-width="1" font-size="16" >O</text>
<text x="293.764065" y="183.123048" fill="rgb(255,12,12)"  stroke="rgb(255,12,12)" stroke-width="1" font-size="32" >-</text>
<text x="292.564065" y="168.723048" fill="rgb(255,12,12)"  stroke="rgb(255,12,12)" stroke-width="1" font-size="16" >O</text>
<text x="240.323048" y="183.364065" fill="rgb(255,12,12)"  stroke="rgb(255,12,12)" stroke-width="1" font-size="16" >O</text>
<text x="414.964065" y="252.243048" fill="rgb(255,12,12)"  stroke="rgb(255,12,12)" stroke-width="1" font-size="16" >O</text>
<text x="96.400000" y="166.884065" fill="rgb(255,12,12)"  stroke="rgb(255,12,12)" stroke-width="1" font-size="16" >O</text>
<text x="474.964065" y="254.082032" fill="rgb(255,12,12)"  stroke="rgb(255,12,12)" stroke-width="1" font-size="16" >O</text>
<text x="119.358984" y="112.243048" fill="rgb(255,12,12)"  stroke="rgb(255,12,12)" stroke-width="1" font-size="16" >O</text>
<text x="400.323048" y="114.082032" fill="rgb(255,12,12)"  stroke="rgb(255,12,12)" stroke-width="1" font-size="16" >O</text>
<text x="280.323048" y="117.602032" fill="rgb(255,12,12)"  stroke="rgb(255,12,12)" stroke-width="1" font-size="16" >O</text>
<text x="440.323048" y="154.082032" fill="rgb(255,12,12)"  stroke="rgb(255,12,12)" stroke-width="1" font-size="16" >O</text>
<text x="223.282032" y="132.243048" fill="rgb(255,12,12)"  stroke="rgb(255,12,12)" stroke-width="1" font-size="16" >O</text>
<text x="437.923048" y="117.602032" fill="rgb(255,127,0)"  stroke="rgb(255,127,0)" stroke-width="1" font-size="16" >P</text>
<text x="257.923048" y="148.723048" fill="rgb(255,127,0)"  stroke="rgb(255,127,0)" stroke-width="1" font-size="16" >P</text>
<text x="512.564065" y="214.082032" fill="rgb(191,191,191)"  stroke="rgb(191,191,191)" stroke-width="1" font-size="16" >H</text>
<text x="174.000000" y="97.602032" fill="rgb(191,191,191)"  stroke="rgb(191,191,191)" stroke-width="1" font-size="16" >H</text>
<text font-size="18.000000" fill ="black" font-family="sans-serif"
x="140.000000" y="20.000000" ></text>
<title> - OBDepict</title>
</svg>
