<?xml version="1.0"?>
<svg xmlns="http://www.w3.org/2000/svg"
xmlns:xlink="http://www.w3.org/1999/xlink" xmlns:cml="http://www.xml-cml.org/schema" width="345.771" height="245.362" x="0" y="0" font-family="sans-serif" stroke="rgb(0,0,0)" stroke-width="1" >
<line x1="107.3" y1="86.3" x2="106.6" y2="86.0"/>
<line x1="109.2" y1="82.9" x2="107.8" y2="82.3"/>
<line x1="111.2" y1="79.6" x2="109.0" y2="78.6"/>
<line x1="113.1" y1="76.2" x2="110.2" y2="74.9"/>
<line x1="115.0" y1="72.8" x2="111.4" y2="71.2"/>
<line x1="117.0" y1="69.5" x2="112.6" y2="67.5"/>
<line x1="118.9" y1="66.1" x2="113.8" y2="63.8"/>
<line x1="272.4" y1="186.1" x2="297.1" y2="200.3"/>
<polygon points="194.536011 115.297777 170.155440 124.755104 174.155440 131.683307 " />
<line x1="96.2" y1="172.5" x2="95.8" y2="171.8"/>
<line x1="103.1" y1="169.0" x2="102.3" y2="167.6"/>
<line x1="110.0" y1="165.5" x2="108.8" y2="163.4"/>
<line x1="116.8" y1="162.0" x2="115.2" y2="159.2"/>
<line x1="123.7" y1="158.5" x2="121.7" y2="155.0"/>
<line x1="130.6" y1="155.0" x2="128.2" y2="150.8"/>
<line x1="137.5" y1="151.5" x2="134.7" y2="146.6"/>
<polygon points="115.859003 151.827831 109.001948 126.592259 101.693584 129.846152 " />
<polygon points="49.459172 60.436304 65.987635 80.701130 71.340680 74.755971 " />
<line x1="68.7" y1="77.7" x2="74.6" y2="49.8"/>
<line x1="105.3" y1="128.2" x2="68.7" y2="140.1"/>
<line x1="68.7" y1="140.1" x2="46.0" y2="108.9"/>
<line x1="46.0" y1="108.9" x2="68.7" y2="77.7"/>
<line x1="68.7" y1="77.7" x2="105.3" y2="89.6"/>
<line x1="105.3" y1="89.6" x2="105.3" y2="128.2"/>
<line x1="138.8" y1="186.1" x2="172.2" y2="205.4"/>
<line x1="172.2" y1="205.4" x2="205.6" y2="186.1"/>
<line x1="205.6" y1="186.1" x2="205.6" y2="147.5"/>
<line x1="205.6" y1="147.5" x2="172.2" y2="128.2"/>
<line x1="172.2" y1="128.2" x2="138.8" y2="147.5"/>
<line x1="138.8" y1="147.5" x2="138.8" y2="186.1"/>
<line x1="239.0" y1="205.4" x2="272.4" y2="186.1"/>
<line x1="272.4" y1="186.1" x2="272.4" y2="147.5"/>
<line x1="265.2" y1="180.1" x2="265.2" y2="153.5"/>
<line x1="272.4" y1="147.5" x2="239.0" y2="128.2"/>
<line x1="239.0" y1="128.2" x2="205.6" y2="147.5"/>
<line x1="237.4" y1="137.5" x2="214.4" y2="150.7"/>
<line x1="205.6" y1="186.1" x2="239.0" y2="205.4"/>
<line x1="214.4" y1="182.8" x2="237.4" y2="196.1"/>
<line x1="105.3" y1="128.2" x2="138.8" y2="147.5"/>
<line x1="172.2" y1="128.2" x2="172.2" y2="89.6"/>
<line x1="172.2" y1="89.6" x2="138.8" y2="70.4"/>
<line x1="138.8" y1="70.4" x2="105.3" y2="89.6"/>
<text x="115.036179" y="62.731024" fill="rgb(102,102,102)"  stroke="rgb(102,102,102)" stroke-width="1" font-size="16" >CH</text>
<text x="139.036179" y="70.411024" fill="rgb(102,102,102)"  stroke="rgb(102,102,102)" stroke-width="1" font-size="13" >3</text>
<text x="299.770788" y="210.162063" fill="rgb(255,12,12)"  stroke="rgb(255,12,12)" stroke-width="1" font-size="16" >OH</text>
<text x="70.683608" y="48.320000" fill="rgb(255,12,12)"  stroke="rgb(255,12,12)" stroke-width="1" font-size="16" >OH</text>
<text x="199.559277" y="117.253492" fill="rgb(191,191,191)"  stroke="rgb(191,191,191)" stroke-width="1" font-size="16" >H</text>
<text x="68.343929" y="190.876349" fill="rgb(191,191,191)"  stroke="rgb(191,191,191)" stroke-width="1" font-size="16" >H</text>
<text x="115.036179" y="168.255959" fill="rgb(191,191,191)"  stroke="rgb(191,191,191)" stroke-width="1" font-size="16" >H</text>
<text x="36.400000" y="60.239227" fill="rgb(191,191,191)"  stroke="rgb(191,191,191)" stroke-width="1" font-size="16" >H</text>
<text font-size="18.000000" fill ="black" font-family="sans-serif"
x="140.000000" y="20.000000" ></text>
<title> - OBDepict</title>
</svg>
