<?xml version="1.0"?>
<svg xmlns="http://www.w3.org/2000/svg"
xmlns:xlink="http://www.w3.org/1999/xlink" xmlns:cml="http://www.xml-cml.org/schema" width="218.564" height="260" x="0" y="0" font-family="sans-serif" stroke="rgb(0,0,0)" stroke-width="1" >
<line x1="74.6" y1="50.4" x2="74.6" y2="69.6"/>
<line x1="49.0" y1="214.8" x2="65.6" y2="205.2"/>
<line x1="143.9" y1="160.0" x2="109.3" y2="140.0"/>
<line x1="143.9" y1="160.0" x2="169.6" y2="174.8"/>
<line x1="146.0" y1="156.4" x2="171.7" y2="171.2"/>
<line x1="141.8" y1="163.6" x2="167.5" y2="178.4"/>
<line x1="74.6" y1="160.0" x2="74.6" y2="189.6"/>
<line x1="107.8" y1="97.4" x2="133.4" y2="82.6"/>
<line x1="110.8" y1="102.6" x2="136.4" y2="87.8"/>
<line x1="40.0" y1="140.0" x2="40.0" y2="100.0"/>
<line x1="47.2" y1="134.0" x2="47.2" y2="106.0"/>
<line x1="40.0" y1="100.0" x2="65.6" y2="85.2"/>
<line x1="83.6" y1="85.2" x2="109.3" y2="100.0"/>
<line x1="109.3" y1="100.0" x2="109.3" y2="140.0"/>
<line x1="109.3" y1="140.0" x2="74.6" y2="160.0"/>
<line x1="100.5" y1="136.8" x2="76.2" y2="150.8"/>
<line x1="74.6" y1="160.0" x2="40.0" y2="140.0"/>
<text x="68.641016" y="48.320000" fill="rgb(102,102,102)"  stroke="rgb(102,102,102)" stroke-width="1" font-size="16" >CH</text>
<text x="92.641016" y="56.000000" fill="rgb(102,102,102)"  stroke="rgb(102,102,102)" stroke-width="1" font-size="13" >3</text>
<text x="16.400000" y="224.800000" fill="rgb(102,102,102)"  stroke="rgb(102,102,102)" stroke-width="1" font-size="16" >H</text>
<text x="28.400000" y="229.600000" fill="rgb(102,102,102)"  stroke="rgb(102,102,102)" stroke-width="1" font-size="13" >3</text>
<text x="34.900000" y="224.800000" fill="rgb(102,102,102)"  stroke="rgb(102,102,102)" stroke-width="1" font-size="16" >C</text>
<text x="172.564065" y="184.800000" fill="rgb(12,12,255)"  stroke="rgb(12,12,255)" stroke-width="1" font-size="16" >N</text>
<text x="68.641016" y="88.320000" fill="rgb(12,12,255)"  stroke="rgb(12,12,255)" stroke-width="1" font-size="16" >N</text>
<text x="137.923048" y="88.320000" fill="rgb(255,12,12)"  stroke="rgb(255,12,12)" stroke-width="1" font-size="16" >O</text>
<text x="68.641016" y="204.800000" fill="rgb(255,12,12)"  stroke="rgb(255,12,12)" stroke-width="1" font-size="16" >O</text>
<text font-size="18.000000" fill ="black" font-family="sans-serif"
x="140.000000" y="20.000000" ></text>
<title> - OBDepict</title>
</svg>
