<?xml version="1.0"?>
<svg xmlns="http://www.w3.org/2000/svg"
xmlns:xlink="http://www.w3.org/1999/xlink" xmlns:cml="http://www.xml-cml.org/schema" width="593.912" height="530.38" x="0" y="0" font-family="sans-serif" stroke="rgb(0,0,0)" stroke-width="1" >
<line x1="437.8" y1="392.2" x2="398.0" y2="396.4"/>
<line x1="437.8" y1="392.2" x2="461.3" y2="424.6"/>
<line x1="255.2" y1="376.6" x2="215.4" y2="380.8"/>
<line x1="255.2" y1="376.6" x2="272.6" y2="400.5"/>
<line x1="493.9" y1="351.5" x2="517.4" y2="383.8"/>
<line x1="493.9" y1="351.5" x2="464.4" y2="354.6"/>
<line x1="444.0" y1="220.0" x2="444.0" y2="260.0"/>
<line x1="444.0" y1="220.0" x2="418.4" y2="205.2"/>
<line x1="318.5" y1="404.8" x2="289.0" y2="407.8"/>
<line x1="440.8" y1="439.9" x2="440.4" y2="439.3"/>
<line x1="444.3" y1="437.9" x2="443.4" y2="436.6"/>
<line x1="447.8" y1="435.9" x2="446.4" y2="433.9"/>
<line x1="451.3" y1="433.9" x2="449.4" y2="431.3"/>
<line x1="454.7" y1="431.8" x2="452.4" y2="428.6"/>
<line x1="458.2" y1="429.8" x2="455.4" y2="425.9"/>
<line x1="461.7" y1="427.8" x2="458.4" y2="423.2"/>
<line x1="461.3" y1="424.6" x2="501.1" y2="420.4"/>
<line x1="461.3" y1="424.6" x2="464.4" y2="454.0"/>
<line x1="540.9" y1="393.9" x2="540.6" y2="394.6"/>
<line x1="537.4" y1="391.9" x2="536.8" y2="393.4"/>
<line x1="533.9" y1="389.9" x2="533.0" y2="392.1"/>
<line x1="530.4" y1="387.9" x2="529.1" y2="390.8"/>
<line x1="527.0" y1="385.9" x2="525.3" y2="389.6"/>
<line x1="523.5" y1="383.9" x2="521.5" y2="388.3"/>
<line x1="520.0" y1="381.9" x2="517.7" y2="387.1"/>
<line x1="517.4" y1="383.8" x2="501.1" y2="420.4"/>
<line x1="517.4" y1="383.8" x2="541.3" y2="366.4"/>
<line x1="466.0" y1="246.9" x2="466.4" y2="247.5"/>
<line x1="462.3" y1="248.5" x2="463.1" y2="249.9"/>
<line x1="458.7" y1="250.2" x2="459.9" y2="252.2"/>
<line x1="455.0" y1="251.8" x2="456.6" y2="254.6"/>
<line x1="451.3" y1="253.5" x2="453.3" y2="256.9"/>
<line x1="447.7" y1="255.1" x2="450.1" y2="259.3"/>
<line x1="444.0" y1="256.8" x2="446.8" y2="261.6"/>
<line x1="504.2" y1="445.8" x2="503.4" y2="445.9"/>
<line x1="504.2" y1="441.8" x2="502.6" y2="442.0"/>
<line x1="504.1" y1="437.8" x2="501.7" y2="438.0"/>
<line x1="504.1" y1="433.7" x2="500.9" y2="434.1"/>
<line x1="504.1" y1="429.7" x2="500.1" y2="430.1"/>
<line x1="504.1" y1="425.7" x2="499.3" y2="426.2"/>
<line x1="504.1" y1="421.7" x2="498.5" y2="422.3"/>
<line x1="501.1" y1="420.4" x2="528.1" y2="432.4"/>
<polygon points="398.670232 237.966783 400.329675 265.012785 408.154856 263.349492 " />
<line x1="404.2" y1="264.2" x2="376.1" y2="255.0"/>
<polygon points="369.272611 300.505680 395.507684 307.285130 396.343911 299.328955 " />
<line x1="395.9" y1="303.3" x2="378.5" y2="327.3"/>
<line x1="143.1" y1="458.0" x2="160.5" y2="482.0"/>
<polygon points="419.666272 347.790061 434.220996 324.933989 426.912632 321.680096 " />
<line x1="430.6" y1="323.3" x2="448.0" y2="347.3"/>
<line x1="80.1" y1="432.8" x2="50.7" y2="435.9"/>
<line x1="79.5" y1="426.9" x2="50.0" y2="430.0"/>
<line x1="299.8" y1="80.0" x2="319.0" y2="80.0"/>
<line x1="329.4" y1="50.4" x2="329.4" y2="69.6"/>
<line x1="359.0" y1="83.0" x2="339.8" y2="83.0"/>
<line x1="359.0" y1="77.0" x2="339.8" y2="77.0"/>
<line x1="439.0" y1="160.0" x2="419.8" y2="160.0"/>
<line x1="412.4" y1="130.4" x2="412.4" y2="149.6"/>
<line x1="406.4" y1="130.4" x2="406.4" y2="149.6"/>
<line x1="329.4" y1="189.6" x2="329.4" y2="170.4"/>
<line x1="299.8" y1="157.0" x2="319.0" y2="157.0"/>
<line x1="299.8" y1="163.0" x2="319.0" y2="163.0"/>
<line x1="409.4" y1="189.6" x2="409.4" y2="170.4"/>
<line x1="329.4" y1="109.6" x2="329.4" y2="90.4"/>
<line x1="329.4" y1="130.4" x2="329.4" y2="149.6"/>
<line x1="379.8" y1="160.0" x2="399.0" y2="160.0"/>
<line x1="359.0" y1="160.0" x2="339.8" y2="160.0"/>
<line x1="395.9" y1="303.3" x2="430.6" y2="323.3"/>
<line x1="430.6" y1="323.3" x2="452.6" y2="303.5"/>
<line x1="456.1" y1="287.0" x2="444.0" y2="260.0"/>
<line x1="444.0" y1="260.0" x2="404.2" y2="264.2"/>
<line x1="404.2" y1="264.2" x2="395.9" y2="303.3"/>
<line x1="381.8" y1="432.9" x2="398.0" y2="396.4"/>
<line x1="377.6" y1="424.5" x2="389.0" y2="398.9"/>
<line x1="398.0" y1="396.4" x2="374.5" y2="364.0"/>
<line x1="374.5" y1="364.0" x2="334.7" y2="368.2"/>
<line x1="369.3" y1="371.8" x2="341.5" y2="374.7"/>
<line x1="334.7" y1="368.2" x2="318.5" y2="404.8"/>
<line x1="318.5" y1="404.8" x2="342.0" y2="437.1"/>
<line x1="327.8" y1="405.4" x2="344.3" y2="428.0"/>
<line x1="342.0" y1="437.1" x2="381.8" y2="432.9"/>
<line x1="191.9" y1="348.4" x2="215.4" y2="380.8"/>
<line x1="215.4" y1="380.8" x2="203.4" y2="407.8"/>
<line x1="206.4" y1="383.3" x2="197.6" y2="403.0"/>
<line x1="188.8" y1="418.4" x2="159.3" y2="421.5"/>
<line x1="159.3" y1="421.5" x2="135.8" y2="389.1"/>
<line x1="161.6" y1="412.4" x2="145.2" y2="389.7"/>
<line x1="135.8" y1="389.1" x2="147.9" y2="362.1"/>
<line x1="162.4" y1="351.5" x2="191.9" y2="348.4"/>
<line x1="165.2" y1="358.4" x2="186.7" y2="356.2"/>
<line x1="143.1" y1="458.0" x2="159.3" y2="421.5"/>
<line x1="135.8" y1="389.1" x2="106.4" y2="392.2"/>
<line x1="91.8" y1="402.8" x2="79.8" y2="429.8"/>
<line x1="79.8" y1="429.8" x2="97.2" y2="453.8"/>
<line x1="113.6" y1="461.1" x2="143.1" y2="458.0"/>
<line x1="114.9" y1="453.7" x2="136.4" y2="451.5"/>
<text x="24.400000" y="438.820926" fill="rgb(12,12,255)"  stroke="rgb(12,12,255)" stroke-width="1" font-size="16" >HN</text>
<text x="263.085255" y="413.734095" fill="rgb(12,12,255)"  stroke="rgb(12,12,255)" stroke-width="1" font-size="16" >HN</text>
<text x="148.500683" y="360.895012" fill="rgb(12,12,255)"  stroke="rgb(12,12,255)" stroke-width="1" font-size="16" >N</text>
<text x="193.123503" y="422.096372" fill="rgb(12,12,255)"  stroke="rgb(12,12,255)" stroke-width="1" font-size="16" >N</text>
<text x="80.450342" y="401.617969" fill="rgb(12,12,255)"  stroke="rgb(12,12,255)" stroke-width="1" font-size="16" >HN</text>
<text x="99.692286" y="467.000467" fill="rgb(12,12,255)"  stroke="rgb(12,12,255)" stroke-width="1" font-size="16" >N</text>
<text x="459.501307" y="469.151096" fill="rgb(255,12,12)"  stroke="rgb(255,12,12)" stroke-width="1" font-size="16" >OH</text>
<text x="543.731190" y="368.655853" fill="rgb(255,12,12)"  stroke="rgb(255,12,12)" stroke-width="1" font-size="16" >OH</text>
<text x="531.642862" y="441.458548" fill="rgb(255,12,12)"  stroke="rgb(255,12,12)" stroke-width="1" font-size="16" >OH</text>
<text x="350.600005" y="260.140459" fill="rgb(255,12,12)"  stroke="rgb(255,12,12)" stroke-width="1" font-size="16" >HO</text>
<text x="356.814388" y="340.467722" fill="rgb(255,12,12)"  stroke="rgb(255,12,12)" stroke-width="1" font-size="16" >HO</text>
<text x="161.784572" y="509.580008" fill="rgb(255,12,12)"  stroke="rgb(255,12,12)" stroke-width="1" font-size="32" >-</text>
<text x="160.584572" y="495.180008" fill="rgb(255,12,12)"  stroke="rgb(255,12,12)" stroke-width="1" font-size="16" >O</text>
<text x="284.582125" y="73.600000" fill="rgb(255,12,12)"  stroke="rgb(255,12,12)" stroke-width="1" font-size="32" >-</text>
<text x="285.782125" y="88.320000" fill="rgb(255,12,12)"  stroke="rgb(255,12,12)" stroke-width="1" font-size="16" >O</text>
<text x="324.582125" y="33.600000" fill="rgb(255,12,12)"  stroke="rgb(255,12,12)" stroke-width="1" font-size="32" >-</text>
<text x="323.382125" y="48.320000" fill="rgb(255,12,12)"  stroke="rgb(255,12,12)" stroke-width="1" font-size="16" >O</text>
<text x="363.382125" y="84.800000" fill="rgb(255,12,12)"  stroke="rgb(255,12,12)" stroke-width="1" font-size="16" >O</text>
<text x="444.582125" y="179.200000" fill="rgb(255,12,12)"  stroke="rgb(255,12,12)" stroke-width="1" font-size="32" >-</text>
<text x="443.382125" y="164.800000" fill="rgb(255,12,12)"  stroke="rgb(255,12,12)" stroke-width="1" font-size="16" >O</text>
<text x="403.382125" y="128.320000" fill="rgb(255,12,12)"  stroke="rgb(255,12,12)" stroke-width="1" font-size="16" >O</text>
<text x="323.382125" y="204.800000" fill="rgb(255,12,12)"  stroke="rgb(255,12,12)" stroke-width="1" font-size="16" >OH</text>
<text x="285.782125" y="164.800000" fill="rgb(255,12,12)"  stroke="rgb(255,12,12)" stroke-width="1" font-size="16" >O</text>
<text x="450.478224" y="360.467722" fill="rgb(255,12,12)"  stroke="rgb(255,12,12)" stroke-width="1" font-size="16" >O</text>
<text x="405.782125" y="204.800000" fill="rgb(255,12,12)"  stroke="rgb(255,12,12)" stroke-width="1" font-size="16" >O</text>
<text x="454.292607" y="301.341818" fill="rgb(255,12,12)"  stroke="rgb(255,12,12)" stroke-width="1" font-size="16" >O</text>
<text x="323.382125" y="124.800000" fill="rgb(255,12,12)"  stroke="rgb(255,12,12)" stroke-width="1" font-size="16" >O</text>
<text x="363.382125" y="164.800000" fill="rgb(255,12,12)"  stroke="rgb(255,12,12)" stroke-width="1" font-size="16" >O</text>
<text x="323.382125" y="84.800000" fill="rgb(255,127,0)"  stroke="rgb(255,127,0)" stroke-width="1" font-size="16" >P</text>
<text x="403.382125" y="168.320000" fill="rgb(255,127,0)"  stroke="rgb(255,127,0)" stroke-width="1" font-size="16" >P</text>
<text x="323.382125" y="168.320000" fill="rgb(255,127,0)"  stroke="rgb(255,127,0)" stroke-width="1" font-size="16" >P</text>
<text x="425.359488" y="452.881631" fill="rgb(191,191,191)"  stroke="rgb(191,191,191)" stroke-width="1" font-size="16" >H</text>
<text x="547.912328" y="404.916729" fill="rgb(191,191,191)"  stroke="rgb(191,191,191)" stroke-width="1" font-size="16" >H</text>
<text x="472.664157" y="248.320000" fill="rgb(191,191,191)"  stroke="rgb(191,191,191)" stroke-width="1" font-size="16" >H</text>
<text x="499.282183" y="464.969958" fill="rgb(191,191,191)"  stroke="rgb(191,191,191)" stroke-width="1" font-size="16" >H</text>
<text x="392.325798" y="233.375235" fill="rgb(191,191,191)"  stroke="rgb(191,191,191)" stroke-width="1" font-size="16" >H</text>
<text x="352.544922" y="307.445904" fill="rgb(191,191,191)"  stroke="rgb(191,191,191)" stroke-width="1" font-size="16" >H</text>
<text x="410.697348" y="364.648861" fill="rgb(191,191,191)"  stroke="rgb(191,191,191)" stroke-width="1" font-size="16" >H</text>
<text font-size="18.000000" fill ="black" font-family="sans-serif"
x="140.000000" y="20.000000" ></text>
<title> - OBDepict</title>
</svg>
