<?xml version="1.0"?>
<svg xmlns="http://www.w3.org/2000/svg"
xmlns:xlink="http://www.w3.org/1999/xlink" xmlns:cml="http://www.xml-cml.org/schema" width="229.282" height="234.641" x="0" y="0" font-family="sans-serif" stroke="rgb(0,0,0)" stroke-width="1" >
<line x1="114.6" y1="80.0" x2="80.0" y2="100.0"/>
<line x1="111.6" y1="80.0" x2="111.6" y2="50.4"/>
<line x1="117.6" y1="80.0" x2="117.6" y2="50.4"/>
<line x1="149.3" y1="100.0" x2="149.3" y2="140.0"/>
<line x1="149.3" y1="100.0" x2="174.9" y2="85.2"/>
<line x1="80.0" y1="100.0" x2="80.0" y2="140.0"/>
<line x1="78.5" y1="102.6" x2="52.9" y2="87.8"/>
<line x1="81.5" y1="97.4" x2="55.9" y2="82.6"/>
<polygon points="176.082032 140.000000 149.282032 136.000000 149.282032 144.000000 " />
<line x1="149.3" y1="140.0" x2="114.6" y2="160.0"/>
<line x1="149.3" y1="140.0" x2="164.1" y2="165.6"/>
<polygon points="66.600000 163.209481 83.464102 142.000000 76.535898 138.000000 " />
<line x1="80.0" y1="140.0" x2="114.6" y2="160.0"/>
<line x1="80.0" y1="140.0" x2="50.4" y2="140.0"/>
<line x1="127.8" y1="182.0" x2="127.1" y2="182.4"/>
<line x1="126.1" y1="178.3" x2="124.7" y2="179.1"/>
<line x1="124.5" y1="174.6" x2="122.4" y2="175.8"/>
<line x1="122.8" y1="171.0" x2="120.1" y2="172.6"/>
<line x1="121.2" y1="167.3" x2="117.7" y2="169.3"/>
<line x1="119.5" y1="163.6" x2="115.4" y2="166.0"/>
<line x1="117.9" y1="160.0" x2="113.0" y2="162.8"/>
<line x1="114.6" y1="160.0" x2="99.8" y2="185.6"/>
<text x="108.641016" y="48.320000" fill="rgb(255,12,12)"  stroke="rgb(255,12,12)" stroke-width="1" font-size="16" >O</text>
<text x="177.923048" y="88.320000" fill="rgb(255,12,12)"  stroke="rgb(255,12,12)" stroke-width="1" font-size="16" >OH</text>
<text x="41.758984" y="88.320000" fill="rgb(255,12,12)"  stroke="rgb(255,12,12)" stroke-width="1" font-size="16" >O</text>
<text x="163.282032" y="179.441016" fill="rgb(255,12,12)"  stroke="rgb(255,12,12)" stroke-width="1" font-size="16" >OH</text>
<text x="24.400000" y="144.800000" fill="rgb(255,12,12)"  stroke="rgb(255,12,12)" stroke-width="1" font-size="16" >HO</text>
<text x="79.041016" y="199.441016" fill="rgb(255,12,12)"  stroke="rgb(255,12,12)" stroke-width="1" font-size="16" >HO</text>
<text x="183.282032" y="144.800000" fill="rgb(191,191,191)"  stroke="rgb(191,191,191)" stroke-width="1" font-size="16" >H</text>
<text x="56.400000" y="179.441016" fill="rgb(191,191,191)"  stroke="rgb(191,191,191)" stroke-width="1" font-size="16" >H</text>
<text x="128.641016" y="199.441016" fill="rgb(191,191,191)"  stroke="rgb(191,191,191)" stroke-width="1" font-size="16" >H</text>
<text font-size="18.000000" fill ="black" font-family="sans-serif"
x="140.000000" y="20.000000" ></text>
<title> - OBDepict</title>
</svg>
