<?xml version="1.0"?>
<svg xmlns="http://www.w3.org/2000/svg"
xmlns:xlink="http://www.w3.org/1999/xlink" xmlns:cml="http://www.xml-cml.org/schema" width="566.258" height="495.634" x="0" y="0" font-family="sans-serif" stroke="rgb(0,0,0)" stroke-width="1" >
<line x1="261.1" y1="351.4" x2="233.2" y2="323.5"/>
<line x1="423.7" y1="294.9" x2="389.4" y2="275.1"/>
<line x1="409.2" y1="161.9" x2="375.0" y2="181.7"/>
<line x1="327.2" y1="369.1" x2="355.4" y2="361.6"/>
<line x1="278.8" y1="417.5" x2="271.2" y2="445.7"/>
<line x1="457.9" y1="354.1" x2="457.9" y2="383.3"/>
<line x1="492.1" y1="294.9" x2="517.4" y2="280.3"/>
<line x1="477.6" y1="161.9" x2="502.9" y2="176.5"/>
<line x1="443.4" y1="102.7" x2="443.4" y2="73.5"/>
<line x1="134.1" y1="78.4" x2="127.2" y2="50.0"/>
<line x1="91.7" y1="253.2" x2="72.6" y2="275.3"/>
<line x1="233.2" y1="221.3" x2="232.9" y2="220.6"/>
<line x1="240.8" y1="219.5" x2="240.4" y2="218.0"/>
<line x1="248.5" y1="217.7" x2="247.9" y2="215.4"/>
<line x1="256.2" y1="215.8" x2="255.3" y2="212.7"/>
<line x1="263.9" y1="214.0" x2="262.8" y2="210.1"/>
<line x1="271.6" y1="212.1" x2="270.3" y2="207.5"/>
<line x1="279.3" y1="210.3" x2="277.7" y2="204.9"/>
<line x1="317.0" y1="407.3" x2="337.6" y2="427.9"/>
<line x1="492.1" y1="334.4" x2="517.4" y2="349.0"/>
<line x1="477.6" y1="122.4" x2="502.9" y2="107.8"/>
<line x1="105.5" y1="105.6" x2="77.5" y2="97.4"/>
<line x1="78.8" y1="215.9" x2="50.1" y2="210.4"/>
<line x1="114.8" y1="144.0" x2="93.7" y2="164.2"/>
<line x1="104.6" y1="186.0" x2="95.1" y2="158.4"/>
<polygon points="255.563883 215.198736 257.914998 241.856644 265.689490 239.970573 " />
<line x1="297.3" y1="294.9" x2="296.6" y2="295.4"/>
<line x1="295.2" y1="291.5" x2="293.9" y2="292.5"/>
<line x1="293.1" y1="288.2" x2="291.2" y2="289.6"/>
<line x1="291.0" y1="284.8" x2="288.5" y2="286.7"/>
<line x1="288.9" y1="281.4" x2="285.7" y2="283.9"/>
<line x1="286.8" y1="278.0" x2="283.0" y2="281.0"/>
<line x1="284.7" y1="274.7" x2="280.3" y2="278.1"/>
<line x1="281.5" y1="275.1" x2="253.3" y2="282.7"/>
<polygon points="321.042750 301.576890 325.042750 275.116131 317.042750 275.116131 " />
<line x1="321.0" y1="275.1" x2="346.4" y2="289.7"/>
<line x1="234.0" y1="326.4" x2="205.7" y2="333.9"/>
<line x1="232.4" y1="320.6" x2="204.2" y2="328.2"/>
<line x1="233.2" y1="323.5" x2="240.7" y2="295.3"/>
<line x1="386.4" y1="275.1" x2="386.4" y2="245.9"/>
<line x1="392.4" y1="275.1" x2="392.4" y2="245.9"/>
<line x1="389.4" y1="275.1" x2="364.1" y2="289.7"/>
<line x1="373.5" y1="184.3" x2="348.2" y2="169.7"/>
<line x1="376.5" y1="179.1" x2="351.2" y2="164.5"/>
<line x1="375.0" y1="181.7" x2="375.0" y2="210.9"/>
<line x1="217.1" y1="120.1" x2="219.9" y2="91.0"/>
<line x1="223.1" y1="120.7" x2="225.9" y2="91.6"/>
<line x1="190.2" y1="256.4" x2="179.3" y2="283.5"/>
<line x1="184.6" y1="254.1" x2="173.7" y2="281.3"/>
<line x1="362.9" y1="253.2" x2="362.5" y2="253.9"/>
<line x1="359.7" y1="250.9" x2="358.9" y2="252.3"/>
<line x1="356.4" y1="248.6" x2="355.2" y2="250.6"/>
<line x1="353.2" y1="246.2" x2="351.6" y2="249.0"/>
<line x1="350.0" y1="243.9" x2="348.0" y2="247.4"/>
<line x1="346.8" y1="241.6" x2="344.4" y2="245.8"/>
<line x1="343.6" y1="239.3" x2="340.8" y2="244.1"/>
<line x1="340.8" y1="240.9" x2="366.1" y2="226.3"/>
<line x1="172.0" y1="89.5" x2="181.3" y2="127.9"/>
<line x1="166.4" y1="97.0" x2="172.9" y2="123.8"/>
<line x1="181.3" y1="127.9" x2="152.7" y2="155.1"/>
<line x1="152.7" y1="155.1" x2="114.8" y2="144.0"/>
<line x1="149.0" y1="146.5" x2="122.6" y2="138.8"/>
<line x1="114.8" y1="144.0" x2="105.5" y2="105.6"/>
<line x1="105.5" y1="105.6" x2="134.1" y2="78.4"/>
<line x1="114.8" y1="106.7" x2="134.7" y2="87.7"/>
<line x1="134.1" y1="78.4" x2="172.0" y2="89.5"/>
<line x1="78.8" y1="215.9" x2="91.7" y2="253.2"/>
<line x1="87.5" y1="219.2" x2="96.5" y2="245.2"/>
<line x1="91.7" y1="253.2" x2="130.5" y2="260.7"/>
<line x1="130.5" y1="260.7" x2="156.3" y2="230.8"/>
<line x1="129.0" y1="251.4" x2="147.0" y2="230.7"/>
<line x1="156.3" y1="230.8" x2="143.4" y2="193.5"/>
<line x1="143.4" y1="193.5" x2="104.6" y2="186.0"/>
<line x1="136.2" y1="199.5" x2="109.2" y2="194.3"/>
<line x1="104.6" y1="186.0" x2="78.8" y2="215.9"/>
<line x1="340.8" y1="240.9" x2="326.2" y2="215.6"/>
<line x1="310.8" y1="206.7" x2="281.5" y2="206.7"/>
<line x1="281.5" y1="206.7" x2="261.8" y2="240.9"/>
<line x1="261.8" y1="240.9" x2="281.5" y2="275.1"/>
<line x1="281.5" y1="275.1" x2="321.0" y2="275.1"/>
<line x1="321.0" y1="275.1" x2="340.8" y2="240.9"/>
<line x1="299.3" y1="341.2" x2="261.1" y2="351.4"/>
<line x1="295.3" y1="349.7" x2="268.8" y2="356.8"/>
<line x1="261.1" y1="351.4" x2="250.9" y2="389.6"/>
<line x1="250.9" y1="389.6" x2="278.8" y2="417.5"/>
<line x1="260.2" y1="388.7" x2="279.7" y2="408.2"/>
<line x1="278.8" y1="417.5" x2="317.0" y2="407.3"/>
<line x1="317.0" y1="407.3" x2="327.2" y2="369.1"/>
<line x1="311.6" y1="399.6" x2="318.7" y2="373.0"/>
<line x1="327.2" y1="369.1" x2="299.3" y2="341.2"/>
<line x1="423.7" y1="334.4" x2="423.7" y2="294.9"/>
<line x1="430.9" y1="328.4" x2="430.9" y2="300.9"/>
<line x1="423.7" y1="294.9" x2="457.9" y2="275.1"/>
<line x1="457.9" y1="275.1" x2="492.1" y2="294.9"/>
<line x1="459.4" y1="284.4" x2="483.3" y2="298.1"/>
<line x1="492.1" y1="294.9" x2="492.1" y2="334.4"/>
<line x1="492.1" y1="334.4" x2="457.9" y2="354.1"/>
<line x1="483.3" y1="331.1" x2="459.4" y2="344.9"/>
<line x1="457.9" y1="354.1" x2="423.7" y2="334.4"/>
<line x1="443.4" y1="181.7" x2="409.2" y2="161.9"/>
<line x1="441.8" y1="172.4" x2="418.0" y2="158.7"/>
<line x1="409.2" y1="161.9" x2="409.2" y2="122.4"/>
<line x1="409.2" y1="122.4" x2="443.4" y2="102.7"/>
<line x1="418.0" y1="125.7" x2="441.8" y2="111.9"/>
<line x1="443.4" y1="102.7" x2="477.6" y2="122.4"/>
<line x1="477.6" y1="122.4" x2="477.6" y2="161.9"/>
<line x1="470.4" y1="128.4" x2="470.4" y2="155.9"/>
<line x1="477.6" y1="161.9" x2="443.4" y2="181.7"/>
<line x1="279.7" y1="167.3" x2="262.7" y2="143.5"/>
<line x1="247.2" y1="131.3" x2="220.1" y2="120.4"/>
<line x1="220.1" y1="120.4" x2="181.3" y2="127.9"/>
<line x1="152.7" y1="155.1" x2="143.4" y2="193.5"/>
<line x1="156.3" y1="230.8" x2="187.4" y2="255.3"/>
<line x1="187.4" y1="255.3" x2="216.5" y2="258.0"/>
<line x1="235.8" y1="254.3" x2="261.8" y2="240.9"/>
<line x1="281.5" y1="206.7" x2="279.7" y2="167.3"/>
<text x="359.327807" y="367.214858" fill="rgb(255,12,12)"  stroke="rgb(255,12,12)" stroke-width="1" font-size="16" >OH</text>
<text x="252.988465" y="460.434200" fill="rgb(255,12,12)"  stroke="rgb(255,12,12)" stroke-width="1" font-size="16" >HO</text>
<text x="451.852839" y="398.397143" fill="rgb(255,12,12)"  stroke="rgb(255,12,12)" stroke-width="1" font-size="16" >OH</text>
<text x="520.257884" y="283.436131" fill="rgb(255,12,12)"  stroke="rgb(255,12,12)" stroke-width="1" font-size="16" >OH</text>
<text x="505.802197" y="186.473102" fill="rgb(255,12,12)"  stroke="rgb(255,12,12)" stroke-width="1" font-size="16" >OH</text>
<text x="437.397152" y="71.512090" fill="rgb(255,12,12)"  stroke="rgb(255,12,12)" stroke-width="1" font-size="16" >OH</text>
<text x="109.200820" y="48.320000" fill="rgb(255,12,12)"  stroke="rgb(255,12,12)" stroke-width="1" font-size="16" >HO</text>
<text x="50.234229" y="287.863600" fill="rgb(255,12,12)"  stroke="rgb(255,12,12)" stroke-width="1" font-size="16" >HO</text>
<text x="338.884378" y="439.990772" fill="rgb(255,12,12)"  stroke="rgb(255,12,12)" stroke-width="1" font-size="16" >OH</text>
<text x="520.257884" y="358.903473" fill="rgb(255,12,12)"  stroke="rgb(255,12,12)" stroke-width="1" font-size="16" >OH</text>
<text x="505.802197" y="111.005760" fill="rgb(255,12,12)"  stroke="rgb(255,12,12)" stroke-width="1" font-size="16" >OH</text>
<text x="52.034992" y="102.827507" fill="rgb(255,12,12)"  stroke="rgb(255,12,12)" stroke-width="1" font-size="16" >HO</text>
<text x="24.400000" y="216.740497" fill="rgb(255,12,12)"  stroke="rgb(255,12,12)" stroke-width="1" font-size="16" >HO</text>
<text x="70.656964" y="176.068319" fill="rgb(255,12,12)"  stroke="rgb(255,12,12)" stroke-width="1" font-size="16" >HO</text>
<text x="76.125709" y="157.045847" fill="rgb(255,12,12)"  stroke="rgb(255,12,12)" stroke-width="1" font-size="16" >HO</text>
<text x="191.431452" y="338.507516" fill="rgb(255,12,12)"  stroke="rgb(255,12,12)" stroke-width="1" font-size="16" >O</text>
<text x="383.447795" y="243.942460" fill="rgb(255,12,12)"  stroke="rgb(255,12,12)" stroke-width="1" font-size="16" >O</text>
<text x="337.189586" y="170.246267" fill="rgb(255,12,12)"  stroke="rgb(255,12,12)" stroke-width="1" font-size="16" >O</text>
<text x="217.850773" y="89.418399" fill="rgb(255,12,12)"  stroke="rgb(255,12,12)" stroke-width="1" font-size="16" >O</text>
<text x="169.105714" y="296.721201" fill="rgb(255,12,12)"  stroke="rgb(255,12,12)" stroke-width="1" font-size="16" >O</text>
<text x="250.761318" y="143.411554" fill="rgb(255,12,12)"  stroke="rgb(255,12,12)" stroke-width="1" font-size="16" >O</text>
<text x="315.042750" y="215.031086" fill="rgb(255,12,12)"  stroke="rgb(255,12,12)" stroke-width="1" font-size="16" >O</text>
<text x="220.698869" y="263.810656" fill="rgb(255,12,12)"  stroke="rgb(255,12,12)" stroke-width="1" font-size="16" >O</text>
<text x="239.801123" y="293.657845" fill="rgb(255,12,12)"  stroke="rgb(255,12,12)" stroke-width="1" font-size="16" >O</text>
<text x="349.245272" y="299.662966" fill="rgb(255,12,12)"  stroke="rgb(255,12,12)" stroke-width="1" font-size="16" >O</text>
<text x="368.992108" y="225.966773" fill="rgb(255,12,12)"  stroke="rgb(255,12,12)" stroke-width="1" font-size="16" >O</text>
<text x="202.161280" y="233.764392" fill="rgb(191,191,191)"  stroke="rgb(191,191,191)" stroke-width="1" font-size="16" >H</text>
<text x="248.891258" y="210.853202" fill="rgb(191,191,191)"  stroke="rgb(191,191,191)" stroke-width="1" font-size="16" >H</text>
<text x="299.591303" y="311.248566" fill="rgb(191,191,191)"  stroke="rgb(191,191,191)" stroke-width="1" font-size="16" >H</text>
<text x="315.042750" y="319.409802" fill="rgb(191,191,191)"  stroke="rgb(191,191,191)" stroke-width="1" font-size="16" >H</text>
<text x="368.992108" y="265.460444" fill="rgb(191,191,191)"  stroke="rgb(191,191,191)" stroke-width="1" font-size="16" >H</text>
<text font-size="18.000000" fill ="black" font-family="sans-serif"
x="140.000000" y="20.000000" ></text>
<title> - OBDepict</title>
</svg>
