<?xml version="1.0"?>
<svg xmlns="http://www.w3.org/2000/svg"
xmlns:xlink="http://www.w3.org/1999/xlink" xmlns:cml="http://www.xml-cml.org/schema" width="329.282" height="229.282" x="0" y="0" font-family="sans-serif" stroke="rgb(0,0,0)" stroke-width="1" >
<line x1="140.0" y1="134.6" x2="180.0" y2="134.6"/>
<line x1="140.0" y1="134.6" x2="125.2" y2="109.0"/>
<line x1="274.9" y1="134.2" x2="274.9" y2="135.0"/>
<line x1="270.9" y1="133.8" x2="270.9" y2="135.4"/>
<line x1="266.9" y1="133.4" x2="266.9" y2="135.8"/>
<line x1="262.9" y1="133.0" x2="262.9" y2="136.2"/>
<line x1="258.9" y1="132.6" x2="258.9" y2="136.6"/>
<line x1="254.9" y1="132.2" x2="254.9" y2="137.0"/>
<line x1="250.9" y1="131.8" x2="250.9" y2="137.4"/>
<line x1="249.3" y1="134.6" x2="264.1" y2="160.3"/>
<line x1="167.5" y1="157.0" x2="166.9" y2="156.6"/>
<line x1="169.9" y1="153.7" x2="168.5" y2="152.9"/>
<line x1="172.2" y1="150.5" x2="170.2" y2="149.3"/>
<line x1="174.6" y1="147.2" x2="171.8" y2="145.6"/>
<line x1="176.9" y1="144.0" x2="173.5" y2="142.0"/>
<line x1="179.3" y1="140.7" x2="175.1" y2="138.3"/>
<line x1="181.6" y1="137.4" x2="176.8" y2="134.6"/>
<line x1="214.6" y1="74.6" x2="199.8" y2="49.0"/>
<line x1="214.6" y1="74.6" x2="229.4" y2="49.0"/>
<polygon points="228.041016 177.850497 218.105118 152.641016 211.176915 156.641016 " />
<line x1="214.6" y1="154.6" x2="199.8" y2="180.3"/>
<line x1="80.0" y1="70.4" x2="80.0" y2="89.6"/>
<line x1="50.4" y1="100.0" x2="69.6" y2="100.0"/>
<line x1="77.0" y1="129.6" x2="77.0" y2="110.4"/>
<line x1="83.0" y1="129.6" x2="83.0" y2="110.4"/>
<line x1="109.6" y1="100.0" x2="90.4" y2="100.0"/>
<line x1="249.3" y1="94.6" x2="249.3" y2="134.6"/>
<line x1="249.3" y1="134.6" x2="214.6" y2="154.6"/>
<line x1="214.6" y1="154.6" x2="180.0" y2="134.6"/>
<line x1="180.0" y1="134.6" x2="180.0" y2="105.0"/>
<line x1="189.0" y1="89.4" x2="214.6" y2="74.6"/>
<line x1="214.6" y1="74.6" x2="249.3" y2="94.6"/>
<text x="263.282032" y="174.082032" fill="rgb(255,12,12)"  stroke="rgb(255,12,12)" stroke-width="1" font-size="16" >OH</text>
<text x="228.641016" y="48.320000" fill="rgb(255,12,12)"  stroke="rgb(255,12,12)" stroke-width="1" font-size="16" >OH</text>
<text x="179.041016" y="194.082032" fill="rgb(255,12,12)"  stroke="rgb(255,12,12)" stroke-width="1" font-size="16" >HO</text>
<text x="74.000000" y="68.320000" fill="rgb(255,12,12)"  stroke="rgb(255,12,12)" stroke-width="1" font-size="16" >OH</text>
<text x="24.400000" y="108.320000" fill="rgb(255,12,12)"  stroke="rgb(255,12,12)" stroke-width="1" font-size="16" >HO</text>
<text x="74.000000" y="144.800000" fill="rgb(255,12,12)"  stroke="rgb(255,12,12)" stroke-width="1" font-size="16" >O</text>
<text x="114.000000" y="108.320000" fill="rgb(255,12,12)"  stroke="rgb(255,12,12)" stroke-width="1" font-size="16" >O</text>
<text x="176.400000" y="102.961016" fill="rgb(255,12,12)"  stroke="rgb(255,12,12)" stroke-width="1" font-size="16" >O</text>
<text x="74.000000" y="104.800000" fill="rgb(255,127,0)"  stroke="rgb(255,127,0)" stroke-width="1" font-size="16" >P</text>
<text x="283.282032" y="139.441016" fill="rgb(191,191,191)"  stroke="rgb(191,191,191)" stroke-width="1" font-size="16" >H</text>
<text x="156.400000" y="174.082032" fill="rgb(191,191,191)"  stroke="rgb(191,191,191)" stroke-width="1" font-size="16" >H</text>
<text x="191.041016" y="48.320000" fill="rgb(191,191,191)"  stroke="rgb(191,191,191)" stroke-width="1" font-size="16" >H</text>
<text x="228.641016" y="194.082032" fill="rgb(191,191,191)"  stroke="rgb(191,191,191)" stroke-width="1" font-size="16" >H</text>
<text font-size="18.000000" fill ="black" font-family="sans-serif"
x="140.000000" y="20.000000" ></text>
<title> - OBDepict</title>
</svg>
