<?xml version="1.0"?>
<svg xmlns="http://www.w3.org/2000/svg"
xmlns:xlink="http://www.w3.org/1999/xlink" xmlns:cml="http://www.xml-cml.org/schema" width="423.923" height="329.282" x="0" y="0" font-family="sans-serif" stroke="rgb(0,0,0)" stroke-width="1" >
<line x1="318.3" y1="224.1" x2="343.9" y2="209.3"/>
<line x1="114.6" y1="169.3" x2="114.6" y2="209.3"/>
<line x1="114.6" y1="169.3" x2="149.3" y2="149.3"/>
<line x1="114.6" y1="209.3" x2="80.0" y2="229.3"/>
<line x1="149.3" y1="149.3" x2="149.3" y2="109.3"/>
<line x1="269.3" y1="109.3" x2="249.3" y2="74.6"/>
<line x1="269.3" y1="109.3" x2="309.3" y2="109.3"/>
<line x1="249.3" y1="74.6" x2="209.3" y2="74.6"/>
<line x1="369.5" y1="208.9" x2="369.5" y2="209.7"/>
<line x1="365.5" y1="208.5" x2="365.5" y2="210.1"/>
<line x1="361.5" y1="208.1" x2="361.5" y2="210.5"/>
<line x1="357.5" y1="207.7" x2="357.5" y2="210.9"/>
<line x1="353.5" y1="207.3" x2="353.5" y2="211.3"/>
<line x1="349.5" y1="206.9" x2="349.5" y2="211.7"/>
<line x1="345.5" y1="206.5" x2="345.5" y2="212.1"/>
<line x1="343.9" y1="209.3" x2="343.9" y2="169.3"/>
<line x1="343.9" y1="209.3" x2="358.7" y2="234.9"/>
<polygon points="53.200000 229.282032 80.000000 233.282032 80.000000 225.282032 " />
<line x1="80.0" y1="229.3" x2="80.0" y2="269.3"/>
<line x1="80.0" y1="229.3" x2="65.2" y2="203.6"/>
<polygon points="149.282032 82.482032 145.282032 109.282032 153.282032 109.282032 " />
<line x1="149.3" y1="109.3" x2="109.3" y2="109.3"/>
<line x1="149.3" y1="109.3" x2="178.9" y2="109.3"/>
<line x1="334.9" y1="108.9" x2="334.9" y2="109.7"/>
<line x1="330.9" y1="108.5" x2="330.9" y2="110.1"/>
<line x1="326.9" y1="108.1" x2="326.9" y2="110.5"/>
<line x1="322.9" y1="107.7" x2="322.9" y2="110.9"/>
<line x1="318.9" y1="107.3" x2="318.9" y2="111.3"/>
<line x1="314.9" y1="106.9" x2="314.9" y2="111.7"/>
<line x1="310.9" y1="106.5" x2="310.9" y2="112.1"/>
<line x1="309.3" y1="109.3" x2="309.3" y2="69.3"/>
<line x1="309.3" y1="109.3" x2="309.3" y2="138.9"/>
<line x1="211.9" y1="76.1" x2="197.1" y2="101.8"/>
<line x1="206.7" y1="73.1" x2="191.9" y2="98.8"/>
<line x1="209.3" y1="74.6" x2="194.5" y2="49.0"/>
<line x1="342.4" y1="171.9" x2="316.8" y2="157.1"/>
<line x1="345.4" y1="166.7" x2="319.8" y2="151.9"/>
<line x1="343.9" y1="169.3" x2="369.6" y2="154.5"/>
<line x1="81.5" y1="266.7" x2="107.1" y2="281.5"/>
<line x1="78.5" y1="271.9" x2="104.1" y2="286.7"/>
<line x1="80.0" y1="269.3" x2="54.4" y2="284.1"/>
<line x1="111.9" y1="110.8" x2="97.1" y2="136.4"/>
<line x1="106.7" y1="107.8" x2="91.9" y2="133.4"/>
<line x1="109.3" y1="109.3" x2="94.5" y2="83.6"/>
<line x1="307.8" y1="71.9" x2="282.1" y2="57.1"/>
<line x1="310.8" y1="66.7" x2="285.1" y2="51.9"/>
<line x1="309.3" y1="69.3" x2="334.9" y2="54.5"/>
<text x="285.682032" y="234.082032" fill="rgb(102,102,102)"  stroke="rgb(102,102,102)" stroke-width="1" font-size="16" >H</text>
<text x="297.682032" y="238.882032" fill="rgb(102,102,102)"  stroke="rgb(102,102,102)" stroke-width="1" font-size="13" >3</text>
<text x="304.182032" y="234.082032" fill="rgb(102,102,102)"  stroke="rgb(102,102,102)" stroke-width="1" font-size="16" >C</text>
<text x="357.923048" y="248.723048" fill="rgb(12,12,255)"  stroke="rgb(12,12,255)" stroke-width="1" font-size="16" >NH</text>
<text x="381.923048" y="253.523048" fill="rgb(12,12,255)"  stroke="rgb(12,12,255)" stroke-width="1" font-size="13" >2</text>
<text x="36.400000" y="202.961016" fill="rgb(12,12,255)"  stroke="rgb(12,12,255)" stroke-width="1" font-size="16" >H</text>
<text x="48.400000" y="210.641016" fill="rgb(12,12,255)"  stroke="rgb(12,12,255)" stroke-width="1" font-size="13" >2</text>
<text x="54.900000" y="202.961016" fill="rgb(12,12,255)"  stroke="rgb(12,12,255)" stroke-width="1" font-size="16" >N</text>
<text x="183.282032" y="114.082032" fill="rgb(12,12,255)"  stroke="rgb(12,12,255)" stroke-width="1" font-size="16" >N</text>
<text x="305.682032" y="154.082032" fill="rgb(12,12,255)"  stroke="rgb(12,12,255)" stroke-width="1" font-size="16" >N</text>
<text x="184.482032" y="33.600000" fill="rgb(255,12,12)"  stroke="rgb(255,12,12)" stroke-width="1" font-size="32" >-</text>
<text x="185.682032" y="48.320000" fill="rgb(255,12,12)"  stroke="rgb(255,12,12)" stroke-width="1" font-size="16" >O</text>
<text x="372.564065" y="157.602032" fill="rgb(255,12,12)"  stroke="rgb(255,12,12)" stroke-width="1" font-size="16" >OH</text>
<text x="108.641016" y="294.082032" fill="rgb(255,12,12)"  stroke="rgb(255,12,12)" stroke-width="1" font-size="16" >O</text>
<text x="29.758984" y="294.082032" fill="rgb(255,12,12)"  stroke="rgb(255,12,12)" stroke-width="1" font-size="16" >HO</text>
<text x="85.682032" y="148.723048" fill="rgb(255,12,12)"  stroke="rgb(255,12,12)" stroke-width="1" font-size="16" >O</text>
<text x="73.682032" y="82.961016" fill="rgb(255,12,12)"  stroke="rgb(255,12,12)" stroke-width="1" font-size="16" >HO</text>
<text x="271.041016" y="57.602032" fill="rgb(255,12,12)"  stroke="rgb(255,12,12)" stroke-width="1" font-size="16" >O</text>
<text x="337.923048" y="57.602032" fill="rgb(255,12,12)"  stroke="rgb(255,12,12)" stroke-width="1" font-size="16" >OH</text>
<text x="377.923048" y="214.082032" fill="rgb(191,191,191)"  stroke="rgb(191,191,191)" stroke-width="1" font-size="16" >H</text>
<text x="36.400000" y="237.602032" fill="rgb(191,191,191)"  stroke="rgb(191,191,191)" stroke-width="1" font-size="16" >H</text>
<text x="143.282032" y="77.602032" fill="rgb(191,191,191)"  stroke="rgb(191,191,191)" stroke-width="1" font-size="16" >H</text>
<text x="343.282032" y="114.082032" fill="rgb(191,191,191)"  stroke="rgb(191,191,191)" stroke-width="1" font-size="16" >H</text>
<text font-size="18.000000" fill ="black" font-family="sans-serif"
x="140.000000" y="20.000000" ></text>
<title> - OBDepict</title>
</svg>
