<?xml version="1.0"?>
<svg xmlns="http://www.w3.org/2000/svg"
xmlns:xlink="http://www.w3.org/1999/xlink" xmlns:cml="http://www.xml-cml.org/schema" width="223.923" height="154.641" x="0" y="0" font-family="sans-serif" stroke="rgb(0,0,0)" stroke-width="1" >
<line x1="143.9" y1="50.4" x2="143.9" y2="80.0"/>
<line x1="109.3" y1="100.0" x2="74.6" y2="80.0"/>
<line x1="109.3" y1="100.0" x2="143.9" y2="80.0"/>
<line x1="76.1" y1="82.6" x2="50.5" y2="97.4"/>
<line x1="73.1" y1="77.4" x2="47.5" y2="92.2"/>
<line x1="157.1" y1="102.0" x2="156.4" y2="102.4"/>
<line x1="155.4" y1="98.3" x2="154.0" y2="99.1"/>
<line x1="153.8" y1="94.6" x2="151.7" y2="95.8"/>
<line x1="152.1" y1="91.0" x2="149.3" y2="92.6"/>
<line x1="150.5" y1="87.3" x2="147.0" y2="89.3"/>
<line x1="148.8" y1="83.6" x2="144.6" y2="86.0"/>
<line x1="147.1" y1="80.0" x2="142.3" y2="82.8"/>
<line x1="143.9" y1="80.0" x2="173.5" y2="80.0"/>
<text x="137.923048" y="48.320000" fill="rgb(102,102,102)"  stroke="rgb(102,102,102)" stroke-width="1" font-size="16" >CH</text>
<text x="161.923048" y="56.000000" fill="rgb(102,102,102)"  stroke="rgb(102,102,102)" stroke-width="1" font-size="13" >3</text>
<text x="36.400000" y="104.800000" fill="rgb(255,12,12)"  stroke="rgb(255,12,12)" stroke-width="1" font-size="16" >O</text>
<text x="177.923048" y="84.800000" fill="rgb(255,12,12)"  stroke="rgb(255,12,12)" stroke-width="1" font-size="16" >OH</text>
<text x="157.923048" y="119.441016" fill="rgb(191,191,191)"  stroke="rgb(191,191,191)" stroke-width="1" font-size="16" >H</text>
<text font-size="18.000000" fill ="black" font-family="sans-serif"
x="140.000000" y="20.000000" ></text>
<title> - OBDepict</title>
</svg>
