<?xml version="1.0"?>
<svg xmlns="http://www.w3.org/2000/svg"
xmlns:xlink="http://www.w3.org/1999/xlink" xmlns:cml="http://www.xml-cml.org/schema" width="340.11" height="283.148" x="0" y="0" font-family="sans-serif" stroke="rgb(0,0,0)" stroke-width="1" >
<polygon points="99.4311 88.6649 113.61 66.6531 106.302 63.3992 " />
<line x1="300.1" y1="233.1" x2="300.1" y2="214.6"/>
<line x1="166.3" y1="127.3" x2="191.1" y2="113.0"/>
<line x1="132.9" y1="146.6" x2="83.4" y2="175.2"/>
<line x1="99.4" y1="127.3" x2="111.1" y2="153.4"/>
<line x1="266.7" y1="146.6" x2="291.4" y2="132.3"/>
<line x1="266.7" y1="185.2" x2="291.4" y2="199.5"/>
<line x1="59.8" y1="77.7" x2="51.0" y2="50.5"/>
<line x1="65.6" y1="75.8" x2="56.7" y2="48.6"/>
<line x1="99.4" y1="127.3" x2="62.7" y2="139.2"/>
<line x1="62.7" y1="139.2" x2="40.0" y2="108.0"/>
<line x1="40.0" y1="108.0" x2="62.7" y2="76.7"/>
<line x1="62.7" y1="76.7" x2="99.4" y2="88.7"/>
<line x1="99.4" y1="88.7" x2="99.4" y2="127.3"/>
<line x1="132.9" y1="185.2" x2="166.3" y2="204.5"/>
<line x1="166.3" y1="204.5" x2="199.8" y2="185.2"/>
<line x1="199.8" y1="185.2" x2="199.8" y2="146.6"/>
<line x1="199.8" y1="146.6" x2="166.3" y2="127.3"/>
<line x1="166.3" y1="127.3" x2="132.9" y2="146.6"/>
<line x1="132.9" y1="146.6" x2="132.9" y2="185.2"/>
<line x1="233.2" y1="204.5" x2="266.7" y2="185.2"/>
<line x1="266.7" y1="185.2" x2="266.7" y2="146.6"/>
<line x1="259.5" y1="179.2" x2="259.5" y2="152.6"/>
<line x1="266.7" y1="146.6" x2="233.2" y2="127.3"/>
<line x1="233.2" y1="127.3" x2="199.8" y2="146.6"/>
<line x1="231.6" y1="136.5" x2="208.6" y2="149.8"/>
<line x1="199.8" y1="185.2" x2="233.2" y2="204.5"/>
<line x1="208.6" y1="182.0" x2="231.6" y2="195.3"/>
<line x1="99.4" y1="127.3" x2="132.9" y2="146.6"/>
<line x1="166.3" y1="127.3" x2="166.3" y2="88.7"/>
<line x1="166.3" y1="88.7" x2="132.9" y2="69.4"/>
<line x1="132.9" y1="69.4" x2="99.4" y2="88.7"/>
<text x="109.139580" y="61.703152" fill="rgb(102,102,102)"  stroke="rgb(102,102,102)" stroke-width="1" font-size="16" >CH</text>
<text x="133.139580" y="69.383152" fill="rgb(102,102,102)"  stroke="rgb(102,102,102)" stroke-width="1" font-size="13" >3</text>
<text x="294.110120" y="247.947667" fill="rgb(102,102,102)"  stroke="rgb(102,102,102)" stroke-width="1" font-size="16" >CH</text>
<text x="318.110120" y="252.747667" fill="rgb(102,102,102)"  stroke="rgb(102,102,102)" stroke-width="1" font-size="13" >3</text>
<text x="294.110120" y="135.605598" fill="rgb(255,12,12)"  stroke="rgb(255,12,12)" stroke-width="1" font-size="16" >OH</text>
<text x="47.166222" y="48.320000" fill="rgb(255,12,12)"  stroke="rgb(255,12,12)" stroke-width="1" font-size="16" >O</text>
<text x="294.110120" y="212.846977" fill="rgb(255,12,12)"  stroke="rgb(255,12,12)" stroke-width="1" font-size="16" >O</text>
<text x="193.770625" y="116.295253" fill="rgb(191,191,191)"  stroke="rgb(191,191,191)" stroke-width="1" font-size="16" >H</text>
<text x="62.384632" y="190.016632" fill="rgb(191,191,191)"  stroke="rgb(191,191,191)" stroke-width="1" font-size="16" >H</text>
<text x="109.139580" y="167.367353" fill="rgb(191,191,191)"  stroke="rgb(191,191,191)" stroke-width="1" font-size="16" >H</text>
<text font-size="18.000000" fill ="black" font-family="sans-serif"
x="140.000000" y="20.000000" ></text>
<title> - OBDepict</title>
</svg>
