<?xml version="1.0"?>
<svg xmlns="http://www.w3.org/2000/svg"
xmlns:xlink="http://www.w3.org/1999/xlink" xmlns:cml="http://www.xml-cml.org/schema" width="703.538" height="840" x="0" y="0" font-family="sans-serif" stroke="rgb(0,0,0)" stroke-width="1" >
<line x1="654.5" y1="745.2" x2="628.9" y2="760.0"/>
<line x1="628.9" y1="789.6" x2="628.9" y2="760.0"/>
<line x1="550.6" y1="685.2" x2="525.0" y2="700.0"/>
<line x1="481.3" y1="565.2" x2="455.7" y2="580.0"/>
<line x1="412.0" y1="445.2" x2="386.4" y2="460.0"/>
<line x1="342.8" y1="325.2" x2="317.1" y2="340.0"/>
<line x1="273.5" y1="205.2" x2="247.8" y2="220.0"/>
<line x1="204.2" y1="85.2" x2="178.6" y2="100.0"/>
<line x1="49.0" y1="145.2" x2="65.6" y2="154.8"/>
<line x1="559.6" y1="760.0" x2="594.3" y2="740.0"/>
<line x1="559.6" y1="760.0" x2="525.0" y2="740.0"/>
<line x1="490.3" y1="640.0" x2="490.3" y2="680.0"/>
<line x1="490.3" y1="640.0" x2="455.7" y2="620.0"/>
<line x1="421.1" y1="520.0" x2="421.1" y2="560.0"/>
<line x1="421.1" y1="520.0" x2="386.4" y2="500.0"/>
<line x1="351.8" y1="400.0" x2="351.8" y2="440.0"/>
<line x1="351.8" y1="400.0" x2="317.1" y2="380.0"/>
<line x1="282.5" y1="280.0" x2="282.5" y2="320.0"/>
<line x1="282.5" y1="280.0" x2="247.8" y2="260.0"/>
<line x1="595.8" y1="737.4" x2="630.4" y2="757.4"/>
<line x1="592.8" y1="742.6" x2="627.4" y2="762.6"/>
<line x1="525.0" y1="740.0" x2="525.0" y2="700.0"/>
<line x1="490.3" y1="680.0" x2="464.7" y2="694.8"/>
<line x1="491.8" y1="677.4" x2="526.5" y2="697.4"/>
<line x1="488.8" y1="682.6" x2="523.5" y2="702.6"/>
<line x1="455.7" y1="620.0" x2="455.7" y2="580.0"/>
<line x1="421.1" y1="560.0" x2="395.4" y2="574.8"/>
<line x1="422.6" y1="557.4" x2="457.2" y2="577.4"/>
<line x1="419.6" y1="562.6" x2="454.2" y2="582.6"/>
<line x1="386.4" y1="500.0" x2="386.4" y2="460.0"/>
<line x1="351.8" y1="440.0" x2="326.1" y2="454.8"/>
<line x1="353.3" y1="437.4" x2="387.9" y2="457.4"/>
<line x1="350.3" y1="442.6" x2="384.9" y2="462.6"/>
<line x1="317.1" y1="380.0" x2="317.1" y2="340.0"/>
<line x1="282.5" y1="320.0" x2="256.9" y2="334.8"/>
<line x1="284.0" y1="317.4" x2="318.6" y2="337.4"/>
<line x1="281.0" y1="322.6" x2="315.6" y2="342.6"/>
<line x1="247.8" y1="260.0" x2="247.8" y2="220.0"/>
<line x1="213.2" y1="200.0" x2="187.6" y2="214.8"/>
<line x1="213.2" y1="200.0" x2="213.2" y2="160.0"/>
<line x1="214.7" y1="197.4" x2="249.3" y2="217.4"/>
<line x1="211.7" y1="202.6" x2="246.3" y2="222.6"/>
<line x1="213.2" y1="160.0" x2="178.6" y2="140.0"/>
<line x1="143.9" y1="80.0" x2="143.9" y2="50.4"/>
<line x1="143.9" y1="160.0" x2="143.9" y2="189.6"/>
<line x1="109.3" y1="100.0" x2="83.6" y2="85.2"/>
<line x1="109.3" y1="140.0" x2="83.6" y2="154.8"/>
<line x1="178.6" y1="100.0" x2="143.9" y2="80.0"/>
<line x1="143.9" y1="80.0" x2="109.3" y2="100.0"/>
<line x1="142.3" y1="89.2" x2="118.1" y2="103.2"/>
<line x1="109.3" y1="100.0" x2="109.3" y2="140.0"/>
<line x1="109.3" y1="140.0" x2="143.9" y2="160.0"/>
<line x1="118.1" y1="136.8" x2="142.3" y2="150.8"/>
<line x1="143.9" y1="160.0" x2="178.6" y2="140.0"/>
<line x1="178.6" y1="140.0" x2="178.6" y2="100.0"/>
<line x1="171.4" y1="134.0" x2="171.4" y2="106.0"/>
<text x="657.538291" y="748.320000" fill="rgb(102,102,102)"  stroke="rgb(102,102,102)" stroke-width="1" font-size="16" >CH</text>
<text x="681.538291" y="756.000000" fill="rgb(102,102,102)"  stroke="rgb(102,102,102)" stroke-width="1" font-size="13" >3</text>
<text x="622.897275" y="804.800000" fill="rgb(102,102,102)"  stroke="rgb(102,102,102)" stroke-width="1" font-size="16" >CH</text>
<text x="646.897275" y="809.600000" fill="rgb(102,102,102)"  stroke="rgb(102,102,102)" stroke-width="1" font-size="13" >3</text>
<text x="553.615242" y="688.320000" fill="rgb(102,102,102)"  stroke="rgb(102,102,102)" stroke-width="1" font-size="16" >CH</text>
<text x="577.615242" y="696.000000" fill="rgb(102,102,102)"  stroke="rgb(102,102,102)" stroke-width="1" font-size="13" >3</text>
<text x="484.333210" y="568.320000" fill="rgb(102,102,102)"  stroke="rgb(102,102,102)" stroke-width="1" font-size="16" >CH</text>
<text x="508.333210" y="576.000000" fill="rgb(102,102,102)"  stroke="rgb(102,102,102)" stroke-width="1" font-size="13" >3</text>
<text x="415.051178" y="448.320000" fill="rgb(102,102,102)"  stroke="rgb(102,102,102)" stroke-width="1" font-size="16" >CH</text>
<text x="439.051178" y="456.000000" fill="rgb(102,102,102)"  stroke="rgb(102,102,102)" stroke-width="1" font-size="13" >3</text>
<text x="345.769145" y="328.320000" fill="rgb(102,102,102)"  stroke="rgb(102,102,102)" stroke-width="1" font-size="16" >CH</text>
<text x="369.769145" y="336.000000" fill="rgb(102,102,102)"  stroke="rgb(102,102,102)" stroke-width="1" font-size="13" >3</text>
<text x="276.487113" y="208.320000" fill="rgb(102,102,102)"  stroke="rgb(102,102,102)" stroke-width="1" font-size="16" >CH</text>
<text x="300.487113" y="216.000000" fill="rgb(102,102,102)"  stroke="rgb(102,102,102)" stroke-width="1" font-size="13" >3</text>
<text x="207.205081" y="88.320000" fill="rgb(102,102,102)"  stroke="rgb(102,102,102)" stroke-width="1" font-size="16" >CH</text>
<text x="231.205081" y="96.000000" fill="rgb(102,102,102)"  stroke="rgb(102,102,102)" stroke-width="1" font-size="13" >3</text>
<text x="16.400000" y="148.320000" fill="rgb(102,102,102)"  stroke="rgb(102,102,102)" stroke-width="1" font-size="16" >H</text>
<text x="28.400000" y="156.000000" fill="rgb(102,102,102)"  stroke="rgb(102,102,102)" stroke-width="1" font-size="13" >3</text>
<text x="34.900000" y="148.320000" fill="rgb(102,102,102)"  stroke="rgb(102,102,102)" stroke-width="1" font-size="16" >C</text>
<text x="137.923048" y="48.320000" fill="rgb(255,12,12)"  stroke="rgb(255,12,12)" stroke-width="1" font-size="16" >OH</text>
<text x="137.923048" y="204.800000" fill="rgb(255,12,12)"  stroke="rgb(255,12,12)" stroke-width="1" font-size="16" >OH</text>
<text x="59.041016" y="88.320000" fill="rgb(255,12,12)"  stroke="rgb(255,12,12)" stroke-width="1" font-size="16" >HO</text>
<text x="68.641016" y="164.800000" fill="rgb(255,12,12)"  stroke="rgb(255,12,12)" stroke-width="1" font-size="16" >O</text>
<text x="452.092194" y="704.800000" fill="rgb(191,191,191)"  stroke="rgb(191,191,191)" stroke-width="1" font-size="16" >H</text>
<text x="382.810162" y="584.800000" fill="rgb(191,191,191)"  stroke="rgb(191,191,191)" stroke-width="1" font-size="16" >H</text>
<text x="313.528129" y="464.800000" fill="rgb(191,191,191)"  stroke="rgb(191,191,191)" stroke-width="1" font-size="16" >H</text>
<text x="244.246097" y="344.800000" fill="rgb(191,191,191)"  stroke="rgb(191,191,191)" stroke-width="1" font-size="16" >H</text>
<text x="174.964065" y="224.800000" fill="rgb(191,191,191)"  stroke="rgb(191,191,191)" stroke-width="1" font-size="16" >H</text>
<text font-size="18.000000" fill ="black" font-family="sans-serif"
x="140.000000" y="20.000000" ></text>
<title> - OBDepict</title>
</svg>
