<?xml version="1.0"?>
<svg xmlns="http://www.w3.org/2000/svg"
xmlns:xlink="http://www.w3.org/1999/xlink" xmlns:cml="http://www.xml-cml.org/schema" width="391.668" height="296.863" x="0" y="0" font-family="sans-serif" stroke="rgb(0,0,0)" stroke-width="1" >
<line x1="154.7" y1="78.7" x2="147.6" y2="105.1"/>
<line x1="148.9" y1="77.2" x2="141.8" y2="103.6"/>
<line x1="81.7" y1="242.0" x2="99.4" y2="242.0"/>
<line x1="144.7" y1="104.4" x2="109.0" y2="113.9"/>
<line x1="191.5" y1="109.0" x2="127.5" y2="145.9"/>
<line x1="191.5" y1="109.0" x2="223.5" y2="127.4"/>
<polygon points="93.908020 94.284609 105.818039 116.368658 112.163895 111.497302 " />
<polygon points="148.936366 158.327139 129.481744 142.481905 125.483125 149.410906 " />
<line x1="109.0" y1="178.0" x2="127.5" y2="210.0"/>
<polygon points="201.020100 140.428703 225.528969 130.906919 221.531190 123.977434 " />
<line x1="127.5" y1="207.0" x2="154.9" y2="207.0"/>
<line x1="127.5" y1="213.0" x2="154.9" y2="213.0"/>
<line x1="127.5" y1="210.0" x2="113.8" y2="233.7"/>
<line x1="71.6" y1="66.6" x2="72.4" y2="66.6"/>
<line x1="71.2" y1="74.0" x2="72.8" y2="74.0"/>
<line x1="70.8" y1="81.4" x2="73.2" y2="81.4"/>
<line x1="70.4" y1="88.8" x2="73.6" y2="88.8"/>
<line x1="70.0" y1="96.2" x2="74.0" y2="96.2"/>
<line x1="69.6" y1="103.6" x2="74.4" y2="103.6"/>
<line x1="69.2" y1="111.0" x2="74.8" y2="111.0"/>
<line x1="72.0" y1="113.9" x2="48.3" y2="100.3"/>
<line x1="255.6" y1="145.9" x2="287.6" y2="127.4"/>
<line x1="264.4" y1="149.2" x2="286.0" y2="136.7"/>
<line x1="287.6" y1="127.4" x2="319.6" y2="182.9"/>
<line x1="319.6" y1="182.9" x2="287.6" y2="201.4"/>
<line x1="287.6" y1="201.4" x2="263.9" y2="187.7"/>
<line x1="255.6" y1="173.3" x2="255.6" y2="145.9"/>
<line x1="351.7" y1="201.4" x2="351.7" y2="238.4"/>
<line x1="351.7" y1="238.4" x2="319.6" y2="256.9"/>
<line x1="342.9" y1="235.1" x2="321.2" y2="247.6"/>
<line x1="319.6" y1="256.9" x2="287.6" y2="238.4"/>
<line x1="287.6" y1="238.4" x2="287.6" y2="201.4"/>
<line x1="294.8" y1="232.4" x2="294.8" y2="207.4"/>
<line x1="319.6" y1="182.9" x2="351.7" y2="201.4"/>
<line x1="321.2" y1="192.1" x2="342.9" y2="204.6"/>
<line x1="231.9" y1="85.7" x2="255.6" y2="72.0"/>
<line x1="255.6" y1="72.0" x2="287.6" y2="90.4"/>
<line x1="287.6" y1="90.4" x2="287.6" y2="127.4"/>
<line x1="255.6" y1="145.9" x2="223.5" y2="127.4"/>
<line x1="223.5" y1="127.4" x2="223.5" y2="100.1"/>
<line x1="109.0" y1="113.9" x2="127.5" y2="145.9"/>
<line x1="127.5" y1="145.9" x2="109.0" y2="178.0"/>
<line x1="109.0" y1="178.0" x2="72.0" y2="178.0"/>
<line x1="103.0" y1="170.8" x2="78.0" y2="170.8"/>
<line x1="72.0" y1="178.0" x2="58.3" y2="154.3"/>
<line x1="58.3" y1="137.6" x2="72.0" y2="113.9"/>
<line x1="72.0" y1="113.9" x2="109.0" y2="113.9"/>
<text x="148.260974" y="76.964926" fill="rgb(102,102,102)"  stroke="rgb(102,102,102)" stroke-width="1" font-size="16" >CH</text>
<text x="172.260974" y="84.644926" fill="rgb(102,102,102)"  stroke="rgb(102,102,102)" stroke-width="1" font-size="13" >2</text>
<text x="48.446316" y="246.808786" fill="rgb(102,102,102)"  stroke="rgb(102,102,102)" stroke-width="1" font-size="16" >H</text>
<text x="60.446316" y="251.608786" fill="rgb(102,102,102)"  stroke="rgb(102,102,102)" stroke-width="1" font-size="13" >3</text>
<text x="66.946316" y="246.808786" fill="rgb(102,102,102)"  stroke="rgb(102,102,102)" stroke-width="1" font-size="16" >C</text>
<text x="218.724949" y="84.072003" fill="rgb(12,12,255)"  stroke="rgb(12,12,255)" stroke-width="1" font-size="16" >+</text>
<text x="199.924949" y="98.792003" fill="rgb(12,12,255)"  stroke="rgb(12,12,255)" stroke-width="1" font-size="16" >H</text>
<text x="211.924949" y="106.472003" fill="rgb(12,12,255)"  stroke="rgb(12,12,255)" stroke-width="1" font-size="13" >2</text>
<text x="218.424949" y="98.792003" fill="rgb(12,12,255)"  stroke="rgb(12,12,255)" stroke-width="1" font-size="16" >N</text>
<text x="239.976345" y="187.722400" fill="rgb(12,12,255)"  stroke="rgb(12,12,255)" stroke-width="1" font-size="16" >HN</text>
<text x="158.465369" y="218.293257" fill="rgb(255,12,12)"  stroke="rgb(255,12,12)" stroke-width="1" font-size="16" >O</text>
<text x="24.400000" y="103.781641" fill="rgb(255,12,12)"  stroke="rgb(255,12,12)" stroke-width="1" font-size="16" >HO</text>
<text x="103.016490" y="246.801418" fill="rgb(255,12,12)"  stroke="rgb(255,12,12)" stroke-width="1" font-size="16" >O</text>
<text x="49.942087" y="150.761141" fill="rgb(255,12,12)"  stroke="rgb(255,12,12)" stroke-width="1" font-size="16" >O</text>
<text x="82.879106" y="92.927054" fill="rgb(191,191,191)"  stroke="rgb(191,191,191)" stroke-width="1" font-size="16" >H</text>
<text x="153.503228" y="169.225112" fill="rgb(191,191,191)"  stroke="rgb(191,191,191)" stroke-width="1" font-size="16" >H</text>
<text x="186.333095" y="151.625052" fill="rgb(191,191,191)"  stroke="rgb(191,191,191)" stroke-width="1" font-size="16" >H</text>
<text x="66.006058" y="48.320000" fill="rgb(191,191,191)"  stroke="rgb(191,191,191)" stroke-width="1" font-size="16" >H</text>
<text font-size="18.000000" fill ="black" font-family="sans-serif"
x="140.000000" y="20.000000" ></text>
<title> - OBDepict</title>
</svg>
