<?xml version="1.0"?>
<svg xmlns="http://www.w3.org/2000/svg"
xmlns:xlink="http://www.w3.org/1999/xlink" xmlns:cml="http://www.xml-cml.org/schema" width="386.452" height="274.68" x="0" y="0" font-family="sans-serif" stroke="rgb(0,0,0)" stroke-width="1" >
<line x1="85.8" y1="181.0" x2="80.0" y2="163.3"/>
<line x1="133.3" y1="141.7" x2="99.7" y2="122.3"/>
<line x1="121.0" y1="109.5" x2="121.4" y2="110.2"/>
<line x1="117.4" y1="111.1" x2="118.2" y2="112.5"/>
<line x1="113.9" y1="112.7" x2="115.1" y2="114.8"/>
<line x1="110.3" y1="114.3" x2="111.9" y2="117.1"/>
<line x1="106.8" y1="115.9" x2="108.8" y2="119.4"/>
<line x1="103.2" y1="117.5" x2="105.6" y2="121.6"/>
<line x1="99.6" y1="119.1" x2="102.4" y2="123.9"/>
<line x1="305.0" y1="80.8" x2="305.8" y2="81.0"/>
<line x1="303.6" y1="84.5" x2="305.1" y2="84.9"/>
<line x1="302.2" y1="88.1" x2="304.5" y2="88.7"/>
<line x1="300.8" y1="91.7" x2="303.9" y2="92.6"/>
<line x1="299.4" y1="95.4" x2="303.3" y2="96.4"/>
<line x1="298.0" y1="99.0" x2="302.7" y2="100.3"/>
<line x1="296.6" y1="102.7" x2="302.1" y2="104.1"/>
<line x1="298.9" y1="104.9" x2="326.7" y2="97.5"/>
<polygon points="334.088353 135.633442 307.950713 138.495897 310.021265 146.223303 " />
<line x1="309.0" y1="142.4" x2="329.3" y2="162.7"/>
<polygon points="224.728323 58.101934 258.652307 97.682771 264.309161 92.025917 " />
<line x1="261.5" y1="94.9" x2="268.9" y2="67.1"/>
<line x1="299.4" y1="187.1" x2="298.8" y2="187.6"/>
<line x1="296.9" y1="184.0" x2="295.8" y2="185.2"/>
<line x1="294.5" y1="181.0" x2="292.8" y2="182.7"/>
<line x1="292.0" y1="178.0" x2="289.8" y2="180.2"/>
<line x1="289.6" y1="175.0" x2="286.7" y2="177.8"/>
<line x1="287.1" y1="171.9" x2="283.7" y2="175.3"/>
<line x1="284.6" y1="168.9" x2="280.7" y2="172.9"/>
<line x1="281.6" y1="169.8" x2="271.5" y2="207.3"/>
<polygon points="230.661463 96.515967 230.087782 122.803621 238.019341 121.759412 " />
<line x1="234.1" y1="122.3" x2="209.2" y2="136.6"/>
<line x1="272.3" y1="210.2" x2="244.6" y2="217.6"/>
<line x1="270.7" y1="204.4" x2="243.0" y2="211.8"/>
<line x1="271.5" y1="207.3" x2="291.8" y2="227.5"/>
<line x1="40.0" y1="141.7" x2="40.0" y2="102.9"/>
<line x1="40.0" y1="102.9" x2="76.9" y2="90.9"/>
<line x1="76.9" y1="90.9" x2="99.7" y2="122.3"/>
<line x1="99.7" y1="122.3" x2="82.8" y2="145.5"/>
<line x1="67.3" y1="150.5" x2="40.0" y2="141.7"/>
<line x1="166.9" y1="199.9" x2="200.5" y2="180.5"/>
<line x1="200.5" y1="180.5" x2="200.5" y2="151.8"/>
<line x1="193.3" y1="174.5" x2="193.3" y2="153.9"/>
<line x1="191.7" y1="136.6" x2="166.9" y2="122.3"/>
<line x1="166.9" y1="122.3" x2="133.3" y2="141.7"/>
<line x1="165.3" y1="131.5" x2="142.1" y2="144.9"/>
<line x1="133.3" y1="141.7" x2="133.3" y2="180.5"/>
<line x1="133.3" y1="180.5" x2="166.9" y2="199.9"/>
<line x1="142.1" y1="177.2" x2="165.3" y2="190.6"/>
<line x1="298.9" y1="104.9" x2="309.0" y2="142.4"/>
<line x1="309.0" y1="142.4" x2="281.6" y2="169.8"/>
<line x1="281.6" y1="169.8" x2="253.8" y2="162.4"/>
<line x1="241.5" y1="150.0" x2="234.1" y2="122.3"/>
<line x1="234.1" y1="122.3" x2="261.5" y2="94.9"/>
<line x1="261.5" y1="94.9" x2="298.9" y2="104.9"/>
<text x="82.875579" y="195.351034" fill="rgb(102,102,102)"  stroke="rgb(102,102,102)" stroke-width="1" font-size="16" >CH</text>
<text x="106.875579" y="200.151034" fill="rgb(102,102,102)"  stroke="rgb(102,102,102)" stroke-width="1" font-size="13" >3</text>
<text x="70.889465" y="158.461569" fill="rgb(12,12,255)"  stroke="rgb(12,12,255)" stroke-width="1" font-size="16" >N</text>
<text x="195.662273" y="160.875456" fill="rgb(12,12,255)"  stroke="rgb(12,12,255)" stroke-width="1" font-size="16" >+</text>
<text x="194.462273" y="146.475456" fill="rgb(12,12,255)"  stroke="rgb(12,12,255)" stroke-width="1" font-size="16" >N</text>
<text x="330.413161" y="103.174344" fill="rgb(255,12,12)"  stroke="rgb(255,12,12)" stroke-width="1" font-size="16" >OH</text>
<text x="330.413161" y="174.586772" fill="rgb(255,12,12)"  stroke="rgb(255,12,12)" stroke-width="1" font-size="16" >OH</text>
<text x="265.519775" y="65.708130" fill="rgb(255,12,12)"  stroke="rgb(255,12,12)" stroke-width="1" font-size="16" >OH</text>
<text x="230.453562" y="222.092028" fill="rgb(255,12,12)"  stroke="rgb(255,12,12)" stroke-width="1" font-size="16" >O</text>
<text x="294.146948" y="253.880158" fill="rgb(255,12,12)"  stroke="rgb(255,12,12)" stroke-width="1" font-size="32" >-</text>
<text x="292.946948" y="239.480158" fill="rgb(255,12,12)"  stroke="rgb(255,12,12)" stroke-width="1" font-size="16" >O</text>
<text x="240.492603" y="164.547730" fill="rgb(255,12,12)"  stroke="rgb(255,12,12)" stroke-width="1" font-size="16" >O</text>
<text x="127.279696" y="111.207577" fill="rgb(191,191,191)"  stroke="rgb(191,191,191)" stroke-width="1" font-size="16" >H</text>
<text x="302.985989" y="75.747172" fill="rgb(191,191,191)"  stroke="rgb(191,191,191)" stroke-width="1" font-size="16" >H</text>
<text x="340.452203" y="140.640558" fill="rgb(191,191,191)"  stroke="rgb(191,191,191)" stroke-width="1" font-size="16" >H</text>
<text x="203.026389" y="48.320000" fill="rgb(191,191,191)"  stroke="rgb(191,191,191)" stroke-width="1" font-size="16" >H</text>
<text x="302.985989" y="202.013944" fill="rgb(191,191,191)"  stroke="rgb(191,191,191)" stroke-width="1" font-size="16" >H</text>
<text x="225.390727" y="92.145473" fill="rgb(191,191,191)"  stroke="rgb(191,191,191)" stroke-width="1" font-size="16" >H</text>
<text font-size="18.000000" fill ="black" font-family="sans-serif"
x="140.000000" y="20.000000" ></text>
<title> - OBDepict</title>
</svg>
