<?xml version="1.0"?>
<svg xmlns="http://www.w3.org/2000/svg"
xmlns:xlink="http://www.w3.org/1999/xlink" xmlns:cml="http://www.xml-cml.org/schema" width="275.7" height="252.916" x="0" y="0" font-family="sans-serif" stroke="rgb(0,0,0)" stroke-width="1" >
<line x1="188.7" y1="202.6" x2="196.0" y2="175.3"/>
<line x1="194.5" y1="204.1" x2="201.8" y2="176.9"/>
<line x1="226.1" y1="168.8" x2="198.9" y2="176.1"/>
<line x1="48.6" y1="144.2" x2="73.0" y2="130.1"/>
<line x1="186.1" y1="48.6" x2="172.0" y2="73.0"/>
<line x1="198.9" y1="176.1" x2="172.0" y2="149.2"/>
<polygon points="159.203871 50.887177 168.501674 74.991444 175.429877 70.991444 " />
<line x1="127.1" y1="168.2" x2="126.8" y2="167.5"/>
<line x1="134.3" y1="165.7" x2="133.6" y2="164.2"/>
<line x1="141.5" y1="163.1" x2="140.5" y2="160.9"/>
<line x1="148.6" y1="160.6" x2="147.4" y2="157.6"/>
<line x1="155.8" y1="158.0" x2="154.3" y2="154.3"/>
<line x1="163.0" y1="155.5" x2="161.2" y2="151.0"/>
<line x1="170.2" y1="152.9" x2="168.1" y2="147.8"/>
<line x1="138.6" y1="67.7" x2="139.4" y2="67.7"/>
<line x1="138.2" y1="71.5" x2="139.8" y2="71.5"/>
<line x1="137.8" y1="75.3" x2="140.2" y2="75.3"/>
<line x1="137.4" y1="79.1" x2="140.6" y2="79.1"/>
<line x1="137.0" y1="82.9" x2="141.0" y2="82.9"/>
<line x1="136.6" y1="86.7" x2="141.4" y2="86.7"/>
<line x1="136.2" y1="90.5" x2="141.8" y2="90.5"/>
<line x1="139.4" y1="154.5" x2="138.6" y2="154.5"/>
<line x1="139.8" y1="150.7" x2="138.2" y2="150.7"/>
<line x1="140.2" y1="146.9" x2="137.8" y2="146.9"/>
<line x1="140.6" y1="143.1" x2="137.4" y2="143.1"/>
<line x1="141.0" y1="139.3" x2="137.0" y2="139.3"/>
<line x1="141.4" y1="135.5" x2="136.6" y2="135.5"/>
<line x1="141.8" y1="131.7" x2="136.2" y2="131.7"/>
<line x1="205.0" y1="92.0" x2="205.0" y2="130.1"/>
<line x1="205.0" y1="130.1" x2="172.0" y2="149.2"/>
<line x1="172.0" y1="149.2" x2="139.0" y2="130.1"/>
<line x1="139.0" y1="130.1" x2="139.0" y2="92.0"/>
<line x1="139.0" y1="92.0" x2="172.0" y2="73.0"/>
<line x1="172.0" y1="73.0" x2="205.0" y2="92.0"/>
<line x1="106.0" y1="149.2" x2="73.0" y2="130.1"/>
<line x1="104.4" y1="139.9" x2="81.8" y2="126.9"/>
<line x1="73.0" y1="130.1" x2="73.0" y2="92.0"/>
<line x1="73.0" y1="92.0" x2="106.0" y2="73.0"/>
<line x1="106.0" y1="73.0" x2="139.0" y2="92.0"/>
<line x1="139.0" y1="130.1" x2="106.0" y2="149.2"/>
<text x="165.443404" y="217.716496" fill="rgb(102,102,102)"  stroke="rgb(102,102,102)" stroke-width="1" font-size="16" >H</text>
<text x="177.443404" y="222.516496" fill="rgb(102,102,102)"  stroke="rgb(102,102,102)" stroke-width="1" font-size="13" >2</text>
<text x="183.943404" y="217.716496" fill="rgb(102,102,102)"  stroke="rgb(102,102,102)" stroke-width="1" font-size="16" >C</text>
<text x="229.700351" y="174.579548" fill="rgb(102,102,102)"  stroke="rgb(102,102,102)" stroke-width="1" font-size="16" >CH</text>
<text x="253.700351" y="182.259548" fill="rgb(102,102,102)"  stroke="rgb(102,102,102)" stroke-width="1" font-size="13" >3</text>
<text x="16.400000" y="153.981920" fill="rgb(102,102,102)"  stroke="rgb(102,102,102)" stroke-width="1" font-size="16" >H</text>
<text x="28.400000" y="158.781920" fill="rgb(102,102,102)"  stroke="rgb(102,102,102)" stroke-width="1" font-size="13" >3</text>
<text x="34.900000" y="153.981920" fill="rgb(102,102,102)"  stroke="rgb(102,102,102)" stroke-width="1" font-size="16" >C</text>
<text x="185.013395" y="48.320000" fill="rgb(102,102,102)"  stroke="rgb(102,102,102)" stroke-width="1" font-size="16" >CH</text>
<text x="209.013395" y="56.000000" fill="rgb(102,102,102)"  stroke="rgb(102,102,102)" stroke-width="1" font-size="13" >3</text>
<text x="149.318157" y="48.320000" fill="rgb(191,191,191)"  stroke="rgb(191,191,191)" stroke-width="1" font-size="16" >H</text>
<text x="97.974954" y="183.138753" fill="rgb(191,191,191)"  stroke="rgb(191,191,191)" stroke-width="1" font-size="16" >H</text>
<text x="132.974332" y="62.263825" fill="rgb(191,191,191)"  stroke="rgb(191,191,191)" stroke-width="1" font-size="16" >H</text>
<text x="132.974332" y="173.029539" fill="rgb(191,191,191)"  stroke="rgb(191,191,191)" stroke-width="1" font-size="16" >H</text>
<text font-size="18.000000" fill ="black" font-family="sans-serif"
x="140.000000" y="20.000000" ></text>
<title> - OBDepict</title>
</svg>
