<?xml version="1.0"?>
<svg xmlns="http://www.w3.org/2000/svg"
xmlns:xlink="http://www.w3.org/1999/xlink" xmlns:cml="http://www.xml-cml.org/schema" width="525.578" height="482.616" x="0" y="0" font-family="sans-serif" stroke="rgb(0,0,0)" stroke-width="1" >
<line x1="197.3" y1="219.5" x2="177.8" y2="197.9"/>
<line x1="206.2" y1="191.9" x2="177.8" y2="197.9"/>
<line x1="61.0" y1="303.1" x2="90.2" y2="276.8"/>
<line x1="61.0" y1="303.1" x2="69.2" y2="341.5"/>
<line x1="90.2" y1="276.8" x2="84.2" y2="248.3"/>
<line x1="114.7" y1="392.0" x2="152.1" y2="404.2"/>
<line x1="114.7" y1="392.0" x2="108.7" y2="363.6"/>
<line x1="152.1" y1="404.2" x2="158.1" y2="432.6"/>
<line x1="313.1" y1="129.0" x2="321.2" y2="167.4"/>
<line x1="313.1" y1="129.0" x2="285.4" y2="120.0"/>
<line x1="169.6" y1="159.5" x2="177.8" y2="197.9"/>
<line x1="169.6" y1="159.5" x2="191.2" y2="140.0"/>
<polygon points="296.186115 159.287866 319.983213 171.225861 322.455349 163.617409 " />
<line x1="70.1" y1="338.6" x2="97.8" y2="347.6"/>
<line x1="68.3" y1="344.3" x2="95.9" y2="353.3"/>
<line x1="69.2" y1="341.5" x2="47.6" y2="360.9"/>
<line x1="400.1" y1="191.1" x2="400.3" y2="191.8"/>
<line x1="396.2" y1="191.9" x2="396.7" y2="193.4"/>
<line x1="392.3" y1="192.7" x2="393.1" y2="195.0"/>
<line x1="388.5" y1="193.6" x2="389.5" y2="196.6"/>
<line x1="384.6" y1="194.4" x2="385.9" y2="198.2"/>
<line x1="380.8" y1="195.2" x2="382.2" y2="199.8"/>
<line x1="376.9" y1="196.1" x2="378.6" y2="201.4"/>
<line x1="376.3" y1="199.2" x2="397.9" y2="218.7"/>
<line x1="359.9" y1="138.2" x2="360.7" y2="138.2"/>
<line x1="359.5" y1="142.1" x2="361.1" y2="142.1"/>
<line x1="359.1" y1="146.0" x2="361.5" y2="146.0"/>
<line x1="358.7" y1="150.0" x2="361.9" y2="150.0"/>
<line x1="358.3" y1="153.9" x2="362.3" y2="153.9"/>
<line x1="357.9" y1="157.8" x2="362.7" y2="157.8"/>
<line x1="357.5" y1="161.7" x2="363.1" y2="161.7"/>
<line x1="360.3" y1="163.3" x2="385.5" y2="148.8"/>
<line x1="148.6" y1="224.2" x2="139.6" y2="251.8"/>
<line x1="148.6" y1="224.2" x2="111.2" y2="212.1"/>
<line x1="148.6" y1="224.2" x2="177.8" y2="197.9"/>
<line x1="148.6" y1="224.2" x2="168.1" y2="245.8"/>
<line x1="448.9" y1="367.1" x2="476.0" y2="377.5"/>
<line x1="113.3" y1="214.3" x2="91.7" y2="233.7"/>
<line x1="109.2" y1="209.8" x2="87.6" y2="229.3"/>
<line x1="111.2" y1="212.1" x2="105.2" y2="183.6"/>
<polygon points="326.770731 242.242990 349.619396 228.577117 344.528101 222.406322 " />
<line x1="347.1" y1="225.5" x2="392.3" y2="262.1"/>
<line x1="423.4" y1="104.4" x2="404.5" y2="104.4"/>
<line x1="394.3" y1="75.3" x2="394.3" y2="94.2"/>
<line x1="365.2" y1="101.4" x2="384.1" y2="101.4"/>
<line x1="365.2" y1="107.4" x2="384.1" y2="107.4"/>
<line x1="296.0" y1="72.4" x2="277.5" y2="76.3"/>
<line x1="264.4" y1="49.4" x2="268.3" y2="67.8"/>
<line x1="258.5" y1="50.6" x2="262.5" y2="69.1"/>
<line x1="184.6" y1="66.3" x2="188.5" y2="84.8"/>
<line x1="161.6" y1="97.9" x2="180.1" y2="94.0"/>
<line x1="162.9" y1="103.7" x2="181.3" y2="99.8"/>
<line x1="273.6" y1="106.9" x2="269.6" y2="88.4"/>
<line x1="196.7" y1="123.2" x2="192.8" y2="104.8"/>
<line x1="394.3" y1="133.5" x2="394.3" y2="114.6"/>
<line x1="239.1" y1="84.5" x2="257.5" y2="80.6"/>
<line x1="219.1" y1="88.7" x2="200.7" y2="92.6"/>
<line x1="446.1" y1="264.8" x2="418.0" y2="272.3"/>
<line x1="407.6" y1="285.1" x2="406.1" y2="314.2"/>
<line x1="406.1" y1="314.2" x2="442.8" y2="328.2"/>
<line x1="442.8" y1="328.2" x2="461.1" y2="305.7"/>
<line x1="461.9" y1="289.2" x2="446.1" y2="264.8"/>
<line x1="454.7" y1="291.3" x2="443.3" y2="273.7"/>
<line x1="321.2" y1="167.4" x2="360.3" y2="163.3"/>
<line x1="360.3" y1="163.3" x2="376.3" y2="199.2"/>
<line x1="376.3" y1="199.2" x2="347.1" y2="225.5"/>
<line x1="347.1" y1="225.5" x2="321.9" y2="211.0"/>
<line x1="315.2" y1="195.9" x2="321.2" y2="167.4"/>
<line x1="406.1" y1="314.2" x2="383.5" y2="332.5"/>
<line x1="405.9" y1="323.5" x2="389.6" y2="336.8"/>
<line x1="377.1" y1="349.0" x2="381.7" y2="377.7"/>
<line x1="381.7" y1="377.7" x2="408.8" y2="388.1"/>
<line x1="389.9" y1="373.1" x2="409.5" y2="380.6"/>
<line x1="426.3" y1="385.3" x2="448.9" y2="367.1"/>
<line x1="448.9" y1="367.1" x2="442.8" y2="328.2"/>
<line x1="440.9" y1="362.3" x2="436.6" y2="335.3"/>
<text x="198.094191" y="231.899849" fill="rgb(102,102,102)"  stroke="rgb(102,102,102)" stroke-width="1" font-size="16" >CH</text>
<text x="222.094191" y="236.699849" fill="rgb(102,102,102)"  stroke="rgb(102,102,102)" stroke-width="1" font-size="13" >3</text>
<text x="210.234144" y="198.056915" fill="rgb(102,102,102)"  stroke="rgb(102,102,102)" stroke-width="1" font-size="16" >CH</text>
<text x="234.234144" y="205.736915" fill="rgb(102,102,102)"  stroke="rgb(102,102,102)" stroke-width="1" font-size="13" >3</text>
<text x="479.577549" y="385.929720" fill="rgb(12,12,255)"  stroke="rgb(12,12,255)" stroke-width="1" font-size="16" >NH</text>
<text x="503.577549" y="390.729720" fill="rgb(12,12,255)"  stroke="rgb(12,12,255)" stroke-width="1" font-size="13" >2</text>
<text x="100.557910" y="361.941150" fill="rgb(12,12,255)"  stroke="rgb(12,12,255)" stroke-width="1" font-size="16" >N</text>
<text x="78.454032" y="246.659468" fill="rgb(12,12,255)"  stroke="rgb(12,12,255)" stroke-width="1" font-size="16" >N</text>
<text x="412.370441" y="396.574280" fill="rgb(12,12,255)"  stroke="rgb(12,12,255)" stroke-width="1" font-size="16" >N</text>
<text x="371.948427" y="347.213497" fill="rgb(12,12,255)"  stroke="rgb(12,12,255)" stroke-width="1" font-size="16" >N</text>
<text x="461.478837" y="302.518203" fill="rgb(12,12,255)"  stroke="rgb(12,12,255)" stroke-width="1" font-size="16" >N</text>
<text x="402.135217" y="279.738321" fill="rgb(12,12,255)"  stroke="rgb(12,12,255)" stroke-width="1" font-size="16" >N</text>
<text x="24.400000" y="372.568470" fill="rgb(255,12,12)"  stroke="rgb(255,12,12)" stroke-width="1" font-size="16" >HO</text>
<text x="399.463699" y="230.291719" fill="rgb(255,12,12)"  stroke="rgb(255,12,12)" stroke-width="1" font-size="16" >OH</text>
<text x="168.899216" y="258.187123" fill="rgb(255,12,12)"  stroke="rgb(255,12,12)" stroke-width="1" font-size="16" >OH</text>
<text x="87.481048" y="181.944967" fill="rgb(255,12,12)"  stroke="rgb(255,12,12)" stroke-width="1" font-size="16" >HO</text>
<text x="427.597925" y="112.706588" fill="rgb(255,12,12)"  stroke="rgb(255,12,12)" stroke-width="1" font-size="16" >OH</text>
<text x="388.312211" y="73.420874" fill="rgb(255,12,12)"  stroke="rgb(255,12,12)" stroke-width="1" font-size="16" >OH</text>
<text x="351.426497" y="109.186588" fill="rgb(255,12,12)"  stroke="rgb(255,12,12)" stroke-width="1" font-size="16" >O</text>
<text x="299.947655" y="78.579268" fill="rgb(255,12,12)"  stroke="rgb(255,12,12)" stroke-width="1" font-size="16" >OH</text>
<text x="255.752469" y="48.320000" fill="rgb(255,12,12)"  stroke="rgb(255,12,12)" stroke-width="1" font-size="16" >O</text>
<text x="166.898015" y="64.655919" fill="rgb(255,12,12)"  stroke="rgb(255,12,12)" stroke-width="1" font-size="16" >HO</text>
<text x="148.638747" y="107.731105" fill="rgb(255,12,12)"  stroke="rgb(255,12,12)" stroke-width="1" font-size="16" >O</text>
<text x="272.088387" y="121.654454" fill="rgb(255,12,12)"  stroke="rgb(255,12,12)" stroke-width="1" font-size="16" >O</text>
<text x="192.833933" y="137.990373" fill="rgb(255,12,12)"  stroke="rgb(255,12,12)" stroke-width="1" font-size="16" >O</text>
<text x="309.451322" y="210.648862" fill="rgb(255,12,12)"  stroke="rgb(255,12,12)" stroke-width="1" font-size="16" >O</text>
<text x="388.312211" y="148.472302" fill="rgb(255,12,12)"  stroke="rgb(255,12,12)" stroke-width="1" font-size="16" >O</text>
<text x="223.093201" y="94.915186" fill="rgb(255,12,12)"  stroke="rgb(255,12,12)" stroke-width="1" font-size="16" >O</text>
<text x="388.312211" y="109.186588" fill="rgb(255,127,0)"  stroke="rgb(255,127,0)" stroke-width="1" font-size="16" >P</text>
<text x="261.520428" y="86.747227" fill="rgb(255,127,0)"  stroke="rgb(255,127,0)" stroke-width="1" font-size="16" >P</text>
<text x="184.665974" y="99.563146" fill="rgb(255,127,0)"  stroke="rgb(255,127,0)" stroke-width="1" font-size="16" >P</text>
<text x="154.256763" y="447.415557" fill="rgb(178,178,0)"  stroke="rgb(178,178,0)" stroke-width="1" font-size="16" >SH</text>
<text x="280.256347" y="163.601682" fill="rgb(191,191,191)"  stroke="rgb(191,191,191)" stroke-width="1" font-size="16" >H</text>
<text x="407.631659" y="195.384492" fill="rgb(191,191,191)"  stroke="rgb(191,191,191)" stroke-width="1" font-size="16" >H</text>
<text x="354.289784" y="132.349445" fill="rgb(191,191,191)"  stroke="rgb(191,191,191)" stroke-width="1" font-size="16" >H</text>
<text x="132.871989" y="266.355082" fill="rgb(191,191,191)"  stroke="rgb(191,191,191)" stroke-width="1" font-size="16" >H</text>
<text x="313.170737" y="255.293616" fill="rgb(191,191,191)"  stroke="rgb(191,191,191)" stroke-width="1" font-size="16" >H</text>
<text font-size="18.000000" fill ="black" font-family="sans-serif"
x="140.000000" y="20.000000" ></text>
<title> - OBDepict</title>
</svg>
