<?xml version="1.0"?>
<svg xmlns="http://www.w3.org/2000/svg"
xmlns:xlink="http://www.w3.org/1999/xlink" xmlns:cml="http://www.xml-cml.org/schema" width="372.975" height="234.46" x="0" y="0" font-family="sans-serif" stroke="rgb(0,0,0)" stroke-width="1" >
<line x1="86.4" y1="143.0" x2="94.7" y2="103.8"/>
<line x1="86.4" y1="143.0" x2="48.3" y2="155.3"/>
<line x1="94.7" y1="103.8" x2="132.7" y2="91.5"/>
<line x1="48.3" y1="155.3" x2="42.2" y2="184.3"/>
<line x1="230.2" y1="132.7" x2="268.3" y2="120.3"/>
<line x1="230.2" y1="132.7" x2="200.5" y2="105.9"/>
<line x1="200.5" y1="105.9" x2="208.8" y2="66.8"/>
<line x1="200.5" y1="105.9" x2="172.3" y2="115.0"/>
<line x1="134.7" y1="89.3" x2="156.7" y2="109.1"/>
<line x1="130.7" y1="93.7" x2="152.7" y2="113.5"/>
<line x1="132.7" y1="91.5" x2="138.9" y2="62.5"/>
<line x1="207.9" y1="63.9" x2="236.0" y2="54.8"/>
<line x1="209.7" y1="69.6" x2="237.9" y2="60.5"/>
<line x1="208.8" y1="66.8" x2="186.8" y2="47.0"/>
<line x1="300.6" y1="143.8" x2="268.3" y2="120.3"/>
<line x1="300.0" y1="134.5" x2="277.3" y2="118.0"/>
<line x1="268.3" y1="120.3" x2="277.4" y2="92.1"/>
<line x1="291.0" y1="82.3" x2="320.6" y2="82.3"/>
<line x1="320.6" y1="82.3" x2="329.8" y2="110.4"/>
<line x1="315.6" y1="90.2" x2="322.3" y2="110.7"/>
<line x1="324.6" y1="126.4" x2="300.6" y2="143.8"/>
<text x="16.400000" y="199.259751" fill="rgb(12,12,255)"  stroke="rgb(12,12,255)" stroke-width="1" font-size="16" >H</text>
<text x="28.400000" y="204.059751" fill="rgb(12,12,255)"  stroke="rgb(12,12,255)" stroke-width="1" font-size="13" >2</text>
<text x="34.900000" y="199.259751" fill="rgb(12,12,255)"  stroke="rgb(12,12,255)" stroke-width="1" font-size="16" >N</text>
<text x="326.974923" y="125.095673" fill="rgb(12,12,255)"  stroke="rgb(12,12,255)" stroke-width="1" font-size="16" >N</text>
<text x="265.014244" y="90.573412" fill="rgb(12,12,255)"  stroke="rgb(12,12,255)" stroke-width="1" font-size="16" >HN</text>
<text x="158.843250" y="123.051808" fill="rgb(12,12,255)"  stroke="rgb(12,12,255)" stroke-width="1" font-size="16" >N</text>
<text x="135.033924" y="60.680680" fill="rgb(255,12,12)"  stroke="rgb(255,12,12)" stroke-width="1" font-size="16" >OH</text>
<text x="240.844239" y="62.724544" fill="rgb(255,12,12)"  stroke="rgb(255,12,12)" stroke-width="1" font-size="16" >O</text>
<text x="163.476185" y="48.320000" fill="rgb(255,12,12)"  stroke="rgb(255,12,12)" stroke-width="1" font-size="16" >HO</text>
<text font-size="18.000000" fill ="black" font-family="sans-serif"
x="140.000000" y="20.000000" ></text>
<title> - OBDepict</title>
</svg>
