<?xml version="1.0"?>
<svg xmlns="http://www.w3.org/2000/svg"
xmlns:xlink="http://www.w3.org/1999/xlink" xmlns:cml="http://www.xml-cml.org/schema" width="431.994" height="266.548" x="0" y="0" font-family="sans-serif" stroke="rgb(0,0,0)" stroke-width="1" >
<line x1="272.3" y1="150.5" x2="284.7" y2="112.4"/>
<line x1="272.3" y1="150.5" x2="233.2" y2="158.8"/>
<line x1="58.2" y1="131.7" x2="98.1" y2="133.7"/>
<line x1="58.2" y1="131.7" x2="44.7" y2="105.3"/>
<polygon points="83.508475 156.221434 101.459484 135.923618 94.750119 131.566506 " />
<line x1="236.0" y1="159.7" x2="226.9" y2="187.9"/>
<line x1="230.3" y1="157.9" x2="221.2" y2="186.0"/>
<line x1="233.2" y1="158.8" x2="213.4" y2="136.8"/>
<line x1="74.6" y1="92.9" x2="74.7" y2="92.1"/>
<line x1="78.6" y1="93.5" x2="78.7" y2="91.9"/>
<line x1="82.6" y1="94.1" x2="82.7" y2="91.7"/>
<line x1="86.5" y1="94.7" x2="86.7" y2="91.5"/>
<line x1="90.5" y1="95.3" x2="90.7" y2="91.3"/>
<line x1="94.5" y1="95.9" x2="94.7" y2="91.1"/>
<line x1="98.5" y1="96.5" x2="98.7" y2="90.9"/>
<line x1="100.2" y1="93.8" x2="86.8" y2="67.4"/>
<polygon points="123.671555 51.761286 132.274475 77.456223 139.402527 73.824299 " />
<line x1="135.8" y1="75.6" x2="152.0" y2="50.8"/>
<line x1="183.0" y1="75.7" x2="183.7" y2="76.2"/>
<line x1="180.5" y1="78.9" x2="181.8" y2="79.7"/>
<line x1="178.0" y1="82.0" x2="180.0" y2="83.3"/>
<line x1="175.5" y1="85.1" x2="178.1" y2="86.9"/>
<line x1="172.9" y1="88.3" x2="176.3" y2="90.5"/>
<line x1="170.4" y1="91.4" x2="174.4" y2="94.0"/>
<line x1="167.9" y1="94.6" x2="172.6" y2="97.6"/>
<line x1="169.4" y1="97.4" x2="198.9" y2="99.0"/>
<polygon points="162.407973 163.722235 171.224905 138.099946 163.358865 136.642062 " />
<line x1="167.3" y1="137.4" x2="196.2" y2="131.2"/>
<line x1="227.8" y1="204.6" x2="240.6" y2="218.8"/>
<line x1="284.7" y1="112.4" x2="261.2" y2="80.1"/>
<line x1="287.0" y1="103.3" x2="270.5" y2="80.7"/>
<line x1="261.2" y1="80.1" x2="278.6" y2="56.1"/>
<line x1="294.6" y1="50.9" x2="322.7" y2="60.1"/>
<line x1="322.7" y1="60.1" x2="322.7" y2="100.1"/>
<line x1="322.7" y1="100.1" x2="284.7" y2="112.4"/>
<line x1="392.0" y1="100.1" x2="357.4" y2="120.1"/>
<line x1="357.4" y1="120.1" x2="322.7" y2="100.1"/>
<line x1="355.8" y1="110.8" x2="331.5" y2="96.8"/>
<line x1="322.7" y1="60.1" x2="357.4" y2="40.1"/>
<line x1="331.5" y1="63.3" x2="355.8" y2="49.3"/>
<line x1="357.4" y1="40.1" x2="392.0" y2="60.1"/>
<line x1="392.0" y1="60.1" x2="392.0" y2="100.1"/>
<line x1="384.8" y1="66.1" x2="384.8" y2="94.1"/>
<line x1="135.8" y1="75.6" x2="169.4" y2="97.4"/>
<line x1="169.4" y1="97.4" x2="167.3" y2="137.4"/>
<line x1="167.3" y1="137.4" x2="140.9" y2="150.8"/>
<line x1="122.9" y1="149.9" x2="98.1" y2="133.7"/>
<line x1="98.1" y1="133.7" x2="100.2" y2="93.8"/>
<line x1="100.2" y1="93.8" x2="135.8" y2="75.6"/>
<text x="269.069597" y="56.020241" fill="rgb(12,12,255)"  stroke="rgb(12,12,255)" stroke-width="1" font-size="16" >HN</text>
<text x="217.222334" y="201.622590" fill="rgb(12,12,255)"  stroke="rgb(12,12,255)" stroke-width="1" font-size="16" >N</text>
<text x="24.400000" y="104.331363" fill="rgb(255,12,12)"  stroke="rgb(255,12,12)" stroke-width="1" font-size="16" >HO</text>
<text x="66.438620" y="66.479620" fill="rgb(255,12,12)"  stroke="rgb(255,12,12)" stroke-width="1" font-size="16" >HO</text>
<text x="151.624062" y="50.413438" fill="rgb(255,12,12)"  stroke="rgb(255,12,12)" stroke-width="1" font-size="16" >OH</text>
<text x="203.330505" y="104.319261" fill="rgb(255,12,12)"  stroke="rgb(255,12,12)" stroke-width="1" font-size="16" >OH</text>
<text x="241.587558" y="231.348383" fill="rgb(255,12,12)"  stroke="rgb(255,12,12)" stroke-width="1" font-size="16" >OH</text>
<text x="128.051624" y="160.330624" fill="rgb(255,12,12)"  stroke="rgb(255,12,12)" stroke-width="1" font-size="16" >O</text>
<text x="200.417789" y="137.374536" fill="rgb(178,178,0)"  stroke="rgb(178,178,0)" stroke-width="1" font-size="16" >S</text>
<text x="72.719240" y="172.091885" fill="rgb(191,191,191)"  stroke="rgb(191,191,191)" stroke-width="1" font-size="16" >H</text>
<text x="56.653058" y="100.026443" fill="rgb(191,191,191)"  stroke="rgb(191,191,191)" stroke-width="1" font-size="16" >H</text>
<text x="114.078881" y="48.320000" fill="rgb(191,191,191)"  stroke="rgb(191,191,191)" stroke-width="1" font-size="16" >H</text>
<text x="185.170885" y="72.199000" fill="rgb(191,191,191)"  stroke="rgb(191,191,191)" stroke-width="1" font-size="16" >H</text>
<text x="156.402464" y="181.501200" fill="rgb(191,191,191)"  stroke="rgb(191,191,191)" stroke-width="1" font-size="16" >H</text>
<text font-size="18.000000" fill ="black" font-family="sans-serif"
x="140.000000" y="20.000000" ></text>
<title> - OBDepict</title>
</svg>
