<?xml version="1.0"?>
<svg xmlns="http://www.w3.org/2000/svg"
xmlns:xlink="http://www.w3.org/1999/xlink" xmlns:cml="http://www.xml-cml.org/schema" width="826.599" height="529.203" x="0" y="0" font-family="sans-serif" stroke="rgb(0,0,0)" stroke-width="1" >
<line x1="65.2" y1="154.4" x2="80.0" y2="180.0"/>
<line x1="183.9" y1="149.6" x2="183.9" y2="120.0"/>
<line x1="525.3" y1="180.0" x2="495.7" y2="180.0"/>
<line x1="510.5" y1="154.4" x2="495.7" y2="180.0"/>
<line x1="233.5" y1="257.3" x2="232.7" y2="257.4"/>
<line x1="233.0" y1="253.3" x2="231.5" y2="253.6"/>
<line x1="232.6" y1="249.3" x2="230.2" y2="249.8"/>
<line x1="232.1" y1="245.3" x2="229.0" y2="245.9"/>
<line x1="231.7" y1="241.3" x2="227.8" y2="242.1"/>
<line x1="231.3" y1="237.3" x2="226.6" y2="238.3"/>
<line x1="230.8" y1="233.3" x2="225.3" y2="234.5"/>
<line x1="121.0" y1="220.4" x2="120.2" y2="220.2"/>
<line x1="122.2" y1="216.5" x2="120.7" y2="216.2"/>
<line x1="123.4" y1="212.7" x2="121.1" y2="212.2"/>
<line x1="124.7" y1="208.9" x2="121.5" y2="208.2"/>
<line x1="125.9" y1="205.0" x2="122.0" y2="204.2"/>
<line x1="127.1" y1="201.2" x2="122.4" y2="200.2"/>
<line x1="128.3" y1="197.4" x2="122.9" y2="196.2"/>
<line x1="114.6" y1="120.0" x2="114.6" y2="160.0"/>
<line x1="114.6" y1="120.0" x2="149.3" y2="100.0"/>
<line x1="114.6" y1="160.0" x2="80.0" y2="180.0"/>
<line x1="150.8" y1="97.4" x2="185.4" y2="117.4"/>
<line x1="147.8" y1="102.6" x2="182.4" y2="122.6"/>
<line x1="357.1" y1="100.0" x2="391.8" y2="120.0"/>
<line x1="357.1" y1="100.0" x2="357.1" y2="60.0"/>
<line x1="391.8" y1="120.0" x2="391.8" y2="149.6"/>
<line x1="287.8" y1="60.0" x2="253.2" y2="40.0"/>
<line x1="287.8" y1="60.0" x2="313.5" y2="45.2"/>
<line x1="253.2" y1="40.0" x2="227.6" y2="54.8"/>
<line x1="575.7" y1="340.0" x2="575.7" y2="380.0"/>
<line x1="575.7" y1="340.0" x2="601.3" y2="325.2"/>
<line x1="495.7" y1="220.0" x2="495.7" y2="180.0"/>
<line x1="495.7" y1="220.0" x2="521.3" y2="234.8"/>
<polygon points="53.200000 180.000000 80.000000 184.000000 80.000000 176.000000 " />
<line x1="80.0" y1="180.0" x2="80.0" y2="220.0"/>
<line x1="183.9" y1="120.0" x2="218.6" y2="100.0"/>
<line x1="247.9" y1="325.3" x2="247.2" y2="325.5"/>
<line x1="247.5" y1="321.4" x2="245.9" y2="321.7"/>
<line x1="247.1" y1="317.4" x2="244.7" y2="317.9"/>
<line x1="246.6" y1="313.4" x2="243.5" y2="314.0"/>
<line x1="246.2" y1="309.4" x2="242.3" y2="310.2"/>
<line x1="245.7" y1="305.4" x2="241.0" y2="306.4"/>
<line x1="245.3" y1="301.4" x2="239.8" y2="302.5"/>
<line x1="327.4" y1="304.7" x2="326.8" y2="305.3"/>
<line x1="325.0" y1="301.5" x2="323.9" y2="302.6"/>
<line x1="322.7" y1="298.3" x2="320.9" y2="299.9"/>
<line x1="320.3" y1="295.0" x2="317.9" y2="297.2"/>
<line x1="317.9" y1="291.8" x2="314.9" y2="294.5"/>
<line x1="315.5" y1="288.5" x2="312.0" y2="291.8"/>
<line x1="313.1" y1="285.3" x2="309.0" y2="289.0"/>
<line x1="310.0" y1="286.0" x2="338.9" y2="279.8"/>
<polygon points="56.790519 206.600000 78.000000 223.464102 82.000000 216.535898 " />
<polygon points="143.849988 284.988698 131.333411 260.955902 124.861275 265.658184 " />
<polygon points="215.781678 230.969798 193.188875 245.929919 198.541920 251.875077 " />
<line x1="149.5" y1="320.5" x2="149.3" y2="319.7"/>
<line x1="153.5" y1="320.1" x2="153.2" y2="318.5"/>
<line x1="157.5" y1="319.6" x2="157.0" y2="317.3"/>
<line x1="161.5" y1="319.2" x2="160.8" y2="316.1"/>
<line x1="165.5" y1="318.7" x2="164.7" y2="314.8"/>
<line x1="169.5" y1="318.3" x2="168.5" y2="313.6"/>
<line x1="173.5" y1="317.9" x2="172.3" y2="312.4"/>
<line x1="174.5" y1="314.8" x2="165.3" y2="342.9"/>
<line x1="550.7" y1="385.5" x2="550.5" y2="384.7"/>
<line x1="554.7" y1="385.1" x2="554.4" y2="383.5"/>
<line x1="558.7" y1="384.7" x2="558.2" y2="382.3"/>
<line x1="562.7" y1="384.3" x2="562.0" y2="381.1"/>
<line x1="566.7" y1="383.9" x2="565.9" y2="379.9"/>
<line x1="570.7" y1="383.5" x2="569.7" y2="378.8"/>
<line x1="574.7" y1="383.1" x2="573.6" y2="377.6"/>
<line x1="355.6" y1="62.6" x2="330.0" y2="47.8"/>
<line x1="358.6" y1="57.4" x2="333.0" y2="42.6"/>
<line x1="357.1" y1="60.0" x2="382.8" y2="45.2"/>
<line x1="147.4" y1="293.1" x2="146.8" y2="292.5"/>
<line x1="150.6" y1="290.7" x2="149.6" y2="289.5"/>
<line x1="153.9" y1="288.3" x2="152.3" y2="286.6"/>
<line x1="157.1" y1="286.0" x2="155.0" y2="283.6"/>
<line x1="160.3" y1="283.6" x2="157.7" y2="280.6"/>
<line x1="163.6" y1="281.2" x2="160.4" y2="277.6"/>
<line x1="166.8" y1="278.8" x2="163.1" y2="274.7"/>
<polygon points="621.940863 458.494665 608.183660 435.149872 601.966492 440.184435 " />
<line x1="605.1" y1="437.7" x2="594.5" y2="465.3"/>
<polygon points="554.838489 441.983905 572.789497 421.686090 566.080133 417.328977 " />
<line x1="569.4" y1="419.5" x2="539.9" y2="418.0"/>
<polygon points="474.451178 136.790519 457.587076 158.000000 464.515279 162.000000 " />
<line x1="461.1" y1="160.0" x2="426.4" y2="180.0"/>
<line x1="461.1" y1="160.0" x2="495.7" y2="180.0"/>
<line x1="461.1" y1="160.0" x2="446.3" y2="134.4"/>
<line x1="764.8" y1="455.7" x2="780.9" y2="480.5"/>
<line x1="424.9" y1="182.6" x2="399.3" y2="167.8"/>
<line x1="427.9" y1="177.4" x2="402.3" y2="162.6"/>
<line x1="426.4" y1="180.0" x2="426.4" y2="209.6"/>
<line x1="657.1" y1="399.8" x2="657.4" y2="400.6"/>
<line x1="653.2" y1="400.9" x2="653.8" y2="402.4"/>
<line x1="649.4" y1="402.0" x2="650.2" y2="404.2"/>
<line x1="645.5" y1="403.0" x2="646.6" y2="406.0"/>
<line x1="641.6" y1="404.1" x2="643.0" y2="407.8"/>
<line x1="637.7" y1="405.1" x2="639.4" y2="409.6"/>
<line x1="633.8" y1="406.2" x2="635.9" y2="411.4"/>
<line x1="633.4" y1="409.4" x2="656.4" y2="428.0"/>
<line x1="220.1" y1="97.4" x2="245.7" y2="112.2"/>
<line x1="217.1" y1="102.6" x2="242.7" y2="117.4"/>
<line x1="218.6" y1="100.0" x2="218.6" y2="70.4"/>
<line x1="532.5" y1="467.1" x2="516.4" y2="456.6"/>
<line x1="491.6" y1="475.8" x2="502.0" y2="459.7"/>
<line x1="484.5" y1="432.3" x2="500.6" y2="442.8"/>
<line x1="481.2" y1="437.4" x2="497.3" y2="447.8"/>
<line x1="610.3" y1="250.4" x2="610.3" y2="269.6"/>
<line x1="639.9" y1="283.0" x2="620.7" y2="283.0"/>
<line x1="639.9" y1="277.0" x2="620.7" y2="277.0"/>
<line x1="500.7" y1="280.0" x2="519.9" y2="280.0"/>
<line x1="527.3" y1="309.6" x2="527.3" y2="290.4"/>
<line x1="533.3" y1="309.6" x2="533.3" y2="290.4"/>
<line x1="610.3" y1="309.6" x2="610.3" y2="290.4"/>
<line x1="530.3" y1="250.4" x2="530.3" y2="269.6"/>
<line x1="523.8" y1="426.1" x2="513.4" y2="442.2"/>
<line x1="580.7" y1="280.0" x2="599.9" y2="280.0"/>
<line x1="559.9" y1="280.0" x2="540.7" y2="280.0"/>
<line x1="63.7" y1="256.5" x2="93.5" y2="283.3"/>
<line x1="93.5" y1="283.3" x2="128.1" y2="263.3"/>
<line x1="128.1" y1="263.3" x2="119.8" y2="224.2"/>
<line x1="119.8" y1="224.2" x2="80.0" y2="220.0"/>
<line x1="80.0" y1="220.0" x2="63.7" y2="256.5"/>
<line x1="662.4" y1="474.5" x2="663.9" y2="444.9"/>
<line x1="674.5" y1="431.9" x2="703.1" y2="424.2"/>
<line x1="703.1" y1="424.2" x2="724.9" y2="457.7"/>
<line x1="724.9" y1="457.7" x2="706.2" y2="480.8"/>
<line x1="690.0" y1="485.1" x2="662.4" y2="474.5"/>
<line x1="690.7" y1="477.7" x2="670.5" y2="469.9"/>
<line x1="575.7" y1="380.0" x2="569.4" y2="419.5"/>
<line x1="569.4" y1="419.5" x2="605.1" y2="437.7"/>
<line x1="605.1" y1="437.7" x2="633.4" y2="409.4"/>
<line x1="633.4" y1="409.4" x2="619.9" y2="383.0"/>
<line x1="604.9" y1="375.4" x2="575.7" y2="380.0"/>
<line x1="212.5" y1="327.2" x2="242.2" y2="300.4"/>
<line x1="242.2" y1="300.4" x2="233.9" y2="261.3"/>
<line x1="233.9" y1="261.3" x2="195.9" y2="248.9"/>
<line x1="195.9" y1="248.9" x2="166.1" y2="275.7"/>
<line x1="166.1" y1="275.7" x2="174.5" y2="314.8"/>
<line x1="174.5" y1="314.8" x2="212.5" y2="327.2"/>
<line x1="195.9" y1="248.9" x2="187.5" y2="209.8"/>
<line x1="187.5" y1="209.8" x2="149.5" y2="197.4"/>
<line x1="149.5" y1="197.4" x2="119.8" y2="224.2"/>
<line x1="128.1" y1="263.3" x2="166.1" y2="275.7"/>
<line x1="301.7" y1="246.9" x2="263.6" y2="234.5"/>
<line x1="263.6" y1="234.5" x2="233.9" y2="261.3"/>
<line x1="242.2" y1="300.4" x2="280.3" y2="312.7"/>
<line x1="280.3" y1="312.7" x2="310.0" y2="286.0"/>
<line x1="310.0" y1="286.0" x2="301.7" y2="246.9"/>
<line x1="703.1" y1="424.2" x2="716.5" y2="397.8"/>
<line x1="712.2" y1="422.1" x2="722.0" y2="402.9"/>
<line x1="731.6" y1="388.0" x2="761.2" y2="386.5"/>
<line x1="761.2" y1="386.5" x2="777.3" y2="411.3"/>
<line x1="758.4" y1="395.4" x2="770.2" y2="413.5"/>
<line x1="778.3" y1="429.3" x2="764.8" y2="455.7"/>
<line x1="764.8" y1="455.7" x2="724.9" y2="457.7"/>
<line x1="758.4" y1="448.8" x2="730.5" y2="450.2"/>
<text x="36.400000" y="153.678984" fill="rgb(102,102,102)"  stroke="rgb(102,102,102)" stroke-width="1" font-size="16" >H</text>
<text x="48.400000" y="161.358984" fill="rgb(102,102,102)"  stroke="rgb(102,102,102)" stroke-width="1" font-size="13" >3</text>
<text x="54.900000" y="153.678984" fill="rgb(102,102,102)"  stroke="rgb(102,102,102)" stroke-width="1" font-size="16" >C</text>
<text x="177.923048" y="164.800000" fill="rgb(102,102,102)"  stroke="rgb(102,102,102)" stroke-width="1" font-size="16" >CH</text>
<text x="201.923048" y="169.600000" fill="rgb(102,102,102)"  stroke="rgb(102,102,102)" stroke-width="1" font-size="13" >3</text>
<text x="529.692194" y="184.800000" fill="rgb(102,102,102)"  stroke="rgb(102,102,102)" stroke-width="1" font-size="16" >CH</text>
<text x="553.692194" y="189.600000" fill="rgb(102,102,102)"  stroke="rgb(102,102,102)" stroke-width="1" font-size="13" >3</text>
<text x="509.692194" y="153.678984" fill="rgb(102,102,102)"  stroke="rgb(102,102,102)" stroke-width="1" font-size="16" >CH</text>
<text x="533.692194" y="161.358984" fill="rgb(102,102,102)"  stroke="rgb(102,102,102)" stroke-width="1" font-size="13" >3</text>
<text x="201.991190" y="230.457274" fill="rgb(102,102,102)"  stroke="rgb(102,102,102)" stroke-width="1" font-size="16" >H</text>
<text x="213.991190" y="238.137274" fill="rgb(102,102,102)"  stroke="rgb(102,102,102)" stroke-width="1" font-size="13" >3</text>
<text x="220.491190" y="230.457274" fill="rgb(102,102,102)"  stroke="rgb(102,102,102)" stroke-width="1" font-size="16" >C</text>
<text x="122.097343" y="193.375235" fill="rgb(102,102,102)"  stroke="rgb(102,102,102)" stroke-width="1" font-size="16" >CH</text>
<text x="146.097343" y="201.055235" fill="rgb(102,102,102)"  stroke="rgb(102,102,102)" stroke-width="1" font-size="13" >3</text>
<text x="780.598523" y="494.003143" fill="rgb(12,12,255)"  stroke="rgb(12,12,255)" stroke-width="1" font-size="16" >NH</text>
<text x="804.598523" y="498.803143" fill="rgb(12,12,255)"  stroke="rgb(12,12,255)" stroke-width="1" font-size="13" >2</text>
<text x="316.487113" y="48.320000" fill="rgb(12,12,255)"  stroke="rgb(12,12,255)" stroke-width="1" font-size="16" >N</text>
<text x="388.169145" y="164.800000" fill="rgb(12,12,255)"  stroke="rgb(12,12,255)" stroke-width="1" font-size="16" >N</text>
<text x="776.972582" y="428.336060" fill="rgb(12,12,255)"  stroke="rgb(12,12,255)" stroke-width="1" font-size="16" >N</text>
<text x="717.641839" y="396.882675" fill="rgb(12,12,255)"  stroke="rgb(12,12,255)" stroke-width="1" font-size="16" >N</text>
<text x="693.694965" y="493.635597" fill="rgb(12,12,255)"  stroke="rgb(12,12,255)" stroke-width="1" font-size="16" >N</text>
<text x="660.845186" y="442.875698" fill="rgb(12,12,255)"  stroke="rgb(12,12,255)" stroke-width="1" font-size="16" >N</text>
<text x="343.118083" y="285.988070" fill="rgb(255,12,12)"  stroke="rgb(255,12,12)" stroke-width="1" font-size="16" >OH</text>
<text x="146.495392" y="357.635887" fill="rgb(255,12,12)"  stroke="rgb(255,12,12)" stroke-width="1" font-size="16" >HO</text>
<text x="385.769145" y="48.320000" fill="rgb(255,12,12)"  stroke="rgb(255,12,12)" stroke-width="1" font-size="16" >OH</text>
<text x="575.140358" y="479.810371" fill="rgb(255,12,12)"  stroke="rgb(255,12,12)" stroke-width="1" font-size="16" >HO</text>
<text x="425.451178" y="133.678984" fill="rgb(255,12,12)"  stroke="rgb(255,12,12)" stroke-width="1" font-size="16" >HO</text>
<text x="420.410162" y="224.800000" fill="rgb(255,12,12)"  stroke="rgb(255,12,12)" stroke-width="1" font-size="16" >OH</text>
<text x="247.205081" y="124.800000" fill="rgb(255,12,12)"  stroke="rgb(255,12,12)" stroke-width="1" font-size="16" >O</text>
<text x="535.250895" y="477.546479" fill="rgb(255,12,12)"  stroke="rgb(255,12,12)" stroke-width="1" font-size="16" >OH</text>
<text x="470.318511" y="489.307741" fill="rgb(255,12,12)"  stroke="rgb(255,12,12)" stroke-width="1" font-size="16" >HO</text>
<text x="470.557250" y="437.495357" fill="rgb(255,12,12)"  stroke="rgb(255,12,12)" stroke-width="1" font-size="16" >O</text>
<text x="604.333210" y="248.320000" fill="rgb(255,12,12)"  stroke="rgb(255,12,12)" stroke-width="1" font-size="16" >OH</text>
<text x="644.333210" y="288.320000" fill="rgb(255,12,12)"  stroke="rgb(255,12,12)" stroke-width="1" font-size="16" >O</text>
<text x="474.733210" y="284.800000" fill="rgb(255,12,12)"  stroke="rgb(255,12,12)" stroke-width="1" font-size="16" >HO</text>
<text x="524.333210" y="324.800000" fill="rgb(255,12,12)"  stroke="rgb(255,12,12)" stroke-width="1" font-size="16" >O</text>
<text x="604.333210" y="324.800000" fill="rgb(255,12,12)"  stroke="rgb(255,12,12)" stroke-width="1" font-size="16" >O</text>
<text x="524.333210" y="248.320000" fill="rgb(255,12,12)"  stroke="rgb(255,12,12)" stroke-width="1" font-size="16" >O</text>
<text x="609.199727" y="382.062621" fill="rgb(255,12,12)"  stroke="rgb(255,12,12)" stroke-width="1" font-size="16" >O</text>
<text x="525.889634" y="425.734095" fill="rgb(255,12,12)"  stroke="rgb(255,12,12)" stroke-width="1" font-size="16" >O</text>
<text x="564.333210" y="284.800000" fill="rgb(255,12,12)"  stroke="rgb(255,12,12)" stroke-width="1" font-size="16" >O</text>
<text x="501.704072" y="455.760918" fill="rgb(255,127,0)"  stroke="rgb(255,127,0)" stroke-width="1" font-size="16" >P</text>
<text x="604.333210" y="284.800000" fill="rgb(255,127,0)"  stroke="rgb(255,127,0)" stroke-width="1" font-size="16" >P</text>
<text x="524.333210" y="284.800000" fill="rgb(255,127,0)"  stroke="rgb(255,127,0)" stroke-width="1" font-size="16" >P</text>
<text x="214.964065" y="68.320000" fill="rgb(178,178,0)"  stroke="rgb(178,178,0)" stroke-width="1" font-size="16" >S</text>
<text x="36.400000" y="184.800000" fill="rgb(191,191,191)"  stroke="rgb(191,191,191)" stroke-width="1" font-size="16" >H</text>
<text x="244.540593" y="344.314986" fill="rgb(191,191,191)"  stroke="rgb(191,191,191)" stroke-width="1" font-size="16" >H</text>
<text x="330.757403" y="320.510330" fill="rgb(191,191,191)"  stroke="rgb(191,191,191)" stroke-width="1" font-size="16" >H</text>
<text x="41.758984" y="208.320000" fill="rgb(191,191,191)"  stroke="rgb(191,191,191)" stroke-width="1" font-size="16" >H</text>
<text x="145.608754" y="300.467722" fill="rgb(191,191,191)"  stroke="rgb(191,191,191)" stroke-width="1" font-size="16" >H</text>
<text x="219.591190" y="230.457274" fill="rgb(191,191,191)"  stroke="rgb(191,191,191)" stroke-width="1" font-size="16" >H</text>
<text x="131.730168" y="327.910094" fill="rgb(191,191,191)"  stroke="rgb(191,191,191)" stroke-width="1" font-size="16" >H</text>
<text x="532.891760" y="392.757763" fill="rgb(191,191,191)"  stroke="rgb(191,191,191)" stroke-width="1" font-size="16" >H</text>
<text x="132.813811" y="307.232947" fill="rgb(191,191,191)"  stroke="rgb(191,191,191)" stroke-width="1" font-size="16" >H</text>
<text x="624.247892" y="473.552992" fill="rgb(191,191,191)"  stroke="rgb(191,191,191)" stroke-width="1" font-size="16" >H</text>
<text x="544.049254" y="457.854356" fill="rgb(191,191,191)"  stroke="rgb(191,191,191)" stroke-width="1" font-size="16" >H</text>
<text x="475.051178" y="133.678984" fill="rgb(191,191,191)"  stroke="rgb(191,191,191)" stroke-width="1" font-size="16" >H</text>
<text x="664.702564" y="403.368164" fill="rgb(191,191,191)"  stroke="rgb(191,191,191)" stroke-width="1" font-size="16" >H</text>
<text font-size="18.000000" fill ="black" font-family="sans-serif"
x="140.000000" y="20.000000" ></text>
<title> - OBDepict</title>
</svg>
