<?xml version="1.0"?>
<svg xmlns="http://www.w3.org/2000/svg"
xmlns:xlink="http://www.w3.org/1999/xlink" xmlns:cml="http://www.xml-cml.org/schema" width="526.912" height="405.851" x="0" y="0" font-family="sans-serif" stroke="rgb(0,0,0)" stroke-width="1" >
<line x1="426.6" y1="154.8" x2="452.3" y2="140.0"/>
<line x1="452.3" y1="140.0" x2="452.3" y2="100.0"/>
<line x1="452.3" y1="100.0" x2="477.9" y2="85.2"/>
<line x1="450.8" y1="102.6" x2="416.1" y2="82.6"/>
<line x1="453.8" y1="97.4" x2="419.1" y2="77.4"/>
<line x1="417.6" y1="80.0" x2="417.6" y2="50.4"/>
<line x1="417.6" y1="80.0" x2="383.0" y2="100.0"/>
<line x1="383.0" y1="100.0" x2="348.3" y2="80.0"/>
<line x1="348.3" y1="80.0" x2="348.3" y2="50.4"/>
<line x1="349.8" y1="82.6" x2="315.2" y2="102.6"/>
<line x1="346.8" y1="77.4" x2="312.2" y2="97.4"/>
<line x1="175.5" y1="285.6" x2="169.4" y2="256.6"/>
<line x1="176.5" y1="282.7" x2="214.5" y2="295.1"/>
<line x1="174.6" y1="288.4" x2="212.7" y2="300.8"/>
<line x1="175.5" y1="285.6" x2="145.8" y2="312.3"/>
<line x1="313.7" y1="100.0" x2="288.1" y2="85.2"/>
<line x1="313.7" y1="100.0" x2="313.7" y2="140.0"/>
<line x1="213.6" y1="297.9" x2="219.7" y2="326.9"/>
<line x1="213.6" y1="297.9" x2="243.3" y2="271.2"/>
<line x1="145.8" y1="312.3" x2="107.8" y2="300.0"/>
<line x1="313.7" y1="140.0" x2="279.1" y2="160.0"/>
<line x1="243.3" y1="271.2" x2="281.3" y2="283.5"/>
<line x1="107.8" y1="300.0" x2="78.0" y2="326.7"/>
<line x1="279.1" y1="200.0" x2="253.4" y2="214.8"/>
<line x1="280.6" y1="197.4" x2="315.2" y2="217.4"/>
<line x1="277.6" y1="202.6" x2="312.2" y2="222.6"/>
<line x1="279.1" y1="200.0" x2="279.1" y2="160.0"/>
<line x1="313.7" y1="220.0" x2="339.3" y2="205.2"/>
<line x1="313.7" y1="220.0" x2="313.7" y2="260.0"/>
<line x1="279.1" y1="160.0" x2="253.4" y2="145.2"/>
<line x1="296.1" y1="323.3" x2="278.7" y2="347.3"/>
<line x1="291.3" y1="319.8" x2="273.9" y2="343.7"/>
<line x1="346.1" y1="283.5" x2="374.2" y2="274.4"/>
<line x1="81.0" y1="326.1" x2="87.1" y2="355.1"/>
<line x1="75.1" y1="327.3" x2="81.3" y2="356.3"/>
<line x1="78.0" y1="326.7" x2="49.9" y2="317.6"/>
<line x1="281.3" y1="283.5" x2="313.7" y2="260.0"/>
<line x1="313.7" y1="260.0" x2="346.1" y2="283.5"/>
<line x1="346.1" y1="283.5" x2="333.7" y2="321.6"/>
<line x1="333.7" y1="321.6" x2="293.7" y2="321.6"/>
<line x1="293.7" y1="321.6" x2="281.3" y2="283.5"/>
<text x="394.030150" y="164.800000" fill="rgb(102,102,102)"  stroke="rgb(102,102,102)" stroke-width="1" font-size="16" >H</text>
<text x="406.030150" y="169.600000" fill="rgb(102,102,102)"  stroke="rgb(102,102,102)" stroke-width="1" font-size="13" >3</text>
<text x="412.530150" y="164.800000" fill="rgb(102,102,102)"  stroke="rgb(102,102,102)" stroke-width="1" font-size="16" >C</text>
<text x="228.825069" y="148.320000" fill="rgb(255,12,12)"  stroke="rgb(255,12,12)" stroke-width="1" font-size="16" >HO</text>
<text x="266.595691" y="358.714351" fill="rgb(255,12,12)"  stroke="rgb(255,12,12)" stroke-width="1" font-size="16" >O</text>
<text x="378.110042" y="279.470730" fill="rgb(255,12,12)"  stroke="rgb(255,12,12)" stroke-width="1" font-size="16" >OH</text>
<text x="80.358728" y="370.650948" fill="rgb(255,12,12)"  stroke="rgb(255,12,12)" stroke-width="1" font-size="16" >O</text>
<text x="24.400000" y="322.684364" fill="rgb(255,12,12)"  stroke="rgb(255,12,12)" stroke-width="1" font-size="16" >HO</text>
<text x="480.912182" y="88.320000" fill="rgb(191,191,191)"  stroke="rgb(191,191,191)" stroke-width="1" font-size="16" >H</text>
<text x="411.630150" y="48.320000" fill="rgb(191,191,191)"  stroke="rgb(191,191,191)" stroke-width="1" font-size="16" >H</text>
<text x="342.348118" y="48.320000" fill="rgb(191,191,191)"  stroke="rgb(191,191,191)" stroke-width="1" font-size="16" >H</text>
<text x="163.619640" y="254.749371" fill="rgb(191,191,191)"  stroke="rgb(191,191,191)" stroke-width="1" font-size="16" >H</text>
<text x="275.466085" y="88.320000" fill="rgb(191,191,191)"  stroke="rgb(191,191,191)" stroke-width="1" font-size="16" >H</text>
<text x="215.894836" y="341.841859" fill="rgb(191,191,191)"  stroke="rgb(191,191,191)" stroke-width="1" font-size="16" >H</text>
<text x="240.825069" y="224.800000" fill="rgb(191,191,191)"  stroke="rgb(191,191,191)" stroke-width="1" font-size="16" >H</text>
<text x="342.348118" y="208.320000" fill="rgb(191,191,191)"  stroke="rgb(191,191,191)" stroke-width="1" font-size="16" >H</text>
<text font-size="18.000000" fill ="black" font-family="sans-serif"
x="140.000000" y="20.000000" ></text>
<title> - OBDepict</title>
</svg>
