<?xml version="1.0"?>
<svg xmlns="http://www.w3.org/2000/svg"
xmlns:xlink="http://www.w3.org/1999/xlink" xmlns:cml="http://www.xml-cml.org/schema" width="360.973" height="292.893" x="0" y="0" font-family="sans-serif" stroke="rgb(0,0,0)" stroke-width="1" >
<line x1="56.0" y1="245.9" x2="78.0" y2="226.1"/>
<polygon points="211.691102 114.641016 207.691102 141.441016 215.691102 141.441016 " />
<polygon points="107.768054 174.641016 115.014414 200.750981 122.322778 197.497088 " />
<line x1="78.0" y1="226.1" x2="69.7" y2="187.0"/>
<line x1="79.0" y1="223.3" x2="107.1" y2="232.4"/>
<line x1="77.1" y1="229.0" x2="105.3" y2="238.1"/>
<line x1="293.4" y1="52.3" x2="294.1" y2="52.7"/>
<line x1="291.1" y1="55.5" x2="292.5" y2="56.3"/>
<line x1="288.7" y1="58.8" x2="290.8" y2="60.0"/>
<line x1="286.4" y1="62.1" x2="289.2" y2="63.7"/>
<line x1="284.0" y1="65.3" x2="287.5" y2="67.3"/>
<line x1="281.7" y1="68.6" x2="285.9" y2="71.0"/>
<line x1="279.3" y1="71.9" x2="284.2" y2="74.7"/>
<line x1="281.0" y1="74.6" x2="310.6" y2="74.6"/>
<polygon points="119.199589 101.241016 140.409070 118.105118 144.409070 111.176915 " />
<line x1="51.0" y1="204.4" x2="50.4" y2="203.8"/>
<line x1="54.2" y1="202.0" x2="53.1" y2="200.9"/>
<line x1="57.4" y1="199.7" x2="55.8" y2="197.9"/>
<line x1="60.7" y1="197.3" x2="58.5" y2="194.9"/>
<line x1="63.9" y1="194.9" x2="61.3" y2="191.9"/>
<line x1="67.2" y1="192.5" x2="64.0" y2="189.0"/>
<line x1="70.4" y1="190.2" x2="66.7" y2="186.0"/>
<line x1="117.8" y1="111.1" x2="118.5" y2="111.4"/>
<line x1="115.8" y1="114.6" x2="117.3" y2="115.2"/>
<line x1="113.8" y1="118.1" x2="116.0" y2="119.1"/>
<line x1="111.8" y1="121.6" x2="114.8" y2="122.9"/>
<line x1="109.8" y1="125.1" x2="113.5" y2="126.7"/>
<line x1="107.9" y1="128.5" x2="112.2" y2="130.5"/>
<line x1="105.9" y1="132.0" x2="111.0" y2="134.3"/>
<line x1="199.4" y1="147.1" x2="199.0" y2="147.8"/>
<line x1="196.2" y1="144.7" x2="195.4" y2="146.1"/>
<line x1="192.9" y1="142.4" x2="191.7" y2="144.5"/>
<line x1="189.6" y1="140.1" x2="188.0" y2="142.8"/>
<line x1="186.4" y1="137.7" x2="184.4" y2="141.2"/>
<line x1="183.1" y1="135.4" x2="180.7" y2="139.5"/>
<line x1="179.8" y1="133.0" x2="177.0" y2="137.9"/>
<line x1="46.2" y1="154.6" x2="69.7" y2="122.3"/>
<line x1="69.7" y1="122.3" x2="107.8" y2="134.6"/>
<line x1="107.8" y1="134.6" x2="107.8" y2="174.6"/>
<line x1="107.8" y1="174.6" x2="69.7" y2="187.0"/>
<line x1="69.7" y1="187.0" x2="46.2" y2="154.6"/>
<line x1="142.4" y1="74.6" x2="177.1" y2="54.6"/>
<line x1="177.1" y1="54.6" x2="211.7" y2="74.6"/>
<line x1="178.6" y1="63.9" x2="202.9" y2="77.9"/>
<line x1="211.7" y1="74.6" x2="211.7" y2="114.6"/>
<line x1="211.7" y1="114.6" x2="177.1" y2="134.6"/>
<line x1="177.1" y1="134.6" x2="142.4" y2="114.6"/>
<line x1="142.4" y1="114.6" x2="142.4" y2="74.6"/>
<line x1="246.3" y1="54.6" x2="281.0" y2="74.6"/>
<line x1="281.0" y1="74.6" x2="281.0" y2="114.6"/>
<line x1="281.0" y1="114.6" x2="246.3" y2="134.6"/>
<line x1="246.3" y1="134.6" x2="211.7" y2="114.6"/>
<line x1="211.7" y1="74.6" x2="246.3" y2="54.6"/>
<line x1="107.8" y1="134.6" x2="142.4" y2="114.6"/>
<line x1="177.1" y1="134.6" x2="177.1" y2="174.6"/>
<line x1="177.1" y1="174.6" x2="142.4" y2="194.6"/>
<line x1="142.4" y1="194.6" x2="107.8" y2="174.6"/>
<text x="24.716468" y="257.692824" fill="rgb(102,102,102)"  stroke="rgb(102,102,102)" stroke-width="1" font-size="16" >H</text>
<text x="36.716468" y="262.492824" fill="rgb(102,102,102)"  stroke="rgb(102,102,102)" stroke-width="1" font-size="13" >3</text>
<text x="43.216468" y="257.692824" fill="rgb(102,102,102)"  stroke="rgb(102,102,102)" stroke-width="1" font-size="16" >C</text>
<text x="205.691102" y="159.441016" fill="rgb(102,102,102)"  stroke="rgb(102,102,102)" stroke-width="1" font-size="16" >CH</text>
<text x="229.691102" y="164.241016" fill="rgb(102,102,102)"  stroke="rgb(102,102,102)" stroke-width="1" font-size="13" >3</text>
<text x="118.037519" y="215.982834" fill="rgb(102,102,102)"  stroke="rgb(102,102,102)" stroke-width="1" font-size="16" >CH</text>
<text x="142.037519" y="220.782834" fill="rgb(102,102,102)"  stroke="rgb(102,102,102)" stroke-width="1" font-size="13" >3</text>
<text x="110.084521" y="243.288280" fill="rgb(255,12,12)"  stroke="rgb(255,12,12)" stroke-width="1" font-size="16" >O</text>
<text x="314.973134" y="79.441016" fill="rgb(255,12,12)"  stroke="rgb(255,12,12)" stroke-width="1" font-size="16" >OH</text>
<text x="294.973134" y="48.320000" fill="rgb(191,191,191)"  stroke="rgb(191,191,191)" stroke-width="1" font-size="16" >H</text>
<text x="104.168054" y="102.961016" fill="rgb(191,191,191)"  stroke="rgb(191,191,191)" stroke-width="1" font-size="16" >H</text>
<text x="36.400000" y="218.566920" fill="rgb(191,191,191)"  stroke="rgb(191,191,191)" stroke-width="1" font-size="16" >H</text>
<text x="118.037519" y="106.419198" fill="rgb(191,191,191)"  stroke="rgb(191,191,191)" stroke-width="1" font-size="16" >H</text>
<text x="205.691102" y="159.441016" fill="rgb(191,191,191)"  stroke="rgb(191,191,191)" stroke-width="1" font-size="16" >H</text>
<text font-size="18.000000" fill ="black" font-family="sans-serif"
x="140.000000" y="20.000000" ></text>
<title> - OBDepict</title>
</svg>
