<?xml version="1.0"?>
<svg xmlns="http://www.w3.org/2000/svg"
xmlns:xlink="http://www.w3.org/1999/xlink" xmlns:cml="http://www.xml-cml.org/schema" width="391.769" height="180" x="0" y="0" font-family="sans-serif" stroke="rgb(0,0,0)" stroke-width="1" >
<line x1="351.8" y1="50.4" x2="351.8" y2="69.6"/>
<line x1="213.2" y1="80.0" x2="247.8" y2="100.0"/>
<line x1="213.2" y1="80.0" x2="178.6" y2="100.0"/>
<line x1="247.8" y1="100.0" x2="282.5" y2="80.0"/>
<line x1="178.6" y1="100.0" x2="143.9" y2="80.0"/>
<line x1="282.5" y1="80.0" x2="317.1" y2="100.0"/>
<line x1="143.9" y1="80.0" x2="109.3" y2="100.0"/>
<line x1="317.1" y1="100.0" x2="342.8" y2="85.2"/>
<line x1="109.3" y1="100.0" x2="74.6" y2="80.0"/>
<line x1="109.3" y1="100.0" x2="109.3" y2="129.6"/>
<line x1="71.6" y1="80.0" x2="71.6" y2="50.4"/>
<line x1="77.6" y1="80.0" x2="77.6" y2="50.4"/>
<line x1="74.6" y1="80.0" x2="49.0" y2="94.8"/>
<text x="345.769145" y="48.320000" fill="rgb(102,102,102)"  stroke="rgb(102,102,102)" stroke-width="1" font-size="16" >CH</text>
<text x="369.769145" y="56.000000" fill="rgb(102,102,102)"  stroke="rgb(102,102,102)" stroke-width="1" font-size="13" >3</text>
<text x="103.282032" y="144.800000" fill="rgb(12,12,255)"  stroke="rgb(12,12,255)" stroke-width="1" font-size="16" >NH</text>
<text x="127.282032" y="149.600000" fill="rgb(12,12,255)"  stroke="rgb(12,12,255)" stroke-width="1" font-size="13" >2</text>
<text x="68.641016" y="48.320000" fill="rgb(255,12,12)"  stroke="rgb(255,12,12)" stroke-width="1" font-size="16" >O</text>
<text x="24.400000" y="104.800000" fill="rgb(255,12,12)"  stroke="rgb(255,12,12)" stroke-width="1" font-size="16" >HO</text>
<text x="345.769145" y="84.800000" fill="rgb(178,178,0)"  stroke="rgb(178,178,0)" stroke-width="1" font-size="16" >S</text>
<text font-size="18.000000" fill ="black" font-family="sans-serif"
x="140.000000" y="20.000000" ></text>
<title> - OBDepict</title>
</svg>
