<?xml version="1.0"?>
<svg xmlns="http://www.w3.org/2000/svg"
xmlns:xlink="http://www.w3.org/1999/xlink" xmlns:cml="http://www.xml-cml.org/schema" width="329.415" height="377.185" x="0" y="0" font-family="sans-serif" stroke="rgb(0,0,0)" stroke-width="1" >
<line x1="221.0" y1="47.5" x2="235.8" y2="73.1"/>
<line x1="215.8" y1="50.5" x2="230.6" y2="76.1"/>
<line x1="100.3" y1="332.0" x2="83.6" y2="322.4"/>
<line x1="233.2" y1="74.6" x2="213.2" y2="109.3"/>
<polygon points="213.218371 82.482032 209.219652 109.282223 217.219652 109.281841 " />
<line x1="251.3" y1="131.3" x2="279.5" y2="122.3"/>
<line x1="74.6" y1="277.2" x2="74.6" y2="306.8"/>
<line x1="143.9" y1="197.2" x2="178.6" y2="217.2"/>
<polygon points="213.210444 223.996562 217.211843 197.196771 209.211843 197.196353 " />
<line x1="213.2" y1="197.2" x2="178.6" y2="217.2"/>
<line x1="181.6" y1="217.2" x2="181.6" y2="246.8"/>
<line x1="175.6" y1="217.2" x2="175.6" y2="246.8"/>
<line x1="143.9" y1="157.2" x2="143.9" y2="197.2"/>
<line x1="143.9" y1="197.2" x2="109.3" y2="217.2"/>
<line x1="135.1" y1="194.0" x2="110.9" y2="207.9"/>
<line x1="109.3" y1="217.2" x2="74.6" y2="197.2"/>
<line x1="74.6" y1="197.2" x2="74.7" y2="167.6"/>
<line x1="81.8" y1="191.2" x2="81.9" y2="169.6"/>
<line x1="83.7" y1="152.0" x2="109.3" y2="137.2"/>
<line x1="109.3" y1="137.2" x2="143.9" y2="157.2"/>
<line x1="110.9" y1="146.4" x2="135.1" y2="160.4"/>
<line x1="109.3" y1="257.2" x2="74.6" y2="277.2"/>
<line x1="100.5" y1="253.9" x2="76.2" y2="267.9"/>
<line x1="74.6" y1="277.2" x2="40.0" y2="257.2"/>
<line x1="40.0" y1="257.2" x2="40.0" y2="217.2"/>
<line x1="47.2" y1="251.2" x2="47.2" y2="223.2"/>
<line x1="40.0" y1="217.2" x2="74.6" y2="197.2"/>
<line x1="109.3" y1="217.2" x2="109.3" y2="257.2"/>
<line x1="251.3" y1="175.2" x2="251.3" y2="131.3"/>
<line x1="251.3" y1="131.3" x2="220.2" y2="131.3"/>
<line x1="220.2" y1="131.3" x2="190.7" y2="148.3"/>
<line x1="190.7" y1="148.3" x2="179.2" y2="168.2"/>
<line x1="185.0" y1="180.9" x2="213.2" y2="197.2"/>
<line x1="213.2" y1="197.2" x2="251.3" y2="175.2"/>
<line x1="175.2" y1="131.3" x2="213.2" y2="109.3"/>
<line x1="213.2" y1="109.3" x2="251.3" y2="131.3"/>
<line x1="175.1" y1="163.8" x2="175.2" y2="131.3"/>
<text x="189.627461" y="48.320000" fill="rgb(102,102,102)"  stroke="rgb(102,102,102)" stroke-width="1" font-size="16" >H</text>
<text x="201.627461" y="56.000000" fill="rgb(102,102,102)"  stroke="rgb(102,102,102)" stroke-width="1" font-size="13" >2</text>
<text x="208.127461" y="48.320000" fill="rgb(102,102,102)"  stroke="rgb(102,102,102)" stroke-width="1" font-size="16" >C</text>
<text x="103.273014" y="341.984847" fill="rgb(102,102,102)"  stroke="rgb(102,102,102)" stroke-width="1" font-size="16" >CH</text>
<text x="127.273014" y="346.784847" fill="rgb(102,102,102)"  stroke="rgb(102,102,102)" stroke-width="1" font-size="13" >3</text>
<text x="71.052288" y="165.500943" fill="rgb(12,12,255)"  stroke="rgb(12,12,255)" stroke-width="1" font-size="16" >N</text>
<text x="171.545128" y="180.018734" fill="rgb(12,12,255)"  stroke="rgb(12,12,255)" stroke-width="1" font-size="16" >N</text>
<text x="172.564064" y="261.992657" fill="rgb(255,12,12)"  stroke="rgb(255,12,12)" stroke-width="1" font-size="16" >O</text>
<text x="71.034252" y="321.980942" fill="rgb(255,12,12)"  stroke="rgb(255,12,12)" stroke-width="1" font-size="16" >O</text>
<text x="207.217740" y="77.602032" fill="rgb(191,191,191)"  stroke="rgb(191,191,191)" stroke-width="1" font-size="16" >H</text>
<text x="283.414676" y="127.480981" fill="rgb(191,191,191)"  stroke="rgb(191,191,191)" stroke-width="1" font-size="16" >H</text>
<text x="207.209755" y="241.996562" fill="rgb(191,191,191)"  stroke="rgb(191,191,191)" stroke-width="1" font-size="16" >H</text>
<text font-size="18.000000" fill ="black" font-family="sans-serif"
x="140.000000" y="20.000000" ></text>
<title> - OBDepict</title>
</svg>
