<?xml version="1.0"?>
<svg xmlns="http://www.w3.org/2000/svg"
xmlns:xlink="http://www.w3.org/1999/xlink" xmlns:cml="http://www.xml-cml.org/schema" width="609.283" height="363.832" x="0" y="0" font-family="sans-serif" stroke="rgb(0,0,0)" stroke-width="1" >
<line x1="289.5" y1="316.8" x2="309.4" y2="296.9"/>
<line x1="335.5" y1="307.7" x2="309.4" y2="296.9"/>
<line x1="143.8" y1="170.9" x2="144.6" y2="170.9"/>
<line x1="143.4" y1="178.6" x2="145.0" y2="178.6"/>
<line x1="143.0" y1="186.2" x2="145.4" y2="186.2"/>
<line x1="142.6" y1="193.8" x2="145.8" y2="193.8"/>
<line x1="142.2" y1="201.5" x2="146.2" y2="201.5"/>
<line x1="141.8" y1="209.1" x2="146.6" y2="209.1"/>
<line x1="141.4" y1="216.7" x2="147.0" y2="216.7"/>
<line x1="217.1" y1="159.8" x2="216.7" y2="159.2"/>
<line x1="223.9" y1="156.4" x2="223.1" y2="155.0"/>
<line x1="230.7" y1="152.9" x2="229.5" y2="150.8"/>
<line x1="237.6" y1="149.4" x2="236.0" y2="146.7"/>
<line x1="244.4" y1="146.0" x2="242.4" y2="142.5"/>
<line x1="251.2" y1="142.5" x2="248.8" y2="138.3"/>
<line x1="258.0" y1="139.0" x2="255.2" y2="134.2"/>
<polygon points="243.364846 182.392092 247.364846 156.829015 239.364846 156.829015 " />
<line x1="109.6" y1="102.6" x2="108.9" y2="103.0"/>
<line x1="108.1" y1="99.1" x2="106.7" y2="99.9"/>
<line x1="106.5" y1="95.6" x2="104.4" y2="96.8"/>
<line x1="105.0" y1="92.1" x2="102.2" y2="93.7"/>
<line x1="103.4" y1="88.6" x2="99.9" y2="90.6"/>
<line x1="101.8" y1="85.1" x2="97.7" y2="87.5"/>
<line x1="100.3" y1="81.6" x2="95.4" y2="84.4"/>
<line x1="542.3" y1="155.4" x2="505.5" y2="165.3"/>
<line x1="542.3" y1="155.4" x2="562.3" y2="175.4"/>
<line x1="276.4" y1="239.6" x2="252.0" y2="253.7"/>
<line x1="505.5" y1="165.3" x2="512.8" y2="138.0"/>
<line x1="177.3" y1="182.4" x2="152.8" y2="196.5"/>
<line x1="144.2" y1="125.2" x2="144.2" y2="96.9"/>
<polygon points="65.372308 103.023049 74.689745 127.161323 81.617948 123.161323 " />
<line x1="78.2" y1="125.2" x2="49.9" y2="125.2"/>
<line x1="309.4" y1="182.4" x2="337.7" y2="182.4"/>
<line x1="309.4" y1="182.4" x2="323.6" y2="157.9"/>
<line x1="538.8" y1="195.4" x2="539.0" y2="196.2"/>
<line x1="535.0" y1="196.0" x2="535.4" y2="197.6"/>
<line x1="531.2" y1="196.6" x2="531.9" y2="199.0"/>
<line x1="527.4" y1="197.2" x2="528.3" y2="200.3"/>
<line x1="523.7" y1="197.8" x2="524.7" y2="201.7"/>
<line x1="519.9" y1="198.4" x2="521.1" y2="203.1"/>
<line x1="516.1" y1="199.0" x2="517.5" y2="204.5"/>
<line x1="515.3" y1="202.1" x2="535.3" y2="222.1"/>
<polygon points="506.422599 247.196645 491.175201 226.292393 485.518347 231.949247 " />
<line x1="488.3" y1="229.1" x2="481.0" y2="256.4"/>
<polygon points="444.876777 243.937914 455.356692 220.281154 447.629285 218.210602 " />
<line x1="451.5" y1="219.2" x2="424.2" y2="226.6"/>
<line x1="441.6" y1="182.4" x2="437.9" y2="154.4"/>
<line x1="441.6" y1="182.4" x2="417.2" y2="196.5"/>
<line x1="130.3" y1="73.0" x2="111.2" y2="106.1"/>
<line x1="127.7" y1="74.5" x2="113.6" y2="50.1"/>
<line x1="132.9" y1="71.5" x2="118.8" y2="47.1"/>
<line x1="130.3" y1="73.0" x2="158.5" y2="73.0"/>
<line x1="316.3" y1="217.1" x2="315.9" y2="216.4"/>
<line x1="323.1" y1="213.6" x2="322.3" y2="212.2"/>
<line x1="329.9" y1="210.1" x2="328.7" y2="208.1"/>
<line x1="336.7" y1="206.7" x2="335.1" y2="203.9"/>
<line x1="343.5" y1="203.2" x2="341.5" y2="199.7"/>
<line x1="350.3" y1="199.7" x2="347.9" y2="195.6"/>
<line x1="357.1" y1="196.3" x2="354.3" y2="191.4"/>
<line x1="372.5" y1="182.4" x2="372.5" y2="154.2"/>
<line x1="378.5" y1="182.4" x2="378.5" y2="154.2"/>
<line x1="375.5" y1="182.4" x2="400.0" y2="196.5"/>
<line x1="210.3" y1="125.2" x2="177.3" y2="106.1"/>
<line x1="177.3" y1="106.1" x2="144.2" y2="125.2"/>
<line x1="144.2" y1="125.2" x2="144.2" y2="163.3"/>
<line x1="144.2" y1="163.3" x2="177.3" y2="182.4"/>
<line x1="177.3" y1="182.4" x2="210.3" y2="163.3"/>
<line x1="210.3" y1="163.3" x2="210.3" y2="125.2"/>
<line x1="243.4" y1="220.5" x2="243.4" y2="182.4"/>
<line x1="243.4" y1="182.4" x2="210.3" y2="163.3"/>
<line x1="177.3" y1="182.4" x2="177.3" y2="220.5"/>
<line x1="177.3" y1="220.5" x2="210.3" y2="239.6"/>
<line x1="210.3" y1="239.6" x2="243.4" y2="220.5"/>
<line x1="211.9" y1="230.4" x2="234.6" y2="217.3"/>
<line x1="78.2" y1="125.2" x2="78.2" y2="163.3"/>
<line x1="78.2" y1="163.3" x2="111.2" y2="182.4"/>
<line x1="111.2" y1="182.4" x2="144.2" y2="163.3"/>
<line x1="144.2" y1="125.2" x2="111.2" y2="106.1"/>
<line x1="111.2" y1="106.1" x2="78.2" y2="125.2"/>
<line x1="243.4" y1="220.5" x2="276.4" y2="239.6"/>
<line x1="276.4" y1="239.6" x2="309.4" y2="220.5"/>
<line x1="309.4" y1="220.5" x2="309.4" y2="182.4"/>
<line x1="309.4" y1="182.4" x2="276.4" y2="163.3"/>
<line x1="276.4" y1="163.3" x2="243.4" y2="182.4"/>
<line x1="309.4" y1="296.9" x2="342.5" y2="277.8"/>
<line x1="342.5" y1="277.8" x2="342.5" y2="239.6"/>
<line x1="342.5" y1="239.6" x2="309.4" y2="220.5"/>
<line x1="276.4" y1="239.6" x2="276.4" y2="277.8"/>
<line x1="276.4" y1="277.8" x2="309.4" y2="296.9"/>
<line x1="488.3" y1="229.1" x2="451.5" y2="219.2"/>
<line x1="451.5" y1="219.2" x2="441.6" y2="182.4"/>
<line x1="441.6" y1="182.4" x2="461.6" y2="162.4"/>
<line x1="478.2" y1="158.0" x2="505.5" y2="165.3"/>
<line x1="505.5" y1="165.3" x2="515.3" y2="202.1"/>
<line x1="515.3" y1="202.1" x2="488.3" y2="229.1"/>
<text x="258.870403" y="328.632474" fill="rgb(102,102,102)"  stroke="rgb(102,102,102)" stroke-width="1" font-size="16" >H</text>
<text x="270.870403" y="333.432474" fill="rgb(102,102,102)"  stroke="rgb(102,102,102)" stroke-width="1" font-size="13" >3</text>
<text x="277.370403" y="328.632474" fill="rgb(102,102,102)"  stroke="rgb(102,102,102)" stroke-width="1" font-size="16" >C</text>
<text x="338.698804" y="316.254476" fill="rgb(102,102,102)"  stroke="rgb(102,102,102)" stroke-width="1" font-size="16" >CH</text>
<text x="362.698804" y="321.054476" fill="rgb(102,102,102)"  stroke="rgb(102,102,102)" stroke-width="1" font-size="13" >3</text>
<text x="138.238246" y="244.422862" fill="rgb(102,102,102)"  stroke="rgb(102,102,102)" stroke-width="1" font-size="16" >CH</text>
<text x="162.238246" y="249.222862" fill="rgb(102,102,102)"  stroke="rgb(102,102,102)" stroke-width="1" font-size="13" >3</text>
<text x="270.407046" y="133.481323" fill="rgb(102,102,102)"  stroke="rgb(102,102,102)" stroke-width="1" font-size="16" >CH</text>
<text x="294.407046" y="141.161323" fill="rgb(102,102,102)"  stroke="rgb(102,102,102)" stroke-width="1" font-size="13" >3</text>
<text x="237.364846" y="152.558246" fill="rgb(102,102,102)"  stroke="rgb(102,102,102)" stroke-width="1" font-size="16" >CH</text>
<text x="261.364846" y="160.238246" fill="rgb(102,102,102)"  stroke="rgb(102,102,102)" stroke-width="1" font-size="13" >3</text>
<text x="68.519123" y="81.362200" fill="rgb(102,102,102)"  stroke="rgb(102,102,102)" stroke-width="1" font-size="16" >H</text>
<text x="80.519123" y="89.042200" fill="rgb(102,102,102)"  stroke="rgb(102,102,102)" stroke-width="1" font-size="13" >3</text>
<text x="87.019123" y="81.362200" fill="rgb(102,102,102)"  stroke="rgb(102,102,102)" stroke-width="1" font-size="16" >C</text>
<text x="563.283304" y="187.192092" fill="rgb(255,12,12)"  stroke="rgb(255,12,12)" stroke-width="1" font-size="16" >OH</text>
<text x="24.400000" y="129.961323" fill="rgb(255,12,12)"  stroke="rgb(255,12,12)" stroke-width="1" font-size="16" >HO</text>
<text x="322.526169" y="157.669892" fill="rgb(255,12,12)"  stroke="rgb(255,12,12)" stroke-width="1" font-size="16" >OH</text>
<text x="536.304460" y="233.920820" fill="rgb(255,12,12)"  stroke="rgb(255,12,12)" stroke-width="1" font-size="16" >OH</text>
<text x="462.871832" y="270.774605" fill="rgb(255,12,12)"  stroke="rgb(255,12,12)" stroke-width="1" font-size="16" >HO</text>
<text x="399.039203" y="233.920820" fill="rgb(255,12,12)"  stroke="rgb(255,12,12)" stroke-width="1" font-size="16" >HO</text>
<text x="107.596046" y="48.320000" fill="rgb(255,12,12)"  stroke="rgb(255,12,12)" stroke-width="1" font-size="16" >O</text>
<text x="163.626815" y="66.642200" fill="rgb(255,12,12)"  stroke="rgb(255,12,12)" stroke-width="1" font-size="32" >-</text>
<text x="162.426815" y="81.362200" fill="rgb(255,12,12)"  stroke="rgb(255,12,12)" stroke-width="1" font-size="16" >O</text>
<text x="369.533646" y="152.558246" fill="rgb(255,12,12)"  stroke="rgb(255,12,12)" stroke-width="1" font-size="16" >O</text>
<text x="464.996890" y="163.733249" fill="rgb(255,12,12)"  stroke="rgb(255,12,12)" stroke-width="1" font-size="16" >O</text>
<text x="402.575846" y="206.269015" fill="rgb(255,12,12)"  stroke="rgb(255,12,12)" stroke-width="1" font-size="16" >O</text>
<text x="239.764846" y="263.499785" fill="rgb(191,191,191)"  stroke="rgb(191,191,191)" stroke-width="1" font-size="16" >H</text>
<text x="509.325617" y="136.754406" fill="rgb(191,191,191)"  stroke="rgb(191,191,191)" stroke-width="1" font-size="16" >H</text>
<text x="140.638246" y="206.269015" fill="rgb(191,191,191)"  stroke="rgb(191,191,191)" stroke-width="1" font-size="16" >H</text>
<text x="138.238246" y="95.327477" fill="rgb(191,191,191)"  stroke="rgb(191,191,191)" stroke-width="1" font-size="16" >H</text>
<text x="55.476923" y="100.439123" fill="rgb(191,191,191)"  stroke="rgb(191,191,191)" stroke-width="1" font-size="16" >H</text>
<text x="341.603092" y="190.712092" fill="rgb(191,191,191)"  stroke="rgb(191,191,191)" stroke-width="1" font-size="16" >H</text>
<text x="546.179403" y="200.587034" fill="rgb(191,191,191)"  stroke="rgb(191,191,191)" stroke-width="1" font-size="16" >H</text>
<text x="509.325617" y="260.899663" fill="rgb(191,191,191)"  stroke="rgb(191,191,191)" stroke-width="1" font-size="16" >H</text>
<text x="438.018046" y="260.899663" fill="rgb(191,191,191)"  stroke="rgb(191,191,191)" stroke-width="1" font-size="16" >H</text>
<text x="433.037970" y="152.884658" fill="rgb(191,191,191)"  stroke="rgb(191,191,191)" stroke-width="1" font-size="16" >H</text>
<text font-size="18.000000" fill ="black" font-family="sans-serif"
x="140.000000" y="20.000000" ></text>
<title> - OBDepict</title>
</svg>
