<?xml version="1.0"?>
<svg xmlns="http://www.w3.org/2000/svg"
xmlns:xlink="http://www.w3.org/1999/xlink" xmlns:cml="http://www.xml-cml.org/schema" width="229.282" height="209.282" x="0" y="0" font-family="sans-serif" stroke="rgb(0,0,0)" stroke-width="1" >
<line x1="117.0" y1="71.4" x2="116.3" y2="71.0"/>
<line x1="119.3" y1="68.1" x2="117.9" y2="67.3"/>
<line x1="121.7" y1="64.8" x2="119.6" y2="63.6"/>
<line x1="124.0" y1="61.6" x2="121.3" y2="60.0"/>
<line x1="126.4" y1="58.3" x2="122.9" y2="56.3"/>
<line x1="128.7" y1="55.1" x2="124.6" y2="52.7"/>
<line x1="131.1" y1="51.8" x2="126.2" y2="49.0"/>
<line x1="134.6" y1="40.0" x2="164.2" y2="40.0"/>
<line x1="67.5" y1="157.0" x2="66.9" y2="156.6"/>
<line x1="69.9" y1="153.7" x2="68.5" y2="152.9"/>
<line x1="72.2" y1="150.5" x2="70.2" y2="149.3"/>
<line x1="74.6" y1="147.2" x2="71.8" y2="145.6"/>
<line x1="76.9" y1="144.0" x2="73.5" y2="142.0"/>
<line x1="79.3" y1="140.7" x2="75.1" y2="138.3"/>
<line x1="81.6" y1="137.4" x2="76.8" y2="134.6"/>
<line x1="80.0" y1="134.6" x2="50.4" y2="134.6"/>
<line x1="54.4" y1="95.0" x2="54.4" y2="94.2"/>
<line x1="58.4" y1="95.4" x2="58.4" y2="93.8"/>
<line x1="62.4" y1="95.8" x2="62.4" y2="93.4"/>
<line x1="66.4" y1="96.2" x2="66.4" y2="93.0"/>
<line x1="70.4" y1="96.6" x2="70.4" y2="92.6"/>
<line x1="74.4" y1="97.0" x2="74.4" y2="92.2"/>
<line x1="78.4" y1="97.4" x2="78.4" y2="91.8"/>
<line x1="80.0" y1="94.6" x2="65.2" y2="69.0"/>
<polygon points="162.682032 71.431535 145.817931 92.641016 152.746134 96.641016 " />
<line x1="149.3" y1="94.6" x2="178.9" y2="94.6"/>
<line x1="114.6" y1="74.6" x2="99.8" y2="49.0"/>
<line x1="114.6" y1="154.6" x2="140.3" y2="139.8"/>
<line x1="149.3" y1="124.2" x2="149.3" y2="94.6"/>
<line x1="149.3" y1="94.6" x2="114.6" y2="74.6"/>
<line x1="114.6" y1="74.6" x2="80.0" y2="94.6"/>
<line x1="80.0" y1="94.6" x2="80.0" y2="134.6"/>
<line x1="80.0" y1="134.6" x2="114.6" y2="154.6"/>
<text x="168.641016" y="44.800000" fill="rgb(255,12,12)"  stroke="rgb(255,12,12)" stroke-width="1" font-size="16" >OH</text>
<text x="24.400000" y="139.441016" fill="rgb(255,12,12)"  stroke="rgb(255,12,12)" stroke-width="1" font-size="16" >HO</text>
<text x="44.400000" y="68.320000" fill="rgb(255,12,12)"  stroke="rgb(255,12,12)" stroke-width="1" font-size="16" >HO</text>
<text x="183.282032" y="102.961016" fill="rgb(255,12,12)"  stroke="rgb(255,12,12)" stroke-width="1" font-size="16" >OH</text>
<text x="79.041016" y="48.320000" fill="rgb(255,12,12)"  stroke="rgb(255,12,12)" stroke-width="1" font-size="16" >HO</text>
<text x="143.282032" y="139.441016" fill="rgb(255,12,12)"  stroke="rgb(255,12,12)" stroke-width="1" font-size="16" >O</text>
<text x="56.400000" y="174.082032" fill="rgb(191,191,191)"  stroke="rgb(191,191,191)" stroke-width="1" font-size="16" >H</text>
<text x="36.400000" y="99.441016" fill="rgb(191,191,191)"  stroke="rgb(191,191,191)" stroke-width="1" font-size="16" >H</text>
<text x="163.282032" y="68.320000" fill="rgb(191,191,191)"  stroke="rgb(191,191,191)" stroke-width="1" font-size="16" >H</text>
<text font-size="18.000000" fill ="black" font-family="sans-serif"
x="140.000000" y="20.000000" ></text>
<title> - OBDepict</title>
</svg>
