<?xml version="1.0"?>
<svg xmlns="http://www.w3.org/2000/svg"
xmlns:xlink="http://www.w3.org/1999/xlink" xmlns:cml="http://www.xml-cml.org/schema" width="360.979" height="339.422" x="0" y="0" font-family="sans-serif" stroke="rgb(0,0,0)" stroke-width="1" >
<line x1="217.1" y1="239.4" x2="217.1" y2="199.4"/>
<line x1="217.1" y1="239.4" x2="251.7" y2="259.4"/>
<line x1="217.1" y1="199.4" x2="182.4" y2="179.4"/>
<line x1="69.7" y1="66.8" x2="99.5" y2="93.5"/>
<line x1="69.7" y1="66.8" x2="47.7" y2="47.0"/>
<line x1="66.9" y1="69.9" x2="44.9" y2="50.1"/>
<line x1="72.5" y1="63.6" x2="50.5" y2="43.8"/>
<line x1="217.1" y1="159.4" x2="182.4" y2="179.4"/>
<line x1="286.3" y1="119.4" x2="312.0" y2="104.6"/>
<line x1="254.7" y1="259.4" x2="254.7" y2="289.0"/>
<line x1="248.7" y1="259.4" x2="248.7" y2="289.0"/>
<line x1="251.7" y1="259.4" x2="277.3" y2="244.6"/>
<line x1="120.9" y1="199.4" x2="149.0" y2="208.6"/>
<line x1="165.0" y1="203.4" x2="182.4" y2="179.4"/>
<line x1="182.4" y1="179.4" x2="158.9" y2="147.1"/>
<line x1="158.9" y1="147.1" x2="120.9" y2="159.4"/>
<line x1="155.4" y1="155.8" x2="128.8" y2="164.4"/>
<line x1="120.9" y1="159.4" x2="120.9" y2="199.4"/>
<line x1="217.1" y1="119.4" x2="217.1" y2="159.4"/>
<line x1="224.3" y1="125.4" x2="224.3" y2="153.4"/>
<line x1="217.1" y1="159.4" x2="251.7" y2="179.4"/>
<line x1="251.7" y1="179.4" x2="286.3" y2="159.4"/>
<line x1="253.3" y1="170.2" x2="277.5" y2="156.2"/>
<line x1="286.3" y1="159.4" x2="286.3" y2="119.4"/>
<line x1="286.3" y1="119.4" x2="251.7" y2="99.4"/>
<line x1="277.5" y1="122.7" x2="253.3" y2="108.7"/>
<line x1="251.7" y1="99.4" x2="217.1" y2="119.4"/>
<line x1="137.5" y1="81.2" x2="99.5" y2="93.5"/>
<line x1="99.5" y1="93.5" x2="91.1" y2="132.7"/>
<line x1="105.2" y1="100.9" x2="99.4" y2="128.3"/>
<line x1="91.1" y1="132.7" x2="120.9" y2="159.4"/>
<line x1="158.9" y1="147.1" x2="167.2" y2="107.9"/>
<line x1="167.2" y1="107.9" x2="137.5" y2="81.2"/>
<line x1="157.9" y1="109.3" x2="137.1" y2="90.5"/>
<text x="314.978647" y="107.741577" fill="rgb(127,178,255)"  stroke="rgb(127,178,255)" stroke-width="1" font-size="16" >F</text>
<text x="36.400000" y="48.320000" fill="rgb(12,12,255)"  stroke="rgb(12,12,255)" stroke-width="1" font-size="16" >N</text>
<text x="245.696614" y="304.221577" fill="rgb(255,12,12)"  stroke="rgb(255,12,12)" stroke-width="1" font-size="16" >O</text>
<text x="280.337631" y="247.741577" fill="rgb(255,12,12)"  stroke="rgb(255,12,12)" stroke-width="1" font-size="16" >OH</text>
<text x="152.903172" y="216.582257" fill="rgb(255,12,12)"  stroke="rgb(255,12,12)" stroke-width="1" font-size="16" >O</text>
<text font-size="18.000000" fill ="black" font-family="sans-serif"
x="140.000000" y="20.000000" ></text>
<title> - OBDepict</title>
</svg>
