<?xml version="1.0"?>
<svg xmlns="http://www.w3.org/2000/svg"
xmlns:xlink="http://www.w3.org/1999/xlink" xmlns:cml="http://www.xml-cml.org/schema" width="346.11" height="284.194" x="0" y="0" font-family="sans-serif" stroke="rgb(0,0,0)" stroke-width="1" >
<line x1="107.4" y1="86.3" x2="106.6" y2="86.0"/>
<line x1="109.3" y1="83.0" x2="107.8" y2="82.3"/>
<line x1="111.2" y1="79.6" x2="109.0" y2="78.6"/>
<line x1="113.2" y1="76.2" x2="110.3" y2="74.9"/>
<line x1="115.1" y1="72.9" x2="111.5" y2="71.3"/>
<line x1="117.0" y1="69.5" x2="112.7" y2="67.6"/>
<line x1="119.0" y1="66.2" x2="113.9" y2="63.9"/>
<line x1="172.3" y1="128.3" x2="197.1" y2="114.0"/>
<line x1="138.9" y1="147.6" x2="89.4" y2="176.2"/>
<line x1="105.4" y1="128.3" x2="117.1" y2="154.4"/>
<line x1="272.7" y1="186.3" x2="297.4" y2="200.6"/>
<polygon points="49.471253 60.462404 66.024243 80.749314 71.377288 74.804156 " />
<line x1="68.7" y1="77.8" x2="74.6" y2="49.8"/>
<line x1="239.2" y1="205.6" x2="239.2" y2="234.2"/>
<line x1="105.4" y1="128.3" x2="68.7" y2="140.3"/>
<line x1="68.7" y1="140.3" x2="46.0" y2="109.0"/>
<line x1="46.0" y1="109.0" x2="68.7" y2="77.8"/>
<line x1="68.7" y1="77.8" x2="105.4" y2="89.7"/>
<line x1="105.4" y1="89.7" x2="105.4" y2="128.3"/>
<line x1="138.9" y1="186.3" x2="172.3" y2="205.6"/>
<line x1="172.3" y1="205.6" x2="205.8" y2="186.3"/>
<line x1="205.8" y1="186.3" x2="205.8" y2="147.6"/>
<line x1="198.6" y1="180.3" x2="198.6" y2="153.6"/>
<line x1="205.8" y1="147.6" x2="172.3" y2="128.3"/>
<line x1="172.3" y1="128.3" x2="138.9" y2="147.6"/>
<line x1="138.9" y1="147.6" x2="138.9" y2="186.3"/>
<line x1="272.7" y1="186.3" x2="272.7" y2="147.6"/>
<line x1="272.7" y1="147.6" x2="239.2" y2="128.3"/>
<line x1="263.9" y1="150.9" x2="240.8" y2="137.6"/>
<line x1="239.2" y1="128.3" x2="205.8" y2="147.6"/>
<line x1="205.8" y1="186.3" x2="239.2" y2="205.6"/>
<line x1="239.2" y1="205.6" x2="272.7" y2="186.3"/>
<line x1="240.8" y1="196.3" x2="263.9" y2="183.0"/>
<line x1="105.4" y1="128.3" x2="138.9" y2="147.6"/>
<line x1="172.3" y1="128.3" x2="172.3" y2="89.7"/>
<line x1="172.3" y1="89.7" x2="138.9" y2="70.4"/>
<line x1="138.9" y1="70.4" x2="105.4" y2="89.7"/>
<text x="115.139674" y="62.749429" fill="rgb(102,102,102)"  stroke="rgb(102,102,102)" stroke-width="1" font-size="16" >CH</text>
<text x="139.139674" y="70.429429" fill="rgb(102,102,102)"  stroke="rgb(102,102,102)" stroke-width="1" font-size="13" >3</text>
<text x="300.110214" y="210.373253" fill="rgb(255,12,12)"  stroke="rgb(255,12,12)" stroke-width="1" font-size="16" >OH</text>
<text x="70.730459" y="48.320000" fill="rgb(255,12,12)"  stroke="rgb(255,12,12)" stroke-width="1" font-size="16" >OH</text>
<text x="233.217218" y="248.993943" fill="rgb(255,12,12)"  stroke="rgb(255,12,12)" stroke-width="1" font-size="16" >OH</text>
<text x="199.770719" y="117.341529" fill="rgb(191,191,191)"  stroke="rgb(191,191,191)" stroke-width="1" font-size="16" >H</text>
<text x="68.384726" y="191.062909" fill="rgb(191,191,191)"  stroke="rgb(191,191,191)" stroke-width="1" font-size="16" >H</text>
<text x="115.139674" y="168.413630" fill="rgb(191,191,191)"  stroke="rgb(191,191,191)" stroke-width="1" font-size="16" >H</text>
<text x="36.400000" y="60.254449" fill="rgb(191,191,191)"  stroke="rgb(191,191,191)" stroke-width="1" font-size="16" >H</text>
<text font-size="18.000000" fill ="black" font-family="sans-serif"
x="140.000000" y="20.000000" ></text>
<title> - OBDepict</title>
</svg>
