<?xml version="1.0"?>
<svg xmlns="http://www.w3.org/2000/svg"
xmlns:xlink="http://www.w3.org/1999/xlink" xmlns:cml="http://www.xml-cml.org/schema" width="334.641" height="258.564" x="0" y="0" font-family="sans-serif" stroke="rgb(0,0,0)" stroke-width="1" >
<line x1="260.0" y1="183.9" x2="240.0" y2="149.3"/>
<line x1="260.0" y1="183.9" x2="245.2" y2="209.6"/>
<line x1="140.0" y1="114.6" x2="180.0" y2="114.6"/>
<line x1="140.0" y1="114.6" x2="125.2" y2="140.3"/>
<line x1="240.0" y1="149.3" x2="260.0" y2="114.6"/>
<line x1="240.0" y1="152.3" x2="210.4" y2="152.3"/>
<line x1="240.0" y1="146.3" x2="210.4" y2="146.3"/>
<polygon points="180.000000 141.441016 184.000000 114.641016 176.000000 114.641016 " />
<line x1="180.0" y1="114.6" x2="200.0" y2="80.0"/>
<line x1="180.0" y1="114.6" x2="205.6" y2="129.4"/>
<polygon points="283.209481 101.241016 258.000000 111.176915 262.000000 118.105118 " />
<line x1="260.0" y1="114.6" x2="240.0" y2="80.0"/>
<line x1="260.0" y1="114.6" x2="285.6" y2="129.4"/>
<line x1="177.6" y1="67.5" x2="178.0" y2="66.9"/>
<line x1="180.9" y1="69.9" x2="181.7" y2="68.5"/>
<line x1="184.2" y1="72.2" x2="185.4" y2="70.2"/>
<line x1="187.4" y1="74.6" x2="189.0" y2="71.8"/>
<line x1="190.7" y1="76.9" x2="192.7" y2="73.5"/>
<line x1="194.0" y1="79.3" x2="196.4" y2="75.1"/>
<line x1="197.2" y1="81.6" x2="200.0" y2="76.8"/>
<line x1="200.0" y1="80.0" x2="240.0" y2="80.0"/>
<line x1="200.0" y1="80.0" x2="200.0" y2="50.4"/>
<line x1="239.6" y1="54.4" x2="240.4" y2="54.4"/>
<line x1="239.2" y1="58.4" x2="240.8" y2="58.4"/>
<line x1="238.8" y1="62.4" x2="241.2" y2="62.4"/>
<line x1="238.4" y1="66.4" x2="241.6" y2="66.4"/>
<line x1="238.0" y1="70.4" x2="242.0" y2="70.4"/>
<line x1="237.6" y1="74.4" x2="242.4" y2="74.4"/>
<line x1="237.2" y1="78.4" x2="242.8" y2="78.4"/>
<line x1="240.0" y1="80.0" x2="265.6" y2="65.2"/>
<line x1="80.0" y1="119.7" x2="80.0" y2="138.9"/>
<line x1="50.4" y1="149.3" x2="69.6" y2="149.3"/>
<line x1="77.0" y1="178.9" x2="77.0" y2="159.7"/>
<line x1="83.0" y1="178.9" x2="83.0" y2="159.7"/>
<line x1="109.6" y1="149.3" x2="90.4" y2="149.3"/>
<text x="224.400000" y="223.364065" fill="rgb(255,12,12)"  stroke="rgb(255,12,12)" stroke-width="1" font-size="16" >HO</text>
<text x="196.400000" y="154.082032" fill="rgb(255,12,12)"  stroke="rgb(255,12,12)" stroke-width="1" font-size="16" >O</text>
<text x="208.641016" y="139.441016" fill="rgb(255,12,12)"  stroke="rgb(255,12,12)" stroke-width="1" font-size="16" >OH</text>
<text x="288.641016" y="139.441016" fill="rgb(255,12,12)"  stroke="rgb(255,12,12)" stroke-width="1" font-size="16" >OH</text>
<text x="194.000000" y="48.320000" fill="rgb(255,12,12)"  stroke="rgb(255,12,12)" stroke-width="1" font-size="16" >OH</text>
<text x="268.641016" y="68.320000" fill="rgb(255,12,12)"  stroke="rgb(255,12,12)" stroke-width="1" font-size="16" >OH</text>
<text x="74.000000" y="117.602032" fill="rgb(255,12,12)"  stroke="rgb(255,12,12)" stroke-width="1" font-size="16" >OH</text>
<text x="24.400000" y="157.602032" fill="rgb(255,12,12)"  stroke="rgb(255,12,12)" stroke-width="1" font-size="16" >HO</text>
<text x="74.000000" y="194.082032" fill="rgb(255,12,12)"  stroke="rgb(255,12,12)" stroke-width="1" font-size="16" >O</text>
<text x="114.000000" y="154.082032" fill="rgb(255,12,12)"  stroke="rgb(255,12,12)" stroke-width="1" font-size="16" >O</text>
<text x="74.000000" y="154.082032" fill="rgb(255,127,0)"  stroke="rgb(255,127,0)" stroke-width="1" font-size="16" >P</text>
<text x="174.000000" y="159.441016" fill="rgb(191,191,191)"  stroke="rgb(191,191,191)" stroke-width="1" font-size="16" >H</text>
<text x="288.641016" y="102.961016" fill="rgb(191,191,191)"  stroke="rgb(191,191,191)" stroke-width="1" font-size="16" >H</text>
<text x="161.758984" y="68.320000" fill="rgb(191,191,191)"  stroke="rgb(191,191,191)" stroke-width="1" font-size="16" >H</text>
<text x="234.000000" y="48.320000" fill="rgb(191,191,191)"  stroke="rgb(191,191,191)" stroke-width="1" font-size="16" >H</text>
<text font-size="18.000000" fill ="black" font-family="sans-serif"
x="140.000000" y="20.000000" ></text>
<title> - OBDepict</title>
</svg>
