<?xml version="1.0"?>
<svg xmlns="http://www.w3.org/2000/svg"
xmlns:xlink="http://www.w3.org/1999/xlink" xmlns:cml="http://www.xml-cml.org/schema" width="308.784" height="220" x="0" y="0" font-family="sans-serif" stroke="rgb(0,0,0)" stroke-width="1" >
<line x1="137.9" y1="40.0" x2="103.3" y2="60.0"/>
<line x1="137.9" y1="40.0" x2="163.6" y2="54.8"/>
<line x1="172.6" y1="100.0" x2="172.6" y2="70.4"/>
<line x1="207.2" y1="120.0" x2="235.4" y2="110.9"/>
<line x1="251.4" y1="116.1" x2="268.8" y2="140.0"/>
<line x1="246.7" y1="121.9" x2="259.4" y2="139.4"/>
<line x1="268.8" y1="140.0" x2="251.4" y2="163.9"/>
<line x1="235.4" y1="169.1" x2="207.2" y2="160.0"/>
<line x1="235.7" y1="161.7" x2="215.2" y2="155.0"/>
<line x1="207.2" y1="160.0" x2="207.2" y2="120.0"/>
<line x1="40.0" y1="73.5" x2="66.8" y2="43.7"/>
<line x1="66.8" y1="43.7" x2="103.3" y2="60.0"/>
<line x1="69.3" y1="52.7" x2="94.9" y2="64.1"/>
<line x1="103.3" y1="60.0" x2="100.2" y2="89.4"/>
<line x1="89.0" y1="101.9" x2="60.0" y2="108.1"/>
<line x1="60.0" y1="108.1" x2="40.0" y2="73.5"/>
<line x1="63.2" y1="99.3" x2="49.2" y2="75.1"/>
<line x1="137.9" y1="160.0" x2="137.9" y2="130.4"/>
<line x1="145.1" y1="154.0" x2="145.1" y2="132.4"/>
<line x1="147.0" y1="114.8" x2="172.6" y2="100.0"/>
<line x1="172.6" y1="100.0" x2="207.2" y2="120.0"/>
<line x1="174.2" y1="109.2" x2="198.4" y2="123.2"/>
<line x1="207.2" y1="160.0" x2="181.6" y2="174.8"/>
<line x1="163.6" y1="174.8" x2="137.9" y2="160.0"/>
<text x="166.589075" y="68.320000" fill="rgb(12,12,255)"  stroke="rgb(12,12,255)" stroke-width="1" font-size="16" >NH</text>
<text x="239.272352" y="115.959320" fill="rgb(12,12,255)"  stroke="rgb(12,12,255)" stroke-width="1" font-size="16" >N</text>
<text x="239.272352" y="177.160680" fill="rgb(12,12,255)"  stroke="rgb(12,12,255)" stroke-width="1" font-size="16" >N</text>
<text x="134.348059" y="128.320000" fill="rgb(12,12,255)"  stroke="rgb(12,12,255)" stroke-width="1" font-size="16" >N</text>
<text x="166.589075" y="184.800000" fill="rgb(12,12,255)"  stroke="rgb(12,12,255)" stroke-width="1" font-size="16" >NH</text>
<text x="93.125904" y="104.580876" fill="rgb(255,12,12)"  stroke="rgb(255,12,12)" stroke-width="1" font-size="16" >O</text>
<text font-size="18.000000" fill ="black" font-family="sans-serif"
x="140.000000" y="20.000000" ></text>
<title> - OBDepict</title>
</svg>
