<?xml version="1.0"?>
<svg xmlns="http://www.w3.org/2000/svg"
xmlns:xlink="http://www.w3.org/1999/xlink" xmlns:cml="http://www.xml-cml.org/schema" width="738.179" height="1280" x="0" y="0" font-family="sans-serif" stroke="rgb(0,0,0)" stroke-width="1" >
<line x1="637.9" y1="45.2" x2="663.5" y2="60.0"/>
<line x1="689.2" y1="45.2" x2="663.5" y2="60.0"/>
<line x1="637.9" y1="165.2" x2="663.5" y2="180.0"/>
<line x1="568.6" y1="285.2" x2="594.3" y2="300.0"/>
<line x1="499.3" y1="405.2" x2="525.0" y2="420.0"/>
<line x1="430.1" y1="525.2" x2="455.7" y2="540.0"/>
<line x1="360.8" y1="645.2" x2="386.4" y2="660.0"/>
<line x1="291.5" y1="765.2" x2="317.1" y2="780.0"/>
<line x1="222.2" y1="885.2" x2="247.8" y2="900.0"/>
<line x1="152.9" y1="1005.2" x2="178.6" y2="1020.0"/>
<line x1="698.2" y1="120.0" x2="663.5" y2="100.0"/>
<line x1="698.2" y1="120.0" x2="698.2" y2="160.0"/>
<line x1="628.9" y1="240.0" x2="663.5" y2="220.0"/>
<line x1="628.9" y1="240.0" x2="628.9" y2="280.0"/>
<line x1="559.6" y1="360.0" x2="594.3" y2="340.0"/>
<line x1="559.6" y1="360.0" x2="559.6" y2="400.0"/>
<line x1="490.3" y1="480.0" x2="525.0" y2="460.0"/>
<line x1="490.3" y1="480.0" x2="490.3" y2="520.0"/>
<line x1="421.1" y1="600.0" x2="455.7" y2="580.0"/>
<line x1="421.1" y1="600.0" x2="421.1" y2="640.0"/>
<line x1="351.8" y1="720.0" x2="386.4" y2="700.0"/>
<line x1="351.8" y1="720.0" x2="351.8" y2="760.0"/>
<line x1="282.5" y1="840.0" x2="317.1" y2="820.0"/>
<line x1="282.5" y1="840.0" x2="282.5" y2="880.0"/>
<line x1="213.2" y1="960.0" x2="247.8" y2="940.0"/>
<line x1="213.2" y1="960.0" x2="213.2" y2="1000.0"/>
<line x1="660.5" y1="100.0" x2="660.5" y2="60.0"/>
<line x1="666.5" y1="100.0" x2="666.5" y2="60.0"/>
<line x1="698.2" y1="160.0" x2="663.5" y2="180.0"/>
<line x1="663.5" y1="220.0" x2="689.2" y2="234.8"/>
<line x1="660.5" y1="220.0" x2="660.5" y2="180.0"/>
<line x1="666.5" y1="220.0" x2="666.5" y2="180.0"/>
<line x1="628.9" y1="280.0" x2="594.3" y2="300.0"/>
<line x1="594.3" y1="340.0" x2="619.9" y2="354.8"/>
<line x1="591.3" y1="340.0" x2="591.3" y2="300.0"/>
<line x1="597.3" y1="340.0" x2="597.3" y2="300.0"/>
<line x1="559.6" y1="400.0" x2="525.0" y2="420.0"/>
<line x1="525.0" y1="460.0" x2="550.6" y2="474.8"/>
<line x1="522.0" y1="460.0" x2="522.0" y2="420.0"/>
<line x1="528.0" y1="460.0" x2="528.0" y2="420.0"/>
<line x1="490.3" y1="520.0" x2="455.7" y2="540.0"/>
<line x1="455.7" y1="580.0" x2="481.3" y2="594.8"/>
<line x1="452.7" y1="580.0" x2="452.7" y2="540.0"/>
<line x1="458.7" y1="580.0" x2="458.7" y2="540.0"/>
<line x1="421.1" y1="640.0" x2="386.4" y2="660.0"/>
<line x1="386.4" y1="700.0" x2="412.0" y2="714.8"/>
<line x1="383.4" y1="700.0" x2="383.4" y2="660.0"/>
<line x1="389.4" y1="700.0" x2="389.4" y2="660.0"/>
<line x1="351.8" y1="760.0" x2="317.1" y2="780.0"/>
<line x1="317.1" y1="820.0" x2="342.8" y2="834.8"/>
<line x1="314.1" y1="820.0" x2="314.1" y2="780.0"/>
<line x1="320.1" y1="820.0" x2="320.1" y2="780.0"/>
<line x1="282.5" y1="880.0" x2="247.8" y2="900.0"/>
<line x1="247.8" y1="940.0" x2="273.5" y2="954.8"/>
<line x1="244.8" y1="940.0" x2="244.8" y2="900.0"/>
<line x1="250.8" y1="940.0" x2="250.8" y2="900.0"/>
<line x1="213.2" y1="1000.0" x2="178.6" y2="1020.0"/>
<line x1="178.6" y1="1060.0" x2="204.2" y2="1074.8"/>
<line x1="178.6" y1="1060.0" x2="143.9" y2="1080.0"/>
<line x1="175.6" y1="1060.0" x2="175.6" y2="1020.0"/>
<line x1="181.6" y1="1060.0" x2="181.6" y2="1020.0"/>
<line x1="143.9" y1="1080.0" x2="143.9" y2="1120.0"/>
<line x1="109.3" y1="1180.0" x2="74.6" y2="1200.0"/>
<line x1="178.6" y1="1180.0" x2="204.2" y2="1194.8"/>
<line x1="178.6" y1="1140.0" x2="204.2" y2="1125.2"/>
<line x1="73.1" y1="1202.6" x2="47.5" y2="1187.8"/>
<line x1="76.1" y1="1197.4" x2="50.5" y2="1182.6"/>
<line x1="74.6" y1="1200.0" x2="74.6" y2="1229.6"/>
<line x1="109.3" y1="1140.0" x2="109.3" y2="1180.0"/>
<line x1="109.3" y1="1180.0" x2="143.9" y2="1200.0"/>
<line x1="118.1" y1="1176.8" x2="142.3" y2="1190.8"/>
<line x1="143.9" y1="1200.0" x2="178.6" y2="1180.0"/>
<line x1="178.6" y1="1180.0" x2="178.6" y2="1140.0"/>
<line x1="171.4" y1="1174.0" x2="171.4" y2="1146.0"/>
<line x1="178.6" y1="1140.0" x2="143.9" y2="1120.0"/>
<line x1="143.9" y1="1120.0" x2="109.3" y2="1140.0"/>
<line x1="142.3" y1="1129.2" x2="118.1" y2="1143.2"/>
<text x="605.297275" y="48.320000" fill="rgb(102,102,102)"  stroke="rgb(102,102,102)" stroke-width="1" font-size="16" >H</text>
<text x="617.297275" y="56.000000" fill="rgb(102,102,102)"  stroke="rgb(102,102,102)" stroke-width="1" font-size="13" >3</text>
<text x="623.797275" y="48.320000" fill="rgb(102,102,102)"  stroke="rgb(102,102,102)" stroke-width="1" font-size="16" >C</text>
<text x="692.179307" y="48.320000" fill="rgb(102,102,102)"  stroke="rgb(102,102,102)" stroke-width="1" font-size="16" >CH</text>
<text x="716.179307" y="56.000000" fill="rgb(102,102,102)"  stroke="rgb(102,102,102)" stroke-width="1" font-size="13" >3</text>
<text x="605.297275" y="168.320000" fill="rgb(102,102,102)"  stroke="rgb(102,102,102)" stroke-width="1" font-size="16" >H</text>
<text x="617.297275" y="176.000000" fill="rgb(102,102,102)"  stroke="rgb(102,102,102)" stroke-width="1" font-size="13" >3</text>
<text x="623.797275" y="168.320000" fill="rgb(102,102,102)"  stroke="rgb(102,102,102)" stroke-width="1" font-size="16" >C</text>
<text x="536.015242" y="288.320000" fill="rgb(102,102,102)"  stroke="rgb(102,102,102)" stroke-width="1" font-size="16" >H</text>
<text x="548.015242" y="296.000000" fill="rgb(102,102,102)"  stroke="rgb(102,102,102)" stroke-width="1" font-size="13" >3</text>
<text x="554.515242" y="288.320000" fill="rgb(102,102,102)"  stroke="rgb(102,102,102)" stroke-width="1" font-size="16" >C</text>
<text x="466.733210" y="408.320000" fill="rgb(102,102,102)"  stroke="rgb(102,102,102)" stroke-width="1" font-size="16" >H</text>
<text x="478.733210" y="416.000000" fill="rgb(102,102,102)"  stroke="rgb(102,102,102)" stroke-width="1" font-size="13" >3</text>
<text x="485.233210" y="408.320000" fill="rgb(102,102,102)"  stroke="rgb(102,102,102)" stroke-width="1" font-size="16" >C</text>
<text x="397.451178" y="528.320000" fill="rgb(102,102,102)"  stroke="rgb(102,102,102)" stroke-width="1" font-size="16" >H</text>
<text x="409.451178" y="536.000000" fill="rgb(102,102,102)"  stroke="rgb(102,102,102)" stroke-width="1" font-size="13" >3</text>
<text x="415.951178" y="528.320000" fill="rgb(102,102,102)"  stroke="rgb(102,102,102)" stroke-width="1" font-size="16" >C</text>
<text x="328.169145" y="648.320000" fill="rgb(102,102,102)"  stroke="rgb(102,102,102)" stroke-width="1" font-size="16" >H</text>
<text x="340.169145" y="656.000000" fill="rgb(102,102,102)"  stroke="rgb(102,102,102)" stroke-width="1" font-size="13" >3</text>
<text x="346.669145" y="648.320000" fill="rgb(102,102,102)"  stroke="rgb(102,102,102)" stroke-width="1" font-size="16" >C</text>
<text x="258.887113" y="768.320000" fill="rgb(102,102,102)"  stroke="rgb(102,102,102)" stroke-width="1" font-size="16" >H</text>
<text x="270.887113" y="776.000000" fill="rgb(102,102,102)"  stroke="rgb(102,102,102)" stroke-width="1" font-size="13" >3</text>
<text x="277.387113" y="768.320000" fill="rgb(102,102,102)"  stroke="rgb(102,102,102)" stroke-width="1" font-size="16" >C</text>
<text x="189.605081" y="888.320000" fill="rgb(102,102,102)"  stroke="rgb(102,102,102)" stroke-width="1" font-size="16" >H</text>
<text x="201.605081" y="896.000000" fill="rgb(102,102,102)"  stroke="rgb(102,102,102)" stroke-width="1" font-size="13" >3</text>
<text x="208.105081" y="888.320000" fill="rgb(102,102,102)"  stroke="rgb(102,102,102)" stroke-width="1" font-size="16" >C</text>
<text x="120.323048" y="1008.320000" fill="rgb(102,102,102)"  stroke="rgb(102,102,102)" stroke-width="1" font-size="16" >H</text>
<text x="132.323048" y="1016.000000" fill="rgb(102,102,102)"  stroke="rgb(102,102,102)" stroke-width="1" font-size="13" >3</text>
<text x="138.823048" y="1008.320000" fill="rgb(102,102,102)"  stroke="rgb(102,102,102)" stroke-width="1" font-size="16" >C</text>
<text x="208.405081" y="1219.200000" fill="rgb(255,12,12)"  stroke="rgb(255,12,12)" stroke-width="1" font-size="32" >-</text>
<text x="207.205081" y="1204.800000" fill="rgb(255,12,12)"  stroke="rgb(255,12,12)" stroke-width="1" font-size="16" >O</text>
<text x="207.205081" y="1128.320000" fill="rgb(255,12,12)"  stroke="rgb(255,12,12)" stroke-width="1" font-size="16" >OH</text>
<text x="36.400000" y="1188.320000" fill="rgb(255,12,12)"  stroke="rgb(255,12,12)" stroke-width="1" font-size="16" >O</text>
<text x="68.641016" y="1244.800000" fill="rgb(255,12,12)"  stroke="rgb(255,12,12)" stroke-width="1" font-size="16" >OH</text>
<text x="692.179307" y="244.800000" fill="rgb(191,191,191)"  stroke="rgb(191,191,191)" stroke-width="1" font-size="16" >H</text>
<text x="622.897275" y="364.800000" fill="rgb(191,191,191)"  stroke="rgb(191,191,191)" stroke-width="1" font-size="16" >H</text>
<text x="553.615242" y="484.800000" fill="rgb(191,191,191)"  stroke="rgb(191,191,191)" stroke-width="1" font-size="16" >H</text>
<text x="484.333210" y="604.800000" fill="rgb(191,191,191)"  stroke="rgb(191,191,191)" stroke-width="1" font-size="16" >H</text>
<text x="415.051178" y="724.800000" fill="rgb(191,191,191)"  stroke="rgb(191,191,191)" stroke-width="1" font-size="16" >H</text>
<text x="345.769145" y="844.800000" fill="rgb(191,191,191)"  stroke="rgb(191,191,191)" stroke-width="1" font-size="16" >H</text>
<text x="276.487113" y="964.800000" fill="rgb(191,191,191)"  stroke="rgb(191,191,191)" stroke-width="1" font-size="16" >H</text>
<text x="207.205081" y="1084.800000" fill="rgb(191,191,191)"  stroke="rgb(191,191,191)" stroke-width="1" font-size="16" >H</text>
<text font-size="18.000000" fill ="black" font-family="sans-serif"
x="140.000000" y="20.000000" ></text>
<title> - OBDepict</title>
</svg>
