<?xml version="1.0"?>
<svg xmlns="http://www.w3.org/2000/svg"
xmlns:xlink="http://www.w3.org/1999/xlink" xmlns:cml="http://www.xml-cml.org/schema" width="318.667" height="253.333" x="0" y="0" font-family="sans-serif" stroke="rgb(0,0,0)" stroke-width="1" >
<line x1="281.7" y1="50.0" x2="281.7" y2="78.5"/>
<line x1="275.7" y1="50.0" x2="275.7" y2="78.5"/>
<line x1="226.2" y1="53.8" x2="212.0" y2="78.5"/>
<line x1="64.3" y1="130.9" x2="78.5" y2="155.6"/>
<line x1="50.0" y1="155.6" x2="78.5" y2="155.6"/>
<polygon points="145.234550 155.555556 187.934290 184.827065 191.934290 177.898861 " />
<line x1="278.7" y1="78.5" x2="245.3" y2="97.8"/>
<polygon points="199.046877 56.168648 208.486479 80.518519 215.414682 76.518519 " />
<polygon points="178.592565 71.970370 174.592565 97.777778 182.592565 97.777778 " />
<line x1="179.0" y1="160.9" x2="178.2" y2="160.9"/>
<line x1="179.4" y1="157.1" x2="177.8" y2="157.1"/>
<line x1="179.8" y1="153.2" x2="177.4" y2="153.2"/>
<line x1="180.2" y1="149.4" x2="177.0" y2="149.4"/>
<line x1="180.6" y1="145.5" x2="176.6" y2="145.5"/>
<line x1="181.0" y1="141.7" x2="176.2" y2="141.7"/>
<line x1="181.4" y1="137.8" x2="175.8" y2="137.8"/>
<line x1="90.3" y1="124.3" x2="90.7" y2="123.6"/>
<line x1="93.5" y1="126.6" x2="94.3" y2="125.2"/>
<line x1="96.6" y1="128.9" x2="97.8" y2="126.8"/>
<line x1="99.7" y1="131.1" x2="101.3" y2="128.4"/>
<line x1="102.9" y1="133.4" x2="104.9" y2="129.9"/>
<line x1="106.0" y1="135.7" x2="108.4" y2="131.5"/>
<line x1="109.1" y1="138.0" x2="111.9" y2="133.1"/>
<line x1="111.9" y1="213.3" x2="145.2" y2="194.1"/>
<line x1="145.2" y1="194.1" x2="145.2" y2="155.6"/>
<line x1="145.2" y1="155.6" x2="111.9" y2="136.3"/>
<line x1="111.9" y1="136.3" x2="78.5" y2="155.6"/>
<line x1="78.5" y1="155.6" x2="78.5" y2="194.1"/>
<line x1="78.5" y1="194.1" x2="111.9" y2="213.3"/>
<line x1="145.2" y1="78.5" x2="111.9" y2="97.8"/>
<line x1="111.9" y1="97.8" x2="111.9" y2="136.3"/>
<line x1="145.2" y1="155.6" x2="178.6" y2="136.3"/>
<line x1="178.6" y1="136.3" x2="178.6" y2="97.8"/>
<line x1="178.6" y1="97.8" x2="145.2" y2="78.5"/>
<line x1="245.3" y1="97.8" x2="212.0" y2="78.5"/>
<line x1="212.0" y1="78.5" x2="178.6" y2="97.8"/>
<line x1="178.6" y1="136.3" x2="212.0" y2="155.6"/>
<line x1="212.0" y1="155.6" x2="245.3" y2="136.3"/>
<line x1="245.3" y1="136.3" x2="245.3" y2="97.8"/>
<line x1="238.1" y1="130.3" x2="238.1" y2="103.8"/>
<text x="272.666612" y="48.320000" fill="rgb(102,102,102)"  stroke="rgb(102,102,102)" stroke-width="1" font-size="16" >CH</text>
<text x="296.666612" y="56.000000" fill="rgb(102,102,102)"  stroke="rgb(102,102,102)" stroke-width="1" font-size="13" >2</text>
<text x="225.209840" y="53.480503" fill="rgb(102,102,102)"  stroke="rgb(102,102,102)" stroke-width="1" font-size="16" >CH</text>
<text x="249.209840" y="61.160503" fill="rgb(102,102,102)"  stroke="rgb(102,102,102)" stroke-width="1" font-size="13" >3</text>
<text x="35.659259" y="130.517540" fill="rgb(102,102,102)"  stroke="rgb(102,102,102)" stroke-width="1" font-size="16" >H</text>
<text x="47.659259" y="138.197540" fill="rgb(102,102,102)"  stroke="rgb(102,102,102)" stroke-width="1" font-size="13" >3</text>
<text x="54.159259" y="130.517540" fill="rgb(102,102,102)"  stroke="rgb(102,102,102)" stroke-width="1" font-size="16" >C</text>
<text x="16.400000" y="160.355556" fill="rgb(102,102,102)"  stroke="rgb(102,102,102)" stroke-width="1" font-size="16" >H</text>
<text x="28.400000" y="165.155556" fill="rgb(102,102,102)"  stroke="rgb(102,102,102)" stroke-width="1" font-size="13" >3</text>
<text x="34.900000" y="160.355556" fill="rgb(102,102,102)"  stroke="rgb(102,102,102)" stroke-width="1" font-size="16" >C</text>
<text x="205.950581" y="198.874074" fill="rgb(102,102,102)"  stroke="rgb(102,102,102)" stroke-width="1" font-size="16" >CH</text>
<text x="229.950581" y="203.674074" fill="rgb(102,102,102)"  stroke="rgb(102,102,102)" stroke-width="1" font-size="13" >3</text>
<text x="189.091321" y="53.480503" fill="rgb(191,191,191)"  stroke="rgb(191,191,191)" stroke-width="1" font-size="16" >H</text>
<text x="172.592565" y="67.579259" fill="rgb(191,191,191)"  stroke="rgb(191,191,191)" stroke-width="1" font-size="16" >H</text>
<text x="172.592565" y="179.614815" fill="rgb(191,191,191)"  stroke="rgb(191,191,191)" stroke-width="1" font-size="16" >H</text>
<text x="74.918519" y="125.357037" fill="rgb(191,191,191)"  stroke="rgb(191,191,191)" stroke-width="1" font-size="16" >H</text>
<text font-size="18.000000" fill ="black" font-family="sans-serif"
x="140.000000" y="20.000000" ></text>
<title> - OBDepict</title>
</svg>
