<?xml version="1.0"?>
<svg xmlns="http://www.w3.org/2000/svg"
xmlns:xlink="http://www.w3.org/1999/xlink" xmlns:cml="http://www.xml-cml.org/schema" width="515.483" height="308.244" x="0" y="0" font-family="sans-serif" stroke="rgb(0,0,0)" stroke-width="1" >
<line x1="271.3" y1="213.2" x2="285.9" y2="187.8"/>
<line x1="276.5" y1="216.2" x2="291.1" y2="190.8"/>
<line x1="288.5" y1="189.3" x2="268.8" y2="155.0"/>
<line x1="437.3" y1="246.9" x2="409.3" y2="218.9"/>
<line x1="437.3" y1="246.9" x2="465.5" y2="239.3"/>
<polygon points="242.233372 200.960051 272.215576 157.029351 265.287373 153.029351 " />
<polygon points="236.080625 162.684929 240.080625 136.166827 232.080625 136.166827 " />
<line x1="187.7" y1="117.3" x2="188.3" y2="117.9"/>
<line x1="184.7" y1="120.0" x2="185.9" y2="121.0"/>
<line x1="181.7" y1="122.6" x2="183.5" y2="124.2"/>
<line x1="178.7" y1="125.2" x2="181.1" y2="127.4"/>
<line x1="175.7" y1="127.8" x2="178.7" y2="130.6"/>
<line x1="172.7" y1="130.5" x2="176.3" y2="133.7"/>
<line x1="169.8" y1="133.1" x2="173.9" y2="136.9"/>
<line x1="403.1" y1="243.5" x2="402.3" y2="243.3"/>
<line x1="404.5" y1="239.8" x2="403.0" y2="239.4"/>
<line x1="405.9" y1="236.1" x2="403.6" y2="235.4"/>
<line x1="407.3" y1="232.3" x2="404.2" y2="231.5"/>
<line x1="408.7" y1="228.6" x2="404.9" y2="227.6"/>
<line x1="410.1" y1="224.9" x2="405.5" y2="223.6"/>
<line x1="411.6" y1="221.2" x2="406.2" y2="219.7"/>
<polygon points="456.003591 209.682330 440.080888 188.102773 434.424034 193.759627 " />
<line x1="437.3" y1="190.9" x2="465.5" y2="183.4"/>
<line x1="451.4" y1="145.8" x2="451.6" y2="146.5"/>
<line x1="447.4" y1="146.4" x2="447.9" y2="147.9"/>
<line x1="443.5" y1="147.0" x2="444.1" y2="149.4"/>
<line x1="439.6" y1="147.7" x2="440.4" y2="150.8"/>
<line x1="435.7" y1="148.3" x2="436.7" y2="152.2"/>
<line x1="431.7" y1="148.9" x2="433.0" y2="153.6"/>
<line x1="427.8" y1="149.6" x2="429.3" y2="155.0"/>
<line x1="427.0" y1="152.7" x2="434.6" y2="124.4"/>
<polygon points="395.641359 116.842188 384.914266 141.421432 392.641673 143.491984 " />
<line x1="388.8" y1="142.5" x2="368.1" y2="121.7"/>
<line x1="200.4" y1="79.6" x2="200.4" y2="50.3"/>
<line x1="206.4" y1="79.6" x2="206.4" y2="50.3"/>
<line x1="314.4" y1="157.9" x2="313.7" y2="158.3"/>
<line x1="312.8" y1="154.3" x2="311.4" y2="155.1"/>
<line x1="311.2" y1="150.6" x2="309.1" y2="151.8"/>
<line x1="309.5" y1="147.0" x2="306.8" y2="148.6"/>
<line x1="307.9" y1="143.4" x2="304.4" y2="145.4"/>
<line x1="306.3" y1="139.8" x2="302.1" y2="142.2"/>
<line x1="304.6" y1="136.1" x2="299.8" y2="138.9"/>
<line x1="301.4" y1="136.2" x2="330.7" y2="136.2"/>
<line x1="345.7" y1="190.8" x2="345.1" y2="190.3"/>
<line x1="348.4" y1="187.9" x2="347.1" y2="186.9"/>
<line x1="351.1" y1="185.0" x2="349.2" y2="183.5"/>
<line x1="353.9" y1="182.1" x2="351.3" y2="180.1"/>
<line x1="356.6" y1="179.2" x2="353.4" y2="176.8"/>
<line x1="359.3" y1="176.3" x2="355.5" y2="173.4"/>
<line x1="362.0" y1="173.4" x2="357.6" y2="170.0"/>
<line x1="360.8" y1="170.4" x2="346.1" y2="145.1"/>
<line x1="138.1" y1="155.0" x2="105.4" y2="136.2"/>
<line x1="129.3" y1="158.3" x2="107.0" y2="145.4"/>
<line x1="105.4" y1="136.2" x2="72.7" y2="192.8"/>
<line x1="72.7" y1="192.8" x2="105.4" y2="211.6"/>
<line x1="105.4" y1="211.6" x2="129.6" y2="197.7"/>
<line x1="138.0" y1="183.0" x2="138.1" y2="155.0"/>
<line x1="40.0" y1="211.6" x2="40.0" y2="249.4"/>
<line x1="40.0" y1="249.4" x2="72.7" y2="268.2"/>
<line x1="48.8" y1="246.1" x2="71.1" y2="259.0"/>
<line x1="72.7" y1="268.2" x2="105.4" y2="249.4"/>
<line x1="105.4" y1="249.4" x2="105.4" y2="211.6"/>
<line x1="98.2" y1="243.4" x2="98.2" y2="217.6"/>
<line x1="72.7" y1="192.8" x2="40.0" y2="211.6"/>
<line x1="71.1" y1="202.0" x2="48.8" y2="214.9"/>
<line x1="162.2" y1="93.5" x2="138.0" y2="79.6"/>
<line x1="138.0" y1="79.6" x2="105.4" y2="98.4"/>
<line x1="105.4" y1="98.4" x2="105.4" y2="136.2"/>
<line x1="138.1" y1="155.0" x2="170.7" y2="136.2"/>
<line x1="170.7" y1="136.2" x2="170.7" y2="108.3"/>
<line x1="236.1" y1="98.4" x2="236.1" y2="136.2"/>
<line x1="236.1" y1="136.2" x2="203.4" y2="155.0"/>
<line x1="203.4" y1="155.0" x2="170.7" y2="136.2"/>
<line x1="179.2" y1="93.5" x2="203.4" y2="79.6"/>
<line x1="203.4" y1="79.6" x2="236.1" y2="98.4"/>
<line x1="268.8" y1="155.0" x2="236.1" y2="136.2"/>
<line x1="236.1" y1="98.4" x2="268.8" y2="79.6"/>
<line x1="244.9" y1="101.7" x2="267.2" y2="88.8"/>
<line x1="268.8" y1="79.6" x2="292.9" y2="93.5"/>
<line x1="301.4" y1="108.3" x2="301.4" y2="136.2"/>
<line x1="301.4" y1="136.2" x2="268.8" y2="155.0"/>
<line x1="427.0" y1="152.7" x2="388.8" y2="142.5"/>
<line x1="388.8" y1="142.5" x2="360.8" y2="170.4"/>
<line x1="360.8" y1="170.4" x2="368.4" y2="198.7"/>
<line x1="381.0" y1="211.3" x2="409.3" y2="218.9"/>
<line x1="409.3" y1="218.9" x2="437.3" y2="190.9"/>
<line x1="437.3" y1="190.9" x2="427.0" y2="152.7"/>
<text x="245.151474" y="228.382634" fill="rgb(102,102,102)"  stroke="rgb(102,102,102)" stroke-width="1" font-size="16" >H</text>
<text x="257.151474" y="233.182634" fill="rgb(102,102,102)"  stroke="rgb(102,102,102)" stroke-width="1" font-size="13" >2</text>
<text x="263.651474" y="228.382634" fill="rgb(102,102,102)"  stroke="rgb(102,102,102)" stroke-width="1" font-size="16" >C</text>
<text x="132.046184" y="197.584406" fill="rgb(12,12,255)"  stroke="rgb(12,12,255)" stroke-width="1" font-size="16" >NH</text>
<text x="164.738927" y="103.241780" fill="rgb(12,12,255)"  stroke="rgb(12,12,255)" stroke-width="1" font-size="16" >N</text>
<text x="469.483088" y="244.980856" fill="rgb(255,12,12)"  stroke="rgb(255,12,12)" stroke-width="1" font-size="16" >OH</text>
<text x="469.483088" y="189.007334" fill="rgb(255,12,12)"  stroke="rgb(255,12,12)" stroke-width="1" font-size="16" >OH</text>
<text x="431.252461" y="122.789947" fill="rgb(255,12,12)"  stroke="rgb(255,12,12)" stroke-width="1" font-size="16" >OH</text>
<text x="345.191208" y="122.789947" fill="rgb(255,12,12)"  stroke="rgb(255,12,12)" stroke-width="1" font-size="16" >HO</text>
<text x="197.409776" y="48.320000" fill="rgb(255,12,12)"  stroke="rgb(255,12,12)" stroke-width="1" font-size="16" >O</text>
<text x="295.422323" y="106.761780" fill="rgb(255,12,12)"  stroke="rgb(255,12,12)" stroke-width="1" font-size="16" >O</text>
<text x="367.435074" y="213.474095" fill="rgb(255,12,12)"  stroke="rgb(255,12,12)" stroke-width="1" font-size="16" >O</text>
<text x="335.001580" y="144.486827" fill="rgb(255,12,12)"  stroke="rgb(255,12,12)" stroke-width="1" font-size="16" >O</text>
<text x="225.572217" y="228.382634" fill="rgb(191,191,191)"  stroke="rgb(191,191,191)" stroke-width="1" font-size="16" >H</text>
<text x="230.080625" y="180.546084" fill="rgb(191,191,191)"  stroke="rgb(191,191,191)" stroke-width="1" font-size="16" >H</text>
<text x="191.661731" y="115.475102" fill="rgb(191,191,191)"  stroke="rgb(191,191,191)" stroke-width="1" font-size="16" >H</text>
<text x="395.421835" y="261.948587" fill="rgb(191,191,191)"  stroke="rgb(191,191,191)" stroke-width="1" font-size="16" >H</text>
<text x="459.239222" y="223.717961" fill="rgb(191,191,191)"  stroke="rgb(191,191,191)" stroke-width="1" font-size="16" >H</text>
<text x="459.239222" y="150.776708" fill="rgb(191,191,191)"  stroke="rgb(191,191,191)" stroke-width="1" font-size="16" >H</text>
<text x="393.021835" y="112.546082" fill="rgb(191,191,191)"  stroke="rgb(191,191,191)" stroke-width="1" font-size="16" >H</text>
<text x="315.211952" y="175.243469" fill="rgb(191,191,191)"  stroke="rgb(191,191,191)" stroke-width="1" font-size="16" >H</text>
<text x="333.096883" y="206.643805" fill="rgb(191,191,191)"  stroke="rgb(191,191,191)" stroke-width="1" font-size="16" >H</text>
<text font-size="18.000000" fill ="black" font-family="sans-serif"
x="140.000000" y="20.000000" ></text>
<title> - OBDepict</title>
</svg>
