<?xml version="1.0"?>
<svg xmlns="http://www.w3.org/2000/svg"
xmlns:xlink="http://www.w3.org/1999/xlink" xmlns:cml="http://www.xml-cml.org/schema" width="420.744" height="341.772" x="0" y="0" font-family="sans-serif" stroke="rgb(0,0,0)" stroke-width="1" >
<line x1="83.7" y1="47.5" x2="111.6" y2="40.0"/>
<line x1="64.6" y1="145.5" x2="79.0" y2="170.5"/>
<line x1="194.8" y1="293.0" x2="180.3" y2="268.0"/>
<line x1="167.0" y1="75.0" x2="139.2" y2="67.6"/>
<line x1="159.6" y1="47.2" x2="139.2" y2="67.6"/>
<line x1="111.6" y1="40.0" x2="139.2" y2="67.6"/>
<line x1="238.8" y1="262.8" x2="219.3" y2="229.0"/>
<line x1="238.8" y1="262.8" x2="277.8" y2="262.8"/>
<line x1="219.3" y1="229.0" x2="180.3" y2="229.0"/>
<polygon points="52.870000 170.496543 79.000000 174.496543 79.000000 166.496543 " />
<line x1="205.3" y1="267.6" x2="205.3" y2="268.4"/>
<line x1="201.4" y1="267.2" x2="201.4" y2="268.8"/>
<line x1="197.5" y1="266.8" x2="197.5" y2="269.2"/>
<line x1="193.6" y1="266.4" x2="193.6" y2="269.6"/>
<line x1="189.7" y1="266.0" x2="189.7" y2="270.0"/>
<line x1="185.8" y1="265.6" x2="185.8" y2="270.4"/>
<line x1="181.9" y1="265.2" x2="181.9" y2="270.8"/>
<line x1="361.0" y1="262.7" x2="360.4" y2="263.2"/>
<line x1="358.5" y1="259.6" x2="357.4" y2="260.7"/>
<line x1="356.1" y1="256.6" x2="354.4" y2="258.3"/>
<line x1="353.6" y1="253.5" x2="351.3" y2="255.8"/>
<line x1="351.1" y1="250.5" x2="348.3" y2="253.3"/>
<line x1="348.6" y1="247.5" x2="345.2" y2="250.8"/>
<line x1="346.2" y1="244.4" x2="342.2" y2="248.4"/>
<line x1="343.1" y1="245.3" x2="370.9" y2="237.8"/>
<polygon points="287.824490 286.912506 281.520490 261.240800 274.129454 264.302268 " />
<polygon points="193.389972 206.367300 176.860871 226.996543 183.789074 230.996543 " />
<line x1="166.6" y1="185.4" x2="166.1" y2="186.0"/>
<line x1="163.7" y1="182.7" x2="162.8" y2="184.0"/>
<line x1="160.9" y1="180.0" x2="159.4" y2="181.9"/>
<line x1="158.0" y1="177.3" x2="156.1" y2="179.8"/>
<line x1="155.2" y1="174.6" x2="152.8" y2="177.8"/>
<line x1="152.3" y1="171.9" x2="149.4" y2="175.7"/>
<line x1="149.5" y1="169.2" x2="146.1" y2="173.7"/>
<line x1="146.5" y1="170.5" x2="154.0" y2="142.6"/>
<line x1="292.4" y1="198.3" x2="284.9" y2="170.4"/>
<line x1="298.2" y1="196.7" x2="290.7" y2="168.9"/>
<line x1="146.5" y1="209.5" x2="196.5" y2="180.6"/>
<line x1="129.1" y1="105.2" x2="139.2" y2="67.6"/>
<line x1="129.8" y1="108.1" x2="102.0" y2="115.6"/>
<line x1="128.3" y1="102.4" x2="100.4" y2="109.8"/>
<line x1="129.1" y1="105.2" x2="149.5" y2="125.7"/>
<line x1="112.8" y1="268.0" x2="146.5" y2="287.5"/>
<line x1="121.6" y1="264.8" x2="145.0" y2="278.3"/>
<line x1="146.5" y1="287.5" x2="180.3" y2="268.0"/>
<line x1="180.3" y1="268.0" x2="180.3" y2="229.0"/>
<line x1="180.3" y1="229.0" x2="146.5" y2="209.5"/>
<line x1="146.5" y1="209.5" x2="112.8" y2="229.0"/>
<line x1="112.8" y1="229.0" x2="112.8" y2="268.0"/>
<line x1="112.8" y1="151.0" x2="79.0" y2="170.5"/>
<line x1="79.0" y1="170.5" x2="79.0" y2="209.5"/>
<line x1="79.0" y1="209.5" x2="112.8" y2="229.0"/>
<line x1="87.8" y1="206.3" x2="111.2" y2="219.8"/>
<line x1="146.5" y1="209.5" x2="146.5" y2="170.5"/>
<line x1="146.5" y1="170.5" x2="112.8" y2="151.0"/>
<line x1="315.5" y1="272.9" x2="343.1" y2="245.3"/>
<line x1="343.1" y1="245.3" x2="333.0" y2="207.6"/>
<line x1="333.0" y1="207.6" x2="295.3" y2="197.5"/>
<line x1="295.3" y1="197.5" x2="274.9" y2="217.9"/>
<line x1="270.4" y1="234.9" x2="277.8" y2="262.8"/>
<line x1="277.8" y1="262.8" x2="315.5" y2="272.9"/>
<text x="50.312431" y="54.893943" fill="rgb(102,102,102)"  stroke="rgb(102,102,102)" stroke-width="1" font-size="16" >H</text>
<text x="62.312431" y="59.693943" fill="rgb(102,102,102)"  stroke="rgb(102,102,102)" stroke-width="1" font-size="13" >3</text>
<text x="68.812431" y="54.893943" fill="rgb(102,102,102)"  stroke="rgb(102,102,102)" stroke-width="1" font-size="16" >C</text>
<text x="35.900000" y="145.041553" fill="rgb(102,102,102)"  stroke="rgb(102,102,102)" stroke-width="1" font-size="16" >H</text>
<text x="47.900000" y="152.721553" fill="rgb(102,102,102)"  stroke="rgb(102,102,102)" stroke-width="1" font-size="13" >3</text>
<text x="54.400000" y="145.041553" fill="rgb(102,102,102)"  stroke="rgb(102,102,102)" stroke-width="1" font-size="16" >C</text>
<text x="193.824972" y="306.571534" fill="rgb(102,102,102)"  stroke="rgb(102,102,102)" stroke-width="1" font-size="16" >CH</text>
<text x="217.824972" y="311.371534" fill="rgb(102,102,102)"  stroke="rgb(102,102,102)" stroke-width="1" font-size="13" >3</text>
<text x="170.831810" y="82.471107" fill="rgb(102,102,102)"  stroke="rgb(102,102,102)" stroke-width="1" font-size="16" >CH</text>
<text x="194.831810" y="87.271107" fill="rgb(102,102,102)"  stroke="rgb(102,102,102)" stroke-width="1" font-size="13" >3</text>
<text x="160.737867" y="48.320000" fill="rgb(102,102,102)"  stroke="rgb(102,102,102)" stroke-width="1" font-size="16" >CH</text>
<text x="184.737867" y="56.000000" fill="rgb(102,102,102)"  stroke="rgb(102,102,102)" stroke-width="1" font-size="13" >3</text>
<text x="374.744351" y="243.514370" fill="rgb(255,12,12)"  stroke="rgb(255,12,12)" stroke-width="1" font-size="16" >OH</text>
<text x="281.614251" y="168.172155" fill="rgb(255,12,12)"  stroke="rgb(255,12,12)" stroke-width="1" font-size="16" >O</text>
<text x="87.795653" y="120.142214" fill="rgb(255,12,12)"  stroke="rgb(255,12,12)" stroke-width="1" font-size="16" >O</text>
<text x="264.131029" y="233.420427" fill="rgb(255,12,12)"  stroke="rgb(255,12,12)" stroke-width="1" font-size="16" >O</text>
<text x="150.643924" y="141.145436" fill="rgb(255,12,12)"  stroke="rgb(255,12,12)" stroke-width="1" font-size="16" >O</text>
<text x="36.400000" y="175.296543" fill="rgb(191,191,191)"  stroke="rgb(191,191,191)" stroke-width="1" font-size="16" >H</text>
<text x="213.324972" y="272.796543" fill="rgb(191,191,191)"  stroke="rgb(191,191,191)" stroke-width="1" font-size="16" >H</text>
<text x="364.650408" y="277.665477" fill="rgb(191,191,191)"  stroke="rgb(191,191,191)" stroke-width="1" font-size="16" >H</text>
<text x="286.749626" y="303.602836" fill="rgb(191,191,191)"  stroke="rgb(191,191,191)" stroke-width="1" font-size="16" >H</text>
<text x="193.824972" y="203.541553" fill="rgb(191,191,191)"  stroke="rgb(191,191,191)" stroke-width="1" font-size="16" >H</text>
<text x="171.490762" y="199.038239" fill="rgb(191,191,191)"  stroke="rgb(191,191,191)" stroke-width="1" font-size="16" >H</text>
<text x="208.099963" y="178.816543" fill="rgb(191,191,191)"  stroke="rgb(191,191,191)" stroke-width="1" font-size="16" >H</text>
<text font-size="18.000000" fill ="black" font-family="sans-serif"
x="140.000000" y="20.000000" ></text>
<title> - OBDepict</title>
</svg>
