<?xml version="1.0"?>
<svg xmlns="http://www.w3.org/2000/svg"
xmlns:xlink="http://www.w3.org/1999/xlink" xmlns:cml="http://www.xml-cml.org/schema" width="357.128" height="680" x="0" y="0" font-family="sans-serif" stroke="rgb(0,0,0)" stroke-width="1" >
<line x1="134.9" y1="394.8" x2="109.3" y2="380.0"/>
<line x1="204.2" y1="85.2" x2="178.6" y2="100.0"/>
<line x1="134.9" y1="445.2" x2="109.3" y2="460.0"/>
<line x1="134.9" y1="634.8" x2="109.3" y2="620.0"/>
<line x1="213.2" y1="200.0" x2="213.2" y2="160.0"/>
<line x1="213.2" y1="200.0" x2="178.6" y2="220.0"/>
<line x1="213.2" y1="160.0" x2="247.8" y2="140.0"/>
<line x1="178.6" y1="220.0" x2="143.9" y2="200.0"/>
<line x1="178.6" y1="260.0" x2="213.2" y2="280.0"/>
<line x1="178.6" y1="260.0" x2="143.9" y2="280.0"/>
<line x1="213.2" y1="280.0" x2="247.8" y2="260.0"/>
<line x1="247.8" y1="500.0" x2="213.2" y2="520.0"/>
<line x1="247.8" y1="500.0" x2="273.5" y2="514.8"/>
<line x1="109.3" y1="380.0" x2="109.3" y2="340.0"/>
<line x1="109.3" y1="380.0" x2="83.6" y2="394.8"/>
<line x1="178.6" y1="100.0" x2="143.9" y2="80.0"/>
<line x1="178.6" y1="100.0" x2="178.6" y2="129.6"/>
<line x1="109.3" y1="460.0" x2="74.6" y2="440.0"/>
<line x1="109.3" y1="460.0" x2="109.3" y2="489.6"/>
<line x1="106.3" y1="620.0" x2="106.3" y2="590.4"/>
<line x1="112.3" y1="620.0" x2="112.3" y2="590.4"/>
<line x1="109.3" y1="620.0" x2="83.6" y2="634.8"/>
<line x1="247.8" y1="140.0" x2="282.5" y2="160.0"/>
<line x1="247.8" y1="140.0" x2="247.8" y2="110.4"/>
<line x1="143.9" y1="200.0" x2="143.9" y2="160.0"/>
<line x1="143.9" y1="200.0" x2="118.3" y2="214.8"/>
<line x1="143.9" y1="280.0" x2="109.3" y2="260.0"/>
<line x1="143.9" y1="280.0" x2="143.9" y2="309.6"/>
<line x1="244.8" y1="260.0" x2="244.8" y2="230.4"/>
<line x1="250.8" y1="260.0" x2="250.8" y2="230.4"/>
<line x1="247.8" y1="260.0" x2="273.5" y2="274.8"/>
<line x1="143.9" y1="560.0" x2="118.3" y2="574.8"/>
<line x1="178.6" y1="500.0" x2="178.6" y2="470.4"/>
<line x1="143.9" y1="520.0" x2="118.3" y2="505.2"/>
<line x1="107.8" y1="337.4" x2="133.4" y2="322.6"/>
<line x1="110.8" y1="342.6" x2="136.4" y2="327.8"/>
<line x1="109.3" y1="340.0" x2="83.6" y2="325.2"/>
<line x1="71.6" y1="440.0" x2="71.6" y2="410.4"/>
<line x1="77.6" y1="440.0" x2="77.6" y2="410.4"/>
<line x1="74.6" y1="440.0" x2="49.0" y2="454.8"/>
<line x1="142.4" y1="157.4" x2="168.1" y2="142.6"/>
<line x1="145.4" y1="162.6" x2="171.1" y2="147.8"/>
<line x1="143.9" y1="160.0" x2="118.3" y2="145.2"/>
<line x1="106.3" y1="260.0" x2="106.3" y2="230.4"/>
<line x1="112.3" y1="260.0" x2="112.3" y2="230.4"/>
<line x1="109.3" y1="260.0" x2="83.6" y2="274.8"/>
<line x1="140.9" y1="80.0" x2="140.9" y2="50.4"/>
<line x1="146.9" y1="80.0" x2="146.9" y2="50.4"/>
<line x1="143.9" y1="80.0" x2="118.3" y2="94.8"/>
<line x1="285.5" y1="160.0" x2="285.5" y2="189.6"/>
<line x1="279.5" y1="160.0" x2="279.5" y2="189.6"/>
<line x1="282.5" y1="160.0" x2="308.1" y2="145.2"/>
<line x1="178.6" y1="580.0" x2="178.6" y2="609.6"/>
<line x1="143.9" y1="560.0" x2="143.9" y2="520.0"/>
<line x1="143.9" y1="520.0" x2="178.6" y2="500.0"/>
<line x1="178.6" y1="500.0" x2="213.2" y2="520.0"/>
<line x1="213.2" y1="520.0" x2="213.2" y2="549.6"/>
<line x1="204.2" y1="565.2" x2="178.6" y2="580.0"/>
<line x1="178.6" y1="580.0" x2="143.9" y2="560.0"/>
<text x="137.923048" y="404.800000" fill="rgb(102,102,102)"  stroke="rgb(102,102,102)" stroke-width="1" font-size="16" >CH</text>
<text x="161.923048" y="409.600000" fill="rgb(102,102,102)"  stroke="rgb(102,102,102)" stroke-width="1" font-size="13" >3</text>
<text x="207.205081" y="88.320000" fill="rgb(102,102,102)"  stroke="rgb(102,102,102)" stroke-width="1" font-size="16" >CH</text>
<text x="231.205081" y="96.000000" fill="rgb(102,102,102)"  stroke="rgb(102,102,102)" stroke-width="1" font-size="13" >3</text>
<text x="137.923048" y="448.320000" fill="rgb(102,102,102)"  stroke="rgb(102,102,102)" stroke-width="1" font-size="16" >CH</text>
<text x="161.923048" y="456.000000" fill="rgb(102,102,102)"  stroke="rgb(102,102,102)" stroke-width="1" font-size="13" >3</text>
<text x="137.923048" y="644.800000" fill="rgb(102,102,102)"  stroke="rgb(102,102,102)" stroke-width="1" font-size="16" >CH</text>
<text x="161.923048" y="649.600000" fill="rgb(102,102,102)"  stroke="rgb(102,102,102)" stroke-width="1" font-size="13" >3</text>
<text x="241.846097" y="108.320000" fill="rgb(12,12,255)"  stroke="rgb(12,12,255)" stroke-width="1" font-size="16" >NH</text>
<text x="265.846097" y="116.000000" fill="rgb(12,12,255)"  stroke="rgb(12,12,255)" stroke-width="1" font-size="13" >2</text>
<text x="71.041016" y="408.320000" fill="rgb(12,12,255)"  stroke="rgb(12,12,255)" stroke-width="1" font-size="16" >N</text>
<text x="172.564065" y="144.800000" fill="rgb(12,12,255)"  stroke="rgb(12,12,255)" stroke-width="1" font-size="16" >N</text>
<text x="105.682032" y="588.320000" fill="rgb(12,12,255)"  stroke="rgb(12,12,255)" stroke-width="1" font-size="16" >N</text>
<text x="137.923048" y="324.800000" fill="rgb(12,12,255)"  stroke="rgb(12,12,255)" stroke-width="1" font-size="16" >N</text>
<text x="105.682032" y="228.320000" fill="rgb(12,12,255)"  stroke="rgb(12,12,255)" stroke-width="1" font-size="16" >N</text>
<text x="276.487113" y="524.800000" fill="rgb(255,12,12)"  stroke="rgb(255,12,12)" stroke-width="1" font-size="16" >OH</text>
<text x="69.841016" y="659.200000" fill="rgb(255,12,12)"  stroke="rgb(255,12,12)" stroke-width="1" font-size="32" >-</text>
<text x="71.041016" y="644.800000" fill="rgb(255,12,12)"  stroke="rgb(255,12,12)" stroke-width="1" font-size="16" >O</text>
<text x="241.846097" y="228.320000" fill="rgb(255,12,12)"  stroke="rgb(255,12,12)" stroke-width="1" font-size="16" >O</text>
<text x="277.687113" y="299.200000" fill="rgb(255,12,12)"  stroke="rgb(255,12,12)" stroke-width="1" font-size="32" >-</text>
<text x="276.487113" y="284.800000" fill="rgb(255,12,12)"  stroke="rgb(255,12,12)" stroke-width="1" font-size="16" >O</text>
<text x="172.564065" y="468.320000" fill="rgb(255,12,12)"  stroke="rgb(255,12,12)" stroke-width="1" font-size="16" >OH</text>
<text x="59.041016" y="328.320000" fill="rgb(255,12,12)"  stroke="rgb(255,12,12)" stroke-width="1" font-size="16" >HO</text>
<text x="24.400000" y="464.800000" fill="rgb(255,12,12)"  stroke="rgb(255,12,12)" stroke-width="1" font-size="16" >HO</text>
<text x="93.682032" y="148.320000" fill="rgb(255,12,12)"  stroke="rgb(255,12,12)" stroke-width="1" font-size="16" >HO</text>
<text x="59.041016" y="284.800000" fill="rgb(255,12,12)"  stroke="rgb(255,12,12)" stroke-width="1" font-size="16" >HO</text>
<text x="137.923048" y="48.320000" fill="rgb(255,12,12)"  stroke="rgb(255,12,12)" stroke-width="1" font-size="16" >O</text>
<text x="93.682032" y="104.800000" fill="rgb(255,12,12)"  stroke="rgb(255,12,12)" stroke-width="1" font-size="16" >HO</text>
<text x="276.487113" y="204.800000" fill="rgb(255,12,12)"  stroke="rgb(255,12,12)" stroke-width="1" font-size="16" >O</text>
<text x="311.128129" y="148.320000" fill="rgb(255,12,12)"  stroke="rgb(255,12,12)" stroke-width="1" font-size="16" >OH</text>
<text x="172.564065" y="624.800000" fill="rgb(255,12,12)"  stroke="rgb(255,12,12)" stroke-width="1" font-size="16" >OH</text>
<text x="105.682032" y="504.800000" fill="rgb(255,12,12)"  stroke="rgb(255,12,12)" stroke-width="1" font-size="16" >O</text>
<text x="207.205081" y="564.800000" fill="rgb(255,12,12)"  stroke="rgb(255,12,12)" stroke-width="1" font-size="16" >O</text>
<text font-size="18.000000" fill ="black" font-family="sans-serif"
x="140.000000" y="20.000000" ></text>
<title> - OBDepict</title>
</svg>
