<?xml version="1.0"?>
<svg xmlns="http://www.w3.org/2000/svg"
xmlns:xlink="http://www.w3.org/1999/xlink" xmlns:cml="http://www.xml-cml.org/schema" width="245.477" height="190.403" x="0" y="0" font-family="sans-serif" stroke="rgb(0,0,0)" stroke-width="1" >
<line x1="170.8" y1="90.4" x2="196.5" y2="75.6"/>
<line x1="170.8" y1="130.4" x2="196.5" y2="145.2"/>
<line x1="63.5" y1="78.0" x2="54.4" y2="49.9"/>
<line x1="40.0" y1="110.4" x2="57.4" y2="134.3"/>
<line x1="73.4" y1="139.5" x2="101.6" y2="130.4"/>
<line x1="101.6" y1="130.4" x2="101.6" y2="90.4"/>
<line x1="101.6" y1="90.4" x2="63.5" y2="78.0"/>
<line x1="63.5" y1="78.0" x2="40.0" y2="110.4"/>
<line x1="136.2" y1="70.4" x2="101.6" y2="90.4"/>
<line x1="134.6" y1="79.6" x2="110.3" y2="93.6"/>
<line x1="101.6" y1="130.4" x2="136.2" y2="150.4"/>
<line x1="110.3" y1="127.2" x2="134.6" y2="141.2"/>
<line x1="136.2" y1="150.4" x2="170.8" y2="130.4"/>
<line x1="170.8" y1="130.4" x2="170.8" y2="90.4"/>
<line x1="163.6" y1="124.4" x2="163.6" y2="96.4"/>
<line x1="170.8" y1="90.4" x2="136.2" y2="70.4"/>
<text x="47.911410" y="147.563620" fill="rgb(12,12,255)"  stroke="rgb(12,12,255)" stroke-width="1" font-size="16" >HN</text>
<text x="199.476719" y="78.722940" fill="rgb(255,12,12)"  stroke="rgb(255,12,12)" stroke-width="1" font-size="16" >OH</text>
<text x="199.476719" y="155.202940" fill="rgb(255,12,12)"  stroke="rgb(255,12,12)" stroke-width="1" font-size="16" >OH</text>
<text x="35.550730" y="48.320000" fill="rgb(255,12,12)"  stroke="rgb(255,12,12)" stroke-width="1" font-size="16" >HO</text>
<text font-size="18.000000" fill ="black" font-family="sans-serif"
x="140.000000" y="20.000000" ></text>
<title> - OBDepict</title>
</svg>
