<?xml version="1.0"?>
<svg xmlns="http://www.w3.org/2000/svg"
xmlns:xlink="http://www.w3.org/1999/xlink" xmlns:cml="http://www.xml-cml.org/schema" width="468.105" height="359.525" x="0" y="0" font-family="sans-serif" stroke="rgb(0,0,0)" stroke-width="1" >
<line x1="409.7" y1="151.2" x2="386.6" y2="134.9"/>
<line x1="360.8" y1="146.8" x2="386.6" y2="134.9"/>
<line x1="406.3" y1="73.6" x2="390.0" y2="96.8"/>
<line x1="329.0" y1="192.8" x2="317.1" y2="167.1"/>
<polygon points="245.593331 186.190514 249.607726 159.663046 241.607727 159.658705 " />
<polygon points="145.967348 243.611986 141.387016 217.176356 133.796178 219.702060 " />
<line x1="386.6" y1="134.9" x2="390.0" y2="96.8"/>
<line x1="414.4" y1="98.6" x2="414.3" y2="99.4"/>
<line x1="410.6" y1="97.8" x2="410.5" y2="99.4"/>
<line x1="406.9" y1="97.1" x2="406.6" y2="99.5"/>
<line x1="403.1" y1="96.3" x2="402.8" y2="99.5"/>
<line x1="399.3" y1="95.6" x2="398.9" y2="99.6"/>
<line x1="395.5" y1="94.9" x2="395.1" y2="99.6"/>
<line x1="391.8" y1="94.1" x2="391.3" y2="99.7"/>
<line x1="390.0" y1="96.8" x2="358.7" y2="74.7"/>
<line x1="341.5" y1="168.9" x2="341.5" y2="169.7"/>
<line x1="337.7" y1="168.1" x2="337.6" y2="169.7"/>
<line x1="334.0" y1="167.4" x2="333.8" y2="169.8"/>
<line x1="330.2" y1="166.7" x2="329.9" y2="169.8"/>
<line x1="326.4" y1="165.9" x2="326.1" y2="169.9"/>
<line x1="322.6" y1="165.2" x2="322.2" y2="170.0"/>
<line x1="318.9" y1="164.4" x2="318.4" y2="170.0"/>
<line x1="317.1" y1="167.1" x2="278.8" y2="167.1"/>
<line x1="317.1" y1="167.1" x2="323.9" y2="90.8"/>
<line x1="138.3" y1="306.1" x2="137.5" y2="305.9"/>
<line x1="139.9" y1="302.5" x2="138.4" y2="302.0"/>
<line x1="141.6" y1="298.9" x2="139.3" y2="298.1"/>
<line x1="143.2" y1="295.2" x2="140.2" y2="294.2"/>
<line x1="144.8" y1="291.6" x2="141.0" y2="290.3"/>
<line x1="146.5" y1="288.0" x2="141.9" y2="286.5"/>
<line x1="148.1" y1="284.4" x2="142.8" y2="282.6"/>
<polygon points="212.377806 217.980806 208.363879 243.645843 216.363878 243.650184 " />
<line x1="278.4" y1="141.7" x2="279.2" y2="141.7"/>
<line x1="278.0" y1="145.7" x2="279.6" y2="145.7"/>
<line x1="277.6" y1="149.6" x2="280.0" y2="149.6"/>
<line x1="277.2" y1="153.6" x2="280.4" y2="153.6"/>
<line x1="276.8" y1="157.6" x2="280.8" y2="157.6"/>
<line x1="276.4" y1="161.5" x2="281.2" y2="161.5"/>
<line x1="276.0" y1="165.5" x2="281.6" y2="165.5"/>
<line x1="245.6" y1="224.5" x2="220.2" y2="239.2"/>
<line x1="179.6" y1="249.0" x2="178.8" y2="249.0"/>
<line x1="180.0" y1="245.2" x2="178.4" y2="245.2"/>
<line x1="180.4" y1="241.4" x2="178.0" y2="241.4"/>
<line x1="180.8" y1="237.5" x2="177.6" y2="237.5"/>
<line x1="181.2" y1="233.7" x2="177.2" y2="233.7"/>
<line x1="181.6" y1="229.9" x2="176.8" y2="229.9"/>
<line x1="182.0" y1="226.0" x2="176.4" y2="226.0"/>
<polygon points="53.066835 281.952733 79.599639 285.931710 79.593300 277.931713 " />
<line x1="79.6" y1="281.9" x2="65.0" y2="307.3"/>
<polygon points="66.395623 220.575773 76.149431 245.569475 83.085133 241.582491 " />
<line x1="79.6" y1="243.6" x2="50.3" y2="243.5"/>
<polygon points="347.884720 51.461933 355.040373 76.415058 362.298782 73.051205 " />
<line x1="358.7" y1="74.7" x2="323.9" y2="90.8"/>
<line x1="358.7" y1="74.7" x2="375.0" y2="51.6"/>
<line x1="299.5" y1="89.0" x2="299.6" y2="88.2"/>
<line x1="303.3" y1="89.8" x2="303.4" y2="88.2"/>
<line x1="307.1" y1="90.5" x2="307.3" y2="88.1"/>
<line x1="310.8" y1="91.3" x2="311.1" y2="88.1"/>
<line x1="314.6" y1="92.0" x2="315.0" y2="88.0"/>
<line x1="318.4" y1="92.7" x2="318.8" y2="88.0"/>
<line x1="322.2" y1="93.5" x2="322.7" y2="87.9"/>
<line x1="323.9" y1="90.8" x2="312.0" y2="65.1"/>
<line x1="311.9" y1="186.2" x2="311.9" y2="224.6"/>
<line x1="311.9" y1="224.6" x2="245.6" y2="224.5"/>
<line x1="245.6" y1="224.5" x2="245.6" y2="186.2"/>
<line x1="245.6" y1="186.2" x2="278.8" y2="167.1"/>
<line x1="278.8" y1="167.1" x2="311.9" y2="186.2"/>
<line x1="212.3" y1="282.0" x2="179.1" y2="301.1"/>
<line x1="179.1" y1="301.1" x2="145.9" y2="282.0"/>
<line x1="145.9" y1="282.0" x2="146.0" y2="243.6"/>
<line x1="146.0" y1="243.6" x2="179.2" y2="224.5"/>
<line x1="179.2" y1="224.5" x2="212.4" y2="243.6"/>
<line x1="212.4" y1="243.6" x2="212.3" y2="282.0"/>
<line x1="112.8" y1="301.1" x2="79.6" y2="281.9"/>
<line x1="79.6" y1="281.9" x2="79.6" y2="243.6"/>
<line x1="79.6" y1="243.6" x2="112.8" y2="224.5"/>
<line x1="112.8" y1="224.5" x2="146.0" y2="243.6"/>
<line x1="145.9" y1="282.0" x2="112.8" y2="301.1"/>
<line x1="245.6" y1="224.5" x2="212.4" y2="243.6"/>
<line x1="179.2" y1="224.5" x2="179.2" y2="186.2"/>
<line x1="179.2" y1="186.2" x2="212.4" y2="167.0"/>
<line x1="212.4" y1="167.0" x2="245.6" y2="186.2"/>
<text x="411.856862" y="161.724053" fill="rgb(102,102,102)"  stroke="rgb(102,102,102)" stroke-width="1" font-size="16" >CH</text>
<text x="435.856862" y="166.524053" fill="rgb(102,102,102)"  stroke="rgb(102,102,102)" stroke-width="1" font-size="13" >3</text>
<text x="328.216925" y="155.789482" fill="rgb(102,102,102)"  stroke="rgb(102,102,102)" stroke-width="1" font-size="16" >H</text>
<text x="340.216925" y="160.589482" fill="rgb(102,102,102)"  stroke="rgb(102,102,102)" stroke-width="1" font-size="13" >3</text>
<text x="346.716925" y="155.789482" fill="rgb(102,102,102)"  stroke="rgb(102,102,102)" stroke-width="1" font-size="16" >C</text>
<text x="406.007756" y="73.777699" fill="rgb(102,102,102)"  stroke="rgb(102,102,102)" stroke-width="1" font-size="16" >CH</text>
<text x="430.007756" y="81.457699" fill="rgb(102,102,102)"  stroke="rgb(102,102,102)" stroke-width="1" font-size="13" >3</text>
<text x="327.180596" y="206.619415" fill="rgb(102,102,102)"  stroke="rgb(102,102,102)" stroke-width="1" font-size="16" >CH</text>
<text x="351.180596" y="211.419415" fill="rgb(102,102,102)"  stroke="rgb(102,102,102)" stroke-width="1" font-size="13" >3</text>
<text x="239.614816" y="154.914038" fill="rgb(102,102,102)"  stroke="rgb(102,102,102)" stroke-width="1" font-size="16" >CH</text>
<text x="263.614816" y="162.594038" fill="rgb(102,102,102)"  stroke="rgb(102,102,102)" stroke-width="1" font-size="13" >3</text>
<text x="109.866226" y="214.360676" fill="rgb(102,102,102)"  stroke="rgb(102,102,102)" stroke-width="1" font-size="16" >H</text>
<text x="121.866226" y="222.040676" fill="rgb(102,102,102)"  stroke="rgb(102,102,102)" stroke-width="1" font-size="13" >3</text>
<text x="128.366226" y="214.360676" fill="rgb(102,102,102)"  stroke="rgb(102,102,102)" stroke-width="1" font-size="16" >C</text>
<text x="44.225407" y="321.038948" fill="rgb(255,12,12)"  stroke="rgb(255,12,12)" stroke-width="1" font-size="16" >HO</text>
<text x="24.420870" y="251.821636" fill="rgb(255,12,12)"  stroke="rgb(255,12,12)" stroke-width="1" font-size="16" >HO</text>
<text x="374.700950" y="51.746326" fill="rgb(255,12,12)"  stroke="rgb(255,12,12)" stroke-width="1" font-size="16" >OH</text>
<text x="292.239644" y="64.416802" fill="rgb(255,12,12)"  stroke="rgb(255,12,12)" stroke-width="1" font-size="16" >HO</text>
<text x="422.104558" y="104.990831" fill="rgb(191,191,191)"  stroke="rgb(191,191,191)" stroke-width="1" font-size="16" >H</text>
<text x="349.211969" y="175.312610" fill="rgb(191,191,191)"  stroke="rgb(191,191,191)" stroke-width="1" font-size="16" >H</text>
<text x="129.804648" y="324.325435" fill="rgb(191,191,191)"  stroke="rgb(191,191,191)" stroke-width="1" font-size="16" >H</text>
<text x="206.384666" y="213.658749" fill="rgb(191,191,191)"  stroke="rgb(191,191,191)" stroke-width="1" font-size="16" >H</text>
<text x="272.871523" y="135.789091" fill="rgb(191,191,191)"  stroke="rgb(191,191,191)" stroke-width="1" font-size="16" >H</text>
<text x="207.692292" y="249.140846" fill="rgb(191,191,191)"  stroke="rgb(191,191,191)" stroke-width="1" font-size="16" >H</text>
<text x="173.155201" y="267.619480" fill="rgb(191,191,191)"  stroke="rgb(191,191,191)" stroke-width="1" font-size="16" >H</text>
<text x="36.400000" y="286.763088" fill="rgb(191,191,191)"  stroke="rgb(191,191,191)" stroke-width="1" font-size="16" >H</text>
<text x="56.283462" y="217.567311" fill="rgb(191,191,191)"  stroke="rgb(191,191,191)" stroke-width="1" font-size="16" >H</text>
<text x="338.972775" y="48.320000" fill="rgb(191,191,191)"  stroke="rgb(191,191,191)" stroke-width="1" font-size="16" >H</text>
<text x="282.208271" y="95.723607" fill="rgb(191,191,191)"  stroke="rgb(191,191,191)" stroke-width="1" font-size="16" >H</text>
<text font-size="18.000000" fill ="black" font-family="sans-serif"
x="140.000000" y="20.000000" ></text>
<title> - OBDepict</title>
</svg>
