<?xml version="1.0"?>
<svg xmlns="http://www.w3.org/2000/svg"
xmlns:xlink="http://www.w3.org/1999/xlink" xmlns:cml="http://www.xml-cml.org/schema" width="293.205" height="274.641" x="0" y="0" font-family="sans-serif" stroke="rgb(0,0,0)" stroke-width="1" >
<line x1="174.9" y1="214.8" x2="149.3" y2="200.0"/>
<line x1="50.4" y1="200.0" x2="80.0" y2="200.0"/>
<line x1="65.2" y1="225.6" x2="80.0" y2="200.0"/>
<line x1="80.0" y1="170.4" x2="80.0" y2="200.0"/>
<line x1="149.3" y1="200.0" x2="149.3" y2="160.0"/>
<line x1="149.3" y1="200.0" x2="123.6" y2="214.8"/>
<line x1="183.9" y1="140.0" x2="149.3" y2="160.0"/>
<line x1="218.6" y1="80.0" x2="218.6" y2="50.4"/>
<line x1="147.8" y1="162.6" x2="122.1" y2="147.8"/>
<line x1="150.8" y1="157.4" x2="125.1" y2="142.6"/>
<line x1="80.0" y1="200.0" x2="105.6" y2="214.8"/>
<line x1="253.2" y1="140.0" x2="253.2" y2="100.0"/>
<line x1="253.2" y1="100.0" x2="218.6" y2="80.0"/>
<line x1="244.4" y1="103.2" x2="220.2" y2="89.2"/>
<line x1="218.6" y1="80.0" x2="183.9" y2="100.0"/>
<line x1="183.9" y1="100.0" x2="183.9" y2="140.0"/>
<line x1="191.1" y1="106.0" x2="191.1" y2="134.0"/>
<line x1="183.9" y1="140.0" x2="218.6" y2="160.0"/>
<line x1="218.6" y1="160.0" x2="253.2" y2="140.0"/>
<line x1="220.2" y1="150.8" x2="244.4" y2="136.8"/>
<text x="177.923048" y="224.800000" fill="rgb(102,102,102)"  stroke="rgb(102,102,102)" stroke-width="1" font-size="16" >CH</text>
<text x="201.923048" y="229.600000" fill="rgb(102,102,102)"  stroke="rgb(102,102,102)" stroke-width="1" font-size="13" >3</text>
<text x="16.400000" y="204.800000" fill="rgb(102,102,102)"  stroke="rgb(102,102,102)" stroke-width="1" font-size="16" >H</text>
<text x="28.400000" y="209.600000" fill="rgb(102,102,102)"  stroke="rgb(102,102,102)" stroke-width="1" font-size="13" >3</text>
<text x="34.900000" y="204.800000" fill="rgb(102,102,102)"  stroke="rgb(102,102,102)" stroke-width="1" font-size="16" >C</text>
<text x="36.400000" y="239.441016" fill="rgb(102,102,102)"  stroke="rgb(102,102,102)" stroke-width="1" font-size="16" >H</text>
<text x="48.400000" y="244.241016" fill="rgb(102,102,102)"  stroke="rgb(102,102,102)" stroke-width="1" font-size="13" >3</text>
<text x="54.900000" y="239.441016" fill="rgb(102,102,102)"  stroke="rgb(102,102,102)" stroke-width="1" font-size="16" >C</text>
<text x="74.000000" y="168.320000" fill="rgb(102,102,102)"  stroke="rgb(102,102,102)" stroke-width="1" font-size="16" >CH</text>
<text x="98.000000" y="176.000000" fill="rgb(102,102,102)"  stroke="rgb(102,102,102)" stroke-width="1" font-size="13" >3</text>
<text x="212.564065" y="48.320000" fill="rgb(30,239,30)"  stroke="rgb(30,239,30)" stroke-width="1" font-size="16" >Cl</text>
<text x="108.641016" y="224.800000" fill="rgb(12,12,255)"  stroke="rgb(12,12,255)" stroke-width="1" font-size="16" >NH</text>
<text x="111.041016" y="148.320000" fill="rgb(255,12,12)"  stroke="rgb(255,12,12)" stroke-width="1" font-size="16" >O</text>
<text font-size="18.000000" fill ="black" font-family="sans-serif"
x="140.000000" y="20.000000" ></text>
<title> - OBDepict</title>
</svg>
