<?xml version="1.0"?>
<svg xmlns="http://www.w3.org/2000/svg"
xmlns:xlink="http://www.w3.org/1999/xlink" xmlns:cml="http://www.xml-cml.org/schema" width="253.205" height="220" x="0" y="0" font-family="sans-serif" stroke="rgb(0,0,0)" stroke-width="1" >
<line x1="204.2" y1="165.2" x2="187.6" y2="174.8"/>
<line x1="83.6" y1="45.2" x2="100.3" y2="54.8"/>
<line x1="74.6" y1="160.0" x2="49.0" y2="174.8"/>
<line x1="143.9" y1="160.0" x2="169.6" y2="174.8"/>
<line x1="109.3" y1="100.0" x2="109.3" y2="70.4"/>
<line x1="109.3" y1="180.0" x2="74.6" y2="160.0"/>
<line x1="107.7" y1="170.8" x2="83.4" y2="156.8"/>
<line x1="74.6" y1="160.0" x2="74.6" y2="120.0"/>
<line x1="74.6" y1="120.0" x2="109.3" y2="100.0"/>
<line x1="83.4" y1="123.2" x2="107.7" y2="109.2"/>
<line x1="109.3" y1="100.0" x2="143.9" y2="120.0"/>
<line x1="143.9" y1="120.0" x2="143.9" y2="160.0"/>
<line x1="136.7" y1="126.0" x2="136.7" y2="154.0"/>
<line x1="143.9" y1="160.0" x2="109.3" y2="180.0"/>
<text x="207.205081" y="168.320000" fill="rgb(102,102,102)"  stroke="rgb(102,102,102)" stroke-width="1" font-size="16" >CH</text>
<text x="231.205081" y="176.000000" fill="rgb(102,102,102)"  stroke="rgb(102,102,102)" stroke-width="1" font-size="13" >3</text>
<text x="51.041016" y="48.320000" fill="rgb(102,102,102)"  stroke="rgb(102,102,102)" stroke-width="1" font-size="16" >H</text>
<text x="63.041016" y="56.000000" fill="rgb(102,102,102)"  stroke="rgb(102,102,102)" stroke-width="1" font-size="13" >3</text>
<text x="69.541016" y="48.320000" fill="rgb(102,102,102)"  stroke="rgb(102,102,102)" stroke-width="1" font-size="16" >C</text>
<text x="24.400000" y="184.800000" fill="rgb(255,12,12)"  stroke="rgb(255,12,12)" stroke-width="1" font-size="16" >HO</text>
<text x="172.564065" y="184.800000" fill="rgb(255,12,12)"  stroke="rgb(255,12,12)" stroke-width="1" font-size="16" >O</text>
<text x="103.282032" y="68.320000" fill="rgb(255,12,12)"  stroke="rgb(255,12,12)" stroke-width="1" font-size="16" >O</text>
<text font-size="18.000000" fill ="black" font-family="sans-serif"
x="140.000000" y="20.000000" ></text>
<title> - OBDepict</title>
</svg>
