<?xml version="1.0"?>
<svg xmlns="http://www.w3.org/2000/svg"
xmlns:xlink="http://www.w3.org/1999/xlink" xmlns:cml="http://www.xml-cml.org/schema" width="278.169" height="196.28" x="0" y="0" font-family="sans-serif" stroke="rgb(0,0,0)" stroke-width="1" >
<line x1="205.2" y1="50.4" x2="205.2" y2="80.0"/>
<line x1="172.1" y1="99.1" x2="172.1" y2="137.2"/>
<line x1="172.1" y1="137.2" x2="106.1" y2="137.2"/>
<line x1="106.1" y1="137.2" x2="106.1" y2="99.0"/>
<line x1="106.1" y1="99.0" x2="130.5" y2="84.9"/>
<line x1="147.7" y1="84.9" x2="172.1" y2="99.1"/>
<line x1="73.0" y1="156.3" x2="40.0" y2="137.2"/>
<line x1="40.0" y1="137.2" x2="40.0" y2="99.0"/>
<line x1="47.2" y1="131.2" x2="47.2" y2="105.0"/>
<line x1="40.0" y1="99.0" x2="73.0" y2="80.0"/>
<line x1="73.0" y1="80.0" x2="106.1" y2="99.0"/>
<line x1="74.6" y1="89.2" x2="97.3" y2="102.3"/>
<line x1="106.1" y1="137.2" x2="73.0" y2="156.3"/>
<line x1="97.3" y1="134.0" x2="74.6" y2="147.0"/>
<line x1="238.2" y1="109.0" x2="238.2" y2="137.2"/>
<line x1="231.0" y1="111.2" x2="231.0" y2="131.2"/>
<line x1="238.2" y1="137.2" x2="205.1" y2="156.3"/>
<line x1="205.1" y1="156.3" x2="172.1" y2="137.2"/>
<line x1="203.5" y1="147.0" x2="180.9" y2="134.0"/>
<line x1="172.1" y1="99.1" x2="205.2" y2="80.0"/>
<line x1="180.9" y1="102.3" x2="203.6" y2="89.2"/>
<line x1="205.2" y1="80.0" x2="229.6" y2="94.1"/>
<text x="199.184610" y="48.320000" fill="rgb(102,102,102)"  stroke="rgb(102,102,102)" stroke-width="1" font-size="16" >CH</text>
<text x="223.184610" y="56.000000" fill="rgb(102,102,102)"  stroke="rgb(102,102,102)" stroke-width="1" font-size="13" >3</text>
<text x="232.169048" y="107.391607" fill="rgb(12,12,255)"  stroke="rgb(12,12,255)" stroke-width="1" font-size="16" >N</text>
<text x="133.082216" y="88.306822" fill="rgb(12,12,255)"  stroke="rgb(12,12,255)" stroke-width="1" font-size="16" >NH</text>
<text font-size="18.000000" fill ="black" font-family="sans-serif"
x="140.000000" y="20.000000" ></text>
<title> - OBDepict</title>
</svg>
