<?xml version="1.0"?>
<svg xmlns="http://www.w3.org/2000/svg"
xmlns:xlink="http://www.w3.org/1999/xlink" xmlns:cml="http://www.xml-cml.org/schema" width="1084.59" height="280" x="0" y="0" font-family="sans-serif" stroke="rgb(0,0,0)" stroke-width="1" >
<line x1="871.4" y1="89.6" x2="871.4" y2="60.0"/>
<line x1="49.0" y1="174.8" x2="74.6" y2="160.0"/>
<line x1="871.4" y1="60.0" x2="906.0" y2="40.0"/>
<line x1="74.6" y1="160.0" x2="109.3" y2="180.0"/>
<line x1="906.0" y1="40.0" x2="940.7" y2="60.0"/>
<line x1="109.3" y1="180.0" x2="143.9" y2="160.0"/>
<line x1="940.7" y1="60.0" x2="975.3" y2="40.0"/>
<line x1="143.9" y1="160.0" x2="178.6" y2="180.0"/>
<line x1="975.3" y1="40.0" x2="1009.9" y2="60.0"/>
<line x1="178.6" y1="180.0" x2="213.2" y2="160.0"/>
<line x1="1009.9" y1="60.0" x2="1035.6" y2="45.2"/>
<line x1="1012.9" y1="60.0" x2="1012.9" y2="100.0"/>
<line x1="1006.9" y1="60.0" x2="1006.9" y2="100.0"/>
<line x1="213.2" y1="160.0" x2="247.8" y2="180.0"/>
<line x1="1009.9" y1="100.0" x2="1035.6" y2="114.8"/>
<line x1="1009.9" y1="100.0" x2="975.3" y2="120.0"/>
<line x1="247.8" y1="180.0" x2="282.5" y2="160.0"/>
<line x1="975.3" y1="120.0" x2="975.3" y2="160.0"/>
<line x1="282.5" y1="160.0" x2="317.1" y2="180.0"/>
<line x1="975.3" y1="160.0" x2="1000.9" y2="174.8"/>
<line x1="976.8" y1="162.6" x2="942.2" y2="182.6"/>
<line x1="973.8" y1="157.4" x2="939.2" y2="177.4"/>
<line x1="940.7" y1="180.0" x2="940.7" y2="209.6"/>
<line x1="940.7" y1="180.0" x2="906.0" y2="160.0"/>
<line x1="317.1" y1="180.0" x2="351.8" y2="160.0"/>
<line x1="906.0" y1="160.0" x2="871.4" y2="180.0"/>
<line x1="871.4" y1="180.0" x2="836.7" y2="160.0"/>
<line x1="351.8" y1="160.0" x2="386.4" y2="180.0"/>
<line x1="836.7" y1="160.0" x2="802.1" y2="180.0"/>
<line x1="386.4" y1="180.0" x2="421.1" y2="160.0"/>
<line x1="802.1" y1="180.0" x2="767.5" y2="160.0"/>
<line x1="421.1" y1="160.0" x2="455.7" y2="180.0"/>
<line x1="767.5" y1="160.0" x2="732.8" y2="180.0"/>
<line x1="455.7" y1="180.0" x2="490.3" y2="160.0"/>
<line x1="732.8" y1="180.0" x2="698.2" y2="160.0"/>
<line x1="490.3" y1="160.0" x2="525.0" y2="180.0"/>
<line x1="698.2" y1="160.0" x2="663.5" y2="180.0"/>
<line x1="525.0" y1="180.0" x2="525.0" y2="220.0"/>
<line x1="679.6" y1="120.0" x2="659.6" y2="85.4"/>
<line x1="679.6" y1="120.0" x2="709.2" y2="120.0"/>
<line x1="619.6" y1="85.4" x2="659.6" y2="85.4"/>
<line x1="619.6" y1="85.4" x2="604.8" y2="111.0"/>
<line x1="628.9" y1="240.0" x2="594.3" y2="220.0"/>
<line x1="628.9" y1="240.0" x2="654.5" y2="225.2"/>
<line x1="594.3" y1="180.0" x2="594.3" y2="220.0"/>
<line x1="594.3" y1="180.0" x2="568.6" y2="165.2"/>
<line x1="659.6" y1="85.4" x2="674.4" y2="59.7"/>
<line x1="594.3" y1="220.0" x2="568.6" y2="234.8"/>
<line x1="662.0" y1="182.6" x2="636.4" y2="167.8"/>
<line x1="665.0" y1="177.4" x2="639.4" y2="162.6"/>
<line x1="663.5" y1="180.0" x2="663.5" y2="209.6"/>
<line x1="526.5" y1="222.6" x2="500.8" y2="237.4"/>
<line x1="523.5" y1="217.4" x2="497.8" y2="232.2"/>
<line x1="525.0" y1="220.0" x2="550.6" y2="234.8"/>
<line x1="530.0" y1="120.0" x2="549.2" y2="120.0"/>
<line x1="562.6" y1="90.4" x2="562.6" y2="109.6"/>
<line x1="556.6" y1="90.4" x2="556.6" y2="109.6"/>
<line x1="589.2" y1="120.0" x2="570.0" y2="120.0"/>
<line x1="559.6" y1="149.6" x2="559.6" y2="130.4"/>
<text x="865.384388" y="104.800000" fill="rgb(102,102,102)"  stroke="rgb(102,102,102)" stroke-width="1" font-size="16" >CH</text>
<text x="889.384388" y="109.600000" fill="rgb(102,102,102)"  stroke="rgb(102,102,102)" stroke-width="1" font-size="13" >3</text>
<text x="16.400000" y="184.800000" fill="rgb(102,102,102)"  stroke="rgb(102,102,102)" stroke-width="1" font-size="16" >H</text>
<text x="28.400000" y="189.600000" fill="rgb(102,102,102)"  stroke="rgb(102,102,102)" stroke-width="1" font-size="13" >3</text>
<text x="34.900000" y="184.800000" fill="rgb(102,102,102)"  stroke="rgb(102,102,102)" stroke-width="1" font-size="16" >C</text>
<text x="713.615242" y="128.320000" fill="rgb(255,12,12)"  stroke="rgb(255,12,12)" stroke-width="1" font-size="16" >OH</text>
<text x="673.615242" y="59.037968" fill="rgb(255,12,12)"  stroke="rgb(255,12,12)" stroke-width="1" font-size="16" >OH</text>
<text x="625.297275" y="168.320000" fill="rgb(255,12,12)"  stroke="rgb(255,12,12)" stroke-width="1" font-size="16" >O</text>
<text x="486.733210" y="244.800000" fill="rgb(255,12,12)"  stroke="rgb(255,12,12)" stroke-width="1" font-size="16" >O</text>
<text x="514.815242" y="139.200000" fill="rgb(255,12,12)"  stroke="rgb(255,12,12)" stroke-width="1" font-size="32" >-</text>
<text x="516.015242" y="124.800000" fill="rgb(255,12,12)"  stroke="rgb(255,12,12)" stroke-width="1" font-size="16" >O</text>
<text x="553.615242" y="88.320000" fill="rgb(255,12,12)"  stroke="rgb(255,12,12)" stroke-width="1" font-size="16" >O</text>
<text x="657.538291" y="224.800000" fill="rgb(255,12,12)"  stroke="rgb(255,12,12)" stroke-width="1" font-size="16" >O</text>
<text x="593.615242" y="124.800000" fill="rgb(255,12,12)"  stroke="rgb(255,12,12)" stroke-width="1" font-size="16" >O</text>
<text x="556.015242" y="164.800000" fill="rgb(255,12,12)"  stroke="rgb(255,12,12)" stroke-width="1" font-size="16" >O</text>
<text x="553.615242" y="244.800000" fill="rgb(255,12,12)"  stroke="rgb(255,12,12)" stroke-width="1" font-size="16" >O</text>
<text x="553.615242" y="124.800000" fill="rgb(255,127,0)"  stroke="rgb(255,127,0)" stroke-width="1" font-size="16" >P</text>
<text x="1038.589468" y="48.320000" fill="rgb(191,191,191)"  stroke="rgb(191,191,191)" stroke-width="1" font-size="16" >H</text>
<text x="1038.589468" y="124.800000" fill="rgb(191,191,191)"  stroke="rgb(191,191,191)" stroke-width="1" font-size="16" >H</text>
<text x="1003.948452" y="184.800000" fill="rgb(191,191,191)"  stroke="rgb(191,191,191)" stroke-width="1" font-size="16" >H</text>
<text x="934.666420" y="224.800000" fill="rgb(191,191,191)"  stroke="rgb(191,191,191)" stroke-width="1" font-size="16" >H</text>
<text font-size="18.000000" fill ="black" font-family="sans-serif"
x="140.000000" y="20.000000" ></text>
<title> - OBDepict</title>
</svg>
