<?xml version="1.0"?>
<svg xmlns="http://www.w3.org/2000/svg"
xmlns:xlink="http://www.w3.org/1999/xlink" xmlns:cml="http://www.xml-cml.org/schema" width="362.057" height="381.461" x="0" y="0" font-family="sans-serif" stroke="rgb(0,0,0)" stroke-width="1" >
<line x1="122.2" y1="47.3" x2="151.2" y2="53.4"/>
<line x1="207.7" y1="50.2" x2="201.6" y2="79.1"/>
<line x1="223.6" y1="98.9" x2="201.6" y2="79.1"/>
<line x1="70.0" y1="127.2" x2="79.1" y2="155.3"/>
<line x1="213.2" y1="262.8" x2="212.4" y2="262.8"/>
<line x1="213.6" y1="258.8" x2="212.0" y2="258.8"/>
<line x1="214.0" y1="254.8" x2="211.6" y2="254.8"/>
<line x1="214.4" y1="250.8" x2="211.2" y2="250.8"/>
<line x1="214.8" y1="246.8" x2="210.8" y2="246.8"/>
<line x1="215.2" y1="242.8" x2="210.4" y2="242.8"/>
<line x1="215.6" y1="238.8" x2="210.0" y2="238.8"/>
<line x1="110.8" y1="203.3" x2="110.1" y2="203.0"/>
<line x1="112.8" y1="199.8" x2="111.4" y2="199.2"/>
<line x1="114.8" y1="196.3" x2="112.6" y2="195.4"/>
<line x1="116.8" y1="192.9" x2="113.9" y2="191.6"/>
<line x1="118.8" y1="189.4" x2="115.2" y2="187.7"/>
<line x1="120.8" y1="185.9" x2="116.4" y2="183.9"/>
<line x1="122.8" y1="182.4" x2="117.7" y2="180.1"/>
<line x1="151.2" y1="53.4" x2="163.5" y2="91.5"/>
<line x1="117.2" y1="143.0" x2="139.2" y2="162.8"/>
<line x1="114.2" y1="142.3" x2="122.6" y2="103.2"/>
<line x1="120.1" y1="143.6" x2="128.4" y2="104.5"/>
<line x1="117.2" y1="143.0" x2="79.1" y2="155.3"/>
<line x1="125.5" y1="103.8" x2="103.5" y2="84.0"/>
<line x1="125.5" y1="103.8" x2="163.5" y2="91.5"/>
<line x1="201.6" y1="79.1" x2="163.5" y2="91.5"/>
<polygon points="52.911548 149.761814 78.294257 159.246438 79.957551 151.421257 " />
<line x1="79.1" y1="155.3" x2="70.8" y2="194.5"/>
<line x1="171.8" y1="115.7" x2="171.1" y2="116.0"/>
<line x1="171.0" y1="111.8" x2="169.4" y2="112.3"/>
<line x1="170.1" y1="107.9" x2="167.8" y2="108.6"/>
<line x1="169.3" y1="103.9" x2="166.2" y2="104.9"/>
<line x1="168.4" y1="100.0" x2="164.6" y2="101.2"/>
<line x1="167.5" y1="96.1" x2="163.0" y2="97.6"/>
<line x1="166.7" y1="92.1" x2="161.4" y2="93.9"/>
<polygon points="295.456778 330.029912 285.520879 304.820431 278.592676 308.820431 " />
<line x1="282.1" y1="306.8" x2="311.7" y2="306.8"/>
<line x1="121.5" y1="280.0" x2="121.1" y2="279.3"/>
<line x1="125.2" y1="278.3" x2="124.4" y2="276.9"/>
<line x1="128.9" y1="276.7" x2="127.7" y2="274.6"/>
<line x1="132.5" y1="275.0" x2="130.9" y2="272.2"/>
<line x1="136.2" y1="273.4" x2="134.2" y2="269.9"/>
<line x1="139.8" y1="271.7" x2="137.4" y2="267.5"/>
<line x1="143.5" y1="270.0" x2="140.7" y2="265.2"/>
<polygon points="50.893155 176.527051 68.132914 197.432331 73.485959 191.487172 " />
<polygon points="119.752239 271.303449 112.505879 245.193485 105.197515 248.447378 " />
<polygon points="201.343210 233.420431 176.133729 243.356330 180.133729 250.284533 " />
<line x1="47.3" y1="226.8" x2="70.8" y2="259.2"/>
<line x1="70.8" y1="259.2" x2="108.9" y2="246.8"/>
<line x1="108.9" y1="246.8" x2="108.9" y2="206.8"/>
<line x1="108.9" y1="206.8" x2="70.8" y2="194.5"/>
<line x1="70.8" y1="194.5" x2="47.3" y2="226.8"/>
<line x1="143.5" y1="306.8" x2="178.1" y2="326.8"/>
<line x1="178.1" y1="326.8" x2="212.8" y2="306.8"/>
<line x1="179.7" y1="317.6" x2="204.0" y2="303.6"/>
<line x1="212.8" y1="306.8" x2="212.8" y2="266.8"/>
<line x1="212.8" y1="266.8" x2="178.1" y2="246.8"/>
<line x1="178.1" y1="246.8" x2="143.5" y2="266.8"/>
<line x1="143.5" y1="266.8" x2="143.5" y2="306.8"/>
<line x1="247.4" y1="326.8" x2="282.1" y2="306.8"/>
<line x1="282.1" y1="306.8" x2="282.1" y2="266.8"/>
<line x1="282.1" y1="266.8" x2="247.4" y2="246.8"/>
<line x1="247.4" y1="246.8" x2="212.8" y2="266.8"/>
<line x1="212.8" y1="306.8" x2="247.4" y2="326.8"/>
<line x1="108.9" y1="246.8" x2="143.5" y2="266.8"/>
<line x1="178.1" y1="246.8" x2="178.1" y2="206.8"/>
<line x1="178.1" y1="206.8" x2="143.5" y2="186.8"/>
<line x1="143.5" y1="186.8" x2="108.9" y2="206.8"/>
<text x="88.440309" y="53.447856" fill="rgb(102,102,102)"  stroke="rgb(102,102,102)" stroke-width="1" font-size="16" >H</text>
<text x="100.440309" y="61.127856" fill="rgb(102,102,102)"  stroke="rgb(102,102,102)" stroke-width="1" font-size="13" >3</text>
<text x="106.940309" y="53.447856" fill="rgb(102,102,102)"  stroke="rgb(102,102,102)" stroke-width="1" font-size="16" >C</text>
<text x="203.885621" y="48.320000" fill="rgb(102,102,102)"  stroke="rgb(102,102,102)" stroke-width="1" font-size="16" >CH</text>
<text x="227.885621" y="56.000000" fill="rgb(102,102,102)"  stroke="rgb(102,102,102)" stroke-width="1" font-size="13" >3</text>
<text x="225.294947" y="110.691128" fill="rgb(102,102,102)"  stroke="rgb(102,102,102)" stroke-width="1" font-size="16" >CH</text>
<text x="249.294947" y="115.491128" fill="rgb(102,102,102)"  stroke="rgb(102,102,102)" stroke-width="1" font-size="13" >3</text>
<text x="43.165224" y="125.611587" fill="rgb(102,102,102)"  stroke="rgb(102,102,102)" stroke-width="1" font-size="16" >H</text>
<text x="55.165224" y="133.291587" fill="rgb(102,102,102)"  stroke="rgb(102,102,102)" stroke-width="1" font-size="13" >3</text>
<text x="61.665224" y="125.611587" fill="rgb(102,102,102)"  stroke="rgb(102,102,102)" stroke-width="1" font-size="16" >C</text>
<text x="206.774746" y="235.140431" fill="rgb(102,102,102)"  stroke="rgb(102,102,102)" stroke-width="1" font-size="16" >CH</text>
<text x="230.774746" y="242.820431" fill="rgb(102,102,102)"  stroke="rgb(102,102,102)" stroke-width="1" font-size="13" >3</text>
<text x="119.121163" y="178.598613" fill="rgb(102,102,102)"  stroke="rgb(102,102,102)" stroke-width="1" font-size="16" >CH</text>
<text x="143.121163" y="186.278613" fill="rgb(102,102,102)"  stroke="rgb(102,102,102)" stroke-width="1" font-size="13" >3</text>
<text x="316.056778" y="315.140431" fill="rgb(255,12,12)"  stroke="rgb(255,12,12)" stroke-width="1" font-size="16" >OH</text>
<text x="140.893958" y="174.538392" fill="rgb(191,191,191)"  stroke="rgb(191,191,191)" stroke-width="1" font-size="16" >H</text>
<text x="92.158839" y="85.402039" fill="rgb(191,191,191)"  stroke="rgb(191,191,191)" stroke-width="1" font-size="16" >H</text>
<text x="36.400000" y="155.337380" fill="rgb(191,191,191)"  stroke="rgb(191,191,191)" stroke-width="1" font-size="16" >H</text>
<text x="169.887573" y="134.328844" fill="rgb(191,191,191)"  stroke="rgb(191,191,191)" stroke-width="1" font-size="16" >H</text>
<text x="296.056778" y="346.261447" fill="rgb(191,191,191)"  stroke="rgb(191,191,191)" stroke-width="1" font-size="16" >H</text>
<text x="105.251697" y="291.620431" fill="rgb(191,191,191)"  stroke="rgb(191,191,191)" stroke-width="1" font-size="16" >H</text>
<text x="37.483643" y="176.014527" fill="rgb(191,191,191)"  stroke="rgb(191,191,191)" stroke-width="1" font-size="16" >H</text>
<text x="119.121163" y="288.162249" fill="rgb(191,191,191)"  stroke="rgb(191,191,191)" stroke-width="1" font-size="16" >H</text>
<text x="206.774746" y="235.140431" fill="rgb(191,191,191)"  stroke="rgb(191,191,191)" stroke-width="1" font-size="16" >H</text>
<text font-size="18.000000" fill ="black" font-family="sans-serif"
x="140.000000" y="20.000000" ></text>
<title> - OBDepict</title>
</svg>
