<?xml version="1.0"?>
<svg xmlns="http://www.w3.org/2000/svg"
xmlns:xlink="http://www.w3.org/1999/xlink" xmlns:cml="http://www.xml-cml.org/schema" width="511.343" height="353.379" x="0" y="0" font-family="sans-serif" stroke="rgb(0,0,0)" stroke-width="1" >
<line x1="192.3" y1="186.0" x2="216.9" y2="155.6"/>
<line x1="192.3" y1="186.0" x2="153.8" y2="179.9"/>
<line x1="106.8" y1="260.6" x2="143.2" y2="246.6"/>
<line x1="106.8" y1="260.6" x2="76.4" y2="236.0"/>
<line x1="451.8" y1="101.0" x2="412.8" y2="101.0"/>
<line x1="451.8" y1="101.0" x2="466.3" y2="126.1"/>
<line x1="143.2" y1="246.6" x2="170.2" y2="236.3"/>
<line x1="143.2" y1="246.6" x2="157.2" y2="283.1"/>
<line x1="143.2" y1="246.6" x2="132.8" y2="219.7"/>
<polygon points="425.879724 78.402549 409.342452 99.045945 416.270655 103.045945 " />
<line x1="156.1" y1="181.7" x2="137.9" y2="204.2"/>
<line x1="151.4" y1="178.0" x2="133.3" y2="200.4"/>
<line x1="153.8" y1="179.9" x2="143.4" y2="152.9"/>
<line x1="77.5" y1="238.8" x2="50.5" y2="249.2"/>
<line x1="75.4" y1="233.2" x2="48.4" y2="243.6"/>
<line x1="76.4" y1="236.0" x2="80.9" y2="207.5"/>
<line x1="437.8" y1="139.7" x2="437.8" y2="140.5"/>
<line x1="433.9" y1="139.3" x2="433.9" y2="140.9"/>
<line x1="430.0" y1="138.9" x2="430.0" y2="141.3"/>
<line x1="426.1" y1="138.5" x2="426.1" y2="141.7"/>
<line x1="422.2" y1="138.1" x2="422.2" y2="142.1"/>
<line x1="418.3" y1="137.7" x2="418.3" y2="142.5"/>
<line x1="414.4" y1="137.3" x2="414.4" y2="142.9"/>
<line x1="412.8" y1="140.1" x2="427.2" y2="165.1"/>
<polygon points="392.083611 182.225926 382.474542 157.582530 375.546339 161.582530 " />
<line x1="379.0" y1="159.6" x2="364.6" y2="184.6"/>
<line x1="333.1" y1="161.9" x2="332.4" y2="161.5"/>
<line x1="335.4" y1="158.7" x2="334.0" y2="157.9"/>
<line x1="337.7" y1="155.5" x2="335.6" y2="154.3"/>
<line x1="340.0" y1="152.4" x2="337.2" y2="150.8"/>
<line x1="342.3" y1="149.2" x2="338.8" y2="147.2"/>
<line x1="344.6" y1="146.0" x2="340.4" y2="143.6"/>
<line x1="346.9" y1="142.8" x2="342.0" y2="140.0"/>
<line x1="345.2" y1="140.1" x2="316.3" y2="140.1"/>
<line x1="345.2" y1="101.0" x2="349.0" y2="72.4"/>
<line x1="345.2" y1="101.0" x2="289.4" y2="116.0"/>
<line x1="159.5" y1="284.9" x2="141.3" y2="307.4"/>
<line x1="154.8" y1="281.2" x2="136.7" y2="303.6"/>
<line x1="157.2" y1="283.1" x2="185.7" y2="287.6"/>
<line x1="216.9" y1="155.6" x2="255.8" y2="157.7"/>
<line x1="223.2" y1="148.8" x2="250.2" y2="150.2"/>
<line x1="255.8" y1="157.7" x2="266.2" y2="130.7"/>
<line x1="261.9" y1="114.9" x2="239.5" y2="96.7"/>
<line x1="239.5" y1="96.7" x2="206.8" y2="117.9"/>
<line x1="206.8" y1="117.9" x2="216.9" y2="155.6"/>
<line x1="170.0" y1="61.3" x2="172.0" y2="100.2"/>
<line x1="172.0" y1="100.2" x2="206.8" y2="117.9"/>
<line x1="180.6" y1="96.5" x2="204.7" y2="108.8"/>
<line x1="239.5" y1="96.7" x2="237.5" y2="57.7"/>
<line x1="232.0" y1="91.1" x2="230.6" y2="64.1"/>
<line x1="237.5" y1="57.7" x2="202.7" y2="40.0"/>
<line x1="202.7" y1="40.0" x2="170.0" y2="61.3"/>
<line x1="201.6" y1="49.3" x2="178.9" y2="64.0"/>
<line x1="379.0" y1="159.6" x2="345.2" y2="140.1"/>
<line x1="345.2" y1="140.1" x2="345.2" y2="101.0"/>
<line x1="345.2" y1="101.0" x2="370.2" y2="86.6"/>
<line x1="387.8" y1="86.6" x2="412.8" y2="101.0"/>
<line x1="412.8" y1="101.0" x2="412.8" y2="140.1"/>
<line x1="412.8" y1="140.1" x2="379.0" y2="159.6"/>
<text x="125.607370" y="218.507019" fill="rgb(12,12,255)"  stroke="rgb(12,12,255)" stroke-width="1" font-size="16" >N</text>
<text x="266.224994" y="126.046456" fill="rgb(12,12,255)"  stroke="rgb(12,12,255)" stroke-width="1" font-size="16" >N</text>
<text x="465.343139" y="139.642058" fill="rgb(255,12,12)"  stroke="rgb(255,12,12)" stroke-width="1" font-size="16" >OH</text>
<text x="134.981124" y="137.026965" fill="rgb(255,12,12)"  stroke="rgb(255,12,12)" stroke-width="1" font-size="32" >-</text>
<text x="136.181124" y="151.746965" fill="rgb(255,12,12)"  stroke="rgb(255,12,12)" stroke-width="1" font-size="16" >O</text>
<text x="36.400000" y="254.830762" fill="rgb(255,12,12)"  stroke="rgb(255,12,12)" stroke-width="1" font-size="16" >O</text>
<text x="77.737166" y="191.101737" fill="rgb(255,12,12)"  stroke="rgb(255,12,12)" stroke-width="1" font-size="32" >-</text>
<text x="76.537166" y="205.821737" fill="rgb(255,12,12)"  stroke="rgb(255,12,12)" stroke-width="1" font-size="16" >O</text>
<text x="426.318749" y="178.666448" fill="rgb(255,12,12)"  stroke="rgb(255,12,12)" stroke-width="1" font-size="16" >OH</text>
<text x="343.898245" y="198.178643" fill="rgb(255,12,12)"  stroke="rgb(255,12,12)" stroke-width="1" font-size="16" >HO</text>
<text x="290.589937" y="144.870335" fill="rgb(255,12,12)"  stroke="rgb(255,12,12)" stroke-width="1" font-size="16" >HO</text>
<text x="129.018707" y="318.179480" fill="rgb(255,12,12)"  stroke="rgb(255,12,12)" stroke-width="1" font-size="16" >O</text>
<text x="189.721487" y="293.956592" fill="rgb(255,12,12)"  stroke="rgb(255,12,12)" stroke-width="1" font-size="16" >OH</text>
<text x="373.010440" y="89.853750" fill="rgb(255,12,12)"  stroke="rgb(255,12,12)" stroke-width="1" font-size="16" >O</text>
<text x="173.624868" y="240.954335" fill="rgb(191,191,191)"  stroke="rgb(191,191,191)" stroke-width="1" font-size="16" >H</text>
<text x="426.318749" y="75.569831" fill="rgb(191,191,191)"  stroke="rgb(191,191,191)" stroke-width="1" font-size="16" >H</text>
<text x="445.830944" y="144.870335" fill="rgb(191,191,191)"  stroke="rgb(191,191,191)" stroke-width="1" font-size="16" >H</text>
<text x="392.522635" y="198.178643" fill="rgb(191,191,191)"  stroke="rgb(191,191,191)" stroke-width="1" font-size="16" >H</text>
<text x="322.102132" y="178.666448" fill="rgb(191,191,191)"  stroke="rgb(191,191,191)" stroke-width="1" font-size="16" >H</text>
<text x="344.308032" y="70.675414" fill="rgb(191,191,191)"  stroke="rgb(191,191,191)" stroke-width="1" font-size="16" >H</text>
<text font-size="18.000000" fill ="black" font-family="sans-serif"
x="140.000000" y="20.000000" ></text>
<title> - OBDepict</title>
</svg>
