<?xml version="1.0"?>
<svg xmlns="http://www.w3.org/2000/svg"
xmlns:xlink="http://www.w3.org/1999/xlink" xmlns:cml="http://www.xml-cml.org/schema" width="322.487" height="480" x="0" y="0" font-family="sans-serif" stroke="rgb(0,0,0)" stroke-width="1" >
<line x1="49.0" y1="154.8" x2="74.6" y2="140.0"/>
<line x1="100.3" y1="154.8" x2="74.6" y2="140.0"/>
<line x1="178.6" y1="429.6" x2="178.6" y2="410.4"/>
<line x1="143.9" y1="100.0" x2="143.9" y2="140.0"/>
<line x1="143.9" y1="100.0" x2="109.3" y2="80.0"/>
<line x1="143.9" y1="140.0" x2="178.6" y2="160.0"/>
<line x1="109.3" y1="80.0" x2="109.3" y2="50.4"/>
<line x1="110.8" y1="82.6" x2="76.1" y2="102.6"/>
<line x1="107.8" y1="77.4" x2="73.1" y2="97.4"/>
<line x1="178.6" y1="160.0" x2="178.6" y2="200.0"/>
<line x1="74.6" y1="100.0" x2="49.0" y2="85.2"/>
<line x1="74.6" y1="100.0" x2="74.6" y2="140.0"/>
<line x1="178.6" y1="200.0" x2="213.2" y2="220.0"/>
<line x1="247.8" y1="280.0" x2="247.8" y2="320.0"/>
<line x1="247.8" y1="280.0" x2="222.2" y2="265.2"/>
<line x1="247.8" y1="400.0" x2="247.8" y2="429.6"/>
<line x1="213.2" y1="380.0" x2="187.6" y2="394.8"/>
<line x1="216.2" y1="220.0" x2="216.2" y2="249.6"/>
<line x1="210.2" y1="220.0" x2="210.2" y2="249.6"/>
<line x1="213.2" y1="220.0" x2="238.8" y2="205.2"/>
<line x1="282.5" y1="340.0" x2="282.5" y2="380.0"/>
<line x1="275.3" y1="346.0" x2="275.3" y2="374.0"/>
<line x1="282.5" y1="380.0" x2="247.8" y2="400.0"/>
<line x1="247.8" y1="400.0" x2="213.2" y2="380.0"/>
<line x1="246.2" y1="390.8" x2="222.0" y2="376.8"/>
<line x1="213.2" y1="380.0" x2="213.2" y2="340.0"/>
<line x1="213.2" y1="340.0" x2="247.8" y2="320.0"/>
<line x1="222.0" y1="343.2" x2="246.2" y2="329.2"/>
<line x1="247.8" y1="320.0" x2="282.5" y2="340.0"/>
<text x="16.400000" y="164.800000" fill="rgb(102,102,102)"  stroke="rgb(102,102,102)" stroke-width="1" font-size="16" >H</text>
<text x="28.400000" y="169.600000" fill="rgb(102,102,102)"  stroke="rgb(102,102,102)" stroke-width="1" font-size="13" >3</text>
<text x="34.900000" y="164.800000" fill="rgb(102,102,102)"  stroke="rgb(102,102,102)" stroke-width="1" font-size="16" >C</text>
<text x="103.282032" y="164.800000" fill="rgb(102,102,102)"  stroke="rgb(102,102,102)" stroke-width="1" font-size="16" >CH</text>
<text x="127.282032" y="169.600000" fill="rgb(102,102,102)"  stroke="rgb(102,102,102)" stroke-width="1" font-size="13" >3</text>
<text x="172.564065" y="444.800000" fill="rgb(102,102,102)"  stroke="rgb(102,102,102)" stroke-width="1" font-size="16" >CH</text>
<text x="196.564065" y="449.600000" fill="rgb(102,102,102)"  stroke="rgb(102,102,102)" stroke-width="1" font-size="13" >3</text>
<text x="209.605081" y="264.800000" fill="rgb(12,12,255)"  stroke="rgb(12,12,255)" stroke-width="1" font-size="16" >N</text>
<text x="241.846097" y="444.800000" fill="rgb(255,12,12)"  stroke="rgb(255,12,12)" stroke-width="1" font-size="16" >OH</text>
<text x="241.846097" y="208.320000" fill="rgb(255,12,12)"  stroke="rgb(255,12,12)" stroke-width="1" font-size="16" >OH</text>
<text x="174.964065" y="408.320000" fill="rgb(255,12,12)"  stroke="rgb(255,12,12)" stroke-width="1" font-size="16" >O</text>
<text x="103.282032" y="48.320000" fill="rgb(191,191,191)"  stroke="rgb(191,191,191)" stroke-width="1" font-size="16" >H</text>
<text x="36.400000" y="88.320000" fill="rgb(191,191,191)"  stroke="rgb(191,191,191)" stroke-width="1" font-size="16" >H</text>
<text font-size="18.000000" fill ="black" font-family="sans-serif"
x="140.000000" y="20.000000" ></text>
<title> - OBDepict</title>
</svg>
