<?xml version="1.0"?>
<svg xmlns="http://www.w3.org/2000/svg"
xmlns:xlink="http://www.w3.org/1999/xlink" xmlns:cml="http://www.xml-cml.org/schema" width="494.552" height="347.061" x="0" y="0" font-family="sans-serif" stroke="rgb(0,0,0)" stroke-width="1" >
<line x1="49.9" y1="258.8" x2="78.0" y2="267.9"/>
<line x1="84.2" y1="296.9" x2="78.0" y2="267.9"/>
<line x1="419.9" y1="50.4" x2="419.9" y2="80.0"/>
<line x1="204.4" y1="267.3" x2="213.6" y2="239.1"/>
<polygon points="281.346422 200.000000 288.592782 226.109965 295.901146 222.856072 " />
<line x1="145.8" y1="253.5" x2="107.8" y2="241.2"/>
<line x1="145.8" y1="253.5" x2="175.5" y2="226.8"/>
<line x1="107.8" y1="241.2" x2="78.0" y2="267.9"/>
<line x1="175.5" y1="226.8" x2="213.6" y2="239.1"/>
<line x1="316.0" y1="100.0" x2="290.4" y2="85.2"/>
<line x1="314.5" y1="97.4" x2="349.1" y2="77.4"/>
<line x1="317.5" y1="102.6" x2="352.1" y2="82.6"/>
<line x1="316.0" y1="100.0" x2="316.0" y2="140.0"/>
<line x1="350.6" y1="80.0" x2="350.6" y2="50.4"/>
<line x1="350.6" y1="80.0" x2="385.3" y2="100.0"/>
<polygon points="231.511068 259.042185 216.550947 236.449382 210.605789 241.802426 " />
<line x1="213.6" y1="239.1" x2="243.3" y2="212.4"/>
<polygon points="433.310486 183.209481 423.374588 158.000000 416.446385 162.000000 " />
<line x1="419.9" y1="160.0" x2="405.1" y2="185.6"/>
<line x1="249.0" y1="237.3" x2="248.2" y2="237.5"/>
<line x1="248.6" y1="233.3" x2="247.0" y2="233.7"/>
<line x1="248.1" y1="229.3" x2="245.8" y2="229.8"/>
<line x1="247.7" y1="225.3" x2="244.6" y2="226.0"/>
<line x1="247.3" y1="221.3" x2="243.3" y2="222.2"/>
<line x1="246.8" y1="217.3" x2="242.1" y2="218.3"/>
<line x1="246.4" y1="213.3" x2="240.9" y2="214.5"/>
<line x1="281.3" y1="160.0" x2="293.4" y2="133.0"/>
<line x1="219.8" y1="180.0" x2="243.3" y2="212.4"/>
<line x1="243.3" y1="212.4" x2="281.3" y2="200.0"/>
<line x1="281.3" y1="200.0" x2="281.3" y2="160.0"/>
<line x1="281.3" y1="160.0" x2="243.3" y2="147.6"/>
<line x1="243.3" y1="147.6" x2="219.8" y2="180.0"/>
<line x1="350.6" y1="200.0" x2="350.6" y2="160.0"/>
<line x1="350.6" y1="160.0" x2="316.0" y2="140.0"/>
<line x1="341.8" y1="163.2" x2="317.6" y2="149.2"/>
<line x1="316.0" y1="140.0" x2="281.3" y2="160.0"/>
<line x1="281.3" y1="200.0" x2="316.0" y2="220.0"/>
<line x1="316.0" y1="220.0" x2="350.6" y2="200.0"/>
<line x1="385.3" y1="140.0" x2="385.3" y2="100.0"/>
<line x1="385.3" y1="100.0" x2="419.9" y2="80.0"/>
<line x1="394.1" y1="103.2" x2="418.3" y2="89.2"/>
<line x1="419.9" y1="80.0" x2="454.6" y2="100.0"/>
<line x1="454.6" y1="100.0" x2="454.6" y2="140.0"/>
<line x1="454.6" y1="140.0" x2="419.9" y2="160.0"/>
<line x1="419.9" y1="160.0" x2="385.3" y2="140.0"/>
<text x="16.400000" y="263.894313" fill="rgb(102,102,102)"  stroke="rgb(102,102,102)" stroke-width="1" font-size="16" >H</text>
<text x="28.400000" y="271.574313" fill="rgb(102,102,102)"  stroke="rgb(102,102,102)" stroke-width="1" font-size="13" >3</text>
<text x="34.900000" y="263.894313" fill="rgb(102,102,102)"  stroke="rgb(102,102,102)" stroke-width="1" font-size="16" >C</text>
<text x="80.358728" y="311.860897" fill="rgb(102,102,102)"  stroke="rgb(102,102,102)" stroke-width="1" font-size="16" >CH</text>
<text x="104.358728" y="316.660897" fill="rgb(102,102,102)"  stroke="rgb(102,102,102)" stroke-width="1" font-size="13" >3</text>
<text x="413.910486" y="48.320000" fill="rgb(102,102,102)"  stroke="rgb(102,102,102)" stroke-width="1" font-size="16" >CH</text>
<text x="437.910486" y="56.000000" fill="rgb(102,102,102)"  stroke="rgb(102,102,102)" stroke-width="1" font-size="13" >3</text>
<text x="177.617688" y="281.968165" fill="rgb(102,102,102)"  stroke="rgb(102,102,102)" stroke-width="1" font-size="16" >H</text>
<text x="189.617688" y="286.768165" fill="rgb(102,102,102)"  stroke="rgb(102,102,102)" stroke-width="1" font-size="13" >3</text>
<text x="196.117688" y="281.968165" fill="rgb(102,102,102)"  stroke="rgb(102,102,102)" stroke-width="1" font-size="16" >C</text>
<text x="291.615887" y="241.341818" fill="rgb(102,102,102)"  stroke="rgb(102,102,102)" stroke-width="1" font-size="16" >CH</text>
<text x="315.615887" y="246.141818" fill="rgb(102,102,102)"  stroke="rgb(102,102,102)" stroke-width="1" font-size="13" >3</text>
<text x="384.310486" y="199.441016" fill="rgb(255,12,12)"  stroke="rgb(255,12,12)" stroke-width="1" font-size="16" >HO</text>
<text x="277.746422" y="88.320000" fill="rgb(191,191,191)"  stroke="rgb(191,191,191)" stroke-width="1" font-size="16" >H</text>
<text x="344.628454" y="48.320000" fill="rgb(191,191,191)"  stroke="rgb(191,191,191)" stroke-width="1" font-size="16" >H</text>
<text x="234.343592" y="273.651697" fill="rgb(191,191,191)"  stroke="rgb(191,191,191)" stroke-width="1" font-size="16" >H</text>
<text x="433.910486" y="199.441016" fill="rgb(191,191,191)"  stroke="rgb(191,191,191)" stroke-width="1" font-size="16" >H</text>
<text x="245.620629" y="256.286584" fill="rgb(191,191,191)"  stroke="rgb(191,191,191)" stroke-width="1" font-size="16" >H</text>
<text x="291.615887" y="131.778182" fill="rgb(191,191,191)"  stroke="rgb(191,191,191)" stroke-width="1" font-size="16" >H</text>
<text font-size="18.000000" fill ="black" font-family="sans-serif"
x="140.000000" y="20.000000" ></text>
<title> - OBDepict</title>
</svg>
