<?xml version="1.0"?>
<svg xmlns="http://www.w3.org/2000/svg"
xmlns:xlink="http://www.w3.org/1999/xlink" xmlns:cml="http://www.xml-cml.org/schema" width="280" height="253.205" x="0" y="0" font-family="sans-serif" stroke="rgb(0,0,0)" stroke-width="1" >
<line x1="150.4" y1="40.0" x2="169.6" y2="40.0"/>
<line x1="180.0" y1="109.3" x2="200.0" y2="74.6"/>
<line x1="180.0" y1="109.3" x2="200.0" y2="143.9"/>
<line x1="200.0" y1="74.6" x2="185.2" y2="49.0"/>
<line x1="140.0" y1="178.6" x2="125.2" y2="204.2"/>
<line x1="140.0" y1="175.6" x2="180.0" y2="175.6"/>
<line x1="140.0" y1="181.6" x2="180.0" y2="181.6"/>
<line x1="140.0" y1="178.6" x2="125.2" y2="152.9"/>
<line x1="200.0" y1="143.9" x2="180.0" y2="178.6"/>
<line x1="200.0" y1="140.9" x2="229.6" y2="140.9"/>
<line x1="200.0" y1="146.9" x2="229.6" y2="146.9"/>
<line x1="180.0" y1="178.6" x2="194.8" y2="204.2"/>
<line x1="80.0" y1="114.3" x2="80.0" y2="133.5"/>
<line x1="50.4" y1="143.9" x2="69.6" y2="143.9"/>
<line x1="77.0" y1="173.5" x2="77.0" y2="154.3"/>
<line x1="83.0" y1="173.5" x2="83.0" y2="154.3"/>
<line x1="109.6" y1="143.9" x2="90.4" y2="143.9"/>
<text x="116.400000" y="44.800000" fill="rgb(102,102,102)"  stroke="rgb(102,102,102)" stroke-width="1" font-size="16" >H</text>
<text x="128.400000" y="49.600000" fill="rgb(102,102,102)"  stroke="rgb(102,102,102)" stroke-width="1" font-size="13" >3</text>
<text x="134.900000" y="44.800000" fill="rgb(102,102,102)"  stroke="rgb(102,102,102)" stroke-width="1" font-size="16" >C</text>
<text x="234.000000" y="148.723048" fill="rgb(255,12,12)"  stroke="rgb(255,12,12)" stroke-width="1" font-size="16" >O</text>
<text x="195.200000" y="232.405081" fill="rgb(255,12,12)"  stroke="rgb(255,12,12)" stroke-width="1" font-size="32" >-</text>
<text x="194.000000" y="218.005081" fill="rgb(255,12,12)"  stroke="rgb(255,12,12)" stroke-width="1" font-size="16" >O</text>
<text x="75.200000" y="97.523048" fill="rgb(255,12,12)"  stroke="rgb(255,12,12)" stroke-width="1" font-size="32" >-</text>
<text x="74.000000" y="112.243048" fill="rgb(255,12,12)"  stroke="rgb(255,12,12)" stroke-width="1" font-size="16" >O</text>
<text x="35.200000" y="163.123048" fill="rgb(255,12,12)"  stroke="rgb(255,12,12)" stroke-width="1" font-size="32" >-</text>
<text x="36.400000" y="148.723048" fill="rgb(255,12,12)"  stroke="rgb(255,12,12)" stroke-width="1" font-size="16" >O</text>
<text x="74.000000" y="188.723048" fill="rgb(255,12,12)"  stroke="rgb(255,12,12)" stroke-width="1" font-size="16" >O</text>
<text x="114.000000" y="152.243048" fill="rgb(255,12,12)"  stroke="rgb(255,12,12)" stroke-width="1" font-size="16" >O</text>
<text x="74.000000" y="148.723048" fill="rgb(255,127,0)"  stroke="rgb(255,127,0)" stroke-width="1" font-size="16" >P</text>
<text x="174.000000" y="48.320000" fill="rgb(178,178,0)"  stroke="rgb(178,178,0)" stroke-width="1" font-size="16" >S</text>
<text x="116.400000" y="218.005081" fill="rgb(191,191,191)"  stroke="rgb(191,191,191)" stroke-width="1" font-size="16" >H</text>
<text font-size="18.000000" fill ="black" font-family="sans-serif"
x="140.000000" y="20.000000" ></text>
<title> - OBDepict</title>
</svg>
