<?xml version="1.0"?>
<svg xmlns="http://www.w3.org/2000/svg"
xmlns:xlink="http://www.w3.org/1999/xlink" xmlns:cml="http://www.xml-cml.org/schema" width="980" height="738.179" x="0" y="0" font-family="sans-serif" stroke="rgb(0,0,0)" stroke-width="1" >
<line x1="925.2" y1="49.0" x2="940.0" y2="74.6"/>
<line x1="154.8" y1="516.0" x2="140.0" y2="490.3"/>
<line x1="940.0" y1="74.6" x2="920.0" y2="109.3"/>
<line x1="140.0" y1="490.3" x2="100.0" y2="490.3"/>
<line x1="920.0" y1="109.3" x2="880.0" y2="109.3"/>
<line x1="100.0" y1="490.3" x2="85.2" y2="464.7"/>
<line x1="102.6" y1="491.8" x2="82.6" y2="526.5"/>
<line x1="97.4" y1="488.8" x2="77.4" y2="523.5"/>
<line x1="880.0" y1="109.3" x2="860.0" y2="143.9"/>
<line x1="80.0" y1="525.0" x2="50.4" y2="525.0"/>
<line x1="80.0" y1="525.0" x2="100.0" y2="559.6"/>
<line x1="860.0" y1="143.9" x2="820.0" y2="143.9"/>
<line x1="100.0" y1="559.6" x2="80.0" y2="594.3"/>
<line x1="820.0" y1="143.9" x2="800.0" y2="178.6"/>
<line x1="80.0" y1="594.3" x2="50.4" y2="594.3"/>
<line x1="82.6" y1="592.8" x2="102.6" y2="627.4"/>
<line x1="77.4" y1="595.8" x2="97.4" y2="630.4"/>
<line x1="800.0" y1="178.6" x2="760.0" y2="178.6"/>
<line x1="100.0" y1="628.9" x2="85.2" y2="654.5"/>
<line x1="100.0" y1="628.9" x2="140.0" y2="628.9"/>
<line x1="760.0" y1="178.6" x2="740.0" y2="213.2"/>
<line x1="140.0" y1="628.9" x2="160.0" y2="663.5"/>
<line x1="740.0" y1="213.2" x2="700.0" y2="213.2"/>
<line x1="160.0" y1="663.5" x2="145.2" y2="689.2"/>
<line x1="160.0" y1="660.5" x2="200.0" y2="660.5"/>
<line x1="160.0" y1="666.5" x2="200.0" y2="666.5"/>
<line x1="700.0" y1="213.2" x2="680.0" y2="247.8"/>
<line x1="200.0" y1="663.5" x2="214.8" y2="689.2"/>
<line x1="200.0" y1="663.5" x2="220.0" y2="628.9"/>
<line x1="680.0" y1="247.8" x2="640.0" y2="247.8"/>
<line x1="220.0" y1="628.9" x2="260.0" y2="628.9"/>
<line x1="640.0" y1="247.8" x2="620.0" y2="282.5"/>
<line x1="260.0" y1="628.9" x2="280.0" y2="594.3"/>
<line x1="620.0" y1="282.5" x2="580.0" y2="282.5"/>
<line x1="280.0" y1="594.3" x2="320.0" y2="594.3"/>
<line x1="580.0" y1="282.5" x2="560.0" y2="317.1"/>
<line x1="320.0" y1="594.3" x2="340.0" y2="559.6"/>
<line x1="560.0" y1="317.1" x2="520.0" y2="317.1"/>
<line x1="340.0" y1="559.6" x2="320.0" y2="525.0"/>
<line x1="520.0" y1="317.1" x2="500.0" y2="351.8"/>
<line x1="320.0" y1="525.0" x2="340.0" y2="490.3"/>
<line x1="500.0" y1="351.8" x2="460.0" y2="351.8"/>
<line x1="340.0" y1="490.3" x2="380.0" y2="490.3"/>
<line x1="245.4" y1="555.7" x2="245.4" y2="515.7"/>
<line x1="245.4" y1="555.7" x2="219.7" y2="570.5"/>
<line x1="245.4" y1="515.7" x2="271.0" y2="500.9"/>
<line x1="400.0" y1="386.4" x2="380.0" y2="421.1"/>
<line x1="400.0" y1="386.4" x2="429.6" y2="386.4"/>
<line x1="340.0" y1="421.1" x2="380.0" y2="421.1"/>
<line x1="340.0" y1="421.1" x2="325.2" y2="446.7"/>
<line x1="380.0" y1="421.1" x2="394.8" y2="446.7"/>
<line x1="457.4" y1="353.3" x2="442.6" y2="327.6"/>
<line x1="462.6" y1="350.3" x2="447.8" y2="324.6"/>
<line x1="460.0" y1="351.8" x2="445.2" y2="377.4"/>
<line x1="382.6" y1="488.8" x2="397.4" y2="514.5"/>
<line x1="377.4" y1="491.8" x2="392.2" y2="517.5"/>
<line x1="380.0" y1="490.3" x2="394.8" y2="464.7"/>
<line x1="280.0" y1="426.1" x2="280.0" y2="445.3"/>
<line x1="250.4" y1="452.7" x2="269.6" y2="452.7"/>
<line x1="250.4" y1="458.7" x2="269.6" y2="458.7"/>
<line x1="280.0" y1="485.3" x2="280.0" y2="466.1"/>
<line x1="309.6" y1="455.7" x2="290.4" y2="455.7"/>
<text x="896.400000" y="48.320000" fill="rgb(102,102,102)"  stroke="rgb(102,102,102)" stroke-width="1" font-size="16" >H</text>
<text x="908.400000" y="56.000000" fill="rgb(102,102,102)"  stroke="rgb(102,102,102)" stroke-width="1" font-size="13" >3</text>
<text x="914.900000" y="48.320000" fill="rgb(102,102,102)"  stroke="rgb(102,102,102)" stroke-width="1" font-size="16" >C</text>
<text x="154.000000" y="529.774226" fill="rgb(102,102,102)"  stroke="rgb(102,102,102)" stroke-width="1" font-size="16" >CH</text>
<text x="178.000000" y="534.574226" fill="rgb(102,102,102)"  stroke="rgb(102,102,102)" stroke-width="1" font-size="13" >3</text>
<text x="187.117968" y="580.492194" fill="rgb(12,12,255)"  stroke="rgb(12,12,255)" stroke-width="1" font-size="16" >H</text>
<text x="199.117968" y="585.292194" fill="rgb(12,12,255)"  stroke="rgb(12,12,255)" stroke-width="1" font-size="13" >2</text>
<text x="205.617968" y="580.492194" fill="rgb(12,12,255)"  stroke="rgb(12,12,255)" stroke-width="1" font-size="16" >N</text>
<text x="436.400000" y="325.448129" fill="rgb(255,12,12)"  stroke="rgb(255,12,12)" stroke-width="1" font-size="16" >O</text>
<text x="394.000000" y="529.774226" fill="rgb(255,12,12)"  stroke="rgb(255,12,12)" stroke-width="1" font-size="16" >O</text>
<text x="274.000000" y="424.012194" fill="rgb(255,12,12)"  stroke="rgb(255,12,12)" stroke-width="1" font-size="16" >OH</text>
<text x="236.400000" y="460.492194" fill="rgb(255,12,12)"  stroke="rgb(255,12,12)" stroke-width="1" font-size="16" >O</text>
<text x="434.000000" y="391.210162" fill="rgb(255,12,12)"  stroke="rgb(255,12,12)" stroke-width="1" font-size="16" >O</text>
<text x="274.000000" y="500.492194" fill="rgb(255,12,12)"  stroke="rgb(255,12,12)" stroke-width="1" font-size="16" >O</text>
<text x="314.000000" y="460.492194" fill="rgb(255,12,12)"  stroke="rgb(255,12,12)" stroke-width="1" font-size="16" >O</text>
<text x="394.000000" y="460.492194" fill="rgb(255,12,12)"  stroke="rgb(255,12,12)" stroke-width="1" font-size="16" >O</text>
<text x="274.000000" y="460.492194" fill="rgb(255,127,0)"  stroke="rgb(255,127,0)" stroke-width="1" font-size="16" >P</text>
<text x="76.400000" y="464.012194" fill="rgb(191,191,191)"  stroke="rgb(191,191,191)" stroke-width="1" font-size="16" >H</text>
<text x="36.400000" y="529.774226" fill="rgb(191,191,191)"  stroke="rgb(191,191,191)" stroke-width="1" font-size="16" >H</text>
<text x="36.400000" y="599.056258" fill="rgb(191,191,191)"  stroke="rgb(191,191,191)" stroke-width="1" font-size="16" >H</text>
<text x="76.400000" y="668.338291" fill="rgb(191,191,191)"  stroke="rgb(191,191,191)" stroke-width="1" font-size="16" >H</text>
<text x="136.400000" y="702.979307" fill="rgb(191,191,191)"  stroke="rgb(191,191,191)" stroke-width="1" font-size="16" >H</text>
<text x="214.000000" y="702.979307" fill="rgb(191,191,191)"  stroke="rgb(191,191,191)" stroke-width="1" font-size="16" >H</text>
<text font-size="18.000000" fill ="black" font-family="sans-serif"
x="140.000000" y="20.000000" ></text>
<title> - OBDepict</title>
</svg>
