<?xml version="1.0"?>
<svg xmlns="http://www.w3.org/2000/svg"
xmlns:xlink="http://www.w3.org/1999/xlink" xmlns:cml="http://www.xml-cml.org/schema" width="595.721" height="344.292" x="0" y="0" font-family="sans-serif" stroke="rgb(0,0,0)" stroke-width="1" >
<line x1="438.1" y1="235.0" x2="398.1" y2="235.0"/>
<line x1="438.1" y1="235.0" x2="458.1" y2="200.4"/>
<line x1="398.1" y1="235.0" x2="378.1" y2="269.7"/>
<line x1="458.1" y1="200.4" x2="498.1" y2="200.4"/>
<line x1="378.1" y1="269.7" x2="338.1" y2="269.7"/>
<line x1="243.4" y1="175.0" x2="243.4" y2="135.0"/>
<line x1="243.4" y1="175.0" x2="269.0" y2="189.8"/>
<line x1="498.1" y1="200.4" x2="503.9" y2="229.4"/>
<line x1="268.4" y1="129.5" x2="268.6" y2="130.3"/>
<line x1="264.4" y1="129.9" x2="264.7" y2="131.5"/>
<line x1="260.4" y1="130.3" x2="260.9" y2="132.7"/>
<line x1="256.4" y1="130.7" x2="257.1" y2="133.9"/>
<line x1="252.4" y1="131.1" x2="253.2" y2="135.1"/>
<line x1="248.4" y1="131.5" x2="249.4" y2="136.2"/>
<line x1="244.4" y1="131.9" x2="245.5" y2="137.4"/>
<line x1="340.7" y1="271.2" x2="325.9" y2="296.8"/>
<line x1="335.5" y1="268.2" x2="320.7" y2="293.8"/>
<line x1="338.1" y1="269.7" x2="323.3" y2="244.0"/>
<polygon points="276.433765 96.905441 249.879838 91.508319 249.461150 99.497355 " />
<line x1="249.7" y1="95.5" x2="265.8" y2="70.7"/>
<polygon points="223.634494 52.323262 210.295911 75.909745 217.764555 78.776689 " />
<line x1="214.0" y1="77.3" x2="195.4" y2="54.3"/>
<line x1="79.9" y1="196.3" x2="50.4" y2="197.9"/>
<line x1="165.6" y1="89.8" x2="166.1" y2="89.2"/>
<line x1="168.5" y1="92.7" x2="169.5" y2="91.4"/>
<line x1="171.3" y1="95.5" x2="172.8" y2="93.6"/>
<line x1="174.2" y1="98.3" x2="176.2" y2="95.8"/>
<line x1="177.0" y1="101.1" x2="179.5" y2="98.0"/>
<line x1="179.9" y1="104.0" x2="182.9" y2="100.2"/>
<line x1="182.7" y1="106.8" x2="186.3" y2="102.4"/>
<line x1="185.7" y1="105.6" x2="158.1" y2="116.2"/>
<line x1="278.1" y1="264.6" x2="278.1" y2="245.4"/>
<line x1="248.5" y1="232.0" x2="267.7" y2="232.0"/>
<line x1="248.5" y1="238.0" x2="267.7" y2="238.0"/>
<line x1="278.1" y1="205.4" x2="278.1" y2="224.6"/>
<line x1="307.7" y1="235.0" x2="288.5" y2="235.0"/>
<line x1="537.6" y1="206.6" x2="555.7" y2="171.0"/>
<line x1="555.7" y1="171.0" x2="534.8" y2="150.1"/>
<line x1="518.2" y1="147.4" x2="501.1" y2="156.1"/>
<line x1="493.4" y1="171.1" x2="498.1" y2="200.4"/>
<line x1="498.1" y1="200.4" x2="537.6" y2="206.6"/>
<line x1="114.9" y1="98.2" x2="139.7" y2="114.3"/>
<line x1="145.7" y1="130.0" x2="138.0" y2="158.6"/>
<line x1="138.0" y1="158.6" x2="98.1" y2="160.7"/>
<line x1="98.1" y1="160.7" x2="87.5" y2="133.1"/>
<line x1="91.9" y1="116.8" x2="114.9" y2="98.2"/>
<line x1="97.9" y1="121.1" x2="114.7" y2="107.5"/>
<line x1="243.4" y1="135.0" x2="249.7" y2="95.5"/>
<line x1="249.7" y1="95.5" x2="214.0" y2="77.3"/>
<line x1="214.0" y1="77.3" x2="185.7" y2="105.6"/>
<line x1="185.7" y1="105.6" x2="199.2" y2="132.0"/>
<line x1="214.2" y1="139.6" x2="243.4" y2="135.0"/>
<line x1="138.0" y1="158.6" x2="154.2" y2="183.4"/>
<line x1="135.3" y1="167.6" x2="147.0" y2="185.7"/>
<line x1="155.1" y1="201.4" x2="141.7" y2="227.8"/>
<line x1="141.7" y1="227.8" x2="112.1" y2="229.3"/>
<line x1="135.3" y1="220.9" x2="113.7" y2="222.0"/>
<line x1="96.1" y1="221.2" x2="79.9" y2="196.3"/>
<line x1="79.9" y1="196.3" x2="98.1" y2="160.7"/>
<line x1="89.1" y1="194.3" x2="101.8" y2="169.3"/>
<text x="16.400000" y="203.226377" fill="rgb(12,12,255)"  stroke="rgb(12,12,255)" stroke-width="1" font-size="16" >H</text>
<text x="28.400000" y="208.026377" fill="rgb(12,12,255)"  stroke="rgb(12,12,255)" stroke-width="1" font-size="13" >2</text>
<text x="34.900000" y="203.226377" fill="rgb(12,12,255)"  stroke="rgb(12,12,255)" stroke-width="1" font-size="16" >N</text>
<text x="98.130743" y="234.679761" fill="rgb(12,12,255)"  stroke="rgb(12,12,255)" stroke-width="1" font-size="16" >N</text>
<text x="153.835544" y="200.466062" fill="rgb(12,12,255)"  stroke="rgb(12,12,255)" stroke-width="1" font-size="16" >N</text>
<text x="80.170083" y="131.669461" fill="rgb(12,12,255)"  stroke="rgb(12,12,255)" stroke-width="1" font-size="16" >N</text>
<text x="142.402745" y="128.282206" fill="rgb(12,12,255)"  stroke="rgb(12,12,255)" stroke-width="1" font-size="16" >N</text>
<text x="314.454131" y="309.092403" fill="rgb(255,12,12)"  stroke="rgb(255,12,12)" stroke-width="1" font-size="16" >O</text>
<text x="265.456055" y="70.276014" fill="rgb(255,12,12)"  stroke="rgb(255,12,12)" stroke-width="1" font-size="16" >OH</text>
<text x="173.257417" y="54.577379" fill="rgb(255,12,12)"  stroke="rgb(255,12,12)" stroke-width="1" font-size="16" >HO</text>
<text x="272.054131" y="279.810371" fill="rgb(255,12,12)"  stroke="rgb(255,12,12)" stroke-width="1" font-size="16" >OH</text>
<text x="234.454131" y="239.810371" fill="rgb(255,12,12)"  stroke="rgb(255,12,12)" stroke-width="1" font-size="16" >O</text>
<text x="272.054131" y="203.330371" fill="rgb(255,12,12)"  stroke="rgb(255,12,12)" stroke-width="1" font-size="16" >O</text>
<text x="200.305582" y="146.067749" fill="rgb(255,12,12)"  stroke="rgb(255,12,12)" stroke-width="1" font-size="16" >O</text>
<text x="312.054131" y="243.330371" fill="rgb(255,12,12)"  stroke="rgb(255,12,12)" stroke-width="1" font-size="16" >O</text>
<text x="272.054131" y="239.810371" fill="rgb(255,127,0)"  stroke="rgb(255,127,0)" stroke-width="1" font-size="16" >P</text>
<text x="521.437014" y="151.022201" fill="rgb(178,178,0)"  stroke="rgb(178,178,0)" stroke-width="1" font-size="16" >S</text>
<text x="488.196753" y="169.181821" fill="rgb(178,178,0)"  stroke="rgb(178,178,0)" stroke-width="1" font-size="16" >S</text>
<text x="500.011894" y="244.369788" fill="rgb(191,191,191)"  stroke="rgb(191,191,191)" stroke-width="1" font-size="16" >H</text>
<text x="276.613549" y="135.372608" fill="rgb(191,191,191)"  stroke="rgb(191,191,191)" stroke-width="1" font-size="16" >H</text>
<text x="283.615675" y="102.396275" fill="rgb(191,191,191)"  stroke="rgb(191,191,191)" stroke-width="1" font-size="16" >H</text>
<text x="222.364951" y="48.320000" fill="rgb(191,191,191)"  stroke="rgb(191,191,191)" stroke-width="1" font-size="16" >H</text>
<text x="151.060123" y="88.774673" fill="rgb(191,191,191)"  stroke="rgb(191,191,191)" stroke-width="1" font-size="16" >H</text>
<text font-size="18.000000" fill ="black" font-family="sans-serif"
x="140.000000" y="20.000000" ></text>
<title> - OBDepict</title>
</svg>
