<?xml version="1.0"?>
<svg xmlns="http://www.w3.org/2000/svg"
xmlns:xlink="http://www.w3.org/1999/xlink" xmlns:cml="http://www.xml-cml.org/schema" width="426.41" height="600" x="0" y="0" font-family="sans-serif" stroke="rgb(0,0,0)" stroke-width="1" >
<line x1="49.0" y1="94.8" x2="74.6" y2="80.0"/>
<line x1="74.6" y1="50.4" x2="74.6" y2="80.0"/>
<line x1="193.4" y1="165.6" x2="178.6" y2="140.0"/>
<line x1="193.4" y1="285.6" x2="178.6" y2="260.0"/>
<line x1="152.9" y1="394.8" x2="178.6" y2="380.0"/>
<line x1="222.2" y1="514.8" x2="247.8" y2="500.0"/>
<line x1="143.9" y1="80.0" x2="109.3" y2="100.0"/>
<line x1="143.9" y1="80.0" x2="178.6" y2="100.0"/>
<line x1="143.9" y1="200.0" x2="143.9" y2="160.0"/>
<line x1="143.9" y1="200.0" x2="178.6" y2="220.0"/>
<line x1="143.9" y1="320.0" x2="143.9" y2="280.0"/>
<line x1="143.9" y1="320.0" x2="178.6" y2="340.0"/>
<line x1="109.3" y1="100.0" x2="74.6" y2="80.0"/>
<line x1="178.6" y1="100.0" x2="178.6" y2="140.0"/>
<line x1="143.9" y1="160.0" x2="178.6" y2="140.0"/>
<line x1="178.6" y1="220.0" x2="178.6" y2="260.0"/>
<line x1="143.9" y1="280.0" x2="178.6" y2="260.0"/>
<line x1="178.6" y1="340.0" x2="178.6" y2="380.0"/>
<line x1="213.2" y1="400.0" x2="238.8" y2="385.2"/>
<line x1="213.2" y1="400.0" x2="213.2" y2="440.0"/>
<line x1="211.7" y1="402.6" x2="177.1" y2="382.6"/>
<line x1="214.7" y1="397.4" x2="180.1" y2="377.4"/>
<line x1="213.2" y1="440.0" x2="247.8" y2="460.0"/>
<line x1="204.2" y1="139.6" x2="204.2" y2="140.4"/>
<line x1="200.2" y1="139.2" x2="200.2" y2="140.8"/>
<line x1="196.2" y1="138.8" x2="196.2" y2="141.2"/>
<line x1="192.2" y1="138.4" x2="192.2" y2="141.6"/>
<line x1="188.2" y1="138.0" x2="188.2" y2="142.0"/>
<line x1="184.2" y1="137.6" x2="184.2" y2="142.4"/>
<line x1="180.2" y1="137.2" x2="180.2" y2="142.8"/>
<line x1="204.2" y1="259.6" x2="204.2" y2="260.4"/>
<line x1="200.2" y1="259.2" x2="200.2" y2="260.8"/>
<line x1="196.2" y1="258.8" x2="196.2" y2="261.2"/>
<line x1="192.2" y1="258.4" x2="192.2" y2="261.6"/>
<line x1="188.2" y1="258.0" x2="188.2" y2="262.0"/>
<line x1="184.2" y1="257.6" x2="184.2" y2="262.4"/>
<line x1="180.2" y1="257.2" x2="180.2" y2="262.8"/>
<line x1="282.5" y1="520.0" x2="282.5" y2="549.6"/>
<line x1="282.5" y1="440.0" x2="282.5" y2="410.4"/>
<line x1="351.8" y1="520.0" x2="386.4" y2="500.0"/>
<line x1="386.4" y1="500.0" x2="386.4" y2="460.0"/>
<line x1="379.2" y1="494.0" x2="379.2" y2="466.0"/>
<line x1="386.4" y1="460.0" x2="351.8" y2="440.0"/>
<line x1="351.8" y1="440.0" x2="317.1" y2="460.0"/>
<line x1="350.2" y1="449.2" x2="325.9" y2="463.2"/>
<line x1="317.1" y1="460.0" x2="317.1" y2="500.0"/>
<line x1="317.1" y1="500.0" x2="351.8" y2="520.0"/>
<line x1="325.9" y1="496.8" x2="350.2" y2="510.8"/>
<line x1="247.8" y1="500.0" x2="282.5" y2="520.0"/>
<line x1="256.6" y1="496.8" x2="280.9" y2="510.8"/>
<line x1="282.5" y1="520.0" x2="317.1" y2="500.0"/>
<line x1="317.1" y1="460.0" x2="282.5" y2="440.0"/>
<line x1="282.5" y1="440.0" x2="247.8" y2="460.0"/>
<line x1="280.9" y1="449.2" x2="256.6" y2="463.2"/>
<line x1="247.8" y1="460.0" x2="247.8" y2="500.0"/>
<text x="16.400000" y="104.800000" fill="rgb(102,102,102)"  stroke="rgb(102,102,102)" stroke-width="1" font-size="16" >H</text>
<text x="28.400000" y="109.600000" fill="rgb(102,102,102)"  stroke="rgb(102,102,102)" stroke-width="1" font-size="13" >3</text>
<text x="34.900000" y="104.800000" fill="rgb(102,102,102)"  stroke="rgb(102,102,102)" stroke-width="1" font-size="16" >C</text>
<text x="68.641016" y="48.320000" fill="rgb(102,102,102)"  stroke="rgb(102,102,102)" stroke-width="1" font-size="16" >CH</text>
<text x="92.641016" y="56.000000" fill="rgb(102,102,102)"  stroke="rgb(102,102,102)" stroke-width="1" font-size="13" >3</text>
<text x="192.564065" y="179.441016" fill="rgb(102,102,102)"  stroke="rgb(102,102,102)" stroke-width="1" font-size="16" >CH</text>
<text x="216.564065" y="184.241016" fill="rgb(102,102,102)"  stroke="rgb(102,102,102)" stroke-width="1" font-size="13" >3</text>
<text x="192.564065" y="299.441016" fill="rgb(102,102,102)"  stroke="rgb(102,102,102)" stroke-width="1" font-size="16" >CH</text>
<text x="216.564065" y="304.241016" fill="rgb(102,102,102)"  stroke="rgb(102,102,102)" stroke-width="1" font-size="13" >3</text>
<text x="120.323048" y="404.800000" fill="rgb(102,102,102)"  stroke="rgb(102,102,102)" stroke-width="1" font-size="16" >H</text>
<text x="132.323048" y="409.600000" fill="rgb(102,102,102)"  stroke="rgb(102,102,102)" stroke-width="1" font-size="13" >3</text>
<text x="138.823048" y="404.800000" fill="rgb(102,102,102)"  stroke="rgb(102,102,102)" stroke-width="1" font-size="16" >C</text>
<text x="189.605081" y="524.800000" fill="rgb(102,102,102)"  stroke="rgb(102,102,102)" stroke-width="1" font-size="16" >H</text>
<text x="201.605081" y="529.600000" fill="rgb(102,102,102)"  stroke="rgb(102,102,102)" stroke-width="1" font-size="13" >3</text>
<text x="208.105081" y="524.800000" fill="rgb(102,102,102)"  stroke="rgb(102,102,102)" stroke-width="1" font-size="16" >C</text>
<text x="276.487113" y="564.800000" fill="rgb(255,12,12)"  stroke="rgb(255,12,12)" stroke-width="1" font-size="16" >OH</text>
<text x="276.487113" y="408.320000" fill="rgb(255,12,12)"  stroke="rgb(255,12,12)" stroke-width="1" font-size="16" >OH</text>
<text x="241.846097" y="388.320000" fill="rgb(191,191,191)"  stroke="rgb(191,191,191)" stroke-width="1" font-size="16" >H</text>
<text x="212.564065" y="144.800000" fill="rgb(191,191,191)"  stroke="rgb(191,191,191)" stroke-width="1" font-size="16" >H</text>
<text x="212.564065" y="264.800000" fill="rgb(191,191,191)"  stroke="rgb(191,191,191)" stroke-width="1" font-size="16" >H</text>
<text font-size="18.000000" fill ="black" font-family="sans-serif"
x="140.000000" y="20.000000" ></text>
<title> - OBDepict</title>
</svg>
