<?xml version="1.0"?>
<svg xmlns="http://www.w3.org/2000/svg"
xmlns:xlink="http://www.w3.org/1999/xlink" xmlns:cml="http://www.xml-cml.org/schema" width="339.778" height="244.317" x="0" y="0" font-family="sans-serif" stroke="rgb(0,0,0)" stroke-width="1" >
<polygon points="240.423 155.714 226.258 177.696 233.566 180.95 " />
<polygon points="151.235 130.064 175.615 120.607 171.615 113.679 " />
<line x1="249.6" y1="72.8" x2="250.0" y2="73.5"/>
<line x1="242.7" y1="76.3" x2="243.5" y2="77.7"/>
<line x1="235.8" y1="79.8" x2="237.0" y2="81.9"/>
<line x1="228.9" y1="83.4" x2="230.5" y2="86.1"/>
<line x1="222.1" y1="86.9" x2="224.1" y2="90.3"/>
<line x1="215.2" y1="90.4" x2="217.6" y2="94.5"/>
<line x1="208.3" y1="93.9" x2="211.1" y2="98.7"/>
<polygon points="229.911785 93.534232 236.768840 118.769804 244.077204 115.515911 " />
<line x1="71.9" y1="61.9" x2="47.2" y2="47.6"/>
<line x1="74.9" y1="56.7" x2="50.2" y2="42.4"/>
<line x1="74.9" y1="100.5" x2="50.2" y2="114.7"/>
<line x1="71.9" y1="95.3" x2="47.2" y2="109.5"/>
<line x1="280.0" y1="166.7" x2="288.8" y2="193.9"/>
<line x1="274.3" y1="168.6" x2="283.1" y2="195.7"/>
<line x1="240.4" y1="117.1" x2="277.1" y2="105.2"/>
<line x1="277.1" y1="105.2" x2="299.8" y2="136.4"/>
<line x1="299.8" y1="136.4" x2="277.1" y2="167.6"/>
<line x1="277.1" y1="167.6" x2="240.4" y2="155.7"/>
<line x1="240.4" y1="155.7" x2="240.4" y2="117.1"/>
<line x1="207.0" y1="59.3" x2="173.6" y2="40.0"/>
<line x1="173.6" y1="40.0" x2="140.2" y2="59.3"/>
<line x1="140.2" y1="59.3" x2="140.2" y2="97.9"/>
<line x1="140.2" y1="97.9" x2="173.6" y2="117.1"/>
<line x1="173.6" y1="117.1" x2="207.0" y2="97.9"/>
<line x1="207.0" y1="97.9" x2="207.0" y2="59.3"/>
<line x1="106.8" y1="40.0" x2="73.4" y2="59.3"/>
<line x1="73.4" y1="59.3" x2="73.4" y2="97.9"/>
<line x1="73.4" y1="97.9" x2="106.8" y2="117.1"/>
<line x1="106.8" y1="117.1" x2="140.2" y2="97.9"/>
<line x1="108.4" y1="107.9" x2="131.4" y2="94.6"/>
<line x1="140.2" y1="59.3" x2="106.8" y2="40.0"/>
<line x1="131.4" y1="62.5" x2="108.4" y2="49.2"/>
<line x1="240.4" y1="117.1" x2="207.0" y2="97.9"/>
<line x1="173.6" y1="117.1" x2="173.6" y2="155.7"/>
<line x1="173.6" y1="155.7" x2="207.0" y2="175.0"/>
<line x1="207.0" y1="175.0" x2="240.4" y2="155.7"/>
<text x="201.134609" y="195.751039" fill="rgb(102,102,102)"  stroke="rgb(102,102,102)" stroke-width="1" font-size="16" >H</text>
<text x="213.134609" y="200.551039" fill="rgb(102,102,102)"  stroke="rgb(102,102,102)" stroke-width="1" font-size="13" >3</text>
<text x="219.634609" y="195.751039" fill="rgb(102,102,102)"  stroke="rgb(102,102,102)" stroke-width="1" font-size="16" >C</text>
<text x="36.400000" y="48.320000" fill="rgb(255,12,12)"  stroke="rgb(255,12,12)" stroke-width="1" font-size="16" >O</text>
<text x="36.400000" y="121.942857" fill="rgb(255,12,12)"  stroke="rgb(255,12,12)" stroke-width="1" font-size="16" >O</text>
<text x="283.025857" y="209.117121" fill="rgb(255,12,12)"  stroke="rgb(255,12,12)" stroke-width="1" font-size="16" >O</text>
<text x="136.611511" y="141.228571" fill="rgb(191,191,191)"  stroke="rgb(191,191,191)" stroke-width="1" font-size="16" >H</text>
<text x="267.826859" y="67.605714" fill="rgb(191,191,191)"  stroke="rgb(191,191,191)" stroke-width="1" font-size="16" >H</text>
<text x="221.134609" y="90.226104" fill="rgb(191,191,191)"  stroke="rgb(191,191,191)" stroke-width="1" font-size="16" >H</text>
<text font-size="18.000000" fill ="black" font-family="sans-serif"
x="140.000000" y="20.000000" ></text>
<title> - OBDepict</title>
</svg>
