<?xml version="1.0"?>
<svg xmlns="http://www.w3.org/2000/svg"
xmlns:xlink="http://www.w3.org/1999/xlink" xmlns:cml="http://www.xml-cml.org/schema" width="703.538" height="600" x="0" y="0" font-family="sans-serif" stroke="rgb(0,0,0)" stroke-width="1" >
<line x1="568.6" y1="265.2" x2="594.3" y2="280.0"/>
<line x1="213.2" y1="350.4" x2="213.2" y2="380.0"/>
<line x1="594.3" y1="280.0" x2="628.9" y2="260.0"/>
<line x1="213.2" y1="380.0" x2="247.8" y2="400.0"/>
<line x1="628.9" y1="260.0" x2="654.5" y2="274.8"/>
<line x1="625.9" y1="260.0" x2="625.9" y2="220.0"/>
<line x1="631.9" y1="260.0" x2="631.9" y2="220.0"/>
<line x1="247.8" y1="400.0" x2="247.8" y2="440.0"/>
<line x1="628.9" y1="220.0" x2="654.5" y2="205.2"/>
<line x1="628.9" y1="220.0" x2="594.3" y2="200.0"/>
<line x1="247.8" y1="440.0" x2="213.2" y2="460.0"/>
<line x1="594.3" y1="200.0" x2="594.3" y2="160.0"/>
<line x1="213.2" y1="460.0" x2="213.2" y2="500.0"/>
<line x1="594.3" y1="160.0" x2="619.9" y2="145.2"/>
<line x1="592.8" y1="162.6" x2="558.1" y2="142.6"/>
<line x1="595.8" y1="157.4" x2="561.1" y2="137.4"/>
<line x1="213.2" y1="500.0" x2="238.8" y2="514.8"/>
<line x1="214.7" y1="502.6" x2="180.1" y2="522.6"/>
<line x1="211.7" y1="497.4" x2="177.1" y2="517.4"/>
<line x1="559.6" y1="140.0" x2="559.6" y2="110.4"/>
<line x1="559.6" y1="140.0" x2="525.0" y2="160.0"/>
<line x1="178.6" y1="520.0" x2="178.6" y2="549.6"/>
<line x1="178.6" y1="520.0" x2="143.9" y2="500.0"/>
<line x1="525.0" y1="160.0" x2="525.0" y2="200.0"/>
<line x1="143.9" y1="500.0" x2="109.3" y2="520.0"/>
<line x1="525.0" y1="200.0" x2="550.6" y2="214.8"/>
<line x1="526.5" y1="202.6" x2="491.8" y2="222.6"/>
<line x1="523.5" y1="197.4" x2="488.8" y2="217.4"/>
<line x1="490.3" y1="220.0" x2="490.3" y2="249.6"/>
<line x1="490.3" y1="220.0" x2="455.7" y2="200.0"/>
<line x1="109.3" y1="520.0" x2="109.3" y2="549.6"/>
<line x1="107.8" y1="522.6" x2="73.1" y2="502.6"/>
<line x1="110.8" y1="517.4" x2="76.1" y2="497.4"/>
<line x1="455.7" y1="200.0" x2="421.1" y2="220.0"/>
<line x1="421.1" y1="220.0" x2="386.4" y2="200.0"/>
<line x1="74.6" y1="500.0" x2="49.0" y2="514.8"/>
<line x1="74.6" y1="500.0" x2="74.6" y2="460.0"/>
<line x1="386.4" y1="200.0" x2="351.8" y2="220.0"/>
<line x1="74.6" y1="460.0" x2="109.3" y2="440.0"/>
<line x1="351.8" y1="220.0" x2="317.1" y2="200.0"/>
<line x1="109.3" y1="440.0" x2="109.3" y2="400.0"/>
<line x1="317.1" y1="200.0" x2="282.5" y2="220.0"/>
<line x1="109.3" y1="400.0" x2="143.9" y2="380.0"/>
<line x1="282.5" y1="220.0" x2="247.8" y2="200.0"/>
<line x1="143.9" y1="380.0" x2="143.9" y2="340.0"/>
<line x1="247.8" y1="200.0" x2="213.2" y2="220.0"/>
<line x1="143.9" y1="340.0" x2="109.3" y2="320.0"/>
<line x1="178.6" y1="80.0" x2="143.9" y2="100.0"/>
<line x1="178.6" y1="80.0" x2="178.6" y2="50.4"/>
<line x1="178.6" y1="280.0" x2="143.9" y2="260.0"/>
<line x1="178.6" y1="280.0" x2="204.2" y2="265.2"/>
<line x1="143.9" y1="220.0" x2="143.9" y2="260.0"/>
<line x1="143.9" y1="220.0" x2="118.3" y2="205.2"/>
<line x1="143.9" y1="260.0" x2="118.3" y2="274.8"/>
<line x1="211.7" y1="222.6" x2="186.1" y2="207.8"/>
<line x1="214.7" y1="217.4" x2="189.1" y2="202.6"/>
<line x1="213.2" y1="220.0" x2="213.2" y2="249.6"/>
<line x1="110.8" y1="322.6" x2="85.1" y2="337.4"/>
<line x1="107.8" y1="317.4" x2="82.1" y2="332.2"/>
<line x1="109.3" y1="320.0" x2="109.3" y2="290.4"/>
<line x1="109.3" y1="80.0" x2="109.3" y2="50.4"/>
<line x1="74.6" y1="100.0" x2="49.0" y2="85.2"/>
<line x1="74.6" y1="140.0" x2="49.0" y2="154.8"/>
<line x1="109.3" y1="160.0" x2="109.3" y2="189.6"/>
<line x1="74.6" y1="100.0" x2="74.6" y2="140.0"/>
<line x1="74.6" y1="140.0" x2="109.3" y2="160.0"/>
<line x1="109.3" y1="160.0" x2="134.9" y2="145.2"/>
<line x1="143.9" y1="129.6" x2="143.9" y2="100.0"/>
<line x1="143.9" y1="100.0" x2="109.3" y2="80.0"/>
<line x1="109.3" y1="80.0" x2="74.6" y2="100.0"/>
<text x="536.015242" y="268.320000" fill="rgb(102,102,102)"  stroke="rgb(102,102,102)" stroke-width="1" font-size="16" >H</text>
<text x="548.015242" y="276.000000" fill="rgb(102,102,102)"  stroke="rgb(102,102,102)" stroke-width="1" font-size="13" >3</text>
<text x="554.515242" y="268.320000" fill="rgb(102,102,102)"  stroke="rgb(102,102,102)" stroke-width="1" font-size="16" >C</text>
<text x="207.205081" y="348.320000" fill="rgb(102,102,102)"  stroke="rgb(102,102,102)" stroke-width="1" font-size="16" >CH</text>
<text x="231.205081" y="356.000000" fill="rgb(102,102,102)"  stroke="rgb(102,102,102)" stroke-width="1" font-size="13" >3</text>
<text x="172.564065" y="48.320000" fill="rgb(255,12,12)"  stroke="rgb(255,12,12)" stroke-width="1" font-size="16" >OH</text>
<text x="174.964065" y="208.320000" fill="rgb(255,12,12)"  stroke="rgb(255,12,12)" stroke-width="1" font-size="16" >O</text>
<text x="71.041016" y="344.800000" fill="rgb(255,12,12)"  stroke="rgb(255,12,12)" stroke-width="1" font-size="16" >O</text>
<text x="103.282032" y="48.320000" fill="rgb(255,12,12)"  stroke="rgb(255,12,12)" stroke-width="1" font-size="16" >OH</text>
<text x="24.400000" y="88.320000" fill="rgb(255,12,12)"  stroke="rgb(255,12,12)" stroke-width="1" font-size="16" >HO</text>
<text x="24.400000" y="164.800000" fill="rgb(255,12,12)"  stroke="rgb(255,12,12)" stroke-width="1" font-size="16" >HO</text>
<text x="207.205081" y="264.800000" fill="rgb(255,12,12)"  stroke="rgb(255,12,12)" stroke-width="1" font-size="16" >O</text>
<text x="105.682032" y="204.800000" fill="rgb(255,12,12)"  stroke="rgb(255,12,12)" stroke-width="1" font-size="16" >O</text>
<text x="105.682032" y="288.320000" fill="rgb(255,12,12)"  stroke="rgb(255,12,12)" stroke-width="1" font-size="16" >O</text>
<text x="137.923048" y="144.800000" fill="rgb(255,12,12)"  stroke="rgb(255,12,12)" stroke-width="1" font-size="16" >O</text>
<text x="657.538291" y="284.800000" fill="rgb(191,191,191)"  stroke="rgb(191,191,191)" stroke-width="1" font-size="16" >H</text>
<text x="657.538291" y="208.320000" fill="rgb(191,191,191)"  stroke="rgb(191,191,191)" stroke-width="1" font-size="16" >H</text>
<text x="622.897275" y="148.320000" fill="rgb(191,191,191)"  stroke="rgb(191,191,191)" stroke-width="1" font-size="16" >H</text>
<text x="241.846097" y="524.800000" fill="rgb(191,191,191)"  stroke="rgb(191,191,191)" stroke-width="1" font-size="16" >H</text>
<text x="553.615242" y="108.320000" fill="rgb(191,191,191)"  stroke="rgb(191,191,191)" stroke-width="1" font-size="16" >H</text>
<text x="172.564065" y="564.800000" fill="rgb(191,191,191)"  stroke="rgb(191,191,191)" stroke-width="1" font-size="16" >H</text>
<text x="553.615242" y="224.800000" fill="rgb(191,191,191)"  stroke="rgb(191,191,191)" stroke-width="1" font-size="16" >H</text>
<text x="484.333210" y="264.800000" fill="rgb(191,191,191)"  stroke="rgb(191,191,191)" stroke-width="1" font-size="16" >H</text>
<text x="103.282032" y="564.800000" fill="rgb(191,191,191)"  stroke="rgb(191,191,191)" stroke-width="1" font-size="16" >H</text>
<text x="36.400000" y="524.800000" fill="rgb(191,191,191)"  stroke="rgb(191,191,191)" stroke-width="1" font-size="16" >H</text>
<text font-size="18.000000" fill ="black" font-family="sans-serif"
x="140.000000" y="20.000000" ></text>
<title> - OBDepict</title>
</svg>
