<?xml version="1.0"?>
<svg xmlns="http://www.w3.org/2000/svg"
xmlns:xlink="http://www.w3.org/1999/xlink" xmlns:cml="http://www.xml-cml.org/schema" width="397.128" height="274.641" x="0" y="0" font-family="sans-serif" stroke="rgb(0,0,0)" stroke-width="1" >
<line x1="40.0" y1="104.2" x2="40.0" y2="74.6"/>
<line x1="317.1" y1="224.2" x2="317.1" y2="194.6"/>
<line x1="346.7" y1="74.6" x2="317.1" y2="74.6"/>
<line x1="331.9" y1="49.0" x2="317.1" y2="74.6"/>
<line x1="40.0" y1="74.6" x2="74.6" y2="54.6"/>
<line x1="74.6" y1="54.6" x2="109.3" y2="74.6"/>
<line x1="109.3" y1="74.6" x2="143.9" y2="54.6"/>
<line x1="143.9" y1="54.6" x2="178.6" y2="74.6"/>
<line x1="260.5" y1="147.8" x2="260.1" y2="147.1"/>
<line x1="264.2" y1="146.1" x2="263.4" y2="144.7"/>
<line x1="267.8" y1="144.5" x2="266.6" y2="142.4"/>
<line x1="271.5" y1="142.8" x2="269.9" y2="140.1"/>
<line x1="275.2" y1="141.2" x2="273.2" y2="137.7"/>
<line x1="278.8" y1="139.5" x2="276.4" y2="135.4"/>
<line x1="282.5" y1="137.9" x2="279.7" y2="133.0"/>
<polygon points="340.337610 101.241016 315.128129 111.176915 319.128129 118.105118 " />
<line x1="213.2" y1="134.6" x2="213.2" y2="164.2"/>
<line x1="282.5" y1="174.6" x2="317.1" y2="194.6"/>
<line x1="291.3" y1="171.4" x2="315.5" y2="185.4"/>
<line x1="317.1" y1="194.6" x2="351.8" y2="174.6"/>
<line x1="351.8" y1="174.6" x2="351.8" y2="134.6"/>
<line x1="351.8" y1="134.6" x2="317.1" y2="114.6"/>
<line x1="317.1" y1="114.6" x2="282.5" y2="134.6"/>
<line x1="282.5" y1="134.6" x2="282.5" y2="174.6"/>
<line x1="273.5" y1="59.8" x2="247.8" y2="74.6"/>
<line x1="247.8" y1="74.6" x2="247.8" y2="114.6"/>
<line x1="247.8" y1="114.6" x2="282.5" y2="134.6"/>
<line x1="317.1" y1="114.6" x2="317.1" y2="74.6"/>
<line x1="317.1" y1="74.6" x2="291.5" y2="59.8"/>
<line x1="178.6" y1="114.6" x2="213.2" y2="134.6"/>
<line x1="213.2" y1="134.6" x2="247.8" y2="114.6"/>
<line x1="214.8" y1="125.4" x2="239.0" y2="111.4"/>
<line x1="247.8" y1="74.6" x2="213.2" y2="54.6"/>
<line x1="239.0" y1="77.9" x2="214.8" y2="63.9"/>
<line x1="213.2" y1="54.6" x2="178.6" y2="74.6"/>
<line x1="178.6" y1="74.6" x2="178.6" y2="114.6"/>
<line x1="185.8" y1="80.6" x2="185.8" y2="108.6"/>
<text x="34.000000" y="119.441016" fill="rgb(102,102,102)"  stroke="rgb(102,102,102)" stroke-width="1" font-size="16" >CH</text>
<text x="58.000000" y="124.241016" fill="rgb(102,102,102)"  stroke="rgb(102,102,102)" stroke-width="1" font-size="13" >3</text>
<text x="311.128129" y="239.441016" fill="rgb(102,102,102)"  stroke="rgb(102,102,102)" stroke-width="1" font-size="16" >CH</text>
<text x="335.128129" y="244.241016" fill="rgb(102,102,102)"  stroke="rgb(102,102,102)" stroke-width="1" font-size="13" >3</text>
<text x="351.128129" y="82.961016" fill="rgb(102,102,102)"  stroke="rgb(102,102,102)" stroke-width="1" font-size="16" >CH</text>
<text x="375.128129" y="90.641016" fill="rgb(102,102,102)"  stroke="rgb(102,102,102)" stroke-width="1" font-size="13" >3</text>
<text x="331.128129" y="48.320000" fill="rgb(102,102,102)"  stroke="rgb(102,102,102)" stroke-width="1" font-size="16" >CH</text>
<text x="355.128129" y="56.000000" fill="rgb(102,102,102)"  stroke="rgb(102,102,102)" stroke-width="1" font-size="13" >3</text>
<text x="207.205081" y="179.441016" fill="rgb(255,12,12)"  stroke="rgb(255,12,12)" stroke-width="1" font-size="16" >OH</text>
<text x="276.487113" y="62.961016" fill="rgb(255,12,12)"  stroke="rgb(255,12,12)" stroke-width="1" font-size="16" >O</text>
<text x="244.246097" y="159.441016" fill="rgb(191,191,191)"  stroke="rgb(191,191,191)" stroke-width="1" font-size="16" >H</text>
<text x="345.769145" y="102.961016" fill="rgb(191,191,191)"  stroke="rgb(191,191,191)" stroke-width="1" font-size="16" >H</text>
<text font-size="18.000000" fill ="black" font-family="sans-serif"
x="140.000000" y="20.000000" ></text>
<title> - OBDepict</title>
</svg>
