<?xml version="1.0"?>
<svg xmlns="http://www.w3.org/2000/svg"
xmlns:xlink="http://www.w3.org/1999/xlink" xmlns:cml="http://www.xml-cml.org/schema" width="801.221" height="385.014" x="0" y="0" font-family="sans-serif" stroke="rgb(0,0,0)" stroke-width="1" >
<line x1="50.0" y1="47.7" x2="78.6" y2="40.0"/>
<line x1="78.6" y1="40.0" x2="106.9" y2="68.3"/>
<line x1="106.9" y1="68.3" x2="145.6" y2="57.9"/>
<line x1="145.6" y1="57.9" x2="173.8" y2="86.2"/>
<line x1="173.8" y1="86.2" x2="212.5" y2="75.9"/>
<line x1="212.5" y1="75.9" x2="240.8" y2="104.1"/>
<line x1="240.8" y1="104.1" x2="279.4" y2="93.8"/>
<line x1="279.4" y1="93.8" x2="307.7" y2="122.1"/>
<line x1="307.7" y1="122.1" x2="346.3" y2="111.7"/>
<line x1="346.3" y1="111.7" x2="374.6" y2="140.0"/>
<line x1="374.6" y1="140.0" x2="413.2" y2="129.7"/>
<line x1="413.2" y1="129.7" x2="441.5" y2="157.9"/>
<line x1="441.5" y1="157.9" x2="480.2" y2="147.6"/>
<line x1="480.2" y1="147.6" x2="487.8" y2="119.0"/>
<line x1="482.3" y1="145.5" x2="510.6" y2="173.8"/>
<line x1="478.0" y1="149.7" x2="506.3" y2="178.0"/>
<line x1="508.4" y1="175.9" x2="537.0" y2="168.2"/>
<line x1="508.4" y1="175.9" x2="498.1" y2="214.5"/>
<line x1="741.2" y1="250.4" x2="701.2" y2="250.4"/>
<line x1="741.2" y1="250.4" x2="756.0" y2="224.7"/>
<line x1="565.0" y1="232.4" x2="526.4" y2="242.8"/>
<line x1="565.0" y1="232.4" x2="585.9" y2="253.4"/>
<polygon points="533.316990 268.681444 530.244343 241.759356 522.516936 243.829908 " />
<line x1="526.4" y1="242.8" x2="498.1" y2="214.5"/>
<line x1="526.4" y1="242.8" x2="505.5" y2="263.7"/>
<polygon points="479.145907 233.460823 500.924795 217.338788 495.267941 211.681934 " />
<line x1="498.1" y1="214.5" x2="469.5" y2="206.8"/>
<polygon points="714.621009 227.163899 697.756908 248.373380 704.685111 252.373380 " />
<polygon points="728.021009 290.373380 701.221009 286.373380 701.221009 294.373380 " />
<line x1="701.2" y1="290.4" x2="716.0" y2="316.0"/>
<polygon points="679.979993 333.582861 670.044095 308.373380 663.115891 312.373380 " />
<line x1="666.6" y1="310.4" x2="651.8" y2="336.0"/>
<line x1="619.5" y1="312.7" x2="618.8" y2="312.3"/>
<line x1="621.8" y1="309.5" x2="620.4" y2="308.7"/>
<line x1="624.2" y1="306.2" x2="622.1" y2="305.0"/>
<line x1="626.5" y1="303.0" x2="623.8" y2="301.4"/>
<line x1="628.9" y1="299.7" x2="625.4" y2="297.7"/>
<line x1="631.2" y1="296.4" x2="627.1" y2="294.0"/>
<line x1="633.6" y1="293.2" x2="628.7" y2="290.4"/>
<line x1="631.9" y1="290.4" x2="602.3" y2="290.4"/>
<polygon points="635.437079 223.802658 627.973197 249.851275 635.904756 250.895485 " />
<line x1="631.9" y1="250.4" x2="603.3" y2="258.0"/>
<line x1="666.6" y1="310.4" x2="631.9" y2="290.4"/>
<line x1="631.9" y1="290.4" x2="631.9" y2="250.4"/>
<line x1="631.9" y1="250.4" x2="657.6" y2="235.6"/>
<line x1="675.6" y1="235.6" x2="701.2" y2="250.4"/>
<line x1="701.2" y1="250.4" x2="701.2" y2="290.4"/>
<line x1="701.2" y1="290.4" x2="666.6" y2="310.4"/>
<text x="16.400000" y="55.152762" fill="rgb(102,102,102)"  stroke="rgb(102,102,102)" stroke-width="1" font-size="16" >H</text>
<text x="28.400000" y="59.952762" fill="rgb(102,102,102)"  stroke="rgb(102,102,102)" stroke-width="1" font-size="13" >3</text>
<text x="34.900000" y="55.152762" fill="rgb(102,102,102)"  stroke="rgb(102,102,102)" stroke-width="1" font-size="16" >C</text>
<text x="493.296368" y="290.278903" fill="rgb(12,12,255)"  stroke="rgb(12,12,255)" stroke-width="1" font-size="16" >+</text>
<text x="474.496368" y="275.878903" fill="rgb(12,12,255)"  stroke="rgb(12,12,255)" stroke-width="1" font-size="16" >H</text>
<text x="486.496368" y="280.678903" fill="rgb(12,12,255)"  stroke="rgb(12,12,255)" stroke-width="1" font-size="13" >3</text>
<text x="492.996368" y="275.878903" fill="rgb(12,12,255)"  stroke="rgb(12,12,255)" stroke-width="1" font-size="16" >N</text>
<text x="755.221009" y="224.052364" fill="rgb(255,12,12)"  stroke="rgb(255,12,12)" stroke-width="1" font-size="16" >OH</text>
<text x="443.859335" y="212.477599" fill="rgb(255,12,12)"  stroke="rgb(255,12,12)" stroke-width="1" font-size="16" >HO</text>
<text x="715.221009" y="329.814396" fill="rgb(255,12,12)"  stroke="rgb(255,12,12)" stroke-width="1" font-size="16" >OH</text>
<text x="630.979993" y="349.814396" fill="rgb(255,12,12)"  stroke="rgb(255,12,12)" stroke-width="1" font-size="16" >HO</text>
<text x="576.338977" y="295.173380" fill="rgb(255,12,12)"  stroke="rgb(255,12,12)" stroke-width="1" font-size="16" >HO</text>
<text x="589.701944" y="265.526142" fill="rgb(255,12,12)"  stroke="rgb(255,12,12)" stroke-width="1" font-size="16" >O</text>
<text x="660.579993" y="238.693380" fill="rgb(255,12,12)"  stroke="rgb(255,12,12)" stroke-width="1" font-size="16" >O</text>
<text x="484.517621" y="117.272024" fill="rgb(191,191,191)"  stroke="rgb(191,191,191)" stroke-width="1" font-size="16" >H</text>
<text x="541.086163" y="173.840566" fill="rgb(191,191,191)"  stroke="rgb(191,191,191)" stroke-width="1" font-size="16" >H</text>
<text x="530.733401" y="286.231665" fill="rgb(191,191,191)"  stroke="rgb(191,191,191)" stroke-width="1" font-size="16" >H</text>
<text x="466.212097" y="247.594632" fill="rgb(191,191,191)"  stroke="rgb(191,191,191)" stroke-width="1" font-size="16" >H</text>
<text x="715.221009" y="224.052364" fill="rgb(191,191,191)"  stroke="rgb(191,191,191)" stroke-width="1" font-size="16" >H</text>
<text x="735.221009" y="295.173380" fill="rgb(191,191,191)"  stroke="rgb(191,191,191)" stroke-width="1" font-size="16" >H</text>
<text x="680.579993" y="349.814396" fill="rgb(191,191,191)"  stroke="rgb(191,191,191)" stroke-width="1" font-size="16" >H</text>
<text x="608.338977" y="329.814396" fill="rgb(191,191,191)"  stroke="rgb(191,191,191)" stroke-width="1" font-size="16" >H</text>
<text x="631.160025" y="219.035585" fill="rgb(191,191,191)"  stroke="rgb(191,191,191)" stroke-width="1" font-size="16" >H</text>
<text font-size="18.000000" fill ="black" font-family="sans-serif"
x="140.000000" y="20.000000" ></text>
<title> - OBDepict</title>
</svg>
