<?xml version="1.0"?>
<svg xmlns="http://www.w3.org/2000/svg"
xmlns:xlink="http://www.w3.org/1999/xlink" xmlns:cml="http://www.xml-cml.org/schema" width="501.051" height="360" x="0" y="0" font-family="sans-serif" stroke="rgb(0,0,0)" stroke-width="1" >
<line x1="357.1" y1="260.0" x2="322.5" y2="280.0"/>
<line x1="357.1" y1="260.0" x2="357.1" y2="220.0"/>
<line x1="322.5" y1="280.0" x2="322.5" y2="309.6"/>
<line x1="321.0" y1="282.6" x2="286.3" y2="262.6"/>
<line x1="324.0" y1="277.4" x2="289.3" y2="257.4"/>
<line x1="357.1" y1="220.0" x2="391.8" y2="200.0"/>
<line x1="218.6" y1="100.0" x2="244.2" y2="85.2"/>
<line x1="217.1" y1="102.6" x2="182.4" y2="82.6"/>
<line x1="220.1" y1="97.4" x2="185.4" y2="77.4"/>
<line x1="218.6" y1="100.0" x2="218.6" y2="140.0"/>
<line x1="183.9" y1="80.0" x2="183.9" y2="50.4"/>
<line x1="183.9" y1="80.0" x2="149.3" y2="100.0"/>
<line x1="287.8" y1="260.0" x2="262.2" y2="274.8"/>
<line x1="287.8" y1="260.0" x2="287.8" y2="220.0"/>
<line x1="218.6" y1="140.0" x2="253.2" y2="160.0"/>
<line x1="149.3" y1="100.0" x2="149.3" y2="129.6"/>
<line x1="147.8" y1="102.6" x2="113.1" y2="82.6"/>
<line x1="150.8" y1="97.4" x2="116.1" y2="77.4"/>
<line x1="391.8" y1="200.0" x2="391.8" y2="160.0"/>
<line x1="114.6" y1="160.0" x2="80.0" y2="140.0"/>
<line x1="114.6" y1="160.0" x2="114.6" y2="200.0"/>
<line x1="287.8" y1="220.0" x2="253.2" y2="200.0"/>
<line x1="253.2" y1="160.0" x2="253.2" y2="200.0"/>
<line x1="114.6" y1="80.0" x2="114.6" y2="50.4"/>
<line x1="114.6" y1="80.0" x2="80.0" y2="100.0"/>
<line x1="80.0" y1="140.0" x2="80.0" y2="100.0"/>
<line x1="391.8" y1="160.0" x2="426.4" y2="140.0"/>
<line x1="114.6" y1="200.0" x2="149.3" y2="220.0"/>
<polygon points="226.405081 200.000000 253.205081 204.000000 253.205081 196.000000 " />
<line x1="253.2" y1="200.0" x2="238.4" y2="225.6"/>
<line x1="54.4" y1="100.4" x2="54.4" y2="99.6"/>
<line x1="58.4" y1="100.8" x2="58.4" y2="99.2"/>
<line x1="62.4" y1="101.2" x2="62.4" y2="98.8"/>
<line x1="66.4" y1="101.6" x2="66.4" y2="98.4"/>
<line x1="70.4" y1="102.0" x2="70.4" y2="98.0"/>
<line x1="74.4" y1="102.4" x2="74.4" y2="97.6"/>
<line x1="78.4" y1="102.8" x2="78.4" y2="97.2"/>
<line x1="80.0" y1="100.0" x2="65.2" y2="74.4"/>
<line x1="426.4" y1="140.0" x2="426.4" y2="110.4"/>
<line x1="426.4" y1="140.0" x2="452.0" y2="154.8"/>
<line x1="147.8" y1="217.4" x2="173.4" y2="202.6"/>
<line x1="150.8" y1="222.6" x2="176.4" y2="207.8"/>
<line x1="149.3" y1="220.0" x2="149.3" y2="249.6"/>
<text x="217.605081" y="239.441016" fill="rgb(255,12,12)"  stroke="rgb(255,12,12)" stroke-width="1" font-size="16" >HO</text>
<text x="44.400000" y="73.678984" fill="rgb(255,12,12)"  stroke="rgb(255,12,12)" stroke-width="1" font-size="16" >HO</text>
<text x="420.410162" y="108.320000" fill="rgb(255,12,12)"  stroke="rgb(255,12,12)" stroke-width="1" font-size="16" >OH</text>
<text x="455.051178" y="164.800000" fill="rgb(255,12,12)"  stroke="rgb(255,12,12)" stroke-width="1" font-size="16" >OH</text>
<text x="177.923048" y="208.320000" fill="rgb(255,12,12)"  stroke="rgb(255,12,12)" stroke-width="1" font-size="16" >O</text>
<text x="143.282032" y="264.800000" fill="rgb(255,12,12)"  stroke="rgb(255,12,12)" stroke-width="1" font-size="16" >OH</text>
<text x="316.487113" y="324.800000" fill="rgb(191,191,191)"  stroke="rgb(191,191,191)" stroke-width="1" font-size="16" >H</text>
<text x="247.205081" y="88.320000" fill="rgb(191,191,191)"  stroke="rgb(191,191,191)" stroke-width="1" font-size="16" >H</text>
<text x="177.923048" y="48.320000" fill="rgb(191,191,191)"  stroke="rgb(191,191,191)" stroke-width="1" font-size="16" >H</text>
<text x="249.605081" y="284.800000" fill="rgb(191,191,191)"  stroke="rgb(191,191,191)" stroke-width="1" font-size="16" >H</text>
<text x="143.282032" y="144.800000" fill="rgb(191,191,191)"  stroke="rgb(191,191,191)" stroke-width="1" font-size="16" >H</text>
<text x="108.641016" y="48.320000" fill="rgb(191,191,191)"  stroke="rgb(191,191,191)" stroke-width="1" font-size="16" >H</text>
<text x="209.605081" y="204.800000" fill="rgb(191,191,191)"  stroke="rgb(191,191,191)" stroke-width="1" font-size="16" >H</text>
<text x="36.400000" y="104.800000" fill="rgb(191,191,191)"  stroke="rgb(191,191,191)" stroke-width="1" font-size="16" >H</text>
<text font-size="18.000000" fill ="black" font-family="sans-serif"
x="140.000000" y="20.000000" ></text>
<title> - OBDepict</title>
</svg>
