<?xml version="1.0"?>
<svg xmlns="http://www.w3.org/2000/svg"
xmlns:xlink="http://www.w3.org/1999/xlink" xmlns:cml="http://www.xml-cml.org/schema" width="466.41" height="320" x="0" y="0" font-family="sans-serif" stroke="rgb(0,0,0)" stroke-width="1" >
<line x1="417.4" y1="274.8" x2="391.8" y2="260.0"/>
<line x1="391.8" y1="260.0" x2="391.8" y2="220.0"/>
<line x1="391.8" y1="220.0" x2="357.1" y2="200.0"/>
<line x1="357.1" y1="200.0" x2="322.5" y2="220.0"/>
<line x1="322.5" y1="220.0" x2="287.8" y2="200.0"/>
<line x1="287.8" y1="200.0" x2="262.2" y2="214.8"/>
<line x1="284.8" y1="200.0" x2="284.8" y2="160.0"/>
<line x1="290.8" y1="200.0" x2="290.8" y2="160.0"/>
<line x1="287.8" y1="160.0" x2="313.5" y2="145.2"/>
<line x1="287.8" y1="160.0" x2="253.2" y2="140.0"/>
<line x1="253.2" y1="140.0" x2="253.2" y2="100.0"/>
<line x1="253.2" y1="100.0" x2="278.8" y2="85.2"/>
<line x1="251.7" y1="102.6" x2="217.1" y2="82.6"/>
<line x1="254.7" y1="97.4" x2="220.1" y2="77.4"/>
<line x1="218.6" y1="80.0" x2="218.6" y2="50.4"/>
<line x1="218.6" y1="80.0" x2="183.9" y2="100.0"/>
<line x1="183.9" y1="100.0" x2="183.9" y2="140.0"/>
<line x1="183.9" y1="140.0" x2="209.6" y2="154.8"/>
<line x1="185.4" y1="142.6" x2="150.8" y2="162.6"/>
<line x1="182.4" y1="137.4" x2="147.8" y2="157.4"/>
<line x1="149.3" y1="160.0" x2="149.3" y2="189.6"/>
<line x1="149.3" y1="160.0" x2="114.6" y2="140.0"/>
<line x1="114.6" y1="140.0" x2="114.6" y2="110.4"/>
<line x1="116.1" y1="142.6" x2="81.5" y2="162.6"/>
<line x1="113.1" y1="137.4" x2="78.5" y2="157.4"/>
<line x1="140.0" y1="234.6" x2="120.0" y2="200.0"/>
<line x1="140.0" y1="234.6" x2="180.0" y2="234.6"/>
<line x1="80.0" y1="160.0" x2="54.4" y2="145.2"/>
<line x1="80.0" y1="160.0" x2="80.0" y2="200.0"/>
<line x1="120.0" y1="200.0" x2="80.0" y2="200.0"/>
<line x1="180.0" y1="234.6" x2="200.0" y2="200.0"/>
<polygon points="53.200000 200.000000 80.000000 204.000000 80.000000 196.000000 " />
<line x1="80.0" y1="200.0" x2="80.0" y2="229.6"/>
<line x1="197.4" y1="201.5" x2="182.6" y2="175.9"/>
<line x1="202.6" y1="198.5" x2="187.8" y2="172.9"/>
<line x1="200.0" y1="200.0" x2="229.6" y2="200.0"/>
<line x1="54.4" y1="254.8" x2="71.0" y2="245.2"/>
<text x="420.410162" y="284.800000" fill="rgb(102,102,102)"  stroke="rgb(102,102,102)" stroke-width="1" font-size="16" >CH</text>
<text x="444.410162" y="289.600000" fill="rgb(102,102,102)"  stroke="rgb(102,102,102)" stroke-width="1" font-size="13" >3</text>
<text x="176.400000" y="173.678984" fill="rgb(255,12,12)"  stroke="rgb(255,12,12)" stroke-width="1" font-size="16" >O</text>
<text x="234.000000" y="208.320000" fill="rgb(255,12,12)"  stroke="rgb(255,12,12)" stroke-width="1" font-size="16" >OH</text>
<text x="29.758984" y="264.800000" fill="rgb(255,12,12)"  stroke="rgb(255,12,12)" stroke-width="1" font-size="16" >HO</text>
<text x="74.000000" y="244.800000" fill="rgb(255,12,12)"  stroke="rgb(255,12,12)" stroke-width="1" font-size="16" >O</text>
<text x="249.605081" y="224.800000" fill="rgb(191,191,191)"  stroke="rgb(191,191,191)" stroke-width="1" font-size="16" >H</text>
<text x="316.487113" y="148.320000" fill="rgb(191,191,191)"  stroke="rgb(191,191,191)" stroke-width="1" font-size="16" >H</text>
<text x="281.846097" y="88.320000" fill="rgb(191,191,191)"  stroke="rgb(191,191,191)" stroke-width="1" font-size="16" >H</text>
<text x="212.564065" y="48.320000" fill="rgb(191,191,191)"  stroke="rgb(191,191,191)" stroke-width="1" font-size="16" >H</text>
<text x="212.564065" y="164.800000" fill="rgb(191,191,191)"  stroke="rgb(191,191,191)" stroke-width="1" font-size="16" >H</text>
<text x="143.282032" y="204.800000" fill="rgb(191,191,191)"  stroke="rgb(191,191,191)" stroke-width="1" font-size="16" >H</text>
<text x="108.641016" y="108.320000" fill="rgb(191,191,191)"  stroke="rgb(191,191,191)" stroke-width="1" font-size="16" >H</text>
<text x="41.758984" y="148.320000" fill="rgb(191,191,191)"  stroke="rgb(191,191,191)" stroke-width="1" font-size="16" >H</text>
<text x="36.400000" y="204.800000" fill="rgb(191,191,191)"  stroke="rgb(191,191,191)" stroke-width="1" font-size="16" >H</text>
<text font-size="18.000000" fill ="black" font-family="sans-serif"
x="140.000000" y="20.000000" ></text>
<title> - OBDepict</title>
</svg>
