<?xml version="1.0"?>
<svg xmlns="http://www.w3.org/2000/svg"
xmlns:xlink="http://www.w3.org/1999/xlink" xmlns:cml="http://www.xml-cml.org/schema" width="293.205" height="240" x="0" y="0" font-family="sans-serif" stroke="rgb(0,0,0)" stroke-width="1" >
<line x1="178.6" y1="50.4" x2="178.6" y2="80.0"/>
<line x1="152.9" y1="94.8" x2="178.6" y2="80.0"/>
<line x1="213.2" y1="100.0" x2="178.6" y2="80.0"/>
<line x1="213.2" y1="100.0" x2="213.2" y2="140.0"/>
<line x1="109.3" y1="160.0" x2="74.6" y2="140.0"/>
<line x1="109.3" y1="160.0" x2="134.9" y2="145.2"/>
<polygon points="226.605081 163.209481 216.669182 138.000000 209.740979 142.000000 " />
<line x1="213.2" y1="140.0" x2="178.6" y2="160.0"/>
<line x1="213.2" y1="140.0" x2="242.8" y2="140.0"/>
<line x1="71.6" y1="140.0" x2="71.6" y2="110.4"/>
<line x1="77.6" y1="140.0" x2="77.6" y2="110.4"/>
<line x1="74.6" y1="140.0" x2="49.0" y2="154.8"/>
<line x1="177.1" y1="162.6" x2="151.4" y2="147.8"/>
<line x1="180.1" y1="157.4" x2="154.4" y2="142.6"/>
<line x1="178.6" y1="160.0" x2="178.6" y2="189.6"/>
<text x="172.564065" y="48.320000" fill="rgb(102,102,102)"  stroke="rgb(102,102,102)" stroke-width="1" font-size="16" >CH</text>
<text x="196.564065" y="56.000000" fill="rgb(102,102,102)"  stroke="rgb(102,102,102)" stroke-width="1" font-size="13" >3</text>
<text x="120.323048" y="104.800000" fill="rgb(102,102,102)"  stroke="rgb(102,102,102)" stroke-width="1" font-size="16" >H</text>
<text x="132.323048" y="109.600000" fill="rgb(102,102,102)"  stroke="rgb(102,102,102)" stroke-width="1" font-size="13" >3</text>
<text x="138.823048" y="104.800000" fill="rgb(102,102,102)"  stroke="rgb(102,102,102)" stroke-width="1" font-size="16" >C</text>
<text x="247.205081" y="144.800000" fill="rgb(12,12,255)"  stroke="rgb(12,12,255)" stroke-width="1" font-size="16" >NH</text>
<text x="271.205081" y="149.600000" fill="rgb(12,12,255)"  stroke="rgb(12,12,255)" stroke-width="1" font-size="13" >2</text>
<text x="137.923048" y="148.320000" fill="rgb(12,12,255)"  stroke="rgb(12,12,255)" stroke-width="1" font-size="16" >N</text>
<text x="68.641016" y="108.320000" fill="rgb(255,12,12)"  stroke="rgb(255,12,12)" stroke-width="1" font-size="16" >O</text>
<text x="24.400000" y="164.800000" fill="rgb(255,12,12)"  stroke="rgb(255,12,12)" stroke-width="1" font-size="16" >HO</text>
<text x="172.564065" y="204.800000" fill="rgb(255,12,12)"  stroke="rgb(255,12,12)" stroke-width="1" font-size="16" >OH</text>
<text x="227.205081" y="179.441016" fill="rgb(191,191,191)"  stroke="rgb(191,191,191)" stroke-width="1" font-size="16" >H</text>
<text font-size="18.000000" fill ="black" font-family="sans-serif"
x="140.000000" y="20.000000" ></text>
<title> - OBDepict</title>
</svg>
