<?xml version="1.0"?>
<svg xmlns="http://www.w3.org/2000/svg"
xmlns:xlink="http://www.w3.org/1999/xlink" xmlns:cml="http://www.xml-cml.org/schema" width="403.757" height="286.921" x="0" y="0" font-family="sans-serif" stroke="rgb(0,0,0)" stroke-width="1" >
<line x1="50.4" y1="208.3" x2="89.0" y2="197.9"/>
<line x1="50.4" y1="208.3" x2="42.7" y2="236.9"/>
<line x1="294.5" y1="100.0" x2="294.5" y2="60.0"/>
<line x1="329.1" y1="160.0" x2="354.8" y2="174.8"/>
<line x1="225.2" y1="180.0" x2="199.6" y2="165.2"/>
<polygon points="82.053444 223.818322 92.853498 198.966786 85.126092 196.896233 " />
<polygon points="52.750221 166.230827 79.672309 163.158180 77.601757 155.430773 " />
<line x1="78.6" y1="159.3" x2="57.7" y2="138.4"/>
<polygon points="87.970843 112.059743 104.092877 133.838632 109.749731 128.181778 " />
<line x1="106.9" y1="131.0" x2="114.6" y2="102.4"/>
<polygon points="152.494688 115.476155 141.694634 140.327691 149.422041 142.398243 " />
<line x1="145.6" y1="141.4" x2="174.1" y2="133.7"/>
<line x1="293.0" y1="62.6" x2="267.3" y2="47.8"/>
<line x1="296.0" y1="57.4" x2="270.3" y2="42.6"/>
<line x1="294.5" y1="60.0" x2="320.1" y2="45.2"/>
<polygon points="159.409201 206.570722 159.876879 179.477895 151.945320 180.522105 " />
<line x1="155.9" y1="180.0" x2="181.5" y2="165.2"/>
<line x1="225.2" y1="220.0" x2="259.8" y2="240.0"/>
<line x1="259.8" y1="240.0" x2="294.5" y2="220.0"/>
<line x1="261.4" y1="230.8" x2="285.7" y2="216.8"/>
<line x1="294.5" y1="220.0" x2="294.5" y2="180.0"/>
<line x1="294.5" y1="180.0" x2="259.8" y2="160.0"/>
<line x1="259.8" y1="160.0" x2="225.2" y2="180.0"/>
<line x1="225.2" y1="180.0" x2="225.2" y2="220.0"/>
<line x1="232.4" y1="186.0" x2="232.4" y2="214.0"/>
<line x1="329.1" y1="120.0" x2="294.5" y2="100.0"/>
<line x1="320.3" y1="123.2" x2="296.1" y2="109.2"/>
<line x1="294.5" y1="100.0" x2="268.8" y2="114.8"/>
<line x1="259.8" y1="130.4" x2="259.8" y2="160.0"/>
<line x1="267.0" y1="132.4" x2="267.0" y2="154.0"/>
<line x1="294.5" y1="180.0" x2="329.1" y2="160.0"/>
<line x1="296.1" y1="170.8" x2="320.3" y2="156.8"/>
<line x1="329.1" y1="160.0" x2="329.1" y2="120.0"/>
<line x1="106.9" y1="131.0" x2="145.6" y2="141.4"/>
<line x1="145.6" y1="141.4" x2="155.9" y2="180.0"/>
<line x1="155.9" y1="180.0" x2="135.0" y2="200.9"/>
<line x1="117.6" y1="205.6" x2="89.0" y2="197.9"/>
<line x1="89.0" y1="197.9" x2="78.6" y2="159.3"/>
<line x1="78.6" y1="159.3" x2="106.9" y2="131.0"/>
<text x="256.234148" y="128.320000" fill="rgb(12,12,255)"  stroke="rgb(12,12,255)" stroke-width="1" font-size="16" >N</text>
<text x="24.400000" y="251.721304" fill="rgb(255,12,12)"  stroke="rgb(255,12,12)" stroke-width="1" font-size="16" >HO</text>
<text x="357.757196" y="184.800000" fill="rgb(255,12,12)"  stroke="rgb(255,12,12)" stroke-width="1" font-size="16" >OH</text>
<text x="34.752762" y="139.330205" fill="rgb(255,12,12)"  stroke="rgb(255,12,12)" stroke-width="1" font-size="16" >HO</text>
<text x="111.274066" y="100.693172" fill="rgb(255,12,12)"  stroke="rgb(255,12,12)" stroke-width="1" font-size="16" >OH</text>
<text x="178.195370" y="139.330205" fill="rgb(255,12,12)"  stroke="rgb(255,12,12)" stroke-width="1" font-size="16" >OH</text>
<text x="256.234148" y="48.320000" fill="rgb(255,12,12)"  stroke="rgb(255,12,12)" stroke-width="1" font-size="16" >O</text>
<text x="323.116180" y="48.320000" fill="rgb(255,12,12)"  stroke="rgb(255,12,12)" stroke-width="1" font-size="16" >OH</text>
<text x="184.552115" y="168.320000" fill="rgb(255,12,12)"  stroke="rgb(255,12,12)" stroke-width="1" font-size="16" >O</text>
<text x="121.626828" y="213.084271" fill="rgb(255,12,12)"  stroke="rgb(255,12,12)" stroke-width="1" font-size="16" >O</text>
<text x="75.037033" y="241.368542" fill="rgb(191,191,191)"  stroke="rgb(191,191,191)" stroke-width="1" font-size="16" >H</text>
<text x="36.400000" y="174.447238" fill="rgb(191,191,191)"  stroke="rgb(191,191,191)" stroke-width="1" font-size="16" >H</text>
<text x="75.037033" y="111.045934" fill="rgb(191,191,191)"  stroke="rgb(191,191,191)" stroke-width="1" font-size="16" >H</text>
<text x="149.911099" y="111.045934" fill="rgb(191,191,191)"  stroke="rgb(191,191,191)" stroke-width="1" font-size="16" >H</text>
<text x="155.132147" y="224.457794" fill="rgb(191,191,191)"  stroke="rgb(191,191,191)" stroke-width="1" font-size="16" >H</text>
<text font-size="18.000000" fill ="black" font-family="sans-serif"
x="140.000000" y="20.000000" ></text>
<title> - OBDepict</title>
</svg>
