<?xml version="1.0"?>
<svg xmlns="http://www.w3.org/2000/svg"
xmlns:xlink="http://www.w3.org/1999/xlink" xmlns:cml="http://www.xml-cml.org/schema" width="1234.3" height="682.359" x="0" y="0" font-family="sans-serif" stroke="rgb(0,0,0)" stroke-width="1" >
<line x1="49.3" y1="364.5" x2="75.6" y2="371.5"/>
<line x1="878.3" y1="48.3" x2="864.7" y2="71.9"/>
<line x1="942.5" y1="615.6" x2="928.9" y2="592.0"/>
<line x1="669.9" y1="438.2" x2="693.6" y2="451.9"/>
<line x1="1001.0" y1="473.8" x2="1024.7" y2="460.1"/>
<line x1="75.6" y1="371.5" x2="101.7" y2="345.4"/>
<line x1="101.7" y1="345.4" x2="137.3" y2="355.0"/>
<line x1="137.3" y1="355.0" x2="163.4" y2="328.9"/>
<line x1="163.4" y1="328.9" x2="199.1" y2="338.5"/>
<line x1="199.1" y1="338.5" x2="225.1" y2="312.4"/>
<line x1="225.1" y1="312.4" x2="260.8" y2="321.9"/>
<line x1="260.8" y1="321.9" x2="286.9" y2="295.8"/>
<line x1="286.9" y1="295.8" x2="322.5" y2="305.4"/>
<line x1="322.5" y1="305.4" x2="348.6" y2="279.3"/>
<line x1="348.6" y1="279.3" x2="384.2" y2="288.8"/>
<line x1="384.2" y1="288.8" x2="410.3" y2="262.8"/>
<line x1="410.3" y1="262.8" x2="445.9" y2="272.3"/>
<line x1="445.9" y1="272.3" x2="465.2" y2="253.0"/>
<line x1="448.8" y1="271.5" x2="458.4" y2="307.2"/>
<line x1="443.0" y1="273.1" x2="452.6" y2="308.7"/>
<line x1="455.5" y1="307.9" x2="481.8" y2="315.0"/>
<line x1="455.5" y1="307.9" x2="429.4" y2="334.0"/>
<line x1="690.2" y1="269.8" x2="725.8" y2="260.3"/>
<line x1="690.2" y1="269.8" x2="670.9" y2="250.5"/>
<line x1="1162.4" y1="386.3" x2="1130.4" y2="404.8"/>
<line x1="1162.4" y1="386.3" x2="1186.0" y2="400.0"/>
<line x1="574.1" y1="574.8" x2="583.6" y2="539.1"/>
<line x1="574.1" y1="574.8" x2="593.4" y2="594.1"/>
<line x1="870.8" y1="368.0" x2="861.3" y2="403.7"/>
<line x1="870.8" y1="368.0" x2="851.5" y2="348.7"/>
<line x1="794.4" y1="589.5" x2="762.4" y2="571.1"/>
<line x1="794.4" y1="589.5" x2="794.4" y2="616.8"/>
<line x1="637.1" y1="376.6" x2="600.2" y2="376.6"/>
<line x1="637.1" y1="376.6" x2="650.7" y2="400.3"/>
<line x1="474.6" y1="360.1" x2="438.9" y2="369.7"/>
<line x1="474.6" y1="360.1" x2="493.9" y2="379.4"/>
<line x1="420.3" y1="429.3" x2="439.6" y2="410.0"/>
<line x1="424.5" y1="433.5" x2="443.8" y2="414.2"/>
<line x1="422.4" y1="431.4" x2="396.0" y2="424.3"/>
<line x1="852.5" y1="51.7" x2="853.2" y2="51.3"/>
<line x1="854.0" y1="55.1" x2="855.4" y2="54.3"/>
<line x1="855.5" y1="58.5" x2="857.6" y2="57.3"/>
<line x1="857.0" y1="61.9" x2="859.8" y2="60.3"/>
<line x1="858.5" y1="65.3" x2="862.0" y2="63.3"/>
<line x1="860.0" y1="68.7" x2="864.2" y2="66.3"/>
<line x1="861.5" y1="72.1" x2="866.4" y2="69.3"/>
<line x1="952.5" y1="591.6" x2="952.5" y2="592.4"/>
<line x1="948.8" y1="591.2" x2="948.8" y2="592.8"/>
<line x1="945.1" y1="590.8" x2="945.1" y2="593.2"/>
<line x1="941.4" y1="590.4" x2="941.4" y2="593.6"/>
<line x1="937.7" y1="590.0" x2="937.7" y2="594.0"/>
<line x1="934.0" y1="589.6" x2="934.0" y2="594.4"/>
<line x1="930.3" y1="589.2" x2="930.3" y2="594.8"/>
<line x1="696.6" y1="451.9" x2="696.6" y2="479.2"/>
<line x1="690.6" y1="451.9" x2="690.6" y2="479.2"/>
<line x1="693.6" y1="451.9" x2="717.2" y2="438.2"/>
<line x1="1021.7" y1="460.1" x2="1021.7" y2="432.8"/>
<line x1="1027.7" y1="460.1" x2="1027.7" y2="432.8"/>
<line x1="1024.7" y1="460.1" x2="1048.3" y2="473.8"/>
<polygon points="415.067131 376.057281 439.975801 373.524128 437.905249 365.796721 " />
<line x1="438.9" y1="369.7" x2="429.4" y2="334.0"/>
<line x1="438.9" y1="369.7" x2="446.0" y2="396.0"/>
<polygon points="405.519584 340.425350 430.428254 337.892197 428.357702 330.164790 " />
<line x1="429.4" y1="334.0" x2="410.1" y2="314.7"/>
<polygon points="719.444013 284.133617 729.704573 261.295499 721.977166 259.224947 " />
<line x1="1151.1" y1="416.2" x2="1150.7" y2="416.9"/>
<line x1="1148.1" y1="414.0" x2="1147.3" y2="415.4"/>
<line x1="1145.1" y1="411.9" x2="1143.9" y2="413.9"/>
<line x1="1142.1" y1="409.7" x2="1140.5" y2="412.4"/>
<line x1="1139.1" y1="407.5" x2="1137.1" y2="410.9"/>
<line x1="1136.1" y1="405.3" x2="1133.7" y2="409.4"/>
<line x1="1133.1" y1="403.1" x2="1130.3" y2="407.9"/>
<line x1="560.9" y1="545.6" x2="560.7" y2="544.9"/>
<line x1="564.6" y1="545.1" x2="564.2" y2="543.5"/>
<line x1="568.3" y1="544.5" x2="567.7" y2="542.2"/>
<line x1="571.9" y1="543.9" x2="571.1" y2="540.8"/>
<line x1="575.6" y1="543.4" x2="574.6" y2="539.5"/>
<line x1="579.3" y1="542.8" x2="578.0" y2="538.2"/>
<line x1="582.9" y1="542.2" x2="581.5" y2="536.8"/>
<polygon points="843.809498 386.177718 858.457607 406.482682 864.114462 400.825827 " />
<line x1="762.8" y1="594.7" x2="762.0" y2="594.7"/>
<line x1="763.2" y1="591.0" x2="761.6" y2="591.0"/>
<line x1="763.6" y1="587.3" x2="761.2" y2="587.3"/>
<line x1="764.0" y1="583.6" x2="760.8" y2="583.6"/>
<line x1="764.4" y1="579.9" x2="760.4" y2="579.9"/>
<line x1="764.8" y1="576.3" x2="760.0" y2="576.3"/>
<line x1="765.2" y1="572.6" x2="759.6" y2="572.6"/>
<polygon points="612.539977 355.245415 596.718097 374.649714 603.646301 378.649714 " />
<polygon points="725.522435 482.486076 721.522435 507.201631 729.522435 507.201631 " />
<line x1="725.5" y1="507.2" x2="701.9" y2="493.6"/>
<polygon points="1035.228874 392.423435 1054.633173 408.245314 1058.633173 401.317111 " />
<line x1="1056.6" y1="404.8" x2="1033.0" y2="418.4"/>
<line x1="908.1" y1="69.7" x2="908.8" y2="70.1"/>
<line x1="905.9" y1="72.7" x2="907.3" y2="73.5"/>
<line x1="903.7" y1="75.7" x2="905.8" y2="76.9"/>
<line x1="901.5" y1="78.7" x2="904.3" y2="80.3"/>
<line x1="899.3" y1="81.7" x2="902.8" y2="83.7"/>
<line x1="897.1" y1="84.7" x2="901.3" y2="87.1"/>
<line x1="894.9" y1="87.7" x2="899.8" y2="90.5"/>
<line x1="896.6" y1="90.4" x2="923.9" y2="90.4"/>
<line x1="909.1" y1="630.7" x2="908.4" y2="631.1"/>
<line x1="907.6" y1="627.3" x2="906.2" y2="628.1"/>
<line x1="906.1" y1="623.9" x2="904.0" y2="625.1"/>
<line x1="904.6" y1="620.5" x2="901.8" y2="622.1"/>
<line x1="903.1" y1="617.1" x2="899.6" y2="619.1"/>
<line x1="901.6" y1="613.7" x2="897.4" y2="616.1"/>
<line x1="900.1" y1="610.3" x2="895.2" y2="613.1"/>
<line x1="896.9" y1="610.4" x2="883.3" y2="634.1"/>
<polygon points="692.419929 231.025149 717.328599 228.491996 715.258046 220.764589 " />
<line x1="716.3" y1="224.6" x2="697.0" y2="205.3"/>
<line x1="1132.2" y1="360.7" x2="1132.6" y2="361.4"/>
<line x1="1128.8" y1="362.2" x2="1129.6" y2="363.6"/>
<line x1="1125.4" y1="363.7" x2="1126.6" y2="365.8"/>
<line x1="1122.0" y1="365.2" x2="1123.6" y2="367.9"/>
<line x1="1118.6" y1="366.7" x2="1120.6" y2="370.1"/>
<line x1="1115.2" y1="368.2" x2="1117.6" y2="372.3"/>
<line x1="1111.8" y1="369.7" x2="1114.6" y2="374.5"/>
<line x1="1112.0" y1="372.8" x2="1112.0" y2="345.5"/>
<line x1="613.6" y1="571.6" x2="612.8" y2="571.4"/>
<line x1="614.9" y1="568.1" x2="613.3" y2="567.7"/>
<line x1="616.2" y1="564.7" x2="613.9" y2="564.1"/>
<line x1="617.6" y1="561.2" x2="614.5" y2="560.4"/>
<line x1="618.9" y1="557.8" x2="615.1" y2="556.7"/>
<line x1="620.3" y1="554.3" x2="615.6" y2="553.1"/>
<line x1="621.6" y1="550.8" x2="616.2" y2="549.4"/>
<line x1="619.3" y1="548.7" x2="638.6" y2="568.0"/>
<polygon points="903.314821 389.328408 893.054262 412.166525 900.781668 414.237078 " />
<line x1="896.9" y1="413.2" x2="923.3" y2="406.1"/>
<line x1="782.7" y1="495.1" x2="783.1" y2="495.7"/>
<line x1="779.3" y1="496.5" x2="780.1" y2="497.9"/>
<line x1="775.9" y1="498.0" x2="777.1" y2="500.1"/>
<line x1="772.5" y1="499.5" x2="774.1" y2="502.3"/>
<line x1="769.1" y1="501.0" x2="771.1" y2="504.5"/>
<line x1="765.7" y1="502.5" x2="768.1" y2="506.7"/>
<line x1="762.3" y1="504.0" x2="765.1" y2="508.9"/>
<line x1="762.4" y1="507.2" x2="762.4" y2="479.9"/>
<line x1="920.2" y1="126.9" x2="920.2" y2="127.7"/>
<line x1="916.6" y1="126.5" x2="916.6" y2="128.1"/>
<line x1="912.9" y1="126.1" x2="912.9" y2="128.5"/>
<line x1="909.2" y1="125.7" x2="909.2" y2="128.9"/>
<line x1="905.5" y1="125.3" x2="905.5" y2="129.3"/>
<line x1="901.8" y1="124.9" x2="901.8" y2="129.7"/>
<line x1="898.1" y1="124.5" x2="898.1" y2="130.1"/>
<line x1="896.6" y1="127.3" x2="910.3" y2="150.9"/>
<line x1="853.5" y1="612.6" x2="852.8" y2="612.2"/>
<line x1="855.7" y1="609.6" x2="854.3" y2="608.8"/>
<line x1="857.9" y1="606.6" x2="855.8" y2="605.4"/>
<line x1="860.1" y1="603.6" x2="857.3" y2="602.0"/>
<line x1="862.3" y1="600.6" x2="858.8" y2="598.6"/>
<line x1="864.5" y1="597.6" x2="860.3" y2="595.2"/>
<line x1="866.7" y1="594.6" x2="861.8" y2="591.8"/>
<line x1="865.0" y1="592.0" x2="837.7" y2="592.0"/>
<polygon points="724.901169 181.067372 739.549279 201.372336 745.206133 195.715482 " />
<line x1="742.4" y1="198.5" x2="749.4" y2="172.2"/>
<polygon points="580.593262 453.387346 571.699586 429.983047 564.771383 433.983047 " />
<line x1="568.2" y1="432.0" x2="540.9" y2="479.3"/>
<polygon points="877.041153 167.128792 868.147477 143.724493 861.219274 147.724493 " />
<line x1="864.7" y1="145.7" x2="851.0" y2="169.4"/>
<polygon points="840.255695 555.078874 864.971250 559.078874 864.971250 551.078874 " />
<line x1="865.0" y1="555.1" x2="851.3" y2="531.4"/>
<line x1="524.8" y1="434.2" x2="524.1" y2="433.8"/>
<line x1="527.0" y1="431.2" x2="525.6" y2="430.4"/>
<line x1="529.2" y1="428.2" x2="527.1" y2="427.0"/>
<line x1="531.4" y1="425.2" x2="528.6" y2="423.6"/>
<line x1="533.6" y1="422.2" x2="530.1" y2="420.2"/>
<line x1="535.8" y1="419.2" x2="531.6" y2="416.8"/>
<line x1="538.0" y1="416.2" x2="533.1" y2="413.4"/>
<line x1="536.3" y1="413.5" x2="509.0" y2="413.5"/>
<polygon points="659.687523 480.582723 634.778853 483.115876 636.849406 490.843283 " />
<line x1="635.8" y1="487.0" x2="642.9" y2="460.6"/>
<polygon points="823.664366 563.863902 782.855768 535.684245 778.855768 542.612448 " />
<line x1="780.9" y1="539.1" x2="828.1" y2="511.9"/>
<line x1="623.8" y1="413.1" x2="623.8" y2="413.9"/>
<line x1="620.1" y1="412.7" x2="620.1" y2="414.3"/>
<line x1="616.4" y1="412.3" x2="616.4" y2="414.7"/>
<line x1="612.7" y1="411.9" x2="612.7" y2="415.1"/>
<line x1="609.0" y1="411.5" x2="609.0" y2="415.5"/>
<line x1="605.3" y1="411.1" x2="605.3" y2="415.9"/>
<line x1="601.7" y1="410.7" x2="601.7" y2="416.3"/>
<line x1="600.2" y1="413.5" x2="613.8" y2="437.2"/>
<line x1="1074.7" y1="349.2" x2="1075.5" y2="349.2"/>
<line x1="1074.3" y1="352.9" x2="1075.9" y2="352.9"/>
<line x1="1073.9" y1="356.6" x2="1076.3" y2="356.6"/>
<line x1="1073.5" y1="360.3" x2="1076.7" y2="360.3"/>
<line x1="1073.1" y1="364.0" x2="1077.1" y2="364.0"/>
<line x1="1072.7" y1="367.7" x2="1077.5" y2="367.7"/>
<line x1="1072.3" y1="371.4" x2="1077.9" y2="371.4"/>
<line x1="1075.1" y1="372.8" x2="886.0" y2="263.6"/>
<line x1="662.3" y1="539.0" x2="661.8" y2="539.6"/>
<line x1="660.0" y1="536.1" x2="658.9" y2="537.3"/>
<line x1="657.7" y1="533.2" x2="656.0" y2="534.9"/>
<line x1="655.4" y1="530.3" x2="653.1" y2="532.6"/>
<line x1="653.0" y1="527.5" x2="650.2" y2="530.3"/>
<line x1="650.7" y1="524.6" x2="647.3" y2="528.0"/>
<line x1="648.4" y1="521.7" x2="644.4" y2="525.6"/>
<line x1="645.4" y1="522.6" x2="671.7" y2="515.5"/>
<polygon points="930.338905 442.436876 905.430236 444.970029 907.500788 452.697435 " />
<line x1="906.5" y1="448.8" x2="925.8" y2="468.1"/>
<line x1="783.7" y1="185.2" x2="784.5" y2="185.4"/>
<line x1="782.4" y1="188.6" x2="783.9" y2="189.1"/>
<line x1="781.1" y1="192.1" x2="783.4" y2="192.7"/>
<line x1="779.7" y1="195.6" x2="782.8" y2="196.4"/>
<line x1="778.4" y1="199.0" x2="782.2" y2="200.1"/>
<line x1="777.0" y1="202.5" x2="781.7" y2="203.7"/>
<line x1="775.7" y1="205.9" x2="781.1" y2="207.4"/>
<line x1="778.0" y1="208.1" x2="804.4" y2="201.0"/>
<line x1="897.4" y1="491.3" x2="896.8" y2="491.9"/>
<line x1="895.0" y1="488.4" x2="893.9" y2="489.6"/>
<line x1="892.7" y1="485.5" x2="891.0" y2="487.2"/>
<line x1="890.4" y1="482.7" x2="888.1" y2="484.9"/>
<line x1="888.1" y1="479.8" x2="885.2" y2="482.6"/>
<line x1="885.7" y1="476.9" x2="882.3" y2="480.3"/>
<line x1="883.4" y1="474.0" x2="879.4" y2="477.9"/>
<line x1="880.4" y1="474.9" x2="873.3" y2="501.3"/>
<line x1="698.4" y1="561.1" x2="697.7" y2="560.8"/>
<line x1="700.2" y1="557.9" x2="698.7" y2="557.2"/>
<line x1="702.0" y1="554.6" x2="699.8" y2="553.7"/>
<line x1="703.8" y1="551.3" x2="700.8" y2="550.1"/>
<line x1="705.5" y1="548.1" x2="701.8" y2="546.6"/>
<line x1="707.3" y1="544.8" x2="702.9" y2="543.0"/>
<line x1="709.1" y1="541.6" x2="703.9" y2="539.4"/>
<line x1="707.1" y1="539.1" x2="687.8" y2="519.8"/>
<polygon points="1090.123494 456.336096 1078.251031 434.292882 1071.904204 439.162973 " />
<line x1="1075.1" y1="436.7" x2="969.6" y2="465.0"/>
<polygon points="539.514797 352.145603 532.322990 376.127609 540.254549 377.171818 " />
<line x1="536.3" y1="376.6" x2="509.9" y2="383.7"/>
<polygon points="813.128492 112.234171 830.301615 130.453462 835.171707 124.106635 " />
<line x1="832.7" y1="127.3" x2="818.6" y2="180.0"/>
<polygon points="919.752161 527.176196 895.387231 532.938911 898.448699 540.329948 " />
<line x1="896.9" y1="536.6" x2="877.6" y2="517.3"/>
<line x1="576.7" y1="474.7" x2="576.8" y2="474.0"/>
<line x1="580.3" y1="475.6" x2="580.5" y2="474.0"/>
<line x1="583.9" y1="476.5" x2="584.2" y2="474.1"/>
<line x1="587.5" y1="477.4" x2="588.0" y2="474.2"/>
<line x1="591.1" y1="478.3" x2="591.7" y2="474.3"/>
<line x1="594.7" y1="479.1" x2="595.4" y2="474.4"/>
<line x1="598.4" y1="480.0" x2="599.1" y2="474.5"/>
<line x1="600.2" y1="477.4" x2="613.8" y2="453.8"/>
<polygon points="790.783211 268.227497 791.522963 243.201282 783.591404 244.245491 " />
<line x1="787.6" y1="243.7" x2="811.2" y2="230.1"/>
<polygon points="821.915002 455.912335 843.218464 469.066087 846.279932 461.675050 " />
<line x1="844.7" y1="465.4" x2="844.7" y2="492.7"/>
<line x1="896.6" y1="127.3" x2="864.7" y2="145.7"/>
<line x1="864.7" y1="145.7" x2="832.7" y2="127.3"/>
<line x1="832.7" y1="127.3" x2="832.7" y2="100.0"/>
<line x1="841.0" y1="85.6" x2="864.7" y2="71.9"/>
<line x1="864.7" y1="71.9" x2="896.6" y2="90.4"/>
<line x1="896.6" y1="90.4" x2="896.6" y2="127.3"/>
<line x1="865.0" y1="592.0" x2="865.0" y2="555.1"/>
<line x1="865.0" y1="555.1" x2="896.9" y2="536.6"/>
<line x1="896.9" y1="536.6" x2="920.6" y2="550.3"/>
<line x1="928.9" y1="564.7" x2="928.9" y2="592.0"/>
<line x1="928.9" y1="592.0" x2="896.9" y2="610.4"/>
<line x1="896.9" y1="610.4" x2="865.0" y2="592.0"/>
<line x1="742.4" y1="198.5" x2="778.0" y2="208.1"/>
<line x1="778.0" y1="208.1" x2="787.6" y2="243.7"/>
<line x1="787.6" y1="243.7" x2="768.3" y2="263.0"/>
<line x1="752.2" y1="267.3" x2="725.8" y2="260.3"/>
<line x1="725.8" y1="260.3" x2="716.3" y2="224.6"/>
<line x1="716.3" y1="224.6" x2="742.4" y2="198.5"/>
<line x1="1056.6" y1="404.8" x2="1075.1" y2="436.7"/>
<line x1="1075.1" y1="436.7" x2="1102.4" y2="436.7"/>
<line x1="1116.8" y1="428.4" x2="1130.4" y2="404.8"/>
<line x1="1130.4" y1="404.8" x2="1112.0" y2="372.8"/>
<line x1="1112.0" y1="372.8" x2="1075.1" y2="372.8"/>
<line x1="1075.1" y1="372.8" x2="1056.6" y2="404.8"/>
<line x1="635.8" y1="487.0" x2="600.2" y2="477.4"/>
<line x1="600.2" y1="477.4" x2="580.9" y2="496.7"/>
<line x1="576.6" y1="512.8" x2="583.6" y2="539.1"/>
<line x1="583.6" y1="539.1" x2="619.3" y2="548.7"/>
<line x1="619.3" y1="548.7" x2="645.4" y2="522.6"/>
<line x1="645.4" y1="522.6" x2="635.8" y2="487.0"/>
<line x1="906.5" y1="448.8" x2="880.4" y2="474.9"/>
<line x1="880.4" y1="474.9" x2="844.7" y2="465.4"/>
<line x1="844.7" y1="465.4" x2="837.7" y2="439.0"/>
<line x1="842.0" y1="423.0" x2="861.3" y2="403.7"/>
<line x1="861.3" y1="403.7" x2="896.9" y2="413.2"/>
<line x1="896.9" y1="413.2" x2="906.5" y2="448.8"/>
<line x1="725.5" y1="507.2" x2="707.1" y2="539.1"/>
<line x1="707.1" y1="539.1" x2="720.7" y2="562.8"/>
<line x1="735.1" y1="571.1" x2="762.4" y2="571.1"/>
<line x1="762.4" y1="571.1" x2="780.9" y2="539.1"/>
<line x1="780.9" y1="539.1" x2="762.4" y2="507.2"/>
<line x1="762.4" y1="507.2" x2="725.5" y2="507.2"/>
<line x1="568.2" y1="432.0" x2="536.3" y2="413.5"/>
<line x1="536.3" y1="413.5" x2="536.3" y2="376.6"/>
<line x1="536.3" y1="376.6" x2="559.9" y2="363.0"/>
<line x1="576.5" y1="363.0" x2="600.2" y2="376.6"/>
<line x1="600.2" y1="376.6" x2="600.2" y2="413.5"/>
<line x1="600.2" y1="413.5" x2="568.2" y2="432.0"/>
<text x="16.400000" y="370.305652" fill="rgb(102,102,102)"  stroke="rgb(102,102,102)" stroke-width="1" font-size="16" >H</text>
<text x="28.400000" y="377.985652" fill="rgb(102,102,102)"  stroke="rgb(102,102,102)" stroke-width="1" font-size="13" >3</text>
<text x="34.900000" y="370.305652" fill="rgb(102,102,102)"  stroke="rgb(102,102,102)" stroke-width="1" font-size="16" >C</text>
<text x="877.127820" y="48.320000" fill="rgb(102,102,102)"  stroke="rgb(102,102,102)" stroke-width="1" font-size="16" >CH</text>
<text x="901.127820" y="56.000000" fill="rgb(102,102,102)"  stroke="rgb(102,102,102)" stroke-width="1" font-size="13" >3</text>
<text x="941.309124" y="628.714478" fill="rgb(102,102,102)"  stroke="rgb(102,102,102)" stroke-width="1" font-size="16" >CH</text>
<text x="965.309124" y="633.514478" fill="rgb(102,102,102)"  stroke="rgb(102,102,102)" stroke-width="1" font-size="13" >3</text>
<text x="638.029005" y="441.743854" fill="rgb(102,102,102)"  stroke="rgb(102,102,102)" stroke-width="1" font-size="16" >H</text>
<text x="650.029005" y="449.423854" fill="rgb(102,102,102)"  stroke="rgb(102,102,102)" stroke-width="1" font-size="13" >3</text>
<text x="656.529005" y="441.743854" fill="rgb(102,102,102)"  stroke="rgb(102,102,102)" stroke-width="1" font-size="16" >C</text>
<text x="969.139743" y="483.358990" fill="rgb(102,102,102)"  stroke="rgb(102,102,102)" stroke-width="1" font-size="16" >H</text>
<text x="981.139743" y="488.158990" fill="rgb(102,102,102)"  stroke="rgb(102,102,102)" stroke-width="1" font-size="13" >3</text>
<text x="987.639743" y="483.358990" fill="rgb(102,102,102)"  stroke="rgb(102,102,102)" stroke-width="1" font-size="16" >C</text>
<text x="442.488072" y="410.092355" fill="rgb(12,12,255)"  stroke="rgb(12,12,255)" stroke-width="1" font-size="16" >N</text>
<text x="689.975720" y="493.557187" fill="rgb(12,12,255)"  stroke="rgb(12,12,255)" stroke-width="1" font-size="16" >N</text>
<text x="1021.086458" y="431.545657" fill="rgb(12,12,255)"  stroke="rgb(12,12,255)" stroke-width="1" font-size="16" >N</text>
<text x="648.524555" y="252.043387" fill="rgb(255,12,12)"  stroke="rgb(255,12,12)" stroke-width="1" font-size="16" >HO</text>
<text x="1188.304381" y="409.581213" fill="rgb(255,12,12)"  stroke="rgb(255,12,12)" stroke-width="1" font-size="16" >OH</text>
<text x="594.182199" y="605.664660" fill="rgb(255,12,12)"  stroke="rgb(255,12,12)" stroke-width="1" font-size="16" >OH</text>
<text x="829.149198" y="350.257941" fill="rgb(255,12,12)"  stroke="rgb(255,12,12)" stroke-width="1" font-size="16" >HO</text>
<text x="788.358039" y="631.228395" fill="rgb(255,12,12)"  stroke="rgb(255,12,12)" stroke-width="1" font-size="16" >OH</text>
<text x="649.515532" y="413.396429" fill="rgb(255,12,12)"  stroke="rgb(255,12,12)" stroke-width="1" font-size="16" >OH</text>
<text x="371.171758" y="430.149191" fill="rgb(255,12,12)"  stroke="rgb(255,12,12)" stroke-width="1" font-size="16" >HO</text>
<text x="719.522435" y="441.743854" fill="rgb(255,12,12)"  stroke="rgb(255,12,12)" stroke-width="1" font-size="16" >OH</text>
<text x="1050.633173" y="483.358990" fill="rgb(255,12,12)"  stroke="rgb(255,12,12)" stroke-width="1" font-size="16" >OH</text>
<text x="387.708594" y="316.264110" fill="rgb(255,12,12)"  stroke="rgb(255,12,12)" stroke-width="1" font-size="16" >HO</text>
<text x="927.518979" y="98.711159" fill="rgb(255,12,12)"  stroke="rgb(255,12,12)" stroke-width="1" font-size="16" >OH</text>
<text x="862.873521" y="647.158922" fill="rgb(255,12,12)"  stroke="rgb(255,12,12)" stroke-width="1" font-size="16" >HO</text>
<text x="674.608939" y="206.863909" fill="rgb(255,12,12)"  stroke="rgb(255,12,12)" stroke-width="1" font-size="16" >HO</text>
<text x="1105.966506" y="344.265609" fill="rgb(255,12,12)"  stroke="rgb(255,12,12)" stroke-width="1" font-size="16" >OH</text>
<text x="639.361676" y="579.580277" fill="rgb(255,12,12)"  stroke="rgb(255,12,12)" stroke-width="1" font-size="16" >OH</text>
<text x="926.549895" y="411.974255" fill="rgb(255,12,12)"  stroke="rgb(255,12,12)" stroke-width="1" font-size="16" >OH</text>
<text x="756.411324" y="478.632743" fill="rgb(255,12,12)"  stroke="rgb(255,12,12)" stroke-width="1" font-size="16" >OH</text>
<text x="909.074535" y="164.026763" fill="rgb(255,12,12)"  stroke="rgb(255,12,12)" stroke-width="1" font-size="16" >OH</text>
<text x="812.482361" y="596.767763" fill="rgb(255,12,12)"  stroke="rgb(255,12,12)" stroke-width="1" font-size="16" >HO</text>
<text x="745.925253" y="171.231979" fill="rgb(255,12,12)"  stroke="rgb(255,12,12)" stroke-width="1" font-size="16" >OH</text>
<text x="515.746595" y="500.676477" fill="rgb(255,12,12)"  stroke="rgb(255,12,12)" stroke-width="1" font-size="16" >HO</text>
<text x="830.638931" y="182.471208" fill="rgb(255,12,12)"  stroke="rgb(255,12,12)" stroke-width="1" font-size="16" >HO</text>
<text x="830.926806" y="531.452159" fill="rgb(255,12,12)"  stroke="rgb(255,12,12)" stroke-width="1" font-size="16" >HO</text>
<text x="483.799880" y="418.338603" fill="rgb(255,12,12)"  stroke="rgb(255,12,12)" stroke-width="1" font-size="16" >HO</text>
<text x="639.361676" y="459.667649" fill="rgb(255,12,12)"  stroke="rgb(255,12,12)" stroke-width="1" font-size="16" >OH</text>
<text x="497.056839" y="390.997261" fill="rgb(255,12,12)"  stroke="rgb(255,12,12)" stroke-width="1" font-size="16" >O</text>
<text x="829.136661" y="98.711159" fill="rgb(255,12,12)"  stroke="rgb(255,12,12)" stroke-width="1" font-size="16" >O</text>
<text x="922.864680" y="563.398874" fill="rgb(255,12,12)"  stroke="rgb(255,12,12)" stroke-width="1" font-size="16" >O</text>
<text x="1105.966506" y="441.527928" fill="rgb(255,12,12)"  stroke="rgb(255,12,12)" stroke-width="1" font-size="16" >O</text>
<text x="570.497816" y="511.836416" fill="rgb(255,12,12)"  stroke="rgb(255,12,12)" stroke-width="1" font-size="16" >O</text>
<text x="755.472800" y="274.607770" fill="rgb(255,12,12)"  stroke="rgb(255,12,12)" stroke-width="1" font-size="16" >O</text>
<text x="831.601651" y="438.058638" fill="rgb(255,12,12)"  stroke="rgb(255,12,12)" stroke-width="1" font-size="16" >O</text>
<text x="721.922435" y="575.895061" fill="rgb(255,12,12)"  stroke="rgb(255,12,12)" stroke-width="1" font-size="16" >O</text>
<text x="562.235484" y="366.525269" fill="rgb(255,12,12)"  stroke="rgb(255,12,12)" stroke-width="1" font-size="16" >O</text>
<text x="612.626643" y="450.285317" fill="rgb(255,12,12)"  stroke="rgb(255,12,12)" stroke-width="1" font-size="16" >O</text>
<text x="838.749198" y="510.579457" fill="rgb(255,12,12)"  stroke="rgb(255,12,12)" stroke-width="1" font-size="16" >O</text>
<text x="815.903898" y="233.598942" fill="rgb(255,12,12)"  stroke="rgb(255,12,12)" stroke-width="1" font-size="16" >O</text>
<text x="674.993607" y="521.383963" fill="rgb(255,12,12)"  stroke="rgb(255,12,12)" stroke-width="1" font-size="16" >O</text>
<text x="928.949895" y="479.718116" fill="rgb(255,12,12)"  stroke="rgb(255,12,12)" stroke-width="1" font-size="16" >O</text>
<text x="807.641567" y="203.343909" fill="rgb(255,12,12)"  stroke="rgb(255,12,12)" stroke-width="1" font-size="16" >O</text>
<text x="867.233582" y="515.350046" fill="rgb(255,12,12)"  stroke="rgb(255,12,12)" stroke-width="1" font-size="16" >O</text>
<text x="466.014198" y="254.547796" fill="rgb(191,191,191)"  stroke="rgb(191,191,191)" stroke-width="1" font-size="16" >H</text>
<text x="485.109292" y="322.291657" fill="rgb(191,191,191)"  stroke="rgb(191,191,191)" stroke-width="1" font-size="16" >H</text>
<text x="842.638931" y="48.320000" fill="rgb(191,191,191)"  stroke="rgb(191,191,191)" stroke-width="1" font-size="16" >H</text>
<text x="959.753569" y="600.287763" fill="rgb(191,191,191)"  stroke="rgb(191,191,191)" stroke-width="1" font-size="16" >H</text>
<text x="399.708594" y="384.007971" fill="rgb(191,191,191)"  stroke="rgb(191,191,191)" stroke-width="1" font-size="16" >H</text>
<text x="390.161047" y="348.376041" fill="rgb(191,191,191)"  stroke="rgb(191,191,191)" stroke-width="1" font-size="16" >H</text>
<text x="712.693322" y="300.692154" fill="rgb(191,191,191)"  stroke="rgb(191,191,191)" stroke-width="1" font-size="16" >H</text>
<text x="1156.357666" y="428.025657" fill="rgb(191,191,191)"  stroke="rgb(191,191,191)" stroke-width="1" font-size="16" >H</text>
<text x="544.413432" y="553.495893" fill="rgb(191,191,191)"  stroke="rgb(191,191,191)" stroke-width="1" font-size="16" >H</text>
<text x="831.601651" y="385.889871" fill="rgb(191,191,191)"  stroke="rgb(191,191,191)" stroke-width="1" font-size="16" >H</text>
<text x="756.411324" y="612.783950" fill="rgb(191,191,191)"  stroke="rgb(191,191,191)" stroke-width="1" font-size="16" >H</text>
<text x="612.626643" y="353.022999" fill="rgb(191,191,191)"  stroke="rgb(191,191,191)" stroke-width="1" font-size="16" >H</text>
<text x="719.522435" y="478.632743" fill="rgb(191,191,191)"  stroke="rgb(191,191,191)" stroke-width="1" font-size="16" >H</text>
<text x="1021.086458" y="394.656768" fill="rgb(191,191,191)"  stroke="rgb(191,191,191)" stroke-width="1" font-size="16" >H</text>
<text x="909.074535" y="66.764444" fill="rgb(191,191,191)"  stroke="rgb(191,191,191)" stroke-width="1" font-size="16" >H</text>
<text x="909.362409" y="647.158922" fill="rgb(191,191,191)"  stroke="rgb(191,191,191)" stroke-width="1" font-size="16" >H</text>
<text x="677.061392" y="238.975840" fill="rgb(191,191,191)"  stroke="rgb(191,191,191)" stroke-width="1" font-size="16" >H</text>
<text x="1137.913221" y="362.710053" fill="rgb(191,191,191)"  stroke="rgb(191,191,191)" stroke-width="1" font-size="16" >H</text>
<text x="606.129746" y="589.127824" fill="rgb(191,191,191)"  stroke="rgb(191,191,191)" stroke-width="1" font-size="16" >H</text>
<text x="900.465512" y="385.889871" fill="rgb(191,191,191)"  stroke="rgb(191,191,191)" stroke-width="1" font-size="16" >H</text>
<text x="788.358039" y="497.077187" fill="rgb(191,191,191)"  stroke="rgb(191,191,191)" stroke-width="1" font-size="16" >H</text>
<text x="927.518979" y="135.600048" fill="rgb(191,191,191)"  stroke="rgb(191,191,191)" stroke-width="1" font-size="16" >H</text>
<text x="842.926806" y="628.714478" fill="rgb(191,191,191)"  stroke="rgb(191,191,191)" stroke-width="1" font-size="16" >H</text>
<text x="712.693322" y="180.779526" fill="rgb(191,191,191)"  stroke="rgb(191,191,191)" stroke-width="1" font-size="16" >H</text>
<text x="580.679929" y="468.729762" fill="rgb(191,191,191)"  stroke="rgb(191,191,191)" stroke-width="1" font-size="16" >H</text>
<text x="877.127820" y="182.471208" fill="rgb(191,191,191)"  stroke="rgb(191,191,191)" stroke-width="1" font-size="16" >H</text>
<text x="824.482361" y="559.878874" fill="rgb(191,191,191)"  stroke="rgb(191,191,191)" stroke-width="1" font-size="16" >H</text>
<text x="514.244325" y="450.285317" fill="rgb(191,191,191)"  stroke="rgb(191,191,191)" stroke-width="1" font-size="16" >H</text>
<text x="665.446060" y="485.752032" fill="rgb(191,191,191)"  stroke="rgb(191,191,191)" stroke-width="1" font-size="16" >H</text>
<text x="838.749198" y="580.837235" fill="rgb(191,191,191)"  stroke="rgb(191,191,191)" stroke-width="1" font-size="16" >H</text>
<text x="631.071088" y="421.858603" fill="rgb(191,191,191)"  stroke="rgb(191,191,191)" stroke-width="1" font-size="16" >H</text>
<text x="1069.077617" y="344.265609" fill="rgb(191,191,191)"  stroke="rgb(191,191,191)" stroke-width="1" font-size="16" >H</text>
<text x="665.446060" y="553.495893" fill="rgb(191,191,191)"  stroke="rgb(191,191,191)" stroke-width="1" font-size="16" >H</text>
<text x="936.097442" y="447.606185" fill="rgb(191,191,191)"  stroke="rgb(191,191,191)" stroke-width="1" font-size="16" >H</text>
<text x="781.557183" y="180.779526" fill="rgb(191,191,191)"  stroke="rgb(191,191,191)" stroke-width="1" font-size="16" >H</text>
<text x="900.465512" y="505.802499" fill="rgb(191,191,191)"  stroke="rgb(191,191,191)" stroke-width="1" font-size="16" >H</text>
<text x="689.361224" y="578.029236" fill="rgb(191,191,191)"  stroke="rgb(191,191,191)" stroke-width="1" font-size="16" >H</text>
<text x="1091.534150" y="470.793851" fill="rgb(191,191,191)"  stroke="rgb(191,191,191)" stroke-width="1" font-size="16" >H</text>
<text x="535.103735" y="348.396414" fill="rgb(191,191,191)"  stroke="rgb(191,191,191)" stroke-width="1" font-size="16" >H</text>
<text x="799.870738" y="113.143516" fill="rgb(191,191,191)"  stroke="rgb(191,191,191)" stroke-width="1" font-size="16" >H</text>
<text x="924.998854" y="530.837663" fill="rgb(191,191,191)"  stroke="rgb(191,191,191)" stroke-width="1" font-size="16" >H</text>
<text x="560.008900" y="480.937066" fill="rgb(191,191,191)"  stroke="rgb(191,191,191)" stroke-width="1" font-size="16" >H</text>
<text x="786.372150" y="285.096686" fill="rgb(191,191,191)"  stroke="rgb(191,191,191)" stroke-width="1" font-size="16" >H</text>
<text x="807.068309" y="459.573802" fill="rgb(191,191,191)"  stroke="rgb(191,191,191)" stroke-width="1" font-size="16" >H</text>
<text font-size="18.000000" fill ="black" font-family="sans-serif"
x="140.000000" y="20.000000" ></text>
<title> - OBDepict</title>
</svg>
