<?xml version="1.0"?>
<svg xmlns="http://www.w3.org/2000/svg"
xmlns:xlink="http://www.w3.org/1999/xlink" xmlns:cml="http://www.xml-cml.org/schema" width="860" height="772.82" x="0" y="0" font-family="sans-serif" stroke="rgb(0,0,0)" stroke-width="1" >
<line x1="805.2" y1="723.8" x2="820.0" y2="698.2"/>
<line x1="50.4" y1="178.6" x2="80.0" y2="178.6"/>
<line x1="420.3" y1="93.2" x2="401.1" y2="93.2"/>
<line x1="390.7" y1="63.6" x2="390.7" y2="82.8"/>
<line x1="361.1" y1="93.2" x2="380.3" y2="93.2"/>
<line x1="820.0" y1="698.2" x2="800.0" y2="663.5"/>
<line x1="80.0" y1="178.6" x2="100.0" y2="213.2"/>
<line x1="800.0" y1="663.5" x2="760.0" y2="663.5"/>
<line x1="100.0" y1="213.2" x2="140.0" y2="213.2"/>
<line x1="760.0" y1="663.5" x2="740.0" y2="628.9"/>
<line x1="140.0" y1="213.2" x2="160.0" y2="178.6"/>
<line x1="740.0" y1="628.9" x2="700.0" y2="628.9"/>
<line x1="160.0" y1="178.6" x2="140.0" y2="143.9"/>
<line x1="700.0" y1="628.9" x2="680.0" y2="594.3"/>
<line x1="140.0" y1="143.9" x2="110.4" y2="143.9"/>
<line x1="137.4" y1="142.4" x2="157.4" y2="107.8"/>
<line x1="142.6" y1="145.4" x2="162.6" y2="110.8"/>
<line x1="680.0" y1="594.3" x2="640.0" y2="594.3"/>
<line x1="160.0" y1="109.3" x2="145.2" y2="83.6"/>
<line x1="160.0" y1="109.3" x2="200.0" y2="109.3"/>
<line x1="640.0" y1="594.3" x2="620.0" y2="559.6"/>
<line x1="200.0" y1="109.3" x2="220.0" y2="74.6"/>
<line x1="620.0" y1="559.6" x2="634.8" y2="534.0"/>
<line x1="620.0" y1="562.6" x2="580.0" y2="562.6"/>
<line x1="620.0" y1="556.6" x2="580.0" y2="556.6"/>
<line x1="220.0" y1="74.6" x2="205.2" y2="49.0"/>
<line x1="220.0" y1="71.6" x2="260.0" y2="71.6"/>
<line x1="220.0" y1="77.6" x2="260.0" y2="77.6"/>
<line x1="580.0" y1="559.6" x2="565.2" y2="534.0"/>
<line x1="580.0" y1="559.6" x2="560.0" y2="594.3"/>
<line x1="260.0" y1="74.6" x2="274.8" y2="49.0"/>
<line x1="260.0" y1="74.6" x2="280.0" y2="109.3"/>
<line x1="560.0" y1="594.3" x2="520.0" y2="594.3"/>
<line x1="280.0" y1="109.3" x2="320.0" y2="109.3"/>
<line x1="520.0" y1="594.3" x2="500.0" y2="559.6"/>
<line x1="320.0" y1="109.3" x2="340.0" y2="143.9"/>
<line x1="500.0" y1="559.6" x2="460.0" y2="559.6"/>
<line x1="340.0" y1="143.9" x2="320.0" y2="178.6"/>
<line x1="460.0" y1="559.6" x2="440.0" y2="525.0"/>
<line x1="320.0" y1="178.6" x2="340.0" y2="213.2"/>
<line x1="440.0" y1="525.0" x2="460.0" y2="490.3"/>
<line x1="340.0" y1="213.2" x2="380.0" y2="213.2"/>
<line x1="460.0" y1="490.3" x2="440.0" y2="455.7"/>
<line x1="380.0" y1="213.2" x2="400.0" y2="247.8"/>
<line x1="440.0" y1="455.7" x2="460.0" y2="421.1"/>
<line x1="400.0" y1="247.8" x2="380.0" y2="282.5"/>
<line x1="390.7" y1="133.2" x2="425.4" y2="153.2"/>
<line x1="390.7" y1="133.2" x2="390.7" y2="103.6"/>
<line x1="425.4" y1="153.2" x2="425.4" y2="182.8"/>
<line x1="460.0" y1="351.8" x2="440.0" y2="317.1"/>
<line x1="460.0" y1="351.8" x2="445.2" y2="377.4"/>
<line x1="460.0" y1="282.5" x2="440.0" y2="317.1"/>
<line x1="460.0" y1="282.5" x2="445.2" y2="256.9"/>
<line x1="440.0" y1="317.1" x2="410.4" y2="317.1"/>
<line x1="460.0" y1="418.1" x2="489.6" y2="418.1"/>
<line x1="460.0" y1="424.1" x2="489.6" y2="424.1"/>
<line x1="460.0" y1="421.1" x2="445.2" y2="395.4"/>
<line x1="380.0" y1="285.5" x2="350.4" y2="285.5"/>
<line x1="380.0" y1="279.5" x2="350.4" y2="279.5"/>
<line x1="380.0" y1="282.5" x2="394.8" y2="308.1"/>
<line x1="484.1" y1="230.6" x2="467.5" y2="221.0"/>
<line x1="487.1" y1="225.4" x2="470.5" y2="215.8"/>
<line x1="474.8" y1="187.6" x2="465.2" y2="204.2"/>
<line x1="434.4" y1="198.4" x2="451.0" y2="208.0"/>
<line x1="445.2" y1="238.8" x2="454.8" y2="222.2"/>
<text x="776.400000" y="737.620323" fill="rgb(102,102,102)"  stroke="rgb(102,102,102)" stroke-width="1" font-size="16" >H</text>
<text x="788.400000" y="742.420323" fill="rgb(102,102,102)"  stroke="rgb(102,102,102)" stroke-width="1" font-size="13" >3</text>
<text x="794.900000" y="737.620323" fill="rgb(102,102,102)"  stroke="rgb(102,102,102)" stroke-width="1" font-size="16" >C</text>
<text x="16.400000" y="183.364065" fill="rgb(102,102,102)"  stroke="rgb(102,102,102)" stroke-width="1" font-size="16" >H</text>
<text x="28.400000" y="188.164065" fill="rgb(102,102,102)"  stroke="rgb(102,102,102)" stroke-width="1" font-size="13" >3</text>
<text x="34.900000" y="183.364065" fill="rgb(102,102,102)"  stroke="rgb(102,102,102)" stroke-width="1" font-size="16" >C</text>
<text x="424.717968" y="101.525081" fill="rgb(102,102,102)"  stroke="rgb(102,102,102)" stroke-width="1" font-size="16" >CH</text>
<text x="448.717968" y="109.205081" fill="rgb(102,102,102)"  stroke="rgb(102,102,102)" stroke-width="1" font-size="13" >3</text>
<text x="384.717968" y="61.525081" fill="rgb(102,102,102)"  stroke="rgb(102,102,102)" stroke-width="1" font-size="16" >CH</text>
<text x="408.717968" y="69.205081" fill="rgb(102,102,102)"  stroke="rgb(102,102,102)" stroke-width="1" font-size="13" >3</text>
<text x="327.117968" y="98.005081" fill="rgb(102,102,102)"  stroke="rgb(102,102,102)" stroke-width="1" font-size="16" >H</text>
<text x="339.117968" y="102.805081" fill="rgb(102,102,102)"  stroke="rgb(102,102,102)" stroke-width="1" font-size="13" >3</text>
<text x="345.617968" y="98.005081" fill="rgb(102,102,102)"  stroke="rgb(102,102,102)" stroke-width="1" font-size="16" >C</text>
<text x="385.917968" y="112.405081" fill="rgb(12,12,255)"  stroke="rgb(12,12,255)" stroke-width="1" font-size="16" >+</text>
<text x="384.717968" y="98.005081" fill="rgb(12,12,255)"  stroke="rgb(12,12,255)" stroke-width="1" font-size="16" >N</text>
<text x="494.000000" y="429.371178" fill="rgb(255,12,12)"  stroke="rgb(255,12,12)" stroke-width="1" font-size="16" >O</text>
<text x="336.400000" y="290.807113" fill="rgb(255,12,12)"  stroke="rgb(255,12,12)" stroke-width="1" font-size="16" >O</text>
<text x="488.641016" y="238.005081" fill="rgb(255,12,12)"  stroke="rgb(255,12,12)" stroke-width="1" font-size="16" >O</text>
<text x="475.200000" y="172.164065" fill="rgb(255,12,12)"  stroke="rgb(255,12,12)" stroke-width="1" font-size="32" >-</text>
<text x="474.000000" y="186.884065" fill="rgb(255,12,12)"  stroke="rgb(255,12,12)" stroke-width="1" font-size="16" >O</text>
<text x="436.400000" y="391.210162" fill="rgb(255,12,12)"  stroke="rgb(255,12,12)" stroke-width="1" font-size="16" >O</text>
<text x="421.758984" y="198.005081" fill="rgb(255,12,12)"  stroke="rgb(255,12,12)" stroke-width="1" font-size="16" >O</text>
<text x="436.400000" y="252.646097" fill="rgb(255,12,12)"  stroke="rgb(255,12,12)" stroke-width="1" font-size="16" >O</text>
<text x="396.400000" y="321.928129" fill="rgb(255,12,12)"  stroke="rgb(255,12,12)" stroke-width="1" font-size="16" >O</text>
<text x="454.000000" y="218.005081" fill="rgb(255,127,0)"  stroke="rgb(255,127,0)" stroke-width="1" font-size="16" >P</text>
<text x="96.400000" y="148.723048" fill="rgb(191,191,191)"  stroke="rgb(191,191,191)" stroke-width="1" font-size="16" >H</text>
<text x="136.400000" y="82.961016" fill="rgb(191,191,191)"  stroke="rgb(191,191,191)" stroke-width="1" font-size="16" >H</text>
<text x="634.000000" y="533.294226" fill="rgb(191,191,191)"  stroke="rgb(191,191,191)" stroke-width="1" font-size="16" >H</text>
<text x="196.400000" y="48.320000" fill="rgb(191,191,191)"  stroke="rgb(191,191,191)" stroke-width="1" font-size="16" >H</text>
<text x="556.400000" y="533.294226" fill="rgb(191,191,191)"  stroke="rgb(191,191,191)" stroke-width="1" font-size="16" >H</text>
<text x="274.000000" y="48.320000" fill="rgb(191,191,191)"  stroke="rgb(191,191,191)" stroke-width="1" font-size="16" >H</text>
<text font-size="18.000000" fill ="black" font-family="sans-serif"
x="140.000000" y="20.000000" ></text>
<title> - OBDepict</title>
</svg>
