<?xml version="1.0"?>
<svg xmlns="http://www.w3.org/2000/svg"
xmlns:xlink="http://www.w3.org/1999/xlink" xmlns:cml="http://www.xml-cml.org/schema" width="634.256" height="234.641" x="0" y="0" font-family="sans-serif" stroke="rgb(0,0,0)" stroke-width="1" >
<line x1="594.3" y1="110.4" x2="594.3" y2="140.0"/>
<line x1="594.3" y1="140.0" x2="559.6" y2="160.0"/>
<line x1="559.6" y1="160.0" x2="525.0" y2="140.0"/>
<line x1="525.0" y1="140.0" x2="490.3" y2="160.0"/>
<line x1="490.3" y1="160.0" x2="455.7" y2="140.0"/>
<line x1="213.2" y1="80.0" x2="247.8" y2="100.0"/>
<line x1="213.2" y1="80.0" x2="178.6" y2="100.0"/>
<line x1="455.7" y1="140.0" x2="421.1" y2="160.0"/>
<line x1="247.8" y1="100.0" x2="282.5" y2="80.0"/>
<line x1="178.6" y1="100.0" x2="143.9" y2="80.0"/>
<line x1="421.1" y1="160.0" x2="386.4" y2="140.0"/>
<line x1="282.5" y1="80.0" x2="317.1" y2="100.0"/>
<line x1="143.9" y1="80.0" x2="109.3" y2="100.0"/>
<line x1="386.4" y1="140.0" x2="351.8" y2="160.0"/>
<line x1="317.1" y1="100.0" x2="317.1" y2="140.0"/>
<line x1="109.3" y1="100.0" x2="74.6" y2="80.0"/>
<line x1="351.8" y1="160.0" x2="337.0" y2="185.6"/>
<line x1="351.8" y1="160.0" x2="317.1" y2="140.0"/>
<line x1="351.8" y1="160.0" x2="366.6" y2="185.6"/>
<line x1="291.5" y1="140.4" x2="291.5" y2="139.6"/>
<line x1="295.5" y1="140.8" x2="295.5" y2="139.2"/>
<line x1="299.5" y1="141.2" x2="299.5" y2="138.8"/>
<line x1="303.5" y1="141.6" x2="303.5" y2="138.4"/>
<line x1="307.5" y1="142.0" x2="307.5" y2="138.0"/>
<line x1="311.5" y1="142.4" x2="311.5" y2="137.6"/>
<line x1="315.5" y1="142.8" x2="315.5" y2="137.2"/>
<line x1="317.1" y1="140.0" x2="302.3" y2="165.6"/>
<line x1="71.6" y1="80.0" x2="71.6" y2="50.4"/>
<line x1="77.6" y1="80.0" x2="77.6" y2="50.4"/>
<line x1="74.6" y1="80.0" x2="49.0" y2="94.8"/>
<text x="588.256258" y="108.320000" fill="rgb(102,102,102)"  stroke="rgb(102,102,102)" stroke-width="1" font-size="16" >CH</text>
<text x="612.256258" y="116.000000" fill="rgb(102,102,102)"  stroke="rgb(102,102,102)" stroke-width="1" font-size="13" >3</text>
<text x="365.769145" y="199.441016" fill="rgb(255,12,12)"  stroke="rgb(255,12,12)" stroke-width="1" font-size="16" >OH</text>
<text x="281.528129" y="179.441016" fill="rgb(255,12,12)"  stroke="rgb(255,12,12)" stroke-width="1" font-size="16" >HO</text>
<text x="68.641016" y="48.320000" fill="rgb(255,12,12)"  stroke="rgb(255,12,12)" stroke-width="1" font-size="16" >O</text>
<text x="35.200000" y="119.200000" fill="rgb(255,12,12)"  stroke="rgb(255,12,12)" stroke-width="1" font-size="32" >-</text>
<text x="36.400000" y="104.800000" fill="rgb(255,12,12)"  stroke="rgb(255,12,12)" stroke-width="1" font-size="16" >O</text>
<text x="328.169145" y="199.441016" fill="rgb(191,191,191)"  stroke="rgb(191,191,191)" stroke-width="1" font-size="16" >H</text>
<text x="273.528129" y="144.800000" fill="rgb(191,191,191)"  stroke="rgb(191,191,191)" stroke-width="1" font-size="16" >H</text>
<text font-size="18.000000" fill ="black" font-family="sans-serif"
x="140.000000" y="20.000000" ></text>
<title> - OBDepict</title>
</svg>
