<?xml version="1.0"?>
<svg xmlns="http://www.w3.org/2000/svg"
xmlns:xlink="http://www.w3.org/1999/xlink" xmlns:cml="http://www.xml-cml.org/schema" width="599.781" height="540.104" x="0" y="0" font-family="sans-serif" stroke="rgb(0,0,0)" stroke-width="1" >
<line x1="220.2" y1="329.4" x2="198.5" y2="348.9"/>
<line x1="192.4" y1="320.4" x2="198.5" y2="348.9"/>
<line x1="521.2" y1="350.1" x2="549.8" y2="344.0"/>
<line x1="519.0" y1="352.1" x2="492.6" y2="322.8"/>
<line x1="523.4" y1="348.1" x2="497.1" y2="318.8"/>
<line x1="521.2" y1="350.1" x2="509.0" y2="387.6"/>
<line x1="494.8" y1="320.8" x2="503.8" y2="293.1"/>
<line x1="494.8" y1="320.8" x2="456.3" y2="329.0"/>
<line x1="304.0" y1="466.1" x2="277.6" y2="436.8"/>
<line x1="304.0" y1="466.1" x2="342.6" y2="457.9"/>
<line x1="277.6" y1="436.8" x2="249.1" y2="442.9"/>
<line x1="393.3" y1="412.2" x2="405.5" y2="374.7"/>
<line x1="393.3" y1="412.2" x2="364.8" y2="418.3"/>
<line x1="405.5" y1="374.7" x2="434.1" y2="368.6"/>
<line x1="129.3" y1="213.2" x2="167.9" y2="205.0"/>
<line x1="129.3" y1="213.2" x2="120.3" y2="240.9"/>
<line x1="159.9" y1="357.1" x2="198.5" y2="348.9"/>
<line x1="159.9" y1="357.1" x2="140.4" y2="335.4"/>
<line x1="484.7" y1="462.6" x2="475.6" y2="490.4"/>
<polygon points="159.721640 230.080130 171.689212 206.192002 164.080760 203.719866 " />
<line x1="339.7" y1="457.0" x2="348.7" y2="429.2"/>
<line x1="345.4" y1="458.8" x2="354.4" y2="431.1"/>
<line x1="342.6" y1="457.9" x2="362.1" y2="479.6"/>
<line x1="454.0" y1="331.0" x2="434.5" y2="309.3"/>
<line x1="458.5" y1="327.0" x2="439.0" y2="305.3"/>
<line x1="456.3" y1="329.0" x2="447.2" y2="356.8"/>
<line x1="191.6" y1="125.8" x2="192.4" y2="125.6"/>
<line x1="192.4" y1="129.7" x2="194.0" y2="129.2"/>
<line x1="193.3" y1="133.6" x2="195.6" y2="132.8"/>
<line x1="194.1" y1="137.5" x2="197.2" y2="136.5"/>
<line x1="195.0" y1="141.3" x2="198.8" y2="140.1"/>
<line x1="195.8" y1="145.2" x2="200.4" y2="143.7"/>
<line x1="196.6" y1="149.1" x2="202.0" y2="147.3"/>
<line x1="199.8" y1="149.7" x2="219.3" y2="128.0"/>
<line x1="138.5" y1="166.1" x2="138.5" y2="165.3"/>
<line x1="142.5" y1="166.5" x2="142.5" y2="164.9"/>
<line x1="146.4" y1="166.9" x2="146.4" y2="164.5"/>
<line x1="150.4" y1="167.3" x2="150.4" y2="164.1"/>
<line x1="154.3" y1="167.7" x2="154.3" y2="163.7"/>
<line x1="158.2" y1="168.1" x2="158.2" y2="163.3"/>
<line x1="162.2" y1="168.5" x2="162.2" y2="162.9"/>
<line x1="163.8" y1="165.7" x2="149.2" y2="140.5"/>
<line x1="249.0" y1="385.6" x2="248.7" y2="386.4"/>
<line x1="245.4" y1="384.0" x2="244.9" y2="385.5"/>
<line x1="241.7" y1="382.4" x2="241.0" y2="384.7"/>
<line x1="238.1" y1="380.8" x2="237.1" y2="383.9"/>
<line x1="234.5" y1="379.2" x2="233.2" y2="383.0"/>
<line x1="230.9" y1="377.6" x2="229.4" y2="382.2"/>
<line x1="227.2" y1="376.0" x2="225.5" y2="381.3"/>
<line x1="224.9" y1="378.2" x2="212.7" y2="415.7"/>
<line x1="224.9" y1="378.2" x2="198.5" y2="348.9"/>
<line x1="224.9" y1="378.2" x2="246.5" y2="358.7"/>
<line x1="368.2" y1="76.8" x2="378.7" y2="49.6"/>
<line x1="214.9" y1="413.7" x2="234.4" y2="435.4"/>
<line x1="210.4" y1="417.7" x2="230.0" y2="439.4"/>
<line x1="212.7" y1="415.7" x2="184.1" y2="421.8"/>
<polygon points="242.978419 199.384298 229.251632 176.461803 223.080837 181.553098 " />
<line x1="226.2" y1="179.0" x2="262.9" y2="133.7"/>
<line x1="104.6" y1="102.4" x2="104.6" y2="121.3"/>
<line x1="75.4" y1="131.6" x2="94.4" y2="131.6"/>
<line x1="101.6" y1="160.8" x2="101.6" y2="141.8"/>
<line x1="107.6" y1="160.8" x2="107.6" y2="141.8"/>
<line x1="72.5" y1="230.3" x2="76.4" y2="248.8"/>
<line x1="49.4" y1="262.0" x2="67.9" y2="258.0"/>
<line x1="50.7" y1="267.9" x2="69.2" y2="263.9"/>
<line x1="66.4" y1="342.1" x2="84.9" y2="338.1"/>
<line x1="98.1" y1="365.1" x2="94.2" y2="346.6"/>
<line x1="104.0" y1="363.9" x2="100.0" y2="345.4"/>
<line x1="107.1" y1="252.8" x2="88.6" y2="256.7"/>
<line x1="123.5" y1="329.9" x2="105.0" y2="333.9"/>
<line x1="133.8" y1="131.6" x2="114.9" y2="131.6"/>
<line x1="84.6" y1="287.4" x2="80.7" y2="268.9"/>
<line x1="88.9" y1="307.4" x2="92.8" y2="326.0"/>
<line x1="265.6" y1="79.6" x2="273.1" y2="107.8"/>
<line x1="286.0" y1="118.3" x2="315.2" y2="119.8"/>
<line x1="315.2" y1="119.8" x2="329.3" y2="83.0"/>
<line x1="329.3" y1="83.0" x2="306.6" y2="64.6"/>
<line x1="290.1" y1="63.7" x2="265.6" y2="79.6"/>
<line x1="292.3" y1="70.9" x2="274.5" y2="82.4"/>
<line x1="167.9" y1="205.0" x2="163.8" y2="165.7"/>
<line x1="163.8" y1="165.7" x2="199.8" y2="149.7"/>
<line x1="199.8" y1="149.7" x2="226.2" y2="179.0"/>
<line x1="226.2" y1="179.0" x2="211.6" y2="204.3"/>
<line x1="196.4" y1="211.0" x2="167.9" y2="205.0"/>
<line x1="535.4" y1="416.9" x2="509.0" y2="387.6"/>
<line x1="526.0" y1="417.3" x2="507.7" y2="396.9"/>
<line x1="509.0" y1="387.6" x2="470.5" y2="395.8"/>
<line x1="470.5" y1="395.8" x2="458.3" y2="433.3"/>
<line x1="475.5" y1="403.7" x2="467.0" y2="429.8"/>
<line x1="458.3" y1="433.3" x2="484.7" y2="462.6"/>
<line x1="484.7" y1="462.6" x2="523.2" y2="454.4"/>
<line x1="489.0" y1="454.3" x2="515.9" y2="448.6"/>
<line x1="523.2" y1="454.4" x2="535.4" y2="416.9"/>
<line x1="315.2" y1="119.8" x2="333.5" y2="142.5"/>
<line x1="324.5" y1="119.9" x2="337.8" y2="136.3"/>
<line x1="350.1" y1="148.8" x2="378.9" y2="144.3"/>
<line x1="378.9" y1="144.3" x2="389.4" y2="117.0"/>
<line x1="374.4" y1="136.1" x2="381.9" y2="116.4"/>
<line x1="386.6" y1="99.5" x2="368.2" y2="76.8"/>
<line x1="368.2" y1="76.8" x2="329.3" y2="83.0"/>
<line x1="363.4" y1="84.9" x2="336.3" y2="89.2"/>
<text x="221.780212" y="330.826934" fill="rgb(102,102,102)"  stroke="rgb(102,102,102)" stroke-width="1" font-size="16" >CH</text>
<text x="245.780212" y="338.506934" fill="rgb(102,102,102)"  stroke="rgb(102,102,102)" stroke-width="1" font-size="13" >3</text>
<text x="166.681412" y="318.642835" fill="rgb(102,102,102)"  stroke="rgb(102,102,102)" stroke-width="1" font-size="16" >H</text>
<text x="178.681412" y="326.322835" fill="rgb(102,102,102)"  stroke="rgb(102,102,102)" stroke-width="1" font-size="13" >3</text>
<text x="185.181412" y="318.642835" fill="rgb(102,102,102)"  stroke="rgb(102,102,102)" stroke-width="1" font-size="16" >C</text>
<text x="376.370191" y="48.320000" fill="rgb(12,12,255)"  stroke="rgb(12,12,255)" stroke-width="1" font-size="16" >NH</text>
<text x="400.370191" y="56.000000" fill="rgb(12,12,255)"  stroke="rgb(12,12,255)" stroke-width="1" font-size="13" >2</text>
<text x="351.161590" y="428.717892" fill="rgb(12,12,255)"  stroke="rgb(12,12,255)" stroke-width="1" font-size="16" >N</text>
<text x="235.460703" y="449.790875" fill="rgb(12,12,255)"  stroke="rgb(12,12,255)" stroke-width="1" font-size="16" >N</text>
<text x="387.053459" y="115.771498" fill="rgb(12,12,255)"  stroke="rgb(12,12,255)" stroke-width="1" font-size="16" >N</text>
<text x="336.380382" y="155.229228" fill="rgb(12,12,255)"  stroke="rgb(12,12,255)" stroke-width="1" font-size="16" >N</text>
<text x="292.655360" y="66.484526" fill="rgb(12,12,255)"  stroke="rgb(12,12,255)" stroke-width="1" font-size="16" >N</text>
<text x="269.792643" y="126.043941" fill="rgb(12,12,255)"  stroke="rgb(12,12,255)" stroke-width="1" font-size="16" >N</text>
<text x="456.877145" y="504.903648" fill="rgb(255,12,12)"  stroke="rgb(255,12,12)" stroke-width="1" font-size="16" >HO</text>
<text x="362.960356" y="491.997831" fill="rgb(255,12,12)"  stroke="rgb(255,12,12)" stroke-width="1" font-size="16" >OH</text>
<text x="426.280849" y="308.023832" fill="rgb(255,12,12)"  stroke="rgb(255,12,12)" stroke-width="1" font-size="16" >O</text>
<text x="220.166235" y="128.725173" fill="rgb(255,12,12)"  stroke="rgb(255,12,12)" stroke-width="1" font-size="16" >OH</text>
<text x="248.163076" y="360.128073" fill="rgb(255,12,12)"  stroke="rgb(255,12,12)" stroke-width="1" font-size="16" >OH</text>
<text x="158.510876" y="428.687397" fill="rgb(255,12,12)"  stroke="rgb(255,12,12)" stroke-width="1" font-size="16" >HO</text>
<text x="98.620721" y="100.488641" fill="rgb(255,12,12)"  stroke="rgb(255,12,12)" stroke-width="1" font-size="16" >OH</text>
<text x="49.592150" y="136.397212" fill="rgb(255,12,12)"  stroke="rgb(255,12,12)" stroke-width="1" font-size="16" >HO</text>
<text x="98.620721" y="175.825784" fill="rgb(255,12,12)"  stroke="rgb(255,12,12)" stroke-width="1" font-size="16" >O</text>
<text x="54.769302" y="228.603093" fill="rgb(255,12,12)"  stroke="rgb(255,12,12)" stroke-width="1" font-size="16" >HO</text>
<text x="36.400000" y="271.847717" fill="rgb(255,12,12)"  stroke="rgb(255,12,12)" stroke-width="1" font-size="16" >O</text>
<text x="40.795322" y="348.981642" fill="rgb(255,12,12)"  stroke="rgb(255,12,12)" stroke-width="1" font-size="16" >HO</text>
<text x="97.159945" y="379.350944" fill="rgb(255,12,12)"  stroke="rgb(255,12,12)" stroke-width="1" font-size="16" >O</text>
<text x="111.133925" y="255.452395" fill="rgb(255,12,12)"  stroke="rgb(255,12,12)" stroke-width="1" font-size="16" >O</text>
<text x="127.529247" y="336.106320" fill="rgb(255,12,12)"  stroke="rgb(255,12,12)" stroke-width="1" font-size="16" >O</text>
<text x="200.451949" y="217.953595" fill="rgb(255,12,12)"  stroke="rgb(255,12,12)" stroke-width="1" font-size="16" >O</text>
<text x="138.049293" y="139.917212" fill="rgb(255,12,12)"  stroke="rgb(255,12,12)" stroke-width="1" font-size="16" >O</text>
<text x="80.764623" y="305.737018" fill="rgb(255,12,12)"  stroke="rgb(255,12,12)" stroke-width="1" font-size="16" >O</text>
<text x="98.620721" y="139.917212" fill="rgb(255,127,0)"  stroke="rgb(255,127,0)" stroke-width="1" font-size="16" >P</text>
<text x="72.566963" y="263.650056" fill="rgb(255,127,0)"  stroke="rgb(255,127,0)" stroke-width="1" font-size="16" >P</text>
<text x="88.962284" y="340.783981" fill="rgb(255,127,0)"  stroke="rgb(255,127,0)" stroke-width="1" font-size="16" >P</text>
<text x="438.079614" y="371.303771" fill="rgb(178,178,0)"  stroke="rgb(178,178,0)" stroke-width="1" font-size="16" >S</text>
<text x="553.780502" y="350.230788" fill="rgb(191,191,191)"  stroke="rgb(191,191,191)" stroke-width="1" font-size="16" >H</text>
<text x="501.014774" y="291.628510" fill="rgb(191,191,191)"  stroke="rgb(191,191,191)" stroke-width="1" font-size="16" >H</text>
<text x="152.100888" y="247.254734" fill="rgb(191,191,191)"  stroke="rgb(191,191,191)" stroke-width="1" font-size="16" >H</text>
<text x="183.999272" y="120.527512" fill="rgb(191,191,191)"  stroke="rgb(191,191,191)" stroke-width="1" font-size="16" >H</text>
<text x="120.735007" y="170.543357" fill="rgb(191,191,191)"  stroke="rgb(191,191,191)" stroke-width="1" font-size="16" >H</text>
<text x="256.360737" y="395.175035" fill="rgb(191,191,191)"  stroke="rgb(191,191,191)" stroke-width="1" font-size="16" >H</text>
<text x="245.259047" y="214.220655" fill="rgb(191,191,191)"  stroke="rgb(191,191,191)" stroke-width="1" font-size="16" >H</text>
<text font-size="18.000000" fill ="black" font-family="sans-serif"
x="140.000000" y="20.000000" ></text>
<title> - OBDepict</title>
</svg>
