<?xml version="1.0"?>
<svg xmlns="http://www.w3.org/2000/svg"
xmlns:xlink="http://www.w3.org/1999/xlink" xmlns:cml="http://www.xml-cml.org/schema" width="281.808" height="370.088" x="0" y="0" font-family="sans-serif" stroke="rgb(0,0,0)" stroke-width="1" >
<line x1="232.1" y1="97.4" x2="211.9" y2="77.3"/>
<line x1="59.3" y1="163.1" x2="97.9" y2="163.1"/>
<line x1="59.3" y1="163.1" x2="45.0" y2="187.8"/>
<line x1="164.7" y1="229.9" x2="184.0" y2="263.3"/>
<line x1="164.7" y1="229.9" x2="178.9" y2="205.2"/>
<line x1="212.7" y1="80.2" x2="185.1" y2="87.5"/>
<line x1="211.1" y1="74.4" x2="183.6" y2="81.7"/>
<line x1="211.9" y1="77.3" x2="219.3" y2="49.7"/>
<polygon points="206.331102 276.201666 185.950531 259.816136 181.950531 266.744340 " />
<line x1="184.0" y1="263.3" x2="164.7" y2="296.7"/>
<line x1="184.0" y1="263.3" x2="208.7" y2="249.0"/>
<polygon points="84.935714 185.449298 101.321244 165.068727 94.393041 161.068727 " />
<line x1="184.5" y1="139.2" x2="184.0" y2="139.8"/>
<line x1="181.7" y1="136.5" x2="180.7" y2="137.8"/>
<line x1="178.9" y1="133.9" x2="177.4" y2="135.8"/>
<line x1="176.0" y1="131.2" x2="174.1" y2="133.8"/>
<line x1="173.2" y1="128.5" x2="170.8" y2="131.7"/>
<line x1="170.4" y1="125.9" x2="167.5" y2="129.7"/>
<line x1="167.6" y1="123.2" x2="164.2" y2="127.7"/>
<line x1="164.7" y1="124.5" x2="172.1" y2="96.9"/>
<polygon points="72.014286 124.497298 97.857143 128.497298 97.857143 120.497298 " />
<line x1="97.9" y1="124.5" x2="83.6" y2="99.8"/>
<polygon points="118.339551 82.831013 127.796878 107.211584 134.725081 103.211584 " />
<line x1="131.3" y1="105.2" x2="145.5" y2="80.5"/>
<line x1="164.7" y1="299.7" x2="136.1" y2="299.7"/>
<line x1="164.7" y1="293.7" x2="136.1" y2="293.7"/>
<line x1="164.7" y1="296.7" x2="178.9" y2="321.4"/>
<line x1="214.0" y1="162.7" x2="214.0" y2="163.5"/>
<line x1="206.3" y1="162.3" x2="206.3" y2="163.9"/>
<line x1="198.6" y1="161.9" x2="198.6" y2="164.3"/>
<line x1="190.9" y1="161.5" x2="190.9" y2="164.7"/>
<line x1="183.2" y1="161.1" x2="183.2" y2="165.1"/>
<line x1="175.5" y1="160.7" x2="175.5" y2="165.5"/>
<line x1="167.8" y1="160.3" x2="167.8" y2="165.9"/>
<line x1="164.7" y1="163.1" x2="178.9" y2="187.8"/>
<line x1="164.7" y1="124.5" x2="131.3" y2="105.2"/>
<line x1="131.3" y1="105.2" x2="97.9" y2="124.5"/>
<line x1="97.9" y1="124.5" x2="97.9" y2="163.1"/>
<line x1="97.9" y1="163.1" x2="122.6" y2="177.3"/>
<line x1="139.9" y1="177.3" x2="164.7" y2="163.1"/>
<line x1="164.7" y1="163.1" x2="164.7" y2="124.5"/>
<text x="233.179095" y="109.331258" fill="rgb(102,102,102)"  stroke="rgb(102,102,102)" stroke-width="1" font-size="16" >CH</text>
<text x="257.179095" y="114.131258" fill="rgb(102,102,102)"  stroke="rgb(102,102,102)" stroke-width="1" font-size="13" >3</text>
<text x="211.354368" y="252.314524" fill="rgb(12,12,255)"  stroke="rgb(12,12,255)" stroke-width="1" font-size="16" >NH</text>
<text x="235.354368" y="259.994524" fill="rgb(12,12,255)"  stroke="rgb(12,12,255)" stroke-width="1" font-size="13" >2</text>
<text x="171.047837" y="95.560159" fill="rgb(12,12,255)"  stroke="rgb(12,12,255)" stroke-width="1" font-size="16" >N</text>
<text x="24.400000" y="201.272564" fill="rgb(255,12,12)"  stroke="rgb(255,12,12)" stroke-width="1" font-size="16" >HO</text>
<text x="215.887996" y="48.320000" fill="rgb(255,12,12)"  stroke="rgb(255,12,12)" stroke-width="1" font-size="16" >OH</text>
<text x="62.971429" y="99.413461" fill="rgb(255,12,12)"  stroke="rgb(255,12,12)" stroke-width="1" font-size="16" >HO</text>
<text x="144.546694" y="80.127747" fill="rgb(255,12,12)"  stroke="rgb(255,12,12)" stroke-width="1" font-size="16" >OH</text>
<text x="122.493388" y="301.484075" fill="rgb(255,12,12)"  stroke="rgb(255,12,12)" stroke-width="1" font-size="16" >O</text>
<text x="177.950531" y="334.887912" fill="rgb(255,12,12)"  stroke="rgb(255,12,12)" stroke-width="1" font-size="16" >OH</text>
<text x="177.950531" y="201.272564" fill="rgb(255,12,12)"  stroke="rgb(255,12,12)" stroke-width="1" font-size="16" >O</text>
<text x="125.260980" y="187.154441" fill="rgb(255,12,12)"  stroke="rgb(255,12,12)" stroke-width="1" font-size="16" >O</text>
<text x="211.354368" y="287.365952" fill="rgb(191,191,191)"  stroke="rgb(191,191,191)" stroke-width="1" font-size="16" >H</text>
<text x="74.971429" y="201.272564" fill="rgb(191,191,191)"  stroke="rgb(191,191,191)" stroke-width="1" font-size="16" >H</text>
<text x="189.265589" y="152.778096" fill="rgb(191,191,191)"  stroke="rgb(191,191,191)" stroke-width="1" font-size="16" >H</text>
<text x="55.685714" y="129.297298" fill="rgb(191,191,191)"  stroke="rgb(191,191,191)" stroke-width="1" font-size="16" >H</text>
<text x="108.375266" y="80.127747" fill="rgb(191,191,191)"  stroke="rgb(191,191,191)" stroke-width="1" font-size="16" >H</text>
<text x="235.807674" y="167.868727" fill="rgb(191,191,191)"  stroke="rgb(191,191,191)" stroke-width="1" font-size="16" >H</text>
<text font-size="18.000000" fill ="black" font-family="sans-serif"
x="140.000000" y="20.000000" ></text>
<title> - OBDepict</title>
</svg>
