<?xml version="1.0"?>
<svg xmlns="http://www.w3.org/2000/svg"
xmlns:xlink="http://www.w3.org/1999/xlink" xmlns:cml="http://www.xml-cml.org/schema" width="486.434" height="286.284" x="0" y="0" font-family="sans-serif" stroke="rgb(0,0,0)" stroke-width="1" >
<line x1="335.2" y1="241.2" x2="310.4" y2="226.9"/>
<line x1="114.1" y1="49.2" x2="129.2" y2="75.2"/>
<line x1="310.4" y1="226.9" x2="310.4" y2="188.1"/>
<line x1="111.2" y1="107.1" x2="110.5" y2="106.7"/>
<line x1="113.6" y1="103.8" x2="112.2" y2="103.0"/>
<line x1="116.0" y1="100.5" x2="113.9" y2="99.3"/>
<line x1="118.4" y1="97.2" x2="115.6" y2="95.6"/>
<line x1="120.7" y1="93.9" x2="117.3" y2="91.9"/>
<line x1="123.1" y1="90.5" x2="119.0" y2="88.1"/>
<line x1="125.5" y1="87.2" x2="120.7" y2="84.4"/>
<line x1="411.2" y1="168.7" x2="437.3" y2="183.8"/>
<line x1="179.0" y1="188.1" x2="179.0" y2="218.2"/>
<line x1="173.0" y1="188.1" x2="173.0" y2="218.2"/>
<line x1="73.7" y1="132.5" x2="47.7" y2="117.4"/>
<line x1="76.7" y1="127.3" x2="50.7" y2="112.2"/>
<line x1="108.8" y1="110.5" x2="93.8" y2="84.4"/>
<line x1="218.4" y1="173.7" x2="243.2" y2="188.1"/>
<line x1="243.2" y1="188.1" x2="276.8" y2="168.7"/>
<line x1="276.8" y1="168.7" x2="276.8" y2="129.9"/>
<line x1="269.6" y1="162.7" x2="269.6" y2="135.9"/>
<line x1="276.8" y1="129.9" x2="209.6" y2="129.9"/>
<line x1="209.6" y1="129.9" x2="209.6" y2="158.6"/>
<line x1="377.6" y1="188.1" x2="411.2" y2="168.7"/>
<line x1="379.2" y1="178.9" x2="402.4" y2="165.5"/>
<line x1="411.2" y1="168.7" x2="411.2" y2="129.9"/>
<line x1="411.2" y1="129.9" x2="377.6" y2="110.5"/>
<line x1="402.4" y1="133.2" x2="379.2" y2="119.8"/>
<line x1="377.6" y1="110.5" x2="344.0" y2="129.9"/>
<line x1="344.0" y1="129.9" x2="344.0" y2="168.7"/>
<line x1="344.0" y1="168.7" x2="377.6" y2="188.1"/>
<line x1="142.4" y1="168.7" x2="176.0" y2="188.1"/>
<line x1="176.0" y1="188.1" x2="200.9" y2="173.7"/>
<line x1="209.6" y1="129.9" x2="176.0" y2="110.5"/>
<line x1="200.8" y1="133.1" x2="177.6" y2="119.7"/>
<line x1="176.0" y1="110.5" x2="142.4" y2="129.9"/>
<line x1="142.4" y1="129.9" x2="142.4" y2="168.7"/>
<line x1="149.6" y1="135.9" x2="149.6" y2="162.7"/>
<line x1="276.8" y1="168.7" x2="310.4" y2="188.1"/>
<line x1="310.4" y1="188.1" x2="344.0" y2="168.7"/>
<line x1="312.0" y1="178.9" x2="335.2" y2="165.5"/>
<line x1="344.0" y1="129.9" x2="319.2" y2="115.6"/>
<line x1="335.2" y1="133.2" x2="317.4" y2="122.9"/>
<line x1="301.7" y1="115.6" x2="276.8" y2="129.9"/>
<line x1="108.8" y1="188.1" x2="142.4" y2="168.7"/>
<line x1="142.4" y1="129.9" x2="108.8" y2="110.5"/>
<line x1="108.8" y1="110.5" x2="75.2" y2="129.9"/>
<line x1="75.2" y1="129.9" x2="75.2" y2="158.6"/>
<line x1="84.0" y1="173.7" x2="108.8" y2="188.1"/>
<text x="337.978001" y="251.084066" fill="rgb(102,102,102)"  stroke="rgb(102,102,102)" stroke-width="1" font-size="16" >CH</text>
<text x="361.978001" y="255.884066" fill="rgb(102,102,102)"  stroke="rgb(102,102,102)" stroke-width="1" font-size="13" >3</text>
<text x="85.253964" y="48.320000" fill="rgb(102,102,102)"  stroke="rgb(102,102,102)" stroke-width="1" font-size="16" >H</text>
<text x="97.253964" y="56.000000" fill="rgb(102,102,102)"  stroke="rgb(102,102,102)" stroke-width="1" font-size="13" >3</text>
<text x="103.753964" y="48.320000" fill="rgb(102,102,102)"  stroke="rgb(102,102,102)" stroke-width="1" font-size="16" >C</text>
<text x="304.420834" y="118.840067" fill="rgb(12,12,255)"  stroke="rgb(12,12,255)" stroke-width="1" font-size="16" >N</text>
<text x="203.619775" y="173.495816" fill="rgb(12,12,255)"  stroke="rgb(12,12,255)" stroke-width="1" font-size="16" >N</text>
<text x="440.433539" y="193.885894" fill="rgb(255,12,12)"  stroke="rgb(255,12,12)" stroke-width="1" font-size="16" >OH</text>
<text x="169.983450" y="233.566769" fill="rgb(255,12,12)"  stroke="rgb(255,12,12)" stroke-width="1" font-size="16" >O</text>
<text x="36.400000" y="117.835185" fill="rgb(255,12,12)"  stroke="rgb(255,12,12)" stroke-width="1" font-size="16" >O</text>
<text x="72.904059" y="83.550854" fill="rgb(255,12,12)"  stroke="rgb(255,12,12)" stroke-width="1" font-size="16" >HO</text>
<text x="71.623121" y="173.469033" fill="rgb(255,12,12)"  stroke="rgb(255,12,12)" stroke-width="1" font-size="16" >O</text>
<text font-size="18.000000" fill ="black" font-family="sans-serif"
x="140.000000" y="20.000000" ></text>
<title> - OBDepict</title>
</svg>
