<?xml version="1.0"?>
<svg xmlns="http://www.w3.org/2000/svg"
xmlns:xlink="http://www.w3.org/1999/xlink" xmlns:cml="http://www.xml-cml.org/schema" width="323.217" height="279.87" x="0" y="0" font-family="sans-serif" stroke="rgb(0,0,0)" stroke-width="1" >
<line x1="49.1" y1="86.2" x2="75.1" y2="100.7"/>
<line x1="75.1" y1="100.7" x2="74.5" y2="60.6"/>
<line x1="74.5" y1="60.6" x2="49.0" y2="75.8"/>
<line x1="283.2" y1="219.8" x2="283.1" y2="179.8"/>
<line x1="283.1" y1="179.8" x2="248.5" y2="159.8"/>
<line x1="274.3" y1="183.0" x2="250.1" y2="169.0"/>
<line x1="248.5" y1="159.8" x2="214.0" y2="179.8"/>
<line x1="214.0" y1="179.8" x2="213.8" y2="219.9"/>
<line x1="221.2" y1="185.8" x2="221.0" y2="213.9"/>
<line x1="213.8" y1="219.9" x2="248.4" y2="239.9"/>
<line x1="248.4" y1="239.9" x2="283.2" y2="219.8"/>
<line x1="250.0" y1="230.6" x2="274.4" y2="216.5"/>
<line x1="179.4" y1="239.7" x2="213.8" y2="219.9"/>
<line x1="214.0" y1="179.8" x2="179.6" y2="159.9"/>
<line x1="179.6" y1="159.9" x2="144.6" y2="179.9"/>
<line x1="178.0" y1="169.2" x2="153.4" y2="183.2"/>
<line x1="144.6" y1="179.9" x2="145.0" y2="219.8"/>
<line x1="145.0" y1="219.8" x2="179.4" y2="239.7"/>
<line x1="153.8" y1="216.6" x2="177.8" y2="230.5"/>
<line x1="248.5" y1="120.1" x2="214.1" y2="100.2"/>
<line x1="239.7" y1="123.3" x2="215.7" y2="109.5"/>
<line x1="214.1" y1="100.2" x2="179.3" y2="119.8"/>
<line x1="179.3" y1="119.8" x2="179.6" y2="159.9"/>
<line x1="248.5" y1="159.8" x2="248.5" y2="120.1"/>
<line x1="144.7" y1="99.8" x2="110.1" y2="120.4"/>
<line x1="110.1" y1="120.4" x2="110.0" y2="160.0"/>
<line x1="117.3" y1="126.4" x2="117.2" y2="154.0"/>
<line x1="110.0" y1="160.0" x2="144.6" y2="179.9"/>
<line x1="179.3" y1="119.8" x2="144.7" y2="99.8"/>
<line x1="170.5" y1="123.0" x2="146.3" y2="109.1"/>
<line x1="75.1" y1="100.7" x2="110.1" y2="120.4"/>
<line x1="144.7" y1="99.8" x2="144.2" y2="59.6"/>
<line x1="144.2" y1="59.6" x2="109.1" y2="40.0"/>
<line x1="135.4" y1="63.0" x2="110.8" y2="49.2"/>
<line x1="109.1" y1="40.0" x2="74.5" y2="60.6"/>
<text x="36.400000" y="85.901391" fill="rgb(255,12,12)"  stroke="rgb(255,12,12)" stroke-width="1" font-size="16" >O</text>
<text font-size="18.000000" fill ="black" font-family="sans-serif"
x="140.000000" y="20.000000" ></text>
<title> - OBDepict</title>
</svg>
