<?xml version="1.0"?>
<svg xmlns="http://www.w3.org/2000/svg"
xmlns:xlink="http://www.w3.org/1999/xlink" xmlns:cml="http://www.xml-cml.org/schema" width="1746.34" height="1927.17" x="0" y="0" font-family="sans-serif" stroke="rgb(0,0,0)" stroke-width="1" >
<line x1="1680.9" y1="45.2" x2="1706.3" y2="59.8"/>
<line x1="50.0" y1="1884.5" x2="78.3" y2="1876.9"/>
<line x1="474.5" y1="1536.8" x2="495.3" y2="1516.1"/>
<line x1="523.2" y1="1564.9" x2="536.6" y2="1551.4"/>
<line x1="1706.3" y1="59.8" x2="1706.3" y2="99.5"/>
<line x1="78.3" y1="1876.9" x2="88.6" y2="1838.6"/>
<line x1="1706.3" y1="99.5" x2="1672.0" y2="119.4"/>
<line x1="88.6" y1="1838.6" x2="127.0" y2="1828.3"/>
<line x1="1672.0" y1="119.4" x2="1672.0" y2="159.1"/>
<line x1="127.0" y1="1828.3" x2="137.2" y2="1789.9"/>
<line x1="1672.0" y1="159.1" x2="1637.6" y2="178.9"/>
<line x1="137.2" y1="1789.9" x2="175.6" y2="1779.7"/>
<line x1="1637.6" y1="178.9" x2="1637.6" y2="218.6"/>
<line x1="175.6" y1="1779.7" x2="185.8" y2="1741.3"/>
<line x1="1637.6" y1="218.6" x2="1603.2" y2="238.5"/>
<line x1="185.8" y1="1741.3" x2="224.2" y2="1731.1"/>
<line x1="1603.2" y1="238.5" x2="1603.2" y2="278.2"/>
<line x1="224.2" y1="1731.1" x2="234.5" y2="1692.7"/>
<line x1="1603.2" y1="278.2" x2="1568.8" y2="298.0"/>
<line x1="234.5" y1="1692.7" x2="272.8" y2="1682.4"/>
<line x1="1568.8" y1="298.0" x2="1568.8" y2="337.7"/>
<line x1="272.8" y1="1682.4" x2="283.1" y2="1644.1"/>
<line x1="1568.8" y1="337.7" x2="1534.5" y2="357.5"/>
<line x1="1534.5" y1="357.5" x2="1534.5" y2="397.2"/>
<line x1="1534.5" y1="397.2" x2="1500.1" y2="417.1"/>
<line x1="1500.1" y1="417.1" x2="1500.1" y2="456.8"/>
<line x1="1500.1" y1="456.8" x2="1465.7" y2="476.6"/>
<line x1="1465.7" y1="476.6" x2="1465.7" y2="516.3"/>
<line x1="1030.5" y1="857.6" x2="990.8" y2="857.6"/>
<line x1="1030.5" y1="857.6" x2="1050.4" y2="823.2"/>
<line x1="283.1" y1="1644.1" x2="321.4" y2="1633.8"/>
<line x1="990.8" y1="857.6" x2="971.0" y2="892.0"/>
<line x1="1465.7" y1="516.3" x2="1431.3" y2="536.2"/>
<line x1="1050.4" y1="823.2" x2="1090.1" y2="823.2"/>
<line x1="594.6" y1="1201.8" x2="604.8" y2="1240.2"/>
<line x1="594.6" y1="1201.8" x2="622.6" y2="1173.8"/>
<line x1="604.8" y1="1240.2" x2="576.8" y2="1268.2"/>
<line x1="321.4" y1="1633.8" x2="331.7" y2="1595.5"/>
<line x1="971.0" y1="892.0" x2="931.3" y2="892.0"/>
<line x1="622.6" y1="1173.8" x2="612.3" y2="1135.4"/>
<line x1="1431.3" y1="536.2" x2="1431.3" y2="575.8"/>
<line x1="1090.1" y1="823.2" x2="1109.9" y2="788.8"/>
<line x1="576.8" y1="1268.2" x2="587.0" y2="1306.6"/>
<line x1="331.7" y1="1595.5" x2="370.0" y2="1585.2"/>
<line x1="931.3" y1="892.0" x2="911.4" y2="926.3"/>
<line x1="612.3" y1="1135.4" x2="640.4" y2="1107.4"/>
<line x1="1431.3" y1="575.8" x2="1397.0" y2="595.7"/>
<line x1="1109.9" y1="788.8" x2="1149.6" y2="788.8"/>
<line x1="587.0" y1="1306.6" x2="559.0" y2="1334.6"/>
<line x1="370.0" y1="1585.2" x2="380.3" y2="1546.9"/>
<line x1="911.4" y1="926.3" x2="871.8" y2="926.3"/>
<line x1="640.4" y1="1107.4" x2="630.1" y2="1069.0"/>
<line x1="1397.0" y1="595.7" x2="1397.0" y2="635.4"/>
<line x1="1149.6" y1="788.8" x2="1169.4" y2="754.5"/>
<line x1="559.0" y1="1334.6" x2="569.2" y2="1373.0"/>
<line x1="380.3" y1="1546.9" x2="418.6" y2="1536.6"/>
<line x1="871.8" y1="926.3" x2="851.9" y2="960.7"/>
<line x1="630.1" y1="1069.0" x2="658.2" y2="1040.9"/>
<line x1="1397.0" y1="635.4" x2="1362.6" y2="655.2"/>
<line x1="1169.4" y1="754.5" x2="1209.1" y2="754.5"/>
<line x1="569.2" y1="1373.0" x2="541.2" y2="1401.0"/>
<line x1="418.6" y1="1536.6" x2="428.9" y2="1498.3"/>
<line x1="851.9" y1="960.7" x2="812.2" y2="960.7"/>
<line x1="658.2" y1="1040.9" x2="647.9" y2="1002.6"/>
<line x1="1362.6" y1="655.2" x2="1362.6" y2="694.9"/>
<line x1="1209.1" y1="754.5" x2="1229.0" y2="720.1"/>
<line x1="541.2" y1="1401.0" x2="551.4" y2="1439.4"/>
<line x1="428.9" y1="1498.3" x2="467.2" y2="1488.0"/>
<line x1="812.2" y1="960.7" x2="792.4" y2="995.1"/>
<line x1="647.9" y1="1002.6" x2="676.0" y2="974.5"/>
<line x1="1362.6" y1="694.9" x2="1328.2" y2="714.8"/>
<line x1="1229.0" y1="720.1" x2="1268.7" y2="720.1"/>
<line x1="551.4" y1="1439.4" x2="523.4" y2="1467.4"/>
<line x1="467.2" y1="1488.0" x2="495.3" y2="1516.1"/>
<line x1="792.4" y1="995.1" x2="752.7" y2="995.1"/>
<line x1="676.0" y1="974.5" x2="714.3" y2="984.8"/>
<line x1="1328.2" y1="714.8" x2="1328.2" y2="754.5"/>
<line x1="1268.7" y1="720.1" x2="1288.5" y2="754.5"/>
<line x1="523.4" y1="1467.4" x2="533.6" y2="1505.8"/>
<line x1="1448.8" y1="1082.5" x2="1429.0" y2="1048.1"/>
<line x1="1448.8" y1="1082.5" x2="1434.2" y2="1107.9"/>
<line x1="1362.6" y1="853.7" x2="1328.2" y2="873.5"/>
<line x1="1362.6" y1="853.7" x2="1362.6" y2="824.3"/>
<line x1="495.3" y1="1516.1" x2="502.9" y2="1544.4"/>
<line x1="495.3" y1="1516.1" x2="533.6" y2="1505.8"/>
<line x1="752.7" y1="995.1" x2="758.0" y2="1024.0"/>
<line x1="714.3" y1="984.8" x2="693.6" y2="1005.6"/>
<line x1="1328.2" y1="754.5" x2="1357.6" y2="754.5"/>
<line x1="1328.2" y1="754.5" x2="1288.5" y2="754.5"/>
<line x1="1328.2" y1="754.5" x2="1328.2" y2="794.2"/>
<line x1="1288.5" y1="754.5" x2="1263.1" y2="769.1"/>
<line x1="1288.5" y1="754.5" x2="1288.5" y2="783.8"/>
<line x1="533.6" y1="1505.8" x2="562.0" y2="1498.2"/>
<line x1="533.6" y1="1505.8" x2="541.3" y2="1534.2"/>
<line x1="1416.6" y1="1070.3" x2="1415.9" y2="1069.9"/>
<line x1="1419.0" y1="1067.1" x2="1417.6" y2="1066.3"/>
<line x1="1421.3" y1="1063.8" x2="1419.2" y2="1062.6"/>
<line x1="1423.6" y1="1060.6" x2="1420.9" y2="1059.0"/>
<line x1="1426.0" y1="1057.3" x2="1422.5" y2="1055.3"/>
<line x1="1428.3" y1="1054.1" x2="1424.1" y2="1051.7"/>
<line x1="1430.6" y1="1050.9" x2="1425.8" y2="1048.1"/>
<line x1="1307.8" y1="858.4" x2="1308.3" y2="857.8"/>
<line x1="1310.7" y1="861.1" x2="1311.7" y2="859.9"/>
<line x1="1313.6" y1="863.9" x2="1315.1" y2="862.0"/>
<line x1="1316.5" y1="866.6" x2="1318.5" y2="864.1"/>
<line x1="1319.4" y1="869.3" x2="1321.9" y2="866.2"/>
<line x1="1322.3" y1="872.1" x2="1325.3" y2="868.3"/>
<line x1="1325.3" y1="874.8" x2="1328.7" y2="870.4"/>
<polygon points="1476.669204 1051.281191 1466.836382 1026.250245 1459.908179 1030.250245 " />
<line x1="1463.4" y1="1028.3" x2="1492.7" y2="1028.3"/>
<polygon points="1276.110849 832.436221 1286.013134 884.846863 1293.740540 882.776311 " />
<line x1="1289.9" y1="883.8" x2="1261.5" y2="876.2"/>
<line x1="1488.8" y1="988.2" x2="1488.8" y2="989.0"/>
<line x1="1484.8" y1="987.8" x2="1484.8" y2="989.4"/>
<line x1="1480.8" y1="987.4" x2="1480.8" y2="989.8"/>
<line x1="1476.9" y1="987.0" x2="1476.9" y2="990.2"/>
<line x1="1472.9" y1="986.6" x2="1472.9" y2="990.6"/>
<line x1="1468.9" y1="986.2" x2="1468.9" y2="991.0"/>
<line x1="1465.0" y1="985.8" x2="1465.0" y2="991.4"/>
<line x1="1463.4" y1="988.6" x2="1478.1" y2="963.1"/>
<line x1="1255.0" y1="916.0" x2="1255.2" y2="915.2"/>
<line x1="1258.7" y1="917.4" x2="1259.1" y2="915.8"/>
<line x1="1262.4" y1="918.8" x2="1263.0" y2="916.5"/>
<line x1="1266.2" y1="920.2" x2="1267.0" y2="917.1"/>
<line x1="1269.9" y1="921.6" x2="1270.9" y2="917.8"/>
<line x1="1273.6" y1="923.0" x2="1274.9" y2="918.4"/>
<line x1="1277.3" y1="924.4" x2="1278.8" y2="919.0"/>
<line x1="1279.6" y1="922.2" x2="1258.8" y2="942.9"/>
<polygon points="1442.294657 945.680837 1425.533632 966.711783 1432.461836 970.711783 " />
<line x1="1429.0" y1="968.7" x2="1414.3" y2="943.3"/>
<polygon points="1288.865723 969.022801 1310.498839 953.046539 1304.841985 947.389685 " />
<line x1="1307.7" y1="950.2" x2="1315.3" y2="978.6"/>
<line x1="1329.7" y1="796.8" x2="1304.3" y2="811.4"/>
<line x1="1326.7" y1="791.6" x2="1301.3" y2="806.2"/>
<line x1="1328.2" y1="794.2" x2="1353.7" y2="808.8"/>
<polygon points="1373.524871 1004.747245 1397.058233 991.731350 1392.188141 985.384523 " />
<line x1="1394.6" y1="988.6" x2="1387.0" y2="960.2"/>
<polygon points="1352.893231 965.632669 1349.873940 938.909710 1342.146534 940.980263 " />
<line x1="1346.0" y1="939.9" x2="1374.4" y2="947.5"/>
<line x1="752.7" y1="995.1" x2="742.4" y2="956.7"/>
<line x1="742.4" y1="956.7" x2="714.3" y2="984.8"/>
<line x1="714.3" y1="984.8" x2="752.7" y2="995.1"/>
<line x1="1463.4" y1="988.6" x2="1429.0" y2="968.7"/>
<line x1="1429.0" y1="968.7" x2="1394.6" y2="988.6"/>
<line x1="1394.6" y1="988.6" x2="1394.6" y2="1017.9"/>
<line x1="1403.6" y1="1033.4" x2="1429.0" y2="1048.1"/>
<line x1="1429.0" y1="1048.1" x2="1463.4" y2="1028.3"/>
<line x1="1463.4" y1="1028.3" x2="1463.4" y2="988.6"/>
<line x1="1328.2" y1="873.5" x2="1289.9" y2="883.8"/>
<line x1="1289.9" y1="883.8" x2="1279.6" y2="922.2"/>
<line x1="1279.6" y1="922.2" x2="1307.7" y2="950.2"/>
<line x1="1307.7" y1="950.2" x2="1346.0" y2="939.9"/>
<line x1="1346.0" y1="939.9" x2="1353.6" y2="911.6"/>
<line x1="1349.0" y1="894.3" x2="1328.2" y2="873.5"/>
<text x="1648.362130" y="48.320000" fill="rgb(102,102,102)"  stroke="rgb(102,102,102)" stroke-width="1" font-size="16" >H</text>
<text x="1660.362130" y="56.000000" fill="rgb(102,102,102)"  stroke="rgb(102,102,102)" stroke-width="1" font-size="13" >3</text>
<text x="1666.862130" y="48.320000" fill="rgb(102,102,102)"  stroke="rgb(102,102,102)" stroke-width="1" font-size="16" >C</text>
<text x="16.400000" y="1891.972469" fill="rgb(102,102,102)"  stroke="rgb(102,102,102)" stroke-width="1" font-size="16" >H</text>
<text x="28.400000" y="1896.772469" fill="rgb(102,102,102)"  stroke="rgb(102,102,102)" stroke-width="1" font-size="13" >3</text>
<text x="34.900000" y="1891.972469" fill="rgb(102,102,102)"  stroke="rgb(102,102,102)" stroke-width="1" font-size="16" >C</text>
<text x="443.643427" y="1548.929141" fill="rgb(102,102,102)"  stroke="rgb(102,102,102)" stroke-width="1" font-size="16" >H</text>
<text x="455.643427" y="1553.729141" fill="rgb(102,102,102)"  stroke="rgb(102,102,102)" stroke-width="1" font-size="13" >3</text>
<text x="462.143427" y="1548.929141" fill="rgb(102,102,102)"  stroke="rgb(102,102,102)" stroke-width="1" font-size="16" >C</text>
<text x="492.256378" y="1576.995841" fill="rgb(102,102,102)"  stroke="rgb(102,102,102)" stroke-width="1" font-size="16" >H</text>
<text x="504.256378" y="1581.795841" fill="rgb(102,102,102)"  stroke="rgb(102,102,102)" stroke-width="1" font-size="13" >3</text>
<text x="510.756378" y="1576.995841" fill="rgb(102,102,102)"  stroke="rgb(102,102,102)" stroke-width="1" font-size="16" >C</text>
<text x="1413.397734" y="1121.645492" fill="rgb(255,12,12)"  stroke="rgb(255,12,12)" stroke-width="1" font-size="16" >HO</text>
<text x="1282.524354" y="798.953846" fill="rgb(255,12,12)"  stroke="rgb(255,12,12)" stroke-width="1" font-size="16" >OH</text>
<text x="1497.064588" y="1033.050245" fill="rgb(255,12,12)"  stroke="rgb(255,12,12)" stroke-width="1" font-size="16" >OH</text>
<text x="1235.937012" y="881.858462" fill="rgb(255,12,12)"  stroke="rgb(255,12,12)" stroke-width="1" font-size="16" >HO</text>
<text x="1477.218435" y="962.503390" fill="rgb(255,12,12)"  stroke="rgb(255,12,12)" stroke-width="1" font-size="16" >OH</text>
<text x="1235.937012" y="955.018112" fill="rgb(255,12,12)"  stroke="rgb(255,12,12)" stroke-width="1" font-size="16" >HO</text>
<text x="1393.551580" y="942.657236" fill="rgb(255,12,12)"  stroke="rgb(255,12,12)" stroke-width="1" font-size="16" >HO</text>
<text x="1311.943537" y="993.357937" fill="rgb(255,12,12)"  stroke="rgb(255,12,12)" stroke-width="1" font-size="16" >OH</text>
<text x="1290.242115" y="818.800000" fill="rgb(255,12,12)"  stroke="rgb(255,12,12)" stroke-width="1" font-size="16" >O</text>
<text x="537.923078" y="1548.929141" fill="rgb(255,12,12)"  stroke="rgb(255,12,12)" stroke-width="1" font-size="16" >O</text>
<text x="1356.591209" y="822.320000" fill="rgb(255,12,12)"  stroke="rgb(255,12,12)" stroke-width="1" font-size="16" >O</text>
<text x="1391.023187" y="1033.050245" fill="rgb(255,12,12)"  stroke="rgb(255,12,12)" stroke-width="1" font-size="16" >O</text>
<text x="1350.283362" y="909.925161" fill="rgb(255,12,12)"  stroke="rgb(255,12,12)" stroke-width="1" font-size="16" >O</text>
<text x="1378.350062" y="958.538112" fill="rgb(255,12,12)"  stroke="rgb(255,12,12)" stroke-width="1" font-size="16" >O</text>
<text x="499.583252" y="1559.202266" fill="rgb(191,191,191)"  stroke="rgb(191,191,191)" stroke-width="1" font-size="16" >H</text>
<text x="753.842254" y="1038.923802" fill="rgb(191,191,191)"  stroke="rgb(191,191,191)" stroke-width="1" font-size="16" >H</text>
<text x="682.671676" y="1017.676941" fill="rgb(191,191,191)"  stroke="rgb(191,191,191)" stroke-width="1" font-size="16" >H</text>
<text x="1361.908970" y="759.261538" fill="rgb(191,191,191)"  stroke="rgb(191,191,191)" stroke-width="1" font-size="16" >H</text>
<text x="1250.549808" y="779.107692" fill="rgb(191,191,191)"  stroke="rgb(191,191,191)" stroke-width="1" font-size="16" >H</text>
<text x="565.989777" y="1503.836191" fill="rgb(191,191,191)"  stroke="rgb(191,191,191)" stroke-width="1" font-size="16" >H</text>
<text x="1405.551580" y="1087.270945" fill="rgb(191,191,191)"  stroke="rgb(191,191,191)" stroke-width="1" font-size="16" >H</text>
<text x="1293.126637" y="857.695316" fill="rgb(191,191,191)"  stroke="rgb(191,191,191)" stroke-width="1" font-size="16" >H</text>
<text x="1477.218435" y="1067.424791" fill="rgb(191,191,191)"  stroke="rgb(191,191,191)" stroke-width="1" font-size="16" >H</text>
<text x="1265.730587" y="815.451937" fill="rgb(191,191,191)"  stroke="rgb(191,191,191)" stroke-width="1" font-size="16" >H</text>
<text x="1497.064588" y="993.357937" fill="rgb(191,191,191)"  stroke="rgb(191,191,191)" stroke-width="1" font-size="16" >H</text>
<text x="1237.663887" y="920.198287" fill="rgb(191,191,191)"  stroke="rgb(191,191,191)" stroke-width="1" font-size="16" >H</text>
<text x="1442.843888" y="942.657236" fill="rgb(191,191,191)"  stroke="rgb(191,191,191)" stroke-width="1" font-size="16" >H</text>
<text x="1276.003712" y="983.084812" fill="rgb(191,191,191)"  stroke="rgb(191,191,191)" stroke-width="1" font-size="16" >H</text>
<text x="1359.533162" y="1017.521083" fill="rgb(191,191,191)"  stroke="rgb(191,191,191)" stroke-width="1" font-size="16" >H</text>
<text x="1350.283362" y="983.084812" fill="rgb(191,191,191)"  stroke="rgb(191,191,191)" stroke-width="1" font-size="16" >H</text>
<text font-size="18.000000" fill ="black" font-family="sans-serif"
x="140.000000" y="20.000000" ></text>
<title> - OBDepict</title>
</svg>
