<?xml version="1.0"?>
<svg xmlns="http://www.w3.org/2000/svg"
xmlns:xlink="http://www.w3.org/1999/xlink" xmlns:cml="http://www.xml-cml.org/schema" width="762.407" height="770.132" x="0" y="0" font-family="sans-serif" stroke="rgb(0,0,0)" stroke-width="1" >
<line x1="77.6" y1="727.5" x2="50.0" y2="720.1"/>
<line x1="712.4" y1="241.5" x2="683.8" y2="241.5"/>
<line x1="596.4" y1="135.9" x2="567.8" y2="135.9"/>
<line x1="443.2" y1="59.9" x2="415.5" y2="67.3"/>
<line x1="50.0" y1="720.1" x2="40.0" y2="682.8"/>
<line x1="40.0" y1="682.8" x2="67.3" y2="655.5"/>
<line x1="67.3" y1="655.5" x2="57.3" y2="618.1"/>
<line x1="57.3" y1="618.1" x2="84.7" y2="590.8"/>
<line x1="84.7" y1="590.8" x2="74.7" y2="553.5"/>
<line x1="74.7" y1="553.5" x2="102.0" y2="526.1"/>
<line x1="102.0" y1="526.1" x2="92.0" y2="488.8"/>
<line x1="92.0" y1="488.8" x2="119.3" y2="461.5"/>
<line x1="119.3" y1="461.5" x2="109.3" y2="424.1"/>
<line x1="109.3" y1="424.1" x2="136.6" y2="396.8"/>
<line x1="136.6" y1="396.8" x2="126.6" y2="359.5"/>
<line x1="126.6" y1="359.5" x2="154.0" y2="332.1"/>
<line x1="154.0" y1="332.1" x2="144.0" y2="294.8"/>
<line x1="144.0" y1="294.8" x2="171.3" y2="267.5"/>
<line x1="587.1" y1="274.9" x2="625.8" y2="274.9"/>
<line x1="587.1" y1="274.9" x2="567.8" y2="241.5"/>
<line x1="404.2" y1="208.0" x2="442.9" y2="208.0"/>
<line x1="404.2" y1="208.0" x2="389.9" y2="183.2"/>
<line x1="276.2" y1="179.3" x2="313.5" y2="169.3"/>
<line x1="276.2" y1="179.3" x2="256.0" y2="159.1"/>
<line x1="188.6" y1="202.8" x2="178.6" y2="165.5"/>
<line x1="188.6" y1="202.8" x2="168.4" y2="223.0"/>
<line x1="686.4" y1="243.0" x2="672.1" y2="267.7"/>
<line x1="681.2" y1="240.0" x2="666.9" y2="264.7"/>
<line x1="683.8" y1="241.5" x2="669.5" y2="216.7"/>
<line x1="570.4" y1="137.4" x2="556.1" y2="162.1"/>
<line x1="565.2" y1="134.4" x2="550.9" y2="159.1"/>
<line x1="567.8" y1="135.9" x2="553.5" y2="111.1"/>
<line x1="418.4" y1="68.1" x2="411.0" y2="95.7"/>
<line x1="412.6" y1="66.6" x2="405.2" y2="94.2"/>
<line x1="415.5" y1="67.3" x2="395.3" y2="47.1"/>
<polygon points="625.777415 249.032799 621.777415 274.929428 629.777415 274.929428 " />
<line x1="625.8" y1="274.9" x2="625.8" y2="313.6"/>
<line x1="625.8" y1="274.9" x2="654.4" y2="274.9"/>
<polygon points="429.927361 230.409884 446.339777 209.982745 439.411574 205.982745 " />
<polygon points="306.842075 194.345283 317.408319 170.366336 309.680912 168.295784 " />
<polygon points="152.941532 162.089552 178.094508 169.435520 179.138717 161.503961 " />
<line x1="567.8" y1="244.5" x2="539.2" y2="244.5"/>
<line x1="567.8" y1="238.5" x2="539.2" y2="238.5"/>
<line x1="567.8" y1="241.5" x2="582.1" y2="216.7"/>
<line x1="172.1" y1="264.6" x2="199.7" y2="272.0"/>
<line x1="170.5" y1="270.4" x2="198.1" y2="277.8"/>
<line x1="171.3" y1="267.5" x2="163.9" y2="239.8"/>
<line x1="521.8" y1="147.7" x2="522.5" y2="148.1"/>
<line x1="519.6" y1="150.9" x2="521.0" y2="151.7"/>
<line x1="517.3" y1="154.0" x2="519.4" y2="155.2"/>
<line x1="515.0" y1="157.2" x2="517.8" y2="158.8"/>
<line x1="512.7" y1="160.3" x2="516.2" y2="162.3"/>
<line x1="510.4" y1="163.4" x2="514.6" y2="165.8"/>
<line x1="508.2" y1="166.6" x2="513.0" y2="169.4"/>
<line x1="509.8" y1="169.3" x2="538.4" y2="169.3"/>
<line x1="374.2" y1="90.7" x2="375.0" y2="90.9"/>
<line x1="372.8" y1="94.3" x2="374.4" y2="94.7"/>
<line x1="371.4" y1="97.9" x2="373.8" y2="98.6"/>
<line x1="370.1" y1="101.6" x2="373.2" y2="102.4"/>
<line x1="368.7" y1="105.2" x2="372.5" y2="106.2"/>
<line x1="367.3" y1="108.8" x2="371.9" y2="110.1"/>
<line x1="365.9" y1="112.5" x2="371.3" y2="113.9"/>
<line x1="368.2" y1="114.7" x2="395.8" y2="107.3"/>
<line x1="116.6" y1="157.1" x2="116.2" y2="156.4"/>
<line x1="123.5" y1="153.6" x2="122.7" y2="152.2"/>
<line x1="130.4" y1="150.0" x2="129.2" y2="148.0"/>
<line x1="137.3" y1="146.5" x2="135.7" y2="143.8"/>
<line x1="144.2" y1="143.0" x2="142.2" y2="139.5"/>
<line x1="151.1" y1="139.5" x2="148.7" y2="135.3"/>
<line x1="158.0" y1="136.0" x2="155.2" y2="131.1"/>
<line x1="159.3" y1="132.0" x2="134.5" y2="117.7"/>
<polygon points="450.452388 105.150940 472.884915 152.005217 479.813119 148.005217 " />
<line x1="476.3" y1="150.0" x2="490.7" y2="125.2"/>
<polygon points="294.248328 68.042166 328.043265 107.493957 333.700119 101.837103 " />
<line x1="330.9" y1="104.7" x2="338.3" y2="77.0"/>
<polygon points="156.189474 85.574743 176.616612 101.987159 180.616612 95.058956 " />
<line x1="178.6" y1="98.5" x2="178.6" y2="69.9"/>
<polygon points="217.268298 72.626428 213.268298 98.523057 221.268298 98.523057 " />
<line x1="217.3" y1="98.5" x2="242.0" y2="84.2"/>
<line x1="445.7" y1="144.8" x2="446.5" y2="144.9"/>
<line x1="444.8" y1="148.5" x2="446.4" y2="148.7"/>
<line x1="443.9" y1="152.3" x2="446.3" y2="152.6"/>
<line x1="443.0" y1="156.1" x2="446.2" y2="156.5"/>
<line x1="442.1" y1="159.9" x2="446.1" y2="160.4"/>
<line x1="441.2" y1="163.7" x2="446.0" y2="164.3"/>
<line x1="440.3" y1="167.4" x2="445.9" y2="168.2"/>
<line x1="442.9" y1="169.3" x2="415.2" y2="176.7"/>
<line x1="299.9" y1="107.5" x2="300.7" y2="107.4"/>
<line x1="300.0" y1="111.4" x2="301.6" y2="111.2"/>
<line x1="300.1" y1="115.3" x2="302.5" y2="115.0"/>
<line x1="300.2" y1="119.2" x2="303.4" y2="118.8"/>
<line x1="300.3" y1="123.1" x2="304.3" y2="122.5"/>
<line x1="300.5" y1="126.9" x2="305.2" y2="126.3"/>
<line x1="300.6" y1="130.8" x2="306.1" y2="130.1"/>
<line x1="303.5" y1="132.0" x2="278.8" y2="146.3"/>
<line x1="627.3" y1="316.2" x2="602.5" y2="330.5"/>
<line x1="624.3" y1="311.0" x2="599.5" y2="325.3"/>
<line x1="625.8" y1="313.6" x2="650.5" y2="327.9"/>
<line x1="509.8" y1="208.0" x2="538.4" y2="208.0"/>
<line x1="509.8" y1="208.0" x2="524.1" y2="232.8"/>
<polygon points="403.224369 145.301443 377.174869 148.140280 379.245422 155.867687 " />
<line x1="378.2" y1="152.0" x2="398.4" y2="172.2"/>
<polygon points="259.021279 119.048084 234.594140 128.532297 238.594140 135.460500 " />
<line x1="236.6" y1="132.0" x2="261.4" y2="146.3"/>
<line x1="442.9" y1="208.0" x2="442.9" y2="169.3"/>
<line x1="442.9" y1="169.3" x2="476.3" y2="150.0"/>
<line x1="476.3" y1="150.0" x2="509.8" y2="169.3"/>
<line x1="509.8" y1="169.3" x2="509.8" y2="208.0"/>
<line x1="509.8" y1="208.0" x2="485.1" y2="222.3"/>
<line x1="467.6" y1="222.3" x2="442.9" y2="208.0"/>
<line x1="313.5" y1="169.3" x2="303.5" y2="132.0"/>
<line x1="303.5" y1="132.0" x2="330.9" y2="104.7"/>
<line x1="330.9" y1="104.7" x2="368.2" y2="114.7"/>
<line x1="368.2" y1="114.7" x2="378.2" y2="152.0"/>
<line x1="378.2" y1="152.0" x2="358.0" y2="172.2"/>
<line x1="341.2" y1="176.7" x2="313.5" y2="169.3"/>
<line x1="178.6" y1="165.5" x2="159.3" y2="132.0"/>
<line x1="159.3" y1="132.0" x2="178.6" y2="98.5"/>
<line x1="178.6" y1="98.5" x2="217.3" y2="98.5"/>
<line x1="217.3" y1="98.5" x2="236.6" y2="132.0"/>
<line x1="236.6" y1="132.0" x2="222.3" y2="156.8"/>
<line x1="207.2" y1="165.5" x2="178.6" y2="165.5"/>
<text x="81.338453" y="734.932434" fill="rgb(102,102,102)"  stroke="rgb(102,102,102)" stroke-width="1" font-size="16" >CH</text>
<text x="105.338453" y="739.732434" fill="rgb(102,102,102)"  stroke="rgb(102,102,102)" stroke-width="1" font-size="13" >3</text>
<text x="716.406628" y="246.256087" fill="rgb(102,102,102)"  stroke="rgb(102,102,102)" stroke-width="1" font-size="16" >CH</text>
<text x="740.406628" y="251.056087" fill="rgb(102,102,102)"  stroke="rgb(102,102,102)" stroke-width="1" font-size="13" >3</text>
<text x="600.451572" y="144.177719" fill="rgb(102,102,102)"  stroke="rgb(102,102,102)" stroke-width="1" font-size="16" >CH</text>
<text x="624.451572" y="151.857719" fill="rgb(102,102,102)"  stroke="rgb(102,102,102)" stroke-width="1" font-size="13" >3</text>
<text x="446.879468" y="65.647077" fill="rgb(102,102,102)"  stroke="rgb(102,102,102)" stroke-width="1" font-size="16" >CH</text>
<text x="470.879468" y="73.327077" fill="rgb(102,102,102)"  stroke="rgb(102,102,102)" stroke-width="1" font-size="13" >3</text>
<text x="576.704073" y="337.706956" fill="rgb(12,12,255)"  stroke="rgb(12,12,255)" stroke-width="1" font-size="16" >HN</text>
<text x="658.429100" y="279.729428" fill="rgb(12,12,255)"  stroke="rgb(12,12,255)" stroke-width="1" font-size="16" >N</text>
<text x="542.474044" y="174.131060" fill="rgb(12,12,255)"  stroke="rgb(12,12,255)" stroke-width="1" font-size="16" >N</text>
<text x="399.541014" y="109.465530" fill="rgb(12,12,255)"  stroke="rgb(12,12,255)" stroke-width="1" font-size="16" >N</text>
<text x="525.548201" y="246.256087" fill="rgb(12,12,255)"  stroke="rgb(12,12,255)" stroke-width="1" font-size="16" >N</text>
<text x="369.298148" y="182.829404" fill="rgb(255,12,12)"  stroke="rgb(255,12,12)" stroke-width="1" font-size="16" >HO</text>
<text x="233.279086" y="160.323983" fill="rgb(255,12,12)"  stroke="rgb(255,12,12)" stroke-width="1" font-size="16" >HO</text>
<text x="648.829100" y="216.302745" fill="rgb(255,12,12)"  stroke="rgb(255,12,12)" stroke-width="1" font-size="16" >HO</text>
<text x="532.874044" y="110.704377" fill="rgb(255,12,12)"  stroke="rgb(255,12,12)" stroke-width="1" font-size="16" >HO</text>
<text x="372.613938" y="48.320000" fill="rgb(255,12,12)"  stroke="rgb(255,12,12)" stroke-width="1" font-size="16" >HO</text>
<text x="581.125729" y="216.302745" fill="rgb(255,12,12)"  stroke="rgb(255,12,12)" stroke-width="1" font-size="16" >OH</text>
<text x="202.627989" y="282.273724" fill="rgb(255,12,12)"  stroke="rgb(255,12,12)" stroke-width="1" font-size="16" >O</text>
<text x="110.217428" y="120.990556" fill="rgb(255,12,12)"  stroke="rgb(255,12,12)" stroke-width="1" font-size="16" >HO</text>
<text x="489.674860" y="124.851876" fill="rgb(255,12,12)"  stroke="rgb(255,12,12)" stroke-width="1" font-size="16" >OH</text>
<text x="334.875484" y="75.650869" fill="rgb(255,12,12)"  stroke="rgb(255,12,12)" stroke-width="1" font-size="16" >OH</text>
<text x="172.616612" y="68.191372" fill="rgb(255,12,12)"  stroke="rgb(255,12,12)" stroke-width="1" font-size="16" >OH</text>
<text x="244.741639" y="87.517215" fill="rgb(255,12,12)"  stroke="rgb(255,12,12)" stroke-width="1" font-size="16" >OH</text>
<text x="653.250756" y="337.706956" fill="rgb(255,12,12)"  stroke="rgb(255,12,12)" stroke-width="1" font-size="16" >OH</text>
<text x="157.689536" y="238.455270" fill="rgb(255,12,12)"  stroke="rgb(255,12,12)" stroke-width="1" font-size="16" >O</text>
<text x="470.349017" y="232.108588" fill="rgb(255,12,12)"  stroke="rgb(255,12,12)" stroke-width="1" font-size="16" >O</text>
<text x="344.879277" y="184.134852" fill="rgb(255,12,12)"  stroke="rgb(255,12,12)" stroke-width="1" font-size="16" >O</text>
<text x="211.268298" y="170.269740" fill="rgb(255,12,12)"  stroke="rgb(255,12,12)" stroke-width="1" font-size="16" >O</text>
<text x="401.941014" y="184.134852" fill="rgb(255,12,12)"  stroke="rgb(255,12,12)" stroke-width="1" font-size="16" >O</text>
<text x="264.067482" y="156.122242" fill="rgb(255,12,12)"  stroke="rgb(255,12,12)" stroke-width="1" font-size="16" >O</text>
<text x="619.777415" y="244.597743" fill="rgb(191,191,191)"  stroke="rgb(191,191,191)" stroke-width="1" font-size="16" >H</text>
<text x="419.949833" y="246.256087" fill="rgb(191,191,191)"  stroke="rgb(191,191,191)" stroke-width="1" font-size="16" >H</text>
<text x="299.940823" y="211.465721" fill="rgb(191,191,191)"  stroke="rgb(191,191,191)" stroke-width="1" font-size="16" >H</text>
<text x="136.695597" y="168.744683" fill="rgb(191,191,191)"  stroke="rgb(191,191,191)" stroke-width="1" font-size="16" >H</text>
<text x="523.148201" y="144.177719" fill="rgb(191,191,191)"  stroke="rgb(191,191,191)" stroke-width="1" font-size="16" >H</text>
<text x="372.210146" y="85.654661" fill="rgb(191,191,191)"  stroke="rgb(191,191,191)" stroke-width="1" font-size="16" >H</text>
<text x="88.744087" y="175.448084" fill="rgb(191,191,191)"  stroke="rgb(191,191,191)" stroke-width="1" font-size="16" >H</text>
<text x="434.097332" y="91.378534" fill="rgb(191,191,191)"  stroke="rgb(191,191,191)" stroke-width="1" font-size="16" >H</text>
<text x="272.609954" y="58.323792" fill="rgb(191,191,191)"  stroke="rgb(191,191,191)" stroke-width="1" font-size="16" >H</text>
<text x="141.543271" y="87.517215" fill="rgb(191,191,191)"  stroke="rgb(191,191,191)" stroke-width="1" font-size="16" >H</text>
<text x="211.268298" y="68.191372" fill="rgb(191,191,191)"  stroke="rgb(191,191,191)" stroke-width="1" font-size="16" >H</text>
<text x="441.920733" y="139.330045" fill="rgb(191,191,191)"  stroke="rgb(191,191,191)" stroke-width="1" font-size="16" >H</text>
<text x="294.895766" y="101.995384" fill="rgb(191,191,191)"  stroke="rgb(191,191,191)" stroke-width="1" font-size="16" >H</text>
<text x="542.474044" y="212.782745" fill="rgb(191,191,191)"  stroke="rgb(191,191,191)" stroke-width="1" font-size="16" >H</text>
<text x="409.544807" y="150.320191" fill="rgb(191,191,191)"  stroke="rgb(191,191,191)" stroke-width="1" font-size="16" >H</text>
<text x="264.067482" y="120.990556" fill="rgb(191,191,191)"  stroke="rgb(191,191,191)" stroke-width="1" font-size="16" >H</text>
<text font-size="18.000000" fill ="black" font-family="sans-serif"
x="140.000000" y="20.000000" ></text>
<title> - OBDepict</title>
</svg>
