<?xml version="1.0"?>
<svg xmlns="http://www.w3.org/2000/svg"
xmlns:xlink="http://www.w3.org/1999/xlink" xmlns:cml="http://www.xml-cml.org/schema" width="373.838" height="192.215" x="0" y="0" font-family="sans-serif" stroke="rgb(0,0,0)" stroke-width="1" >
<line x1="45.3" y1="53.2" x2="59.3" y2="77.7"/>
<line x1="324.6" y1="103.1" x2="307.5" y2="113.0"/>
<line x1="59.3" y1="77.7" x2="87.4" y2="77.9"/>
<line x1="61.8" y1="79.2" x2="47.6" y2="103.5"/>
<line x1="56.7" y1="76.2" x2="42.4" y2="100.5"/>
<line x1="262.6" y1="97.7" x2="288.9" y2="113.0"/>
<line x1="162.9" y1="116.5" x2="177.9" y2="142.9"/>
<line x1="130.4" y1="59.2" x2="154.8" y2="45.3"/>
<line x1="171.9" y1="45.3" x2="196.0" y2="59.2"/>
<line x1="196.0" y1="59.2" x2="196.0" y2="97.7"/>
<line x1="188.8" y1="65.2" x2="188.8" y2="91.7"/>
<line x1="196.0" y1="97.7" x2="162.9" y2="116.5"/>
<line x1="162.9" y1="116.5" x2="130.4" y2="59.2"/>
<line x1="97.3" y1="116.4" x2="129.8" y2="135.2"/>
<line x1="129.8" y1="135.2" x2="162.9" y2="116.5"/>
<line x1="130.4" y1="59.2" x2="105.9" y2="73.1"/>
<line x1="97.3" y1="88.0" x2="97.3" y2="116.4"/>
<line x1="229.3" y1="40.0" x2="262.6" y2="59.3"/>
<line x1="230.9" y1="49.2" x2="253.8" y2="62.5"/>
<line x1="262.6" y1="59.3" x2="262.6" y2="97.7"/>
<line x1="262.6" y1="97.7" x2="229.3" y2="116.9"/>
<line x1="253.8" y1="94.5" x2="230.9" y2="107.7"/>
<line x1="229.3" y1="116.9" x2="196.0" y2="97.7"/>
<line x1="196.0" y1="59.2" x2="229.3" y2="40.0"/>
<text x="16.863391" y="52.952980" fill="rgb(102,102,102)"  stroke="rgb(102,102,102)" stroke-width="1" font-size="16" >H</text>
<text x="28.863391" y="60.632980" fill="rgb(102,102,102)"  stroke="rgb(102,102,102)" stroke-width="1" font-size="13" >3</text>
<text x="35.363391" y="52.952980" fill="rgb(102,102,102)"  stroke="rgb(102,102,102)" stroke-width="1" font-size="16" >C</text>
<text x="327.837723" y="106.110850" fill="rgb(102,102,102)"  stroke="rgb(102,102,102)" stroke-width="1" font-size="16" >CH</text>
<text x="351.837723" y="113.790850" fill="rgb(102,102,102)"  stroke="rgb(102,102,102)" stroke-width="1" font-size="13" >3</text>
<text x="157.446182" y="48.726523" fill="rgb(12,12,255)"  stroke="rgb(12,12,255)" stroke-width="1" font-size="16" >NH</text>
<text x="91.296179" y="86.300483" fill="rgb(12,12,255)"  stroke="rgb(12,12,255)" stroke-width="1" font-size="16" >N</text>
<text x="36.400000" y="115.325369" fill="rgb(255,12,12)"  stroke="rgb(255,12,12)" stroke-width="1" font-size="16" >O</text>
<text x="177.223427" y="157.015368" fill="rgb(255,12,12)"  stroke="rgb(255,12,12)" stroke-width="1" font-size="16" >OH</text>
<text x="292.202927" y="123.124243" fill="rgb(255,12,12)"  stroke="rgb(255,12,12)" stroke-width="1" font-size="16" >O</text>
<text font-size="18.000000" fill ="black" font-family="sans-serif"
x="140.000000" y="20.000000" ></text>
<title> - OBDepict</title>
</svg>
