<?xml version="1.0"?>
<svg xmlns="http://www.w3.org/2000/svg"
xmlns:xlink="http://www.w3.org/1999/xlink" xmlns:cml="http://www.xml-cml.org/schema" width="891.235" height="442.788" x="0" y="0" font-family="sans-serif" stroke="rgb(0,0,0)" stroke-width="1" >
<line x1="132.0" y1="196.5" x2="154.3" y2="211.4"/>
<line x1="242.5" y1="307.0" x2="227.6" y2="284.7"/>
<line x1="227.4" y1="216.7" x2="202.0" y2="208.1"/>
<line x1="207.3" y1="234.4" x2="202.0" y2="208.1"/>
<polygon points="165.552442 236.975686 177.151707 215.249376 169.576266 212.677860 " />
<polygon points="276.628201 258.918486 300.378719 265.436799 301.214947 257.480624 " />
<line x1="179.7" y1="266.8" x2="179.2" y2="267.4"/>
<line x1="177.3" y1="264.1" x2="176.2" y2="265.3"/>
<line x1="174.8" y1="261.4" x2="173.2" y2="263.2"/>
<line x1="172.3" y1="258.7" x2="170.2" y2="261.1"/>
<line x1="169.9" y1="256.0" x2="167.2" y2="259.0"/>
<line x1="167.4" y1="253.3" x2="164.3" y2="257.0"/>
<line x1="165.0" y1="250.7" x2="161.3" y2="254.9"/>
<line x1="166.3" y1="287.3" x2="166.9" y2="287.8"/>
<line x1="163.7" y1="289.8" x2="164.9" y2="290.8"/>
<line x1="161.1" y1="292.4" x2="162.9" y2="293.9"/>
<line x1="158.5" y1="294.9" x2="161.0" y2="297.0"/>
<line x1="155.9" y1="297.5" x2="159.0" y2="300.0"/>
<line x1="153.3" y1="300.1" x2="157.0" y2="303.1"/>
<line x1="150.7" y1="302.6" x2="155.0" y2="306.2"/>
<line x1="291.4" y1="189.5" x2="327.5" y2="185.7"/>
<line x1="291.4" y1="189.5" x2="276.6" y2="222.6"/>
<line x1="189.3" y1="247.6" x2="80.2" y2="343.3"/>
<line x1="189.3" y1="247.6" x2="182.2" y2="212.1"/>
<line x1="230.3" y1="131.1" x2="264.7" y2="119.5"/>
<line x1="230.3" y1="131.1" x2="202.0" y2="273.4"/>
<line x1="327.5" y1="185.7" x2="342.2" y2="152.6"/>
<line x1="80.2" y1="343.3" x2="87.3" y2="378.9"/>
<line x1="264.7" y1="119.5" x2="271.8" y2="83.9"/>
<line x1="225.0" y1="257.2" x2="201.1" y2="229.9"/>
<line x1="225.0" y1="257.2" x2="367.3" y2="228.9"/>
<line x1="201.1" y1="229.9" x2="165.6" y2="237.0"/>
<line x1="454.1" y1="200.2" x2="169.5" y2="256.8"/>
<line x1="454.1" y1="200.2" x2="478.0" y2="227.5"/>
<line x1="291.4" y1="292.1" x2="327.5" y2="295.8"/>
<line x1="291.4" y1="292.1" x2="276.6" y2="258.9"/>
<line x1="189.3" y1="233.9" x2="134.7" y2="186.1"/>
<line x1="189.3" y1="233.9" x2="182.2" y2="269.5"/>
<line x1="299.7" y1="219.8" x2="299.8" y2="220.6"/>
<line x1="296.0" y1="219.8" x2="296.2" y2="221.4"/>
<line x1="292.4" y1="219.8" x2="292.6" y2="222.2"/>
<line x1="288.7" y1="219.8" x2="289.1" y2="222.9"/>
<line x1="285.1" y1="219.7" x2="285.5" y2="223.7"/>
<line x1="281.4" y1="219.7" x2="281.9" y2="224.5"/>
<line x1="277.8" y1="219.7" x2="278.4" y2="225.3"/>
<polygon points="163.927588 228.086187 184.836001 215.070283 179.561234 209.055565 " />
<polygon points="225.034863 265.634495 200.737038 269.658319 203.308553 277.233760 " />
<line x1="185.1" y1="274.0" x2="184.5" y2="274.5"/>
<line x1="183.0" y1="271.0" x2="181.8" y2="272.1"/>
<line x1="180.9" y1="268.0" x2="179.1" y2="269.6"/>
<line x1="178.8" y1="265.0" x2="176.4" y2="267.1"/>
<line x1="176.7" y1="262.0" x2="173.7" y2="264.7"/>
<line x1="174.6" y1="259.0" x2="171.0" y2="262.2"/>
<line x1="172.6" y1="256.0" x2="168.3" y2="259.7"/>
<line x1="327.5" y1="295.8" x2="343.2" y2="274.1"/>
<line x1="330.2" y1="294.6" x2="341.1" y2="319.1"/>
<line x1="324.7" y1="297.1" x2="335.6" y2="321.6"/>
<line x1="131.8" y1="185.5" x2="137.0" y2="159.2"/>
<line x1="137.7" y1="186.7" x2="142.9" y2="160.4"/>
<line x1="134.7" y1="186.1" x2="109.3" y2="194.7"/>
<line x1="339.8" y1="154.3" x2="324.0" y2="132.6"/>
<line x1="344.6" y1="150.8" x2="328.9" y2="129.1"/>
<line x1="342.2" y1="152.6" x2="368.9" y2="149.8"/>
<line x1="89.2" y1="381.1" x2="69.1" y2="398.8"/>
<line x1="85.3" y1="376.6" x2="65.1" y2="394.3"/>
<line x1="87.3" y1="378.9" x2="112.7" y2="387.5"/>
<line x1="270.8" y1="81.1" x2="296.2" y2="72.4"/>
<line x1="272.7" y1="86.8" x2="298.1" y2="78.1"/>
<line x1="271.8" y1="83.9" x2="251.6" y2="66.2"/>
<line x1="364.5" y1="227.9" x2="373.1" y2="202.5"/>
<line x1="370.2" y1="229.8" x2="378.8" y2="204.4"/>
<line x1="367.3" y1="228.9" x2="385.0" y2="249.0"/>
<line x1="477.4" y1="224.5" x2="503.7" y2="219.3"/>
<line x1="478.6" y1="230.4" x2="504.9" y2="225.2"/>
<line x1="478.0" y1="227.5" x2="469.4" y2="252.9"/>
<polygon points="135.444464 285.459174 156.822756 273.230350 151.775468 267.023507 " />
<line x1="842.3" y1="156.3" x2="817.0" y2="143.4"/>
<polygon points="838.597425 129.395600 814.841552 140.053391 819.198665 146.762755 " />
<line x1="815.5" y1="190.8" x2="815.0" y2="191.4"/>
<line x1="812.7" y1="188.0" x2="811.7" y2="189.3"/>
<line x1="810.0" y1="185.3" x2="808.5" y2="187.2"/>
<line x1="807.3" y1="182.6" x2="805.2" y2="185.1"/>
<line x1="804.5" y1="179.9" x2="802.0" y2="183.0"/>
<line x1="801.8" y1="177.1" x2="798.8" y2="180.9"/>
<line x1="799.1" y1="174.4" x2="795.5" y2="178.8"/>
<line x1="796.1" y1="175.6" x2="791.7" y2="203.7"/>
<line x1="750.6" y1="188.8" x2="749.8" y2="188.5"/>
<line x1="752.3" y1="185.3" x2="750.8" y2="184.7"/>
<line x1="754.1" y1="181.9" x2="751.8" y2="181.0"/>
<line x1="755.8" y1="178.4" x2="752.8" y2="177.3"/>
<line x1="757.6" y1="175.0" x2="753.8" y2="173.6"/>
<line x1="759.3" y1="171.6" x2="754.8" y2="169.8"/>
<line x1="761.1" y1="168.1" x2="755.8" y2="166.1"/>
<line x1="759.0" y1="165.7" x2="730.9" y2="170.1"/>
<line x1="586.8" y1="117.6" x2="562.2" y2="131.8"/>
<polygon points="756.769073 101.600077 753.004885 127.363634 761.004549 127.290361 " />
<line x1="757.0" y1="127.3" x2="701.4" y2="139.1"/>
<line x1="182.2" y1="269.5" x2="202.0" y2="273.4"/>
<line x1="202.0" y1="273.4" x2="208.5" y2="292.6"/>
<line x1="208.5" y1="292.6" x2="193.3" y2="292.6"/>
<line x1="183.0" y1="290.5" x2="168.9" y2="284.7"/>
<line x1="168.9" y1="284.7" x2="182.2" y2="269.5"/>
<line x1="146.4" y1="230.5" x2="165.6" y2="237.0"/>
<line x1="165.6" y1="237.0" x2="169.5" y2="256.8"/>
<line x1="169.5" y1="256.8" x2="154.3" y2="270.1"/>
<line x1="154.3" y1="270.1" x2="148.5" y2="256.0"/>
<line x1="146.4" y1="245.7" x2="146.4" y2="230.5"/>
<line x1="153.6" y1="241.8" x2="153.6" y2="236.5"/>
<line x1="182.2" y1="212.1" x2="168.9" y2="196.9"/>
<line x1="168.9" y1="196.9" x2="183.0" y2="191.0"/>
<line x1="193.3" y1="189.0" x2="208.5" y2="189.0"/>
<line x1="197.2" y1="196.2" x2="202.5" y2="196.2"/>
<line x1="208.5" y1="189.0" x2="202.0" y2="208.1"/>
<line x1="202.0" y1="208.1" x2="182.2" y2="212.1"/>
<line x1="276.6" y1="222.6" x2="242.1" y2="211.4"/>
<line x1="242.1" y1="211.4" x2="226.4" y2="233.2"/>
<line x1="226.4" y1="248.4" x2="242.1" y2="270.1"/>
<line x1="233.6" y1="246.1" x2="244.4" y2="261.0"/>
<line x1="242.1" y1="270.1" x2="276.6" y2="258.9"/>
<line x1="276.6" y1="258.9" x2="276.6" y2="222.6"/>
<line x1="666.3" y1="178.4" x2="677.8" y2="152.4"/>
<line x1="674.5" y1="136.6" x2="653.3" y2="117.6"/>
<line x1="653.3" y1="117.6" x2="620.1" y2="136.8"/>
<line x1="620.1" y1="136.8" x2="626.0" y2="164.6"/>
<line x1="638.0" y1="175.4" x2="666.3" y2="178.4"/>
<line x1="640.9" y1="168.5" x2="661.0" y2="170.6"/>
<line x1="817.0" y1="143.4" x2="796.1" y2="175.6"/>
<line x1="796.1" y1="175.6" x2="759.0" y2="165.7"/>
<line x1="759.0" y1="165.7" x2="757.0" y2="127.3"/>
<line x1="757.0" y1="127.3" x2="783.5" y2="117.1"/>
<line x1="799.1" y1="121.3" x2="817.0" y2="143.4"/>
<line x1="653.3" y1="117.6" x2="653.3" y2="89.2"/>
<line x1="646.1" y1="111.6" x2="646.1" y2="91.3"/>
<line x1="644.7" y1="74.2" x2="620.1" y2="60.0"/>
<line x1="620.1" y1="60.0" x2="595.5" y2="74.2"/>
<line x1="618.5" y1="69.2" x2="601.0" y2="79.4"/>
<line x1="586.8" y1="89.2" x2="586.8" y2="117.6"/>
<line x1="586.8" y1="117.6" x2="620.1" y2="136.8"/>
<line x1="595.6" y1="114.4" x2="618.5" y2="127.6"/>
<line x1="227.6" y1="196.9" x2="208.5" y2="189.0"/>
<line x1="168.9" y1="196.9" x2="154.3" y2="211.4"/>
<line x1="169.7" y1="206.2" x2="163.6" y2="212.3"/>
<line x1="154.3" y1="211.4" x2="146.4" y2="230.5"/>
<line x1="154.3" y1="270.1" x2="168.9" y2="284.7"/>
<line x1="208.5" y1="292.6" x2="227.6" y2="284.7"/>
<line x1="211.3" y1="283.6" x2="219.3" y2="280.3"/>
<line x1="227.6" y1="284.7" x2="242.1" y2="270.1"/>
<line x1="242.1" y1="211.4" x2="227.6" y2="196.9"/>
<line x1="232.8" y1="212.3" x2="226.7" y2="206.2"/>
<text x="100.540643" y="199.607516" fill="rgb(102,102,102)"  stroke="rgb(102,102,102)" stroke-width="1" font-size="16" >H</text>
<text x="112.540643" y="207.287516" fill="rgb(102,102,102)"  stroke="rgb(102,102,102)" stroke-width="1" font-size="13" >3</text>
<text x="119.040643" y="199.607516" fill="rgb(102,102,102)"  stroke="rgb(102,102,102)" stroke-width="1" font-size="16" >C</text>
<text x="241.710966" y="319.657839" fill="rgb(102,102,102)"  stroke="rgb(102,102,102)" stroke-width="1" font-size="16" >CH</text>
<text x="265.710966" y="324.457839" fill="rgb(102,102,102)"  stroke="rgb(102,102,102)" stroke-width="1" font-size="13" >3</text>
<text x="230.369166" y="224.578672" fill="rgb(102,102,102)"  stroke="rgb(102,102,102)" stroke-width="1" font-size="16" >CH</text>
<text x="254.369166" y="229.378672" fill="rgb(102,102,102)"  stroke="rgb(102,102,102)" stroke-width="1" font-size="13" >3</text>
<text x="203.098972" y="248.493990" fill="rgb(102,102,102)"  stroke="rgb(102,102,102)" stroke-width="1" font-size="16" >CH</text>
<text x="227.098972" y="253.293990" fill="rgb(102,102,102)"  stroke="rgb(102,102,102)" stroke-width="1" font-size="13" >3</text>
<text x="171.211464" y="210.949316" fill="rgb(102,102,102)"  stroke="rgb(102,102,102)" stroke-width="1" font-size="16" >CH</text>
<text x="195.211464" y="218.629316" fill="rgb(102,102,102)"  stroke="rgb(102,102,102)" stroke-width="1" font-size="13" >3</text>
<text x="306.700786" y="267.509867" fill="rgb(102,102,102)"  stroke="rgb(102,102,102)" stroke-width="1" font-size="16" >CH</text>
<text x="330.700786" y="272.309867" fill="rgb(102,102,102)"  stroke="rgb(102,102,102)" stroke-width="1" font-size="13" >3</text>
<text x="131.328424" y="253.907447" fill="rgb(102,102,102)"  stroke="rgb(102,102,102)" stroke-width="1" font-size="16" >H</text>
<text x="143.328424" y="261.587447" fill="rgb(102,102,102)"  stroke="rgb(102,102,102)" stroke-width="1" font-size="13" >3</text>
<text x="149.828424" y="253.907447" fill="rgb(102,102,102)"  stroke="rgb(102,102,102)" stroke-width="1" font-size="16" >C</text>
<text x="122.387605" y="317.640636" fill="rgb(102,102,102)"  stroke="rgb(102,102,102)" stroke-width="1" font-size="16" >H</text>
<text x="134.387605" y="322.440636" fill="rgb(102,102,102)"  stroke="rgb(102,102,102)" stroke-width="1" font-size="13" >3</text>
<text x="140.887605" y="317.640636" fill="rgb(102,102,102)"  stroke="rgb(102,102,102)" stroke-width="1" font-size="16" >C</text>
<text x="343.973370" y="260.101249" fill="rgb(12,12,255)"  stroke="rgb(12,12,255)" stroke-width="1" font-size="32" >-</text>
<text x="342.773370" y="274.821249" fill="rgb(12,12,255)"  stroke="rgb(12,12,255)" stroke-width="1" font-size="16" >NH</text>
<text x="135.810582" y="158.843449" fill="rgb(12,12,255)"  stroke="rgb(12,12,255)" stroke-width="1" font-size="16" >NH</text>
<text x="217.212437" y="249.102845" fill="rgb(12,12,255)"  stroke="rgb(12,12,255)" stroke-width="1" font-size="16" >N</text>
<text x="184.311365" y="197.299771" fill="rgb(12,12,255)"  stroke="rgb(12,12,255)" stroke-width="1" font-size="16" >N</text>
<text x="142.812564" y="255.887117" fill="rgb(12,12,255)"  stroke="rgb(12,12,255)" stroke-width="1" font-size="16" >N</text>
<text x="172.311365" y="297.385918" fill="rgb(12,12,255)"  stroke="rgb(12,12,255)" stroke-width="1" font-size="16" >HN</text>
<text x="336.206505" y="333.780798" fill="rgb(255,12,12)"  stroke="rgb(255,12,12)" stroke-width="1" font-size="16" >O</text>
<text x="95.588036" y="216.956810" fill="rgb(255,12,12)"  stroke="rgb(255,12,12)" stroke-width="1" font-size="32" >-</text>
<text x="96.788036" y="202.556810" fill="rgb(255,12,12)"  stroke="rgb(255,12,12)" stroke-width="1" font-size="16" >O</text>
<text x="317.286780" y="131.560808" fill="rgb(255,12,12)"  stroke="rgb(255,12,12)" stroke-width="1" font-size="16" >O</text>
<text x="373.479090" y="142.393510" fill="rgb(255,12,12)"  stroke="rgb(255,12,12)" stroke-width="1" font-size="32" >-</text>
<text x="372.279090" y="157.113510" fill="rgb(255,12,12)"  stroke="rgb(255,12,12)" stroke-width="1" font-size="16" >O</text>
<text x="56.400000" y="407.588195" fill="rgb(255,12,12)"  stroke="rgb(255,12,12)" stroke-width="1" font-size="16" >O</text>
<text x="116.816564" y="409.731899" fill="rgb(255,12,12)"  stroke="rgb(255,12,12)" stroke-width="1" font-size="32" >-</text>
<text x="115.616564" y="395.331899" fill="rgb(255,12,12)"  stroke="rgb(255,12,12)" stroke-width="1" font-size="16" >O</text>
<text x="300.096417" y="80.576297" fill="rgb(255,12,12)"  stroke="rgb(255,12,12)" stroke-width="1" font-size="16" >O</text>
<text x="239.679852" y="53.600000" fill="rgb(255,12,12)"  stroke="rgb(255,12,12)" stroke-width="1" font-size="32" >-</text>
<text x="240.879852" y="68.320000" fill="rgb(255,12,12)"  stroke="rgb(255,12,12)" stroke-width="1" font-size="16" >O</text>
<text x="372.998482" y="202.838629" fill="rgb(255,12,12)"  stroke="rgb(255,12,12)" stroke-width="1" font-size="16" >O</text>
<text x="386.454778" y="275.335193" fill="rgb(255,12,12)"  stroke="rgb(255,12,12)" stroke-width="1" font-size="32" >-</text>
<text x="385.254778" y="260.935193" fill="rgb(255,12,12)"  stroke="rgb(255,12,12)" stroke-width="1" font-size="16" >O</text>
<text x="507.580094" y="228.704473" fill="rgb(255,12,12)"  stroke="rgb(255,12,12)" stroke-width="1" font-size="16" >O</text>
<text x="450.746732" y="266.607019" fill="rgb(255,12,12)"  stroke="rgb(255,12,12)" stroke-width="1" font-size="16" >HO</text>
<text x="846.434759" y="172.041308" fill="rgb(102,102,102)"  stroke="rgb(102,102,102)" stroke-width="1" font-size="32" >.</text>
<text x="845.234759" y="165.641308" fill="rgb(102,102,102)"  stroke="rgb(102,102,102)" stroke-width="1" font-size="16" >CH</text>
<text x="869.234759" y="170.441308" fill="rgb(102,102,102)"  stroke="rgb(102,102,102)" stroke-width="1" font-size="13" >2</text>
<text x="529.980094" y="141.600000" fill="rgb(12,12,255)"  stroke="rgb(12,12,255)" stroke-width="1" font-size="16" >H</text>
<text x="541.980094" y="146.400000" fill="rgb(12,12,255)"  stroke="rgb(12,12,255)" stroke-width="1" font-size="13" >2</text>
<text x="548.480094" y="141.600000" fill="rgb(12,12,255)"  stroke="rgb(12,12,255)" stroke-width="1" font-size="16" >N</text>
<text x="583.235469" y="87.520000" fill="rgb(12,12,255)"  stroke="rgb(12,12,255)" stroke-width="1" font-size="16" >N</text>
<text x="647.346220" y="87.520000" fill="rgb(12,12,255)"  stroke="rgb(12,12,255)" stroke-width="1" font-size="16" >N</text>
<text x="624.474654" y="179.160868" fill="rgb(12,12,255)"  stroke="rgb(12,12,255)" stroke-width="1" font-size="16" >N</text>
<text x="678.282981" y="148.094615" fill="rgb(12,12,255)"  stroke="rgb(12,12,255)" stroke-width="1" font-size="16" >N</text>
<text x="774.498886" y="218.340255" fill="rgb(255,12,12)"  stroke="rgb(255,12,12)" stroke-width="1" font-size="16" >HO</text>
<text x="705.487186" y="176.481455" fill="rgb(255,12,12)"  stroke="rgb(255,12,12)" stroke-width="1" font-size="16" >HO</text>
<text x="786.854206" y="121.885668" fill="rgb(255,12,12)"  stroke="rgb(255,12,12)" stroke-width="1" font-size="16" >O</text>
<text x="35.200000" y="59.200000" fill="rgb(239,142,160)"  stroke="rgb(239,142,160)" stroke-width="1" font-size="16" >2+</text>
<text x="34.000000" y="44.800000" fill="rgb(239,142,160)"  stroke="rgb(239,142,160)" stroke-width="1" font-size="16" >Co</text>
<text x="306.700786" y="227.175822" fill="rgb(191,191,191)"  stroke="rgb(191,191,191)" stroke-width="1" font-size="16" >H</text>
<text x="151.328424" y="240.778243" fill="rgb(191,191,191)"  stroke="rgb(191,191,191)" stroke-width="1" font-size="16" >H</text>
<text x="230.369166" y="270.107018" fill="rgb(191,191,191)"  stroke="rgb(191,191,191)" stroke-width="1" font-size="16" >H</text>
<text x="187.411035" y="288.870058" fill="rgb(191,191,191)"  stroke="rgb(191,191,191)" stroke-width="1" font-size="16" >H</text>
<text x="122.557846" y="297.810877" fill="rgb(191,191,191)"  stroke="rgb(191,191,191)" stroke-width="1" font-size="16" >H</text>
<text x="843.225058" y="130.813934" fill="rgb(191,191,191)"  stroke="rgb(191,191,191)" stroke-width="1" font-size="16" >H</text>
<text x="819.948374" y="204.578926" fill="rgb(191,191,191)"  stroke="rgb(191,191,191)" stroke-width="1" font-size="16" >H</text>
<text x="741.653089" y="206.323860" fill="rgb(191,191,191)"  stroke="rgb(191,191,191)" stroke-width="1" font-size="16" >H</text>
<text x="753.053010" y="97.248608" fill="rgb(191,191,191)"  stroke="rgb(191,191,191)" stroke-width="1" font-size="16" >H</text>
<text font-size="18.000000" fill ="black" font-family="sans-serif"
x="140.000000" y="20.000000" ></text>
<title> - OBDepict</title>
</svg>
