<?xml version="1.0"?>
<svg xmlns="http://www.w3.org/2000/svg"
xmlns:xlink="http://www.w3.org/1999/xlink" xmlns:cml="http://www.xml-cml.org/schema" width="438.685" height="317.951" x="0" y="0" font-family="sans-serif" stroke="rgb(0,0,0)" stroke-width="1" >
<line x1="49.6" y1="194.9" x2="76.9" y2="187.6"/>
<line x1="80.6" y1="159.6" x2="76.9" y2="187.6"/>
<line x1="142.6" y1="229.6" x2="143.4" y2="229.6"/>
<line x1="142.2" y1="233.4" x2="143.8" y2="233.4"/>
<line x1="141.8" y1="237.2" x2="144.2" y2="237.2"/>
<line x1="141.4" y1="241.1" x2="144.6" y2="241.1"/>
<line x1="141.0" y1="244.9" x2="145.0" y2="244.9"/>
<line x1="140.6" y1="248.7" x2="145.4" y2="248.7"/>
<line x1="140.2" y1="252.5" x2="145.8" y2="252.5"/>
<line x1="268.9" y1="107.1" x2="268.5" y2="107.8"/>
<line x1="262.5" y1="102.9" x2="261.7" y2="104.3"/>
<line x1="256.0" y1="98.8" x2="254.8" y2="100.8"/>
<line x1="249.6" y1="94.6" x2="248.0" y2="97.4"/>
<line x1="243.2" y1="90.4" x2="241.2" y2="93.9"/>
<line x1="236.8" y1="86.3" x2="234.4" y2="90.4"/>
<line x1="230.4" y1="82.1" x2="227.6" y2="86.9"/>
<polygon points="341.412200 111.248243 350.739008 135.402747 357.667211 131.402747 " />
<polygon points="209.146502 187.611879 251.455511 216.657799 255.455511 209.729596 " />
<line x1="241.8" y1="172.3" x2="242.6" y2="172.3"/>
<line x1="241.4" y1="176.2" x2="243.0" y2="176.2"/>
<line x1="241.0" y1="180.0" x2="243.4" y2="180.0"/>
<line x1="240.6" y1="183.8" x2="243.8" y2="183.8"/>
<line x1="240.2" y1="187.6" x2="244.2" y2="187.6"/>
<line x1="239.8" y1="191.4" x2="244.6" y2="191.4"/>
<line x1="239.4" y1="195.2" x2="245.0" y2="195.2"/>
<line x1="379.6" y1="111.2" x2="341.4" y2="111.2"/>
<line x1="379.6" y1="111.2" x2="393.7" y2="135.7"/>
<line x1="142.6" y1="163.2" x2="143.4" y2="163.2"/>
<line x1="142.2" y1="167.0" x2="143.8" y2="167.0"/>
<line x1="141.8" y1="170.8" x2="144.2" y2="170.8"/>
<line x1="141.4" y1="174.6" x2="144.6" y2="174.6"/>
<line x1="141.0" y1="178.4" x2="145.0" y2="178.4"/>
<line x1="140.6" y1="182.3" x2="145.4" y2="182.3"/>
<line x1="140.2" y1="186.1" x2="145.8" y2="186.1"/>
<polygon points="330.500280 143.130061 310.345776 126.875050 306.345776 133.803253 " />
<polygon points="242.212927 104.757334 238.212927 130.339152 246.212927 130.339152 " />
<polygon points="354.203109 50.911920 337.948099 71.066425 344.876302 75.066425 " />
<line x1="341.4" y1="73.1" x2="369.7" y2="73.1"/>
<polygon points="122.738138 267.039111 113.411330 242.884606 106.483127 246.884606 " />
<line x1="109.9" y1="244.9" x2="95.8" y2="269.4"/>
<line x1="275.3" y1="187.6" x2="308.3" y2="168.5"/>
<line x1="308.3" y1="168.5" x2="308.3" y2="130.3"/>
<line x1="308.3" y1="130.3" x2="275.3" y2="111.2"/>
<line x1="275.3" y1="111.2" x2="242.2" y2="130.3"/>
<line x1="242.2" y1="130.3" x2="242.2" y2="168.5"/>
<line x1="242.2" y1="168.5" x2="275.3" y2="187.6"/>
<line x1="176.1" y1="168.5" x2="209.1" y2="187.6"/>
<line x1="209.1" y1="187.6" x2="242.2" y2="168.5"/>
<line x1="242.2" y1="130.3" x2="209.1" y2="111.2"/>
<line x1="209.1" y1="111.2" x2="176.1" y2="130.3"/>
<line x1="176.1" y1="130.3" x2="176.1" y2="168.5"/>
<line x1="183.3" y1="136.3" x2="183.3" y2="162.5"/>
<line x1="341.4" y1="73.1" x2="308.3" y2="54.0"/>
<line x1="308.3" y1="54.0" x2="275.3" y2="73.1"/>
<line x1="275.3" y1="73.1" x2="275.3" y2="111.2"/>
<line x1="308.3" y1="130.3" x2="341.4" y2="111.2"/>
<line x1="341.4" y1="111.2" x2="341.4" y2="73.1"/>
<line x1="176.1" y1="168.5" x2="143.0" y2="187.6"/>
<line x1="143.0" y1="187.6" x2="143.0" y2="225.8"/>
<line x1="143.0" y1="225.8" x2="176.1" y2="244.9"/>
<line x1="176.1" y1="244.9" x2="209.1" y2="225.8"/>
<line x1="209.1" y1="225.8" x2="209.1" y2="187.6"/>
<line x1="109.9" y1="168.5" x2="76.9" y2="187.6"/>
<line x1="76.9" y1="187.6" x2="76.9" y2="225.8"/>
<line x1="76.9" y1="225.8" x2="109.9" y2="244.9"/>
<line x1="109.9" y1="244.9" x2="143.0" y2="225.8"/>
<line x1="143.0" y1="187.6" x2="109.9" y2="168.5"/>
<text x="16.400000" y="202.294061" fill="rgb(102,102,102)"  stroke="rgb(102,102,102)" stroke-width="1" font-size="16" >H</text>
<text x="28.400000" y="207.094061" fill="rgb(102,102,102)"  stroke="rgb(102,102,102)" stroke-width="1" font-size="13" >3</text>
<text x="34.900000" y="202.294061" fill="rgb(102,102,102)"  stroke="rgb(102,102,102)" stroke-width="1" font-size="16" >C</text>
<text x="75.864532" y="158.076712" fill="rgb(102,102,102)"  stroke="rgb(102,102,102)" stroke-width="1" font-size="16" >CH</text>
<text x="99.864532" y="165.756712" fill="rgb(102,102,102)"  stroke="rgb(102,102,102)" stroke-width="1" font-size="13" >3</text>
<text x="137.013653" y="268.775515" fill="rgb(102,102,102)"  stroke="rgb(102,102,102)" stroke-width="1" font-size="16" >CH</text>
<text x="161.013653" y="273.575515" fill="rgb(102,102,102)"  stroke="rgb(102,102,102)" stroke-width="1" font-size="13" >3</text>
<text x="185.546502" y="81.386425" fill="rgb(102,102,102)"  stroke="rgb(102,102,102)" stroke-width="1" font-size="16" >H</text>
<text x="197.546502" y="89.066425" fill="rgb(102,102,102)"  stroke="rgb(102,102,102)" stroke-width="1" font-size="13" >3</text>
<text x="204.046502" y="81.386425" fill="rgb(102,102,102)"  stroke="rgb(102,102,102)" stroke-width="1" font-size="16" >C</text>
<text x="354.503109" y="149.114667" fill="rgb(102,102,102)"  stroke="rgb(102,102,102)" stroke-width="1" font-size="16" >CH</text>
<text x="378.503109" y="153.914667" fill="rgb(102,102,102)"  stroke="rgb(102,102,102)" stroke-width="1" font-size="13" >3</text>
<text x="269.279351" y="230.593697" fill="rgb(102,102,102)"  stroke="rgb(102,102,102)" stroke-width="1" font-size="16" >CH</text>
<text x="293.279351" y="235.393697" fill="rgb(102,102,102)"  stroke="rgb(102,102,102)" stroke-width="1" font-size="13" >3</text>
<text x="236.212927" y="211.502788" fill="rgb(102,102,102)"  stroke="rgb(102,102,102)" stroke-width="1" font-size="16" >CH</text>
<text x="260.212927" y="216.302788" fill="rgb(102,102,102)"  stroke="rgb(102,102,102)" stroke-width="1" font-size="13" >3</text>
<text x="392.684928" y="149.114667" fill="rgb(255,12,12)"  stroke="rgb(255,12,12)" stroke-width="1" font-size="16" >OH</text>
<text x="373.594019" y="77.866425" fill="rgb(255,12,12)"  stroke="rgb(255,12,12)" stroke-width="1" font-size="16" >OH</text>
<text x="75.256320" y="282.751031" fill="rgb(255,12,12)"  stroke="rgb(255,12,12)" stroke-width="1" font-size="16" >HO</text>
<text x="137.013653" y="157.750061" fill="rgb(191,191,191)"  stroke="rgb(191,191,191)" stroke-width="1" font-size="16" >H</text>
<text x="335.412200" y="154.230061" fill="rgb(191,191,191)"  stroke="rgb(191,191,191)" stroke-width="1" font-size="16" >H</text>
<text x="236.212927" y="100.477334" fill="rgb(191,191,191)"  stroke="rgb(191,191,191)" stroke-width="1" font-size="16" >H</text>
<text x="354.503109" y="48.320000" fill="rgb(191,191,191)"  stroke="rgb(191,191,191)" stroke-width="1" font-size="16" >H</text>
<text x="123.038138" y="282.751031" fill="rgb(191,191,191)"  stroke="rgb(191,191,191)" stroke-width="1" font-size="16" >H</text>
<text font-size="18.000000" fill ="black" font-family="sans-serif"
x="140.000000" y="20.000000" ></text>
<title> - OBDepict</title>
</svg>
