<?xml version="1.0"?>
<svg xmlns="http://www.w3.org/2000/svg"
xmlns:xlink="http://www.w3.org/1999/xlink" xmlns:cml="http://www.xml-cml.org/schema" width="1089.73" height="618.339" x="0" y="0" font-family="sans-serif" stroke="rgb(0,0,0)" stroke-width="1" >
<line x1="46.9" y1="59.7" x2="66.6" y2="40.0"/>
<line x1="877.5" y1="227.7" x2="857.8" y2="247.4"/>
<line x1="1039.9" y1="363.4" x2="1012.1" y2="363.4"/>
<line x1="693.9" y1="545.7" x2="666.1" y2="545.7"/>
<line x1="66.6" y1="40.0" x2="103.0" y2="49.7"/>
<line x1="103.0" y1="49.7" x2="112.8" y2="86.1"/>
<line x1="112.8" y1="86.1" x2="149.1" y2="95.9"/>
<line x1="149.1" y1="95.9" x2="158.9" y2="132.3"/>
<line x1="158.9" y1="132.3" x2="195.3" y2="142.0"/>
<line x1="195.3" y1="142.0" x2="205.0" y2="178.4"/>
<line x1="205.0" y1="178.4" x2="241.4" y2="188.1"/>
<line x1="241.4" y1="188.1" x2="251.1" y2="224.5"/>
<line x1="251.1" y1="224.5" x2="287.5" y2="234.3"/>
<line x1="287.5" y1="234.3" x2="297.3" y2="270.6"/>
<line x1="297.3" y1="270.6" x2="333.7" y2="280.4"/>
<line x1="333.7" y1="280.4" x2="343.4" y2="316.8"/>
<line x1="343.4" y1="316.8" x2="323.7" y2="336.5"/>
<line x1="344.2" y1="313.9" x2="380.6" y2="323.6"/>
<line x1="342.6" y1="319.7" x2="379.0" y2="329.4"/>
<line x1="379.8" y1="326.5" x2="387.0" y2="353.4"/>
<line x1="379.8" y1="326.5" x2="406.4" y2="299.9"/>
<line x1="728.5" y1="528.4" x2="738.3" y2="492.0"/>
<line x1="728.5" y1="528.4" x2="748.3" y2="548.1"/>
<line x1="534.7" y1="472.9" x2="544.4" y2="436.6"/>
<line x1="534.7" y1="472.9" x2="554.4" y2="492.6"/>
<line x1="599.0" y1="270.6" x2="561.3" y2="270.6"/>
<line x1="599.0" y1="270.6" x2="612.9" y2="246.5"/>
<line x1="741.4" y1="274.7" x2="722.6" y2="307.3"/>
<line x1="741.4" y1="274.7" x2="727.5" y2="250.5"/>
<line x1="433.1" y1="253.8" x2="396.7" y2="263.5"/>
<line x1="433.1" y1="253.8" x2="452.8" y2="273.5"/>
<line x1="415.7" y1="202.6" x2="396.0" y2="222.3"/>
<line x1="411.4" y1="198.4" x2="391.7" y2="218.1"/>
<line x1="413.6" y1="200.5" x2="406.3" y2="173.6"/>
<line x1="851.2" y1="224.2" x2="852.0" y2="224.0"/>
<line x1="851.8" y1="227.9" x2="853.3" y2="227.5"/>
<line x1="852.4" y1="231.7" x2="854.7" y2="231.1"/>
<line x1="852.9" y1="235.4" x2="856.0" y2="234.6"/>
<line x1="853.5" y1="239.2" x2="857.4" y2="238.1"/>
<line x1="854.1" y1="242.9" x2="858.8" y2="241.7"/>
<line x1="854.7" y1="246.7" x2="860.1" y2="245.2"/>
<line x1="1023.8" y1="342.3" x2="1024.5" y2="342.7"/>
<line x1="1021.5" y1="345.4" x2="1022.9" y2="346.2"/>
<line x1="1019.3" y1="348.5" x2="1021.4" y2="349.7"/>
<line x1="1017.1" y1="351.5" x2="1019.9" y2="353.1"/>
<line x1="1014.9" y1="354.6" x2="1018.3" y2="356.6"/>
<line x1="1012.6" y1="357.6" x2="1016.8" y2="360.0"/>
<line x1="1010.4" y1="360.7" x2="1015.2" y2="363.5"/>
<line x1="663.5" y1="547.2" x2="649.5" y2="523.1"/>
<line x1="668.7" y1="544.2" x2="654.7" y2="520.1"/>
<line x1="666.1" y1="545.7" x2="652.1" y2="569.9"/>
<line x1="373.5" y1="270.1" x2="373.3" y2="269.4"/>
<line x1="377.2" y1="269.5" x2="376.8" y2="268.0"/>
<line x1="381.0" y1="269.0" x2="380.4" y2="266.6"/>
<line x1="384.7" y1="268.4" x2="383.9" y2="265.3"/>
<line x1="388.5" y1="267.8" x2="387.4" y2="263.9"/>
<line x1="392.2" y1="267.2" x2="391.0" y2="262.6"/>
<line x1="395.9" y1="266.6" x2="394.5" y2="261.2"/>
<line x1="396.7" y1="263.5" x2="406.4" y2="299.9"/>
<line x1="396.7" y1="263.5" x2="389.5" y2="236.6"/>
<polygon points="430.795761 293.358739 405.385311 296.026344 407.455864 303.753751 " />
<line x1="406.4" y1="299.9" x2="426.1" y2="319.6"/>
<line x1="715.1" y1="498.7" x2="714.9" y2="497.9"/>
<line x1="718.9" y1="498.1" x2="718.4" y2="496.5"/>
<line x1="722.6" y1="497.5" x2="722.0" y2="495.2"/>
<line x1="726.3" y1="496.9" x2="725.5" y2="493.8"/>
<line x1="730.1" y1="496.3" x2="729.0" y2="492.5"/>
<line x1="733.8" y1="495.7" x2="732.6" y2="491.1"/>
<line x1="737.6" y1="495.1" x2="736.1" y2="489.7"/>
<line x1="521.2" y1="443.2" x2="521.0" y2="442.4"/>
<line x1="525.0" y1="442.6" x2="524.6" y2="441.1"/>
<line x1="528.7" y1="442.0" x2="528.1" y2="439.7"/>
<line x1="532.5" y1="441.4" x2="531.6" y2="438.3"/>
<line x1="536.2" y1="440.8" x2="535.2" y2="437.0"/>
<line x1="539.9" y1="440.2" x2="538.7" y2="435.6"/>
<line x1="543.7" y1="439.7" x2="542.2" y2="434.2"/>
<polygon points="573.920598 248.791202 557.838978 268.645385 564.767181 272.645385 " />
<polygon points="709.942754 285.447230 719.096171 309.301413 726.024374 305.301413 " />
<line x1="735.0" y1="403.3" x2="734.3" y2="403.7"/>
<line x1="733.4" y1="399.8" x2="732.0" y2="400.6"/>
<line x1="731.9" y1="396.4" x2="729.8" y2="397.6"/>
<line x1="730.3" y1="392.9" x2="727.6" y2="394.5"/>
<line x1="728.8" y1="389.5" x2="725.3" y2="391.5"/>
<line x1="727.3" y1="386.0" x2="723.1" y2="388.4"/>
<line x1="725.7" y1="382.5" x2="720.9" y2="385.3"/>
<line x1="722.6" y1="382.6" x2="666.8" y2="479.2"/>
<line x1="901.2" y1="256.7" x2="901.8" y2="257.3"/>
<line x1="898.3" y1="259.1" x2="899.4" y2="260.2"/>
<line x1="895.3" y1="261.5" x2="897.0" y2="263.1"/>
<line x1="892.4" y1="263.8" x2="894.6" y2="266.1"/>
<line x1="889.4" y1="266.2" x2="892.2" y2="269.0"/>
<line x1="886.5" y1="268.6" x2="889.9" y2="272.0"/>
<line x1="883.5" y1="271.0" x2="887.5" y2="274.9"/>
<line x1="884.4" y1="274.0" x2="911.4" y2="281.2"/>
<line x1="1036.2" y1="400.7" x2="1036.2" y2="401.5"/>
<line x1="1032.4" y1="400.3" x2="1032.4" y2="401.9"/>
<line x1="1028.6" y1="399.9" x2="1028.6" y2="402.3"/>
<line x1="1024.9" y1="399.5" x2="1024.9" y2="402.7"/>
<line x1="1021.1" y1="399.1" x2="1021.1" y2="403.1"/>
<line x1="1017.3" y1="398.7" x2="1017.3" y2="403.5"/>
<line x1="1013.6" y1="398.3" x2="1013.6" y2="403.9"/>
<line x1="1012.1" y1="401.1" x2="1026.0" y2="425.2"/>
<line x1="768.8" y1="525.2" x2="768.0" y2="525.0"/>
<line x1="770.2" y1="521.6" x2="768.6" y2="521.2"/>
<line x1="771.5" y1="518.1" x2="769.2" y2="517.5"/>
<line x1="772.9" y1="514.6" x2="769.8" y2="513.8"/>
<line x1="774.3" y1="511.0" x2="770.4" y2="510.0"/>
<line x1="775.6" y1="507.5" x2="771.0" y2="506.3"/>
<line x1="777.0" y1="504.0" x2="771.6" y2="502.5"/>
<line x1="774.7" y1="501.8" x2="794.4" y2="521.5"/>
<line x1="574.9" y1="469.7" x2="574.2" y2="469.5"/>
<line x1="576.3" y1="466.2" x2="574.8" y2="465.7"/>
<line x1="577.7" y1="462.6" x2="575.4" y2="462.0"/>
<line x1="579.0" y1="459.1" x2="575.9" y2="458.3"/>
<line x1="580.4" y1="455.6" x2="576.5" y2="454.5"/>
<line x1="581.8" y1="452.0" x2="577.1" y2="450.8"/>
<line x1="583.1" y1="448.5" x2="577.7" y2="447.0"/>
<line x1="580.8" y1="446.3" x2="600.5" y2="466.0"/>
<line x1="898.1" y1="316.3" x2="897.9" y2="317.0"/>
<line x1="894.5" y1="314.9" x2="894.1" y2="316.4"/>
<line x1="891.0" y1="313.5" x2="890.4" y2="315.8"/>
<line x1="887.5" y1="312.2" x2="886.6" y2="315.3"/>
<line x1="883.9" y1="310.8" x2="882.9" y2="314.7"/>
<line x1="880.4" y1="309.4" x2="879.2" y2="314.1"/>
<line x1="876.9" y1="308.1" x2="875.4" y2="313.5"/>
<line x1="874.7" y1="310.4" x2="881.9" y2="337.3"/>
<line x1="991.8" y1="440.6" x2="991.2" y2="441.0"/>
<line x1="990.3" y1="437.1" x2="988.9" y2="437.9"/>
<line x1="988.8" y1="433.7" x2="986.7" y2="434.9"/>
<line x1="987.2" y1="430.2" x2="984.5" y2="431.8"/>
<line x1="985.7" y1="426.7" x2="982.2" y2="428.7"/>
<line x1="984.2" y1="423.3" x2="980.0" y2="425.7"/>
<line x1="982.6" y1="419.8" x2="977.8" y2="422.6"/>
<line x1="979.4" y1="419.9" x2="965.5" y2="444.0"/>
<line x1="818.6" y1="491.9" x2="818.1" y2="492.5"/>
<line x1="816.3" y1="489.0" x2="815.1" y2="490.1"/>
<line x1="813.9" y1="486.0" x2="812.2" y2="487.7"/>
<line x1="811.5" y1="483.1" x2="809.2" y2="485.3"/>
<line x1="809.1" y1="480.1" x2="806.3" y2="483.0"/>
<line x1="806.7" y1="477.2" x2="803.3" y2="480.6"/>
<line x1="804.4" y1="474.2" x2="800.4" y2="478.2"/>
<line x1="801.3" y1="475.2" x2="828.2" y2="467.9"/>
<polygon points="541.302415 348.995918 532.148998 325.141735 525.220795 329.141735 " />
<line x1="528.7" y1="327.1" x2="500.8" y2="375.4"/>
<polygon points="844.838749 344.523155 842.171144 319.112705 834.443737 321.183258 " />
<line x1="838.3" y1="320.1" x2="818.6" y2="339.9"/>
<polygon points="934.213438 422.927027 950.295058 403.072844 943.366854 399.072844 " />
<line x1="946.8" y1="401.1" x2="919.0" y2="401.1"/>
<line x1="484.4" y1="329.4" x2="483.7" y2="329.0"/>
<line x1="486.6" y1="326.3" x2="485.2" y2="325.5"/>
<line x1="488.8" y1="323.3" x2="486.7" y2="322.1"/>
<line x1="491.0" y1="320.2" x2="488.3" y2="318.6"/>
<line x1="493.3" y1="317.1" x2="489.8" y2="315.1"/>
<line x1="495.5" y1="314.1" x2="491.4" y2="311.7"/>
<line x1="497.7" y1="311.0" x2="492.9" y2="308.2"/>
<line x1="496.1" y1="308.3" x2="468.2" y2="308.3"/>
<polygon points="622.059109 376.762897 596.648659 379.430502 598.719212 387.157909 " />
<line x1="597.7" y1="383.3" x2="604.9" y2="356.4"/>
<line x1="585.4" y1="307.9" x2="585.4" y2="308.7"/>
<line x1="581.6" y1="307.5" x2="581.6" y2="309.1"/>
<line x1="577.9" y1="307.1" x2="577.9" y2="309.5"/>
<line x1="574.1" y1="306.7" x2="574.1" y2="309.9"/>
<line x1="570.3" y1="306.3" x2="570.3" y2="310.3"/>
<line x1="566.6" y1="305.9" x2="566.6" y2="310.7"/>
<line x1="562.8" y1="305.5" x2="562.8" y2="311.1"/>
<line x1="561.3" y1="308.3" x2="575.2" y2="332.4"/>
<line x1="766.9" y1="305.1" x2="767.6" y2="305.5"/>
<line x1="764.7" y1="308.1" x2="766.0" y2="308.9"/>
<line x1="762.4" y1="311.2" x2="764.5" y2="312.4"/>
<line x1="760.2" y1="314.2" x2="763.0" y2="315.8"/>
<line x1="758.0" y1="317.3" x2="761.4" y2="319.3"/>
<line x1="755.7" y1="320.4" x2="759.9" y2="322.8"/>
<line x1="753.5" y1="323.4" x2="758.4" y2="326.2"/>
<line x1="755.2" y1="326.1" x2="783.0" y2="326.1"/>
<polygon points="780.413492 363.797763 755.178455 359.797763 755.178455 367.797763 " />
<line x1="755.2" y1="363.8" x2="769.1" y2="387.9"/>
<line x1="624.8" y1="436.4" x2="624.2" y2="437.0"/>
<line x1="622.4" y1="433.5" x2="621.2" y2="434.6"/>
<line x1="620.0" y1="430.5" x2="618.3" y2="432.2"/>
<line x1="617.6" y1="427.6" x2="615.4" y2="429.9"/>
<line x1="615.2" y1="424.7" x2="612.4" y2="427.5"/>
<line x1="612.9" y1="421.7" x2="609.5" y2="425.1"/>
<line x1="610.5" y1="418.8" x2="606.5" y2="422.7"/>
<line x1="607.4" y1="419.7" x2="661.3" y2="405.2"/>
<polygon points="815.934485 432.251042 790.524035 434.918647 792.594587 442.646054 " />
<line x1="791.6" y1="438.8" x2="798.8" y2="411.9"/>
<polygon points="669.921789 348.435646 687.507043 366.971177 692.377135 360.624350 " />
<line x1="689.9" y1="363.8" x2="682.7" y2="390.7"/>
<polygon points="499.360546 245.626237 492.100934 270.123280 500.032493 271.167489 " />
<line x1="496.1" y1="270.6" x2="469.1" y2="277.9"/>
<polygon points="796.312689 273.495046 808.501392 295.950392 814.848219 291.080301 " />
<line x1="811.7" y1="293.5" x2="797.7" y2="317.7"/>
<polygon points="950.124789 338.389463 942.865177 362.886506 950.796735 363.930715 " />
<line x1="946.8" y1="363.4" x2="839.1" y2="392.3"/>
<line x1="537.4" y1="370.8" x2="537.5" y2="370.0"/>
<line x1="541.0" y1="371.7" x2="541.2" y2="370.1"/>
<line x1="544.7" y1="372.6" x2="545.0" y2="370.2"/>
<line x1="548.4" y1="373.5" x2="548.8" y2="370.3"/>
<line x1="552.1" y1="374.3" x2="552.6" y2="370.4"/>
<line x1="555.8" y1="375.2" x2="556.4" y2="370.5"/>
<line x1="559.4" y1="376.1" x2="560.2" y2="370.6"/>
<line x1="561.3" y1="373.5" x2="575.2" y2="349.4"/>
<line x1="731.2" y1="426.3" x2="731.3" y2="425.5"/>
<line x1="734.9" y1="427.2" x2="735.1" y2="425.6"/>
<line x1="738.6" y1="428.1" x2="738.9" y2="425.7"/>
<line x1="742.3" y1="428.9" x2="742.7" y2="425.8"/>
<line x1="746.0" y1="429.8" x2="746.5" y2="425.9"/>
<line x1="749.6" y1="430.7" x2="750.3" y2="426.0"/>
<line x1="753.3" y1="431.6" x2="754.1" y2="426.1"/>
<line x1="755.2" y1="429.0" x2="769.1" y2="404.9"/>
<line x1="874.7" y1="310.4" x2="838.3" y2="320.1"/>
<line x1="838.3" y1="320.1" x2="811.7" y2="293.5"/>
<line x1="811.7" y1="293.5" x2="818.9" y2="266.6"/>
<line x1="830.9" y1="254.6" x2="857.8" y2="247.4"/>
<line x1="857.8" y1="247.4" x2="884.4" y2="274.0"/>
<line x1="884.4" y1="274.0" x2="874.7" y2="310.4"/>
<line x1="979.4" y1="419.9" x2="946.8" y2="401.1"/>
<line x1="946.8" y1="401.1" x2="946.8" y2="363.4"/>
<line x1="946.8" y1="363.4" x2="971.0" y2="349.5"/>
<line x1="987.9" y1="349.5" x2="1012.1" y2="363.4"/>
<line x1="1012.1" y1="363.4" x2="1012.1" y2="401.1"/>
<line x1="1012.1" y1="401.1" x2="979.4" y2="419.9"/>
<line x1="801.3" y1="475.2" x2="791.6" y2="438.8"/>
<line x1="791.6" y1="438.8" x2="755.2" y2="429.0"/>
<line x1="755.2" y1="429.0" x2="735.5" y2="448.7"/>
<line x1="731.1" y1="465.1" x2="738.3" y2="492.0"/>
<line x1="738.3" y1="492.0" x2="774.7" y2="501.8"/>
<line x1="774.7" y1="501.8" x2="801.3" y2="475.2"/>
<line x1="597.7" y1="383.3" x2="561.3" y2="373.5"/>
<line x1="561.3" y1="373.5" x2="541.6" y2="393.3"/>
<line x1="537.2" y1="409.6" x2="544.4" y2="436.6"/>
<line x1="544.4" y1="436.6" x2="580.8" y2="446.3"/>
<line x1="580.8" y1="446.3" x2="607.4" y2="419.7"/>
<line x1="607.4" y1="419.7" x2="597.7" y2="383.3"/>
<line x1="528.7" y1="327.1" x2="496.1" y2="308.3"/>
<line x1="496.1" y1="308.3" x2="496.1" y2="270.6"/>
<line x1="496.1" y1="270.6" x2="520.2" y2="256.7"/>
<line x1="537.2" y1="256.7" x2="561.3" y2="270.6"/>
<line x1="561.3" y1="270.6" x2="561.3" y2="308.3"/>
<line x1="561.3" y1="308.3" x2="528.7" y2="327.1"/>
<line x1="722.6" y1="382.6" x2="689.9" y2="363.8"/>
<line x1="689.9" y1="363.8" x2="689.9" y2="335.9"/>
<line x1="698.4" y1="321.2" x2="722.6" y2="307.3"/>
<line x1="722.6" y1="307.3" x2="755.2" y2="326.1"/>
<line x1="755.2" y1="326.1" x2="755.2" y2="363.8"/>
<line x1="755.2" y1="363.8" x2="722.6" y2="382.6"/>
<text x="16.400000" y="71.432635" fill="rgb(102,102,102)"  stroke="rgb(102,102,102)" stroke-width="1" font-size="16" >H</text>
<text x="28.400000" y="76.232635" fill="rgb(102,102,102)"  stroke="rgb(102,102,102)" stroke-width="1" font-size="13" >3</text>
<text x="34.900000" y="71.432635" fill="rgb(102,102,102)"  stroke="rgb(102,102,102)" stroke-width="1" font-size="16" >C</text>
<text x="878.436518" y="229.073635" fill="rgb(102,102,102)"  stroke="rgb(102,102,102)" stroke-width="1" font-size="16" >CH</text>
<text x="902.436518" y="236.753635" fill="rgb(102,102,102)"  stroke="rgb(102,102,102)" stroke-width="1" font-size="13" >3</text>
<text x="1043.731556" y="371.728611" fill="rgb(102,102,102)"  stroke="rgb(102,102,102)" stroke-width="1" font-size="16" >CH</text>
<text x="1067.731556" y="379.408611" fill="rgb(102,102,102)"  stroke="rgb(102,102,102)" stroke-width="1" font-size="13" >3</text>
<text x="697.728155" y="550.520796" fill="rgb(102,102,102)"  stroke="rgb(102,102,102)" stroke-width="1" font-size="16" >CH</text>
<text x="721.728155" y="555.320796" fill="rgb(102,102,102)"  stroke="rgb(102,102,102)" stroke-width="1" font-size="13" >3</text>
<text x="383.324145" y="235.448336" fill="rgb(12,12,255)"  stroke="rgb(12,12,255)" stroke-width="1" font-size="16" >N</text>
<text x="643.631805" y="517.902612" fill="rgb(12,12,255)"  stroke="rgb(12,12,255)" stroke-width="1" font-size="16" >N</text>
<text x="749.178455" y="559.861111" fill="rgb(255,12,12)"  stroke="rgb(255,12,12)" stroke-width="1" font-size="16" >OH</text>
<text x="555.303079" y="504.372966" fill="rgb(255,12,12)"  stroke="rgb(255,12,12)" stroke-width="1" font-size="16" >OH</text>
<text x="611.799430" y="246.347201" fill="rgb(255,12,12)"  stroke="rgb(255,12,12)" stroke-width="1" font-size="16" >OH</text>
<text x="706.960272" y="250.385047" fill="rgb(255,12,12)"  stroke="rgb(255,12,12)" stroke-width="1" font-size="16" >HO</text>
<text x="388.208559" y="172.434845" fill="rgb(255,12,12)"  stroke="rgb(255,12,12)" stroke-width="1" font-size="16" >HO</text>
<text x="631.631805" y="583.138979" fill="rgb(255,12,12)"  stroke="rgb(255,12,12)" stroke-width="1" font-size="16" >HO</text>
<text x="427.053222" y="331.322682" fill="rgb(255,12,12)"  stroke="rgb(255,12,12)" stroke-width="1" font-size="16" >OH</text>
<text x="914.817374" y="288.567126" fill="rgb(255,12,12)"  stroke="rgb(255,12,12)" stroke-width="1" font-size="16" >OH</text>
<text x="1024.899439" y="438.491027" fill="rgb(255,12,12)"  stroke="rgb(255,12,12)" stroke-width="1" font-size="16" >OH</text>
<text x="795.307532" y="533.228476" fill="rgb(255,12,12)"  stroke="rgb(255,12,12)" stroke-width="1" font-size="16" >OH</text>
<text x="601.432156" y="477.740331" fill="rgb(255,12,12)"  stroke="rgb(255,12,12)" stroke-width="1" font-size="16" >OH</text>
<text x="878.436518" y="351.580617" fill="rgb(255,12,12)"  stroke="rgb(255,12,12)" stroke-width="1" font-size="16" >OH</text>
<text x="945.017022" y="457.323144" fill="rgb(255,12,12)"  stroke="rgb(255,12,12)" stroke-width="1" font-size="16" >HO</text>
<text x="831.688388" y="473.734985" fill="rgb(255,12,12)"  stroke="rgb(255,12,12)" stroke-width="1" font-size="16" >OH</text>
<text x="475.420663" y="397.178101" fill="rgb(255,12,12)"  stroke="rgb(255,12,12)" stroke-width="1" font-size="16" >HO</text>
<text x="796.074806" y="351.580617" fill="rgb(255,12,12)"  stroke="rgb(255,12,12)" stroke-width="1" font-size="16" >HO</text>
<text x="893.566722" y="405.872844" fill="rgb(255,12,12)"  stroke="rgb(255,12,12)" stroke-width="1" font-size="16" >HO</text>
<text x="442.802480" y="313.109618" fill="rgb(255,12,12)"  stroke="rgb(255,12,12)" stroke-width="1" font-size="16" >HO</text>
<text x="601.432156" y="355.233349" fill="rgb(255,12,12)"  stroke="rgb(255,12,12)" stroke-width="1" font-size="16" >OH</text>
<text x="456.085857" y="285.193606" fill="rgb(255,12,12)"  stroke="rgb(255,12,12)" stroke-width="1" font-size="16" >O</text>
<text x="817.823027" y="265.454491" fill="rgb(255,12,12)"  stroke="rgb(255,12,12)" stroke-width="1" font-size="16" >O</text>
<text x="973.449139" y="352.896494" fill="rgb(255,12,12)"  stroke="rgb(255,12,12)" stroke-width="1" font-size="16" >O</text>
<text x="531.070444" y="408.498619" fill="rgb(255,12,12)"  stroke="rgb(255,12,12)" stroke-width="1" font-size="16" >O</text>
<text x="724.945820" y="463.986764" fill="rgb(255,12,12)"  stroke="rgb(255,12,12)" stroke-width="1" font-size="16" >O</text>
<text x="686.342089" y="334.453530" fill="rgb(255,12,12)"  stroke="rgb(255,12,12)" stroke-width="1" font-size="16" >O</text>
<text x="522.684896" y="260.133268" fill="rgb(255,12,12)"  stroke="rgb(255,12,12)" stroke-width="1" font-size="16" >O</text>
<text x="574.135196" y="349.247801" fill="rgb(255,12,12)"  stroke="rgb(255,12,12)" stroke-width="1" font-size="16" >O</text>
<text x="786.842689" y="330.933530" fill="rgb(255,12,12)"  stroke="rgb(255,12,12)" stroke-width="1" font-size="16" >O</text>
<text x="768.010572" y="404.735946" fill="rgb(255,12,12)"  stroke="rgb(255,12,12)" stroke-width="1" font-size="16" >O</text>
<text x="674.193868" y="404.978619" fill="rgb(255,12,12)"  stroke="rgb(255,12,12)" stroke-width="1" font-size="16" >O</text>
<text x="797.707532" y="407.201495" fill="rgb(255,12,12)"  stroke="rgb(255,12,12)" stroke-width="1" font-size="16" >O</text>
<text x="313.174461" y="348.207096" fill="rgb(191,191,191)"  stroke="rgb(191,191,191)" stroke-width="1" font-size="16" >H</text>
<text x="383.536173" y="367.703538" fill="rgb(191,191,191)"  stroke="rgb(191,191,191)" stroke-width="1" font-size="16" >H</text>
<text x="844.455662" y="219.325414" fill="rgb(191,191,191)"  stroke="rgb(191,191,191)" stroke-width="1" font-size="16" >H</text>
<text x="1024.899439" y="339.110428" fill="rgb(191,191,191)"  stroke="rgb(191,191,191)" stroke-width="1" font-size="16" >H</text>
<text x="356.691510" y="278.057412" fill="rgb(191,191,191)"  stroke="rgb(191,191,191)" stroke-width="1" font-size="16" >H</text>
<text x="436.801443" y="298.461826" fill="rgb(191,191,191)"  stroke="rgb(191,191,191)" stroke-width="1" font-size="16" >H</text>
<text x="698.313185" y="506.595841" fill="rgb(191,191,191)"  stroke="rgb(191,191,191)" stroke-width="1" font-size="16" >H</text>
<text x="504.437809" y="451.107696" fill="rgb(191,191,191)"  stroke="rgb(191,191,191)" stroke-width="1" font-size="16" >H</text>
<text x="574.135196" y="246.347201" fill="rgb(191,191,191)"  stroke="rgb(191,191,191)" stroke-width="1" font-size="16" >H</text>
<text x="700.128155" y="283.003230" fill="rgb(191,191,191)"  stroke="rgb(191,191,191)" stroke-width="1" font-size="16" >H</text>
<text x="735.392389" y="420.048063" fill="rgb(191,191,191)"  stroke="rgb(191,191,191)" stroke-width="1" font-size="16" >H</text>
<text x="905.069153" y="255.706270" fill="rgb(191,191,191)"  stroke="rgb(191,191,191)" stroke-width="1" font-size="16" >H</text>
<text x="1043.731556" y="409.392844" fill="rgb(191,191,191)"  stroke="rgb(191,191,191)" stroke-width="1" font-size="16" >H</text>
<text x="761.326676" y="542.976697" fill="rgb(191,191,191)"  stroke="rgb(191,191,191)" stroke-width="1" font-size="16" >H</text>
<text x="567.451300" y="487.488552" fill="rgb(191,191,191)"  stroke="rgb(191,191,191)" stroke-width="1" font-size="16" >H</text>
<text x="905.069153" y="324.947982" fill="rgb(191,191,191)"  stroke="rgb(191,191,191)" stroke-width="1" font-size="16" >H</text>
<text x="992.281256" y="457.323144" fill="rgb(191,191,191)"  stroke="rgb(191,191,191)" stroke-width="1" font-size="16" >H</text>
<text x="821.940167" y="506.595841" fill="rgb(191,191,191)"  stroke="rgb(191,191,191)" stroke-width="1" font-size="16" >H</text>
<text x="541.517013" y="364.559918" fill="rgb(191,191,191)"  stroke="rgb(191,191,191)" stroke-width="1" font-size="16" >H</text>
<text x="842.055662" y="361.328838" fill="rgb(191,191,191)"  stroke="rgb(191,191,191)" stroke-width="1" font-size="16" >H</text>
<text x="924.398839" y="438.491027" fill="rgb(191,191,191)"  stroke="rgb(191,191,191)" stroke-width="1" font-size="16" >H</text>
<text x="473.634596" y="345.727801" fill="rgb(191,191,191)"  stroke="rgb(191,191,191)" stroke-width="1" font-size="16" >H</text>
<text x="628.064791" y="381.865984" fill="rgb(191,191,191)"  stroke="rgb(191,191,191)" stroke-width="1" font-size="16" >H</text>
<text x="592.967313" y="316.629618" fill="rgb(191,191,191)"  stroke="rgb(191,191,191)" stroke-width="1" font-size="16" >H</text>
<text x="768.010572" y="301.835347" fill="rgb(191,191,191)"  stroke="rgb(191,191,191)" stroke-width="1" font-size="16" >H</text>
<text x="786.842689" y="372.117763" fill="rgb(191,191,191)"  stroke="rgb(191,191,191)" stroke-width="1" font-size="16" >H</text>
<text x="628.064791" y="451.107696" fill="rgb(191,191,191)"  stroke="rgb(191,191,191)" stroke-width="1" font-size="16" >H</text>
<text x="821.940167" y="437.354130" fill="rgb(191,191,191)"  stroke="rgb(191,191,191)" stroke-width="1" font-size="16" >H</text>
<text x="656.461044" y="349.189231" fill="rgb(191,191,191)"  stroke="rgb(191,191,191)" stroke-width="1" font-size="16" >H</text>
<text x="494.982882" y="241.623374" fill="rgb(191,191,191)"  stroke="rgb(191,191,191)" stroke-width="1" font-size="16" >H</text>
<text x="785.146273" y="271.954301" fill="rgb(191,191,191)"  stroke="rgb(191,191,191)" stroke-width="1" font-size="16" >H</text>
<text x="945.747125" y="334.386600" fill="rgb(191,191,191)"  stroke="rgb(191,191,191)" stroke-width="1" font-size="16" >H</text>
<text x="520.361069" y="376.949815" fill="rgb(191,191,191)"  stroke="rgb(191,191,191)" stroke-width="1" font-size="16" >H</text>
<text x="714.236444" y="432.437961" fill="rgb(191,191,191)"  stroke="rgb(191,191,191)" stroke-width="1" font-size="16" >H</text>
<text font-size="18.000000" fill ="black" font-family="sans-serif"
x="140.000000" y="20.000000" ></text>
<title> - OBDepict</title>
</svg>
