<?xml version="1.0"?>
<svg xmlns="http://www.w3.org/2000/svg"
xmlns:xlink="http://www.w3.org/1999/xlink" xmlns:cml="http://www.xml-cml.org/schema" width="849.614" height="562.228" x="0" y="0" font-family="sans-serif" stroke="rgb(0,0,0)" stroke-width="1" >
<line x1="87.0" y1="440.2" x2="78.1" y2="412.8"/>
<line x1="49.9" y1="406.8" x2="78.1" y2="412.8"/>
<line x1="128.9" y1="334.9" x2="156.3" y2="326.0"/>
<line x1="207.1" y1="248.1" x2="234.5" y2="239.2"/>
<line x1="533.8" y1="115.6" x2="555.2" y2="134.9"/>
<line x1="527.8" y1="143.8" x2="555.2" y2="134.9"/>
<line x1="142.3" y1="392.0" x2="104.2" y2="383.9"/>
<line x1="142.3" y1="392.0" x2="168.3" y2="363.0"/>
<line x1="220.4" y1="305.1" x2="182.3" y2="297.0"/>
<line x1="220.4" y1="305.1" x2="246.5" y2="276.2"/>
<line x1="104.2" y1="383.9" x2="78.1" y2="412.8"/>
<line x1="168.3" y1="363.0" x2="156.3" y2="326.0"/>
<line x1="182.3" y1="297.0" x2="156.3" y2="326.0"/>
<line x1="246.5" y1="276.2" x2="234.5" y2="239.2"/>
<line x1="260.5" y1="210.2" x2="298.6" y2="218.3"/>
<line x1="260.5" y1="210.2" x2="234.5" y2="239.2"/>
<line x1="298.6" y1="218.3" x2="324.7" y2="189.4"/>
<line x1="467.0" y1="81.7" x2="505.1" y2="89.8"/>
<line x1="467.0" y1="81.7" x2="441.0" y2="110.6"/>
<line x1="505.1" y1="89.8" x2="524.4" y2="68.4"/>
<line x1="426.9" y1="176.6" x2="388.8" y2="168.5"/>
<line x1="426.9" y1="176.6" x2="446.2" y2="155.2"/>
<line x1="388.8" y1="168.5" x2="369.6" y2="189.9"/>
<line x1="549.1" y1="351.2" x2="587.2" y2="359.3"/>
<line x1="549.1" y1="351.2" x2="540.2" y2="323.8"/>
<line x1="579.3" y1="209.0" x2="555.2" y2="134.9"/>
<line x1="579.3" y1="209.0" x2="560.0" y2="230.4"/>
<line x1="156.3" y1="326.0" x2="134.9" y2="306.7"/>
<line x1="234.5" y1="239.2" x2="213.0" y2="219.9"/>
<line x1="579.1" y1="335.7" x2="579.9" y2="335.5"/>
<line x1="579.9" y1="339.5" x2="581.5" y2="339.0"/>
<line x1="580.8" y1="343.4" x2="583.0" y2="342.6"/>
<line x1="581.6" y1="347.2" x2="584.6" y2="346.2"/>
<line x1="582.4" y1="351.0" x2="586.2" y2="349.8"/>
<line x1="583.2" y1="354.8" x2="587.8" y2="353.4"/>
<line x1="584.0" y1="358.7" x2="589.4" y2="356.9"/>
<line x1="443.8" y1="109.7" x2="452.7" y2="137.1"/>
<line x1="438.1" y1="111.6" x2="447.0" y2="139.0"/>
<line x1="441.0" y1="110.6" x2="412.8" y2="104.6"/>
<line x1="321.8" y1="190.3" x2="312.9" y2="162.9"/>
<line x1="327.5" y1="188.4" x2="318.6" y2="161.0"/>
<line x1="324.7" y1="189.4" x2="352.9" y2="195.4"/>
<polygon points="610.639023 438.678265 622.506966 415.096764 614.898514 412.624628 " />
<line x1="618.7" y1="413.9" x2="638.0" y2="435.3"/>
<polygon points="557.027812 398.019374 583.122548 402.019374 583.122548 394.019374 " />
<line x1="583.1" y1="398.0" x2="568.7" y2="423.0"/>
<polygon points="606.125734 97.920967 580.072097 102.180458 582.544233 109.788910 " />
<line x1="581.3" y1="106.0" x2="569.3" y2="68.9"/>
<line x1="581.3" y1="106.0" x2="555.2" y2="134.9"/>
<line x1="581.3" y1="106.0" x2="602.7" y2="125.3"/>
<line x1="785.1" y1="485.9" x2="795.4" y2="512.8"/>
<line x1="568.6" y1="71.9" x2="540.5" y2="65.9"/>
<line x1="569.9" y1="66.0" x2="541.7" y2="60.0"/>
<line x1="569.3" y1="68.9" x2="588.6" y2="47.5"/>
<line x1="660.3" y1="365.4" x2="660.9" y2="365.9"/>
<line x1="657.5" y1="368.2" x2="658.8" y2="369.2"/>
<line x1="654.7" y1="370.9" x2="656.6" y2="372.5"/>
<line x1="652.0" y1="373.7" x2="654.4" y2="375.7"/>
<line x1="649.2" y1="376.4" x2="652.3" y2="379.0"/>
<line x1="646.4" y1="379.2" x2="650.1" y2="382.2"/>
<line x1="643.6" y1="381.9" x2="647.9" y2="385.5"/>
<line x1="644.8" y1="384.9" x2="681.0" y2="429.7"/>
<line x1="524.7" y1="460.6" x2="524.7" y2="441.9"/>
<line x1="495.9" y1="431.7" x2="514.6" y2="431.7"/>
<line x1="527.7" y1="402.9" x2="527.7" y2="421.6"/>
<line x1="521.7" y1="402.9" x2="521.7" y2="421.6"/>
<line x1="493.0" y1="334.2" x2="496.9" y2="316.0"/>
<line x1="471.4" y1="297.1" x2="489.7" y2="301.0"/>
<line x1="470.2" y1="303.0" x2="488.4" y2="306.9"/>
<line x1="487.0" y1="223.9" x2="505.3" y2="227.8"/>
<line x1="524.1" y1="202.3" x2="520.2" y2="220.6"/>
<line x1="518.2" y1="201.0" x2="514.3" y2="219.3"/>
<line x1="527.2" y1="312.0" x2="508.9" y2="308.2"/>
<line x1="543.4" y1="235.8" x2="525.1" y2="232.0"/>
<line x1="553.5" y1="431.7" x2="534.8" y2="431.7"/>
<line x1="505.0" y1="277.9" x2="501.1" y2="296.1"/>
<line x1="509.2" y1="258.0" x2="513.1" y2="239.8"/>
<line x1="683.7" y1="483.1" x2="691.2" y2="455.2"/>
<line x1="703.9" y1="444.9" x2="732.7" y2="443.4"/>
<line x1="732.7" y1="443.4" x2="746.6" y2="479.8"/>
<line x1="746.6" y1="479.8" x2="724.2" y2="497.9"/>
<line x1="707.9" y1="498.8" x2="683.7" y2="483.1"/>
<line x1="710.0" y1="491.6" x2="692.7" y2="480.3"/>
<line x1="587.2" y1="359.3" x2="583.1" y2="398.0"/>
<line x1="583.1" y1="398.0" x2="618.7" y2="413.9"/>
<line x1="618.7" y1="413.9" x2="644.8" y2="384.9"/>
<line x1="644.8" y1="384.9" x2="630.4" y2="360.0"/>
<line x1="615.4" y1="353.3" x2="587.2" y2="359.3"/>
<line x1="732.7" y1="443.4" x2="750.8" y2="421.0"/>
<line x1="742.0" y1="443.3" x2="755.1" y2="427.2"/>
<line x1="767.2" y1="414.7" x2="795.7" y2="419.2"/>
<line x1="795.7" y1="419.2" x2="806.0" y2="446.1"/>
<line x1="791.1" y1="427.4" x2="798.5" y2="446.8"/>
<line x1="803.2" y1="463.5" x2="785.1" y2="485.9"/>
<line x1="785.1" y1="485.9" x2="746.6" y2="479.8"/>
<line x1="780.3" y1="477.8" x2="753.7" y2="473.6"/>
<text x="84.131674" y="454.660190" fill="rgb(102,102,102)"  stroke="rgb(102,102,102)" stroke-width="1" font-size="16" >CH</text>
<text x="108.131674" y="459.460190" fill="rgb(102,102,102)"  stroke="rgb(102,102,102)" stroke-width="1" font-size="13" >3</text>
<text x="16.400000" y="413.041428" fill="rgb(102,102,102)"  stroke="rgb(102,102,102)" stroke-width="1" font-size="16" >H</text>
<text x="28.400000" y="420.721428" fill="rgb(102,102,102)"  stroke="rgb(102,102,102)" stroke-width="1" font-size="13" >3</text>
<text x="34.900000" y="413.041428" fill="rgb(102,102,102)"  stroke="rgb(102,102,102)" stroke-width="1" font-size="16" >C</text>
<text x="95.637755" y="342.823834" fill="rgb(102,102,102)"  stroke="rgb(102,102,102)" stroke-width="1" font-size="16" >H</text>
<text x="107.637755" y="347.623834" fill="rgb(102,102,102)"  stroke="rgb(102,102,102)" stroke-width="1" font-size="13" >3</text>
<text x="114.137755" y="342.823834" fill="rgb(102,102,102)"  stroke="rgb(102,102,102)" stroke-width="1" font-size="16" >C</text>
<text x="173.820384" y="255.993228" fill="rgb(102,102,102)"  stroke="rgb(102,102,102)" stroke-width="1" font-size="16" >H</text>
<text x="185.820384" y="260.793228" fill="rgb(102,102,102)"  stroke="rgb(102,102,102)" stroke-width="1" font-size="13" >3</text>
<text x="192.320384" y="255.993228" fill="rgb(102,102,102)"  stroke="rgb(102,102,102)" stroke-width="1" font-size="16" >C</text>
<text x="502.703753" y="117.187343" fill="rgb(102,102,102)"  stroke="rgb(102,102,102)" stroke-width="1" font-size="16" >H</text>
<text x="514.703753" y="124.867343" fill="rgb(102,102,102)"  stroke="rgb(102,102,102)" stroke-width="1" font-size="13" >3</text>
<text x="521.203753" y="117.187343" fill="rgb(102,102,102)"  stroke="rgb(102,102,102)" stroke-width="1" font-size="16" >C</text>
<text x="494.606140" y="151.763618" fill="rgb(102,102,102)"  stroke="rgb(102,102,102)" stroke-width="1" font-size="16" >H</text>
<text x="506.606140" y="156.563618" fill="rgb(102,102,102)"  stroke="rgb(102,102,102)" stroke-width="1" font-size="13" >3</text>
<text x="513.106140" y="151.763618" fill="rgb(102,102,102)"  stroke="rgb(102,102,102)" stroke-width="1" font-size="16" >C</text>
<text x="793.061194" y="527.028105" fill="rgb(12,12,255)"  stroke="rgb(12,12,255)" stroke-width="1" font-size="16" >NH</text>
<text x="817.061194" y="531.828105" fill="rgb(12,12,255)"  stroke="rgb(12,12,255)" stroke-width="1" font-size="13" >2</text>
<text x="446.993862" y="152.476528" fill="rgb(12,12,255)"  stroke="rgb(12,12,255)" stroke-width="1" font-size="16" >N</text>
<text x="527.576491" y="69.165922" fill="rgb(12,12,255)"  stroke="rgb(12,12,255)" stroke-width="1" font-size="16" >N</text>
<text x="803.614078" y="460.399814" fill="rgb(12,12,255)"  stroke="rgb(12,12,255)" stroke-width="1" font-size="16" >N</text>
<text x="753.588728" y="421.466603" fill="rgb(12,12,255)"  stroke="rgb(12,12,255)" stroke-width="1" font-size="16" >N</text>
<text x="710.368053" y="509.085267" fill="rgb(12,12,255)"  stroke="rgb(12,12,255)" stroke-width="1" font-size="16" >N</text>
<text x="687.784362" y="450.252741" fill="rgb(12,12,255)"  stroke="rgb(12,12,255)" stroke-width="1" font-size="16" >N</text>
<text x="387.262189" y="110.857766" fill="rgb(255,12,12)"  stroke="rgb(255,12,12)" stroke-width="1" font-size="16" >HO</text>
<text x="309.044161" y="160.647224" fill="rgb(255,12,12)"  stroke="rgb(255,12,12)" stroke-width="1" font-size="16" >O</text>
<text x="638.763616" y="447.604231" fill="rgb(255,12,12)"  stroke="rgb(255,12,12)" stroke-width="1" font-size="16" >OH</text>
<text x="604.251700" y="136.845560" fill="rgb(255,12,12)"  stroke="rgb(255,12,12)" stroke-width="1" font-size="16" >OH</text>
<text x="589.333642" y="48.320000" fill="rgb(255,12,12)"  stroke="rgb(255,12,12)" stroke-width="1" font-size="16" >OH</text>
<text x="518.701496" y="475.496153" fill="rgb(255,12,12)"  stroke="rgb(255,12,12)" stroke-width="1" font-size="16" >OH</text>
<text x="470.154127" y="436.548784" fill="rgb(255,12,12)"  stroke="rgb(255,12,12)" stroke-width="1" font-size="16" >HO</text>
<text x="518.701496" y="401.121416" fill="rgb(255,12,12)"  stroke="rgb(255,12,12)" stroke-width="1" font-size="16" >O</text>
<text x="475.268095" y="348.945263" fill="rgb(255,12,12)"  stroke="rgb(255,12,12)" stroke-width="1" font-size="16" >HO</text>
<text x="457.269433" y="306.271375" fill="rgb(255,12,12)"  stroke="rgb(255,12,12)" stroke-width="1" font-size="16" >O</text>
<text x="461.464660" y="230.078825" fill="rgb(255,12,12)"  stroke="rgb(255,12,12)" stroke-width="1" font-size="16" >HO</text>
<text x="517.258548" y="200.080163" fill="rgb(255,12,12)"  stroke="rgb(255,12,12)" stroke-width="1" font-size="16" >O</text>
<text x="531.061983" y="322.466601" fill="rgb(255,12,12)"  stroke="rgb(255,12,12)" stroke-width="1" font-size="16" >O</text>
<text x="547.257210" y="242.754052" fill="rgb(255,12,12)"  stroke="rgb(255,12,12)" stroke-width="1" font-size="16" >O</text>
<text x="619.289932" y="359.507750" fill="rgb(255,12,12)"  stroke="rgb(255,12,12)" stroke-width="1" font-size="16" >O</text>
<text x="557.648864" y="436.548784" fill="rgb(255,12,12)"  stroke="rgb(255,12,12)" stroke-width="1" font-size="16" >O</text>
<text x="501.063322" y="276.272713" fill="rgb(255,12,12)"  stroke="rgb(255,12,12)" stroke-width="1" font-size="16" >O</text>
<text x="518.701496" y="440.068784" fill="rgb(255,127,0)"  stroke="rgb(255,127,0)" stroke-width="1" font-size="16" >P</text>
<text x="492.965708" y="310.848988" fill="rgb(255,127,0)"  stroke="rgb(255,127,0)" stroke-width="1" font-size="16" >P</text>
<text x="509.160935" y="238.176438" fill="rgb(255,127,0)"  stroke="rgb(255,127,0)" stroke-width="1" font-size="16" >P</text>
<text x="356.775835" y="202.265985" fill="rgb(178,178,0)"  stroke="rgb(178,178,0)" stroke-width="1" font-size="16" >S</text>
<text x="123.735368" y="308.247559" fill="rgb(191,191,191)"  stroke="rgb(191,191,191)" stroke-width="1" font-size="16" >H</text>
<text x="201.917997" y="221.416953" fill="rgb(191,191,191)"  stroke="rgb(191,191,191)" stroke-width="1" font-size="16" >H</text>
<text x="571.558258" y="330.564215" fill="rgb(191,191,191)"  stroke="rgb(191,191,191)" stroke-width="1" font-size="16" >H</text>
<text x="603.067341" y="455.701844" fill="rgb(191,191,191)"  stroke="rgb(191,191,191)" stroke-width="1" font-size="16" >H</text>
<text x="540.575180" y="402.819374" fill="rgb(191,191,191)"  stroke="rgb(191,191,191)" stroke-width="1" font-size="16" >H</text>
<text x="612.349313" y="102.269285" fill="rgb(191,191,191)"  stroke="rgb(191,191,191)" stroke-width="1" font-size="16" >H</text>
<text x="663.550185" y="363.195132" fill="rgb(191,191,191)"  stroke="rgb(191,191,191)" stroke-width="1" font-size="16" >H</text>
<text font-size="18.000000" fill ="black" font-family="sans-serif"
x="140.000000" y="20.000000" ></text>
<title> - OBDepict</title>
</svg>
