<?xml version="1.0"?>
<svg xmlns="http://www.w3.org/2000/svg"
xmlns:xlink="http://www.w3.org/1999/xlink" xmlns:cml="http://www.xml-cml.org/schema" width="353.744" height="277.919" x="0" y="0" font-family="sans-serif" stroke="rgb(0,0,0)" stroke-width="1" >
<line x1="307.7" y1="228.2" x2="298.9" y2="198.2"/>
<line x1="313.5" y1="226.5" x2="304.6" y2="196.5"/>
<line x1="261.4" y1="191.6" x2="262.2" y2="191.4"/>
<line x1="262.2" y1="195.8" x2="263.8" y2="195.4"/>
<line x1="263.0" y1="200.0" x2="265.4" y2="199.3"/>
<line x1="263.9" y1="204.2" x2="266.9" y2="203.2"/>
<line x1="264.7" y1="208.3" x2="268.5" y2="207.2"/>
<line x1="265.5" y1="212.5" x2="270.1" y2="211.1"/>
<line x1="266.3" y1="216.7" x2="271.7" y2="215.1"/>
<line x1="113.8" y1="111.4" x2="113.1" y2="111.8"/>
<line x1="111.6" y1="107.7" x2="110.3" y2="108.6"/>
<line x1="109.4" y1="104.0" x2="107.5" y2="105.5"/>
<line x1="107.3" y1="100.4" x2="104.7" y2="102.3"/>
<line x1="105.1" y1="96.7" x2="101.9" y2="99.1"/>
<line x1="102.9" y1="93.1" x2="99.1" y2="95.9"/>
<line x1="100.8" y1="89.4" x2="96.2" y2="92.7"/>
<line x1="301.7" y1="197.4" x2="260.6" y2="187.5"/>
<line x1="196.9" y1="110.4" x2="196.1" y2="110.4"/>
<line x1="197.3" y1="105.7" x2="195.7" y2="105.7"/>
<line x1="197.7" y1="101.1" x2="195.3" y2="101.1"/>
<line x1="198.1" y1="96.4" x2="194.9" y2="96.4"/>
<line x1="198.5" y1="91.8" x2="194.5" y2="91.8"/>
<line x1="198.9" y1="87.1" x2="194.1" y2="87.1"/>
<line x1="199.3" y1="82.5" x2="193.7" y2="82.5"/>
<polygon points="191.409896 160.559859 215.955380 145.832034 210.921102 139.614634 " />
<line x1="146.5" y1="183.7" x2="151.2" y2="214.7"/>
<line x1="183.2" y1="140.7" x2="183.1" y2="141.5"/>
<line x1="179.0" y1="139.9" x2="178.8" y2="141.4"/>
<line x1="174.8" y1="139.0" x2="174.6" y2="141.4"/>
<line x1="170.7" y1="138.2" x2="170.3" y2="141.4"/>
<line x1="166.5" y1="137.3" x2="166.1" y2="141.3"/>
<line x1="162.3" y1="136.5" x2="161.8" y2="141.3"/>
<line x1="158.2" y1="135.6" x2="157.6" y2="141.2"/>
<line x1="80.8" y1="149.1" x2="50.1" y2="142.5"/>
<line x1="82.0" y1="143.2" x2="51.4" y2="136.7"/>
<line x1="115.9" y1="68.5" x2="92.8" y2="47.4"/>
<line x1="81.4" y1="146.1" x2="95.4" y2="177.5"/>
<line x1="112.3" y1="187.3" x2="146.5" y2="183.7"/>
<line x1="146.5" y1="183.7" x2="156.2" y2="138.3"/>
<line x1="156.2" y1="138.3" x2="115.9" y2="115.0"/>
<line x1="115.9" y1="115.0" x2="81.4" y2="146.1"/>
<line x1="244.6" y1="133.5" x2="268.2" y2="155.9"/>
<line x1="268.2" y1="155.9" x2="260.6" y2="187.5"/>
<line x1="260.6" y1="187.5" x2="229.4" y2="196.7"/>
<line x1="229.4" y1="196.7" x2="205.8" y2="174.3"/>
<line x1="205.8" y1="174.3" x2="213.4" y2="142.7"/>
<line x1="213.4" y1="142.7" x2="244.6" y2="133.5"/>
<line x1="178.1" y1="191.3" x2="205.8" y2="174.3"/>
<line x1="179.5" y1="182.0" x2="197.0" y2="171.3"/>
<line x1="213.4" y1="142.7" x2="196.5" y2="115.0"/>
<line x1="196.5" y1="115.0" x2="156.2" y2="138.3"/>
<line x1="146.5" y1="183.7" x2="178.1" y2="191.3"/>
<line x1="115.9" y1="68.5" x2="115.9" y2="115.0"/>
<line x1="196.5" y1="115.0" x2="196.4" y2="68.5"/>
<line x1="196.4" y1="68.5" x2="156.2" y2="45.3"/>
<line x1="156.2" y1="45.3" x2="115.9" y2="68.5"/>
<line x1="128.1" y1="89.6" x2="115.9" y2="68.5"/>
<line x1="196.5" y1="115.0" x2="163.6" y2="115.0"/>
<line x1="163.6" y1="115.0" x2="140.5" y2="101.7"/>
<text x="307.744462" y="242.719150" fill="rgb(102,102,102)"  stroke="rgb(102,102,102)" stroke-width="1" font-size="16" >CH</text>
<text x="331.744462" y="247.519150" fill="rgb(102,102,102)"  stroke="rgb(102,102,102)" stroke-width="1" font-size="13" >2</text>
<text x="266.609129" y="232.841429" fill="rgb(102,102,102)"  stroke="rgb(102,102,102)" stroke-width="1" font-size="16" >CH</text>
<text x="290.609129" y="237.641429" fill="rgb(102,102,102)"  stroke="rgb(102,102,102)" stroke-width="1" font-size="13" >3</text>
<text x="67.446019" y="89.115360" fill="rgb(102,102,102)"  stroke="rgb(102,102,102)" stroke-width="1" font-size="16" >H</text>
<text x="79.446019" y="96.795360" fill="rgb(102,102,102)"  stroke="rgb(102,102,102)" stroke-width="1" font-size="13" >3</text>
<text x="85.946019" y="89.115360" fill="rgb(102,102,102)"  stroke="rgb(102,102,102)" stroke-width="1" font-size="16" >C</text>
<text x="36.400000" y="145.640237" fill="rgb(255,12,12)"  stroke="rgb(255,12,12)" stroke-width="1" font-size="16" >O</text>
<text x="69.074872" y="48.320000" fill="rgb(255,12,12)"  stroke="rgb(255,12,12)" stroke-width="1" font-size="16" >HO</text>
<text x="128.766256" y="101.789220" fill="rgb(255,12,12)"  stroke="rgb(255,12,12)" stroke-width="1" font-size="16" >O</text>
<text x="96.688589" y="193.384786" fill="rgb(255,12,12)"  stroke="rgb(255,12,12)" stroke-width="1" font-size="16" >O</text>
<text x="176.960114" y="174.145013" fill="rgb(191,191,191)"  stroke="rgb(191,191,191)" stroke-width="1" font-size="16" >H</text>
<text x="146.804812" y="230.360983" fill="rgb(191,191,191)"  stroke="rgb(191,191,191)" stroke-width="1" font-size="16" >H</text>
<text x="192.258255" y="147.494374" fill="rgb(191,191,191)"  stroke="rgb(191,191,191)" stroke-width="1" font-size="16" >H</text>
<text font-size="18.000000" fill ="black" font-family="sans-serif"
x="140.000000" y="20.000000" ></text>
<title> - OBDepict</title>
</svg>
