<?xml version="1.0"?>
<svg xmlns="http://www.w3.org/2000/svg"
xmlns:xlink="http://www.w3.org/1999/xlink" xmlns:cml="http://www.xml-cml.org/schema" width="910.051" height="467.224" x="0" y="0" font-family="sans-serif" stroke="rgb(0,0,0)" stroke-width="1" >
<line x1="806.8" y1="221.2" x2="786.1" y2="200.5"/>
<line x1="480.4" y1="327.6" x2="452.1" y2="320.0"/>
<line x1="860.1" y1="98.7" x2="831.8" y2="106.2"/>
<line x1="372.9" y1="407.0" x2="365.3" y2="378.7"/>
<line x1="242.8" y1="264.1" x2="271.1" y2="256.5"/>
<line x1="730.1" y1="159.5" x2="740.3" y2="121.2"/>
<line x1="730.1" y1="159.5" x2="691.8" y2="169.7"/>
<line x1="740.3" y1="121.2" x2="712.3" y2="93.3"/>
<line x1="691.8" y1="169.7" x2="681.6" y2="208.0"/>
<line x1="549.1" y1="243.5" x2="577.1" y2="215.5"/>
<line x1="549.1" y1="243.5" x2="510.8" y2="233.2"/>
<line x1="577.1" y1="215.5" x2="615.3" y2="225.7"/>
<line x1="222.6" y1="417.0" x2="232.9" y2="378.7"/>
<line x1="222.6" y1="417.0" x2="194.3" y2="424.6"/>
<line x1="270.4" y1="130.4" x2="230.8" y2="130.4"/>
<line x1="270.4" y1="130.4" x2="285.0" y2="155.8"/>
<line x1="779.9" y1="225.1" x2="779.1" y2="224.9"/>
<line x1="781.3" y1="221.3" x2="779.7" y2="220.9"/>
<line x1="782.7" y1="217.6" x2="780.4" y2="217.0"/>
<line x1="784.1" y1="213.9" x2="781.0" y2="213.1"/>
<line x1="785.5" y1="210.2" x2="781.7" y2="209.2"/>
<line x1="786.9" y1="206.5" x2="782.3" y2="205.2"/>
<line x1="788.4" y1="202.7" x2="782.9" y2="201.3"/>
<line x1="786.1" y1="200.5" x2="814.1" y2="172.5"/>
<line x1="786.1" y1="200.5" x2="757.8" y2="192.9"/>
<polygon points="458.949049 345.611045 455.946466 318.950439 448.219059 321.020992 " />
<line x1="452.1" y1="320.0" x2="462.3" y2="281.7"/>
<line x1="452.1" y1="320.0" x2="423.8" y2="327.6"/>
<line x1="850.0" y1="123.9" x2="849.4" y2="124.4"/>
<line x1="847.5" y1="120.8" x2="846.4" y2="121.9"/>
<line x1="845.0" y1="117.7" x2="843.3" y2="119.4"/>
<line x1="842.5" y1="114.6" x2="840.2" y2="116.9"/>
<line x1="839.9" y1="111.6" x2="837.1" y2="114.4"/>
<line x1="837.4" y1="108.5" x2="834.0" y2="111.9"/>
<line x1="834.9" y1="105.4" x2="830.9" y2="109.3"/>
<line x1="831.8" y1="106.2" x2="821.6" y2="68.0"/>
<line x1="831.8" y1="106.2" x2="811.1" y2="127.0"/>
<line x1="347.7" y1="396.9" x2="347.1" y2="396.4"/>
<line x1="350.8" y1="394.4" x2="349.7" y2="393.3"/>
<line x1="353.9" y1="391.9" x2="352.2" y2="390.2"/>
<line x1="357.0" y1="389.4" x2="354.7" y2="387.1"/>
<line x1="360.0" y1="386.9" x2="357.2" y2="384.0"/>
<line x1="363.1" y1="384.3" x2="359.7" y2="381.0"/>
<line x1="366.2" y1="381.8" x2="362.2" y2="377.9"/>
<line x1="365.3" y1="378.7" x2="403.6" y2="368.5"/>
<line x1="365.3" y1="378.7" x2="344.6" y2="358.0"/>
<line x1="273.2" y1="254.4" x2="293.9" y2="275.1"/>
<line x1="269.0" y1="258.6" x2="289.7" y2="279.3"/>
<line x1="271.1" y1="256.5" x2="278.7" y2="228.2"/>
<polygon points="705.441602 67.625820 708.444185 94.286425 716.171591 92.215873 " />
<line x1="712.3" y1="93.3" x2="674.1" y2="103.5"/>
<line x1="712.3" y1="93.3" x2="733.0" y2="72.5"/>
<line x1="675.4" y1="232.6" x2="674.6" y2="232.4"/>
<line x1="676.8" y1="228.9" x2="675.3" y2="228.4"/>
<line x1="678.2" y1="225.1" x2="675.9" y2="224.5"/>
<line x1="679.6" y1="221.4" x2="676.5" y2="220.6"/>
<line x1="681.0" y1="217.7" x2="677.2" y2="216.7"/>
<line x1="682.4" y1="214.0" x2="677.8" y2="212.7"/>
<line x1="683.9" y1="210.2" x2="678.4" y2="208.8"/>
<line x1="681.6" y1="208.0" x2="719.8" y2="218.2"/>
<line x1="681.6" y1="208.0" x2="653.3" y2="200.4"/>
<line x1="486.2" y1="227.1" x2="486.5" y2="226.3"/>
<line x1="490.0" y1="228.5" x2="490.4" y2="226.9"/>
<line x1="493.7" y1="229.9" x2="494.3" y2="227.6"/>
<line x1="497.4" y1="231.3" x2="498.2" y2="228.2"/>
<line x1="501.1" y1="232.7" x2="502.2" y2="228.9"/>
<line x1="504.9" y1="234.1" x2="506.1" y2="229.5"/>
<line x1="508.6" y1="235.5" x2="510.0" y2="230.1"/>
<line x1="510.8" y1="233.2" x2="521.1" y2="195.0"/>
<line x1="510.8" y1="233.2" x2="503.2" y2="261.5"/>
<line x1="208.5" y1="385.7" x2="208.3" y2="384.9"/>
<line x1="212.4" y1="385.0" x2="212.0" y2="383.5"/>
<line x1="216.3" y1="384.4" x2="215.7" y2="382.1"/>
<line x1="220.3" y1="383.8" x2="219.4" y2="380.7"/>
<line x1="224.2" y1="383.1" x2="223.2" y2="379.3"/>
<line x1="228.1" y1="382.5" x2="226.9" y2="377.8"/>
<line x1="232.0" y1="381.8" x2="230.6" y2="376.4"/>
<polygon points="244.067441 107.443239 227.338693 128.418281 234.266896 132.418281 " />
<line x1="613.2" y1="223.6" x2="633.9" y2="202.9"/>
<line x1="617.4" y1="227.9" x2="638.2" y2="207.1"/>
<line x1="615.3" y1="225.7" x2="622.9" y2="254.0"/>
<line x1="72.0" y1="73.9" x2="48.3" y2="56.7"/>
<polygon points="314.472863 315.865423 287.812258 318.868006 289.882810 326.595413 " />
<line x1="288.8" y1="322.7" x2="296.4" y2="294.4"/>
<line x1="251.5" y1="174.7" x2="251.4" y2="175.5"/>
<line x1="247.7" y1="173.5" x2="247.4" y2="175.0"/>
<line x1="244.0" y1="172.2" x2="243.5" y2="174.6"/>
<line x1="240.2" y1="171.0" x2="239.5" y2="174.2"/>
<line x1="236.4" y1="169.8" x2="235.5" y2="173.7"/>
<line x1="232.6" y1="168.6" x2="231.6" y2="173.3"/>
<line x1="228.8" y1="167.4" x2="227.6" y2="172.9"/>
<line x1="226.7" y1="169.8" x2="235.7" y2="197.7"/>
<polygon points="264.230865 414.602370 274.960854 390.012317 267.233448 387.941765 " />
<line x1="271.1" y1="389.0" x2="291.8" y2="409.7"/>
<line x1="191.0" y1="203.2" x2="190.2" y2="203.3"/>
<line x1="191.0" y1="199.2" x2="189.4" y2="199.4"/>
<line x1="190.9" y1="195.2" x2="188.6" y2="195.5"/>
<line x1="190.9" y1="191.3" x2="187.7" y2="191.6"/>
<line x1="190.9" y1="187.3" x2="186.9" y2="187.7"/>
<line x1="190.9" y1="183.3" x2="186.1" y2="183.8"/>
<line x1="190.9" y1="179.3" x2="185.3" y2="179.9"/>
<line x1="187.9" y1="178.0" x2="164.2" y2="195.3"/>
<line x1="317.3" y1="378.6" x2="316.7" y2="379.2"/>
<line x1="314.8" y1="375.5" x2="313.6" y2="376.7"/>
<line x1="312.3" y1="372.4" x2="310.6" y2="374.1"/>
<line x1="309.7" y1="369.4" x2="307.5" y2="371.6"/>
<line x1="307.2" y1="366.3" x2="304.4" y2="369.1"/>
<line x1="304.7" y1="363.2" x2="301.3" y2="366.6"/>
<line x1="302.2" y1="360.1" x2="298.2" y2="364.1"/>
<line x1="299.1" y1="361.0" x2="327.4" y2="353.4"/>
<line x1="811.2" y1="173.3" x2="803.6" y2="145.0"/>
<line x1="817.0" y1="171.7" x2="809.4" y2="143.4"/>
<line x1="814.1" y1="172.5" x2="842.4" y2="180.1"/>
<line x1="461.6" y1="278.8" x2="489.9" y2="271.3"/>
<line x1="463.1" y1="284.6" x2="491.4" y2="277.1"/>
<line x1="462.3" y1="281.7" x2="441.6" y2="261.0"/>
<line x1="400.7" y1="367.7" x2="408.3" y2="339.4"/>
<line x1="406.5" y1="369.3" x2="414.1" y2="341.0"/>
<line x1="403.6" y1="368.5" x2="424.3" y2="389.2"/>
<line x1="717.7" y1="216.1" x2="738.4" y2="195.4"/>
<line x1="721.9" y1="220.4" x2="742.7" y2="199.6"/>
<line x1="719.8" y1="218.2" x2="727.4" y2="246.5"/>
<polygon points="143.899502 154.529121 169.762163 147.392867 166.508270 140.084504 " />
<line x1="168.1" y1="143.7" x2="144.4" y2="126.5"/>
<line x1="820.8" y1="70.9" x2="792.5" y2="63.3"/>
<line x1="822.3" y1="65.1" x2="794.0" y2="57.5"/>
<line x1="821.6" y1="68.0" x2="842.3" y2="47.3"/>
<line x1="677.0" y1="104.3" x2="669.4" y2="132.6"/>
<line x1="671.2" y1="102.7" x2="663.6" y2="131.0"/>
<line x1="674.1" y1="103.5" x2="653.3" y2="82.8"/>
<line x1="520.3" y1="192.1" x2="548.6" y2="184.5"/>
<line x1="521.9" y1="197.9" x2="550.2" y2="190.3"/>
<line x1="521.1" y1="195.0" x2="500.4" y2="174.3"/>
<polygon points="224.298443 309.020753 250.078669 316.449300 251.122879 308.517741 " />
<line x1="250.6" y1="312.5" x2="279.9" y2="261.7"/>
<line x1="102.9" y1="136.9" x2="99.8" y2="166.0"/>
<line x1="96.9" y1="136.3" x2="93.9" y2="165.4"/>
<line x1="329.8" y1="135.4" x2="329.8" y2="154.4"/>
<line x1="359.1" y1="167.7" x2="340.1" y2="167.7"/>
<line x1="359.1" y1="161.7" x2="340.1" y2="161.7"/>
<line x1="359.1" y1="243.9" x2="340.1" y2="243.9"/>
<line x1="326.8" y1="273.2" x2="326.8" y2="254.2"/>
<line x1="332.8" y1="273.2" x2="332.8" y2="254.2"/>
<line x1="300.5" y1="164.7" x2="319.5" y2="164.7"/>
<line x1="300.5" y1="243.9" x2="319.5" y2="243.9"/>
<line x1="329.8" y1="194.0" x2="329.8" y2="175.0"/>
<line x1="329.8" y1="214.6" x2="329.8" y2="233.6"/>
<line x1="230.8" y1="130.4" x2="226.7" y2="169.8"/>
<line x1="226.7" y1="169.8" x2="187.9" y2="178.0"/>
<line x1="187.9" y1="178.0" x2="168.1" y2="143.7"/>
<line x1="168.1" y1="143.7" x2="187.7" y2="122.0"/>
<line x1="204.0" y1="118.5" x2="230.8" y2="130.4"/>
<line x1="288.8" y1="322.7" x2="299.1" y2="361.0"/>
<line x1="299.1" y1="361.0" x2="271.1" y2="389.0"/>
<line x1="271.1" y1="389.0" x2="232.9" y2="378.7"/>
<line x1="232.9" y1="378.7" x2="225.3" y2="350.4"/>
<line x1="229.9" y1="333.2" x2="250.6" y2="312.5"/>
<line x1="250.6" y1="312.5" x2="288.8" y2="322.7"/>
<line x1="108.2" y1="57.8" x2="72.0" y2="73.9"/>
<line x1="72.0" y1="73.9" x2="69.0" y2="103.1"/>
<line x1="78.6" y1="80.6" x2="76.3" y2="101.8"/>
<line x1="76.2" y1="119.3" x2="99.9" y2="136.6"/>
<line x1="99.9" y1="136.6" x2="126.7" y2="124.7"/>
<line x1="137.2" y1="110.2" x2="140.2" y2="81.1"/>
<line x1="140.2" y1="81.1" x2="108.2" y2="57.8"/>
<line x1="131.2" y1="83.4" x2="108.8" y2="67.2"/>
<text x="808.053986" y="233.287806" fill="rgb(102,102,102)"  stroke="rgb(102,102,102)" stroke-width="1" font-size="16" >CH</text>
<text x="832.053986" y="238.087806" fill="rgb(102,102,102)"  stroke="rgb(102,102,102)" stroke-width="1" font-size="13" >3</text>
<text x="484.329523" y="335.033904" fill="rgb(102,102,102)"  stroke="rgb(102,102,102)" stroke-width="1" font-size="16" >CH</text>
<text x="508.329523" y="339.833904" fill="rgb(102,102,102)"  stroke="rgb(102,102,102)" stroke-width="1" font-size="13" >3</text>
<text x="864.051129" y="104.317143" fill="rgb(102,102,102)"  stroke="rgb(102,102,102)" stroke-width="1" font-size="16" >CH</text>
<text x="888.051129" y="111.997143" fill="rgb(102,102,102)"  stroke="rgb(102,102,102)" stroke-width="1" font-size="13" >3</text>
<text x="369.589243" y="421.775612" fill="rgb(102,102,102)"  stroke="rgb(102,102,102)" stroke-width="1" font-size="16" >CH</text>
<text x="393.589243" y="426.575612" fill="rgb(102,102,102)"  stroke="rgb(102,102,102)" stroke-width="1" font-size="13" >3</text>
<text x="209.250391" y="271.534566" fill="rgb(102,102,102)"  stroke="rgb(102,102,102)" stroke-width="1" font-size="16" >H</text>
<text x="221.250391" y="276.334566" fill="rgb(102,102,102)"  stroke="rgb(102,102,102)" stroke-width="1" font-size="13" >3</text>
<text x="227.750391" y="271.534566" fill="rgb(102,102,102)"  stroke="rgb(102,102,102)" stroke-width="1" font-size="16" >C</text>
<text x="734.306459" y="73.572578" fill="rgb(12,12,255)"  stroke="rgb(12,12,255)" stroke-width="1" font-size="16" >NH</text>
<text x="758.306459" y="81.252578" fill="rgb(12,12,255)"  stroke="rgb(12,12,255)" stroke-width="1" font-size="13" >2</text>
<text x="410.236003" y="338.553904" fill="rgb(12,12,255)"  stroke="rgb(12,12,255)" stroke-width="1" font-size="16" >N</text>
<text x="744.208654" y="198.561046" fill="rgb(12,12,255)"  stroke="rgb(12,12,255)" stroke-width="1" font-size="16" >N</text>
<text x="800.205797" y="142.563903" fill="rgb(12,12,255)"  stroke="rgb(12,12,255)" stroke-width="1" font-size="16" >N</text>
<text x="293.095723" y="292.804949" fill="rgb(12,12,255)"  stroke="rgb(12,12,255)" stroke-width="1" font-size="16" >N</text>
<text x="639.716563" y="206.063241" fill="rgb(12,12,255)"  stroke="rgb(12,12,255)" stroke-width="1" font-size="16" >N</text>
<text x="494.577711" y="276.290767" fill="rgb(12,12,255)"  stroke="rgb(12,12,255)" stroke-width="1" font-size="16" >N</text>
<text x="64.294899" y="118.095971" fill="rgb(12,12,255)"  stroke="rgb(12,12,255)" stroke-width="1" font-size="16" >N</text>
<text x="130.101413" y="125.264765" fill="rgb(12,12,255)"  stroke="rgb(12,12,255)" stroke-width="1" font-size="16" >N</text>
<text x="168.755443" y="432.023801" fill="rgb(255,12,12)"  stroke="rgb(255,12,12)" stroke-width="1" font-size="16" >HO</text>
<text x="276.545340" y="211.839618" fill="rgb(255,12,12)"  stroke="rgb(255,12,12)" stroke-width="1" font-size="32" >-</text>
<text x="275.345340" y="226.559618" fill="rgb(255,12,12)"  stroke="rgb(255,12,12)" stroke-width="1" font-size="16" >O</text>
<text x="620.766179" y="283.188572" fill="rgb(255,12,12)"  stroke="rgb(255,12,12)" stroke-width="1" font-size="32" >-</text>
<text x="619.566179" y="268.788572" fill="rgb(255,12,12)"  stroke="rgb(255,12,12)" stroke-width="1" font-size="16" >O</text>
<text x="35.200000" y="44.243001" fill="rgb(255,12,12)"  stroke="rgb(255,12,12)" stroke-width="1" font-size="32" >-</text>
<text x="36.400000" y="58.963001" fill="rgb(255,12,12)"  stroke="rgb(255,12,12)" stroke-width="1" font-size="16" >O</text>
<text x="232.899714" y="212.255325" fill="rgb(255,12,12)"  stroke="rgb(255,12,12)" stroke-width="1" font-size="16" >OH</text>
<text x="293.095723" y="421.775612" fill="rgb(255,12,12)"  stroke="rgb(255,12,12)" stroke-width="1" font-size="16" >OH</text>
<text x="140.299392" y="206.103714" fill="rgb(255,12,12)"  stroke="rgb(255,12,12)" stroke-width="1" font-size="16" >HO</text>
<text x="847.500746" y="201.938852" fill="rgb(255,12,12)"  stroke="rgb(255,12,12)" stroke-width="1" font-size="32" >-</text>
<text x="846.300746" y="187.538852" fill="rgb(255,12,12)"  stroke="rgb(255,12,12)" stroke-width="1" font-size="16" >O</text>
<text x="418.732379" y="262.060384" fill="rgb(255,12,12)"  stroke="rgb(255,12,12)" stroke-width="1" font-size="16" >HO</text>
<text x="425.586386" y="401.279235" fill="rgb(255,12,12)"  stroke="rgb(255,12,12)" stroke-width="1" font-size="16" >OH</text>
<text x="724.058271" y="261.286378" fill="rgb(255,12,12)"  stroke="rgb(255,12,12)" stroke-width="1" font-size="16" >OH</text>
<text x="779.709420" y="66.070383" fill="rgb(255,12,12)"  stroke="rgb(255,12,12)" stroke-width="1" font-size="16" >O</text>
<text x="843.554752" y="48.320000" fill="rgb(255,12,12)"  stroke="rgb(255,12,12)" stroke-width="1" font-size="16" >OH</text>
<text x="660.212939" y="146.546098" fill="rgb(255,12,12)"  stroke="rgb(255,12,12)" stroke-width="1" font-size="16" >O</text>
<text x="630.462556" y="83.820766" fill="rgb(255,12,12)"  stroke="rgb(255,12,12)" stroke-width="1" font-size="16" >HO</text>
<text x="553.320848" y="193.069059" fill="rgb(255,12,12)"  stroke="rgb(255,12,12)" stroke-width="1" font-size="16" >O</text>
<text x="477.475516" y="175.318675" fill="rgb(255,12,12)"  stroke="rgb(255,12,12)" stroke-width="1" font-size="16" >HO</text>
<text x="92.189799" y="180.748941" fill="rgb(255,12,12)"  stroke="rgb(255,12,12)" stroke-width="1" font-size="16" >O</text>
<text x="323.792693" y="133.433428" fill="rgb(255,12,12)"  stroke="rgb(255,12,12)" stroke-width="1" font-size="16" >OH</text>
<text x="363.388653" y="173.029388" fill="rgb(255,12,12)"  stroke="rgb(255,12,12)" stroke-width="1" font-size="16" >O</text>
<text x="363.388653" y="252.221307" fill="rgb(255,12,12)"  stroke="rgb(255,12,12)" stroke-width="1" font-size="16" >OH</text>
<text x="323.792693" y="288.297267" fill="rgb(255,12,12)"  stroke="rgb(255,12,12)" stroke-width="1" font-size="16" >O</text>
<text x="286.596734" y="169.509388" fill="rgb(255,12,12)"  stroke="rgb(255,12,12)" stroke-width="1" font-size="16" >O</text>
<text x="331.342483" y="359.050281" fill="rgb(255,12,12)"  stroke="rgb(255,12,12)" stroke-width="1" font-size="16" >O</text>
<text x="191.030085" y="122.633153" fill="rgb(255,12,12)"  stroke="rgb(255,12,12)" stroke-width="1" font-size="16" >O</text>
<text x="219.002203" y="348.802092" fill="rgb(255,12,12)"  stroke="rgb(255,12,12)" stroke-width="1" font-size="16" >O</text>
<text x="284.196734" y="252.221307" fill="rgb(255,12,12)"  stroke="rgb(255,12,12)" stroke-width="1" font-size="16" >O</text>
<text x="323.792693" y="209.105347" fill="rgb(255,12,12)"  stroke="rgb(255,12,12)" stroke-width="1" font-size="16" >O</text>
<text x="323.792693" y="169.509388" fill="rgb(255,127,0)"  stroke="rgb(255,127,0)" stroke-width="1" font-size="16" >P</text>
<text x="323.792693" y="248.701307" fill="rgb(255,127,0)"  stroke="rgb(255,127,0)" stroke-width="1" font-size="16" >P</text>
<text x="772.207226" y="243.535995" fill="rgb(191,191,191)"  stroke="rgb(191,191,191)" stroke-width="1" font-size="16" >H</text>
<text x="456.330951" y="363.032475" fill="rgb(191,191,191)"  stroke="rgb(191,191,191)" stroke-width="1" font-size="16" >H</text>
<text x="853.802940" y="139.043903" fill="rgb(191,191,191)"  stroke="rgb(191,191,191)" stroke-width="1" font-size="16" >H</text>
<text x="333.742483" y="411.527424" fill="rgb(191,191,191)"  stroke="rgb(191,191,191)" stroke-width="1" font-size="16" >H</text>
<text x="698.459699" y="63.324389" fill="rgb(191,191,191)"  stroke="rgb(191,191,191)" stroke-width="1" font-size="16" >H</text>
<text x="667.715134" y="251.038189" fill="rgb(191,191,191)"  stroke="rgb(191,191,191)" stroke-width="1" font-size="16" >H</text>
<text x="468.979139" y="231.315818" fill="rgb(191,191,191)"  stroke="rgb(191,191,191)" stroke-width="1" font-size="16" >H</text>
<text x="191.003631" y="393.777041" fill="rgb(191,191,191)"  stroke="rgb(191,191,191)" stroke-width="1" font-size="16" >H</text>
<text x="244.600774" y="104.447174" fill="rgb(191,191,191)"  stroke="rgb(191,191,191)" stroke-width="1" font-size="16" >H</text>
<text x="321.094294" y="320.803521" fill="rgb(191,191,191)"  stroke="rgb(191,191,191)" stroke-width="1" font-size="16" >H</text>
<text x="259.394582" y="182.829793" fill="rgb(191,191,191)"  stroke="rgb(191,191,191)" stroke-width="1" font-size="16" >H</text>
<text x="257.248963" y="432.023801" fill="rgb(191,191,191)"  stroke="rgb(191,191,191)" stroke-width="1" font-size="16" >H</text>
<text x="186.072101" y="222.208841" fill="rgb(191,191,191)"  stroke="rgb(191,191,191)" stroke-width="1" font-size="16" >H</text>
<text x="321.094294" y="393.777041" fill="rgb(191,191,191)"  stroke="rgb(191,191,191)" stroke-width="1" font-size="16" >H</text>
<text x="128.362508" y="164.643813" fill="rgb(191,191,191)"  stroke="rgb(191,191,191)" stroke-width="1" font-size="16" >H</text>
<text x="207.743563" y="315.635211" fill="rgb(191,191,191)"  stroke="rgb(191,191,191)" stroke-width="1" font-size="16" >H</text>
<text font-size="18.000000" fill ="black" font-family="sans-serif"
x="140.000000" y="20.000000" ></text>
<title> - OBDepict</title>
</svg>
