<?xml version="1.0"?>
<svg xmlns="http://www.w3.org/2000/svg"
xmlns:xlink="http://www.w3.org/1999/xlink" xmlns:cml="http://www.xml-cml.org/schema" width="407.791" height="232.907" x="0" y="0" font-family="sans-serif" stroke="rgb(0,0,0)" stroke-width="1" >
<line x1="348.5" y1="101.8" x2="310.0" y2="101.8"/>
<line x1="348.5" y1="101.8" x2="362.8" y2="126.5"/>
<line x1="104.4" y1="104.4" x2="77.2" y2="77.2"/>
<polygon points="322.917273 79.421594 306.549468 99.771465 313.477671 103.771465 " />
<line x1="334.7" y1="139.9" x2="334.7" y2="140.7"/>
<line x1="330.8" y1="139.5" x2="330.8" y2="141.1"/>
<line x1="327.0" y1="139.1" x2="327.0" y2="141.5"/>
<line x1="323.1" y1="138.7" x2="323.1" y2="141.9"/>
<line x1="319.3" y1="138.3" x2="319.3" y2="142.3"/>
<line x1="315.4" y1="137.9" x2="315.4" y2="142.7"/>
<line x1="311.6" y1="137.5" x2="311.6" y2="143.1"/>
<line x1="310.0" y1="140.3" x2="324.3" y2="165.0"/>
<polygon points="289.559258 181.899113 280.119656 157.549242 273.191453 161.549242 " />
<line x1="276.7" y1="159.5" x2="262.4" y2="184.2"/>
<line x1="231.3" y1="161.8" x2="230.6" y2="161.4"/>
<line x1="233.6" y1="158.7" x2="232.2" y2="157.9"/>
<line x1="235.9" y1="155.6" x2="233.8" y2="154.4"/>
<line x1="238.1" y1="152.4" x2="235.4" y2="150.8"/>
<line x1="240.4" y1="149.3" x2="236.9" y2="147.3"/>
<line x1="242.7" y1="146.2" x2="238.5" y2="143.8"/>
<line x1="245.0" y1="143.0" x2="240.1" y2="140.2"/>
<line x1="243.3" y1="140.3" x2="214.8" y2="140.3"/>
<polygon points="246.666081 76.184843 239.331759 101.249360 247.263318 102.293569 " />
<line x1="243.3" y1="101.8" x2="188.2" y2="116.5"/>
<line x1="74.3" y1="76.4" x2="81.7" y2="48.9"/>
<line x1="80.1" y1="78.0" x2="87.5" y2="50.5"/>
<line x1="77.2" y1="77.2" x2="49.7" y2="84.6"/>
<line x1="121.7" y1="168.9" x2="94.5" y2="141.6"/>
<line x1="122.6" y1="159.6" x2="103.8" y2="140.8"/>
<line x1="94.5" y1="141.6" x2="104.4" y2="104.4"/>
<line x1="104.4" y1="104.4" x2="141.6" y2="94.5"/>
<line x1="112.1" y1="109.8" x2="137.7" y2="103.0"/>
<line x1="141.6" y1="94.5" x2="161.8" y2="114.6"/>
<line x1="166.3" y1="131.4" x2="158.9" y2="158.9"/>
<line x1="158.8" y1="131.6" x2="153.5" y2="151.3"/>
<line x1="158.9" y1="158.9" x2="121.7" y2="168.9"/>
<line x1="276.7" y1="159.5" x2="243.3" y2="140.3"/>
<line x1="243.3" y1="140.3" x2="243.3" y2="101.8"/>
<line x1="243.3" y1="101.8" x2="268.0" y2="87.5"/>
<line x1="285.3" y1="87.5" x2="310.0" y2="101.8"/>
<line x1="310.0" y1="101.8" x2="310.0" y2="140.3"/>
<line x1="310.0" y1="140.3" x2="276.7" y2="159.5"/>
<text x="164.085475" y="140.910117" fill="rgb(12,12,255)"  stroke="rgb(12,12,255)" stroke-width="1" font-size="16" >+</text>
<text x="165.285475" y="126.510117" fill="rgb(12,12,255)"  stroke="rgb(12,12,255)" stroke-width="1" font-size="16" >N</text>
<text x="361.791347" y="139.929480" fill="rgb(255,12,12)"  stroke="rgb(255,12,12)" stroke-width="1" font-size="16" >OH</text>
<text x="323.272829" y="178.447999" fill="rgb(255,12,12)"  stroke="rgb(255,12,12)" stroke-width="1" font-size="16" >OH</text>
<text x="241.796295" y="197.707258" fill="rgb(255,12,12)"  stroke="rgb(255,12,12)" stroke-width="1" font-size="16" >HO</text>
<text x="189.179020" y="145.089983" fill="rgb(255,12,12)"  stroke="rgb(255,12,12)" stroke-width="1" font-size="16" >HO</text>
<text x="81.175358" y="48.320000" fill="rgb(255,12,12)"  stroke="rgb(255,12,12)" stroke-width="1" font-size="16" >O</text>
<text x="24.400000" y="91.975358" fill="rgb(255,12,12)"  stroke="rgb(255,12,12)" stroke-width="1" font-size="16" >HO</text>
<text x="270.655554" y="90.832205" fill="rgb(255,12,12)"  stroke="rgb(255,12,12)" stroke-width="1" font-size="16" >O</text>
<text x="323.272829" y="76.733449" fill="rgb(191,191,191)"  stroke="rgb(191,191,191)" stroke-width="1" font-size="16" >H</text>
<text x="342.532088" y="145.089983" fill="rgb(191,191,191)"  stroke="rgb(191,191,191)" stroke-width="1" font-size="16" >H</text>
<text x="289.914813" y="197.707258" fill="rgb(191,191,191)"  stroke="rgb(191,191,191)" stroke-width="1" font-size="16" >H</text>
<text x="220.438279" y="178.447999" fill="rgb(191,191,191)"  stroke="rgb(191,191,191)" stroke-width="1" font-size="16" >H</text>
<text x="242.325214" y="71.902477" fill="rgb(191,191,191)"  stroke="rgb(191,191,191)" stroke-width="1" font-size="16" >H</text>
<text font-size="18.000000" fill ="black" font-family="sans-serif"
x="140.000000" y="20.000000" ></text>
<title> - OBDepict</title>
</svg>
