<?xml version="1.0"?>
<svg xmlns="http://www.w3.org/2000/svg"
xmlns:xlink="http://www.w3.org/1999/xlink" xmlns:cml="http://www.xml-cml.org/schema" width="337.393" height="310.414" x="0" y="0" font-family="sans-serif" stroke="rgb(0,0,0)" stroke-width="1" >
<line x1="139.9" y1="46.5" x2="119.4" y2="64.9"/>
<line x1="93.3" y1="56.4" x2="119.4" y2="64.9"/>
<line x1="100.2" y1="107.0" x2="127.2" y2="101.3"/>
<line x1="269.5" y1="84.7" x2="261.0" y2="110.9"/>
<polygon points="136.672603 214.599560 140.672603 189.669328 132.672603 189.669328 " />
<polygon points="233.345206 158.785607 226.859349 134.383759 219.550985 137.637653 " />
<line x1="162.6" y1="112.8" x2="127.2" y2="101.3"/>
<line x1="162.6" y1="112.8" x2="190.2" y2="87.9"/>
<line x1="119.4" y1="64.9" x2="127.2" y2="101.3"/>
<line x1="120.2" y1="124.1" x2="119.4" y2="123.8"/>
<line x1="121.7" y1="120.7" x2="120.2" y2="120.2"/>
<line x1="123.3" y1="117.2" x2="121.0" y2="116.5"/>
<line x1="124.8" y1="113.8" x2="121.7" y2="112.8"/>
<line x1="126.3" y1="110.4" x2="122.5" y2="109.2"/>
<line x1="127.9" y1="107.0" x2="123.3" y2="105.5"/>
<line x1="129.4" y1="103.6" x2="124.1" y2="101.8"/>
<line x1="284.2" y1="105.5" x2="284.4" y2="106.3"/>
<line x1="280.5" y1="105.9" x2="280.8" y2="107.5"/>
<line x1="276.8" y1="106.3" x2="277.3" y2="108.7"/>
<line x1="273.0" y1="106.7" x2="273.7" y2="109.8"/>
<line x1="269.3" y1="107.1" x2="270.1" y2="111.0"/>
<line x1="265.6" y1="107.5" x2="266.6" y2="112.2"/>
<line x1="261.9" y1="107.8" x2="263.0" y2="113.3"/>
<line x1="261.0" y1="110.9" x2="268.7" y2="147.3"/>
<line x1="261.0" y1="110.9" x2="190.2" y2="87.9"/>
<line x1="73.7" y1="254.4" x2="49.9" y2="268.2"/>
<line x1="70.7" y1="249.2" x2="46.9" y2="263.0"/>
<line x1="201.1" y1="214.6" x2="248.8" y2="242.1"/>
<line x1="268.7" y1="147.3" x2="289.2" y2="128.9"/>
<line x1="233.3" y1="196.0" x2="222.1" y2="221.1"/>
<line x1="168.9" y1="196.0" x2="121.2" y2="168.5"/>
<polygon points="173.539226 69.367723 187.248229 90.571019 193.193387 85.217974 " />
<line x1="190.2" y1="87.9" x2="198.7" y2="61.7"/>
<line x1="290.6" y1="177.4" x2="268.7" y2="207.5"/>
<line x1="268.7" y1="207.5" x2="233.3" y2="196.0"/>
<line x1="233.3" y1="196.0" x2="233.3" y2="158.8"/>
<line x1="233.3" y1="158.8" x2="268.7" y2="147.3"/>
<line x1="268.7" y1="147.3" x2="290.6" y2="177.4"/>
<line x1="201.1" y1="251.8" x2="168.9" y2="270.4"/>
<line x1="168.9" y1="270.4" x2="136.7" y2="251.8"/>
<line x1="136.7" y1="251.8" x2="136.7" y2="214.6"/>
<line x1="136.7" y1="214.6" x2="168.9" y2="196.0"/>
<line x1="168.9" y1="196.0" x2="201.1" y2="214.6"/>
<line x1="201.1" y1="214.6" x2="201.1" y2="251.8"/>
<line x1="104.4" y1="270.4" x2="72.2" y2="251.8"/>
<line x1="72.2" y1="251.8" x2="72.2" y2="214.6"/>
<line x1="72.2" y1="214.6" x2="104.4" y2="196.0"/>
<line x1="104.4" y1="196.0" x2="136.7" y2="214.6"/>
<line x1="136.7" y1="251.8" x2="104.4" y2="270.4"/>
<line x1="127.9" y1="248.6" x2="106.0" y2="261.2"/>
<line x1="233.3" y1="196.0" x2="201.1" y2="214.6"/>
<line x1="168.9" y1="196.0" x2="168.9" y2="158.8"/>
<line x1="168.9" y1="158.8" x2="201.1" y2="140.2"/>
<line x1="201.1" y1="140.2" x2="233.3" y2="158.8"/>
<text x="141.096410" y="48.320000" fill="rgb(102,102,102)"  stroke="rgb(102,102,102)" stroke-width="1" font-size="16" >CH</text>
<text x="165.096410" y="56.000000" fill="rgb(102,102,102)"  stroke="rgb(102,102,102)" stroke-width="1" font-size="13" >3</text>
<text x="60.456360" y="61.719576" fill="rgb(102,102,102)"  stroke="rgb(102,102,102)" stroke-width="1" font-size="16" >H</text>
<text x="72.456360" y="69.399576" fill="rgb(102,102,102)"  stroke="rgb(102,102,102)" stroke-width="1" font-size="13" >3</text>
<text x="78.956360" y="61.719576" fill="rgb(102,102,102)"  stroke="rgb(102,102,102)" stroke-width="1" font-size="16" >C</text>
<text x="67.184568" y="113.830322" fill="rgb(102,102,102)"  stroke="rgb(102,102,102)" stroke-width="1" font-size="16" >H</text>
<text x="79.184568" y="118.630322" fill="rgb(102,102,102)"  stroke="rgb(102,102,102)" stroke-width="1" font-size="13" >3</text>
<text x="85.684568" y="113.830322" fill="rgb(102,102,102)"  stroke="rgb(102,102,102)" stroke-width="1" font-size="16" >C</text>
<text x="266.495414" y="83.822961" fill="rgb(102,102,102)"  stroke="rgb(102,102,102)" stroke-width="1" font-size="16" >CH</text>
<text x="290.495414" y="91.502961" fill="rgb(102,102,102)"  stroke="rgb(102,102,102)" stroke-width="1" font-size="13" >3</text>
<text x="130.672603" y="185.710258" fill="rgb(102,102,102)"  stroke="rgb(102,102,102)" stroke-width="1" font-size="16" >CH</text>
<text x="154.672603" y="193.390258" fill="rgb(102,102,102)"  stroke="rgb(102,102,102)" stroke-width="1" font-size="13" >3</text>
<text x="194.610820" y="133.113218" fill="rgb(102,102,102)"  stroke="rgb(102,102,102)" stroke-width="1" font-size="16" >H</text>
<text x="206.610820" y="140.793218" fill="rgb(102,102,102)"  stroke="rgb(102,102,102)" stroke-width="1" font-size="13" >3</text>
<text x="213.110820" y="133.113218" fill="rgb(102,102,102)"  stroke="rgb(102,102,102)" stroke-width="1" font-size="16" >C</text>
<text x="36.400000" y="275.213514" fill="rgb(255,12,12)"  stroke="rgb(255,12,12)" stroke-width="1" font-size="16" >O</text>
<text x="195.719115" y="60.826347" fill="rgb(255,12,12)"  stroke="rgb(255,12,12)" stroke-width="1" font-size="16" >OH</text>
<text x="112.082451" y="141.482222" fill="rgb(191,191,191)"  stroke="rgb(191,191,191)" stroke-width="1" font-size="16" >H</text>
<text x="291.393297" y="111.474861" fill="rgb(191,191,191)"  stroke="rgb(191,191,191)" stroke-width="1" font-size="16" >H</text>
<text x="259.569407" y="256.608862" fill="rgb(191,191,191)"  stroke="rgb(191,191,191)" stroke-width="1" font-size="16" >H</text>
<text x="290.385256" y="130.709417" fill="rgb(191,191,191)"  stroke="rgb(191,191,191)" stroke-width="1" font-size="16" >H</text>
<text x="214.610820" y="234.787298" fill="rgb(191,191,191)"  stroke="rgb(191,191,191)" stroke-width="1" font-size="16" >H</text>
<text x="100.848402" y="167.105607" fill="rgb(191,191,191)"  stroke="rgb(191,191,191)" stroke-width="1" font-size="16" >H</text>
<text x="161.722925" y="68.562596" fill="rgb(191,191,191)"  stroke="rgb(191,191,191)" stroke-width="1" font-size="16" >H</text>
<text font-size="18.000000" fill ="black" font-family="sans-serif"
x="140.000000" y="20.000000" ></text>
<title> - OBDepict</title>
</svg>
