<?xml version="1.0"?>
<svg xmlns="http://www.w3.org/2000/svg"
xmlns:xlink="http://www.w3.org/1999/xlink" xmlns:cml="http://www.xml-cml.org/schema" width="732.354" height="561.504" x="0" y="0" font-family="sans-serif" stroke="rgb(0,0,0)" stroke-width="1" >
<line x1="43.1" y1="335.2" x2="52.0" y2="362.5"/>
<line x1="417.0" y1="115.5" x2="438.4" y2="134.8"/>
<line x1="411.0" y1="143.7" x2="438.4" y2="134.8"/>
<line x1="52.0" y1="362.5" x2="90.1" y2="370.6"/>
<line x1="90.1" y1="370.6" x2="116.1" y2="341.7"/>
<line x1="116.1" y1="341.7" x2="154.1" y2="349.8"/>
<line x1="154.1" y1="349.8" x2="180.1" y2="320.9"/>
<line x1="180.1" y1="320.9" x2="218.2" y2="329.0"/>
<line x1="218.2" y1="329.0" x2="244.2" y2="300.1"/>
<line x1="244.2" y1="300.1" x2="232.2" y2="263.1"/>
<line x1="232.2" y1="263.1" x2="194.1" y2="255.0"/>
<line x1="194.1" y1="255.0" x2="174.9" y2="276.4"/>
<line x1="191.3" y1="256.0" x2="179.3" y2="219.0"/>
<line x1="197.0" y1="254.1" x2="185.0" y2="217.1"/>
<line x1="182.1" y1="218.0" x2="154.0" y2="212.1"/>
<line x1="182.1" y1="218.0" x2="208.1" y2="189.1"/>
<line x1="350.3" y1="81.6" x2="388.3" y2="89.7"/>
<line x1="350.3" y1="81.6" x2="324.3" y2="110.5"/>
<line x1="388.3" y1="89.7" x2="407.6" y2="68.3"/>
<line x1="310.2" y1="176.4" x2="272.2" y2="168.3"/>
<line x1="310.2" y1="176.4" x2="329.5" y2="155.0"/>
<line x1="272.2" y1="168.3" x2="253.0" y2="189.7"/>
<line x1="432.2" y1="350.7" x2="470.3" y2="358.8"/>
<line x1="432.2" y1="350.7" x2="423.3" y2="323.4"/>
<line x1="462.4" y1="208.8" x2="438.4" y2="134.8"/>
<line x1="462.4" y1="208.8" x2="443.1" y2="230.1"/>
<line x1="462.2" y1="335.3" x2="463.0" y2="335.0"/>
<line x1="463.0" y1="339.1" x2="464.5" y2="338.6"/>
<line x1="463.8" y1="342.9" x2="466.1" y2="342.2"/>
<line x1="464.7" y1="346.7" x2="467.7" y2="345.7"/>
<line x1="465.5" y1="350.5" x2="469.3" y2="349.3"/>
<line x1="466.3" y1="354.4" x2="470.9" y2="352.9"/>
<line x1="467.1" y1="358.2" x2="472.4" y2="356.5"/>
<line x1="327.1" y1="109.6" x2="336.0" y2="137.0"/>
<line x1="321.4" y1="111.5" x2="330.3" y2="138.8"/>
<line x1="324.3" y1="110.5" x2="296.1" y2="104.5"/>
<line x1="205.3" y1="190.1" x2="196.4" y2="162.7"/>
<line x1="211.0" y1="188.2" x2="202.1" y2="160.8"/>
<line x1="208.1" y1="189.1" x2="236.3" y2="195.1"/>
<polygon points="493.677897 438.079649 505.533732 414.535411 497.925280 412.063275 " />
<line x1="501.7" y1="413.3" x2="521.0" y2="434.7"/>
<polygon points="440.147183 397.481807 466.202738 401.481807 466.202738 393.481807 " />
<line x1="466.2" y1="397.5" x2="451.8" y2="422.4"/>
<polygon points="489.171385 97.833998 463.155011 102.081382 465.627147 109.689834 " />
<line x1="464.4" y1="105.9" x2="452.4" y2="68.9"/>
<line x1="464.4" y1="105.9" x2="438.4" y2="134.8"/>
<line x1="464.4" y1="105.9" x2="485.8" y2="125.1"/>
<line x1="667.9" y1="485.2" x2="678.2" y2="512.1"/>
<line x1="451.8" y1="71.8" x2="423.6" y2="65.9"/>
<line x1="453.0" y1="66.0" x2="424.8" y2="60.0"/>
<line x1="452.4" y1="68.9" x2="471.6" y2="47.5"/>
<line x1="543.3" y1="364.9" x2="543.9" y2="365.5"/>
<line x1="540.5" y1="367.7" x2="541.7" y2="368.7"/>
<line x1="537.7" y1="370.4" x2="539.6" y2="372.0"/>
<line x1="534.9" y1="373.2" x2="537.4" y2="375.2"/>
<line x1="532.1" y1="375.9" x2="535.2" y2="378.5"/>
<line x1="529.4" y1="378.7" x2="533.1" y2="381.7"/>
<line x1="526.6" y1="381.4" x2="530.9" y2="385.0"/>
<line x1="527.8" y1="384.4" x2="564.0" y2="429.1"/>
<line x1="407.9" y1="459.9" x2="407.9" y2="441.3"/>
<line x1="379.1" y1="431.2" x2="397.8" y2="431.2"/>
<line x1="410.9" y1="402.4" x2="410.9" y2="421.0"/>
<line x1="404.9" y1="402.4" x2="404.9" y2="421.0"/>
<line x1="376.2" y1="333.8" x2="380.1" y2="315.5"/>
<line x1="354.6" y1="296.7" x2="372.9" y2="300.6"/>
<line x1="353.4" y1="302.6" x2="371.7" y2="306.5"/>
<line x1="370.2" y1="223.6" x2="388.5" y2="227.5"/>
<line x1="407.3" y1="202.0" x2="403.4" y2="220.3"/>
<line x1="401.4" y1="200.8" x2="397.5" y2="219.1"/>
<line x1="410.3" y1="311.6" x2="392.1" y2="307.8"/>
<line x1="426.5" y1="235.6" x2="408.2" y2="231.7"/>
<line x1="436.6" y1="431.2" x2="418.0" y2="431.2"/>
<line x1="388.2" y1="277.5" x2="384.3" y2="295.8"/>
<line x1="392.4" y1="257.7" x2="396.2" y2="239.5"/>
<line x1="566.6" y1="482.4" x2="574.1" y2="454.6"/>
<line x1="586.8" y1="444.3" x2="615.5" y2="442.8"/>
<line x1="615.5" y1="442.8" x2="629.5" y2="479.1"/>
<line x1="629.5" y1="479.1" x2="607.1" y2="497.2"/>
<line x1="590.8" y1="498.1" x2="566.6" y2="482.4"/>
<line x1="592.9" y1="490.9" x2="575.6" y2="479.6"/>
<line x1="470.3" y1="358.8" x2="466.2" y2="397.5"/>
<line x1="466.2" y1="397.5" x2="501.7" y2="413.3"/>
<line x1="501.7" y1="413.3" x2="527.8" y2="384.4"/>
<line x1="527.8" y1="384.4" x2="513.4" y2="359.5"/>
<line x1="498.4" y1="352.8" x2="470.3" y2="358.8"/>
<line x1="615.5" y1="442.8" x2="633.6" y2="420.4"/>
<line x1="624.9" y1="442.7" x2="637.9" y2="426.6"/>
<line x1="650.0" y1="414.2" x2="678.4" y2="418.7"/>
<line x1="678.4" y1="418.7" x2="688.7" y2="445.5"/>
<line x1="673.8" y1="426.9" x2="681.3" y2="446.1"/>
<line x1="686.0" y1="462.8" x2="667.9" y2="485.2"/>
<line x1="667.9" y1="485.2" x2="629.5" y2="479.1"/>
<line x1="663.1" y1="477.1" x2="636.5" y2="472.9"/>
<text x="16.400000" y="333.879023" fill="rgb(102,102,102)"  stroke="rgb(102,102,102)" stroke-width="1" font-size="16" >H</text>
<text x="28.400000" y="341.559023" fill="rgb(102,102,102)"  stroke="rgb(102,102,102)" stroke-width="1" font-size="13" >3</text>
<text x="34.900000" y="333.879023" fill="rgb(102,102,102)"  stroke="rgb(102,102,102)" stroke-width="1" font-size="16" >C</text>
<text x="385.869257" y="117.083938" fill="rgb(102,102,102)"  stroke="rgb(102,102,102)" stroke-width="1" font-size="16" >H</text>
<text x="397.869257" y="124.763938" fill="rgb(102,102,102)"  stroke="rgb(102,102,102)" stroke-width="1" font-size="13" >3</text>
<text x="404.369257" y="117.083938" fill="rgb(102,102,102)"  stroke="rgb(102,102,102)" stroke-width="1" font-size="16" >C</text>
<text x="377.783802" y="151.603012" fill="rgb(102,102,102)"  stroke="rgb(102,102,102)" stroke-width="1" font-size="16" >H</text>
<text x="389.783802" y="156.403012" fill="rgb(102,102,102)"  stroke="rgb(102,102,102)" stroke-width="1" font-size="13" >3</text>
<text x="396.283802" y="151.603012" fill="rgb(102,102,102)"  stroke="rgb(102,102,102)" stroke-width="1" font-size="16" >C</text>
<text x="675.817151" y="526.304039" fill="rgb(12,12,255)"  stroke="rgb(12,12,255)" stroke-width="1" font-size="16" >NH</text>
<text x="699.817151" y="531.104039" fill="rgb(12,12,255)"  stroke="rgb(12,12,255)" stroke-width="1" font-size="13" >2</text>
<text x="330.269441" y="152.314852" fill="rgb(12,12,255)"  stroke="rgb(12,12,255)" stroke-width="1" font-size="16" >N</text>
<text x="410.734678" y="69.134622" fill="rgb(12,12,255)"  stroke="rgb(12,12,255)" stroke-width="1" font-size="16" >N</text>
<text x="686.354191" y="459.775791" fill="rgb(12,12,255)"  stroke="rgb(12,12,255)" stroke-width="1" font-size="16" >N</text>
<text x="636.407557" y="420.906323" fill="rgb(12,12,255)"  stroke="rgb(12,12,255)" stroke-width="1" font-size="16" >N</text>
<text x="593.248175" y="508.388142" fill="rgb(12,12,255)"  stroke="rgb(12,12,255)" stroke-width="1" font-size="16" >N</text>
<text x="570.698394" y="449.643953" fill="rgb(12,12,255)"  stroke="rgb(12,12,255)" stroke-width="1" font-size="16" >N</text>
<text x="281.413040" y="96.043866" fill="rgb(255,12,12)"  stroke="rgb(255,12,12)" stroke-width="1" font-size="32" >-</text>
<text x="282.613040" y="110.763866" fill="rgb(255,12,12)"  stroke="rgb(255,12,12)" stroke-width="1" font-size="16" >O</text>
<text x="192.530475" y="160.478564" fill="rgb(255,12,12)"  stroke="rgb(255,12,12)" stroke-width="1" font-size="16" >O</text>
<text x="521.751252" y="446.999420" fill="rgb(255,12,12)"  stroke="rgb(255,12,12)" stroke-width="1" font-size="16" >OH</text>
<text x="487.291156" y="136.707354" fill="rgb(255,12,12)"  stroke="rgb(255,12,12)" stroke-width="1" font-size="16" >OH</text>
<text x="473.595497" y="33.600000" fill="rgb(255,12,12)"  stroke="rgb(255,12,12)" stroke-width="1" font-size="32" >-</text>
<text x="472.395497" y="48.320000" fill="rgb(255,12,12)"  stroke="rgb(255,12,12)" stroke-width="1" font-size="16" >O</text>
<text x="403.069405" y="489.249462" fill="rgb(255,12,12)"  stroke="rgb(255,12,12)" stroke-width="1" font-size="32" >-</text>
<text x="401.869405" y="474.849462" fill="rgb(255,12,12)"  stroke="rgb(255,12,12)" stroke-width="1" font-size="16" >O</text>
<text x="364.180516" y="450.360573" fill="rgb(255,12,12)"  stroke="rgb(255,12,12)" stroke-width="1" font-size="32" >-</text>
<text x="365.380516" y="435.960573" fill="rgb(255,12,12)"  stroke="rgb(255,12,12)" stroke-width="1" font-size="16" >O</text>
<text x="401.869405" y="400.591684" fill="rgb(255,12,12)"  stroke="rgb(255,12,12)" stroke-width="1" font-size="16" >O</text>
<text x="358.486805" y="348.488589" fill="rgb(255,12,12)"  stroke="rgb(255,12,12)" stroke-width="1" font-size="16" >HO</text>
<text x="340.533187" y="305.884061" fill="rgb(255,12,12)"  stroke="rgb(255,12,12)" stroke-width="1" font-size="16" >O</text>
<text x="344.704096" y="229.805914" fill="rgb(255,12,12)"  stroke="rgb(255,12,12)" stroke-width="1" font-size="16" >HO</text>
<text x="400.428624" y="199.852295" fill="rgb(255,12,12)"  stroke="rgb(255,12,12)" stroke-width="1" font-size="16" >O</text>
<text x="414.211333" y="322.054970" fill="rgb(255,12,12)"  stroke="rgb(255,12,12)" stroke-width="1" font-size="16" >O</text>
<text x="430.382243" y="242.456823" fill="rgb(255,12,12)"  stroke="rgb(255,12,12)" stroke-width="1" font-size="16" >O</text>
<text x="502.306808" y="359.040501" fill="rgb(255,12,12)"  stroke="rgb(255,12,12)" stroke-width="1" font-size="16" >O</text>
<text x="440.758294" y="435.960573" fill="rgb(255,12,12)"  stroke="rgb(255,12,12)" stroke-width="1" font-size="16" >O</text>
<text x="384.257715" y="272.410442" fill="rgb(255,12,12)"  stroke="rgb(255,12,12)" stroke-width="1" font-size="16" >O</text>
<text x="401.869405" y="439.480573" fill="rgb(255,127,0)"  stroke="rgb(255,127,0)" stroke-width="1" font-size="16" >P</text>
<text x="376.172260" y="313.969515" fill="rgb(255,127,0)"  stroke="rgb(255,127,0)" stroke-width="1" font-size="16" >P</text>
<text x="392.343169" y="234.371369" fill="rgb(255,127,0)"  stroke="rgb(255,127,0)" stroke-width="1" font-size="16" >P</text>
<text x="240.186876" y="202.029550" fill="rgb(178,178,0)"  stroke="rgb(178,178,0)" stroke-width="1" font-size="16" >S</text>
<text x="164.521638" y="288.729780" fill="rgb(191,191,191)"  stroke="rgb(191,191,191)" stroke-width="1" font-size="16" >H</text>
<text x="140.486983" y="218.278717" fill="rgb(191,191,191)"  stroke="rgb(191,191,191)" stroke-width="1" font-size="16" >H</text>
<text x="454.650407" y="330.140425" fill="rgb(191,191,191)"  stroke="rgb(191,191,191)" stroke-width="1" font-size="16" >H</text>
<text x="486.112179" y="455.084875" fill="rgb(191,191,191)"  stroke="rgb(191,191,191)" stroke-width="1" font-size="16" >H</text>
<text x="423.713849" y="402.281807" fill="rgb(191,191,191)"  stroke="rgb(191,191,191)" stroke-width="1" font-size="16" >H</text>
<text x="495.376610" y="102.188280" fill="rgb(191,191,191)"  stroke="rgb(191,191,191)" stroke-width="1" font-size="16" >H</text>
<text x="546.500604" y="362.722346" fill="rgb(191,191,191)"  stroke="rgb(191,191,191)" stroke-width="1" font-size="16" >H</text>
<text font-size="18.000000" fill ="black" font-family="sans-serif"
x="140.000000" y="20.000000" ></text>
<title> - OBDepict</title>
</svg>
