<?xml version="1.0"?>
<svg xmlns="http://www.w3.org/2000/svg"
xmlns:xlink="http://www.w3.org/1999/xlink" xmlns:cml="http://www.xml-cml.org/schema" width="426.41" height="300" x="0" y="0" font-family="sans-serif" stroke="rgb(0,0,0)" stroke-width="1" >
<line x1="326.1" y1="94.8" x2="351.8" y2="80.0"/>
<line x1="351.8" y1="80.0" x2="386.4" y2="100.0"/>
<line x1="386.4" y1="100.0" x2="386.4" y2="140.0"/>
<line x1="386.4" y1="140.0" x2="351.8" y2="160.0"/>
<line x1="351.8" y1="160.0" x2="351.8" y2="200.0"/>
<line x1="351.8" y1="200.0" x2="377.4" y2="214.8"/>
<line x1="353.3" y1="202.6" x2="318.6" y2="222.6"/>
<line x1="350.3" y1="197.4" x2="315.6" y2="217.4"/>
<line x1="213.2" y1="80.0" x2="247.8" y2="100.0"/>
<line x1="213.2" y1="80.0" x2="178.6" y2="100.0"/>
<line x1="317.1" y1="220.0" x2="317.1" y2="249.6"/>
<line x1="317.1" y1="220.0" x2="282.5" y2="200.0"/>
<line x1="247.8" y1="100.0" x2="247.8" y2="140.0"/>
<line x1="178.6" y1="100.0" x2="143.9" y2="80.0"/>
<line x1="282.5" y1="200.0" x2="282.5" y2="170.4"/>
<line x1="284.0" y1="202.6" x2="249.3" y2="222.6"/>
<line x1="281.0" y1="197.4" x2="246.3" y2="217.4"/>
<line x1="247.8" y1="140.0" x2="213.2" y2="160.0"/>
<line x1="143.9" y1="80.0" x2="109.3" y2="100.0"/>
<line x1="247.8" y1="220.0" x2="247.8" y2="249.6"/>
<line x1="247.8" y1="220.0" x2="213.2" y2="200.0"/>
<line x1="213.2" y1="160.0" x2="213.2" y2="200.0"/>
<line x1="109.3" y1="100.0" x2="74.6" y2="80.0"/>
<line x1="213.2" y1="200.0" x2="187.6" y2="214.8"/>
<line x1="71.6" y1="80.0" x2="71.6" y2="50.4"/>
<line x1="77.6" y1="80.0" x2="77.6" y2="50.4"/>
<line x1="74.6" y1="80.0" x2="49.0" y2="94.8"/>
<text x="293.528129" y="104.800000" fill="rgb(102,102,102)"  stroke="rgb(102,102,102)" stroke-width="1" font-size="16" >H</text>
<text x="305.528129" y="109.600000" fill="rgb(102,102,102)"  stroke="rgb(102,102,102)" stroke-width="1" font-size="13" >3</text>
<text x="312.028129" y="104.800000" fill="rgb(102,102,102)"  stroke="rgb(102,102,102)" stroke-width="1" font-size="16" >C</text>
<text x="162.964065" y="224.800000" fill="rgb(255,12,12)"  stroke="rgb(255,12,12)" stroke-width="1" font-size="16" >HO</text>
<text x="68.641016" y="48.320000" fill="rgb(255,12,12)"  stroke="rgb(255,12,12)" stroke-width="1" font-size="16" >O</text>
<text x="35.200000" y="119.200000" fill="rgb(255,12,12)"  stroke="rgb(255,12,12)" stroke-width="1" font-size="32" >-</text>
<text x="36.400000" y="104.800000" fill="rgb(255,12,12)"  stroke="rgb(255,12,12)" stroke-width="1" font-size="16" >O</text>
<text x="380.410162" y="224.800000" fill="rgb(191,191,191)"  stroke="rgb(191,191,191)" stroke-width="1" font-size="16" >H</text>
<text x="311.128129" y="264.800000" fill="rgb(191,191,191)"  stroke="rgb(191,191,191)" stroke-width="1" font-size="16" >H</text>
<text x="276.487113" y="168.320000" fill="rgb(191,191,191)"  stroke="rgb(191,191,191)" stroke-width="1" font-size="16" >H</text>
<text x="241.846097" y="264.800000" fill="rgb(191,191,191)"  stroke="rgb(191,191,191)" stroke-width="1" font-size="16" >H</text>
<text font-size="18.000000" fill ="black" font-family="sans-serif"
x="140.000000" y="20.000000" ></text>
<title> - OBDepict</title>
</svg>
