<?xml version="1.0"?>
<svg xmlns="http://www.w3.org/2000/svg"
xmlns:xlink="http://www.w3.org/1999/xlink" xmlns:cml="http://www.xml-cml.org/schema" width="794.644" height="623.785" x="0" y="0" font-family="sans-serif" stroke="rgb(0,0,0)" stroke-width="1" >
<line x1="695.1" y1="576.4" x2="716.0" y2="555.5"/>
<line x1="744.6" y1="563.2" x2="716.0" y2="555.5"/>
<line x1="45.2" y1="411.5" x2="60.0" y2="437.1"/>
<line x1="45.2" y1="462.8" x2="60.0" y2="437.1"/>
<line x1="664.0" y1="460.5" x2="684.9" y2="439.6"/>
<line x1="165.2" y1="342.2" x2="180.0" y2="367.8"/>
<line x1="566.0" y1="362.5" x2="587.0" y2="341.6"/>
<line x1="285.2" y1="272.9" x2="300.0" y2="298.6"/>
<line x1="468.1" y1="264.6" x2="489.0" y2="243.6"/>
<polygon points="420.000000 229.282032 429.935898 254.491513 436.864102 250.491513 " />
<line x1="733.9" y1="488.6" x2="705.7" y2="516.9"/>
<line x1="733.9" y1="488.6" x2="723.6" y2="449.9"/>
<line x1="120.0" y1="402.5" x2="100.0" y2="437.1"/>
<line x1="120.0" y1="402.5" x2="160.0" y2="402.5"/>
<line x1="636.0" y1="390.6" x2="674.6" y2="401.0"/>
<line x1="636.0" y1="390.6" x2="625.6" y2="352.0"/>
<line x1="240.0" y1="333.2" x2="220.0" y2="367.8"/>
<line x1="240.0" y1="333.2" x2="280.0" y2="333.2"/>
<line x1="538.0" y1="292.6" x2="576.6" y2="303.0"/>
<line x1="538.0" y1="292.6" x2="527.6" y2="254.0"/>
<line x1="360.0" y1="263.9" x2="340.0" y2="298.6"/>
<line x1="360.0" y1="263.9" x2="400.0" y2="263.9"/>
<line x1="708.6" y1="516.1" x2="718.9" y2="554.7"/>
<line x1="702.8" y1="517.6" x2="713.1" y2="556.3"/>
<line x1="100.0" y1="440.1" x2="60.0" y2="440.1"/>
<line x1="100.0" y1="434.1" x2="60.0" y2="434.1"/>
<line x1="723.6" y1="449.9" x2="684.9" y2="439.6"/>
<line x1="160.0" y1="402.5" x2="180.0" y2="367.8"/>
<line x1="674.6" y1="401.0" x2="695.5" y2="380.0"/>
<line x1="677.5" y1="400.2" x2="687.8" y2="438.8"/>
<line x1="671.7" y1="401.7" x2="682.1" y2="440.4"/>
<line x1="220.0" y1="367.8" x2="234.8" y2="393.5"/>
<line x1="220.0" y1="370.8" x2="180.0" y2="370.8"/>
<line x1="220.0" y1="364.8" x2="180.0" y2="364.8"/>
<line x1="625.6" y1="352.0" x2="587.0" y2="341.6"/>
<line x1="280.0" y1="333.2" x2="300.0" y2="298.6"/>
<line x1="576.6" y1="303.0" x2="597.5" y2="282.0"/>
<line x1="579.5" y1="302.2" x2="589.9" y2="340.8"/>
<line x1="573.7" y1="303.7" x2="584.1" y2="342.4"/>
<line x1="527.6" y1="254.0" x2="489.0" y2="243.6"/>
<line x1="340.0" y1="298.6" x2="354.8" y2="324.2"/>
<line x1="340.0" y1="301.6" x2="300.0" y2="301.6"/>
<line x1="340.0" y1="295.6" x2="300.0" y2="295.6"/>
<line x1="400.0" y1="263.9" x2="420.0" y2="229.3"/>
<line x1="478.6" y1="205.0" x2="499.6" y2="184.1"/>
<line x1="481.5" y1="204.2" x2="491.9" y2="242.9"/>
<line x1="475.7" y1="205.8" x2="486.1" y2="244.4"/>
<line x1="478.6" y1="205.0" x2="440.0" y2="194.6"/>
<line x1="360.0" y1="194.6" x2="400.0" y2="194.6"/>
<line x1="360.0" y1="194.6" x2="345.2" y2="169.0"/>
<polygon points="451.494737 170.431286 436.386607 192.925384 443.613393 196.356649 " />
<line x1="386.9" y1="172.7" x2="387.5" y2="172.3"/>
<line x1="388.5" y1="176.3" x2="389.9" y2="175.5"/>
<line x1="390.2" y1="180.0" x2="392.2" y2="178.8"/>
<line x1="391.8" y1="183.7" x2="394.6" y2="182.1"/>
<line x1="393.5" y1="187.3" x2="396.9" y2="185.3"/>
<line x1="395.1" y1="191.0" x2="399.3" y2="188.6"/>
<line x1="396.8" y1="194.7" x2="401.6" y2="191.9"/>
<line x1="270.4" y1="80.0" x2="289.6" y2="80.0"/>
<line x1="300.0" y1="50.4" x2="300.0" y2="69.6"/>
<line x1="329.6" y1="83.0" x2="310.4" y2="83.0"/>
<line x1="329.6" y1="77.0" x2="310.4" y2="77.0"/>
<line x1="300.0" y1="189.6" x2="300.0" y2="170.4"/>
<line x1="270.4" y1="157.0" x2="289.6" y2="157.0"/>
<line x1="270.4" y1="163.0" x2="289.6" y2="163.0"/>
<line x1="329.6" y1="160.0" x2="310.4" y2="160.0"/>
<line x1="300.0" y1="109.6" x2="300.0" y2="90.4"/>
<line x1="300.0" y1="130.4" x2="300.0" y2="149.6"/>
<line x1="440.0" y1="194.6" x2="400.0" y2="194.6"/>
<line x1="400.0" y1="194.6" x2="420.0" y2="229.3"/>
<line x1="420.0" y1="229.3" x2="440.0" y2="194.6"/>
<text x="664.122988" y="588.585361" fill="rgb(102,102,102)"  stroke="rgb(102,102,102)" stroke-width="1" font-size="16" >H</text>
<text x="676.122988" y="593.385361" fill="rgb(102,102,102)"  stroke="rgb(102,102,102)" stroke-width="1" font-size="13" >3</text>
<text x="682.622988" y="588.585361" fill="rgb(102,102,102)"  stroke="rgb(102,102,102)" stroke-width="1" font-size="16" >C</text>
<text x="748.644293" y="570.653851" fill="rgb(102,102,102)"  stroke="rgb(102,102,102)" stroke-width="1" font-size="16" >CH</text>
<text x="772.644293" y="575.453851" fill="rgb(102,102,102)"  stroke="rgb(102,102,102)" stroke-width="1" font-size="13" >3</text>
<text x="16.400000" y="410.807113" fill="rgb(102,102,102)"  stroke="rgb(102,102,102)" stroke-width="1" font-size="16" >H</text>
<text x="28.400000" y="418.487113" fill="rgb(102,102,102)"  stroke="rgb(102,102,102)" stroke-width="1" font-size="13" >3</text>
<text x="34.900000" y="410.807113" fill="rgb(102,102,102)"  stroke="rgb(102,102,102)" stroke-width="1" font-size="16" >C</text>
<text x="16.400000" y="476.569145" fill="rgb(102,102,102)"  stroke="rgb(102,102,102)" stroke-width="1" font-size="16" >H</text>
<text x="28.400000" y="481.369145" fill="rgb(102,102,102)"  stroke="rgb(102,102,102)" stroke-width="1" font-size="13" >3</text>
<text x="34.900000" y="476.569145" fill="rgb(102,102,102)"  stroke="rgb(102,102,102)" stroke-width="1" font-size="16" >C</text>
<text x="633.064703" y="472.674262" fill="rgb(102,102,102)"  stroke="rgb(102,102,102)" stroke-width="1" font-size="16" >H</text>
<text x="645.064703" y="477.474262" fill="rgb(102,102,102)"  stroke="rgb(102,102,102)" stroke-width="1" font-size="13" >3</text>
<text x="651.564703" y="472.674262" fill="rgb(102,102,102)"  stroke="rgb(102,102,102)" stroke-width="1" font-size="16" >C</text>
<text x="136.400000" y="341.525081" fill="rgb(102,102,102)"  stroke="rgb(102,102,102)" stroke-width="1" font-size="16" >H</text>
<text x="148.400000" y="349.205081" fill="rgb(102,102,102)"  stroke="rgb(102,102,102)" stroke-width="1" font-size="13" >3</text>
<text x="154.900000" y="341.525081" fill="rgb(102,102,102)"  stroke="rgb(102,102,102)" stroke-width="1" font-size="16" >C</text>
<text x="535.085113" y="374.694672" fill="rgb(102,102,102)"  stroke="rgb(102,102,102)" stroke-width="1" font-size="16" >H</text>
<text x="547.085113" y="379.494672" fill="rgb(102,102,102)"  stroke="rgb(102,102,102)" stroke-width="1" font-size="13" >3</text>
<text x="553.585113" y="374.694672" fill="rgb(102,102,102)"  stroke="rgb(102,102,102)" stroke-width="1" font-size="16" >C</text>
<text x="256.400000" y="272.243048" fill="rgb(102,102,102)"  stroke="rgb(102,102,102)" stroke-width="1" font-size="16" >H</text>
<text x="268.400000" y="279.923048" fill="rgb(102,102,102)"  stroke="rgb(102,102,102)" stroke-width="1" font-size="13" >3</text>
<text x="274.900000" y="272.243048" fill="rgb(102,102,102)"  stroke="rgb(102,102,102)" stroke-width="1" font-size="16" >C</text>
<text x="437.105524" y="276.715082" fill="rgb(102,102,102)"  stroke="rgb(102,102,102)" stroke-width="1" font-size="16" >H</text>
<text x="449.105524" y="281.515082" fill="rgb(102,102,102)"  stroke="rgb(102,102,102)" stroke-width="1" font-size="13" >3</text>
<text x="455.605524" y="276.715082" fill="rgb(102,102,102)"  stroke="rgb(102,102,102)" stroke-width="1" font-size="16" >C</text>
<text x="434.000000" y="268.723048" fill="rgb(102,102,102)"  stroke="rgb(102,102,102)" stroke-width="1" font-size="16" >CH</text>
<text x="458.000000" y="273.523048" fill="rgb(102,102,102)"  stroke="rgb(102,102,102)" stroke-width="1" font-size="13" >3</text>
<text x="256.100000" y="74.800000" fill="rgb(255,12,12)"  stroke="rgb(255,12,12)" stroke-width="1" font-size="26" >-</text>
<text x="256.400000" y="88.320000" fill="rgb(255,12,12)"  stroke="rgb(255,12,12)" stroke-width="1" font-size="16" >O</text>
<text x="295.200000" y="33.600000" fill="rgb(255,12,12)"  stroke="rgb(255,12,12)" stroke-width="1" font-size="32" >-</text>
<text x="294.000000" y="48.320000" fill="rgb(255,12,12)"  stroke="rgb(255,12,12)" stroke-width="1" font-size="16" >O</text>
<text x="334.000000" y="84.800000" fill="rgb(255,12,12)"  stroke="rgb(255,12,12)" stroke-width="1" font-size="16" >O</text>
<text x="295.200000" y="219.200000" fill="rgb(255,12,12)"  stroke="rgb(255,12,12)" stroke-width="1" font-size="32" >-</text>
<text x="294.000000" y="204.800000" fill="rgb(255,12,12)"  stroke="rgb(255,12,12)" stroke-width="1" font-size="16" >O</text>
<text x="256.400000" y="168.320000" fill="rgb(255,12,12)"  stroke="rgb(255,12,12)" stroke-width="1" font-size="16" >O</text>
<text x="334.000000" y="168.320000" fill="rgb(255,12,12)"  stroke="rgb(255,12,12)" stroke-width="1" font-size="16" >O</text>
<text x="294.000000" y="124.800000" fill="rgb(255,12,12)"  stroke="rgb(255,12,12)" stroke-width="1" font-size="16" >O</text>
<text x="294.000000" y="88.320000" fill="rgb(255,127,0)"  stroke="rgb(255,127,0)" stroke-width="1" font-size="16" >P</text>
<text x="294.000000" y="164.800000" fill="rgb(255,127,0)"  stroke="rgb(255,127,0)" stroke-width="1" font-size="16" >P</text>
<text x="696.880484" y="380.988686" fill="rgb(191,191,191)"  stroke="rgb(191,191,191)" stroke-width="1" font-size="16" >H</text>
<text x="234.000000" y="407.287113" fill="rgb(191,191,191)"  stroke="rgb(191,191,191)" stroke-width="1" font-size="16" >H</text>
<text x="598.900894" y="283.009096" fill="rgb(191,191,191)"  stroke="rgb(191,191,191)" stroke-width="1" font-size="16" >H</text>
<text x="354.000000" y="338.005081" fill="rgb(191,191,191)"  stroke="rgb(191,191,191)" stroke-width="1" font-size="16" >H</text>
<text x="500.921304" y="185.029507" fill="rgb(191,191,191)"  stroke="rgb(191,191,191)" stroke-width="1" font-size="16" >H</text>
<text x="451.156324" y="166.827091" fill="rgb(191,191,191)"  stroke="rgb(191,191,191)" stroke-width="1" font-size="16" >H</text>
<text x="376.400000" y="168.320000" fill="rgb(191,191,191)"  stroke="rgb(191,191,191)" stroke-width="1" font-size="16" >H</text>
<text font-size="18.000000" fill ="black" font-family="sans-serif"
x="140.000000" y="20.000000" ></text>
<title> - OBDepict</title>
</svg>
