<?xml version="1.0"?>
<svg xmlns="http://www.w3.org/2000/svg"
xmlns:xlink="http://www.w3.org/1999/xlink" xmlns:cml="http://www.xml-cml.org/schema" width="398.315" height="326.571" x="0" y="0" font-family="sans-serif" stroke="rgb(0,0,0)" stroke-width="1" >
<line x1="140.0" y1="110.4" x2="180.0" y2="110.4"/>
<line x1="140.0" y1="110.4" x2="125.2" y2="136.0"/>
<line x1="203.5" y1="78.0" x2="194.4" y2="49.9"/>
<line x1="241.6" y1="90.4" x2="265.5" y2="73.0"/>
<line x1="320.3" y1="245.4" x2="348.4" y2="254.5"/>
<line x1="241.6" y1="130.4" x2="265.5" y2="147.8"/>
<line x1="252.5" y1="259.8" x2="230.5" y2="279.6"/>
<line x1="80.0" y1="115.4" x2="80.0" y2="134.6"/>
<line x1="50.4" y1="145.0" x2="69.6" y2="145.0"/>
<line x1="77.0" y1="174.6" x2="77.0" y2="155.4"/>
<line x1="83.0" y1="174.6" x2="83.0" y2="155.4"/>
<line x1="109.6" y1="145.0" x2="90.4" y2="145.0"/>
<line x1="312.0" y1="141.6" x2="283.8" y2="150.7"/>
<line x1="273.9" y1="164.3" x2="273.9" y2="193.9"/>
<line x1="273.9" y1="193.9" x2="312.0" y2="206.3"/>
<line x1="281.8" y1="188.9" x2="308.5" y2="197.6"/>
<line x1="312.0" y1="206.3" x2="329.4" y2="182.3"/>
<line x1="329.4" y1="165.5" x2="312.0" y2="141.6"/>
<line x1="322.4" y1="168.1" x2="309.7" y2="150.6"/>
<line x1="180.0" y1="110.4" x2="203.5" y2="78.0"/>
<line x1="203.5" y1="78.0" x2="241.6" y2="90.4"/>
<line x1="241.6" y1="90.4" x2="241.6" y2="130.4"/>
<line x1="241.6" y1="130.4" x2="213.4" y2="139.5"/>
<line x1="197.4" y1="134.3" x2="180.0" y2="110.4"/>
<line x1="320.3" y1="245.4" x2="312.0" y2="206.3"/>
<line x1="273.9" y1="193.9" x2="251.9" y2="213.7"/>
<line x1="246.4" y1="230.9" x2="252.5" y2="259.8"/>
<line x1="253.8" y1="231.3" x2="258.3" y2="252.4"/>
<line x1="252.5" y1="259.8" x2="280.7" y2="269.0"/>
<line x1="298.3" y1="265.2" x2="320.3" y2="245.4"/>
<line x1="294.9" y1="258.5" x2="311.0" y2="244.1"/>
<text x="329.468021" y="182.234351" fill="rgb(12,12,255)"  stroke="rgb(12,12,255)" stroke-width="1" font-size="16" >N</text>
<text x="240.588557" y="228.999575" fill="rgb(12,12,255)"  stroke="rgb(12,12,255)" stroke-width="1" font-size="16" >N</text>
<text x="284.547286" y="276.966159" fill="rgb(12,12,255)"  stroke="rgb(12,12,255)" stroke-width="1" font-size="16" >N</text>
<text x="270.314351" y="162.234351" fill="rgb(12,12,255)"  stroke="rgb(12,12,255)" stroke-width="1" font-size="16" >N</text>
<text x="175.550730" y="48.320000" fill="rgb(255,12,12)"  stroke="rgb(255,12,12)" stroke-width="1" font-size="16" >HO</text>
<text x="267.914351" y="75.211530" fill="rgb(255,12,12)"  stroke="rgb(255,12,12)" stroke-width="1" font-size="16" >OH</text>
<text x="353.515339" y="276.961614" fill="rgb(255,12,12)"  stroke="rgb(255,12,12)" stroke-width="1" font-size="32" >-</text>
<text x="352.315339" y="262.561614" fill="rgb(255,12,12)"  stroke="rgb(255,12,12)" stroke-width="1" font-size="16" >O</text>
<text x="217.979232" y="305.770703" fill="rgb(255,12,12)"  stroke="rgb(255,12,12)" stroke-width="1" font-size="32" >-</text>
<text x="219.179232" y="291.370703" fill="rgb(255,12,12)"  stroke="rgb(255,12,12)" stroke-width="1" font-size="16" >O</text>
<text x="74.000000" y="113.363957" fill="rgb(255,12,12)"  stroke="rgb(255,12,12)" stroke-width="1" font-size="16" >OH</text>
<text x="24.400000" y="149.843957" fill="rgb(255,12,12)"  stroke="rgb(255,12,12)" stroke-width="1" font-size="16" >HO</text>
<text x="74.000000" y="189.843957" fill="rgb(255,12,12)"  stroke="rgb(255,12,12)" stroke-width="1" font-size="16" >O</text>
<text x="114.000000" y="149.843957" fill="rgb(255,12,12)"  stroke="rgb(255,12,12)" stroke-width="1" font-size="16" >O</text>
<text x="199.911410" y="147.563620" fill="rgb(255,12,12)"  stroke="rgb(255,12,12)" stroke-width="1" font-size="16" >O</text>
<text x="74.000000" y="149.843957" fill="rgb(255,127,0)"  stroke="rgb(255,127,0)" stroke-width="1" font-size="16" >P</text>
<text font-size="18.000000" fill ="black" font-family="sans-serif"
x="140.000000" y="20.000000" ></text>
<title> - OBDepict</title>
</svg>
