<?xml version="1.0"?>
<svg xmlns="http://www.w3.org/2000/svg"
xmlns:xlink="http://www.w3.org/1999/xlink" xmlns:cml="http://www.xml-cml.org/schema" width="258.564" height="240" x="0" y="0" font-family="sans-serif" stroke="rgb(0,0,0)" stroke-width="1" >
<line x1="74.6" y1="180.0" x2="74.6" y2="140.0"/>
<line x1="76.1" y1="177.4" x2="101.8" y2="192.2"/>
<line x1="73.1" y1="182.6" x2="98.8" y2="197.4"/>
<line x1="143.9" y1="140.0" x2="109.3" y2="120.0"/>
<line x1="143.9" y1="140.0" x2="169.6" y2="125.2"/>
<line x1="74.6" y1="140.0" x2="109.3" y2="120.0"/>
<line x1="74.6" y1="140.0" x2="49.0" y2="125.2"/>
<line x1="109.3" y1="120.0" x2="109.3" y2="90.4"/>
<line x1="208.2" y1="80.0" x2="189.0" y2="80.0"/>
<line x1="178.6" y1="50.4" x2="178.6" y2="69.6"/>
<line x1="149.0" y1="77.0" x2="168.2" y2="77.0"/>
<line x1="149.0" y1="83.0" x2="168.2" y2="83.0"/>
<line x1="178.6" y1="109.6" x2="178.6" y2="90.4"/>
<text x="103.282032" y="204.800000" fill="rgb(12,12,255)"  stroke="rgb(12,12,255)" stroke-width="1" font-size="16" >NH</text>
<text x="24.400000" y="128.320000" fill="rgb(255,12,12)"  stroke="rgb(255,12,12)" stroke-width="1" font-size="16" >HO</text>
<text x="103.282032" y="88.320000" fill="rgb(255,12,12)"  stroke="rgb(255,12,12)" stroke-width="1" font-size="16" >OH</text>
<text x="213.764065" y="99.200000" fill="rgb(255,12,12)"  stroke="rgb(255,12,12)" stroke-width="1" font-size="32" >-</text>
<text x="212.564065" y="84.800000" fill="rgb(255,12,12)"  stroke="rgb(255,12,12)" stroke-width="1" font-size="16" >O</text>
<text x="172.564065" y="48.320000" fill="rgb(255,12,12)"  stroke="rgb(255,12,12)" stroke-width="1" font-size="16" >OH</text>
<text x="134.964065" y="84.800000" fill="rgb(255,12,12)"  stroke="rgb(255,12,12)" stroke-width="1" font-size="16" >O</text>
<text x="172.564065" y="124.800000" fill="rgb(255,12,12)"  stroke="rgb(255,12,12)" stroke-width="1" font-size="16" >O</text>
<text x="172.564065" y="84.800000" fill="rgb(255,127,0)"  stroke="rgb(255,127,0)" stroke-width="1" font-size="16" >P</text>
<text font-size="18.000000" fill ="black" font-family="sans-serif"
x="140.000000" y="20.000000" ></text>
<title> - OBDepict</title>
</svg>
