<?xml version="1.0"?>
<svg xmlns="http://www.w3.org/2000/svg"
xmlns:xlink="http://www.w3.org/1999/xlink" xmlns:cml="http://www.xml-cml.org/schema" width="284.939" height="218.637" x="0" y="0" font-family="sans-serif" stroke="rgb(0,0,0)" stroke-width="1" >
<line x1="64.1" y1="168.6" x2="71.7" y2="140.0"/>
<line x1="51.2" y1="124.7" x2="51.7" y2="124.1"/>
<line x1="54.1" y1="127.5" x2="55.1" y2="126.2"/>
<line x1="57.0" y1="130.2" x2="58.5" y2="128.3"/>
<line x1="60.0" y1="133.0" x2="61.9" y2="130.5"/>
<line x1="62.9" y1="135.7" x2="65.3" y2="132.6"/>
<line x1="65.8" y1="138.5" x2="68.8" y2="134.7"/>
<line x1="68.8" y1="141.2" x2="72.2" y2="136.8"/>
<line x1="210.3" y1="140.0" x2="235.9" y2="154.8"/>
<line x1="175.7" y1="80.0" x2="175.7" y2="50.4"/>
<line x1="103.4" y1="80.0" x2="103.4" y2="50.4"/>
<line x1="109.4" y1="80.0" x2="109.4" y2="50.4"/>
<line x1="175.7" y1="160.0" x2="210.3" y2="140.0"/>
<line x1="210.3" y1="140.0" x2="210.3" y2="100.0"/>
<line x1="203.1" y1="134.0" x2="203.1" y2="106.0"/>
<line x1="210.3" y1="100.0" x2="175.7" y2="80.0"/>
<line x1="175.7" y1="80.0" x2="141.0" y2="100.0"/>
<line x1="174.1" y1="89.2" x2="149.8" y2="103.2"/>
<line x1="141.0" y1="100.0" x2="141.0" y2="140.0"/>
<line x1="141.0" y1="140.0" x2="175.7" y2="160.0"/>
<line x1="149.8" y1="136.8" x2="174.1" y2="150.8"/>
<line x1="71.7" y1="110.4" x2="71.7" y2="140.0"/>
<line x1="71.7" y1="140.0" x2="106.4" y2="160.0"/>
<line x1="106.4" y1="160.0" x2="141.0" y2="140.0"/>
<line x1="141.0" y1="100.0" x2="106.4" y2="80.0"/>
<line x1="106.4" y1="80.0" x2="80.7" y2="94.8"/>
<text x="37.781372" y="183.437033" fill="rgb(102,102,102)"  stroke="rgb(102,102,102)" stroke-width="1" font-size="16" >H</text>
<text x="49.781372" y="188.237033" fill="rgb(102,102,102)"  stroke="rgb(102,102,102)" stroke-width="1" font-size="13" >3</text>
<text x="56.281372" y="183.437033" fill="rgb(102,102,102)"  stroke="rgb(102,102,102)" stroke-width="1" font-size="16" >C</text>
<text x="238.939214" y="164.800000" fill="rgb(255,12,12)"  stroke="rgb(255,12,12)" stroke-width="1" font-size="16" >OH</text>
<text x="169.657182" y="48.320000" fill="rgb(255,12,12)"  stroke="rgb(255,12,12)" stroke-width="1" font-size="16" >OH</text>
<text x="100.375150" y="48.320000" fill="rgb(255,12,12)"  stroke="rgb(255,12,12)" stroke-width="1" font-size="16" >O</text>
<text x="68.134134" y="108.320000" fill="rgb(255,12,12)"  stroke="rgb(255,12,12)" stroke-width="1" font-size="16" >O</text>
<text x="36.400000" y="123.969543" fill="rgb(191,191,191)"  stroke="rgb(191,191,191)" stroke-width="1" font-size="16" >H</text>
<text font-size="18.000000" fill ="black" font-family="sans-serif"
x="140.000000" y="20.000000" ></text>
<title> - OBDepict</title>
</svg>
