<?xml version="1.0"?>
<svg xmlns="http://www.w3.org/2000/svg"
xmlns:xlink="http://www.w3.org/1999/xlink" xmlns:cml="http://www.xml-cml.org/schema" width="518.274" height="258.402" x="0" y="0" font-family="sans-serif" stroke="rgb(0,0,0)" stroke-width="1" >
<line x1="48.7" y1="174.5" x2="73.6" y2="160.2"/>
<line x1="73.6" y1="160.2" x2="107.2" y2="179.6"/>
<line x1="199.1" y1="155.0" x2="237.9" y2="155.0"/>
<line x1="199.1" y1="155.0" x2="184.7" y2="130.1"/>
<polygon points="224.919429 177.492447 241.389413 156.965598 234.461210 152.965598 " />
<line x1="110.2" y1="179.6" x2="110.2" y2="208.3"/>
<line x1="104.2" y1="179.6" x2="104.2" y2="208.3"/>
<line x1="107.2" y1="179.6" x2="132.1" y2="165.2"/>
<line x1="217.6" y1="111.6" x2="217.8" y2="110.8"/>
<line x1="221.3" y1="112.8" x2="221.6" y2="111.2"/>
<line x1="225.0" y1="114.0" x2="225.5" y2="111.6"/>
<line x1="228.7" y1="115.2" x2="229.4" y2="112.0"/>
<line x1="232.5" y1="116.4" x2="233.3" y2="112.5"/>
<line x1="236.2" y1="117.6" x2="237.2" y2="112.9"/>
<line x1="239.9" y1="118.8" x2="241.0" y2="113.3"/>
<line x1="242.0" y1="116.4" x2="233.1" y2="89.0"/>
<line x1="277.0" y1="83.6" x2="277.8" y2="83.5"/>
<line x1="277.0" y1="87.5" x2="278.6" y2="87.3"/>
<line x1="277.0" y1="91.4" x2="279.4" y2="91.2"/>
<line x1="277.0" y1="95.3" x2="280.2" y2="95.0"/>
<line x1="277.0" y1="99.2" x2="281.0" y2="98.8"/>
<line x1="277.0" y1="103.1" x2="281.8" y2="102.6"/>
<line x1="277.0" y1="107.0" x2="282.6" y2="106.4"/>
<line x1="280.0" y1="108.3" x2="303.2" y2="91.4"/>
<line x1="457.1" y1="72.6" x2="472.8" y2="48.5"/>
<polygon points="311.391257 164.972565 302.917627 140.056516 295.823138 143.753574 " />
<line x1="299.4" y1="141.9" x2="344.0" y2="105.7"/>
<line x1="140.9" y1="92.6" x2="140.9" y2="111.2"/>
<line x1="112.1" y1="118.3" x2="130.8" y2="118.3"/>
<line x1="112.1" y1="124.3" x2="130.8" y2="124.3"/>
<line x1="169.6" y1="121.3" x2="151.0" y2="121.3"/>
<line x1="140.9" y1="150.1" x2="140.9" y2="131.4"/>
<line x1="357.7" y1="54.3" x2="359.2" y2="83.0"/>
<line x1="369.5" y1="95.7" x2="397.2" y2="103.1"/>
<line x1="397.2" y1="103.1" x2="418.4" y2="70.5"/>
<line x1="418.4" y1="70.5" x2="400.3" y2="48.2"/>
<line x1="384.5" y1="44.0" x2="357.7" y2="54.3"/>
<line x1="385.1" y1="51.5" x2="365.9" y2="58.8"/>
<line x1="237.9" y1="155.0" x2="242.0" y2="116.4"/>
<line x1="242.0" y1="116.4" x2="280.0" y2="108.3"/>
<line x1="280.0" y1="108.3" x2="299.4" y2="141.9"/>
<line x1="299.4" y1="141.9" x2="280.1" y2="163.3"/>
<line x1="264.2" y1="166.7" x2="237.9" y2="155.0"/>
<line x1="397.2" y1="103.1" x2="410.3" y2="128.7"/>
<line x1="406.4" y1="105.2" x2="415.7" y2="123.5"/>
<line x1="424.9" y1="138.2" x2="453.6" y2="139.7"/>
<line x1="453.6" y1="139.7" x2="469.3" y2="115.6"/>
<line x1="450.8" y1="130.8" x2="462.1" y2="113.5"/>
<line x1="470.2" y1="98.2" x2="457.1" y2="72.6"/>
<line x1="457.1" y1="72.6" x2="418.4" y2="70.5"/>
<line x1="450.8" y1="79.4" x2="424.0" y2="78.0"/>
<text x="16.400000" y="184.378729" fill="rgb(102,102,102)"  stroke="rgb(102,102,102)" stroke-width="1" font-size="16" >H</text>
<text x="28.400000" y="189.178729" fill="rgb(102,102,102)"  stroke="rgb(102,102,102)" stroke-width="1" font-size="13" >3</text>
<text x="34.900000" y="184.378729" fill="rgb(102,102,102)"  stroke="rgb(102,102,102)" stroke-width="1" font-size="16" >C</text>
<text x="472.274073" y="48.320000" fill="rgb(12,12,255)"  stroke="rgb(12,12,255)" stroke-width="1" font-size="16" >NH</text>
<text x="496.274073" y="56.000000" fill="rgb(12,12,255)"  stroke="rgb(12,12,255)" stroke-width="1" font-size="13" >2</text>
<text x="468.754777" y="111.952169" fill="rgb(12,12,255)"  stroke="rgb(12,12,255)" stroke-width="1" font-size="16" >N</text>
<text x="411.239644" y="142.480454" fill="rgb(12,12,255)"  stroke="rgb(12,12,255)" stroke-width="1" font-size="16" >N</text>
<text x="387.926501" y="48.676736" fill="rgb(12,12,255)"  stroke="rgb(12,12,255)" stroke-width="1" font-size="16" >N</text>
<text x="353.713481" y="101.360168" fill="rgb(12,12,255)"  stroke="rgb(12,12,255)" stroke-width="1" font-size="16" >N</text>
<text x="101.244325" y="223.202259" fill="rgb(255,12,12)"  stroke="rgb(255,12,12)" stroke-width="1" font-size="16" >O</text>
<text x="214.386345" y="87.751377" fill="rgb(255,12,12)"  stroke="rgb(255,12,12)" stroke-width="1" font-size="16" >HO</text>
<text x="305.367513" y="93.782984" fill="rgb(255,12,12)"  stroke="rgb(255,12,12)" stroke-width="1" font-size="16" >OH</text>
<text x="134.866488" y="90.839906" fill="rgb(255,12,12)"  stroke="rgb(255,12,12)" stroke-width="1" font-size="16" >OH</text>
<text x="98.442959" y="126.143435" fill="rgb(255,12,12)"  stroke="rgb(255,12,12)" stroke-width="1" font-size="16" >O</text>
<text x="173.690018" y="129.663435" fill="rgb(255,12,12)"  stroke="rgb(255,12,12)" stroke-width="1" font-size="16" >O</text>
<text x="267.392371" y="175.556550" fill="rgb(255,12,12)"  stroke="rgb(255,12,12)" stroke-width="1" font-size="16" >O</text>
<text x="134.866488" y="164.966965" fill="rgb(255,12,12)"  stroke="rgb(255,12,12)" stroke-width="1" font-size="16" >O</text>
<text x="134.866488" y="126.143435" fill="rgb(255,127,0)"  stroke="rgb(255,127,0)" stroke-width="1" font-size="16" >P</text>
<text x="214.913547" y="193.387761" fill="rgb(191,191,191)"  stroke="rgb(191,191,191)" stroke-width="1" font-size="16" >H</text>
<text x="200.408333" y="116.602882" fill="rgb(191,191,191)"  stroke="rgb(191,191,191)" stroke-width="1" font-size="16" >H</text>
<text x="272.300454" y="77.992032" fill="rgb(191,191,191)"  stroke="rgb(191,191,191)" stroke-width="1" font-size="16" >H</text>
<text x="311.311986" y="181.134179" fill="rgb(191,191,191)"  stroke="rgb(191,191,191)" stroke-width="1" font-size="16" >H</text>
<text font-size="18.000000" fill ="black" font-family="sans-serif"
x="140.000000" y="20.000000" ></text>
<title> - OBDepict</title>
</svg>
