<?xml version="1.0"?>
<svg xmlns="http://www.w3.org/2000/svg"
xmlns:xlink="http://www.w3.org/1999/xlink" xmlns:cml="http://www.xml-cml.org/schema" width="564.974" height="420" x="0" y="0" font-family="sans-serif" stroke="rgb(0,0,0)" stroke-width="1" >
<line x1="421.1" y1="280.0" x2="455.7" y2="260.0"/>
<line x1="421.1" y1="280.0" x2="421.1" y2="320.0"/>
<line x1="455.7" y1="260.0" x2="455.7" y2="220.0"/>
<line x1="421.1" y1="320.0" x2="446.7" y2="334.8"/>
<line x1="422.6" y1="322.6" x2="387.9" y2="342.6"/>
<line x1="419.6" y1="317.4" x2="384.9" y2="337.4"/>
<line x1="247.8" y1="260.0" x2="222.2" y2="274.8"/>
<line x1="244.8" y1="260.0" x2="244.8" y2="220.0"/>
<line x1="250.8" y1="260.0" x2="250.8" y2="220.0"/>
<line x1="247.8" y1="260.0" x2="282.5" y2="280.0"/>
<line x1="247.8" y1="220.0" x2="273.5" y2="205.2"/>
<line x1="247.8" y1="220.0" x2="213.2" y2="200.0"/>
<line x1="455.7" y1="220.0" x2="490.3" y2="200.0"/>
<line x1="386.4" y1="340.0" x2="386.4" y2="369.6"/>
<line x1="386.4" y1="340.0" x2="351.8" y2="320.0"/>
<line x1="282.5" y1="280.0" x2="282.5" y2="309.6"/>
<line x1="281.0" y1="277.4" x2="315.6" y2="257.4"/>
<line x1="284.0" y1="282.6" x2="318.6" y2="262.6"/>
<line x1="213.2" y1="200.0" x2="213.2" y2="170.4"/>
<line x1="214.7" y1="202.6" x2="180.1" y2="222.6"/>
<line x1="211.7" y1="197.4" x2="177.1" y2="217.4"/>
<line x1="490.3" y1="200.0" x2="490.3" y2="160.0"/>
<line x1="109.3" y1="140.0" x2="143.9" y2="160.0"/>
<line x1="109.3" y1="140.0" x2="109.3" y2="100.0"/>
<line x1="351.8" y1="320.0" x2="351.8" y2="280.0"/>
<line x1="317.1" y1="260.0" x2="317.1" y2="230.4"/>
<line x1="317.1" y1="260.0" x2="351.8" y2="280.0"/>
<line x1="178.6" y1="220.0" x2="178.6" y2="249.6"/>
<line x1="178.6" y1="220.0" x2="143.9" y2="200.0"/>
<line x1="143.9" y1="160.0" x2="143.9" y2="200.0"/>
<line x1="109.3" y1="100.0" x2="74.6" y2="80.0"/>
<line x1="490.3" y1="160.0" x2="516.0" y2="145.2"/>
<line x1="350.3" y1="277.4" x2="375.9" y2="262.6"/>
<line x1="353.3" y1="282.6" x2="378.9" y2="267.8"/>
<polygon points="117.123048 200.000000 143.923048 204.000000 143.923048 196.000000 " />
<line x1="143.9" y1="200.0" x2="129.1" y2="225.6"/>
<line x1="71.6" y1="80.0" x2="71.6" y2="50.4"/>
<line x1="77.6" y1="80.0" x2="77.6" y2="50.4"/>
<line x1="74.6" y1="80.0" x2="49.0" y2="94.8"/>
<text x="518.974226" y="148.320000" fill="rgb(255,12,12)"  stroke="rgb(255,12,12)" stroke-width="1" font-size="16" >OH</text>
<text x="380.410162" y="268.320000" fill="rgb(255,12,12)"  stroke="rgb(255,12,12)" stroke-width="1" font-size="16" >O</text>
<text x="108.323048" y="239.441016" fill="rgb(255,12,12)"  stroke="rgb(255,12,12)" stroke-width="1" font-size="16" >HO</text>
<text x="68.641016" y="48.320000" fill="rgb(255,12,12)"  stroke="rgb(255,12,12)" stroke-width="1" font-size="16" >O</text>
<text x="35.200000" y="119.200000" fill="rgb(255,12,12)"  stroke="rgb(255,12,12)" stroke-width="1" font-size="32" >-</text>
<text x="36.400000" y="104.800000" fill="rgb(255,12,12)"  stroke="rgb(255,12,12)" stroke-width="1" font-size="16" >O</text>
<text x="449.692194" y="344.800000" fill="rgb(191,191,191)"  stroke="rgb(191,191,191)" stroke-width="1" font-size="16" >H</text>
<text x="209.605081" y="284.800000" fill="rgb(191,191,191)"  stroke="rgb(191,191,191)" stroke-width="1" font-size="16" >H</text>
<text x="276.487113" y="208.320000" fill="rgb(191,191,191)"  stroke="rgb(191,191,191)" stroke-width="1" font-size="16" >H</text>
<text x="380.410162" y="384.800000" fill="rgb(191,191,191)"  stroke="rgb(191,191,191)" stroke-width="1" font-size="16" >H</text>
<text x="276.487113" y="324.800000" fill="rgb(191,191,191)"  stroke="rgb(191,191,191)" stroke-width="1" font-size="16" >H</text>
<text x="207.205081" y="168.320000" fill="rgb(191,191,191)"  stroke="rgb(191,191,191)" stroke-width="1" font-size="16" >H</text>
<text x="311.128129" y="228.320000" fill="rgb(191,191,191)"  stroke="rgb(191,191,191)" stroke-width="1" font-size="16" >H</text>
<text x="172.564065" y="264.800000" fill="rgb(191,191,191)"  stroke="rgb(191,191,191)" stroke-width="1" font-size="16" >H</text>
<text x="100.323048" y="204.800000" fill="rgb(191,191,191)"  stroke="rgb(191,191,191)" stroke-width="1" font-size="16" >H</text>
<text font-size="18.000000" fill ="black" font-family="sans-serif"
x="140.000000" y="20.000000" ></text>
<title> - OBDepict</title>
</svg>
