<?xml version="1.0"?>
<svg xmlns="http://www.w3.org/2000/svg"
xmlns:xlink="http://www.w3.org/1999/xlink" xmlns:cml="http://www.xml-cml.org/schema" width="391.769" height="280" x="0" y="0" font-family="sans-serif" stroke="rgb(0,0,0)" stroke-width="1" >
<line x1="178.6" y1="240.0" x2="213.2" y2="220.0"/>
<line x1="178.6" y1="240.0" x2="143.9" y2="220.0"/>
<line x1="213.2" y1="220.0" x2="238.8" y2="234.8"/>
<line x1="282.5" y1="220.0" x2="282.5" y2="180.0"/>
<line x1="282.5" y1="220.0" x2="256.9" y2="234.8"/>
<line x1="109.3" y1="160.0" x2="109.3" y2="130.4"/>
<line x1="74.6" y1="180.0" x2="49.0" y2="165.2"/>
<line x1="318.6" y1="157.4" x2="344.3" y2="172.2"/>
<line x1="315.6" y1="162.6" x2="341.3" y2="177.4"/>
<line x1="317.1" y1="40.0" x2="282.5" y2="60.0"/>
<line x1="282.5" y1="60.0" x2="282.5" y2="100.0"/>
<line x1="289.7" y1="66.0" x2="289.7" y2="94.0"/>
<line x1="282.5" y1="100.0" x2="317.1" y2="120.0"/>
<line x1="317.1" y1="120.0" x2="351.8" y2="100.0"/>
<line x1="318.7" y1="110.8" x2="343.0" y2="96.8"/>
<line x1="351.8" y1="100.0" x2="351.8" y2="60.0"/>
<line x1="351.8" y1="60.0" x2="317.1" y2="40.0"/>
<line x1="343.0" y1="63.2" x2="318.7" y2="49.2"/>
<line x1="247.8" y1="120.0" x2="247.8" y2="160.0"/>
<line x1="247.8" y1="160.0" x2="282.5" y2="180.0"/>
<line x1="282.5" y1="180.0" x2="317.1" y2="160.0"/>
<line x1="317.1" y1="160.0" x2="317.1" y2="120.0"/>
<line x1="282.5" y1="100.0" x2="247.8" y2="120.0"/>
<line x1="109.3" y1="240.0" x2="143.9" y2="220.0"/>
<line x1="143.9" y1="220.0" x2="143.9" y2="180.0"/>
<line x1="136.7" y1="214.0" x2="136.7" y2="186.0"/>
<line x1="143.9" y1="180.0" x2="109.3" y2="160.0"/>
<line x1="109.3" y1="160.0" x2="74.6" y2="180.0"/>
<line x1="107.7" y1="169.2" x2="83.4" y2="183.2"/>
<line x1="74.6" y1="180.0" x2="74.6" y2="220.0"/>
<line x1="74.6" y1="220.0" x2="109.3" y2="240.0"/>
<line x1="83.4" y1="216.8" x2="107.7" y2="230.8"/>
<text x="103.282032" y="128.320000" fill="rgb(147,0,147)"  stroke="rgb(147,0,147)" stroke-width="1" font-size="16" >I</text>
<text x="241.846097" y="244.800000" fill="rgb(12,12,255)"  stroke="rgb(12,12,255)" stroke-width="1" font-size="16" >NH</text>
<text x="24.400000" y="168.320000" fill="rgb(255,12,12)"  stroke="rgb(255,12,12)" stroke-width="1" font-size="16" >HO</text>
<text x="345.769145" y="184.800000" fill="rgb(255,12,12)"  stroke="rgb(255,12,12)" stroke-width="1" font-size="16" >O</text>
<text font-size="18.000000" fill ="black" font-family="sans-serif"
x="140.000000" y="20.000000" ></text>
<title> - OBDepict</title>
</svg>
