<?xml version="1.0"?>
<svg xmlns="http://www.w3.org/2000/svg"
xmlns:xlink="http://www.w3.org/1999/xlink" xmlns:cml="http://www.xml-cml.org/schema" width="997.99" height="761.552" x="0" y="0" font-family="sans-serif" stroke="rgb(0,0,0)" stroke-width="1" >
<line x1="947.8" y1="46.2" x2="918.9" y2="40.0"/>
<line x1="314.2" y1="356.7" x2="336.2" y2="376.5"/>
<line x1="308.0" y1="385.7" x2="336.2" y2="376.5"/>
<line x1="918.9" y1="40.0" x2="892.1" y2="69.7"/>
<line x1="892.1" y1="69.7" x2="853.0" y2="61.4"/>
<line x1="853.0" y1="61.4" x2="826.2" y2="91.1"/>
<line x1="826.2" y1="91.1" x2="838.6" y2="129.2"/>
<line x1="838.6" y1="129.2" x2="877.7" y2="137.5"/>
<line x1="877.7" y1="137.5" x2="897.5" y2="115.5"/>
<line x1="880.5" y1="136.6" x2="892.9" y2="174.6"/>
<line x1="874.8" y1="138.4" x2="887.2" y2="176.5"/>
<line x1="890.1" y1="175.5" x2="919.0" y2="181.7"/>
<line x1="890.1" y1="175.5" x2="863.3" y2="205.3"/>
<line x1="863.3" y1="205.3" x2="824.2" y2="196.9"/>
<line x1="824.2" y1="196.9" x2="797.4" y2="226.7"/>
<line x1="797.4" y1="226.7" x2="758.3" y2="218.4"/>
<line x1="758.3" y1="218.4" x2="731.5" y2="248.1"/>
<line x1="731.5" y1="248.1" x2="692.4" y2="239.8"/>
<line x1="692.4" y1="239.8" x2="665.6" y2="269.5"/>
<line x1="665.6" y1="269.5" x2="678.0" y2="307.5"/>
<line x1="480.3" y1="371.8" x2="453.5" y2="401.5"/>
<line x1="480.3" y1="371.8" x2="519.4" y2="380.1"/>
<line x1="453.5" y1="401.5" x2="424.6" y2="395.3"/>
<line x1="585.3" y1="358.7" x2="612.1" y2="328.9"/>
<line x1="585.3" y1="358.7" x2="556.4" y2="352.5"/>
<line x1="612.1" y1="328.9" x2="641.0" y2="335.1"/>
<line x1="206.5" y1="460.7" x2="179.8" y2="490.4"/>
<line x1="206.5" y1="460.7" x2="235.5" y2="466.9"/>
<line x1="348.5" y1="414.6" x2="336.2" y2="376.5"/>
<line x1="348.5" y1="414.6" x2="328.7" y2="436.6"/>
<line x1="517.2" y1="378.1" x2="537.0" y2="356.1"/>
<line x1="521.7" y1="382.1" x2="541.5" y2="360.1"/>
<line x1="519.4" y1="380.1" x2="528.6" y2="408.2"/>
<line x1="678.6" y1="304.6" x2="707.6" y2="310.8"/>
<line x1="677.4" y1="310.5" x2="706.3" y2="316.6"/>
<line x1="678.0" y1="307.5" x2="658.2" y2="329.5"/>
<line x1="123.7" y1="522.8" x2="94.8" y2="529.0"/>
<line x1="140.0" y1="486.3" x2="125.2" y2="460.6"/>
<line x1="362.9" y1="346.8" x2="402.1" y2="355.1"/>
<line x1="362.9" y1="346.8" x2="336.2" y2="376.5"/>
<line x1="362.9" y1="346.8" x2="353.8" y2="318.7"/>
<line x1="186.2" y1="685.0" x2="174.2" y2="712.1"/>
<line x1="404.9" y1="354.2" x2="414.1" y2="382.4"/>
<line x1="399.2" y1="356.1" x2="408.3" y2="384.2"/>
<line x1="402.1" y1="355.1" x2="421.9" y2="333.1"/>
<line x1="153.5" y1="549.6" x2="150.4" y2="579.0"/>
<line x1="80.0" y1="481.2" x2="80.0" y2="462.0"/>
<line x1="50.4" y1="451.6" x2="69.6" y2="451.6"/>
<line x1="83.0" y1="422.0" x2="83.0" y2="441.2"/>
<line x1="77.0" y1="422.0" x2="77.0" y2="441.2"/>
<line x1="229.9" y1="516.2" x2="248.1" y2="510.3"/>
<line x1="264.3" y1="536.1" x2="258.4" y2="517.9"/>
<line x1="270.0" y1="534.3" x2="264.1" y2="516.0"/>
<line x1="343.3" y1="510.5" x2="337.3" y2="492.2"/>
<line x1="363.2" y1="476.1" x2="344.9" y2="482.0"/>
<line x1="361.3" y1="470.3" x2="343.1" y2="476.3"/>
<line x1="248.9" y1="478.9" x2="254.8" y2="497.2"/>
<line x1="325.0" y1="454.2" x2="330.9" y2="472.5"/>
<line x1="109.6" y1="451.6" x2="90.4" y2="451.6"/>
<line x1="286.2" y1="497.9" x2="267.9" y2="503.9"/>
<line x1="306.0" y1="491.5" x2="324.2" y2="485.6"/>
<line x1="114.6" y1="609.3" x2="140.3" y2="594.5"/>
<line x1="157.0" y1="596.3" x2="179.0" y2="616.1"/>
<line x1="179.0" y1="616.1" x2="162.7" y2="652.6"/>
<line x1="162.7" y1="652.6" x2="133.3" y2="649.6"/>
<line x1="120.8" y1="638.3" x2="114.6" y2="609.3"/>
<line x1="127.4" y1="634.8" x2="122.9" y2="613.7"/>
<line x1="179.8" y1="490.4" x2="140.0" y2="486.3"/>
<line x1="140.0" y1="486.3" x2="123.7" y2="522.8"/>
<line x1="123.7" y1="522.8" x2="153.5" y2="549.6"/>
<line x1="153.5" y1="549.6" x2="179.1" y2="534.8"/>
<line x1="185.9" y1="519.4" x2="179.8" y2="490.4"/>
<line x1="179.0" y1="616.1" x2="208.4" y2="613.0"/>
<line x1="185.7" y1="622.6" x2="207.2" y2="620.4"/>
<line x1="224.9" y1="620.3" x2="242.3" y2="644.3"/>
<line x1="242.3" y1="644.3" x2="230.3" y2="671.3"/>
<line x1="233.3" y1="646.8" x2="224.5" y2="666.6"/>
<line x1="215.7" y1="681.9" x2="186.2" y2="685.0"/>
<line x1="186.2" y1="685.0" x2="162.7" y2="652.6"/>
<line x1="188.5" y1="675.9" x2="172.1" y2="653.3"/>
<text x="951.990313" y="53.116468" fill="rgb(102,102,102)"  stroke="rgb(102,102,102)" stroke-width="1" font-size="16" >CH</text>
<text x="975.990313" y="57.916468" fill="rgb(102,102,102)"  stroke="rgb(102,102,102)" stroke-width="1" font-size="13" >3</text>
<text x="282.835277" y="358.091279" fill="rgb(102,102,102)"  stroke="rgb(102,102,102)" stroke-width="1" font-size="16" >H</text>
<text x="294.835277" y="365.771279" fill="rgb(102,102,102)"  stroke="rgb(102,102,102)" stroke-width="1" font-size="13" >3</text>
<text x="301.335277" y="358.091279" fill="rgb(102,102,102)"  stroke="rgb(102,102,102)" stroke-width="1" font-size="16" >C</text>
<text x="274.518809" y="393.697183" fill="rgb(102,102,102)"  stroke="rgb(102,102,102)" stroke-width="1" font-size="16" >H</text>
<text x="286.518809" y="398.497183" fill="rgb(102,102,102)"  stroke="rgb(102,102,102)" stroke-width="1" font-size="13" >3</text>
<text x="293.018809" y="393.697183" fill="rgb(102,102,102)"  stroke="rgb(102,102,102)" stroke-width="1" font-size="16" >C</text>
<text x="146.373460" y="726.351563" fill="rgb(12,12,255)"  stroke="rgb(12,12,255)" stroke-width="1" font-size="16" >H</text>
<text x="158.373460" y="731.151563" fill="rgb(12,12,255)"  stroke="rgb(12,12,255)" stroke-width="1" font-size="13" >2</text>
<text x="164.873460" y="726.351563" fill="rgb(12,12,255)"  stroke="rgb(12,12,255)" stroke-width="1" font-size="16" >N</text>
<text x="542.595135" y="358.670788" fill="rgb(12,12,255)"  stroke="rgb(12,12,255)" stroke-width="1" font-size="16" >N</text>
<text x="410.812878" y="397.969439" fill="rgb(12,12,255)"  stroke="rgb(12,12,255)" stroke-width="1" font-size="16" >N</text>
<text x="220.023802" y="685.628606" fill="rgb(12,12,255)"  stroke="rgb(12,12,255)" stroke-width="1" font-size="16" >N</text>
<text x="212.781858" y="620.246108" fill="rgb(12,12,255)"  stroke="rgb(12,12,255)" stroke-width="1" font-size="16" >N</text>
<text x="119.350640" y="653.267926" fill="rgb(12,12,255)"  stroke="rgb(12,12,255)" stroke-width="1" font-size="16" >N</text>
<text x="143.275189" y="597.662022" fill="rgb(12,12,255)"  stroke="rgb(12,12,255)" stroke-width="1" font-size="16" >N</text>
<text x="525.790590" y="422.918842" fill="rgb(255,12,12)"  stroke="rgb(255,12,12)" stroke-width="1" font-size="16" >OH</text>
<text x="711.103295" y="320.648605" fill="rgb(255,12,12)"  stroke="rgb(255,12,12)" stroke-width="1" font-size="16" >O</text>
<text x="69.004630" y="535.912389" fill="rgb(255,12,12)"  stroke="rgb(255,12,12)" stroke-width="1" font-size="16" >HO</text>
<text x="334.965614" y="317.088450" fill="rgb(255,12,12)"  stroke="rgb(255,12,12)" stroke-width="1" font-size="16" >HO</text>
<text x="422.817422" y="333.721385" fill="rgb(255,12,12)"  stroke="rgb(255,12,12)" stroke-width="1" font-size="16" >OH</text>
<text x="74.000000" y="496.413087" fill="rgb(255,12,12)"  stroke="rgb(255,12,12)" stroke-width="1" font-size="16" >OH</text>
<text x="24.400000" y="456.413087" fill="rgb(255,12,12)"  stroke="rgb(255,12,12)" stroke-width="1" font-size="16" >HO</text>
<text x="74.000000" y="419.933087" fill="rgb(255,12,12)"  stroke="rgb(255,12,12)" stroke-width="1" font-size="16" >O</text>
<text x="204.390423" y="524.228857" fill="rgb(255,12,12)"  stroke="rgb(255,12,12)" stroke-width="1" font-size="16" >HO</text>
<text x="264.393364" y="549.910438" fill="rgb(255,12,12)"  stroke="rgb(255,12,12)" stroke-width="1" font-size="16" >O</text>
<text x="340.477885" y="525.189078" fill="rgb(255,12,12)"  stroke="rgb(255,12,12)" stroke-width="1" font-size="16" >OH</text>
<text x="366.159466" y="478.306138" fill="rgb(255,12,12)"  stroke="rgb(255,12,12)" stroke-width="1" font-size="16" >O</text>
<text x="239.672004" y="477.345917" fill="rgb(255,12,12)"  stroke="rgb(255,12,12)" stroke-width="1" font-size="16" >O</text>
<text x="318.156525" y="452.624557" fill="rgb(255,12,12)"  stroke="rgb(255,12,12)" stroke-width="1" font-size="16" >O</text>
<text x="182.097343" y="534.361146" fill="rgb(255,12,12)"  stroke="rgb(255,12,12)" stroke-width="1" font-size="16" >O</text>
<text x="114.000000" y="459.933087" fill="rgb(255,12,12)"  stroke="rgb(255,12,12)" stroke-width="1" font-size="16" >O</text>
<text x="290.074945" y="499.507498" fill="rgb(255,12,12)"  stroke="rgb(255,12,12)" stroke-width="1" font-size="16" >O</text>
<text x="74.000000" y="456.413087" fill="rgb(255,127,0)"  stroke="rgb(255,127,0)" stroke-width="1" font-size="16" >P</text>
<text x="252.032684" y="515.388177" fill="rgb(255,127,0)"  stroke="rgb(255,127,0)" stroke-width="1" font-size="16" >P</text>
<text x="328.117205" y="490.666818" fill="rgb(255,127,0)"  stroke="rgb(255,127,0)" stroke-width="1" font-size="16" >P</text>
<text x="645.212167" y="342.057930" fill="rgb(178,178,0)"  stroke="rgb(178,178,0)" stroke-width="1" font-size="16" >S</text>
<text x="898.459865" y="116.088054" fill="rgb(191,191,191)"  stroke="rgb(191,191,191)" stroke-width="1" font-size="16" >H</text>
<text x="923.181224" y="188.652575" fill="rgb(191,191,191)"  stroke="rgb(191,191,191)" stroke-width="1" font-size="16" >H</text>
<text font-size="18.000000" fill ="black" font-family="sans-serif"
x="140.000000" y="20.000000" ></text>
<title> - OBDepict</title>
</svg>
