<?xml version="1.0"?>
<svg xmlns="http://www.w3.org/2000/svg"
xmlns:xlink="http://www.w3.org/1999/xlink" xmlns:cml="http://www.xml-cml.org/schema" width="391.769" height="400" x="0" y="0" font-family="sans-serif" stroke="rgb(0,0,0)" stroke-width="1" >
<line x1="65.6" y1="165.2" x2="49.0" y2="174.8"/>
<line x1="109.3" y1="300.0" x2="74.6" y2="280.0"/>
<line x1="109.3" y1="300.0" x2="109.3" y2="340.0"/>
<line x1="74.6" y1="280.0" x2="74.6" y2="240.0"/>
<line x1="109.3" y1="340.0" x2="143.9" y2="360.0"/>
<line x1="74.6" y1="240.0" x2="40.0" y2="220.0"/>
<line x1="143.9" y1="360.0" x2="178.6" y2="340.0"/>
<line x1="213.2" y1="120.0" x2="213.2" y2="160.0"/>
<line x1="213.2" y1="120.0" x2="178.6" y2="100.0"/>
<line x1="213.2" y1="160.0" x2="178.6" y2="180.0"/>
<line x1="40.0" y1="220.0" x2="40.0" y2="190.4"/>
<line x1="317.1" y1="220.0" x2="317.1" y2="180.0"/>
<line x1="317.1" y1="220.0" x2="291.5" y2="234.8"/>
<line x1="213.2" y1="280.0" x2="213.2" y2="240.0"/>
<line x1="213.2" y1="280.0" x2="187.6" y2="294.8"/>
<line x1="178.6" y1="100.0" x2="178.6" y2="60.0"/>
<line x1="178.6" y1="100.0" x2="152.9" y2="114.8"/>
<line x1="213.2" y1="240.0" x2="247.8" y2="220.0"/>
<line x1="213.2" y1="240.0" x2="187.6" y2="225.2"/>
<line x1="181.6" y1="180.0" x2="181.6" y2="209.6"/>
<line x1="175.6" y1="180.0" x2="175.6" y2="209.6"/>
<line x1="178.6" y1="180.0" x2="152.9" y2="165.2"/>
<line x1="180.1" y1="337.4" x2="205.7" y2="352.2"/>
<line x1="177.1" y1="342.6" x2="202.7" y2="357.4"/>
<line x1="178.6" y1="340.0" x2="178.6" y2="310.4"/>
<line x1="315.6" y1="177.4" x2="341.3" y2="162.6"/>
<line x1="318.6" y1="182.6" x2="344.3" y2="167.8"/>
<line x1="317.1" y1="180.0" x2="291.5" y2="165.2"/>
<line x1="249.3" y1="217.4" x2="275.0" y2="232.2"/>
<line x1="246.3" y1="222.6" x2="272.0" y2="237.4"/>
<line x1="247.8" y1="220.0" x2="247.8" y2="190.4"/>
<line x1="177.1" y1="57.4" x2="202.7" y2="42.6"/>
<line x1="180.1" y1="62.6" x2="205.7" y2="47.8"/>
<line x1="178.6" y1="60.0" x2="152.9" y2="45.2"/>
<line x1="222.2" y1="354.8" x2="238.8" y2="345.2"/>
<text x="68.641016" y="168.320000" fill="rgb(102,102,102)"  stroke="rgb(102,102,102)" stroke-width="1" font-size="16" >CH</text>
<text x="92.641016" y="176.000000" fill="rgb(102,102,102)"  stroke="rgb(102,102,102)" stroke-width="1" font-size="13" >3</text>
<text x="120.323048" y="124.800000" fill="rgb(12,12,255)"  stroke="rgb(12,12,255)" stroke-width="1" font-size="16" >H</text>
<text x="132.323048" y="129.600000" fill="rgb(12,12,255)"  stroke="rgb(12,12,255)" stroke-width="1" font-size="13" >2</text>
<text x="138.823048" y="124.800000" fill="rgb(12,12,255)"  stroke="rgb(12,12,255)" stroke-width="1" font-size="16" >N</text>
<text x="276.487113" y="244.800000" fill="rgb(12,12,255)"  stroke="rgb(12,12,255)" stroke-width="1" font-size="16" >N</text>
<text x="174.964065" y="224.800000" fill="rgb(12,12,255)"  stroke="rgb(12,12,255)" stroke-width="1" font-size="16" >N</text>
<text x="207.205081" y="364.800000" fill="rgb(12,12,255)"  stroke="rgb(12,12,255)" stroke-width="1" font-size="16" >N</text>
<text x="139.123048" y="153.600000" fill="rgb(255,12,12)"  stroke="rgb(255,12,12)" stroke-width="1" font-size="32" >-</text>
<text x="140.323048" y="168.320000" fill="rgb(255,12,12)"  stroke="rgb(255,12,12)" stroke-width="1" font-size="16" >O</text>
<text x="345.769145" y="168.320000" fill="rgb(255,12,12)"  stroke="rgb(255,12,12)" stroke-width="1" font-size="16" >O</text>
<text x="266.887113" y="168.320000" fill="rgb(255,12,12)"  stroke="rgb(255,12,12)" stroke-width="1" font-size="16" >HO</text>
<text x="241.846097" y="188.320000" fill="rgb(255,12,12)"  stroke="rgb(255,12,12)" stroke-width="1" font-size="16" >OH</text>
<text x="207.205081" y="48.320000" fill="rgb(255,12,12)"  stroke="rgb(255,12,12)" stroke-width="1" font-size="16" >O</text>
<text x="128.323048" y="48.320000" fill="rgb(255,12,12)"  stroke="rgb(255,12,12)" stroke-width="1" font-size="16" >HO</text>
<text x="241.846097" y="348.320000" fill="rgb(255,12,12)"  stroke="rgb(255,12,12)" stroke-width="1" font-size="16" >OH</text>
<text x="36.400000" y="188.320000" fill="rgb(178,178,0)"  stroke="rgb(178,178,0)" stroke-width="1" font-size="16" >S</text>
<text x="174.964065" y="308.320000" fill="rgb(178,178,0)"  stroke="rgb(178,178,0)" stroke-width="1" font-size="16" >S</text>
<text font-size="18.000000" fill ="black" font-family="sans-serif"
x="140.000000" y="20.000000" ></text>
<title> - OBDepict</title>
</svg>
