<?xml version="1.0"?>
<svg xmlns="http://www.w3.org/2000/svg"
xmlns:xlink="http://www.w3.org/1999/xlink" xmlns:cml="http://www.xml-cml.org/schema" width="444.6" height="267.725" x="0" y="0" font-family="sans-serif" stroke="rgb(0,0,0)" stroke-width="1" >
<line x1="394.2" y1="74.6" x2="364.6" y2="74.6"/>
<line x1="379.4" y1="49.0" x2="364.6" y2="74.6"/>
<line x1="79.8" y1="167.2" x2="50.3" y2="170.3"/>
<polygon points="228.206947 213.216052 226.547504 186.170049 218.722323 187.833343 " />
<polygon points="175.914022 141.241016 197.123503 158.105118 201.123503 151.176915 " />
<line x1="222.6" y1="187.0" x2="199.1" y2="154.6"/>
<line x1="199.1" y1="154.6" x2="216.5" y2="130.7"/>
<line x1="232.5" y1="125.5" x2="260.7" y2="134.6"/>
<line x1="260.7" y1="134.6" x2="260.7" y2="174.6"/>
<line x1="253.5" y1="140.6" x2="253.5" y2="168.6"/>
<line x1="260.7" y1="174.6" x2="222.6" y2="187.0"/>
<line x1="330.0" y1="174.6" x2="295.3" y2="194.6"/>
<line x1="321.2" y1="171.4" x2="296.9" y2="185.4"/>
<line x1="295.3" y1="194.6" x2="260.7" y2="174.6"/>
<line x1="260.7" y1="134.6" x2="295.3" y2="114.6"/>
<line x1="295.3" y1="114.6" x2="330.0" y2="134.6"/>
<line x1="296.9" y1="123.9" x2="321.2" y2="137.9"/>
<line x1="330.0" y1="134.6" x2="330.0" y2="174.6"/>
<line x1="364.6" y1="74.6" x2="364.6" y2="104.2"/>
<line x1="355.6" y1="119.8" x2="330.0" y2="134.6"/>
<line x1="295.3" y1="114.6" x2="295.3" y2="74.6"/>
<line x1="295.3" y1="74.6" x2="330.0" y2="54.6"/>
<line x1="304.1" y1="77.9" x2="328.4" y2="63.9"/>
<line x1="330.0" y1="54.6" x2="364.6" y2="74.6"/>
<line x1="96.1" y1="130.6" x2="135.8" y2="126.5"/>
<line x1="102.8" y1="137.2" x2="130.6" y2="134.2"/>
<line x1="135.8" y1="126.5" x2="159.3" y2="158.8"/>
<line x1="159.3" y1="158.8" x2="143.1" y2="195.4"/>
<line x1="150.3" y1="161.4" x2="138.9" y2="187.0"/>
<line x1="143.1" y1="195.4" x2="103.3" y2="199.5"/>
<line x1="103.3" y1="199.5" x2="79.8" y2="167.2"/>
<line x1="105.6" y1="190.5" x2="89.1" y2="167.8"/>
<line x1="79.8" y1="167.2" x2="96.1" y2="130.6"/>
<line x1="206.4" y1="223.5" x2="176.9" y2="226.6"/>
<line x1="160.5" y1="219.3" x2="143.1" y2="195.4"/>
<line x1="159.3" y1="158.8" x2="199.1" y2="154.6"/>
<line x1="222.6" y1="187.0" x2="206.4" y2="223.5"/>
<text x="398.600222" y="79.441016" fill="rgb(102,102,102)"  stroke="rgb(102,102,102)" stroke-width="1" font-size="16" >CH</text>
<text x="422.600222" y="84.241016" fill="rgb(102,102,102)"  stroke="rgb(102,102,102)" stroke-width="1" font-size="13" >3</text>
<text x="378.600222" y="48.320000" fill="rgb(102,102,102)"  stroke="rgb(102,102,102)" stroke-width="1" font-size="16" >CH</text>
<text x="402.600222" y="56.000000" fill="rgb(102,102,102)"  stroke="rgb(102,102,102)" stroke-width="1" font-size="13" >3</text>
<text x="24.400000" y="176.165570" fill="rgb(255,12,12)"  stroke="rgb(255,12,12)" stroke-width="1" font-size="16" >HO</text>
<text x="162.984572" y="232.524653" fill="rgb(255,12,12)"  stroke="rgb(255,12,12)" stroke-width="1" font-size="16" >O</text>
<text x="219.034913" y="130.600336" fill="rgb(255,12,12)"  stroke="rgb(255,12,12)" stroke-width="1" font-size="16" >O</text>
<text x="358.600222" y="119.441016" fill="rgb(255,12,12)"  stroke="rgb(255,12,12)" stroke-width="1" font-size="16" >O</text>
<text x="224.951381" y="230.927600" fill="rgb(191,191,191)"  stroke="rgb(191,191,191)" stroke-width="1" font-size="16" >H</text>
<text x="160.882487" y="142.961016" fill="rgb(191,191,191)"  stroke="rgb(191,191,191)" stroke-width="1" font-size="16" >H</text>
<text font-size="18.000000" fill ="black" font-family="sans-serif"
x="140.000000" y="20.000000" ></text>
<title> - OBDepict</title>
</svg>
