<?xml version="1.0"?>
<svg xmlns="http://www.w3.org/2000/svg"
xmlns:xlink="http://www.w3.org/1999/xlink" xmlns:cml="http://www.xml-cml.org/schema" width="426.41" height="200" x="0" y="0" font-family="sans-serif" stroke="rgb(0,0,0)" stroke-width="1" >
<line x1="74.6" y1="70.4" x2="74.6" y2="100.0"/>
<line x1="49.0" y1="114.8" x2="74.6" y2="100.0"/>
<line x1="247.8" y1="120.0" x2="282.5" y2="100.0"/>
<line x1="247.8" y1="120.0" x2="213.2" y2="100.0"/>
<line x1="282.5" y1="100.0" x2="317.1" y2="120.0"/>
<line x1="213.2" y1="100.0" x2="213.2" y2="60.0"/>
<line x1="317.1" y1="120.0" x2="351.8" y2="100.0"/>
<line x1="178.6" y1="40.0" x2="143.9" y2="60.0"/>
<line x1="178.6" y1="40.0" x2="213.2" y2="60.0"/>
<line x1="143.9" y1="60.0" x2="143.9" y2="89.6"/>
<line x1="74.6" y1="100.0" x2="109.3" y2="120.0"/>
<line x1="213.2" y1="60.0" x2="238.8" y2="45.2"/>
<line x1="353.3" y1="97.4" x2="378.9" y2="112.2"/>
<line x1="350.3" y1="102.6" x2="375.9" y2="117.4"/>
<line x1="351.8" y1="100.0" x2="351.8" y2="70.4"/>
<line x1="112.3" y1="120.0" x2="112.3" y2="149.6"/>
<line x1="106.3" y1="120.0" x2="106.3" y2="149.6"/>
<line x1="109.3" y1="120.0" x2="134.9" y2="105.2"/>
<text x="68.641016" y="68.320000" fill="rgb(102,102,102)"  stroke="rgb(102,102,102)" stroke-width="1" font-size="16" >CH</text>
<text x="92.641016" y="76.000000" fill="rgb(102,102,102)"  stroke="rgb(102,102,102)" stroke-width="1" font-size="13" >3</text>
<text x="16.400000" y="124.800000" fill="rgb(102,102,102)"  stroke="rgb(102,102,102)" stroke-width="1" font-size="16" >H</text>
<text x="28.400000" y="129.600000" fill="rgb(102,102,102)"  stroke="rgb(102,102,102)" stroke-width="1" font-size="13" >3</text>
<text x="34.900000" y="124.800000" fill="rgb(102,102,102)"  stroke="rgb(102,102,102)" stroke-width="1" font-size="16" >C</text>
<text x="380.410162" y="124.800000" fill="rgb(12,12,255)"  stroke="rgb(12,12,255)" stroke-width="1" font-size="16" >NH</text>
<text x="345.769145" y="68.320000" fill="rgb(255,12,12)"  stroke="rgb(255,12,12)" stroke-width="1" font-size="16" >OH</text>
<text x="103.282032" y="164.800000" fill="rgb(255,12,12)"  stroke="rgb(255,12,12)" stroke-width="1" font-size="16" >O</text>
<text x="241.846097" y="48.320000" fill="rgb(178,178,0)"  stroke="rgb(178,178,0)" stroke-width="1" font-size="16" >SH</text>
<text x="137.923048" y="104.800000" fill="rgb(178,178,0)"  stroke="rgb(178,178,0)" stroke-width="1" font-size="16" >S</text>
<text font-size="18.000000" fill ="black" font-family="sans-serif"
x="140.000000" y="20.000000" ></text>
<title> - OBDepict</title>
</svg>
