<?xml version="1.0"?>
<svg xmlns="http://www.w3.org/2000/svg"
xmlns:xlink="http://www.w3.org/1999/xlink" xmlns:cml="http://www.xml-cml.org/schema" width="229.282" height="229.282" x="0" y="0" font-family="sans-serif" stroke="rgb(0,0,0)" stroke-width="1" >
<line x1="127.8" y1="176.6" x2="127.1" y2="177.0"/>
<line x1="126.1" y1="172.9" x2="124.7" y2="173.7"/>
<line x1="124.5" y1="169.3" x2="122.4" y2="170.5"/>
<line x1="122.8" y1="165.6" x2="120.1" y2="167.2"/>
<line x1="121.2" y1="162.0" x2="117.7" y2="164.0"/>
<line x1="119.5" y1="158.3" x2="115.4" y2="160.7"/>
<line x1="117.9" y1="154.6" x2="113.0" y2="157.4"/>
<line x1="114.6" y1="154.6" x2="99.8" y2="180.3"/>
<polygon points="66.600000 157.850497 83.464102 136.641016 76.535898 132.641016 " />
<line x1="80.0" y1="134.6" x2="50.4" y2="134.6"/>
<line x1="174.9" y1="134.2" x2="174.9" y2="135.0"/>
<line x1="170.9" y1="133.8" x2="170.9" y2="135.4"/>
<line x1="166.9" y1="133.4" x2="166.9" y2="135.8"/>
<line x1="162.9" y1="133.0" x2="162.9" y2="136.2"/>
<line x1="158.9" y1="132.6" x2="158.9" y2="136.6"/>
<line x1="154.9" y1="132.2" x2="154.9" y2="137.0"/>
<line x1="150.9" y1="131.8" x2="150.9" y2="137.4"/>
<line x1="149.3" y1="134.6" x2="164.1" y2="160.3"/>
<polygon points="53.200000 94.641016 80.000000 98.641016 80.000000 90.641016 " />
<line x1="80.0" y1="94.6" x2="65.2" y2="69.0"/>
<polygon points="162.682032 71.431535 145.817931 92.641016 152.746134 96.641016 " />
<line x1="149.3" y1="94.6" x2="178.9" y2="94.6"/>
<line x1="101.5" y1="52.7" x2="102.2" y2="52.3"/>
<line x1="103.1" y1="56.3" x2="104.5" y2="55.5"/>
<line x1="104.8" y1="60.0" x2="106.9" y2="58.8"/>
<line x1="106.5" y1="63.7" x2="109.2" y2="62.1"/>
<line x1="108.1" y1="67.3" x2="111.6" y2="65.3"/>
<line x1="109.8" y1="71.0" x2="113.9" y2="68.6"/>
<line x1="111.4" y1="74.7" x2="116.3" y2="71.9"/>
<line x1="114.6" y1="74.6" x2="129.4" y2="49.0"/>
<line x1="114.6" y1="154.6" x2="149.3" y2="134.6"/>
<line x1="149.3" y1="134.6" x2="149.3" y2="94.6"/>
<line x1="149.3" y1="94.6" x2="114.6" y2="74.6"/>
<line x1="114.6" y1="74.6" x2="80.0" y2="94.6"/>
<line x1="80.0" y1="94.6" x2="80.0" y2="134.6"/>
<line x1="80.0" y1="134.6" x2="114.6" y2="154.6"/>
<text x="79.041016" y="194.082032" fill="rgb(255,12,12)"  stroke="rgb(255,12,12)" stroke-width="1" font-size="16" >HO</text>
<text x="24.400000" y="139.441016" fill="rgb(255,12,12)"  stroke="rgb(255,12,12)" stroke-width="1" font-size="16" >HO</text>
<text x="163.282032" y="174.082032" fill="rgb(255,12,12)"  stroke="rgb(255,12,12)" stroke-width="1" font-size="16" >OH</text>
<text x="44.400000" y="68.320000" fill="rgb(255,12,12)"  stroke="rgb(255,12,12)" stroke-width="1" font-size="16" >HO</text>
<text x="183.282032" y="102.961016" fill="rgb(255,12,12)"  stroke="rgb(255,12,12)" stroke-width="1" font-size="16" >OH</text>
<text x="128.641016" y="48.320000" fill="rgb(255,12,12)"  stroke="rgb(255,12,12)" stroke-width="1" font-size="16" >OH</text>
<text x="128.641016" y="194.082032" fill="rgb(191,191,191)"  stroke="rgb(191,191,191)" stroke-width="1" font-size="16" >H</text>
<text x="56.400000" y="174.082032" fill="rgb(191,191,191)"  stroke="rgb(191,191,191)" stroke-width="1" font-size="16" >H</text>
<text x="183.282032" y="142.961016" fill="rgb(191,191,191)"  stroke="rgb(191,191,191)" stroke-width="1" font-size="16" >H</text>
<text x="36.400000" y="99.441016" fill="rgb(191,191,191)"  stroke="rgb(191,191,191)" stroke-width="1" font-size="16" >H</text>
<text x="163.282032" y="68.320000" fill="rgb(191,191,191)"  stroke="rgb(191,191,191)" stroke-width="1" font-size="16" >H</text>
<text x="91.041016" y="48.320000" fill="rgb(191,191,191)"  stroke="rgb(191,191,191)" stroke-width="1" font-size="16" >H</text>
<text font-size="18.000000" fill ="black" font-family="sans-serif"
x="140.000000" y="20.000000" ></text>
<title> - OBDepict</title>
</svg>
