<?xml version="1.0"?>
<svg xmlns="http://www.w3.org/2000/svg"
xmlns:xlink="http://www.w3.org/1999/xlink" xmlns:cml="http://www.xml-cml.org/schema" width="564.974" height="260" x="0" y="0" font-family="sans-serif" stroke="rgb(0,0,0)" stroke-width="1" >
<line x1="516.0" y1="94.8" x2="499.3" y2="85.2"/>
<line x1="178.6" y1="140.0" x2="178.6" y2="110.4"/>
<line x1="180.1" y1="137.4" x2="214.7" y2="157.4"/>
<line x1="177.1" y1="142.6" x2="211.7" y2="162.6"/>
<line x1="178.6" y1="140.0" x2="143.9" y2="160.0"/>
<line x1="351.8" y1="80.0" x2="351.8" y2="50.4"/>
<line x1="353.3" y1="82.6" x2="318.6" y2="102.6"/>
<line x1="350.3" y1="77.4" x2="315.6" y2="97.4"/>
<line x1="351.8" y1="80.0" x2="386.4" y2="100.0"/>
<line x1="213.2" y1="160.0" x2="213.2" y2="189.6"/>
<line x1="213.2" y1="160.0" x2="247.8" y2="140.0"/>
<line x1="317.1" y1="100.0" x2="291.5" y2="85.2"/>
<line x1="317.1" y1="100.0" x2="317.1" y2="140.0"/>
<line x1="282.5" y1="160.0" x2="282.5" y2="189.6"/>
<line x1="282.5" y1="160.0" x2="247.8" y2="140.0"/>
<line x1="281.0" y1="157.4" x2="315.6" y2="137.4"/>
<line x1="284.0" y1="162.6" x2="318.6" y2="142.6"/>
<line x1="74.6" y1="200.0" x2="49.0" y2="214.8"/>
<line x1="244.8" y1="140.0" x2="244.8" y2="110.4"/>
<line x1="250.8" y1="140.0" x2="250.8" y2="110.4"/>
<line x1="317.1" y1="140.0" x2="342.8" y2="154.8"/>
<line x1="455.7" y1="140.0" x2="481.3" y2="154.8"/>
<line x1="455.7" y1="100.0" x2="481.3" y2="85.2"/>
<line x1="421.1" y1="80.0" x2="386.4" y2="100.0"/>
<line x1="419.5" y1="89.2" x2="395.2" y2="103.2"/>
<line x1="386.4" y1="100.0" x2="386.4" y2="140.0"/>
<line x1="386.4" y1="140.0" x2="421.1" y2="160.0"/>
<line x1="395.2" y1="136.8" x2="419.5" y2="150.8"/>
<line x1="421.1" y1="160.0" x2="455.7" y2="140.0"/>
<line x1="455.7" y1="140.0" x2="455.7" y2="100.0"/>
<line x1="448.5" y1="134.0" x2="448.5" y2="106.0"/>
<line x1="455.7" y1="100.0" x2="421.1" y2="80.0"/>
<line x1="109.3" y1="140.0" x2="143.9" y2="160.0"/>
<line x1="110.9" y1="149.2" x2="135.1" y2="163.2"/>
<line x1="143.9" y1="160.0" x2="143.9" y2="200.0"/>
<line x1="143.9" y1="200.0" x2="109.3" y2="220.0"/>
<line x1="135.1" y1="196.8" x2="110.9" y2="210.8"/>
<line x1="109.3" y1="220.0" x2="74.6" y2="200.0"/>
<line x1="74.6" y1="200.0" x2="74.6" y2="160.0"/>
<line x1="81.8" y1="194.0" x2="81.8" y2="166.0"/>
<line x1="74.6" y1="160.0" x2="109.3" y2="140.0"/>
<text x="518.974226" y="104.800000" fill="rgb(102,102,102)"  stroke="rgb(102,102,102)" stroke-width="1" font-size="16" >CH</text>
<text x="542.974226" y="109.600000" fill="rgb(102,102,102)"  stroke="rgb(102,102,102)" stroke-width="1" font-size="13" >3</text>
<text x="24.400000" y="224.800000" fill="rgb(255,12,12)"  stroke="rgb(255,12,12)" stroke-width="1" font-size="16" >HO</text>
<text x="241.846097" y="108.320000" fill="rgb(255,12,12)"  stroke="rgb(255,12,12)" stroke-width="1" font-size="16" >O</text>
<text x="345.769145" y="164.800000" fill="rgb(255,12,12)"  stroke="rgb(255,12,12)" stroke-width="1" font-size="16" >OH</text>
<text x="484.333210" y="164.800000" fill="rgb(255,12,12)"  stroke="rgb(255,12,12)" stroke-width="1" font-size="16" >OH</text>
<text x="484.333210" y="88.320000" fill="rgb(255,12,12)"  stroke="rgb(255,12,12)" stroke-width="1" font-size="16" >O</text>
<text x="172.564065" y="108.320000" fill="rgb(191,191,191)"  stroke="rgb(191,191,191)" stroke-width="1" font-size="16" >H</text>
<text x="345.769145" y="48.320000" fill="rgb(191,191,191)"  stroke="rgb(191,191,191)" stroke-width="1" font-size="16" >H</text>
<text x="207.205081" y="204.800000" fill="rgb(191,191,191)"  stroke="rgb(191,191,191)" stroke-width="1" font-size="16" >H</text>
<text x="278.887113" y="88.320000" fill="rgb(191,191,191)"  stroke="rgb(191,191,191)" stroke-width="1" font-size="16" >H</text>
<text x="276.487113" y="204.800000" fill="rgb(191,191,191)"  stroke="rgb(191,191,191)" stroke-width="1" font-size="16" >H</text>
<text font-size="18.000000" fill ="black" font-family="sans-serif"
x="140.000000" y="20.000000" ></text>
<title> - OBDepict</title>
</svg>
