<?xml version="1.0"?>
<svg xmlns="http://www.w3.org/2000/svg"
xmlns:xlink="http://www.w3.org/1999/xlink" xmlns:cml="http://www.xml-cml.org/schema" width="420.973" height="332.893" x="0" y="0" font-family="sans-serif" stroke="rgb(0,0,0)" stroke-width="1" >
<line x1="364.9" y1="47.0" x2="342.9" y2="66.8"/>
<polygon points="209.282032 178.251808 213.282032 151.451808 205.282032 151.451808 " />
<polygon points="313.205081 118.251808 305.958721 92.141843 298.650357 95.395736 " />
<line x1="342.9" y1="66.8" x2="351.2" y2="105.9"/>
<line x1="342.0" y1="69.6" x2="313.9" y2="60.5"/>
<line x1="343.9" y1="63.9" x2="315.7" y2="54.8"/>
<line x1="114.4" y1="218.7" x2="114.4" y2="217.9"/>
<line x1="118.4" y1="219.1" x2="118.4" y2="217.5"/>
<line x1="122.4" y1="219.5" x2="122.4" y2="217.1"/>
<line x1="126.4" y1="219.9" x2="126.4" y2="216.7"/>
<line x1="130.4" y1="220.3" x2="130.4" y2="216.3"/>
<line x1="134.4" y1="220.7" x2="134.4" y2="215.9"/>
<line x1="138.4" y1="221.1" x2="138.4" y2="215.5"/>
<line x1="140.0" y1="218.3" x2="125.2" y2="243.9"/>
<polygon points="301.773545 191.651808 280.564065 174.787706 276.564065 181.715910 " />
<line x1="370.0" y1="88.5" x2="370.5" y2="89.1"/>
<line x1="366.8" y1="90.8" x2="367.8" y2="92.0"/>
<line x1="363.5" y1="93.2" x2="365.1" y2="95.0"/>
<line x1="360.3" y1="95.6" x2="362.4" y2="98.0"/>
<line x1="357.0" y1="98.0" x2="359.7" y2="101.0"/>
<line x1="353.8" y1="100.4" x2="357.0" y2="103.9"/>
<line x1="350.6" y1="102.7" x2="354.3" y2="106.9"/>
<line x1="303.2" y1="181.8" x2="302.4" y2="181.5"/>
<line x1="305.2" y1="178.3" x2="303.7" y2="177.7"/>
<line x1="307.1" y1="174.8" x2="305.0" y2="173.8"/>
<line x1="309.1" y1="171.3" x2="306.2" y2="170.0"/>
<line x1="311.1" y1="167.8" x2="307.5" y2="166.2"/>
<line x1="313.1" y1="164.3" x2="308.7" y2="162.4"/>
<line x1="315.1" y1="160.9" x2="310.0" y2="158.6"/>
<line x1="221.6" y1="145.8" x2="222.0" y2="145.1"/>
<line x1="224.8" y1="148.1" x2="225.6" y2="146.8"/>
<line x1="228.1" y1="150.5" x2="229.3" y2="148.4"/>
<line x1="231.3" y1="152.8" x2="232.9" y2="150.1"/>
<line x1="234.6" y1="155.2" x2="236.6" y2="151.7"/>
<line x1="237.9" y1="157.5" x2="240.3" y2="153.4"/>
<line x1="241.1" y1="159.9" x2="243.9" y2="155.0"/>
<line x1="80.0" y1="223.3" x2="80.0" y2="242.5"/>
<line x1="50.4" y1="249.9" x2="69.6" y2="249.9"/>
<line x1="50.4" y1="255.9" x2="69.6" y2="255.9"/>
<line x1="77.0" y1="282.5" x2="77.0" y2="263.3"/>
<line x1="83.0" y1="282.5" x2="83.0" y2="263.3"/>
<line x1="109.6" y1="252.9" x2="90.4" y2="252.9"/>
<line x1="374.8" y1="138.3" x2="351.2" y2="170.6"/>
<line x1="351.2" y1="170.6" x2="313.2" y2="158.3"/>
<line x1="313.2" y1="158.3" x2="313.2" y2="118.3"/>
<line x1="313.2" y1="118.3" x2="351.2" y2="105.9"/>
<line x1="351.2" y1="105.9" x2="374.8" y2="138.3"/>
<line x1="278.6" y1="218.3" x2="243.9" y2="238.3"/>
<line x1="243.9" y1="238.3" x2="209.3" y2="218.3"/>
<line x1="242.3" y1="229.0" x2="218.1" y2="215.0"/>
<line x1="209.3" y1="218.3" x2="209.3" y2="178.3"/>
<line x1="209.3" y1="178.3" x2="243.9" y2="158.3"/>
<line x1="243.9" y1="158.3" x2="278.6" y2="178.3"/>
<line x1="278.6" y1="178.3" x2="278.6" y2="218.3"/>
<line x1="174.6" y1="238.3" x2="140.0" y2="218.3"/>
<line x1="140.0" y1="218.3" x2="140.0" y2="178.3"/>
<line x1="140.0" y1="178.3" x2="174.6" y2="158.3"/>
<line x1="174.6" y1="158.3" x2="209.3" y2="178.3"/>
<line x1="209.3" y1="218.3" x2="174.6" y2="238.3"/>
<line x1="313.2" y1="158.3" x2="278.6" y2="178.3"/>
<line x1="243.9" y1="158.3" x2="243.9" y2="118.3"/>
<line x1="243.9" y1="118.3" x2="278.6" y2="98.3"/>
<line x1="278.6" y1="98.3" x2="313.2" y2="118.3"/>
<text x="366.656667" y="48.320000" fill="rgb(102,102,102)"  stroke="rgb(102,102,102)" stroke-width="1" font-size="16" >CH</text>
<text x="390.656667" y="56.000000" fill="rgb(102,102,102)"  stroke="rgb(102,102,102)" stroke-width="1" font-size="13" >3</text>
<text x="203.282032" y="146.571808" fill="rgb(102,102,102)"  stroke="rgb(102,102,102)" stroke-width="1" font-size="16" >CH</text>
<text x="227.282032" y="154.251808" fill="rgb(102,102,102)"  stroke="rgb(102,102,102)" stroke-width="1" font-size="13" >3</text>
<text x="273.335615" y="90.029990" fill="rgb(102,102,102)"  stroke="rgb(102,102,102)" stroke-width="1" font-size="16" >H</text>
<text x="285.335615" y="97.709990" fill="rgb(102,102,102)"  stroke="rgb(102,102,102)" stroke-width="1" font-size="13" >3</text>
<text x="291.835615" y="90.029990" fill="rgb(102,102,102)"  stroke="rgb(102,102,102)" stroke-width="1" font-size="16" >C</text>
<text x="301.288613" y="62.724544" fill="rgb(255,12,12)"  stroke="rgb(255,12,12)" stroke-width="1" font-size="16" >O</text>
<text x="74.000000" y="221.212824" fill="rgb(255,12,12)"  stroke="rgb(255,12,12)" stroke-width="1" font-size="16" >OH</text>
<text x="36.400000" y="257.692824" fill="rgb(255,12,12)"  stroke="rgb(255,12,12)" stroke-width="1" font-size="16" >O</text>
<text x="74.000000" y="297.692824" fill="rgb(255,12,12)"  stroke="rgb(255,12,12)" stroke-width="1" font-size="16" >O</text>
<text x="114.000000" y="257.692824" fill="rgb(255,12,12)"  stroke="rgb(255,12,12)" stroke-width="1" font-size="16" >O</text>
<text x="74.000000" y="261.212824" fill="rgb(178,178,0)"  stroke="rgb(178,178,0)" stroke-width="1" font-size="16" >S</text>
<text x="96.400000" y="226.571808" fill="rgb(191,191,191)"  stroke="rgb(191,191,191)" stroke-width="1" font-size="16" >H</text>
<text x="307.205081" y="203.051808" fill="rgb(191,191,191)"  stroke="rgb(191,191,191)" stroke-width="1" font-size="16" >H</text>
<text x="374.973134" y="87.445904" fill="rgb(191,191,191)"  stroke="rgb(191,191,191)" stroke-width="1" font-size="16" >H</text>
<text x="293.335615" y="199.593626" fill="rgb(191,191,191)"  stroke="rgb(191,191,191)" stroke-width="1" font-size="16" >H</text>
<text x="205.682032" y="146.571808" fill="rgb(191,191,191)"  stroke="rgb(191,191,191)" stroke-width="1" font-size="16" >H</text>
<text font-size="18.000000" fill ="black" font-family="sans-serif"
x="140.000000" y="20.000000" ></text>
<title> - OBDepict</title>
</svg>
