<?xml version="1.0"?>
<svg xmlns="http://www.w3.org/2000/svg"
xmlns:xlink="http://www.w3.org/1999/xlink" xmlns:cml="http://www.xml-cml.org/schema" width="342.903" height="339.902" x="0" y="0" font-family="sans-serif" stroke="rgb(0,0,0)" stroke-width="1" >
<line x1="170.8" y1="50.4" x2="174.4" y2="69.6"/>
<line x1="72.9" y1="242.3" x2="67.1" y2="223.6"/>
<line x1="258.5" y1="294.6" x2="241.5" y2="284.8"/>
<line x1="161.8" y1="268.9" x2="161.8" y2="249.4"/>
<polygon points="234.668535 74.110101 208.792858 83.669508 212.624071 90.692457 " />
<line x1="79.0" y1="147.6" x2="49.7" y2="140.9"/>
<line x1="80.4" y1="141.8" x2="51.0" y2="135.0"/>
<line x1="267.6" y1="218.4" x2="293.7" y2="233.5"/>
<line x1="91.7" y1="183.6" x2="71.2" y2="205.7"/>
<line x1="232.3" y1="238.8" x2="232.3" y2="268.9"/>
<line x1="197.1" y1="218.4" x2="171.0" y2="233.5"/>
<line x1="267.6" y1="177.7" x2="232.3" y2="157.3"/>
<line x1="258.8" y1="180.9" x2="233.9" y2="166.6"/>
<line x1="232.3" y1="157.3" x2="197.1" y2="177.7"/>
<line x1="197.1" y1="177.7" x2="197.1" y2="218.4"/>
<line x1="204.3" y1="183.7" x2="204.3" y2="212.4"/>
<line x1="197.1" y1="218.4" x2="232.3" y2="238.8"/>
<line x1="232.3" y1="238.8" x2="267.6" y2="218.4"/>
<line x1="233.9" y1="229.6" x2="258.8" y2="215.2"/>
<line x1="267.6" y1="218.4" x2="267.6" y2="177.7"/>
<line x1="107.4" y1="114.8" x2="147.1" y2="123.9"/>
<line x1="111.7" y1="123.2" x2="139.7" y2="129.6"/>
<line x1="147.1" y1="123.9" x2="159.1" y2="162.8"/>
<line x1="159.1" y1="162.8" x2="131.4" y2="192.7"/>
<line x1="131.4" y1="192.7" x2="91.7" y2="183.6"/>
<line x1="127.2" y1="184.3" x2="99.2" y2="177.9"/>
<line x1="91.7" y1="183.6" x2="79.7" y2="144.7"/>
<line x1="79.7" y1="144.7" x2="107.4" y2="114.8"/>
<line x1="238.4" y1="117.0" x2="232.3" y2="157.3"/>
<line x1="197.1" y1="177.7" x2="159.1" y2="162.8"/>
<line x1="147.1" y1="123.9" x2="170.1" y2="90.2"/>
<line x1="170.1" y1="90.2" x2="210.7" y2="87.2"/>
<line x1="210.7" y1="87.2" x2="238.4" y2="117.0"/>
<line x1="140.0" y1="133.5" x2="147.1" y2="99.2"/>
<line x1="147.1" y1="99.2" x2="168.8" y2="85.0"/>
<line x1="185.3" y1="81.9" x2="210.7" y2="87.2"/>
<line x1="159.1" y1="162.8" x2="140.0" y2="133.5"/>
<text x="145.244953" y="48.320000" fill="rgb(102,102,102)"  stroke="rgb(102,102,102)" stroke-width="1" font-size="16" >H</text>
<text x="157.244953" y="56.000000" fill="rgb(102,102,102)"  stroke="rgb(102,102,102)" stroke-width="1" font-size="13" >3</text>
<text x="163.744953" y="48.320000" fill="rgb(102,102,102)"  stroke="rgb(102,102,102)" stroke-width="1" font-size="16" >C</text>
<text x="70.021888" y="257.195921" fill="rgb(102,102,102)"  stroke="rgb(102,102,102)" stroke-width="1" font-size="16" >CH</text>
<text x="94.021888" y="261.995921" fill="rgb(102,102,102)"  stroke="rgb(102,102,102)" stroke-width="1" font-size="13" >3</text>
<text x="261.623714" y="304.702240" fill="rgb(102,102,102)"  stroke="rgb(102,102,102)" stroke-width="1" font-size="16" >CH</text>
<text x="285.623714" y="309.502240" fill="rgb(102,102,102)"  stroke="rgb(102,102,102)" stroke-width="1" font-size="13" >3</text>
<text x="155.787166" y="284.333987" fill="rgb(102,102,102)"  stroke="rgb(102,102,102)" stroke-width="1" font-size="16" >CH</text>
<text x="179.787166" y="289.133987" fill="rgb(102,102,102)"  stroke="rgb(102,102,102)" stroke-width="1" font-size="13" >3</text>
<text x="172.518342" y="95.626325" fill="rgb(12,12,255)"  stroke="rgb(12,12,255)" stroke-width="1" font-size="13" >+</text>
<text x="170.418342" y="84.826325" fill="rgb(12,12,255)"  stroke="rgb(12,12,255)" stroke-width="1" font-size="16" >NH</text>
<text x="36.400000" y="143.935828" fill="rgb(255,12,12)"  stroke="rgb(255,12,12)" stroke-width="1" font-size="16" >O</text>
<text x="296.902563" y="243.597480" fill="rgb(255,12,12)"  stroke="rgb(255,12,12)" stroke-width="1" font-size="16" >OH</text>
<text x="60.414592" y="221.789223" fill="rgb(255,12,12)"  stroke="rgb(255,12,12)" stroke-width="1" font-size="16" >O</text>
<text x="228.744864" y="284.333987" fill="rgb(255,12,12)"  stroke="rgb(255,12,12)" stroke-width="1" font-size="16" >O</text>
<text x="158.187166" y="247.117480" fill="rgb(255,12,12)"  stroke="rgb(255,12,12)" stroke-width="1" font-size="16" >O</text>
<text x="240.469764" y="75.992205" fill="rgb(191,191,191)"  stroke="rgb(191,191,191)" stroke-width="1" font-size="16" >H</text>
<text font-size="18.000000" fill ="black" font-family="sans-serif"
x="140.000000" y="20.000000" ></text>
<title> - OBDepict</title>
</svg>
