<?xml version="1.0"?>
<svg xmlns="http://www.w3.org/2000/svg"
xmlns:xlink="http://www.w3.org/1999/xlink" xmlns:cml="http://www.xml-cml.org/schema" width="258.848" height="253.376" x="0" y="0" font-family="sans-serif" stroke="rgb(0,0,0)" stroke-width="1" >
<line x1="149.1" y1="48.4" x2="160.4" y2="63.9"/>
<line x1="116.1" y1="122.8" x2="107.8" y2="161.9"/>
<line x1="116.1" y1="122.8" x2="154.1" y2="110.4"/>
<polygon points="116.049709 187.377839 111.572280 160.653456 103.963828 163.125592 " />
<line x1="107.8" y1="161.9" x2="69.7" y2="174.3"/>
<line x1="107.8" y1="161.9" x2="136.7" y2="168.0"/>
<line x1="186.5" y1="133.9" x2="186.5" y2="163.5"/>
<line x1="67.7" y1="176.5" x2="45.7" y2="156.7"/>
<line x1="71.7" y1="172.0" x2="49.7" y2="152.2"/>
<line x1="69.7" y1="174.3" x2="63.6" y2="203.2"/>
<line x1="206.5" y1="72.4" x2="176.9" y2="72.4"/>
<line x1="163.3" y1="82.3" x2="154.1" y2="110.4"/>
<line x1="154.1" y1="110.4" x2="186.5" y2="133.9"/>
<line x1="163.2" y1="108.1" x2="185.9" y2="124.6"/>
<line x1="186.5" y1="133.9" x2="210.4" y2="116.5"/>
<line x1="215.6" y1="100.5" x2="206.5" y2="72.4"/>
<line x1="208.2" y1="100.8" x2="201.5" y2="80.3"/>
<text x="119.376052" y="48.320000" fill="rgb(102,102,102)"  stroke="rgb(102,102,102)" stroke-width="1" font-size="16" >H</text>
<text x="131.376052" y="56.000000" fill="rgb(102,102,102)"  stroke="rgb(102,102,102)" stroke-width="1" font-size="13" >3</text>
<text x="137.876052" y="48.320000" fill="rgb(102,102,102)"  stroke="rgb(102,102,102)" stroke-width="1" font-size="16" >C</text>
<text x="140.893958" y="175.005992" fill="rgb(12,12,255)"  stroke="rgb(12,12,255)" stroke-width="1" font-size="16" >NH</text>
<text x="164.893958" y="179.805992" fill="rgb(12,12,255)"  stroke="rgb(12,12,255)" stroke-width="1" font-size="13" >2</text>
<text x="212.848142" y="115.202940" fill="rgb(12,12,255)"  stroke="rgb(12,12,255)" stroke-width="1" font-size="16" >N</text>
<text x="162.887462" y="80.680680" fill="rgb(12,12,255)"  stroke="rgb(12,12,255)" stroke-width="1" font-size="16" >N</text>
<text x="36.400000" y="155.804980" fill="rgb(255,12,12)"  stroke="rgb(255,12,12)" stroke-width="1" font-size="16" >O</text>
<text x="45.809325" y="218.176108" fill="rgb(255,12,12)"  stroke="rgb(255,12,12)" stroke-width="1" font-size="16" >HO</text>
<text x="180.487462" y="178.714351" fill="rgb(178,178,0)"  stroke="rgb(178,178,0)" stroke-width="1" font-size="16" >SH</text>
<text x="114.128733" y="204.731785" fill="rgb(191,191,191)"  stroke="rgb(191,191,191)" stroke-width="1" font-size="16" >H</text>
<text font-size="18.000000" fill ="black" font-family="sans-serif"
x="140.000000" y="20.000000" ></text>
<title> - OBDepict</title>
</svg>
