<?xml version="1.0"?>
<svg xmlns="http://www.w3.org/2000/svg"
xmlns:xlink="http://www.w3.org/1999/xlink" xmlns:cml="http://www.xml-cml.org/schema" width="520.95" height="382.078" x="0" y="0" font-family="sans-serif" stroke="rgb(0,0,0)" stroke-width="1" >
<line x1="442.3" y1="303.4" x2="414.0" y2="275.2"/>
<line x1="442.3" y1="303.4" x2="470.9" y2="295.8"/>
<line x1="215.8" y1="226.2" x2="181.1" y2="206.2"/>
<line x1="215.8" y1="226.2" x2="241.4" y2="211.4"/>
<polygon points="439.915078 268.220718 412.992990 271.293365 415.063542 279.020771 " />
<polygon points="204.324903 192.767273 179.115422 202.703172 183.115422 209.631375 " />
<line x1="70.8" y1="76.5" x2="58.7" y2="49.5"/>
<polygon points="404.694456 322.391801 388.572422 300.612912 382.915567 306.269766 " />
<line x1="385.7" y1="303.4" x2="378.1" y2="332.0"/>
<line x1="176.9" y1="255.4" x2="176.4" y2="256.0"/>
<line x1="174.2" y1="252.4" x2="173.1" y2="253.6"/>
<line x1="171.5" y1="249.4" x2="169.9" y2="251.2"/>
<line x1="168.8" y1="246.4" x2="166.6" y2="248.8"/>
<line x1="166.1" y1="243.5" x2="163.4" y2="246.4"/>
<line x1="163.4" y1="240.5" x2="160.2" y2="244.1"/>
<line x1="160.7" y1="237.5" x2="156.9" y2="241.7"/>
<line x1="157.6" y1="238.5" x2="151.4" y2="267.5"/>
<polygon points="340.170611 318.975390 350.970665 294.123854 343.243258 292.053301 " />
<line x1="347.1" y1="293.1" x2="318.5" y2="300.7"/>
<line x1="109.5" y1="249.7" x2="108.8" y2="249.4"/>
<line x1="111.5" y1="246.2" x2="110.0" y2="245.6"/>
<line x1="113.5" y1="242.7" x2="111.3" y2="241.8"/>
<line x1="115.5" y1="239.2" x2="112.6" y2="237.9"/>
<line x1="117.5" y1="235.8" x2="113.8" y2="234.1"/>
<line x1="119.5" y1="232.3" x2="115.1" y2="230.3"/>
<line x1="121.5" y1="228.8" x2="116.4" y2="226.5"/>
<line x1="119.6" y1="226.2" x2="90.1" y2="229.3"/>
<line x1="312.1" y1="261.5" x2="311.9" y2="260.7"/>
<line x1="316.1" y1="260.8" x2="315.7" y2="259.3"/>
<line x1="320.1" y1="260.2" x2="319.4" y2="257.8"/>
<line x1="324.0" y1="259.5" x2="323.2" y2="256.4"/>
<line x1="328.0" y1="258.9" x2="327.0" y2="255.0"/>
<line x1="332.0" y1="258.2" x2="330.7" y2="253.6"/>
<line x1="335.9" y1="257.6" x2="334.5" y2="252.2"/>
<line x1="336.8" y1="254.5" x2="315.8" y2="233.5"/>
<polygon points="92.908565 183.365910 119.143638 190.145361 119.979865 182.189186 " />
<line x1="119.6" y1="186.2" x2="107.5" y2="159.1"/>
<line x1="385.1" y1="210.3" x2="385.6" y2="210.9"/>
<line x1="381.7" y1="212.4" x2="382.7" y2="213.7"/>
<line x1="378.3" y1="214.5" x2="379.7" y2="216.4"/>
<line x1="374.9" y1="216.6" x2="376.8" y2="219.2"/>
<line x1="371.4" y1="218.7" x2="373.9" y2="221.9"/>
<line x1="368.0" y1="220.9" x2="370.9" y2="224.7"/>
<line x1="364.6" y1="223.0" x2="368.0" y2="227.4"/>
<line x1="365.0" y1="226.2" x2="339.4" y2="211.4"/>
<line x1="65.9" y1="147.2" x2="48.5" y2="171.2"/>
<line x1="61.1" y1="143.7" x2="43.7" y2="167.6"/>
<line x1="220.8" y1="166.2" x2="240.0" y2="166.2"/>
<line x1="253.4" y1="136.6" x2="253.4" y2="155.8"/>
<line x1="247.4" y1="136.6" x2="247.4" y2="155.8"/>
<line x1="330.4" y1="136.6" x2="330.4" y2="155.8"/>
<line x1="360.0" y1="169.2" x2="340.8" y2="169.2"/>
<line x1="360.0" y1="163.2" x2="340.8" y2="163.2"/>
<line x1="250.4" y1="195.8" x2="250.4" y2="176.6"/>
<line x1="330.4" y1="195.8" x2="330.4" y2="176.6"/>
<line x1="280.0" y1="166.2" x2="260.8" y2="166.2"/>
<line x1="300.8" y1="166.2" x2="320.0" y2="166.2"/>
<line x1="119.6" y1="226.2" x2="119.6" y2="186.2"/>
<line x1="119.6" y1="186.2" x2="147.7" y2="177.0"/>
<line x1="163.7" y1="182.2" x2="181.1" y2="206.2"/>
<line x1="181.1" y1="206.2" x2="157.6" y2="238.5"/>
<line x1="157.6" y1="238.5" x2="119.6" y2="226.2"/>
<line x1="347.1" y1="293.1" x2="336.8" y2="254.5"/>
<line x1="336.8" y1="254.5" x2="365.0" y2="226.2"/>
<line x1="365.0" y1="226.2" x2="393.6" y2="233.8"/>
<line x1="406.4" y1="246.6" x2="414.0" y2="275.2"/>
<line x1="414.0" y1="275.2" x2="385.7" y2="303.4"/>
<line x1="385.7" y1="303.4" x2="347.1" y2="293.1"/>
<line x1="110.5" y1="80.7" x2="126.8" y2="117.3"/>
<line x1="106.4" y1="89.1" x2="117.8" y2="114.7"/>
<line x1="126.8" y1="117.3" x2="109.4" y2="141.2"/>
<line x1="92.9" y1="148.5" x2="63.5" y2="145.4"/>
<line x1="63.5" y1="145.4" x2="51.5" y2="118.4"/>
<line x1="53.4" y1="100.5" x2="70.8" y2="76.5"/>
<line x1="60.4" y1="103.1" x2="73.1" y2="85.6"/>
<line x1="70.8" y1="76.5" x2="110.5" y2="80.7"/>
<text x="43.641944" y="117.222498" fill="rgb(12,12,255)"  stroke="rgb(12,12,255)" stroke-width="1" font-size="16" >N</text>
<text x="97.292286" y="157.945455" fill="rgb(12,12,255)"  stroke="rgb(12,12,255)" stroke-width="1" font-size="16" >N</text>
<text x="474.949570" y="301.408578" fill="rgb(255,12,12)"  stroke="rgb(255,12,12)" stroke-width="1" font-size="16" >OH</text>
<text x="49.683889" y="33.600000" fill="rgb(255,12,12)"  stroke="rgb(255,12,12)" stroke-width="1" font-size="32" >-</text>
<text x="50.883889" y="48.320000" fill="rgb(255,12,12)"  stroke="rgb(255,12,12)" stroke-width="1" font-size="16" >O</text>
<text x="359.791233" y="346.878372" fill="rgb(255,12,12)"  stroke="rgb(255,12,12)" stroke-width="1" font-size="16" >HO</text>
<text x="133.687545" y="282.453857" fill="rgb(255,12,12)"  stroke="rgb(255,12,12)" stroke-width="1" font-size="16" >HO</text>
<text x="292.869928" y="308.241339" fill="rgb(255,12,12)"  stroke="rgb(255,12,12)" stroke-width="1" font-size="16" >HO</text>
<text x="64.180876" y="235.148412" fill="rgb(255,12,12)"  stroke="rgb(255,12,12)" stroke-width="1" font-size="16" >HO</text>
<text x="292.869928" y="234.487273" fill="rgb(255,12,12)"  stroke="rgb(255,12,12)" stroke-width="1" font-size="16" >HO</text>
<text x="36.400000" y="182.604996" fill="rgb(255,12,12)"  stroke="rgb(255,12,12)" stroke-width="1" font-size="16" >O</text>
<text x="205.597455" y="159.767273" fill="rgb(255,12,12)"  stroke="rgb(255,12,12)" stroke-width="1" font-size="32" >-</text>
<text x="206.797455" y="174.487273" fill="rgb(255,12,12)"  stroke="rgb(255,12,12)" stroke-width="1" font-size="16" >O</text>
<text x="244.397455" y="134.487273" fill="rgb(255,12,12)"  stroke="rgb(255,12,12)" stroke-width="1" font-size="16" >O</text>
<text x="324.397455" y="134.487273" fill="rgb(255,12,12)"  stroke="rgb(255,12,12)" stroke-width="1" font-size="16" >OH</text>
<text x="364.397455" y="170.967273" fill="rgb(255,12,12)"  stroke="rgb(255,12,12)" stroke-width="1" font-size="16" >O</text>
<text x="244.397455" y="210.967273" fill="rgb(255,12,12)"  stroke="rgb(255,12,12)" stroke-width="1" font-size="16" >O</text>
<text x="151.604012" y="182.126593" fill="rgb(255,12,12)"  stroke="rgb(255,12,12)" stroke-width="1" font-size="16" >O</text>
<text x="397.675504" y="244.840035" fill="rgb(255,12,12)"  stroke="rgb(255,12,12)" stroke-width="1" font-size="16" >O</text>
<text x="326.797455" y="210.967273" fill="rgb(255,12,12)"  stroke="rgb(255,12,12)" stroke-width="1" font-size="16" >O</text>
<text x="284.397455" y="170.967273" fill="rgb(255,12,12)"  stroke="rgb(255,12,12)" stroke-width="1" font-size="16" >O</text>
<text x="244.397455" y="170.967273" fill="rgb(255,127,0)"  stroke="rgb(255,127,0)" stroke-width="1" font-size="16" >P</text>
<text x="324.397455" y="174.487273" fill="rgb(255,127,0)"  stroke="rgb(255,127,0)" stroke-width="1" font-size="16" >P</text>
<text x="446.665299" y="273.124306" fill="rgb(191,191,191)"  stroke="rgb(191,191,191)" stroke-width="1" font-size="16" >H</text>
<text x="209.756439" y="194.487273" fill="rgb(191,191,191)"  stroke="rgb(191,191,191)" stroke-width="1" font-size="16" >H</text>
<text x="408.028266" y="336.525611" fill="rgb(191,191,191)"  stroke="rgb(191,191,191)" stroke-width="1" font-size="16" >H</text>
<text x="181.329805" y="270.093177" fill="rgb(191,191,191)"  stroke="rgb(191,191,191)" stroke-width="1" font-size="16" >H</text>
<text x="333.154200" y="336.525611" fill="rgb(191,191,191)"  stroke="rgb(191,191,191)" stroke-width="1" font-size="16" >H</text>
<text x="99.692286" y="267.509092" fill="rgb(191,191,191)"  stroke="rgb(191,191,191)" stroke-width="1" font-size="16" >H</text>
<text x="294.517167" y="269.604306" fill="rgb(191,191,191)"  stroke="rgb(191,191,191)" stroke-width="1" font-size="16" >H</text>
<text x="76.180876" y="190.306135" fill="rgb(191,191,191)"  stroke="rgb(191,191,191)" stroke-width="1" font-size="16" >H</text>
<text x="390.772604" y="210.136816" fill="rgb(191,191,191)"  stroke="rgb(191,191,191)" stroke-width="1" font-size="16" >H</text>
<text font-size="18.000000" fill ="black" font-family="sans-serif"
x="140.000000" y="20.000000" ></text>
<title> - OBDepict</title>
</svg>
