<?xml version="1.0"?>
<svg xmlns="http://www.w3.org/2000/svg"
xmlns:xlink="http://www.w3.org/1999/xlink" xmlns:cml="http://www.xml-cml.org/schema" width="211.487" height="215.976" x="0" y="0" font-family="sans-serif" stroke="rgb(0,0,0)" stroke-width="1" >
<line x1="131.5" y1="40.0" x2="111.5" y2="74.6"/>
<line x1="131.5" y1="40.0" x2="161.1" y2="40.0"/>
<line x1="89.2" y1="161.7" x2="88.4" y2="161.6"/>
<line x1="90.0" y1="157.8" x2="88.4" y2="157.6"/>
<line x1="90.8" y1="153.8" x2="88.5" y2="153.6"/>
<line x1="91.7" y1="149.9" x2="88.5" y2="149.6"/>
<line x1="92.5" y1="146.0" x2="88.5" y2="145.5"/>
<line x1="93.3" y1="142.0" x2="88.5" y2="141.5"/>
<line x1="94.1" y1="138.1" x2="88.5" y2="137.5"/>
<line x1="91.5" y1="136.2" x2="64.4" y2="148.2"/>
<line x1="54.2" y1="103.9" x2="54.0" y2="103.1"/>
<line x1="58.2" y1="103.4" x2="57.8" y2="101.9"/>
<line x1="62.2" y1="103.0" x2="61.7" y2="100.6"/>
<line x1="66.2" y1="102.5" x2="65.5" y2="99.4"/>
<line x1="70.2" y1="102.1" x2="69.3" y2="98.2"/>
<line x1="74.1" y1="101.7" x2="73.1" y2="97.0"/>
<line x1="78.1" y1="101.2" x2="77.0" y2="95.7"/>
<line x1="79.1" y1="98.2" x2="59.3" y2="76.2"/>
<line x1="111.5" y1="74.6" x2="96.7" y2="49.0"/>
<line x1="131.5" y1="136.2" x2="91.5" y2="136.2"/>
<line x1="91.5" y1="136.2" x2="79.1" y2="98.2"/>
<line x1="79.1" y1="98.2" x2="111.5" y2="74.6"/>
<line x1="111.5" y1="74.6" x2="135.4" y2="92.0"/>
<line x1="140.6" y1="108.0" x2="131.5" y2="136.2"/>
<text x="165.486584" y="48.320000" fill="rgb(255,12,12)"  stroke="rgb(255,12,12)" stroke-width="1" font-size="16" >OH</text>
<text x="39.344765" y="157.264153" fill="rgb(255,12,12)"  stroke="rgb(255,12,12)" stroke-width="1" font-size="16" >HO</text>
<text x="36.760680" y="76.746633" fill="rgb(255,12,12)"  stroke="rgb(255,12,12)" stroke-width="1" font-size="16" >HO</text>
<text x="75.886584" y="48.320000" fill="rgb(255,12,12)"  stroke="rgb(255,12,12)" stroke-width="1" font-size="16" >HO</text>
<text x="137.847264" y="106.472426" fill="rgb(255,12,12)"  stroke="rgb(255,12,12)" stroke-width="1" font-size="16" >O</text>
<text x="83.705445" y="180.775563" fill="rgb(191,191,191)"  stroke="rgb(191,191,191)" stroke-width="1" font-size="16" >H</text>
<text x="36.400000" y="111.268894" fill="rgb(191,191,191)"  stroke="rgb(191,191,191)" stroke-width="1" font-size="16" >H</text>
<text font-size="18.000000" fill ="black" font-family="sans-serif"
x="140.000000" y="20.000000" ></text>
<title> - OBDepict</title>
</svg>
