<?xml version="1.0"?>
<svg xmlns="http://www.w3.org/2000/svg"
xmlns:xlink="http://www.w3.org/1999/xlink" xmlns:cml="http://www.xml-cml.org/schema" width="236.564" height="227.01" x="0" y="0" font-family="sans-serif" stroke="rgb(0,0,0)" stroke-width="1" >
<line x1="139.1" y1="40.0" x2="160.9" y2="73.5"/>
<line x1="139.1" y1="40.0" x2="109.6" y2="41.5"/>
<line x1="183.9" y1="84.8" x2="183.6" y2="85.5"/>
<line x1="180.5" y1="82.6" x2="179.8" y2="84.1"/>
<line x1="177.1" y1="80.5" x2="176.1" y2="82.6"/>
<line x1="173.8" y1="78.3" x2="172.3" y2="81.1"/>
<line x1="170.4" y1="76.1" x2="168.6" y2="79.7"/>
<line x1="167.0" y1="74.0" x2="164.8" y2="78.2"/>
<line x1="163.6" y1="71.8" x2="161.1" y2="76.8"/>
<line x1="160.9" y1="73.5" x2="142.8" y2="109.2"/>
<line x1="160.9" y1="73.5" x2="185.7" y2="57.4"/>
<polygon points="154.885959 158.129886 132.029887 143.575163 128.775994 150.883526 " />
<line x1="130.4" y1="147.2" x2="133.5" y2="176.7"/>
<line x1="88.1" y1="172.7" x2="87.3" y2="172.6"/>
<line x1="88.9" y1="168.8" x2="87.3" y2="168.6"/>
<line x1="89.8" y1="164.9" x2="87.4" y2="164.6"/>
<line x1="90.6" y1="160.9" x2="87.4" y2="160.6"/>
<line x1="91.4" y1="157.0" x2="87.4" y2="156.6"/>
<line x1="92.2" y1="153.0" x2="87.4" y2="152.5"/>
<line x1="93.0" y1="149.1" x2="87.5" y2="148.5"/>
<line x1="90.4" y1="147.2" x2="63.4" y2="159.3"/>
<line x1="163.1" y1="124.8" x2="162.6" y2="125.4"/>
<line x1="160.2" y1="122.0" x2="159.2" y2="123.3"/>
<line x1="157.3" y1="119.2" x2="155.8" y2="121.1"/>
<line x1="154.4" y1="116.4" x2="152.4" y2="118.9"/>
<line x1="151.5" y1="113.6" x2="149.0" y2="116.7"/>
<line x1="148.6" y1="110.8" x2="145.7" y2="114.6"/>
<line x1="145.8" y1="108.0" x2="142.3" y2="112.4"/>
<line x1="77.1" y1="112.0" x2="49.0" y2="102.9"/>
<line x1="79.0" y1="106.3" x2="50.8" y2="97.2"/>
<line x1="130.4" y1="147.2" x2="90.4" y2="147.2"/>
<line x1="90.4" y1="147.2" x2="78.0" y2="109.2"/>
<line x1="78.0" y1="109.2" x2="102.0" y2="91.8"/>
<line x1="118.8" y1="91.8" x2="142.8" y2="109.2"/>
<line x1="142.8" y1="109.2" x2="130.4" y2="147.2"/>
<text x="83.592497" y="46.893438" fill="rgb(255,12,12)"  stroke="rgb(255,12,12)" stroke-width="1" font-size="16" >HO</text>
<text x="188.470063" y="60.081261" fill="rgb(255,12,12)"  stroke="rgb(255,12,12)" stroke-width="1" font-size="16" >OH</text>
<text x="128.584079" y="191.810220" fill="rgb(255,12,12)"  stroke="rgb(255,12,12)" stroke-width="1" font-size="16" >OH</text>
<text x="38.261122" y="168.298810" fill="rgb(255,12,12)"  stroke="rgb(255,12,12)" stroke-width="1" font-size="16" >HO</text>
<text x="36.400000" y="105.146404" fill="rgb(255,12,12)"  stroke="rgb(255,12,12)" stroke-width="1" font-size="16" >O</text>
<text x="104.402940" y="93.995674" fill="rgb(255,12,12)"  stroke="rgb(255,12,12)" stroke-width="1" font-size="16" >O</text>
<text x="190.563501" y="96.506443" fill="rgb(191,191,191)"  stroke="rgb(191,191,191)" stroke-width="1" font-size="16" >H</text>
<text x="160.944759" y="168.298810" fill="rgb(191,191,191)"  stroke="rgb(191,191,191)" stroke-width="1" font-size="16" >H</text>
<text x="82.621802" y="191.810220" fill="rgb(191,191,191)"  stroke="rgb(191,191,191)" stroke-width="1" font-size="16" >H</text>
<text x="168.078714" y="138.874127" fill="rgb(191,191,191)"  stroke="rgb(191,191,191)" stroke-width="1" font-size="16" >H</text>
<text font-size="18.000000" fill ="black" font-family="sans-serif"
x="140.000000" y="20.000000" ></text>
<title> - OBDepict</title>
</svg>
