<?xml version="1.0"?>
<svg xmlns="http://www.w3.org/2000/svg"
xmlns:xlink="http://www.w3.org/1999/xlink" xmlns:cml="http://www.xml-cml.org/schema" width="495.692" height="800" x="0" y="0" font-family="sans-serif" stroke="rgb(0,0,0)" stroke-width="1" >
<line x1="421.1" y1="50.4" x2="421.1" y2="80.0"/>
<line x1="446.7" y1="94.8" x2="421.1" y2="80.0"/>
<line x1="169.6" y1="334.8" x2="143.9" y2="320.0"/>
<line x1="83.6" y1="445.2" x2="109.3" y2="460.0"/>
<line x1="317.1" y1="110.4" x2="317.1" y2="140.0"/>
<line x1="238.8" y1="214.8" x2="213.2" y2="200.0"/>
<line x1="134.9" y1="565.2" x2="109.3" y2="580.0"/>
<line x1="83.6" y1="685.2" x2="109.3" y2="700.0"/>
<line x1="208.2" y1="700.0" x2="178.6" y2="700.0"/>
<line x1="193.4" y1="674.4" x2="178.6" y2="700.0"/>
<line x1="109.3" y1="380.0" x2="83.6" y2="394.8"/>
<line x1="110.8" y1="377.4" x2="145.4" y2="397.4"/>
<line x1="107.8" y1="382.6" x2="142.4" y2="402.6"/>
<line x1="109.3" y1="380.0" x2="109.3" y2="340.0"/>
<line x1="143.9" y1="400.0" x2="169.6" y2="385.2"/>
<line x1="143.9" y1="400.0" x2="143.9" y2="440.0"/>
<line x1="386.4" y1="140.0" x2="386.4" y2="100.0"/>
<line x1="386.4" y1="140.0" x2="351.8" y2="160.0"/>
<line x1="178.6" y1="260.0" x2="204.2" y2="274.8"/>
<line x1="180.1" y1="262.6" x2="145.4" y2="282.6"/>
<line x1="177.1" y1="257.4" x2="142.4" y2="277.4"/>
<line x1="178.6" y1="260.0" x2="178.6" y2="220.0"/>
<line x1="247.8" y1="140.0" x2="247.8" y2="110.4"/>
<line x1="247.8" y1="140.0" x2="282.5" y2="160.0"/>
<line x1="249.3" y1="142.6" x2="214.7" y2="162.6"/>
<line x1="246.3" y1="137.4" x2="211.7" y2="157.4"/>
<line x1="74.6" y1="520.0" x2="49.0" y2="505.2"/>
<line x1="73.1" y1="517.4" x2="107.8" y2="497.4"/>
<line x1="76.1" y1="522.6" x2="110.8" y2="502.6"/>
<line x1="74.6" y1="520.0" x2="74.6" y2="560.0"/>
<line x1="384.9" y1="97.4" x2="419.6" y2="77.4"/>
<line x1="387.9" y1="102.6" x2="422.6" y2="82.6"/>
<line x1="109.3" y1="340.0" x2="83.6" y2="325.2"/>
<line x1="107.8" y1="337.4" x2="142.4" y2="317.4"/>
<line x1="110.8" y1="342.6" x2="145.4" y2="322.6"/>
<line x1="143.9" y1="440.0" x2="169.6" y2="454.8"/>
<line x1="145.4" y1="442.6" x2="110.8" y2="462.6"/>
<line x1="142.4" y1="437.4" x2="107.8" y2="457.4"/>
<line x1="351.8" y1="160.0" x2="317.1" y2="140.0"/>
<line x1="143.9" y1="280.0" x2="118.3" y2="265.2"/>
<line x1="143.9" y1="280.0" x2="143.9" y2="320.0"/>
<line x1="109.3" y1="500.0" x2="134.9" y2="514.8"/>
<line x1="109.3" y1="500.0" x2="109.3" y2="460.0"/>
<line x1="282.5" y1="160.0" x2="282.5" y2="189.6"/>
<line x1="281.0" y1="157.4" x2="315.6" y2="137.4"/>
<line x1="284.0" y1="162.6" x2="318.6" y2="142.6"/>
<line x1="178.6" y1="220.0" x2="152.9" y2="205.2"/>
<line x1="177.1" y1="217.4" x2="211.7" y2="197.4"/>
<line x1="180.1" y1="222.6" x2="214.7" y2="202.6"/>
<line x1="213.2" y1="160.0" x2="187.6" y2="145.2"/>
<line x1="213.2" y1="160.0" x2="213.2" y2="200.0"/>
<line x1="74.6" y1="560.0" x2="49.0" y2="574.8"/>
<line x1="76.1" y1="557.4" x2="110.8" y2="577.4"/>
<line x1="73.1" y1="562.6" x2="107.8" y2="582.6"/>
<line x1="109.3" y1="620.0" x2="83.6" y2="634.8"/>
<line x1="110.8" y1="617.4" x2="145.4" y2="637.4"/>
<line x1="107.8" y1="622.6" x2="142.4" y2="642.6"/>
<line x1="109.3" y1="620.0" x2="109.3" y2="580.0"/>
<line x1="143.9" y1="640.0" x2="169.6" y2="625.2"/>
<line x1="143.9" y1="640.0" x2="143.9" y2="680.0"/>
<line x1="109.3" y1="740.0" x2="143.9" y2="760.0"/>
<line x1="143.9" y1="760.0" x2="178.6" y2="740.0"/>
<line x1="178.6" y1="740.0" x2="178.6" y2="700.0"/>
<line x1="178.6" y1="700.0" x2="143.9" y2="680.0"/>
<line x1="143.9" y1="680.0" x2="109.3" y2="700.0"/>
<line x1="142.3" y1="689.2" x2="118.1" y2="703.2"/>
<line x1="109.3" y1="700.0" x2="109.3" y2="740.0"/>
<text x="415.051178" y="48.320000" fill="rgb(102,102,102)"  stroke="rgb(102,102,102)" stroke-width="1" font-size="16" >CH</text>
<text x="439.051178" y="56.000000" fill="rgb(102,102,102)"  stroke="rgb(102,102,102)" stroke-width="1" font-size="13" >3</text>
<text x="449.692194" y="104.800000" fill="rgb(102,102,102)"  stroke="rgb(102,102,102)" stroke-width="1" font-size="16" >CH</text>
<text x="473.692194" y="109.600000" fill="rgb(102,102,102)"  stroke="rgb(102,102,102)" stroke-width="1" font-size="13" >3</text>
<text x="172.564065" y="344.800000" fill="rgb(102,102,102)"  stroke="rgb(102,102,102)" stroke-width="1" font-size="16" >CH</text>
<text x="196.564065" y="349.600000" fill="rgb(102,102,102)"  stroke="rgb(102,102,102)" stroke-width="1" font-size="13" >3</text>
<text x="51.041016" y="448.320000" fill="rgb(102,102,102)"  stroke="rgb(102,102,102)" stroke-width="1" font-size="16" >H</text>
<text x="63.041016" y="456.000000" fill="rgb(102,102,102)"  stroke="rgb(102,102,102)" stroke-width="1" font-size="13" >3</text>
<text x="69.541016" y="448.320000" fill="rgb(102,102,102)"  stroke="rgb(102,102,102)" stroke-width="1" font-size="16" >C</text>
<text x="311.128129" y="108.320000" fill="rgb(102,102,102)"  stroke="rgb(102,102,102)" stroke-width="1" font-size="16" >CH</text>
<text x="335.128129" y="116.000000" fill="rgb(102,102,102)"  stroke="rgb(102,102,102)" stroke-width="1" font-size="13" >3</text>
<text x="241.846097" y="224.800000" fill="rgb(102,102,102)"  stroke="rgb(102,102,102)" stroke-width="1" font-size="16" >CH</text>
<text x="265.846097" y="229.600000" fill="rgb(102,102,102)"  stroke="rgb(102,102,102)" stroke-width="1" font-size="13" >3</text>
<text x="137.923048" y="568.320000" fill="rgb(102,102,102)"  stroke="rgb(102,102,102)" stroke-width="1" font-size="16" >CH</text>
<text x="161.923048" y="576.000000" fill="rgb(102,102,102)"  stroke="rgb(102,102,102)" stroke-width="1" font-size="13" >3</text>
<text x="51.041016" y="688.320000" fill="rgb(102,102,102)"  stroke="rgb(102,102,102)" stroke-width="1" font-size="16" >H</text>
<text x="63.041016" y="696.000000" fill="rgb(102,102,102)"  stroke="rgb(102,102,102)" stroke-width="1" font-size="13" >3</text>
<text x="69.541016" y="688.320000" fill="rgb(102,102,102)"  stroke="rgb(102,102,102)" stroke-width="1" font-size="16" >C</text>
<text x="212.564065" y="708.320000" fill="rgb(102,102,102)"  stroke="rgb(102,102,102)" stroke-width="1" font-size="16" >CH</text>
<text x="236.564065" y="716.000000" fill="rgb(102,102,102)"  stroke="rgb(102,102,102)" stroke-width="1" font-size="13" >3</text>
<text x="192.564065" y="673.678984" fill="rgb(102,102,102)"  stroke="rgb(102,102,102)" stroke-width="1" font-size="16" >CH</text>
<text x="216.564065" y="681.358984" fill="rgb(102,102,102)"  stroke="rgb(102,102,102)" stroke-width="1" font-size="13" >3</text>
<text x="71.041016" y="404.800000" fill="rgb(191,191,191)"  stroke="rgb(191,191,191)" stroke-width="1" font-size="16" >H</text>
<text x="172.564065" y="388.320000" fill="rgb(191,191,191)"  stroke="rgb(191,191,191)" stroke-width="1" font-size="16" >H</text>
<text x="207.205081" y="284.800000" fill="rgb(191,191,191)"  stroke="rgb(191,191,191)" stroke-width="1" font-size="16" >H</text>
<text x="241.846097" y="108.320000" fill="rgb(191,191,191)"  stroke="rgb(191,191,191)" stroke-width="1" font-size="16" >H</text>
<text x="36.400000" y="508.320000" fill="rgb(191,191,191)"  stroke="rgb(191,191,191)" stroke-width="1" font-size="16" >H</text>
<text x="71.041016" y="328.320000" fill="rgb(191,191,191)"  stroke="rgb(191,191,191)" stroke-width="1" font-size="16" >H</text>
<text x="172.564065" y="464.800000" fill="rgb(191,191,191)"  stroke="rgb(191,191,191)" stroke-width="1" font-size="16" >H</text>
<text x="105.682032" y="268.320000" fill="rgb(191,191,191)"  stroke="rgb(191,191,191)" stroke-width="1" font-size="16" >H</text>
<text x="137.923048" y="524.800000" fill="rgb(191,191,191)"  stroke="rgb(191,191,191)" stroke-width="1" font-size="16" >H</text>
<text x="276.487113" y="204.800000" fill="rgb(191,191,191)"  stroke="rgb(191,191,191)" stroke-width="1" font-size="16" >H</text>
<text x="140.323048" y="208.320000" fill="rgb(191,191,191)"  stroke="rgb(191,191,191)" stroke-width="1" font-size="16" >H</text>
<text x="174.964065" y="148.320000" fill="rgb(191,191,191)"  stroke="rgb(191,191,191)" stroke-width="1" font-size="16" >H</text>
<text x="36.400000" y="584.800000" fill="rgb(191,191,191)"  stroke="rgb(191,191,191)" stroke-width="1" font-size="16" >H</text>
<text x="71.041016" y="644.800000" fill="rgb(191,191,191)"  stroke="rgb(191,191,191)" stroke-width="1" font-size="16" >H</text>
<text x="172.564065" y="628.320000" fill="rgb(191,191,191)"  stroke="rgb(191,191,191)" stroke-width="1" font-size="16" >H</text>
<text font-size="18.000000" fill ="black" font-family="sans-serif"
x="140.000000" y="20.000000" ></text>
<title> - OBDepict</title>
</svg>
