<?xml version="1.0"?>
<svg xmlns="http://www.w3.org/2000/svg"
xmlns:xlink="http://www.w3.org/1999/xlink" xmlns:cml="http://www.xml-cml.org/schema" width="738.179" height="260" x="0" y="0" font-family="sans-serif" stroke="rgb(0,0,0)" stroke-width="1" >
<line x1="40.0" y1="129.6" x2="40.0" y2="100.0"/>
<line x1="40.0" y1="100.0" x2="74.6" y2="80.0"/>
<line x1="74.6" y1="80.0" x2="109.3" y2="100.0"/>
<line x1="109.3" y1="100.0" x2="143.9" y2="80.0"/>
<line x1="143.9" y1="80.0" x2="178.6" y2="100.0"/>
<line x1="178.6" y1="100.0" x2="213.2" y2="80.0"/>
<line x1="213.2" y1="80.0" x2="247.8" y2="100.0"/>
<line x1="247.8" y1="100.0" x2="282.5" y2="80.0"/>
<line x1="282.5" y1="80.0" x2="282.5" y2="50.4"/>
<line x1="284.0" y1="77.4" x2="318.6" y2="97.4"/>
<line x1="281.0" y1="82.6" x2="315.6" y2="102.6"/>
<line x1="317.1" y1="100.0" x2="342.8" y2="85.2"/>
<line x1="317.1" y1="100.0" x2="317.1" y2="140.0"/>
<line x1="317.1" y1="140.0" x2="351.8" y2="160.0"/>
<line x1="351.8" y1="160.0" x2="386.4" y2="140.0"/>
<line x1="386.4" y1="140.0" x2="421.1" y2="160.0"/>
<line x1="421.1" y1="160.0" x2="455.7" y2="140.0"/>
<line x1="455.7" y1="140.0" x2="490.3" y2="160.0"/>
<line x1="490.3" y1="160.0" x2="525.0" y2="140.0"/>
<line x1="525.0" y1="140.0" x2="559.6" y2="160.0"/>
<line x1="628.9" y1="200.0" x2="628.9" y2="160.0"/>
<line x1="628.9" y1="200.0" x2="654.5" y2="214.8"/>
<line x1="663.5" y1="140.0" x2="628.9" y2="160.0"/>
<line x1="663.5" y1="140.0" x2="689.2" y2="154.8"/>
<line x1="628.9" y1="160.0" x2="603.3" y2="145.2"/>
<line x1="562.6" y1="160.0" x2="562.6" y2="189.6"/>
<line x1="556.6" y1="160.0" x2="556.6" y2="189.6"/>
<line x1="559.6" y1="160.0" x2="585.2" y2="145.2"/>
<text x="34.000000" y="144.800000" fill="rgb(102,102,102)"  stroke="rgb(102,102,102)" stroke-width="1" font-size="16" >CH</text>
<text x="58.000000" y="149.600000" fill="rgb(102,102,102)"  stroke="rgb(102,102,102)" stroke-width="1" font-size="13" >3</text>
<text x="657.538291" y="224.800000" fill="rgb(255,12,12)"  stroke="rgb(255,12,12)" stroke-width="1" font-size="16" >OH</text>
<text x="692.179307" y="164.800000" fill="rgb(255,12,12)"  stroke="rgb(255,12,12)" stroke-width="1" font-size="16" >OH</text>
<text x="553.615242" y="204.800000" fill="rgb(255,12,12)"  stroke="rgb(255,12,12)" stroke-width="1" font-size="16" >O</text>
<text x="588.256258" y="148.320000" fill="rgb(255,12,12)"  stroke="rgb(255,12,12)" stroke-width="1" font-size="16" >O</text>
<text x="276.487113" y="48.320000" fill="rgb(191,191,191)"  stroke="rgb(191,191,191)" stroke-width="1" font-size="16" >H</text>
<text x="345.769145" y="88.320000" fill="rgb(191,191,191)"  stroke="rgb(191,191,191)" stroke-width="1" font-size="16" >H</text>
<text font-size="18.000000" fill ="black" font-family="sans-serif"
x="140.000000" y="20.000000" ></text>
<title> - OBDepict</title>
</svg>
