<?xml version="1.0"?>
<svg xmlns="http://www.w3.org/2000/svg"
xmlns:xlink="http://www.w3.org/1999/xlink" xmlns:cml="http://www.xml-cml.org/schema" width="684.134" height="526.276" x="0" y="0" font-family="sans-serif" stroke="rgb(0,0,0)" stroke-width="1" >
<line x1="443.1" y1="288.2" x2="418.7" y2="274.1"/>
<line x1="49.9" y1="302.1" x2="78.1" y2="302.1"/>
<line x1="324.4" y1="197.9" x2="352.6" y2="197.9"/>
<line x1="435.4" y1="172.3" x2="463.7" y2="172.3"/>
<line x1="226.2" y1="86.4" x2="218.9" y2="113.7"/>
<line x1="120.0" y1="354.2" x2="100.9" y2="387.2"/>
<line x1="120.0" y1="354.2" x2="158.2" y2="354.2"/>
<line x1="100.9" y1="387.2" x2="120.0" y2="420.2"/>
<line x1="158.2" y1="354.2" x2="177.2" y2="321.1"/>
<line x1="309.3" y1="321.1" x2="276.3" y2="340.2"/>
<line x1="309.3" y1="321.1" x2="342.4" y2="340.2"/>
<line x1="276.3" y1="340.2" x2="243.3" y2="321.1"/>
<line x1="625.1" y1="101.2" x2="586.9" y2="101.2"/>
<line x1="625.1" y1="101.2" x2="639.2" y2="125.6"/>
<line x1="373.5" y1="67.0" x2="336.7" y2="76.8"/>
<line x1="373.5" y1="67.0" x2="393.5" y2="86.9"/>
<line x1="430.5" y1="252.8" x2="431.2" y2="253.2"/>
<line x1="428.3" y1="255.9" x2="429.6" y2="256.7"/>
<line x1="426.0" y1="259.0" x2="428.1" y2="260.2"/>
<line x1="423.8" y1="262.1" x2="426.5" y2="263.7"/>
<line x1="421.5" y1="265.2" x2="425.0" y2="267.2"/>
<line x1="419.2" y1="268.3" x2="423.4" y2="270.7"/>
<line x1="417.0" y1="271.4" x2="421.8" y2="274.2"/>
<line x1="418.7" y1="274.1" x2="399.6" y2="307.2"/>
<line x1="418.7" y1="274.1" x2="394.2" y2="260.0"/>
<polygon points="65.362791 324.187067 81.603636 304.057097 74.675433 300.057097 " />
<line x1="78.1" y1="302.1" x2="78.1" y2="263.9"/>
<line x1="78.1" y1="302.1" x2="102.6" y2="316.2"/>
<line x1="352.6" y1="197.9" x2="338.5" y2="222.3"/>
<line x1="352.6" y1="197.9" x2="385.6" y2="216.9"/>
<line x1="352.6" y1="197.9" x2="352.6" y2="169.6"/>
<line x1="461.1" y1="170.8" x2="475.2" y2="146.4"/>
<line x1="466.3" y1="173.8" x2="480.4" y2="149.4"/>
<line x1="463.7" y1="172.3" x2="477.8" y2="196.8"/>
<line x1="221.0" y1="111.6" x2="241.0" y2="131.5"/>
<line x1="216.8" y1="115.8" x2="236.8" y2="135.8"/>
<line x1="218.9" y1="113.7" x2="191.7" y2="121.0"/>
<line x1="120.0" y1="420.2" x2="144.5" y2="434.3"/>
<line x1="120.0" y1="420.2" x2="100.9" y2="453.2"/>
<line x1="120.0" y1="420.2" x2="144.5" y2="406.1"/>
<line x1="189.1" y1="299.8" x2="189.8" y2="300.2"/>
<line x1="186.8" y1="302.9" x2="188.2" y2="303.7"/>
<line x1="184.6" y1="306.0" x2="186.7" y2="307.2"/>
<line x1="182.3" y1="309.1" x2="185.1" y2="310.7"/>
<line x1="180.1" y1="312.2" x2="183.5" y2="314.2"/>
<line x1="177.8" y1="315.3" x2="182.0" y2="317.7"/>
<line x1="175.6" y1="318.4" x2="180.4" y2="321.2"/>
<line x1="177.2" y1="321.1" x2="144.2" y2="302.1"/>
<line x1="177.2" y1="321.1" x2="201.7" y2="335.2"/>
<line x1="363.7" y1="352.1" x2="363.3" y2="352.7"/>
<line x1="360.6" y1="349.8" x2="359.8" y2="351.2"/>
<line x1="357.5" y1="347.5" x2="356.3" y2="349.6"/>
<line x1="354.4" y1="345.3" x2="352.8" y2="348.1"/>
<line x1="351.3" y1="343.0" x2="349.3" y2="346.5"/>
<line x1="348.2" y1="340.8" x2="345.8" y2="344.9"/>
<line x1="345.1" y1="338.5" x2="342.3" y2="343.4"/>
<line x1="342.4" y1="340.2" x2="323.3" y2="373.2"/>
<line x1="342.4" y1="340.2" x2="356.5" y2="315.8"/>
<polygon points="599.701286 79.033725 583.460440 99.163695 590.388643 103.163695 " />
<polygon points="343.278850 52.157187 332.801418 75.804686 340.528824 77.875238 " />
<line x1="244.8" y1="323.7" x2="220.3" y2="337.8"/>
<line x1="241.8" y1="318.5" x2="217.3" y2="332.6"/>
<line x1="243.3" y1="321.1" x2="243.3" y2="292.9"/>
<line x1="509.0" y1="160.6" x2="508.3" y2="160.2"/>
<line x1="511.3" y1="157.5" x2="509.9" y2="156.7"/>
<line x1="513.5" y1="154.4" x2="511.4" y2="153.2"/>
<line x1="515.8" y1="151.3" x2="513.0" y2="149.7"/>
<line x1="518.0" y1="148.2" x2="514.6" y2="146.2"/>
<line x1="520.3" y1="145.1" x2="516.1" y2="142.7"/>
<line x1="522.5" y1="142.0" x2="517.7" y2="139.2"/>
<line x1="520.9" y1="139.3" x2="492.6" y2="139.3"/>
<line x1="270.5" y1="178.0" x2="269.7" y2="177.8"/>
<line x1="272.8" y1="170.8" x2="271.3" y2="170.4"/>
<line x1="275.2" y1="163.5" x2="272.9" y2="162.9"/>
<line x1="277.6" y1="156.2" x2="274.5" y2="155.4"/>
<line x1="279.9" y1="149.0" x2="276.1" y2="147.9"/>
<line x1="282.3" y1="141.7" x2="277.6" y2="140.5"/>
<line x1="284.6" y1="134.4" x2="279.2" y2="133.0"/>
<line x1="282.7" y1="130.8" x2="255.5" y2="138.1"/>
<line x1="611.3" y1="138.9" x2="611.3" y2="139.7"/>
<line x1="607.5" y1="138.5" x2="607.5" y2="140.1"/>
<line x1="603.7" y1="138.1" x2="603.7" y2="140.5"/>
<line x1="599.9" y1="137.7" x2="599.9" y2="140.9"/>
<line x1="596.1" y1="137.3" x2="596.1" y2="141.3"/>
<line x1="592.3" y1="136.9" x2="592.3" y2="141.7"/>
<line x1="588.5" y1="136.5" x2="588.5" y2="142.1"/>
<line x1="586.9" y1="139.3" x2="601.0" y2="163.7"/>
<polygon points="566.671480 180.502968 557.358837 156.372998 550.430634 160.372998 " />
<line x1="553.9" y1="158.4" x2="539.8" y2="182.8"/>
<line x1="370.0" y1="107.0" x2="370.2" y2="107.7"/>
<line x1="366.2" y1="107.6" x2="366.6" y2="109.1"/>
<line x1="362.4" y1="108.2" x2="363.1" y2="110.5"/>
<line x1="358.6" y1="108.8" x2="359.5" y2="111.9"/>
<line x1="354.9" y1="109.4" x2="355.9" y2="113.2"/>
<line x1="351.1" y1="110.0" x2="352.3" y2="114.6"/>
<line x1="347.3" y1="110.6" x2="348.7" y2="116.0"/>
<line x1="346.5" y1="113.7" x2="366.5" y2="133.6"/>
<polygon points="299.294690 156.204625 322.002681 143.822061 317.132589 137.475234 " />
<line x1="319.6" y1="140.6" x2="344.0" y2="154.8"/>
<line x1="399.6" y1="310.2" x2="371.4" y2="310.2"/>
<line x1="399.6" y1="304.2" x2="371.4" y2="304.2"/>
<line x1="399.6" y1="307.2" x2="413.7" y2="331.6"/>
<line x1="388.6" y1="216.9" x2="388.6" y2="245.2"/>
<line x1="382.6" y1="216.9" x2="382.6" y2="245.2"/>
<line x1="385.6" y1="216.9" x2="410.1" y2="202.8"/>
<line x1="145.7" y1="304.7" x2="121.3" y2="318.8"/>
<line x1="142.7" y1="299.5" x2="118.3" y2="313.6"/>
<line x1="144.2" y1="302.1" x2="144.2" y2="273.8"/>
<line x1="76.6" y1="261.3" x2="101.1" y2="247.2"/>
<line x1="79.6" y1="266.5" x2="104.1" y2="252.4"/>
<line x1="78.1" y1="263.9" x2="53.7" y2="249.8"/>
<line x1="100.9" y1="456.2" x2="72.7" y2="456.2"/>
<line x1="100.9" y1="450.2" x2="72.7" y2="450.2"/>
<line x1="100.9" y1="453.2" x2="115.1" y2="477.7"/>
<line x1="323.3" y1="376.2" x2="295.1" y2="376.2"/>
<line x1="323.3" y1="370.2" x2="295.1" y2="370.2"/>
<line x1="323.3" y1="373.2" x2="337.4" y2="397.7"/>
<line x1="249.4" y1="100.6" x2="249.2" y2="99.9"/>
<line x1="253.2" y1="100.0" x2="252.8" y2="98.5"/>
<line x1="257.0" y1="99.4" x2="256.3" y2="97.1"/>
<line x1="260.7" y1="98.8" x2="259.9" y2="95.7"/>
<line x1="264.5" y1="98.2" x2="263.5" y2="94.4"/>
<line x1="268.3" y1="97.6" x2="267.1" y2="93.0"/>
<line x1="272.1" y1="97.0" x2="270.7" y2="91.6"/>
<line x1="272.9" y1="93.9" x2="252.9" y2="74.0"/>
<polygon points="524.200329 75.828821 516.899150 100.641590 524.830709 101.685800 " />
<line x1="520.9" y1="101.2" x2="411.8" y2="130.4"/>
<line x1="520.9" y1="139.3" x2="520.9" y2="101.2"/>
<line x1="520.9" y1="101.2" x2="545.3" y2="87.1"/>
<line x1="562.5" y1="87.1" x2="586.9" y2="101.2"/>
<line x1="586.9" y1="101.2" x2="586.9" y2="139.3"/>
<line x1="586.9" y1="139.3" x2="553.9" y2="158.4"/>
<line x1="553.9" y1="158.4" x2="520.9" y2="139.3"/>
<line x1="282.7" y1="130.8" x2="319.6" y2="140.6"/>
<line x1="319.6" y1="140.6" x2="346.5" y2="113.7"/>
<line x1="346.5" y1="113.7" x2="336.7" y2="76.8"/>
<line x1="336.7" y1="76.8" x2="309.4" y2="69.5"/>
<line x1="292.8" y1="74.0" x2="272.9" y2="93.9"/>
<line x1="272.9" y1="93.9" x2="282.7" y2="130.8"/>
<text x="445.686860" y="298.006787" fill="rgb(102,102,102)"  stroke="rgb(102,102,102)" stroke-width="1" font-size="16" >CH</text>
<text x="469.686860" y="302.806787" fill="rgb(102,102,102)"  stroke="rgb(102,102,102)" stroke-width="1" font-size="13" >3</text>
<text x="16.400000" y="310.377097" fill="rgb(102,102,102)"  stroke="rgb(102,102,102)" stroke-width="1" font-size="16" >H</text>
<text x="28.400000" y="318.057097" fill="rgb(102,102,102)"  stroke="rgb(102,102,102)" stroke-width="1" font-size="13" >3</text>
<text x="34.900000" y="310.377097" fill="rgb(102,102,102)"  stroke="rgb(102,102,102)" stroke-width="1" font-size="16" >C</text>
<text x="290.857906" y="206.177950" fill="rgb(102,102,102)"  stroke="rgb(102,102,102)" stroke-width="1" font-size="16" >H</text>
<text x="302.857906" y="213.857950" fill="rgb(102,102,102)"  stroke="rgb(102,102,102)" stroke-width="1" font-size="13" >3</text>
<text x="309.357906" y="206.177950" fill="rgb(102,102,102)"  stroke="rgb(102,102,102)" stroke-width="1" font-size="16" >C</text>
<text x="401.916092" y="177.133036" fill="rgb(102,102,102)"  stroke="rgb(102,102,102)" stroke-width="1" font-size="16" >H</text>
<text x="413.916092" y="181.933036" fill="rgb(102,102,102)"  stroke="rgb(102,102,102)" stroke-width="1" font-size="13" >3</text>
<text x="420.416092" y="177.133036" fill="rgb(102,102,102)"  stroke="rgb(102,102,102)" stroke-width="1" font-size="16" >C</text>
<text x="222.790226" y="85.159962" fill="rgb(102,102,102)"  stroke="rgb(102,102,102)" stroke-width="1" font-size="16" >CH</text>
<text x="246.790226" y="92.839962" fill="rgb(102,102,102)"  stroke="rgb(102,102,102)" stroke-width="1" font-size="13" >3</text>
<text x="147.049457" y="409.466515" fill="rgb(12,12,255)"  stroke="rgb(12,12,255)" stroke-width="1" font-size="16" >NH</text>
<text x="171.049457" y="417.146515" fill="rgb(12,12,255)"  stroke="rgb(12,12,255)" stroke-width="1" font-size="13" >2</text>
<text x="382.027247" y="259.867252" fill="rgb(12,12,255)"  stroke="rgb(12,12,255)" stroke-width="1" font-size="16" >N</text>
<text x="105.169341" y="325.926864" fill="rgb(12,12,255)"  stroke="rgb(12,12,255)" stroke-width="1" font-size="16" >N</text>
<text x="479.125395" y="147.623230" fill="rgb(12,12,255)"  stroke="rgb(12,12,255)" stroke-width="1" font-size="16" >N</text>
<text x="242.287712" y="145.448647" fill="rgb(12,12,255)"  stroke="rgb(12,12,255)" stroke-width="1" font-size="16" >N</text>
<text x="204.258759" y="344.996632" fill="rgb(12,12,255)"  stroke="rgb(12,12,255)" stroke-width="1" font-size="16" >N</text>
<text x="357.847751" y="315.486825" fill="rgb(12,12,255)"  stroke="rgb(12,12,255)" stroke-width="1" font-size="16" >N</text>
<text x="638.133844" y="138.993501" fill="rgb(255,12,12)"  stroke="rgb(255,12,12)" stroke-width="1" font-size="16" >OH</text>
<text x="394.473806" y="98.737447" fill="rgb(255,12,12)"  stroke="rgb(255,12,12)" stroke-width="1" font-size="16" >OH</text>
<text x="476.725395" y="210.162842" fill="rgb(255,12,12)"  stroke="rgb(255,12,12)" stroke-width="1" font-size="16" >OH</text>
<text x="166.479026" y="128.351161" fill="rgb(255,12,12)"  stroke="rgb(255,12,12)" stroke-width="1" font-size="16" >HO</text>
<text x="237.288565" y="291.307329" fill="rgb(255,12,12)"  stroke="rgb(255,12,12)" stroke-width="1" font-size="16" >OH</text>
<text x="599.994309" y="177.133036" fill="rgb(255,12,12)"  stroke="rgb(255,12,12)" stroke-width="1" font-size="16" >OH</text>
<text x="519.224968" y="196.202804" fill="rgb(255,12,12)"  stroke="rgb(255,12,12)" stroke-width="1" font-size="16" >HO</text>
<text x="412.657053" y="344.996632" fill="rgb(255,12,12)"  stroke="rgb(255,12,12)" stroke-width="1" font-size="16" >OH</text>
<text x="412.657053" y="206.177950" fill="rgb(255,12,12)"  stroke="rgb(255,12,12)" stroke-width="1" font-size="16" >OH</text>
<text x="138.199147" y="272.237562" fill="rgb(255,12,12)"  stroke="rgb(255,12,12)" stroke-width="1" font-size="16" >OH</text>
<text x="105.169341" y="253.167794" fill="rgb(255,12,12)"  stroke="rgb(255,12,12)" stroke-width="1" font-size="16" >O</text>
<text x="29.509729" y="253.167794" fill="rgb(255,12,12)"  stroke="rgb(255,12,12)" stroke-width="1" font-size="16" >HO</text>
<text x="59.210349" y="458.046088" fill="rgb(255,12,12)"  stroke="rgb(255,12,12)" stroke-width="1" font-size="16" >O</text>
<text x="114.019651" y="491.075895" fill="rgb(255,12,12)"  stroke="rgb(255,12,12)" stroke-width="1" font-size="16" >OH</text>
<text x="281.568681" y="381.546438" fill="rgb(255,12,12)"  stroke="rgb(255,12,12)" stroke-width="1" font-size="16" >O</text>
<text x="336.377984" y="411.056244" fill="rgb(255,12,12)"  stroke="rgb(255,12,12)" stroke-width="1" font-size="16" >OH</text>
<text x="230.287712" y="75.288724" fill="rgb(255,12,12)"  stroke="rgb(255,12,12)" stroke-width="1" font-size="16" >HO</text>
<text x="346.597441" y="168.038415" fill="rgb(255,12,12)"  stroke="rgb(255,12,12)" stroke-width="1" font-size="16" >O</text>
<text x="296.225159" y="75.288724" fill="rgb(255,12,12)"  stroke="rgb(255,12,12)" stroke-width="1" font-size="16" >O</text>
<text x="547.894736" y="90.413928" fill="rgb(255,12,12)"  stroke="rgb(255,12,12)" stroke-width="1" font-size="16" >O</text>
<text x="369.905083" y="145.448647" fill="rgb(255,12,12)"  stroke="rgb(255,12,12)" stroke-width="1" font-size="16" >O</text>
<text x="431.726821" y="249.427213" fill="rgb(191,191,191)"  stroke="rgb(191,191,191)" stroke-width="1" font-size="16" >H</text>
<text x="55.469767" y="339.886903" fill="rgb(191,191,191)"  stroke="rgb(191,191,191)" stroke-width="1" font-size="16" >H</text>
<text x="329.927674" y="235.687756" fill="rgb(191,191,191)"  stroke="rgb(191,191,191)" stroke-width="1" font-size="16" >H</text>
<text x="147.049457" y="444.086050" fill="rgb(191,191,191)"  stroke="rgb(191,191,191)" stroke-width="1" font-size="16" >H</text>
<text x="190.298721" y="296.417058" fill="rgb(191,191,191)"  stroke="rgb(191,191,191)" stroke-width="1" font-size="16" >H</text>
<text x="369.407790" y="364.066399" fill="rgb(191,191,191)"  stroke="rgb(191,191,191)" stroke-width="1" font-size="16" >H</text>
<text x="599.994309" y="76.453889" fill="rgb(191,191,191)"  stroke="rgb(191,191,191)" stroke-width="1" font-size="16" >H</text>
<text x="340.536359" y="48.320000" fill="rgb(191,191,191)"  stroke="rgb(191,191,191)" stroke-width="1" font-size="16" >H</text>
<text x="498.195162" y="177.133036" fill="rgb(191,191,191)"  stroke="rgb(191,191,191)" stroke-width="1" font-size="16" >H</text>
<text x="259.385197" y="209.257333" fill="rgb(191,191,191)"  stroke="rgb(191,191,191)" stroke-width="1" font-size="16" >H</text>
<text x="619.064077" y="147.623230" fill="rgb(191,191,191)"  stroke="rgb(191,191,191)" stroke-width="1" font-size="16" >H</text>
<text x="566.964503" y="196.202804" fill="rgb(191,191,191)"  stroke="rgb(191,191,191)" stroke-width="1" font-size="16" >H</text>
<text x="377.376321" y="112.128685" fill="rgb(191,191,191)"  stroke="rgb(191,191,191)" stroke-width="1" font-size="16" >H</text>
<text x="285.709508" y="168.666525" fill="rgb(191,191,191)"  stroke="rgb(191,191,191)" stroke-width="1" font-size="16" >H</text>
<text x="232.416474" y="108.608685" fill="rgb(191,191,191)"  stroke="rgb(191,191,191)" stroke-width="1" font-size="16" >H</text>
<text x="519.843138" y="71.670449" fill="rgb(191,191,191)"  stroke="rgb(191,191,191)" stroke-width="1" font-size="16" >H</text>
<text font-size="18.000000" fill ="black" font-family="sans-serif"
x="140.000000" y="20.000000" ></text>
<title> - OBDepict</title>
</svg>
