<?xml version="1.0"?>
<svg xmlns="http://www.w3.org/2000/svg"
xmlns:xlink="http://www.w3.org/1999/xlink" xmlns:cml="http://www.xml-cml.org/schema" width="324.791" height="348.261" x="0" y="0" font-family="sans-serif" stroke="rgb(0,0,0)" stroke-width="1" >
<line x1="187.4" y1="49.5" x2="199.4" y2="76.5"/>
<line x1="199.4" y1="76.5" x2="239.2" y2="80.7"/>
<line x1="239.2" y1="80.7" x2="255.5" y2="117.3"/>
<line x1="76.5" y1="150.9" x2="49.5" y2="138.8"/>
<line x1="76.5" y1="150.9" x2="108.9" y2="127.4"/>
<line x1="79.5" y1="150.6" x2="83.7" y2="190.3"/>
<line x1="73.6" y1="151.2" x2="77.7" y2="191.0"/>
<line x1="108.9" y1="127.4" x2="104.7" y2="87.6"/>
<line x1="255.5" y1="117.3" x2="232.0" y2="149.6"/>
<line x1="80.7" y1="190.7" x2="56.8" y2="208.1"/>
<line x1="80.7" y1="190.7" x2="117.3" y2="206.9"/>
<line x1="104.7" y1="87.6" x2="137.1" y2="64.1"/>
<line x1="232.0" y1="149.6" x2="248.2" y2="186.2"/>
<line x1="117.3" y1="206.9" x2="121.4" y2="246.7"/>
<line x1="137.1" y1="64.1" x2="173.6" y2="80.3"/>
<line x1="185.0" y1="214.3" x2="172.9" y2="187.3"/>
<line x1="185.3" y1="211.4" x2="225.1" y2="215.5"/>
<line x1="184.6" y1="217.3" x2="224.4" y2="221.5"/>
<line x1="185.0" y1="214.3" x2="161.4" y2="246.7"/>
<line x1="224.7" y1="218.5" x2="236.8" y2="245.6"/>
<line x1="224.7" y1="218.5" x2="248.2" y2="186.2"/>
<polygon points="269.931265 201.919918 250.600751 182.931205 245.898469 189.403341 " />
<line x1="248.2" y1="186.2" x2="275.3" y2="174.1"/>
<polygon points="96.962895 235.806952 119.818967 250.361676 123.072860 243.053312 " />
<line x1="110.0" y1="287.6" x2="81.9" y2="296.7"/>
<line x1="108.2" y1="281.9" x2="80.0" y2="291.0"/>
<line x1="171.9" y1="77.9" x2="195.8" y2="60.5"/>
<line x1="175.4" y1="82.8" x2="199.3" y2="65.4"/>
<line x1="173.6" y1="80.3" x2="176.7" y2="109.8"/>
<line x1="173.8" y1="284.7" x2="141.4" y2="308.3"/>
<line x1="141.4" y1="308.3" x2="109.1" y2="284.7"/>
<line x1="109.1" y1="284.7" x2="121.4" y2="246.7"/>
<line x1="121.4" y1="246.7" x2="161.4" y2="246.7"/>
<line x1="161.4" y1="246.7" x2="173.8" y2="284.7"/>
<line x1="156.5" y1="254.6" x2="165.1" y2="281.3"/>
<text x="159.571747" y="48.320000" fill="rgb(102,102,102)"  stroke="rgb(102,102,102)" stroke-width="1" font-size="16" >H</text>
<text x="171.571747" y="56.000000" fill="rgb(102,102,102)"  stroke="rgb(102,102,102)" stroke-width="1" font-size="13" >3</text>
<text x="178.071747" y="48.320000" fill="rgb(102,102,102)"  stroke="rgb(102,102,102)" stroke-width="1" font-size="16" >C</text>
<text x="278.791428" y="178.217807" fill="rgb(255,12,12)"  stroke="rgb(255,12,12)" stroke-width="1" font-size="16" >OH</text>
<text x="67.442973" y="301.910435" fill="rgb(255,12,12)"  stroke="rgb(255,12,12)" stroke-width="1" font-size="16" >O</text>
<text x="199.984537" y="65.150637" fill="rgb(255,12,12)"  stroke="rgb(255,12,12)" stroke-width="1" font-size="16" >O</text>
<text x="171.804996" y="124.922922" fill="rgb(255,12,12)"  stroke="rgb(255,12,12)" stroke-width="1" font-size="16" >OH</text>
<text x="36.400000" y="142.926811" fill="rgb(191,191,191)"  stroke="rgb(191,191,191)" stroke-width="1" font-size="16" >H</text>
<text x="44.762277" y="218.968563" fill="rgb(191,191,191)"  stroke="rgb(191,191,191)" stroke-width="1" font-size="16" >H</text>
<text x="165.087858" y="186.124996" fill="rgb(191,191,191)"  stroke="rgb(191,191,191)" stroke-width="1" font-size="16" >H</text>
<text x="235.007665" y="259.869771" fill="rgb(191,191,191)"  stroke="rgb(191,191,191)" stroke-width="1" font-size="16" >H</text>
<text x="274.610289" y="214.478683" fill="rgb(191,191,191)"  stroke="rgb(191,191,191)" stroke-width="1" font-size="16" >H</text>
<text x="81.304095" y="238.758029" fill="rgb(191,191,191)"  stroke="rgb(191,191,191)" stroke-width="1" font-size="16" >H</text>
<text font-size="18.000000" fill ="black" font-family="sans-serif"
x="140.000000" y="20.000000" ></text>
<title> - OBDepict</title>
</svg>
