<?xml version="1.0"?>
<svg xmlns="http://www.w3.org/2000/svg"
xmlns:xlink="http://www.w3.org/1999/xlink" xmlns:cml="http://www.xml-cml.org/schema" width="480.254" height="466.212" x="0" y="0" font-family="sans-serif" stroke="rgb(0,0,0)" stroke-width="1" >
<line x1="433.3" y1="315.1" x2="409.4" y2="328.9"/>
<line x1="430.3" y1="309.9" x2="406.4" y2="323.7"/>
<line x1="179.3" y1="416.5" x2="179.3" y2="388.9"/>
<line x1="185.3" y1="416.5" x2="185.3" y2="388.9"/>
<line x1="414.0" y1="262.0" x2="385.2" y2="271.6"/>
<line x1="260.3" y1="408.7" x2="250.6" y2="379.8"/>
<line x1="335.7" y1="126.5" x2="313.0" y2="146.6"/>
<line x1="113.6" y1="254.9" x2="142.4" y2="245.3"/>
<line x1="407.9" y1="326.3" x2="375.6" y2="307.6"/>
<line x1="182.3" y1="388.9" x2="214.6" y2="370.2"/>
<line x1="258.3" y1="104.7" x2="220.9" y2="104.7"/>
<line x1="258.3" y1="104.7" x2="276.9" y2="137.0"/>
<line x1="133.3" y1="176.9" x2="96.0" y2="176.9"/>
<line x1="133.3" y1="176.9" x2="152.0" y2="209.2"/>
<line x1="220.9" y1="104.7" x2="202.2" y2="72.3"/>
<line x1="96.0" y1="176.9" x2="77.3" y2="144.6"/>
<line x1="349.1" y1="209.1" x2="375.4" y2="193.9"/>
<line x1="313.1" y1="343.7" x2="328.3" y2="370.0"/>
<line x1="178.5" y1="307.7" x2="152.2" y2="322.9"/>
<line x1="214.5" y1="173.1" x2="199.3" y2="146.8"/>
<line x1="199.6" y1="70.8" x2="213.4" y2="46.9"/>
<line x1="204.8" y1="73.8" x2="218.6" y2="49.9"/>
<line x1="202.2" y1="72.3" x2="174.6" y2="72.4"/>
<line x1="74.7" y1="143.1" x2="88.5" y2="119.2"/>
<line x1="79.9" y1="146.1" x2="93.7" y2="122.1"/>
<line x1="77.3" y1="144.6" x2="49.7" y2="144.6"/>
<line x1="178.4" y1="266.1" x2="142.4" y2="245.3"/>
<line x1="142.4" y1="245.3" x2="152.0" y2="209.2"/>
<line x1="150.9" y1="241.3" x2="157.4" y2="216.9"/>
<line x1="152.0" y1="209.2" x2="193.7" y2="209.2"/>
<line x1="193.7" y1="209.2" x2="209.1" y2="235.9"/>
<line x1="190.4" y1="218.0" x2="201.9" y2="237.9"/>
<line x1="205.1" y1="250.6" x2="178.4" y2="266.1"/>
<line x1="250.6" y1="379.8" x2="214.6" y2="370.2"/>
<line x1="214.6" y1="370.2" x2="214.6" y2="328.6"/>
<line x1="221.8" y1="364.2" x2="221.8" y2="334.6"/>
<line x1="214.6" y1="328.6" x2="241.2" y2="313.1"/>
<line x1="256.0" y1="317.1" x2="271.5" y2="343.8"/>
<line x1="271.5" y1="343.8" x2="250.6" y2="379.8"/>
<line x1="262.2" y1="345.4" x2="247.4" y2="371.1"/>
<line x1="313.0" y1="146.6" x2="276.9" y2="137.0"/>
<line x1="305.4" y1="152.0" x2="280.9" y2="145.5"/>
<line x1="276.9" y1="137.0" x2="256.1" y2="173.1"/>
<line x1="256.1" y1="173.1" x2="271.6" y2="199.8"/>
<line x1="286.4" y1="203.7" x2="313.1" y2="188.3"/>
<line x1="284.3" y1="196.6" x2="304.3" y2="185.0"/>
<line x1="313.1" y1="188.3" x2="313.0" y2="146.6"/>
<line x1="385.2" y1="271.6" x2="349.2" y2="250.8"/>
<line x1="349.2" y1="250.8" x2="322.5" y2="266.2"/>
<line x1="318.5" y1="281.0" x2="333.9" y2="307.7"/>
<line x1="333.9" y1="307.7" x2="375.6" y2="307.6"/>
<line x1="375.6" y1="307.6" x2="385.2" y2="271.6"/>
<line x1="370.2" y1="300.0" x2="376.7" y2="275.5"/>
<line x1="349.1" y1="209.1" x2="349.2" y2="250.8"/>
<line x1="341.9" y1="215.1" x2="342.0" y2="244.8"/>
<line x1="333.9" y1="307.7" x2="313.1" y2="343.7"/>
<line x1="324.7" y1="309.3" x2="309.9" y2="335.0"/>
<line x1="313.1" y1="343.7" x2="271.5" y2="343.8"/>
<line x1="214.6" y1="328.6" x2="178.5" y2="307.7"/>
<line x1="178.5" y1="307.7" x2="178.4" y2="266.1"/>
<line x1="185.7" y1="301.7" x2="185.6" y2="272.1"/>
<line x1="193.7" y1="209.2" x2="214.5" y2="173.1"/>
<line x1="214.5" y1="173.1" x2="256.1" y2="173.1"/>
<line x1="220.5" y1="180.3" x2="250.1" y2="180.3"/>
<line x1="313.1" y1="188.3" x2="349.1" y2="209.1"/>
<text x="434.253999" y="315.934045" fill="rgb(102,102,102)"  stroke="rgb(102,102,102)" stroke-width="1" font-size="16" >CH</text>
<text x="458.253999" y="323.614045" fill="rgb(102,102,102)"  stroke="rgb(102,102,102)" stroke-width="1" font-size="13" >2</text>
<text x="176.283749" y="431.011907" fill="rgb(102,102,102)"  stroke="rgb(102,102,102)" stroke-width="1" font-size="16" >CH</text>
<text x="200.283749" y="435.811907" fill="rgb(102,102,102)"  stroke="rgb(102,102,102)" stroke-width="1" font-size="13" >2</text>
<text x="418.165352" y="266.909404" fill="rgb(102,102,102)"  stroke="rgb(102,102,102)" stroke-width="1" font-size="16" >CH</text>
<text x="442.165352" y="274.589404" fill="rgb(102,102,102)"  stroke="rgb(102,102,102)" stroke-width="1" font-size="13" >3</text>
<text x="257.626463" y="423.578486" fill="rgb(102,102,102)"  stroke="rgb(102,102,102)" stroke-width="1" font-size="16" >CH</text>
<text x="281.626463" y="428.378486" fill="rgb(102,102,102)"  stroke="rgb(102,102,102)" stroke-width="1" font-size="13" >3</text>
<text x="337.705354" y="127.697270" fill="rgb(102,102,102)"  stroke="rgb(102,102,102)" stroke-width="1" font-size="16" >CH</text>
<text x="361.705354" y="135.377270" fill="rgb(102,102,102)"  stroke="rgb(102,102,102)" stroke-width="1" font-size="13" >3</text>
<text x="79.840578" y="263.038531" fill="rgb(102,102,102)"  stroke="rgb(102,102,102)" stroke-width="1" font-size="16" >H</text>
<text x="91.840578" y="267.838531" fill="rgb(102,102,102)"  stroke="rgb(102,102,102)" stroke-width="1" font-size="13" >3</text>
<text x="98.340578" y="263.038531" fill="rgb(102,102,102)"  stroke="rgb(102,102,102)" stroke-width="1" font-size="16" >C</text>
<text x="308.283726" y="265.210177" fill="rgb(12,12,255)"  stroke="rgb(12,12,255)" stroke-width="1" font-size="32" >-</text>
<text x="309.483726" y="279.930177" fill="rgb(12,12,255)"  stroke="rgb(12,12,255)" stroke-width="1" font-size="16" >N</text>
<text x="244.618751" y="316.032861" fill="rgb(12,12,255)"  stroke="rgb(12,12,255)" stroke-width="1" font-size="16" >NH</text>
<text x="273.371178" y="213.928135" fill="rgb(12,12,255)"  stroke="rgb(12,12,255)" stroke-width="1" font-size="16" >N</text>
<text x="208.506202" y="250.030819" fill="rgb(12,12,255)"  stroke="rgb(12,12,255)" stroke-width="1" font-size="16" >N</text>
<text x="214.886288" y="48.320000" fill="rgb(255,12,12)"  stroke="rgb(255,12,12)" stroke-width="1" font-size="16" >O</text>
<text x="160.088115" y="91.565087" fill="rgb(255,12,12)"  stroke="rgb(255,12,12)" stroke-width="1" font-size="32" >-</text>
<text x="161.288115" y="77.165087" fill="rgb(255,12,12)"  stroke="rgb(255,12,12)" stroke-width="1" font-size="16" >O</text>
<text x="89.977267" y="120.561580" fill="rgb(255,12,12)"  stroke="rgb(255,12,12)" stroke-width="1" font-size="16" >O</text>
<text x="24.400000" y="149.394584" fill="rgb(255,12,12)"  stroke="rgb(255,12,12)" stroke-width="1" font-size="16" >HO</text>
<text x="378.673308" y="196.910650" fill="rgb(191,191,191)"  stroke="rgb(191,191,191)" stroke-width="1" font-size="16" >H</text>
<text x="327.645239" y="384.075657" fill="rgb(191,191,191)"  stroke="rgb(191,191,191)" stroke-width="1" font-size="16" >H</text>
<text x="139.362998" y="333.091194" fill="rgb(191,191,191)"  stroke="rgb(191,191,191)" stroke-width="1" font-size="16" >H</text>
<text x="190.344690" y="145.885339" fill="rgb(191,191,191)"  stroke="rgb(191,191,191)" stroke-width="1" font-size="16" >H</text>
<text font-size="18.000000" fill ="black" font-family="sans-serif"
x="140.000000" y="20.000000" ></text>
<title> - OBDepict</title>
</svg>
