<?xml version="1.0"?>
<svg xmlns="http://www.w3.org/2000/svg"
xmlns:xlink="http://www.w3.org/1999/xlink" xmlns:cml="http://www.xml-cml.org/schema" width="221.818" height="252.484" x="0" y="0" font-family="sans-serif" stroke="rgb(0,0,0)" stroke-width="1" >
<line x1="91.3" y1="49.5" x2="86.6" y2="67.2"/>
<line x1="123.4" y1="200.4" x2="122.7" y2="200.8"/>
<line x1="121.9" y1="196.9" x2="120.5" y2="197.7"/>
<line x1="120.3" y1="193.5" x2="118.2" y2="194.7"/>
<line x1="118.8" y1="190.0" x2="116.0" y2="191.6"/>
<line x1="117.2" y1="186.5" x2="113.7" y2="188.5"/>
<line x1="115.6" y1="183.0" x2="111.5" y2="185.4"/>
<line x1="114.1" y1="179.5" x2="109.2" y2="182.3"/>
<line x1="110.9" y1="179.6" x2="96.8" y2="203.9"/>
<polygon points="65.270000 182.624246 81.464102 162.575239 74.535898 158.575239 " />
<line x1="78.0" y1="160.6" x2="49.9" y2="160.6"/>
<line x1="168.1" y1="160.2" x2="168.1" y2="161.0"/>
<line x1="164.3" y1="159.8" x2="164.3" y2="161.4"/>
<line x1="160.5" y1="159.4" x2="160.5" y2="161.8"/>
<line x1="156.7" y1="159.0" x2="156.7" y2="162.2"/>
<line x1="152.9" y1="158.6" x2="152.9" y2="162.6"/>
<line x1="149.1" y1="158.2" x2="149.1" y2="163.0"/>
<line x1="145.3" y1="157.8" x2="145.3" y2="163.4"/>
<line x1="143.8" y1="160.6" x2="157.9" y2="184.9"/>
<polygon points="52.540000 122.575239 78.000000 126.575239 78.000000 118.575239 " />
<line x1="78.0" y1="122.6" x2="63.9" y2="98.2"/>
<polygon points="169.277931 78.477226 140.353829 120.575239 147.282032 124.575239 " />
<line x1="143.8" y1="122.6" x2="171.9" y2="122.6"/>
<line x1="133.2" y1="93.9" x2="133.5" y2="94.6"/>
<line x1="129.6" y1="95.0" x2="130.2" y2="96.5"/>
<line x1="125.9" y1="96.1" x2="126.8" y2="98.3"/>
<line x1="122.2" y1="97.2" x2="123.5" y2="100.1"/>
<line x1="118.6" y1="98.2" x2="120.1" y2="101.9"/>
<line x1="114.9" y1="99.3" x2="116.7" y2="103.8"/>
<line x1="111.2" y1="100.4" x2="113.4" y2="105.6"/>
<line x1="110.9" y1="103.6" x2="91.0" y2="83.7"/>
<line x1="78.0" y1="160.6" x2="110.9" y2="179.6"/>
<line x1="110.9" y1="179.6" x2="143.8" y2="160.6"/>
<line x1="143.8" y1="160.6" x2="143.8" y2="122.6"/>
<line x1="143.8" y1="122.6" x2="110.9" y2="103.6"/>
<line x1="110.9" y1="103.6" x2="78.0" y2="122.6"/>
<line x1="78.0" y1="122.6" x2="78.0" y2="160.6"/>
<text x="87.874031" y="48.320000" fill="rgb(102,102,102)"  stroke="rgb(102,102,102)" stroke-width="1" font-size="16" >CH</text>
<text x="111.874031" y="56.000000" fill="rgb(102,102,102)"  stroke="rgb(102,102,102)" stroke-width="1" font-size="13" >3</text>
<text x="76.308965" y="217.284204" fill="rgb(255,12,12)"  stroke="rgb(255,12,12)" stroke-width="1" font-size="16" >HO</text>
<text x="24.400000" y="165.375239" fill="rgb(255,12,12)"  stroke="rgb(255,12,12)" stroke-width="1" font-size="16" >HO</text>
<text x="156.817931" y="198.284204" fill="rgb(255,12,12)"  stroke="rgb(255,12,12)" stroke-width="1" font-size="16" >OH</text>
<text x="43.400000" y="97.986274" fill="rgb(255,12,12)"  stroke="rgb(255,12,12)" stroke-width="1" font-size="16" >HO</text>
<text x="175.817931" y="130.895239" fill="rgb(255,12,12)"  stroke="rgb(255,12,12)" stroke-width="1" font-size="16" >OH</text>
<text x="80.438908" y="81.505181" fill="rgb(255,12,12)"  stroke="rgb(255,12,12)" stroke-width="1" font-size="16" >O</text>
<text x="123.908965" y="217.284204" fill="rgb(191,191,191)"  stroke="rgb(191,191,191)" stroke-width="1" font-size="16" >H</text>
<text x="55.400000" y="198.284204" fill="rgb(191,191,191)"  stroke="rgb(191,191,191)" stroke-width="1" font-size="16" >H</text>
<text x="175.817931" y="168.895239" fill="rgb(191,191,191)"  stroke="rgb(191,191,191)" stroke-width="1" font-size="16" >H</text>
<text x="36.400000" y="127.375239" fill="rgb(191,191,191)"  stroke="rgb(191,191,191)" stroke-width="1" font-size="16" >H</text>
<text x="175.817931" y="65.077308" fill="rgb(191,191,191)"  stroke="rgb(191,191,191)" stroke-width="1" font-size="16" >H</text>
<text x="140.016388" y="97.353269" fill="rgb(191,191,191)"  stroke="rgb(191,191,191)" stroke-width="1" font-size="16" >H</text>
<text font-size="18.000000" fill ="black" font-family="sans-serif"
x="140.000000" y="20.000000" ></text>
<title> - OBDepict</title>
</svg>
