<?xml version="1.0"?>
<svg xmlns="http://www.w3.org/2000/svg"
xmlns:xlink="http://www.w3.org/1999/xlink" xmlns:cml="http://www.xml-cml.org/schema" width="426.41" height="280" x="0" y="0" font-family="sans-serif" stroke="rgb(0,0,0)" stroke-width="1" >
<line x1="308.1" y1="234.8" x2="291.5" y2="225.2"/>
<line x1="377.4" y1="165.2" x2="360.8" y2="174.8"/>
<line x1="74.6" y1="60.0" x2="49.0" y2="45.2"/>
<line x1="282.5" y1="180.0" x2="282.5" y2="209.6"/>
<line x1="317.1" y1="160.0" x2="342.8" y2="174.8"/>
<line x1="181.6" y1="120.0" x2="181.6" y2="149.6"/>
<line x1="175.6" y1="120.0" x2="175.6" y2="149.6"/>
<line x1="109.3" y1="120.0" x2="74.6" y2="100.0"/>
<line x1="107.7" y1="110.8" x2="83.4" y2="96.8"/>
<line x1="74.6" y1="100.0" x2="74.6" y2="60.0"/>
<line x1="74.6" y1="60.0" x2="109.3" y2="40.0"/>
<line x1="83.4" y1="63.2" x2="107.7" y2="49.2"/>
<line x1="109.3" y1="40.0" x2="143.9" y2="60.0"/>
<line x1="143.9" y1="60.0" x2="143.9" y2="100.0"/>
<line x1="136.7" y1="66.0" x2="136.7" y2="94.0"/>
<line x1="143.9" y1="100.0" x2="109.3" y2="120.0"/>
<line x1="213.2" y1="60.0" x2="213.2" y2="100.0"/>
<line x1="213.2" y1="100.0" x2="178.6" y2="120.0"/>
<line x1="178.6" y1="120.0" x2="143.9" y2="100.0"/>
<line x1="143.9" y1="60.0" x2="169.6" y2="45.2"/>
<line x1="187.6" y1="45.2" x2="213.2" y2="60.0"/>
<line x1="247.8" y1="160.0" x2="282.5" y2="180.0"/>
<line x1="282.5" y1="180.0" x2="317.1" y2="160.0"/>
<line x1="284.1" y1="170.8" x2="308.3" y2="156.8"/>
<line x1="317.1" y1="160.0" x2="317.1" y2="120.0"/>
<line x1="317.1" y1="120.0" x2="282.5" y2="100.0"/>
<line x1="308.3" y1="123.2" x2="284.1" y2="109.2"/>
<line x1="282.5" y1="100.0" x2="247.8" y2="120.0"/>
<line x1="247.8" y1="120.0" x2="247.8" y2="160.0"/>
<line x1="255.0" y1="126.0" x2="255.0" y2="154.0"/>
<line x1="247.8" y1="40.0" x2="213.2" y2="60.0"/>
<line x1="213.2" y1="100.0" x2="247.8" y2="120.0"/>
<line x1="282.5" y1="100.0" x2="282.5" y2="70.4"/>
<line x1="273.5" y1="54.8" x2="247.8" y2="40.0"/>
<text x="311.128129" y="244.800000" fill="rgb(102,102,102)"  stroke="rgb(102,102,102)" stroke-width="1" font-size="16" >CH</text>
<text x="335.128129" y="249.600000" fill="rgb(102,102,102)"  stroke="rgb(102,102,102)" stroke-width="1" font-size="13" >3</text>
<text x="380.410162" y="168.320000" fill="rgb(102,102,102)"  stroke="rgb(102,102,102)" stroke-width="1" font-size="16" >CH</text>
<text x="404.410162" y="176.000000" fill="rgb(102,102,102)"  stroke="rgb(102,102,102)" stroke-width="1" font-size="13" >3</text>
<text x="24.400000" y="48.320000" fill="rgb(255,12,12)"  stroke="rgb(255,12,12)" stroke-width="1" font-size="16" >HO</text>
<text x="172.564065" y="164.800000" fill="rgb(255,12,12)"  stroke="rgb(255,12,12)" stroke-width="1" font-size="16" >O</text>
<text x="278.887113" y="224.800000" fill="rgb(255,12,12)"  stroke="rgb(255,12,12)" stroke-width="1" font-size="16" >O</text>
<text x="345.769145" y="184.800000" fill="rgb(255,12,12)"  stroke="rgb(255,12,12)" stroke-width="1" font-size="16" >O</text>
<text x="276.487113" y="68.320000" fill="rgb(255,12,12)"  stroke="rgb(255,12,12)" stroke-width="1" font-size="16" >O</text>
<text x="172.564065" y="48.320000" fill="rgb(255,12,12)"  stroke="rgb(255,12,12)" stroke-width="1" font-size="16" >O</text>
<text font-size="18.000000" fill ="black" font-family="sans-serif"
x="140.000000" y="20.000000" ></text>
<title> - OBDepict</title>
</svg>
