<?xml version="1.0"?>
<svg xmlns="http://www.w3.org/2000/svg"
xmlns:xlink="http://www.w3.org/1999/xlink" xmlns:cml="http://www.xml-cml.org/schema" width="280.118" height="340" x="0" y="0" font-family="sans-serif" stroke="rgb(0,0,0)" stroke-width="1" >
<line x1="49.0" y1="114.8" x2="74.6" y2="100.0"/>
<line x1="109.3" y1="120.0" x2="134.9" y2="105.2"/>
<line x1="109.3" y1="120.0" x2="109.3" y2="160.0"/>
<line x1="107.8" y1="122.6" x2="73.1" y2="102.6"/>
<line x1="110.8" y1="117.4" x2="76.1" y2="97.4"/>
<line x1="109.3" y1="160.0" x2="134.9" y2="174.8"/>
<line x1="74.6" y1="60.0" x2="74.6" y2="100.0"/>
<line x1="74.6" y1="60.0" x2="100.3" y2="45.2"/>
<line x1="143.9" y1="220.0" x2="143.9" y2="190.4"/>
<line x1="178.6" y1="240.0" x2="206.7" y2="230.9"/>
<line x1="222.7" y1="236.1" x2="240.1" y2="260.0"/>
<line x1="218.1" y1="241.9" x2="230.8" y2="259.4"/>
<line x1="240.1" y1="260.0" x2="222.7" y2="283.9"/>
<line x1="206.7" y1="289.1" x2="178.6" y2="280.0"/>
<line x1="207.0" y1="281.7" x2="186.5" y2="275.0"/>
<line x1="178.6" y1="280.0" x2="178.6" y2="240.0"/>
<line x1="109.3" y1="280.0" x2="109.3" y2="250.4"/>
<line x1="116.5" y1="274.0" x2="116.5" y2="252.4"/>
<line x1="118.3" y1="234.8" x2="143.9" y2="220.0"/>
<line x1="143.9" y1="220.0" x2="178.6" y2="240.0"/>
<line x1="145.5" y1="229.2" x2="169.8" y2="243.2"/>
<line x1="178.6" y1="280.0" x2="152.9" y2="294.8"/>
<line x1="134.9" y1="294.8" x2="109.3" y2="280.0"/>
<text x="16.400000" y="124.800000" fill="rgb(102,102,102)"  stroke="rgb(102,102,102)" stroke-width="1" font-size="16" >H</text>
<text x="28.400000" y="129.600000" fill="rgb(102,102,102)"  stroke="rgb(102,102,102)" stroke-width="1" font-size="13" >3</text>
<text x="34.900000" y="124.800000" fill="rgb(102,102,102)"  stroke="rgb(102,102,102)" stroke-width="1" font-size="16" >C</text>
<text x="137.923048" y="188.320000" fill="rgb(12,12,255)"  stroke="rgb(12,12,255)" stroke-width="1" font-size="16" >NH</text>
<text x="210.606325" y="235.959320" fill="rgb(12,12,255)"  stroke="rgb(12,12,255)" stroke-width="1" font-size="16" >N</text>
<text x="210.606325" y="297.160680" fill="rgb(12,12,255)"  stroke="rgb(12,12,255)" stroke-width="1" font-size="16" >N</text>
<text x="105.682032" y="248.320000" fill="rgb(12,12,255)"  stroke="rgb(12,12,255)" stroke-width="1" font-size="16" >N</text>
<text x="137.923048" y="304.800000" fill="rgb(12,12,255)"  stroke="rgb(12,12,255)" stroke-width="1" font-size="16" >NH</text>
<text x="103.282032" y="48.320000" fill="rgb(255,12,12)"  stroke="rgb(255,12,12)" stroke-width="1" font-size="16" >OH</text>
<text x="137.923048" y="108.320000" fill="rgb(191,191,191)"  stroke="rgb(191,191,191)" stroke-width="1" font-size="16" >H</text>
<text font-size="18.000000" fill ="black" font-family="sans-serif"
x="140.000000" y="20.000000" ></text>
<title> - OBDepict</title>
</svg>
