<?xml version="1.0"?>
<svg xmlns="http://www.w3.org/2000/svg"
xmlns:xlink="http://www.w3.org/1999/xlink" xmlns:cml="http://www.xml-cml.org/schema" width="340.11" height="302.458" x="0" y="0" font-family="sans-serif" stroke="rgb(0,0,0)" stroke-width="1" >
<line x1="238.7" y1="217.2" x2="239.5" y2="217.5"/>
<line x1="236.8" y1="220.5" x2="238.3" y2="221.2"/>
<line x1="234.9" y1="223.9" x2="237.1" y2="224.9"/>
<line x1="232.9" y1="227.3" x2="235.9" y2="228.6"/>
<line x1="231.0" y1="230.6" x2="234.7" y2="232.2"/>
<line x1="229.1" y1="234.0" x2="233.4" y2="235.9"/>
<line x1="227.1" y1="237.4" x2="232.2" y2="239.6"/>
<line x1="82.1" y1="45.0" x2="98.2" y2="54.3"/>
<polygon points="151.376840 188.110345 175.785993 178.636515 171.785993 171.708312 " />
<line x1="249.8" y1="130.8" x2="250.2" y2="131.5"/>
<line x1="243.0" y1="134.3" x2="243.8" y2="135.7"/>
<line x1="236.1" y1="137.8" x2="237.3" y2="139.9"/>
<line x1="229.2" y1="141.3" x2="230.8" y2="144.1"/>
<line x1="222.3" y1="144.9" x2="224.3" y2="148.3"/>
<line x1="215.4" y1="148.4" x2="217.8" y2="152.5"/>
<line x1="208.5" y1="151.9" x2="211.3" y2="156.7"/>
<polygon points="230.154329 151.533638 237.024808 176.799360 244.333172 173.545467 " />
<line x1="73.4" y1="117.2" x2="48.7" y2="103.0"/>
<line x1="280.3" y1="224.8" x2="289.1" y2="252.0"/>
<line x1="274.6" y1="226.7" x2="283.4" y2="253.8"/>
<line x1="106.9" y1="97.9" x2="106.9" y2="69.4"/>
<line x1="240.7" y1="175.2" x2="277.4" y2="163.2"/>
<line x1="277.4" y1="163.2" x2="300.1" y2="194.5"/>
<line x1="300.1" y1="194.5" x2="277.4" y2="225.7"/>
<line x1="277.4" y1="225.7" x2="240.7" y2="213.8"/>
<line x1="240.7" y1="213.8" x2="240.7" y2="175.2"/>
<line x1="207.2" y1="117.2" x2="173.8" y2="97.9"/>
<line x1="173.8" y1="97.9" x2="140.3" y2="117.2"/>
<line x1="140.3" y1="117.2" x2="140.3" y2="155.9"/>
<line x1="147.5" y1="123.2" x2="147.5" y2="149.9"/>
<line x1="140.3" y1="155.9" x2="173.8" y2="175.2"/>
<line x1="173.8" y1="175.2" x2="207.2" y2="155.9"/>
<line x1="207.2" y1="155.9" x2="207.2" y2="117.2"/>
<line x1="73.4" y1="117.2" x2="73.4" y2="155.9"/>
<line x1="73.4" y1="155.9" x2="106.9" y2="175.2"/>
<line x1="82.2" y1="152.6" x2="105.3" y2="165.9"/>
<line x1="106.9" y1="175.2" x2="140.3" y2="155.9"/>
<line x1="140.3" y1="117.2" x2="106.9" y2="97.9"/>
<line x1="106.9" y1="97.9" x2="73.4" y2="117.2"/>
<line x1="105.3" y1="107.2" x2="82.2" y2="120.5"/>
<line x1="240.7" y1="175.2" x2="207.2" y2="155.9"/>
<line x1="173.8" y1="175.2" x2="173.8" y2="213.8"/>
<line x1="173.8" y1="213.8" x2="207.2" y2="233.1"/>
<line x1="207.2" y1="233.1" x2="240.7" y2="213.8"/>
<text x="201.370540" y="253.874859" fill="rgb(102,102,102)"  stroke="rgb(102,102,102)" stroke-width="1" font-size="16" >H</text>
<text x="213.370540" y="258.674859" fill="rgb(102,102,102)"  stroke="rgb(102,102,102)" stroke-width="1" font-size="13" >3</text>
<text x="219.870540" y="253.874859" fill="rgb(102,102,102)"  stroke="rgb(102,102,102)" stroke-width="1" font-size="16" >C</text>
<text x="49.846498" y="48.320000" fill="rgb(102,102,102)"  stroke="rgb(102,102,102)" stroke-width="1" font-size="16" >H</text>
<text x="61.846498" y="56.000000" fill="rgb(102,102,102)"  stroke="rgb(102,102,102)" stroke-width="1" font-size="13" >3</text>
<text x="68.346498" y="48.320000" fill="rgb(102,102,102)"  stroke="rgb(102,102,102)" stroke-width="1" font-size="16" >C</text>
<text x="24.400000" y="106.251034" fill="rgb(255,12,12)"  stroke="rgb(255,12,12)" stroke-width="1" font-size="16" >HO</text>
<text x="283.343898" y="267.258011" fill="rgb(255,12,12)"  stroke="rgb(255,12,12)" stroke-width="1" font-size="16" >O</text>
<text x="100.892997" y="67.630345" fill="rgb(255,12,12)"  stroke="rgb(255,12,12)" stroke-width="1" font-size="16" >O</text>
<text x="136.739495" y="199.282759" fill="rgb(191,191,191)"  stroke="rgb(191,191,191)" stroke-width="1" font-size="16" >H</text>
<text x="268.125488" y="125.561379" fill="rgb(191,191,191)"  stroke="rgb(191,191,191)" stroke-width="1" font-size="16" >H</text>
<text x="221.370540" y="148.210658" fill="rgb(191,191,191)"  stroke="rgb(191,191,191)" stroke-width="1" font-size="16" >H</text>
<text font-size="18.000000" fill ="black" font-family="sans-serif"
x="140.000000" y="20.000000" ></text>
<title> - OBDepict</title>
</svg>
