<?xml version="1.0"?>
<svg xmlns="http://www.w3.org/2000/svg"
xmlns:xlink="http://www.w3.org/1999/xlink" xmlns:cml="http://www.xml-cml.org/schema" width="1403.82" height="767.188" x="0" y="0" font-family="sans-serif" stroke="rgb(0,0,0)" stroke-width="1" >
<line x1="1349.1" y1="718.3" x2="1363.8" y2="692.8"/>
<line x1="936.9" y1="40.0" x2="907.6" y2="40.0"/>
<line x1="256.8" y1="462.7" x2="256.8" y2="492.1"/>
<line x1="1363.8" y1="692.8" x2="1344.0" y2="658.5"/>
<line x1="907.6" y1="40.0" x2="887.7" y2="74.4"/>
<line x1="1344.0" y1="658.5" x2="1304.3" y2="658.5"/>
<line x1="887.7" y1="74.4" x2="848.1" y2="74.4"/>
<line x1="1304.3" y1="658.5" x2="1284.5" y2="624.1"/>
<line x1="848.1" y1="74.4" x2="828.2" y2="108.7"/>
<line x1="1284.5" y1="624.1" x2="1244.8" y2="624.1"/>
<line x1="828.2" y1="108.7" x2="788.5" y2="108.7"/>
<line x1="1244.8" y1="624.1" x2="1225.0" y2="589.8"/>
<line x1="788.5" y1="108.7" x2="768.7" y2="143.1"/>
<line x1="1225.0" y1="589.8" x2="1185.3" y2="589.8"/>
<line x1="768.7" y1="143.1" x2="729.0" y2="143.1"/>
<line x1="1185.3" y1="589.8" x2="1165.4" y2="555.4"/>
<line x1="729.0" y1="143.1" x2="709.2" y2="177.4"/>
<line x1="1165.4" y1="555.4" x2="1125.8" y2="555.4"/>
<line x1="1125.8" y1="555.4" x2="1105.9" y2="521.0"/>
<line x1="1105.9" y1="521.0" x2="1066.3" y2="521.0"/>
<line x1="1066.3" y1="521.0" x2="1046.4" y2="486.7"/>
<line x1="1046.4" y1="486.7" x2="1006.8" y2="486.7"/>
<line x1="1006.8" y1="486.7" x2="986.9" y2="452.3"/>
<line x1="986.9" y1="452.3" x2="947.2" y2="452.3"/>
<line x1="947.2" y1="452.3" x2="927.4" y2="418.0"/>
<line x1="927.4" y1="418.0" x2="887.7" y2="418.0"/>
<line x1="887.7" y1="418.0" x2="867.9" y2="383.6"/>
<line x1="709.2" y1="177.4" x2="669.5" y2="177.4"/>
<line x1="867.9" y1="383.6" x2="828.2" y2="383.6"/>
<line x1="669.5" y1="177.4" x2="649.7" y2="211.8"/>
<line x1="828.2" y1="383.6" x2="808.4" y2="349.2"/>
<line x1="649.7" y1="211.8" x2="610.0" y2="211.8"/>
<line x1="808.4" y1="349.2" x2="768.7" y2="349.2"/>
<line x1="610.0" y1="211.8" x2="590.2" y2="246.2"/>
<line x1="768.7" y1="349.2" x2="748.9" y2="314.9"/>
<line x1="590.2" y1="246.2" x2="550.5" y2="246.2"/>
<line x1="748.9" y1="314.9" x2="709.2" y2="314.9"/>
<line x1="550.5" y1="246.2" x2="535.8" y2="220.7"/>
<line x1="553.1" y1="247.7" x2="533.3" y2="282.0"/>
<line x1="547.9" y1="244.7" x2="528.1" y2="279.0"/>
<line x1="709.2" y1="314.9" x2="689.4" y2="280.5"/>
<line x1="530.7" y1="280.5" x2="501.3" y2="280.5"/>
<line x1="530.7" y1="280.5" x2="550.5" y2="314.9"/>
<line x1="689.4" y1="280.5" x2="649.7" y2="280.5"/>
<line x1="74.4" y1="472.2" x2="108.7" y2="492.1"/>
<line x1="74.4" y1="472.2" x2="48.9" y2="486.9"/>
<line x1="206.6" y1="669.4" x2="234.6" y2="641.4"/>
<line x1="206.6" y1="669.4" x2="214.2" y2="697.8"/>
<line x1="527.8" y1="518.8" x2="538.0" y2="480.4"/>
<line x1="527.8" y1="518.8" x2="548.5" y2="539.5"/>
<line x1="396.9" y1="612.6" x2="416.7" y2="578.3"/>
<line x1="396.9" y1="612.6" x2="411.6" y2="638.1"/>
<line x1="590.2" y1="354.5" x2="590.2" y2="314.9"/>
<line x1="590.2" y1="354.5" x2="564.7" y2="369.2"/>
<line x1="258.3" y1="494.7" x2="232.9" y2="509.3"/>
<line x1="255.3" y1="489.5" x2="229.9" y2="504.1"/>
<line x1="256.8" y1="492.1" x2="282.2" y2="506.7"/>
<line x1="589.8" y1="289.5" x2="590.6" y2="289.5"/>
<line x1="589.4" y1="293.5" x2="591.0" y2="293.5"/>
<line x1="589.0" y1="297.4" x2="591.4" y2="297.4"/>
<line x1="588.6" y1="301.4" x2="591.8" y2="301.4"/>
<line x1="588.2" y1="305.4" x2="592.2" y2="305.4"/>
<line x1="587.8" y1="309.3" x2="592.6" y2="309.3"/>
<line x1="587.4" y1="313.3" x2="593.0" y2="313.3"/>
<line x1="590.2" y1="314.9" x2="550.5" y2="314.9"/>
<line x1="590.2" y1="314.9" x2="619.5" y2="314.9"/>
<polygon points="527.469386 328.166112 552.490172 318.339157 548.490172 311.410953 " />
<line x1="550.5" y1="314.9" x2="550.5" y2="344.2"/>
<polygon points="85.697978 505.350811 110.718764 495.523856 106.718764 488.595653 " />
<polygon points="241.488145 667.064219 238.471891 640.352593 230.744484 642.423145 " />
<polygon points="556.816255 499.235668 540.848289 477.610848 535.191435 483.267703 " />
<polygon points="430.037122 601.295167 420.210167 576.274381 413.281963 580.274381 " />
<line x1="652.3" y1="282.0" x2="637.6" y2="307.4"/>
<line x1="647.1" y1="279.0" x2="632.4" y2="304.4"/>
<line x1="649.7" y1="280.5" x2="635.0" y2="255.1"/>
<line x1="209.9" y1="479.0" x2="210.3" y2="479.7"/>
<line x1="206.2" y1="480.7" x2="207.0" y2="482.0"/>
<line x1="202.6" y1="482.3" x2="203.8" y2="484.4"/>
<line x1="199.0" y1="483.9" x2="200.6" y2="486.7"/>
<line x1="195.3" y1="485.6" x2="197.3" y2="489.0"/>
<line x1="191.7" y1="487.2" x2="194.1" y2="491.4"/>
<line x1="188.0" y1="488.8" x2="190.8" y2="493.7"/>
<line x1="188.1" y1="492.1" x2="213.5" y2="506.7"/>
<polygon points="105.535376 444.409316 126.556162 461.164474 130.556162 454.236271 " />
<line x1="128.6" y1="457.7" x2="128.6" y2="428.3"/>
<polygon points="187.757477 632.129944 209.382297 616.161978 203.725443 610.505124 " />
<line x1="206.6" y1="613.3" x2="178.2" y2="605.7"/>
<polygon points="168.230959 431.118259 164.230959 457.700373 172.230959 457.700373 " />
<line x1="168.2" y1="457.7" x2="193.7" y2="443.0"/>
<polygon points="463.752008 438.727729 490.463634 435.711475 488.393082 427.984068 " />
<line x1="489.4" y1="431.8" x2="468.7" y2="411.1"/>
<polygon points="355.804569 518.762186 382.386683 522.762186 382.386683 514.762186 " />
<line x1="382.4" y1="518.8" x2="367.7" y2="493.3"/>
<line x1="517.5" y1="403.8" x2="496.7" y2="383.0"/>
<line x1="517.5" y1="403.8" x2="525.1" y2="375.4"/>
<line x1="403.7" y1="477.1" x2="404.4" y2="476.7"/>
<line x1="405.3" y1="480.8" x2="406.7" y2="480.0"/>
<line x1="407.0" y1="484.4" x2="409.1" y2="483.2"/>
<line x1="408.6" y1="488.0" x2="411.4" y2="486.4"/>
<line x1="410.3" y1="491.7" x2="413.7" y2="489.7"/>
<line x1="411.9" y1="495.3" x2="416.0" y2="492.9"/>
<line x1="413.5" y1="499.0" x2="418.4" y2="496.2"/>
<line x1="416.7" y1="498.9" x2="431.4" y2="473.5"/>
<line x1="248.2" y1="540.3" x2="249.0" y2="540.1"/>
<line x1="248.8" y1="544.3" x2="250.4" y2="543.8"/>
<line x1="249.5" y1="548.2" x2="251.8" y2="547.6"/>
<line x1="250.1" y1="552.1" x2="253.2" y2="551.3"/>
<line x1="250.7" y1="556.1" x2="254.6" y2="555.0"/>
<line x1="251.4" y1="560.0" x2="256.0" y2="558.8"/>
<line x1="252.0" y1="563.9" x2="257.4" y2="562.5"/>
<line x1="255.1" y1="564.7" x2="275.9" y2="544.0"/>
<line x1="493.5" y1="494.8" x2="492.7" y2="494.6"/>
<line x1="494.9" y1="491.1" x2="493.4" y2="490.7"/>
<line x1="496.3" y1="487.3" x2="494.0" y2="486.7"/>
<line x1="497.8" y1="483.6" x2="494.7" y2="482.8"/>
<line x1="499.2" y1="479.9" x2="495.3" y2="478.9"/>
<line x1="500.6" y1="476.2" x2="495.9" y2="474.9"/>
<line x1="502.0" y1="472.4" x2="496.6" y2="471.0"/>
<line x1="499.7" y1="470.2" x2="471.3" y2="477.8"/>
<polygon points="369.095626 581.457769 385.850785 560.436983 378.922582 556.436983 " />
<line x1="382.4" y1="558.4" x2="323.7" y2="558.4"/>
<polygon points="191.146112 568.130683 215.787187 578.874343 217.857739 571.146937 " />
<line x1="216.8" y1="575.0" x2="209.2" y2="546.7"/>
<polygon points="152.048793 547.508145 171.404372 528.854182 165.057546 523.984091 " />
<line x1="168.2" y1="526.4" x2="196.6" y2="534.0"/>
<polygon points="580.364257 424.234581 557.336320 410.366529 554.274853 417.757565 " />
<line x1="555.8" y1="414.1" x2="555.8" y2="384.7"/>
<polygon points="472.194456 534.944352 453.540493 515.588773 448.670401 521.935600 " />
<line x1="451.1" y1="518.8" x2="458.7" y2="490.4"/>
<line x1="299.0" y1="612.7" x2="298.3" y2="613.2"/>
<line x1="296.9" y1="609.3" x2="295.6" y2="610.3"/>
<line x1="294.8" y1="605.9" x2="292.9" y2="607.4"/>
<line x1="292.7" y1="602.5" x2="290.1" y2="604.5"/>
<line x1="290.6" y1="599.1" x2="287.4" y2="601.6"/>
<line x1="288.5" y1="595.7" x2="284.7" y2="598.7"/>
<line x1="286.4" y1="592.4" x2="281.9" y2="595.8"/>
<line x1="283.2" y1="592.8" x2="297.9" y2="567.4"/>
<line x1="188.1" y1="492.1" x2="168.2" y2="526.4"/>
<line x1="168.2" y1="526.4" x2="138.9" y2="526.4"/>
<line x1="123.4" y1="517.5" x2="108.7" y2="492.1"/>
<line x1="108.7" y1="492.1" x2="128.6" y2="457.7"/>
<line x1="128.6" y1="457.7" x2="168.2" y2="457.7"/>
<line x1="168.2" y1="457.7" x2="188.1" y2="492.1"/>
<line x1="255.1" y1="564.7" x2="283.2" y2="592.8"/>
<line x1="283.2" y1="592.8" x2="275.6" y2="621.2"/>
<line x1="263.0" y1="633.8" x2="234.6" y2="641.4"/>
<line x1="234.6" y1="641.4" x2="206.6" y2="613.3"/>
<line x1="206.6" y1="613.3" x2="216.8" y2="575.0"/>
<line x1="216.8" y1="575.0" x2="255.1" y2="564.7"/>
<line x1="489.4" y1="431.8" x2="517.5" y2="403.8"/>
<line x1="517.5" y1="403.8" x2="555.8" y2="414.1"/>
<line x1="555.8" y1="414.1" x2="563.4" y2="442.4"/>
<line x1="558.8" y1="459.7" x2="538.0" y2="480.4"/>
<line x1="538.0" y1="480.4" x2="499.7" y2="470.2"/>
<line x1="499.7" y1="470.2" x2="489.4" y2="431.8"/>
<line x1="382.4" y1="518.8" x2="416.7" y2="498.9"/>
<line x1="416.7" y1="498.9" x2="451.1" y2="518.8"/>
<line x1="451.1" y1="518.8" x2="451.1" y2="548.1"/>
<line x1="442.2" y1="563.6" x2="416.7" y2="578.3"/>
<line x1="416.7" y1="578.3" x2="382.4" y2="558.4"/>
<line x1="382.4" y1="558.4" x2="382.4" y2="518.8"/>
<text x="1320.386107" y="731.987637" fill="rgb(102,102,102)"  stroke="rgb(102,102,102)" stroke-width="1" font-size="16" >H</text>
<text x="1332.386107" y="736.787637" fill="rgb(102,102,102)"  stroke="rgb(102,102,102)" stroke-width="1" font-size="13" >3</text>
<text x="1338.886107" y="731.987637" fill="rgb(102,102,102)"  stroke="rgb(102,102,102)" stroke-width="1" font-size="16" >C</text>
<text x="941.238139" y="48.320000" fill="rgb(102,102,102)"  stroke="rgb(102,102,102)" stroke-width="1" font-size="16" >CH</text>
<text x="965.238139" y="56.000000" fill="rgb(102,102,102)"  stroke="rgb(102,102,102)" stroke-width="1" font-size="13" >3</text>
<text x="250.787121" y="460.704958" fill="rgb(102,102,102)"  stroke="rgb(102,102,102)" stroke-width="1" font-size="16" >CH</text>
<text x="274.787121" y="468.384958" fill="rgb(102,102,102)"  stroke="rgb(102,102,102)" stroke-width="1" font-size="13" >3</text>
<text x="216.427739" y="516.697153" fill="rgb(12,12,255)"  stroke="rgb(12,12,255)" stroke-width="1" font-size="16" >N</text>
<text x="623.839765" y="319.675055" fill="rgb(12,12,255)"  stroke="rgb(12,12,255)" stroke-width="1" font-size="16" >N</text>
<text x="24.400000" y="496.859754" fill="rgb(255,12,12)"  stroke="rgb(255,12,12)" stroke-width="1" font-size="16" >HO</text>
<text x="210.822463" y="712.565097" fill="rgb(255,12,12)"  stroke="rgb(255,12,12)" stroke-width="1" font-size="16" >OH</text>
<text x="549.805586" y="551.616504" fill="rgb(255,12,12)"  stroke="rgb(255,12,12)" stroke-width="1" font-size="16" >OH</text>
<text x="410.746065" y="651.793145" fill="rgb(255,12,12)"  stroke="rgb(255,12,12)" stroke-width="1" font-size="16" >OH</text>
<text x="285.146503" y="516.697153" fill="rgb(255,12,12)"  stroke="rgb(255,12,12)" stroke-width="1" font-size="16" >OH</text>
<text x="544.490172" y="359.349852" fill="rgb(255,12,12)"  stroke="rgb(255,12,12)" stroke-width="1" font-size="16" >OH</text>
<text x="614.239765" y="254.476291" fill="rgb(255,12,12)"  stroke="rgb(255,12,12)" stroke-width="1" font-size="16" >HO</text>
<text x="122.556162" y="426.345576" fill="rgb(255,12,12)"  stroke="rgb(255,12,12)" stroke-width="1" font-size="16" >OH</text>
<text x="152.630959" y="611.384958" fill="rgb(255,12,12)"  stroke="rgb(255,12,12)" stroke-width="1" font-size="16" >HO</text>
<text x="196.590341" y="446.182974" fill="rgb(255,12,12)"  stroke="rgb(255,12,12)" stroke-width="1" font-size="16" >OH</text>
<text x="445.774040" y="412.113454" fill="rgb(255,12,12)"  stroke="rgb(255,12,12)" stroke-width="1" font-size="16" >HO</text>
<text x="346.949285" y="492.722804" fill="rgb(255,12,12)"  stroke="rgb(255,12,12)" stroke-width="1" font-size="16" >HO</text>
<text x="521.751269" y="373.790543" fill="rgb(255,12,12)"  stroke="rgb(255,12,12)" stroke-width="1" font-size="16" >OH</text>
<text x="430.583463" y="472.885406" fill="rgb(255,12,12)"  stroke="rgb(255,12,12)" stroke-width="1" font-size="16" >OH</text>
<text x="277.199691" y="545.007729" fill="rgb(255,12,12)"  stroke="rgb(255,12,12)" stroke-width="1" font-size="16" >OH</text>
<text x="552.205586" y="382.707250" fill="rgb(255,12,12)"  stroke="rgb(255,12,12)" stroke-width="1" font-size="16" >O</text>
<text x="124.956162" y="531.219136" fill="rgb(255,12,12)"  stroke="rgb(255,12,12)" stroke-width="1" font-size="16" >O</text>
<text x="266.931098" y="635.919276" fill="rgb(255,12,12)"  stroke="rgb(255,12,12)" stroke-width="1" font-size="16" >O</text>
<text x="560.074179" y="457.184958" fill="rgb(255,12,12)"  stroke="rgb(255,12,12)" stroke-width="1" font-size="16" >O</text>
<text x="445.105447" y="563.236983" fill="rgb(255,12,12)"  stroke="rgb(255,12,12)" stroke-width="1" font-size="16" >O</text>
<text x="457.774040" y="488.759276" fill="rgb(255,12,12)"  stroke="rgb(255,12,12)" stroke-width="1" font-size="16" >O</text>
<text x="299.437090" y="566.756983" fill="rgb(255,12,12)"  stroke="rgb(255,12,12)" stroke-width="1" font-size="16" >O</text>
<text x="200.553870" y="545.007729" fill="rgb(255,12,12)"  stroke="rgb(255,12,12)" stroke-width="1" font-size="16" >O</text>
<text x="527.052773" y="220.116909" fill="rgb(191,191,191)"  stroke="rgb(191,191,191)" stroke-width="1" font-size="16" >H</text>
<text x="487.377976" y="285.315673" fill="rgb(191,191,191)"  stroke="rgb(191,191,191)" stroke-width="1" font-size="16" >H</text>
<text x="584.164968" y="283.520258" fill="rgb(191,191,191)"  stroke="rgb(191,191,191)" stroke-width="1" font-size="16" >H</text>
<text x="512.530790" y="339.512453" fill="rgb(191,191,191)"  stroke="rgb(191,191,191)" stroke-width="1" font-size="16" >H</text>
<text x="70.759382" y="516.697153" fill="rgb(191,191,191)"  stroke="rgb(191,191,191)" stroke-width="1" font-size="16" >H</text>
<text x="238.876781" y="684.510780" fill="rgb(191,191,191)"  stroke="rgb(191,191,191)" stroke-width="1" font-size="16" >H</text>
<text x="560.074179" y="513.293593" fill="rgb(191,191,191)"  stroke="rgb(191,191,191)" stroke-width="1" font-size="16" >H</text>
<text x="430.583463" y="617.433763" fill="rgb(191,191,191)"  stroke="rgb(191,191,191)" stroke-width="1" font-size="16" >H</text>
<text x="216.427739" y="480.542356" fill="rgb(191,191,191)"  stroke="rgb(191,191,191)" stroke-width="1" font-size="16" >H</text>
<text x="90.596780" y="446.182974" fill="rgb(191,191,191)"  stroke="rgb(191,191,191)" stroke-width="1" font-size="16" >H</text>
<text x="174.899552" y="646.187869" fill="rgb(191,191,191)"  stroke="rgb(191,191,191)" stroke-width="1" font-size="16" >H</text>
<text x="162.230959" y="426.345576" fill="rgb(191,191,191)"  stroke="rgb(191,191,191)" stroke-width="1" font-size="16" >H</text>
<text x="447.505447" y="446.916365" fill="rgb(191,191,191)"  stroke="rgb(191,191,191)" stroke-width="1" font-size="16" >H</text>
<text x="339.111886" y="523.562186" fill="rgb(191,191,191)"  stroke="rgb(191,191,191)" stroke-width="1" font-size="16" >H</text>
<text x="485.828358" y="384.059136" fill="rgb(191,191,191)"  stroke="rgb(191,191,191)" stroke-width="1" font-size="16" >H</text>
<text x="393.308667" y="472.885406" fill="rgb(191,191,191)"  stroke="rgb(191,191,191)" stroke-width="1" font-size="16" >H</text>
<text x="241.276781" y="534.739136" fill="rgb(191,191,191)"  stroke="rgb(191,191,191)" stroke-width="1" font-size="16" >H</text>
<text x="485.828358" y="513.293593" fill="rgb(191,191,191)"  stroke="rgb(191,191,191)" stroke-width="1" font-size="16" >H</text>
<text x="358.949285" y="597.596365" fill="rgb(191,191,191)"  stroke="rgb(191,191,191)" stroke-width="1" font-size="16" >H</text>
<text x="174.899552" y="573.062047" fill="rgb(191,191,191)"  stroke="rgb(191,191,191)" stroke-width="1" font-size="16" >H</text>
<text x="140.478473" y="562.695269" fill="rgb(191,191,191)"  stroke="rgb(191,191,191)" stroke-width="1" font-size="16" >H</text>
<text x="586.460319" y="434.044934" fill="rgb(191,191,191)"  stroke="rgb(191,191,191)" stroke-width="1" font-size="16" >H</text>
<text x="476.581580" y="547.714672" fill="rgb(191,191,191)"  stroke="rgb(191,191,191)" stroke-width="1" font-size="16" >H</text>
<text x="301.352177" y="629.072497" fill="rgb(191,191,191)"  stroke="rgb(191,191,191)" stroke-width="1" font-size="16" >H</text>
<text font-size="18.000000" fill ="black" font-family="sans-serif"
x="140.000000" y="20.000000" ></text>
<title> - OBDepict</title>
</svg>
