<?xml version="1.0"?>
<svg xmlns="http://www.w3.org/2000/svg"
xmlns:xlink="http://www.w3.org/1999/xlink" xmlns:cml="http://www.xml-cml.org/schema" width="432.298" height="214.286" x="0" y="0" font-family="sans-serif" stroke="rgb(0,0,0)" stroke-width="1" >
<line x1="151.5" y1="98.0" x2="225.8" y2="78.1"/>
<line x1="77.2" y1="118.0" x2="49.7" y2="125.3"/>
<line x1="359.0" y1="78.1" x2="383.6" y2="63.9"/>
<line x1="325.7" y1="135.8" x2="325.7" y2="164.3"/>
<line x1="262.1" y1="135.8" x2="262.1" y2="164.3"/>
<line x1="256.1" y1="135.8" x2="256.1" y2="164.3"/>
<polygon points="212.870351 138.910842 229.219068 118.594033 222.290865 114.594033 " />
<line x1="225.8" y1="116.6" x2="197.3" y2="116.6"/>
<line x1="228.6" y1="53.7" x2="229.4" y2="53.8"/>
<line x1="227.7" y1="57.4" x2="229.3" y2="57.6"/>
<line x1="226.8" y1="61.2" x2="229.2" y2="61.5"/>
<line x1="225.9" y1="65.0" x2="229.0" y2="65.4"/>
<line x1="225.0" y1="68.7" x2="228.9" y2="69.2"/>
<line x1="224.1" y1="72.5" x2="228.8" y2="73.1"/>
<line x1="223.2" y1="76.2" x2="228.7" y2="77.0"/>
<line x1="141.5" y1="135.2" x2="151.5" y2="98.0"/>
<line x1="136.1" y1="127.5" x2="142.9" y2="102.0"/>
<line x1="151.5" y1="98.0" x2="124.3" y2="70.8"/>
<line x1="124.3" y1="70.8" x2="87.1" y2="80.8"/>
<line x1="120.3" y1="79.4" x2="94.8" y2="86.2"/>
<line x1="87.1" y1="80.8" x2="77.2" y2="118.0"/>
<line x1="77.2" y1="118.0" x2="104.3" y2="145.1"/>
<line x1="86.5" y1="117.1" x2="105.2" y2="135.8"/>
<line x1="104.3" y1="145.1" x2="141.5" y2="135.2"/>
<line x1="325.7" y1="58.9" x2="292.4" y2="78.1"/>
<line x1="324.1" y1="68.1" x2="301.2" y2="81.4"/>
<line x1="292.4" y1="78.1" x2="292.4" y2="116.6"/>
<line x1="292.4" y1="116.6" x2="325.7" y2="135.8"/>
<line x1="301.2" y1="113.4" x2="324.1" y2="126.6"/>
<line x1="325.7" y1="135.8" x2="359.0" y2="116.6"/>
<line x1="359.0" y1="116.6" x2="359.0" y2="78.1"/>
<line x1="351.8" y1="110.6" x2="351.8" y2="84.1"/>
<line x1="359.0" y1="78.1" x2="325.7" y2="58.9"/>
<line x1="225.8" y1="78.1" x2="225.8" y2="116.6"/>
<line x1="225.8" y1="116.6" x2="259.1" y2="135.8"/>
<line x1="259.1" y1="135.8" x2="292.4" y2="116.6"/>
<line x1="292.4" y1="78.1" x2="267.7" y2="63.9"/>
<line x1="250.4" y1="63.9" x2="225.8" y2="78.1"/>
<text x="24.400000" y="132.705388" fill="rgb(255,12,12)"  stroke="rgb(255,12,12)" stroke-width="1" font-size="16" >HO</text>
<text x="386.298313" y="67.221725" fill="rgb(255,12,12)"  stroke="rgb(255,12,12)" stroke-width="1" font-size="16" >OH</text>
<text x="319.680975" y="179.086341" fill="rgb(255,12,12)"  stroke="rgb(255,12,12)" stroke-width="1" font-size="16" >OH</text>
<text x="253.063636" y="179.086341" fill="rgb(255,12,12)"  stroke="rgb(255,12,12)" stroke-width="1" font-size="16" >O</text>
<text x="171.693428" y="121.394033" fill="rgb(255,12,12)"  stroke="rgb(255,12,12)" stroke-width="1" font-size="16" >HO</text>
<text x="253.063636" y="67.221725" fill="rgb(255,12,12)"  stroke="rgb(255,12,12)" stroke-width="1" font-size="16" >O</text>
<text x="202.924197" y="154.702703" fill="rgb(191,191,191)"  stroke="rgb(191,191,191)" stroke-width="1" font-size="16" >H</text>
<text x="224.775205" y="48.320000" fill="rgb(191,191,191)"  stroke="rgb(191,191,191)" stroke-width="1" font-size="16" >H</text>
<text font-size="18.000000" fill ="black" font-family="sans-serif"
x="140.000000" y="20.000000" ></text>
<title> - OBDepict</title>
</svg>
