<?xml version="1.0"?>
<svg xmlns="http://www.w3.org/2000/svg"
xmlns:xlink="http://www.w3.org/1999/xlink" xmlns:cml="http://www.xml-cml.org/schema" width="348.298" height="374.023" x="0" y="0" font-family="sans-serif" stroke="rgb(0,0,0)" stroke-width="1" >
<line x1="279.8" y1="262.9" x2="271.1" y2="236.1"/>
<line x1="240.9" y1="190.4" x2="241.6" y2="190.7"/>
<line x1="239.0" y1="193.7" x2="240.4" y2="194.4"/>
<line x1="237.1" y1="197.0" x2="239.3" y2="198.0"/>
<line x1="235.2" y1="200.4" x2="238.1" y2="201.7"/>
<line x1="233.2" y1="203.7" x2="236.9" y2="205.3"/>
<line x1="231.3" y1="207.0" x2="235.7" y2="208.9"/>
<line x1="229.4" y1="210.3" x2="234.5" y2="212.6"/>
<line x1="143.6" y1="137.6" x2="144.4" y2="137.6"/>
<line x1="143.2" y1="145.2" x2="144.8" y2="145.2"/>
<line x1="142.8" y1="152.9" x2="145.2" y2="152.9"/>
<line x1="142.4" y1="160.5" x2="145.6" y2="160.5"/>
<line x1="142.0" y1="168.1" x2="146.0" y2="168.1"/>
<line x1="141.6" y1="175.7" x2="146.4" y2="175.7"/>
<line x1="141.2" y1="183.3" x2="146.8" y2="183.3"/>
<line x1="234.9" y1="247.8" x2="227.0" y2="285.0"/>
<line x1="234.9" y1="247.8" x2="271.1" y2="236.1"/>
<line x1="227.0" y1="285.0" x2="190.8" y2="296.8"/>
<polygon points="296.016194 241.372822 271.912234 232.160005 270.248940 239.985185 " />
<line x1="271.1" y1="236.1" x2="279.0" y2="198.9"/>
<line x1="65.5" y1="71.1" x2="66.2" y2="70.7"/>
<line x1="67.1" y1="74.6" x2="68.5" y2="73.8"/>
<line x1="68.6" y1="78.1" x2="70.7" y2="76.9"/>
<line x1="70.2" y1="81.6" x2="73.0" y2="80.0"/>
<line x1="71.8" y1="85.1" x2="75.2" y2="83.1"/>
<line x1="73.3" y1="88.6" x2="77.5" y2="86.2"/>
<line x1="74.9" y1="92.1" x2="79.7" y2="89.3"/>
<line x1="78.0" y1="92.0" x2="49.9" y2="92.0"/>
<line x1="251.8" y1="105.3" x2="252.2" y2="106.0"/>
<line x1="245.0" y1="108.8" x2="245.8" y2="110.2"/>
<line x1="238.3" y1="112.2" x2="239.5" y2="114.3"/>
<line x1="231.5" y1="115.7" x2="233.1" y2="118.5"/>
<line x1="224.7" y1="119.2" x2="226.7" y2="122.6"/>
<line x1="217.9" y1="122.6" x2="220.3" y2="126.8"/>
<line x1="211.1" y1="126.1" x2="213.9" y2="130.9"/>
<polygon points="297.936129 215.913206 281.667896 195.882692 276.314851 201.827851 " />
<polygon points="232.436025 125.760047 239.150651 150.675718 246.459015 147.421825 " />
<polygon points="154.825101 161.795113 178.902412 152.512873 174.902412 145.584670 " />
<line x1="143.6" y1="67.6" x2="144.4" y2="67.6"/>
<line x1="143.2" y1="71.4" x2="144.8" y2="71.4"/>
<line x1="142.8" y1="75.2" x2="145.2" y2="75.2"/>
<line x1="142.4" y1="79.0" x2="145.6" y2="79.0"/>
<line x1="142.0" y1="82.8" x2="146.0" y2="82.8"/>
<line x1="141.6" y1="86.6" x2="146.4" y2="86.6"/>
<line x1="141.2" y1="90.5" x2="146.8" y2="90.5"/>
<line x1="188.7" y1="51.7" x2="189.4" y2="52.1"/>
<line x1="186.5" y1="54.8" x2="187.9" y2="55.6"/>
<line x1="184.2" y1="57.9" x2="186.3" y2="59.1"/>
<line x1="182.0" y1="60.9" x2="184.8" y2="62.5"/>
<line x1="179.7" y1="64.0" x2="183.2" y2="66.0"/>
<line x1="177.5" y1="67.1" x2="181.6" y2="69.5"/>
<line x1="175.2" y1="70.2" x2="180.1" y2="73.0"/>
<line x1="176.9" y1="73.0" x2="162.8" y2="48.6"/>
<line x1="188.8" y1="299.0" x2="167.9" y2="280.2"/>
<line x1="192.8" y1="294.6" x2="171.9" y2="275.7"/>
<line x1="190.8" y1="296.8" x2="184.9" y2="324.3"/>
<line x1="301.4" y1="168.1" x2="279.0" y2="137.3"/>
<line x1="279.0" y1="137.3" x2="242.8" y2="149.0"/>
<line x1="242.8" y1="149.0" x2="242.8" y2="187.1"/>
<line x1="242.8" y1="187.1" x2="279.0" y2="198.9"/>
<line x1="279.0" y1="198.9" x2="301.4" y2="168.1"/>
<line x1="209.9" y1="130.0" x2="176.9" y2="149.0"/>
<line x1="176.9" y1="149.0" x2="176.9" y2="187.1"/>
<line x1="176.9" y1="187.1" x2="209.9" y2="206.1"/>
<line x1="209.9" y1="206.1" x2="242.8" y2="187.1"/>
<line x1="242.8" y1="149.0" x2="209.9" y2="130.0"/>
<line x1="144.0" y1="92.0" x2="144.0" y2="130.0"/>
<line x1="144.0" y1="130.0" x2="176.9" y2="149.0"/>
<line x1="209.9" y1="130.0" x2="209.9" y2="92.0"/>
<line x1="209.9" y1="92.0" x2="176.9" y2="73.0"/>
<line x1="176.9" y1="73.0" x2="144.0" y2="92.0"/>
<line x1="78.0" y1="130.0" x2="111.0" y2="149.0"/>
<line x1="111.0" y1="149.0" x2="144.0" y2="130.0"/>
<line x1="144.0" y1="92.0" x2="111.0" y2="73.0"/>
<line x1="111.0" y1="73.0" x2="78.0" y2="92.0"/>
<line x1="78.0" y1="92.0" x2="78.0" y2="130.0"/>
<text x="276.838307" y="277.059136" fill="rgb(102,102,102)"  stroke="rgb(102,102,102)" stroke-width="1" font-size="16" >CH</text>
<text x="300.838307" y="281.859136" fill="rgb(102,102,102)"  stroke="rgb(102,102,102)" stroke-width="1" font-size="13" >3</text>
<text x="203.729000" y="226.656843" fill="rgb(102,102,102)"  stroke="rgb(102,102,102)" stroke-width="1" font-size="16" >H</text>
<text x="215.729000" y="231.456843" fill="rgb(102,102,102)"  stroke="rgb(102,102,102)" stroke-width="1" font-size="13" >3</text>
<text x="222.229000" y="226.656843" fill="rgb(102,102,102)"  stroke="rgb(102,102,102)" stroke-width="1" font-size="16" >C</text>
<text x="137.951201" y="210.921942" fill="rgb(102,102,102)"  stroke="rgb(102,102,102)" stroke-width="1" font-size="16" >CH</text>
<text x="161.951201" y="215.721942" fill="rgb(102,102,102)"  stroke="rgb(102,102,102)" stroke-width="1" font-size="13" >3</text>
<text x="24.400000" y="100.295601" fill="rgb(255,12,12)"  stroke="rgb(255,12,12)" stroke-width="1" font-size="16" >HO</text>
<text x="142.278022" y="48.320000" fill="rgb(255,12,12)"  stroke="rgb(255,12,12)" stroke-width="1" font-size="16" >HO</text>
<text x="158.920965" y="279.665754" fill="rgb(255,12,12)"  stroke="rgb(255,12,12)" stroke-width="1" font-size="16" >O</text>
<text x="167.285933" y="338.822681" fill="rgb(255,12,12)"  stroke="rgb(255,12,12)" stroke-width="1" font-size="16" >HO</text>
<text x="302.297911" y="248.783381" fill="rgb(191,191,191)"  stroke="rgb(191,191,191)" stroke-width="1" font-size="16" >H</text>
<text x="55.424390" y="67.344390" fill="rgb(191,191,191)"  stroke="rgb(191,191,191)" stroke-width="1" font-size="16" >H</text>
<text x="269.756043" y="100.295601" fill="rgb(191,191,191)"  stroke="rgb(191,191,191)" stroke-width="1" font-size="16" >H</text>
<text x="301.267128" y="229.114875" fill="rgb(191,191,191)"  stroke="rgb(191,191,191)" stroke-width="1" font-size="16" >H</text>
<text x="223.729000" y="122.609481" fill="rgb(191,191,191)"  stroke="rgb(191,191,191)" stroke-width="1" font-size="16" >H</text>
<text x="140.351201" y="172.873162" fill="rgb(191,191,191)"  stroke="rgb(191,191,191)" stroke-width="1" font-size="16" >H</text>
<text x="137.951201" y="62.246820" fill="rgb(191,191,191)"  stroke="rgb(191,191,191)" stroke-width="1" font-size="16" >H</text>
<text x="189.926802" y="48.320000" fill="rgb(191,191,191)"  stroke="rgb(191,191,191)" stroke-width="1" font-size="16" >H</text>
<text font-size="18.000000" fill ="black" font-family="sans-serif"
x="140.000000" y="20.000000" ></text>
<title> - OBDepict</title>
</svg>
