<?xml version="1.0"?>
<svg xmlns="http://www.w3.org/2000/svg"
xmlns:xlink="http://www.w3.org/1999/xlink" xmlns:cml="http://www.xml-cml.org/schema" width="287.846" height="314.641" x="0" y="0" font-family="sans-serif" stroke="rgb(0,0,0)" stroke-width="1" >
<line x1="178.6" y1="60.0" x2="178.6" y2="100.0"/>
<line x1="178.6" y1="60.0" x2="152.9" y2="45.2"/>
<line x1="109.3" y1="220.0" x2="74.6" y2="240.0"/>
<line x1="109.3" y1="220.0" x2="109.3" y2="190.4"/>
<line x1="213.2" y1="120.0" x2="238.8" y2="105.2"/>
<line x1="213.2" y1="160.0" x2="238.8" y2="174.8"/>
<line x1="178.6" y1="180.0" x2="178.6" y2="209.6"/>
<line x1="143.9" y1="160.0" x2="118.3" y2="174.8"/>
<line x1="74.6" y1="240.0" x2="59.8" y2="265.6"/>
<line x1="74.6" y1="240.0" x2="89.4" y2="265.6"/>
<line x1="74.6" y1="240.0" x2="49.0" y2="225.2"/>
<line x1="178.6" y1="100.0" x2="213.2" y2="120.0"/>
<line x1="213.2" y1="120.0" x2="213.2" y2="160.0"/>
<line x1="213.2" y1="160.0" x2="178.6" y2="180.0"/>
<line x1="178.6" y1="180.0" x2="143.9" y2="160.0"/>
<line x1="143.9" y1="160.0" x2="143.9" y2="130.4"/>
<line x1="152.9" y1="114.8" x2="178.6" y2="100.0"/>
<text x="39.041016" y="279.441016" fill="rgb(30,239,30)"  stroke="rgb(30,239,30)" stroke-width="1" font-size="16" >Cl</text>
<text x="88.641016" y="279.441016" fill="rgb(30,239,30)"  stroke="rgb(30,239,30)" stroke-width="1" font-size="16" >Cl</text>
<text x="24.400000" y="228.320000" fill="rgb(30,239,30)"  stroke="rgb(30,239,30)" stroke-width="1" font-size="16" >Cl</text>
<text x="128.323048" y="48.320000" fill="rgb(255,12,12)"  stroke="rgb(255,12,12)" stroke-width="1" font-size="16" >HO</text>
<text x="241.846097" y="108.320000" fill="rgb(255,12,12)"  stroke="rgb(255,12,12)" stroke-width="1" font-size="16" >OH</text>
<text x="241.846097" y="184.800000" fill="rgb(255,12,12)"  stroke="rgb(255,12,12)" stroke-width="1" font-size="16" >OH</text>
<text x="172.564065" y="224.800000" fill="rgb(255,12,12)"  stroke="rgb(255,12,12)" stroke-width="1" font-size="16" >OH</text>
<text x="105.682032" y="188.320000" fill="rgb(255,12,12)"  stroke="rgb(255,12,12)" stroke-width="1" font-size="16" >O</text>
<text x="140.323048" y="128.320000" fill="rgb(255,12,12)"  stroke="rgb(255,12,12)" stroke-width="1" font-size="16" >O</text>
<text font-size="18.000000" fill ="black" font-family="sans-serif"
x="140.000000" y="20.000000" ></text>
<title> - OBDepict</title>
</svg>
