<?xml version="1.0"?>
<svg xmlns="http://www.w3.org/2000/svg"
xmlns:xlink="http://www.w3.org/1999/xlink" xmlns:cml="http://www.xml-cml.org/schema" width="357.128" height="380" x="0" y="0" font-family="sans-serif" stroke="rgb(0,0,0)" stroke-width="1" >
<line x1="282.5" y1="50.4" x2="282.5" y2="80.0"/>
<line x1="308.1" y1="94.8" x2="282.5" y2="80.0"/>
<line x1="169.6" y1="334.8" x2="143.9" y2="320.0"/>
<line x1="118.3" y1="334.8" x2="143.9" y2="320.0"/>
<line x1="74.6" y1="50.4" x2="74.6" y2="80.0"/>
<line x1="49.0" y1="94.8" x2="74.6" y2="80.0"/>
<line x1="247.8" y1="100.0" x2="247.8" y2="140.0"/>
<line x1="246.3" y1="97.4" x2="281.0" y2="77.4"/>
<line x1="249.3" y1="102.6" x2="284.0" y2="82.6"/>
<line x1="143.9" y1="280.0" x2="178.6" y2="260.0"/>
<line x1="146.9" y1="280.0" x2="146.9" y2="320.0"/>
<line x1="140.9" y1="280.0" x2="140.9" y2="320.0"/>
<line x1="247.8" y1="140.0" x2="213.2" y2="160.0"/>
<line x1="178.6" y1="260.0" x2="178.6" y2="220.0"/>
<line x1="109.3" y1="100.0" x2="74.6" y2="80.0"/>
<line x1="109.3" y1="100.0" x2="109.3" y2="140.0"/>
<line x1="109.3" y1="140.0" x2="143.9" y2="160.0"/>
<line x1="110.8" y1="142.6" x2="85.1" y2="157.4"/>
<line x1="107.8" y1="137.4" x2="82.1" y2="152.2"/>
<line x1="213.2" y1="200.0" x2="238.8" y2="214.8"/>
<line x1="178.6" y1="140.0" x2="178.6" y2="110.4"/>
<line x1="143.9" y1="200.0" x2="118.3" y2="214.8"/>
<line x1="213.2" y1="160.0" x2="178.6" y2="140.0"/>
<line x1="178.6" y1="140.0" x2="143.9" y2="160.0"/>
<line x1="177.0" y1="149.2" x2="152.7" y2="163.2"/>
<line x1="143.9" y1="160.0" x2="143.9" y2="200.0"/>
<line x1="143.9" y1="200.0" x2="178.6" y2="220.0"/>
<line x1="152.7" y1="196.8" x2="177.0" y2="210.8"/>
<line x1="178.6" y1="220.0" x2="213.2" y2="200.0"/>
<line x1="213.2" y1="200.0" x2="213.2" y2="160.0"/>
<line x1="206.0" y1="194.0" x2="206.0" y2="166.0"/>
<text x="276.487113" y="48.320000" fill="rgb(102,102,102)"  stroke="rgb(102,102,102)" stroke-width="1" font-size="16" >CH</text>
<text x="300.487113" y="56.000000" fill="rgb(102,102,102)"  stroke="rgb(102,102,102)" stroke-width="1" font-size="13" >3</text>
<text x="311.128129" y="104.800000" fill="rgb(102,102,102)"  stroke="rgb(102,102,102)" stroke-width="1" font-size="16" >CH</text>
<text x="335.128129" y="109.600000" fill="rgb(102,102,102)"  stroke="rgb(102,102,102)" stroke-width="1" font-size="13" >3</text>
<text x="172.564065" y="344.800000" fill="rgb(102,102,102)"  stroke="rgb(102,102,102)" stroke-width="1" font-size="16" >CH</text>
<text x="196.564065" y="349.600000" fill="rgb(102,102,102)"  stroke="rgb(102,102,102)" stroke-width="1" font-size="13" >3</text>
<text x="85.682032" y="344.800000" fill="rgb(102,102,102)"  stroke="rgb(102,102,102)" stroke-width="1" font-size="16" >H</text>
<text x="97.682032" y="349.600000" fill="rgb(102,102,102)"  stroke="rgb(102,102,102)" stroke-width="1" font-size="13" >3</text>
<text x="104.182032" y="344.800000" fill="rgb(102,102,102)"  stroke="rgb(102,102,102)" stroke-width="1" font-size="16" >C</text>
<text x="68.641016" y="48.320000" fill="rgb(102,102,102)"  stroke="rgb(102,102,102)" stroke-width="1" font-size="16" >CH</text>
<text x="92.641016" y="56.000000" fill="rgb(102,102,102)"  stroke="rgb(102,102,102)" stroke-width="1" font-size="13" >3</text>
<text x="16.400000" y="104.800000" fill="rgb(102,102,102)"  stroke="rgb(102,102,102)" stroke-width="1" font-size="16" >H</text>
<text x="28.400000" y="109.600000" fill="rgb(102,102,102)"  stroke="rgb(102,102,102)" stroke-width="1" font-size="13" >3</text>
<text x="34.900000" y="104.800000" fill="rgb(102,102,102)"  stroke="rgb(102,102,102)" stroke-width="1" font-size="16" >C</text>
<text x="71.041016" y="164.800000" fill="rgb(255,12,12)"  stroke="rgb(255,12,12)" stroke-width="1" font-size="16" >O</text>
<text x="243.046097" y="239.200000" fill="rgb(255,12,12)"  stroke="rgb(255,12,12)" stroke-width="1" font-size="32" >-</text>
<text x="241.846097" y="224.800000" fill="rgb(255,12,12)"  stroke="rgb(255,12,12)" stroke-width="1" font-size="16" >O</text>
<text x="172.564065" y="108.320000" fill="rgb(255,12,12)"  stroke="rgb(255,12,12)" stroke-width="1" font-size="16" >OH</text>
<text x="93.682032" y="224.800000" fill="rgb(255,12,12)"  stroke="rgb(255,12,12)" stroke-width="1" font-size="16" >HO</text>
<text font-size="18.000000" fill ="black" font-family="sans-serif"
x="140.000000" y="20.000000" ></text>
<title> - OBDepict</title>
</svg>
