<?xml version="1.0"?>
<svg xmlns="http://www.w3.org/2000/svg"
xmlns:xlink="http://www.w3.org/1999/xlink" xmlns:cml="http://www.xml-cml.org/schema" width="668.897" height="420" x="0" y="0" font-family="sans-serif" stroke="rgb(0,0,0)" stroke-width="1" >
<line x1="386.4" y1="189.6" x2="386.4" y2="160.0"/>
<line x1="213.2" y1="110.4" x2="213.2" y2="140.0"/>
<line x1="490.3" y1="129.6" x2="490.3" y2="100.0"/>
<line x1="134.9" y1="214.8" x2="109.3" y2="200.0"/>
<line x1="619.9" y1="145.2" x2="594.3" y2="160.0"/>
<line x1="83.6" y1="334.8" x2="109.3" y2="320.0"/>
<line x1="510.2" y1="134.4" x2="525.0" y2="160.0"/>
<line x1="495.4" y1="160.0" x2="525.0" y2="160.0"/>
<line x1="129.1" y1="234.4" x2="143.9" y2="260.0"/>
<line x1="158.7" y1="234.4" x2="143.9" y2="260.0"/>
<line x1="317.1" y1="160.0" x2="317.1" y2="189.6"/>
<line x1="315.6" y1="162.6" x2="281.0" y2="142.6"/>
<line x1="318.6" y1="157.4" x2="284.0" y2="137.4"/>
<line x1="317.1" y1="160.0" x2="351.8" y2="140.0"/>
<line x1="282.5" y1="140.0" x2="282.5" y2="110.4"/>
<line x1="282.5" y1="140.0" x2="247.8" y2="160.0"/>
<line x1="421.1" y1="100.0" x2="395.4" y2="85.2"/>
<line x1="424.1" y1="100.0" x2="424.1" y2="140.0"/>
<line x1="418.1" y1="100.0" x2="418.1" y2="140.0"/>
<line x1="421.1" y1="100.0" x2="455.7" y2="80.0"/>
<line x1="143.9" y1="140.0" x2="143.9" y2="110.4"/>
<line x1="145.4" y1="137.4" x2="180.1" y2="157.4"/>
<line x1="142.4" y1="142.6" x2="177.1" y2="162.6"/>
<line x1="143.9" y1="140.0" x2="109.3" y2="160.0"/>
<line x1="351.8" y1="140.0" x2="351.8" y2="110.4"/>
<line x1="353.3" y1="137.4" x2="387.9" y2="157.4"/>
<line x1="350.3" y1="142.6" x2="384.9" y2="162.6"/>
<line x1="247.8" y1="160.0" x2="247.8" y2="189.6"/>
<line x1="246.3" y1="162.6" x2="211.7" y2="142.6"/>
<line x1="249.3" y1="157.4" x2="214.7" y2="137.4"/>
<line x1="421.1" y1="140.0" x2="446.7" y2="154.8"/>
<line x1="421.1" y1="140.0" x2="386.4" y2="160.0"/>
<line x1="178.6" y1="160.0" x2="178.6" y2="189.6"/>
<line x1="178.6" y1="160.0" x2="213.2" y2="140.0"/>
<line x1="455.7" y1="80.0" x2="455.7" y2="50.4"/>
<line x1="457.2" y1="77.4" x2="491.8" y2="97.4"/>
<line x1="454.2" y1="82.6" x2="488.8" y2="102.6"/>
<line x1="109.3" y1="160.0" x2="83.6" y2="145.2"/>
<line x1="112.3" y1="160.0" x2="112.3" y2="200.0"/>
<line x1="106.3" y1="160.0" x2="106.3" y2="200.0"/>
<line x1="525.0" y1="80.0" x2="525.0" y2="50.4"/>
<line x1="526.5" y1="77.4" x2="561.1" y2="97.4"/>
<line x1="523.5" y1="82.6" x2="558.1" y2="102.6"/>
<line x1="525.0" y1="80.0" x2="490.3" y2="100.0"/>
<line x1="74.6" y1="220.0" x2="49.0" y2="205.2"/>
<line x1="77.6" y1="220.0" x2="77.6" y2="260.0"/>
<line x1="71.6" y1="220.0" x2="71.6" y2="260.0"/>
<line x1="74.6" y1="220.0" x2="109.3" y2="200.0"/>
<line x1="559.6" y1="100.0" x2="585.2" y2="85.2"/>
<line x1="559.6" y1="100.0" x2="559.6" y2="140.0"/>
<line x1="74.6" y1="260.0" x2="49.0" y2="274.8"/>
<line x1="74.6" y1="260.0" x2="109.3" y2="280.0"/>
<line x1="594.3" y1="200.0" x2="619.9" y2="214.8"/>
<line x1="143.9" y1="340.0" x2="143.9" y2="369.6"/>
<line x1="594.3" y1="160.0" x2="594.3" y2="200.0"/>
<line x1="594.3" y1="200.0" x2="559.6" y2="220.0"/>
<line x1="559.6" y1="220.0" x2="525.0" y2="200.0"/>
<line x1="525.0" y1="200.0" x2="525.0" y2="160.0"/>
<line x1="525.0" y1="160.0" x2="559.6" y2="140.0"/>
<line x1="559.6" y1="140.0" x2="594.3" y2="160.0"/>
<line x1="561.2" y1="149.2" x2="585.5" y2="163.2"/>
<line x1="109.3" y1="320.0" x2="143.9" y2="340.0"/>
<line x1="143.9" y1="340.0" x2="178.6" y2="320.0"/>
<line x1="178.6" y1="320.0" x2="178.6" y2="280.0"/>
<line x1="178.6" y1="280.0" x2="143.9" y2="260.0"/>
<line x1="143.9" y1="260.0" x2="109.3" y2="280.0"/>
<line x1="109.3" y1="280.0" x2="109.3" y2="320.0"/>
<line x1="116.5" y1="286.0" x2="116.5" y2="314.0"/>
<text x="380.410162" y="204.800000" fill="rgb(102,102,102)"  stroke="rgb(102,102,102)" stroke-width="1" font-size="16" >CH</text>
<text x="404.410162" y="209.600000" fill="rgb(102,102,102)"  stroke="rgb(102,102,102)" stroke-width="1" font-size="13" >3</text>
<text x="207.205081" y="108.320000" fill="rgb(102,102,102)"  stroke="rgb(102,102,102)" stroke-width="1" font-size="16" >CH</text>
<text x="231.205081" y="116.000000" fill="rgb(102,102,102)"  stroke="rgb(102,102,102)" stroke-width="1" font-size="13" >3</text>
<text x="484.333210" y="144.800000" fill="rgb(102,102,102)"  stroke="rgb(102,102,102)" stroke-width="1" font-size="16" >CH</text>
<text x="508.333210" y="149.600000" fill="rgb(102,102,102)"  stroke="rgb(102,102,102)" stroke-width="1" font-size="13" >3</text>
<text x="137.923048" y="224.800000" fill="rgb(102,102,102)"  stroke="rgb(102,102,102)" stroke-width="1" font-size="16" >CH</text>
<text x="161.923048" y="229.600000" fill="rgb(102,102,102)"  stroke="rgb(102,102,102)" stroke-width="1" font-size="13" >3</text>
<text x="622.897275" y="148.320000" fill="rgb(102,102,102)"  stroke="rgb(102,102,102)" stroke-width="1" font-size="16" >CH</text>
<text x="646.897275" y="156.000000" fill="rgb(102,102,102)"  stroke="rgb(102,102,102)" stroke-width="1" font-size="13" >3</text>
<text x="51.041016" y="344.800000" fill="rgb(102,102,102)"  stroke="rgb(102,102,102)" stroke-width="1" font-size="16" >H</text>
<text x="63.041016" y="349.600000" fill="rgb(102,102,102)"  stroke="rgb(102,102,102)" stroke-width="1" font-size="13" >3</text>
<text x="69.541016" y="344.800000" fill="rgb(102,102,102)"  stroke="rgb(102,102,102)" stroke-width="1" font-size="16" >C</text>
<text x="481.374226" y="133.678984" fill="rgb(102,102,102)"  stroke="rgb(102,102,102)" stroke-width="1" font-size="16" >H</text>
<text x="493.374226" y="141.358984" fill="rgb(102,102,102)"  stroke="rgb(102,102,102)" stroke-width="1" font-size="13" >3</text>
<text x="499.874226" y="133.678984" fill="rgb(102,102,102)"  stroke="rgb(102,102,102)" stroke-width="1" font-size="16" >C</text>
<text x="461.374226" y="164.800000" fill="rgb(102,102,102)"  stroke="rgb(102,102,102)" stroke-width="1" font-size="16" >H</text>
<text x="473.374226" y="169.600000" fill="rgb(102,102,102)"  stroke="rgb(102,102,102)" stroke-width="1" font-size="13" >3</text>
<text x="479.874226" y="164.800000" fill="rgb(102,102,102)"  stroke="rgb(102,102,102)" stroke-width="1" font-size="16" >C</text>
<text x="100.323048" y="233.678984" fill="rgb(102,102,102)"  stroke="rgb(102,102,102)" stroke-width="1" font-size="16" >H</text>
<text x="112.323048" y="241.358984" fill="rgb(102,102,102)"  stroke="rgb(102,102,102)" stroke-width="1" font-size="13" >3</text>
<text x="118.823048" y="233.678984" fill="rgb(102,102,102)"  stroke="rgb(102,102,102)" stroke-width="1" font-size="16" >C</text>
<text x="157.923048" y="233.678984" fill="rgb(102,102,102)"  stroke="rgb(102,102,102)" stroke-width="1" font-size="16" >CH</text>
<text x="181.923048" y="241.358984" fill="rgb(102,102,102)"  stroke="rgb(102,102,102)" stroke-width="1" font-size="13" >3</text>
<text x="622.897275" y="224.800000" fill="rgb(255,12,12)"  stroke="rgb(255,12,12)" stroke-width="1" font-size="16" >OH</text>
<text x="137.923048" y="384.800000" fill="rgb(255,12,12)"  stroke="rgb(255,12,12)" stroke-width="1" font-size="16" >OH</text>
<text x="311.128129" y="204.800000" fill="rgb(191,191,191)"  stroke="rgb(191,191,191)" stroke-width="1" font-size="16" >H</text>
<text x="276.487113" y="108.320000" fill="rgb(191,191,191)"  stroke="rgb(191,191,191)" stroke-width="1" font-size="16" >H</text>
<text x="382.810162" y="88.320000" fill="rgb(191,191,191)"  stroke="rgb(191,191,191)" stroke-width="1" font-size="16" >H</text>
<text x="137.923048" y="108.320000" fill="rgb(191,191,191)"  stroke="rgb(191,191,191)" stroke-width="1" font-size="16" >H</text>
<text x="345.769145" y="108.320000" fill="rgb(191,191,191)"  stroke="rgb(191,191,191)" stroke-width="1" font-size="16" >H</text>
<text x="241.846097" y="204.800000" fill="rgb(191,191,191)"  stroke="rgb(191,191,191)" stroke-width="1" font-size="16" >H</text>
<text x="449.692194" y="164.800000" fill="rgb(191,191,191)"  stroke="rgb(191,191,191)" stroke-width="1" font-size="16" >H</text>
<text x="172.564065" y="204.800000" fill="rgb(191,191,191)"  stroke="rgb(191,191,191)" stroke-width="1" font-size="16" >H</text>
<text x="449.692194" y="48.320000" fill="rgb(191,191,191)"  stroke="rgb(191,191,191)" stroke-width="1" font-size="16" >H</text>
<text x="71.041016" y="148.320000" fill="rgb(191,191,191)"  stroke="rgb(191,191,191)" stroke-width="1" font-size="16" >H</text>
<text x="518.974226" y="48.320000" fill="rgb(191,191,191)"  stroke="rgb(191,191,191)" stroke-width="1" font-size="16" >H</text>
<text x="36.400000" y="208.320000" fill="rgb(191,191,191)"  stroke="rgb(191,191,191)" stroke-width="1" font-size="16" >H</text>
<text x="588.256258" y="88.320000" fill="rgb(191,191,191)"  stroke="rgb(191,191,191)" stroke-width="1" font-size="16" >H</text>
<text x="36.400000" y="284.800000" fill="rgb(191,191,191)"  stroke="rgb(191,191,191)" stroke-width="1" font-size="16" >H</text>
<text font-size="18.000000" fill ="black" font-family="sans-serif"
x="140.000000" y="20.000000" ></text>
<title> - OBDepict</title>
</svg>
