<?xml version="1.0"?>
<svg xmlns="http://www.w3.org/2000/svg"
xmlns:xlink="http://www.w3.org/1999/xlink" xmlns:cml="http://www.xml-cml.org/schema" width="1191.45" height="787.396" x="0" y="0" font-family="sans-serif" stroke="rgb(0,0,0)" stroke-width="1" >
<line x1="54.4" y1="738.6" x2="40.0" y2="713.7"/>
<line x1="1141.3" y1="310.5" x2="1112.6" y2="310.5"/>
<line x1="632.1" y1="506.0" x2="611.8" y2="485.7"/>
<line x1="959.3" y1="59.8" x2="966.7" y2="87.6"/>
<line x1="602.8" y1="284.8" x2="623.2" y2="264.4"/>
<line x1="40.0" y1="713.7" x2="59.4" y2="680.0"/>
<line x1="59.4" y1="680.0" x2="98.3" y2="680.0"/>
<line x1="98.3" y1="680.0" x2="117.8" y2="646.4"/>
<line x1="117.8" y1="646.4" x2="156.7" y2="646.4"/>
<line x1="156.7" y1="646.4" x2="176.1" y2="612.7"/>
<line x1="176.1" y1="612.7" x2="215.0" y2="612.7"/>
<line x1="215.0" y1="612.7" x2="234.4" y2="579.0"/>
<line x1="234.4" y1="579.0" x2="273.3" y2="579.0"/>
<line x1="273.3" y1="579.0" x2="292.8" y2="545.3"/>
<line x1="292.8" y1="545.3" x2="331.7" y2="545.3"/>
<line x1="331.7" y1="545.3" x2="351.1" y2="511.6"/>
<line x1="351.1" y1="511.6" x2="390.0" y2="511.6"/>
<line x1="390.0" y1="511.6" x2="404.4" y2="536.6"/>
<line x1="387.4" y1="510.1" x2="406.8" y2="476.5"/>
<line x1="392.6" y1="513.1" x2="412.0" y2="479.5"/>
<line x1="409.4" y1="478.0" x2="438.2" y2="478.0"/>
<line x1="409.4" y1="478.0" x2="390.0" y2="444.3"/>
<line x1="1132.0" y1="237.9" x2="1112.6" y2="204.2"/>
<line x1="1132.0" y1="237.9" x2="1117.6" y2="262.8"/>
<line x1="676.8" y1="448.1" x2="686.9" y2="410.5"/>
<line x1="676.8" y1="448.1" x2="649.0" y2="455.5"/>
<line x1="688.2" y1="96.7" x2="660.7" y2="124.2"/>
<line x1="688.2" y1="96.7" x2="716.0" y2="104.2"/>
<line x1="879.7" y1="284.6" x2="840.8" y2="284.6"/>
<line x1="879.7" y1="284.6" x2="894.1" y2="309.5"/>
<line x1="949.3" y1="152.7" x2="939.2" y2="190.3"/>
<line x1="949.3" y1="152.7" x2="977.1" y2="145.2"/>
<line x1="412.3" y1="244.4" x2="402.2" y2="282.0"/>
<line x1="412.3" y1="244.4" x2="391.9" y2="224.1"/>
<line x1="560.0" y1="118.7" x2="521.1" y2="186.1"/>
<line x1="560.0" y1="118.7" x2="545.6" y2="93.8"/>
<line x1="351.1" y1="405.4" x2="351.1" y2="444.3"/>
<line x1="351.1" y1="405.4" x2="376.0" y2="391.0"/>
<line x1="295.4" y1="409.1" x2="309.8" y2="434.0"/>
<line x1="290.2" y1="412.1" x2="304.6" y2="437.0"/>
<line x1="292.8" y1="410.6" x2="264.0" y2="410.6"/>
<line x1="1110.0" y1="312.0" x2="1095.6" y2="287.0"/>
<line x1="1115.2" y1="309.0" x2="1100.8" y2="284.0"/>
<line x1="1112.6" y1="310.5" x2="1098.2" y2="335.4"/>
<line x1="608.9" y1="484.9" x2="616.3" y2="457.1"/>
<line x1="614.7" y1="486.4" x2="622.1" y2="458.6"/>
<line x1="611.8" y1="485.7" x2="584.0" y2="493.1"/>
<line x1="968.9" y1="89.8" x2="948.5" y2="110.1"/>
<line x1="964.6" y1="85.5" x2="944.3" y2="105.9"/>
<line x1="966.7" y1="87.6" x2="994.5" y2="95.1"/>
<line x1="620.3" y1="265.2" x2="612.8" y2="237.4"/>
<line x1="626.1" y1="263.7" x2="618.6" y2="235.9"/>
<line x1="623.2" y1="264.4" x2="651.0" y2="271.9"/>
<line x1="351.5" y1="469.2" x2="350.7" y2="469.2"/>
<line x1="351.9" y1="465.3" x2="350.3" y2="465.3"/>
<line x1="352.3" y1="461.4" x2="349.9" y2="461.4"/>
<line x1="352.7" y1="457.5" x2="349.5" y2="457.5"/>
<line x1="353.1" y1="453.6" x2="349.1" y2="453.6"/>
<line x1="353.5" y1="449.7" x2="348.7" y2="449.7"/>
<line x1="353.9" y1="445.8" x2="348.3" y2="445.8"/>
<line x1="351.1" y1="444.3" x2="390.0" y2="444.3"/>
<line x1="351.1" y1="444.3" x2="322.3" y2="444.3"/>
<polygon points="390.000000 418.231516 386.000000 444.287072 394.000000 444.287072 " />
<line x1="390.0" y1="444.3" x2="414.9" y2="429.9"/>
<line x1="1008.5" y1="318.0" x2="1007.8" y2="317.6"/>
<line x1="1010.7" y1="314.8" x2="1009.4" y2="314.0"/>
<line x1="1013.0" y1="311.6" x2="1011.0" y2="310.4"/>
<line x1="1015.3" y1="308.5" x2="1012.6" y2="306.9"/>
<line x1="1017.6" y1="305.3" x2="1014.2" y2="303.3"/>
<line x1="1019.9" y1="302.1" x2="1015.7" y2="299.7"/>
<line x1="1022.2" y1="299.0" x2="1017.3" y2="296.2"/>
<line x1="1020.5" y1="296.2" x2="1034.9" y2="321.1"/>
<line x1="532.8" y1="417.4" x2="532.6" y2="416.6"/>
<line x1="536.7" y1="416.7" x2="536.3" y2="415.2"/>
<line x1="540.6" y1="416.1" x2="539.9" y2="413.8"/>
<line x1="544.4" y1="415.5" x2="543.6" y2="412.4"/>
<line x1="548.3" y1="414.9" x2="547.3" y2="411.0"/>
<line x1="552.1" y1="414.3" x2="550.9" y2="409.6"/>
<line x1="556.0" y1="413.6" x2="554.6" y2="408.2"/>
<line x1="556.8" y1="410.5" x2="549.3" y2="438.3"/>
<polygon points="867.435720 52.396048 870.315691 78.599058 878.043097 76.528506 " />
<line x1="874.2" y1="77.6" x2="894.5" y2="57.2"/>
<polygon points="1135.126378 191.177552 1110.561605 200.741228 1114.561605 207.669432 " />
<line x1="1112.6" y1="204.2" x2="1073.7" y2="204.2"/>
<line x1="1112.6" y1="204.2" x2="1112.6" y2="175.4"/>
<polygon points="712.077094 417.281038 687.944637 406.673661 685.874084 414.401068 " />
<line x1="686.9" y1="410.5" x2="659.4" y2="383.0"/>
<line x1="686.9" y1="410.5" x2="707.3" y2="390.2"/>
<polygon points="653.992196 99.074332 656.872167 125.277342 664.599573 123.206790 " />
<line x1="853.6" y1="305.9" x2="852.9" y2="306.3"/>
<line x1="852.0" y1="302.3" x2="850.6" y2="303.1"/>
<line x1="850.4" y1="298.8" x2="848.3" y2="300.0"/>
<line x1="848.8" y1="295.2" x2="846.0" y2="296.8"/>
<line x1="847.2" y1="291.6" x2="843.7" y2="293.6"/>
<line x1="845.6" y1="288.1" x2="841.4" y2="290.5"/>
<line x1="844.0" y1="284.5" x2="839.1" y2="287.3"/>
<line x1="933.2" y1="214.4" x2="932.4" y2="214.2"/>
<line x1="934.6" y1="210.7" x2="933.0" y2="210.3"/>
<line x1="936.0" y1="207.1" x2="933.7" y2="206.5"/>
<line x1="937.4" y1="203.4" x2="934.3" y2="202.6"/>
<line x1="938.8" y1="199.8" x2="934.9" y2="198.8"/>
<line x1="940.2" y1="196.1" x2="935.5" y2="194.9"/>
<line x1="941.5" y1="192.5" x2="936.1" y2="191.0"/>
<line x1="939.2" y1="190.3" x2="901.7" y2="180.2"/>
<line x1="939.2" y1="190.3" x2="967.0" y2="197.7"/>
<polygon points="383.799229 263.578410 399.394862 284.830897 405.051716 279.174043 " />
<polygon points="508.067026 163.540582 517.630702 188.105355 524.558905 184.105355 " />
<polygon points="1067.256049 299.337758 1057.692373 274.772985 1050.764170 278.772985 " />
<line x1="1054.2" y1="276.8" x2="1083.0" y2="276.8"/>
<polygon points="587.604710 445.770283 598.212087 421.637826 590.484681 419.567273 " />
<line x1="594.3" y1="420.6" x2="614.7" y2="441.0"/>
<line x1="919.0" y1="87.2" x2="919.6" y2="87.7"/>
<line x1="916.0" y1="89.6" x2="917.1" y2="90.8"/>
<line x1="912.9" y1="92.1" x2="914.6" y2="93.8"/>
<line x1="909.9" y1="94.6" x2="912.2" y2="96.8"/>
<line x1="906.9" y1="97.0" x2="909.7" y2="99.9"/>
<line x1="903.8" y1="99.5" x2="907.2" y2="102.9"/>
<line x1="900.8" y1="102.0" x2="904.8" y2="105.9"/>
<line x1="901.7" y1="105.1" x2="929.5" y2="112.5"/>
<line x1="647.4" y1="223.3" x2="646.7" y2="223.5"/>
<line x1="646.8" y1="219.4" x2="645.3" y2="219.9"/>
<line x1="646.2" y1="215.6" x2="643.9" y2="216.2"/>
<line x1="645.6" y1="211.7" x2="642.5" y2="212.6"/>
<line x1="645.0" y1="207.9" x2="641.1" y2="208.9"/>
<line x1="644.3" y1="204.0" x2="639.7" y2="205.2"/>
<line x1="643.7" y1="200.1" x2="638.3" y2="201.6"/>
<line x1="640.6" y1="199.4" x2="620.3" y2="219.7"/>
<polygon points="1073.672716 178.149774 1069.672716 204.205330 1077.672716 204.205330 " />
<line x1="1073.7" y1="204.2" x2="1054.2" y2="237.9"/>
<line x1="1073.7" y1="204.2" x2="1048.8" y2="189.8"/>
<polygon points="677.834823 364.614707 656.582336 380.210340 662.239190 385.867194 " />
<line x1="659.4" y1="383.0" x2="621.8" y2="393.1"/>
<line x1="659.4" y1="383.0" x2="652.0" y2="355.2"/>
<polygon points="706.658527 133.316603 685.406040 148.912236 691.062894 154.569090 " />
<line x1="688.2" y1="151.7" x2="716.0" y2="159.2"/>
<line x1="865.7" y1="245.3" x2="865.7" y2="246.1"/>
<line x1="861.8" y1="244.9" x2="861.8" y2="246.5"/>
<line x1="857.9" y1="244.5" x2="857.9" y2="246.9"/>
<line x1="854.0" y1="244.1" x2="854.0" y2="247.3"/>
<line x1="850.1" y1="243.7" x2="850.1" y2="247.7"/>
<line x1="846.2" y1="243.3" x2="846.2" y2="248.1"/>
<line x1="842.3" y1="242.9" x2="842.3" y2="248.5"/>
<line x1="840.8" y1="245.7" x2="855.2" y2="220.8"/>
<line x1="895.6" y1="204.3" x2="894.8" y2="204.1"/>
<line x1="897.0" y1="200.7" x2="895.5" y2="200.3"/>
<line x1="898.4" y1="197.0" x2="896.1" y2="196.4"/>
<line x1="899.8" y1="193.4" x2="896.7" y2="192.5"/>
<line x1="901.2" y1="189.7" x2="897.3" y2="188.7"/>
<line x1="902.6" y1="186.1" x2="898.0" y2="184.8"/>
<line x1="904.0" y1="182.4" x2="898.6" y2="181.0"/>
<line x1="901.7" y1="180.2" x2="891.6" y2="142.6"/>
<line x1="901.7" y1="180.2" x2="873.9" y2="187.6"/>
<polygon points="475.019990 322.887763 448.816980 325.767734 450.887532 333.495141 " />
<line x1="449.9" y1="329.6" x2="470.2" y2="350.0"/>
<line x1="440.2" y1="374.4" x2="439.7" y2="375.0"/>
<line x1="437.8" y1="371.4" x2="436.6" y2="372.5"/>
<line x1="435.3" y1="368.4" x2="433.6" y2="370.1"/>
<line x1="432.8" y1="365.3" x2="430.6" y2="367.6"/>
<line x1="430.4" y1="362.3" x2="427.5" y2="365.1"/>
<line x1="427.9" y1="359.3" x2="424.5" y2="362.7"/>
<line x1="425.4" y1="356.3" x2="421.5" y2="360.2"/>
<line x1="422.4" y1="357.1" x2="414.9" y2="384.9"/>
<polygon points="760.399439 223.108718 769.963115 247.673491 776.891318 243.673491 " />
<line x1="773.4" y1="245.7" x2="744.6" y2="245.7"/>
<line x1="533.9" y1="285.2" x2="533.2" y2="285.6"/>
<line x1="532.3" y1="281.7" x2="530.9" y2="282.5"/>
<line x1="530.7" y1="278.1" x2="528.6" y2="279.3"/>
<line x1="529.1" y1="274.5" x2="526.3" y2="276.1"/>
<line x1="527.5" y1="271.0" x2="524.0" y2="273.0"/>
<line x1="525.9" y1="267.4" x2="521.7" y2="269.8"/>
<line x1="524.3" y1="263.8" x2="519.4" y2="266.6"/>
<line x1="521.1" y1="263.9" x2="506.7" y2="288.8"/>
<line x1="445.8" y1="267.9" x2="446.6" y2="268.1"/>
<line x1="444.4" y1="271.6" x2="446.0" y2="272.0"/>
<line x1="443.1" y1="275.2" x2="445.4" y2="275.9"/>
<line x1="441.7" y1="278.9" x2="444.8" y2="279.7"/>
<line x1="440.3" y1="282.5" x2="444.1" y2="283.6"/>
<line x1="438.9" y1="286.2" x2="443.5" y2="287.4"/>
<line x1="437.5" y1="289.8" x2="442.9" y2="291.3"/>
<line x1="439.8" y1="292.1" x2="467.6" y2="284.6"/>
<polygon points="567.801347 182.985026 551.309468 203.549799 558.237671 207.549799 " />
<line x1="554.8" y1="205.5" x2="583.6" y2="205.5"/>
<polygon points="703.337016 196.048119 679.204558 185.440742 677.134006 193.168149 " />
<line x1="678.2" y1="189.3" x2="693.1" y2="244.9"/>
<line x1="1079.1" y1="237.5" x2="1079.1" y2="238.3"/>
<line x1="1075.2" y1="237.1" x2="1075.2" y2="238.7"/>
<line x1="1071.3" y1="236.7" x2="1071.3" y2="239.1"/>
<line x1="1067.5" y1="236.3" x2="1067.5" y2="239.5"/>
<line x1="1063.6" y1="235.9" x2="1063.6" y2="239.9"/>
<line x1="1059.7" y1="235.5" x2="1059.7" y2="240.3"/>
<line x1="1055.8" y1="235.1" x2="1055.8" y2="240.7"/>
<line x1="639.7" y1="410.4" x2="639.2" y2="411.0"/>
<line x1="637.3" y1="407.4" x2="636.1" y2="408.5"/>
<line x1="634.8" y1="404.4" x2="633.1" y2="406.1"/>
<line x1="632.3" y1="401.3" x2="630.1" y2="403.6"/>
<line x1="629.9" y1="398.3" x2="627.0" y2="401.1"/>
<line x1="627.4" y1="395.3" x2="624.0" y2="398.7"/>
<line x1="624.9" y1="392.2" x2="621.0" y2="396.2"/>
<polygon points="916.780540 149.369835 892.648082 138.762458 890.577530 146.489865 " />
<line x1="819.2" y1="204.5" x2="819.9" y2="204.9"/>
<line x1="816.9" y1="207.6" x2="818.3" y2="208.4"/>
<line x1="814.6" y1="210.8" x2="816.7" y2="212.0"/>
<line x1="812.3" y1="214.0" x2="815.1" y2="215.6"/>
<line x1="810.0" y1="217.1" x2="813.5" y2="219.1"/>
<line x1="807.7" y1="220.3" x2="811.9" y2="222.7"/>
<line x1="805.5" y1="223.5" x2="810.3" y2="226.3"/>
<line x1="807.1" y1="226.2" x2="792.7" y2="201.3"/>
<polygon points="580.829125 244.438688 554.773570 240.438688 554.773570 248.438688 " />
<line x1="554.8" y1="244.4" x2="583.6" y2="294.3"/>
<polygon points="597.245286 151.199771 609.933490 174.306079 616.280316 169.435988 " />
<line x1="613.1" y1="171.9" x2="598.7" y2="196.8"/>
<polygon points="360.717682 337.093820 383.259143 350.760367 386.320611 343.369331 " />
<line x1="384.8" y1="347.1" x2="384.8" y2="375.8"/>
<line x1="777.1" y1="309.2" x2="776.3" y2="309.3"/>
<line x1="777.0" y1="305.3" x2="775.4" y2="305.5"/>
<line x1="776.9" y1="301.4" x2="774.5" y2="301.7"/>
<line x1="776.7" y1="297.5" x2="773.6" y2="297.9"/>
<line x1="776.6" y1="293.6" x2="772.7" y2="294.1"/>
<line x1="776.5" y1="289.6" x2="771.8" y2="290.3"/>
<line x1="776.4" y1="285.7" x2="770.9" y2="286.5"/>
<line x1="773.4" y1="284.6" x2="717.8" y2="269.7"/>
<polygon points="466.744776 228.577071 484.980992 247.612101 489.851084 241.265275 " />
<line x1="487.4" y1="244.4" x2="480.0" y2="272.2"/>
<line x1="983.5" y1="239.9" x2="984.0" y2="240.6"/>
<line x1="980.2" y1="242.0" x2="981.2" y2="243.3"/>
<line x1="976.9" y1="244.0" x2="978.3" y2="245.9"/>
<line x1="973.6" y1="246.1" x2="975.5" y2="248.6"/>
<line x1="970.2" y1="248.1" x2="972.7" y2="251.3"/>
<line x1="966.9" y1="250.2" x2="969.8" y2="254.0"/>
<line x1="963.6" y1="252.2" x2="967.0" y2="256.7"/>
<line x1="959.0" y1="261.2" x2="962.7" y2="289.7"/>
<line x1="953.0" y1="261.9" x2="956.8" y2="290.5"/>
<line x1="956.0" y1="261.6" x2="929.4" y2="250.5"/>
<polygon points="826.550427 125.192749 806.049784 91.905074 799.702958 96.775165 " />
<line x1="800.1" y1="93.2" x2="811.1" y2="66.6"/>
<line x1="805.6" y1="95.5" x2="816.7" y2="68.9"/>
<line x1="802.9" y1="94.3" x2="774.3" y2="98.1"/>
<line x1="570.4" y1="344.6" x2="570.3" y2="345.4"/>
<line x1="566.6" y1="343.7" x2="566.4" y2="345.3"/>
<line x1="562.8" y1="342.8" x2="562.5" y2="345.1"/>
<line x1="559.0" y1="341.9" x2="558.6" y2="345.0"/>
<line x1="555.2" y1="341.0" x2="554.7" y2="344.9"/>
<line x1="551.4" y1="340.0" x2="550.8" y2="344.8"/>
<line x1="547.6" y1="339.1" x2="546.9" y2="344.7"/>
<line x1="538.0" y1="342.2" x2="520.5" y2="365.1"/>
<line x1="533.3" y1="338.6" x2="515.8" y2="361.4"/>
<line x1="535.7" y1="340.4" x2="524.6" y2="313.8"/>
<line x1="986.9" y1="237.9" x2="979.4" y2="210.1"/>
<line x1="826.6" y1="125.2" x2="797.8" y2="175.0"/>
<line x1="574.2" y1="345.5" x2="588.6" y2="320.6"/>
<line x1="640.6" y1="199.4" x2="613.1" y2="171.9"/>
<line x1="613.1" y1="171.9" x2="620.6" y2="144.1"/>
<line x1="632.9" y1="131.7" x2="660.7" y2="124.2"/>
<line x1="660.7" y1="124.2" x2="688.2" y2="151.7"/>
<line x1="688.2" y1="151.7" x2="678.2" y2="189.3"/>
<line x1="678.2" y1="189.3" x2="640.6" y2="199.4"/>
<line x1="773.4" y1="245.7" x2="773.4" y2="284.6"/>
<line x1="773.4" y1="284.6" x2="798.3" y2="299.0"/>
<line x1="815.9" y1="299.0" x2="840.8" y2="284.6"/>
<line x1="840.8" y1="284.6" x2="840.8" y2="245.7"/>
<line x1="840.8" y1="245.7" x2="807.1" y2="226.2"/>
<line x1="807.1" y1="226.2" x2="773.4" y2="245.7"/>
<line x1="449.9" y1="329.6" x2="422.4" y2="357.1"/>
<line x1="422.4" y1="357.1" x2="384.8" y2="347.1"/>
<line x1="384.8" y1="347.1" x2="377.3" y2="319.3"/>
<line x1="381.9" y1="302.4" x2="402.2" y2="282.0"/>
<line x1="402.2" y1="282.0" x2="439.8" y2="292.1"/>
<line x1="439.8" y1="292.1" x2="449.9" y2="329.6"/>
<line x1="521.1" y1="263.9" x2="487.4" y2="244.4"/>
<line x1="487.4" y1="244.4" x2="487.4" y2="215.7"/>
<line x1="496.2" y1="200.5" x2="521.1" y2="186.1"/>
<line x1="521.1" y1="186.1" x2="554.8" y2="205.5"/>
<line x1="554.8" y1="205.5" x2="554.8" y2="244.4"/>
<line x1="554.8" y1="244.4" x2="521.1" y2="263.9"/>
<line x1="986.9" y1="276.8" x2="1020.5" y2="296.2"/>
<line x1="1020.5" y1="296.2" x2="1054.2" y2="276.8"/>
<line x1="1054.2" y1="276.8" x2="1054.2" y2="237.9"/>
<line x1="1054.2" y1="237.9" x2="1029.3" y2="223.5"/>
<line x1="1011.8" y1="223.5" x2="986.9" y2="237.9"/>
<line x1="986.9" y1="237.9" x2="986.9" y2="276.8"/>
<line x1="546.7" y1="373.0" x2="556.8" y2="410.5"/>
<line x1="556.8" y1="410.5" x2="594.3" y2="420.6"/>
<line x1="594.3" y1="420.6" x2="621.8" y2="393.1"/>
<line x1="621.8" y1="393.1" x2="614.4" y2="365.3"/>
<line x1="602.0" y1="352.9" x2="574.2" y2="345.5"/>
<line x1="574.2" y1="345.5" x2="546.7" y2="373.0"/>
<line x1="836.6" y1="87.6" x2="874.2" y2="77.6"/>
<line x1="874.2" y1="77.6" x2="901.7" y2="105.1"/>
<line x1="901.7" y1="105.1" x2="891.6" y2="142.6"/>
<line x1="891.6" y1="142.6" x2="863.8" y2="150.1"/>
<line x1="846.9" y1="145.5" x2="826.6" y2="125.2"/>
<line x1="826.6" y1="125.2" x2="836.6" y2="87.6"/>
<text x="53.444444" y="752.195963" fill="rgb(102,102,102)"  stroke="rgb(102,102,102)" stroke-width="1" font-size="16" >CH</text>
<text x="77.444444" y="756.995963" fill="rgb(102,102,102)"  stroke="rgb(102,102,102)" stroke-width="1" font-size="13" >3</text>
<text x="1145.450494" y="315.251750" fill="rgb(102,102,102)"  stroke="rgb(102,102,102)" stroke-width="1" font-size="16" >CH</text>
<text x="1169.450494" y="320.051750" fill="rgb(102,102,102)"  stroke="rgb(102,102,102)" stroke-width="1" font-size="13" >3</text>
<text x="633.280393" y="517.963526" fill="rgb(102,102,102)"  stroke="rgb(102,102,102)" stroke-width="1" font-size="16" >CH</text>
<text x="657.280393" y="522.763526" fill="rgb(102,102,102)"  stroke="rgb(102,102,102)" stroke-width="1" font-size="13" >3</text>
<text x="933.075185" y="58.385185" fill="rgb(102,102,102)"  stroke="rgb(102,102,102)" stroke-width="1" font-size="16" >H</text>
<text x="945.075185" y="66.065185" fill="rgb(102,102,102)"  stroke="rgb(102,102,102)" stroke-width="1" font-size="13" >3</text>
<text x="951.575185" y="58.385185" fill="rgb(102,102,102)"  stroke="rgb(102,102,102)" stroke-width="1" font-size="16" >C</text>
<text x="572.073491" y="296.730607" fill="rgb(102,102,102)"  stroke="rgb(102,102,102)" stroke-width="1" font-size="16" >H</text>
<text x="584.073491" y="301.530607" fill="rgb(102,102,102)"  stroke="rgb(102,102,102)" stroke-width="1" font-size="13" >3</text>
<text x="590.573491" y="296.730607" fill="rgb(102,102,102)"  stroke="rgb(102,102,102)" stroke-width="1" font-size="16" >C</text>
<text x="308.622222" y="449.087072" fill="rgb(12,12,255)"  stroke="rgb(12,12,255)" stroke-width="1" font-size="16" >N</text>
<text x="1087.117161" y="285.092985" fill="rgb(12,12,255)"  stroke="rgb(12,12,255)" stroke-width="1" font-size="16" >N</text>
<text x="615.846981" y="456.421146" fill="rgb(12,12,255)"  stroke="rgb(12,12,255)" stroke-width="1" font-size="16" >N</text>
<text x="933.241773" y="119.927564" fill="rgb(12,12,255)"  stroke="rgb(12,12,255)" stroke-width="1" font-size="16" >N</text>
<text x="609.506903" y="235.188227" fill="rgb(12,12,255)"  stroke="rgb(12,12,255)" stroke-width="1" font-size="16" >N</text>
<text x="1096.961605" y="276.362861" fill="rgb(255,12,12)"  stroke="rgb(255,12,12)" stroke-width="1" font-size="16" >HO</text>
<text x="623.680393" y="462.966331" fill="rgb(255,12,12)"  stroke="rgb(255,12,12)" stroke-width="1" font-size="16" >HO</text>
<text x="719.798249" y="111.608654" fill="rgb(255,12,12)"  stroke="rgb(255,12,12)" stroke-width="1" font-size="16" >OH</text>
<text x="893.118081" y="323.041145" fill="rgb(255,12,12)"  stroke="rgb(255,12,12)" stroke-width="1" font-size="16" >OH</text>
<text x="980.870740" y="150.946161" fill="rgb(255,12,12)"  stroke="rgb(255,12,12)" stroke-width="1" font-size="16" >OH</text>
<text x="369.189877" y="225.260091" fill="rgb(255,12,12)"  stroke="rgb(255,12,12)" stroke-width="1" font-size="16" >HO</text>
<text x="524.939248" y="93.389058" fill="rgb(255,12,12)"  stroke="rgb(255,12,12)" stroke-width="1" font-size="16" >HO</text>
<text x="238.288889" y="418.928306" fill="rgb(255,12,12)"  stroke="rgb(255,12,12)" stroke-width="1" font-size="16" >HO</text>
<text x="1077.517161" y="348.930516" fill="rgb(255,12,12)"  stroke="rgb(255,12,12)" stroke-width="1" font-size="16" >HO</text>
<text x="558.618014" y="500.530114" fill="rgb(255,12,12)"  stroke="rgb(255,12,12)" stroke-width="1" font-size="16" >HO</text>
<text x="998.304152" y="102.494152" fill="rgb(255,12,12)"  stroke="rgb(255,12,12)" stroke-width="1" font-size="16" >OH</text>
<text x="654.735870" y="279.297195" fill="rgb(255,12,12)"  stroke="rgb(255,12,12)" stroke-width="1" font-size="16" >OH</text>
<text x="417.678766" y="433.162627" fill="rgb(255,12,12)"  stroke="rgb(255,12,12)" stroke-width="1" font-size="16" >OH</text>
<text x="1033.993950" y="334.696195" fill="rgb(255,12,12)"  stroke="rgb(255,12,12)" stroke-width="1" font-size="16" >OH</text>
<text x="531.119417" y="452.901146" fill="rgb(255,12,12)"  stroke="rgb(255,12,12)" stroke-width="1" font-size="16" >HO</text>
<text x="895.677991" y="58.385185" fill="rgb(255,12,12)"  stroke="rgb(255,12,12)" stroke-width="1" font-size="16" >OH</text>
<text x="1106.561605" y="173.636441" fill="rgb(255,12,12)"  stroke="rgb(255,12,12)" stroke-width="1" font-size="16" >OH</text>
<text x="708.407957" y="391.358767" fill="rgb(255,12,12)"  stroke="rgb(255,12,12)" stroke-width="1" font-size="16" >OH</text>
<text x="1024.393950" y="193.080886" fill="rgb(255,12,12)"  stroke="rgb(255,12,12)" stroke-width="1" font-size="16" >HO</text>
<text x="633.745578" y="353.794985" fill="rgb(255,12,12)"  stroke="rgb(255,12,12)" stroke-width="1" font-size="16" >HO</text>
<text x="719.798249" y="166.605848" fill="rgb(255,12,12)"  stroke="rgb(255,12,12)" stroke-width="1" font-size="16" >OH</text>
<text x="854.229192" y="220.314725" fill="rgb(255,12,12)"  stroke="rgb(255,12,12)" stroke-width="1" font-size="16" >OH</text>
<text x="848.514209" y="195.055129" fill="rgb(255,12,12)"  stroke="rgb(255,12,12)" stroke-width="1" font-size="16" >HO</text>
<text x="471.350853" y="361.930034" fill="rgb(255,12,12)"  stroke="rgb(255,12,12)" stroke-width="1" font-size="16" >OH</text>
<text x="396.688474" y="399.493817" fill="rgb(255,12,12)"  stroke="rgb(255,12,12)" stroke-width="1" font-size="16" >HO</text>
<text x="718.938328" y="253.993491" fill="rgb(255,12,12)"  stroke="rgb(255,12,12)" stroke-width="1" font-size="16" >HO</text>
<text x="486.050359" y="302.361898" fill="rgb(255,12,12)"  stroke="rgb(255,12,12)" stroke-width="1" font-size="16" >HO</text>
<text x="955.094129" y="304.914340" fill="rgb(255,12,12)"  stroke="rgb(255,12,12)" stroke-width="1" font-size="16" >O</text>
<text x="904.489462" y="254.996018" fill="rgb(255,12,12)"  stroke="rgb(255,12,12)" stroke-width="1" font-size="16" >HO</text>
<text x="811.758505" y="66.731471" fill="rgb(255,12,12)"  stroke="rgb(255,12,12)" stroke-width="1" font-size="16" >O</text>
<text x="748.720182" y="104.216138" fill="rgb(255,12,12)"  stroke="rgb(255,12,12)" stroke-width="1" font-size="16" >HO</text>
<text x="508.387769" y="376.051596" fill="rgb(255,12,12)"  stroke="rgb(255,12,12)" stroke-width="1" font-size="16" >O</text>
<text x="505.179691" y="312.790318" fill="rgb(255,12,12)"  stroke="rgb(255,12,12)" stroke-width="1" font-size="16" >HO</text>
<text x="378.789877" y="390.753738" fill="rgb(255,12,12)"  stroke="rgb(255,12,12)" stroke-width="1" font-size="16" >O</text>
<text x="619.572088" y="142.627251" fill="rgb(255,12,12)"  stroke="rgb(255,12,12)" stroke-width="1" font-size="16" >O</text>
<text x="801.105982" y="308.806824" fill="rgb(255,12,12)"  stroke="rgb(255,12,12)" stroke-width="1" font-size="16" >O</text>
<text x="371.124692" y="317.821067" fill="rgb(255,12,12)"  stroke="rgb(255,12,12)" stroke-width="1" font-size="16" >O</text>
<text x="483.816038" y="213.869799" fill="rgb(255,12,12)"  stroke="rgb(255,12,12)" stroke-width="1" font-size="16" >O</text>
<text x="471.350853" y="286.802470" fill="rgb(255,12,12)"  stroke="rgb(255,12,12)" stroke-width="1" font-size="16" >O</text>
<text x="587.662458" y="210.349799" fill="rgb(255,12,12)"  stroke="rgb(255,12,12)" stroke-width="1" font-size="16" >O</text>
<text x="694.699652" y="269.232010" fill="rgb(255,12,12)"  stroke="rgb(255,12,12)" stroke-width="1" font-size="16" >O</text>
<text x="970.805555" y="208.640314" fill="rgb(255,12,12)"  stroke="rgb(255,12,12)" stroke-width="1" font-size="16" >O</text>
<text x="1014.549506" y="226.759651" fill="rgb(255,12,12)"  stroke="rgb(255,12,12)" stroke-width="1" font-size="16" >O</text>
<text x="605.781796" y="363.860170" fill="rgb(255,12,12)"  stroke="rgb(255,12,12)" stroke-width="1" font-size="16" >O</text>
<text x="850.449024" y="157.491346" fill="rgb(255,12,12)"  stroke="rgb(255,12,12)" stroke-width="1" font-size="16" >O</text>
<text x="784.061538" y="197.350281" fill="rgb(255,12,12)"  stroke="rgb(255,12,12)" stroke-width="1" font-size="16" >O</text>
<text x="587.662458" y="316.596219" fill="rgb(255,12,12)"  stroke="rgb(255,12,12)" stroke-width="1" font-size="16" >O</text>
<text x="403.444444" y="550.123369" fill="rgb(191,191,191)"  stroke="rgb(191,191,191)" stroke-width="1" font-size="16" >H</text>
<text x="442.333333" y="482.765837" fill="rgb(191,191,191)"  stroke="rgb(191,191,191)" stroke-width="1" font-size="16" >H</text>
<text x="345.111111" y="487.975960" fill="rgb(191,191,191)"  stroke="rgb(191,191,191)" stroke-width="1" font-size="16" >H</text>
<text x="384.000000" y="413.718183" fill="rgb(191,191,191)"  stroke="rgb(191,191,191)" stroke-width="1" font-size="16" >H</text>
<text x="997.505062" y="334.696195" fill="rgb(191,191,191)"  stroke="rgb(191,191,191)" stroke-width="1" font-size="16" >H</text>
<text x="515.620820" y="425.402549" fill="rgb(191,191,191)"  stroke="rgb(191,191,191)" stroke-width="1" font-size="16" >H</text>
<text x="860.514209" y="48.320000" fill="rgb(191,191,191)"  stroke="rgb(191,191,191)" stroke-width="1" font-size="16" >H</text>
<text x="1140.240371" y="193.080886" fill="rgb(191,191,191)"  stroke="rgb(191,191,191)" stroke-width="1" font-size="16" >H</text>
<text x="718.473143" y="425.402549" fill="rgb(191,191,191)"  stroke="rgb(191,191,191)" stroke-width="1" font-size="16" >H</text>
<text x="647.070685" y="94.998284" fill="rgb(191,191,191)"  stroke="rgb(191,191,191)" stroke-width="1" font-size="16" >H</text>
<text x="854.229192" y="323.041145" fill="rgb(191,191,191)"  stroke="rgb(191,191,191)" stroke-width="1" font-size="16" >H</text>
<text x="925.576588" y="232.618911" fill="rgb(191,191,191)"  stroke="rgb(191,191,191)" stroke-width="1" font-size="16" >H</text>
<text x="371.124692" y="262.823873" fill="rgb(191,191,191)"  stroke="rgb(191,191,191)" stroke-width="1" font-size="16" >H</text>
<text x="498.050359" y="160.746589" fill="rgb(191,191,191)"  stroke="rgb(191,191,191)" stroke-width="1" font-size="16" >H</text>
<text x="1067.672716" y="315.251750" fill="rgb(191,191,191)"  stroke="rgb(191,191,191)" stroke-width="1" font-size="16" >H</text>
<text x="580.683199" y="462.966331" fill="rgb(191,191,191)"  stroke="rgb(191,191,191)" stroke-width="1" font-size="16" >H</text>
<text x="923.176588" y="85.883782" fill="rgb(191,191,191)"  stroke="rgb(191,191,191)" stroke-width="1" font-size="16" >H</text>
<text x="644.670685" y="241.733413" fill="rgb(191,191,191)"  stroke="rgb(191,191,191)" stroke-width="1" font-size="16" >H</text>
<text x="1067.672716" y="173.636441" fill="rgb(191,191,191)"  stroke="rgb(191,191,191)" stroke-width="1" font-size="16" >H</text>
<text x="680.909360" y="363.860170" fill="rgb(191,191,191)"  stroke="rgb(191,191,191)" stroke-width="1" font-size="16" >H</text>
<text x="709.733064" y="132.562066" fill="rgb(191,191,191)"  stroke="rgb(191,191,191)" stroke-width="1" font-size="16" >H</text>
<text x="873.673637" y="250.473491" fill="rgb(191,191,191)"  stroke="rgb(191,191,191)" stroke-width="1" font-size="16" >H</text>
<text x="888.012806" y="222.553726" fill="rgb(191,191,191)"  stroke="rgb(191,191,191)" stroke-width="1" font-size="16" >H</text>
<text x="481.416038" y="327.886252" fill="rgb(191,191,191)"  stroke="rgb(191,191,191)" stroke-width="1" font-size="16" >H</text>
<text x="443.852256" y="389.428631" fill="rgb(191,191,191)"  stroke="rgb(191,191,191)" stroke-width="1" font-size="16" >H</text>
<text x="750.382772" y="220.314725" fill="rgb(191,191,191)"  stroke="rgb(191,191,191)" stroke-width="1" font-size="16" >H</text>
<text x="534.539248" y="302.361898" fill="rgb(191,191,191)"  stroke="rgb(191,191,191)" stroke-width="1" font-size="16" >H</text>
<text x="443.852256" y="262.823873" fill="rgb(191,191,191)"  stroke="rgb(191,191,191)" stroke-width="1" font-size="16" >H</text>
<text x="568.218014" y="180.191033" fill="rgb(191,191,191)"  stroke="rgb(191,191,191)" stroke-width="1" font-size="16" >H</text>
<text x="709.733064" y="204.169630" fill="rgb(191,191,191)"  stroke="rgb(191,191,191)" stroke-width="1" font-size="16" >H</text>
<text x="1087.117161" y="242.684096" fill="rgb(191,191,191)"  stroke="rgb(191,191,191)" stroke-width="1" font-size="16" >H</text>
<text x="643.345578" y="425.402549" fill="rgb(191,191,191)"  stroke="rgb(191,191,191)" stroke-width="1" font-size="16" >H</text>
<text x="923.176588" y="157.491346" fill="rgb(191,191,191)"  stroke="rgb(191,191,191)" stroke-width="1" font-size="16" >H</text>
<text x="820.550427" y="200.870281" fill="rgb(191,191,191)"  stroke="rgb(191,191,191)" stroke-width="1" font-size="16" >H</text>
<text x="587.662458" y="249.238688" fill="rgb(191,191,191)"  stroke="rgb(191,191,191)" stroke-width="1" font-size="16" >H</text>
<text x="585.832847" y="149.338403" fill="rgb(191,191,191)"  stroke="rgb(191,191,191)" stroke-width="1" font-size="16" >H</text>
<text x="345.261228" y="340.502716" fill="rgb(191,191,191)"  stroke="rgb(191,191,191)" stroke-width="1" font-size="16" >H</text>
<text x="772.503235" y="327.918569" fill="rgb(191,191,191)"  stroke="rgb(191,191,191)" stroke-width="1" font-size="16" >H</text>
<text x="452.963408" y="229.084632" fill="rgb(191,191,191)"  stroke="rgb(191,191,191)" stroke-width="1" font-size="16" >H</text>
<text font-size="18.000000" fill ="black" font-family="sans-serif"
x="140.000000" y="20.000000" ></text>
<title> - OBDepict</title>
</svg>
