<?xml version="1.0"?>
<svg xmlns="http://www.w3.org/2000/svg"
xmlns:xlink="http://www.w3.org/1999/xlink" xmlns:cml="http://www.xml-cml.org/schema" width="357.128" height="340" x="0" y="0" font-family="sans-serif" stroke="rgb(0,0,0)" stroke-width="1" >
<line x1="65.6" y1="45.2" x2="49.0" y2="54.8"/>
<line x1="109.3" y1="220.0" x2="109.3" y2="180.0"/>
<line x1="109.3" y1="220.0" x2="143.9" y2="240.0"/>
<line x1="109.3" y1="180.0" x2="74.6" y2="160.0"/>
<line x1="143.9" y1="240.0" x2="143.9" y2="280.0"/>
<line x1="74.6" y1="160.0" x2="74.6" y2="120.0"/>
<line x1="143.9" y1="280.0" x2="178.6" y2="300.0"/>
<line x1="74.6" y1="120.0" x2="40.0" y2="100.0"/>
<line x1="178.6" y1="300.0" x2="213.2" y2="280.0"/>
<line x1="40.0" y1="100.0" x2="40.0" y2="70.4"/>
<line x1="247.8" y1="220.0" x2="247.8" y2="180.0"/>
<line x1="247.8" y1="220.0" x2="222.2" y2="234.8"/>
<line x1="247.8" y1="180.0" x2="282.5" y2="160.0"/>
<line x1="247.8" y1="180.0" x2="222.2" y2="165.2"/>
<line x1="214.7" y1="277.4" x2="240.3" y2="292.2"/>
<line x1="211.7" y1="282.6" x2="237.3" y2="297.4"/>
<line x1="213.2" y1="280.0" x2="213.2" y2="250.4"/>
<line x1="284.0" y1="157.4" x2="309.6" y2="172.2"/>
<line x1="281.0" y1="162.6" x2="306.6" y2="177.4"/>
<line x1="282.5" y1="160.0" x2="282.5" y2="130.4"/>
<line x1="256.9" y1="294.8" x2="273.5" y2="285.2"/>
<text x="68.641016" y="48.320000" fill="rgb(102,102,102)"  stroke="rgb(102,102,102)" stroke-width="1" font-size="16" >CH</text>
<text x="92.641016" y="56.000000" fill="rgb(102,102,102)"  stroke="rgb(102,102,102)" stroke-width="1" font-size="13" >3</text>
<text x="189.605081" y="168.320000" fill="rgb(12,12,255)"  stroke="rgb(12,12,255)" stroke-width="1" font-size="16" >H</text>
<text x="201.605081" y="176.000000" fill="rgb(12,12,255)"  stroke="rgb(12,12,255)" stroke-width="1" font-size="13" >2</text>
<text x="208.105081" y="168.320000" fill="rgb(12,12,255)"  stroke="rgb(12,12,255)" stroke-width="1" font-size="16" >N</text>
<text x="241.846097" y="304.800000" fill="rgb(12,12,255)"  stroke="rgb(12,12,255)" stroke-width="1" font-size="16" >N</text>
<text x="311.128129" y="184.800000" fill="rgb(255,12,12)"  stroke="rgb(255,12,12)" stroke-width="1" font-size="16" >O</text>
<text x="276.487113" y="128.320000" fill="rgb(255,12,12)"  stroke="rgb(255,12,12)" stroke-width="1" font-size="16" >OH</text>
<text x="276.487113" y="288.320000" fill="rgb(255,12,12)"  stroke="rgb(255,12,12)" stroke-width="1" font-size="16" >OH</text>
<text x="36.400000" y="68.320000" fill="rgb(178,178,0)"  stroke="rgb(178,178,0)" stroke-width="1" font-size="16" >S</text>
<text x="209.605081" y="248.320000" fill="rgb(178,178,0)"  stroke="rgb(178,178,0)" stroke-width="1" font-size="16" >S</text>
<text font-size="18.000000" fill ="black" font-family="sans-serif"
x="140.000000" y="20.000000" ></text>
<title> - OBDepict</title>
</svg>
