<?xml version="1.0"?>
<svg xmlns="http://www.w3.org/2000/svg"
xmlns:xlink="http://www.w3.org/1999/xlink" xmlns:cml="http://www.xml-cml.org/schema" width="403.923" height="243.923" x="0" y="0" font-family="sans-serif" stroke="rgb(0,0,0)" stroke-width="1" >
<line x1="49.0" y1="114.8" x2="65.6" y2="105.2"/>
<line x1="100.3" y1="114.8" x2="83.6" y2="105.2"/>
<line x1="74.6" y1="60.0" x2="109.3" y2="40.0"/>
<line x1="74.6" y1="60.0" x2="74.6" y2="89.6"/>
<line x1="109.3" y1="40.0" x2="134.9" y2="54.8"/>
<line x1="263.9" y1="169.3" x2="243.9" y2="134.6"/>
<line x1="263.9" y1="169.3" x2="293.5" y2="169.3"/>
<line x1="203.9" y1="134.6" x2="243.9" y2="134.6"/>
<line x1="203.9" y1="134.6" x2="189.1" y2="109.0"/>
<line x1="323.9" y1="200.9" x2="353.5" y2="200.9"/>
<line x1="323.9" y1="206.9" x2="353.5" y2="206.9"/>
<line x1="323.9" y1="203.9" x2="309.1" y2="178.3"/>
<line x1="306.5" y1="98.5" x2="321.3" y2="124.1"/>
<line x1="301.3" y1="101.5" x2="316.1" y2="127.1"/>
<line x1="303.9" y1="100.0" x2="274.3" y2="100.0"/>
<line x1="243.9" y1="134.6" x2="258.7" y2="109.0"/>
<line x1="114.3" y1="100.0" x2="133.5" y2="100.0"/>
<line x1="140.9" y1="129.6" x2="140.9" y2="110.4"/>
<line x1="146.9" y1="129.6" x2="146.9" y2="110.4"/>
<line x1="143.9" y1="70.4" x2="143.9" y2="89.6"/>
<line x1="173.5" y1="100.0" x2="154.3" y2="100.0"/>
<text x="16.400000" y="124.800000" fill="rgb(102,102,102)"  stroke="rgb(102,102,102)" stroke-width="1" font-size="16" >H</text>
<text x="28.400000" y="129.600000" fill="rgb(102,102,102)"  stroke="rgb(102,102,102)" stroke-width="1" font-size="13" >3</text>
<text x="34.900000" y="124.800000" fill="rgb(102,102,102)"  stroke="rgb(102,102,102)" stroke-width="1" font-size="16" >C</text>
<text x="103.282032" y="124.800000" fill="rgb(102,102,102)"  stroke="rgb(102,102,102)" stroke-width="1" font-size="16" >CH</text>
<text x="127.282032" y="129.600000" fill="rgb(102,102,102)"  stroke="rgb(102,102,102)" stroke-width="1" font-size="13" >3</text>
<text x="68.641016" y="104.800000" fill="rgb(12,12,255)"  stroke="rgb(12,12,255)" stroke-width="1" font-size="16" >N</text>
<text x="357.923048" y="212.243048" fill="rgb(255,12,12)"  stroke="rgb(255,12,12)" stroke-width="1" font-size="16" >O</text>
<text x="317.923048" y="139.441016" fill="rgb(255,12,12)"  stroke="rgb(255,12,12)" stroke-width="1" font-size="16" >O</text>
<text x="88.323048" y="104.800000" fill="rgb(255,12,12)"  stroke="rgb(255,12,12)" stroke-width="1" font-size="16" >HO</text>
<text x="137.923048" y="144.800000" fill="rgb(255,12,12)"  stroke="rgb(255,12,12)" stroke-width="1" font-size="16" >O</text>
<text x="297.923048" y="177.602032" fill="rgb(255,12,12)"  stroke="rgb(255,12,12)" stroke-width="1" font-size="16" >O</text>
<text x="260.323048" y="108.320000" fill="rgb(255,12,12)"  stroke="rgb(255,12,12)" stroke-width="1" font-size="16" >O</text>
<text x="137.923048" y="68.320000" fill="rgb(255,12,12)"  stroke="rgb(255,12,12)" stroke-width="1" font-size="16" >O</text>
<text x="177.923048" y="108.320000" fill="rgb(255,12,12)"  stroke="rgb(255,12,12)" stroke-width="1" font-size="16" >O</text>
<text x="137.923048" y="104.800000" fill="rgb(255,127,0)"  stroke="rgb(255,127,0)" stroke-width="1" font-size="16" >P</text>
<text font-size="18.000000" fill ="black" font-family="sans-serif"
x="140.000000" y="20.000000" ></text>
<title> - OBDepict</title>
</svg>
