<?xml version="1.0"?>
<svg xmlns="http://www.w3.org/2000/svg"
xmlns:xlink="http://www.w3.org/1999/xlink" xmlns:cml="http://www.xml-cml.org/schema" width="338.03" height="325.522" x="0" y="0" font-family="sans-serif" stroke="rgb(0,0,0)" stroke-width="1" >
<line x1="262.8" y1="169.3" x2="244.2" y2="192.3"/>
<line x1="140.0" y1="114.6" x2="120.0" y2="149.3"/>
<line x1="140.0" y1="114.6" x2="125.2" y2="89.0"/>
<polygon points="61.424965 178.365476 88.470967 176.706033 86.807673 168.880852 " />
<line x1="87.6" y1="172.8" x2="67.8" y2="150.8"/>
<line x1="106.9" y1="127.3" x2="107.5" y2="126.9"/>
<line x1="108.5" y1="131.0" x2="109.9" y2="130.2"/>
<line x1="110.2" y1="134.6" x2="112.2" y2="133.4"/>
<line x1="111.8" y1="138.3" x2="114.6" y2="136.7"/>
<line x1="113.5" y1="142.0" x2="116.9" y2="140.0"/>
<line x1="115.1" y1="145.6" x2="119.3" y2="143.2"/>
<line x1="116.8" y1="149.3" x2="121.6" y2="146.5"/>
<line x1="131.4" y1="235.0" x2="130.7" y2="234.7"/>
<line x1="133.2" y1="231.4" x2="131.7" y2="230.8"/>
<line x1="135.0" y1="227.7" x2="132.7" y2="226.9"/>
<line x1="136.7" y1="224.1" x2="133.7" y2="223.0"/>
<line x1="138.5" y1="220.5" x2="134.8" y2="219.1"/>
<line x1="140.3" y1="216.9" x2="135.8" y2="215.2"/>
<line x1="142.1" y1="213.3" x2="136.8" y2="211.4"/>
<line x1="140.0" y1="210.8" x2="169.2" y2="215.5"/>
<line x1="258.5" y1="229.6" x2="287.8" y2="234.2"/>
<line x1="196.2" y1="256.3" x2="177.5" y2="279.3"/>
<line x1="191.5" y1="252.5" x2="172.9" y2="275.6"/>
<line x1="80.0" y1="50.4" x2="80.0" y2="69.6"/>
<line x1="50.4" y1="80.0" x2="69.6" y2="80.0"/>
<line x1="77.0" y1="109.6" x2="77.0" y2="90.4"/>
<line x1="83.0" y1="109.6" x2="83.0" y2="90.4"/>
<line x1="109.6" y1="80.0" x2="90.4" y2="80.0"/>
<line x1="100.0" y1="210.8" x2="87.6" y2="172.8"/>
<line x1="87.6" y1="172.8" x2="120.0" y2="149.3"/>
<line x1="120.0" y1="149.3" x2="143.9" y2="166.7"/>
<line x1="149.1" y1="182.7" x2="140.0" y2="210.8"/>
<line x1="140.0" y1="210.8" x2="100.0" y2="210.8"/>
<line x1="204.7" y1="186.0" x2="186.1" y2="209.0"/>
<line x1="183.2" y1="226.8" x2="193.8" y2="254.4"/>
<line x1="193.8" y1="254.4" x2="223.1" y2="259.1"/>
<line x1="239.9" y1="252.6" x2="258.5" y2="229.6"/>
<line x1="235.6" y1="246.5" x2="249.2" y2="229.7"/>
<line x1="258.5" y1="229.6" x2="244.2" y2="192.3"/>
<line x1="244.2" y1="192.3" x2="204.7" y2="186.0"/>
<line x1="237.1" y1="198.4" x2="209.5" y2="194.1"/>
<text x="263.360699" y="169.498783" fill="rgb(102,102,102)"  stroke="rgb(102,102,102)" stroke-width="1" font-size="16" >CH</text>
<text x="287.360699" y="177.178783" fill="rgb(102,102,102)"  stroke="rgb(102,102,102)" stroke-width="1" font-size="13" >3</text>
<text x="227.349785" y="265.493677" fill="rgb(12,12,255)"  stroke="rgb(12,12,255)" stroke-width="1" font-size="16" >N</text>
<text x="173.507534" y="221.893082" fill="rgb(12,12,255)"  stroke="rgb(12,12,255)" stroke-width="1" font-size="16" >N</text>
<text x="45.274096" y="151.387649" fill="rgb(255,12,12)"  stroke="rgb(255,12,12)" stroke-width="1" font-size="16" >HO</text>
<text x="293.230134" y="255.065217" fill="rgb(255,12,12)"  stroke="rgb(255,12,12)" stroke-width="1" font-size="32" >-</text>
<text x="292.030134" y="240.665217" fill="rgb(255,12,12)"  stroke="rgb(255,12,12)" stroke-width="1" font-size="16" >O</text>
<text x="165.069436" y="290.322137" fill="rgb(255,12,12)"  stroke="rgb(255,12,12)" stroke-width="1" font-size="16" >O</text>
<text x="75.200000" y="33.600000" fill="rgb(255,12,12)"  stroke="rgb(255,12,12)" stroke-width="1" font-size="32" >-</text>
<text x="74.000000" y="48.320000" fill="rgb(255,12,12)"  stroke="rgb(255,12,12)" stroke-width="1" font-size="16" >O</text>
<text x="24.400000" y="84.800000" fill="rgb(255,12,12)"  stroke="rgb(255,12,12)" stroke-width="1" font-size="16" >HO</text>
<text x="74.000000" y="124.800000" fill="rgb(255,12,12)"  stroke="rgb(255,12,12)" stroke-width="1" font-size="16" >O</text>
<text x="114.000000" y="88.320000" fill="rgb(255,12,12)"  stroke="rgb(255,12,12)" stroke-width="1" font-size="16" >O</text>
<text x="146.360680" y="181.113442" fill="rgb(255,12,12)"  stroke="rgb(255,12,12)" stroke-width="1" font-size="16" >O</text>
<text x="74.000000" y="88.320000" fill="rgb(255,127,0)"  stroke="rgb(255,127,0)" stroke-width="1" font-size="16" >P</text>
<text x="44.913416" y="185.909910" fill="rgb(191,191,191)"  stroke="rgb(191,191,191)" stroke-width="1" font-size="16" >H</text>
<text x="96.400000" y="122.961016" fill="rgb(191,191,191)"  stroke="rgb(191,191,191)" stroke-width="1" font-size="16" >H</text>
<text x="122.407911" y="253.108646" fill="rgb(191,191,191)"  stroke="rgb(191,191,191)" stroke-width="1" font-size="16" >H</text>
<text font-size="18.000000" fill ="black" font-family="sans-serif"
x="140.000000" y="20.000000" ></text>
<title> - OBDepict</title>
</svg>
