<?xml version="1.0"?>
<svg xmlns="http://www.w3.org/2000/svg"
xmlns:xlink="http://www.w3.org/1999/xlink" xmlns:cml="http://www.xml-cml.org/schema" width="218.564" height="220" x="0" y="0" font-family="sans-serif" stroke="rgb(0,0,0)" stroke-width="1" >
<line x1="109.3" y1="100.0" x2="143.9" y2="120.0"/>
<line x1="143.9" y1="120.0" x2="143.9" y2="149.6"/>
<line x1="142.4" y1="117.4" x2="168.1" y2="102.6"/>
<line x1="145.4" y1="122.6" x2="171.1" y2="107.8"/>
<line x1="169.6" y1="174.8" x2="152.9" y2="165.2"/>
<line x1="74.6" y1="120.0" x2="109.3" y2="100.0"/>
<line x1="76.2" y1="110.8" x2="100.5" y2="96.8"/>
<line x1="109.3" y1="100.0" x2="109.3" y2="60.0"/>
<line x1="109.3" y1="60.0" x2="74.6" y2="40.0"/>
<line x1="100.5" y1="63.2" x2="76.2" y2="49.2"/>
<line x1="74.6" y1="40.0" x2="49.0" y2="54.8"/>
<line x1="40.0" y1="70.4" x2="40.0" y2="100.0"/>
<line x1="47.2" y1="72.4" x2="47.2" y2="94.0"/>
<line x1="40.0" y1="100.0" x2="74.6" y2="120.0"/>
<text x="172.564065" y="184.800000" fill="rgb(12,12,255)"  stroke="rgb(12,12,255)" stroke-width="1" font-size="16" >NH</text>
<text x="196.564065" y="189.600000" fill="rgb(12,12,255)"  stroke="rgb(12,12,255)" stroke-width="1" font-size="13" >2</text>
<text x="36.400000" y="68.320000" fill="rgb(12,12,255)"  stroke="rgb(12,12,255)" stroke-width="1" font-size="16" >N</text>
<text x="128.323048" y="164.800000" fill="rgb(12,12,255)"  stroke="rgb(12,12,255)" stroke-width="1" font-size="16" >HN</text>
<text x="172.564065" y="108.320000" fill="rgb(255,12,12)"  stroke="rgb(255,12,12)" stroke-width="1" font-size="16" >O</text>
<text font-size="18.000000" fill ="black" font-family="sans-serif"
x="140.000000" y="20.000000" ></text>
<title> - OBDepict</title>
</svg>
