<?xml version="1.0"?>
<svg xmlns="http://www.w3.org/2000/svg"
xmlns:xlink="http://www.w3.org/1999/xlink" xmlns:cml="http://www.xml-cml.org/schema" width="564.974" height="260" x="0" y="0" font-family="sans-serif" stroke="rgb(0,0,0)" stroke-width="1" >
<line x1="317.1" y1="80.0" x2="282.5" y2="100.0"/>
<line x1="317.1" y1="80.0" x2="351.8" y2="100.0"/>
<line x1="143.9" y1="140.0" x2="169.6" y2="154.8"/>
<line x1="109.3" y1="80.0" x2="109.3" y2="50.4"/>
<line x1="74.6" y1="140.0" x2="49.0" y2="154.8"/>
<line x1="213.2" y1="100.0" x2="187.6" y2="85.2"/>
<line x1="247.8" y1="160.0" x2="247.8" y2="189.6"/>
<line x1="354.8" y1="100.0" x2="354.8" y2="129.6"/>
<line x1="348.8" y1="100.0" x2="348.8" y2="129.6"/>
<line x1="351.8" y1="100.0" x2="377.4" y2="85.2"/>
<line x1="74.6" y1="100.0" x2="49.0" y2="85.2"/>
<line x1="490.3" y1="100.0" x2="516.0" y2="85.2"/>
<line x1="490.3" y1="140.0" x2="516.0" y2="154.8"/>
<line x1="455.7" y1="80.0" x2="455.7" y2="50.4"/>
<line x1="213.2" y1="140.0" x2="187.6" y2="154.8"/>
<line x1="455.7" y1="160.0" x2="455.7" y2="200.0"/>
<line x1="457.2" y1="202.6" x2="431.6" y2="217.4"/>
<line x1="454.2" y1="197.4" x2="428.6" y2="212.2"/>
<line x1="455.7" y1="200.0" x2="481.3" y2="214.8"/>
<line x1="421.1" y1="100.0" x2="395.4" y2="85.2"/>
<line x1="143.9" y1="100.0" x2="143.9" y2="140.0"/>
<line x1="136.7" y1="106.0" x2="136.7" y2="134.0"/>
<line x1="143.9" y1="140.0" x2="109.3" y2="160.0"/>
<line x1="109.3" y1="160.0" x2="74.6" y2="140.0"/>
<line x1="107.7" y1="150.8" x2="83.4" y2="136.8"/>
<line x1="74.6" y1="140.0" x2="74.6" y2="100.0"/>
<line x1="74.6" y1="100.0" x2="109.3" y2="80.0"/>
<line x1="83.4" y1="103.2" x2="107.7" y2="89.2"/>
<line x1="109.3" y1="80.0" x2="143.9" y2="100.0"/>
<line x1="247.8" y1="80.0" x2="282.5" y2="100.0"/>
<line x1="249.4" y1="89.2" x2="273.7" y2="103.2"/>
<line x1="282.5" y1="100.0" x2="282.5" y2="140.0"/>
<line x1="282.5" y1="140.0" x2="247.8" y2="160.0"/>
<line x1="273.7" y1="136.8" x2="249.4" y2="150.8"/>
<line x1="247.8" y1="160.0" x2="213.2" y2="140.0"/>
<line x1="213.2" y1="140.0" x2="213.2" y2="100.0"/>
<line x1="220.4" y1="134.0" x2="220.4" y2="106.0"/>
<line x1="213.2" y1="100.0" x2="247.8" y2="80.0"/>
<line x1="490.3" y1="100.0" x2="490.3" y2="140.0"/>
<line x1="490.3" y1="140.0" x2="455.7" y2="160.0"/>
<line x1="455.7" y1="160.0" x2="430.1" y2="145.2"/>
<line x1="421.1" y1="129.6" x2="421.1" y2="100.0"/>
<line x1="421.1" y1="100.0" x2="455.7" y2="80.0"/>
<line x1="455.7" y1="80.0" x2="490.3" y2="100.0"/>
<text x="103.282032" y="48.320000" fill="rgb(147,0,147)"  stroke="rgb(147,0,147)" stroke-width="1" font-size="16" >I</text>
<text x="36.400000" y="164.800000" fill="rgb(147,0,147)"  stroke="rgb(147,0,147)" stroke-width="1" font-size="16" >I</text>
<text x="174.964065" y="88.320000" fill="rgb(147,0,147)"  stroke="rgb(147,0,147)" stroke-width="1" font-size="16" >I</text>
<text x="241.846097" y="204.800000" fill="rgb(147,0,147)"  stroke="rgb(147,0,147)" stroke-width="1" font-size="16" >I</text>
<text x="345.769145" y="144.800000" fill="rgb(255,12,12)"  stroke="rgb(255,12,12)" stroke-width="1" font-size="16" >O</text>
<text x="35.200000" y="73.600000" fill="rgb(255,12,12)"  stroke="rgb(255,12,12)" stroke-width="1" font-size="32" >-</text>
<text x="36.400000" y="88.320000" fill="rgb(255,12,12)"  stroke="rgb(255,12,12)" stroke-width="1" font-size="16" >O</text>
<text x="518.974226" y="88.320000" fill="rgb(255,12,12)"  stroke="rgb(255,12,12)" stroke-width="1" font-size="16" >OH</text>
<text x="518.974226" y="164.800000" fill="rgb(255,12,12)"  stroke="rgb(255,12,12)" stroke-width="1" font-size="16" >OH</text>
<text x="449.692194" y="48.320000" fill="rgb(255,12,12)"  stroke="rgb(255,12,12)" stroke-width="1" font-size="16" >OH</text>
<text x="417.451178" y="224.800000" fill="rgb(255,12,12)"  stroke="rgb(255,12,12)" stroke-width="1" font-size="16" >O</text>
<text x="484.333210" y="224.800000" fill="rgb(255,12,12)"  stroke="rgb(255,12,12)" stroke-width="1" font-size="16" >OH</text>
<text x="172.564065" y="164.800000" fill="rgb(255,12,12)"  stroke="rgb(255,12,12)" stroke-width="1" font-size="16" >O</text>
<text x="380.410162" y="88.320000" fill="rgb(255,12,12)"  stroke="rgb(255,12,12)" stroke-width="1" font-size="16" >O</text>
<text x="417.451178" y="144.800000" fill="rgb(255,12,12)"  stroke="rgb(255,12,12)" stroke-width="1" font-size="16" >O</text>
<text font-size="18.000000" fill ="black" font-family="sans-serif"
x="140.000000" y="20.000000" ></text>
<title> - OBDepict</title>
</svg>
