<?xml version="1.0"?>
<svg xmlns="http://www.w3.org/2000/svg"
xmlns:xlink="http://www.w3.org/1999/xlink" xmlns:cml="http://www.xml-cml.org/schema" width="293.205" height="209.282" x="0" y="0" font-family="sans-serif" stroke="rgb(0,0,0)" stroke-width="1" >
<line x1="149.3" y1="94.6" x2="183.9" y2="74.6"/>
<line x1="149.3" y1="94.6" x2="149.3" y2="124.2"/>
<line x1="114.6" y1="154.6" x2="80.0" y2="134.6"/>
<line x1="114.6" y1="154.6" x2="140.3" y2="139.8"/>
<polygon points="197.323048 51.431535 180.458947 72.641016 187.387150 76.641016 " />
<line x1="183.9" y1="74.6" x2="218.6" y2="94.6"/>
<line x1="183.9" y1="74.6" x2="169.1" y2="49.0"/>
<polygon points="53.200000 134.641016 80.000000 138.641016 80.000000 130.641016 " />
<line x1="80.0" y1="134.6" x2="80.0" y2="94.6"/>
<line x1="80.0" y1="134.6" x2="65.2" y2="160.3"/>
<line x1="221.6" y1="94.6" x2="221.6" y2="124.2"/>
<line x1="215.6" y1="94.6" x2="215.6" y2="124.2"/>
<line x1="218.6" y1="94.6" x2="244.2" y2="79.8"/>
<line x1="78.5" y1="92.0" x2="104.1" y2="77.2"/>
<line x1="81.5" y1="97.2" x2="107.1" y2="82.4"/>
<line x1="80.0" y1="94.6" x2="54.4" y2="79.8"/>
<text x="140.323048" y="48.320000" fill="rgb(12,12,255)"  stroke="rgb(12,12,255)" stroke-width="1" font-size="16" >H</text>
<text x="152.323048" y="56.000000" fill="rgb(12,12,255)"  stroke="rgb(12,12,255)" stroke-width="1" font-size="13" >2</text>
<text x="158.823048" y="48.320000" fill="rgb(12,12,255)"  stroke="rgb(12,12,255)" stroke-width="1" font-size="16" >N</text>
<text x="36.400000" y="174.082032" fill="rgb(12,12,255)"  stroke="rgb(12,12,255)" stroke-width="1" font-size="16" >H</text>
<text x="48.400000" y="178.882032" fill="rgb(12,12,255)"  stroke="rgb(12,12,255)" stroke-width="1" font-size="13" >2</text>
<text x="54.900000" y="174.082032" fill="rgb(12,12,255)"  stroke="rgb(12,12,255)" stroke-width="1" font-size="16" >N</text>
<text x="212.564065" y="139.441016" fill="rgb(255,12,12)"  stroke="rgb(255,12,12)" stroke-width="1" font-size="16" >O</text>
<text x="247.205081" y="82.961016" fill="rgb(255,12,12)"  stroke="rgb(255,12,12)" stroke-width="1" font-size="16" >OH</text>
<text x="108.641016" y="82.961016" fill="rgb(255,12,12)"  stroke="rgb(255,12,12)" stroke-width="1" font-size="16" >O</text>
<text x="29.758984" y="82.961016" fill="rgb(255,12,12)"  stroke="rgb(255,12,12)" stroke-width="1" font-size="16" >HO</text>
<text x="143.282032" y="139.441016" fill="rgb(178,178,0)"  stroke="rgb(178,178,0)" stroke-width="1" font-size="16" >S</text>
<text x="197.923048" y="48.320000" fill="rgb(191,191,191)"  stroke="rgb(191,191,191)" stroke-width="1" font-size="16" >H</text>
<text x="36.400000" y="139.441016" fill="rgb(191,191,191)"  stroke="rgb(191,191,191)" stroke-width="1" font-size="16" >H</text>
<text font-size="18.000000" fill ="black" font-family="sans-serif"
x="140.000000" y="20.000000" ></text>
<title> - OBDepict</title>
</svg>
