<?xml version="1.0"?>
<svg xmlns="http://www.w3.org/2000/svg"
xmlns:xlink="http://www.w3.org/1999/xlink" xmlns:cml="http://www.xml-cml.org/schema" width="226.556" height="200" x="0" y="0" font-family="sans-serif" stroke="rgb(0,0,0)" stroke-width="1" >
<line x1="47.4" y1="71.9" x2="68.3" y2="51.0"/>
<line x1="151.9" y1="50.4" x2="151.9" y2="69.6"/>
<line x1="68.3" y1="51.0" x2="106.9" y2="61.4"/>
<line x1="106.9" y1="61.4" x2="117.3" y2="100.0"/>
<polygon points="96.012197 116.314806 119.709112 103.173413 114.839020 96.826587 " />
<line x1="151.9" y1="160.0" x2="186.6" y2="140.0"/>
<line x1="186.6" y1="140.0" x2="186.6" y2="100.0"/>
<line x1="186.6" y1="100.0" x2="160.9" y2="85.2"/>
<line x1="142.9" y1="85.2" x2="117.3" y2="100.0"/>
<line x1="117.3" y1="100.0" x2="117.3" y2="140.0"/>
<line x1="117.3" y1="140.0" x2="151.9" y2="160.0"/>
<text x="16.400000" y="84.094476" fill="rgb(102,102,102)"  stroke="rgb(102,102,102)" stroke-width="1" font-size="16" >H</text>
<text x="28.400000" y="88.894476" fill="rgb(102,102,102)"  stroke="rgb(102,102,102)" stroke-width="1" font-size="13" >3</text>
<text x="34.900000" y="84.094476" fill="rgb(102,102,102)"  stroke="rgb(102,102,102)" stroke-width="1" font-size="16" >C</text>
<text x="145.915082" y="48.320000" fill="rgb(102,102,102)"  stroke="rgb(102,102,102)" stroke-width="1" font-size="16" >CH</text>
<text x="169.915082" y="56.000000" fill="rgb(102,102,102)"  stroke="rgb(102,102,102)" stroke-width="1" font-size="13" >3</text>
<text x="145.915082" y="88.320000" fill="rgb(12,12,255)"  stroke="rgb(12,12,255)" stroke-width="1" font-size="16" >N</text>
<text x="81.939932" y="129.150457" fill="rgb(191,191,191)"  stroke="rgb(191,191,191)" stroke-width="1" font-size="16" >H</text>
<text font-size="18.000000" fill ="black" font-family="sans-serif"
x="140.000000" y="20.000000" ></text>
<title> - OBDepict</title>
</svg>
