<?xml version="1.0"?>
<svg xmlns="http://www.w3.org/2000/svg"
xmlns:xlink="http://www.w3.org/1999/xlink" xmlns:cml="http://www.xml-cml.org/schema" width="2106.17" height="1734.77" x="0" y="0" font-family="sans-serif" stroke="rgb(0,0,0)" stroke-width="1" >
<line x1="2011.7" y1="49.0" x2="2026.4" y2="74.4"/>
<line x1="2055.8" y1="74.4" x2="2026.4" y2="74.4"/>
<line x1="1952.1" y1="152.2" x2="1966.8" y2="177.7"/>
<line x1="1832.8" y1="221.1" x2="1847.5" y2="246.6"/>
<line x1="1713.6" y1="289.9" x2="1728.3" y2="315.4"/>
<line x1="1594.3" y1="358.8" x2="1609.0" y2="384.3"/>
<line x1="1475.1" y1="427.6" x2="1489.8" y2="453.1"/>
<line x1="1355.8" y1="496.5" x2="1370.5" y2="522.0"/>
<line x1="1236.6" y1="565.3" x2="1251.3" y2="590.8"/>
<line x1="1117.3" y1="634.2" x2="1132.0" y2="659.7"/>
<line x1="998.0" y1="703.0" x2="1012.8" y2="728.5"/>
<line x1="878.8" y1="771.9" x2="893.5" y2="797.4"/>
<line x1="759.5" y1="840.7" x2="774.2" y2="866.2"/>
<line x1="640.3" y1="909.6" x2="655.0" y2="935.1"/>
<line x1="521.0" y1="978.4" x2="535.7" y2="1003.9"/>
<line x1="401.8" y1="1047.3" x2="416.5" y2="1072.8"/>
<line x1="271.8" y1="1156.3" x2="297.2" y2="1141.6"/>
<line x1="119.4" y1="1388.4" x2="144.9" y2="1373.7"/>
<line x1="229.3" y1="1205.4" x2="236.9" y2="1233.8"/>
<line x1="2026.4" y1="143.3" x2="2006.5" y2="108.9"/>
<line x1="2026.4" y1="143.3" x2="2006.5" y2="177.7"/>
<line x1="1907.2" y1="212.1" x2="1946.9" y2="212.1"/>
<line x1="1907.2" y1="212.1" x2="1887.3" y2="246.6"/>
<line x1="1787.9" y1="281.0" x2="1827.7" y2="281.0"/>
<line x1="1787.9" y1="281.0" x2="1768.0" y2="315.4"/>
<line x1="1668.7" y1="349.8" x2="1708.4" y2="349.8"/>
<line x1="1668.7" y1="349.8" x2="1648.8" y2="384.3"/>
<line x1="1549.4" y1="418.7" x2="1589.2" y2="418.7"/>
<line x1="1549.4" y1="418.7" x2="1529.5" y2="453.1"/>
<line x1="1430.1" y1="487.5" x2="1469.9" y2="487.5"/>
<line x1="1430.1" y1="487.5" x2="1410.3" y2="522.0"/>
<line x1="1310.9" y1="556.4" x2="1350.6" y2="556.4"/>
<line x1="1310.9" y1="556.4" x2="1291.0" y2="590.8"/>
<line x1="1191.6" y1="625.2" x2="1231.4" y2="625.2"/>
<line x1="1191.6" y1="625.2" x2="1171.8" y2="659.7"/>
<line x1="1072.4" y1="694.1" x2="1112.1" y2="694.1"/>
<line x1="1072.4" y1="694.1" x2="1052.5" y2="728.5"/>
<line x1="953.1" y1="762.9" x2="992.9" y2="762.9"/>
<line x1="953.1" y1="762.9" x2="933.3" y2="797.4"/>
<line x1="833.9" y1="831.8" x2="873.6" y2="831.8"/>
<line x1="833.9" y1="831.8" x2="814.0" y2="866.2"/>
<line x1="714.6" y1="900.6" x2="754.4" y2="900.6"/>
<line x1="714.6" y1="900.6" x2="694.7" y2="935.1"/>
<line x1="595.4" y1="969.5" x2="635.1" y2="969.5"/>
<line x1="595.4" y1="969.5" x2="575.5" y2="1003.9"/>
<line x1="476.1" y1="1038.3" x2="515.9" y2="1038.3"/>
<line x1="476.1" y1="1038.3" x2="456.2" y2="1072.8"/>
<line x1="356.9" y1="1107.2" x2="396.6" y2="1107.2"/>
<line x1="356.9" y1="1107.2" x2="337.0" y2="1141.6"/>
<line x1="2003.9" y1="107.4" x2="2023.8" y2="72.9"/>
<line x1="2009.1" y1="110.4" x2="2029.0" y2="75.9"/>
<line x1="2006.5" y1="177.7" x2="1966.8" y2="177.7"/>
<line x1="1946.9" y1="212.1" x2="1961.6" y2="237.6"/>
<line x1="1944.3" y1="210.6" x2="1964.2" y2="176.2"/>
<line x1="1949.5" y1="213.6" x2="1969.4" y2="179.2"/>
<line x1="1887.3" y1="246.6" x2="1847.5" y2="246.6"/>
<line x1="1827.7" y1="281.0" x2="1842.4" y2="306.5"/>
<line x1="1825.1" y1="279.5" x2="1844.9" y2="245.1"/>
<line x1="1830.3" y1="282.5" x2="1850.1" y2="248.1"/>
<line x1="1768.0" y1="315.4" x2="1728.3" y2="315.4"/>
<line x1="1708.4" y1="349.8" x2="1723.1" y2="375.3"/>
<line x1="1705.8" y1="348.3" x2="1725.7" y2="313.9"/>
<line x1="1711.0" y1="351.3" x2="1730.9" y2="316.9"/>
<line x1="1648.8" y1="384.3" x2="1609.0" y2="384.3"/>
<line x1="1589.2" y1="418.7" x2="1603.9" y2="444.2"/>
<line x1="1586.6" y1="417.2" x2="1606.4" y2="382.8"/>
<line x1="1591.8" y1="420.2" x2="1611.6" y2="385.8"/>
<line x1="1529.5" y1="453.1" x2="1489.8" y2="453.1"/>
<line x1="1469.9" y1="487.5" x2="1484.6" y2="513.0"/>
<line x1="1467.3" y1="486.0" x2="1487.2" y2="451.6"/>
<line x1="1472.5" y1="489.0" x2="1492.4" y2="454.6"/>
<line x1="1410.3" y1="522.0" x2="1370.5" y2="522.0"/>
<line x1="1350.6" y1="556.4" x2="1365.4" y2="581.9"/>
<line x1="1348.0" y1="554.9" x2="1367.9" y2="520.5"/>
<line x1="1353.2" y1="557.9" x2="1373.1" y2="523.5"/>
<line x1="1291.0" y1="590.8" x2="1251.3" y2="590.8"/>
<line x1="1231.4" y1="625.2" x2="1246.1" y2="650.7"/>
<line x1="1228.8" y1="623.7" x2="1248.7" y2="589.3"/>
<line x1="1234.0" y1="626.7" x2="1253.9" y2="592.3"/>
<line x1="1171.8" y1="659.7" x2="1132.0" y2="659.7"/>
<line x1="1112.1" y1="694.1" x2="1126.8" y2="719.6"/>
<line x1="1109.5" y1="692.6" x2="1129.4" y2="658.2"/>
<line x1="1114.7" y1="695.6" x2="1134.6" y2="661.2"/>
<line x1="1052.5" y1="728.5" x2="1012.8" y2="728.5"/>
<line x1="992.9" y1="762.9" x2="1007.6" y2="788.4"/>
<line x1="990.3" y1="761.4" x2="1010.2" y2="727.0"/>
<line x1="995.5" y1="764.4" x2="1015.4" y2="730.0"/>
<line x1="933.3" y1="797.4" x2="893.5" y2="797.4"/>
<line x1="873.6" y1="831.8" x2="888.3" y2="857.3"/>
<line x1="871.0" y1="830.3" x2="890.9" y2="795.9"/>
<line x1="876.2" y1="833.3" x2="896.1" y2="798.9"/>
<line x1="814.0" y1="866.2" x2="774.2" y2="866.2"/>
<line x1="754.4" y1="900.6" x2="769.1" y2="926.1"/>
<line x1="751.8" y1="899.1" x2="771.6" y2="864.7"/>
<line x1="757.0" y1="902.1" x2="776.8" y2="867.7"/>
<line x1="694.7" y1="935.1" x2="655.0" y2="935.1"/>
<line x1="635.1" y1="969.5" x2="649.8" y2="995.0"/>
<line x1="632.5" y1="968.0" x2="652.4" y2="933.6"/>
<line x1="637.7" y1="971.0" x2="657.6" y2="936.6"/>
<line x1="575.5" y1="1003.9" x2="535.7" y2="1003.9"/>
<line x1="515.9" y1="1038.3" x2="530.6" y2="1063.8"/>
<line x1="513.3" y1="1036.8" x2="533.1" y2="1002.4"/>
<line x1="518.5" y1="1039.8" x2="538.3" y2="1005.4"/>
<line x1="456.2" y1="1072.8" x2="416.5" y2="1072.8"/>
<line x1="396.6" y1="1107.2" x2="411.3" y2="1132.7"/>
<line x1="394.0" y1="1105.7" x2="413.9" y2="1071.3"/>
<line x1="399.2" y1="1108.7" x2="419.1" y2="1074.3"/>
<line x1="337.0" y1="1141.6" x2="297.2" y2="1141.6"/>
<line x1="277.4" y1="1107.2" x2="237.6" y2="1107.2"/>
<line x1="277.4" y1="1107.2" x2="297.2" y2="1141.6"/>
<line x1="237.6" y1="1107.2" x2="222.9" y2="1132.7"/>
<line x1="116.8" y1="1666.7" x2="127.1" y2="1628.3"/>
<line x1="116.8" y1="1666.7" x2="137.6" y2="1687.5"/>
<line x1="219.1" y1="1541.9" x2="219.1" y2="1502.1"/>
<line x1="219.1" y1="1541.9" x2="244.6" y2="1556.6"/>
<line x1="285.6" y1="1394.9" x2="275.3" y2="1356.5"/>
<line x1="285.6" y1="1394.9" x2="314.0" y2="1402.5"/>
<polygon points="297.228707 1168.260886 301.228707 1141.627346 293.228707 1141.627346 " />
<line x1="146.4" y1="1371.1" x2="171.9" y2="1385.8"/>
<line x1="143.4" y1="1376.3" x2="168.9" y2="1391.0"/>
<line x1="144.9" y1="1373.7" x2="144.9" y2="1344.2"/>
<line x1="239.0" y1="1235.9" x2="218.2" y2="1256.7"/>
<line x1="234.8" y1="1231.6" x2="214.0" y2="1252.4"/>
<line x1="236.9" y1="1233.8" x2="265.3" y2="1241.4"/>
<polygon points="145.915319 1647.099347 129.910989 1625.438163 124.254135 1631.095017 " />
<polygon points="242.145425 1515.450387 221.080103 1498.669515 217.080103 1505.597718 " />
<polygon points="301.023312 1363.381072 276.332564 1352.624101 274.262012 1360.351508 " />
<line x1="157.1" y1="1420.9" x2="157.5" y2="1420.2"/>
<line x1="160.3" y1="1423.2" x2="161.1" y2="1421.9"/>
<line x1="163.6" y1="1425.6" x2="164.8" y2="1423.5"/>
<line x1="166.8" y1="1427.9" x2="168.4" y2="1425.1"/>
<line x1="170.1" y1="1430.2" x2="172.1" y2="1426.8"/>
<line x1="173.3" y1="1432.6" x2="175.7" y2="1428.4"/>
<line x1="176.6" y1="1434.9" x2="179.4" y2="1430.1"/>
<line x1="179.3" y1="1433.3" x2="179.3" y2="1403.9"/>
<line x1="194.4" y1="1294.1" x2="194.6" y2="1293.3"/>
<line x1="198.1" y1="1295.5" x2="198.6" y2="1293.9"/>
<line x1="201.9" y1="1296.9" x2="202.5" y2="1294.6"/>
<line x1="205.6" y1="1298.3" x2="206.4" y2="1295.2"/>
<line x1="209.3" y1="1299.7" x2="210.4" y2="1295.9"/>
<line x1="213.1" y1="1301.1" x2="214.3" y2="1296.5"/>
<line x1="216.8" y1="1302.6" x2="218.3" y2="1297.2"/>
<line x1="219.1" y1="1300.3" x2="211.5" y2="1271.9"/>
<line x1="82.5" y1="1642.7" x2="81.7" y2="1642.4"/>
<line x1="83.9" y1="1638.9" x2="82.4" y2="1638.5"/>
<line x1="85.3" y1="1635.2" x2="83.0" y2="1634.6"/>
<line x1="86.7" y1="1631.4" x2="83.6" y2="1630.6"/>
<line x1="88.1" y1="1627.7" x2="84.3" y2="1626.7"/>
<line x1="89.6" y1="1624.0" x2="84.9" y2="1622.7"/>
<line x1="91.0" y1="1620.2" x2="85.6" y2="1618.8"/>
<line x1="88.7" y1="1618.0" x2="60.3" y2="1625.6"/>
<polygon points="136.387451 1481.024532 161.452774 1471.171864 157.452774 1464.243661 " />
<line x1="159.5" y1="1467.7" x2="134.0" y2="1453.0"/>
<polygon points="189.958887 1357.500428 211.620071 1341.496098 205.963217 1335.839244 " />
<line x1="208.8" y1="1338.7" x2="180.4" y2="1331.1"/>
<polygon points="52.671027 1586.474347 79.432328 1583.444783 77.361775 1575.717376 " />
<line x1="78.4" y1="1579.6" x2="57.6" y2="1558.8"/>
<polygon points="87.672887 1532.639730 103.677217 1554.300914 109.334071 1548.644060 " />
<line x1="106.5" y1="1551.5" x2="114.1" y2="1523.1"/>
<line x1="243.9" y1="1391.2" x2="243.1" y2="1391.5"/>
<line x1="243.2" y1="1387.3" x2="241.7" y2="1387.7"/>
<line x1="242.6" y1="1383.4" x2="240.3" y2="1384.0"/>
<line x1="241.9" y1="1379.4" x2="238.9" y2="1380.2"/>
<line x1="241.3" y1="1375.5" x2="237.4" y2="1376.5"/>
<line x1="240.7" y1="1371.5" x2="236.0" y2="1372.8"/>
<line x1="240.0" y1="1367.6" x2="234.6" y2="1369.0"/>
<line x1="236.9" y1="1366.8" x2="216.1" y2="1387.6"/>
<line x1="179.7" y1="1527.6" x2="178.9" y2="1527.6"/>
<line x1="180.1" y1="1523.6" x2="178.5" y2="1523.6"/>
<line x1="180.5" y1="1519.6" x2="178.1" y2="1519.6"/>
<line x1="180.9" y1="1515.6" x2="177.7" y2="1515.6"/>
<line x1="181.3" y1="1511.7" x2="177.3" y2="1511.7"/>
<line x1="181.7" y1="1507.7" x2="176.9" y2="1507.7"/>
<line x1="182.1" y1="1503.7" x2="176.5" y2="1503.7"/>
<line x1="179.3" y1="1502.1" x2="153.9" y2="1516.8"/>
<polygon points="245.485790 1436.758282 219.602208 1429.316128 218.557998 1437.247687 " />
<line x1="219.1" y1="1433.3" x2="211.5" y2="1404.9"/>
<polygon points="283.882841 1286.505786 256.955050 1286.016381 257.999259 1293.947940 " />
<line x1="257.5" y1="1290.0" x2="228.1" y2="1239.0"/>
<polygon points="169.508878 1571.953161 146.433429 1558.065428 143.371962 1565.456464 " />
<line x1="144.9" y1="1561.8" x2="144.9" y2="1532.3"/>
<line x1="178.0" y1="1112.2" x2="178.0" y2="1131.3"/>
<line x1="148.6" y1="1138.6" x2="167.6" y2="1138.6"/>
<line x1="148.6" y1="1144.6" x2="167.6" y2="1144.6"/>
<line x1="148.6" y1="1221.1" x2="167.6" y2="1221.1"/>
<line x1="175.0" y1="1250.5" x2="175.0" y2="1231.5"/>
<line x1="181.0" y1="1250.5" x2="181.0" y2="1231.5"/>
<line x1="207.4" y1="1141.6" x2="188.3" y2="1141.6"/>
<line x1="207.4" y1="1221.1" x2="188.3" y2="1221.1"/>
<line x1="178.0" y1="1171.0" x2="178.0" y2="1152.0"/>
<line x1="178.0" y1="1191.7" x2="178.0" y2="1210.8"/>
<line x1="78.4" y1="1579.6" x2="106.5" y2="1551.5"/>
<line x1="106.5" y1="1551.5" x2="144.9" y2="1561.8"/>
<line x1="144.9" y1="1561.8" x2="152.5" y2="1590.2"/>
<line x1="147.9" y1="1607.5" x2="127.1" y2="1628.3"/>
<line x1="127.1" y1="1628.3" x2="88.7" y2="1618.0"/>
<line x1="88.7" y1="1618.0" x2="78.4" y2="1579.6"/>
<line x1="179.3" y1="1433.3" x2="219.1" y2="1433.3"/>
<line x1="219.1" y1="1433.3" x2="233.8" y2="1458.8"/>
<line x1="233.8" y1="1476.7" x2="219.1" y2="1502.1"/>
<line x1="219.1" y1="1502.1" x2="179.3" y2="1502.1"/>
<line x1="179.3" y1="1502.1" x2="159.5" y2="1467.7"/>
<line x1="159.5" y1="1467.7" x2="179.3" y2="1433.3"/>
<line x1="219.1" y1="1300.3" x2="257.5" y2="1290.0"/>
<line x1="257.5" y1="1290.0" x2="278.3" y2="1310.8"/>
<line x1="282.9" y1="1328.1" x2="275.3" y2="1356.5"/>
<line x1="275.3" y1="1356.5" x2="236.9" y2="1366.8"/>
<line x1="236.9" y1="1366.8" x2="208.8" y2="1338.7"/>
<line x1="208.8" y1="1338.7" x2="219.1" y2="1300.3"/>
<text x="1982.945477" y="48.320000" fill="rgb(102,102,102)"  stroke="rgb(102,102,102)" stroke-width="1" font-size="16" >H</text>
<text x="1994.945477" y="56.000000" fill="rgb(102,102,102)"  stroke="rgb(102,102,102)" stroke-width="1" font-size="13" >3</text>
<text x="2001.445477" y="48.320000" fill="rgb(102,102,102)"  stroke="rgb(102,102,102)" stroke-width="1" font-size="16" >C</text>
<text x="2060.172807" y="79.225855" fill="rgb(102,102,102)"  stroke="rgb(102,102,102)" stroke-width="1" font-size="16" >CH</text>
<text x="2084.172807" y="84.025855" fill="rgb(102,102,102)"  stroke="rgb(102,102,102)" stroke-width="1" font-size="13" >3</text>
<text x="1923.318148" y="151.597564" fill="rgb(102,102,102)"  stroke="rgb(102,102,102)" stroke-width="1" font-size="16" >H</text>
<text x="1935.318148" y="159.277564" fill="rgb(102,102,102)"  stroke="rgb(102,102,102)" stroke-width="1" font-size="13" >3</text>
<text x="1941.818148" y="151.597564" fill="rgb(102,102,102)"  stroke="rgb(102,102,102)" stroke-width="1" font-size="16" >C</text>
<text x="1804.063490" y="220.449273" fill="rgb(102,102,102)"  stroke="rgb(102,102,102)" stroke-width="1" font-size="16" >H</text>
<text x="1816.063490" y="228.129273" fill="rgb(102,102,102)"  stroke="rgb(102,102,102)" stroke-width="1" font-size="13" >3</text>
<text x="1822.563490" y="220.449273" fill="rgb(102,102,102)"  stroke="rgb(102,102,102)" stroke-width="1" font-size="16" >C</text>
<text x="1684.808831" y="289.300982" fill="rgb(102,102,102)"  stroke="rgb(102,102,102)" stroke-width="1" font-size="16" >H</text>
<text x="1696.808831" y="296.980982" fill="rgb(102,102,102)"  stroke="rgb(102,102,102)" stroke-width="1" font-size="13" >3</text>
<text x="1703.308831" y="289.300982" fill="rgb(102,102,102)"  stroke="rgb(102,102,102)" stroke-width="1" font-size="16" >C</text>
<text x="1565.554173" y="358.152691" fill="rgb(102,102,102)"  stroke="rgb(102,102,102)" stroke-width="1" font-size="16" >H</text>
<text x="1577.554173" y="365.832691" fill="rgb(102,102,102)"  stroke="rgb(102,102,102)" stroke-width="1" font-size="13" >3</text>
<text x="1584.054173" y="358.152691" fill="rgb(102,102,102)"  stroke="rgb(102,102,102)" stroke-width="1" font-size="16" >C</text>
<text x="1446.299515" y="427.004400" fill="rgb(102,102,102)"  stroke="rgb(102,102,102)" stroke-width="1" font-size="16" >H</text>
<text x="1458.299515" y="434.684400" fill="rgb(102,102,102)"  stroke="rgb(102,102,102)" stroke-width="1" font-size="13" >3</text>
<text x="1464.799515" y="427.004400" fill="rgb(102,102,102)"  stroke="rgb(102,102,102)" stroke-width="1" font-size="16" >C</text>
<text x="1327.044856" y="495.856109" fill="rgb(102,102,102)"  stroke="rgb(102,102,102)" stroke-width="1" font-size="16" >H</text>
<text x="1339.044856" y="503.536109" fill="rgb(102,102,102)"  stroke="rgb(102,102,102)" stroke-width="1" font-size="13" >3</text>
<text x="1345.544856" y="495.856109" fill="rgb(102,102,102)"  stroke="rgb(102,102,102)" stroke-width="1" font-size="16" >C</text>
<text x="1207.790198" y="564.707818" fill="rgb(102,102,102)"  stroke="rgb(102,102,102)" stroke-width="1" font-size="16" >H</text>
<text x="1219.790198" y="572.387818" fill="rgb(102,102,102)"  stroke="rgb(102,102,102)" stroke-width="1" font-size="13" >3</text>
<text x="1226.290198" y="564.707818" fill="rgb(102,102,102)"  stroke="rgb(102,102,102)" stroke-width="1" font-size="16" >C</text>
<text x="1088.535539" y="633.559528" fill="rgb(102,102,102)"  stroke="rgb(102,102,102)" stroke-width="1" font-size="16" >H</text>
<text x="1100.535539" y="641.239528" fill="rgb(102,102,102)"  stroke="rgb(102,102,102)" stroke-width="1" font-size="13" >3</text>
<text x="1107.035539" y="633.559528" fill="rgb(102,102,102)"  stroke="rgb(102,102,102)" stroke-width="1" font-size="16" >C</text>
<text x="969.280881" y="702.411237" fill="rgb(102,102,102)"  stroke="rgb(102,102,102)" stroke-width="1" font-size="16" >H</text>
<text x="981.280881" y="710.091237" fill="rgb(102,102,102)"  stroke="rgb(102,102,102)" stroke-width="1" font-size="13" >3</text>
<text x="987.780881" y="702.411237" fill="rgb(102,102,102)"  stroke="rgb(102,102,102)" stroke-width="1" font-size="16" >C</text>
<text x="850.026223" y="771.262946" fill="rgb(102,102,102)"  stroke="rgb(102,102,102)" stroke-width="1" font-size="16" >H</text>
<text x="862.026223" y="778.942946" fill="rgb(102,102,102)"  stroke="rgb(102,102,102)" stroke-width="1" font-size="13" >3</text>
<text x="868.526223" y="771.262946" fill="rgb(102,102,102)"  stroke="rgb(102,102,102)" stroke-width="1" font-size="16" >C</text>
<text x="730.771564" y="840.114655" fill="rgb(102,102,102)"  stroke="rgb(102,102,102)" stroke-width="1" font-size="16" >H</text>
<text x="742.771564" y="847.794655" fill="rgb(102,102,102)"  stroke="rgb(102,102,102)" stroke-width="1" font-size="13" >3</text>
<text x="749.271564" y="840.114655" fill="rgb(102,102,102)"  stroke="rgb(102,102,102)" stroke-width="1" font-size="16" >C</text>
<text x="611.516906" y="908.966364" fill="rgb(102,102,102)"  stroke="rgb(102,102,102)" stroke-width="1" font-size="16" >H</text>
<text x="623.516906" y="916.646364" fill="rgb(102,102,102)"  stroke="rgb(102,102,102)" stroke-width="1" font-size="13" >3</text>
<text x="630.016906" y="908.966364" fill="rgb(102,102,102)"  stroke="rgb(102,102,102)" stroke-width="1" font-size="16" >C</text>
<text x="492.262248" y="977.818073" fill="rgb(102,102,102)"  stroke="rgb(102,102,102)" stroke-width="1" font-size="16" >H</text>
<text x="504.262248" y="985.498073" fill="rgb(102,102,102)"  stroke="rgb(102,102,102)" stroke-width="1" font-size="13" >3</text>
<text x="510.762248" y="977.818073" fill="rgb(102,102,102)"  stroke="rgb(102,102,102)" stroke-width="1" font-size="16" >C</text>
<text x="373.007589" y="1046.669782" fill="rgb(102,102,102)"  stroke="rgb(102,102,102)" stroke-width="1" font-size="16" >H</text>
<text x="385.007589" y="1054.349782" fill="rgb(102,102,102)"  stroke="rgb(102,102,102)" stroke-width="1" font-size="13" >3</text>
<text x="391.507589" y="1046.669782" fill="rgb(102,102,102)"  stroke="rgb(102,102,102)" stroke-width="1" font-size="16" >C</text>
<text x="239.202853" y="1166.303122" fill="rgb(102,102,102)"  stroke="rgb(102,102,102)" stroke-width="1" font-size="16" >H</text>
<text x="251.202853" y="1171.103122" fill="rgb(102,102,102)"  stroke="rgb(102,102,102)" stroke-width="1" font-size="13" >3</text>
<text x="257.702853" y="1166.303122" fill="rgb(102,102,102)"  stroke="rgb(102,102,102)" stroke-width="1" font-size="16" >C</text>
<text x="86.876841" y="1398.330355" fill="rgb(102,102,102)"  stroke="rgb(102,102,102)" stroke-width="1" font-size="16" >H</text>
<text x="98.876841" y="1403.130355" fill="rgb(102,102,102)"  stroke="rgb(102,102,102)" stroke-width="1" font-size="13" >3</text>
<text x="105.376841" y="1398.330355" fill="rgb(102,102,102)"  stroke="rgb(102,102,102)" stroke-width="1" font-size="16" >C</text>
<text x="203.011778" y="1203.687924" fill="rgb(102,102,102)"  stroke="rgb(102,102,102)" stroke-width="1" font-size="16" >H</text>
<text x="215.011778" y="1211.367924" fill="rgb(102,102,102)"  stroke="rgb(102,102,102)" stroke-width="1" font-size="13" >3</text>
<text x="221.511778" y="1203.687924" fill="rgb(102,102,102)"  stroke="rgb(102,102,102)" stroke-width="1" font-size="16" >C</text>
<text x="173.328550" y="1401.850355" fill="rgb(12,12,255)"  stroke="rgb(12,12,255)" stroke-width="1" font-size="16" >N</text>
<text x="205.191644" y="1270.193568" fill="rgb(12,12,255)"  stroke="rgb(12,12,255)" stroke-width="1" font-size="16" >N</text>
<text x="138.902696" y="1699.572234" fill="rgb(255,12,12)"  stroke="rgb(255,12,12)" stroke-width="1" font-size="16" >OH</text>
<text x="247.505957" y="1566.560946" fill="rgb(255,12,12)"  stroke="rgb(255,12,12)" stroke-width="1" font-size="16" >OH</text>
<text x="317.982798" y="1409.973315" fill="rgb(255,12,12)"  stroke="rgb(255,12,12)" stroke-width="1" font-size="16" >OH</text>
<text x="140.102696" y="1327.503026" fill="rgb(255,12,12)"  stroke="rgb(255,12,12)" stroke-width="1" font-size="32" >-</text>
<text x="138.902696" y="1342.223026" fill="rgb(255,12,12)"  stroke="rgb(255,12,12)" stroke-width="1" font-size="16" >O</text>
<text x="270.497288" y="1263.253434" fill="rgb(255,12,12)"  stroke="rgb(255,12,12)" stroke-width="1" font-size="32" >-</text>
<text x="269.297288" y="1248.853434" fill="rgb(255,12,12)"  stroke="rgb(255,12,12)" stroke-width="1" font-size="16" >O</text>
<text x="34.688459" y="1633.066590" fill="rgb(255,12,12)"  stroke="rgb(255,12,12)" stroke-width="1" font-size="16" >HO</text>
<text x="109.426919" y="1456.151986" fill="rgb(255,12,12)"  stroke="rgb(255,12,12)" stroke-width="1" font-size="16" >HO</text>
<text x="154.794592" y="1336.699212" fill="rgb(255,12,12)"  stroke="rgb(255,12,12)" stroke-width="1" font-size="16" >HO</text>
<text x="34.688459" y="1559.792487" fill="rgb(255,12,12)"  stroke="rgb(255,12,12)" stroke-width="1" font-size="16" >HO</text>
<text x="110.794103" y="1521.395436" fill="rgb(255,12,12)"  stroke="rgb(255,12,12)" stroke-width="1" font-size="16" >OH</text>
<text x="171.974049" y="1110.195793" fill="rgb(255,12,12)"  stroke="rgb(255,12,12)" stroke-width="1" font-size="16" >OH</text>
<text x="134.622496" y="1146.427346" fill="rgb(255,12,12)"  stroke="rgb(255,12,12)" stroke-width="1" font-size="16" >O</text>
<text x="122.622496" y="1225.930452" fill="rgb(255,12,12)"  stroke="rgb(255,12,12)" stroke-width="1" font-size="16" >HO</text>
<text x="171.974049" y="1265.682004" fill="rgb(255,12,12)"  stroke="rgb(255,12,12)" stroke-width="1" font-size="16" >O</text>
<text x="211.725602" y="1146.427346" fill="rgb(255,12,12)"  stroke="rgb(255,12,12)" stroke-width="1" font-size="16" >O</text>
<text x="149.191154" y="1604.957997" fill="rgb(255,12,12)"  stroke="rgb(255,12,12)" stroke-width="1" font-size="16" >O</text>
<text x="232.955879" y="1476.027762" fill="rgb(255,12,12)"  stroke="rgb(255,12,12)" stroke-width="1" font-size="16" >O</text>
<text x="279.585747" y="1326.410753" fill="rgb(255,12,12)"  stroke="rgb(255,12,12)" stroke-width="1" font-size="16" >O</text>
<text x="205.191644" y="1403.204856" fill="rgb(255,12,12)"  stroke="rgb(255,12,12)" stroke-width="1" font-size="16" >O</text>
<text x="141.302696" y="1530.329393" fill="rgb(255,12,12)"  stroke="rgb(255,12,12)" stroke-width="1" font-size="16" >O</text>
<text x="211.725602" y="1229.450452" fill="rgb(255,12,12)"  stroke="rgb(255,12,12)" stroke-width="1" font-size="16" >O</text>
<text x="171.974049" y="1186.178899" fill="rgb(255,12,12)"  stroke="rgb(255,12,12)" stroke-width="1" font-size="16" >O</text>
<text x="171.974049" y="1146.427346" fill="rgb(255,127,0)"  stroke="rgb(255,127,0)" stroke-width="1" font-size="16" >P</text>
<text x="171.974049" y="1225.930452" fill="rgb(255,127,0)"  stroke="rgb(255,127,0)" stroke-width="1" font-size="16" >P</text>
<text x="1960.793925" y="251.355127" fill="rgb(191,191,191)"  stroke="rgb(191,191,191)" stroke-width="1" font-size="16" >H</text>
<text x="1841.539266" y="320.206836" fill="rgb(191,191,191)"  stroke="rgb(191,191,191)" stroke-width="1" font-size="16" >H</text>
<text x="1722.284608" y="389.058546" fill="rgb(191,191,191)"  stroke="rgb(191,191,191)" stroke-width="1" font-size="16" >H</text>
<text x="1603.029949" y="457.910255" fill="rgb(191,191,191)"  stroke="rgb(191,191,191)" stroke-width="1" font-size="16" >H</text>
<text x="1483.775291" y="526.761964" fill="rgb(191,191,191)"  stroke="rgb(191,191,191)" stroke-width="1" font-size="16" >H</text>
<text x="1364.520633" y="595.613673" fill="rgb(191,191,191)"  stroke="rgb(191,191,191)" stroke-width="1" font-size="16" >H</text>
<text x="1245.265974" y="664.465382" fill="rgb(191,191,191)"  stroke="rgb(191,191,191)" stroke-width="1" font-size="16" >H</text>
<text x="1126.011316" y="733.317091" fill="rgb(191,191,191)"  stroke="rgb(191,191,191)" stroke-width="1" font-size="16" >H</text>
<text x="1006.756657" y="802.168800" fill="rgb(191,191,191)"  stroke="rgb(191,191,191)" stroke-width="1" font-size="16" >H</text>
<text x="887.501999" y="871.020509" fill="rgb(191,191,191)"  stroke="rgb(191,191,191)" stroke-width="1" font-size="16" >H</text>
<text x="768.247341" y="939.872219" fill="rgb(191,191,191)"  stroke="rgb(191,191,191)" stroke-width="1" font-size="16" >H</text>
<text x="648.992682" y="1008.723928" fill="rgb(191,191,191)"  stroke="rgb(191,191,191)" stroke-width="1" font-size="16" >H</text>
<text x="529.738024" y="1077.575637" fill="rgb(191,191,191)"  stroke="rgb(191,191,191)" stroke-width="1" font-size="16" >H</text>
<text x="410.483366" y="1146.427346" fill="rgb(191,191,191)"  stroke="rgb(191,191,191)" stroke-width="1" font-size="16" >H</text>
<text x="291.228707" y="1186.178899" fill="rgb(191,191,191)"  stroke="rgb(191,191,191)" stroke-width="1" font-size="16" >H</text>
<text x="149.191154" y="1661.175183" fill="rgb(191,191,191)"  stroke="rgb(191,191,191)" stroke-width="1" font-size="16" >H</text>
<text x="247.505957" y="1526.809393" fill="rgb(191,191,191)"  stroke="rgb(191,191,191)" stroke-width="1" font-size="16" >H</text>
<text x="307.694339" y="1371.576264" fill="rgb(191,191,191)"  stroke="rgb(191,191,191)" stroke-width="1" font-size="16" >H</text>
<text x="141.302696" y="1421.726131" fill="rgb(191,191,191)"  stroke="rgb(191,191,191)" stroke-width="1" font-size="16" >H</text>
<text x="177.083051" y="1298.302161" fill="rgb(191,191,191)"  stroke="rgb(191,191,191)" stroke-width="1" font-size="16" >H</text>
<text x="74.797051" y="1661.175183" fill="rgb(191,191,191)"  stroke="rgb(191,191,191)" stroke-width="1" font-size="16" >H</text>
<text x="121.426919" y="1492.383539" fill="rgb(191,191,191)"  stroke="rgb(191,191,191)" stroke-width="1" font-size="16" >H</text>
<text x="177.083051" y="1371.576264" fill="rgb(191,191,191)"  stroke="rgb(191,191,191)" stroke-width="1" font-size="16" >H</text>
<text x="36.400000" y="1594.669538" fill="rgb(191,191,191)"  stroke="rgb(191,191,191)" stroke-width="1" font-size="16" >H</text>
<text x="74.797051" y="1531.683894" fill="rgb(191,191,191)"  stroke="rgb(191,191,191)" stroke-width="1" font-size="16" >H</text>
<text x="241.188695" y="1409.973315" fill="rgb(191,191,191)"  stroke="rgb(191,191,191)" stroke-width="1" font-size="16" >H</text>
<text x="173.328550" y="1546.685170" fill="rgb(191,191,191)"  stroke="rgb(191,191,191)" stroke-width="1" font-size="16" >H</text>
<text x="252.491576" y="1443.270526" fill="rgb(191,191,191)"  stroke="rgb(191,191,191)" stroke-width="1" font-size="16" >H</text>
<text x="290.888627" y="1293.113542" fill="rgb(191,191,191)"  stroke="rgb(191,191,191)" stroke-width="1" font-size="16" >H</text>
<text x="175.628342" y="1581.773207" fill="rgb(191,191,191)"  stroke="rgb(191,191,191)" stroke-width="1" font-size="16" >H</text>
<text font-size="18.000000" fill ="black" font-family="sans-serif"
x="140.000000" y="20.000000" ></text>
<title> - OBDepict</title>
</svg>
