<?xml version="1.0"?>
<svg xmlns="http://www.w3.org/2000/svg"
xmlns:xlink="http://www.w3.org/1999/xlink" xmlns:cml="http://www.xml-cml.org/schema" width="287.846" height="220" x="0" y="0" font-family="sans-serif" stroke="rgb(0,0,0)" stroke-width="1" >
<line x1="247.8" y1="70.4" x2="247.8" y2="89.6"/>
<line x1="213.2" y1="120.0" x2="238.8" y2="105.2"/>
<line x1="74.6" y1="40.0" x2="40.0" y2="60.0"/>
<line x1="40.0" y1="60.0" x2="40.0" y2="100.0"/>
<line x1="47.2" y1="66.0" x2="47.2" y2="94.0"/>
<line x1="40.0" y1="100.0" x2="74.6" y2="120.0"/>
<line x1="74.6" y1="120.0" x2="109.3" y2="100.0"/>
<line x1="76.2" y1="110.8" x2="100.5" y2="96.8"/>
<line x1="109.3" y1="100.0" x2="109.3" y2="60.0"/>
<line x1="109.3" y1="60.0" x2="74.6" y2="40.0"/>
<line x1="100.5" y1="63.2" x2="76.2" y2="49.2"/>
<line x1="178.6" y1="100.0" x2="178.6" y2="60.0"/>
<line x1="178.6" y1="60.0" x2="143.9" y2="40.0"/>
<line x1="169.8" y1="63.2" x2="145.5" y2="49.2"/>
<line x1="143.9" y1="40.0" x2="109.3" y2="60.0"/>
<line x1="109.3" y1="100.0" x2="143.9" y2="120.0"/>
<line x1="143.9" y1="120.0" x2="178.6" y2="100.0"/>
<line x1="145.5" y1="110.8" x2="169.8" y2="96.8"/>
<line x1="178.6" y1="180.0" x2="143.9" y2="160.0"/>
<line x1="177.0" y1="170.8" x2="152.7" y2="156.8"/>
<line x1="143.9" y1="160.0" x2="143.9" y2="120.0"/>
<line x1="178.6" y1="100.0" x2="213.2" y2="120.0"/>
<line x1="213.2" y1="120.0" x2="213.2" y2="160.0"/>
<line x1="206.0" y1="126.0" x2="206.0" y2="154.0"/>
<line x1="213.2" y1="160.0" x2="178.6" y2="180.0"/>
<text x="241.846097" y="68.320000" fill="rgb(102,102,102)"  stroke="rgb(102,102,102)" stroke-width="1" font-size="16" >CH</text>
<text x="265.846097" y="76.000000" fill="rgb(102,102,102)"  stroke="rgb(102,102,102)" stroke-width="1" font-size="13" >3</text>
<text x="241.846097" y="104.800000" fill="rgb(255,12,12)"  stroke="rgb(255,12,12)" stroke-width="1" font-size="16" >O</text>
<text font-size="18.000000" fill ="black" font-family="sans-serif"
x="140.000000" y="20.000000" ></text>
<title> - OBDepict</title>
</svg>
