<?xml version="1.0"?>
<svg xmlns="http://www.w3.org/2000/svg"
xmlns:xlink="http://www.w3.org/1999/xlink" xmlns:cml="http://www.xml-cml.org/schema" width="282.498" height="252.361" x="0" y="0" font-family="sans-serif" stroke="rgb(0,0,0)" stroke-width="1" >
<line x1="198.9" y1="45.0" x2="174.4" y2="59.2"/>
<line x1="149.8" y1="45.0" x2="174.4" y2="59.2"/>
<line x1="49.1" y1="101.7" x2="74.9" y2="116.6"/>
<line x1="174.4" y1="59.2" x2="174.4" y2="97.5"/>
<line x1="207.6" y1="154.9" x2="233.4" y2="169.8"/>
<line x1="207.6" y1="116.6" x2="233.4" y2="101.7"/>
<line x1="174.4" y1="212.3" x2="174.4" y2="174.1"/>
<line x1="174.4" y1="174.1" x2="141.2" y2="154.9"/>
<line x1="165.6" y1="177.3" x2="142.8" y2="164.1"/>
<line x1="141.2" y1="154.9" x2="108.1" y2="174.1"/>
<line x1="108.1" y1="174.1" x2="108.1" y2="202.4"/>
<line x1="125.3" y1="212.4" x2="174.4" y2="212.3"/>
<line x1="108.1" y1="97.5" x2="74.9" y2="116.6"/>
<line x1="106.5" y1="106.7" x2="83.7" y2="119.9"/>
<line x1="74.9" y1="116.6" x2="74.9" y2="154.9"/>
<line x1="74.9" y1="154.9" x2="108.1" y2="174.1"/>
<line x1="83.7" y1="151.7" x2="106.5" y2="164.8"/>
<line x1="141.2" y1="154.9" x2="141.2" y2="116.6"/>
<line x1="141.2" y1="116.6" x2="108.1" y2="97.5"/>
<line x1="207.6" y1="116.6" x2="207.6" y2="154.9"/>
<line x1="200.4" y1="122.6" x2="200.4" y2="148.9"/>
<line x1="207.6" y1="154.9" x2="174.4" y2="174.1"/>
<line x1="141.2" y1="116.6" x2="174.4" y2="97.5"/>
<line x1="150.0" y1="119.8" x2="172.8" y2="106.7"/>
<line x1="174.4" y1="97.5" x2="207.6" y2="116.6"/>
<text x="201.561825" y="48.320000" fill="rgb(102,102,102)"  stroke="rgb(102,102,102)" stroke-width="1" font-size="16" >CH</text>
<text x="225.561825" y="56.000000" fill="rgb(102,102,102)"  stroke="rgb(102,102,102)" stroke-width="1" font-size="13" >3</text>
<text x="117.623753" y="48.332424" fill="rgb(102,102,102)"  stroke="rgb(102,102,102)" stroke-width="1" font-size="16" >H</text>
<text x="129.623753" y="56.012424" fill="rgb(102,102,102)"  stroke="rgb(102,102,102)" stroke-width="1" font-size="13" >3</text>
<text x="136.123753" y="48.332424" fill="rgb(102,102,102)"  stroke="rgb(102,102,102)" stroke-width="1" font-size="16" >C</text>
<text x="16.400000" y="104.802212" fill="rgb(102,102,102)"  stroke="rgb(102,102,102)" stroke-width="1" font-size="16" >H</text>
<text x="28.400000" y="112.482212" fill="rgb(102,102,102)"  stroke="rgb(102,102,102)" stroke-width="1" font-size="13" >3</text>
<text x="34.900000" y="104.802212" fill="rgb(102,102,102)"  stroke="rgb(102,102,102)" stroke-width="1" font-size="16" >C</text>
<text x="236.498362" y="179.818721" fill="rgb(255,12,12)"  stroke="rgb(255,12,12)" stroke-width="1" font-size="16" >OH</text>
<text x="236.477603" y="104.764293" fill="rgb(255,12,12)"  stroke="rgb(255,12,12)" stroke-width="1" font-size="16" >OH</text>
<text x="104.495945" y="217.160837" fill="rgb(255,12,12)"  stroke="rgb(255,12,12)" stroke-width="1" font-size="16" >O</text>
<text font-size="18.000000" fill ="black" font-family="sans-serif"
x="140.000000" y="20.000000" ></text>
<title> - OBDepict</title>
</svg>
