<?xml version="1.0"?>
<svg xmlns="http://www.w3.org/2000/svg"
xmlns:xlink="http://www.w3.org/1999/xlink" xmlns:cml="http://www.xml-cml.org/schema" width="840.596" height="665.608" x="0" y="0" font-family="sans-serif" stroke="rgb(0,0,0)" stroke-width="1" >
<line x1="50.3" y1="321.9" x2="79.5" y2="321.9"/>
<line x1="94.1" y1="296.6" x2="79.5" y2="321.9"/>
<line x1="171.7" y1="45.1" x2="197.0" y2="59.8"/>
<line x1="222.4" y1="45.1" x2="197.0" y2="59.8"/>
<line x1="212.7" y1="415.7" x2="198.1" y2="390.4"/>
<line x1="265.5" y1="207.6" x2="265.5" y2="178.3"/>
<line x1="331.2" y1="415.7" x2="316.6" y2="390.4"/>
<line x1="368.2" y1="266.8" x2="368.2" y2="237.6"/>
<line x1="449.8" y1="415.7" x2="435.2" y2="390.4"/>
<line x1="470.8" y1="326.1" x2="470.8" y2="296.9"/>
<line x1="138.8" y1="356.1" x2="99.3" y2="356.1"/>
<line x1="138.8" y1="356.1" x2="158.6" y2="390.4"/>
<line x1="231.3" y1="119.0" x2="197.0" y2="99.3"/>
<line x1="231.3" y1="119.0" x2="231.3" y2="158.6"/>
<line x1="257.3" y1="356.1" x2="217.8" y2="356.1"/>
<line x1="257.3" y1="356.1" x2="277.1" y2="390.4"/>
<line x1="333.9" y1="178.3" x2="299.7" y2="158.6"/>
<line x1="333.9" y1="178.3" x2="333.9" y2="217.8"/>
<line x1="375.9" y1="356.1" x2="336.4" y2="356.1"/>
<line x1="375.9" y1="356.1" x2="395.7" y2="390.4"/>
<line x1="436.6" y1="237.6" x2="402.4" y2="217.8"/>
<line x1="436.6" y1="237.6" x2="436.6" y2="277.1"/>
<line x1="96.7" y1="357.6" x2="76.9" y2="323.4"/>
<line x1="101.9" y1="354.6" x2="82.1" y2="320.4"/>
<line x1="194.0" y1="99.3" x2="194.0" y2="59.8"/>
<line x1="200.0" y1="99.3" x2="200.0" y2="59.8"/>
<line x1="158.6" y1="390.4" x2="198.1" y2="390.4"/>
<line x1="231.3" y1="158.6" x2="265.5" y2="178.3"/>
<line x1="217.8" y1="356.1" x2="203.2" y2="330.8"/>
<line x1="220.4" y1="357.6" x2="200.7" y2="391.9"/>
<line x1="215.2" y1="354.6" x2="195.5" y2="388.9"/>
<line x1="299.7" y1="158.6" x2="299.7" y2="129.3"/>
<line x1="301.2" y1="161.2" x2="267.0" y2="180.9"/>
<line x1="298.2" y1="156.0" x2="264.0" y2="175.7"/>
<line x1="277.1" y1="390.4" x2="316.6" y2="390.4"/>
<line x1="333.9" y1="217.8" x2="368.2" y2="237.6"/>
<line x1="336.4" y1="356.1" x2="321.8" y2="330.8"/>
<line x1="339.0" y1="357.6" x2="319.2" y2="391.9"/>
<line x1="333.8" y1="354.6" x2="314.0" y2="388.9"/>
<line x1="402.4" y1="217.8" x2="402.4" y2="188.6"/>
<line x1="403.9" y1="220.4" x2="369.7" y2="240.2"/>
<line x1="400.9" y1="215.2" x2="366.7" y2="235.0"/>
<line x1="395.7" y1="390.4" x2="435.2" y2="390.4"/>
<line x1="436.6" y1="277.1" x2="470.8" y2="296.9"/>
<line x1="454.9" y1="356.1" x2="440.3" y2="330.8"/>
<line x1="454.9" y1="356.1" x2="494.5" y2="356.1"/>
<line x1="457.5" y1="357.6" x2="437.8" y2="391.9"/>
<line x1="452.3" y1="354.6" x2="432.6" y2="388.9"/>
<line x1="505.0" y1="277.1" x2="505.0" y2="247.9"/>
<line x1="505.0" y1="277.1" x2="539.3" y2="296.9"/>
<line x1="506.5" y1="279.7" x2="472.3" y2="299.5"/>
<line x1="503.5" y1="274.5" x2="469.3" y2="294.3"/>
<line x1="494.5" y1="356.1" x2="509.1" y2="381.5"/>
<line x1="539.3" y1="296.9" x2="539.3" y2="326.1"/>
<line x1="553.7" y1="390.4" x2="573.5" y2="356.1"/>
<line x1="553.7" y1="390.4" x2="524.5" y2="390.4"/>
<line x1="641.9" y1="395.7" x2="573.5" y2="356.1"/>
<line x1="641.9" y1="395.7" x2="667.3" y2="381.0"/>
<line x1="721.0" y1="395.7" x2="721.0" y2="435.2"/>
<line x1="721.0" y1="395.7" x2="746.3" y2="381.0"/>
<polygon points="586.732530 333.214730 570.029874 354.144578 576.958078 358.144578 " />
<line x1="573.5" y1="356.1" x2="548.2" y2="341.5"/>
<line x1="742.7" y1="422.2" x2="743.1" y2="422.9"/>
<line x1="739.1" y1="423.8" x2="739.9" y2="425.2"/>
<line x1="735.4" y1="425.4" x2="736.6" y2="427.5"/>
<line x1="731.8" y1="427.1" x2="733.4" y2="429.8"/>
<line x1="728.2" y1="428.7" x2="730.2" y2="432.2"/>
<line x1="724.6" y1="430.3" x2="727.0" y2="434.5"/>
<line x1="720.9" y1="432.0" x2="723.7" y2="436.8"/>
<line x1="779.8" y1="591.9" x2="797.0" y2="615.5"/>
<line x1="774.9" y1="595.4" x2="792.1" y2="619.1"/>
<polygon points="676.170941 413.412966 677.763251 440.143133 685.588432 438.479839 " />
<line x1="681.7" y1="439.3" x2="653.9" y2="430.3"/>
<polygon points="647.127508 475.198382 673.041458 481.944081 673.877686 473.987906 " />
<line x1="673.5" y1="478.0" x2="656.3" y2="501.6"/>
<line x1="697.8" y1="521.0" x2="697.0" y2="520.7"/>
<line x1="699.7" y1="517.5" x2="698.3" y2="516.9"/>
<line x1="701.7" y1="514.1" x2="699.5" y2="513.1"/>
<line x1="703.7" y1="510.7" x2="700.8" y2="509.3"/>
<line x1="705.7" y1="507.2" x2="702.0" y2="505.6"/>
<line x1="707.6" y1="503.8" x2="703.2" y2="501.8"/>
<line x1="709.6" y1="500.3" x2="704.5" y2="498.0"/>
<line x1="707.7" y1="497.7" x2="724.9" y2="521.4"/>
<line x1="714.8" y1="565.8" x2="685.8" y2="568.9"/>
<line x1="676.2" y1="307.1" x2="676.2" y2="326.1"/>
<line x1="646.9" y1="333.4" x2="665.9" y2="333.4"/>
<line x1="646.9" y1="339.4" x2="665.9" y2="339.4"/>
<line x1="784.4" y1="336.4" x2="765.5" y2="336.4"/>
<line x1="758.2" y1="307.1" x2="758.2" y2="326.1"/>
<line x1="752.2" y1="307.1" x2="752.2" y2="326.1"/>
<line x1="676.2" y1="365.6" x2="676.2" y2="346.7"/>
<line x1="755.2" y1="365.6" x2="755.2" y2="346.7"/>
<line x1="705.4" y1="336.4" x2="686.4" y2="336.4"/>
<line x1="726.0" y1="336.4" x2="744.9" y2="336.4"/>
<line x1="721.0" y1="435.2" x2="681.7" y2="439.3"/>
<line x1="681.7" y1="439.3" x2="673.5" y2="478.0"/>
<line x1="673.5" y1="478.0" x2="707.7" y2="497.7"/>
<line x1="707.7" y1="497.7" x2="729.4" y2="478.2"/>
<line x1="732.9" y1="461.9" x2="721.0" y2="435.2"/>
<line x1="793.4" y1="557.5" x2="777.4" y2="593.6"/>
<line x1="777.4" y1="593.6" x2="748.3" y2="596.7"/>
<line x1="732.0" y1="589.5" x2="714.8" y2="565.8"/>
<line x1="736.6" y1="583.6" x2="724.2" y2="566.4"/>
<line x1="714.8" y1="565.8" x2="726.7" y2="539.1"/>
<line x1="741.1" y1="528.6" x2="770.2" y2="525.6"/>
<line x1="770.2" y1="525.6" x2="793.4" y2="557.5"/>
<line x1="767.9" y1="534.7" x2="784.1" y2="556.9"/>
<text x="16.400000" y="326.720924" fill="rgb(102,102,102)"  stroke="rgb(102,102,102)" stroke-width="1" font-size="16" >H</text>
<text x="28.400000" y="331.520924" fill="rgb(102,102,102)"  stroke="rgb(102,102,102)" stroke-width="1" font-size="13" >3</text>
<text x="34.900000" y="326.720924" fill="rgb(102,102,102)"  stroke="rgb(102,102,102)" stroke-width="1" font-size="16" >C</text>
<text x="93.277108" y="296.017269" fill="rgb(102,102,102)"  stroke="rgb(102,102,102)" stroke-width="1" font-size="16" >CH</text>
<text x="117.277108" y="303.697269" fill="rgb(102,102,102)"  stroke="rgb(102,102,102)" stroke-width="1" font-size="13" >3</text>
<text x="139.210122" y="48.320000" fill="rgb(102,102,102)"  stroke="rgb(102,102,102)" stroke-width="1" font-size="16" >H</text>
<text x="151.210122" y="56.000000" fill="rgb(102,102,102)"  stroke="rgb(102,102,102)" stroke-width="1" font-size="13" >3</text>
<text x="157.710122" y="48.320000" fill="rgb(102,102,102)"  stroke="rgb(102,102,102)" stroke-width="1" font-size="16" >C</text>
<text x="225.257431" y="48.320000" fill="rgb(102,102,102)"  stroke="rgb(102,102,102)" stroke-width="1" font-size="16" >CH</text>
<text x="249.257431" y="56.000000" fill="rgb(102,102,102)"  stroke="rgb(102,102,102)" stroke-width="1" font-size="13" >3</text>
<text x="211.831325" y="429.391887" fill="rgb(102,102,102)"  stroke="rgb(102,102,102)" stroke-width="1" font-size="16" >CH</text>
<text x="235.831325" y="434.191887" fill="rgb(102,102,102)"  stroke="rgb(102,102,102)" stroke-width="1" font-size="13" >3</text>
<text x="259.481085" y="222.631325" fill="rgb(102,102,102)"  stroke="rgb(102,102,102)" stroke-width="1" font-size="16" >CH</text>
<text x="283.481085" y="227.431325" fill="rgb(102,102,102)"  stroke="rgb(102,102,102)" stroke-width="1" font-size="13" >3</text>
<text x="330.385542" y="429.391887" fill="rgb(102,102,102)"  stroke="rgb(102,102,102)" stroke-width="1" font-size="16" >CH</text>
<text x="354.385542" y="434.191887" fill="rgb(102,102,102)"  stroke="rgb(102,102,102)" stroke-width="1" font-size="13" >3</text>
<text x="362.152049" y="281.908434" fill="rgb(102,102,102)"  stroke="rgb(102,102,102)" stroke-width="1" font-size="16" >CH</text>
<text x="386.152049" y="286.708434" fill="rgb(102,102,102)"  stroke="rgb(102,102,102)" stroke-width="1" font-size="13" >3</text>
<text x="448.939759" y="429.391887" fill="rgb(102,102,102)"  stroke="rgb(102,102,102)" stroke-width="1" font-size="16" >CH</text>
<text x="472.939759" y="434.191887" fill="rgb(102,102,102)"  stroke="rgb(102,102,102)" stroke-width="1" font-size="13" >3</text>
<text x="464.823012" y="341.185542" fill="rgb(102,102,102)"  stroke="rgb(102,102,102)" stroke-width="1" font-size="16" >CH</text>
<text x="488.823012" y="345.985542" fill="rgb(102,102,102)"  stroke="rgb(102,102,102)" stroke-width="1" font-size="13" >3</text>
<text x="794.595787" y="630.408198" fill="rgb(12,12,255)"  stroke="rgb(12,12,255)" stroke-width="1" font-size="16" >NH</text>
<text x="734.466059" y="602.568170" fill="rgb(12,12,255)"  stroke="rgb(12,12,255)" stroke-width="1" font-size="16" >N</text>
<text x="724.911367" y="534.495822" fill="rgb(12,12,255)"  stroke="rgb(12,12,255)" stroke-width="1" font-size="16" >N</text>
<text x="628.491921" y="435.419730" fill="rgb(255,12,12)"  stroke="rgb(255,12,12)" stroke-width="1" font-size="16" >HO</text>
<text x="634.631432" y="514.736786" fill="rgb(255,12,12)"  stroke="rgb(255,12,12)" stroke-width="1" font-size="16" >HO</text>
<text x="670.736331" y="589.128141" fill="rgb(255,12,12)"  stroke="rgb(255,12,12)" stroke-width="1" font-size="32" >-</text>
<text x="671.936331" y="574.728141" fill="rgb(255,12,12)"  stroke="rgb(255,12,12)" stroke-width="1" font-size="16" >O</text>
<text x="671.364939" y="290.467470" fill="rgb(255,12,12)"  stroke="rgb(255,12,12)" stroke-width="1" font-size="32" >-</text>
<text x="670.164939" y="305.187470" fill="rgb(255,12,12)"  stroke="rgb(255,12,12)" stroke-width="1" font-size="16" >O</text>
<text x="633.046867" y="341.185542" fill="rgb(255,12,12)"  stroke="rgb(255,12,12)" stroke-width="1" font-size="16" >O</text>
<text x="788.719156" y="341.185542" fill="rgb(255,12,12)"  stroke="rgb(255,12,12)" stroke-width="1" font-size="16" >OH</text>
<text x="749.201084" y="305.187470" fill="rgb(255,12,12)"  stroke="rgb(255,12,12)" stroke-width="1" font-size="16" >O</text>
<text x="510.616867" y="395.168233" fill="rgb(255,12,12)"  stroke="rgb(255,12,12)" stroke-width="1" font-size="16" >O</text>
<text x="535.670321" y="341.185542" fill="rgb(255,12,12)"  stroke="rgb(255,12,12)" stroke-width="1" font-size="16" >O</text>
<text x="670.164939" y="380.703614" fill="rgb(255,12,12)"  stroke="rgb(255,12,12)" stroke-width="1" font-size="16" >O</text>
<text x="749.201084" y="380.703614" fill="rgb(255,12,12)"  stroke="rgb(255,12,12)" stroke-width="1" font-size="16" >O</text>
<text x="731.050878" y="476.082278" fill="rgb(255,12,12)"  stroke="rgb(255,12,12)" stroke-width="1" font-size="16" >O</text>
<text x="709.683012" y="341.185542" fill="rgb(255,12,12)"  stroke="rgb(255,12,12)" stroke-width="1" font-size="16" >O</text>
<text x="670.164939" y="344.705542" fill="rgb(255,127,0)"  stroke="rgb(255,127,0)" stroke-width="1" font-size="16" >P</text>
<text x="749.201084" y="344.705542" fill="rgb(255,127,0)"  stroke="rgb(255,127,0)" stroke-width="1" font-size="16" >P</text>
<text x="194.472289" y="330.240924" fill="rgb(191,191,191)"  stroke="rgb(191,191,191)" stroke-width="1" font-size="16" >H</text>
<text x="293.704740" y="127.356145" fill="rgb(191,191,191)"  stroke="rgb(191,191,191)" stroke-width="1" font-size="16" >H</text>
<text x="313.026506" y="330.240924" fill="rgb(191,191,191)"  stroke="rgb(191,191,191)" stroke-width="1" font-size="16" >H</text>
<text x="396.375703" y="186.633253" fill="rgb(191,191,191)"  stroke="rgb(191,191,191)" stroke-width="1" font-size="16" >H</text>
<text x="431.580723" y="330.240924" fill="rgb(191,191,191)"  stroke="rgb(191,191,191)" stroke-width="1" font-size="16" >H</text>
<text x="499.046667" y="245.910361" fill="rgb(191,191,191)"  stroke="rgb(191,191,191)" stroke-width="1" font-size="16" >H</text>
<text x="587.253012" y="330.240924" fill="rgb(191,191,191)"  stroke="rgb(191,191,191)" stroke-width="1" font-size="16" >H</text>
<text x="749.201084" y="423.741687" fill="rgb(191,191,191)"  stroke="rgb(191,191,191)" stroke-width="1" font-size="16" >H</text>
<text x="669.859572" y="408.976979" fill="rgb(191,191,191)"  stroke="rgb(191,191,191)" stroke-width="1" font-size="16" >H</text>
<text x="630.557984" y="482.155230" fill="rgb(191,191,191)"  stroke="rgb(191,191,191)" stroke-width="1" font-size="16" >H</text>
<text x="688.009779" y="538.626585" fill="rgb(191,191,191)"  stroke="rgb(191,191,191)" stroke-width="1" font-size="16" >H</text>
<text font-size="18.000000" fill ="black" font-family="sans-serif"
x="140.000000" y="20.000000" ></text>
<title> - OBDepict</title>
</svg>
