<?xml version="1.0"?>
<svg xmlns="http://www.w3.org/2000/svg"
xmlns:xlink="http://www.w3.org/1999/xlink" xmlns:cml="http://www.xml-cml.org/schema" width="374.555" height="358.79" x="0" y="0" font-family="sans-serif" stroke="rgb(0,0,0)" stroke-width="1" >
<line x1="131.3" y1="41.5" x2="101.7" y2="40.0"/>
<line x1="290.3" y1="162.6" x2="272.9" y2="186.6"/>
<line x1="243.5" y1="183.5" x2="272.9" y2="186.6"/>
<line x1="101.7" y1="40.0" x2="79.9" y2="73.5"/>
<line x1="79.9" y1="73.5" x2="50.4" y2="72.0"/>
<line x1="82.6" y1="72.2" x2="100.8" y2="107.8"/>
<line x1="77.3" y1="74.9" x2="95.4" y2="110.5"/>
<line x1="98.1" y1="109.2" x2="82.0" y2="134.0"/>
<line x1="98.1" y1="109.2" x2="138.0" y2="111.3"/>
<line x1="138.0" y1="111.3" x2="156.2" y2="146.9"/>
<line x1="289.2" y1="223.1" x2="272.9" y2="186.6"/>
<line x1="289.2" y1="223.1" x2="265.7" y2="255.5"/>
<line x1="164.4" y1="224.7" x2="168.6" y2="185.0"/>
<line x1="164.4" y1="224.7" x2="196.7" y2="248.3"/>
<polygon points="144.087264 195.863586 170.197229 188.617225 166.943336 181.308862 " />
<line x1="136.4" y1="163.2" x2="135.9" y2="162.5"/>
<line x1="139.8" y1="161.0" x2="138.8" y2="159.7"/>
<line x1="143.2" y1="158.8" x2="141.7" y2="156.9"/>
<line x1="146.6" y1="156.6" x2="144.6" y2="154.1"/>
<line x1="149.9" y1="154.5" x2="147.4" y2="151.3"/>
<line x1="153.3" y1="152.3" x2="150.3" y2="148.5"/>
<line x1="156.7" y1="150.1" x2="153.2" y2="145.7"/>
<line x1="250.9" y1="276.4" x2="250.3" y2="276.0"/>
<line x1="253.6" y1="273.4" x2="252.3" y2="272.5"/>
<line x1="256.3" y1="270.4" x2="254.3" y2="269.0"/>
<line x1="259.0" y1="267.4" x2="256.4" y2="265.6"/>
<line x1="261.6" y1="264.4" x2="258.4" y2="262.1"/>
<line x1="264.3" y1="261.4" x2="260.4" y2="258.6"/>
<line x1="267.0" y1="258.4" x2="262.4" y2="255.1"/>
<line x1="265.7" y1="255.5" x2="298.0" y2="279.0"/>
<line x1="265.7" y1="255.5" x2="241.7" y2="238.1"/>
<line x1="185.6" y1="123.4" x2="185.6" y2="93.8"/>
<line x1="191.6" y1="123.4" x2="191.6" y2="93.8"/>
<line x1="195.5" y1="245.5" x2="222.6" y2="233.5"/>
<line x1="198.0" y1="251.0" x2="225.0" y2="239.0"/>
<line x1="196.7" y1="248.3" x2="193.7" y2="277.7"/>
<line x1="296.8" y1="276.3" x2="323.8" y2="264.2"/>
<line x1="299.2" y1="281.7" x2="326.3" y2="269.7"/>
<line x1="298.0" y1="279.0" x2="294.9" y2="308.4"/>
<line x1="168.6" y1="185.0" x2="208.6" y2="185.0"/>
<line x1="208.6" y1="185.0" x2="220.9" y2="146.9"/>
<line x1="220.9" y1="146.9" x2="188.6" y2="123.4"/>
<line x1="188.6" y1="123.4" x2="156.2" y2="146.9"/>
<line x1="156.2" y1="146.9" x2="168.6" y2="185.0"/>
<text x="135.675924" y="46.893438" fill="rgb(102,102,102)"  stroke="rgb(102,102,102)" stroke-width="1" font-size="16" >CH</text>
<text x="159.675924" y="51.693438" fill="rgb(102,102,102)"  stroke="rgb(102,102,102)" stroke-width="1" font-size="13" >3</text>
<text x="290.405676" y="162.554096" fill="rgb(102,102,102)"  stroke="rgb(102,102,102)" stroke-width="1" font-size="16" >CH</text>
<text x="314.405676" y="170.234096" fill="rgb(102,102,102)"  stroke="rgb(102,102,102)" stroke-width="1" font-size="13" >3</text>
<text x="209.513390" y="190.733637" fill="rgb(102,102,102)"  stroke="rgb(102,102,102)" stroke-width="1" font-size="16" >H</text>
<text x="221.513390" y="198.413637" fill="rgb(102,102,102)"  stroke="rgb(102,102,102)" stroke-width="1" font-size="13" >3</text>
<text x="228.013390" y="190.733637" fill="rgb(102,102,102)"  stroke="rgb(102,102,102)" stroke-width="1" font-size="16" >C</text>
<text x="227.291642" y="240.305864" fill="rgb(12,12,255)"  stroke="rgb(12,12,255)" stroke-width="1" font-size="16" >N</text>
<text x="182.570283" y="91.729373" fill="rgb(255,12,12)"  stroke="rgb(255,12,12)" stroke-width="1" font-size="16" >O</text>
<text x="187.768685" y="307.236205" fill="rgb(255,12,12)"  stroke="rgb(255,12,12)" stroke-width="1" font-size="32" >-</text>
<text x="188.968685" y="292.836205" fill="rgb(255,12,12)"  stroke="rgb(255,12,12)" stroke-width="1" font-size="16" >O</text>
<text x="328.554820" y="271.059218" fill="rgb(255,12,12)"  stroke="rgb(255,12,12)" stroke-width="1" font-size="16" >O</text>
<text x="278.231863" y="323.589560" fill="rgb(255,12,12)"  stroke="rgb(255,12,12)" stroke-width="1" font-size="16" >HO</text>
<text x="36.400000" y="79.773384" fill="rgb(191,191,191)"  stroke="rgb(191,191,191)" stroke-width="1" font-size="16" >H</text>
<text x="72.719240" y="147.533906" fill="rgb(191,191,191)"  stroke="rgb(191,191,191)" stroke-width="1" font-size="16" >H</text>
<text x="128.428464" y="206.032509" fill="rgb(191,191,191)"  stroke="rgb(191,191,191)" stroke-width="1" font-size="16" >H</text>
<text x="121.294509" y="176.607826" fill="rgb(191,191,191)"  stroke="rgb(191,191,191)" stroke-width="1" font-size="16" >H</text>
<text x="238.540912" y="292.657954" fill="rgb(191,191,191)"  stroke="rgb(191,191,191)" stroke-width="1" font-size="16" >H</text>
<text font-size="18.000000" fill ="black" font-family="sans-serif"
x="140.000000" y="20.000000" ></text>
<title> - OBDepict</title>
</svg>
