<?xml version="1.0"?>
<svg xmlns="http://www.w3.org/2000/svg"
xmlns:xlink="http://www.w3.org/1999/xlink" xmlns:cml="http://www.xml-cml.org/schema" width="516.159" height="633.394" x="0" y="0" font-family="sans-serif" stroke="rgb(0,0,0)" stroke-width="1" >
<line x1="228.1" y1="449.6" x2="189.9" y2="515.7"/>
<line x1="228.1" y1="449.6" x2="209.0" y2="416.5"/>
<line x1="167.1" y1="326.2" x2="134.0" y2="307.2"/>
<line x1="167.1" y1="326.2" x2="200.1" y2="307.2"/>
<line x1="332.4" y1="459.8" x2="365.4" y2="478.9"/>
<line x1="332.4" y1="459.8" x2="299.3" y2="478.9"/>
<line x1="170.8" y1="454.7" x2="151.8" y2="421.7"/>
<line x1="170.8" y1="454.7" x2="209.0" y2="454.7"/>
<line x1="399.8" y1="388.6" x2="418.9" y2="355.5"/>
<line x1="399.8" y1="388.6" x2="361.7" y2="388.6"/>
<line x1="370.5" y1="192.7" x2="370.5" y2="154.5"/>
<line x1="370.5" y1="192.7" x2="337.5" y2="211.7"/>
<line x1="403.6" y1="517.1" x2="436.6" y2="536.1"/>
<line x1="403.6" y1="517.1" x2="370.5" y2="536.1"/>
<line x1="189.9" y1="515.7" x2="151.8" y2="515.7"/>
<line x1="134.0" y1="307.2" x2="101.0" y2="326.2"/>
<line x1="365.4" y1="478.9" x2="398.5" y2="459.8"/>
<line x1="151.8" y1="421.7" x2="113.6" y2="421.7"/>
<line x1="418.9" y1="355.5" x2="457.1" y2="355.5"/>
<line x1="370.5" y1="154.5" x2="403.6" y2="135.4"/>
<line x1="436.6" y1="536.1" x2="436.6" y2="574.3"/>
<line x1="238.3" y1="78.2" x2="205.3" y2="97.2"/>
<line x1="238.3" y1="78.2" x2="262.8" y2="92.3"/>
<line x1="271.4" y1="211.7" x2="271.4" y2="249.9"/>
<line x1="271.4" y1="135.4" x2="271.4" y2="107.2"/>
<polygon points="186.858160 429.323538 211.002986 420.002319 207.002986 413.074116 " />
<line x1="209.0" y1="416.5" x2="228.1" y2="383.5"/>
<line x1="209.0" y1="416.5" x2="184.5" y2="402.4"/>
<polygon points="187.361414 285.011138 196.682633 309.155963 203.610836 305.155963 " />
<line x1="200.1" y1="307.2" x2="266.3" y2="345.3"/>
<line x1="200.1" y1="307.2" x2="214.3" y2="282.7"/>
<polygon points="312.087992 501.043908 302.766772 476.899083 295.838569 480.899083 " />
<line x1="299.3" y1="478.9" x2="266.3" y2="459.8"/>
<line x1="299.3" y1="478.9" x2="285.2" y2="503.4"/>
<line x1="209.4" y1="479.1" x2="208.6" y2="479.1"/>
<line x1="209.8" y1="475.3" x2="208.2" y2="475.3"/>
<line x1="210.2" y1="471.5" x2="207.8" y2="471.5"/>
<line x1="210.6" y1="467.7" x2="207.4" y2="467.7"/>
<line x1="211.0" y1="463.9" x2="207.0" y2="463.9"/>
<line x1="211.4" y1="460.0" x2="206.6" y2="460.0"/>
<line x1="211.8" y1="456.2" x2="206.2" y2="456.2"/>
<line x1="209.0" y1="454.7" x2="228.1" y2="421.7"/>
<line x1="209.0" y1="454.7" x2="233.5" y2="468.8"/>
<line x1="361.3" y1="364.2" x2="362.1" y2="364.2"/>
<line x1="360.9" y1="368.0" x2="362.5" y2="368.0"/>
<line x1="360.5" y1="371.8" x2="362.9" y2="371.8"/>
<line x1="360.1" y1="375.6" x2="363.3" y2="375.6"/>
<line x1="359.7" y1="379.4" x2="363.7" y2="379.4"/>
<line x1="359.3" y1="383.3" x2="364.1" y2="383.3"/>
<line x1="358.9" y1="387.1" x2="364.5" y2="387.1"/>
<line x1="361.7" y1="388.6" x2="342.6" y2="421.7"/>
<line x1="361.7" y1="388.6" x2="337.2" y2="374.5"/>
<line x1="324.9" y1="190.8" x2="325.6" y2="190.4"/>
<line x1="326.5" y1="194.3" x2="327.9" y2="193.5"/>
<line x1="328.0" y1="197.8" x2="330.1" y2="196.6"/>
<line x1="329.6" y1="201.3" x2="332.4" y2="199.7"/>
<line x1="331.2" y1="204.8" x2="334.6" y2="202.8"/>
<line x1="332.7" y1="208.3" x2="336.9" y2="205.9"/>
<line x1="334.3" y1="211.8" x2="339.1" y2="209.0"/>
<line x1="337.5" y1="211.7" x2="337.5" y2="249.9"/>
<line x1="337.5" y1="211.7" x2="309.2" y2="211.7"/>
<polygon points="383.305108 558.291615 373.983889 534.146789 367.055686 538.146789 " />
<line x1="370.5" y1="536.1" x2="337.5" y2="517.1"/>
<line x1="370.5" y1="536.1" x2="356.4" y2="560.6"/>
<line x1="149.2" y1="517.2" x2="135.0" y2="492.7"/>
<line x1="154.4" y1="514.2" x2="140.2" y2="489.7"/>
<line x1="151.8" y1="515.7" x2="137.6" y2="540.2"/>
<line x1="99.5" y1="328.8" x2="75.0" y2="314.7"/>
<line x1="102.5" y1="323.6" x2="78.0" y2="309.5"/>
<line x1="101.0" y1="326.2" x2="101.0" y2="354.5"/>
<line x1="400.0" y1="457.2" x2="424.4" y2="471.3"/>
<line x1="397.0" y1="462.4" x2="421.4" y2="476.5"/>
<line x1="398.5" y1="459.8" x2="398.5" y2="431.6"/>
<line x1="116.2" y1="423.2" x2="102.1" y2="447.6"/>
<line x1="111.0" y1="420.2" x2="96.9" y2="444.6"/>
<line x1="113.6" y1="421.7" x2="99.5" y2="397.2"/>
<line x1="459.7" y1="354.0" x2="473.8" y2="378.5"/>
<line x1="454.5" y1="357.0" x2="468.6" y2="381.5"/>
<line x1="457.1" y1="355.5" x2="471.2" y2="331.1"/>
<line x1="405.1" y1="132.8" x2="429.5" y2="146.9"/>
<line x1="402.1" y1="138.0" x2="426.5" y2="152.1"/>
<line x1="403.6" y1="135.4" x2="403.6" y2="107.2"/>
<line x1="438.1" y1="571.7" x2="462.6" y2="585.8"/>
<line x1="435.1" y1="576.9" x2="459.6" y2="591.0"/>
<line x1="436.6" y1="574.3" x2="412.2" y2="588.4"/>
<line x1="228.1" y1="383.5" x2="266.3" y2="383.5"/>
<line x1="225.5" y1="385.0" x2="211.4" y2="360.5"/>
<line x1="230.7" y1="382.0" x2="216.6" y2="357.5"/>
<line x1="266.3" y1="345.3" x2="266.3" y2="383.5"/>
<line x1="264.8" y1="342.7" x2="289.2" y2="328.6"/>
<line x1="267.8" y1="347.9" x2="292.2" y2="333.8"/>
<line x1="266.3" y1="459.8" x2="266.3" y2="421.7"/>
<line x1="267.8" y1="462.4" x2="243.3" y2="476.5"/>
<line x1="264.8" y1="457.2" x2="240.3" y2="471.3"/>
<line x1="228.1" y1="421.7" x2="266.3" y2="421.7"/>
<line x1="225.5" y1="423.2" x2="211.4" y2="398.7"/>
<line x1="230.7" y1="420.2" x2="216.6" y2="395.7"/>
<line x1="342.6" y1="421.7" x2="304.4" y2="421.7"/>
<line x1="345.2" y1="420.2" x2="359.3" y2="444.6"/>
<line x1="340.0" y1="423.2" x2="354.1" y2="447.6"/>
<line x1="106.1" y1="78.2" x2="106.1" y2="49.9"/>
<line x1="271.4" y1="249.9" x2="295.8" y2="264.0"/>
<line x1="272.9" y1="252.5" x2="248.4" y2="266.6"/>
<line x1="269.9" y1="247.3" x2="245.4" y2="261.4"/>
<line x1="337.5" y1="249.9" x2="313.0" y2="264.0"/>
<line x1="339.0" y1="247.3" x2="363.4" y2="261.4"/>
<line x1="336.0" y1="252.5" x2="360.4" y2="266.6"/>
<line x1="339.0" y1="519.7" x2="314.5" y2="533.8"/>
<line x1="336.0" y1="514.5" x2="311.5" y2="528.6"/>
<line x1="337.5" y1="517.1" x2="337.5" y2="488.8"/>
<line x1="304.4" y1="383.5" x2="266.3" y2="383.5"/>
<line x1="301.8" y1="382.0" x2="315.9" y2="357.5"/>
<line x1="307.0" y1="385.0" x2="321.1" y2="360.5"/>
<line x1="304.4" y1="383.5" x2="318.5" y2="407.9"/>
<line x1="304.4" y1="459.8" x2="304.4" y2="421.7"/>
<line x1="305.9" y1="462.4" x2="281.5" y2="476.5"/>
<line x1="302.9" y1="457.2" x2="278.5" y2="471.3"/>
<line x1="304.4" y1="459.8" x2="328.9" y2="473.9"/>
<line x1="74.6" y1="138.0" x2="50.1" y2="152.1"/>
<line x1="71.6" y1="132.8" x2="47.1" y2="146.9"/>
<line x1="266.3" y1="383.5" x2="266.3" y2="421.7"/>
<line x1="266.3" y1="421.7" x2="304.4" y2="421.7"/>
<line x1="304.4" y1="421.7" x2="304.4" y2="308.7"/>
<line x1="304.4" y1="192.7" x2="271.4" y2="211.7"/>
<line x1="295.6" y1="189.4" x2="273.0" y2="202.5"/>
<line x1="271.4" y1="211.7" x2="238.3" y2="192.7"/>
<line x1="238.3" y1="192.7" x2="238.3" y2="154.5"/>
<line x1="245.5" y1="186.7" x2="245.5" y2="160.5"/>
<line x1="238.3" y1="154.5" x2="271.4" y2="135.4"/>
<line x1="271.4" y1="135.4" x2="304.4" y2="154.5"/>
<line x1="273.0" y1="144.6" x2="295.6" y2="157.7"/>
<line x1="304.4" y1="154.5" x2="304.4" y2="192.7"/>
<line x1="205.3" y1="135.4" x2="205.3" y2="97.2"/>
<line x1="205.3" y1="97.2" x2="180.8" y2="83.1"/>
<line x1="196.5" y1="100.5" x2="179.1" y2="90.5"/>
<line x1="163.6" y1="83.1" x2="139.2" y2="97.2"/>
<line x1="139.2" y1="97.2" x2="139.2" y2="135.4"/>
<line x1="146.4" y1="103.2" x2="146.4" y2="129.4"/>
<line x1="139.2" y1="135.4" x2="163.6" y2="149.5"/>
<line x1="180.8" y1="149.5" x2="205.3" y2="135.4"/>
<line x1="179.1" y1="142.2" x2="196.5" y2="132.2"/>
<line x1="106.1" y1="78.2" x2="139.2" y2="97.2"/>
<line x1="139.2" y1="135.4" x2="114.7" y2="149.5"/>
<line x1="97.5" y1="149.5" x2="73.1" y2="135.4"/>
<line x1="73.1" y1="135.4" x2="73.1" y2="107.2"/>
<line x1="81.6" y1="92.3" x2="106.1" y2="78.2"/>
<line x1="87.1" y1="97.4" x2="104.5" y2="87.4"/>
<text x="152.351007" y="405.775648" fill="rgb(12,12,255)"  stroke="rgb(12,12,255)" stroke-width="1" font-size="16" >H</text>
<text x="164.351007" y="413.455648" fill="rgb(12,12,255)"  stroke="rgb(12,12,255)" stroke-width="1" font-size="13" >2</text>
<text x="170.851007" y="405.775648" fill="rgb(12,12,255)"  stroke="rgb(12,12,255)" stroke-width="1" font-size="16" >N</text>
<text x="213.229303" y="282.423985" fill="rgb(12,12,255)"  stroke="rgb(12,12,255)" stroke-width="1" font-size="16" >NH</text>
<text x="237.229303" y="290.103985" fill="rgb(12,12,255)"  stroke="rgb(12,12,255)" stroke-width="1" font-size="13" >2</text>
<text x="256.620102" y="516.751061" fill="rgb(12,12,255)"  stroke="rgb(12,12,255)" stroke-width="1" font-size="16" >H</text>
<text x="268.620102" y="521.551061" fill="rgb(12,12,255)"  stroke="rgb(12,12,255)" stroke-width="1" font-size="13" >2</text>
<text x="275.120102" y="516.751061" fill="rgb(12,12,255)"  stroke="rgb(12,12,255)" stroke-width="1" font-size="16" >N</text>
<text x="236.054964" y="478.585924" fill="rgb(12,12,255)"  stroke="rgb(12,12,255)" stroke-width="1" font-size="16" >NH</text>
<text x="260.054964" y="483.385924" fill="rgb(12,12,255)"  stroke="rgb(12,12,255)" stroke-width="1" font-size="13" >2</text>
<text x="305.011557" y="377.836829" fill="rgb(12,12,255)"  stroke="rgb(12,12,255)" stroke-width="1" font-size="16" >H</text>
<text x="317.011557" y="385.516829" fill="rgb(12,12,255)"  stroke="rgb(12,12,255)" stroke-width="1" font-size="13" >2</text>
<text x="323.511557" y="377.836829" fill="rgb(12,12,255)"  stroke="rgb(12,12,255)" stroke-width="1" font-size="16" >N</text>
<text x="275.702671" y="216.543119" fill="rgb(12,12,255)"  stroke="rgb(12,12,255)" stroke-width="1" font-size="16" >H</text>
<text x="287.702671" y="221.343119" fill="rgb(12,12,255)"  stroke="rgb(12,12,255)" stroke-width="1" font-size="13" >2</text>
<text x="294.202671" y="216.543119" fill="rgb(12,12,255)"  stroke="rgb(12,12,255)" stroke-width="1" font-size="16" >N</text>
<text x="327.837218" y="573.998768" fill="rgb(12,12,255)"  stroke="rgb(12,12,255)" stroke-width="1" font-size="16" >H</text>
<text x="339.837218" y="578.798768" fill="rgb(12,12,255)"  stroke="rgb(12,12,255)" stroke-width="1" font-size="13" >2</text>
<text x="346.337218" y="573.998768" fill="rgb(12,12,255)"  stroke="rgb(12,12,255)" stroke-width="1" font-size="16" >N</text>
<text x="24.400000" y="159.295413" fill="rgb(12,12,255)"  stroke="rgb(12,12,255)" stroke-width="1" font-size="16" >HN</text>
<text x="265.363851" y="105.567706" fill="rgb(12,12,255)"  stroke="rgb(12,12,255)" stroke-width="1" font-size="16" >NH</text>
<text x="166.207915" y="159.295413" fill="rgb(12,12,255)"  stroke="rgb(12,12,255)" stroke-width="1" font-size="16" >N</text>
<text x="166.207915" y="86.485138" fill="rgb(12,12,255)"  stroke="rgb(12,12,255)" stroke-width="1" font-size="16" >N</text>
<text x="100.103957" y="159.295413" fill="rgb(12,12,255)"  stroke="rgb(12,12,255)" stroke-width="1" font-size="16" >NH</text>
<text x="69.451979" y="105.567706" fill="rgb(12,12,255)"  stroke="rgb(12,12,255)" stroke-width="1" font-size="16" >N</text>
<text x="298.415830" y="277.310826" fill="rgb(12,12,255)"  stroke="rgb(12,12,255)" stroke-width="1" font-size="16" >N</text>
<text x="129.072710" y="490.962175" fill="rgb(255,12,12)"  stroke="rgb(255,12,12)" stroke-width="1" font-size="16" >O</text>
<text x="117.072710" y="553.546132" fill="rgb(255,12,12)"  stroke="rgb(255,12,12)" stroke-width="1" font-size="16" >HO</text>
<text x="64.338820" y="315.475963" fill="rgb(255,12,12)"  stroke="rgb(255,12,12)" stroke-width="1" font-size="16" >O</text>
<text x="94.990799" y="369.203670" fill="rgb(255,12,12)"  stroke="rgb(255,12,12)" stroke-width="1" font-size="16" >OH</text>
<text x="425.510586" y="483.699083" fill="rgb(255,12,12)"  stroke="rgb(255,12,12)" stroke-width="1" font-size="16" >O</text>
<text x="392.458607" y="429.971376" fill="rgb(255,12,12)"  stroke="rgb(255,12,12)" stroke-width="1" font-size="16" >OH</text>
<text x="90.907573" y="459.503355" fill="rgb(255,12,12)"  stroke="rgb(255,12,12)" stroke-width="1" font-size="16" >O</text>
<text x="78.907573" y="396.919397" fill="rgb(255,12,12)"  stroke="rgb(255,12,12)" stroke-width="1" font-size="16" >HO</text>
<text x="470.158949" y="393.399397" fill="rgb(255,12,12)"  stroke="rgb(255,12,12)" stroke-width="1" font-size="16" >O</text>
<text x="470.158949" y="330.815440" fill="rgb(255,12,12)"  stroke="rgb(255,12,12)" stroke-width="1" font-size="16" >OH</text>
<text x="430.623745" y="159.295413" fill="rgb(255,12,12)"  stroke="rgb(255,12,12)" stroke-width="1" font-size="16" >O</text>
<text x="397.571766" y="105.567706" fill="rgb(255,12,12)"  stroke="rgb(255,12,12)" stroke-width="1" font-size="16" >OH</text>
<text x="463.675723" y="598.194495" fill="rgb(255,12,12)"  stroke="rgb(255,12,12)" stroke-width="1" font-size="16" >O</text>
<text x="387.971766" y="598.194495" fill="rgb(255,12,12)"  stroke="rgb(255,12,12)" stroke-width="1" font-size="16" >HO</text>
<text x="205.402986" y="358.754260" fill="rgb(255,12,12)"  stroke="rgb(255,12,12)" stroke-width="1" font-size="16" >O</text>
<text x="293.302671" y="334.558532" fill="rgb(255,12,12)"  stroke="rgb(255,12,12)" stroke-width="1" font-size="16" >O</text>
<text x="229.598713" y="483.699083" fill="rgb(255,12,12)"  stroke="rgb(255,12,12)" stroke-width="1" font-size="16" >O</text>
<text x="205.402986" y="396.919397" fill="rgb(255,12,12)"  stroke="rgb(255,12,12)" stroke-width="1" font-size="16" >O</text>
<text x="355.663536" y="459.503355" fill="rgb(255,12,12)"  stroke="rgb(255,12,12)" stroke-width="1" font-size="16" >O</text>
<text x="100.103957" y="48.320000" fill="rgb(255,12,12)"  stroke="rgb(255,12,12)" stroke-width="1" font-size="16" >OH</text>
<text x="234.711872" y="273.790826" fill="rgb(255,12,12)"  stroke="rgb(255,12,12)" stroke-width="1" font-size="16" >O</text>
<text x="364.519787" y="273.790826" fill="rgb(255,12,12)"  stroke="rgb(255,12,12)" stroke-width="1" font-size="16" >O</text>
<text x="300.815830" y="540.946789" fill="rgb(255,12,12)"  stroke="rgb(255,12,12)" stroke-width="1" font-size="16" >O</text>
<text x="317.498399" y="358.754260" fill="rgb(255,12,12)"  stroke="rgb(255,12,12)" stroke-width="1" font-size="16" >O</text>
<text x="317.498399" y="421.338217" fill="rgb(255,12,12)"  stroke="rgb(255,12,12)" stroke-width="1" font-size="16" >OH</text>
<text x="267.763851" y="483.699083" fill="rgb(255,12,12)"  stroke="rgb(255,12,12)" stroke-width="1" font-size="16" >O</text>
<text x="331.467808" y="487.219083" fill="rgb(255,12,12)"  stroke="rgb(255,12,12)" stroke-width="1" font-size="16" >O</text>
<text x="172.351007" y="440.420786" fill="rgb(191,191,191)"  stroke="rgb(191,191,191)" stroke-width="1" font-size="16" >H</text>
<text x="177.464166" y="282.423985" fill="rgb(191,191,191)"  stroke="rgb(191,191,191)" stroke-width="1" font-size="16" >H</text>
<text x="312.385240" y="516.751061" fill="rgb(191,191,191)"  stroke="rgb(191,191,191)" stroke-width="1" font-size="16" >H</text>
<text x="203.002986" y="497.668492" fill="rgb(191,191,191)"  stroke="rgb(191,191,191)" stroke-width="1" font-size="16" >H</text>
<text x="355.663536" y="358.754260" fill="rgb(191,191,191)"  stroke="rgb(191,191,191)" stroke-width="1" font-size="16" >H</text>
<text x="314.785240" y="187.011141" fill="rgb(191,191,191)"  stroke="rgb(191,191,191)" stroke-width="1" font-size="16" >H</text>
<text x="383.602356" y="573.998768" fill="rgb(191,191,191)"  stroke="rgb(191,191,191)" stroke-width="1" font-size="16" >H</text>
<text font-size="18.000000" fill ="black" font-family="sans-serif"
x="140.000000" y="20.000000" ></text>
<title> - OBDepict</title>
</svg>
