<?xml version="1.0"?>
<svg xmlns="http://www.w3.org/2000/svg"
xmlns:xlink="http://www.w3.org/1999/xlink" xmlns:cml="http://www.xml-cml.org/schema" width="569.381" height="443.315" x="0" y="0" font-family="sans-serif" stroke="rgb(0,0,0)" stroke-width="1" >
<line x1="498.1" y1="246.6" x2="492.7" y2="219.4"/>
<line x1="176.9" y1="200.7" x2="199.9" y2="216.1"/>
<line x1="290.7" y1="314.6" x2="275.4" y2="291.6"/>
<line x1="275.2" y1="221.5" x2="249.0" y2="212.6"/>
<line x1="254.4" y1="239.8" x2="249.0" y2="212.6"/>
<polygon points="211.459070 242.375063 223.296658 219.946674 215.721217 217.375158 " />
<polygon points="325.923655 264.987319 350.411537 271.583132 351.247765 263.626957 " />
<line x1="226.1" y1="273.1" x2="225.5" y2="273.7"/>
<line x1="223.5" y1="270.4" x2="222.5" y2="271.6"/>
<line x1="221.0" y1="267.6" x2="219.4" y2="269.4"/>
<line x1="218.4" y1="264.8" x2="216.3" y2="267.2"/>
<line x1="215.9" y1="262.1" x2="213.2" y2="265.1"/>
<line x1="213.3" y1="259.3" x2="210.2" y2="262.9"/>
<line x1="210.8" y1="256.5" x2="207.1" y2="260.7"/>
<line x1="212.2" y1="294.2" x2="212.8" y2="294.7"/>
<line x1="209.5" y1="296.8" x2="210.8" y2="297.9"/>
<line x1="206.9" y1="299.5" x2="208.7" y2="301.0"/>
<line x1="204.2" y1="302.1" x2="206.7" y2="304.2"/>
<line x1="201.5" y1="304.8" x2="204.6" y2="307.3"/>
<line x1="198.9" y1="307.4" x2="202.6" y2="310.5"/>
<line x1="196.2" y1="310.1" x2="200.5" y2="313.6"/>
<line x1="341.1" y1="193.5" x2="378.3" y2="189.6"/>
<line x1="341.1" y1="193.5" x2="325.9" y2="227.6"/>
<line x1="235.9" y1="253.4" x2="123.5" y2="351.9"/>
<line x1="235.9" y1="253.4" x2="228.6" y2="216.7"/>
<line x1="278.2" y1="133.3" x2="313.6" y2="121.3"/>
<line x1="278.2" y1="133.3" x2="249.0" y2="280.0"/>
<line x1="378.3" y1="189.6" x2="393.5" y2="155.4"/>
<line x1="123.5" y1="351.9" x2="88.1" y2="339.9"/>
<line x1="313.6" y1="121.3" x2="320.9" y2="84.6"/>
<line x1="272.8" y1="263.2" x2="248.1" y2="235.1"/>
<line x1="272.8" y1="263.2" x2="419.4" y2="234.0"/>
<line x1="248.1" y1="235.1" x2="211.5" y2="242.4"/>
<line x1="252.2" y1="255.5" x2="215.5" y2="262.8"/>
<line x1="252.2" y1="255.5" x2="350.8" y2="367.9"/>
<line x1="341.1" y1="299.1" x2="378.3" y2="303.0"/>
<line x1="341.1" y1="299.1" x2="325.9" y2="265.0"/>
<line x1="257.8" y1="129.3" x2="293.2" y2="117.2"/>
<line x1="257.8" y1="129.3" x2="228.6" y2="275.9"/>
<line x1="468.1" y1="191.3" x2="492.7" y2="219.4"/>
<line x1="468.1" y1="191.3" x2="440.9" y2="196.7"/>
<polygon points="473.893338 235.944917 495.359185 222.440157 490.084418 216.425438 " />
<line x1="492.7" y1="219.4" x2="519.8" y2="214.0"/>
<line x1="349.7" y1="224.7" x2="349.8" y2="225.5"/>
<line x1="345.9" y1="224.7" x2="346.1" y2="226.3"/>
<line x1="342.2" y1="224.7" x2="342.4" y2="227.1"/>
<line x1="338.4" y1="224.7" x2="338.7" y2="227.9"/>
<line x1="334.6" y1="224.7" x2="335.1" y2="228.7"/>
<line x1="330.9" y1="224.7" x2="331.4" y2="229.4"/>
<line x1="327.1" y1="224.7" x2="327.7" y2="230.2"/>
<polygon points="209.784642 233.214353 231.250489 219.709593 225.975722 213.694875 " />
<polygon points="272.756249 271.908227 247.756344 276.170375 250.327860 283.745816 " />
<line x1="231.6" y1="280.5" x2="231.0" y2="281.1"/>
<line x1="229.4" y1="277.5" x2="228.2" y2="278.5"/>
<line x1="227.3" y1="274.4" x2="225.5" y2="276.0"/>
<line x1="225.1" y1="271.3" x2="222.7" y2="273.4"/>
<line x1="222.9" y1="268.2" x2="219.9" y2="270.9"/>
<line x1="220.8" y1="265.2" x2="217.2" y2="268.3"/>
<line x1="218.6" y1="262.1" x2="214.4" y2="265.8"/>
<line x1="393.5" y1="155.4" x2="377.2" y2="133.0"/>
<line x1="393.2" y1="152.4" x2="420.7" y2="149.5"/>
<line x1="393.8" y1="158.4" x2="421.3" y2="155.5"/>
<line x1="90.1" y1="342.2" x2="69.3" y2="360.4"/>
<line x1="86.1" y1="337.7" x2="65.3" y2="355.9"/>
<line x1="88.1" y1="339.9" x2="82.7" y2="312.8"/>
<line x1="319.9" y1="81.8" x2="346.1" y2="72.9"/>
<line x1="321.9" y1="87.5" x2="348.1" y2="78.6"/>
<line x1="320.9" y1="84.6" x2="300.1" y2="66.4"/>
<line x1="350.2" y1="365.0" x2="377.3" y2="359.6"/>
<line x1="351.3" y1="370.9" x2="378.5" y2="365.5"/>
<line x1="350.8" y1="367.9" x2="341.9" y2="394.1"/>
<line x1="375.9" y1="301.3" x2="392.1" y2="278.9"/>
<line x1="380.7" y1="304.8" x2="397.0" y2="282.4"/>
<line x1="378.3" y1="303.0" x2="389.5" y2="328.3"/>
<line x1="290.2" y1="116.7" x2="295.6" y2="89.5"/>
<line x1="296.1" y1="117.8" x2="301.5" y2="90.7"/>
<line x1="293.2" y1="117.2" x2="314.0" y2="135.5"/>
<line x1="416.6" y1="233.1" x2="425.5" y2="206.9"/>
<line x1="422.2" y1="235.0" x2="431.1" y2="208.8"/>
<line x1="419.4" y1="234.0" x2="437.6" y2="254.8"/>
<line x1="199.9" y1="276.5" x2="178.4" y2="294.0"/>
<line x1="290.4" y1="216.1" x2="325.9" y2="227.6"/>
<line x1="325.9" y1="227.6" x2="325.9" y2="265.0"/>
<line x1="325.9" y1="265.0" x2="290.4" y2="276.5"/>
<line x1="290.4" y1="276.5" x2="274.1" y2="254.2"/>
<line x1="292.7" y1="267.5" x2="281.3" y2="251.8"/>
<line x1="274.1" y1="238.4" x2="290.4" y2="216.1"/>
<line x1="228.6" y1="275.9" x2="249.0" y2="280.0"/>
<line x1="249.0" y1="280.0" x2="255.7" y2="299.7"/>
<line x1="255.7" y1="299.7" x2="240.0" y2="299.7"/>
<line x1="229.4" y1="297.6" x2="214.9" y2="291.6"/>
<line x1="214.9" y1="291.6" x2="228.6" y2="275.9"/>
<line x1="228.6" y1="216.7" x2="214.9" y2="201.0"/>
<line x1="214.9" y1="201.0" x2="229.4" y2="195.0"/>
<line x1="240.0" y1="192.9" x2="255.7" y2="192.9"/>
<line x1="243.9" y1="200.1" x2="249.7" y2="200.1"/>
<line x1="255.7" y1="192.9" x2="249.0" y2="212.6"/>
<line x1="249.0" y1="212.6" x2="228.6" y2="216.7"/>
<line x1="215.5" y1="262.8" x2="199.9" y2="276.5"/>
<line x1="199.9" y1="276.5" x2="193.8" y2="262.0"/>
<line x1="191.7" y1="251.4" x2="191.7" y2="235.7"/>
<line x1="198.9" y1="247.5" x2="198.9" y2="241.7"/>
<line x1="191.7" y1="235.7" x2="211.5" y2="242.4"/>
<line x1="211.5" y1="242.4" x2="215.5" y2="262.8"/>
<line x1="275.4" y1="201.0" x2="290.4" y2="216.1"/>
<line x1="274.5" y1="210.4" x2="281.0" y2="216.9"/>
<line x1="290.4" y1="276.5" x2="275.4" y2="291.6"/>
<line x1="275.4" y1="291.6" x2="255.7" y2="299.7"/>
<line x1="267.1" y1="287.2" x2="258.5" y2="290.7"/>
<line x1="214.9" y1="291.6" x2="199.9" y2="276.5"/>
<line x1="191.7" y1="235.7" x2="199.9" y2="216.1"/>
<line x1="199.9" y1="216.1" x2="214.9" y2="201.0"/>
<line x1="209.2" y1="216.9" x2="215.7" y2="210.4"/>
<line x1="255.7" y1="192.9" x2="275.4" y2="201.0"/>
<text x="494.013866" y="260.892480" fill="rgb(102,102,102)"  stroke="rgb(102,102,102)" stroke-width="1" font-size="16" >CH</text>
<text x="518.013866" y="265.692480" fill="rgb(102,102,102)"  stroke="rgb(102,102,102)" stroke-width="1" font-size="13" >3</text>
<text x="145.183832" y="203.612986" fill="rgb(102,102,102)"  stroke="rgb(102,102,102)" stroke-width="1" font-size="16" >H</text>
<text x="157.183832" y="211.292986" fill="rgb(102,102,102)"  stroke="rgb(102,102,102)" stroke-width="1" font-size="13" >3</text>
<text x="163.683832" y="203.612986" fill="rgb(102,102,102)"  stroke="rgb(102,102,102)" stroke-width="1" font-size="16" >C</text>
<text x="290.124179" y="327.433333" fill="rgb(102,102,102)"  stroke="rgb(102,102,102)" stroke-width="1" font-size="16" >CH</text>
<text x="314.124179" y="332.233333" fill="rgb(102,102,102)"  stroke="rgb(102,102,102)" stroke-width="1" font-size="13" >3</text>
<text x="278.436351" y="229.453382" fill="rgb(102,102,102)"  stroke="rgb(102,102,102)" stroke-width="1" font-size="16" >CH</text>
<text x="302.436351" y="234.253382" fill="rgb(102,102,102)"  stroke="rgb(102,102,102)" stroke-width="1" font-size="13" >3</text>
<text x="250.334166" y="254.098336" fill="rgb(102,102,102)"  stroke="rgb(102,102,102)" stroke-width="1" font-size="16" >CH</text>
<text x="274.334166" y="258.898336" fill="rgb(102,102,102)"  stroke="rgb(102,102,102)" stroke-width="1" font-size="13" >3</text>
<text x="217.473798" y="215.300814" fill="rgb(102,102,102)"  stroke="rgb(102,102,102)" stroke-width="1" font-size="16" >CH</text>
<text x="241.473798" y="222.980814" fill="rgb(102,102,102)"  stroke="rgb(102,102,102)" stroke-width="1" font-size="13" >3</text>
<text x="357.096783" y="273.694372" fill="rgb(102,102,102)"  stroke="rgb(102,102,102)" stroke-width="1" font-size="16" >CH</text>
<text x="381.096783" y="278.494372" fill="rgb(102,102,102)"  stroke="rgb(102,102,102)" stroke-width="1" font-size="13" >3</text>
<text x="176.910921" y="259.569561" fill="rgb(102,102,102)"  stroke="rgb(102,102,102)" stroke-width="1" font-size="16" >H</text>
<text x="188.910921" y="267.249561" fill="rgb(102,102,102)"  stroke="rgb(102,102,102)" stroke-width="1" font-size="13" >3</text>
<text x="195.410921" y="259.569561" fill="rgb(102,102,102)"  stroke="rgb(102,102,102)" stroke-width="1" font-size="16" >C</text>
<text x="167.697326" y="325.354587" fill="rgb(102,102,102)"  stroke="rgb(102,102,102)" stroke-width="1" font-size="16" >H</text>
<text x="179.697326" y="330.154587" fill="rgb(102,102,102)"  stroke="rgb(102,102,102)" stroke-width="1" font-size="13" >3</text>
<text x="186.197326" y="325.354587" fill="rgb(102,102,102)"  stroke="rgb(102,102,102)" stroke-width="1" font-size="16" >C</text>
<text x="366.732525" y="118.770231" fill="rgb(12,12,255)"  stroke="rgb(12,12,255)" stroke-width="1" font-size="32" >-</text>
<text x="355.932525" y="133.490231" fill="rgb(12,12,255)"  stroke="rgb(12,12,255)" stroke-width="1" font-size="16" >HN</text>
<text x="44.400000" y="369.371959" fill="rgb(12,12,255)"  stroke="rgb(12,12,255)" stroke-width="1" font-size="16" >HN</text>
<text x="350.290920" y="80.950226" fill="rgb(12,12,255)"  stroke="rgb(12,12,255)" stroke-width="1" font-size="16" >NH</text>
<text x="381.421831" y="368.948668" fill="rgb(12,12,255)"  stroke="rgb(12,12,255)" stroke-width="1" font-size="16" >NH</text>
<text x="394.269912" y="281.121425" fill="rgb(12,12,255)"  stroke="rgb(12,12,255)" stroke-width="1" font-size="16" >NH</text>
<text x="294.467675" y="88.901374" fill="rgb(12,12,255)"  stroke="rgb(12,12,255)" stroke-width="1" font-size="16" >NH</text>
<text x="427.817165" y="206.942677" fill="rgb(12,12,255)"  stroke="rgb(12,12,255)" stroke-width="1" font-size="16" >N</text>
<text x="264.805000" y="251.098375" fill="rgb(12,12,255)"  stroke="rgb(12,12,255)" stroke-width="1" font-size="16" >N</text>
<text x="230.900144" y="201.234834" fill="rgb(12,12,255)"  stroke="rgb(12,12,255)" stroke-width="1" font-size="16" >N</text>
<text x="188.135250" y="261.717021" fill="rgb(12,12,255)"  stroke="rgb(12,12,255)" stroke-width="1" font-size="16" >N</text>
<text x="218.900144" y="304.481915" fill="rgb(12,12,255)"  stroke="rgb(12,12,255)" stroke-width="1" font-size="16" >HN</text>
<text x="523.381484" y="220.460733" fill="rgb(255,12,12)"  stroke="rgb(255,12,12)" stroke-width="1" font-size="16" >OH</text>
<text x="424.675825" y="159.822524" fill="rgb(255,12,12)"  stroke="rgb(255,12,12)" stroke-width="1" font-size="16" >O</text>
<text x="65.210120" y="311.587322" fill="rgb(255,12,12)"  stroke="rgb(255,12,12)" stroke-width="1" font-size="16" >HO</text>
<text x="277.194488" y="68.320000" fill="rgb(255,12,12)"  stroke="rgb(255,12,12)" stroke-width="1" font-size="16" >HO</text>
<text x="323.147421" y="408.114981" fill="rgb(255,12,12)"  stroke="rgb(255,12,12)" stroke-width="1" font-size="16" >HO</text>
<text x="387.502697" y="341.987172" fill="rgb(255,12,12)"  stroke="rgb(255,12,12)" stroke-width="1" font-size="16" >OH</text>
<text x="315.277795" y="146.686011" fill="rgb(255,12,12)"  stroke="rgb(255,12,12)" stroke-width="1" font-size="16" >OH</text>
<text x="438.047391" y="266.919110" fill="rgb(255,12,12)"  stroke="rgb(255,12,12)" stroke-width="1" font-size="16" >OH</text>
<text x="35.200000" y="59.200000" fill="rgb(239,142,160)"  stroke="rgb(239,142,160)" stroke-width="1" font-size="16" >+</text>
<text x="34.000000" y="44.800000" fill="rgb(239,142,160)"  stroke="rgb(239,142,160)" stroke-width="1" font-size="16" >Co</text>
<text x="461.019617" y="248.877752" fill="rgb(191,191,191)"  stroke="rgb(191,191,191)" stroke-width="1" font-size="16" >H</text>
<text x="357.096783" y="232.022377" fill="rgb(191,191,191)"  stroke="rgb(191,191,191)" stroke-width="1" font-size="16" >H</text>
<text x="196.910921" y="246.147188" fill="rgb(191,191,191)"  stroke="rgb(191,191,191)" stroke-width="1" font-size="16" >H</text>
<text x="278.436351" y="276.263367" fill="rgb(191,191,191)"  stroke="rgb(191,191,191)" stroke-width="1" font-size="16" >H</text>
<text x="234.167604" y="295.706244" fill="rgb(191,191,191)"  stroke="rgb(191,191,191)" stroke-width="1" font-size="16" >H</text>
<text x="167.262578" y="304.919839" fill="rgb(191,191,191)"  stroke="rgb(191,191,191)" stroke-width="1" font-size="16" >H</text>
<text font-size="18.000000" fill ="black" font-family="sans-serif"
x="140.000000" y="20.000000" ></text>
<title> - OBDepict</title>
</svg>
