<?xml version="1.0"?>
<svg xmlns="http://www.w3.org/2000/svg"
xmlns:xlink="http://www.w3.org/1999/xlink" xmlns:cml="http://www.xml-cml.org/schema" width="356.698" height="407.143" x="0" y="0" font-family="sans-serif" stroke="rgb(0,0,0)" stroke-width="1" >
<line x1="70.0" y1="152.9" x2="79.1" y2="181.0"/>
<line x1="162.7" y1="49.9" x2="171.8" y2="78.0"/>
<line x1="142.9" y1="71.9" x2="171.8" y2="78.0"/>
<line x1="213.2" y1="288.5" x2="212.4" y2="288.5"/>
<line x1="213.6" y1="284.5" x2="212.0" y2="284.5"/>
<line x1="214.0" y1="280.5" x2="211.6" y2="280.5"/>
<line x1="214.4" y1="276.5" x2="211.2" y2="276.5"/>
<line x1="214.8" y1="272.5" x2="210.8" y2="272.5"/>
<line x1="215.2" y1="268.5" x2="210.4" y2="268.5"/>
<line x1="215.6" y1="264.5" x2="210.0" y2="264.5"/>
<line x1="110.8" y1="229.0" x2="110.1" y2="228.7"/>
<line x1="112.8" y1="225.5" x2="111.4" y2="224.9"/>
<line x1="114.8" y1="222.0" x2="112.6" y2="221.1"/>
<line x1="116.8" y1="218.5" x2="113.9" y2="217.2"/>
<line x1="118.8" y1="215.0" x2="115.2" y2="213.4"/>
<line x1="120.8" y1="211.6" x2="116.4" y2="209.6"/>
<line x1="122.8" y1="208.1" x2="117.7" y2="205.8"/>
<line x1="125.5" y1="129.5" x2="117.2" y2="168.7"/>
<line x1="125.5" y1="129.5" x2="163.5" y2="117.2"/>
<line x1="117.2" y1="168.7" x2="79.1" y2="181.0"/>
<line x1="163.5" y1="117.2" x2="171.8" y2="78.0"/>
<polygon points="52.911548 175.443395 78.294257 184.928019 79.957551 177.102838 " />
<line x1="79.1" y1="181.0" x2="70.8" y2="220.1"/>
<line x1="283.6" y1="329.9" x2="309.2" y2="344.7"/>
<line x1="280.6" y1="335.1" x2="306.2" y2="349.9"/>
<polygon points="50.893155 202.208632 68.132914 223.113912 73.485959 217.168753 " />
<polygon points="119.752239 296.985030 112.505879 270.875065 105.197515 274.128959 " />
<polygon points="201.343210 259.102012 176.133729 269.037910 180.133729 275.966114 " />
<line x1="117.9" y1="332.9" x2="117.9" y2="332.1"/>
<line x1="121.9" y1="333.3" x2="121.9" y2="331.7"/>
<line x1="125.9" y1="333.7" x2="125.9" y2="331.3"/>
<line x1="129.9" y1="334.1" x2="129.9" y2="330.9"/>
<line x1="133.9" y1="334.5" x2="133.9" y2="330.5"/>
<line x1="137.9" y1="334.9" x2="137.9" y2="330.1"/>
<line x1="141.9" y1="335.3" x2="141.9" y2="329.7"/>
<line x1="143.5" y1="332.5" x2="128.7" y2="358.1"/>
<line x1="121.5" y1="305.6" x2="121.1" y2="305.0"/>
<line x1="125.2" y1="304.0" x2="124.4" y2="302.6"/>
<line x1="128.9" y1="302.3" x2="127.7" y2="300.3"/>
<line x1="132.5" y1="300.7" x2="130.9" y2="297.9"/>
<line x1="136.2" y1="299.0" x2="134.2" y2="295.6"/>
<line x1="139.8" y1="297.4" x2="137.4" y2="293.2"/>
<line x1="143.5" y1="295.7" x2="140.7" y2="290.9"/>
<line x1="171.8" y1="78.0" x2="200.0" y2="68.9"/>
<line x1="47.3" y1="252.5" x2="70.8" y2="284.9"/>
<line x1="70.8" y1="284.9" x2="108.9" y2="272.5"/>
<line x1="108.9" y1="272.5" x2="108.9" y2="232.5"/>
<line x1="108.9" y1="232.5" x2="70.8" y2="220.1"/>
<line x1="70.8" y1="220.1" x2="47.3" y2="252.5"/>
<line x1="178.1" y1="352.5" x2="212.8" y2="332.5"/>
<line x1="212.8" y1="332.5" x2="212.8" y2="292.5"/>
<line x1="212.8" y1="292.5" x2="178.1" y2="272.5"/>
<line x1="178.1" y1="272.5" x2="143.5" y2="292.5"/>
<line x1="143.5" y1="292.5" x2="143.5" y2="332.5"/>
<line x1="143.5" y1="332.5" x2="178.1" y2="352.5"/>
<line x1="178.1" y1="272.5" x2="178.1" y2="232.5"/>
<line x1="178.1" y1="232.5" x2="143.5" y2="212.5"/>
<line x1="143.5" y1="212.5" x2="108.9" y2="232.5"/>
<line x1="108.9" y1="272.5" x2="143.5" y2="292.5"/>
<line x1="282.1" y1="292.5" x2="247.4" y2="272.5"/>
<line x1="247.4" y1="272.5" x2="212.8" y2="292.5"/>
<line x1="212.8" y1="332.5" x2="247.4" y2="352.5"/>
<line x1="221.6" y1="329.3" x2="245.8" y2="343.3"/>
<line x1="247.4" y1="352.5" x2="282.1" y2="332.5"/>
<line x1="282.1" y1="332.5" x2="282.1" y2="292.5"/>
<text x="43.165224" y="151.293168" fill="rgb(102,102,102)"  stroke="rgb(102,102,102)" stroke-width="1" font-size="16" >H</text>
<text x="55.165224" y="158.973168" fill="rgb(102,102,102)"  stroke="rgb(102,102,102)" stroke-width="1" font-size="13" >3</text>
<text x="61.665224" y="151.293168" fill="rgb(102,102,102)"  stroke="rgb(102,102,102)" stroke-width="1" font-size="16" >C</text>
<text x="135.882681" y="48.320000" fill="rgb(102,102,102)"  stroke="rgb(102,102,102)" stroke-width="1" font-size="16" >H</text>
<text x="147.882681" y="56.000000" fill="rgb(102,102,102)"  stroke="rgb(102,102,102)" stroke-width="1" font-size="13" >3</text>
<text x="154.382681" y="48.320000" fill="rgb(102,102,102)"  stroke="rgb(102,102,102)" stroke-width="1" font-size="16" >C</text>
<text x="109.117457" y="78.045793" fill="rgb(102,102,102)"  stroke="rgb(102,102,102)" stroke-width="1" font-size="16" >H</text>
<text x="121.117457" y="85.725793" fill="rgb(102,102,102)"  stroke="rgb(102,102,102)" stroke-width="1" font-size="13" >3</text>
<text x="127.617457" y="78.045793" fill="rgb(102,102,102)"  stroke="rgb(102,102,102)" stroke-width="1" font-size="16" >C</text>
<text x="206.774746" y="260.822012" fill="rgb(102,102,102)"  stroke="rgb(102,102,102)" stroke-width="1" font-size="16" >CH</text>
<text x="230.774746" y="268.502012" fill="rgb(102,102,102)"  stroke="rgb(102,102,102)" stroke-width="1" font-size="13" >3</text>
<text x="119.121163" y="204.280194" fill="rgb(102,102,102)"  stroke="rgb(102,102,102)" stroke-width="1" font-size="16" >CH</text>
<text x="143.121163" y="211.960194" fill="rgb(102,102,102)"  stroke="rgb(102,102,102)" stroke-width="1" font-size="13" >3</text>
<text x="310.697794" y="357.302012" fill="rgb(255,12,12)"  stroke="rgb(255,12,12)" stroke-width="1" font-size="16" >O</text>
<text x="107.892713" y="371.943028" fill="rgb(255,12,12)"  stroke="rgb(255,12,12)" stroke-width="1" font-size="16" >HO</text>
<text x="203.885621" y="74.001581" fill="rgb(255,12,12)"  stroke="rgb(255,12,12)" stroke-width="1" font-size="16" >OH</text>
<text x="36.400000" y="181.018961" fill="rgb(191,191,191)"  stroke="rgb(191,191,191)" stroke-width="1" font-size="16" >H</text>
<text x="37.483643" y="201.696108" fill="rgb(191,191,191)"  stroke="rgb(191,191,191)" stroke-width="1" font-size="16" >H</text>
<text x="119.121163" y="313.843830" fill="rgb(191,191,191)"  stroke="rgb(191,191,191)" stroke-width="1" font-size="16" >H</text>
<text x="206.774746" y="260.822012" fill="rgb(191,191,191)"  stroke="rgb(191,191,191)" stroke-width="1" font-size="16" >H</text>
<text x="99.892713" y="337.302012" fill="rgb(191,191,191)"  stroke="rgb(191,191,191)" stroke-width="1" font-size="16" >H</text>
<text x="105.251697" y="317.302012" fill="rgb(191,191,191)"  stroke="rgb(191,191,191)" stroke-width="1" font-size="16" >H</text>
<text font-size="18.000000" fill ="black" font-family="sans-serif"
x="140.000000" y="20.000000" ></text>
<title> - OBDepict</title>
</svg>
