<?xml version="1.0"?>
<svg xmlns="http://www.w3.org/2000/svg"
xmlns:xlink="http://www.w3.org/1999/xlink" xmlns:cml="http://www.xml-cml.org/schema" width="881.793" height="744.472" x="0" y="0" font-family="sans-serif" stroke="rgb(0,0,0)" stroke-width="1" >
<line x1="171.8" y1="696.9" x2="191.2" y2="675.4"/>
<line x1="564.6" y1="116.0" x2="586.1" y2="135.4"/>
<line x1="558.6" y1="144.4" x2="586.1" y2="135.4"/>
<line x1="191.2" y1="675.4" x2="179.1" y2="638.1"/>
<line x1="179.1" y1="638.1" x2="198.5" y2="616.6"/>
<line x1="178.5" y1="641.1" x2="140.2" y2="632.9"/>
<line x1="179.7" y1="635.2" x2="141.4" y2="627.1"/>
<line x1="140.8" y1="630.0" x2="121.4" y2="651.5"/>
<line x1="140.8" y1="630.0" x2="128.7" y2="592.8"/>
<line x1="128.7" y1="592.8" x2="90.4" y2="584.6"/>
<line x1="90.4" y1="584.6" x2="71.0" y2="606.2"/>
<line x1="87.5" y1="585.6" x2="75.4" y2="548.3"/>
<line x1="93.2" y1="583.7" x2="81.1" y2="546.5"/>
<line x1="78.3" y1="547.4" x2="50.0" y2="541.4"/>
<line x1="78.3" y1="547.4" x2="104.5" y2="518.3"/>
<line x1="104.5" y1="518.3" x2="92.4" y2="481.1"/>
<line x1="92.4" y1="481.1" x2="64.1" y2="475.1"/>
<line x1="90.2" y1="479.1" x2="116.4" y2="450.0"/>
<line x1="94.6" y1="483.1" x2="120.8" y2="454.0"/>
<line x1="118.6" y1="452.0" x2="109.6" y2="424.4"/>
<line x1="118.6" y1="452.0" x2="156.9" y2="460.1"/>
<line x1="156.9" y1="460.1" x2="183.1" y2="431.0"/>
<line x1="183.1" y1="431.0" x2="174.1" y2="403.5"/>
<line x1="183.7" y1="428.1" x2="222.0" y2="436.2"/>
<line x1="182.5" y1="434.0" x2="220.7" y2="442.1"/>
<line x1="221.4" y1="439.2" x2="230.3" y2="466.7"/>
<line x1="221.4" y1="439.2" x2="247.6" y2="410.1"/>
<line x1="247.6" y1="410.1" x2="235.5" y2="372.8"/>
<line x1="235.5" y1="372.8" x2="207.1" y2="366.8"/>
<line x1="233.2" y1="370.8" x2="259.4" y2="341.7"/>
<line x1="237.7" y1="374.8" x2="263.9" y2="345.8"/>
<line x1="261.7" y1="343.7" x2="290.0" y2="349.8"/>
<line x1="261.7" y1="343.7" x2="249.6" y2="306.5"/>
<line x1="249.6" y1="306.5" x2="211.3" y2="298.4"/>
<line x1="211.3" y1="298.4" x2="191.9" y2="319.9"/>
<line x1="208.4" y1="299.3" x2="196.3" y2="262.1"/>
<line x1="214.1" y1="297.4" x2="202.0" y2="260.2"/>
<line x1="199.2" y1="261.1" x2="170.8" y2="255.1"/>
<line x1="199.2" y1="261.1" x2="225.4" y2="232.0"/>
<line x1="225.4" y1="232.0" x2="263.7" y2="240.2"/>
<line x1="263.7" y1="240.2" x2="289.9" y2="211.1"/>
<line x1="289.9" y1="211.1" x2="328.2" y2="219.2"/>
<line x1="328.2" y1="219.2" x2="354.3" y2="190.1"/>
<line x1="497.4" y1="81.9" x2="535.7" y2="90.0"/>
<line x1="497.4" y1="81.9" x2="471.2" y2="111.0"/>
<line x1="535.7" y1="90.0" x2="555.1" y2="68.5"/>
<line x1="457.1" y1="177.3" x2="418.8" y2="169.2"/>
<line x1="457.1" y1="177.3" x2="476.5" y2="155.8"/>
<line x1="418.8" y1="169.2" x2="399.5" y2="190.7"/>
<line x1="579.9" y1="352.8" x2="618.2" y2="360.9"/>
<line x1="579.9" y1="352.8" x2="571.0" y2="325.2"/>
<line x1="610.3" y1="209.9" x2="586.1" y2="135.4"/>
<line x1="610.3" y1="209.9" x2="590.9" y2="231.4"/>
<line x1="610.1" y1="337.2" x2="610.9" y2="337.0"/>
<line x1="610.9" y1="341.1" x2="612.4" y2="340.6"/>
<line x1="611.8" y1="344.9" x2="614.0" y2="344.2"/>
<line x1="612.6" y1="348.8" x2="615.6" y2="347.8"/>
<line x1="613.4" y1="352.6" x2="617.2" y2="351.4"/>
<line x1="614.2" y1="356.5" x2="618.8" y2="355.0"/>
<line x1="615.1" y1="360.3" x2="620.4" y2="358.6"/>
<line x1="474.1" y1="110.1" x2="483.0" y2="137.6"/>
<line x1="468.4" y1="111.9" x2="477.3" y2="139.5"/>
<line x1="471.2" y1="111.0" x2="442.9" y2="105.0"/>
<line x1="351.5" y1="191.1" x2="342.5" y2="163.5"/>
<line x1="357.2" y1="189.2" x2="348.2" y2="161.7"/>
<line x1="354.3" y1="190.1" x2="382.7" y2="196.2"/>
<polygon points="641.788431 440.741580 653.698107 417.031638 646.089655 414.559502 " />
<line x1="649.9" y1="415.8" x2="669.3" y2="437.3"/>
<polygon points="587.899761 399.872263 614.129548 403.872263 614.129548 395.872263 " />
<line x1="614.1" y1="399.9" x2="599.6" y2="425.0"/>
<polygon points="637.251784 98.220730 611.069706 102.521954 613.541842 110.130406 " />
<line x1="612.3" y1="106.3" x2="600.2" y2="69.1"/>
<line x1="612.3" y1="106.3" x2="586.1" y2="135.4"/>
<line x1="612.3" y1="106.3" x2="633.8" y2="125.7"/>
<line x1="817.2" y1="488.2" x2="827.5" y2="515.2"/>
<line x1="599.6" y1="72.0" x2="571.2" y2="66.0"/>
<line x1="600.8" y1="66.2" x2="572.5" y2="60.1"/>
<line x1="600.2" y1="69.1" x2="619.6" y2="47.6"/>
<line x1="691.7" y1="367.1" x2="692.3" y2="367.6"/>
<line x1="688.9" y1="369.9" x2="690.2" y2="370.9"/>
<line x1="686.1" y1="372.7" x2="688.0" y2="374.2"/>
<line x1="683.3" y1="375.4" x2="685.8" y2="377.5"/>
<line x1="680.5" y1="378.2" x2="683.6" y2="380.7"/>
<line x1="677.7" y1="380.9" x2="681.4" y2="384.0"/>
<line x1="674.9" y1="383.7" x2="679.2" y2="387.3"/>
<line x1="676.1" y1="386.7" x2="712.6" y2="431.7"/>
<line x1="555.4" y1="462.7" x2="555.4" y2="444.0"/>
<line x1="526.4" y1="433.8" x2="545.2" y2="433.8"/>
<line x1="558.4" y1="404.8" x2="558.4" y2="423.6"/>
<line x1="552.4" y1="404.8" x2="552.4" y2="423.6"/>
<line x1="523.5" y1="335.8" x2="527.4" y2="317.4"/>
<line x1="501.8" y1="298.5" x2="520.2" y2="302.4"/>
<line x1="500.6" y1="304.3" x2="519.0" y2="308.2"/>
<line x1="517.5" y1="224.8" x2="535.9" y2="228.7"/>
<line x1="554.8" y1="203.1" x2="550.9" y2="221.5"/>
<line x1="548.9" y1="201.9" x2="545.0" y2="220.3"/>
<line x1="557.9" y1="313.4" x2="539.5" y2="309.5"/>
<line x1="574.2" y1="236.9" x2="555.8" y2="233.0"/>
<line x1="584.4" y1="433.8" x2="565.6" y2="433.8"/>
<line x1="535.6" y1="279.1" x2="531.7" y2="297.5"/>
<line x1="539.8" y1="259.2" x2="543.7" y2="240.8"/>
<line x1="715.2" y1="485.4" x2="722.7" y2="457.4"/>
<line x1="735.5" y1="447.0" x2="764.5" y2="445.5"/>
<line x1="764.5" y1="445.5" x2="778.5" y2="482.1"/>
<line x1="778.5" y1="482.1" x2="756.0" y2="500.3"/>
<line x1="739.5" y1="501.1" x2="715.2" y2="485.4"/>
<line x1="741.7" y1="494.0" x2="724.2" y2="482.6"/>
<line x1="618.2" y1="360.9" x2="614.1" y2="399.9"/>
<line x1="614.1" y1="399.9" x2="649.9" y2="415.8"/>
<line x1="649.9" y1="415.8" x2="676.1" y2="386.7"/>
<line x1="676.1" y1="386.7" x2="661.6" y2="361.6"/>
<line x1="646.6" y1="354.9" x2="618.2" y2="360.9"/>
<line x1="764.5" y1="445.5" x2="782.7" y2="423.0"/>
<line x1="773.8" y1="445.4" x2="787.0" y2="429.1"/>
<line x1="799.1" y1="416.7" x2="827.8" y2="421.2"/>
<line x1="827.8" y1="421.2" x2="838.1" y2="448.2"/>
<line x1="823.2" y1="429.4" x2="830.7" y2="448.9"/>
<line x1="835.4" y1="465.7" x2="817.2" y2="488.2"/>
<line x1="817.2" y1="488.2" x2="778.5" y2="482.1"/>
<line x1="812.4" y1="480.1" x2="785.5" y2="475.9"/>
<text x="141.377622" y="709.271810" fill="rgb(102,102,102)"  stroke="rgb(102,102,102)" stroke-width="1" font-size="16" >H</text>
<text x="153.377622" y="714.071810" fill="rgb(102,102,102)"  stroke="rgb(102,102,102)" stroke-width="1" font-size="13" >3</text>
<text x="159.877622" y="709.271810" fill="rgb(102,102,102)"  stroke="rgb(102,102,102)" stroke-width="1" font-size="16" >C</text>
<text x="533.416694" y="117.543758" fill="rgb(102,102,102)"  stroke="rgb(102,102,102)" stroke-width="1" font-size="16" >H</text>
<text x="545.416694" y="125.223758" fill="rgb(102,102,102)"  stroke="rgb(102,102,102)" stroke-width="1" font-size="13" >3</text>
<text x="551.916694" y="117.543758" fill="rgb(102,102,102)"  stroke="rgb(102,102,102)" stroke-width="1" font-size="16" >C</text>
<text x="525.277172" y="152.317196" fill="rgb(102,102,102)"  stroke="rgb(102,102,102)" stroke-width="1" font-size="16" >H</text>
<text x="537.277172" y="157.117196" fill="rgb(102,102,102)"  stroke="rgb(102,102,102)" stroke-width="1" font-size="13" >3</text>
<text x="543.777172" y="152.317196" fill="rgb(102,102,102)"  stroke="rgb(102,102,102)" stroke-width="1" font-size="16" >C</text>
<text x="825.185760" y="529.523823" fill="rgb(12,12,255)"  stroke="rgb(12,12,255)" stroke-width="1" font-size="16" >NH</text>
<text x="849.185760" y="534.323823" fill="rgb(12,12,255)"  stroke="rgb(12,12,255)" stroke-width="1" font-size="13" >2</text>
<text x="477.327396" y="153.033796" fill="rgb(12,12,255)"  stroke="rgb(12,12,255)" stroke-width="1" font-size="16" >N</text>
<text x="558.314650" y="69.273808" fill="rgb(12,12,255)"  stroke="rgb(12,12,255)" stroke-width="1" font-size="16" >N</text>
<text x="835.793259" y="462.550705" fill="rgb(12,12,255)"  stroke="rgb(12,12,255)" stroke-width="1" font-size="16" >N</text>
<text x="785.496588" y="423.397781" fill="rgb(12,12,255)"  stroke="rgb(12,12,255)" stroke-width="1" font-size="16" >N</text>
<text x="742.064650" y="511.488123" fill="rgb(12,12,255)"  stroke="rgb(12,12,255)" stroke-width="1" font-size="16" >N</text>
<text x="719.364080" y="452.351116" fill="rgb(12,12,255)"  stroke="rgb(12,12,255)" stroke-width="1" font-size="16" >N</text>
<text x="417.336271" y="111.181423" fill="rgb(255,12,12)"  stroke="rgb(255,12,12)" stroke-width="1" font-size="16" >HO</text>
<text x="338.651330" y="161.228561" fill="rgb(255,12,12)"  stroke="rgb(255,12,12)" stroke-width="1" font-size="16" >O</text>
<text x="670.089632" y="449.688899" fill="rgb(255,12,12)"  stroke="rgb(255,12,12)" stroke-width="1" font-size="16" >OH</text>
<text x="635.399104" y="137.321932" fill="rgb(255,12,12)"  stroke="rgb(255,12,12)" stroke-width="1" font-size="16" >OH</text>
<text x="620.403839" y="48.320000" fill="rgb(255,12,12)"  stroke="rgb(255,12,12)" stroke-width="1" font-size="16" >OH</text>
<text x="549.406144" y="477.725173" fill="rgb(255,12,12)"  stroke="rgb(255,12,12)" stroke-width="1" font-size="16" >OH</text>
<text x="500.657208" y="438.576236" fill="rgb(255,12,12)"  stroke="rgb(255,12,12)" stroke-width="1" font-size="16" >HO</text>
<text x="549.406144" y="402.947300" fill="rgb(255,12,12)"  stroke="rgb(255,12,12)" stroke-width="1" font-size="16" >O</text>
<text x="505.797642" y="350.519333" fill="rgb(255,12,12)"  stroke="rgb(255,12,12)" stroke-width="1" font-size="16" >HO</text>
<text x="487.643726" y="307.606374" fill="rgb(255,12,12)"  stroke="rgb(255,12,12)" stroke-width="1" font-size="16" >O</text>
<text x="491.922769" y="231.019498" fill="rgb(255,12,12)"  stroke="rgb(255,12,12)" stroke-width="1" font-size="16" >HO</text>
<text x="547.955728" y="200.865581" fill="rgb(255,12,12)"  stroke="rgb(255,12,12)" stroke-width="1" font-size="16" >O</text>
<text x="561.830602" y="323.885417" fill="rgb(255,12,12)"  stroke="rgb(255,12,12)" stroke-width="1" font-size="16" >O</text>
<text x="578.109645" y="243.778541" fill="rgb(255,12,12)"  stroke="rgb(255,12,12)" stroke-width="1" font-size="16" >O</text>
<text x="650.515164" y="361.118267" fill="rgb(255,12,12)"  stroke="rgb(255,12,12)" stroke-width="1" font-size="16" >O</text>
<text x="588.555080" y="438.576236" fill="rgb(255,12,12)"  stroke="rgb(255,12,12)" stroke-width="1" font-size="16" >O</text>
<text x="531.676685" y="277.452457" fill="rgb(255,12,12)"  stroke="rgb(255,12,12)" stroke-width="1" font-size="16" >O</text>
<text x="549.406144" y="442.096236" fill="rgb(255,127,0)"  stroke="rgb(255,127,0)" stroke-width="1" font-size="16" >P</text>
<text x="523.537164" y="312.225895" fill="rgb(255,127,0)"  stroke="rgb(255,127,0)" stroke-width="1" font-size="16" >P</text>
<text x="539.816207" y="235.639019" fill="rgb(255,127,0)"  stroke="rgb(255,127,0)" stroke-width="1" font-size="16" >P</text>
<text x="386.642455" y="203.080933" fill="rgb(178,178,0)"  stroke="rgb(178,178,0)" stroke-width="1" font-size="16" >S</text>
<text x="199.271439" y="617.372300" fill="rgb(191,191,191)"  stroke="rgb(191,191,191)" stroke-width="1" font-size="16" >H</text>
<text x="110.986498" y="663.899438" fill="rgb(191,191,191)"  stroke="rgb(191,191,191)" stroke-width="1" font-size="16" >H</text>
<text x="60.595373" y="618.527065" fill="rgb(191,191,191)"  stroke="rgb(191,191,191)" stroke-width="1" font-size="16" >H</text>
<text x="36.400000" y="547.581364" fill="rgb(191,191,191)"  stroke="rgb(191,191,191)" stroke-width="1" font-size="16" >H</text>
<text x="50.498065" y="481.255183" fill="rgb(191,191,191)"  stroke="rgb(191,191,191)" stroke-width="1" font-size="16" >H</text>
<text x="102.889568" y="423.068525" fill="rgb(191,191,191)"  stroke="rgb(191,191,191)" stroke-width="1" font-size="16" >H</text>
<text x="167.378757" y="402.114717" fill="rgb(191,191,191)"  stroke="rgb(191,191,191)" stroke-width="1" font-size="16" >H</text>
<text x="227.467568" y="481.199940" fill="rgb(191,191,191)"  stroke="rgb(191,191,191)" stroke-width="1" font-size="16" >H</text>
<text x="193.574508" y="373.021388" fill="rgb(191,191,191)"  stroke="rgb(191,191,191)" stroke-width="1" font-size="16" >H</text>
<text x="293.957136" y="356.687101" fill="rgb(191,191,191)"  stroke="rgb(191,191,191)" stroke-width="1" font-size="16" >H</text>
<text x="181.476822" y="332.268537" fill="rgb(191,191,191)"  stroke="rgb(191,191,191)" stroke-width="1" font-size="16" >H</text>
<text x="157.281449" y="261.322835" fill="rgb(191,191,191)"  stroke="rgb(191,191,191)" stroke-width="1" font-size="16" >H</text>
<text x="602.524040" y="332.024938" fill="rgb(191,191,191)"  stroke="rgb(191,191,191)" stroke-width="1" font-size="16" >H</text>
<text x="634.196194" y="457.828421" fill="rgb(191,191,191)"  stroke="rgb(191,191,191)" stroke-width="1" font-size="16" >H</text>
<text x="571.380612" y="404.672263" fill="rgb(191,191,191)"  stroke="rgb(191,191,191)" stroke-width="1" font-size="16" >H</text>
<text x="643.538625" y="102.548494" fill="rgb(191,191,191)"  stroke="rgb(191,191,191)" stroke-width="1" font-size="16" >H</text>
<text x="695.004481" y="364.824733" fill="rgb(191,191,191)"  stroke="rgb(191,191,191)" stroke-width="1" font-size="16" >H</text>
<text font-size="18.000000" fill ="black" font-family="sans-serif"
x="140.000000" y="20.000000" ></text>
<title> - OBDepict</title>
</svg>
