<?xml version="1.0"?>
<svg xmlns="http://www.w3.org/2000/svg"
xmlns:xlink="http://www.w3.org/1999/xlink" xmlns:cml="http://www.xml-cml.org/schema" width="677.174" height="624.956" x="0" y="0" font-family="sans-serif" stroke="rgb(0,0,0)" stroke-width="1" >
<line x1="544.8" y1="351.3" x2="515.5" y2="361.1"/>
<line x1="319.0" y1="481.8" x2="342.1" y2="461.3"/>
<line x1="465.2" y1="213.6" x2="442.1" y2="234.1"/>
<line x1="258.0" y1="274.6" x2="278.5" y2="297.7"/>
<line x1="400.5" y1="167.1" x2="386.5" y2="191.4"/>
<line x1="216.7" y1="310.0" x2="230.7" y2="334.3"/>
<line x1="277.5" y1="68.5" x2="286.6" y2="84.3"/>
<line x1="69.9" y1="367.3" x2="88.1" y2="367.3"/>
<line x1="538.6" y1="416.7" x2="571.4" y2="397.7"/>
<line x1="538.6" y1="416.7" x2="505.7" y2="397.7"/>
<line x1="378.7" y1="509.1" x2="411.6" y2="528.0"/>
<line x1="378.7" y1="509.1" x2="378.7" y2="471.1"/>
<line x1="571.4" y1="397.7" x2="604.3" y2="416.7"/>
<line x1="411.6" y1="528.0" x2="411.6" y2="566.0"/>
<line x1="478.8" y1="297.6" x2="505.5" y2="282.2"/>
<line x1="305.4" y1="397.8" x2="278.6" y2="413.3"/>
<line x1="342.0" y1="261.0" x2="326.5" y2="234.3"/>
<line x1="442.2" y1="434.4" x2="457.6" y2="461.2"/>
<line x1="329.5" y1="158.6" x2="291.5" y2="158.6"/>
<line x1="329.5" y1="158.6" x2="343.6" y2="182.9"/>
<line x1="173.8" y1="367.2" x2="154.9" y2="400.1"/>
<line x1="173.8" y1="367.2" x2="201.9" y2="367.2"/>
<line x1="386.5" y1="191.4" x2="405.4" y2="224.3"/>
<line x1="386.5" y1="191.4" x2="358.4" y2="191.4"/>
<line x1="230.7" y1="334.3" x2="268.7" y2="334.3"/>
<line x1="230.7" y1="334.3" x2="216.7" y2="358.7"/>
<line x1="291.5" y1="158.6" x2="272.6" y2="125.7"/>
<line x1="291.5" y1="158.6" x2="277.5" y2="182.9"/>
<line x1="154.9" y1="400.1" x2="116.9" y2="400.1"/>
<line x1="154.9" y1="400.1" x2="168.9" y2="424.4"/>
<line x1="607.3" y1="416.7" x2="607.3" y2="444.8"/>
<line x1="601.3" y1="416.7" x2="601.3" y2="444.8"/>
<line x1="604.3" y1="416.7" x2="628.6" y2="402.6"/>
<line x1="413.1" y1="568.6" x2="388.8" y2="582.6"/>
<line x1="410.1" y1="563.4" x2="385.8" y2="577.4"/>
<line x1="411.6" y1="566.0" x2="435.9" y2="580.0"/>
<line x1="272.6" y1="125.7" x2="286.6" y2="101.4"/>
<line x1="272.6" y1="128.7" x2="244.5" y2="128.8"/>
<line x1="272.6" y1="122.7" x2="244.5" y2="122.8"/>
<line x1="114.3" y1="401.6" x2="100.3" y2="377.3"/>
<line x1="119.5" y1="398.6" x2="105.5" y2="374.3"/>
<line x1="116.9" y1="400.1" x2="102.9" y2="424.4"/>
<line x1="378.7" y1="471.1" x2="342.1" y2="461.3"/>
<line x1="374.8" y1="462.6" x2="349.7" y2="455.9"/>
<line x1="342.1" y1="461.3" x2="342.0" y2="419.0"/>
<line x1="342.0" y1="419.0" x2="369.2" y2="403.3"/>
<line x1="384.2" y1="407.3" x2="399.9" y2="434.5"/>
<line x1="378.8" y1="412.5" x2="390.6" y2="432.9"/>
<line x1="399.9" y1="434.5" x2="378.7" y2="471.1"/>
<line x1="320.8" y1="297.7" x2="278.5" y2="297.7"/>
<line x1="278.5" y1="297.7" x2="268.7" y2="334.3"/>
<line x1="283.9" y1="305.3" x2="277.2" y2="330.4"/>
<line x1="268.7" y1="334.3" x2="305.3" y2="355.5"/>
<line x1="305.3" y1="355.5" x2="332.5" y2="339.8"/>
<line x1="306.9" y1="346.3" x2="327.3" y2="334.5"/>
<line x1="336.5" y1="324.8" x2="320.8" y2="297.7"/>
<line x1="515.5" y1="361.1" x2="505.7" y2="397.7"/>
<line x1="507.0" y1="365.0" x2="500.3" y2="390.1"/>
<line x1="505.7" y1="397.7" x2="463.4" y2="397.8"/>
<line x1="463.4" y1="397.8" x2="447.7" y2="370.6"/>
<line x1="451.7" y1="355.6" x2="478.8" y2="339.9"/>
<line x1="478.8" y1="339.9" x2="515.5" y2="361.1"/>
<line x1="442.1" y1="234.1" x2="442.1" y2="276.4"/>
<line x1="434.9" y1="240.1" x2="434.9" y2="270.4"/>
<line x1="442.1" y1="276.4" x2="415.0" y2="292.1"/>
<line x1="400.0" y1="288.1" x2="384.3" y2="261.0"/>
<line x1="384.3" y1="261.0" x2="405.4" y2="224.3"/>
<line x1="393.5" y1="259.4" x2="408.7" y2="233.1"/>
<line x1="405.4" y1="224.3" x2="442.1" y2="234.1"/>
<line x1="305.4" y1="397.8" x2="342.0" y2="419.0"/>
<line x1="314.2" y1="394.6" x2="340.4" y2="409.8"/>
<line x1="399.9" y1="434.5" x2="442.2" y2="434.4"/>
<line x1="442.2" y1="434.4" x2="463.4" y2="397.8"/>
<line x1="439.0" y1="425.6" x2="454.1" y2="399.4"/>
<line x1="478.8" y1="339.9" x2="478.8" y2="297.6"/>
<line x1="471.6" y1="333.9" x2="471.6" y2="303.6"/>
<line x1="478.8" y1="297.6" x2="442.1" y2="276.4"/>
<line x1="384.3" y1="261.0" x2="342.0" y2="261.0"/>
<line x1="342.0" y1="261.0" x2="320.8" y2="297.7"/>
<line x1="345.2" y1="269.8" x2="330.0" y2="296.1"/>
<line x1="305.3" y1="355.5" x2="305.4" y2="397.8"/>
<text x="549.081401" y="356.202803" fill="rgb(102,102,102)"  stroke="rgb(102,102,102)" stroke-width="1" font-size="16" >CH</text>
<text x="573.081401" y="363.882803" fill="rgb(102,102,102)"  stroke="rgb(102,102,102)" stroke-width="1" font-size="13" >3</text>
<text x="287.275810" y="493.829413" fill="rgb(102,102,102)"  stroke="rgb(102,102,102)" stroke-width="1" font-size="16" >H</text>
<text x="299.275810" y="498.629413" fill="rgb(102,102,102)"  stroke="rgb(102,102,102)" stroke-width="1" font-size="13" >3</text>
<text x="305.775810" y="493.829413" fill="rgb(102,102,102)"  stroke="rgb(102,102,102)" stroke-width="1" font-size="16" >C</text>
<text x="467.300577" y="214.705370" fill="rgb(102,102,102)"  stroke="rgb(102,102,102)" stroke-width="1" font-size="16" >CH</text>
<text x="491.300577" y="222.385370" fill="rgb(102,102,102)"  stroke="rgb(102,102,102)" stroke-width="1" font-size="13" >3</text>
<text x="227.163755" y="274.814865" fill="rgb(102,102,102)"  stroke="rgb(102,102,102)" stroke-width="1" font-size="16" >H</text>
<text x="239.163755" y="282.494865" fill="rgb(102,102,102)"  stroke="rgb(102,102,102)" stroke-width="1" font-size="13" >3</text>
<text x="245.663755" y="274.814865" fill="rgb(102,102,102)"  stroke="rgb(102,102,102)" stroke-width="1" font-size="16" >C</text>
<text x="399.413149" y="166.868798" fill="rgb(102,102,102)"  stroke="rgb(102,102,102)" stroke-width="1" font-size="16" >CH</text>
<text x="423.413149" y="174.548798" fill="rgb(102,102,102)"  stroke="rgb(102,102,102)" stroke-width="1" font-size="13" >3</text>
<text x="188.133291" y="309.820791" fill="rgb(102,102,102)"  stroke="rgb(102,102,102)" stroke-width="1" font-size="16" >H</text>
<text x="200.133291" y="317.500791" fill="rgb(102,102,102)"  stroke="rgb(102,102,102)" stroke-width="1" font-size="13" >3</text>
<text x="206.633291" y="309.820791" fill="rgb(102,102,102)"  stroke="rgb(102,102,102)" stroke-width="1" font-size="16" >C</text>
<text x="248.924752" y="68.320000" fill="rgb(102,102,102)"  stroke="rgb(102,102,102)" stroke-width="1" font-size="16" >H</text>
<text x="260.924752" y="76.000000" fill="rgb(102,102,102)"  stroke="rgb(102,102,102)" stroke-width="1" font-size="13" >3</text>
<text x="267.424752" y="68.320000" fill="rgb(102,102,102)"  stroke="rgb(102,102,102)" stroke-width="1" font-size="16" >C</text>
<text x="36.400000" y="372.086550" fill="rgb(102,102,102)"  stroke="rgb(102,102,102)" stroke-width="1" font-size="16" >H</text>
<text x="48.400000" y="376.886550" fill="rgb(102,102,102)"  stroke="rgb(102,102,102)" stroke-width="1" font-size="13" >3</text>
<text x="54.900000" y="372.086550" fill="rgb(102,102,102)"  stroke="rgb(102,102,102)" stroke-width="1" font-size="16" >C</text>
<text x="248.985536" y="196.280282" fill="rgb(12,12,255)"  stroke="rgb(12,12,255)" stroke-width="1" font-size="16" >H</text>
<text x="260.985536" y="201.080282" fill="rgb(12,12,255)"  stroke="rgb(12,12,255)" stroke-width="1" font-size="13" >2</text>
<text x="267.485536" y="196.280282" fill="rgb(12,12,255)"  stroke="rgb(12,12,255)" stroke-width="1" font-size="16" >N</text>
<text x="167.853134" y="437.749526" fill="rgb(12,12,255)"  stroke="rgb(12,12,255)" stroke-width="1" font-size="16" >NH</text>
<text x="191.853134" y="442.549526" fill="rgb(12,12,255)"  stroke="rgb(12,12,255)" stroke-width="1" font-size="13" >2</text>
<text x="287.617492" y="87.661297" fill="rgb(12,12,255)"  stroke="rgb(12,12,255)" stroke-width="1" font-size="26" >-</text>
<text x="285.517492" y="101.181297" fill="rgb(12,12,255)"  stroke="rgb(12,12,255)" stroke-width="1" font-size="16" >N</text>
<text x="91.940918" y="375.589009" fill="rgb(12,12,255)"  stroke="rgb(12,12,255)" stroke-width="1" font-size="16" >N</text>
<text x="426.576266" y="369.437324" fill="rgb(12,12,255)"  stroke="rgb(12,12,255)" stroke-width="1" font-size="16" >HN</text>
<text x="372.685869" y="406.132668" fill="rgb(12,12,255)"  stroke="rgb(12,12,255)" stroke-width="1" font-size="16" >N</text>
<text x="389.870896" y="302.409580" fill="rgb(12,12,255)"  stroke="rgb(12,12,255)" stroke-width="1" font-size="16" >HN</text>
<text x="335.980499" y="339.104924" fill="rgb(12,12,255)"  stroke="rgb(12,12,255)" stroke-width="1" font-size="16" >N</text>
<text x="598.330550" y="459.429665" fill="rgb(255,12,12)"  stroke="rgb(255,12,12)" stroke-width="1" font-size="16" >O</text>
<text x="632.374300" y="391.281837" fill="rgb(255,12,12)"  stroke="rgb(255,12,12)" stroke-width="1" font-size="32" >-</text>
<text x="631.174300" y="406.001837" fill="rgb(255,12,12)"  stroke="rgb(255,12,12)" stroke-width="1" font-size="16" >O</text>
<text x="375.165845" y="589.756063" fill="rgb(255,12,12)"  stroke="rgb(255,12,12)" stroke-width="1" font-size="16" >O</text>
<text x="438.481443" y="589.725682" fill="rgb(255,12,12)"  stroke="rgb(255,12,12)" stroke-width="1" font-size="16" >OH</text>
<text x="231.000056" y="130.557688" fill="rgb(255,12,12)"  stroke="rgb(255,12,12)" stroke-width="1" font-size="16" >O</text>
<text x="82.371299" y="437.784607" fill="rgb(255,12,12)"  stroke="rgb(255,12,12)" stroke-width="1" font-size="16" >HO</text>
<text x="344.895713" y="196.245188" fill="rgb(178,178,0)"  stroke="rgb(178,178,0)" stroke-width="1" font-size="16" >S</text>
<text x="205.763671" y="372.016388" fill="rgb(178,178,0)"  stroke="rgb(178,178,0)" stroke-width="1" font-size="16" >S</text>
<text x="35.200000" y="59.200000" fill="rgb(224,102,51)"  stroke="rgb(224,102,51)" stroke-width="1" font-size="16" >2+</text>
<text x="34.000000" y="44.800000" fill="rgb(224,102,51)"  stroke="rgb(224,102,51)" stroke-width="1" font-size="16" >Fe</text>
<text x="508.941058" y="285.054953" fill="rgb(191,191,191)"  stroke="rgb(191,191,191)" stroke-width="1" font-size="16" >H</text>
<text x="265.662845" y="423.528814" fill="rgb(191,191,191)"  stroke="rgb(191,191,191)" stroke-width="1" font-size="16" >H</text>
<text x="317.481450" y="233.192014" fill="rgb(191,191,191)"  stroke="rgb(191,191,191)" stroke-width="1" font-size="16" >H</text>
<text x="457.075316" y="475.350234" fill="rgb(191,191,191)"  stroke="rgb(191,191,191)" stroke-width="1" font-size="16" >H</text>
<text font-size="18.000000" fill ="black" font-family="sans-serif"
x="140.000000" y="20.000000" ></text>
<title> - OBDepict</title>
</svg>
