<?xml version="1.0"?>
<svg xmlns="http://www.w3.org/2000/svg"
xmlns:xlink="http://www.w3.org/1999/xlink" xmlns:cml="http://www.xml-cml.org/schema" width="1336.81" height="1107.34" x="0" y="0" font-family="sans-serif" stroke="rgb(0,0,0)" stroke-width="1" >
<line x1="574.6" y1="1059.9" x2="546.8" y2="1067.3"/>
<line x1="48.8" y1="554.3" x2="73.7" y2="568.8"/>
<line x1="1289.7" y1="472.7" x2="1269.3" y2="493.1"/>
<line x1="1134.6" y1="881.4" x2="1106.8" y2="873.9"/>
<line x1="241.6" y1="746.2" x2="269.4" y2="753.6"/>
<line x1="210.9" y1="713.0" x2="225.3" y2="688.0"/>
<line x1="546.8" y1="1067.3" x2="519.2" y2="1039.8"/>
<line x1="73.7" y1="568.8" x2="107.4" y2="549.3"/>
<line x1="1269.3" y1="493.1" x2="1231.7" y2="483.0"/>
<line x1="1106.8" y1="873.9" x2="1096.7" y2="836.3"/>
<line x1="269.4" y1="753.6" x2="297.0" y2="726.1"/>
<line x1="225.3" y1="688.0" x2="264.2" y2="688.0"/>
<line x1="519.2" y1="1039.8" x2="529.3" y2="1002.2"/>
<line x1="107.4" y1="549.3" x2="141.2" y2="568.8"/>
<line x1="1231.7" y1="483.0" x2="1204.1" y2="510.5"/>
<line x1="1096.7" y1="836.3" x2="1059.1" y2="826.2"/>
<line x1="297.0" y1="726.1" x2="334.6" y2="736.2"/>
<line x1="264.2" y1="688.0" x2="283.7" y2="654.3"/>
<line x1="529.3" y1="1002.2" x2="501.8" y2="974.6"/>
<line x1="141.2" y1="568.8" x2="174.9" y2="549.3"/>
<line x1="1204.1" y1="510.5" x2="1166.5" y2="500.4"/>
<line x1="1059.1" y1="826.2" x2="1049.0" y2="788.6"/>
<line x1="334.6" y1="736.2" x2="362.1" y2="708.6"/>
<line x1="283.7" y1="654.3" x2="322.7" y2="654.3"/>
<line x1="501.8" y1="974.6" x2="511.8" y2="937.0"/>
<line x1="174.9" y1="549.3" x2="174.9" y2="510.3"/>
<line x1="1166.5" y1="500.4" x2="1139.0" y2="528.0"/>
<line x1="1049.0" y1="788.6" x2="1011.4" y2="778.5"/>
<line x1="362.1" y1="708.6" x2="399.7" y2="718.7"/>
<line x1="322.7" y1="654.3" x2="342.1" y2="620.6"/>
<line x1="511.8" y1="937.0" x2="484.3" y2="909.5"/>
<line x1="174.9" y1="510.3" x2="208.6" y2="490.9"/>
<line x1="1139.0" y1="528.0" x2="1101.4" y2="517.9"/>
<line x1="1011.4" y1="778.5" x2="1001.3" y2="740.9"/>
<line x1="399.7" y1="718.7" x2="427.3" y2="691.2"/>
<line x1="342.1" y1="620.6" x2="381.1" y2="620.6"/>
<line x1="484.3" y1="909.5" x2="456.5" y2="917.0"/>
<line x1="481.4" y1="908.7" x2="491.5" y2="871.1"/>
<line x1="487.2" y1="910.3" x2="497.3" y2="872.7"/>
<line x1="208.6" y1="490.9" x2="242.3" y2="510.3"/>
<line x1="494.4" y1="871.9" x2="474.0" y2="851.5"/>
<line x1="494.4" y1="871.9" x2="532.0" y2="861.8"/>
<line x1="532.0" y1="861.8" x2="542.1" y2="824.2"/>
<line x1="242.3" y1="510.3" x2="276.1" y2="490.9"/>
<line x1="542.1" y1="824.2" x2="514.5" y2="796.7"/>
<line x1="1101.4" y1="517.9" x2="1073.8" y2="545.4"/>
<line x1="1001.3" y1="740.9" x2="963.7" y2="730.8"/>
<line x1="427.3" y1="691.2" x2="417.2" y2="653.6"/>
<line x1="381.1" y1="620.6" x2="400.5" y2="586.8"/>
<line x1="276.1" y1="490.9" x2="309.8" y2="510.3"/>
<line x1="514.5" y1="796.7" x2="524.6" y2="759.0"/>
<line x1="1073.8" y1="545.4" x2="1036.2" y2="535.4"/>
<line x1="963.7" y1="730.8" x2="953.6" y2="693.2"/>
<line x1="417.2" y1="653.6" x2="444.7" y2="626.0"/>
<line x1="400.5" y1="586.8" x2="381.1" y2="553.1"/>
<line x1="309.8" y1="510.3" x2="343.5" y2="490.9"/>
<line x1="524.6" y1="759.0" x2="497.1" y2="731.5"/>
<line x1="1036.2" y1="535.4" x2="1008.7" y2="562.9"/>
<line x1="953.6" y1="693.2" x2="916.0" y2="683.1"/>
<line x1="444.7" y1="626.0" x2="434.6" y2="588.4"/>
<line x1="381.1" y1="553.1" x2="400.5" y2="519.4"/>
<line x1="497.1" y1="731.5" x2="507.2" y2="693.9"/>
<line x1="343.5" y1="490.9" x2="343.5" y2="451.9"/>
<line x1="1008.7" y1="562.9" x2="971.1" y2="552.8"/>
<line x1="916.0" y1="683.1" x2="905.9" y2="645.5"/>
<line x1="434.6" y1="588.4" x2="462.2" y2="560.9"/>
<line x1="400.5" y1="519.4" x2="439.5" y2="519.4"/>
<line x1="507.2" y1="693.9" x2="479.6" y2="666.4"/>
<line x1="343.5" y1="451.9" x2="377.2" y2="432.5"/>
<line x1="971.1" y1="552.8" x2="961.0" y2="515.2"/>
<line x1="905.9" y1="645.5" x2="933.4" y2="618.0"/>
<line x1="462.2" y1="560.9" x2="537.4" y2="581.0"/>
<line x1="439.5" y1="519.4" x2="478.4" y2="451.9"/>
<line x1="479.6" y1="666.4" x2="489.7" y2="628.7"/>
<line x1="377.2" y1="432.5" x2="411.0" y2="451.9"/>
<line x1="923.4" y1="505.1" x2="961.0" y2="515.2"/>
<line x1="923.4" y1="505.1" x2="913.3" y2="467.5"/>
<line x1="923.4" y1="580.4" x2="933.4" y2="618.0"/>
<line x1="923.4" y1="580.4" x2="885.7" y2="570.3"/>
<line x1="547.5" y1="543.4" x2="537.4" y2="581.0"/>
<line x1="547.5" y1="543.4" x2="585.1" y2="533.3"/>
<line x1="512.1" y1="471.4" x2="478.4" y2="451.9"/>
<line x1="512.1" y1="471.4" x2="545.9" y2="451.9"/>
<line x1="730.1" y1="126.9" x2="710.7" y2="93.2"/>
<line x1="730.1" y1="126.9" x2="715.7" y2="151.9"/>
<line x1="768.3" y1="281.9" x2="730.7" y2="292.0"/>
<line x1="768.3" y1="281.9" x2="788.7" y2="302.3"/>
<line x1="739.2" y1="485.7" x2="772.9" y2="505.1"/>
<line x1="739.2" y1="485.7" x2="714.2" y2="500.1"/>
<line x1="671.7" y1="340.3" x2="671.7" y2="418.2"/>
<line x1="671.7" y1="340.3" x2="646.8" y2="325.9"/>
<polygon points="986.180864 508.452384 959.943612 511.341530 962.014164 519.068936 " />
<line x1="961.0" y1="515.2" x2="968.4" y2="487.4"/>
<polygon points="951.892005 636.420149 936.271305 615.142595 930.614451 620.799449 " />
<line x1="933.4" y1="618.0" x2="961.3" y2="610.5"/>
<polygon points="562.603320 587.795841 538.436620 577.179288 536.366068 584.906695 " />
<line x1="537.4" y1="581.0" x2="529.9" y2="608.9"/>
<line x1="490.5" y1="430.1" x2="491.2" y2="430.5"/>
<line x1="488.2" y1="433.3" x2="489.6" y2="434.1"/>
<line x1="485.9" y1="436.5" x2="488.0" y2="437.7"/>
<line x1="483.7" y1="439.7" x2="486.4" y2="441.3"/>
<line x1="481.4" y1="442.8" x2="484.8" y2="444.8"/>
<line x1="479.1" y1="446.0" x2="483.2" y2="448.4"/>
<line x1="476.8" y1="449.2" x2="481.6" y2="452.0"/>
<line x1="478.4" y1="451.9" x2="453.5" y2="437.5"/>
<line x1="579.4" y1="93.6" x2="579.4" y2="92.8"/>
<line x1="583.3" y1="94.0" x2="583.3" y2="92.4"/>
<line x1="587.1" y1="94.4" x2="587.1" y2="92.0"/>
<line x1="591.0" y1="94.8" x2="591.0" y2="91.6"/>
<line x1="594.9" y1="95.2" x2="594.9" y2="91.2"/>
<line x1="598.8" y1="95.6" x2="598.8" y2="90.8"/>
<line x1="602.7" y1="96.0" x2="602.7" y2="90.4"/>
<line x1="604.3" y1="93.2" x2="589.9" y2="68.2"/>
<polygon points="733.267952 80.149984 708.672479 89.731385 712.672479 96.659588 " />
<line x1="710.7" y1="93.2" x2="671.7" y2="93.2"/>
<line x1="710.7" y1="93.2" x2="710.7" y2="64.4"/>
<line x1="737.5" y1="316.0" x2="736.8" y2="316.2"/>
<line x1="736.9" y1="312.1" x2="735.4" y2="312.5"/>
<line x1="736.3" y1="308.2" x2="734.0" y2="308.8"/>
<line x1="735.7" y1="304.4" x2="732.6" y2="305.2"/>
<line x1="735.0" y1="300.5" x2="731.2" y2="301.5"/>
<line x1="734.4" y1="296.6" x2="729.8" y2="297.9"/>
<line x1="733.8" y1="292.8" x2="728.4" y2="294.2"/>
<line x1="730.7" y1="292.0" x2="703.2" y2="264.5"/>
<line x1="730.7" y1="292.0" x2="710.3" y2="312.4"/>
<line x1="637.6" y1="199.4" x2="638.1" y2="198.9"/>
<line x1="640.0" y1="202.5" x2="641.2" y2="201.3"/>
<line x1="642.5" y1="205.5" x2="644.2" y2="203.8"/>
<line x1="645.0" y1="208.5" x2="647.2" y2="206.3"/>
<line x1="647.4" y1="211.6" x2="650.3" y2="208.7"/>
<line x1="649.9" y1="214.6" x2="653.3" y2="211.2"/>
<line x1="652.4" y1="217.6" x2="656.3" y2="213.7"/>
<line x1="655.5" y1="216.8" x2="662.9" y2="188.9"/>
<line x1="766.8" y1="554.6" x2="766.0" y2="554.5"/>
<line x1="768.2" y1="546.9" x2="766.6" y2="546.7"/>
<line x1="769.6" y1="539.3" x2="767.2" y2="538.9"/>
<line x1="771.0" y1="531.6" x2="767.9" y2="531.2"/>
<line x1="772.4" y1="523.9" x2="768.5" y2="523.4"/>
<line x1="773.9" y1="516.3" x2="769.1" y2="515.6"/>
<line x1="775.3" y1="508.6" x2="769.7" y2="507.8"/>
<line x1="693.1" y1="405.4" x2="693.5" y2="406.1"/>
<line x1="689.5" y1="407.0" x2="690.3" y2="408.4"/>
<line x1="686.0" y1="408.6" x2="687.2" y2="410.7"/>
<line x1="682.4" y1="410.2" x2="684.0" y2="413.0"/>
<line x1="678.8" y1="411.8" x2="680.8" y2="415.3"/>
<line x1="675.3" y1="413.4" x2="677.7" y2="417.6"/>
<line x1="671.7" y1="415.0" x2="674.5" y2="419.9"/>
<line x1="912.5" y1="470.4" x2="884.7" y2="463.0"/>
<line x1="914.1" y1="464.6" x2="886.2" y2="457.2"/>
<line x1="913.3" y1="467.5" x2="933.7" y2="447.1"/>
<line x1="582.2" y1="532.6" x2="589.7" y2="504.7"/>
<line x1="588.0" y1="534.1" x2="595.5" y2="506.3"/>
<line x1="585.1" y1="533.3" x2="605.5" y2="553.7"/>
<line x1="487.6" y1="630.9" x2="467.2" y2="610.5"/>
<line x1="491.8" y1="626.6" x2="471.5" y2="606.2"/>
<line x1="489.7" y1="628.7" x2="517.5" y2="621.3"/>
<line x1="414.0" y1="451.9" x2="414.0" y2="480.7"/>
<line x1="408.0" y1="451.9" x2="408.0" y2="480.7"/>
<line x1="411.0" y1="451.9" x2="435.9" y2="437.5"/>
<line x1="887.9" y1="572.4" x2="867.5" y2="592.8"/>
<line x1="883.6" y1="568.2" x2="863.3" y2="588.5"/>
<line x1="885.7" y1="570.3" x2="878.3" y2="542.4"/>
<line x1="542.9" y1="451.9" x2="542.9" y2="423.1"/>
<line x1="548.9" y1="451.9" x2="548.9" y2="423.1"/>
<line x1="545.9" y1="451.9" x2="570.8" y2="466.3"/>
<polygon points="873.336196 491.721445 849.169496 481.104892 847.098944 488.832299 " />
<line x1="848.1" y1="485.0" x2="868.5" y2="464.6"/>
<polygon points="648.672079 506.354841 635.962294 483.220409 629.615468 488.090500 " />
<line x1="632.8" y1="485.7" x2="605.0" y2="493.1"/>
<line x1="625.2" y1="52.3" x2="625.9" y2="51.9"/>
<line x1="626.8" y1="55.9" x2="628.2" y2="55.1"/>
<line x1="628.4" y1="59.5" x2="630.5" y2="58.3"/>
<line x1="630.0" y1="63.1" x2="632.8" y2="61.5"/>
<line x1="631.6" y1="66.6" x2="635.1" y2="64.6"/>
<line x1="633.2" y1="70.2" x2="637.4" y2="67.8"/>
<line x1="634.8" y1="73.8" x2="639.7" y2="71.0"/>
<line x1="638.0" y1="73.7" x2="652.4" y2="48.8"/>
<line x1="699.1" y1="202.7" x2="699.9" y2="202.9"/>
<line x1="697.7" y1="206.3" x2="699.3" y2="206.7"/>
<line x1="696.4" y1="210.0" x2="698.7" y2="210.6"/>
<line x1="695.0" y1="213.6" x2="698.1" y2="214.5"/>
<line x1="693.6" y1="217.3" x2="697.4" y2="218.3"/>
<line x1="692.2" y1="221.0" x2="696.8" y2="222.2"/>
<line x1="690.8" y1="224.6" x2="696.2" y2="226.1"/>
<line x1="693.1" y1="226.8" x2="720.9" y2="219.4"/>
<polygon points="781.991325 551.111491 803.268879 535.490791 797.612024 529.833937 " />
<line x1="800.4" y1="532.7" x2="807.9" y2="560.5"/>
<line x1="683.8" y1="71.4" x2="684.5" y2="71.8"/>
<line x1="681.6" y1="74.6" x2="682.9" y2="75.4"/>
<line x1="679.3" y1="77.8" x2="681.3" y2="79.0"/>
<line x1="677.0" y1="80.9" x2="679.7" y2="82.5"/>
<line x1="674.7" y1="84.1" x2="678.1" y2="86.1"/>
<line x1="672.4" y1="87.3" x2="676.5" y2="89.7"/>
<line x1="670.1" y1="90.4" x2="674.9" y2="93.2"/>
<line x1="727.1" y1="257.6" x2="727.3" y2="258.4"/>
<line x1="723.3" y1="258.2" x2="723.7" y2="259.8"/>
<line x1="719.4" y1="258.9" x2="720.0" y2="261.2"/>
<line x1="715.5" y1="259.5" x2="716.4" y2="262.6"/>
<line x1="711.7" y1="260.1" x2="712.7" y2="264.0"/>
<line x1="707.8" y1="260.7" x2="709.0" y2="265.4"/>
<line x1="703.9" y1="261.3" x2="705.4" y2="266.8"/>
<polygon points="632.788881 392.115275 628.788881 418.206280 636.788881 418.206280 " />
<line x1="632.8" y1="418.2" x2="607.8" y2="403.8"/>
<line x1="844.9" y1="546.6" x2="844.1" y2="546.8"/>
<line x1="844.3" y1="542.7" x2="842.7" y2="543.1"/>
<line x1="843.6" y1="538.8" x2="841.3" y2="539.4"/>
<line x1="843.0" y1="535.0" x2="839.9" y2="535.8"/>
<line x1="842.4" y1="531.1" x2="838.5" y2="532.1"/>
<line x1="841.8" y1="527.2" x2="837.1" y2="528.5"/>
<line x1="841.2" y1="523.4" x2="835.8" y2="524.8"/>
<line x1="838.1" y1="522.6" x2="865.9" y2="530.0"/>
<line x1="591.5" y1="439.8" x2="591.9" y2="439.1"/>
<line x1="594.7" y1="442.1" x2="595.5" y2="440.7"/>
<line x1="597.9" y1="444.4" x2="599.1" y2="442.3"/>
<line x1="601.1" y1="446.7" x2="602.7" y2="443.9"/>
<line x1="604.2" y1="449.0" x2="606.2" y2="445.5"/>
<line x1="607.4" y1="451.3" x2="609.8" y2="447.1"/>
<line x1="610.6" y1="453.6" x2="613.4" y2="448.7"/>
<line x1="613.3" y1="451.9" x2="588.4" y2="466.3"/>
<line x1="672.1" y1="535.5" x2="671.3" y2="535.5"/>
<line x1="672.5" y1="527.7" x2="670.9" y2="527.7"/>
<line x1="672.9" y1="519.9" x2="670.5" y2="519.9"/>
<line x1="673.3" y1="512.1" x2="670.1" y2="512.1"/>
<line x1="673.7" y1="504.3" x2="669.7" y2="504.3"/>
<line x1="674.1" y1="496.6" x2="669.3" y2="496.6"/>
<line x1="674.5" y1="488.8" x2="668.9" y2="488.8"/>
<line x1="671.7" y1="485.7" x2="696.7" y2="500.1"/>
<polygon points="839.047337 438.983459 817.769783 454.604158 823.426637 460.261013 " />
<line x1="820.6" y1="457.4" x2="813.1" y2="429.6"/>
<polygon points="638.006093 281.909984 603.559296 263.312084 600.497828 270.703121 " />
<line x1="599.1" y1="267.4" x2="595.3" y2="238.8"/>
<line x1="605.0" y1="266.6" x2="601.2" y2="238.0"/>
<line x1="602.0" y1="267.0" x2="579.2" y2="284.6"/>
<polygon points="638.006093 151.608185 600.497828 162.815048 603.559296 170.206084 " />
<line x1="600.2" y1="168.9" x2="577.3" y2="151.3"/>
<line x1="603.9" y1="164.1" x2="581.0" y2="146.6"/>
<line x1="602.0" y1="166.5" x2="598.3" y2="195.1"/>
<line x1="638.0" y1="281.9" x2="638.0" y2="310.7"/>
<line x1="638.0" y1="151.6" x2="658.4" y2="172.0"/>
<line x1="570.2" y1="359.8" x2="588.9" y2="359.8"/>
<line x1="599.1" y1="331.0" x2="599.1" y2="349.7"/>
<line x1="627.9" y1="362.8" x2="609.2" y2="362.8"/>
<line x1="627.9" y1="356.8" x2="609.2" y2="356.8"/>
<line x1="765.4" y1="437.6" x2="770.3" y2="419.5"/>
<line x1="745.1" y1="402.3" x2="763.1" y2="407.1"/>
<line x1="783.3" y1="382.7" x2="778.4" y2="400.7"/>
<line x1="777.5" y1="381.1" x2="772.6" y2="399.2"/>
<line x1="599.1" y1="388.6" x2="599.1" y2="369.9"/>
<line x1="800.7" y1="417.2" x2="782.7" y2="412.4"/>
<line x1="632.8" y1="485.7" x2="613.3" y2="451.9"/>
<line x1="613.3" y1="451.9" x2="632.8" y2="418.2"/>
<line x1="632.8" y1="418.2" x2="671.7" y2="418.2"/>
<line x1="671.7" y1="418.2" x2="686.1" y2="443.2"/>
<line x1="686.1" y1="460.7" x2="671.7" y2="485.7"/>
<line x1="671.7" y1="485.7" x2="632.8" y2="485.7"/>
<line x1="772.9" y1="505.1" x2="800.4" y2="532.7"/>
<line x1="800.4" y1="532.7" x2="838.1" y2="522.6"/>
<line x1="838.1" y1="522.6" x2="848.1" y2="485.0"/>
<line x1="848.1" y1="485.0" x2="820.6" y2="457.4"/>
<line x1="820.6" y1="457.4" x2="792.8" y2="464.9"/>
<line x1="780.4" y1="477.3" x2="772.9" y2="505.1"/>
<line x1="604.3" y1="132.1" x2="604.3" y2="93.2"/>
<line x1="604.3" y1="93.2" x2="638.0" y2="73.7"/>
<line x1="638.0" y1="73.7" x2="671.7" y2="93.2"/>
<line x1="671.7" y1="93.2" x2="671.7" y2="122.0"/>
<line x1="663.0" y1="137.2" x2="638.0" y2="151.6"/>
<line x1="638.0" y1="151.6" x2="604.3" y2="132.1"/>
<line x1="627.9" y1="244.3" x2="655.5" y2="216.8"/>
<line x1="655.5" y1="216.8" x2="693.1" y2="226.8"/>
<line x1="693.1" y1="226.8" x2="703.2" y2="264.5"/>
<line x1="703.2" y1="264.5" x2="682.8" y2="284.8"/>
<line x1="665.8" y1="289.4" x2="638.0" y2="281.9"/>
<line x1="638.0" y1="281.9" x2="627.9" y2="244.3"/>
<text x="578.371482" y="1065.577046" fill="rgb(102,102,102)"  stroke="rgb(102,102,102)" stroke-width="1" font-size="16" >CH</text>
<text x="602.371482" y="1073.257046" fill="rgb(102,102,102)"  stroke="rgb(102,102,102)" stroke-width="1" font-size="13" >3</text>
<text x="16.400000" y="557.605365" fill="rgb(102,102,102)"  stroke="rgb(102,102,102)" stroke-width="1" font-size="16" >H</text>
<text x="28.400000" y="565.285365" fill="rgb(102,102,102)"  stroke="rgb(102,102,102)" stroke-width="1" font-size="13" >3</text>
<text x="34.900000" y="557.605365" fill="rgb(102,102,102)"  stroke="rgb(102,102,102)" stroke-width="1" font-size="16" >C</text>
<text x="1290.812264" y="473.854468" fill="rgb(102,102,102)"  stroke="rgb(102,102,102)" stroke-width="1" font-size="16" >CH</text>
<text x="1314.812264" y="481.534468" fill="rgb(102,102,102)"  stroke="rgb(102,102,102)" stroke-width="1" font-size="13" >3</text>
<text x="1138.375711" y="888.775875" fill="rgb(102,102,102)"  stroke="rgb(102,102,102)" stroke-width="1" font-size="16" >CH</text>
<text x="1162.375711" y="893.575875" fill="rgb(102,102,102)"  stroke="rgb(102,102,102)" stroke-width="1" font-size="13" >3</text>
<text x="208.204605" y="751.878425" fill="rgb(102,102,102)"  stroke="rgb(102,102,102)" stroke-width="1" font-size="16" >H</text>
<text x="220.204605" y="759.558425" fill="rgb(102,102,102)"  stroke="rgb(102,102,102)" stroke-width="1" font-size="13" >3</text>
<text x="226.704605" y="751.878425" fill="rgb(102,102,102)"  stroke="rgb(102,102,102)" stroke-width="1" font-size="16" >C</text>
<text x="182.227040" y="726.527565" fill="rgb(102,102,102)"  stroke="rgb(102,102,102)" stroke-width="1" font-size="16" >H</text>
<text x="194.227040" y="731.327565" fill="rgb(102,102,102)"  stroke="rgb(102,102,102)" stroke-width="1" font-size="13" >3</text>
<text x="200.727040" y="726.527565" fill="rgb(102,102,102)"  stroke="rgb(102,102,102)" stroke-width="1" font-size="16" >C</text>
<text x="872.070230" y="465.752585" fill="rgb(12,12,255)"  stroke="rgb(12,12,255)" stroke-width="1" font-size="16" >N</text>
<text x="591.573992" y="504.054334" fill="rgb(12,12,255)"  stroke="rgb(12,12,255)" stroke-width="1" font-size="16" >N</text>
<text x="695.072479" y="165.444661" fill="rgb(255,12,12)"  stroke="rgb(255,12,12)" stroke-width="1" font-size="16" >HO</text>
<text x="789.843902" y="314.245994" fill="rgb(255,12,12)"  stroke="rgb(255,12,12)" stroke-width="1" font-size="16" >OH</text>
<text x="965.057767" y="485.910344" fill="rgb(255,12,12)"  stroke="rgb(255,12,12)" stroke-width="1" font-size="16" >OH</text>
<text x="965.057767" y="616.212143" fill="rgb(255,12,12)"  stroke="rgb(255,12,12)" stroke-width="1" font-size="16" >OH</text>
<text x="569.210606" y="67.790899" fill="rgb(255,12,12)"  stroke="rgb(255,12,12)" stroke-width="1" font-size="16" >HO</text>
<text x="704.672479" y="62.573688" fill="rgb(255,12,12)"  stroke="rgb(255,12,12)" stroke-width="1" font-size="16" >OH</text>
<text x="687.556992" y="324.324873" fill="rgb(255,12,12)"  stroke="rgb(255,12,12)" stroke-width="1" font-size="16" >HO</text>
<text x="936.021130" y="433.575455" fill="rgb(255,12,12)"  stroke="rgb(255,12,12)" stroke-width="1" font-size="32" >-</text>
<text x="934.821130" y="448.295455" fill="rgb(255,12,12)"  stroke="rgb(255,12,12)" stroke-width="1" font-size="16" >O</text>
<text x="607.831123" y="580.085233" fill="rgb(255,12,12)"  stroke="rgb(255,12,12)" stroke-width="1" font-size="32" >-</text>
<text x="606.631123" y="565.685233" fill="rgb(255,12,12)"  stroke="rgb(255,12,12)" stroke-width="1" font-size="16" >O</text>
<text x="458.571565" y="609.520750" fill="rgb(255,12,12)"  stroke="rgb(255,12,12)" stroke-width="1" font-size="16" >O</text>
<text x="404.970459" y="495.672666" fill="rgb(255,12,12)"  stroke="rgb(255,12,12)" stroke-width="1" font-size="16" >O</text>
<text x="854.613099" y="602.613263" fill="rgb(255,12,12)"  stroke="rgb(255,12,12)" stroke-width="1" font-size="16" >O</text>
<text x="539.868807" y="421.309068" fill="rgb(255,12,12)"  stroke="rgb(255,12,12)" stroke-width="1" font-size="16" >O</text>
<text x="651.476992" y="48.320000" fill="rgb(255,12,12)"  stroke="rgb(255,12,12)" stroke-width="1" font-size="16" >OH</text>
<text x="724.693002" y="225.079084" fill="rgb(255,12,12)"  stroke="rgb(255,12,12)" stroke-width="1" font-size="16" >OH</text>
<text x="804.519331" y="575.077253" fill="rgb(255,12,12)"  stroke="rgb(255,12,12)" stroke-width="1" font-size="16" >OH</text>
<text x="593.345637" y="236.718956" fill="rgb(255,12,12)"  stroke="rgb(255,12,12)" stroke-width="1" font-size="16" >O</text>
<text x="566.333956" y="309.913868" fill="rgb(255,12,12)"  stroke="rgb(255,12,12)" stroke-width="1" font-size="32" >-</text>
<text x="567.533956" y="295.513868" fill="rgb(255,12,12)"  stroke="rgb(255,12,12)" stroke-width="1" font-size="16" >O</text>
<text x="567.533956" y="151.124301" fill="rgb(255,12,12)"  stroke="rgb(255,12,12)" stroke-width="1" font-size="16" >O</text>
<text x="592.145637" y="224.319213" fill="rgb(255,12,12)"  stroke="rgb(255,12,12)" stroke-width="1" font-size="32" >-</text>
<text x="593.345637" y="209.919213" fill="rgb(255,12,12)"  stroke="rgb(255,12,12)" stroke-width="1" font-size="16" >O</text>
<text x="555.322495" y="353.393582" fill="rgb(255,12,12)"  stroke="rgb(255,12,12)" stroke-width="1" font-size="32" >-</text>
<text x="556.522495" y="368.113582" fill="rgb(255,12,12)"  stroke="rgb(255,12,12)" stroke-width="1" font-size="16" >O</text>
<text x="594.264294" y="314.451783" fill="rgb(255,12,12)"  stroke="rgb(255,12,12)" stroke-width="1" font-size="32" >-</text>
<text x="593.064294" y="329.171783" fill="rgb(255,12,12)"  stroke="rgb(255,12,12)" stroke-width="1" font-size="16" >O</text>
<text x="632.006093" y="364.593582" fill="rgb(255,12,12)"  stroke="rgb(255,12,12)" stroke-width="1" font-size="16" >O</text>
<text x="747.225562" y="452.153706" fill="rgb(255,12,12)"  stroke="rgb(255,12,12)" stroke-width="1" font-size="16" >HO</text>
<text x="719.689552" y="407.979938" fill="rgb(255,12,12)"  stroke="rgb(255,12,12)" stroke-width="1" font-size="16" >HO</text>
<text x="776.983321" y="380.443928" fill="rgb(255,12,12)"  stroke="rgb(255,12,12)" stroke-width="1" font-size="16" >O</text>
<text x="699.455267" y="509.926354" fill="rgb(255,12,12)"  stroke="rgb(255,12,12)" stroke-width="1" font-size="16" >O</text>
<text x="634.406093" y="325.651783" fill="rgb(255,12,12)"  stroke="rgb(255,12,12)" stroke-width="1" font-size="16" >O</text>
<text x="521.322465" y="623.457881" fill="rgb(255,12,12)"  stroke="rgb(255,12,12)" stroke-width="1" font-size="16" >O</text>
<text x="438.695046" y="440.779968" fill="rgb(255,12,12)"  stroke="rgb(255,12,12)" stroke-width="1" font-size="16" >O</text>
<text x="779.383321" y="475.831465" fill="rgb(255,12,12)"  stroke="rgb(255,12,12)" stroke-width="1" font-size="16" >O</text>
<text x="685.201579" y="460.250867" fill="rgb(255,12,12)"  stroke="rgb(255,12,12)" stroke-width="1" font-size="16" >O</text>
<text x="869.670230" y="540.982364" fill="rgb(255,12,12)"  stroke="rgb(255,12,12)" stroke-width="1" font-size="16" >O</text>
<text x="573.593394" y="476.201767" fill="rgb(255,12,12)"  stroke="rgb(255,12,12)" stroke-width="1" font-size="16" >O</text>
<text x="659.542103" y="187.464195" fill="rgb(255,12,12)"  stroke="rgb(255,12,12)" stroke-width="1" font-size="16" >O</text>
<text x="669.620982" y="296.788863" fill="rgb(255,12,12)"  stroke="rgb(255,12,12)" stroke-width="1" font-size="16" >O</text>
<text x="665.730680" y="136.937286" fill="rgb(255,12,12)"  stroke="rgb(255,12,12)" stroke-width="1" font-size="16" >O</text>
<text x="595.464294" y="403.535381" fill="rgb(255,12,12)"  stroke="rgb(255,12,12)" stroke-width="1" font-size="16" >O</text>
<text x="804.519331" y="428.137696" fill="rgb(255,12,12)"  stroke="rgb(255,12,12)" stroke-width="1" font-size="16" >O</text>
<text x="593.064294" y="364.593582" fill="rgb(255,127,0)"  stroke="rgb(255,127,0)" stroke-width="1" font-size="16" >P</text>
<text x="766.904441" y="414.538817" fill="rgb(255,127,0)"  stroke="rgb(255,127,0)" stroke-width="1" font-size="16" >P</text>
<text x="443.091431" y="924.376995" fill="rgb(191,191,191)"  stroke="rgb(191,191,191)" stroke-width="1" font-size="16" >H</text>
<text x="463.249189" y="852.667217" fill="rgb(191,191,191)"  stroke="rgb(191,191,191)" stroke-width="1" font-size="16" >H</text>
<text x="992.593777" y="513.446354" fill="rgb(191,191,191)"  stroke="rgb(191,191,191)" stroke-width="1" font-size="16" >H</text>
<text x="954.978888" y="650.307032" fill="rgb(191,191,191)"  stroke="rgb(191,191,191)" stroke-width="1" font-size="16" >H</text>
<text x="569.016233" y="595.921871" fill="rgb(191,191,191)"  stroke="rgb(191,191,191)" stroke-width="1" font-size="16" >H</text>
<text x="491.890532" y="426.526280" fill="rgb(191,191,191)"  stroke="rgb(191,191,191)" stroke-width="1" font-size="16" >H</text>
<text x="561.739707" y="97.995487" fill="rgb(191,191,191)"  stroke="rgb(191,191,191)" stroke-width="1" font-size="16" >H</text>
<text x="738.397066" y="82.044587" fill="rgb(191,191,191)"  stroke="rgb(191,191,191)" stroke-width="1" font-size="16" >H</text>
<text x="734.771882" y="334.403752" fill="rgb(191,191,191)"  stroke="rgb(191,191,191)" stroke-width="1" font-size="16" >H</text>
<text x="624.327214" y="197.543074" fill="rgb(191,191,191)"  stroke="rgb(191,191,191)" stroke-width="1" font-size="16" >H</text>
<text x="759.138592" y="587.143647" fill="rgb(191,191,191)"  stroke="rgb(191,191,191)" stroke-width="1" font-size="16" >H</text>
<text x="699.455267" y="407.055381" fill="rgb(191,191,191)"  stroke="rgb(191,191,191)" stroke-width="1" font-size="16" >H</text>
<text x="879.749109" y="499.847475" fill="rgb(191,191,191)"  stroke="rgb(191,191,191)" stroke-width="1" font-size="16" >H</text>
<text x="650.495146" y="521.350061" fill="rgb(191,191,191)"  stroke="rgb(191,191,191)" stroke-width="1" font-size="16" >H</text>
<text x="614.935193" y="48.320000" fill="rgb(191,191,191)"  stroke="rgb(191,191,191)" stroke-width="1" font-size="16" >H</text>
<text x="697.156992" y="197.543074" fill="rgb(191,191,191)"  stroke="rgb(191,191,191)" stroke-width="1" font-size="16" >H</text>
<text x="769.304441" y="564.998374" fill="rgb(191,191,191)"  stroke="rgb(191,191,191)" stroke-width="1" font-size="16" >H</text>
<text x="685.201579" y="67.790899" fill="rgb(191,191,191)"  stroke="rgb(191,191,191)" stroke-width="1" font-size="16" >H</text>
<text x="734.771882" y="262.693974" fill="rgb(191,191,191)"  stroke="rgb(191,191,191)" stroke-width="1" font-size="16" >H</text>
<text x="626.788881" y="387.584481" fill="rgb(191,191,191)"  stroke="rgb(191,191,191)" stroke-width="1" font-size="16" >H</text>
<text x="842.134220" y="564.998374" fill="rgb(191,191,191)"  stroke="rgb(191,191,191)" stroke-width="1" font-size="16" >H</text>
<text x="575.993394" y="440.779968" fill="rgb(191,191,191)"  stroke="rgb(191,191,191)" stroke-width="1" font-size="16" >H</text>
<text x="665.730680" y="568.339052" fill="rgb(191,191,191)"  stroke="rgb(191,191,191)" stroke-width="1" font-size="16" >H</text>
<text x="842.134220" y="438.216575" fill="rgb(191,191,191)"  stroke="rgb(191,191,191)" stroke-width="1" font-size="16" >H</text>
<text font-size="18.000000" fill ="black" font-family="sans-serif"
x="140.000000" y="20.000000" ></text>
<title> - OBDepict</title>
</svg>
