<?xml version="1.0"?>
<svg xmlns="http://www.w3.org/2000/svg"
xmlns:xlink="http://www.w3.org/1999/xlink" xmlns:cml="http://www.xml-cml.org/schema" width="384.041" height="323.307" x="0" y="0" font-family="sans-serif" stroke="rgb(0,0,0)" stroke-width="1" >
<line x1="344.0" y1="252.9" x2="344.0" y2="233.7"/>
<line x1="300.4" y1="278.1" x2="283.8" y2="268.5"/>
<line x1="170.8" y1="163.3" x2="205.5" y2="143.3"/>
<line x1="309.4" y1="203.3" x2="335.0" y2="218.1"/>
<line x1="274.8" y1="223.3" x2="274.8" y2="252.9"/>
<line x1="176.4" y1="79.5" x2="147.4" y2="85.6"/>
<line x1="175.1" y1="73.6" x2="146.2" y2="79.8"/>
<line x1="202.4" y1="41.1" x2="231.8" y2="44.2"/>
<line x1="231.8" y1="44.2" x2="240.1" y2="83.3"/>
<line x1="240.1" y1="83.3" x2="205.5" y2="103.3"/>
<line x1="231.3" y1="80.1" x2="207.1" y2="94.1"/>
<line x1="205.5" y1="103.3" x2="175.8" y2="76.5"/>
<line x1="175.8" y1="76.5" x2="187.8" y2="49.5"/>
<line x1="101.6" y1="203.3" x2="101.6" y2="163.3"/>
<line x1="94.4" y1="197.3" x2="94.4" y2="169.3"/>
<line x1="101.6" y1="163.3" x2="73.4" y2="154.2"/>
<line x1="57.4" y1="159.4" x2="40.0" y2="183.3"/>
<line x1="40.0" y1="183.3" x2="57.4" y2="207.3"/>
<line x1="73.4" y1="212.5" x2="101.6" y2="203.3"/>
<line x1="309.4" y1="163.3" x2="309.4" y2="203.3"/>
<line x1="302.2" y1="169.3" x2="302.2" y2="197.3"/>
<line x1="309.4" y1="203.3" x2="274.8" y2="223.3"/>
<line x1="274.8" y1="223.3" x2="240.1" y2="203.3"/>
<line x1="273.2" y1="214.1" x2="248.9" y2="200.1"/>
<line x1="240.1" y1="203.3" x2="240.1" y2="163.3"/>
<line x1="240.1" y1="163.3" x2="274.8" y2="143.3"/>
<line x1="274.8" y1="143.3" x2="309.4" y2="163.3"/>
<line x1="205.5" y1="143.3" x2="205.5" y2="103.3"/>
<line x1="240.1" y1="83.3" x2="274.8" y2="103.3"/>
<line x1="274.8" y1="103.3" x2="274.8" y2="143.3"/>
<line x1="267.6" y1="109.3" x2="267.6" y2="137.3"/>
<line x1="240.1" y1="163.3" x2="205.5" y2="143.3"/>
<line x1="238.5" y1="154.1" x2="214.3" y2="140.1"/>
<line x1="170.8" y1="163.3" x2="136.2" y2="143.3"/>
<line x1="162.0" y1="166.5" x2="137.8" y2="152.5"/>
<line x1="136.2" y1="143.3" x2="101.6" y2="163.3"/>
<line x1="101.6" y1="203.3" x2="136.2" y2="223.3"/>
<line x1="136.2" y1="223.3" x2="170.8" y2="203.3"/>
<line x1="137.8" y1="214.1" x2="162.0" y2="200.1"/>
<line x1="170.8" y1="203.3" x2="170.8" y2="163.3"/>
<text x="338.040784" y="268.107043" fill="rgb(102,102,102)"  stroke="rgb(102,102,102)" stroke-width="1" font-size="16" >CH</text>
<text x="362.040784" y="272.907043" fill="rgb(102,102,102)"  stroke="rgb(102,102,102)" stroke-width="1" font-size="13" >3</text>
<text x="303.399768" y="288.107043" fill="rgb(102,102,102)"  stroke="rgb(102,102,102)" stroke-width="1" font-size="16" >CH</text>
<text x="327.399768" y="292.907043" fill="rgb(102,102,102)"  stroke="rgb(102,102,102)" stroke-width="1" font-size="13" >3</text>
<text x="133.025022" y="89.658286" fill="rgb(255,12,12)"  stroke="rgb(255,12,12)" stroke-width="1" font-size="16" >O</text>
<text x="338.040784" y="231.627043" fill="rgb(255,12,12)"  stroke="rgb(255,12,12)" stroke-width="1" font-size="16" >O</text>
<text x="271.158752" y="268.107043" fill="rgb(255,12,12)"  stroke="rgb(255,12,12)" stroke-width="1" font-size="16" >O</text>
<text x="188.420392" y="48.320000" fill="rgb(255,12,12)"  stroke="rgb(255,12,12)" stroke-width="1" font-size="16" >O</text>
<text x="59.911410" y="220.467722" fill="rgb(255,12,12)"  stroke="rgb(255,12,12)" stroke-width="1" font-size="16" >O</text>
<text x="59.911410" y="159.266363" fill="rgb(255,12,12)"  stroke="rgb(255,12,12)" stroke-width="1" font-size="16" >O</text>
<text font-size="18.000000" fill ="black" font-family="sans-serif"
x="140.000000" y="20.000000" ></text>
<title> - OBDepict</title>
</svg>
