<?xml version="1.0"?>
<svg xmlns="http://www.w3.org/2000/svg"
xmlns:xlink="http://www.w3.org/1999/xlink" xmlns:cml="http://www.xml-cml.org/schema" width="391.769" height="394.641" x="0" y="0" font-family="sans-serif" stroke="rgb(0,0,0)" stroke-width="1" >
<line x1="213.2" y1="170.4" x2="213.2" y2="200.0"/>
<line x1="83.6" y1="154.8" x2="109.3" y2="140.0"/>
<line x1="267.7" y1="345.6" x2="282.5" y2="320.0"/>
<line x1="252.9" y1="320.0" x2="282.5" y2="320.0"/>
<line x1="143.9" y1="200.0" x2="118.3" y2="214.8"/>
<line x1="143.9" y1="200.0" x2="178.6" y2="220.0"/>
<line x1="140.9" y1="200.0" x2="140.9" y2="160.0"/>
<line x1="146.9" y1="200.0" x2="146.9" y2="160.0"/>
<line x1="178.6" y1="220.0" x2="178.6" y2="249.6"/>
<line x1="177.1" y1="217.4" x2="211.7" y2="197.4"/>
<line x1="180.1" y1="222.6" x2="214.7" y2="202.6"/>
<line x1="143.9" y1="160.0" x2="169.6" y2="145.2"/>
<line x1="143.9" y1="160.0" x2="109.3" y2="140.0"/>
<line x1="247.8" y1="220.0" x2="273.5" y2="205.2"/>
<line x1="250.8" y1="220.0" x2="250.8" y2="260.0"/>
<line x1="244.8" y1="220.0" x2="244.8" y2="260.0"/>
<line x1="247.8" y1="220.0" x2="213.2" y2="200.0"/>
<line x1="247.8" y1="260.0" x2="222.2" y2="274.8"/>
<line x1="247.8" y1="260.0" x2="282.5" y2="280.0"/>
<line x1="109.3" y1="100.0" x2="134.9" y2="85.2"/>
<line x1="112.3" y1="100.0" x2="112.3" y2="140.0"/>
<line x1="106.3" y1="100.0" x2="106.3" y2="140.0"/>
<line x1="109.3" y1="100.0" x2="74.6" y2="80.0"/>
<line x1="317.1" y1="220.0" x2="317.1" y2="260.0"/>
<line x1="317.1" y1="220.0" x2="342.8" y2="205.2"/>
<line x1="76.1" y1="82.6" x2="50.5" y2="97.4"/>
<line x1="73.1" y1="77.4" x2="47.5" y2="92.2"/>
<line x1="74.6" y1="80.0" x2="74.6" y2="50.4"/>
<line x1="351.8" y1="280.0" x2="351.8" y2="320.0"/>
<line x1="351.8" y1="320.0" x2="317.1" y2="340.0"/>
<line x1="317.1" y1="340.0" x2="282.5" y2="320.0"/>
<line x1="282.5" y1="320.0" x2="282.5" y2="280.0"/>
<line x1="282.5" y1="280.0" x2="317.1" y2="260.0"/>
<line x1="291.3" y1="283.2" x2="315.5" y2="269.2"/>
<line x1="317.1" y1="260.0" x2="351.8" y2="280.0"/>
<text x="207.205081" y="168.320000" fill="rgb(102,102,102)"  stroke="rgb(102,102,102)" stroke-width="1" font-size="16" >CH</text>
<text x="231.205081" y="176.000000" fill="rgb(102,102,102)"  stroke="rgb(102,102,102)" stroke-width="1" font-size="13" >3</text>
<text x="51.041016" y="164.800000" fill="rgb(102,102,102)"  stroke="rgb(102,102,102)" stroke-width="1" font-size="16" >H</text>
<text x="63.041016" y="169.600000" fill="rgb(102,102,102)"  stroke="rgb(102,102,102)" stroke-width="1" font-size="13" >3</text>
<text x="69.541016" y="164.800000" fill="rgb(102,102,102)"  stroke="rgb(102,102,102)" stroke-width="1" font-size="16" >C</text>
<text x="238.887113" y="359.441016" fill="rgb(102,102,102)"  stroke="rgb(102,102,102)" stroke-width="1" font-size="16" >H</text>
<text x="250.887113" y="364.241016" fill="rgb(102,102,102)"  stroke="rgb(102,102,102)" stroke-width="1" font-size="13" >3</text>
<text x="257.387113" y="359.441016" fill="rgb(102,102,102)"  stroke="rgb(102,102,102)" stroke-width="1" font-size="16" >C</text>
<text x="218.887113" y="324.800000" fill="rgb(102,102,102)"  stroke="rgb(102,102,102)" stroke-width="1" font-size="16" >H</text>
<text x="230.887113" y="329.600000" fill="rgb(102,102,102)"  stroke="rgb(102,102,102)" stroke-width="1" font-size="13" >3</text>
<text x="237.387113" y="324.800000" fill="rgb(102,102,102)"  stroke="rgb(102,102,102)" stroke-width="1" font-size="16" >C</text>
<text x="345.769145" y="208.320000" fill="rgb(255,12,12)"  stroke="rgb(255,12,12)" stroke-width="1" font-size="16" >OH</text>
<text x="36.400000" y="104.800000" fill="rgb(255,12,12)"  stroke="rgb(255,12,12)" stroke-width="1" font-size="16" >O</text>
<text x="68.641016" y="48.320000" fill="rgb(255,12,12)"  stroke="rgb(255,12,12)" stroke-width="1" font-size="16" >OH</text>
<text x="105.682032" y="224.800000" fill="rgb(191,191,191)"  stroke="rgb(191,191,191)" stroke-width="1" font-size="16" >H</text>
<text x="172.564065" y="264.800000" fill="rgb(191,191,191)"  stroke="rgb(191,191,191)" stroke-width="1" font-size="16" >H</text>
<text x="172.564065" y="148.320000" fill="rgb(191,191,191)"  stroke="rgb(191,191,191)" stroke-width="1" font-size="16" >H</text>
<text x="276.487113" y="208.320000" fill="rgb(191,191,191)"  stroke="rgb(191,191,191)" stroke-width="1" font-size="16" >H</text>
<text x="209.605081" y="284.800000" fill="rgb(191,191,191)"  stroke="rgb(191,191,191)" stroke-width="1" font-size="16" >H</text>
<text x="137.923048" y="88.320000" fill="rgb(191,191,191)"  stroke="rgb(191,191,191)" stroke-width="1" font-size="16" >H</text>
<text font-size="18.000000" fill ="black" font-family="sans-serif"
x="140.000000" y="20.000000" ></text>
<title> - OBDepict</title>
</svg>
