<?xml version="1.0"?>
<svg xmlns="http://www.w3.org/2000/svg"
xmlns:xlink="http://www.w3.org/1999/xlink" xmlns:cml="http://www.xml-cml.org/schema" width="260" height="254.641" x="0" y="0" font-family="sans-serif" stroke="rgb(0,0,0)" stroke-width="1" >
<line x1="209.6" y1="114.6" x2="180.0" y2="114.6"/>
<line x1="180.0" y1="85.0" x2="180.0" y2="114.6"/>
<line x1="140.0" y1="114.6" x2="180.0" y2="114.6"/>
<line x1="140.0" y1="114.6" x2="125.2" y2="89.0"/>
<line x1="193.1" y1="176.6" x2="192.5" y2="177.0"/>
<line x1="191.5" y1="172.9" x2="190.1" y2="173.7"/>
<line x1="189.8" y1="169.3" x2="187.8" y2="170.5"/>
<line x1="188.2" y1="165.6" x2="185.4" y2="167.2"/>
<line x1="186.5" y1="162.0" x2="183.1" y2="164.0"/>
<line x1="184.9" y1="158.3" x2="180.7" y2="160.7"/>
<line x1="183.2" y1="154.6" x2="178.4" y2="157.4"/>
<line x1="180.0" y1="154.6" x2="145.4" y2="174.6"/>
<line x1="180.0" y1="154.6" x2="180.0" y2="114.6"/>
<line x1="180.0" y1="154.6" x2="209.6" y2="154.6"/>
<line x1="143.9" y1="177.2" x2="118.2" y2="162.4"/>
<line x1="146.9" y1="172.0" x2="121.2" y2="157.2"/>
<line x1="145.4" y1="174.6" x2="145.4" y2="204.2"/>
<line x1="80.0" y1="109.6" x2="80.0" y2="90.4"/>
<line x1="50.4" y1="80.0" x2="69.6" y2="80.0"/>
<line x1="83.0" y1="50.4" x2="83.0" y2="69.6"/>
<line x1="77.0" y1="50.4" x2="77.0" y2="69.6"/>
<line x1="109.6" y1="80.0" x2="90.4" y2="80.0"/>
<text x="214.000000" y="119.441016" fill="rgb(102,102,102)"  stroke="rgb(102,102,102)" stroke-width="1" font-size="16" >CH</text>
<text x="238.000000" y="124.241016" fill="rgb(102,102,102)"  stroke="rgb(102,102,102)" stroke-width="1" font-size="13" >3</text>
<text x="174.000000" y="82.961016" fill="rgb(102,102,102)"  stroke="rgb(102,102,102)" stroke-width="1" font-size="16" >CH</text>
<text x="198.000000" y="90.641016" fill="rgb(102,102,102)"  stroke="rgb(102,102,102)" stroke-width="1" font-size="13" >3</text>
<text x="214.000000" y="159.441016" fill="rgb(255,12,12)"  stroke="rgb(255,12,12)" stroke-width="1" font-size="16" >OH</text>
<text x="107.117968" y="162.961016" fill="rgb(255,12,12)"  stroke="rgb(255,12,12)" stroke-width="1" font-size="16" >O</text>
<text x="140.558984" y="233.841016" fill="rgb(255,12,12)"  stroke="rgb(255,12,12)" stroke-width="1" font-size="32" >-</text>
<text x="139.358984" y="219.441016" fill="rgb(255,12,12)"  stroke="rgb(255,12,12)" stroke-width="1" font-size="16" >O</text>
<text x="75.200000" y="139.200000" fill="rgb(255,12,12)"  stroke="rgb(255,12,12)" stroke-width="1" font-size="32" >-</text>
<text x="74.000000" y="124.800000" fill="rgb(255,12,12)"  stroke="rgb(255,12,12)" stroke-width="1" font-size="16" >O</text>
<text x="35.200000" y="99.200000" fill="rgb(255,12,12)"  stroke="rgb(255,12,12)" stroke-width="1" font-size="32" >-</text>
<text x="36.400000" y="84.800000" fill="rgb(255,12,12)"  stroke="rgb(255,12,12)" stroke-width="1" font-size="16" >O</text>
<text x="74.000000" y="48.320000" fill="rgb(255,12,12)"  stroke="rgb(255,12,12)" stroke-width="1" font-size="16" >O</text>
<text x="114.000000" y="88.320000" fill="rgb(255,12,12)"  stroke="rgb(255,12,12)" stroke-width="1" font-size="16" >O</text>
<text x="74.000000" y="84.800000" fill="rgb(255,127,0)"  stroke="rgb(255,127,0)" stroke-width="1" font-size="16" >P</text>
<text x="194.000000" y="194.082032" fill="rgb(191,191,191)"  stroke="rgb(191,191,191)" stroke-width="1" font-size="16" >H</text>
<text font-size="18.000000" fill ="black" font-family="sans-serif"
x="140.000000" y="20.000000" ></text>
<title> - OBDepict</title>
</svg>
