<?xml version="1.0"?>
<svg xmlns="http://www.w3.org/2000/svg"
xmlns:xlink="http://www.w3.org/1999/xlink" xmlns:cml="http://www.xml-cml.org/schema" width="293.205" height="243.923" x="0" y="0" font-family="sans-serif" stroke="rgb(0,0,0)" stroke-width="1" >
<line x1="80.0" y1="94.3" x2="80.0" y2="123.9"/>
<line x1="203.9" y1="109.3" x2="183.9" y2="143.9"/>
<line x1="203.9" y1="109.3" x2="183.9" y2="74.6"/>
<line x1="67.5" y1="146.3" x2="66.9" y2="145.9"/>
<line x1="69.9" y1="143.0" x2="68.5" y2="142.2"/>
<line x1="72.2" y1="139.8" x2="70.2" y2="138.6"/>
<line x1="74.6" y1="136.5" x2="71.8" y2="134.9"/>
<line x1="76.9" y1="133.2" x2="73.5" y2="131.2"/>
<line x1="79.3" y1="130.0" x2="75.1" y2="127.6"/>
<line x1="81.6" y1="126.7" x2="76.8" y2="123.9"/>
<line x1="80.0" y1="123.9" x2="114.6" y2="143.9"/>
<line x1="80.0" y1="123.9" x2="50.4" y2="123.9"/>
<line x1="171.5" y1="166.3" x2="170.8" y2="165.9"/>
<line x1="173.8" y1="163.0" x2="172.4" y2="162.2"/>
<line x1="176.2" y1="159.8" x2="174.1" y2="158.6"/>
<line x1="178.5" y1="156.5" x2="175.7" y2="154.9"/>
<line x1="180.9" y1="153.2" x2="177.4" y2="151.2"/>
<line x1="183.2" y1="150.0" x2="179.0" y2="147.6"/>
<line x1="185.5" y1="146.7" x2="180.7" y2="143.9"/>
<line x1="183.9" y1="143.9" x2="218.6" y2="163.9"/>
<line x1="183.9" y1="143.9" x2="158.3" y2="129.1"/>
<line x1="181.3" y1="73.1" x2="196.1" y2="47.5"/>
<line x1="186.5" y1="76.1" x2="201.3" y2="50.5"/>
<line x1="183.9" y1="74.6" x2="154.3" y2="74.6"/>
<line x1="113.1" y1="141.3" x2="138.8" y2="126.5"/>
<line x1="116.1" y1="146.5" x2="141.8" y2="131.7"/>
<line x1="114.6" y1="143.9" x2="114.6" y2="173.5"/>
<line x1="217.1" y1="161.3" x2="242.7" y2="146.5"/>
<line x1="220.1" y1="166.5" x2="245.7" y2="151.7"/>
<line x1="218.6" y1="163.9" x2="218.6" y2="193.5"/>
<text x="74.000000" y="92.243048" fill="rgb(102,102,102)"  stroke="rgb(102,102,102)" stroke-width="1" font-size="16" >CH</text>
<text x="98.000000" y="99.923048" fill="rgb(102,102,102)"  stroke="rgb(102,102,102)" stroke-width="1" font-size="13" >3</text>
<text x="16.400000" y="128.723048" fill="rgb(12,12,255)"  stroke="rgb(12,12,255)" stroke-width="1" font-size="16" >H</text>
<text x="28.400000" y="133.523048" fill="rgb(12,12,255)"  stroke="rgb(12,12,255)" stroke-width="1" font-size="13" >2</text>
<text x="34.900000" y="128.723048" fill="rgb(12,12,255)"  stroke="rgb(12,12,255)" stroke-width="1" font-size="16" >N</text>
<text x="143.282032" y="132.243048" fill="rgb(12,12,255)"  stroke="rgb(12,12,255)" stroke-width="1" font-size="16" >N</text>
<text x="197.923048" y="48.320000" fill="rgb(255,12,12)"  stroke="rgb(255,12,12)" stroke-width="1" font-size="16" >O</text>
<text x="128.323048" y="79.441016" fill="rgb(255,12,12)"  stroke="rgb(255,12,12)" stroke-width="1" font-size="16" >HO</text>
<text x="108.641016" y="188.723048" fill="rgb(255,12,12)"  stroke="rgb(255,12,12)" stroke-width="1" font-size="16" >OH</text>
<text x="247.205081" y="152.243048" fill="rgb(255,12,12)"  stroke="rgb(255,12,12)" stroke-width="1" font-size="16" >O</text>
<text x="212.564065" y="208.723048" fill="rgb(255,12,12)"  stroke="rgb(255,12,12)" stroke-width="1" font-size="16" >OH</text>
<text x="56.400000" y="163.364065" fill="rgb(191,191,191)"  stroke="rgb(191,191,191)" stroke-width="1" font-size="16" >H</text>
<text x="160.323048" y="183.364065" fill="rgb(191,191,191)"  stroke="rgb(191,191,191)" stroke-width="1" font-size="16" >H</text>
<text font-size="18.000000" fill ="black" font-family="sans-serif"
x="140.000000" y="20.000000" ></text>
<title> - OBDepict</title>
</svg>
