<?xml version="1.0"?>
<svg xmlns="http://www.w3.org/2000/svg"
xmlns:xlink="http://www.w3.org/1999/xlink" xmlns:cml="http://www.xml-cml.org/schema" width="287.846" height="220" x="0" y="0" font-family="sans-serif" stroke="rgb(0,0,0)" stroke-width="1" >
<line x1="187.6" y1="45.2" x2="213.2" y2="60.0"/>
<line x1="49.0" y1="114.8" x2="65.6" y2="105.2"/>
<line x1="213.2" y1="60.0" x2="238.8" y2="45.2"/>
<line x1="216.2" y1="60.0" x2="216.2" y2="100.0"/>
<line x1="210.2" y1="60.0" x2="210.2" y2="100.0"/>
<line x1="213.2" y1="100.0" x2="238.8" y2="114.8"/>
<line x1="213.2" y1="100.0" x2="178.6" y2="120.0"/>
<line x1="109.3" y1="160.0" x2="83.6" y2="174.8"/>
<line x1="109.3" y1="120.0" x2="83.6" y2="105.2"/>
<line x1="178.6" y1="160.0" x2="143.9" y2="180.0"/>
<line x1="169.8" y1="156.8" x2="145.5" y2="170.8"/>
<line x1="143.9" y1="180.0" x2="109.3" y2="160.0"/>
<line x1="109.3" y1="160.0" x2="109.3" y2="120.0"/>
<line x1="116.5" y1="154.0" x2="116.5" y2="126.0"/>
<line x1="109.3" y1="120.0" x2="143.9" y2="100.0"/>
<line x1="143.9" y1="100.0" x2="178.6" y2="120.0"/>
<line x1="145.5" y1="109.2" x2="169.8" y2="123.2"/>
<line x1="178.6" y1="120.0" x2="178.6" y2="160.0"/>
<text x="154.964065" y="48.320000" fill="rgb(102,102,102)"  stroke="rgb(102,102,102)" stroke-width="1" font-size="16" >H</text>
<text x="166.964065" y="56.000000" fill="rgb(102,102,102)"  stroke="rgb(102,102,102)" stroke-width="1" font-size="13" >3</text>
<text x="173.464065" y="48.320000" fill="rgb(102,102,102)"  stroke="rgb(102,102,102)" stroke-width="1" font-size="16" >C</text>
<text x="16.400000" y="124.800000" fill="rgb(102,102,102)"  stroke="rgb(102,102,102)" stroke-width="1" font-size="16" >H</text>
<text x="28.400000" y="129.600000" fill="rgb(102,102,102)"  stroke="rgb(102,102,102)" stroke-width="1" font-size="13" >3</text>
<text x="34.900000" y="124.800000" fill="rgb(102,102,102)"  stroke="rgb(102,102,102)" stroke-width="1" font-size="16" >C</text>
<text x="59.041016" y="184.800000" fill="rgb(255,12,12)"  stroke="rgb(255,12,12)" stroke-width="1" font-size="16" >HO</text>
<text x="68.641016" y="108.320000" fill="rgb(255,12,12)"  stroke="rgb(255,12,12)" stroke-width="1" font-size="16" >O</text>
<text x="241.846097" y="48.320000" fill="rgb(191,191,191)"  stroke="rgb(191,191,191)" stroke-width="1" font-size="16" >H</text>
<text x="241.846097" y="124.800000" fill="rgb(191,191,191)"  stroke="rgb(191,191,191)" stroke-width="1" font-size="16" >H</text>
<text font-size="18.000000" fill ="black" font-family="sans-serif"
x="140.000000" y="20.000000" ></text>
<title> - OBDepict</title>
</svg>
