<?xml version="1.0"?>
<svg xmlns="http://www.w3.org/2000/svg"
xmlns:xlink="http://www.w3.org/1999/xlink" xmlns:cml="http://www.xml-cml.org/schema" width="640" height="362.487" x="0" y="0" font-family="sans-serif" stroke="rgb(0,0,0)" stroke-width="1" >
<line x1="589.6" y1="40.0" x2="560.0" y2="40.0"/>
<line x1="560.0" y1="40.0" x2="540.0" y2="74.6"/>
<line x1="540.0" y1="74.6" x2="500.0" y2="74.6"/>
<line x1="500.0" y1="74.6" x2="480.0" y2="109.3"/>
<line x1="480.0" y1="109.3" x2="440.0" y2="109.3"/>
<line x1="440.0" y1="109.3" x2="420.0" y2="143.9"/>
<line x1="420.0" y1="143.9" x2="380.0" y2="143.9"/>
<line x1="380.0" y1="143.9" x2="360.0" y2="178.6"/>
<line x1="360.0" y1="178.6" x2="320.0" y2="178.6"/>
<line x1="320.0" y1="178.6" x2="300.0" y2="213.2"/>
<line x1="300.0" y1="213.2" x2="260.0" y2="213.2"/>
<line x1="260.0" y1="213.2" x2="240.0" y2="247.8"/>
<line x1="240.0" y1="247.8" x2="200.0" y2="247.8"/>
<line x1="200.0" y1="247.8" x2="180.0" y2="282.5"/>
<line x1="154.6" y1="227.8" x2="120.0" y2="247.8"/>
<line x1="154.6" y1="227.8" x2="154.6" y2="198.2"/>
<line x1="60.0" y1="210.2" x2="89.6" y2="210.2"/>
<line x1="60.0" y1="216.2" x2="89.6" y2="216.2"/>
<line x1="60.0" y1="213.2" x2="45.2" y2="238.8"/>
<line x1="98.0" y1="261.0" x2="97.6" y2="260.3"/>
<line x1="101.7" y1="259.3" x2="100.9" y2="258.0"/>
<line x1="105.4" y1="257.7" x2="104.2" y2="255.6"/>
<line x1="109.0" y1="256.0" x2="107.4" y2="253.3"/>
<line x1="112.7" y1="254.4" x2="110.7" y2="250.9"/>
<line x1="116.4" y1="252.7" x2="114.0" y2="248.6"/>
<line x1="120.0" y1="251.1" x2="117.2" y2="246.2"/>
<line x1="120.0" y1="247.8" x2="140.0" y2="282.5"/>
<line x1="120.0" y1="247.8" x2="105.2" y2="222.2"/>
<line x1="180.4" y1="308.1" x2="179.6" y2="308.1"/>
<line x1="180.8" y1="304.1" x2="179.2" y2="304.1"/>
<line x1="181.2" y1="300.1" x2="178.8" y2="300.1"/>
<line x1="181.6" y1="296.1" x2="178.4" y2="296.1"/>
<line x1="182.0" y1="292.1" x2="178.0" y2="292.1"/>
<line x1="182.4" y1="288.1" x2="177.6" y2="288.1"/>
<line x1="182.8" y1="284.1" x2="177.2" y2="284.1"/>
<line x1="180.0" y1="282.5" x2="140.0" y2="282.5"/>
<line x1="180.0" y1="282.5" x2="205.6" y2="297.3"/>
<line x1="118.0" y1="295.6" x2="117.6" y2="294.9"/>
<line x1="121.7" y1="294.0" x2="120.9" y2="292.6"/>
<line x1="125.4" y1="292.3" x2="124.2" y2="290.2"/>
<line x1="129.0" y1="290.7" x2="127.4" y2="287.9"/>
<line x1="132.7" y1="289.0" x2="130.7" y2="285.6"/>
<line x1="136.4" y1="287.4" x2="134.0" y2="283.2"/>
<line x1="140.0" y1="285.7" x2="137.2" y2="280.9"/>
<line x1="140.0" y1="282.5" x2="140.0" y2="312.1"/>
<text x="594.000000" y="44.800000" fill="rgb(102,102,102)"  stroke="rgb(102,102,102)" stroke-width="1" font-size="16" >CH</text>
<text x="618.000000" y="49.600000" fill="rgb(102,102,102)"  stroke="rgb(102,102,102)" stroke-width="1" font-size="13" >3</text>
<text x="94.000000" y="221.525081" fill="rgb(12,12,255)"  stroke="rgb(12,12,255)" stroke-width="1" font-size="16" >N</text>
<text x="148.641016" y="196.166097" fill="rgb(255,12,12)"  stroke="rgb(255,12,12)" stroke-width="1" font-size="16" >OH</text>
<text x="24.400000" y="252.646097" fill="rgb(255,12,12)"  stroke="rgb(255,12,12)" stroke-width="1" font-size="16" >HO</text>
<text x="208.641016" y="307.287113" fill="rgb(255,12,12)"  stroke="rgb(255,12,12)" stroke-width="1" font-size="16" >OH</text>
<text x="134.000000" y="327.287113" fill="rgb(255,12,12)"  stroke="rgb(255,12,12)" stroke-width="1" font-size="16" >OH</text>
<text x="81.758984" y="272.646097" fill="rgb(191,191,191)"  stroke="rgb(191,191,191)" stroke-width="1" font-size="16" >H</text>
<text x="174.000000" y="327.287113" fill="rgb(191,191,191)"  stroke="rgb(191,191,191)" stroke-width="1" font-size="16" >H</text>
<text x="101.758984" y="307.287113" fill="rgb(191,191,191)"  stroke="rgb(191,191,191)" stroke-width="1" font-size="16" >H</text>
<text font-size="18.000000" fill ="black" font-family="sans-serif"
x="140.000000" y="20.000000" ></text>
<title> - OBDepict</title>
</svg>
