<?xml version="1.0"?>
<svg xmlns="http://www.w3.org/2000/svg"
xmlns:xlink="http://www.w3.org/1999/xlink" xmlns:cml="http://www.xml-cml.org/schema" width="376.321" height="381.76" x="0" y="0" font-family="sans-serif" stroke="rgb(0,0,0)" stroke-width="1" >
<line x1="56.1" y1="284.1" x2="40.0" y2="259.2"/>
<line x1="40.0" y1="259.2" x2="58.2" y2="223.6"/>
<line x1="58.2" y1="223.6" x2="98.1" y2="221.5"/>
<line x1="244.8" y1="237.8" x2="204.8" y2="237.8"/>
<line x1="244.8" y1="237.8" x2="264.8" y2="203.2"/>
<line x1="204.8" y1="237.8" x2="184.8" y2="272.5"/>
<line x1="98.1" y1="221.5" x2="116.3" y2="185.9"/>
<line x1="264.8" y1="203.2" x2="244.8" y2="168.6"/>
<line x1="184.8" y1="272.5" x2="144.8" y2="272.5"/>
<line x1="116.3" y1="185.9" x2="156.2" y2="183.8"/>
<line x1="244.8" y1="168.6" x2="264.8" y2="133.9"/>
<line x1="144.8" y1="272.5" x2="124.8" y2="307.1"/>
<line x1="174.4" y1="148.1" x2="158.2" y2="123.3"/>
<line x1="174.2" y1="145.1" x2="214.2" y2="143.0"/>
<line x1="174.5" y1="151.1" x2="214.5" y2="149.0"/>
<line x1="174.4" y1="148.1" x2="156.2" y2="183.8"/>
<line x1="214.3" y1="146.0" x2="230.4" y2="170.9"/>
<line x1="214.3" y1="146.0" x2="232.5" y2="110.4"/>
<line x1="179.2" y1="195.0" x2="178.8" y2="195.8"/>
<line x1="175.8" y1="192.9" x2="175.1" y2="194.3"/>
<line x1="172.4" y1="190.7" x2="171.3" y2="192.8"/>
<line x1="169.1" y1="188.5" x2="167.6" y2="191.4"/>
<line x1="165.7" y1="186.4" x2="163.9" y2="189.9"/>
<line x1="162.3" y1="184.2" x2="160.1" y2="188.5"/>
<line x1="158.9" y1="182.0" x2="156.4" y2="187.0"/>
<line x1="156.2" y1="183.8" x2="157.8" y2="213.3"/>
<polygon points="278.234704 157.123831 268.298806 131.914351 261.370602 135.914351 " />
<line x1="212.2" y1="94.8" x2="212.7" y2="94.2"/>
<line x1="215.1" y1="97.6" x2="216.1" y2="96.3"/>
<line x1="217.9" y1="100.4" x2="219.4" y2="98.5"/>
<line x1="220.8" y1="103.2" x2="222.8" y2="100.7"/>
<line x1="223.7" y1="106.0" x2="226.2" y2="102.9"/>
<line x1="226.6" y1="108.8" x2="229.6" y2="105.0"/>
<line x1="229.5" y1="111.6" x2="233.0" y2="107.2"/>
<polygon points="323.409739 104.830907 296.363737 106.490350 298.027030 114.315531 " />
<line x1="297.2" y1="110.4" x2="317.0" y2="132.4"/>
<line x1="242.4" y1="74.1" x2="225.0" y2="50.2"/>
<line x1="247.3" y1="70.6" x2="229.9" y2="46.7"/>
<line x1="127.4" y1="305.6" x2="142.2" y2="331.3"/>
<line x1="122.2" y1="308.6" x2="137.0" y2="334.3"/>
<line x1="124.8" y1="307.1" x2="95.2" y2="307.1"/>
<line x1="264.8" y1="133.9" x2="232.5" y2="110.4"/>
<line x1="232.5" y1="110.4" x2="244.8" y2="72.4"/>
<line x1="244.8" y1="72.4" x2="284.8" y2="72.4"/>
<line x1="284.8" y1="72.4" x2="297.2" y2="110.4"/>
<line x1="297.2" y1="110.4" x2="264.8" y2="133.9"/>
<text x="55.785561" y="297.591122" fill="rgb(102,102,102)"  stroke="rgb(102,102,102)" stroke-width="1" font-size="16" >CH</text>
<text x="79.785561" y="302.391122" fill="rgb(102,102,102)"  stroke="rgb(102,102,102)" stroke-width="1" font-size="13" >3</text>
<text x="152.303041" y="228.522082" fill="rgb(255,12,12)"  stroke="rgb(255,12,12)" stroke-width="1" font-size="16" >OH</text>
<text x="317.960608" y="144.928733" fill="rgb(255,12,12)"  stroke="rgb(255,12,12)" stroke-width="1" font-size="16" >OH</text>
<text x="217.723294" y="48.320000" fill="rgb(255,12,12)"  stroke="rgb(255,12,12)" stroke-width="1" font-size="16" >O</text>
<text x="138.834704" y="346.560447" fill="rgb(255,12,12)"  stroke="rgb(255,12,12)" stroke-width="1" font-size="16" >O</text>
<text x="69.234704" y="315.439431" fill="rgb(255,12,12)"  stroke="rgb(255,12,12)" stroke-width="1" font-size="16" >HO</text>
<text x="148.983661" y="122.909817" fill="rgb(191,191,191)"  stroke="rgb(191,191,191)" stroke-width="1" font-size="16" >H</text>
<text x="230.099966" y="184.390024" fill="rgb(191,191,191)"  stroke="rgb(191,191,191)" stroke-width="1" font-size="16" >H</text>
<text x="185.849864" y="206.736521" fill="rgb(191,191,191)"  stroke="rgb(191,191,191)" stroke-width="1" font-size="16" >H</text>
<text x="278.834704" y="173.355367" fill="rgb(191,191,191)"  stroke="rgb(191,191,191)" stroke-width="1" font-size="16" >H</text>
<text x="197.558931" y="93.835897" fill="rgb(191,191,191)"  stroke="rgb(191,191,191)" stroke-width="1" font-size="16" >H</text>
<text x="330.321288" y="110.406473" fill="rgb(191,191,191)"  stroke="rgb(191,191,191)" stroke-width="1" font-size="16" >H</text>
<text font-size="18.000000" fill ="black" font-family="sans-serif"
x="140.000000" y="20.000000" ></text>
<title> - OBDepict</title>
</svg>
