<?xml version="1.0"?>
<svg xmlns="http://www.w3.org/2000/svg"
xmlns:xlink="http://www.w3.org/1999/xlink" xmlns:cml="http://www.xml-cml.org/schema" width="468.018" height="380.658" x="0" y="0" font-family="sans-serif" stroke="rgb(0,0,0)" stroke-width="1" >
<line x1="58.4" y1="229.5" x2="81.5" y2="245.8"/>
<line x1="107.2" y1="233.9" x2="81.5" y2="245.8"/>
<line x1="61.8" y1="307.1" x2="78.1" y2="283.9"/>
<line x1="139.1" y1="187.9" x2="151.0" y2="213.6"/>
<polygon points="222.470321 194.500071 218.455930 221.021593 226.455929 221.025934 " />
<polygon points="322.073975 137.091469 326.652431 163.521457 334.243269 160.995753 " />
<line x1="81.5" y1="245.8" x2="78.1" y2="283.9"/>
<line x1="53.7" y1="282.1" x2="53.8" y2="281.3"/>
<line x1="57.5" y1="282.9" x2="57.6" y2="281.3"/>
<line x1="61.2" y1="283.6" x2="61.5" y2="281.2"/>
<line x1="65.0" y1="284.3" x2="65.3" y2="281.1"/>
<line x1="68.8" y1="285.1" x2="69.1" y2="281.1"/>
<line x1="72.6" y1="285.8" x2="73.0" y2="281.0"/>
<line x1="76.3" y1="286.6" x2="76.8" y2="281.0"/>
<line x1="78.1" y1="283.9" x2="109.4" y2="305.9"/>
<line x1="126.6" y1="211.8" x2="126.6" y2="211.0"/>
<line x1="130.3" y1="212.5" x2="130.5" y2="211.0"/>
<line x1="134.1" y1="213.3" x2="134.3" y2="210.9"/>
<line x1="137.9" y1="214.0" x2="138.2" y2="210.8"/>
<line x1="141.7" y1="214.8" x2="142.0" y2="210.8"/>
<line x1="145.4" y1="215.5" x2="145.9" y2="210.7"/>
<line x1="149.2" y1="216.3" x2="149.7" y2="210.7"/>
<line x1="151.0" y1="213.6" x2="189.3" y2="213.6"/>
<line x1="151.0" y1="213.6" x2="144.1" y2="289.8"/>
<polygon points="414.953667 98.759314 388.426809 94.780333 388.433148 102.780330 " />
<line x1="388.4" y1="98.8" x2="403.1" y2="73.4"/>
<polygon points="255.678402 162.716904 259.692325 137.057620 251.692326 137.053279 " />
<line x1="189.6" y1="239.0" x2="188.8" y2="239.0"/>
<line x1="190.0" y1="235.0" x2="188.4" y2="235.0"/>
<line x1="190.4" y1="231.0" x2="188.0" y2="231.0"/>
<line x1="190.8" y1="227.1" x2="187.6" y2="227.1"/>
<line x1="191.3" y1="223.1" x2="187.3" y2="223.1"/>
<line x1="191.7" y1="219.2" x2="186.9" y2="219.2"/>
<line x1="192.1" y1="215.2" x2="186.5" y2="215.2"/>
<line x1="222.5" y1="156.2" x2="247.9" y2="141.5"/>
<line x1="288.5" y1="131.7" x2="289.3" y2="131.7"/>
<line x1="288.1" y1="135.5" x2="289.7" y2="135.5"/>
<line x1="287.7" y1="139.3" x2="290.1" y2="139.4"/>
<line x1="287.3" y1="143.2" x2="290.5" y2="143.2"/>
<line x1="286.9" y1="147.0" x2="290.9" y2="147.0"/>
<line x1="286.5" y1="150.8" x2="291.3" y2="150.8"/>
<line x1="286.1" y1="154.7" x2="291.7" y2="154.7"/>
<line x1="329.7" y1="74.6" x2="330.5" y2="74.8"/>
<line x1="328.1" y1="78.2" x2="329.6" y2="78.7"/>
<line x1="326.5" y1="81.8" x2="328.8" y2="82.6"/>
<line x1="324.8" y1="85.5" x2="327.9" y2="86.5"/>
<line x1="323.2" y1="89.1" x2="327.0" y2="90.4"/>
<line x1="321.6" y1="92.7" x2="326.1" y2="94.2"/>
<line x1="319.9" y1="96.4" x2="325.3" y2="98.1"/>
<line x1="285.9" y1="79.6" x2="285.9" y2="50.3"/>
<line x1="291.9" y1="79.6" x2="291.9" y2="50.3"/>
<polygon points="120.201858 329.198455 113.048622 304.250546 105.790214 307.614400 " />
<line x1="109.4" y1="305.9" x2="144.1" y2="289.8"/>
<line x1="109.4" y1="305.9" x2="93.1" y2="329.1"/>
<line x1="168.6" y1="291.6" x2="168.5" y2="292.4"/>
<line x1="164.8" y1="290.9" x2="164.7" y2="292.5"/>
<line x1="161.0" y1="290.2" x2="160.8" y2="292.5"/>
<line x1="157.2" y1="289.4" x2="157.0" y2="292.6"/>
<line x1="153.5" y1="288.7" x2="153.1" y2="292.7"/>
<line x1="149.7" y1="287.9" x2="149.3" y2="292.7"/>
<line x1="145.9" y1="287.2" x2="145.4" y2="292.8"/>
<line x1="144.1" y1="289.8" x2="156.1" y2="315.5"/>
<line x1="156.1" y1="194.5" x2="156.2" y2="156.1"/>
<line x1="156.2" y1="156.1" x2="222.5" y2="156.2"/>
<line x1="222.5" y1="156.2" x2="222.5" y2="194.5"/>
<line x1="222.5" y1="194.5" x2="189.3" y2="213.6"/>
<line x1="189.3" y1="213.6" x2="156.1" y2="194.5"/>
<line x1="255.7" y1="137.1" x2="288.9" y2="156.2"/>
<line x1="288.9" y1="156.2" x2="288.9" y2="194.5"/>
<line x1="288.9" y1="194.5" x2="255.7" y2="213.7"/>
<line x1="255.7" y1="213.7" x2="222.5" y2="194.5"/>
<line x1="222.5" y1="156.2" x2="255.7" y2="137.1"/>
<line x1="322.1" y1="98.7" x2="322.1" y2="137.1"/>
<line x1="322.1" y1="137.1" x2="288.9" y2="156.2"/>
<line x1="255.7" y1="137.1" x2="255.7" y2="98.7"/>
<line x1="255.7" y1="98.7" x2="288.9" y2="79.6"/>
<line x1="288.9" y1="79.6" x2="322.1" y2="98.7"/>
<line x1="388.4" y1="137.1" x2="355.2" y2="156.2"/>
<line x1="355.2" y1="156.2" x2="322.1" y2="137.1"/>
<line x1="322.1" y1="98.7" x2="355.3" y2="79.6"/>
<line x1="355.3" y1="79.6" x2="388.4" y2="98.8"/>
<line x1="388.4" y1="98.8" x2="388.4" y2="137.1"/>
<text x="26.645399" y="232.079973" fill="rgb(102,102,102)"  stroke="rgb(102,102,102)" stroke-width="1" font-size="16" >H</text>
<text x="38.645399" y="239.759973" fill="rgb(102,102,102)"  stroke="rgb(102,102,102)" stroke-width="1" font-size="13" >3</text>
<text x="45.145399" y="232.079973" fill="rgb(102,102,102)"  stroke="rgb(102,102,102)" stroke-width="1" font-size="16" >C</text>
<text x="110.270535" y="238.013214" fill="rgb(102,102,102)"  stroke="rgb(102,102,102)" stroke-width="1" font-size="16" >CH</text>
<text x="134.270535" y="245.693214" fill="rgb(102,102,102)"  stroke="rgb(102,102,102)" stroke-width="1" font-size="13" >3</text>
<text x="32.493194" y="320.005826" fill="rgb(102,102,102)"  stroke="rgb(102,102,102)" stroke-width="1" font-size="16" >H</text>
<text x="44.493194" y="324.805826" fill="rgb(102,102,102)"  stroke="rgb(102,102,102)" stroke-width="1" font-size="13" >3</text>
<text x="50.993194" y="320.005826" fill="rgb(102,102,102)"  stroke="rgb(102,102,102)" stroke-width="1" font-size="16" >C</text>
<text x="111.302687" y="187.194673" fill="rgb(102,102,102)"  stroke="rgb(102,102,102)" stroke-width="1" font-size="16" >H</text>
<text x="123.302687" y="194.874673" fill="rgb(102,102,102)"  stroke="rgb(102,102,102)" stroke-width="1" font-size="13" >3</text>
<text x="129.802687" y="187.194673" fill="rgb(102,102,102)"  stroke="rgb(102,102,102)" stroke-width="1" font-size="16" >C</text>
<text x="216.448841" y="238.887672" fill="rgb(102,102,102)"  stroke="rgb(102,102,102)" stroke-width="1" font-size="16" >CH</text>
<text x="240.448841" y="243.687672" fill="rgb(102,102,102)"  stroke="rgb(102,102,102)" stroke-width="1" font-size="13" >3</text>
<text x="328.572295" y="179.454358" fill="rgb(102,102,102)"  stroke="rgb(102,102,102)" stroke-width="1" font-size="16" >CH</text>
<text x="352.572295" y="184.254358" fill="rgb(102,102,102)"  stroke="rgb(102,102,102)" stroke-width="1" font-size="13" >3</text>
<text x="402.196609" y="72.800784" fill="rgb(255,12,12)"  stroke="rgb(255,12,12)" stroke-width="1" font-size="16" >OH</text>
<text x="282.935824" y="48.320000" fill="rgb(255,12,12)"  stroke="rgb(255,12,12)" stroke-width="1" font-size="16" >O</text>
<text x="71.792983" y="342.032262" fill="rgb(255,12,12)"  stroke="rgb(255,12,12)" stroke-width="1" font-size="16" >HO</text>
<text x="154.237959" y="329.364625" fill="rgb(255,12,12)"  stroke="rgb(255,12,12)" stroke-width="1" font-size="16" >OH</text>
<text x="36.400000" y="288.800480" fill="rgb(191,191,191)"  stroke="rgb(191,191,191)" stroke-width="1" font-size="16" >H</text>
<text x="109.276252" y="218.494461" fill="rgb(191,191,191)"  stroke="rgb(191,191,191)" stroke-width="1" font-size="16" >H</text>
<text x="422.017573" y="107.068963" fill="rgb(191,191,191)"  stroke="rgb(191,191,191)" stroke-width="1" font-size="16" >H</text>
<text x="249.671543" y="180.156128" fill="rgb(191,191,191)"  stroke="rgb(191,191,191)" stroke-width="1" font-size="16" >H</text>
<text x="183.199588" y="258.008333" fill="rgb(191,191,191)"  stroke="rgb(191,191,191)" stroke-width="1" font-size="16" >H</text>
<text x="250.763672" y="144.682772" fill="rgb(191,191,191)"  stroke="rgb(191,191,191)" stroke-width="1" font-size="16" >H</text>
<text x="282.893560" y="126.208280" fill="rgb(191,191,191)"  stroke="rgb(191,191,191)" stroke-width="1" font-size="16" >H</text>
<text x="328.633860" y="69.515034" fill="rgb(191,191,191)"  stroke="rgb(191,191,191)" stroke-width="1" font-size="16" >H</text>
<text x="119.512613" y="345.457820" fill="rgb(191,191,191)"  stroke="rgb(191,191,191)" stroke-width="1" font-size="16" >H</text>
<text x="176.264395" y="298.064837" fill="rgb(191,191,191)"  stroke="rgb(191,191,191)" stroke-width="1" font-size="16" >H</text>
<text font-size="18.000000" fill ="black" font-family="sans-serif"
x="140.000000" y="20.000000" ></text>
<title> - OBDepict</title>
</svg>
