<?xml version="1.0"?>
<svg xmlns="http://www.w3.org/2000/svg"
xmlns:xlink="http://www.w3.org/1999/xlink" xmlns:cml="http://www.xml-cml.org/schema" width="389.4" height="265.044" x="0" y="0" font-family="sans-serif" stroke="rgb(0,0,0)" stroke-width="1" >
<polygon points="149.282 150.403 153.282 123.603 145.282 123.603 " />
<polygon points="253.205 90.4029 245.959 64.293 238.65 67.5469 " />
<line x1="67.5" y1="212.8" x2="66.9" y2="212.4"/>
<line x1="69.9" y1="209.5" x2="68.5" y2="208.7"/>
<line x1="72.2" y1="206.2" x2="70.2" y2="205.0"/>
<line x1="74.6" y1="203.0" x2="71.8" y2="201.4"/>
<line x1="76.9" y1="199.7" x2="73.5" y2="197.7"/>
<line x1="79.3" y1="196.5" x2="75.1" y2="194.1"/>
<line x1="81.6" y1="193.2" x2="76.8" y2="190.4"/>
<line x1="80.0" y1="190.4" x2="50.4" y2="190.4"/>
<polygon points="241.773545 163.802940 220.564065 146.938839 216.564065 153.867042 " />
<line x1="161.6" y1="117.9" x2="162.0" y2="117.3"/>
<line x1="164.8" y1="120.3" x2="165.6" y2="118.9"/>
<line x1="168.1" y1="122.6" x2="169.3" y2="120.6"/>
<line x1="171.3" y1="125.0" x2="172.9" y2="122.2"/>
<line x1="174.6" y1="127.3" x2="176.6" y2="123.9"/>
<line x1="177.9" y1="129.7" x2="180.3" y2="125.5"/>
<line x1="181.1" y1="132.0" x2="183.9" y2="127.2"/>
<line x1="243.2" y1="154.0" x2="242.4" y2="153.6"/>
<line x1="245.2" y1="150.5" x2="243.7" y2="149.8"/>
<line x1="247.1" y1="147.0" x2="245.0" y2="146.0"/>
<line x1="249.1" y1="143.5" x2="246.2" y2="142.2"/>
<line x1="251.1" y1="140.0" x2="247.5" y2="138.4"/>
<line x1="253.1" y1="136.5" x2="248.7" y2="134.5"/>
<line x1="255.1" y1="133.0" x2="250.0" y2="130.7"/>
<polygon points="337.968232 97.002940 312.758752 106.938839 316.758752 113.867042 " />
<line x1="314.8" y1="110.4" x2="340.4" y2="125.2"/>
<line x1="288.4" y1="77.1" x2="297.5" y2="49.0"/>
<line x1="294.1" y1="79.0" x2="303.2" y2="50.8"/>
<line x1="314.8" y1="110.4" x2="291.2" y2="78.0"/>
<line x1="291.2" y1="78.0" x2="253.2" y2="90.4"/>
<line x1="253.2" y1="90.4" x2="253.2" y2="130.4"/>
<line x1="253.2" y1="130.4" x2="291.2" y2="142.8"/>
<line x1="291.2" y1="142.8" x2="314.8" y2="110.4"/>
<line x1="183.9" y1="210.4" x2="218.6" y2="190.4"/>
<line x1="218.6" y1="190.4" x2="218.6" y2="150.4"/>
<line x1="218.6" y1="150.4" x2="183.9" y2="130.4"/>
<line x1="183.9" y1="130.4" x2="149.3" y2="150.4"/>
<line x1="149.3" y1="150.4" x2="149.3" y2="190.4"/>
<line x1="149.3" y1="190.4" x2="183.9" y2="210.4"/>
<line x1="158.1" y1="187.2" x2="182.3" y2="201.2"/>
<line x1="80.0" y1="190.4" x2="114.6" y2="210.4"/>
<line x1="114.6" y1="210.4" x2="149.3" y2="190.4"/>
<line x1="149.3" y1="150.4" x2="114.6" y2="130.4"/>
<line x1="114.6" y1="130.4" x2="80.0" y2="150.4"/>
<line x1="80.0" y1="150.4" x2="80.0" y2="190.4"/>
<line x1="253.2" y1="90.4" x2="218.6" y2="70.4"/>
<line x1="218.6" y1="70.4" x2="183.9" y2="90.4"/>
<line x1="183.9" y1="90.4" x2="183.9" y2="130.4"/>
<line x1="218.6" y1="150.4" x2="253.2" y2="130.4"/>
<text x="143.282032" y="118.722940" fill="rgb(102,102,102)"  stroke="rgb(102,102,102)" stroke-width="1" font-size="16" >CH</text>
<text x="167.282032" y="126.402940" fill="rgb(102,102,102)"  stroke="rgb(102,102,102)" stroke-width="1" font-size="13" >3</text>
<text x="213.335615" y="62.181122" fill="rgb(102,102,102)"  stroke="rgb(102,102,102)" stroke-width="1" font-size="16" >H</text>
<text x="225.335615" y="69.861122" fill="rgb(102,102,102)"  stroke="rgb(102,102,102)" stroke-width="1" font-size="13" >3</text>
<text x="231.835615" y="62.181122" fill="rgb(102,102,102)"  stroke="rgb(102,102,102)" stroke-width="1" font-size="16" >C</text>
<text x="24.400000" y="195.202940" fill="rgb(255,12,12)"  stroke="rgb(255,12,12)" stroke-width="1" font-size="16" >HO</text>
<text x="343.399768" y="135.202940" fill="rgb(255,12,12)"  stroke="rgb(255,12,12)" stroke-width="1" font-size="16" >OH</text>
<text x="297.608021" y="48.320000" fill="rgb(255,12,12)"  stroke="rgb(255,12,12)" stroke-width="1" font-size="16" >O</text>
<text x="56.400000" y="229.843957" fill="rgb(191,191,191)"  stroke="rgb(191,191,191)" stroke-width="1" font-size="16" >H</text>
<text x="247.205081" y="175.202940" fill="rgb(191,191,191)"  stroke="rgb(191,191,191)" stroke-width="1" font-size="16" >H</text>
<text x="145.682032" y="118.722940" fill="rgb(191,191,191)"  stroke="rgb(191,191,191)" stroke-width="1" font-size="16" >H</text>
<text x="233.335615" y="171.744759" fill="rgb(191,191,191)"  stroke="rgb(191,191,191)" stroke-width="1" font-size="16" >H</text>
<text x="343.399768" y="98.722940" fill="rgb(191,191,191)"  stroke="rgb(191,191,191)" stroke-width="1" font-size="16" >H</text>
<text font-size="18.000000" fill ="black" font-family="sans-serif"
x="140.000000" y="20.000000" ></text>
<title> - OBDepict</title>
</svg>
