<?xml version="1.0"?>
<svg xmlns="http://www.w3.org/2000/svg"
xmlns:xlink="http://www.w3.org/1999/xlink" xmlns:cml="http://www.xml-cml.org/schema" width="218.564" height="160" x="0" y="0" font-family="sans-serif" stroke="rgb(0,0,0)" stroke-width="1" >
<line x1="40.0" y1="100.0" x2="74.6" y2="120.0"/>
<line x1="74.6" y1="120.0" x2="109.3" y2="100.0"/>
<line x1="76.2" y1="110.8" x2="100.5" y2="96.8"/>
<line x1="109.3" y1="100.0" x2="109.3" y2="60.0"/>
<line x1="109.3" y1="60.0" x2="74.6" y2="40.0"/>
<line x1="100.5" y1="63.2" x2="76.2" y2="49.2"/>
<line x1="74.6" y1="40.0" x2="40.0" y2="60.0"/>
<line x1="40.0" y1="60.0" x2="40.0" y2="100.0"/>
<line x1="47.2" y1="66.0" x2="47.2" y2="94.0"/>
<line x1="109.3" y1="100.0" x2="134.9" y2="114.8"/>
<line x1="152.9" y1="114.8" x2="178.6" y2="100.0"/>
<line x1="151.1" y1="107.6" x2="169.8" y2="96.8"/>
<line x1="178.6" y1="100.0" x2="178.6" y2="60.0"/>
<line x1="178.6" y1="60.0" x2="152.9" y2="45.2"/>
<line x1="134.9" y1="45.2" x2="109.3" y2="60.0"/>
<text x="137.923048" y="124.800000" fill="rgb(12,12,255)"  stroke="rgb(12,12,255)" stroke-width="1" font-size="16" >N</text>
<text x="137.923048" y="48.320000" fill="rgb(178,178,0)"  stroke="rgb(178,178,0)" stroke-width="1" font-size="16" >S</text>
<text font-size="18.000000" fill ="black" font-family="sans-serif"
x="140.000000" y="20.000000" ></text>
<title> - OBDepict</title>
</svg>
