<?xml version="1.0"?>
<svg xmlns="http://www.w3.org/2000/svg"
xmlns:xlink="http://www.w3.org/1999/xlink" xmlns:cml="http://www.xml-cml.org/schema" width="851.804" height="785.265" x="0" y="0" font-family="sans-serif" stroke="rgb(0,0,0)" stroke-width="1" >
<line x1="477.3" y1="735.4" x2="486.4" y2="707.2"/>
<line x1="314.2" y1="404.8" x2="336.2" y2="385.0"/>
<line x1="308.0" y1="375.9" x2="336.2" y2="385.0"/>
<line x1="486.4" y1="707.2" x2="459.7" y2="677.5"/>
<line x1="459.7" y1="677.5" x2="430.7" y2="683.7"/>
<line x1="456.8" y1="676.6" x2="469.2" y2="638.5"/>
<line x1="462.5" y1="678.4" x2="474.9" y2="640.4"/>
<line x1="472.0" y1="639.5" x2="452.2" y2="617.5"/>
<line x1="472.0" y1="639.5" x2="511.2" y2="631.1"/>
<line x1="511.2" y1="631.1" x2="523.5" y2="593.1"/>
<line x1="523.5" y1="593.1" x2="503.7" y2="571.1"/>
<line x1="522.9" y1="590.2" x2="562.0" y2="581.8"/>
<line x1="524.1" y1="596.0" x2="563.3" y2="587.7"/>
<line x1="562.6" y1="584.8" x2="571.8" y2="556.6"/>
<line x1="562.6" y1="584.8" x2="589.4" y2="614.5"/>
<line x1="589.4" y1="614.5" x2="628.5" y2="606.2"/>
<line x1="628.5" y1="606.2" x2="637.7" y2="578.0"/>
<line x1="630.8" y1="604.2" x2="657.5" y2="633.9"/>
<line x1="626.3" y1="608.2" x2="653.1" y2="637.9"/>
<line x1="655.3" y1="635.9" x2="684.3" y2="629.8"/>
<line x1="655.3" y1="635.9" x2="642.9" y2="674.0"/>
<line x1="642.9" y1="674.0" x2="669.7" y2="703.7"/>
<line x1="669.7" y1="703.7" x2="660.6" y2="731.8"/>
<line x1="669.1" y1="700.7" x2="708.2" y2="692.4"/>
<line x1="670.3" y1="706.6" x2="709.5" y2="698.3"/>
<line x1="708.8" y1="695.4" x2="728.6" y2="717.4"/>
<line x1="708.8" y1="695.4" x2="721.2" y2="657.3"/>
<line x1="721.2" y1="657.3" x2="760.3" y2="649.0"/>
<line x1="760.3" y1="649.0" x2="780.1" y2="671.0"/>
<line x1="757.5" y1="648.1" x2="769.8" y2="610.0"/>
<line x1="763.2" y1="649.9" x2="775.5" y2="611.9"/>
<line x1="772.7" y1="611.0" x2="801.6" y2="604.8"/>
<line x1="772.7" y1="611.0" x2="745.9" y2="581.2"/>
<line x1="745.9" y1="581.2" x2="706.8" y2="589.6"/>
<line x1="706.8" y1="589.6" x2="680.0" y2="559.8"/>
<line x1="680.0" y1="559.8" x2="692.4" y2="521.8"/>
<line x1="480.3" y1="389.8" x2="453.5" y2="360.1"/>
<line x1="480.3" y1="389.8" x2="519.4" y2="381.5"/>
<line x1="453.5" y1="360.1" x2="424.6" y2="366.2"/>
<line x1="585.3" y1="402.9" x2="612.1" y2="432.6"/>
<line x1="585.3" y1="402.9" x2="556.4" y2="409.0"/>
<line x1="612.1" y1="432.6" x2="641.0" y2="426.5"/>
<line x1="665.6" y1="492.1" x2="692.4" y2="521.8"/>
<line x1="665.6" y1="492.1" x2="678.0" y2="454.0"/>
<line x1="206.5" y1="300.8" x2="179.8" y2="271.1"/>
<line x1="206.5" y1="300.8" x2="235.5" y2="294.7"/>
<line x1="348.5" y1="347.0" x2="336.2" y2="385.0"/>
<line x1="348.5" y1="347.0" x2="328.7" y2="325.0"/>
<line x1="692.4" y1="521.8" x2="721.3" y2="515.6"/>
<line x1="521.7" y1="379.5" x2="541.5" y2="401.5"/>
<line x1="517.2" y1="383.5" x2="537.0" y2="405.5"/>
<line x1="519.4" y1="381.5" x2="528.6" y2="353.3"/>
<line x1="677.4" y1="451.1" x2="706.3" y2="444.9"/>
<line x1="678.6" y1="457.0" x2="707.6" y2="450.8"/>
<line x1="678.0" y1="454.0" x2="658.2" y2="432.0"/>
<line x1="123.7" y1="238.8" x2="94.8" y2="232.6"/>
<line x1="140.0" y1="275.3" x2="125.2" y2="300.9"/>
<line x1="362.9" y1="414.7" x2="402.1" y2="406.4"/>
<line x1="362.9" y1="414.7" x2="336.2" y2="385.0"/>
<line x1="362.9" y1="414.7" x2="353.8" y2="442.9"/>
<line x1="186.2" y1="76.5" x2="174.2" y2="49.5"/>
<line x1="399.2" y1="405.5" x2="408.3" y2="377.3"/>
<line x1="404.9" y1="407.4" x2="414.1" y2="379.2"/>
<line x1="402.1" y1="406.4" x2="421.9" y2="428.4"/>
<line x1="153.5" y1="212.0" x2="150.4" y2="182.6"/>
<line x1="80.0" y1="280.3" x2="80.0" y2="299.5"/>
<line x1="50.4" y1="309.9" x2="69.6" y2="309.9"/>
<line x1="77.0" y1="339.5" x2="77.0" y2="320.3"/>
<line x1="83.0" y1="339.5" x2="83.0" y2="320.3"/>
<line x1="229.9" y1="245.3" x2="248.1" y2="251.3"/>
<line x1="270.0" y1="227.3" x2="264.1" y2="245.5"/>
<line x1="264.3" y1="225.4" x2="258.4" y2="243.7"/>
<line x1="343.3" y1="251.1" x2="337.3" y2="269.3"/>
<line x1="361.3" y1="291.2" x2="343.1" y2="285.3"/>
<line x1="363.2" y1="285.5" x2="344.9" y2="279.6"/>
<line x1="248.9" y1="282.6" x2="254.8" y2="264.4"/>
<line x1="325.0" y1="307.4" x2="330.9" y2="289.1"/>
<line x1="109.6" y1="309.9" x2="90.4" y2="309.9"/>
<line x1="286.2" y1="263.6" x2="267.9" y2="257.7"/>
<line x1="306.0" y1="270.1" x2="324.2" y2="276.0"/>
<line x1="114.6" y1="152.2" x2="140.3" y2="167.0"/>
<line x1="157.0" y1="165.3" x2="179.0" y2="145.4"/>
<line x1="179.0" y1="145.4" x2="162.7" y2="108.9"/>
<line x1="162.7" y1="108.9" x2="133.3" y2="112.0"/>
<line x1="120.8" y1="123.3" x2="114.6" y2="152.2"/>
<line x1="127.4" y1="126.7" x2="122.9" y2="147.8"/>
<line x1="179.8" y1="271.1" x2="140.0" y2="275.3"/>
<line x1="140.0" y1="275.3" x2="123.7" y2="238.8"/>
<line x1="123.7" y1="238.8" x2="153.5" y2="212.0"/>
<line x1="153.5" y1="212.0" x2="179.1" y2="226.8"/>
<line x1="185.9" y1="242.2" x2="179.8" y2="271.1"/>
<line x1="179.0" y1="145.4" x2="208.4" y2="148.5"/>
<line x1="185.7" y1="138.9" x2="207.2" y2="141.2"/>
<line x1="224.9" y1="141.2" x2="242.3" y2="117.3"/>
<line x1="242.3" y1="117.3" x2="230.3" y2="90.2"/>
<line x1="233.3" y1="114.7" x2="224.5" y2="95.0"/>
<line x1="215.7" y1="79.6" x2="186.2" y2="76.5"/>
<line x1="186.2" y1="76.5" x2="162.7" y2="108.9"/>
<line x1="188.5" y1="85.6" x2="172.1" y2="108.3"/>
<text x="450.474921" y="750.064653" fill="rgb(102,102,102)"  stroke="rgb(102,102,102)" stroke-width="1" font-size="16" >H</text>
<text x="462.474921" y="754.864653" fill="rgb(102,102,102)"  stroke="rgb(102,102,102)" stroke-width="1" font-size="13" >3</text>
<text x="468.974921" y="750.064653" fill="rgb(102,102,102)"  stroke="rgb(102,102,102)" stroke-width="1" font-size="16" >C</text>
<text x="282.835277" y="416.580283" fill="rgb(102,102,102)"  stroke="rgb(102,102,102)" stroke-width="1" font-size="16" >H</text>
<text x="294.835277" y="421.380283" fill="rgb(102,102,102)"  stroke="rgb(102,102,102)" stroke-width="1" font-size="13" >3</text>
<text x="301.335277" y="416.580283" fill="rgb(102,102,102)"  stroke="rgb(102,102,102)" stroke-width="1" font-size="16" >C</text>
<text x="274.518809" y="380.974379" fill="rgb(102,102,102)"  stroke="rgb(102,102,102)" stroke-width="1" font-size="16" >H</text>
<text x="286.518809" y="388.654379" fill="rgb(102,102,102)"  stroke="rgb(102,102,102)" stroke-width="1" font-size="13" >3</text>
<text x="293.018809" y="380.974379" fill="rgb(102,102,102)"  stroke="rgb(102,102,102)" stroke-width="1" font-size="16" >C</text>
<text x="146.373460" y="48.320000" fill="rgb(12,12,255)"  stroke="rgb(12,12,255)" stroke-width="1" font-size="16" >H</text>
<text x="158.373460" y="56.000000" fill="rgb(12,12,255)"  stroke="rgb(12,12,255)" stroke-width="1" font-size="13" >2</text>
<text x="164.873460" y="48.320000" fill="rgb(12,12,255)"  stroke="rgb(12,12,255)" stroke-width="1" font-size="16" >N</text>
<text x="542.595135" y="416.000775" fill="rgb(12,12,255)"  stroke="rgb(12,12,255)" stroke-width="1" font-size="16" >N</text>
<text x="410.812878" y="376.702124" fill="rgb(12,12,255)"  stroke="rgb(12,12,255)" stroke-width="1" font-size="16" >N</text>
<text x="220.023802" y="89.042957" fill="rgb(12,12,255)"  stroke="rgb(12,12,255)" stroke-width="1" font-size="16" >N</text>
<text x="212.781858" y="154.425455" fill="rgb(12,12,255)"  stroke="rgb(12,12,255)" stroke-width="1" font-size="16" >N</text>
<text x="119.350640" y="121.403637" fill="rgb(12,12,255)"  stroke="rgb(12,12,255)" stroke-width="1" font-size="16" >N</text>
<text x="143.275189" y="177.009541" fill="rgb(12,12,255)"  stroke="rgb(12,12,255)" stroke-width="1" font-size="16" >N</text>
<text x="725.507840" y="521.791011" fill="rgb(255,12,12)"  stroke="rgb(255,12,12)" stroke-width="1" font-size="16" >OH</text>
<text x="526.990590" y="337.032721" fill="rgb(255,12,12)"  stroke="rgb(255,12,12)" stroke-width="1" font-size="32" >-</text>
<text x="525.790590" y="351.752721" fill="rgb(255,12,12)"  stroke="rgb(255,12,12)" stroke-width="1" font-size="16" >O</text>
<text x="711.103295" y="454.022958" fill="rgb(255,12,12)"  stroke="rgb(255,12,12)" stroke-width="1" font-size="16" >O</text>
<text x="69.004630" y="238.759173" fill="rgb(255,12,12)"  stroke="rgb(255,12,12)" stroke-width="1" font-size="16" >HO</text>
<text x="334.965614" y="457.583113" fill="rgb(255,12,12)"  stroke="rgb(255,12,12)" stroke-width="1" font-size="16" >HO</text>
<text x="424.017422" y="455.350177" fill="rgb(255,12,12)"  stroke="rgb(255,12,12)" stroke-width="1" font-size="32" >-</text>
<text x="422.817422" y="440.950177" fill="rgb(255,12,12)"  stroke="rgb(255,12,12)" stroke-width="1" font-size="16" >O</text>
<text x="75.200000" y="263.538475" fill="rgb(255,12,12)"  stroke="rgb(255,12,12)" stroke-width="1" font-size="32" >-</text>
<text x="74.000000" y="278.258475" fill="rgb(255,12,12)"  stroke="rgb(255,12,12)" stroke-width="1" font-size="16" >O</text>
<text x="35.200000" y="329.138475" fill="rgb(255,12,12)"  stroke="rgb(255,12,12)" stroke-width="1" font-size="32" >-</text>
<text x="36.400000" y="314.738475" fill="rgb(255,12,12)"  stroke="rgb(255,12,12)" stroke-width="1" font-size="16" >O</text>
<text x="74.000000" y="354.738475" fill="rgb(255,12,12)"  stroke="rgb(255,12,12)" stroke-width="1" font-size="16" >O</text>
<text x="204.390423" y="250.442705" fill="rgb(255,12,12)"  stroke="rgb(255,12,12)" stroke-width="1" font-size="16" >HO</text>
<text x="264.393364" y="224.761125" fill="rgb(255,12,12)"  stroke="rgb(255,12,12)" stroke-width="1" font-size="16" >O</text>
<text x="340.477885" y="249.482484" fill="rgb(255,12,12)"  stroke="rgb(255,12,12)" stroke-width="1" font-size="16" >OH</text>
<text x="366.159466" y="296.365425" fill="rgb(255,12,12)"  stroke="rgb(255,12,12)" stroke-width="1" font-size="16" >O</text>
<text x="239.672004" y="297.325646" fill="rgb(255,12,12)"  stroke="rgb(255,12,12)" stroke-width="1" font-size="16" >O</text>
<text x="318.156525" y="322.047005" fill="rgb(255,12,12)"  stroke="rgb(255,12,12)" stroke-width="1" font-size="16" >O</text>
<text x="182.097343" y="240.310416" fill="rgb(255,12,12)"  stroke="rgb(255,12,12)" stroke-width="1" font-size="16" >O</text>
<text x="114.000000" y="314.738475" fill="rgb(255,12,12)"  stroke="rgb(255,12,12)" stroke-width="1" font-size="16" >O</text>
<text x="290.074945" y="275.164065" fill="rgb(255,12,12)"  stroke="rgb(255,12,12)" stroke-width="1" font-size="16" >O</text>
<text x="74.000000" y="314.738475" fill="rgb(255,127,0)"  stroke="rgb(255,127,0)" stroke-width="1" font-size="16" >P</text>
<text x="252.032684" y="259.283385" fill="rgb(255,127,0)"  stroke="rgb(255,127,0)" stroke-width="1" font-size="16" >P</text>
<text x="328.117205" y="284.004745" fill="rgb(255,127,0)"  stroke="rgb(255,127,0)" stroke-width="1" font-size="16" >P</text>
<text x="645.212167" y="432.613632" fill="rgb(178,178,0)"  stroke="rgb(178,178,0)" stroke-width="1" font-size="16" >S</text>
<text x="416.944472" y="690.613067" fill="rgb(191,191,191)"  stroke="rgb(191,191,191)" stroke-width="1" font-size="16" >H</text>
<text x="441.665832" y="618.048545" fill="rgb(191,191,191)"  stroke="rgb(191,191,191)" stroke-width="1" font-size="16" >H</text>
<text x="493.152415" y="571.689817" fill="rgb(191,191,191)"  stroke="rgb(191,191,191)" stroke-width="1" font-size="16" >H</text>
<text x="569.004223" y="555.056882" fill="rgb(191,191,191)"  stroke="rgb(191,191,191)" stroke-width="1" font-size="16" >H</text>
<text x="634.895352" y="576.466207" fill="rgb(191,191,191)"  stroke="rgb(191,191,191)" stroke-width="1" font-size="16" >H</text>
<text x="688.425800" y="635.917793" fill="rgb(191,191,191)"  stroke="rgb(191,191,191)" stroke-width="1" font-size="16" >H</text>
<text x="653.743761" y="746.524575" fill="rgb(191,191,191)"  stroke="rgb(191,191,191)" stroke-width="1" font-size="16" >H</text>
<text x="729.595569" y="729.891640" fill="rgb(191,191,191)"  stroke="rgb(191,191,191)" stroke-width="1" font-size="16" >H</text>
<text x="781.082153" y="683.532912" fill="rgb(191,191,191)"  stroke="rgb(191,191,191)" stroke-width="1" font-size="16" >H</text>
<text x="805.803512" y="610.968390" fill="rgb(191,191,191)"  stroke="rgb(191,191,191)" stroke-width="1" font-size="16" >H</text>
<text font-size="18.000000" fill ="black" font-family="sans-serif"
x="140.000000" y="20.000000" ></text>
<title> - OBDepict</title>
</svg>
