<?xml version="1.0"?>
<svg xmlns="http://www.w3.org/2000/svg"
xmlns:xlink="http://www.w3.org/1999/xlink" xmlns:cml="http://www.xml-cml.org/schema" width="637.703" height="559.285" x="0" y="0" font-family="sans-serif" stroke="rgb(0,0,0)" stroke-width="1" >
<line x1="43.1" y1="181.9" x2="52.0" y2="209.2"/>
<line x1="323.6" y1="115.2" x2="344.9" y2="134.3"/>
<line x1="317.6" y1="143.2" x2="344.9" y2="134.3"/>
<line x1="52.0" y1="209.2" x2="89.8" y2="217.2"/>
<line x1="89.8" y1="217.2" x2="115.7" y2="188.5"/>
<line x1="257.2" y1="81.4" x2="295.1" y2="89.5"/>
<line x1="257.2" y1="81.4" x2="231.3" y2="110.2"/>
<line x1="295.1" y1="89.5" x2="314.2" y2="68.2"/>
<line x1="217.4" y1="175.8" x2="179.5" y2="167.7"/>
<line x1="217.4" y1="175.8" x2="236.5" y2="154.5"/>
<line x1="179.5" y1="167.7" x2="160.3" y2="189.0"/>
<line x1="338.8" y1="349.3" x2="376.6" y2="357.3"/>
<line x1="338.8" y1="349.3" x2="329.9" y2="322.0"/>
<line x1="368.8" y1="208.0" x2="344.9" y2="134.3"/>
<line x1="368.8" y1="208.0" x2="349.6" y2="229.3"/>
<line x1="368.6" y1="333.9" x2="369.4" y2="333.7"/>
<line x1="369.4" y1="337.7" x2="370.9" y2="337.2"/>
<line x1="370.2" y1="341.5" x2="372.5" y2="340.8"/>
<line x1="371.1" y1="345.3" x2="374.1" y2="344.3"/>
<line x1="371.9" y1="349.1" x2="375.7" y2="347.9"/>
<line x1="372.7" y1="352.9" x2="377.2" y2="351.4"/>
<line x1="373.5" y1="356.7" x2="378.8" y2="355.0"/>
<line x1="234.1" y1="109.3" x2="243.0" y2="136.5"/>
<line x1="228.4" y1="111.1" x2="237.3" y2="138.4"/>
<line x1="231.3" y1="110.2" x2="203.3" y2="104.2"/>
<line x1="112.9" y1="189.4" x2="104.0" y2="162.1"/>
<line x1="118.6" y1="187.5" x2="109.7" y2="160.3"/>
<line x1="115.7" y1="188.5" x2="143.7" y2="194.4"/>
<polygon points="399.941844 436.245181 411.760575 412.815138 404.152123 410.343002 " />
<line x1="408.0" y1="411.6" x2="427.1" y2="432.9"/>
<polygon points="346.657815 395.834426 372.593299 399.834426 372.593299 391.834426 " />
<line x1="372.6" y1="395.8" x2="358.3" y2="420.6"/>
<polygon points="395.456099 97.567482 369.553920 101.777761 372.026056 109.386213 " />
<line x1="370.8" y1="105.6" x2="358.8" y2="68.8"/>
<line x1="370.8" y1="105.6" x2="344.9" y2="134.3"/>
<line x1="370.8" y1="105.6" x2="392.1" y2="124.7"/>
<line x1="573.3" y1="483.1" x2="583.6" y2="509.9"/>
<line x1="358.2" y1="71.7" x2="330.2" y2="65.7"/>
<line x1="359.5" y1="65.8" x2="331.4" y2="59.9"/>
<line x1="358.8" y1="68.8" x2="378.0" y2="47.5"/>
<line x1="449.3" y1="363.4" x2="449.9" y2="364.0"/>
<line x1="446.5" y1="366.2" x2="447.8" y2="367.2"/>
<line x1="443.8" y1="368.9" x2="445.6" y2="370.4"/>
<line x1="441.0" y1="371.6" x2="443.5" y2="373.7"/>
<line x1="438.2" y1="374.4" x2="441.3" y2="376.9"/>
<line x1="435.5" y1="377.1" x2="439.2" y2="380.2"/>
<line x1="432.7" y1="379.8" x2="437.0" y2="383.4"/>
<line x1="433.9" y1="382.8" x2="469.9" y2="427.3"/>
<line x1="314.5" y1="458.0" x2="314.5" y2="439.4"/>
<line x1="285.9" y1="429.4" x2="304.5" y2="429.4"/>
<line x1="317.5" y1="400.7" x2="317.5" y2="419.3"/>
<line x1="311.5" y1="400.7" x2="311.5" y2="419.3"/>
<line x1="283.0" y1="332.4" x2="286.9" y2="314.3"/>
<line x1="261.6" y1="295.5" x2="279.7" y2="299.4"/>
<line x1="260.3" y1="301.4" x2="278.5" y2="305.3"/>
<line x1="277.0" y1="222.7" x2="295.2" y2="226.6"/>
<line x1="313.9" y1="201.3" x2="310.1" y2="219.5"/>
<line x1="308.1" y1="200.1" x2="304.2" y2="218.2"/>
<line x1="317.0" y1="310.4" x2="298.8" y2="306.5"/>
<line x1="333.1" y1="234.7" x2="314.9" y2="230.8"/>
<line x1="343.2" y1="429.4" x2="324.6" y2="429.4"/>
<line x1="294.9" y1="276.4" x2="291.0" y2="294.6"/>
<line x1="299.1" y1="256.7" x2="303.0" y2="238.5"/>
<line x1="472.6" y1="480.4" x2="480.0" y2="452.7"/>
<line x1="492.6" y1="442.5" x2="521.2" y2="441.0"/>
<line x1="521.2" y1="441.0" x2="535.1" y2="477.1"/>
<line x1="535.1" y1="477.1" x2="512.8" y2="495.1"/>
<line x1="496.6" y1="496.0" x2="472.6" y2="480.4"/>
<line x1="498.7" y1="488.8" x2="481.5" y2="477.6"/>
<line x1="376.6" y1="357.3" x2="372.6" y2="395.8"/>
<line x1="372.6" y1="395.8" x2="408.0" y2="411.6"/>
<line x1="408.0" y1="411.6" x2="433.9" y2="382.8"/>
<line x1="433.9" y1="382.8" x2="419.5" y2="358.0"/>
<line x1="404.7" y1="351.4" x2="376.6" y2="357.3"/>
<line x1="521.2" y1="441.0" x2="539.3" y2="418.7"/>
<line x1="530.6" y1="440.8" x2="543.5" y2="424.9"/>
<line x1="555.5" y1="412.4" x2="583.8" y2="416.9"/>
<line x1="583.8" y1="416.9" x2="594.1" y2="443.7"/>
<line x1="579.3" y1="425.1" x2="586.6" y2="444.3"/>
<line x1="591.4" y1="460.9" x2="573.3" y2="483.1"/>
<line x1="573.3" y1="483.1" x2="535.1" y2="477.1"/>
<line x1="568.5" y1="475.1" x2="542.2" y2="470.9"/>
<text x="16.400000" y="180.680406" fill="rgb(102,102,102)"  stroke="rgb(102,102,102)" stroke-width="1" font-size="16" >H</text>
<text x="28.400000" y="188.360406" fill="rgb(102,102,102)"  stroke="rgb(102,102,102)" stroke-width="1" font-size="13" >3</text>
<text x="34.900000" y="180.680406" fill="rgb(102,102,102)"  stroke="rgb(102,102,102)" stroke-width="1" font-size="16" >C</text>
<text x="292.521262" y="116.767054" fill="rgb(102,102,102)"  stroke="rgb(102,102,102)" stroke-width="1" font-size="16" >H</text>
<text x="304.521262" y="124.447054" fill="rgb(102,102,102)"  stroke="rgb(102,102,102)" stroke-width="1" font-size="13" >3</text>
<text x="311.021262" y="116.767054" fill="rgb(102,102,102)"  stroke="rgb(102,102,102)" stroke-width="1" font-size="16" >C</text>
<text x="284.473067" y="151.110832" fill="rgb(102,102,102)"  stroke="rgb(102,102,102)" stroke-width="1" font-size="16" >H</text>
<text x="296.473067" y="155.910832" fill="rgb(102,102,102)"  stroke="rgb(102,102,102)" stroke-width="1" font-size="13" >3</text>
<text x="302.973067" y="151.110832" fill="rgb(102,102,102)"  stroke="rgb(102,102,102)" stroke-width="1" font-size="16" >C</text>
<text x="581.214097" y="524.085126" fill="rgb(12,12,255)"  stroke="rgb(12,12,255)" stroke-width="1" font-size="16" >NH</text>
<text x="605.214097" y="528.885126" fill="rgb(12,12,255)"  stroke="rgb(12,12,255)" stroke-width="1" font-size="13" >2</text>
<text x="237.258772" y="151.819391" fill="rgb(12,12,255)"  stroke="rgb(12,12,255)" stroke-width="1" font-size="16" >N</text>
<text x="317.364262" y="69.038702" fill="rgb(12,12,255)"  stroke="rgb(12,12,255)" stroke-width="1" font-size="16" >N</text>
<text x="591.702579" y="457.863460" fill="rgb(12,12,255)"  stroke="rgb(12,12,255)" stroke-width="1" font-size="16" >N</text>
<text x="541.997174" y="419.189335" fill="rgb(12,12,255)"  stroke="rgb(12,12,255)" stroke-width="1" font-size="16" >N</text>
<text x="499.025623" y="506.251791" fill="rgb(12,12,255)"  stroke="rgb(12,12,255)" stroke-width="1" font-size="16" >N</text>
<text x="476.579758" y="447.778312" fill="rgb(12,12,255)"  stroke="rgb(12,12,255)" stroke-width="1" font-size="16" >N</text>
<text x="188.633046" y="95.756106" fill="rgb(255,12,12)"  stroke="rgb(255,12,12)" stroke-width="1" font-size="32" >-</text>
<text x="189.833046" y="110.476106" fill="rgb(255,12,12)"  stroke="rgb(255,12,12)" stroke-width="1" font-size="16" >O</text>
<text x="100.165608" y="159.961704" fill="rgb(255,12,12)"  stroke="rgb(255,12,12)" stroke-width="1" font-size="16" >O</text>
<text x="427.858179" y="445.145966" fill="rgb(255,12,12)"  stroke="rgb(255,12,12)" stroke-width="1" font-size="16" >OH</text>
<text x="393.556885" y="136.283817" fill="rgb(255,12,12)"  stroke="rgb(255,12,12)" stroke-width="1" font-size="16" >OH</text>
<text x="379.929870" y="33.600000" fill="rgb(255,12,12)"  stroke="rgb(255,12,12)" stroke-width="1" font-size="32" >-</text>
<text x="378.729870" y="48.320000" fill="rgb(255,12,12)"  stroke="rgb(255,12,12)" stroke-width="1" font-size="16" >O</text>
<text x="309.728783" y="487.267667" fill="rgb(255,12,12)"  stroke="rgb(255,12,12)" stroke-width="1" font-size="32" >-</text>
<text x="308.528783" y="472.867667" fill="rgb(255,12,12)"  stroke="rgb(255,12,12)" stroke-width="1" font-size="16" >O</text>
<text x="271.019105" y="422.957990" fill="rgb(255,12,12)"  stroke="rgb(255,12,12)" stroke-width="1" font-size="32" >-</text>
<text x="272.219105" y="437.677990" fill="rgb(255,12,12)"  stroke="rgb(255,12,12)" stroke-width="1" font-size="16" >O</text>
<text x="308.528783" y="398.968312" fill="rgb(255,12,12)"  stroke="rgb(255,12,12)" stroke-width="1" font-size="16" >O</text>
<text x="265.301863" y="347.089102" fill="rgb(255,12,12)"  stroke="rgb(255,12,12)" stroke-width="1" font-size="16" >HO</text>
<text x="247.486280" y="304.697129" fill="rgb(255,12,12)"  stroke="rgb(255,12,12)" stroke-width="1" font-size="16" >O</text>
<text x="251.582669" y="228.969573" fill="rgb(255,12,12)"  stroke="rgb(255,12,12)" stroke-width="1" font-size="16" >HO</text>
<text x="307.094641" y="199.153990" fill="rgb(255,12,12)"  stroke="rgb(255,12,12)" stroke-width="1" font-size="16" >O</text>
<text x="320.813836" y="320.793518" fill="rgb(255,12,12)"  stroke="rgb(255,12,12)" stroke-width="1" font-size="16" >O</text>
<text x="336.910225" y="241.545962" fill="rgb(255,12,12)"  stroke="rgb(255,12,12)" stroke-width="1" font-size="16" >O</text>
<text x="408.503340" y="357.608609" fill="rgb(255,12,12)"  stroke="rgb(255,12,12)" stroke-width="1" font-size="16" >O</text>
<text x="347.238460" y="434.157990" fill="rgb(255,12,12)"  stroke="rgb(255,12,12)" stroke-width="1" font-size="16" >O</text>
<text x="290.998252" y="271.361546" fill="rgb(255,12,12)"  stroke="rgb(255,12,12)" stroke-width="1" font-size="16" >O</text>
<text x="308.528783" y="434.157990" fill="rgb(255,127,0)"  stroke="rgb(255,127,0)" stroke-width="1" font-size="16" >P</text>
<text x="282.950058" y="312.745324" fill="rgb(255,127,0)"  stroke="rgb(255,127,0)" stroke-width="1" font-size="16" >P</text>
<text x="299.046447" y="233.497768" fill="rgb(255,127,0)"  stroke="rgb(255,127,0)" stroke-width="1" font-size="16" >P</text>
<text x="147.591334" y="201.304990" fill="rgb(178,178,0)"  stroke="rgb(178,178,0)" stroke-width="1" font-size="16" >S</text>
<text x="361.077614" y="328.841713" fill="rgb(191,191,191)"  stroke="rgb(191,191,191)" stroke-width="1" font-size="16" >H</text>
<text x="392.394401" y="453.194161" fill="rgb(191,191,191)"  stroke="rgb(191,191,191)" stroke-width="1" font-size="16" >H</text>
<text x="330.283622" y="404.154426" fill="rgb(191,191,191)"  stroke="rgb(191,191,191)" stroke-width="1" font-size="16" >H</text>
<text x="401.605079" y="101.940039" fill="rgb(191,191,191)"  stroke="rgb(191,191,191)" stroke-width="1" font-size="16" >H</text>
<text x="452.493479" y="361.273487" fill="rgb(191,191,191)"  stroke="rgb(191,191,191)" stroke-width="1" font-size="16" >H</text>
<text font-size="18.000000" fill ="black" font-family="sans-serif"
x="140.000000" y="20.000000" ></text>
<title> - OBDepict</title>
</svg>
