<?xml version="1.0"?>
<svg xmlns="http://www.w3.org/2000/svg"
xmlns:xlink="http://www.w3.org/1999/xlink" xmlns:cml="http://www.xml-cml.org/schema" width="960.589" height="561.504" x="0" y="0" font-family="sans-serif" stroke="rgb(0,0,0)" stroke-width="1" >
<line x1="43.1" y1="286.7" x2="52.0" y2="314.0"/>
<line x1="645.2" y1="115.5" x2="666.6" y2="134.8"/>
<line x1="639.2" y1="143.7" x2="666.6" y2="134.8"/>
<line x1="52.0" y1="314.0" x2="90.1" y2="322.1"/>
<line x1="90.1" y1="322.1" x2="116.1" y2="293.2"/>
<line x1="116.1" y1="293.2" x2="154.1" y2="301.3"/>
<line x1="154.1" y1="301.3" x2="180.1" y2="272.4"/>
<line x1="180.1" y1="272.4" x2="218.2" y2="280.5"/>
<line x1="218.2" y1="280.5" x2="244.2" y2="251.6"/>
<line x1="244.2" y1="251.6" x2="282.2" y2="259.7"/>
<line x1="282.2" y1="259.7" x2="308.3" y2="230.8"/>
<line x1="308.3" y1="230.8" x2="346.3" y2="238.9"/>
<line x1="346.3" y1="238.9" x2="372.3" y2="210.0"/>
<line x1="372.3" y1="210.0" x2="410.4" y2="218.0"/>
<line x1="410.4" y1="218.0" x2="436.4" y2="189.1"/>
<line x1="578.5" y1="81.6" x2="616.5" y2="89.7"/>
<line x1="578.5" y1="81.6" x2="552.5" y2="110.5"/>
<line x1="616.5" y1="89.7" x2="635.8" y2="68.3"/>
<line x1="538.5" y1="176.4" x2="500.4" y2="168.3"/>
<line x1="538.5" y1="176.4" x2="557.7" y2="155.0"/>
<line x1="500.4" y1="168.3" x2="481.2" y2="189.7"/>
<line x1="660.5" y1="350.7" x2="698.5" y2="358.8"/>
<line x1="660.5" y1="350.7" x2="651.6" y2="323.4"/>
<line x1="690.6" y1="208.8" x2="666.6" y2="134.8"/>
<line x1="690.6" y1="208.8" x2="671.4" y2="230.1"/>
<line x1="690.4" y1="335.3" x2="691.2" y2="335.0"/>
<line x1="691.3" y1="339.1" x2="692.8" y2="338.6"/>
<line x1="692.1" y1="342.9" x2="694.4" y2="342.2"/>
<line x1="692.9" y1="346.7" x2="695.9" y2="345.7"/>
<line x1="693.7" y1="350.5" x2="697.5" y2="349.3"/>
<line x1="694.5" y1="354.4" x2="699.1" y2="352.9"/>
<line x1="695.4" y1="358.2" x2="700.7" y2="356.5"/>
<line x1="555.3" y1="109.6" x2="564.2" y2="137.0"/>
<line x1="549.6" y1="111.5" x2="558.5" y2="138.8"/>
<line x1="552.5" y1="110.5" x2="524.3" y2="104.5"/>
<line x1="433.5" y1="190.1" x2="424.6" y2="162.7"/>
<line x1="439.2" y1="188.2" x2="430.3" y2="160.8"/>
<line x1="436.4" y1="189.1" x2="464.5" y2="195.1"/>
<polygon points="721.912337 438.079649 733.768172 414.535411 726.159720 412.063275 " />
<line x1="730.0" y1="413.3" x2="749.2" y2="434.7"/>
<polygon points="668.381623 397.481807 694.437179 401.481807 694.437179 393.481807 " />
<line x1="694.4" y1="397.5" x2="680.0" y2="422.4"/>
<polygon points="717.405825 97.833998 691.389451 102.081382 693.861587 109.689834 " />
<line x1="692.6" y1="105.9" x2="680.6" y2="68.9"/>
<line x1="692.6" y1="105.9" x2="666.6" y2="134.8"/>
<line x1="692.6" y1="105.9" x2="714.0" y2="125.1"/>
<line x1="896.1" y1="485.2" x2="906.4" y2="512.1"/>
<line x1="680.0" y1="71.8" x2="651.8" y2="65.9"/>
<line x1="681.2" y1="66.0" x2="653.1" y2="60.0"/>
<line x1="680.6" y1="68.9" x2="699.9" y2="47.5"/>
<line x1="771.5" y1="364.9" x2="772.1" y2="365.5"/>
<line x1="768.7" y1="367.7" x2="770.0" y2="368.7"/>
<line x1="765.9" y1="370.4" x2="767.8" y2="372.0"/>
<line x1="763.2" y1="373.2" x2="765.6" y2="375.2"/>
<line x1="760.4" y1="375.9" x2="763.5" y2="378.5"/>
<line x1="757.6" y1="378.7" x2="761.3" y2="381.7"/>
<line x1="754.8" y1="381.4" x2="759.1" y2="385.0"/>
<line x1="756.0" y1="384.4" x2="792.2" y2="429.1"/>
<line x1="636.1" y1="459.9" x2="636.1" y2="441.3"/>
<line x1="607.3" y1="431.2" x2="626.0" y2="431.2"/>
<line x1="639.1" y1="402.4" x2="639.1" y2="421.0"/>
<line x1="633.1" y1="402.4" x2="633.1" y2="421.0"/>
<line x1="604.4" y1="333.8" x2="608.3" y2="315.5"/>
<line x1="582.9" y1="296.7" x2="601.1" y2="300.6"/>
<line x1="581.6" y1="302.6" x2="599.9" y2="306.5"/>
<line x1="598.4" y1="223.6" x2="616.7" y2="227.5"/>
<line x1="635.5" y1="202.0" x2="631.6" y2="220.3"/>
<line x1="629.6" y1="200.8" x2="625.7" y2="219.1"/>
<line x1="638.6" y1="311.6" x2="620.3" y2="307.8"/>
<line x1="654.7" y1="235.6" x2="636.5" y2="231.7"/>
<line x1="664.9" y1="431.2" x2="646.2" y2="431.2"/>
<line x1="616.4" y1="277.5" x2="612.5" y2="295.8"/>
<line x1="620.6" y1="257.7" x2="624.5" y2="239.5"/>
<line x1="794.9" y1="482.4" x2="802.3" y2="454.6"/>
<line x1="815.0" y1="444.3" x2="843.8" y2="442.8"/>
<line x1="843.8" y1="442.8" x2="857.7" y2="479.1"/>
<line x1="857.7" y1="479.1" x2="835.3" y2="497.2"/>
<line x1="819.0" y1="498.1" x2="794.9" y2="482.4"/>
<line x1="821.2" y1="490.9" x2="803.8" y2="479.6"/>
<line x1="698.5" y1="358.8" x2="694.4" y2="397.5"/>
<line x1="694.4" y1="397.5" x2="730.0" y2="413.3"/>
<line x1="730.0" y1="413.3" x2="756.0" y2="384.4"/>
<line x1="756.0" y1="384.4" x2="741.6" y2="359.5"/>
<line x1="726.7" y1="352.8" x2="698.5" y2="358.8"/>
<line x1="843.8" y1="442.8" x2="861.9" y2="420.4"/>
<line x1="853.1" y1="442.7" x2="866.1" y2="426.6"/>
<line x1="878.2" y1="414.2" x2="906.7" y2="418.7"/>
<line x1="906.7" y1="418.7" x2="917.0" y2="445.5"/>
<line x1="902.1" y1="426.9" x2="909.5" y2="446.1"/>
<line x1="914.2" y1="462.8" x2="896.1" y2="485.2"/>
<line x1="896.1" y1="485.2" x2="857.7" y2="479.1"/>
<line x1="891.3" y1="477.1" x2="864.8" y2="472.9"/>
<text x="16.400000" y="285.366296" fill="rgb(102,102,102)"  stroke="rgb(102,102,102)" stroke-width="1" font-size="16" >H</text>
<text x="28.400000" y="293.046296" fill="rgb(102,102,102)"  stroke="rgb(102,102,102)" stroke-width="1" font-size="13" >3</text>
<text x="34.900000" y="285.366296" fill="rgb(102,102,102)"  stroke="rgb(102,102,102)" stroke-width="1" font-size="16" >C</text>
<text x="614.103697" y="117.083938" fill="rgb(102,102,102)"  stroke="rgb(102,102,102)" stroke-width="1" font-size="16" >H</text>
<text x="626.103697" y="124.763938" fill="rgb(102,102,102)"  stroke="rgb(102,102,102)" stroke-width="1" font-size="13" >3</text>
<text x="632.603697" y="117.083938" fill="rgb(102,102,102)"  stroke="rgb(102,102,102)" stroke-width="1" font-size="16" >C</text>
<text x="606.018242" y="151.603012" fill="rgb(102,102,102)"  stroke="rgb(102,102,102)" stroke-width="1" font-size="16" >H</text>
<text x="618.018242" y="156.403012" fill="rgb(102,102,102)"  stroke="rgb(102,102,102)" stroke-width="1" font-size="13" >3</text>
<text x="624.518242" y="151.603012" fill="rgb(102,102,102)"  stroke="rgb(102,102,102)" stroke-width="1" font-size="16" >C</text>
<text x="904.051592" y="526.304039" fill="rgb(12,12,255)"  stroke="rgb(12,12,255)" stroke-width="1" font-size="16" >NH</text>
<text x="928.051592" y="531.104039" fill="rgb(12,12,255)"  stroke="rgb(12,12,255)" stroke-width="1" font-size="13" >2</text>
<text x="558.503881" y="152.314852" fill="rgb(12,12,255)"  stroke="rgb(12,12,255)" stroke-width="1" font-size="16" >N</text>
<text x="638.969118" y="69.134622" fill="rgb(12,12,255)"  stroke="rgb(12,12,255)" stroke-width="1" font-size="16" >N</text>
<text x="914.588631" y="459.775791" fill="rgb(12,12,255)"  stroke="rgb(12,12,255)" stroke-width="1" font-size="16" >N</text>
<text x="864.641997" y="420.906323" fill="rgb(12,12,255)"  stroke="rgb(12,12,255)" stroke-width="1" font-size="16" >N</text>
<text x="821.482615" y="508.388142" fill="rgb(12,12,255)"  stroke="rgb(12,12,255)" stroke-width="1" font-size="16" >N</text>
<text x="798.932834" y="449.643953" fill="rgb(12,12,255)"  stroke="rgb(12,12,255)" stroke-width="1" font-size="16" >N</text>
<text x="498.847480" y="110.763866" fill="rgb(255,12,12)"  stroke="rgb(255,12,12)" stroke-width="1" font-size="16" >HO</text>
<text x="420.764915" y="160.478564" fill="rgb(255,12,12)"  stroke="rgb(255,12,12)" stroke-width="1" font-size="16" >O</text>
<text x="749.985692" y="446.999420" fill="rgb(255,12,12)"  stroke="rgb(255,12,12)" stroke-width="1" font-size="16" >OH</text>
<text x="715.525596" y="136.707354" fill="rgb(255,12,12)"  stroke="rgb(255,12,12)" stroke-width="1" font-size="16" >OH</text>
<text x="700.629937" y="48.320000" fill="rgb(255,12,12)"  stroke="rgb(255,12,12)" stroke-width="1" font-size="16" >OH</text>
<text x="630.103845" y="474.849462" fill="rgb(255,12,12)"  stroke="rgb(255,12,12)" stroke-width="1" font-size="16" >OH</text>
<text x="581.614956" y="439.480573" fill="rgb(255,12,12)"  stroke="rgb(255,12,12)" stroke-width="1" font-size="16" >HO</text>
<text x="630.103845" y="400.591684" fill="rgb(255,12,12)"  stroke="rgb(255,12,12)" stroke-width="1" font-size="16" >O</text>
<text x="586.721245" y="348.488589" fill="rgb(255,12,12)"  stroke="rgb(255,12,12)" stroke-width="1" font-size="16" >HO</text>
<text x="568.767627" y="305.884061" fill="rgb(255,12,12)"  stroke="rgb(255,12,12)" stroke-width="1" font-size="16" >O</text>
<text x="572.938536" y="229.805914" fill="rgb(255,12,12)"  stroke="rgb(255,12,12)" stroke-width="1" font-size="16" >HO</text>
<text x="628.663064" y="199.852295" fill="rgb(255,12,12)"  stroke="rgb(255,12,12)" stroke-width="1" font-size="16" >O</text>
<text x="642.445773" y="322.054970" fill="rgb(255,12,12)"  stroke="rgb(255,12,12)" stroke-width="1" font-size="16" >O</text>
<text x="658.616683" y="242.456823" fill="rgb(255,12,12)"  stroke="rgb(255,12,12)" stroke-width="1" font-size="16" >O</text>
<text x="730.541248" y="359.040501" fill="rgb(255,12,12)"  stroke="rgb(255,12,12)" stroke-width="1" font-size="16" >O</text>
<text x="668.992734" y="435.960573" fill="rgb(255,12,12)"  stroke="rgb(255,12,12)" stroke-width="1" font-size="16" >O</text>
<text x="612.492155" y="272.410442" fill="rgb(255,12,12)"  stroke="rgb(255,12,12)" stroke-width="1" font-size="16" >O</text>
<text x="630.103845" y="435.960573" fill="rgb(255,127,0)"  stroke="rgb(255,127,0)" stroke-width="1" font-size="16" >P</text>
<text x="604.406700" y="313.969515" fill="rgb(255,127,0)"  stroke="rgb(255,127,0)" stroke-width="1" font-size="16" >P</text>
<text x="620.577609" y="237.891369" fill="rgb(255,127,0)"  stroke="rgb(255,127,0)" stroke-width="1" font-size="16" >P</text>
<text x="468.421316" y="202.029550" fill="rgb(178,178,0)"  stroke="rgb(178,178,0)" stroke-width="1" font-size="16" >S</text>
<text x="682.884847" y="330.140425" fill="rgb(191,191,191)"  stroke="rgb(191,191,191)" stroke-width="1" font-size="16" >H</text>
<text x="714.346619" y="455.084875" fill="rgb(191,191,191)"  stroke="rgb(191,191,191)" stroke-width="1" font-size="16" >H</text>
<text x="651.948290" y="405.801807" fill="rgb(191,191,191)"  stroke="rgb(191,191,191)" stroke-width="1" font-size="16" >H</text>
<text x="723.611050" y="102.188280" fill="rgb(191,191,191)"  stroke="rgb(191,191,191)" stroke-width="1" font-size="16" >H</text>
<text x="774.735044" y="362.722346" fill="rgb(191,191,191)"  stroke="rgb(191,191,191)" stroke-width="1" font-size="16" >H</text>
<text font-size="18.000000" fill ="black" font-family="sans-serif"
x="140.000000" y="20.000000" ></text>
<title> - OBDepict</title>
</svg>
