<?xml version="1.0"?>
<svg xmlns="http://www.w3.org/2000/svg"
xmlns:xlink="http://www.w3.org/1999/xlink" xmlns:cml="http://www.xml-cml.org/schema" width="896.199" height="561.31" x="0" y="0" font-family="sans-serif" stroke="rgb(0,0,0)" stroke-width="1" >
<line x1="43.1" y1="265.8" x2="52.0" y2="293.1"/>
<line x1="580.9" y1="115.5" x2="602.3" y2="134.7"/>
<line x1="575.0" y1="143.6" x2="602.3" y2="134.7"/>
<line x1="52.0" y1="293.1" x2="90.0" y2="301.2"/>
<line x1="90.0" y1="301.2" x2="116.0" y2="272.3"/>
<line x1="116.0" y1="272.3" x2="154.1" y2="280.4"/>
<line x1="154.1" y1="280.4" x2="180.1" y2="251.5"/>
<line x1="180.1" y1="251.5" x2="218.1" y2="259.6"/>
<line x1="218.1" y1="259.6" x2="244.1" y2="230.7"/>
<line x1="244.1" y1="230.7" x2="282.1" y2="238.8"/>
<line x1="282.1" y1="238.8" x2="308.2" y2="209.9"/>
<line x1="514.3" y1="81.6" x2="552.3" y2="89.7"/>
<line x1="514.3" y1="81.6" x2="488.2" y2="110.5"/>
<line x1="552.3" y1="89.7" x2="571.5" y2="68.3"/>
<line x1="474.2" y1="176.4" x2="436.2" y2="168.3"/>
<line x1="474.2" y1="176.4" x2="493.5" y2="155.0"/>
<line x1="436.2" y1="168.3" x2="417.0" y2="189.7"/>
<line x1="346.2" y1="218.0" x2="308.2" y2="209.9"/>
<line x1="346.2" y1="218.0" x2="372.2" y2="189.1"/>
<line x1="596.2" y1="350.6" x2="634.2" y2="358.7"/>
<line x1="596.2" y1="350.6" x2="587.3" y2="323.2"/>
<line x1="626.3" y1="208.7" x2="602.3" y2="134.7"/>
<line x1="626.3" y1="208.7" x2="607.1" y2="230.1"/>
<line x1="305.3" y1="210.8" x2="296.4" y2="183.5"/>
<line x1="311.0" y1="209.0" x2="302.1" y2="181.6"/>
<line x1="626.1" y1="335.1" x2="626.9" y2="334.9"/>
<line x1="627.0" y1="339.0" x2="628.5" y2="338.5"/>
<line x1="627.8" y1="342.8" x2="630.1" y2="342.0"/>
<line x1="628.6" y1="346.6" x2="631.6" y2="345.6"/>
<line x1="629.4" y1="350.4" x2="633.2" y2="349.2"/>
<line x1="630.2" y1="354.2" x2="634.8" y2="352.8"/>
<line x1="631.1" y1="358.1" x2="636.4" y2="356.3"/>
<line x1="491.1" y1="109.6" x2="500.0" y2="136.9"/>
<line x1="485.4" y1="111.4" x2="494.3" y2="138.8"/>
<line x1="488.2" y1="110.5" x2="460.1" y2="104.5"/>
<line x1="369.3" y1="190.0" x2="360.4" y2="162.7"/>
<line x1="375.0" y1="188.2" x2="366.2" y2="160.8"/>
<line x1="372.2" y1="189.1" x2="400.3" y2="195.1"/>
<polygon points="657.602885 437.919456 669.455481 414.385190 661.847029 411.913054 " />
<line x1="665.7" y1="413.1" x2="684.9" y2="434.5"/>
<polygon points="604.093713 397.337951 630.138783 401.337951 630.138783 393.337951 " />
<line x1="630.1" y1="397.3" x2="615.8" y2="422.3"/>
<polygon points="653.098187 97.810725 627.091785 102.054868 629.563921 109.663320 " />
<line x1="628.3" y1="105.9" x2="616.3" y2="68.9"/>
<line x1="628.3" y1="105.9" x2="602.3" y2="134.7"/>
<line x1="628.3" y1="105.9" x2="649.7" y2="125.1"/>
<line x1="831.7" y1="485.0" x2="842.0" y2="511.9"/>
<line x1="615.7" y1="71.8" x2="587.6" y2="65.8"/>
<line x1="616.9" y1="66.0" x2="588.8" y2="60.0"/>
<line x1="616.3" y1="68.9" x2="635.6" y2="47.5"/>
<line x1="707.2" y1="364.8" x2="707.8" y2="365.3"/>
<line x1="704.4" y1="367.6" x2="705.6" y2="368.6"/>
<line x1="701.6" y1="370.3" x2="703.5" y2="371.8"/>
<line x1="698.8" y1="373.0" x2="701.3" y2="375.1"/>
<line x1="696.1" y1="375.8" x2="699.1" y2="378.3"/>
<line x1="693.3" y1="378.5" x2="697.0" y2="381.6"/>
<line x1="690.5" y1="381.3" x2="694.8" y2="384.8"/>
<line x1="691.7" y1="384.3" x2="727.9" y2="429.0"/>
<line x1="571.8" y1="459.8" x2="571.8" y2="441.1"/>
<line x1="543.1" y1="431.0" x2="561.7" y2="431.0"/>
<line x1="574.8" y1="402.2" x2="574.8" y2="420.9"/>
<line x1="568.8" y1="402.2" x2="568.8" y2="420.9"/>
<line x1="540.2" y1="333.7" x2="544.0" y2="315.4"/>
<line x1="518.6" y1="296.6" x2="536.9" y2="300.5"/>
<line x1="517.4" y1="302.5" x2="535.6" y2="306.4"/>
<line x1="534.2" y1="223.5" x2="552.4" y2="227.4"/>
<line x1="571.2" y1="202.0" x2="567.3" y2="220.2"/>
<line x1="565.4" y1="200.7" x2="561.5" y2="219.0"/>
<line x1="574.3" y1="311.5" x2="556.0" y2="307.6"/>
<line x1="590.4" y1="235.5" x2="572.2" y2="231.6"/>
<line x1="600.6" y1="431.0" x2="581.9" y2="431.0"/>
<line x1="552.1" y1="277.4" x2="548.2" y2="295.7"/>
<line x1="556.3" y1="257.6" x2="560.2" y2="239.4"/>
<line x1="730.5" y1="482.2" x2="738.0" y2="454.4"/>
<line x1="750.7" y1="444.2" x2="779.4" y2="442.6"/>
<line x1="779.4" y1="442.6" x2="793.3" y2="478.9"/>
<line x1="793.3" y1="478.9" x2="771.0" y2="497.0"/>
<line x1="754.7" y1="497.9" x2="730.5" y2="482.2"/>
<line x1="756.8" y1="490.7" x2="739.5" y2="479.5"/>
<line x1="634.2" y1="358.7" x2="630.1" y2="397.3"/>
<line x1="630.1" y1="397.3" x2="665.7" y2="413.1"/>
<line x1="665.7" y1="413.1" x2="691.7" y2="384.3"/>
<line x1="691.7" y1="384.3" x2="677.3" y2="359.3"/>
<line x1="662.3" y1="352.7" x2="634.2" y2="358.7"/>
<line x1="779.4" y1="442.6" x2="797.5" y2="420.3"/>
<line x1="788.8" y1="442.5" x2="801.8" y2="426.5"/>
<line x1="813.9" y1="414.0" x2="842.3" y2="418.5"/>
<line x1="842.3" y1="418.5" x2="852.6" y2="445.4"/>
<line x1="837.7" y1="426.7" x2="845.1" y2="446.0"/>
<line x1="849.8" y1="462.7" x2="831.7" y2="485.0"/>
<line x1="831.7" y1="485.0" x2="793.3" y2="478.9"/>
<line x1="826.9" y1="477.0" x2="800.4" y2="472.8"/>
<text x="16.400000" y="264.464659" fill="rgb(102,102,102)"  stroke="rgb(102,102,102)" stroke-width="1" font-size="16" >H</text>
<text x="28.400000" y="272.144659" fill="rgb(102,102,102)"  stroke="rgb(102,102,102)" stroke-width="1" font-size="13" >3</text>
<text x="34.900000" y="264.464659" fill="rgb(102,102,102)"  stroke="rgb(102,102,102)" stroke-width="1" font-size="16" >C</text>
<text x="549.828132" y="117.056267" fill="rgb(102,102,102)"  stroke="rgb(102,102,102)" stroke-width="1" font-size="16" >H</text>
<text x="561.828132" y="124.736267" fill="rgb(102,102,102)"  stroke="rgb(102,102,102)" stroke-width="1" font-size="13" >3</text>
<text x="568.328132" y="117.056267" fill="rgb(102,102,102)"  stroke="rgb(102,102,102)" stroke-width="1" font-size="16" >C</text>
<text x="541.745931" y="151.560033" fill="rgb(102,102,102)"  stroke="rgb(102,102,102)" stroke-width="1" font-size="16" >H</text>
<text x="553.745931" y="156.360033" fill="rgb(102,102,102)"  stroke="rgb(102,102,102)" stroke-width="1" font-size="13" >3</text>
<text x="560.245931" y="151.560033" fill="rgb(102,102,102)"  stroke="rgb(102,102,102)" stroke-width="1" font-size="16" >C</text>
<text x="839.666430" y="526.110275" fill="rgb(12,12,255)"  stroke="rgb(12,12,255)" stroke-width="1" font-size="16" >NH</text>
<text x="863.666430" y="530.910275" fill="rgb(12,12,255)"  stroke="rgb(12,12,255)" stroke-width="1" font-size="13" >2</text>
<text x="494.257773" y="152.271586" fill="rgb(12,12,255)"  stroke="rgb(12,12,255)" stroke-width="1" font-size="16" >N</text>
<text x="574.691596" y="69.126246" fill="rgb(12,12,255)"  stroke="rgb(12,12,255)" stroke-width="1" font-size="16" >N</text>
<text x="850.199229" y="459.608798" fill="rgb(12,12,255)"  stroke="rgb(12,12,255)" stroke-width="1" font-size="16" >N</text>
<text x="800.273661" y="420.756388" fill="rgb(12,12,255)"  stroke="rgb(12,12,255)" stroke-width="1" font-size="16" >N</text>
<text x="757.130681" y="508.201587" fill="rgb(12,12,255)"  stroke="rgb(12,12,255)" stroke-width="1" font-size="16" >N</text>
<text x="734.589973" y="449.481038" fill="rgb(12,12,255)"  stroke="rgb(12,12,255)" stroke-width="1" font-size="16" >N</text>
<text x="292.540161" y="181.239676" fill="rgb(255,12,12)"  stroke="rgb(255,12,12)" stroke-width="1" font-size="16" >O</text>
<text x="445.421515" y="96.018737" fill="rgb(255,12,12)"  stroke="rgb(255,12,12)" stroke-width="1" font-size="32" >-</text>
<text x="446.621515" y="110.738737" fill="rgb(255,12,12)"  stroke="rgb(255,12,12)" stroke-width="1" font-size="16" >O</text>
<text x="356.575201" y="160.433430" fill="rgb(255,12,12)"  stroke="rgb(255,12,12)" stroke-width="1" font-size="16" >O</text>
<text x="685.662529" y="446.837569" fill="rgb(255,12,12)"  stroke="rgb(255,12,12)" stroke-width="1" font-size="16" >OH</text>
<text x="651.216300" y="136.670369" fill="rgb(255,12,12)"  stroke="rgb(255,12,12)" stroke-width="1" font-size="16" >OH</text>
<text x="637.526636" y="33.600000" fill="rgb(255,12,12)"  stroke="rgb(255,12,12)" stroke-width="1" font-size="32" >-</text>
<text x="636.326636" y="48.320000" fill="rgb(255,12,12)"  stroke="rgb(255,12,12)" stroke-width="1" font-size="16" >O</text>
<text x="567.028924" y="489.076404" fill="rgb(255,12,12)"  stroke="rgb(255,12,12)" stroke-width="1" font-size="32" >-</text>
<text x="565.828924" y="474.676404" fill="rgb(255,12,12)"  stroke="rgb(255,12,12)" stroke-width="1" font-size="16" >O</text>
<text x="528.155685" y="450.203164" fill="rgb(255,12,12)"  stroke="rgb(255,12,12)" stroke-width="1" font-size="32" >-</text>
<text x="529.355685" y="435.803164" fill="rgb(255,12,12)"  stroke="rgb(255,12,12)" stroke-width="1" font-size="16" >O</text>
<text x="565.828924" y="400.449925" fill="rgb(255,12,12)"  stroke="rgb(255,12,12)" stroke-width="1" font-size="16" >O</text>
<text x="522.459919" y="348.366380" fill="rgb(255,12,12)"  stroke="rgb(255,12,12)" stroke-width="1" font-size="16" >HO</text>
<text x="504.518354" y="305.780413" fill="rgb(255,12,12)"  stroke="rgb(255,12,12)" stroke-width="1" font-size="16" >O</text>
<text x="508.682756" y="229.732881" fill="rgb(255,12,12)"  stroke="rgb(255,12,12)" stroke-width="1" font-size="16" >HO</text>
<text x="564.388723" y="199.791316" fill="rgb(255,12,12)"  stroke="rgb(255,12,12)" stroke-width="1" font-size="16" >O</text>
<text x="578.165886" y="321.944815" fill="rgb(255,12,12)"  stroke="rgb(255,12,12)" stroke-width="1" font-size="16" >O</text>
<text x="594.330288" y="242.377283" fill="rgb(255,12,12)"  stroke="rgb(255,12,12)" stroke-width="1" font-size="16" >O</text>
<text x="666.225909" y="358.915463" fill="rgb(255,12,12)"  stroke="rgb(255,12,12)" stroke-width="1" font-size="16" >O</text>
<text x="604.702164" y="435.803164" fill="rgb(255,12,12)"  stroke="rgb(255,12,12)" stroke-width="1" font-size="16" >O</text>
<text x="548.224321" y="275.838848" fill="rgb(255,12,12)"  stroke="rgb(255,12,12)" stroke-width="1" font-size="16" >O</text>
<text x="565.828924" y="439.323164" fill="rgb(255,127,0)"  stroke="rgb(255,127,0)" stroke-width="1" font-size="16" >P</text>
<text x="540.142120" y="310.342614" fill="rgb(255,127,0)"  stroke="rgb(255,127,0)" stroke-width="1" font-size="16" >P</text>
<text x="556.306522" y="237.815082" fill="rgb(255,127,0)"  stroke="rgb(255,127,0)" stroke-width="1" font-size="16" >P</text>
<text x="404.211458" y="201.966279" fill="rgb(178,178,0)"  stroke="rgb(178,178,0)" stroke-width="1" font-size="16" >S</text>
<text x="618.589652" y="330.027016" fill="rgb(191,191,191)"  stroke="rgb(191,191,191)" stroke-width="1" font-size="16" >H</text>
<text x="650.038763" y="454.919770" fill="rgb(191,191,191)"  stroke="rgb(191,191,191)" stroke-width="1" font-size="16" >H</text>
<text x="587.665544" y="402.137951" fill="rgb(191,191,191)"  stroke="rgb(191,191,191)" stroke-width="1" font-size="16" >H</text>
<text x="659.298501" y="102.166603" fill="rgb(191,191,191)"  stroke="rgb(191,191,191)" stroke-width="1" font-size="16" >H</text>
<text x="710.401921" y="362.595826" fill="rgb(191,191,191)"  stroke="rgb(191,191,191)" stroke-width="1" font-size="16" >H</text>
<text font-size="18.000000" fill ="black" font-family="sans-serif"
x="140.000000" y="20.000000" ></text>
<title> - OBDepict</title>
</svg>
