<?xml version="1.0"?>
<svg xmlns="http://www.w3.org/2000/svg"
xmlns:xlink="http://www.w3.org/1999/xlink" xmlns:cml="http://www.xml-cml.org/schema" width="398.672" height="532.036" x="0" y="0" font-family="sans-serif" stroke="rgb(0,0,0)" stroke-width="1" >
<line x1="231.9" y1="123.1" x2="230.2" y2="148.2"/>
<line x1="296.5" y1="221.1" x2="276.2" y2="206.4"/>
<polygon points="206.309016 158.766655 226.581573 169.872437 229.153089 162.296996 " />
<line x1="182.9" y1="211.5" x2="182.4" y2="212.1"/>
<line x1="178.0" y1="206.7" x2="177.0" y2="207.9"/>
<line x1="173.2" y1="201.9" x2="171.6" y2="203.7"/>
<line x1="168.4" y1="197.1" x2="166.2" y2="199.6"/>
<line x1="163.5" y1="192.4" x2="160.9" y2="195.4"/>
<line x1="158.7" y1="187.6" x2="155.5" y2="191.2"/>
<line x1="153.8" y1="182.8" x2="150.1" y2="187.0"/>
<line x1="178.4" y1="172.1" x2="177.8" y2="171.5"/>
<line x1="180.9" y1="169.8" x2="179.7" y2="168.7"/>
<line x1="183.5" y1="167.5" x2="181.7" y2="165.9"/>
<line x1="186.0" y1="165.2" x2="183.6" y2="163.1"/>
<line x1="188.5" y1="162.9" x2="185.5" y2="160.3"/>
<line x1="191.1" y1="160.6" x2="187.5" y2="157.5"/>
<line x1="193.6" y1="158.3" x2="189.4" y2="154.6"/>
<polygon points="243.884533 216.856716 241.111969 239.805090 249.100443 239.375803 " />
<line x1="159.2" y1="159.4" x2="158.7" y2="160.0"/>
<line x1="156.8" y1="157.0" x2="155.8" y2="158.2"/>
<line x1="154.4" y1="154.5" x2="152.9" y2="156.4"/>
<line x1="152.1" y1="152.1" x2="150.0" y2="154.5"/>
<line x1="149.7" y1="149.6" x2="147.2" y2="152.7"/>
<line x1="147.3" y1="147.2" x2="144.3" y2="150.9"/>
<line x1="144.9" y1="144.7" x2="141.4" y2="149.0"/>
<line x1="303.7" y1="152.4" x2="300.1" y2="118.6"/>
<line x1="303.7" y1="152.4" x2="276.2" y2="172.4"/>
<line x1="228.7" y1="194.4" x2="262.0" y2="201.0"/>
<line x1="228.7" y1="194.4" x2="206.3" y2="220.0"/>
<line x1="205.5" y1="199.6" x2="249.2" y2="328.3"/>
<line x1="205.5" y1="199.6" x2="172.1" y2="192.9"/>
<line x1="300.1" y1="118.6" x2="327.6" y2="98.6"/>
<line x1="262.0" y1="201.0" x2="283.9" y2="265.4"/>
<line x1="249.2" y1="328.3" x2="282.5" y2="334.9"/>
<line x1="291.5" y1="436.3" x2="259.3" y2="425.4"/>
<line x1="291.5" y1="436.3" x2="298.1" y2="469.6"/>
<line x1="259.3" y1="425.4" x2="206.3" y2="158.8"/>
<line x1="214.3" y1="295.8" x2="187.7" y2="162.5"/>
<line x1="214.3" y1="295.8" x2="163.2" y2="340.6"/>
<line x1="194.4" y1="182.9" x2="92.2" y2="93.3"/>
<line x1="194.4" y1="182.9" x2="187.7" y2="216.3"/>
<line x1="209.2" y1="181.0" x2="252.9" y2="309.7"/>
<line x1="209.2" y1="181.0" x2="175.8" y2="174.4"/>
<line x1="230.2" y1="148.2" x2="252.8" y2="137.1"/>
<polygon points="179.460685 214.491363 175.930344 191.647290 168.354903 194.218806 " />
<line x1="171.7" y1="177.1" x2="171.1" y2="176.5"/>
<line x1="174.5" y1="175.2" x2="173.4" y2="174.0"/>
<line x1="177.3" y1="173.2" x2="175.7" y2="171.4"/>
<line x1="180.1" y1="171.3" x2="178.0" y2="168.9"/>
<line x1="182.9" y1="169.3" x2="180.3" y2="166.3"/>
<line x1="185.7" y1="167.4" x2="182.6" y2="163.8"/>
<line x1="188.6" y1="165.5" x2="184.9" y2="161.3"/>
<line x1="328.9" y1="95.9" x2="351.8" y2="106.1"/>
<line x1="326.4" y1="101.4" x2="349.4" y2="111.6"/>
<line x1="327.6" y1="98.6" x2="325.0" y2="73.6"/>
<line x1="284.5" y1="262.5" x2="309.1" y2="267.4"/>
<line x1="283.3" y1="268.3" x2="308.0" y2="273.2"/>
<line x1="283.9" y1="265.4" x2="267.3" y2="284.3"/>
<line x1="285.3" y1="333.9" x2="293.4" y2="357.7"/>
<line x1="279.6" y1="335.9" x2="287.7" y2="359.7"/>
<line x1="282.5" y1="334.9" x2="299.1" y2="316.0"/>
<line x1="300.1" y1="471.9" x2="281.2" y2="488.5"/>
<line x1="296.2" y1="467.4" x2="277.3" y2="484.0"/>
<line x1="298.1" y1="469.6" x2="322.0" y2="477.7"/>
<line x1="166.1" y1="340.0" x2="171.0" y2="364.7"/>
<line x1="160.2" y1="341.2" x2="165.1" y2="365.8"/>
<line x1="163.2" y1="340.6" x2="139.3" y2="332.5"/>
<line x1="93.1" y1="96.2" x2="69.3" y2="104.3"/>
<line x1="91.2" y1="90.5" x2="67.4" y2="98.6"/>
<line x1="92.2" y1="93.3" x2="97.1" y2="68.7"/>
<line x1="253.4" y1="306.8" x2="278.1" y2="311.7"/>
<line x1="252.3" y1="312.6" x2="276.9" y2="317.5"/>
<line x1="252.9" y1="309.7" x2="236.3" y2="328.6"/>
<polygon points="160.888400 130.560703 172.148633 150.747880 178.355475 145.700593 " />
<line x1="276.2" y1="172.4" x2="276.2" y2="206.4"/>
<line x1="269.0" y1="178.4" x2="269.0" y2="200.4"/>
<line x1="276.2" y1="206.4" x2="243.9" y2="216.9"/>
<line x1="243.9" y1="216.9" x2="229.1" y2="196.5"/>
<line x1="229.1" y1="182.2" x2="243.9" y2="161.9"/>
<line x1="236.5" y1="184.3" x2="246.2" y2="171.0"/>
<line x1="243.9" y1="161.9" x2="276.2" y2="172.4"/>
<line x1="175.8" y1="174.4" x2="172.1" y2="192.9"/>
<line x1="172.1" y1="192.9" x2="154.2" y2="199.0"/>
<line x1="154.2" y1="199.0" x2="154.2" y2="184.7"/>
<line x1="156.1" y1="175.1" x2="161.6" y2="161.9"/>
<line x1="161.6" y1="161.9" x2="175.8" y2="174.4"/>
<line x1="212.4" y1="140.8" x2="206.3" y2="158.8"/>
<line x1="206.3" y1="158.8" x2="187.7" y2="162.5"/>
<line x1="187.7" y1="162.5" x2="175.3" y2="148.2"/>
<line x1="175.3" y1="148.2" x2="188.5" y2="142.8"/>
<line x1="198.1" y1="140.8" x2="212.4" y2="140.8"/>
<line x1="202.2" y1="148.0" x2="206.4" y2="148.0"/>
<line x1="206.3" y1="220.0" x2="212.4" y2="237.9"/>
<line x1="201.4" y1="228.0" x2="203.6" y2="234.5"/>
<line x1="212.4" y1="237.9" x2="198.1" y2="237.9"/>
<line x1="188.5" y1="236.0" x2="175.3" y2="230.5"/>
<line x1="187.4" y1="227.8" x2="183.6" y2="226.2"/>
<line x1="175.3" y1="230.5" x2="187.7" y2="216.3"/>
<line x1="187.7" y1="216.3" x2="206.3" y2="220.0"/>
<line x1="230.2" y1="230.5" x2="243.9" y2="216.9"/>
<line x1="243.9" y1="161.9" x2="230.2" y2="148.2"/>
<line x1="230.2" y1="148.2" x2="212.4" y2="140.8"/>
<line x1="175.3" y1="148.2" x2="161.6" y2="161.9"/>
<line x1="154.2" y1="199.0" x2="161.6" y2="216.9"/>
<line x1="163.2" y1="201.8" x2="166.0" y2="208.6"/>
<line x1="161.6" y1="216.9" x2="175.3" y2="230.5"/>
<line x1="212.4" y1="237.9" x2="230.2" y2="230.5"/>
<text x="226.455076" y="122.637092" fill="rgb(102,102,102)"  stroke="rgb(102,102,102)" stroke-width="1" font-size="16" >CH</text>
<text x="250.455076" y="130.317092" fill="rgb(102,102,102)"  stroke="rgb(102,102,102)" stroke-width="1" font-size="13" >3</text>
<text x="297.691652" y="231.129233" fill="rgb(102,102,102)"  stroke="rgb(102,102,102)" stroke-width="1" font-size="16" >CH</text>
<text x="321.691652" y="235.929233" fill="rgb(102,102,102)"  stroke="rgb(102,102,102)" stroke-width="1" font-size="13" >3</text>
<text x="232.485606" y="174.489135" fill="rgb(102,102,102)"  stroke="rgb(102,102,102)" stroke-width="1" font-size="16" >CH</text>
<text x="256.485606" y="179.289135" fill="rgb(102,102,102)"  stroke="rgb(102,102,102)" stroke-width="1" font-size="13" >3</text>
<text x="113.042321" y="179.782976" fill="rgb(102,102,102)"  stroke="rgb(102,102,102)" stroke-width="1" font-size="16" >H</text>
<text x="125.042321" y="187.462976" fill="rgb(102,102,102)"  stroke="rgb(102,102,102)" stroke-width="1" font-size="13" >3</text>
<text x="131.542321" y="179.782976" fill="rgb(102,102,102)"  stroke="rgb(102,102,102)" stroke-width="1" font-size="16" >C</text>
<text x="192.241291" y="157.133793" fill="rgb(102,102,102)"  stroke="rgb(102,102,102)" stroke-width="1" font-size="16" >CH</text>
<text x="216.241291" y="164.813793" fill="rgb(102,102,102)"  stroke="rgb(102,102,102)" stroke-width="1" font-size="13" >3</text>
<text x="239.707926" y="255.587657" fill="rgb(102,102,102)"  stroke="rgb(102,102,102)" stroke-width="1" font-size="16" >CH</text>
<text x="263.707926" y="260.387657" fill="rgb(102,102,102)"  stroke="rgb(102,102,102)" stroke-width="1" font-size="13" >3</text>
<text x="111.636722" y="148.757797" fill="rgb(102,102,102)"  stroke="rgb(102,102,102)" stroke-width="1" font-size="16" >H</text>
<text x="123.636722" y="156.437797" fill="rgb(102,102,102)"  stroke="rgb(102,102,102)" stroke-width="1" font-size="13" >3</text>
<text x="130.136722" y="148.757797" fill="rgb(102,102,102)"  stroke="rgb(102,102,102)" stroke-width="1" font-size="16" >C</text>
<text x="189.489054" y="242.696893" fill="rgb(12,12,255)"  stroke="rgb(12,12,255)" stroke-width="1" font-size="16" >N</text>
<text x="189.489054" y="149.155909" fill="rgb(12,12,255)"  stroke="rgb(12,12,255)" stroke-width="1" font-size="16" >N</text>
<text x="149.411878" y="173.313086" fill="rgb(12,12,255)"  stroke="rgb(12,12,255)" stroke-width="1" font-size="32" >-</text>
<text x="150.611878" y="188.033086" fill="rgb(12,12,255)"  stroke="rgb(12,12,255)" stroke-width="1" font-size="16" >N</text>
<text x="220.311650" y="197.686401" fill="rgb(12,12,255)"  stroke="rgb(12,12,255)" stroke-width="1" font-size="16" >N</text>
<text x="352.672283" y="117.257802" fill="rgb(255,12,12)"  stroke="rgb(255,12,12)" stroke-width="1" font-size="16" >O</text>
<text x="319.278235" y="58.443180" fill="rgb(255,12,12)"  stroke="rgb(255,12,12)" stroke-width="1" font-size="32" >-</text>
<text x="320.478235" y="73.163180" fill="rgb(255,12,12)"  stroke="rgb(255,12,12)" stroke-width="1" font-size="16" >O</text>
<text x="311.212449" y="276.830185" fill="rgb(255,12,12)"  stroke="rgb(255,12,12)" stroke-width="1" font-size="16" >O</text>
<text x="256.680961" y="310.148475" fill="rgb(255,12,12)"  stroke="rgb(255,12,12)" stroke-width="1" font-size="32" >-</text>
<text x="257.880961" y="295.748475" fill="rgb(255,12,12)"  stroke="rgb(255,12,12)" stroke-width="1" font-size="16" >O</text>
<text x="287.408993" y="371.874294" fill="rgb(255,12,12)"  stroke="rgb(255,12,12)" stroke-width="1" font-size="16" >O</text>
<text x="300.091017" y="302.950265" fill="rgb(255,12,12)"  stroke="rgb(255,12,12)" stroke-width="1" font-size="32" >-</text>
<text x="298.891017" y="317.670265" fill="rgb(255,12,12)"  stroke="rgb(255,12,12)" stroke-width="1" font-size="16" >O</text>
<text x="269.000509" y="496.836496" fill="rgb(255,12,12)"  stroke="rgb(255,12,12)" stroke-width="1" font-size="16" >O</text>
<text x="325.524539" y="499.754473" fill="rgb(255,12,12)"  stroke="rgb(255,12,12)" stroke-width="1" font-size="32" >-</text>
<text x="324.324539" y="485.354473" fill="rgb(255,12,12)"  stroke="rgb(255,12,12)" stroke-width="1" font-size="16" >O</text>
<text x="163.788067" y="378.704747" fill="rgb(255,12,12)"  stroke="rgb(255,12,12)" stroke-width="1" font-size="16" >O</text>
<text x="126.182328" y="323.255282" fill="rgb(255,12,12)"  stroke="rgb(255,12,12)" stroke-width="1" font-size="32" >-</text>
<text x="127.382328" y="337.975282" fill="rgb(255,12,12)"  stroke="rgb(255,12,12)" stroke-width="1" font-size="16" >O</text>
<text x="56.400000" y="109.049464" fill="rgb(255,12,12)"  stroke="rgb(255,12,12)" stroke-width="1" font-size="16" >O</text>
<text x="94.005739" y="53.600000" fill="rgb(255,12,12)"  stroke="rgb(255,12,12)" stroke-width="1" font-size="32" >-</text>
<text x="92.805739" y="68.320000" fill="rgb(255,12,12)"  stroke="rgb(255,12,12)" stroke-width="1" font-size="16" >O</text>
<text x="280.180677" y="321.125890" fill="rgb(255,12,12)"  stroke="rgb(255,12,12)" stroke-width="1" font-size="16" >O</text>
<text x="225.649189" y="354.444181" fill="rgb(255,12,12)"  stroke="rgb(255,12,12)" stroke-width="1" font-size="32" >-</text>
<text x="226.849189" y="340.044181" fill="rgb(255,12,12)"  stroke="rgb(255,12,12)" stroke-width="1" font-size="16" >O</text>
<text x="35.200000" y="59.200000" fill="rgb(239,142,160)"  stroke="rgb(239,142,160)" stroke-width="1" font-size="16" >2+</text>
<text x="34.000000" y="44.800000" fill="rgb(239,142,160)"  stroke="rgb(239,142,160)" stroke-width="1" font-size="16" >Co</text>
<text x="254.708329" y="141.515312" fill="rgb(191,191,191)"  stroke="rgb(191,191,191)" stroke-width="1" font-size="16" >H</text>
<text x="177.065103" y="229.909638" fill="rgb(191,191,191)"  stroke="rgb(191,191,191)" stroke-width="1" font-size="16" >H</text>
<text x="158.589761" y="189.665322" fill="rgb(191,191,191)"  stroke="rgb(191,191,191)" stroke-width="1" font-size="16" >H</text>
<text x="150.213765" y="130.180753" fill="rgb(191,191,191)"  stroke="rgb(191,191,191)" stroke-width="1" font-size="16" >H</text>
<text font-size="18.000000" fill ="black" font-family="sans-serif"
x="140.000000" y="20.000000" ></text>
<title> - OBDepict</title>
</svg>
