<?xml version="1.0"?>
<svg xmlns="http://www.w3.org/2000/svg"
xmlns:xlink="http://www.w3.org/1999/xlink" xmlns:cml="http://www.xml-cml.org/schema" width="218.564" height="220" x="0" y="0" font-family="sans-serif" stroke="rgb(0,0,0)" stroke-width="1" >
<line x1="109.3" y1="100.0" x2="143.9" y2="120.0"/>
<line x1="74.6" y1="120.0" x2="74.6" y2="160.0"/>
<line x1="146.9" y1="120.0" x2="146.9" y2="149.6"/>
<line x1="140.9" y1="120.0" x2="140.9" y2="149.6"/>
<line x1="143.9" y1="120.0" x2="169.6" y2="105.2"/>
<line x1="76.1" y1="162.6" x2="50.5" y2="177.4"/>
<line x1="73.1" y1="157.4" x2="47.5" y2="172.2"/>
<line x1="74.6" y1="160.0" x2="100.3" y2="174.8"/>
<line x1="74.6" y1="40.0" x2="109.3" y2="60.0"/>
<line x1="76.2" y1="49.2" x2="100.5" y2="63.2"/>
<line x1="109.3" y1="60.0" x2="109.3" y2="100.0"/>
<line x1="109.3" y1="100.0" x2="74.6" y2="120.0"/>
<line x1="100.5" y1="96.8" x2="76.2" y2="110.8"/>
<line x1="74.6" y1="120.0" x2="49.0" y2="105.2"/>
<line x1="40.0" y1="89.6" x2="40.0" y2="60.0"/>
<line x1="47.2" y1="87.6" x2="47.2" y2="66.0"/>
<line x1="40.0" y1="60.0" x2="74.6" y2="40.0"/>
<text x="36.400000" y="104.800000" fill="rgb(12,12,255)"  stroke="rgb(12,12,255)" stroke-width="1" font-size="16" >N</text>
<text x="137.923048" y="164.800000" fill="rgb(255,12,12)"  stroke="rgb(255,12,12)" stroke-width="1" font-size="16" >O</text>
<text x="173.764065" y="93.600000" fill="rgb(255,12,12)"  stroke="rgb(255,12,12)" stroke-width="1" font-size="32" >-</text>
<text x="172.564065" y="108.320000" fill="rgb(255,12,12)"  stroke="rgb(255,12,12)" stroke-width="1" font-size="16" >O</text>
<text x="36.400000" y="184.800000" fill="rgb(255,12,12)"  stroke="rgb(255,12,12)" stroke-width="1" font-size="16" >O</text>
<text x="104.482032" y="199.200000" fill="rgb(255,12,12)"  stroke="rgb(255,12,12)" stroke-width="1" font-size="32" >-</text>
<text x="103.282032" y="184.800000" fill="rgb(255,12,12)"  stroke="rgb(255,12,12)" stroke-width="1" font-size="16" >O</text>
<text font-size="18.000000" fill ="black" font-family="sans-serif"
x="140.000000" y="20.000000" ></text>
<title> - OBDepict</title>
</svg>
