<?xml version="1.0"?>
<svg xmlns="http://www.w3.org/2000/svg"
xmlns:xlink="http://www.w3.org/1999/xlink" xmlns:cml="http://www.xml-cml.org/schema" width="387.465" height="379.611" x="0" y="0" font-family="sans-serif" stroke="rgb(0,0,0)" stroke-width="1" >
<line x1="304.3" y1="90.2" x2="275.9" y2="90.2"/>
<line x1="222.7" y1="104.9" x2="223.2" y2="104.3"/>
<line x1="225.3" y1="107.8" x2="226.3" y2="106.6"/>
<line x1="227.8" y1="110.7" x2="229.4" y2="108.9"/>
<line x1="230.4" y1="113.5" x2="232.6" y2="111.2"/>
<line x1="233.0" y1="116.4" x2="235.7" y2="113.4"/>
<line x1="235.6" y1="119.3" x2="238.8" y2="115.7"/>
<line x1="238.2" y1="122.1" x2="241.9" y2="118.0"/>
<line x1="141.7" y1="181.8" x2="142.0" y2="181.1"/>
<line x1="148.9" y1="184.6" x2="149.4" y2="183.1"/>
<line x1="156.1" y1="187.4" x2="156.8" y2="185.1"/>
<line x1="163.3" y1="190.1" x2="164.2" y2="187.1"/>
<line x1="170.4" y1="192.9" x2="171.7" y2="189.1"/>
<line x1="177.6" y1="195.6" x2="179.1" y2="191.0"/>
<line x1="184.8" y1="198.4" x2="186.5" y2="193.0"/>
<line x1="275.9" y1="128.6" x2="309.1" y2="147.8"/>
<line x1="275.9" y1="128.6" x2="275.9" y2="90.2"/>
<line x1="309.1" y1="147.8" x2="309.1" y2="186.1"/>
<line x1="275.9" y1="243.7" x2="309.1" y2="262.9"/>
<line x1="275.9" y1="243.7" x2="275.9" y2="215.3"/>
<line x1="309.1" y1="262.9" x2="309.1" y2="291.3"/>
<polygon points="288.723324 67.961354 272.406161 88.223509 279.334365 92.223509 " />
<line x1="275.9" y1="90.2" x2="242.6" y2="71.0"/>
<line x1="53.6" y1="235.9" x2="53.4" y2="235.2"/>
<line x1="57.4" y1="235.5" x2="57.1" y2="234.0"/>
<line x1="61.3" y1="235.1" x2="60.8" y2="232.8"/>
<line x1="65.1" y1="234.7" x2="64.4" y2="231.6"/>
<line x1="68.9" y1="234.3" x2="68.1" y2="230.4"/>
<line x1="72.8" y1="233.9" x2="71.8" y2="229.2"/>
<line x1="76.6" y1="233.5" x2="75.4" y2="228.0"/>
<line x1="77.5" y1="230.4" x2="68.8" y2="257.4"/>
<polygon points="264.905321 58.186774 240.643166 67.575734 244.643166 74.503937 " />
<polygon points="158.036588 92.910531 184.020004 94.201597 183.183776 86.245422 " />
<polygon points="168.411018 178.569586 166.979005 152.593557 159.153824 154.256850 " />
<line x1="74.6" y1="160.0" x2="74.8" y2="159.3"/>
<line x1="78.1" y1="161.6" x2="78.6" y2="160.1"/>
<line x1="81.6" y1="163.2" x2="82.4" y2="160.9"/>
<line x1="85.2" y1="164.7" x2="86.2" y2="161.7"/>
<line x1="88.7" y1="166.3" x2="89.9" y2="162.5"/>
<line x1="92.2" y1="167.9" x2="93.7" y2="163.3"/>
<line x1="95.7" y1="169.4" x2="97.5" y2="164.1"/>
<line x1="310.6" y1="188.7" x2="286.0" y2="202.9"/>
<line x1="307.6" y1="183.5" x2="283.0" y2="197.7"/>
<line x1="309.1" y1="186.1" x2="333.7" y2="200.3"/>
<line x1="144.5" y1="67.9" x2="145.3" y2="67.8"/>
<line x1="145.7" y1="75.5" x2="147.3" y2="75.2"/>
<line x1="146.9" y1="83.1" x2="149.2" y2="82.6"/>
<line x1="148.1" y1="90.7" x2="151.2" y2="90.0"/>
<line x1="149.3" y1="98.3" x2="153.2" y2="97.5"/>
<line x1="150.5" y1="105.9" x2="155.2" y2="104.9"/>
<line x1="151.7" y1="113.5" x2="157.2" y2="112.3"/>
<line x1="73.4" y1="111.7" x2="74.0" y2="111.2"/>
<line x1="75.6" y1="114.9" x2="76.8" y2="113.8"/>
<line x1="77.9" y1="118.0" x2="79.7" y2="116.4"/>
<line x1="80.2" y1="121.1" x2="82.5" y2="118.9"/>
<line x1="82.4" y1="124.2" x2="85.4" y2="121.5"/>
<line x1="84.7" y1="127.3" x2="88.3" y2="124.1"/>
<line x1="87.0" y1="130.4" x2="91.1" y2="126.7"/>
<line x1="90.1" y1="129.7" x2="62.3" y2="135.6"/>
<line x1="125.8" y1="80.6" x2="126.6" y2="80.8"/>
<line x1="124.2" y1="84.1" x2="125.8" y2="84.6"/>
<line x1="122.7" y1="87.6" x2="125.0" y2="88.4"/>
<line x1="121.1" y1="91.1" x2="124.2" y2="92.1"/>
<line x1="119.5" y1="94.7" x2="123.3" y2="95.9"/>
<line x1="118.0" y1="98.2" x2="122.5" y2="99.7"/>
<line x1="116.4" y1="101.7" x2="121.7" y2="103.4"/>
<line x1="118.6" y1="104.0" x2="99.6" y2="82.9"/>
<line x1="280.7" y1="301.2" x2="299.1" y2="301.2"/>
<line x1="306.1" y1="329.6" x2="306.1" y2="311.2"/>
<line x1="312.1" y1="329.6" x2="312.1" y2="311.2"/>
<line x1="337.5" y1="304.2" x2="319.1" y2="304.2"/>
<line x1="337.5" y1="298.2" x2="319.1" y2="298.2"/>
<line x1="220.1" y1="40.0" x2="183.6" y2="51.9"/>
<line x1="183.6" y1="51.9" x2="183.6" y2="90.2"/>
<line x1="183.6" y1="90.2" x2="220.1" y2="102.1"/>
<line x1="220.1" y1="102.1" x2="242.6" y2="71.0"/>
<line x1="242.6" y1="71.0" x2="220.1" y2="40.0"/>
<line x1="163.1" y1="153.4" x2="199.6" y2="165.3"/>
<line x1="199.6" y1="165.3" x2="228.1" y2="139.6"/>
<line x1="228.1" y1="139.6" x2="220.1" y2="102.1"/>
<line x1="183.6" y1="90.2" x2="155.1" y2="115.9"/>
<line x1="155.1" y1="115.9" x2="163.1" y2="153.4"/>
<line x1="98.1" y1="167.2" x2="134.6" y2="179.1"/>
<line x1="134.6" y1="179.1" x2="163.1" y2="153.4"/>
<line x1="155.1" y1="115.9" x2="118.6" y2="104.0"/>
<line x1="118.6" y1="104.0" x2="90.1" y2="129.7"/>
<line x1="90.1" y1="129.7" x2="98.1" y2="167.2"/>
<line x1="114.0" y1="242.3" x2="142.5" y2="216.6"/>
<line x1="142.5" y1="216.6" x2="134.6" y2="179.1"/>
<line x1="98.1" y1="167.2" x2="69.6" y2="192.9"/>
<line x1="69.6" y1="192.9" x2="77.5" y2="230.4"/>
<line x1="77.5" y1="230.4" x2="114.0" y2="242.3"/>
<text x="308.237610" y="95.023509" fill="rgb(102,102,102)"  stroke="rgb(102,102,102)" stroke-width="1" font-size="16" >CH</text>
<text x="332.237610" y="99.823509" fill="rgb(102,102,102)"  stroke="rgb(102,102,102)" stroke-width="1" font-size="13" >3</text>
<text x="242.603900" y="132.552438" fill="rgb(102,102,102)"  stroke="rgb(102,102,102)" stroke-width="1" font-size="16" >CH</text>
<text x="266.603900" y="137.352438" fill="rgb(102,102,102)"  stroke="rgb(102,102,102)" stroke-width="1" font-size="13" >3</text>
<text x="201.532950" y="207.610294" fill="rgb(102,102,102)"  stroke="rgb(102,102,102)" stroke-width="1" font-size="16" >CH</text>
<text x="225.532950" y="212.410294" fill="rgb(102,102,102)"  stroke="rgb(102,102,102)" stroke-width="1" font-size="13" >3</text>
<text x="272.270263" y="213.645550" fill="rgb(12,12,255)"  stroke="rgb(12,12,255)" stroke-width="1" font-size="16" >N</text>
<text x="50.072766" y="271.733017" fill="rgb(255,12,12)"  stroke="rgb(255,12,12)" stroke-width="1" font-size="16" >HO</text>
<text x="336.324457" y="210.125550" fill="rgb(255,12,12)"  stroke="rgb(255,12,12)" stroke-width="1" font-size="16" >OH</text>
<text x="36.958455" y="142.489899" fill="rgb(255,12,12)"  stroke="rgb(255,12,12)" stroke-width="1" font-size="16" >HO</text>
<text x="77.327113" y="83.847618" fill="rgb(255,12,12)"  stroke="rgb(255,12,12)" stroke-width="1" font-size="16" >HO</text>
<text x="255.130013" y="306.043917" fill="rgb(255,12,12)"  stroke="rgb(255,12,12)" stroke-width="1" font-size="16" >HO</text>
<text x="303.097360" y="344.411264" fill="rgb(255,12,12)"  stroke="rgb(255,12,12)" stroke-width="1" font-size="16" >O</text>
<text x="341.464707" y="306.043917" fill="rgb(255,12,12)"  stroke="rgb(255,12,12)" stroke-width="1" font-size="16" >O</text>
<text x="303.097360" y="309.563917" fill="rgb(178,178,0)"  stroke="rgb(178,178,0)" stroke-width="1" font-size="16" >S</text>
<text x="289.053936" y="65.316412" fill="rgb(191,191,191)"  stroke="rgb(191,191,191)" stroke-width="1" font-size="16" >H</text>
<text x="36.400000" y="243.220522" fill="rgb(191,191,191)"  stroke="rgb(191,191,191)" stroke-width="1" font-size="16" >H</text>
<text x="269.870263" y="60.176162" fill="rgb(191,191,191)"  stroke="rgb(191,191,191)" stroke-width="1" font-size="16" >H</text>
<text x="141.844723" y="99.033989" fill="rgb(191,191,191)"  stroke="rgb(191,191,191)" stroke-width="1" font-size="16" >H</text>
<text x="165.043434" y="195.754132" fill="rgb(191,191,191)"  stroke="rgb(191,191,191)" stroke-width="1" font-size="16" >H</text>
<text x="57.974888" y="163.705645" fill="rgb(191,191,191)"  stroke="rgb(191,191,191)" stroke-width="1" font-size="16" >H</text>
<text x="135.535354" y="49.158419" fill="rgb(191,191,191)"  stroke="rgb(191,191,191)" stroke-width="1" font-size="16" >H</text>
<text x="60.814618" y="109.520384" fill="rgb(191,191,191)"  stroke="rgb(191,191,191)" stroke-width="1" font-size="16" >H</text>
<text x="124.456041" y="75.870598" fill="rgb(191,191,191)"  stroke="rgb(191,191,191)" stroke-width="1" font-size="16" >H</text>
<text font-size="18.000000" fill ="black" font-family="sans-serif"
x="140.000000" y="20.000000" ></text>
<title> - OBDepict</title>
</svg>
