<?xml version="1.0"?>
<svg xmlns="http://www.w3.org/2000/svg"
xmlns:xlink="http://www.w3.org/1999/xlink" xmlns:cml="http://www.xml-cml.org/schema" width="625.53" height="560.022" x="0" y="0" font-family="sans-serif" stroke="rgb(0,0,0)" stroke-width="1" >
<line x1="49.6" y1="226.4" x2="76.9" y2="217.5"/>
<line x1="116.9" y1="260.3" x2="88.9" y2="254.4"/>
<line x1="311.0" y1="115.3" x2="332.3" y2="134.5"/>
<line x1="305.0" y1="143.4" x2="332.3" y2="134.5"/>
<line x1="244.5" y1="81.5" x2="282.4" y2="89.6"/>
<line x1="244.5" y1="81.5" x2="218.6" y2="110.3"/>
<line x1="282.4" y1="89.6" x2="301.6" y2="68.2"/>
<line x1="204.6" y1="176.0" x2="166.7" y2="167.9"/>
<line x1="204.6" y1="176.0" x2="223.8" y2="154.7"/>
<line x1="166.7" y1="167.9" x2="147.5" y2="189.3"/>
<line x1="326.2" y1="349.8" x2="364.1" y2="357.8"/>
<line x1="326.2" y1="349.8" x2="317.3" y2="322.5"/>
<line x1="356.3" y1="208.2" x2="332.3" y2="134.5"/>
<line x1="356.3" y1="208.2" x2="337.1" y2="229.6"/>
<line x1="76.9" y1="217.5" x2="55.6" y2="198.3"/>
<line x1="76.9" y1="217.5" x2="88.9" y2="254.4"/>
<line x1="76.9" y1="217.5" x2="102.8" y2="188.7"/>
<line x1="91.1" y1="256.4" x2="71.9" y2="277.7"/>
<line x1="86.6" y1="252.4" x2="67.4" y2="273.7"/>
<line x1="356.1" y1="334.4" x2="356.8" y2="334.1"/>
<line x1="356.9" y1="338.2" x2="358.4" y2="337.7"/>
<line x1="357.7" y1="342.0" x2="360.0" y2="341.2"/>
<line x1="358.5" y1="345.8" x2="361.6" y2="344.8"/>
<line x1="359.3" y1="349.6" x2="363.2" y2="348.4"/>
<line x1="360.2" y1="353.4" x2="364.7" y2="351.9"/>
<line x1="361.0" y1="357.2" x2="366.3" y2="355.5"/>
<line x1="221.4" y1="109.4" x2="230.3" y2="136.7"/>
<line x1="215.7" y1="111.2" x2="224.6" y2="138.5"/>
<line x1="218.6" y1="110.3" x2="190.5" y2="104.3"/>
<polygon points="387.464949 436.854789 399.296010 413.386798 391.687558 410.914662 " />
<line x1="395.5" y1="412.2" x2="414.7" y2="433.5"/>
<polygon points="334.098945 396.381863 360.074329 400.381863 360.074329 392.381863 " />
<line x1="360.1" y1="396.4" x2="345.7" y2="421.2"/>
<polygon points="382.972303 97.656048 357.032176 101.878657 359.504312 109.487109 " />
<line x1="358.3" y1="105.7" x2="346.3" y2="68.8"/>
<line x1="358.3" y1="105.7" x2="332.3" y2="134.5"/>
<line x1="358.3" y1="105.7" x2="379.6" y2="124.9"/>
<line x1="561.1" y1="483.8" x2="571.4" y2="510.6"/>
<line x1="345.7" y1="71.7" x2="317.6" y2="65.8"/>
<line x1="346.9" y1="65.9" x2="318.8" y2="59.9"/>
<line x1="346.3" y1="68.8" x2="365.5" y2="47.5"/>
<line x1="436.9" y1="363.9" x2="437.5" y2="364.5"/>
<line x1="434.1" y1="366.7" x2="435.4" y2="367.7"/>
<line x1="431.4" y1="369.4" x2="433.2" y2="370.9"/>
<line x1="428.6" y1="372.2" x2="431.1" y2="374.2"/>
<line x1="425.8" y1="374.9" x2="428.9" y2="377.4"/>
<line x1="423.0" y1="377.6" x2="426.7" y2="380.7"/>
<line x1="420.3" y1="380.4" x2="424.6" y2="383.9"/>
<line x1="421.4" y1="383.3" x2="457.5" y2="427.9"/>
<line x1="100.0" y1="189.6" x2="91.1" y2="162.3"/>
<line x1="105.7" y1="187.8" x2="96.8" y2="160.5"/>
<line x1="102.8" y1="188.7" x2="130.9" y2="194.7"/>
<line x1="301.9" y1="458.6" x2="301.9" y2="440.0"/>
<line x1="273.2" y1="430.0" x2="291.8" y2="430.0"/>
<line x1="304.9" y1="401.3" x2="304.9" y2="419.9"/>
<line x1="298.9" y1="401.3" x2="298.9" y2="419.9"/>
<line x1="270.3" y1="332.9" x2="274.2" y2="314.7"/>
<line x1="248.9" y1="295.9" x2="267.1" y2="299.8"/>
<line x1="247.6" y1="301.8" x2="265.8" y2="305.7"/>
<line x1="264.4" y1="223.0" x2="282.6" y2="226.9"/>
<line x1="301.3" y1="201.5" x2="297.5" y2="219.8"/>
<line x1="295.5" y1="200.3" x2="291.6" y2="218.5"/>
<line x1="304.4" y1="310.8" x2="286.2" y2="306.9"/>
<line x1="320.5" y1="235.0" x2="302.3" y2="231.1"/>
<line x1="330.6" y1="430.0" x2="312.0" y2="430.0"/>
<line x1="282.3" y1="276.8" x2="278.4" y2="295.0"/>
<line x1="286.5" y1="257.1" x2="290.3" y2="238.8"/>
<line x1="460.2" y1="481.0" x2="467.6" y2="453.3"/>
<line x1="480.3" y1="443.1" x2="508.9" y2="441.6"/>
<line x1="508.9" y1="441.6" x2="522.8" y2="477.8"/>
<line x1="522.8" y1="477.8" x2="500.5" y2="495.8"/>
<line x1="484.3" y1="496.7" x2="460.2" y2="481.0"/>
<line x1="486.4" y1="489.5" x2="469.1" y2="478.3"/>
<line x1="364.1" y1="357.8" x2="360.1" y2="396.4"/>
<line x1="360.1" y1="396.4" x2="395.5" y2="412.2"/>
<line x1="395.5" y1="412.2" x2="421.4" y2="383.3"/>
<line x1="421.4" y1="383.3" x2="407.1" y2="358.5"/>
<line x1="392.2" y1="351.9" x2="364.1" y2="357.8"/>
<line x1="508.9" y1="441.6" x2="527.0" y2="419.3"/>
<line x1="518.3" y1="441.4" x2="531.3" y2="425.5"/>
<line x1="543.3" y1="413.0" x2="571.6" y2="417.5"/>
<line x1="571.6" y1="417.5" x2="581.9" y2="444.3"/>
<line x1="567.1" y1="425.7" x2="574.4" y2="444.9"/>
<line x1="579.2" y1="461.5" x2="561.1" y2="483.8"/>
<line x1="561.1" y1="483.8" x2="522.8" y2="477.8"/>
<line x1="556.3" y1="475.8" x2="529.9" y2="471.6"/>
<text x="16.400000" y="234.276695" fill="rgb(102,102,102)"  stroke="rgb(102,102,102)" stroke-width="1" font-size="16" >H</text>
<text x="28.400000" y="239.076695" fill="rgb(102,102,102)"  stroke="rgb(102,102,102)" stroke-width="1" font-size="13" >3</text>
<text x="34.900000" y="234.276695" fill="rgb(102,102,102)"  stroke="rgb(102,102,102)" stroke-width="1" font-size="16" >C</text>
<text x="120.774111" y="267.228650" fill="rgb(102,102,102)"  stroke="rgb(102,102,102)" stroke-width="1" font-size="16" >CH</text>
<text x="144.774111" y="272.028650" fill="rgb(102,102,102)"  stroke="rgb(102,102,102)" stroke-width="1" font-size="13" >3</text>
<text x="279.915412" y="116.872357" fill="rgb(102,102,102)"  stroke="rgb(102,102,102)" stroke-width="1" font-size="16" >H</text>
<text x="291.915412" y="124.552357" fill="rgb(102,102,102)"  stroke="rgb(102,102,102)" stroke-width="1" font-size="13" >3</text>
<text x="298.415412" y="116.872357" fill="rgb(102,102,102)"  stroke="rgb(102,102,102)" stroke-width="1" font-size="16" >C</text>
<text x="271.854836" y="151.274387" fill="rgb(102,102,102)"  stroke="rgb(102,102,102)" stroke-width="1" font-size="16" >H</text>
<text x="283.854836" y="156.074387" fill="rgb(102,102,102)"  stroke="rgb(102,102,102)" stroke-width="1" font-size="13" >3</text>
<text x="290.354836" y="151.274387" fill="rgb(102,102,102)"  stroke="rgb(102,102,102)" stroke-width="1" font-size="16" >C</text>
<text x="569.025313" y="524.822488" fill="rgb(12,12,255)"  stroke="rgb(12,12,255)" stroke-width="1" font-size="16" >NH</text>
<text x="593.025313" y="529.622488" fill="rgb(12,12,255)"  stroke="rgb(12,12,255)" stroke-width="1" font-size="13" >2</text>
<text x="224.540826" y="151.984037" fill="rgb(12,12,255)"  stroke="rgb(12,12,255)" stroke-width="1" font-size="16" >N</text>
<text x="304.765863" y="69.070577" fill="rgb(12,12,255)"  stroke="rgb(12,12,255)" stroke-width="1" font-size="16" >N</text>
<text x="579.529931" y="458.498942" fill="rgb(12,12,255)"  stroke="rgb(12,12,255)" stroke-width="1" font-size="16" >N</text>
<text x="529.744364" y="419.759903" fill="rgb(12,12,255)"  stroke="rgb(12,12,255)" stroke-width="1" font-size="16" >N</text>
<text x="486.710395" y="506.961717" fill="rgb(12,12,255)"  stroke="rgb(12,12,255)" stroke-width="1" font-size="16" >N</text>
<text x="464.229998" y="448.398279" fill="rgb(12,12,255)"  stroke="rgb(12,12,255)" stroke-width="1" font-size="16" >N</text>
<text x="59.310402" y="287.979226" fill="rgb(255,12,12)"  stroke="rgb(255,12,12)" stroke-width="1" font-size="16" >O</text>
<text x="165.038445" y="110.571731" fill="rgb(255,12,12)"  stroke="rgb(255,12,12)" stroke-width="1" font-size="16" >HO</text>
<text x="415.433463" y="445.761883" fill="rgb(255,12,12)"  stroke="rgb(255,12,12)" stroke-width="1" font-size="16" >OH</text>
<text x="381.079397" y="136.424562" fill="rgb(255,12,12)"  stroke="rgb(255,12,12)" stroke-width="1" font-size="16" >OH</text>
<text x="366.229572" y="48.320000" fill="rgb(255,12,12)"  stroke="rgb(255,12,12)" stroke-width="1" font-size="16" >OH</text>
<text x="87.233057" y="160.133461" fill="rgb(255,12,12)"  stroke="rgb(255,12,12)" stroke-width="1" font-size="16" >O</text>
<text x="295.920483" y="473.526233" fill="rgb(255,12,12)"  stroke="rgb(255,12,12)" stroke-width="1" font-size="16" >OH</text>
<text x="247.551252" y="434.757002" fill="rgb(255,12,12)"  stroke="rgb(255,12,12)" stroke-width="1" font-size="16" >HO</text>
<text x="295.920483" y="399.507771" fill="rgb(255,12,12)"  stroke="rgb(255,12,12)" stroke-width="1" font-size="16" >O</text>
<text x="252.641830" y="347.554162" fill="rgb(255,12,12)"  stroke="rgb(255,12,12)" stroke-width="1" font-size="16" >HO</text>
<text x="234.780376" y="305.091556" fill="rgb(255,12,12)"  stroke="rgb(255,12,12)" stroke-width="1" font-size="16" >O</text>
<text x="238.901529" y="229.247496" fill="rgb(255,12,12)"  stroke="rgb(255,12,12)" stroke-width="1" font-size="16" >HO</text>
<text x="294.484135" y="199.386042" fill="rgb(255,12,12)"  stroke="rgb(255,12,12)" stroke-width="1" font-size="16" >O</text>
<text x="308.224436" y="321.212708" fill="rgb(255,12,12)"  stroke="rgb(255,12,12)" stroke-width="1" font-size="16" >O</text>
<text x="324.345589" y="241.848648" fill="rgb(255,12,12)"  stroke="rgb(255,12,12)" stroke-width="1" font-size="16" >O</text>
<text x="396.048847" y="358.084438" fill="rgb(255,12,12)"  stroke="rgb(255,12,12)" stroke-width="1" font-size="16" >O</text>
<text x="334.689714" y="434.757002" fill="rgb(255,12,12)"  stroke="rgb(255,12,12)" stroke-width="1" font-size="16" >O</text>
<text x="278.362982" y="275.230102" fill="rgb(255,12,12)"  stroke="rgb(255,12,12)" stroke-width="1" font-size="16" >O</text>
<text x="295.920483" y="438.277002" fill="rgb(255,127,0)"  stroke="rgb(255,127,0)" stroke-width="1" font-size="16" >P</text>
<text x="270.302406" y="309.632132" fill="rgb(255,127,0)"  stroke="rgb(255,127,0)" stroke-width="1" font-size="16" >P</text>
<text x="286.423559" y="233.788072" fill="rgb(255,127,0)"  stroke="rgb(255,127,0)" stroke-width="1" font-size="16" >P</text>
<text x="134.735439" y="201.545767" fill="rgb(178,178,0)"  stroke="rgb(178,178,0)" stroke-width="1" font-size="16" >S</text>
<text x="44.460576" y="199.874665" fill="rgb(191,191,191)"  stroke="rgb(191,191,191)" stroke-width="1" font-size="16" >H</text>
<text x="348.546466" y="329.273285" fill="rgb(191,191,191)"  stroke="rgb(191,191,191)" stroke-width="1" font-size="16" >H</text>
<text x="379.911433" y="453.822460" fill="rgb(191,191,191)"  stroke="rgb(191,191,191)" stroke-width="1" font-size="16" >H</text>
<text x="317.705099" y="401.181863" fill="rgb(191,191,191)"  stroke="rgb(191,191,191)" stroke-width="1" font-size="16" >H</text>
<text x="389.139974" y="102.022532" fill="rgb(191,191,191)"  stroke="rgb(191,191,191)" stroke-width="1" font-size="16" >H</text>
<text x="440.106663" y="361.754954" fill="rgb(191,191,191)"  stroke="rgb(191,191,191)" stroke-width="1" font-size="16" >H</text>
<text font-size="18.000000" fill ="black" font-family="sans-serif"
x="140.000000" y="20.000000" ></text>
<title> - OBDepict</title>
</svg>
