<?xml version="1.0"?>
<svg xmlns="http://www.w3.org/2000/svg"
xmlns:xlink="http://www.w3.org/1999/xlink" xmlns:cml="http://www.xml-cml.org/schema" width="611.372" height="526.699" x="0" y="0" font-family="sans-serif" stroke="rgb(0,0,0)" stroke-width="1" >
<line x1="220.0" y1="197.7" x2="198.3" y2="178.2"/>
<line x1="192.2" y1="206.7" x2="198.3" y2="178.2"/>
<line x1="505.3" y1="247.4" x2="506.1" y2="247.6"/>
<line x1="504.1" y1="251.2" x2="505.6" y2="251.5"/>
<line x1="502.9" y1="255.0" x2="505.2" y2="255.5"/>
<line x1="501.7" y1="258.7" x2="504.8" y2="259.4"/>
<line x1="500.4" y1="262.5" x2="504.4" y2="263.3"/>
<line x1="499.2" y1="266.3" x2="503.9" y2="267.3"/>
<line x1="498.0" y1="270.0" x2="503.5" y2="271.2"/>
<line x1="303.7" y1="61.1" x2="277.4" y2="90.3"/>
<line x1="303.7" y1="61.1" x2="342.2" y2="69.3"/>
<line x1="277.4" y1="90.3" x2="248.9" y2="84.3"/>
<line x1="392.9" y1="114.9" x2="405.1" y2="152.4"/>
<line x1="392.9" y1="114.9" x2="364.4" y2="108.9"/>
<line x1="405.1" y1="152.4" x2="433.6" y2="158.4"/>
<line x1="494.3" y1="206.2" x2="455.8" y2="198.0"/>
<line x1="494.3" y1="206.2" x2="506.5" y2="243.7"/>
<line x1="129.2" y1="313.7" x2="167.7" y2="321.9"/>
<line x1="129.2" y1="313.7" x2="120.2" y2="286.0"/>
<line x1="159.8" y1="170.0" x2="198.3" y2="178.2"/>
<line x1="159.8" y1="170.0" x2="140.3" y2="191.6"/>
<line x1="159.6" y1="298.1" x2="160.3" y2="297.8"/>
<line x1="160.4" y1="301.9" x2="161.9" y2="301.5"/>
<line x1="161.2" y1="305.8" x2="163.5" y2="305.1"/>
<line x1="162.1" y1="309.7" x2="165.1" y2="308.7"/>
<line x1="162.9" y1="313.6" x2="166.7" y2="312.3"/>
<line x1="163.8" y1="317.4" x2="168.3" y2="315.9"/>
<line x1="164.6" y1="321.3" x2="169.9" y2="319.6"/>
<line x1="345.1" y1="68.3" x2="354.1" y2="96.1"/>
<line x1="339.4" y1="70.2" x2="348.4" y2="97.9"/>
<line x1="342.2" y1="69.3" x2="361.7" y2="47.6"/>
<line x1="458.0" y1="200.0" x2="438.5" y2="221.7"/>
<line x1="453.6" y1="196.0" x2="434.1" y2="217.7"/>
<line x1="455.8" y1="198.0" x2="446.8" y2="170.3"/>
<polygon points="191.450994 402.211461 203.409466 378.351343 195.801014 375.879207 " />
<line x1="199.6" y1="377.1" x2="219.1" y2="398.8"/>
<polygon points="137.237911 361.096108 163.625603 365.096108 163.625603 357.096108 " />
<line x1="163.6" y1="361.1" x2="149.1" y2="386.3"/>
<polygon points="249.752035 140.731125 223.419780 145.081144 225.891916 152.689597 " />
<line x1="224.7" y1="148.9" x2="212.5" y2="111.4"/>
<line x1="224.7" y1="148.9" x2="198.3" y2="178.2"/>
<line x1="224.7" y1="148.9" x2="246.3" y2="168.4"/>
<line x1="367.9" y1="449.9" x2="378.3" y2="477.1"/>
<line x1="210.3" y1="109.4" x2="229.8" y2="87.8"/>
<line x1="214.7" y1="113.4" x2="234.2" y2="91.8"/>
<line x1="212.5" y1="111.4" x2="184.0" y2="105.4"/>
<line x1="241.7" y1="328.1" x2="242.3" y2="328.7"/>
<line x1="238.9" y1="330.9" x2="240.1" y2="332.0"/>
<line x1="236.1" y1="333.7" x2="237.9" y2="335.2"/>
<line x1="233.2" y1="336.5" x2="235.7" y2="338.5"/>
<line x1="230.4" y1="339.3" x2="233.5" y2="341.8"/>
<line x1="227.6" y1="342.1" x2="231.3" y2="345.1"/>
<line x1="224.8" y1="344.8" x2="229.1" y2="348.4"/>
<line x1="226.0" y1="347.8" x2="262.6" y2="393.1"/>
<line x1="545.0" y1="251.9" x2="506.5" y2="243.7"/>
<line x1="547.9" y1="250.9" x2="556.9" y2="278.6"/>
<line x1="542.2" y1="252.8" x2="551.2" y2="280.5"/>
<line x1="545.0" y1="251.9" x2="564.5" y2="230.2"/>
<line x1="506.5" y1="243.7" x2="478.8" y2="252.7"/>
<line x1="104.5" y1="424.3" x2="104.5" y2="405.4"/>
<line x1="75.4" y1="395.2" x2="94.3" y2="395.2"/>
<line x1="107.5" y1="366.1" x2="107.5" y2="385.0"/>
<line x1="101.5" y1="366.1" x2="101.5" y2="385.0"/>
<line x1="72.5" y1="296.6" x2="76.4" y2="278.1"/>
<line x1="50.6" y1="259.1" x2="69.1" y2="263.0"/>
<line x1="49.4" y1="265.0" x2="67.9" y2="268.9"/>
<line x1="66.4" y1="185.0" x2="84.9" y2="188.9"/>
<line x1="103.9" y1="163.2" x2="100.0" y2="181.7"/>
<line x1="98.0" y1="161.9" x2="94.1" y2="180.4"/>
<line x1="107.0" y1="274.2" x2="88.5" y2="270.2"/>
<line x1="123.4" y1="197.1" x2="104.9" y2="193.2"/>
<line x1="133.7" y1="395.2" x2="114.8" y2="395.2"/>
<line x1="84.6" y1="239.6" x2="80.7" y2="258.1"/>
<line x1="88.8" y1="219.6" x2="92.8" y2="201.1"/>
<line x1="265.3" y1="447.1" x2="272.9" y2="419.0"/>
<line x1="285.8" y1="408.5" x2="314.9" y2="407.0"/>
<line x1="314.9" y1="407.0" x2="329.0" y2="443.8"/>
<line x1="329.0" y1="443.8" x2="306.3" y2="462.1"/>
<line x1="289.8" y1="463.0" x2="265.3" y2="447.1"/>
<line x1="292.0" y1="455.8" x2="274.3" y2="444.3"/>
<line x1="167.7" y1="321.9" x2="163.6" y2="361.1"/>
<line x1="163.6" y1="361.1" x2="199.6" y2="377.1"/>
<line x1="199.6" y1="377.1" x2="226.0" y2="347.8"/>
<line x1="226.0" y1="347.8" x2="211.4" y2="322.6"/>
<line x1="196.3" y1="315.9" x2="167.7" y2="321.9"/>
<line x1="314.9" y1="407.0" x2="333.2" y2="384.4"/>
<line x1="324.2" y1="406.9" x2="337.5" y2="390.5"/>
<line x1="349.8" y1="378.0" x2="378.5" y2="382.6"/>
<line x1="378.5" y1="382.6" x2="389.0" y2="409.8"/>
<line x1="374.0" y1="390.7" x2="381.5" y2="410.4"/>
<line x1="386.2" y1="427.3" x2="367.9" y2="449.9"/>
<line x1="367.9" y1="449.9" x2="329.0" y2="443.8"/>
<line x1="363.1" y1="441.9" x2="336.0" y2="437.6"/>
<text x="221.570870" y="209.307295" fill="rgb(102,102,102)"  stroke="rgb(102,102,102)" stroke-width="1" font-size="16" >CH</text>
<text x="245.570870" y="214.107295" fill="rgb(102,102,102)"  stroke="rgb(102,102,102)" stroke-width="1" font-size="13" >3</text>
<text x="166.513875" y="221.477811" fill="rgb(102,102,102)"  stroke="rgb(102,102,102)" stroke-width="1" font-size="16" >H</text>
<text x="178.513875" y="226.277811" fill="rgb(102,102,102)"  stroke="rgb(102,102,102)" stroke-width="1" font-size="13" >3</text>
<text x="185.013875" y="221.477811" fill="rgb(102,102,102)"  stroke="rgb(102,102,102)" stroke-width="1" font-size="16" >C</text>
<text x="474.705611" y="286.985987" fill="rgb(102,102,102)"  stroke="rgb(102,102,102)" stroke-width="1" font-size="16" >H</text>
<text x="486.705611" y="291.785987" fill="rgb(102,102,102)"  stroke="rgb(102,102,102)" stroke-width="1" font-size="13" >3</text>
<text x="493.205611" y="286.985987" fill="rgb(102,102,102)"  stroke="rgb(102,102,102)" stroke-width="1" font-size="16" >C</text>
<text x="375.988508" y="491.499283" fill="rgb(12,12,255)"  stroke="rgb(12,12,255)" stroke-width="1" font-size="16" >NH</text>
<text x="399.988508" y="496.299283" fill="rgb(12,12,255)"  stroke="rgb(12,12,255)" stroke-width="1" font-size="13" >2</text>
<text x="350.810685" y="111.525468" fill="rgb(12,12,255)"  stroke="rgb(12,12,255)" stroke-width="1" font-size="16" >N</text>
<text x="235.238784" y="90.479902" fill="rgb(12,12,255)"  stroke="rgb(12,12,255)" stroke-width="1" font-size="16" >N</text>
<text x="386.659865" y="424.122982" fill="rgb(12,12,255)"  stroke="rgb(12,12,255)" stroke-width="1" font-size="16" >N</text>
<text x="336.045956" y="384.713165" fill="rgb(12,12,255)"  stroke="rgb(12,12,255)" stroke-width="1" font-size="16" >N</text>
<text x="292.367004" y="473.355007" fill="rgb(12,12,255)"  stroke="rgb(12,12,255)" stroke-width="1" font-size="16" >N</text>
<text x="269.529774" y="413.861991" fill="rgb(12,12,255)"  stroke="rgb(12,12,255)" stroke-width="1" font-size="16" >N</text>
<text x="363.793622" y="33.600000" fill="rgb(255,12,12)"  stroke="rgb(255,12,12)" stroke-width="1" font-size="32" >-</text>
<text x="362.593622" y="48.320000" fill="rgb(255,12,12)"  stroke="rgb(255,12,12)" stroke-width="1" font-size="16" >O</text>
<text x="425.846199" y="232.084976" fill="rgb(255,12,12)"  stroke="rgb(255,12,12)" stroke-width="1" font-size="16" >O</text>
<text x="219.958691" y="411.183748" fill="rgb(255,12,12)"  stroke="rgb(255,12,12)" stroke-width="1" font-size="16" >OH</text>
<text x="247.924321" y="180.038822" fill="rgb(255,12,12)"  stroke="rgb(255,12,12)" stroke-width="1" font-size="16" >OH</text>
<text x="169.161366" y="96.839853" fill="rgb(255,12,12)"  stroke="rgb(255,12,12)" stroke-width="1" font-size="32" >-</text>
<text x="170.361366" y="111.559853" fill="rgb(255,12,12)"  stroke="rgb(255,12,12)" stroke-width="1" font-size="16" >O</text>
<text x="551.188616" y="294.107537" fill="rgb(255,12,12)"  stroke="rgb(255,12,12)" stroke-width="1" font-size="16" >O</text>
<text x="566.571552" y="216.182068" fill="rgb(255,12,12)"  stroke="rgb(255,12,12)" stroke-width="1" font-size="32" >-</text>
<text x="565.371552" y="230.902068" fill="rgb(255,12,12)"  stroke="rgb(255,12,12)" stroke-width="1" font-size="16" >O</text>
<text x="453.437138" y="260.632535" fill="rgb(255,12,12)"  stroke="rgb(255,12,12)" stroke-width="1" font-size="16" >HO</text>
<text x="99.748680" y="453.788801" fill="rgb(255,12,12)"  stroke="rgb(255,12,12)" stroke-width="1" font-size="32" >-</text>
<text x="98.548680" y="439.388801" fill="rgb(255,12,12)"  stroke="rgb(255,12,12)" stroke-width="1" font-size="16" >O</text>
<text x="60.364065" y="388.804186" fill="rgb(255,12,12)"  stroke="rgb(255,12,12)" stroke-width="1" font-size="32" >-</text>
<text x="61.564065" y="403.524186" fill="rgb(255,12,12)"  stroke="rgb(255,12,12)" stroke-width="1" font-size="16" >O</text>
<text x="98.548680" y="364.139570" fill="rgb(255,12,12)"  stroke="rgb(255,12,12)" stroke-width="1" font-size="16" >O</text>
<text x="54.735445" y="311.417174" fill="rgb(255,12,12)"  stroke="rgb(255,12,12)" stroke-width="1" font-size="16" >HO</text>
<text x="36.400000" y="268.224685" fill="rgb(255,12,12)"  stroke="rgb(255,12,12)" stroke-width="1" font-size="16" >O</text>
<text x="40.777044" y="191.176751" fill="rgb(255,12,12)"  stroke="rgb(255,12,12)" stroke-width="1" font-size="16" >HO</text>
<text x="97.089533" y="160.841306" fill="rgb(255,12,12)"  stroke="rgb(255,12,12)" stroke-width="1" font-size="16" >O</text>
<text x="111.047934" y="284.601729" fill="rgb(255,12,12)"  stroke="rgb(255,12,12)" stroke-width="1" font-size="16" >O</text>
<text x="127.424978" y="204.033795" fill="rgb(255,12,12)"  stroke="rgb(255,12,12)" stroke-width="1" font-size="16" >O</text>
<text x="200.266384" y="322.058724" fill="rgb(255,12,12)"  stroke="rgb(255,12,12)" stroke-width="1" font-size="16" >O</text>
<text x="137.933296" y="400.004186" fill="rgb(255,12,12)"  stroke="rgb(255,12,12)" stroke-width="1" font-size="16" >O</text>
<text x="80.712489" y="234.369240" fill="rgb(255,12,12)"  stroke="rgb(255,12,12)" stroke-width="1" font-size="16" >O</text>
<text x="98.548680" y="400.004186" fill="rgb(255,127,0)"  stroke="rgb(255,127,0)" stroke-width="1" font-size="16" >P</text>
<text x="72.523967" y="276.413207" fill="rgb(255,127,0)"  stroke="rgb(255,127,0)" stroke-width="1" font-size="16" >P</text>
<text x="88.901011" y="199.365273" fill="rgb(255,127,0)"  stroke="rgb(255,127,0)" stroke-width="1" font-size="16" >P</text>
<text x="437.629135" y="168.879507" fill="rgb(178,178,0)"  stroke="rgb(178,178,0)" stroke-width="1" font-size="16" >S</text>
<text x="151.971901" y="292.790251" fill="rgb(191,191,191)"  stroke="rgb(191,191,191)" stroke-width="1" font-size="16" >H</text>
<text x="183.834724" y="419.372270" fill="rgb(191,191,191)"  stroke="rgb(191,191,191)" stroke-width="1" font-size="16" >H</text>
<text x="120.640988" y="365.896108" fill="rgb(191,191,191)"  stroke="rgb(191,191,191)" stroke-width="1" font-size="16" >H</text>
<text x="256.112843" y="145.034855" fill="rgb(191,191,191)"  stroke="rgb(191,191,191)" stroke-width="1" font-size="16" >H</text>
<text x="245.023530" y="325.787502" fill="rgb(191,191,191)"  stroke="rgb(191,191,191)" stroke-width="1" font-size="16" >H</text>
<text font-size="18.000000" fill ="black" font-family="sans-serif"
x="140.000000" y="20.000000" ></text>
<title> - OBDepict</title>
</svg>
