<?xml version="1.0"?>
<svg xmlns="http://www.w3.org/2000/svg"
xmlns:xlink="http://www.w3.org/1999/xlink" xmlns:cml="http://www.xml-cml.org/schema" width="359.255" height="304.765" x="0" y="0" font-family="sans-serif" stroke="rgb(0,0,0)" stroke-width="1" >
<line x1="310.2" y1="230.7" x2="293.6" y2="221.1"/>
<line x1="143.9" y1="54.6" x2="109.3" y2="74.6"/>
<line x1="143.9" y1="54.6" x2="178.6" y2="74.6"/>
<line x1="248.9" y1="236.5" x2="228.0" y2="257.4"/>
<line x1="284.6" y1="174.6" x2="292.3" y2="146.0"/>
<line x1="213.2" y1="174.6" x2="187.6" y2="159.8"/>
<line x1="213.2" y1="174.6" x2="213.2" y2="145.0"/>
<line x1="204.2" y1="74.2" x2="204.2" y2="75.0"/>
<line x1="200.2" y1="73.8" x2="200.2" y2="75.4"/>
<line x1="196.2" y1="73.4" x2="196.2" y2="75.8"/>
<line x1="192.2" y1="73.0" x2="192.2" y2="76.2"/>
<line x1="188.2" y1="72.6" x2="188.2" y2="76.6"/>
<line x1="184.2" y1="72.2" x2="184.2" y2="77.0"/>
<line x1="180.2" y1="71.8" x2="180.2" y2="77.4"/>
<line x1="178.6" y1="74.6" x2="178.6" y2="114.6"/>
<line x1="178.6" y1="74.6" x2="193.4" y2="49.0"/>
<line x1="180.1" y1="117.2" x2="154.4" y2="132.0"/>
<line x1="177.1" y1="112.0" x2="151.4" y2="126.8"/>
<line x1="178.6" y1="114.6" x2="204.2" y2="129.4"/>
<line x1="248.9" y1="236.5" x2="290.1" y2="236.5"/>
<line x1="290.1" y1="236.5" x2="305.2" y2="210.3"/>
<line x1="305.2" y1="210.3" x2="284.6" y2="174.6"/>
<line x1="284.6" y1="174.6" x2="284.6" y2="205.1"/>
<line x1="275.3" y1="221.2" x2="248.9" y2="236.5"/>
<line x1="40.0" y1="74.6" x2="40.0" y2="114.6"/>
<line x1="47.2" y1="80.6" x2="47.2" y2="108.6"/>
<line x1="40.0" y1="114.6" x2="74.6" y2="134.6"/>
<line x1="74.6" y1="134.6" x2="109.3" y2="114.6"/>
<line x1="76.2" y1="125.4" x2="100.5" y2="111.4"/>
<line x1="109.3" y1="114.6" x2="109.3" y2="74.6"/>
<line x1="109.3" y1="74.6" x2="74.6" y2="54.6"/>
<line x1="100.5" y1="77.9" x2="76.2" y2="63.9"/>
<line x1="74.6" y1="54.6" x2="40.0" y2="74.6"/>
<line x1="213.2" y1="215.9" x2="248.9" y2="236.5"/>
<line x1="284.6" y1="174.6" x2="248.9" y2="154.0"/>
<line x1="248.9" y1="154.0" x2="213.2" y2="174.6"/>
<line x1="213.2" y1="174.6" x2="213.2" y2="215.9"/>
<text x="313.255007" y="240.664502" fill="rgb(102,102,102)"  stroke="rgb(102,102,102)" stroke-width="1" font-size="16" >CH</text>
<text x="337.255007" y="245.464502" fill="rgb(102,102,102)"  stroke="rgb(102,102,102)" stroke-width="1" font-size="13" >3</text>
<text x="278.613573" y="220.665226" fill="rgb(12,12,255)"  stroke="rgb(12,12,255)" stroke-width="1" font-size="16" >N</text>
<text x="192.563341" y="48.320000" fill="rgb(255,12,12)"  stroke="rgb(255,12,12)" stroke-width="1" font-size="16" >OH</text>
<text x="140.324302" y="139.442158" fill="rgb(255,12,12)"  stroke="rgb(255,12,12)" stroke-width="1" font-size="16" >O</text>
<text x="207.206335" y="142.960710" fill="rgb(255,12,12)"  stroke="rgb(255,12,12)" stroke-width="1" font-size="16" >O</text>
<text x="217.026101" y="269.564740" fill="rgb(191,191,191)"  stroke="rgb(191,191,191)" stroke-width="1" font-size="16" >H</text>
<text x="288.964720" y="144.320260" fill="rgb(191,191,191)"  stroke="rgb(191,191,191)" stroke-width="1" font-size="16" >H</text>
<text x="174.965736" y="162.961434" fill="rgb(191,191,191)"  stroke="rgb(191,191,191)" stroke-width="1" font-size="16" >H</text>
<text x="212.564065" y="82.960598" fill="rgb(191,191,191)"  stroke="rgb(191,191,191)" stroke-width="1" font-size="16" >H</text>
<text font-size="18.000000" fill ="black" font-family="sans-serif"
x="140.000000" y="20.000000" ></text>
<title> - OBDepict</title>
</svg>
