<?xml version="1.0"?>
<svg xmlns="http://www.w3.org/2000/svg"
xmlns:xlink="http://www.w3.org/1999/xlink" xmlns:cml="http://www.xml-cml.org/schema" width="520" height="499.789" x="0" y="0" font-family="sans-serif" stroke="rgb(0,0,0)" stroke-width="1" >
<line x1="50.4" y1="247.8" x2="80.0" y2="247.8"/>
<line x1="307.8" y1="452.8" x2="329.8" y2="433.0"/>
<line x1="357.9" y1="442.2" x2="329.8" y2="433.0"/>
<line x1="227.9" y1="358.2" x2="237.1" y2="330.1"/>
<polygon points="370.717968 218.564065 366.717968 245.364065 374.717968 245.364065 " />
<polygon points="266.794919 278.564065 274.041279 304.674029 281.349643 301.420136 " />
<line x1="80.0" y1="247.8" x2="100.0" y2="213.2"/>
<line x1="100.0" y1="213.2" x2="140.0" y2="213.2"/>
<line x1="140.0" y1="213.2" x2="160.0" y2="178.6"/>
<line x1="160.0" y1="178.6" x2="200.0" y2="178.6"/>
<line x1="200.0" y1="178.6" x2="220.0" y2="143.9"/>
<line x1="220.0" y1="143.9" x2="260.0" y2="143.9"/>
<line x1="260.0" y1="143.9" x2="280.0" y2="109.3"/>
<line x1="280.0" y1="109.3" x2="320.0" y2="109.3"/>
<line x1="320.0" y1="109.3" x2="340.0" y2="74.6"/>
<line x1="340.0" y1="74.6" x2="380.0" y2="74.6"/>
<line x1="380.0" y1="74.6" x2="400.0" y2="40.0"/>
<line x1="400.0" y1="40.0" x2="440.0" y2="40.0"/>
<line x1="440.0" y1="40.0" x2="460.0" y2="74.6"/>
<line x1="283.4" y1="381.5" x2="321.5" y2="393.9"/>
<line x1="283.4" y1="381.5" x2="275.1" y2="342.4"/>
<line x1="321.5" y1="393.9" x2="329.8" y2="433.0"/>
<line x1="275.1" y1="342.4" x2="237.1" y2="330.1"/>
<line x1="460.0" y1="74.6" x2="440.0" y2="109.3"/>
<line x1="212.1" y1="335.8" x2="211.9" y2="335.0"/>
<line x1="216.1" y1="335.3" x2="215.8" y2="333.8"/>
<line x1="220.1" y1="334.9" x2="219.6" y2="332.5"/>
<line x1="224.1" y1="334.4" x2="223.4" y2="331.3"/>
<line x1="228.1" y1="334.0" x2="227.3" y2="330.1"/>
<line x1="232.1" y1="333.6" x2="231.1" y2="328.9"/>
<line x1="236.1" y1="333.1" x2="234.9" y2="327.6"/>
<line x1="237.1" y1="330.1" x2="228.8" y2="290.9"/>
<line x1="465.6" y1="178.2" x2="465.6" y2="179.0"/>
<line x1="461.6" y1="177.8" x2="461.6" y2="179.4"/>
<line x1="457.6" y1="177.4" x2="457.6" y2="179.8"/>
<line x1="453.6" y1="177.0" x2="453.6" y2="180.2"/>
<line x1="449.6" y1="176.6" x2="449.6" y2="180.6"/>
<line x1="445.6" y1="176.2" x2="445.6" y2="181.0"/>
<line x1="441.6" y1="175.8" x2="441.6" y2="181.4"/>
<line x1="440.0" y1="178.6" x2="454.8" y2="152.9"/>
<polygon points="278.226455 205.164065 299.435935 222.028166 303.435935 215.099963 " />
<line x1="210.0" y1="308.4" x2="209.5" y2="307.8"/>
<line x1="213.2" y1="306.0" x2="212.2" y2="304.8"/>
<line x1="216.5" y1="303.6" x2="214.9" y2="301.8"/>
<line x1="219.7" y1="301.2" x2="217.6" y2="298.8"/>
<line x1="223.0" y1="298.8" x2="220.3" y2="295.9"/>
<line x1="226.2" y1="296.5" x2="223.0" y2="292.9"/>
<line x1="229.4" y1="294.1" x2="225.7" y2="289.9"/>
<line x1="276.8" y1="215.0" x2="277.6" y2="215.3"/>
<line x1="274.8" y1="218.5" x2="276.3" y2="219.2"/>
<line x1="272.9" y1="222.0" x2="275.0" y2="223.0"/>
<line x1="270.9" y1="225.5" x2="273.8" y2="226.8"/>
<line x1="268.9" y1="229.0" x2="272.5" y2="230.6"/>
<line x1="266.9" y1="232.5" x2="271.3" y2="234.4"/>
<line x1="264.9" y1="236.0" x2="270.0" y2="238.2"/>
<line x1="358.4" y1="251.0" x2="358.0" y2="251.7"/>
<line x1="355.2" y1="248.7" x2="354.4" y2="250.1"/>
<line x1="351.9" y1="246.3" x2="350.7" y2="248.4"/>
<line x1="348.7" y1="244.0" x2="347.1" y2="246.7"/>
<line x1="345.4" y1="241.6" x2="343.4" y2="245.1"/>
<line x1="342.1" y1="239.3" x2="339.7" y2="243.4"/>
<line x1="338.9" y1="236.9" x2="336.1" y2="241.8"/>
<line x1="440.0" y1="112.3" x2="410.4" y2="112.3"/>
<line x1="440.0" y1="106.3" x2="410.4" y2="106.3"/>
<line x1="440.0" y1="109.3" x2="454.8" y2="134.9"/>
<line x1="205.2" y1="258.6" x2="228.8" y2="290.9"/>
<line x1="228.8" y1="290.9" x2="266.8" y2="278.6"/>
<line x1="266.8" y1="278.6" x2="266.8" y2="238.6"/>
<line x1="266.8" y1="238.6" x2="228.8" y2="226.2"/>
<line x1="228.8" y1="226.2" x2="205.2" y2="258.6"/>
<line x1="336.1" y1="158.6" x2="301.4" y2="178.6"/>
<line x1="301.4" y1="178.6" x2="301.4" y2="218.6"/>
<line x1="301.4" y1="218.6" x2="336.1" y2="238.6"/>
<line x1="336.1" y1="238.6" x2="370.7" y2="218.6"/>
<line x1="370.7" y1="218.6" x2="370.7" y2="178.6"/>
<line x1="370.7" y1="178.6" x2="336.1" y2="158.6"/>
<line x1="361.9" y1="181.8" x2="337.7" y2="167.8"/>
<line x1="440.0" y1="178.6" x2="405.4" y2="158.6"/>
<line x1="405.4" y1="158.6" x2="370.7" y2="178.6"/>
<line x1="370.7" y1="218.6" x2="405.4" y2="238.6"/>
<line x1="405.4" y1="238.6" x2="440.0" y2="218.6"/>
<line x1="440.0" y1="218.6" x2="440.0" y2="178.6"/>
<line x1="266.8" y1="278.6" x2="301.4" y2="298.6"/>
<line x1="301.4" y1="298.6" x2="336.1" y2="278.6"/>
<line x1="336.1" y1="278.6" x2="336.1" y2="238.6"/>
<line x1="301.4" y1="218.6" x2="266.8" y2="238.6"/>
<text x="16.400000" y="256.166097" fill="rgb(102,102,102)"  stroke="rgb(102,102,102)" stroke-width="1" font-size="16" >H</text>
<text x="28.400000" y="263.846097" fill="rgb(102,102,102)"  stroke="rgb(102,102,102)" stroke-width="1" font-size="13" >3</text>
<text x="34.900000" y="256.166097" fill="rgb(102,102,102)"  stroke="rgb(102,102,102)" stroke-width="1" font-size="16" >C</text>
<text x="276.460790" y="464.589040" fill="rgb(102,102,102)"  stroke="rgb(102,102,102)" stroke-width="1" font-size="16" >H</text>
<text x="288.460790" y="469.389040" fill="rgb(102,102,102)"  stroke="rgb(102,102,102)" stroke-width="1" font-size="13" >3</text>
<text x="294.960790" y="464.589040" fill="rgb(102,102,102)"  stroke="rgb(102,102,102)" stroke-width="1" font-size="16" >C</text>
<text x="361.828843" y="450.184496" fill="rgb(102,102,102)"  stroke="rgb(102,102,102)" stroke-width="1" font-size="16" >CH</text>
<text x="385.828843" y="454.984496" fill="rgb(102,102,102)"  stroke="rgb(102,102,102)" stroke-width="1" font-size="13" >3</text>
<text x="201.108446" y="372.892909" fill="rgb(102,102,102)"  stroke="rgb(102,102,102)" stroke-width="1" font-size="16" >H</text>
<text x="213.108446" y="377.692909" fill="rgb(102,102,102)"  stroke="rgb(102,102,102)" stroke-width="1" font-size="13" >3</text>
<text x="219.608446" y="372.892909" fill="rgb(102,102,102)"  stroke="rgb(102,102,102)" stroke-width="1" font-size="16" >C</text>
<text x="364.717968" y="263.364065" fill="rgb(102,102,102)"  stroke="rgb(102,102,102)" stroke-width="1" font-size="16" >CH</text>
<text x="388.717968" y="268.164065" fill="rgb(102,102,102)"  stroke="rgb(102,102,102)" stroke-width="1" font-size="13" >3</text>
<text x="277.064385" y="319.905883" fill="rgb(102,102,102)"  stroke="rgb(102,102,102)" stroke-width="1" font-size="16" >CH</text>
<text x="301.064385" y="324.705883" fill="rgb(102,102,102)"  stroke="rgb(102,102,102)" stroke-width="1" font-size="13" >3</text>
<text x="396.400000" y="117.602032" fill="rgb(255,12,12)"  stroke="rgb(255,12,12)" stroke-width="1" font-size="16" >O</text>
<text x="454.000000" y="148.723048" fill="rgb(255,12,12)"  stroke="rgb(255,12,12)" stroke-width="1" font-size="16" >O</text>
<text x="194.343222" y="343.167116" fill="rgb(191,191,191)"  stroke="rgb(191,191,191)" stroke-width="1" font-size="16" >H</text>
<text x="474.000000" y="183.364065" fill="rgb(191,191,191)"  stroke="rgb(191,191,191)" stroke-width="1" font-size="16" >H</text>
<text x="263.194919" y="206.884065" fill="rgb(191,191,191)"  stroke="rgb(191,191,191)" stroke-width="1" font-size="16" >H</text>
<text x="195.426866" y="322.489969" fill="rgb(191,191,191)"  stroke="rgb(191,191,191)" stroke-width="1" font-size="16" >H</text>
<text x="277.064385" y="210.342246" fill="rgb(191,191,191)"  stroke="rgb(191,191,191)" stroke-width="1" font-size="16" >H</text>
<text x="364.717968" y="263.364065" fill="rgb(191,191,191)"  stroke="rgb(191,191,191)" stroke-width="1" font-size="16" >H</text>
<text font-size="18.000000" fill ="black" font-family="sans-serif"
x="140.000000" y="20.000000" ></text>
<title> - OBDepict</title>
</svg>
