<?xml version="1.0"?>
<svg xmlns="http://www.w3.org/2000/svg"
xmlns:xlink="http://www.w3.org/1999/xlink" xmlns:cml="http://www.xml-cml.org/schema" width="346.277" height="298.625" x="0" y="0" font-family="sans-serif" stroke="rgb(0,0,0)" stroke-width="1" >
<line x1="105.0" y1="247.9" x2="105.0" y2="228.1"/>
<polygon points="226.873956 115.433635 237.048059 141.406451 244.001545 137.450566 " />
<line x1="76.5" y1="176.6" x2="75.7" y2="176.8"/>
<line x1="76.0" y1="172.5" x2="74.5" y2="172.9"/>
<line x1="75.6" y1="168.4" x2="73.2" y2="168.9"/>
<line x1="75.1" y1="164.3" x2="72.0" y2="165.0"/>
<line x1="74.6" y1="160.2" x2="70.7" y2="161.0"/>
<line x1="74.2" y1="156.1" x2="69.5" y2="157.1"/>
<line x1="73.7" y1="152.0" x2="68.2" y2="153.1"/>
<line x1="70.6" y1="150.9" x2="48.0" y2="171.3"/>
<line x1="67.8" y1="89.5" x2="58.3" y2="60.5"/>
<line x1="73.5" y1="87.6" x2="64.1" y2="58.6"/>
<line x1="140.6" y1="196.8" x2="114.2" y2="212.1"/>
<line x1="137.6" y1="81.2" x2="137.6" y2="50.7"/>
<line x1="143.6" y1="81.2" x2="143.6" y2="50.7"/>
<polygon points="286.821114 220.763705 276.638008 194.794416 269.685893 198.752712 " />
<line x1="273.6" y1="120.6" x2="306.3" y2="139.4"/>
<line x1="275.2" y1="129.8" x2="297.5" y2="142.6"/>
<line x1="306.3" y1="139.4" x2="306.3" y2="167.9"/>
<line x1="297.7" y1="182.8" x2="273.2" y2="196.8"/>
<line x1="273.2" y1="196.8" x2="240.5" y2="139.4"/>
<line x1="240.5" y1="139.4" x2="273.6" y2="120.6"/>
<line x1="207.4" y1="196.8" x2="207.4" y2="158.3"/>
<line x1="214.6" y1="190.8" x2="214.6" y2="164.3"/>
<line x1="207.4" y1="158.3" x2="240.5" y2="139.4"/>
<line x1="273.2" y1="196.8" x2="248.6" y2="210.7"/>
<line x1="231.6" y1="210.7" x2="207.4" y2="196.8"/>
<line x1="70.6" y1="150.9" x2="48.0" y2="119.7"/>
<line x1="48.0" y1="119.7" x2="70.6" y2="88.6"/>
<line x1="70.6" y1="88.6" x2="107.3" y2="100.5"/>
<line x1="107.3" y1="100.5" x2="107.3" y2="139.0"/>
<line x1="100.1" y1="106.5" x2="100.1" y2="133.0"/>
<line x1="107.3" y1="139.0" x2="70.6" y2="150.9"/>
<line x1="174.0" y1="110.5" x2="174.0" y2="139.0"/>
<line x1="174.0" y1="139.0" x2="140.6" y2="158.3"/>
<line x1="165.2" y1="135.8" x2="142.2" y2="149.0"/>
<line x1="140.6" y1="158.3" x2="107.3" y2="139.0"/>
<line x1="107.3" y1="100.5" x2="140.6" y2="81.2"/>
<line x1="140.6" y1="81.2" x2="165.3" y2="95.5"/>
<line x1="174.0" y1="139.0" x2="207.4" y2="158.3"/>
<line x1="207.4" y1="196.8" x2="174.0" y2="216.1"/>
<line x1="174.0" y1="216.1" x2="140.6" y2="196.8"/>
<line x1="172.4" y1="206.9" x2="149.4" y2="193.6"/>
<line x1="140.6" y1="196.8" x2="140.6" y2="158.3"/>
<text x="98.965372" y="263.424903" fill="rgb(102,102,102)"  stroke="rgb(102,102,102)" stroke-width="1" font-size="16" >CH</text>
<text x="122.965372" y="268.224903" fill="rgb(102,102,102)"  stroke="rgb(102,102,102)" stroke-width="1" font-size="13" >3</text>
<text x="24.400000" y="183.291171" fill="rgb(255,12,12)"  stroke="rgb(255,12,12)" stroke-width="1" font-size="16" >HO</text>
<text x="54.287460" y="57.696915" fill="rgb(255,12,12)"  stroke="rgb(255,12,12)" stroke-width="1" font-size="16" >O</text>
<text x="134.648398" y="48.320000" fill="rgb(255,12,12)"  stroke="rgb(255,12,12)" stroke-width="1" font-size="16" >O</text>
<text x="101.365372" y="225.741693" fill="rgb(255,12,12)"  stroke="rgb(255,12,12)" stroke-width="1" font-size="16" >O</text>
<text x="300.276981" y="182.726601" fill="rgb(255,12,12)"  stroke="rgb(255,12,12)" stroke-width="1" font-size="16" >O</text>
<text x="236.436982" y="220.426184" fill="rgb(255,12,12)"  stroke="rgb(255,12,12)" stroke-width="1" font-size="16" >O</text>
<text x="168.024116" y="108.792690" fill="rgb(255,12,12)"  stroke="rgb(255,12,12)" stroke-width="1" font-size="16" >O</text>
<text x="216.550404" y="111.935265" fill="rgb(191,191,191)"  stroke="rgb(191,191,191)" stroke-width="1" font-size="16" >H</text>
<text x="73.186582" y="196.023663" fill="rgb(191,191,191)"  stroke="rgb(191,191,191)" stroke-width="1" font-size="16" >H</text>
<text x="287.548761" y="237.379744" fill="rgb(191,191,191)"  stroke="rgb(191,191,191)" stroke-width="1" font-size="16" >H</text>
<text font-size="18.000000" fill ="black" font-family="sans-serif"
x="140.000000" y="20.000000" ></text>
<title> - OBDepict</title>
</svg>
