<?xml version="1.0"?>
<svg xmlns="http://www.w3.org/2000/svg"
xmlns:xlink="http://www.w3.org/1999/xlink" xmlns:cml="http://www.xml-cml.org/schema" width="381.292" height="297.801" x="0" y="0" font-family="sans-serif" stroke="rgb(0,0,0)" stroke-width="1" >
<line x1="238.1" y1="154.3" x2="238.1" y2="182.2"/>
<line x1="151.3" y1="100.0" x2="139.9" y2="125.6"/>
<line x1="83.8" y1="51.7" x2="75.9" y2="88.6"/>
<line x1="83.8" y1="51.7" x2="110.4" y2="43.0"/>
<line x1="238.1" y1="220.0" x2="238.1" y2="248.0"/>
<line x1="327.7" y1="219.6" x2="327.7" y2="220.4"/>
<line x1="323.9" y1="219.2" x2="323.9" y2="220.8"/>
<line x1="320.1" y1="218.8" x2="320.1" y2="221.2"/>
<line x1="316.4" y1="218.4" x2="316.4" y2="221.6"/>
<line x1="312.6" y1="218.0" x2="312.6" y2="222.0"/>
<line x1="308.8" y1="217.6" x2="308.8" y2="222.4"/>
<line x1="305.0" y1="217.2" x2="305.0" y2="222.8"/>
<line x1="303.5" y1="220.0" x2="317.5" y2="244.2"/>
<line x1="172.6" y1="182.2" x2="124.2" y2="210.2"/>
<line x1="139.9" y1="163.4" x2="151.3" y2="188.9"/>
<line x1="104.0" y1="113.9" x2="109.8" y2="86.6"/>
<line x1="104.0" y1="113.9" x2="75.9" y2="88.6"/>
<line x1="203.9" y1="123.0" x2="228.1" y2="109.0"/>
<line x1="206.9" y1="128.2" x2="231.1" y2="114.2"/>
<line x1="76.9" y1="91.5" x2="50.3" y2="100.1"/>
<line x1="75.0" y1="85.8" x2="48.4" y2="94.4"/>
<line x1="205.4" y1="163.4" x2="253.8" y2="135.4"/>
<line x1="81.8" y1="144.5" x2="104.0" y2="113.9"/>
<line x1="104.0" y1="113.9" x2="139.9" y2="125.6"/>
<line x1="139.9" y1="125.6" x2="139.9" y2="163.4"/>
<line x1="139.9" y1="163.4" x2="104.0" y2="175.0"/>
<line x1="104.0" y1="175.0" x2="81.8" y2="144.5"/>
<line x1="205.4" y1="238.9" x2="172.6" y2="220.0"/>
<line x1="172.6" y1="220.0" x2="172.6" y2="182.2"/>
<line x1="172.6" y1="182.2" x2="205.4" y2="163.4"/>
<line x1="205.4" y1="163.4" x2="238.1" y2="182.2"/>
<line x1="238.1" y1="182.2" x2="238.1" y2="220.0"/>
<line x1="238.1" y1="220.0" x2="205.4" y2="238.9"/>
<line x1="303.5" y1="220.0" x2="270.8" y2="238.9"/>
<line x1="270.8" y1="238.9" x2="238.1" y2="220.0"/>
<line x1="238.1" y1="182.2" x2="270.8" y2="163.4"/>
<line x1="270.8" y1="163.4" x2="303.5" y2="182.2"/>
<line x1="303.5" y1="182.2" x2="303.5" y2="220.0"/>
<line x1="139.9" y1="125.6" x2="172.6" y2="106.7"/>
<line x1="172.6" y1="106.7" x2="205.4" y2="125.6"/>
<line x1="205.4" y1="125.6" x2="205.4" y2="163.4"/>
<line x1="172.6" y1="182.2" x2="139.9" y2="163.4"/>
<text x="232.081509" y="152.787350" fill="rgb(102,102,102)"  stroke="rgb(102,102,102)" stroke-width="1" font-size="16" >CH</text>
<text x="256.081509" y="160.467350" fill="rgb(102,102,102)"  stroke="rgb(102,102,102)" stroke-width="1" font-size="13" >3</text>
<text x="149.297570" y="99.386743" fill="rgb(102,102,102)"  stroke="rgb(102,102,102)" stroke-width="1" font-size="16" >CH</text>
<text x="173.297570" y="107.066743" fill="rgb(102,102,102)"  stroke="rgb(102,102,102)" stroke-width="1" font-size="13" >3</text>
<text x="113.712045" y="48.320000" fill="rgb(255,12,12)"  stroke="rgb(255,12,12)" stroke-width="1" font-size="16" >OH</text>
<text x="316.403429" y="257.539420" fill="rgb(255,12,12)"  stroke="rgb(255,12,12)" stroke-width="1" font-size="16" >OH</text>
<text x="232.081509" y="115.009572" fill="rgb(255,12,12)"  stroke="rgb(255,12,12)" stroke-width="1" font-size="16" >O</text>
<text x="36.400000" y="105.100193" fill="rgb(255,12,12)"  stroke="rgb(255,12,12)" stroke-width="1" font-size="16" >O</text>
<text x="232.081509" y="262.600683" fill="rgb(191,191,191)"  stroke="rgb(191,191,191)" stroke-width="1" font-size="16" >H</text>
<text x="335.292318" y="224.822905" fill="rgb(191,191,191)"  stroke="rgb(191,191,191)" stroke-width="1" font-size="16" >H</text>
<text x="103.615448" y="224.822905" fill="rgb(191,191,191)"  stroke="rgb(191,191,191)" stroke-width="1" font-size="16" >H</text>
<text x="149.297570" y="202.667956" fill="rgb(191,191,191)"  stroke="rgb(191,191,191)" stroke-width="1" font-size="16" >H</text>
<text x="105.857603" y="85.272243" fill="rgb(191,191,191)"  stroke="rgb(191,191,191)" stroke-width="1" font-size="16" >H</text>
<text x="264.798025" y="133.898461" fill="rgb(191,191,191)"  stroke="rgb(191,191,191)" stroke-width="1" font-size="16" >H</text>
<text font-size="18.000000" fill ="black" font-family="sans-serif"
x="140.000000" y="20.000000" ></text>
<title> - OBDepict</title>
</svg>
