<?xml version="1.0"?>
<svg xmlns="http://www.w3.org/2000/svg"
xmlns:xlink="http://www.w3.org/1999/xlink" xmlns:cml="http://www.xml-cml.org/schema" width="837.209" height="379.685" x="0" y="0" font-family="sans-serif" stroke="rgb(0,0,0)" stroke-width="1" >
<line x1="48.4" y1="304.3" x2="72.4" y2="286.9"/>
<line x1="398.7" y1="169.7" x2="428.3" y2="168.1"/>
<line x1="441.7" y1="141.8" x2="428.3" y2="168.1"/>
<line x1="126.3" y1="327.1" x2="108.9" y2="303.1"/>
<line x1="72.4" y1="286.9" x2="108.9" y2="303.1"/>
<line x1="325.6" y1="193.5" x2="343.7" y2="157.9"/>
<line x1="325.6" y1="193.5" x2="347.4" y2="227.1"/>
<line x1="343.7" y1="157.9" x2="321.9" y2="124.4"/>
<line x1="658.6" y1="120.0" x2="693.3" y2="100.0"/>
<line x1="658.6" y1="120.0" x2="658.6" y2="160.0"/>
<line x1="428.3" y1="168.1" x2="450.1" y2="201.7"/>
<line x1="98.9" y1="326.7" x2="98.1" y2="326.4"/>
<line x1="100.8" y1="323.2" x2="99.4" y2="322.5"/>
<line x1="102.8" y1="319.7" x2="100.6" y2="318.7"/>
<line x1="104.8" y1="316.2" x2="101.9" y2="314.9"/>
<line x1="106.8" y1="312.7" x2="103.2" y2="311.1"/>
<line x1="108.8" y1="309.2" x2="104.4" y2="307.3"/>
<line x1="110.8" y1="305.7" x2="105.7" y2="303.5"/>
<line x1="108.9" y1="303.1" x2="141.3" y2="279.6"/>
<line x1="762.6" y1="60.0" x2="788.2" y2="45.2"/>
<line x1="684.2" y1="159.6" x2="684.2" y2="160.4"/>
<line x1="680.2" y1="159.2" x2="680.2" y2="160.8"/>
<line x1="676.2" y1="158.8" x2="676.2" y2="161.2"/>
<line x1="672.2" y1="158.4" x2="672.2" y2="161.6"/>
<line x1="668.2" y1="158.0" x2="668.2" y2="162.0"/>
<line x1="664.2" y1="157.6" x2="664.2" y2="162.4"/>
<line x1="660.2" y1="157.2" x2="660.2" y2="162.8"/>
<line x1="658.6" y1="160.0" x2="624.0" y2="180.0"/>
<line x1="658.6" y1="160.0" x2="673.4" y2="185.6"/>
<line x1="361.6" y1="248.3" x2="361.0" y2="248.8"/>
<line x1="359.8" y1="244.8" x2="358.4" y2="245.6"/>
<line x1="357.9" y1="241.2" x2="355.9" y2="242.5"/>
<line x1="356.1" y1="237.6" x2="353.4" y2="239.4"/>
<line x1="354.3" y1="234.1" x2="350.9" y2="236.2"/>
<line x1="352.4" y1="230.5" x2="348.4" y2="233.1"/>
<line x1="350.6" y1="226.9" x2="345.9" y2="230.0"/>
<line x1="347.4" y1="227.1" x2="313.8" y2="248.9"/>
<line x1="347.4" y1="227.1" x2="372.2" y2="211.0"/>
<line x1="571.0" y1="194.3" x2="570.5" y2="194.8"/>
<line x1="568.5" y1="191.1" x2="567.4" y2="192.2"/>
<line x1="566.0" y1="188.0" x2="564.3" y2="189.7"/>
<line x1="563.5" y1="184.9" x2="561.2" y2="187.1"/>
<line x1="561.0" y1="181.7" x2="558.1" y2="184.5"/>
<line x1="558.5" y1="178.6" x2="555.0" y2="181.9"/>
<line x1="555.9" y1="175.4" x2="551.9" y2="179.4"/>
<line x1="552.8" y1="176.3" x2="519.3" y2="198.1"/>
<line x1="261.7" y1="265.9" x2="261.1" y2="266.5"/>
<line x1="259.0" y1="262.9" x2="257.9" y2="264.1"/>
<line x1="256.3" y1="259.9" x2="254.7" y2="261.7"/>
<line x1="253.6" y1="256.9" x2="251.5" y2="259.2"/>
<line x1="251.0" y1="253.9" x2="248.2" y2="256.8"/>
<line x1="248.3" y1="250.9" x2="245.0" y2="254.4"/>
<line x1="245.6" y1="247.9" x2="241.8" y2="252.0"/>
<line x1="242.5" y1="248.9" x2="210.2" y2="272.4"/>
<line x1="319.3" y1="123.0" x2="332.7" y2="96.6"/>
<line x1="324.6" y1="125.7" x2="338.1" y2="99.3"/>
<line x1="321.9" y1="124.4" x2="292.4" y2="125.9"/>
<polygon points="464.683933 224.157340 453.442289 199.502412 446.732924 203.859525 " />
<line x1="450.1" y1="201.7" x2="416.5" y2="223.5"/>
<line x1="450.1" y1="201.7" x2="474.9" y2="185.6"/>
<line x1="156.6" y1="300.1" x2="156.0" y2="300.6"/>
<line x1="154.6" y1="296.6" x2="153.3" y2="297.6"/>
<line x1="152.6" y1="293.2" x2="150.6" y2="294.6"/>
<line x1="150.6" y1="289.7" x2="148.0" y2="291.6"/>
<line x1="148.5" y1="286.2" x2="145.3" y2="288.6"/>
<line x1="146.5" y1="282.8" x2="142.6" y2="285.6"/>
<line x1="144.5" y1="279.3" x2="139.9" y2="282.6"/>
<line x1="141.3" y1="279.6" x2="117.8" y2="247.3"/>
<line x1="141.3" y1="279.6" x2="165.2" y2="262.2"/>
<line x1="517.9" y1="200.7" x2="491.5" y2="187.3"/>
<line x1="520.6" y1="195.4" x2="494.3" y2="181.9"/>
<line x1="519.3" y1="198.1" x2="520.8" y2="227.6"/>
<line x1="208.9" y1="275.1" x2="181.9" y2="263.1"/>
<line x1="211.4" y1="269.6" x2="184.3" y2="257.6"/>
<line x1="210.2" y1="272.4" x2="213.3" y2="301.8"/>
<line x1="415.2" y1="226.1" x2="388.8" y2="212.7"/>
<line x1="417.9" y1="220.8" x2="391.5" y2="207.4"/>
<line x1="416.5" y1="223.5" x2="418.1" y2="253.0"/>
<line x1="624.0" y1="180.0" x2="598.4" y2="165.2"/>
<line x1="627.0" y1="180.0" x2="627.0" y2="209.6"/>
<line x1="621.0" y1="180.0" x2="621.0" y2="209.6"/>
<line x1="313.8" y1="248.9" x2="287.4" y2="235.4"/>
<line x1="316.8" y1="248.7" x2="318.4" y2="278.3"/>
<line x1="310.8" y1="249.0" x2="312.4" y2="278.6"/>
<line x1="118.1" y1="250.3" x2="88.6" y2="253.3"/>
<line x1="117.4" y1="244.3" x2="88.0" y2="247.4"/>
<line x1="117.8" y1="247.3" x2="129.8" y2="220.2"/>
<line x1="526.1" y1="146.5" x2="546.1" y2="111.9"/>
<line x1="546.1" y1="111.9" x2="585.2" y2="120.2"/>
<line x1="585.2" y1="120.2" x2="588.3" y2="149.7"/>
<line x1="579.9" y1="164.2" x2="552.8" y2="176.3"/>
<line x1="552.8" y1="176.3" x2="526.1" y2="146.5"/>
<line x1="214.2" y1="220.6" x2="232.4" y2="185.0"/>
<line x1="232.4" y1="185.0" x2="271.9" y2="191.2"/>
<line x1="271.9" y1="191.2" x2="276.5" y2="220.4"/>
<line x1="268.9" y1="235.4" x2="242.5" y2="248.9"/>
<line x1="242.5" y1="248.9" x2="214.2" y2="220.6"/>
<line x1="727.9" y1="120.0" x2="693.3" y2="100.0"/>
<line x1="726.3" y1="110.8" x2="702.1" y2="96.8"/>
<line x1="693.3" y1="100.0" x2="693.3" y2="60.0"/>
<line x1="693.3" y1="60.0" x2="727.9" y2="40.0"/>
<line x1="702.1" y1="63.2" x2="726.3" y2="49.2"/>
<line x1="727.9" y1="40.0" x2="762.6" y2="60.0"/>
<line x1="762.6" y1="60.0" x2="762.6" y2="100.0"/>
<line x1="755.4" y1="66.0" x2="755.4" y2="94.0"/>
<line x1="762.6" y1="100.0" x2="727.9" y2="120.0"/>
<text x="16.400000" y="315.184742" fill="rgb(102,102,102)"  stroke="rgb(102,102,102)" stroke-width="1" font-size="16" >H</text>
<text x="28.400000" y="319.984742" fill="rgb(102,102,102)"  stroke="rgb(102,102,102)" stroke-width="1" font-size="13" >3</text>
<text x="34.900000" y="315.184742" fill="rgb(102,102,102)"  stroke="rgb(102,102,102)" stroke-width="1" font-size="16" >C</text>
<text x="364.756864" y="175.027584" fill="rgb(102,102,102)"  stroke="rgb(102,102,102)" stroke-width="1" font-size="16" >H</text>
<text x="376.756864" y="179.827584" fill="rgb(102,102,102)"  stroke="rgb(102,102,102)" stroke-width="1" font-size="13" >3</text>
<text x="383.256864" y="175.027584" fill="rgb(102,102,102)"  stroke="rgb(102,102,102)" stroke-width="1" font-size="16" >C</text>
<text x="440.461665" y="140.813885" fill="rgb(102,102,102)"  stroke="rgb(102,102,102)" stroke-width="1" font-size="16" >CH</text>
<text x="464.461665" y="148.493885" fill="rgb(102,102,102)"  stroke="rgb(102,102,102)" stroke-width="1" font-size="13" >3</text>
<text x="126.413908" y="340.303477" fill="rgb(102,102,102)"  stroke="rgb(102,102,102)" stroke-width="1" font-size="16" >CH</text>
<text x="150.413908" y="345.103477" fill="rgb(102,102,102)"  stroke="rgb(102,102,102)" stroke-width="1" font-size="13" >3</text>
<text x="672.645364" y="199.441016" fill="rgb(12,12,255)"  stroke="rgb(12,12,255)" stroke-width="1" font-size="16" >NH</text>
<text x="696.645364" y="204.241016" fill="rgb(12,12,255)"  stroke="rgb(12,12,255)" stroke-width="1" font-size="13" >2</text>
<text x="377.300523" y="213.626910" fill="rgb(12,12,255)"  stroke="rgb(12,12,255)" stroke-width="1" font-size="16" >N</text>
<text x="480.034429" y="188.215407" fill="rgb(12,12,255)"  stroke="rgb(12,12,255)" stroke-width="1" font-size="16" >N</text>
<text x="170.023858" y="264.439977" fill="rgb(12,12,255)"  stroke="rgb(12,12,255)" stroke-width="1" font-size="16" >N</text>
<text x="583.363331" y="164.800000" fill="rgb(12,12,255)"  stroke="rgb(12,12,255)" stroke-width="1" font-size="16" >N</text>
<text x="272.166617" y="235.518413" fill="rgb(12,12,255)"  stroke="rgb(12,12,255)" stroke-width="1" font-size="16" >N</text>
<text x="792.409428" y="33.600000" fill="rgb(255,12,12)"  stroke="rgb(255,12,12)" stroke-width="1" font-size="32" >-</text>
<text x="791.209428" y="48.320000" fill="rgb(255,12,12)"  stroke="rgb(255,12,12)" stroke-width="1" font-size="16" >O</text>
<text x="334.101818" y="97.038304" fill="rgb(255,12,12)"  stroke="rgb(255,12,12)" stroke-width="1" font-size="16" >O</text>
<text x="266.397016" y="131.252003" fill="rgb(255,12,12)"  stroke="rgb(255,12,12)" stroke-width="1" font-size="16" >HO</text>
<text x="515.368129" y="242.800209" fill="rgb(255,12,12)"  stroke="rgb(255,12,12)" stroke-width="1" font-size="16" >OH</text>
<text x="208.346814" y="316.970319" fill="rgb(255,12,12)"  stroke="rgb(255,12,12)" stroke-width="1" font-size="16" >OH</text>
<text x="412.634222" y="268.211711" fill="rgb(255,12,12)"  stroke="rgb(255,12,12)" stroke-width="1" font-size="16" >OH</text>
<text x="618.004348" y="224.800000" fill="rgb(255,12,12)"  stroke="rgb(255,12,12)" stroke-width="1" font-size="16" >O</text>
<text x="309.900316" y="293.623214" fill="rgb(255,12,12)"  stroke="rgb(255,12,12)" stroke-width="1" font-size="16" >O</text>
<text x="74.370892" y="256.251846" fill="rgb(255,12,12)"  stroke="rgb(255,12,12)" stroke-width="1" font-size="16" >O</text>
<text x="128.021233" y="219.048889" fill="rgb(255,12,12)"  stroke="rgb(255,12,12)" stroke-width="1" font-size="16" >OH</text>
<text x="89.033032" y="344.484616" fill="rgb(191,191,191)"  stroke="rgb(191,191,191)" stroke-width="1" font-size="16" >H</text>
<text x="692.645364" y="164.800000" fill="rgb(191,191,191)"  stroke="rgb(191,191,191)" stroke-width="1" font-size="16" >H</text>
<text x="363.139262" y="265.439294" fill="rgb(191,191,191)"  stroke="rgb(191,191,191)" stroke-width="1" font-size="16" >H</text>
<text x="574.845541" y="209.611607" fill="rgb(191,191,191)"  stroke="rgb(191,191,191)" stroke-width="1" font-size="16" >H</text>
<text x="266.005758" y="280.714394" fill="rgb(191,191,191)"  stroke="rgb(191,191,191)" stroke-width="1" font-size="16" >H</text>
<text x="465.873168" y="240.027791" fill="rgb(191,191,191)"  stroke="rgb(191,191,191)" stroke-width="1" font-size="16" >H</text>
<text x="158.774588" y="316.792067" fill="rgb(191,191,191)"  stroke="rgb(191,191,191)" stroke-width="1" font-size="16" >H</text>
<text font-size="18.000000" fill ="black" font-family="sans-serif"
x="140.000000" y="20.000000" ></text>
<title> - OBDepict</title>
</svg>
