<?xml version="1.0"?>
<svg xmlns="http://www.w3.org/2000/svg"
xmlns:xlink="http://www.w3.org/1999/xlink" xmlns:cml="http://www.xml-cml.org/schema" width="493.471" height="402.443" x="0" y="0" font-family="sans-serif" stroke="rgb(0,0,0)" stroke-width="1" >
<line x1="119.0" y1="285.3" x2="82.6" y2="299.3"/>
<line x1="119.0" y1="285.3" x2="125.1" y2="246.7"/>
<line x1="82.6" y1="299.3" x2="76.5" y2="337.9"/>
<line x1="174.3" y1="186.1" x2="198.8" y2="155.7"/>
<line x1="174.3" y1="186.1" x2="188.3" y2="222.5"/>
<line x1="433.9" y1="101.1" x2="394.9" y2="101.1"/>
<line x1="433.9" y1="101.1" x2="448.4" y2="126.1"/>
<line x1="125.1" y1="246.7" x2="129.6" y2="218.2"/>
<line x1="125.1" y1="246.7" x2="86.6" y2="240.6"/>
<line x1="125.1" y1="246.7" x2="153.7" y2="251.3"/>
<polygon points="407.980502 78.425408 391.435448 99.082282 398.363651 103.082282 " />
<line x1="190.6" y1="224.4" x2="172.4" y2="246.8"/>
<line x1="185.9" y1="220.6" x2="167.7" y2="243.1"/>
<line x1="188.3" y1="222.5" x2="216.8" y2="227.0"/>
<line x1="77.5" y1="340.7" x2="50.6" y2="351.0"/>
<line x1="75.4" y1="335.1" x2="48.4" y2="345.4"/>
<line x1="76.5" y1="337.9" x2="98.9" y2="356.1"/>
<line x1="419.9" y1="139.7" x2="419.9" y2="140.5"/>
<line x1="416.0" y1="139.3" x2="416.0" y2="140.9"/>
<line x1="412.1" y1="138.9" x2="412.1" y2="141.3"/>
<line x1="408.2" y1="138.5" x2="408.2" y2="141.7"/>
<line x1="404.3" y1="138.1" x2="404.3" y2="142.1"/>
<line x1="400.4" y1="137.7" x2="400.4" y2="142.5"/>
<line x1="396.5" y1="137.3" x2="396.5" y2="142.9"/>
<line x1="394.9" y1="140.1" x2="409.3" y2="165.2"/>
<polygon points="374.164272 182.310584 364.547421 157.653710 357.619218 161.653710 " />
<line x1="361.1" y1="159.7" x2="346.6" y2="184.7"/>
<line x1="315.1" y1="162.0" x2="314.4" y2="161.6"/>
<line x1="317.4" y1="158.8" x2="316.0" y2="158.0"/>
<line x1="319.7" y1="155.6" x2="317.6" y2="154.4"/>
<line x1="322.0" y1="152.4" x2="319.2" y2="150.8"/>
<line x1="324.3" y1="149.2" x2="320.8" y2="147.2"/>
<line x1="326.6" y1="146.1" x2="322.5" y2="143.7"/>
<line x1="328.9" y1="142.9" x2="324.1" y2="140.1"/>
<line x1="327.3" y1="140.1" x2="298.4" y2="140.1"/>
<line x1="327.3" y1="101.1" x2="331.0" y2="72.4"/>
<line x1="327.3" y1="101.1" x2="271.4" y2="116.0"/>
<line x1="88.9" y1="242.5" x2="70.7" y2="265.0"/>
<line x1="84.2" y1="238.7" x2="66.0" y2="261.2"/>
<line x1="86.6" y1="240.6" x2="76.2" y2="213.7"/>
<line x1="198.8" y1="155.7" x2="237.8" y2="157.7"/>
<line x1="205.2" y1="148.8" x2="232.2" y2="150.2"/>
<line x1="237.8" y1="157.7" x2="248.2" y2="130.8"/>
<line x1="243.9" y1="114.9" x2="221.5" y2="96.7"/>
<line x1="221.5" y1="96.7" x2="188.7" y2="118.0"/>
<line x1="188.7" y1="118.0" x2="198.8" y2="155.7"/>
<line x1="151.9" y1="61.3" x2="153.9" y2="100.3"/>
<line x1="153.9" y1="100.3" x2="188.7" y2="118.0"/>
<line x1="162.6" y1="96.6" x2="186.7" y2="108.8"/>
<line x1="221.5" y1="96.7" x2="219.4" y2="57.7"/>
<line x1="214.0" y1="91.1" x2="212.6" y2="64.1"/>
<line x1="219.4" y1="57.7" x2="184.7" y2="40.0"/>
<line x1="184.7" y1="40.0" x2="151.9" y2="61.3"/>
<line x1="183.5" y1="49.3" x2="160.9" y2="64.0"/>
<line x1="361.1" y1="159.7" x2="327.3" y2="140.1"/>
<line x1="327.3" y1="140.1" x2="327.3" y2="101.1"/>
<line x1="327.3" y1="101.1" x2="352.3" y2="86.6"/>
<line x1="369.9" y1="86.6" x2="394.9" y2="101.1"/>
<line x1="394.9" y1="101.1" x2="394.9" y2="140.1"/>
<line x1="394.9" y1="140.1" x2="361.1" y2="159.7"/>
<text x="157.691851" y="257.650807" fill="rgb(12,12,255)"  stroke="rgb(12,12,255)" stroke-width="1" font-size="16" >N</text>
<text x="248.232882" y="126.094817" fill="rgb(12,12,255)"  stroke="rgb(12,12,255)" stroke-width="1" font-size="16" >N</text>
<text x="447.470978" y="139.698512" fill="rgb(255,12,12)"  stroke="rgb(255,12,12)" stroke-width="1" font-size="16" >OH</text>
<text x="222.032191" y="247.813501" fill="rgb(255,12,12)"  stroke="rgb(255,12,12)" stroke-width="1" font-size="32" >-</text>
<text x="220.832191" y="233.413501" fill="rgb(255,12,12)"  stroke="rgb(255,12,12)" stroke-width="1" font-size="16" >O</text>
<text x="36.400000" y="356.663000" fill="rgb(255,12,12)"  stroke="rgb(255,12,12)" stroke-width="1" font-size="16" >O</text>
<text x="101.999792" y="381.643048" fill="rgb(255,12,12)"  stroke="rgb(255,12,12)" stroke-width="1" font-size="32" >-</text>
<text x="100.799792" y="367.243048" fill="rgb(255,12,12)"  stroke="rgb(255,12,12)" stroke-width="1" font-size="16" >O</text>
<text x="408.423359" y="178.746131" fill="rgb(255,12,12)"  stroke="rgb(255,12,12)" stroke-width="1" font-size="16" >OH</text>
<text x="325.959510" y="198.269940" fill="rgb(255,12,12)"  stroke="rgb(255,12,12)" stroke-width="1" font-size="16" >HO</text>
<text x="272.619470" y="144.929901" fill="rgb(255,12,12)"  stroke="rgb(255,12,12)" stroke-width="1" font-size="16" >HO</text>
<text x="58.384632" y="275.779719" fill="rgb(255,12,12)"  stroke="rgb(255,12,12)" stroke-width="1" font-size="16" >O</text>
<text x="56.964679" y="212.499927" fill="rgb(255,12,12)"  stroke="rgb(255,12,12)" stroke-width="1" font-size="16" >HO</text>
<text x="355.083319" y="89.878472" fill="rgb(255,12,12)"  stroke="rgb(255,12,12)" stroke-width="1" font-size="16" >O</text>
<text x="125.233366" y="216.495535" fill="rgb(191,191,191)"  stroke="rgb(191,191,191)" stroke-width="1" font-size="16" >H</text>
<text x="408.423359" y="75.586052" fill="rgb(191,191,191)"  stroke="rgb(191,191,191)" stroke-width="1" font-size="16" >H</text>
<text x="427.947169" y="144.929901" fill="rgb(191,191,191)"  stroke="rgb(191,191,191)" stroke-width="1" font-size="16" >H</text>
<text x="374.607129" y="198.269940" fill="rgb(191,191,191)"  stroke="rgb(191,191,191)" stroke-width="1" font-size="16" >H</text>
<text x="304.143280" y="178.746131" fill="rgb(191,191,191)"  stroke="rgb(191,191,191)" stroke-width="1" font-size="16" >H</text>
<text x="326.363826" y="70.688720" fill="rgb(191,191,191)"  stroke="rgb(191,191,191)" stroke-width="1" font-size="16" >H</text>
<text font-size="18.000000" fill ="black" font-family="sans-serif"
x="140.000000" y="20.000000" ></text>
<title> - OBDepict</title>
</svg>
