<?xml version="1.0"?>
<svg xmlns="http://www.w3.org/2000/svg"
xmlns:xlink="http://www.w3.org/1999/xlink" xmlns:cml="http://www.xml-cml.org/schema" width="659.837" height="462.311" x="0" y="0" font-family="sans-serif" stroke="rgb(0,0,0)" stroke-width="1" >
<line x1="360.5" y1="47.2" x2="381.1" y2="67.8"/>
<line x1="408.0" y1="56.7" x2="381.1" y2="67.8"/>
<line x1="210.5" y1="176.6" x2="210.5" y2="205.7"/>
<line x1="312.9" y1="244.3" x2="312.9" y2="186.0"/>
<line x1="304.0" y1="220.3" x2="278.8" y2="205.7"/>
<line x1="161.9" y1="290.0" x2="176.4" y2="264.8"/>
<line x1="176.4" y1="382.9" x2="142.3" y2="363.2"/>
<line x1="176.4" y1="382.9" x2="176.4" y2="412.1"/>
<line x1="585.7" y1="146.6" x2="551.6" y2="166.3"/>
<line x1="585.7" y1="146.6" x2="611.0" y2="161.2"/>
<line x1="142.3" y1="205.7" x2="117.1" y2="191.1"/>
<line x1="108.2" y1="382.9" x2="108.2" y2="412.1"/>
<line x1="551.6" y1="205.7" x2="576.9" y2="220.3"/>
<line x1="74.1" y1="363.2" x2="48.9" y2="377.8"/>
<line x1="517.5" y1="225.4" x2="517.5" y2="254.5"/>
<line x1="74.1" y1="323.8" x2="48.9" y2="309.3"/>
<line x1="483.4" y1="205.7" x2="458.2" y2="220.3"/>
<line x1="142.3" y1="245.1" x2="117.1" y2="259.7"/>
<line x1="108.2" y1="304.2" x2="108.2" y2="275.0"/>
<line x1="483.4" y1="166.3" x2="458.2" y2="151.7"/>
<line x1="196.1" y1="298.9" x2="176.4" y2="264.8"/>
<line x1="198.7" y1="300.4" x2="184.2" y2="325.6"/>
<line x1="193.5" y1="297.4" x2="179.0" y2="322.6"/>
<line x1="196.1" y1="298.9" x2="225.3" y2="298.9"/>
<line x1="415.2" y1="166.3" x2="381.1" y2="146.6"/>
<line x1="418.2" y1="166.3" x2="418.2" y2="195.5"/>
<line x1="412.2" y1="166.3" x2="412.2" y2="195.5"/>
<line x1="415.2" y1="166.3" x2="440.4" y2="151.7"/>
<line x1="278.8" y1="245.1" x2="244.6" y2="264.8"/>
<line x1="244.6" y1="264.8" x2="210.5" y2="245.1"/>
<line x1="210.5" y1="245.1" x2="210.5" y2="205.7"/>
<line x1="210.5" y1="205.7" x2="244.6" y2="186.0"/>
<line x1="244.6" y1="186.0" x2="278.8" y2="205.7"/>
<line x1="278.8" y1="205.7" x2="278.8" y2="245.1"/>
<line x1="312.9" y1="146.6" x2="312.9" y2="186.0"/>
<line x1="312.9" y1="186.0" x2="278.8" y2="205.7"/>
<line x1="244.6" y1="186.0" x2="244.6" y2="146.6"/>
<line x1="244.6" y1="146.6" x2="278.8" y2="126.9"/>
<line x1="278.8" y1="126.9" x2="312.9" y2="146.6"/>
<line x1="280.4" y1="136.2" x2="304.1" y2="149.9"/>
<line x1="142.3" y1="245.1" x2="142.3" y2="205.7"/>
<line x1="142.3" y1="205.7" x2="176.4" y2="186.0"/>
<line x1="176.4" y1="186.0" x2="210.5" y2="205.7"/>
<line x1="210.5" y1="245.1" x2="176.4" y2="264.8"/>
<line x1="176.4" y1="264.8" x2="142.3" y2="245.1"/>
<line x1="381.1" y1="186.0" x2="347.0" y2="205.7"/>
<line x1="347.0" y1="205.7" x2="312.9" y2="186.0"/>
<line x1="312.9" y1="146.6" x2="347.0" y2="126.9"/>
<line x1="347.0" y1="126.9" x2="381.1" y2="146.6"/>
<line x1="381.1" y1="146.6" x2="381.1" y2="186.0"/>
<line x1="381.1" y1="67.8" x2="415.2" y2="87.5"/>
<line x1="415.2" y1="87.5" x2="415.2" y2="126.9"/>
<line x1="415.2" y1="126.9" x2="381.1" y2="146.6"/>
<line x1="347.0" y1="126.9" x2="347.0" y2="87.5"/>
<line x1="347.0" y1="87.5" x2="381.1" y2="67.8"/>
<line x1="74.1" y1="363.2" x2="74.1" y2="323.8"/>
<line x1="74.1" y1="323.8" x2="108.2" y2="304.2"/>
<line x1="108.2" y1="304.2" x2="133.5" y2="318.7"/>
<line x1="142.3" y1="334.1" x2="142.3" y2="363.2"/>
<line x1="142.3" y1="363.2" x2="108.2" y2="382.9"/>
<line x1="108.2" y1="382.9" x2="74.1" y2="363.2"/>
<line x1="517.5" y1="225.4" x2="483.4" y2="205.7"/>
<line x1="483.4" y1="205.7" x2="483.4" y2="166.3"/>
<line x1="483.4" y1="166.3" x2="508.6" y2="151.7"/>
<line x1="526.4" y1="151.7" x2="551.6" y2="166.3"/>
<line x1="551.6" y1="166.3" x2="551.6" y2="205.7"/>
<line x1="551.6" y1="205.7" x2="517.5" y2="225.4"/>
<text x="329.631646" y="48.320000" fill="rgb(102,102,102)"  stroke="rgb(102,102,102)" stroke-width="1" font-size="16" >H</text>
<text x="341.631646" y="56.000000" fill="rgb(102,102,102)"  stroke="rgb(102,102,102)" stroke-width="1" font-size="13" >3</text>
<text x="348.131646" y="48.320000" fill="rgb(102,102,102)"  stroke="rgb(102,102,102)" stroke-width="1" font-size="16" >C</text>
<text x="411.467414" y="61.097289" fill="rgb(102,102,102)"  stroke="rgb(102,102,102)" stroke-width="1" font-size="16" >CH</text>
<text x="435.467414" y="68.777289" fill="rgb(102,102,102)"  stroke="rgb(102,102,102)" stroke-width="1" font-size="13" >3</text>
<text x="204.540387" y="174.630667" fill="rgb(102,102,102)"  stroke="rgb(102,102,102)" stroke-width="1" font-size="16" >CH</text>
<text x="228.540387" y="182.310667" fill="rgb(102,102,102)"  stroke="rgb(102,102,102)" stroke-width="1" font-size="13" >3</text>
<text x="306.864620" y="269.572206" fill="rgb(102,102,102)"  stroke="rgb(102,102,102)" stroke-width="1" font-size="16" >CH</text>
<text x="330.864620" y="274.372206" fill="rgb(102,102,102)"  stroke="rgb(102,102,102)" stroke-width="1" font-size="13" >3</text>
<text x="306.864620" y="230.187590" fill="rgb(102,102,102)"  stroke="rgb(102,102,102)" stroke-width="1" font-size="16" >CH</text>
<text x="330.864620" y="234.987590" fill="rgb(102,102,102)"  stroke="rgb(102,102,102)" stroke-width="1" font-size="13" >3</text>
<text x="133.140002" y="303.680283" fill="rgb(102,102,102)"  stroke="rgb(102,102,102)" stroke-width="1" font-size="16" >H</text>
<text x="145.140002" y="308.480283" fill="rgb(102,102,102)"  stroke="rgb(102,102,102)" stroke-width="1" font-size="13" >3</text>
<text x="151.640002" y="303.680283" fill="rgb(102,102,102)"  stroke="rgb(102,102,102)" stroke-width="1" font-size="16" >C</text>
<text x="170.432310" y="427.110667" fill="rgb(255,12,12)"  stroke="rgb(255,12,12)" stroke-width="1" font-size="16" >OH</text>
<text x="613.837317" y="171.110667" fill="rgb(255,12,12)"  stroke="rgb(255,12,12)" stroke-width="1" font-size="16" >OH</text>
<text x="92.616155" y="194.322975" fill="rgb(255,12,12)"  stroke="rgb(255,12,12)" stroke-width="1" font-size="16" >HO</text>
<text x="102.216155" y="427.110667" fill="rgb(255,12,12)"  stroke="rgb(255,12,12)" stroke-width="1" font-size="16" >OH</text>
<text x="579.729239" y="230.187590" fill="rgb(255,12,12)"  stroke="rgb(255,12,12)" stroke-width="1" font-size="16" >OH</text>
<text x="24.400000" y="387.726052" fill="rgb(255,12,12)"  stroke="rgb(255,12,12)" stroke-width="1" font-size="16" >HO</text>
<text x="511.513084" y="269.572206" fill="rgb(255,12,12)"  stroke="rgb(255,12,12)" stroke-width="1" font-size="16" >OH</text>
<text x="24.400000" y="312.476821" fill="rgb(255,12,12)"  stroke="rgb(255,12,12)" stroke-width="1" font-size="16" >HO</text>
<text x="433.696929" y="230.187590" fill="rgb(255,12,12)"  stroke="rgb(255,12,12)" stroke-width="1" font-size="16" >HO</text>
<text x="172.832310" y="337.788360" fill="rgb(255,12,12)"  stroke="rgb(255,12,12)" stroke-width="1" font-size="16" >O</text>
<text x="229.509233" y="303.680283" fill="rgb(255,12,12)"  stroke="rgb(255,12,12)" stroke-width="1" font-size="16" >OH</text>
<text x="409.188852" y="210.495282" fill="rgb(255,12,12)"  stroke="rgb(255,12,12)" stroke-width="1" font-size="16" >O</text>
<text x="136.324232" y="332.169129" fill="rgb(255,12,12)"  stroke="rgb(255,12,12)" stroke-width="1" font-size="16" >O</text>
<text x="511.513084" y="154.938359" fill="rgb(255,12,12)"  stroke="rgb(255,12,12)" stroke-width="1" font-size="16" >O</text>
<text x="104.616155" y="273.092206" fill="rgb(255,12,12)"  stroke="rgb(255,12,12)" stroke-width="1" font-size="16" >O</text>
<text x="443.296929" y="154.938359" fill="rgb(255,12,12)"  stroke="rgb(255,12,12)" stroke-width="1" font-size="16" >O</text>
<text font-size="18.000000" fill ="black" font-family="sans-serif"
x="140.000000" y="20.000000" ></text>
<title> - OBDepict</title>
</svg>
