<?xml version="1.0"?>
<svg xmlns="http://www.w3.org/2000/svg"
xmlns:xlink="http://www.w3.org/1999/xlink" xmlns:cml="http://www.xml-cml.org/schema" width="1075.1" height="662.97" x="0" y="0" font-family="sans-serif" stroke="rgb(0,0,0)" stroke-width="1" >
<line x1="1014.3" y1="47.3" x2="1035.1" y2="68.1"/>
<line x1="986.0" y1="615.4" x2="957.6" y2="623.0"/>
<line x1="318.6" y1="574.6" x2="333.3" y2="549.1"/>
<line x1="238.1" y1="348.6" x2="263.6" y2="333.9"/>
<line x1="1035.1" y1="68.1" x2="1024.8" y2="106.4"/>
<line x1="957.6" y1="623.0" x2="929.6" y2="594.9"/>
<line x1="1024.8" y1="106.4" x2="986.5" y2="116.7"/>
<line x1="929.6" y1="594.9" x2="891.2" y2="605.2"/>
<line x1="986.5" y1="116.7" x2="976.2" y2="155.1"/>
<line x1="891.2" y1="605.2" x2="863.1" y2="577.1"/>
<line x1="976.2" y1="155.1" x2="937.8" y2="165.4"/>
<line x1="863.1" y1="577.1" x2="824.7" y2="587.4"/>
<line x1="937.8" y1="165.4" x2="927.5" y2="203.7"/>
<line x1="824.7" y1="587.4" x2="796.7" y2="559.3"/>
<line x1="927.5" y1="203.7" x2="889.2" y2="214.0"/>
<line x1="796.7" y1="559.3" x2="758.3" y2="569.6"/>
<line x1="889.2" y1="214.0" x2="878.9" y2="252.4"/>
<line x1="758.3" y1="569.6" x2="730.2" y2="541.5"/>
<line x1="878.9" y1="252.4" x2="840.5" y2="262.7"/>
<line x1="840.5" y1="262.7" x2="830.3" y2="301.0"/>
<line x1="730.2" y1="541.5" x2="691.9" y2="551.8"/>
<line x1="830.3" y1="301.0" x2="791.9" y2="311.3"/>
<line x1="691.9" y1="551.8" x2="663.8" y2="523.7"/>
<line x1="791.9" y1="311.3" x2="781.6" y2="349.7"/>
<line x1="663.8" y1="523.7" x2="625.4" y2="533.9"/>
<line x1="781.6" y1="349.7" x2="743.2" y2="359.9"/>
<line x1="625.4" y1="533.9" x2="597.3" y2="505.9"/>
<line x1="743.2" y1="359.9" x2="733.0" y2="398.3"/>
<line x1="597.3" y1="505.9" x2="559.0" y2="516.1"/>
<line x1="733.0" y1="398.3" x2="694.6" y2="408.6"/>
<line x1="559.0" y1="516.1" x2="551.4" y2="544.5"/>
<line x1="556.8" y1="518.3" x2="528.8" y2="490.2"/>
<line x1="561.1" y1="514.0" x2="533.0" y2="485.9"/>
<line x1="694.6" y1="408.6" x2="684.3" y2="446.9"/>
<line x1="530.9" y1="488.1" x2="502.5" y2="495.7"/>
<line x1="530.9" y1="488.1" x2="541.2" y2="449.7"/>
<line x1="684.3" y1="446.9" x2="646.0" y2="457.2"/>
<line x1="199.6" y1="494.9" x2="239.3" y2="494.9"/>
<line x1="199.6" y1="494.9" x2="184.9" y2="520.3"/>
<line x1="78.4" y1="410.6" x2="106.4" y2="382.6"/>
<line x1="78.4" y1="410.6" x2="50.0" y2="403.0"/>
<line x1="155.1" y1="185.7" x2="189.5" y2="205.5"/>
<line x1="155.1" y1="185.7" x2="155.1" y2="156.3"/>
<line x1="466.3" y1="258.4" x2="486.2" y2="292.8"/>
<line x1="466.3" y1="258.4" x2="481.0" y2="233.0"/>
<line x1="315.5" y1="201.6" x2="343.6" y2="229.7"/>
<line x1="315.5" y1="201.6" x2="323.1" y2="173.2"/>
<line x1="569.2" y1="401.1" x2="579.5" y2="439.4"/>
<line x1="569.2" y1="401.1" x2="540.9" y2="393.4"/>
<line x1="330.7" y1="550.6" x2="316.0" y2="525.2"/>
<line x1="335.9" y1="547.6" x2="321.2" y2="522.2"/>
<line x1="333.3" y1="549.1" x2="362.7" y2="549.1"/>
<line x1="260.6" y1="333.9" x2="260.6" y2="304.5"/>
<line x1="266.6" y1="333.9" x2="266.6" y2="304.5"/>
<line x1="263.6" y1="333.9" x2="289.0" y2="348.6"/>
<polygon points="586.405528 465.121352 583.382075 438.382858 575.654669 440.453410 " />
<line x1="579.5" y1="439.4" x2="541.2" y2="449.7"/>
<line x1="579.5" y1="439.4" x2="607.9" y2="431.8"/>
<line x1="516.5" y1="443.5" x2="516.7" y2="442.7"/>
<line x1="520.2" y1="444.9" x2="520.6" y2="443.4"/>
<line x1="524.0" y1="446.3" x2="524.6" y2="444.0"/>
<line x1="527.7" y1="447.7" x2="528.5" y2="444.7"/>
<line x1="531.4" y1="449.2" x2="532.5" y2="445.3"/>
<line x1="535.2" y1="450.6" x2="536.4" y2="445.9"/>
<line x1="538.9" y1="452.0" x2="540.3" y2="446.6"/>
<line x1="541.2" y1="449.7" x2="533.5" y2="421.3"/>
<polygon points="394.315123 460.489626 367.705194 456.489626 367.705194 464.489626 " />
<line x1="367.7" y1="460.5" x2="382.4" y2="485.9"/>
<polygon points="239.340055 521.494890 243.340055 494.884961 235.340055 494.884961 " />
<line x1="239.3" y1="494.9" x2="259.2" y2="460.5"/>
<line x1="239.3" y1="494.9" x2="264.8" y2="509.6"/>
<line x1="81.8" y1="376.4" x2="82.0" y2="375.6"/>
<line x1="85.5" y1="377.8" x2="85.9" y2="376.2"/>
<line x1="89.3" y1="379.2" x2="89.9" y2="376.9"/>
<line x1="93.0" y1="380.6" x2="93.8" y2="377.5"/>
<line x1="96.7" y1="382.0" x2="97.8" y2="378.2"/>
<line x1="100.5" y1="383.4" x2="101.7" y2="378.8"/>
<line x1="104.2" y1="384.8" x2="105.6" y2="379.4"/>
<line x1="189.1" y1="180.1" x2="189.9" y2="180.1"/>
<line x1="188.7" y1="184.1" x2="190.3" y2="184.1"/>
<line x1="188.3" y1="188.1" x2="190.7" y2="188.1"/>
<line x1="187.9" y1="192.0" x2="191.1" y2="192.0"/>
<line x1="187.5" y1="196.0" x2="191.5" y2="196.0"/>
<line x1="187.1" y1="200.0" x2="191.9" y2="200.0"/>
<line x1="186.7" y1="204.0" x2="192.3" y2="204.0"/>
<line x1="498.6" y1="270.6" x2="499.3" y2="271.0"/>
<line x1="496.2" y1="273.9" x2="497.6" y2="274.7"/>
<line x1="493.9" y1="277.1" x2="496.0" y2="278.3"/>
<line x1="491.6" y1="280.3" x2="494.3" y2="281.9"/>
<line x1="489.2" y1="283.6" x2="492.7" y2="285.6"/>
<line x1="486.9" y1="286.8" x2="491.1" y2="289.2"/>
<line x1="484.6" y1="290.1" x2="489.4" y2="292.9"/>
<line x1="349.8" y1="205.0" x2="350.6" y2="205.2"/>
<line x1="348.4" y1="208.7" x2="349.9" y2="209.1"/>
<line x1="347.0" y1="212.5" x2="349.3" y2="213.1"/>
<line x1="345.5" y1="216.2" x2="348.6" y2="217.0"/>
<line x1="344.1" y1="219.9" x2="348.0" y2="221.0"/>
<line x1="342.7" y1="223.7" x2="347.3" y2="224.9"/>
<line x1="341.3" y1="227.4" x2="346.7" y2="228.8"/>
<line x1="643.8" y1="459.3" x2="623.1" y2="438.6"/>
<line x1="648.1" y1="455.1" x2="627.3" y2="434.3"/>
<line x1="646.0" y1="457.2" x2="638.4" y2="485.6"/>
<line x1="346.4" y1="502.2" x2="345.7" y2="502.6"/>
<line x1="344.7" y1="498.5" x2="343.3" y2="499.3"/>
<line x1="343.1" y1="494.9" x2="341.0" y2="496.1"/>
<line x1="341.4" y1="491.2" x2="338.7" y2="492.8"/>
<line x1="339.8" y1="487.6" x2="336.3" y2="489.6"/>
<line x1="338.2" y1="484.0" x2="334.0" y2="486.4"/>
<line x1="336.5" y1="480.3" x2="331.7" y2="483.1"/>
<line x1="333.3" y1="480.3" x2="318.6" y2="505.8"/>
<polygon points="229.200682 300.943378 233.200682 274.333449 225.200682 274.333449 " />
<line x1="229.2" y1="274.3" x2="254.7" y2="289.0"/>
<line x1="237.0" y1="448.1" x2="237.4" y2="447.4"/>
<line x1="240.2" y1="450.5" x2="241.0" y2="449.1"/>
<line x1="243.5" y1="452.8" x2="244.7" y2="450.7"/>
<line x1="246.7" y1="455.1" x2="248.3" y2="452.4"/>
<line x1="249.9" y1="457.5" x2="251.9" y2="454.0"/>
<line x1="253.2" y1="459.8" x2="255.6" y2="455.6"/>
<line x1="256.4" y1="462.1" x2="259.2" y2="457.3"/>
<line x1="259.2" y1="460.5" x2="298.9" y2="460.5"/>
<line x1="259.2" y1="460.5" x2="259.2" y2="431.1"/>
<line x1="116.8" y1="428.9" x2="116.3" y2="428.3"/>
<line x1="119.9" y1="426.4" x2="118.8" y2="425.2"/>
<line x1="123.0" y1="423.8" x2="121.3" y2="422.1"/>
<line x1="126.1" y1="421.3" x2="123.9" y2="419.1"/>
<line x1="129.2" y1="418.8" x2="126.4" y2="416.0"/>
<line x1="132.3" y1="416.3" x2="128.9" y2="412.9"/>
<line x1="135.4" y1="413.7" x2="131.4" y2="409.8"/>
<line x1="134.5" y1="410.6" x2="142.1" y2="439.0"/>
<line x1="147.4" y1="227.6" x2="147.8" y2="226.9"/>
<line x1="150.7" y1="229.9" x2="151.5" y2="228.5"/>
<line x1="153.9" y1="232.2" x2="155.1" y2="230.2"/>
<line x1="157.1" y1="234.6" x2="158.7" y2="231.8"/>
<line x1="160.4" y1="236.9" x2="162.4" y2="233.4"/>
<line x1="163.6" y1="239.2" x2="166.0" y2="235.1"/>
<line x1="166.9" y1="241.6" x2="169.7" y2="236.7"/>
<line x1="169.6" y1="239.9" x2="144.2" y2="254.6"/>
<line x1="179.9" y1="424.8" x2="179.1" y2="425.0"/>
<line x1="179.2" y1="420.9" x2="177.7" y2="421.3"/>
<line x1="178.6" y1="416.9" x2="176.3" y2="417.5"/>
<line x1="177.9" y1="413.0" x2="174.8" y2="413.8"/>
<line x1="177.3" y1="409.0" x2="173.4" y2="410.1"/>
<line x1="176.7" y1="405.1" x2="172.0" y2="406.3"/>
<line x1="176.0" y1="401.2" x2="170.6" y2="402.6"/>
<line x1="172.9" y1="400.4" x2="201.3" y2="408.0"/>
<line x1="426.4" y1="352.8" x2="426.4" y2="352.0"/>
<line x1="430.4" y1="353.2" x2="430.4" y2="351.6"/>
<line x1="434.3" y1="353.6" x2="434.3" y2="351.2"/>
<line x1="438.3" y1="354.0" x2="438.3" y2="350.8"/>
<line x1="442.3" y1="354.4" x2="442.3" y2="350.4"/>
<line x1="446.2" y1="354.8" x2="446.2" y2="350.0"/>
<line x1="450.2" y1="355.2" x2="450.2" y2="349.6"/>
<line x1="451.8" y1="352.4" x2="437.1" y2="377.9"/>
<polygon points="208.875926 368.878747 184.207984 358.127888 182.137432 365.855294 " />
<line x1="183.2" y1="362.0" x2="204.0" y2="341.2"/>
<polygon points="472.896385 395.315804 489.665451 374.270929 482.737248 370.270929 " />
<line x1="486.2" y1="372.3" x2="500.9" y2="397.7"/>
<polygon points="357.260716 332.088017 368.011576 307.420075 360.284169 305.349523 " />
<line x1="364.1" y1="306.4" x2="384.9" y2="327.2"/>
<polygon points="438.501050 289.651586 448.341913 314.696461 455.270116 310.696461 " />
<line x1="451.8" y1="312.7" x2="422.4" y2="312.7"/>
<line x1="297.2" y1="240.1" x2="297.8" y2="239.5"/>
<line x1="299.8" y1="243.1" x2="300.9" y2="242.0"/>
<line x1="302.3" y1="246.2" x2="304.0" y2="244.5"/>
<line x1="304.8" y1="249.3" x2="307.1" y2="247.1"/>
<line x1="307.4" y1="252.4" x2="310.2" y2="249.6"/>
<line x1="309.9" y1="255.5" x2="313.3" y2="252.1"/>
<line x1="312.4" y1="258.6" x2="316.4" y2="254.6"/>
<line x1="315.5" y1="257.7" x2="287.1" y2="265.3"/>
<line x1="167.7" y1="287.4" x2="167.3" y2="286.7"/>
<line x1="171.3" y1="285.7" x2="170.5" y2="284.4"/>
<line x1="175.0" y1="284.1" x2="173.8" y2="282.0"/>
<line x1="178.6" y1="282.5" x2="177.0" y2="279.7"/>
<line x1="182.2" y1="280.8" x2="180.2" y2="277.4"/>
<line x1="185.9" y1="279.2" x2="183.5" y2="275.0"/>
<line x1="189.5" y1="277.6" x2="186.7" y2="272.7"/>
<line x1="189.5" y1="274.3" x2="189.5" y2="303.7"/>
<polygon points="285.609559 483.534501 302.378625 462.489626 295.450422 458.489626 " />
<line x1="301.3" y1="303.1" x2="301.1" y2="302.3"/>
<line x1="305.3" y1="302.4" x2="304.9" y2="300.9"/>
<line x1="309.2" y1="301.8" x2="308.6" y2="299.5"/>
<line x1="313.2" y1="301.1" x2="312.3" y2="298.1"/>
<line x1="317.1" y1="300.5" x2="316.1" y2="296.6"/>
<line x1="321.0" y1="299.9" x2="319.8" y2="295.2"/>
<line x1="325.0" y1="299.2" x2="323.5" y2="293.8"/>
<line x1="325.8" y1="296.1" x2="310.6" y2="352.9"/>
<line x1="258.4" y1="216.3" x2="259.2" y2="216.6"/>
<line x1="256.5" y1="219.8" x2="258.0" y2="220.4"/>
<line x1="254.6" y1="223.3" x2="256.9" y2="224.3"/>
<line x1="252.7" y1="226.9" x2="255.7" y2="228.1"/>
<line x1="250.9" y1="230.4" x2="254.6" y2="231.9"/>
<line x1="249.0" y1="233.9" x2="253.4" y2="235.7"/>
<line x1="247.1" y1="237.4" x2="252.3" y2="239.5"/>
<line x1="249.1" y1="239.9" x2="269.8" y2="260.7"/>
<line x1="540.5" y1="336.6" x2="541.0" y2="337.3"/>
<line x1="537.1" y1="338.7" x2="538.1" y2="340.0"/>
<line x1="533.7" y1="340.8" x2="535.2" y2="342.7"/>
<line x1="530.3" y1="342.9" x2="532.3" y2="345.5"/>
<line x1="526.9" y1="345.0" x2="529.4" y2="348.2"/>
<line x1="523.5" y1="347.1" x2="526.5" y2="350.9"/>
<line x1="520.2" y1="349.2" x2="523.6" y2="353.7"/>
<line x1="520.6" y1="352.4" x2="528.2" y2="380.8"/>
<line x1="134.7" y1="318.8" x2="135.2" y2="318.1"/>
<line x1="137.6" y1="321.5" x2="138.6" y2="320.2"/>
<line x1="140.5" y1="324.2" x2="142.0" y2="322.3"/>
<line x1="143.4" y1="327.0" x2="145.3" y2="324.4"/>
<line x1="146.3" y1="329.7" x2="148.7" y2="326.5"/>
<line x1="149.2" y1="332.4" x2="152.1" y2="328.6"/>
<line x1="152.1" y1="335.2" x2="155.5" y2="330.7"/>
<line x1="155.1" y1="333.9" x2="180.5" y2="319.2"/>
<line x1="407.4" y1="257.9" x2="408.0" y2="258.4"/>
<line x1="404.7" y1="260.8" x2="405.9" y2="261.8"/>
<line x1="401.9" y1="263.7" x2="403.8" y2="265.2"/>
<line x1="399.2" y1="266.6" x2="401.7" y2="268.6"/>
<line x1="396.4" y1="269.5" x2="399.6" y2="272.0"/>
<line x1="393.7" y1="272.4" x2="397.5" y2="275.4"/>
<line x1="391.0" y1="275.3" x2="395.4" y2="278.7"/>
<line x1="392.2" y1="278.3" x2="406.9" y2="303.8"/>
<polygon points="333.309859 400.915158 371.533680 389.411901 368.472213 382.020865 " />
<line x1="371.8" y1="383.3" x2="395.1" y2="401.2"/>
<line x1="368.2" y1="388.1" x2="391.5" y2="406.0"/>
<line x1="370.0" y1="385.7" x2="373.8" y2="356.6"/>
<line x1="333.3" y1="400.9" x2="312.5" y2="380.1"/>
<line x1="172.9" y1="400.4" x2="183.2" y2="362.0"/>
<line x1="183.2" y1="362.0" x2="155.1" y2="333.9"/>
<line x1="155.1" y1="333.9" x2="126.7" y2="341.5"/>
<line x1="114.1" y1="354.2" x2="106.4" y2="382.6"/>
<line x1="106.4" y1="382.6" x2="134.5" y2="410.6"/>
<line x1="134.5" y1="410.6" x2="172.9" y2="400.4"/>
<line x1="229.2" y1="274.3" x2="249.1" y2="239.9"/>
<line x1="249.1" y1="239.9" x2="234.4" y2="214.5"/>
<line x1="218.9" y1="205.5" x2="189.5" y2="205.5"/>
<line x1="189.5" y1="205.5" x2="169.6" y2="239.9"/>
<line x1="169.6" y1="239.9" x2="189.5" y2="274.3"/>
<line x1="189.5" y1="274.3" x2="229.2" y2="274.3"/>
<line x1="451.8" y1="352.4" x2="486.2" y2="372.3"/>
<line x1="486.2" y1="372.3" x2="520.6" y2="352.4"/>
<line x1="520.6" y1="352.4" x2="520.6" y2="323.0"/>
<line x1="511.7" y1="307.5" x2="486.2" y2="292.8"/>
<line x1="486.2" y1="292.8" x2="451.8" y2="312.7"/>
<line x1="451.8" y1="312.7" x2="451.8" y2="352.4"/>
<line x1="364.1" y1="306.4" x2="392.2" y2="278.3"/>
<line x1="392.2" y1="278.3" x2="384.6" y2="249.9"/>
<line x1="372.0" y1="237.3" x2="343.6" y2="229.7"/>
<line x1="343.6" y1="229.7" x2="315.5" y2="257.7"/>
<line x1="315.5" y1="257.7" x2="325.8" y2="296.1"/>
<line x1="325.8" y1="296.1" x2="364.1" y2="306.4"/>
<line x1="367.7" y1="420.8" x2="367.7" y2="460.5"/>
<line x1="367.7" y1="460.5" x2="333.3" y2="480.3"/>
<line x1="333.3" y1="480.3" x2="298.9" y2="460.5"/>
<line x1="298.9" y1="460.5" x2="298.9" y2="431.1"/>
<line x1="307.9" y1="415.6" x2="333.3" y2="400.9"/>
<line x1="333.3" y1="400.9" x2="367.7" y2="420.8"/>
<text x="983.420180" y="48.320000" fill="rgb(102,102,102)"  stroke="rgb(102,102,102)" stroke-width="1" font-size="16" >H</text>
<text x="995.420180" y="56.000000" fill="rgb(102,102,102)"  stroke="rgb(102,102,102)" stroke-width="1" font-size="13" >3</text>
<text x="1001.920180" y="48.320000" fill="rgb(102,102,102)"  stroke="rgb(102,102,102)" stroke-width="1" font-size="16" >C</text>
<text x="990.002818" y="621.010833" fill="rgb(102,102,102)"  stroke="rgb(102,102,102)" stroke-width="1" font-size="16" >CH</text>
<text x="1014.002818" y="628.690833" fill="rgb(102,102,102)"  stroke="rgb(102,102,102)" stroke-width="1" font-size="13" >3</text>
<text x="289.851703" y="588.333788" fill="rgb(102,102,102)"  stroke="rgb(102,102,102)" stroke-width="1" font-size="16" >H</text>
<text x="301.851703" y="593.133788" fill="rgb(102,102,102)"  stroke="rgb(102,102,102)" stroke-width="1" font-size="13" >3</text>
<text x="308.351703" y="588.333788" fill="rgb(102,102,102)"  stroke="rgb(102,102,102)" stroke-width="1" font-size="16" >C</text>
<text x="205.600682" y="358.566073" fill="rgb(102,102,102)"  stroke="rgb(102,102,102)" stroke-width="1" font-size="16" >H</text>
<text x="217.600682" y="363.366073" fill="rgb(102,102,102)"  stroke="rgb(102,102,102)" stroke-width="1" font-size="13" >3</text>
<text x="224.100682" y="358.566073" fill="rgb(102,102,102)"  stroke="rgb(102,102,102)" stroke-width="1" font-size="16" >C</text>
<text x="309.851703" y="523.063117" fill="rgb(12,12,255)"  stroke="rgb(12,12,255)" stroke-width="1" font-size="16" >N</text>
<text x="257.596017" y="302.511605" fill="rgb(12,12,255)"  stroke="rgb(12,12,255)" stroke-width="1" font-size="16" >N</text>
<text x="611.881384" y="437.458796" fill="rgb(12,12,255)"  stroke="rgb(12,12,255)" stroke-width="1" font-size="16" >N</text>
<text x="164.165587" y="534.080296" fill="rgb(255,12,12)"  stroke="rgb(255,12,12)" stroke-width="1" font-size="16" >HO</text>
<text x="24.400000" y="408.674603" fill="rgb(255,12,12)"  stroke="rgb(255,12,12)" stroke-width="1" font-size="16" >HO</text>
<text x="149.089035" y="154.288311" fill="rgb(255,12,12)"  stroke="rgb(255,12,12)" stroke-width="1" font-size="16" >OH</text>
<text x="480.201349" y="232.367634" fill="rgb(255,12,12)"  stroke="rgb(255,12,12)" stroke-width="1" font-size="16" >OH</text>
<text x="319.784861" y="171.532091" fill="rgb(255,12,12)"  stroke="rgb(255,12,12)" stroke-width="1" font-size="16" >OH</text>
<text x="367.026171" y="553.938452" fill="rgb(255,12,12)"  stroke="rgb(255,12,12)" stroke-width="1" font-size="16" >OH</text>
<text x="291.991352" y="358.566073" fill="rgb(255,12,12)"  stroke="rgb(255,12,12)" stroke-width="1" font-size="16" >OH</text>
<text x="515.276023" y="419.654460" fill="rgb(255,12,12)"  stroke="rgb(255,12,12)" stroke-width="1" font-size="16" >HO</text>
<text x="381.563350" y="499.684961" fill="rgb(255,12,12)"  stroke="rgb(255,12,12)" stroke-width="1" font-size="16" >OH</text>
<text x="267.735391" y="519.543117" fill="rgb(255,12,12)"  stroke="rgb(255,12,12)" stroke-width="1" font-size="16" >OH</text>
<text x="620.085719" y="500.385481" fill="rgb(255,12,12)"  stroke="rgb(255,12,12)" stroke-width="1" font-size="16" >HO</text>
<text x="253.198211" y="429.093314" fill="rgb(255,12,12)"  stroke="rgb(255,12,12)" stroke-width="1" font-size="16" >OH</text>
<text x="138.809697" y="453.796952" fill="rgb(255,12,12)"  stroke="rgb(255,12,12)" stroke-width="1" font-size="16" >OH</text>
<text x="119.630879" y="264.596270" fill="rgb(255,12,12)"  stroke="rgb(255,12,12)" stroke-width="1" font-size="16" >HO</text>
<text x="205.256382" y="415.433941" fill="rgb(255,12,12)"  stroke="rgb(255,12,12)" stroke-width="1" font-size="16" >OH</text>
<text x="416.347858" y="391.608108" fill="rgb(255,12,12)"  stroke="rgb(255,12,12)" stroke-width="1" font-size="16" >HO</text>
<text x="205.256382" y="342.227917" fill="rgb(255,12,12)"  stroke="rgb(255,12,12)" stroke-width="1" font-size="16" >OH</text>
<text x="500.059505" y="411.466264" fill="rgb(255,12,12)"  stroke="rgb(255,12,12)" stroke-width="1" font-size="16" >OH</text>
<text x="386.231546" y="339.268473" fill="rgb(255,12,12)"  stroke="rgb(255,12,12)" stroke-width="1" font-size="16" >OH</text>
<text x="395.512015" y="414.694142" fill="rgb(255,12,12)"  stroke="rgb(255,12,12)" stroke-width="1" font-size="16" >O</text>
<text x="369.186965" y="354.659850" fill="rgb(255,12,12)"  stroke="rgb(255,12,12)" stroke-width="1" font-size="16" >OH</text>
<text x="527.276023" y="395.575784" fill="rgb(255,12,12)"  stroke="rgb(255,12,12)" stroke-width="1" font-size="16" >O</text>
<text x="223.200682" y="213.862779" fill="rgb(255,12,12)"  stroke="rgb(255,12,12)" stroke-width="1" font-size="16" >O</text>
<text x="113.126023" y="352.507255" fill="rgb(255,12,12)"  stroke="rgb(255,12,12)" stroke-width="1" font-size="16" >O</text>
<text x="514.596685" y="321.016461" fill="rgb(255,12,12)"  stroke="rgb(255,12,12)" stroke-width="1" font-size="16" >O</text>
<text x="375.952208" y="248.258114" fill="rgb(255,12,12)"  stroke="rgb(255,12,12)" stroke-width="1" font-size="16" >O</text>
<text x="408.489702" y="317.496461" fill="rgb(255,12,12)"  stroke="rgb(255,12,12)" stroke-width="1" font-size="16" >O</text>
<text x="273.542511" y="272.821788" fill="rgb(255,12,12)"  stroke="rgb(255,12,12)" stroke-width="1" font-size="16" >O</text>
<text x="183.484370" y="318.849761" fill="rgb(255,12,12)"  stroke="rgb(255,12,12)" stroke-width="1" font-size="16" >O</text>
<text x="295.314523" y="429.093314" fill="rgb(255,12,12)"  stroke="rgb(255,12,12)" stroke-width="1" font-size="16" >O</text>
<text x="301.626185" y="377.631484" fill="rgb(255,12,12)"  stroke="rgb(255,12,12)" stroke-width="1" font-size="16" >O</text>
<text x="545.080358" y="559.307169" fill="rgb(191,191,191)"  stroke="rgb(191,191,191)" stroke-width="1" font-size="16" >H</text>
<text x="488.913011" y="503.139821" fill="rgb(191,191,191)"  stroke="rgb(191,191,191)" stroke-width="1" font-size="16" >H</text>
<text x="583.797710" y="482.581146" fill="rgb(191,191,191)"  stroke="rgb(191,191,191)" stroke-width="1" font-size="16" >H</text>
<text x="499.192349" y="447.738134" fill="rgb(191,191,191)"  stroke="rgb(191,191,191)" stroke-width="1" font-size="16" >H</text>
<text x="401.421506" y="465.289626" fill="rgb(191,191,191)"  stroke="rgb(191,191,191)" stroke-width="1" font-size="16" >H</text>
<text x="233.340055" y="539.401273" fill="rgb(191,191,191)"  stroke="rgb(191,191,191)" stroke-width="1" font-size="16" >H</text>
<text x="64.483674" y="380.590929" fill="rgb(191,191,191)"  stroke="rgb(191,191,191)" stroke-width="1" font-size="16" >H</text>
<text x="183.484370" y="174.146467" fill="rgb(191,191,191)"  stroke="rgb(191,191,191)" stroke-width="1" font-size="16" >H</text>
<text x="500.059505" y="266.762970" fill="rgb(191,191,191)"  stroke="rgb(191,191,191)" stroke-width="1" font-size="16" >H</text>
<text x="347.868535" y="199.615765" fill="rgb(191,191,191)"  stroke="rgb(191,191,191)" stroke-width="1" font-size="16" >H</text>
<text x="347.168015" y="519.543117" fill="rgb(191,191,191)"  stroke="rgb(191,191,191)" stroke-width="1" font-size="16" >H</text>
<text x="223.200682" y="318.849761" fill="rgb(191,191,191)"  stroke="rgb(191,191,191)" stroke-width="1" font-size="16" >H</text>
<text x="221.202876" y="448.951470" fill="rgb(191,191,191)"  stroke="rgb(191,191,191)" stroke-width="1" font-size="16" >H</text>
<text x="102.846685" y="443.517614" fill="rgb(191,191,191)"  stroke="rgb(191,191,191)" stroke-width="1" font-size="16" >H</text>
<text x="131.630879" y="228.399958" fill="rgb(191,191,191)"  stroke="rgb(191,191,191)" stroke-width="1" font-size="16" >H</text>
<text x="177.172708" y="443.517614" fill="rgb(191,191,191)"  stroke="rgb(191,191,191)" stroke-width="1" font-size="16" >H</text>
<text x="408.489702" y="357.212773" fill="rgb(191,191,191)"  stroke="rgb(191,191,191)" stroke-width="1" font-size="16" >H</text>
<text x="215.535720" y="377.070929" fill="rgb(191,191,191)"  stroke="rgb(191,191,191)" stroke-width="1" font-size="16" >H</text>
<text x="462.743193" y="411.466264" fill="rgb(191,191,191)"  stroke="rgb(191,191,191)" stroke-width="1" font-size="16" >H</text>
<text x="350.268535" y="349.547811" fill="rgb(191,191,191)"  stroke="rgb(191,191,191)" stroke-width="1" font-size="16" >H</text>
<text x="428.347858" y="286.621126" fill="rgb(191,191,191)"  stroke="rgb(191,191,191)" stroke-width="1" font-size="16" >H</text>
<text x="283.821849" y="237.978776" fill="rgb(191,191,191)"  stroke="rgb(191,191,191)" stroke-width="1" font-size="16" >H</text>
<text x="151.489035" y="298.991605" fill="rgb(191,191,191)"  stroke="rgb(191,191,191)" stroke-width="1" font-size="16" >H</text>
<text x="275.456367" y="499.684961" fill="rgb(191,191,191)"  stroke="rgb(191,191,191)" stroke-width="1" font-size="16" >H</text>
<text x="283.821849" y="311.184799" fill="rgb(191,191,191)"  stroke="rgb(191,191,191)" stroke-width="1" font-size="16" >H</text>
<text x="258.257613" y="211.565026" fill="rgb(191,191,191)"  stroke="rgb(191,191,191)" stroke-width="1" font-size="16" >H</text>
<text x="546.105753" y="336.555014" fill="rgb(191,191,191)"  stroke="rgb(191,191,191)" stroke-width="1" font-size="16" >H</text>
<text x="119.979966" y="318.050159" fill="rgb(191,191,191)"  stroke="rgb(191,191,191)" stroke-width="1" font-size="16" >H</text>
<text x="410.409305" y="255.112057" fill="rgb(191,191,191)"  stroke="rgb(191,191,191)" stroke-width="1" font-size="16" >H</text>
<text font-size="18.000000" fill ="black" font-family="sans-serif"
x="140.000000" y="20.000000" ></text>
<title> - OBDepict</title>
</svg>
