<?xml version="1.0"?>
<svg xmlns="http://www.w3.org/2000/svg"
xmlns:xlink="http://www.w3.org/1999/xlink" xmlns:cml="http://www.xml-cml.org/schema" width="379.824" height="338.891" x="0" y="0" font-family="sans-serif" stroke="rgb(0,0,0)" stroke-width="1" >
<line x1="268.1" y1="117.7" x2="268.7" y2="118.3"/>
<line x1="264.7" y1="121.3" x2="265.9" y2="122.3"/>
<line x1="261.3" y1="124.8" x2="263.1" y2="126.3"/>
<line x1="257.8" y1="128.3" x2="260.3" y2="130.4"/>
<line x1="254.4" y1="131.8" x2="257.5" y2="134.4"/>
<line x1="251.0" y1="135.4" x2="254.7" y2="138.4"/>
<line x1="247.6" y1="138.9" x2="251.9" y2="142.5"/>
<line x1="99.3" y1="260.7" x2="98.6" y2="260.2"/>
<line x1="102.3" y1="256.8" x2="100.9" y2="255.9"/>
<line x1="105.3" y1="252.9" x2="103.3" y2="251.6"/>
<line x1="108.3" y1="249.0" x2="105.6" y2="247.2"/>
<line x1="111.2" y1="245.1" x2="107.9" y2="242.9"/>
<line x1="114.2" y1="241.2" x2="110.2" y2="238.6"/>
<line x1="117.2" y1="237.3" x2="112.5" y2="234.2"/>
<line x1="324.1" y1="135.0" x2="324.5" y2="135.7"/>
<line x1="319.6" y1="136.9" x2="320.4" y2="138.4"/>
<line x1="315.1" y1="138.9" x2="316.3" y2="141.0"/>
<line x1="310.7" y1="140.9" x2="312.2" y2="143.7"/>
<line x1="306.2" y1="142.9" x2="308.1" y2="146.4"/>
<line x1="301.7" y1="144.9" x2="303.9" y2="149.1"/>
<line x1="297.2" y1="146.8" x2="299.8" y2="151.8"/>
<line x1="296.8" y1="150.2" x2="327.6" y2="169.2"/>
<polygon points="157.830041 194.315461 127.425251 207.250873 131.425251 214.179076 " />
<line x1="129.4" y1="210.7" x2="160.8" y2="228.8"/>
<line x1="237.2" y1="186.7" x2="236.4" y2="186.7"/>
<line x1="237.7" y1="181.8" x2="236.1" y2="181.8"/>
<line x1="238.2" y1="176.9" x2="235.8" y2="176.9"/>
<line x1="238.7" y1="172.1" x2="235.5" y2="172.0"/>
<line x1="239.2" y1="167.2" x2="235.2" y2="167.1"/>
<line x1="239.7" y1="162.3" x2="234.9" y2="162.2"/>
<line x1="240.1" y1="157.4" x2="234.5" y2="157.3"/>
<line x1="237.4" y1="155.4" x2="205.7" y2="172.9"/>
<polygon points="115.915839 154.516961 111.915839 187.315988 119.915839 187.315988 " />
<line x1="115.9" y1="187.3" x2="147.3" y2="169.2"/>
<line x1="161.4" y1="88.7" x2="157.4" y2="52.7"/>
<polygon points="204.835772 69.022325 210.305464 101.608498 217.976751 99.338836 " />
<line x1="57.6" y1="189.2" x2="57.6" y2="188.4"/>
<line x1="62.5" y1="189.4" x2="62.5" y2="187.8"/>
<line x1="67.4" y1="189.6" x2="67.3" y2="187.2"/>
<line x1="72.3" y1="189.7" x2="72.2" y2="186.5"/>
<line x1="77.3" y1="189.9" x2="77.1" y2="185.9"/>
<line x1="82.2" y1="190.0" x2="81.9" y2="185.2"/>
<line x1="87.1" y1="190.2" x2="86.8" y2="184.6"/>
<line x1="249.4" y1="255.0" x2="240.0" y2="233.5"/>
<line x1="254.9" y1="252.6" x2="245.5" y2="231.1"/>
<line x1="273.6" y1="224.6" x2="250.3" y2="222.0"/>
<line x1="181.4" y1="285.8" x2="187.2" y2="263.0"/>
<line x1="187.2" y1="287.3" x2="193.0" y2="264.5"/>
<line x1="219.2" y1="276.7" x2="202.3" y2="260.3"/>
<line x1="135.1" y1="96.1" x2="100.7" y2="84.7"/>
<line x1="81.0" y1="91.0" x2="59.6" y2="120.2"/>
<line x1="86.2" y1="96.1" x2="68.9" y2="119.6"/>
<line x1="59.6" y1="120.2" x2="80.7" y2="149.6"/>
<line x1="100.3" y1="156.1" x2="134.8" y2="145.1"/>
<line x1="134.8" y1="145.1" x2="135.1" y2="96.1"/>
<line x1="127.6" y1="139.0" x2="127.8" y2="102.1"/>
<line x1="248.5" y1="142.2" x2="296.8" y2="150.2"/>
<line x1="296.8" y1="150.2" x2="237.4" y2="155.4"/>
<line x1="237.4" y1="155.4" x2="214.1" y2="100.5"/>
<line x1="214.1" y1="100.5" x2="229.4" y2="113.8"/>
<line x1="238.4" y1="124.6" x2="248.5" y2="142.2"/>
<line x1="115.9" y1="234.1" x2="129.4" y2="210.7"/>
<line x1="129.4" y1="210.7" x2="115.9" y2="187.3"/>
<line x1="115.9" y1="187.3" x2="88.9" y2="187.3"/>
<line x1="88.9" y1="187.3" x2="96.0" y2="206.3"/>
<line x1="103.0" y1="218.5" x2="115.9" y2="234.1"/>
<line x1="181.7" y1="89.8" x2="161.4" y2="88.7"/>
<line x1="178.0" y1="96.8" x2="167.0" y2="96.2"/>
<line x1="161.4" y1="88.7" x2="135.1" y2="96.1"/>
<line x1="134.8" y1="145.1" x2="127.2" y2="117.6"/>
<line x1="131.5" y1="100.8" x2="151.5" y2="80.5"/>
<line x1="138.2" y1="104.3" x2="152.4" y2="89.8"/>
<line x1="151.5" y1="80.5" x2="179.1" y2="87.7"/>
<line x1="223.1" y1="234.8" x2="232.5" y2="225.6"/>
<line x1="240.8" y1="214.3" x2="246.8" y2="202.6"/>
<line x1="251.0" y1="189.1" x2="253.7" y2="169.1"/>
<line x1="253.7" y1="169.1" x2="248.5" y2="142.2"/>
<line x1="214.1" y1="100.5" x2="195.4" y2="92.8"/>
<line x1="88.3" y1="167.1" x2="88.9" y2="187.3"/>
<line x1="115.9" y1="234.1" x2="139.3" y2="248.5"/>
<line x1="139.3" y1="248.5" x2="159.0" y2="252.9"/>
<line x1="173.1" y1="253.7" x2="186.1" y2="252.2"/>
<line x1="199.6" y1="248.4" x2="211.5" y2="242.8"/>
<text x="132.426051" y="48.320000" fill="rgb(12,12,255)"  stroke="rgb(12,12,255)" stroke-width="1" font-size="16" >H</text>
<text x="144.426051" y="56.000000" fill="rgb(12,12,255)"  stroke="rgb(12,12,255)" stroke-width="1" font-size="13" >2</text>
<text x="150.926051" y="48.320000" fill="rgb(12,12,255)"  stroke="rgb(12,12,255)" stroke-width="1" font-size="16" >N</text>
<text x="84.978798" y="89.046305" fill="rgb(12,12,255)"  stroke="rgb(12,12,255)" stroke-width="1" font-size="16" >N</text>
<text x="120.906215" y="116.285050" fill="rgb(12,12,255)"  stroke="rgb(12,12,255)" stroke-width="1" font-size="16" >N</text>
<text x="183.962193" y="109.365642" fill="rgb(12,12,255)"  stroke="rgb(12,12,255)" stroke-width="1" font-size="16" >+</text>
<text x="182.762193" y="94.965642" fill="rgb(12,12,255)"  stroke="rgb(12,12,255)" stroke-width="1" font-size="16" >N</text>
<text x="84.542236" y="164.733968" fill="rgb(12,12,255)"  stroke="rgb(12,12,255)" stroke-width="1" font-size="16" >N</text>
<text x="332.495880" y="180.661640" fill="rgb(255,12,12)"  stroke="rgb(255,12,12)" stroke-width="1" font-size="16" >OH</text>
<text x="165.820460" y="239.991861" fill="rgb(255,12,12)"  stroke="rgb(255,12,12)" stroke-width="1" font-size="16" >OH</text>
<text x="178.940361" y="183.868437" fill="rgb(255,12,12)"  stroke="rgb(255,12,12)" stroke-width="1" font-size="16" >HO</text>
<text x="152.311049" y="171.159102" fill="rgb(255,12,12)"  stroke="rgb(255,12,12)" stroke-width="1" font-size="16" >OH</text>
<text x="251.279009" y="270.274915" fill="rgb(255,12,12)"  stroke="rgb(255,12,12)" stroke-width="1" font-size="16" >O</text>
<text x="281.471159" y="245.229674" fill="rgb(255,12,12)"  stroke="rgb(255,12,12)" stroke-width="1" font-size="32" >-</text>
<text x="280.271159" y="230.829674" fill="rgb(255,12,12)"  stroke="rgb(255,12,12)" stroke-width="1" font-size="16" >O</text>
<text x="177.590124" y="303.691243" fill="rgb(255,12,12)"  stroke="rgb(255,12,12)" stroke-width="1" font-size="16" >O</text>
<text x="223.496772" y="304.770752" fill="rgb(255,12,12)"  stroke="rgb(255,12,12)" stroke-width="1" font-size="32" >-</text>
<text x="222.296772" y="290.370752" fill="rgb(255,12,12)"  stroke="rgb(255,12,12)" stroke-width="1" font-size="16" >O</text>
<text x="243.983095" y="201.003354" fill="rgb(255,12,12)"  stroke="rgb(255,12,12)" stroke-width="1" font-size="16" >O</text>
<text x="162.381398" y="259.248835" fill="rgb(255,12,12)"  stroke="rgb(255,12,12)" stroke-width="1" font-size="16" >O</text>
<text x="228.797913" y="126.783694" fill="rgb(255,12,12)"  stroke="rgb(255,12,12)" stroke-width="1" font-size="16" >O</text>
<text x="94.901827" y="217.769297" fill="rgb(255,12,12)"  stroke="rgb(255,12,12)" stroke-width="1" font-size="16" >O</text>
<text x="211.980095" y="244.545004" fill="rgb(255,12,12)"  stroke="rgb(255,12,12)" stroke-width="1" font-size="16" >O</text>
<text x="234.014503" y="228.964357" fill="rgb(255,127,0)"  stroke="rgb(255,127,0)" stroke-width="1" font-size="16" >P</text>
<text x="189.607564" y="259.755443" fill="rgb(255,127,0)"  stroke="rgb(255,127,0)" stroke-width="1" font-size="16" >P</text>
<text x="273.615198" y="112.717994" fill="rgb(191,191,191)"  stroke="rgb(191,191,191)" stroke-width="1" font-size="16" >H</text>
<text x="85.826450" y="280.081717" fill="rgb(191,191,191)"  stroke="rgb(191,191,191)" stroke-width="1" font-size="16" >H</text>
<text x="333.823797" y="135.245882" fill="rgb(191,191,191)"  stroke="rgb(191,191,191)" stroke-width="1" font-size="16" >H</text>
<text x="165.820460" y="194.558089" fill="rgb(191,191,191)"  stroke="rgb(191,191,191)" stroke-width="1" font-size="16" >H</text>
<text x="232.876038" y="209.124540" fill="rgb(191,191,191)"  stroke="rgb(191,191,191)" stroke-width="1" font-size="16" >H</text>
<text x="109.915839" y="146.682216" fill="rgb(191,191,191)"  stroke="rgb(191,191,191)" stroke-width="1" font-size="16" >H</text>
<text x="196.652547" y="61.851366" fill="rgb(191,191,191)"  stroke="rgb(191,191,191)" stroke-width="1" font-size="16" >H</text>
<text x="36.400000" y="194.472594" fill="rgb(191,191,191)"  stroke="rgb(191,191,191)" stroke-width="1" font-size="16" >H</text>
<text font-size="18.000000" fill ="black" font-family="sans-serif"
x="140.000000" y="20.000000" ></text>
<title> - OBDepict</title>
</svg>
