<?xml version="1.0"?>
<svg xmlns="http://www.w3.org/2000/svg"
xmlns:xlink="http://www.w3.org/1999/xlink" xmlns:cml="http://www.xml-cml.org/schema" width="912.141" height="736.905" x="0" y="0" font-family="sans-serif" stroke="rgb(0,0,0)" stroke-width="1" >
<line x1="524.8" y1="370.2" x2="544.0" y2="391.6"/>
<line x1="552.8" y1="364.3" x2="544.0" y2="391.6"/>
<line x1="319.1" y1="141.9" x2="290.3" y2="167.8"/>
<line x1="319.1" y1="141.9" x2="311.1" y2="103.9"/>
<line x1="290.3" y1="167.8" x2="263.0" y2="159.0"/>
<line x1="293.2" y1="167.2" x2="301.3" y2="205.2"/>
<line x1="287.4" y1="168.5" x2="295.4" y2="206.4"/>
<line x1="311.1" y1="103.9" x2="283.8" y2="95.0"/>
<line x1="309.1" y1="101.7" x2="337.9" y2="75.7"/>
<line x1="313.1" y1="106.1" x2="341.9" y2="80.2"/>
<line x1="298.4" y1="205.8" x2="325.7" y2="214.7"/>
<line x1="298.4" y1="205.8" x2="269.5" y2="231.7"/>
<line x1="339.9" y1="78.0" x2="333.9" y2="49.9"/>
<line x1="339.9" y1="78.0" x2="376.8" y2="89.9"/>
<line x1="269.5" y1="231.7" x2="242.2" y2="222.9"/>
<line x1="272.5" y1="231.1" x2="280.5" y2="269.1"/>
<line x1="266.6" y1="232.4" x2="274.7" y2="270.3"/>
<line x1="376.8" y1="89.9" x2="384.9" y2="127.9"/>
<line x1="277.6" y1="269.7" x2="304.9" y2="278.6"/>
<line x1="277.6" y1="269.7" x2="248.8" y2="295.7"/>
<line x1="384.9" y1="127.9" x2="421.8" y2="139.9"/>
<line x1="248.8" y1="295.7" x2="254.7" y2="323.7"/>
<line x1="247.8" y1="298.5" x2="210.9" y2="286.5"/>
<line x1="249.7" y1="292.8" x2="212.8" y2="280.8"/>
<line x1="421.8" y1="139.9" x2="429.8" y2="177.8"/>
<line x1="115.9" y1="298.8" x2="153.9" y2="290.7"/>
<line x1="115.9" y1="298.8" x2="103.9" y2="335.7"/>
<line x1="153.9" y1="290.7" x2="165.8" y2="253.8"/>
<line x1="211.9" y1="283.7" x2="190.5" y2="302.9"/>
<line x1="211.9" y1="283.7" x2="203.8" y2="245.7"/>
<line x1="103.9" y1="335.7" x2="66.0" y2="343.7"/>
<line x1="429.8" y1="177.8" x2="401.0" y2="203.8"/>
<line x1="490.9" y1="303.7" x2="499.0" y2="341.6"/>
<line x1="490.9" y1="303.7" x2="454.0" y2="291.7"/>
<line x1="499.0" y1="341.6" x2="477.7" y2="360.8"/>
<line x1="388.3" y1="305.7" x2="380.2" y2="267.7"/>
<line x1="388.3" y1="305.7" x2="415.6" y2="314.5"/>
<line x1="380.2" y1="267.7" x2="401.6" y2="248.5"/>
<line x1="693.7" y1="399.4" x2="709.8" y2="475.3"/>
<line x1="693.7" y1="399.4" x2="715.0" y2="380.2"/>
<line x1="224.6" y1="181.8" x2="216.5" y2="143.8"/>
<line x1="224.6" y1="181.8" x2="203.2" y2="201.0"/>
<line x1="617.8" y1="415.6" x2="544.0" y2="391.6"/>
<line x1="617.8" y1="415.6" x2="639.1" y2="396.3"/>
<polygon points="224.531645 119.125405 212.694213 142.613002 220.302665 145.085138 " />
<line x1="216.5" y1="143.8" x2="179.6" y2="131.9"/>
<line x1="216.5" y1="143.8" x2="244.6" y2="137.9"/>
<polygon points="141.122575 245.749359 164.610172 257.586791 167.082308 249.978339 " />
<line x1="165.8" y1="253.8" x2="203.8" y2="245.7"/>
<line x1="165.8" y1="253.8" x2="159.9" y2="225.7"/>
<polygon points="685.090798 467.293272 708.578395 479.130704 711.050531 471.522252 " />
<polygon points="229.226292 240.310719 202.966720 241.803001 204.630014 249.628182 " />
<line x1="203.8" y1="245.7" x2="197.8" y2="217.6"/>
<line x1="456.0" y1="293.9" x2="434.7" y2="313.1"/>
<line x1="452.0" y1="289.5" x2="430.7" y2="308.7"/>
<line x1="454.0" y1="291.7" x2="448.1" y2="263.6"/>
<line x1="68.8" y1="344.6" x2="59.9" y2="372.0"/>
<line x1="63.1" y1="342.8" x2="54.2" y2="370.1"/>
<line x1="66.0" y1="343.7" x2="46.8" y2="322.4"/>
<line x1="400.1" y1="206.7" x2="372.8" y2="197.8"/>
<line x1="401.9" y1="200.9" x2="374.6" y2="192.1"/>
<line x1="401.0" y1="203.8" x2="407.0" y2="231.9"/>
<polygon points="788.906959 498.683132 762.947226 502.912111 765.419362 510.520564 " />
<line x1="764.2" y1="506.7" x2="785.5" y2="525.9"/>
<polygon points="748.401912 445.274774 744.401912 471.270774 752.401912 471.270774 " />
<line x1="748.4" y1="471.3" x2="773.3" y2="456.9"/>
<line x1="515.1" y1="417.5" x2="506.3" y2="444.8"/>
<line x1="515.1" y1="417.5" x2="478.2" y2="405.5"/>
<line x1="515.1" y1="417.5" x2="544.0" y2="391.6"/>
<line x1="515.1" y1="417.5" x2="534.4" y2="438.9"/>
<line x1="835.9" y1="672.5" x2="862.7" y2="682.8"/>
<line x1="475.3" y1="406.2" x2="469.3" y2="378.1"/>
<line x1="481.2" y1="404.9" x2="475.2" y2="376.8"/>
<line x1="478.2" y1="405.5" x2="456.9" y2="424.8"/>
<polygon points="715.297276 549.222769 737.894922 535.764003 732.803627 529.593208 " />
<line x1="735.3" y1="532.7" x2="780.0" y2="568.8"/>
<line x1="181.6" y1="134.1" x2="160.3" y2="153.3"/>
<line x1="177.6" y1="129.6" x2="156.3" y2="148.8"/>
<line x1="179.6" y1="131.9" x2="173.6" y2="103.8"/>
<line x1="810.7" y1="413.1" x2="792.1" y2="413.1"/>
<line x1="782.0" y1="384.4" x2="782.0" y2="403.0"/>
<line x1="753.3" y1="410.1" x2="771.9" y2="410.1"/>
<line x1="753.3" y1="416.1" x2="771.9" y2="416.1"/>
<line x1="742.5" y1="329.5" x2="724.3" y2="333.4"/>
<line x1="711.4" y1="306.8" x2="715.3" y2="325.0"/>
<line x1="705.5" y1="308.0" x2="709.4" y2="326.3"/>
<line x1="632.6" y1="323.6" x2="636.4" y2="341.8"/>
<line x1="609.8" y1="354.7" x2="628.1" y2="350.8"/>
<line x1="611.1" y1="360.5" x2="629.3" y2="356.7"/>
<line x1="720.4" y1="363.6" x2="716.5" y2="345.4"/>
<line x1="644.5" y1="379.7" x2="640.6" y2="361.5"/>
<line x1="782.0" y1="441.8" x2="782.0" y2="423.2"/>
<line x1="686.4" y1="341.5" x2="704.6" y2="337.6"/>
<line x1="666.6" y1="345.7" x2="648.4" y2="349.5"/>
<line x1="833.1" y1="571.5" x2="805.4" y2="578.9"/>
<line x1="795.1" y1="591.6" x2="793.6" y2="620.3"/>
<line x1="793.6" y1="620.3" x2="829.8" y2="634.2"/>
<line x1="829.8" y1="634.2" x2="847.9" y2="611.9"/>
<line x1="848.8" y1="595.6" x2="833.1" y2="571.5"/>
<line x1="841.6" y1="597.7" x2="830.4" y2="580.4"/>
<line x1="709.8" y1="475.3" x2="748.4" y2="471.3"/>
<line x1="748.4" y1="471.3" x2="764.2" y2="506.7"/>
<line x1="764.2" y1="506.7" x2="735.3" y2="532.7"/>
<line x1="735.3" y1="532.7" x2="710.5" y2="518.3"/>
<line x1="703.8" y1="503.4" x2="709.8" y2="475.3"/>
<line x1="793.6" y1="620.3" x2="771.3" y2="638.3"/>
<line x1="793.5" y1="629.6" x2="777.5" y2="642.6"/>
<line x1="765.1" y1="654.6" x2="769.5" y2="683.0"/>
<line x1="769.5" y1="683.0" x2="796.3" y2="693.3"/>
<line x1="777.7" y1="678.4" x2="796.9" y2="685.8"/>
<line x1="813.6" y1="690.6" x2="835.9" y2="672.5"/>
<line x1="835.9" y1="672.5" x2="829.8" y2="634.2"/>
<line x1="827.9" y1="667.7" x2="823.7" y2="641.2"/>
<text x="494.412009" y="371.062434" fill="rgb(102,102,102)"  stroke="rgb(102,102,102)" stroke-width="1" font-size="16" >H</text>
<text x="506.412009" y="378.742434" fill="rgb(102,102,102)"  stroke="rgb(102,102,102)" stroke-width="1" font-size="13" >3</text>
<text x="512.912009" y="371.062434" fill="rgb(102,102,102)"  stroke="rgb(102,102,102)" stroke-width="1" font-size="16" >C</text>
<text x="549.964135" y="362.995460" fill="rgb(102,102,102)"  stroke="rgb(102,102,102)" stroke-width="1" font-size="16" >CH</text>
<text x="573.964135" y="370.675460" fill="rgb(102,102,102)"  stroke="rgb(102,102,102)" stroke-width="1" font-size="13" >3</text>
<text x="248.450566" y="144.102097" fill="rgb(12,12,255)"  stroke="rgb(12,12,255)" stroke-width="1" font-size="16" >NH</text>
<text x="272.450566" y="151.782097" fill="rgb(12,12,255)"  stroke="rgb(12,12,255)" stroke-width="1" font-size="13" >2</text>
<text x="866.140665" y="691.192354" fill="rgb(12,12,255)"  stroke="rgb(12,12,255)" stroke-width="1" font-size="16" >NH</text>
<text x="890.140665" y="695.992354" fill="rgb(12,12,255)"  stroke="rgb(12,12,255)" stroke-width="1" font-size="13" >2</text>
<text x="419.204324" y="322.454748" fill="rgb(12,12,255)"  stroke="rgb(12,12,255)" stroke-width="1" font-size="16" >N</text>
<text x="466.572290" y="375.916734" fill="rgb(12,12,255)"  stroke="rgb(12,12,255)" stroke-width="1" font-size="16" >N</text>
<text x="799.764481" y="701.705309" fill="rgb(12,12,255)"  stroke="rgb(12,12,255)" stroke-width="1" font-size="16" >N</text>
<text x="759.871903" y="652.998325" fill="rgb(12,12,255)"  stroke="rgb(12,12,255)" stroke-width="1" font-size="16" >N</text>
<text x="848.265718" y="608.812107" fill="rgb(12,12,255)"  stroke="rgb(12,12,255)" stroke-width="1" font-size="16" >N</text>
<text x="789.655801" y="586.313867" fill="rgb(12,12,255)"  stroke="rgb(12,12,255)" stroke-width="1" font-size="16" >N</text>
<text x="142.179267" y="224.150438" fill="rgb(255,12,12)"  stroke="rgb(255,12,12)" stroke-width="1" font-size="16" >HO</text>
<text x="441.171370" y="247.340353" fill="rgb(255,12,12)"  stroke="rgb(255,12,12)" stroke-width="1" font-size="32" >-</text>
<text x="442.371370" y="262.060353" fill="rgb(255,12,12)"  stroke="rgb(255,12,12)" stroke-width="1" font-size="16" >O</text>
<text x="50.372408" y="385.419491" fill="rgb(255,12,12)"  stroke="rgb(255,12,12)" stroke-width="1" font-size="16" >O</text>
<text x="35.200000" y="308.484479" fill="rgb(255,12,12)"  stroke="rgb(255,12,12)" stroke-width="1" font-size="32" >-</text>
<text x="36.400000" y="323.204479" fill="rgb(255,12,12)"  stroke="rgb(255,12,12)" stroke-width="1" font-size="16" >O</text>
<text x="360.502410" y="200.128508" fill="rgb(255,12,12)"  stroke="rgb(255,12,12)" stroke-width="1" font-size="16" >O</text>
<text x="787.017313" y="537.478605" fill="rgb(255,12,12)"  stroke="rgb(255,12,12)" stroke-width="1" font-size="16" >OH</text>
<text x="535.102524" y="451.172740" fill="rgb(255,12,12)"  stroke="rgb(255,12,12)" stroke-width="1" font-size="16" >OH</text>
<text x="444.605245" y="450.711128" fill="rgb(255,12,12)"  stroke="rgb(255,12,12)" stroke-width="1" font-size="32" >-</text>
<text x="445.805245" y="436.311128" fill="rgb(255,12,12)"  stroke="rgb(255,12,12)" stroke-width="1" font-size="16" >O</text>
<text x="147.163427" y="162.621478" fill="rgb(255,12,12)"  stroke="rgb(255,12,12)" stroke-width="1" font-size="16" >O</text>
<text x="166.730473" y="87.507084" fill="rgb(255,12,12)"  stroke="rgb(255,12,12)" stroke-width="1" font-size="32" >-</text>
<text x="167.930473" y="102.227084" fill="rgb(255,12,12)"  stroke="rgb(255,12,12)" stroke-width="1" font-size="16" >O</text>
<text x="814.803698" y="417.870774" fill="rgb(255,12,12)"  stroke="rgb(255,12,12)" stroke-width="1" font-size="16" >OH</text>
<text x="776.003698" y="382.590774" fill="rgb(255,12,12)"  stroke="rgb(255,12,12)" stroke-width="1" font-size="16" >OH</text>
<text x="739.603698" y="417.870774" fill="rgb(255,12,12)"  stroke="rgb(255,12,12)" stroke-width="1" font-size="16" >O</text>
<text x="746.399688" y="335.760856" fill="rgb(255,12,12)"  stroke="rgb(255,12,12)" stroke-width="1" font-size="16" >OH</text>
<text x="702.780588" y="305.875703" fill="rgb(255,12,12)"  stroke="rgb(255,12,12)" stroke-width="1" font-size="16" >O</text>
<text x="614.876334" y="322.009650" fill="rgb(255,12,12)"  stroke="rgb(255,12,12)" stroke-width="1" font-size="16" >HO</text>
<text x="596.991180" y="364.508751" fill="rgb(255,12,12)"  stroke="rgb(255,12,12)" stroke-width="1" font-size="16" >O</text>
<text x="716.514535" y="378.259957" fill="rgb(255,12,12)"  stroke="rgb(255,12,12)" stroke-width="1" font-size="16" >O</text>
<text x="640.610281" y="394.393904" fill="rgb(255,12,12)"  stroke="rgb(255,12,12)" stroke-width="1" font-size="16" >O</text>
<text x="698.147489" y="518.078605" fill="rgb(255,12,12)"  stroke="rgb(255,12,12)" stroke-width="1" font-size="16" >O</text>
<text x="776.003698" y="456.670774" fill="rgb(255,12,12)"  stroke="rgb(255,12,12)" stroke-width="1" font-size="16" >O</text>
<text x="670.495434" y="348.374804" fill="rgb(255,12,12)"  stroke="rgb(255,12,12)" stroke-width="1" font-size="16" >O</text>
<text x="776.003698" y="421.390774" fill="rgb(255,127,0)"  stroke="rgb(255,127,0)" stroke-width="1" font-size="16" >P</text>
<text x="708.447561" y="343.827830" fill="rgb(255,127,0)"  stroke="rgb(255,127,0)" stroke-width="1" font-size="16" >P</text>
<text x="632.543307" y="359.961777" fill="rgb(255,127,0)"  stroke="rgb(255,127,0)" stroke-width="1" font-size="16" >P</text>
<text x="403.070377" y="246.550494" fill="rgb(178,178,0)"  stroke="rgb(178,178,0)" stroke-width="1" font-size="16" >S</text>
<text x="192.131393" y="216.083465" fill="rgb(178,178,0)"  stroke="rgb(178,178,0)" stroke-width="1" font-size="16" >S</text>
<text x="249.799432" y="164.158929" fill="rgb(191,191,191)"  stroke="rgb(191,191,191)" stroke-width="1" font-size="16" >H</text>
<text x="270.566477" y="100.244535" fill="rgb(191,191,191)"  stroke="rgb(191,191,191)" stroke-width="1" font-size="16" >H</text>
<text x="329.268391" y="222.570775" fill="rgb(191,191,191)"  stroke="rgb(191,191,191)" stroke-width="1" font-size="16" >H</text>
<text x="328.234516" y="48.320000" fill="rgb(191,191,191)"  stroke="rgb(191,191,191)" stroke-width="1" font-size="16" >H</text>
<text x="229.032386" y="228.073324" fill="rgb(191,191,191)"  stroke="rgb(191,191,191)" stroke-width="1" font-size="16" >H</text>
<text x="308.501346" y="286.485170" fill="rgb(191,191,191)"  stroke="rgb(191,191,191)" stroke-width="1" font-size="16" >H</text>
<text x="250.833307" y="338.409705" fill="rgb(191,191,191)"  stroke="rgb(191,191,191)" stroke-width="1" font-size="16" >H</text>
<text x="179.431321" y="314.429986" fill="rgb(191,191,191)"  stroke="rgb(191,191,191)" stroke-width="1" font-size="16" >H</text>
<text x="222.488298" y="115.268077" fill="rgb(191,191,191)"  stroke="rgb(191,191,191)" stroke-width="1" font-size="16" >H</text>
<text x="125.345247" y="250.112706" fill="rgb(191,191,191)"  stroke="rgb(191,191,191)" stroke-width="1" font-size="16" >H</text>
<text x="669.313470" y="471.656619" fill="rgb(191,191,191)"  stroke="rgb(191,191,191)" stroke-width="1" font-size="16" >H</text>
<text x="235.750494" y="245.968618" fill="rgb(191,191,191)"  stroke="rgb(191,191,191)" stroke-width="1" font-size="16" >H</text>
<text x="795.084287" y="503.046478" fill="rgb(191,191,191)"  stroke="rgb(191,191,191)" stroke-width="1" font-size="16" >H</text>
<text x="742.401912" y="440.790774" fill="rgb(191,191,191)"  stroke="rgb(191,191,191)" stroke-width="1" font-size="16" >H</text>
<text x="499.550397" y="459.239713" fill="rgb(191,191,191)"  stroke="rgb(191,191,191)" stroke-width="1" font-size="16" >H</text>
<text x="701.820918" y="562.171387" fill="rgb(191,191,191)"  stroke="rgb(191,191,191)" stroke-width="1" font-size="16" >H</text>
<text font-size="18.000000" fill ="black" font-family="sans-serif"
x="140.000000" y="20.000000" ></text>
<title> - OBDepict</title>
</svg>
