<?xml version="1.0"?>
<svg xmlns="http://www.w3.org/2000/svg"
xmlns:xlink="http://www.w3.org/1999/xlink" xmlns:cml="http://www.xml-cml.org/schema" width="614.06" height="460.208" x="0" y="0" font-family="sans-serif" stroke="rgb(0,0,0)" stroke-width="1" >
<line x1="378.6" y1="170.0" x2="399.1" y2="189.7"/>
<line x1="365.7" y1="80.4" x2="382.9" y2="102.9"/>
<line x1="405.3" y1="336.0" x2="412.6" y2="308.6"/>
<line x1="470.3" y1="194.6" x2="447.8" y2="211.9"/>
<line x1="474.0" y1="222.8" x2="447.8" y2="211.9"/>
<line x1="351.9" y1="226.8" x2="352.2" y2="226.1"/>
<line x1="355.2" y1="228.7" x2="355.9" y2="227.2"/>
<line x1="358.6" y1="230.5" x2="359.6" y2="228.3"/>
<line x1="362.0" y1="232.3" x2="363.3" y2="229.4"/>
<line x1="365.4" y1="234.2" x2="366.9" y2="230.5"/>
<line x1="368.8" y1="236.0" x2="370.6" y2="231.6"/>
<line x1="372.2" y1="237.8" x2="374.3" y2="232.7"/>
<line x1="382.5" y1="100.0" x2="410.7" y2="96.3"/>
<line x1="383.3" y1="105.9" x2="411.4" y2="102.2"/>
<line x1="382.9" y1="102.9" x2="372.1" y2="129.2"/>
<line x1="411.8" y1="305.7" x2="439.2" y2="298.3"/>
<line x1="413.4" y1="311.5" x2="440.8" y2="304.1"/>
<line x1="412.6" y1="308.6" x2="392.6" y2="288.5"/>
<line x1="226.8" y1="110.8" x2="212.1" y2="146.3"/>
<line x1="110.8" y1="140.3" x2="146.3" y2="154.9"/>
<line x1="512.7" y1="354.4" x2="489.4" y2="324.0"/>
<polygon points="365.483686 209.797393 387.685755 223.323360 390.747223 215.932323 " />
<line x1="389.2" y1="219.6" x2="344.2" y2="254.2"/>
<polygon points="310.128896 199.304084 306.128896 224.992285 314.128896 224.992285 " />
<line x1="310.1" y1="225.0" x2="285.6" y2="210.8"/>
<polygon points="285.315999 284.751554 309.093620 295.263853 311.164172 287.536446 " />
<line x1="203.1" y1="169.1" x2="202.3" y2="168.8"/>
<line x1="204.9" y1="165.7" x2="203.4" y2="165.1"/>
<line x1="206.8" y1="162.3" x2="204.5" y2="161.4"/>
<line x1="208.6" y1="158.9" x2="205.6" y2="157.7"/>
<line x1="210.4" y1="155.5" x2="206.7" y2="154.0"/>
<line x1="212.3" y1="152.1" x2="207.8" y2="150.3"/>
<line x1="214.1" y1="148.8" x2="208.9" y2="146.6"/>
<line x1="212.1" y1="146.3" x2="247.5" y2="160.9"/>
<line x1="212.1" y1="146.3" x2="185.9" y2="135.4"/>
<line x1="256.5" y1="138.1" x2="257.3" y2="138.4"/>
<line x1="254.7" y1="141.5" x2="256.2" y2="142.1"/>
<line x1="252.9" y1="144.9" x2="255.1" y2="145.8"/>
<line x1="251.0" y1="148.3" x2="254.0" y2="149.5"/>
<line x1="249.2" y1="151.7" x2="252.9" y2="153.2"/>
<line x1="247.4" y1="155.1" x2="251.8" y2="156.9"/>
<line x1="245.5" y1="158.5" x2="250.7" y2="160.6"/>
<line x1="247.5" y1="160.9" x2="257.5" y2="237.0"/>
<line x1="247.5" y1="160.9" x2="275.7" y2="157.2"/>
<polygon points="401.427153 145.055009 387.901186 167.257078 395.292222 170.318545 " />
<line x1="391.6" y1="168.8" x2="374.3" y2="146.3"/>
<line x1="367.6" y1="258.2" x2="371.3" y2="230.1"/>
<line x1="356.6" y1="190.3" x2="334.1" y2="173.1"/>
<line x1="360.2" y1="185.6" x2="337.7" y2="168.3"/>
<line x1="395.7" y1="290.9" x2="394.9" y2="290.6"/>
<line x1="397.5" y1="287.6" x2="396.0" y2="286.9"/>
<line x1="399.3" y1="284.2" x2="397.1" y2="283.2"/>
<line x1="401.2" y1="280.8" x2="398.2" y2="279.6"/>
<line x1="403.0" y1="277.4" x2="399.3" y2="275.9"/>
<line x1="404.8" y1="274.0" x2="400.4" y2="272.2"/>
<line x1="406.7" y1="270.6" x2="401.5" y2="268.5"/>
<line x1="404.7" y1="268.1" x2="439.2" y2="313.1"/>
<line x1="144.4" y1="152.6" x2="166.9" y2="135.3"/>
<line x1="148.1" y1="157.3" x2="170.6" y2="140.0"/>
<line x1="146.3" y1="154.9" x2="150.0" y2="183.1"/>
<line x1="486.6" y1="322.8" x2="497.5" y2="296.6"/>
<line x1="492.1" y1="325.1" x2="503.0" y2="298.9"/>
<line x1="489.4" y1="324.0" x2="461.2" y2="327.7"/>
<line x1="259.4" y1="239.3" x2="236.9" y2="256.6"/>
<line x1="255.7" y1="234.6" x2="233.2" y2="251.9"/>
<line x1="257.5" y1="237.0" x2="310.0" y2="258.7"/>
<polygon points="373.282391 284.751554 347.434218 287.536446 349.504771 295.263853 " />
<polygon points="461.886095 258.086495 439.300701 245.210795 436.455099 252.687596 " />
<line x1="320.1" y1="329.7" x2="348.5" y2="329.7"/>
<line x1="348.5" y1="329.7" x2="348.5" y2="291.4"/>
<line x1="348.5" y1="291.4" x2="310.1" y2="291.4"/>
<line x1="310.1" y1="291.4" x2="310.1" y2="319.8"/>
<line x1="279.5" y1="70.4" x2="256.1" y2="40.0"/>
<line x1="270.1" y1="70.0" x2="254.1" y2="49.1"/>
<line x1="256.1" y1="40.0" x2="218.1" y2="45.0"/>
<line x1="218.1" y1="45.0" x2="203.4" y2="80.4"/>
<line x1="222.5" y1="53.3" x2="212.4" y2="77.6"/>
<line x1="203.4" y1="80.4" x2="226.8" y2="110.8"/>
<line x1="226.8" y1="110.8" x2="264.8" y2="105.8"/>
<line x1="231.8" y1="102.9" x2="257.9" y2="99.5"/>
<line x1="264.8" y1="105.8" x2="279.5" y2="70.4"/>
<line x1="70.4" y1="87.6" x2="40.0" y2="110.9"/>
<line x1="70.0" y1="96.9" x2="49.1" y2="113.0"/>
<line x1="40.0" y1="110.9" x2="45.0" y2="148.9"/>
<line x1="45.0" y1="148.9" x2="80.4" y2="163.6"/>
<line x1="53.3" y1="144.6" x2="77.6" y2="154.7"/>
<line x1="80.4" y1="163.6" x2="110.8" y2="140.3"/>
<line x1="110.8" y1="140.3" x2="105.8" y2="102.2"/>
<line x1="102.9" y1="135.3" x2="99.5" y2="109.1"/>
<line x1="105.8" y1="102.2" x2="70.4" y2="87.6"/>
<line x1="574.1" y1="379.8" x2="559.4" y2="415.2"/>
<line x1="565.1" y1="382.6" x2="555.0" y2="406.9"/>
<line x1="559.4" y1="415.2" x2="521.4" y2="420.2"/>
<line x1="521.4" y1="420.2" x2="498.0" y2="389.8"/>
<line x1="523.4" y1="411.1" x2="507.4" y2="390.2"/>
<line x1="498.0" y1="389.8" x2="512.7" y2="354.4"/>
<line x1="512.7" y1="354.4" x2="550.7" y2="349.4"/>
<line x1="519.6" y1="360.7" x2="545.7" y2="357.3"/>
<line x1="550.7" y1="349.4" x2="574.1" y2="379.8"/>
<line x1="310.1" y1="225.0" x2="291.0" y2="258.2"/>
<line x1="291.0" y1="258.2" x2="310.1" y2="291.4"/>
<line x1="348.5" y1="291.4" x2="367.6" y2="258.2"/>
<line x1="367.6" y1="258.2" x2="348.5" y2="225.0"/>
<line x1="348.5" y1="225.0" x2="310.1" y2="225.0"/>
<line x1="406.5" y1="246.0" x2="389.2" y2="219.6"/>
<line x1="389.2" y1="219.6" x2="399.1" y2="189.7"/>
<line x1="399.1" y1="189.7" x2="428.6" y2="178.7"/>
<line x1="407.2" y1="194.3" x2="425.5" y2="187.5"/>
<line x1="428.6" y1="178.7" x2="447.8" y2="211.9"/>
<line x1="447.8" y1="211.9" x2="437.9" y2="248.9"/>
<line x1="437.9" y1="248.9" x2="406.5" y2="246.0"/>
<line x1="428.6" y1="178.7" x2="391.6" y2="168.8"/>
<line x1="391.6" y1="168.8" x2="358.4" y2="188.0"/>
<line x1="358.4" y1="188.0" x2="348.5" y2="225.0"/>
<line x1="367.6" y1="258.2" x2="404.7" y2="268.1"/>
<line x1="404.7" y1="268.1" x2="437.9" y2="248.9"/>
<text x="347.858349" y="171.399766" fill="rgb(102,102,102)"  stroke="rgb(102,102,102)" stroke-width="1" font-size="16" >H</text>
<text x="359.858349" y="179.079766" fill="rgb(102,102,102)"  stroke="rgb(102,102,102)" stroke-width="1" font-size="13" >3</text>
<text x="366.358349" y="171.399766" fill="rgb(102,102,102)"  stroke="rgb(102,102,102)" stroke-width="1" font-size="16" >C</text>
<text x="335.988461" y="80.850434" fill="rgb(102,102,102)"  stroke="rgb(102,102,102)" stroke-width="1" font-size="16" >H</text>
<text x="347.988461" y="88.530434" fill="rgb(102,102,102)"  stroke="rgb(102,102,102)" stroke-width="1" font-size="13" >3</text>
<text x="354.488461" y="80.850434" fill="rgb(102,102,102)"  stroke="rgb(102,102,102)" stroke-width="1" font-size="16" >C</text>
<text x="379.091289" y="350.421944" fill="rgb(102,102,102)"  stroke="rgb(102,102,102)" stroke-width="1" font-size="16" >H</text>
<text x="391.091289" y="355.221944" fill="rgb(102,102,102)"  stroke="rgb(102,102,102)" stroke-width="1" font-size="13" >3</text>
<text x="397.591289" y="350.421944" fill="rgb(102,102,102)"  stroke="rgb(102,102,102)" stroke-width="1" font-size="16" >C</text>
<text x="472.218819" y="196.894743" fill="rgb(102,102,102)"  stroke="rgb(102,102,102)" stroke-width="1" font-size="16" >CH</text>
<text x="496.218819" y="204.574743" fill="rgb(102,102,102)"  stroke="rgb(102,102,102)" stroke-width="1" font-size="13" >3</text>
<text x="477.223271" y="231.387333" fill="rgb(102,102,102)"  stroke="rgb(102,102,102)" stroke-width="1" font-size="16" >CH</text>
<text x="501.223271" y="236.187333" fill="rgb(102,102,102)"  stroke="rgb(102,102,102)" stroke-width="1" font-size="13" >3</text>
<text x="377.891589" y="244.464597" fill="rgb(102,102,102)"  stroke="rgb(102,102,102)" stroke-width="1" font-size="16" >CH</text>
<text x="401.891589" y="249.264597" fill="rgb(102,102,102)"  stroke="rgb(102,102,102)" stroke-width="1" font-size="13" >3</text>
<text x="173.083924" y="139.913971" fill="rgb(12,12,255)"  stroke="rgb(12,12,255)" stroke-width="1" font-size="16" >N</text>
<text x="414.941327" y="106.263623" fill="rgb(255,12,12)"  stroke="rgb(255,12,12)" stroke-width="1" font-size="16" >O</text>
<text x="443.648740" y="306.984493" fill="rgb(255,12,12)"  stroke="rgb(255,12,12)" stroke-width="1" font-size="16" >O</text>
<text x="261.324964" y="214.141986" fill="rgb(255,12,12)"  stroke="rgb(255,12,12)" stroke-width="1" font-size="16" >HO</text>
<text x="279.540702" y="164.254142" fill="rgb(255,12,12)"  stroke="rgb(255,12,12)" stroke-width="1" font-size="16" >OH</text>
<text x="324.375130" y="172.937833" fill="rgb(255,12,12)"  stroke="rgb(255,12,12)" stroke-width="1" font-size="16" >O</text>
<text x="145.270735" y="197.746837" fill="rgb(255,12,12)"  stroke="rgb(255,12,12)" stroke-width="1" font-size="16" >OH</text>
<text x="498.039424" y="296.848232" fill="rgb(255,12,12)"  stroke="rgb(255,12,12)" stroke-width="1" font-size="16" >O</text>
<text x="223.519375" y="265.104050" fill="rgb(255,12,12)"  stroke="rgb(255,12,12)" stroke-width="1" font-size="16" >O</text>
<text x="467.711027" y="267.386957" fill="rgb(255,12,12)"  stroke="rgb(255,12,12)" stroke-width="1" font-size="16" >OH</text>
<text x="306.528896" y="334.540748" fill="rgb(255,12,12)"  stroke="rgb(255,12,12)" stroke-width="1" font-size="16" >O</text>
<text x="364.656426" y="143.170170" fill="rgb(255,12,12)"  stroke="rgb(255,12,12)" stroke-width="1" font-size="16" >O</text>
<text x="322.381206" y="271.108396" fill="rgb(255,12,12)"  stroke="rgb(255,12,12)" stroke-width="1" font-size="16" >O</text>
<text x="445.354523" y="333.754778" fill="rgb(255,12,12)"  stroke="rgb(255,12,12)" stroke-width="1" font-size="16" >O</text>
<text x="379.503669" y="289.796872" fill="rgb(255,12,12)"  stroke="rgb(255,12,12)" stroke-width="1" font-size="16" >O</text>
<text x="350.194395" y="213.275530" fill="rgb(191,191,191)"  stroke="rgb(191,191,191)" stroke-width="1" font-size="16" >H</text>
<text x="304.128896" y="194.971687" fill="rgb(191,191,191)"  stroke="rgb(191,191,191)" stroke-width="1" font-size="16" >H</text>
<text x="269.494722" y="289.796872" fill="rgb(191,191,191)"  stroke="rgb(191,191,191)" stroke-width="1" font-size="16" >H</text>
<text x="193.833707" y="186.488377" fill="rgb(191,191,191)"  stroke="rgb(191,191,191)" stroke-width="1" font-size="16" >H</text>
<text x="256.200424" y="133.836500" fill="rgb(191,191,191)"  stroke="rgb(191,191,191)" stroke-width="1" font-size="16" >H</text>
<text x="400.269016" y="141.685718" fill="rgb(191,191,191)"  stroke="rgb(191,191,191)" stroke-width="1" font-size="16" >H</text>
<text x="366.644246" y="228.503628" fill="rgb(191,191,191)"  stroke="rgb(191,191,191)" stroke-width="1" font-size="16" >H</text>
<text x="386.401656" y="308.341589" fill="rgb(191,191,191)"  stroke="rgb(191,191,191)" stroke-width="1" font-size="16" >H</text>
<text font-size="18.000000" fill ="black" font-family="sans-serif"
x="140.000000" y="20.000000" ></text>
<title> - OBDepict</title>
</svg>
