<?xml version="1.0"?>
<svg xmlns="http://www.w3.org/2000/svg"
xmlns:xlink="http://www.w3.org/1999/xlink" xmlns:cml="http://www.xml-cml.org/schema" width="400.105" height="259.128" x="0" y="0" font-family="sans-serif" stroke="rgb(0,0,0)" stroke-width="1" >
<line x1="46.0" y1="118.7" x2="63.0" y2="136.4"/>
<line x1="279.2" y1="65.9" x2="259.8" y2="83.1"/>
<line x1="63.0" y1="136.4" x2="56.2" y2="159.9"/>
<line x1="62.2" y1="133.5" x2="94.4" y2="125.5"/>
<line x1="63.7" y1="139.3" x2="95.8" y2="131.3"/>
<polygon points="223.113361 126.764986 216.050438 93.224848 208.467996 95.775649 " />
<line x1="262.8" y1="82.5" x2="268.0" y2="107.8"/>
<line x1="256.9" y1="83.7" x2="262.1" y2="109.0"/>
<line x1="259.8" y1="83.1" x2="235.3" y2="74.9"/>
<line x1="155.5" y1="155.4" x2="155.0" y2="156.0"/>
<line x1="153.2" y1="152.8" x2="152.1" y2="154.0"/>
<line x1="150.8" y1="150.2" x2="149.2" y2="152.0"/>
<line x1="148.4" y1="147.6" x2="146.3" y2="150.0"/>
<line x1="146.1" y1="144.9" x2="143.4" y2="147.9"/>
<line x1="143.7" y1="142.3" x2="140.6" y2="145.9"/>
<line x1="141.4" y1="139.7" x2="137.7" y2="143.9"/>
<polygon points="159.242282 198.117902 166.853272 175.615656 158.951613 174.365139 " />
<polygon points="204.086260 60.484476 179.006949 100.235465 186.111640 103.912877 " />
<line x1="163.7" y1="107.0" x2="141.1" y2="94.4"/>
<line x1="195.6" y1="73.5" x2="196.4" y2="73.3"/>
<line x1="196.0" y1="77.0" x2="197.5" y2="76.7"/>
<line x1="196.3" y1="80.5" x2="198.6" y2="80.0"/>
<line x1="196.6" y1="84.0" x2="199.7" y2="83.4"/>
<line x1="196.9" y1="87.5" x2="200.8" y2="86.7"/>
<line x1="197.2" y1="91.0" x2="201.9" y2="90.0"/>
<line x1="197.5" y1="94.5" x2="203.0" y2="93.4"/>
<line x1="200.6" y1="95.3" x2="219.9" y2="78.1"/>
<line x1="193.1" y1="168.1" x2="223.1" y2="126.8"/>
<line x1="223.1" y1="126.8" x2="271.7" y2="142.5"/>
<line x1="271.7" y1="142.5" x2="271.7" y2="193.6"/>
<line x1="271.7" y1="193.6" x2="235.7" y2="205.3"/>
<line x1="215.3" y1="198.6" x2="193.1" y2="168.1"/>
<line x1="220.6" y1="193.7" x2="202.5" y2="168.7"/>
<line x1="182.6" y1="102.1" x2="212.3" y2="94.5"/>
<line x1="212.3" y1="94.5" x2="223.1" y2="126.8"/>
<line x1="223.1" y1="126.8" x2="200.6" y2="95.3"/>
<line x1="200.6" y1="95.3" x2="163.7" y2="107.0"/>
<line x1="163.7" y1="107.0" x2="182.6" y2="102.1"/>
<line x1="315.9" y1="117.0" x2="360.1" y2="142.5"/>
<line x1="360.1" y1="142.5" x2="360.1" y2="193.6"/>
<line x1="352.9" y1="148.5" x2="352.9" y2="187.6"/>
<line x1="360.1" y1="193.6" x2="315.9" y2="219.1"/>
<line x1="315.9" y1="219.1" x2="271.7" y2="193.6"/>
<line x1="314.3" y1="209.9" x2="280.5" y2="190.4"/>
<line x1="271.7" y1="142.5" x2="315.9" y2="117.0"/>
<line x1="280.5" y1="145.8" x2="314.3" y2="126.2"/>
<line x1="111.1" y1="124.2" x2="95.1" y2="128.4"/>
<line x1="95.1" y1="128.4" x2="138.5" y2="140.9"/>
<line x1="138.5" y1="140.9" x2="147.0" y2="178.7"/>
<line x1="147.0" y1="178.7" x2="162.9" y2="175.0"/>
<line x1="162.9" y1="175.0" x2="157.1" y2="146.8"/>
<line x1="143.6" y1="133.5" x2="111.1" y2="124.2"/>
<line x1="163.7" y1="107.0" x2="138.5" y2="140.9"/>
<line x1="162.2" y1="127.8" x2="182.6" y2="102.1"/>
<text x="16.400000" y="120.860577" fill="rgb(102,102,102)"  stroke="rgb(102,102,102)" stroke-width="1" font-size="16" >H</text>
<text x="28.400000" y="128.540577" fill="rgb(102,102,102)"  stroke="rgb(102,102,102)" stroke-width="1" font-size="13" >3</text>
<text x="34.900000" y="120.860577" fill="rgb(102,102,102)"  stroke="rgb(102,102,102)" stroke-width="1" font-size="16" >C</text>
<text x="279.957853" y="68.188205" fill="rgb(102,102,102)"  stroke="rgb(102,102,102)" stroke-width="1" font-size="16" >CH</text>
<text x="303.957853" y="75.868205" fill="rgb(102,102,102)"  stroke="rgb(102,102,102)" stroke-width="1" font-size="13" >3</text>
<text x="219.513361" y="214.176836" fill="rgb(12,12,255)"  stroke="rgb(12,12,255)" stroke-width="1" font-size="16" >N</text>
<text x="149.095077" y="141.641254" fill="rgb(12,12,255)"  stroke="rgb(12,12,255)" stroke-width="1" font-size="16" >N</text>
<text x="260.898325" y="122.121485" fill="rgb(255,12,12)"  stroke="rgb(255,12,12)" stroke-width="1" font-size="16" >O</text>
<text x="223.072089" y="80.408810" fill="rgb(255,12,12)"  stroke="rgb(255,12,12)" stroke-width="1" font-size="16" >O</text>
<text x="50.203314" y="172.966904" fill="rgb(191,191,191)"  stroke="rgb(191,191,191)" stroke-width="1" font-size="16" >H</text>
<text x="158.679800" y="168.823206" fill="rgb(191,191,191)"  stroke="rgb(191,191,191)" stroke-width="1" font-size="16" >H</text>
<text x="153.839516" y="214.309061" fill="rgb(191,191,191)"  stroke="rgb(191,191,191)" stroke-width="1" font-size="16" >H</text>
<text x="208.689094" y="48.320000" fill="rgb(191,191,191)"  stroke="rgb(191,191,191)" stroke-width="1" font-size="16" >H</text>
<text x="129.592762" y="98.271556" fill="rgb(191,191,191)"  stroke="rgb(191,191,191)" stroke-width="1" font-size="16" >H</text>
<text x="189.901422" y="69.404786" fill="rgb(191,191,191)"  stroke="rgb(191,191,191)" stroke-width="1" font-size="16" >H</text>
<text font-size="18.000000" fill ="black" font-family="sans-serif"
x="140.000000" y="20.000000" ></text>
<title> - OBDepict</title>
</svg>
