<?xml version="1.0"?>
<svg xmlns="http://www.w3.org/2000/svg"
xmlns:xlink="http://www.w3.org/1999/xlink" xmlns:cml="http://www.xml-cml.org/schema" width="253.205" height="220" x="0" y="0" font-family="sans-serif" stroke="rgb(0,0,0)" stroke-width="1" >
<line x1="204.2" y1="54.8" x2="187.6" y2="45.2"/>
<line x1="109.3" y1="120.0" x2="109.3" y2="149.6"/>
<line x1="107.8" y1="117.4" x2="142.4" y2="97.4"/>
<line x1="110.8" y1="122.6" x2="145.4" y2="102.6"/>
<line x1="109.3" y1="120.0" x2="74.6" y2="100.0"/>
<line x1="178.6" y1="120.0" x2="143.9" y2="100.0"/>
<line x1="178.6" y1="120.0" x2="178.6" y2="160.0"/>
<line x1="143.9" y1="100.0" x2="143.9" y2="60.0"/>
<line x1="71.6" y1="100.0" x2="71.6" y2="70.4"/>
<line x1="77.6" y1="100.0" x2="77.6" y2="70.4"/>
<line x1="74.6" y1="100.0" x2="49.0" y2="114.8"/>
<line x1="180.1" y1="162.6" x2="154.4" y2="177.4"/>
<line x1="177.1" y1="157.4" x2="151.4" y2="172.2"/>
<line x1="178.6" y1="160.0" x2="204.2" y2="174.8"/>
<line x1="142.4" y1="62.6" x2="116.8" y2="47.8"/>
<line x1="145.4" y1="57.4" x2="119.8" y2="42.6"/>
<line x1="143.9" y1="60.0" x2="169.6" y2="45.2"/>
<text x="207.205081" y="64.800000" fill="rgb(102,102,102)"  stroke="rgb(102,102,102)" stroke-width="1" font-size="16" >CH</text>
<text x="231.205081" y="69.600000" fill="rgb(102,102,102)"  stroke="rgb(102,102,102)" stroke-width="1" font-size="13" >3</text>
<text x="68.641016" y="68.320000" fill="rgb(255,12,12)"  stroke="rgb(255,12,12)" stroke-width="1" font-size="16" >O</text>
<text x="24.400000" y="124.800000" fill="rgb(255,12,12)"  stroke="rgb(255,12,12)" stroke-width="1" font-size="16" >HO</text>
<text x="140.323048" y="184.800000" fill="rgb(255,12,12)"  stroke="rgb(255,12,12)" stroke-width="1" font-size="16" >O</text>
<text x="207.205081" y="184.800000" fill="rgb(255,12,12)"  stroke="rgb(255,12,12)" stroke-width="1" font-size="16" >OH</text>
<text x="105.682032" y="48.320000" fill="rgb(255,12,12)"  stroke="rgb(255,12,12)" stroke-width="1" font-size="16" >O</text>
<text x="172.564065" y="48.320000" fill="rgb(255,12,12)"  stroke="rgb(255,12,12)" stroke-width="1" font-size="16" >O</text>
<text x="103.282032" y="164.800000" fill="rgb(191,191,191)"  stroke="rgb(191,191,191)" stroke-width="1" font-size="16" >H</text>
<text font-size="18.000000" fill ="black" font-family="sans-serif"
x="140.000000" y="20.000000" ></text>
<title> - OBDepict</title>
</svg>
