<?xml version="1.0"?>
<svg xmlns="http://www.w3.org/2000/svg"
xmlns:xlink="http://www.w3.org/1999/xlink" xmlns:cml="http://www.xml-cml.org/schema" width="451.64" height="348.484" x="0" y="0" font-family="sans-serif" stroke="rgb(0,0,0)" stroke-width="1" >
<line x1="307.3" y1="47.7" x2="335.9" y2="40.0"/>
<line x1="335.9" y1="40.0" x2="364.2" y2="68.3"/>
<line x1="364.2" y1="68.3" x2="353.8" y2="106.9"/>
<line x1="247.8" y1="188.5" x2="247.8" y2="148.5"/>
<line x1="247.8" y1="188.5" x2="282.5" y2="208.5"/>
<line x1="247.8" y1="148.5" x2="213.2" y2="128.5"/>
<line x1="282.5" y1="208.5" x2="282.5" y2="248.5"/>
<line x1="213.2" y1="128.5" x2="178.6" y2="148.5"/>
<line x1="282.5" y1="248.5" x2="256.9" y2="263.3"/>
<line x1="284.0" y1="245.9" x2="318.6" y2="265.9"/>
<line x1="281.0" y1="251.1" x2="315.6" y2="271.1"/>
<line x1="178.6" y1="148.5" x2="143.9" y2="128.5"/>
<line x1="353.8" y1="106.9" x2="382.1" y2="135.2"/>
<line x1="317.1" y1="268.5" x2="317.1" y2="298.1"/>
<line x1="317.1" y1="268.5" x2="351.8" y2="248.5"/>
<line x1="143.9" y1="128.5" x2="109.3" y2="148.5"/>
<line x1="382.1" y1="135.2" x2="371.8" y2="173.8"/>
<line x1="351.8" y1="248.5" x2="377.4" y2="263.3"/>
<line x1="348.8" y1="248.5" x2="348.8" y2="208.5"/>
<line x1="354.8" y1="248.5" x2="354.8" y2="208.5"/>
<line x1="109.3" y1="148.5" x2="74.6" y2="128.5"/>
<line x1="397.3" y1="175.5" x2="397.3" y2="176.3"/>
<line x1="393.4" y1="174.8" x2="393.2" y2="176.4"/>
<line x1="389.4" y1="174.1" x2="389.2" y2="176.5"/>
<line x1="385.5" y1="173.3" x2="385.2" y2="176.5"/>
<line x1="381.5" y1="172.6" x2="381.2" y2="176.6"/>
<line x1="377.5" y1="171.9" x2="377.2" y2="176.7"/>
<line x1="373.6" y1="171.2" x2="373.1" y2="176.8"/>
<line x1="71.6" y1="128.5" x2="71.6" y2="98.9"/>
<line x1="77.6" y1="128.5" x2="77.6" y2="98.9"/>
<line x1="74.6" y1="128.5" x2="49.0" y2="143.3"/>
<line x1="371.8" y1="173.8" x2="351.8" y2="208.5"/>
<line x1="351.8" y1="208.5" x2="337.0" y2="182.8"/>
<line x1="342.2" y1="173.8" x2="371.8" y2="173.8"/>
<text x="273.669093" y="55.152762" fill="rgb(102,102,102)"  stroke="rgb(102,102,102)" stroke-width="1" font-size="16" >H</text>
<text x="285.669093" y="59.952762" fill="rgb(102,102,102)"  stroke="rgb(102,102,102)" stroke-width="1" font-size="13" >3</text>
<text x="292.169093" y="55.152762" fill="rgb(102,102,102)"  stroke="rgb(102,102,102)" stroke-width="1" font-size="16" >C</text>
<text x="68.641016" y="96.803625" fill="rgb(255,12,12)"  stroke="rgb(255,12,12)" stroke-width="1" font-size="16" >O</text>
<text x="35.200000" y="167.683625" fill="rgb(255,12,12)"  stroke="rgb(255,12,12)" stroke-width="1" font-size="32" >-</text>
<text x="36.400000" y="153.283625" fill="rgb(255,12,12)"  stroke="rgb(255,12,12)" stroke-width="1" font-size="16" >O</text>
<text x="328.169145" y="182.162609" fill="rgb(255,12,12)"  stroke="rgb(255,12,12)" stroke-width="1" font-size="16" >O</text>
<text x="244.246097" y="273.283625" fill="rgb(191,191,191)"  stroke="rgb(191,191,191)" stroke-width="1" font-size="16" >H</text>
<text x="311.128129" y="313.283625" fill="rgb(191,191,191)"  stroke="rgb(191,191,191)" stroke-width="1" font-size="16" >H</text>
<text x="380.410162" y="273.283625" fill="rgb(191,191,191)"  stroke="rgb(191,191,191)" stroke-width="1" font-size="16" >H</text>
<text x="405.640205" y="181.851758" fill="rgb(191,191,191)"  stroke="rgb(191,191,191)" stroke-width="1" font-size="16" >H</text>
<text font-size="18.000000" fill ="black" font-family="sans-serif"
x="140.000000" y="20.000000" ></text>
<title> - OBDepict</title>
</svg>
