<?xml version="1.0"?>
<svg xmlns="http://www.w3.org/2000/svg"
xmlns:xlink="http://www.w3.org/1999/xlink" xmlns:cml="http://www.xml-cml.org/schema" width="508.026" height="281.249" x="0" y="0" font-family="sans-serif" stroke="rgb(0,0,0)" stroke-width="1" >
<line x1="282.5" y1="135.5" x2="274.8" y2="106.9"/>
<line x1="303.1" y1="78.6" x2="295.5" y2="50.0"/>
<line x1="303.1" y1="78.6" x2="341.8" y2="89.0"/>
<line x1="305.2" y1="80.8" x2="277.0" y2="109.0"/>
<line x1="301.0" y1="76.5" x2="272.7" y2="104.8"/>
<line x1="341.8" y1="89.0" x2="349.4" y2="117.6"/>
<line x1="60.0" y1="114.5" x2="100.0" y2="114.5"/>
<line x1="60.0" y1="114.5" x2="45.2" y2="140.1"/>
<line x1="236.2" y1="96.6" x2="274.8" y2="106.9"/>
<line x1="236.2" y1="96.6" x2="215.3" y2="117.5"/>
<line x1="86.9" y1="92.5" x2="87.5" y2="92.1"/>
<line x1="88.5" y1="96.2" x2="89.9" y2="95.4"/>
<line x1="90.2" y1="99.9" x2="92.2" y2="98.7"/>
<line x1="91.8" y1="103.5" x2="94.6" y2="101.9"/>
<line x1="93.5" y1="107.2" x2="96.9" y2="105.2"/>
<line x1="95.1" y1="110.9" x2="99.3" y2="108.5"/>
<line x1="96.8" y1="114.5" x2="101.6" y2="111.7"/>
<polygon points="73.200000 154.500052 100.000000 158.500052 100.000000 150.500052 " />
<line x1="100.0" y1="154.5" x2="85.2" y2="180.1"/>
<line x1="122.2" y1="196.9" x2="121.5" y2="196.5"/>
<line x1="124.5" y1="193.6" x2="123.1" y2="192.8"/>
<line x1="126.9" y1="190.3" x2="124.8" y2="189.1"/>
<line x1="129.2" y1="187.1" x2="126.5" y2="185.5"/>
<line x1="131.6" y1="183.8" x2="128.1" y2="181.8"/>
<line x1="133.9" y1="180.5" x2="129.8" y2="178.1"/>
<line x1="136.3" y1="177.3" x2="131.4" y2="174.5"/>
<line x1="134.6" y1="174.5" x2="149.4" y2="200.1"/>
<polygon points="182.682032 177.709533 172.746134 152.500052 165.817931 156.500052 " />
<line x1="169.3" y1="154.5" x2="198.9" y2="154.5"/>
<line x1="390.8" y1="138.0" x2="362.2" y2="130.3"/>
<line x1="165.5" y1="89.2" x2="166.3" y2="89.1"/>
<line x1="165.7" y1="93.2" x2="167.3" y2="93.0"/>
<line x1="165.8" y1="97.2" x2="168.2" y2="96.9"/>
<line x1="165.9" y1="101.2" x2="169.1" y2="100.8"/>
<line x1="166.0" y1="105.2" x2="170.0" y2="104.7"/>
<line x1="166.2" y1="109.3" x2="170.9" y2="108.6"/>
<line x1="166.3" y1="113.3" x2="171.8" y2="112.5"/>
<line x1="169.3" y1="114.5" x2="197.9" y2="122.2"/>
<line x1="401.1" y1="176.6" x2="385.0" y2="201.4"/>
<line x1="385.9" y1="218.2" x2="404.5" y2="241.2"/>
<line x1="392.7" y1="215.3" x2="406.3" y2="232.1"/>
<line x1="404.5" y1="241.2" x2="432.1" y2="230.6"/>
<line x1="441.3" y1="216.5" x2="439.7" y2="187.0"/>
<line x1="434.0" y1="214.9" x2="432.9" y2="193.3"/>
<line x1="439.7" y1="187.0" x2="401.1" y2="176.6"/>
<line x1="457.7" y1="120.0" x2="429.1" y2="112.4"/>
<line x1="450.0" y1="125.4" x2="429.1" y2="119.9"/>
<line x1="411.7" y1="117.0" x2="390.8" y2="138.0"/>
<line x1="390.8" y1="138.0" x2="401.1" y2="176.6"/>
<line x1="399.3" y1="141.9" x2="406.5" y2="169.0"/>
<line x1="439.7" y1="187.0" x2="460.7" y2="166.0"/>
<line x1="465.3" y1="148.6" x2="457.7" y2="120.0"/>
<line x1="134.6" y1="174.5" x2="169.3" y2="154.5"/>
<line x1="169.3" y1="154.5" x2="169.3" y2="114.5"/>
<line x1="169.3" y1="114.5" x2="143.6" y2="99.7"/>
<line x1="125.6" y1="99.7" x2="100.0" y2="114.5"/>
<line x1="100.0" y1="114.5" x2="100.0" y2="154.5"/>
<line x1="100.0" y1="154.5" x2="134.6" y2="174.5"/>
<text x="279.193131" y="150.358337" fill="rgb(102,102,102)"  stroke="rgb(102,102,102)" stroke-width="1" font-size="16" >CH</text>
<text x="303.193131" y="155.158337" fill="rgb(102,102,102)"  stroke="rgb(102,102,102)" stroke-width="1" font-size="13" >3</text>
<text x="336.514436" y="132.426828" fill="rgb(12,12,255)"  stroke="rgb(12,12,255)" stroke-width="1" font-size="16" >HN</text>
<text x="375.718669" y="214.963445" fill="rgb(12,12,255)"  stroke="rgb(12,12,255)" stroke-width="1" font-size="16" >N</text>
<text x="435.834702" y="231.714566" fill="rgb(12,12,255)"  stroke="rgb(12,12,255)" stroke-width="1" font-size="16" >N</text>
<text x="415.435740" y="118.015318" fill="rgb(12,12,255)"  stroke="rgb(12,12,255)" stroke-width="1" font-size="16" >N</text>
<text x="462.025535" y="163.485113" fill="rgb(12,12,255)"  stroke="rgb(12,12,255)" stroke-width="1" font-size="16" >NH</text>
<text x="24.400000" y="153.941068" fill="rgb(255,12,12)"  stroke="rgb(255,12,12)" stroke-width="1" font-size="16" >HO</text>
<text x="64.400000" y="193.941068" fill="rgb(255,12,12)"  stroke="rgb(255,12,12)" stroke-width="1" font-size="16" >HO</text>
<text x="148.641016" y="213.941068" fill="rgb(255,12,12)"  stroke="rgb(255,12,12)" stroke-width="1" font-size="16" >OH</text>
<text x="203.282032" y="159.300052" fill="rgb(255,12,12)"  stroke="rgb(255,12,12)" stroke-width="1" font-size="16" >OH</text>
<text x="201.919065" y="129.652814" fill="rgb(255,12,12)"  stroke="rgb(255,12,12)" stroke-width="1" font-size="16" >O</text>
<text x="128.641016" y="102.820052" fill="rgb(255,12,12)"  stroke="rgb(255,12,12)" stroke-width="1" font-size="16" >O</text>
<text x="289.171879" y="48.320000" fill="rgb(191,191,191)"  stroke="rgb(191,191,191)" stroke-width="1" font-size="16" >H</text>
<text x="76.400000" y="88.179036" fill="rgb(191,191,191)"  stroke="rgb(191,191,191)" stroke-width="1" font-size="16" >H</text>
<text x="56.400000" y="159.300052" fill="rgb(191,191,191)"  stroke="rgb(191,191,191)" stroke-width="1" font-size="16" >H</text>
<text x="111.041016" y="213.941068" fill="rgb(191,191,191)"  stroke="rgb(191,191,191)" stroke-width="1" font-size="16" >H</text>
<text x="183.282032" y="193.941068" fill="rgb(191,191,191)"  stroke="rgb(191,191,191)" stroke-width="1" font-size="16" >H</text>
<text x="160.460985" y="83.162257" fill="rgb(191,191,191)"  stroke="rgb(191,191,191)" stroke-width="1" font-size="16" >H</text>
<text font-size="18.000000" fill ="black" font-family="sans-serif"
x="140.000000" y="20.000000" ></text>
<title> - OBDepict</title>
</svg>
