<?xml version="1.0"?>
<svg xmlns="http://www.w3.org/2000/svg"
xmlns:xlink="http://www.w3.org/1999/xlink" xmlns:cml="http://www.xml-cml.org/schema" width="383.679" height="274.789" x="0" y="0" font-family="sans-serif" stroke="rgb(0,0,0)" stroke-width="1" >
<line x1="159.0" y1="201.0" x2="159.0" y2="182.4"/>
<line x1="324.2" y1="142.7" x2="285.3" y2="142.7"/>
<line x1="324.2" y1="142.7" x2="338.6" y2="167.6"/>
<polygon points="298.338370 120.123212 281.836430 140.705409 288.764634 144.705409 " />
<polygon points="311.376208 181.624328 285.300532 177.624328 285.300532 185.624328 " />
<line x1="285.3" y1="181.6" x2="299.7" y2="206.6"/>
<polygon points="264.633597 223.665985 255.059861 199.083788 248.131658 203.083788 " />
<line x1="251.6" y1="201.1" x2="237.2" y2="226.0"/>
<line x1="53.6" y1="111.9" x2="53.4" y2="111.2"/>
<line x1="57.5" y1="111.3" x2="57.1" y2="109.8"/>
<line x1="61.4" y1="110.7" x2="60.7" y2="108.4"/>
<line x1="65.2" y1="110.1" x2="64.4" y2="107.0"/>
<line x1="69.1" y1="109.5" x2="68.1" y2="105.6"/>
<line x1="73.0" y1="108.8" x2="71.7" y2="104.2"/>
<line x1="76.8" y1="108.2" x2="75.4" y2="102.8"/>
<line x1="77.6" y1="105.1" x2="57.2" y2="84.7"/>
<line x1="87.2" y1="60.3" x2="87.8" y2="59.7"/>
<line x1="89.7" y1="63.3" x2="90.8" y2="62.2"/>
<line x1="92.2" y1="66.3" x2="93.9" y2="64.6"/>
<line x1="94.6" y1="69.4" x2="96.9" y2="67.1"/>
<line x1="97.1" y1="72.4" x2="99.9" y2="69.6"/>
<line x1="99.6" y1="75.4" x2="103.0" y2="72.0"/>
<line x1="102.0" y1="78.5" x2="106.0" y2="74.5"/>
<line x1="105.1" y1="77.6" x2="112.6" y2="49.8"/>
<polygon points="74.167983 193.079746 91.529450 143.740685 83.802043 141.670133 " />
<line x1="87.7" y1="142.7" x2="59.8" y2="150.2"/>
<line x1="148.8" y1="63.5" x2="149.5" y2="63.7"/>
<line x1="147.4" y1="67.2" x2="148.9" y2="67.6"/>
<line x1="146.0" y1="70.8" x2="148.3" y2="71.4"/>
<line x1="144.6" y1="74.5" x2="147.7" y2="75.3"/>
<line x1="143.2" y1="78.1" x2="147.1" y2="79.2"/>
<line x1="141.8" y1="81.8" x2="146.4" y2="83.0"/>
<line x1="140.4" y1="85.4" x2="145.8" y2="86.9"/>
<line x1="142.7" y1="87.7" x2="170.5" y2="80.2"/>
<line x1="205.8" y1="203.4" x2="205.1" y2="203.0"/>
<line x1="208.1" y1="200.2" x2="206.7" y2="199.4"/>
<line x1="210.4" y1="197.1" x2="208.3" y2="195.9"/>
<line x1="212.7" y1="193.9" x2="209.9" y2="192.3"/>
<line x1="215.0" y1="190.7" x2="211.5" y2="188.7"/>
<line x1="217.2" y1="187.5" x2="213.1" y2="185.1"/>
<line x1="219.5" y1="184.4" x2="214.7" y2="181.6"/>
<line x1="217.9" y1="181.6" x2="189.1" y2="181.6"/>
<line x1="105.7" y1="168.3" x2="105.3" y2="167.6"/>
<line x1="109.1" y1="166.2" x2="108.1" y2="164.9"/>
<line x1="112.4" y1="164.2" x2="110.9" y2="162.3"/>
<line x1="115.7" y1="162.1" x2="113.8" y2="159.6"/>
<line x1="119.1" y1="160.1" x2="116.6" y2="156.9"/>
<line x1="122.4" y1="158.0" x2="119.5" y2="154.2"/>
<line x1="125.7" y1="155.9" x2="122.3" y2="151.5"/>
<line x1="125.3" y1="152.8" x2="150.2" y2="167.2"/>
<polygon points="177.965535 118.509654 151.743091 121.394832 153.813643 129.122239 " />
<line x1="152.8" y1="125.3" x2="173.1" y2="145.6"/>
<line x1="220.7" y1="118.0" x2="221.5" y2="118.1"/>
<line x1="219.8" y1="121.8" x2="221.4" y2="122.0"/>
<line x1="218.9" y1="125.6" x2="221.3" y2="125.9"/>
<line x1="218.0" y1="129.4" x2="221.2" y2="129.8"/>
<line x1="217.1" y1="133.2" x2="221.1" y2="133.7"/>
<line x1="216.2" y1="137.0" x2="221.0" y2="137.6"/>
<line x1="215.3" y1="140.8" x2="220.9" y2="141.5"/>
<line x1="217.9" y1="142.7" x2="190.1" y2="150.2"/>
<line x1="251.6" y1="201.1" x2="217.9" y2="181.6"/>
<line x1="217.9" y1="181.6" x2="217.9" y2="142.7"/>
<line x1="217.9" y1="142.7" x2="242.8" y2="128.3"/>
<line x1="260.4" y1="128.3" x2="285.3" y2="142.7"/>
<line x1="285.3" y1="142.7" x2="285.3" y2="181.6"/>
<line x1="285.3" y1="181.6" x2="251.6" y2="201.1"/>
<line x1="77.6" y1="105.1" x2="105.1" y2="77.6"/>
<line x1="105.1" y1="77.6" x2="142.7" y2="87.7"/>
<line x1="142.7" y1="87.7" x2="152.8" y2="125.3"/>
<line x1="152.8" y1="125.3" x2="125.3" y2="152.8"/>
<line x1="125.3" y1="152.8" x2="87.7" y2="142.7"/>
<line x1="87.7" y1="142.7" x2="77.6" y2="105.1"/>
<text x="152.963308" y="215.956745" fill="rgb(102,102,102)"  stroke="rgb(102,102,102)" stroke-width="1" font-size="16" >CH</text>
<text x="176.963308" y="220.756745" fill="rgb(102,102,102)"  stroke="rgb(102,102,102)" stroke-width="1" font-size="13" >3</text>
<text x="337.678910" y="181.210182" fill="rgb(255,12,12)"  stroke="rgb(255,12,12)" stroke-width="1" font-size="16" >OH</text>
<text x="298.759992" y="220.129101" fill="rgb(255,12,12)"  stroke="rgb(255,12,12)" stroke-width="1" font-size="16" >OH</text>
<text x="216.536300" y="239.588560" fill="rgb(255,12,12)"  stroke="rgb(255,12,12)" stroke-width="1" font-size="16" >HO</text>
<text x="34.472957" y="85.912789" fill="rgb(255,12,12)"  stroke="rgb(255,12,12)" stroke-width="1" font-size="16" >HO</text>
<text x="109.185578" y="48.320000" fill="rgb(255,12,12)"  stroke="rgb(255,12,12)" stroke-width="1" font-size="16" >OH</text>
<text x="34.472957" y="157.578367" fill="rgb(255,12,12)"  stroke="rgb(255,12,12)" stroke-width="1" font-size="16" >HO</text>
<text x="174.298198" y="85.912789" fill="rgb(255,12,12)"  stroke="rgb(255,12,12)" stroke-width="1" font-size="16" >OH</text>
<text x="163.372068" y="186.424328" fill="rgb(255,12,12)"  stroke="rgb(255,12,12)" stroke-width="1" font-size="16" >HO</text>
<text x="152.963308" y="180.557826" fill="rgb(255,12,12)"  stroke="rgb(255,12,12)" stroke-width="1" font-size="16" >O</text>
<text x="245.595760" y="131.565950" fill="rgb(255,12,12)"  stroke="rgb(255,12,12)" stroke-width="1" font-size="16" >O</text>
<text x="176.698198" y="157.578367" fill="rgb(255,12,12)"  stroke="rgb(255,12,12)" stroke-width="1" font-size="16" >O</text>
<text x="298.759992" y="117.320637" fill="rgb(191,191,191)"  stroke="rgb(191,191,191)" stroke-width="1" font-size="16" >H</text>
<text x="318.219451" y="186.424328" fill="rgb(191,191,191)"  stroke="rgb(191,191,191)" stroke-width="1" font-size="16" >H</text>
<text x="265.055219" y="239.588560" fill="rgb(191,191,191)"  stroke="rgb(191,191,191)" stroke-width="1" font-size="16" >H</text>
<text x="36.400000" y="119.985578" fill="rgb(191,191,191)"  stroke="rgb(191,191,191)" stroke-width="1" font-size="16" >H</text>
<text x="73.992789" y="58.392957" fill="rgb(191,191,191)"  stroke="rgb(191,191,191)" stroke-width="1" font-size="16" >H</text>
<text x="63.919831" y="222.690987" fill="rgb(191,191,191)"  stroke="rgb(191,191,191)" stroke-width="1" font-size="16" >H</text>
<text x="146.778367" y="58.392957" fill="rgb(191,191,191)"  stroke="rgb(191,191,191)" stroke-width="1" font-size="16" >H</text>
<text x="194.831528" y="220.129101" fill="rgb(191,191,191)"  stroke="rgb(191,191,191)" stroke-width="1" font-size="16" >H</text>
<text x="90.782081" y="181.270703" fill="rgb(191,191,191)"  stroke="rgb(191,191,191)" stroke-width="1" font-size="16" >H</text>
<text x="184.371156" y="123.505578" fill="rgb(191,191,191)"  stroke="rgb(191,191,191)" stroke-width="1" font-size="16" >H</text>
<text x="216.970925" y="112.439447" fill="rgb(191,191,191)"  stroke="rgb(191,191,191)" stroke-width="1" font-size="16" >H</text>
<text font-size="18.000000" fill ="black" font-family="sans-serif"
x="140.000000" y="20.000000" ></text>
<title> - OBDepict</title>
</svg>
