<?xml version="1.0"?>
<svg xmlns="http://www.w3.org/2000/svg"
xmlns:xlink="http://www.w3.org/1999/xlink" xmlns:cml="http://www.xml-cml.org/schema" width="847.813" height="534.331" x="0" y="0" font-family="sans-serif" stroke="rgb(0,0,0)" stroke-width="1" >
<line x1="783.5" y1="486.0" x2="800.7" y2="462.4"/>
<line x1="158.6" y1="344.1" x2="174.5" y2="319.6"/>
<line x1="187.8" y1="345.6" x2="174.5" y2="319.6"/>
<line x1="800.7" y1="462.4" x2="784.6" y2="426.3"/>
<line x1="784.6" y1="426.3" x2="801.8" y2="402.7"/>
<line x1="784.3" y1="429.3" x2="745.0" y2="425.2"/>
<line x1="784.9" y1="423.3" x2="745.6" y2="419.2"/>
<line x1="745.3" y1="422.2" x2="728.2" y2="445.8"/>
<line x1="745.3" y1="422.2" x2="729.3" y2="386.1"/>
<line x1="729.3" y1="386.1" x2="690.0" y2="382.0"/>
<line x1="346.3" y1="308.8" x2="311.1" y2="326.7"/>
<line x1="346.3" y1="308.8" x2="379.4" y2="330.3"/>
<line x1="311.1" y1="326.7" x2="286.6" y2="310.8"/>
<line x1="447.7" y1="333.9" x2="482.9" y2="316.0"/>
<line x1="447.7" y1="333.9" x2="423.2" y2="318.0"/>
<line x1="482.9" y1="316.0" x2="507.4" y2="331.9"/>
<line x1="615.4" y1="402.0" x2="650.6" y2="384.1"/>
<line x1="615.4" y1="402.0" x2="582.3" y2="380.5"/>
<line x1="584.3" y1="341.0" x2="582.3" y2="380.5"/>
<line x1="584.3" y1="341.0" x2="551.2" y2="319.5"/>
<line x1="184.4" y1="231.8" x2="188.6" y2="153.0"/>
<line x1="184.4" y1="231.8" x2="158.4" y2="245.1"/>
<line x1="141.4" y1="298.1" x2="174.5" y2="319.6"/>
<line x1="141.4" y1="298.1" x2="115.4" y2="311.3"/>
<line x1="650.6" y1="384.1" x2="649.0" y2="413.2"/>
<line x1="583.6" y1="383.1" x2="557.6" y2="396.4"/>
<line x1="580.9" y1="377.8" x2="554.9" y2="391.1"/>
<line x1="690.0" y1="382.0" x2="681.2" y2="409.9"/>
<line x1="699.1" y1="341.0" x2="726.4" y2="330.6"/>
<line x1="701.3" y1="346.6" x2="728.6" y2="336.2"/>
<polygon points="162.945948 146.341868 187.562677 156.827968 189.562367 149.081921 " />
<line x1="378.1" y1="327.6" x2="404.1" y2="314.4"/>
<line x1="380.8" y1="333.0" x2="406.8" y2="319.7"/>
<line x1="379.4" y1="330.3" x2="377.9" y2="359.5"/>
<line x1="548.2" y1="319.4" x2="549.8" y2="290.2"/>
<line x1="554.2" y1="319.7" x2="555.7" y2="290.5"/>
<line x1="551.2" y1="319.5" x2="525.2" y2="332.8"/>
<line x1="212.3" y1="73.7" x2="213.1" y2="73.5"/>
<line x1="213.2" y1="77.6" x2="214.7" y2="77.1"/>
<line x1="214.0" y1="81.5" x2="216.3" y2="80.7"/>
<line x1="214.8" y1="85.3" x2="217.9" y2="84.4"/>
<line x1="215.7" y1="89.2" x2="219.5" y2="88.0"/>
<line x1="216.5" y1="93.1" x2="221.1" y2="91.6"/>
<line x1="217.4" y1="97.0" x2="222.7" y2="95.3"/>
<line x1="220.5" y1="97.6" x2="240.1" y2="75.9"/>
<line x1="159.2" y1="114.1" x2="159.2" y2="113.3"/>
<line x1="163.1" y1="114.5" x2="163.1" y2="112.9"/>
<line x1="167.1" y1="114.9" x2="167.1" y2="112.5"/>
<line x1="171.0" y1="115.3" x2="171.0" y2="112.1"/>
<line x1="175.0" y1="115.7" x2="175.0" y2="111.7"/>
<line x1="178.9" y1="116.1" x2="178.9" y2="111.3"/>
<line x1="182.9" y1="116.5" x2="182.9" y2="110.9"/>
<line x1="184.4" y1="113.7" x2="169.8" y2="88.4"/>
<line x1="197.9" y1="279.3" x2="198.6" y2="278.9"/>
<line x1="199.3" y1="283.0" x2="200.7" y2="282.3"/>
<line x1="200.8" y1="286.7" x2="202.9" y2="285.6"/>
<line x1="202.2" y1="290.4" x2="205.0" y2="288.9"/>
<line x1="203.6" y1="294.1" x2="207.2" y2="292.3"/>
<line x1="205.1" y1="297.8" x2="209.3" y2="295.6"/>
<line x1="206.5" y1="301.5" x2="211.5" y2="299.0"/>
<line x1="209.7" y1="301.6" x2="242.8" y2="323.1"/>
<line x1="209.7" y1="301.6" x2="174.5" y2="319.6"/>
<line x1="209.7" y1="301.6" x2="225.6" y2="277.1"/>
<line x1="384.1" y1="137.5" x2="405.8" y2="157.1"/>
<line x1="241.5" y1="320.5" x2="267.5" y2="307.2"/>
<line x1="244.2" y1="325.8" x2="270.2" y2="312.5"/>
<line x1="242.8" y1="323.1" x2="241.3" y2="352.3"/>
<polygon points="268.334087 111.417203 244.579261 123.731822 249.281543 130.203958 " />
<line x1="246.9" y1="127.0" x2="273.6" y2="138.9"/>
<line x1="125.2" y1="108.7" x2="125.2" y2="89.8"/>
<line x1="96.0" y1="79.5" x2="114.9" y2="79.5"/>
<line x1="128.2" y1="50.3" x2="128.2" y2="69.2"/>
<line x1="122.2" y1="50.3" x2="122.2" y2="69.2"/>
<line x1="91.6" y1="212.3" x2="107.5" y2="222.6"/>
<line x1="134.6" y1="205.4" x2="124.2" y2="221.3"/>
<line x1="129.5" y1="202.1" x2="119.2" y2="218.0"/>
<line x1="57.2" y1="319.0" x2="67.5" y2="303.1"/>
<line x1="50.2" y1="276.0" x2="66.1" y2="286.4"/>
<line x1="47.0" y1="281.1" x2="62.9" y2="291.4"/>
<line x1="140.6" y1="244.2" x2="124.7" y2="233.8"/>
<line x1="97.6" y1="310.4" x2="81.7" y2="300.1"/>
<line x1="154.4" y1="79.5" x2="135.5" y2="79.5"/>
<line x1="100.2" y1="252.7" x2="110.5" y2="236.9"/>
<line x1="89.0" y1="270.0" x2="78.7" y2="285.9"/>
<line x1="650.6" y1="384.1" x2="636.4" y2="347.2"/>
<line x1="636.4" y1="347.2" x2="667.1" y2="322.3"/>
<line x1="667.1" y1="322.3" x2="700.2" y2="343.8"/>
<line x1="700.2" y1="343.8" x2="690.0" y2="382.0"/>
<line x1="690.0" y1="382.0" x2="650.6" y2="384.1"/>
<line x1="291.2" y1="181.7" x2="285.1" y2="153.1"/>
<line x1="291.9" y1="137.9" x2="317.2" y2="123.3"/>
<line x1="317.2" y1="123.3" x2="346.5" y2="149.7"/>
<line x1="346.5" y1="149.7" x2="334.7" y2="176.4"/>
<line x1="320.3" y1="184.7" x2="291.2" y2="181.7"/>
<line x1="319.0" y1="177.3" x2="297.9" y2="175.1"/>
<line x1="188.6" y1="153.0" x2="184.4" y2="113.7"/>
<line x1="184.4" y1="113.7" x2="220.5" y2="97.6"/>
<line x1="220.5" y1="97.6" x2="246.9" y2="127.0"/>
<line x1="246.9" y1="127.0" x2="232.3" y2="152.3"/>
<line x1="217.1" y1="159.0" x2="188.6" y2="153.0"/>
<line x1="317.2" y1="123.3" x2="323.3" y2="94.7"/>
<line x1="325.5" y1="118.9" x2="329.9" y2="98.2"/>
<line x1="335.2" y1="81.5" x2="363.0" y2="72.5"/>
<line x1="363.0" y1="72.5" x2="384.7" y2="92.0"/>
<line x1="362.6" y1="81.8" x2="378.3" y2="96.0"/>
<line x1="390.2" y1="108.9" x2="384.1" y2="137.5"/>
<line x1="384.1" y1="137.5" x2="346.5" y2="149.7"/>
<line x1="376.2" y1="132.5" x2="350.0" y2="141.0"/>
<text x="753.854006" y="499.130986" fill="rgb(102,102,102)"  stroke="rgb(102,102,102)" stroke-width="1" font-size="16" >H</text>
<text x="765.854006" y="503.930986" fill="rgb(102,102,102)"  stroke="rgb(102,102,102)" stroke-width="1" font-size="13" >3</text>
<text x="772.354006" y="499.130986" fill="rgb(102,102,102)"  stroke="rgb(102,102,102)" stroke-width="1" font-size="16" >C</text>
<text x="129.427281" y="357.477537" fill="rgb(102,102,102)"  stroke="rgb(102,102,102)" stroke-width="1" font-size="16" >H</text>
<text x="141.427281" y="362.277537" fill="rgb(102,102,102)"  stroke="rgb(102,102,102)" stroke-width="1" font-size="13" >3</text>
<text x="147.927281" y="357.477537" fill="rgb(102,102,102)"  stroke="rgb(102,102,102)" stroke-width="1" font-size="16" >C</text>
<text x="186.460345" y="359.544136" fill="rgb(102,102,102)"  stroke="rgb(102,102,102)" stroke-width="1" font-size="16" >CH</text>
<text x="210.460345" y="364.344136" fill="rgb(102,102,102)"  stroke="rgb(102,102,102)" stroke-width="1" font-size="13" >3</text>
<text x="407.444562" y="168.727135" fill="rgb(12,12,255)"  stroke="rgb(12,12,255)" stroke-width="1" font-size="16" >NH</text>
<text x="431.444562" y="173.527135" fill="rgb(12,12,255)"  stroke="rgb(12,12,255)" stroke-width="1" font-size="13" >2</text>
<text x="408.617084" y="320.692362" fill="rgb(12,12,255)"  stroke="rgb(12,12,255)" stroke-width="1" font-size="16" >N</text>
<text x="272.016945" y="313.533452" fill="rgb(12,12,255)"  stroke="rgb(12,12,255)" stroke-width="1" font-size="16" >N</text>
<text x="386.309715" y="107.200764" fill="rgb(12,12,255)"  stroke="rgb(12,12,255)" stroke-width="1" font-size="16" >N</text>
<text x="321.810482" y="92.980894" fill="rgb(12,12,255)"  stroke="rgb(12,12,255)" stroke-width="1" font-size="16" >N</text>
<text x="324.484446" y="190.580597" fill="rgb(12,12,255)"  stroke="rgb(12,12,255)" stroke-width="1" font-size="16" >N</text>
<text x="279.403735" y="151.348773" fill="rgb(12,12,255)"  stroke="rgb(12,12,255)" stroke-width="1" font-size="16" >N</text>
<text x="543.484025" y="403.197400" fill="rgb(255,12,12)"  stroke="rgb(255,12,12)" stroke-width="1" font-size="16" >O</text>
<text x="731.084985" y="338.010825" fill="rgb(255,12,12)"  stroke="rgb(255,12,12)" stroke-width="1" font-size="16" >O</text>
<text x="372.567150" y="388.932230" fill="rgb(255,12,12)"  stroke="rgb(255,12,12)" stroke-width="1" font-size="32" >-</text>
<text x="373.767150" y="374.532230" fill="rgb(255,12,12)"  stroke="rgb(255,12,12)" stroke-width="1" font-size="16" >O</text>
<text x="547.283823" y="288.418209" fill="rgb(255,12,12)"  stroke="rgb(255,12,12)" stroke-width="1" font-size="16" >O</text>
<text x="240.930402" y="76.598504" fill="rgb(255,12,12)"  stroke="rgb(255,12,12)" stroke-width="1" font-size="16" >OH</text>
<text x="225.223134" y="276.837262" fill="rgb(255,12,12)"  stroke="rgb(255,12,12)" stroke-width="1" font-size="16" >OH</text>
<text x="235.967011" y="381.773320" fill="rgb(255,12,12)"  stroke="rgb(255,12,12)" stroke-width="1" font-size="32" >-</text>
<text x="237.167011" y="367.373320" fill="rgb(255,12,12)"  stroke="rgb(255,12,12)" stroke-width="1" font-size="16" >O</text>
<text x="120.404219" y="138.174359" fill="rgb(255,12,12)"  stroke="rgb(255,12,12)" stroke-width="1" font-size="32" >-</text>
<text x="119.204219" y="123.774359" fill="rgb(255,12,12)"  stroke="rgb(255,12,12)" stroke-width="1" font-size="16" >O</text>
<text x="80.917039" y="98.687179" fill="rgb(255,12,12)"  stroke="rgb(255,12,12)" stroke-width="1" font-size="32" >-</text>
<text x="82.117039" y="84.287179" fill="rgb(255,12,12)"  stroke="rgb(255,12,12)" stroke-width="1" font-size="16" >O</text>
<text x="119.204219" y="48.320000" fill="rgb(255,12,12)"  stroke="rgb(255,12,12)" stroke-width="1" font-size="16" >O</text>
<text x="67.412519" y="215.055358" fill="rgb(255,12,12)"  stroke="rgb(255,12,12)" stroke-width="1" font-size="16" >HO</text>
<text x="131.635513" y="203.444882" fill="rgb(255,12,12)"  stroke="rgb(255,12,12)" stroke-width="1" font-size="16" >O</text>
<text x="36.010476" y="332.391823" fill="rgb(255,12,12)"  stroke="rgb(255,12,12)" stroke-width="1" font-size="16" >HO</text>
<text x="36.400000" y="281.288828" fill="rgb(255,12,12)"  stroke="rgb(255,12,12)" stroke-width="1" font-size="16" >O</text>
<text x="145.645989" y="254.547876" fill="rgb(255,12,12)"  stroke="rgb(255,12,12)" stroke-width="1" font-size="16" >O</text>
<text x="102.633470" y="320.781347" fill="rgb(255,12,12)"  stroke="rgb(255,12,12)" stroke-width="1" font-size="16" >O</text>
<text x="221.186812" y="165.964791" fill="rgb(255,12,12)"  stroke="rgb(255,12,12)" stroke-width="1" font-size="16" >O</text>
<text x="158.691398" y="87.807179" fill="rgb(255,12,12)"  stroke="rgb(255,12,12)" stroke-width="1" font-size="16" >O</text>
<text x="88.622995" y="266.158352" fill="rgb(255,12,12)"  stroke="rgb(255,12,12)" stroke-width="1" font-size="16" >O</text>
<text x="119.204219" y="84.287179" fill="rgb(255,127,0)"  stroke="rgb(255,127,0)" stroke-width="1" font-size="16" >P</text>
<text x="110.129254" y="236.561617" fill="rgb(255,127,0)"  stroke="rgb(255,127,0)" stroke-width="1" font-size="16" >P</text>
<text x="67.116735" y="302.795088" fill="rgb(255,127,0)"  stroke="rgb(255,127,0)" stroke-width="1" font-size="16" >P</text>
<text x="512.433889" y="342.258077" fill="rgb(178,178,0)"  stroke="rgb(178,178,0)" stroke-width="1" font-size="16" >S</text>
<text x="801.813087" y="402.686054" fill="rgb(191,191,191)"  stroke="rgb(191,191,191)" stroke-width="1" font-size="16" >H</text>
<text x="718.522259" y="458.930118" fill="rgb(191,191,191)"  stroke="rgb(191,191,191)" stroke-width="1" font-size="16" >H</text>
<text x="644.900830" y="428.283114" fill="rgb(191,191,191)"  stroke="rgb(191,191,191)" stroke-width="1" font-size="16" >H</text>
<text x="674.542759" y="424.448176" fill="rgb(191,191,191)"  stroke="rgb(191,191,191)" stroke-width="1" font-size="16" >H</text>
<text x="146.728830" y="151.404681" fill="rgb(191,191,191)"  stroke="rgb(191,191,191)" stroke-width="1" font-size="16" >H</text>
<text x="204.706112" y="68.388658" fill="rgb(191,191,191)"  stroke="rgb(191,191,191)" stroke-width="1" font-size="16" >H</text>
<text x="141.347809" y="118.484080" fill="rgb(191,191,191)"  stroke="rgb(191,191,191)" stroke-width="1" font-size="16" >H</text>
<text x="188.190070" y="274.770663" fill="rgb(191,191,191)"  stroke="rgb(191,191,191)" stroke-width="1" font-size="16" >H</text>
<text x="272.876201" y="112.077909" fill="rgb(191,191,191)"  stroke="rgb(191,191,191)" stroke-width="1" font-size="16" >H</text>
<text font-size="18.000000" fill ="black" font-family="sans-serif"
x="140.000000" y="20.000000" ></text>
<title> - OBDepict</title>
</svg>
