<?xml version="1.0"?>
<svg xmlns="http://www.w3.org/2000/svg"
xmlns:xlink="http://www.w3.org/1999/xlink" xmlns:cml="http://www.xml-cml.org/schema" width="368.707" height="378.784" x="0" y="0" font-family="sans-serif" stroke="rgb(0,0,0)" stroke-width="1" >
<line x1="47.7" y1="47.0" x2="69.7" y2="66.8"/>
<line x1="63.6" y1="95.7" x2="69.7" y2="66.8"/>
<line x1="82.0" y1="104.5" x2="91.1" y2="132.7"/>
<line x1="274.2" y1="329.8" x2="259.4" y2="304.1"/>
<line x1="122.9" y1="180.7" x2="122.1" y2="180.3"/>
<line x1="124.8" y1="177.2" x2="123.4" y2="176.5"/>
<line x1="126.8" y1="173.7" x2="124.6" y2="172.7"/>
<line x1="128.8" y1="170.2" x2="125.9" y2="168.9"/>
<line x1="130.8" y1="166.7" x2="127.2" y2="165.1"/>
<line x1="132.8" y1="163.2" x2="128.4" y2="161.2"/>
<line x1="134.8" y1="159.7" x2="129.7" y2="157.4"/>
<line x1="225.2" y1="240.1" x2="224.4" y2="240.1"/>
<line x1="225.6" y1="236.1" x2="224.0" y2="236.1"/>
<line x1="226.0" y1="232.1" x2="223.6" y2="232.1"/>
<line x1="226.4" y1="228.1" x2="223.2" y2="228.1"/>
<line x1="226.8" y1="224.1" x2="222.8" y2="224.1"/>
<line x1="227.2" y1="220.1" x2="222.4" y2="220.1"/>
<line x1="227.6" y1="216.1" x2="222.0" y2="216.1"/>
<line x1="137.5" y1="81.2" x2="107.8" y2="54.4"/>
<line x1="137.5" y1="81.2" x2="129.2" y2="120.3"/>
<line x1="108.7" y1="57.3" x2="70.7" y2="69.6"/>
<line x1="106.8" y1="51.6" x2="68.8" y2="63.9"/>
<line x1="129.2" y1="120.3" x2="91.1" y2="132.7"/>
<polygon points="64.920763 127.084319 90.303472 136.568943 91.966765 128.743762 " />
<line x1="91.1" y1="132.7" x2="82.8" y2="171.8"/>
<line x1="259.4" y1="304.1" x2="244.6" y2="329.8"/>
<line x1="82.8" y1="171.8" x2="60.8" y2="152.0"/>
<polygon points="224.783960 310.942936 228.783960 284.142936 220.783960 284.142936 " />
<line x1="120.9" y1="224.1" x2="132.9" y2="251.2"/>
<line x1="295.6" y1="281.5" x2="321.2" y2="296.3"/>
<line x1="292.6" y1="286.7" x2="318.2" y2="301.5"/>
<line x1="59.3" y1="204.1" x2="82.8" y2="236.5"/>
<line x1="82.8" y1="236.5" x2="120.9" y2="224.1"/>
<line x1="120.9" y1="224.1" x2="120.9" y2="184.1"/>
<line x1="120.9" y1="184.1" x2="82.8" y2="171.8"/>
<line x1="82.8" y1="171.8" x2="59.3" y2="204.1"/>
<line x1="155.5" y1="284.1" x2="190.1" y2="304.1"/>
<line x1="190.1" y1="304.1" x2="224.8" y2="284.1"/>
<line x1="224.8" y1="284.1" x2="224.8" y2="244.1"/>
<line x1="224.8" y1="244.1" x2="190.1" y2="224.1"/>
<line x1="190.1" y1="224.1" x2="155.5" y2="244.1"/>
<line x1="188.5" y1="233.4" x2="164.3" y2="247.4"/>
<line x1="155.5" y1="244.1" x2="155.5" y2="284.1"/>
<line x1="259.4" y1="304.1" x2="294.1" y2="284.1"/>
<line x1="294.1" y1="284.1" x2="294.1" y2="244.1"/>
<line x1="294.1" y1="244.1" x2="259.4" y2="224.1"/>
<line x1="259.4" y1="224.1" x2="224.8" y2="244.1"/>
<line x1="224.8" y1="284.1" x2="259.4" y2="304.1"/>
<line x1="120.9" y1="224.1" x2="155.5" y2="244.1"/>
<line x1="190.1" y1="224.1" x2="190.1" y2="184.1"/>
<line x1="190.1" y1="184.1" x2="155.5" y2="164.1"/>
<line x1="155.5" y1="164.1" x2="120.9" y2="184.1"/>
<text x="16.400000" y="48.320000" fill="rgb(102,102,102)"  stroke="rgb(102,102,102)" stroke-width="1" font-size="16" >H</text>
<text x="28.400000" y="56.000000" fill="rgb(102,102,102)"  stroke="rgb(102,102,102)" stroke-width="1" font-size="13" >3</text>
<text x="34.900000" y="48.320000" fill="rgb(102,102,102)"  stroke="rgb(102,102,102)" stroke-width="1" font-size="16" >C</text>
<text x="37.809325" y="110.691128" fill="rgb(102,102,102)"  stroke="rgb(102,102,102)" stroke-width="1" font-size="16" >H</text>
<text x="49.809325" y="115.491128" fill="rgb(102,102,102)"  stroke="rgb(102,102,102)" stroke-width="1" font-size="13" >3</text>
<text x="56.309325" y="110.691128" fill="rgb(102,102,102)"  stroke="rgb(102,102,102)" stroke-width="1" font-size="16" >C</text>
<text x="55.174439" y="102.934092" fill="rgb(102,102,102)"  stroke="rgb(102,102,102)" stroke-width="1" font-size="16" >H</text>
<text x="67.174439" y="110.614092" fill="rgb(102,102,102)"  stroke="rgb(102,102,102)" stroke-width="1" font-size="13" >3</text>
<text x="73.674439" y="102.934092" fill="rgb(102,102,102)"  stroke="rgb(102,102,102)" stroke-width="1" font-size="16" >C</text>
<text x="273.424976" y="343.583952" fill="rgb(102,102,102)"  stroke="rgb(102,102,102)" stroke-width="1" font-size="16" >CH</text>
<text x="297.424976" y="348.383952" fill="rgb(102,102,102)"  stroke="rgb(102,102,102)" stroke-width="1" font-size="13" >3</text>
<text x="131.130377" y="155.921118" fill="rgb(102,102,102)"  stroke="rgb(102,102,102)" stroke-width="1" font-size="16" >CH</text>
<text x="155.130377" y="163.601118" fill="rgb(102,102,102)"  stroke="rgb(102,102,102)" stroke-width="1" font-size="13" >3</text>
<text x="218.783960" y="212.462936" fill="rgb(102,102,102)"  stroke="rgb(102,102,102)" stroke-width="1" font-size="16" >CH</text>
<text x="242.783960" y="220.142936" fill="rgb(102,102,102)"  stroke="rgb(102,102,102)" stroke-width="1" font-size="13" >3</text>
<text x="322.707008" y="308.942936" fill="rgb(255,12,12)"  stroke="rgb(255,12,12)" stroke-width="1" font-size="16" >O</text>
<text x="48.409214" y="132.659885" fill="rgb(191,191,191)"  stroke="rgb(191,191,191)" stroke-width="1" font-size="16" >H</text>
<text x="235.824976" y="343.583952" fill="rgb(191,191,191)"  stroke="rgb(191,191,191)" stroke-width="1" font-size="16" >H</text>
<text x="49.492858" y="153.337032" fill="rgb(191,191,191)"  stroke="rgb(191,191,191)" stroke-width="1" font-size="16" >H</text>
<text x="218.783960" y="328.942936" fill="rgb(191,191,191)"  stroke="rgb(191,191,191)" stroke-width="1" font-size="16" >H</text>
<text x="131.130377" y="265.484755" fill="rgb(191,191,191)"  stroke="rgb(191,191,191)" stroke-width="1" font-size="16" >H</text>
<text font-size="18.000000" fill ="black" font-family="sans-serif"
x="140.000000" y="20.000000" ></text>
<title> - OBDepict</title>
</svg>
