<?xml version="1.0"?>
<svg xmlns="http://www.w3.org/2000/svg"
xmlns:xlink="http://www.w3.org/1999/xlink" xmlns:cml="http://www.xml-cml.org/schema" width="223.923" height="194.641" x="0" y="0" font-family="sans-serif" stroke="rgb(0,0,0)" stroke-width="1" >
<line x1="143.9" y1="60.0" x2="143.9" y2="100.0"/>
<line x1="143.9" y1="60.0" x2="118.3" y2="45.2"/>
<line x1="157.1" y1="122.0" x2="156.4" y2="122.4"/>
<line x1="155.4" y1="118.3" x2="154.0" y2="119.1"/>
<line x1="153.8" y1="114.6" x2="151.7" y2="115.8"/>
<line x1="152.1" y1="111.0" x2="149.3" y2="112.6"/>
<line x1="150.5" y1="107.3" x2="147.0" y2="109.3"/>
<line x1="148.8" y1="103.6" x2="144.6" y2="106.0"/>
<line x1="147.1" y1="100.0" x2="142.3" y2="102.8"/>
<line x1="143.9" y1="100.0" x2="109.3" y2="120.0"/>
<line x1="143.9" y1="100.0" x2="173.5" y2="100.0"/>
<polygon points="95.882032 143.209481 112.746134 122.000000 105.817931 118.000000 " />
<line x1="109.3" y1="120.0" x2="74.6" y2="100.0"/>
<line x1="109.3" y1="120.0" x2="124.1" y2="145.6"/>
<line x1="71.6" y1="100.0" x2="71.6" y2="70.4"/>
<line x1="77.6" y1="100.0" x2="77.6" y2="70.4"/>
<line x1="74.6" y1="100.0" x2="49.0" y2="114.8"/>
<text x="123.282032" y="159.441016" fill="rgb(12,12,255)"  stroke="rgb(12,12,255)" stroke-width="1" font-size="16" >NH</text>
<text x="147.282032" y="164.241016" fill="rgb(12,12,255)"  stroke="rgb(12,12,255)" stroke-width="1" font-size="13" >2</text>
<text x="93.682032" y="48.320000" fill="rgb(255,12,12)"  stroke="rgb(255,12,12)" stroke-width="1" font-size="16" >HO</text>
<text x="177.923048" y="104.800000" fill="rgb(255,12,12)"  stroke="rgb(255,12,12)" stroke-width="1" font-size="16" >OH</text>
<text x="68.641016" y="68.320000" fill="rgb(255,12,12)"  stroke="rgb(255,12,12)" stroke-width="1" font-size="16" >O</text>
<text x="24.400000" y="124.800000" fill="rgb(255,12,12)"  stroke="rgb(255,12,12)" stroke-width="1" font-size="16" >HO</text>
<text x="157.923048" y="139.441016" fill="rgb(191,191,191)"  stroke="rgb(191,191,191)" stroke-width="1" font-size="16" >H</text>
<text x="85.682032" y="159.441016" fill="rgb(191,191,191)"  stroke="rgb(191,191,191)" stroke-width="1" font-size="16" >H</text>
<text font-size="18.000000" fill ="black" font-family="sans-serif"
x="140.000000" y="20.000000" ></text>
<title> - OBDepict</title>
</svg>
