<?xml version="1.0"?>
<svg xmlns="http://www.w3.org/2000/svg"
xmlns:xlink="http://www.w3.org/1999/xlink" xmlns:cml="http://www.xml-cml.org/schema" width="253.205" height="200" x="0" y="0" font-family="sans-serif" stroke="rgb(0,0,0)" stroke-width="1" >
<line x1="178.6" y1="100.0" x2="143.9" y2="120.0"/>
<line x1="178.6" y1="100.0" x2="178.6" y2="60.0"/>
<line x1="109.3" y1="100.0" x2="143.9" y2="120.0"/>
<line x1="109.3" y1="100.0" x2="74.6" y2="120.0"/>
<line x1="146.9" y1="120.0" x2="146.9" y2="149.6"/>
<line x1="140.9" y1="120.0" x2="140.9" y2="149.6"/>
<line x1="177.1" y1="57.4" x2="202.7" y2="42.6"/>
<line x1="180.1" y1="62.6" x2="205.7" y2="47.8"/>
<line x1="178.6" y1="60.0" x2="152.9" y2="45.2"/>
<line x1="73.1" y1="122.6" x2="47.5" y2="107.8"/>
<line x1="76.1" y1="117.4" x2="50.5" y2="102.6"/>
<line x1="74.6" y1="120.0" x2="74.6" y2="149.6"/>
<text x="137.923048" y="164.800000" fill="rgb(255,12,12)"  stroke="rgb(255,12,12)" stroke-width="1" font-size="16" >O</text>
<text x="207.205081" y="48.320000" fill="rgb(255,12,12)"  stroke="rgb(255,12,12)" stroke-width="1" font-size="16" >O</text>
<text x="139.123048" y="33.600000" fill="rgb(255,12,12)"  stroke="rgb(255,12,12)" stroke-width="1" font-size="32" >-</text>
<text x="140.323048" y="48.320000" fill="rgb(255,12,12)"  stroke="rgb(255,12,12)" stroke-width="1" font-size="16" >O</text>
<text x="36.400000" y="108.320000" fill="rgb(255,12,12)"  stroke="rgb(255,12,12)" stroke-width="1" font-size="16" >O</text>
<text x="69.841016" y="179.200000" fill="rgb(255,12,12)"  stroke="rgb(255,12,12)" stroke-width="1" font-size="32" >-</text>
<text x="68.641016" y="164.800000" fill="rgb(255,12,12)"  stroke="rgb(255,12,12)" stroke-width="1" font-size="16" >O</text>
<text font-size="18.000000" fill ="black" font-family="sans-serif"
x="140.000000" y="20.000000" ></text>
<title> - OBDepict</title>
</svg>
