<?xml version="1.0"?>
<svg xmlns="http://www.w3.org/2000/svg"
xmlns:xlink="http://www.w3.org/1999/xlink" xmlns:cml="http://www.xml-cml.org/schema" width="1040" height="738.179" x="0" y="0" font-family="sans-serif" stroke="rgb(0,0,0)" stroke-width="1" >
<line x1="985.2" y1="49.0" x2="1000.0" y2="74.6"/>
<line x1="50.4" y1="559.6" x2="80.0" y2="559.6"/>
<line x1="1000.0" y1="74.6" x2="980.0" y2="109.3"/>
<line x1="80.0" y1="559.6" x2="100.0" y2="525.0"/>
<line x1="980.0" y1="109.3" x2="940.0" y2="109.3"/>
<line x1="100.0" y1="525.0" x2="140.0" y2="525.0"/>
<line x1="940.0" y1="109.3" x2="920.0" y2="143.9"/>
<line x1="140.0" y1="525.0" x2="160.0" y2="559.6"/>
<line x1="920.0" y1="143.9" x2="880.0" y2="143.9"/>
<line x1="160.0" y1="559.6" x2="140.0" y2="594.3"/>
<line x1="880.0" y1="143.9" x2="860.0" y2="178.6"/>
<line x1="140.0" y1="594.3" x2="110.4" y2="594.3"/>
<line x1="142.6" y1="592.8" x2="162.6" y2="627.4"/>
<line x1="137.4" y1="595.8" x2="157.4" y2="630.4"/>
<line x1="860.0" y1="178.6" x2="820.0" y2="178.6"/>
<line x1="160.0" y1="628.9" x2="145.2" y2="654.5"/>
<line x1="160.0" y1="628.9" x2="200.0" y2="628.9"/>
<line x1="820.0" y1="178.6" x2="800.0" y2="213.2"/>
<line x1="200.0" y1="628.9" x2="220.0" y2="663.5"/>
<line x1="800.0" y1="213.2" x2="760.0" y2="213.2"/>
<line x1="220.0" y1="663.5" x2="205.2" y2="689.2"/>
<line x1="220.0" y1="660.5" x2="260.0" y2="660.5"/>
<line x1="220.0" y1="666.5" x2="260.0" y2="666.5"/>
<line x1="760.0" y1="213.2" x2="740.0" y2="247.8"/>
<line x1="260.0" y1="663.5" x2="274.8" y2="689.2"/>
<line x1="260.0" y1="663.5" x2="280.0" y2="628.9"/>
<line x1="740.0" y1="247.8" x2="700.0" y2="247.8"/>
<line x1="280.0" y1="628.9" x2="320.0" y2="628.9"/>
<line x1="700.0" y1="247.8" x2="680.0" y2="282.5"/>
<line x1="320.0" y1="628.9" x2="340.0" y2="594.3"/>
<line x1="680.0" y1="282.5" x2="640.0" y2="282.5"/>
<line x1="340.0" y1="594.3" x2="380.0" y2="594.3"/>
<line x1="640.0" y1="282.5" x2="620.0" y2="317.1"/>
<line x1="380.0" y1="594.3" x2="400.0" y2="559.6"/>
<line x1="620.0" y1="317.1" x2="580.0" y2="317.1"/>
<line x1="400.0" y1="559.6" x2="380.0" y2="525.0"/>
<line x1="580.0" y1="317.1" x2="560.0" y2="351.8"/>
<line x1="380.0" y1="525.0" x2="400.0" y2="490.3"/>
<line x1="560.0" y1="351.8" x2="520.0" y2="351.8"/>
<line x1="400.0" y1="490.3" x2="440.0" y2="490.3"/>
<line x1="305.4" y1="555.7" x2="305.4" y2="515.7"/>
<line x1="305.4" y1="555.7" x2="279.7" y2="570.5"/>
<line x1="305.4" y1="515.7" x2="331.0" y2="500.9"/>
<line x1="460.0" y1="386.4" x2="440.0" y2="421.1"/>
<line x1="460.0" y1="386.4" x2="489.6" y2="386.4"/>
<line x1="400.0" y1="421.1" x2="440.0" y2="421.1"/>
<line x1="400.0" y1="421.1" x2="385.2" y2="446.7"/>
<line x1="440.0" y1="421.1" x2="454.8" y2="446.7"/>
<line x1="517.4" y1="353.3" x2="502.6" y2="327.6"/>
<line x1="522.6" y1="350.3" x2="507.8" y2="324.6"/>
<line x1="520.0" y1="351.8" x2="505.2" y2="377.4"/>
<line x1="442.6" y1="488.8" x2="457.4" y2="514.5"/>
<line x1="437.4" y1="491.8" x2="452.2" y2="517.5"/>
<line x1="440.0" y1="490.3" x2="454.8" y2="464.7"/>
<line x1="340.0" y1="426.1" x2="340.0" y2="445.3"/>
<line x1="310.4" y1="452.7" x2="329.6" y2="452.7"/>
<line x1="310.4" y1="458.7" x2="329.6" y2="458.7"/>
<line x1="340.0" y1="485.3" x2="340.0" y2="466.1"/>
<line x1="369.6" y1="455.7" x2="350.4" y2="455.7"/>
<text x="956.400000" y="48.320000" fill="rgb(102,102,102)"  stroke="rgb(102,102,102)" stroke-width="1" font-size="16" >H</text>
<text x="968.400000" y="56.000000" fill="rgb(102,102,102)"  stroke="rgb(102,102,102)" stroke-width="1" font-size="13" >3</text>
<text x="974.900000" y="48.320000" fill="rgb(102,102,102)"  stroke="rgb(102,102,102)" stroke-width="1" font-size="16" >C</text>
<text x="16.400000" y="564.415242" fill="rgb(102,102,102)"  stroke="rgb(102,102,102)" stroke-width="1" font-size="16" >H</text>
<text x="28.400000" y="569.215242" fill="rgb(102,102,102)"  stroke="rgb(102,102,102)" stroke-width="1" font-size="13" >3</text>
<text x="34.900000" y="564.415242" fill="rgb(102,102,102)"  stroke="rgb(102,102,102)" stroke-width="1" font-size="16" >C</text>
<text x="247.117968" y="580.492194" fill="rgb(12,12,255)"  stroke="rgb(12,12,255)" stroke-width="1" font-size="16" >H</text>
<text x="259.117968" y="585.292194" fill="rgb(12,12,255)"  stroke="rgb(12,12,255)" stroke-width="1" font-size="13" >2</text>
<text x="265.617968" y="580.492194" fill="rgb(12,12,255)"  stroke="rgb(12,12,255)" stroke-width="1" font-size="16" >N</text>
<text x="496.400000" y="325.448129" fill="rgb(255,12,12)"  stroke="rgb(255,12,12)" stroke-width="1" font-size="16" >O</text>
<text x="454.000000" y="529.774226" fill="rgb(255,12,12)"  stroke="rgb(255,12,12)" stroke-width="1" font-size="16" >O</text>
<text x="334.000000" y="424.012194" fill="rgb(255,12,12)"  stroke="rgb(255,12,12)" stroke-width="1" font-size="16" >OH</text>
<text x="296.400000" y="460.492194" fill="rgb(255,12,12)"  stroke="rgb(255,12,12)" stroke-width="1" font-size="16" >O</text>
<text x="494.000000" y="391.210162" fill="rgb(255,12,12)"  stroke="rgb(255,12,12)" stroke-width="1" font-size="16" >O</text>
<text x="334.000000" y="500.492194" fill="rgb(255,12,12)"  stroke="rgb(255,12,12)" stroke-width="1" font-size="16" >O</text>
<text x="374.000000" y="460.492194" fill="rgb(255,12,12)"  stroke="rgb(255,12,12)" stroke-width="1" font-size="16" >O</text>
<text x="454.000000" y="460.492194" fill="rgb(255,12,12)"  stroke="rgb(255,12,12)" stroke-width="1" font-size="16" >O</text>
<text x="334.000000" y="460.492194" fill="rgb(255,127,0)"  stroke="rgb(255,127,0)" stroke-width="1" font-size="16" >P</text>
<text x="96.400000" y="599.056258" fill="rgb(191,191,191)"  stroke="rgb(191,191,191)" stroke-width="1" font-size="16" >H</text>
<text x="136.400000" y="668.338291" fill="rgb(191,191,191)"  stroke="rgb(191,191,191)" stroke-width="1" font-size="16" >H</text>
<text x="196.400000" y="702.979307" fill="rgb(191,191,191)"  stroke="rgb(191,191,191)" stroke-width="1" font-size="16" >H</text>
<text x="274.000000" y="702.979307" fill="rgb(191,191,191)"  stroke="rgb(191,191,191)" stroke-width="1" font-size="16" >H</text>
<text font-size="18.000000" fill ="black" font-family="sans-serif"
x="140.000000" y="20.000000" ></text>
<title> - OBDepict</title>
</svg>
