<?xml version="1.0"?>
<svg xmlns="http://www.w3.org/2000/svg"
xmlns:xlink="http://www.w3.org/1999/xlink" xmlns:cml="http://www.xml-cml.org/schema" width="253.205" height="240" x="0" y="0" font-family="sans-serif" stroke="rgb(0,0,0)" stroke-width="1" >
<line x1="109.3" y1="100.0" x2="109.3" y2="140.0"/>
<line x1="109.3" y1="100.0" x2="143.9" y2="80.0"/>
<line x1="109.3" y1="140.0" x2="74.6" y2="160.0"/>
<line x1="143.9" y1="80.0" x2="178.6" y2="100.0"/>
<line x1="140.9" y1="80.0" x2="140.9" y2="50.4"/>
<line x1="146.9" y1="80.0" x2="146.9" y2="50.4"/>
<line x1="73.1" y1="162.6" x2="47.5" y2="147.8"/>
<line x1="76.1" y1="157.4" x2="50.5" y2="142.6"/>
<line x1="74.6" y1="160.0" x2="74.6" y2="189.6"/>
<line x1="178.6" y1="100.0" x2="178.6" y2="129.6"/>
<line x1="177.1" y1="97.4" x2="202.7" y2="82.6"/>
<line x1="180.1" y1="102.6" x2="205.7" y2="87.8"/>
<text x="24.400000" y="148.320000" fill="rgb(12,12,255)"  stroke="rgb(12,12,255)" stroke-width="1" font-size="16" >HN</text>
<text x="137.923048" y="48.320000" fill="rgb(255,12,12)"  stroke="rgb(255,12,12)" stroke-width="1" font-size="16" >O</text>
<text x="69.841016" y="219.200000" fill="rgb(255,12,12)"  stroke="rgb(255,12,12)" stroke-width="1" font-size="32" >-</text>
<text x="68.641016" y="204.800000" fill="rgb(255,12,12)"  stroke="rgb(255,12,12)" stroke-width="1" font-size="16" >O</text>
<text x="172.564065" y="144.800000" fill="rgb(255,12,12)"  stroke="rgb(255,12,12)" stroke-width="1" font-size="16" >OH</text>
<text x="207.205081" y="88.320000" fill="rgb(255,12,12)"  stroke="rgb(255,12,12)" stroke-width="1" font-size="16" >O</text>
<text font-size="18.000000" fill ="black" font-family="sans-serif"
x="140.000000" y="20.000000" ></text>
<title> - OBDepict</title>
</svg>
