<?xml version="1.0"?>
<svg xmlns="http://www.w3.org/2000/svg"
xmlns:xlink="http://www.w3.org/1999/xlink" xmlns:cml="http://www.xml-cml.org/schema" width="258.148" height="232.059" x="0" y="0" font-family="sans-serif" stroke="rgb(0,0,0)" stroke-width="1" >
<line x1="152.6" y1="66.6" x2="142.9" y2="103.0"/>
<line x1="152.6" y1="66.6" x2="132.9" y2="46.9"/>
<polygon points="162.864849 118.339869 145.288723 99.811344 140.418632 106.158170 " />
<line x1="191.0" y1="140.2" x2="191.0" y2="141.0"/>
<line x1="183.5" y1="139.8" x2="183.5" y2="141.4"/>
<line x1="176.0" y1="139.4" x2="176.0" y2="141.8"/>
<line x1="168.5" y1="139.0" x2="168.5" y2="142.2"/>
<line x1="160.9" y1="138.6" x2="160.9" y2="142.6"/>
<line x1="153.4" y1="138.2" x2="153.4" y2="143.0"/>
<line x1="145.9" y1="137.8" x2="145.9" y2="143.4"/>
<line x1="142.9" y1="140.6" x2="156.8" y2="164.8"/>
<polygon points="122.862133 181.299562 113.714470 157.455345 106.786267 161.455345 " />
<line x1="110.3" y1="159.5" x2="96.3" y2="183.6"/>
<line x1="79.1" y1="143.2" x2="55.0" y2="157.2"/>
<line x1="76.1" y1="138.0" x2="52.0" y2="152.0"/>
<polygon points="52.423529 102.984757 77.647059 106.984757 77.647059 98.984757 " />
<line x1="77.6" y1="103.0" x2="63.7" y2="78.9"/>
<line x1="142.9" y1="103.0" x2="142.9" y2="140.6"/>
<line x1="142.9" y1="140.6" x2="110.3" y2="159.5"/>
<line x1="110.3" y1="159.5" x2="77.6" y2="140.6"/>
<line x1="77.6" y1="140.6" x2="77.6" y2="103.0"/>
<line x1="77.6" y1="103.0" x2="101.8" y2="89.1"/>
<line x1="118.7" y1="89.1" x2="142.9" y2="103.0"/>
<text x="110.376963" y="48.320000" fill="rgb(255,12,12)"  stroke="rgb(255,12,12)" stroke-width="1" font-size="16" >HO</text>
<text x="155.677207" y="178.035125" fill="rgb(255,12,12)"  stroke="rgb(255,12,12)" stroke-width="1" font-size="16" >OH</text>
<text x="75.826839" y="196.858655" fill="rgb(255,12,12)"  stroke="rgb(255,12,12)" stroke-width="1" font-size="16" >HO</text>
<text x="41.443750" y="164.255345" fill="rgb(255,12,12)"  stroke="rgb(255,12,12)" stroke-width="1" font-size="16" >O</text>
<text x="43.223529" y="78.701448" fill="rgb(255,12,12)"  stroke="rgb(255,12,12)" stroke-width="1" font-size="16" >HO</text>
<text x="104.250368" y="92.481228" fill="rgb(255,12,12)"  stroke="rgb(255,12,12)" stroke-width="1" font-size="16" >O</text>
<text x="166.721097" y="130.702834" fill="rgb(191,191,191)"  stroke="rgb(191,191,191)" stroke-width="1" font-size="16" >H</text>
<text x="212.147795" y="145.431816" fill="rgb(191,191,191)"  stroke="rgb(191,191,191)" stroke-width="1" font-size="16" >H</text>
<text x="123.073898" y="196.858655" fill="rgb(191,191,191)"  stroke="rgb(191,191,191)" stroke-width="1" font-size="16" >H</text>
<text x="36.400000" y="107.784757" fill="rgb(191,191,191)"  stroke="rgb(191,191,191)" stroke-width="1" font-size="16" >H</text>
<text font-size="18.000000" fill ="black" font-family="sans-serif"
x="140.000000" y="20.000000" ></text>
<title> - OBDepict</title>
</svg>
