<?xml version="1.0"?>
<svg xmlns="http://www.w3.org/2000/svg"
xmlns:xlink="http://www.w3.org/1999/xlink" xmlns:cml="http://www.xml-cml.org/schema" width="322.487" height="200" x="0" y="0" font-family="sans-serif" stroke="rgb(0,0,0)" stroke-width="1" >
<line x1="178.6" y1="100.0" x2="213.2" y2="80.0"/>
<line x1="178.6" y1="100.0" x2="143.9" y2="80.0"/>
<line x1="109.3" y1="100.0" x2="143.9" y2="80.0"/>
<line x1="74.6" y1="80.0" x2="74.6" y2="50.4"/>
<polygon points="226.605081 56.790519 209.740979 78.000000 216.669182 82.000000 " />
<line x1="213.2" y1="80.0" x2="247.8" y2="100.0"/>
<line x1="213.2" y1="80.0" x2="198.4" y2="54.4"/>
<line x1="140.9" y1="80.0" x2="140.9" y2="50.4"/>
<line x1="146.9" y1="80.0" x2="146.9" y2="50.4"/>
<line x1="250.8" y1="100.0" x2="250.8" y2="129.6"/>
<line x1="244.8" y1="100.0" x2="244.8" y2="129.6"/>
<line x1="247.8" y1="100.0" x2="273.5" y2="85.2"/>
<line x1="74.6" y1="160.0" x2="109.3" y2="140.0"/>
<line x1="109.3" y1="140.0" x2="109.3" y2="100.0"/>
<line x1="102.1" y1="134.0" x2="102.1" y2="106.0"/>
<line x1="109.3" y1="100.0" x2="74.6" y2="80.0"/>
<line x1="74.6" y1="80.0" x2="40.0" y2="100.0"/>
<line x1="73.0" y1="89.2" x2="48.8" y2="103.2"/>
<line x1="40.0" y1="100.0" x2="40.0" y2="140.0"/>
<line x1="40.0" y1="140.0" x2="74.6" y2="160.0"/>
<line x1="48.8" y1="136.8" x2="73.0" y2="150.8"/>
<text x="68.641016" y="48.320000" fill="rgb(12,12,255)"  stroke="rgb(12,12,255)" stroke-width="1" font-size="16" >NH</text>
<text x="92.641016" y="56.000000" fill="rgb(12,12,255)"  stroke="rgb(12,12,255)" stroke-width="1" font-size="13" >2</text>
<text x="169.605081" y="53.678984" fill="rgb(12,12,255)"  stroke="rgb(12,12,255)" stroke-width="1" font-size="16" >H</text>
<text x="181.605081" y="61.358984" fill="rgb(12,12,255)"  stroke="rgb(12,12,255)" stroke-width="1" font-size="13" >2</text>
<text x="188.105081" y="53.678984" fill="rgb(12,12,255)"  stroke="rgb(12,12,255)" stroke-width="1" font-size="16" >N</text>
<text x="137.923048" y="48.320000" fill="rgb(255,12,12)"  stroke="rgb(255,12,12)" stroke-width="1" font-size="16" >O</text>
<text x="241.846097" y="144.800000" fill="rgb(255,12,12)"  stroke="rgb(255,12,12)" stroke-width="1" font-size="16" >O</text>
<text x="276.487113" y="88.320000" fill="rgb(255,12,12)"  stroke="rgb(255,12,12)" stroke-width="1" font-size="16" >OH</text>
<text x="227.205081" y="53.678984" fill="rgb(191,191,191)"  stroke="rgb(191,191,191)" stroke-width="1" font-size="16" >H</text>
<text font-size="18.000000" fill ="black" font-family="sans-serif"
x="140.000000" y="20.000000" ></text>
<title> - OBDepict</title>
</svg>
