<?xml version="1.0"?>
<svg xmlns="http://www.w3.org/2000/svg"
xmlns:xlink="http://www.w3.org/1999/xlink" xmlns:cml="http://www.xml-cml.org/schema" width="329.282" height="278.564" x="0" y="0" font-family="sans-serif" stroke="rgb(0,0,0)" stroke-width="1" >
<line x1="100.3" y1="103.8" x2="74.6" y2="118.6"/>
<line x1="169.3" y1="143.9" x2="129.3" y2="143.9"/>
<line x1="169.3" y1="143.9" x2="189.3" y2="109.3"/>
<line x1="129.3" y1="143.9" x2="109.3" y2="178.6"/>
<line x1="189.3" y1="109.3" x2="218.9" y2="109.3"/>
<line x1="77.6" y1="118.6" x2="77.6" y2="148.2"/>
<line x1="71.6" y1="118.6" x2="71.6" y2="148.2"/>
<line x1="74.6" y1="118.6" x2="49.0" y2="103.8"/>
<line x1="96.8" y1="200.9" x2="96.1" y2="200.5"/>
<line x1="99.2" y1="197.7" x2="97.8" y2="196.9"/>
<line x1="101.5" y1="194.4" x2="99.4" y2="193.2"/>
<line x1="103.9" y1="191.1" x2="101.1" y2="189.5"/>
<line x1="106.2" y1="187.9" x2="102.7" y2="185.9"/>
<line x1="108.6" y1="184.6" x2="104.4" y2="182.2"/>
<line x1="110.9" y1="181.3" x2="106.1" y2="178.5"/>
<line x1="109.3" y1="178.6" x2="143.9" y2="198.6"/>
<line x1="109.3" y1="178.6" x2="83.6" y2="163.8"/>
<line x1="142.4" y1="196.0" x2="168.1" y2="181.2"/>
<line x1="145.4" y1="201.2" x2="171.1" y2="186.4"/>
<line x1="143.9" y1="198.6" x2="143.9" y2="228.2"/>
<line x1="249.3" y1="71.6" x2="278.9" y2="71.6"/>
<line x1="249.3" y1="77.6" x2="278.9" y2="77.6"/>
<line x1="249.3" y1="74.6" x2="234.5" y2="100.3"/>
<line x1="249.3" y1="74.6" x2="234.5" y2="49.0"/>
<text x="103.282032" y="106.884065" fill="rgb(102,102,102)"  stroke="rgb(102,102,102)" stroke-width="1" font-size="16" >CH</text>
<text x="127.282032" y="114.564065" fill="rgb(102,102,102)"  stroke="rgb(102,102,102)" stroke-width="1" font-size="13" >3</text>
<text x="283.282032" y="79.441016" fill="rgb(12,12,255)"  stroke="rgb(12,12,255)" stroke-width="1" font-size="16" >NH</text>
<text x="223.282032" y="114.082032" fill="rgb(12,12,255)"  stroke="rgb(12,12,255)" stroke-width="1" font-size="16" >NH</text>
<text x="71.041016" y="163.364065" fill="rgb(12,12,255)"  stroke="rgb(12,12,255)" stroke-width="1" font-size="16" >N</text>
<text x="35.200000" y="92.164065" fill="rgb(255,12,12)"  stroke="rgb(255,12,12)" stroke-width="1" font-size="32" >-</text>
<text x="36.400000" y="106.884065" fill="rgb(255,12,12)"  stroke="rgb(255,12,12)" stroke-width="1" font-size="16" >O</text>
<text x="172.564065" y="186.884065" fill="rgb(255,12,12)"  stroke="rgb(255,12,12)" stroke-width="1" font-size="16" >O</text>
<text x="137.923048" y="243.364065" fill="rgb(255,12,12)"  stroke="rgb(255,12,12)" stroke-width="1" font-size="16" >OH</text>
<text x="213.682032" y="48.320000" fill="rgb(255,12,12)"  stroke="rgb(255,12,12)" stroke-width="1" font-size="16" >HO</text>
<text x="85.682032" y="218.005081" fill="rgb(191,191,191)"  stroke="rgb(191,191,191)" stroke-width="1" font-size="16" >H</text>
<text font-size="18.000000" fill ="black" font-family="sans-serif"
x="140.000000" y="20.000000" ></text>
<title> - OBDepict</title>
</svg>
