<?xml version="1.0"?>
<svg xmlns="http://www.w3.org/2000/svg"
xmlns:xlink="http://www.w3.org/1999/xlink" xmlns:cml="http://www.xml-cml.org/schema" width="664.509" height="482.955" x="0" y="0" font-family="sans-serif" stroke="rgb(0,0,0)" stroke-width="1" >
<line x1="302.7" y1="338.3" x2="268.1" y2="358.3"/>
<line x1="302.7" y1="338.3" x2="328.4" y2="353.1"/>
<line x1="462.7" y1="258.3" x2="462.7" y2="218.3"/>
<line x1="462.7" y1="258.3" x2="488.4" y2="273.1"/>
<line x1="263.9" y1="398.1" x2="285.9" y2="417.9"/>
<line x1="430.4" y1="194.8" x2="402.2" y2="204.0"/>
<line x1="224.8" y1="406.4" x2="212.8" y2="433.5"/>
<line x1="442.7" y1="156.8" x2="425.3" y2="132.8"/>
<line x1="79.1" y1="311.5" x2="50.2" y2="317.7"/>
<line x1="597.7" y1="78.0" x2="606.9" y2="49.9"/>
<line x1="204.8" y1="371.8" x2="175.4" y2="368.7"/>
<line x1="482.7" y1="156.8" x2="500.1" y2="132.8"/>
<line x1="307.8" y1="398.3" x2="327.0" y2="398.3"/>
<line x1="334.4" y1="427.9" x2="334.4" y2="408.7"/>
<line x1="340.4" y1="427.9" x2="340.4" y2="408.7"/>
<line x1="497.4" y1="347.9" x2="497.4" y2="328.7"/>
<line x1="527.0" y1="321.3" x2="507.8" y2="321.3"/>
<line x1="527.0" y1="315.3" x2="507.8" y2="315.3"/>
<line x1="417.4" y1="427.9" x2="417.4" y2="408.7"/>
<line x1="447.0" y1="401.3" x2="427.8" y2="401.3"/>
<line x1="447.0" y1="395.3" x2="427.8" y2="395.3"/>
<line x1="387.8" y1="318.3" x2="407.0" y2="318.3"/>
<line x1="420.4" y1="288.7" x2="420.4" y2="307.9"/>
<line x1="414.4" y1="288.7" x2="414.4" y2="307.9"/>
<line x1="337.4" y1="368.7" x2="337.4" y2="387.9"/>
<line x1="497.4" y1="288.7" x2="497.4" y2="307.9"/>
<line x1="367.0" y1="398.3" x2="347.8" y2="398.3"/>
<line x1="387.8" y1="398.3" x2="407.0" y2="398.3"/>
<line x1="467.8" y1="318.3" x2="487.0" y2="318.3"/>
<line x1="447.0" y1="318.3" x2="427.8" y2="318.3"/>
<line x1="417.4" y1="368.7" x2="417.4" y2="387.9"/>
<line x1="417.4" y1="347.9" x2="417.4" y2="328.7"/>
<line x1="138.3" y1="397.3" x2="158.1" y2="375.3"/>
<line x1="159.8" y1="358.6" x2="145.0" y2="332.9"/>
<line x1="145.0" y1="332.9" x2="105.9" y2="341.3"/>
<line x1="105.9" y1="341.3" x2="102.8" y2="370.7"/>
<line x1="111.2" y1="385.3" x2="138.3" y2="397.3"/>
<line x1="116.0" y1="379.5" x2="135.7" y2="388.3"/>
<line x1="493.9" y1="86.4" x2="503.0" y2="114.5"/>
<line x1="516.7" y1="124.4" x2="546.3" y2="124.4"/>
<line x1="546.3" y1="124.4" x2="558.6" y2="86.4"/>
<line x1="558.6" y1="86.4" x2="534.7" y2="69.0"/>
<line x1="517.8" y1="69.0" x2="493.9" y2="86.4"/>
<line x1="520.5" y1="76.0" x2="503.0" y2="88.7"/>
<line x1="268.1" y1="358.3" x2="263.9" y2="398.1"/>
<line x1="263.9" y1="398.1" x2="224.8" y2="406.4"/>
<line x1="224.8" y1="406.4" x2="204.8" y2="371.8"/>
<line x1="204.8" y1="371.8" x2="224.6" y2="349.8"/>
<line x1="241.1" y1="346.3" x2="268.1" y2="358.3"/>
<line x1="462.7" y1="218.3" x2="430.4" y2="194.8"/>
<line x1="430.4" y1="194.8" x2="442.7" y2="156.8"/>
<line x1="442.7" y1="156.8" x2="482.7" y2="156.8"/>
<line x1="482.7" y1="156.8" x2="491.9" y2="184.9"/>
<line x1="486.7" y1="200.9" x2="462.7" y2="218.3"/>
<line x1="145.0" y1="332.9" x2="154.2" y2="304.8"/>
<line x1="140.0" y1="325.0" x2="146.7" y2="304.5"/>
<line x1="150.4" y1="287.2" x2="130.6" y2="265.2"/>
<line x1="130.6" y1="265.2" x2="101.7" y2="271.3"/>
<line x1="126.2" y1="273.5" x2="105.1" y2="278.0"/>
<line x1="88.3" y1="283.4" x2="79.1" y2="311.5"/>
<line x1="79.1" y1="311.5" x2="105.9" y2="341.3"/>
<line x1="88.5" y1="311.2" x2="107.2" y2="332.0"/>
<line x1="546.3" y1="124.4" x2="566.1" y2="146.4"/>
<line x1="555.6" y1="124.0" x2="570.1" y2="140.1"/>
<line x1="583.2" y1="152.0" x2="612.1" y2="145.8"/>
<line x1="612.1" y1="145.8" x2="621.3" y2="117.7"/>
<line x1="607.2" y1="137.9" x2="613.8" y2="117.3"/>
<line x1="617.6" y1="100.0" x2="597.7" y2="78.0"/>
<line x1="597.7" y1="78.0" x2="558.6" y2="86.4"/>
<line x1="593.4" y1="86.3" x2="566.0" y2="92.2"/>
<text x="16.400000" y="324.656654" fill="rgb(12,12,255)"  stroke="rgb(12,12,255)" stroke-width="1" font-size="16" >H</text>
<text x="28.400000" y="329.456654" fill="rgb(12,12,255)"  stroke="rgb(12,12,255)" stroke-width="1" font-size="13" >2</text>
<text x="34.900000" y="324.656654" fill="rgb(12,12,255)"  stroke="rgb(12,12,255)" stroke-width="1" font-size="16" >N</text>
<text x="604.104641" y="48.320000" fill="rgb(12,12,255)"  stroke="rgb(12,12,255)" stroke-width="1" font-size="16" >NH</text>
<text x="628.104641" y="56.000000" fill="rgb(12,12,255)"  stroke="rgb(12,12,255)" stroke-width="1" font-size="13" >2</text>
<text x="87.886584" y="281.817926" fill="rgb(12,12,255)"  stroke="rgb(12,12,255)" stroke-width="1" font-size="16" >N</text>
<text x="618.509185" y="116.088054" fill="rgb(12,12,255)"  stroke="rgb(12,12,255)" stroke-width="1" font-size="16" >N</text>
<text x="151.377712" y="303.227251" fill="rgb(12,12,255)"  stroke="rgb(12,12,255)" stroke-width="1" font-size="16" >N</text>
<text x="569.422601" y="158.926782" fill="rgb(12,12,255)"  stroke="rgb(12,12,255)" stroke-width="1" font-size="16" >N</text>
<text x="98.109990" y="385.846856" fill="rgb(12,12,255)"  stroke="rgb(12,12,255)" stroke-width="1" font-size="16" >N</text>
<text x="520.257377" y="71.167318" fill="rgb(12,12,255)"  stroke="rgb(12,12,255)" stroke-width="1" font-size="16" >N</text>
<text x="159.017032" y="372.390528" fill="rgb(12,12,255)"  stroke="rgb(12,12,255)" stroke-width="1" font-size="16" >N</text>
<text x="502.657377" y="129.200989" fill="rgb(12,12,255)"  stroke="rgb(12,12,255)" stroke-width="1" font-size="16" >N</text>
<text x="287.649605" y="429.661440" fill="rgb(255,12,12)"  stroke="rgb(255,12,12)" stroke-width="1" font-size="16" >OH</text>
<text x="376.743026" y="211.964609" fill="rgb(255,12,12)"  stroke="rgb(255,12,12)" stroke-width="1" font-size="16" >HO</text>
<text x="192.928442" y="447.754501" fill="rgb(255,12,12)"  stroke="rgb(255,12,12)" stroke-width="1" font-size="16" >HO</text>
<text x="403.634557" y="132.720989" fill="rgb(255,12,12)"  stroke="rgb(255,12,12)" stroke-width="1" font-size="16" >HO</text>
<text x="292.586983" y="417.515339" fill="rgb(255,12,12)"  stroke="rgb(255,12,12)" stroke-width="1" font-size="32" >-</text>
<text x="293.786983" y="403.115339" fill="rgb(255,12,12)"  stroke="rgb(255,12,12)" stroke-width="1" font-size="16" >O</text>
<text x="331.386983" y="443.115339" fill="rgb(255,12,12)"  stroke="rgb(255,12,12)" stroke-width="1" font-size="16" >O</text>
<text x="492.586983" y="377.515339" fill="rgb(255,12,12)"  stroke="rgb(255,12,12)" stroke-width="1" font-size="32" >-</text>
<text x="491.386983" y="363.115339" fill="rgb(255,12,12)"  stroke="rgb(255,12,12)" stroke-width="1" font-size="16" >O</text>
<text x="531.386983" y="323.115339" fill="rgb(255,12,12)"  stroke="rgb(255,12,12)" stroke-width="1" font-size="16" >O</text>
<text x="412.586983" y="457.515339" fill="rgb(255,12,12)"  stroke="rgb(255,12,12)" stroke-width="1" font-size="32" >-</text>
<text x="411.386983" y="443.115339" fill="rgb(255,12,12)"  stroke="rgb(255,12,12)" stroke-width="1" font-size="16" >O</text>
<text x="451.386983" y="403.115339" fill="rgb(255,12,12)"  stroke="rgb(255,12,12)" stroke-width="1" font-size="16" >O</text>
<text x="372.586983" y="337.515339" fill="rgb(255,12,12)"  stroke="rgb(255,12,12)" stroke-width="1" font-size="32" >-</text>
<text x="373.786983" y="323.115339" fill="rgb(255,12,12)"  stroke="rgb(255,12,12)" stroke-width="1" font-size="16" >O</text>
<text x="411.386983" y="286.635339" fill="rgb(255,12,12)"  stroke="rgb(255,12,12)" stroke-width="1" font-size="16" >O</text>
<text x="331.386983" y="366.635339" fill="rgb(255,12,12)"  stroke="rgb(255,12,12)" stroke-width="1" font-size="16" >O</text>
<text x="491.386983" y="286.635339" fill="rgb(255,12,12)"  stroke="rgb(255,12,12)" stroke-width="1" font-size="16" >O</text>
<text x="227.963132" y="350.365874" fill="rgb(255,12,12)"  stroke="rgb(255,12,12)" stroke-width="1" font-size="16" >O</text>
<text x="489.106647" y="199.603929" fill="rgb(255,12,12)"  stroke="rgb(255,12,12)" stroke-width="1" font-size="16" >O</text>
<text x="371.386983" y="403.115339" fill="rgb(255,12,12)"  stroke="rgb(255,12,12)" stroke-width="1" font-size="16" >O</text>
<text x="451.386983" y="326.635339" fill="rgb(255,12,12)"  stroke="rgb(255,12,12)" stroke-width="1" font-size="16" >O</text>
<text x="411.386983" y="363.115339" fill="rgb(255,12,12)"  stroke="rgb(255,12,12)" stroke-width="1" font-size="16" >O</text>
<text x="331.386983" y="403.115339" fill="rgb(255,127,0)"  stroke="rgb(255,127,0)" stroke-width="1" font-size="16" >P</text>
<text x="491.386983" y="323.115339" fill="rgb(255,127,0)"  stroke="rgb(255,127,0)" stroke-width="1" font-size="16" >P</text>
<text x="411.386983" y="403.115339" fill="rgb(255,127,0)"  stroke="rgb(255,127,0)" stroke-width="1" font-size="16" >P</text>
<text x="411.386983" y="323.115339" fill="rgb(255,127,0)"  stroke="rgb(255,127,0)" stroke-width="1" font-size="16" >P</text>
<text font-size="18.000000" fill ="black" font-family="sans-serif"
x="140.000000" y="20.000000" ></text>
<title> - OBDepict</title>
</svg>
