<?xml version="1.0"?>
<svg xmlns="http://www.w3.org/2000/svg"
xmlns:xlink="http://www.w3.org/1999/xlink" xmlns:cml="http://www.xml-cml.org/schema" width="530.987" height="330.056" x="0" y="0" font-family="sans-serif" stroke="rgb(0,0,0)" stroke-width="1" >
<line x1="170.3" y1="164.4" x2="184.1" y2="188.3"/>
<line x1="48.4" y1="266.6" x2="72.3" y2="252.8"/>
<line x1="72.3" y1="280.4" x2="72.3" y2="252.8"/>
<polygon points="387.860651 113.878343 392.216445 139.639135 399.807283 137.113431 " />
<polygon points="290.905467 169.760446 286.877448 221.395127 294.877447 221.399468 " />
<line x1="128.2" y1="220.6" x2="165.4" y2="220.6"/>
<line x1="128.2" y1="220.6" x2="109.5" y2="252.8"/>
<line x1="165.4" y1="220.6" x2="184.1" y2="188.3"/>
<line x1="109.5" y1="252.8" x2="72.3" y2="252.8"/>
<line x1="204.9" y1="199.9" x2="204.5" y2="200.6"/>
<line x1="201.9" y1="197.7" x2="201.1" y2="199.1"/>
<line x1="198.9" y1="195.5" x2="197.7" y2="197.6"/>
<line x1="195.8" y1="193.3" x2="194.2" y2="196.1"/>
<line x1="192.8" y1="191.1" x2="190.8" y2="194.5"/>
<line x1="189.8" y1="188.9" x2="187.4" y2="193.0"/>
<line x1="186.8" y1="186.7" x2="184.0" y2="191.5"/>
<line x1="184.1" y1="188.3" x2="258.6" y2="188.4"/>
<polygon points="396.058699 52.061785 384.086859 75.283895 391.674952 77.817835 " />
<polygon points="478.270665 76.565444 452.449074 72.585903 452.455413 80.585901 " />
<line x1="452.5" y1="76.6" x2="466.7" y2="51.9"/>
<line x1="258.6" y1="188.4" x2="258.5" y2="216.9"/>
<line x1="312.1" y1="119.8" x2="312.5" y2="120.5"/>
<line x1="308.5" y1="121.3" x2="309.3" y2="122.7"/>
<line x1="305.0" y1="122.9" x2="306.2" y2="125.0"/>
<line x1="301.5" y1="124.5" x2="303.1" y2="127.3"/>
<line x1="297.9" y1="126.1" x2="299.9" y2="129.6"/>
<line x1="294.4" y1="127.7" x2="296.8" y2="131.8"/>
<line x1="290.9" y1="129.3" x2="293.7" y2="134.1"/>
<line x1="355.2" y1="108.6" x2="356.0" y2="108.6"/>
<line x1="354.8" y1="112.3" x2="356.4" y2="112.3"/>
<line x1="354.4" y1="116.1" x2="356.8" y2="116.1"/>
<line x1="353.9" y1="119.8" x2="357.1" y2="119.8"/>
<line x1="353.5" y1="123.5" x2="357.5" y2="123.5"/>
<line x1="353.1" y1="127.3" x2="357.9" y2="127.3"/>
<line x1="352.7" y1="131.0" x2="358.3" y2="131.0"/>
<polygon points="310.390347 54.136094 319.797104 78.510348 326.731595 74.521258 " />
<line x1="323.3" y1="76.5" x2="294.7" y2="76.5"/>
<polygon points="310.282290 210.760211 326.666652 190.409682 319.740620 186.405923 " />
<line x1="323.2" y1="188.4" x2="337.4" y2="213.1"/>
<polygon points="323.230542 138.822396 327.244095 113.845452 319.244096 113.841111 " />
<line x1="72.3" y1="252.8" x2="58.5" y2="228.9"/>
<line x1="226.3" y1="169.7" x2="226.4" y2="132.4"/>
<line x1="226.4" y1="132.4" x2="290.9" y2="132.5"/>
<line x1="290.9" y1="132.5" x2="290.9" y2="169.8"/>
<line x1="290.9" y1="169.8" x2="258.6" y2="188.4"/>
<line x1="258.6" y1="188.4" x2="226.3" y2="169.7"/>
<line x1="355.6" y1="57.9" x2="387.9" y2="76.6"/>
<line x1="387.9" y1="76.6" x2="387.9" y2="113.9"/>
<line x1="387.9" y1="113.9" x2="355.5" y2="132.5"/>
<line x1="355.5" y1="132.5" x2="323.2" y2="113.8"/>
<line x1="323.2" y1="113.8" x2="323.3" y2="76.5"/>
<line x1="323.3" y1="76.5" x2="355.6" y2="57.9"/>
<line x1="355.5" y1="169.8" x2="323.2" y2="188.4"/>
<line x1="323.2" y1="188.4" x2="290.9" y2="169.8"/>
<line x1="290.9" y1="132.5" x2="323.2" y2="113.8"/>
<line x1="355.5" y1="132.5" x2="355.5" y2="169.8"/>
<line x1="452.4" y1="113.9" x2="420.1" y2="132.5"/>
<line x1="420.1" y1="132.5" x2="387.9" y2="113.9"/>
<line x1="387.9" y1="76.6" x2="420.2" y2="57.9"/>
<line x1="420.2" y1="57.9" x2="452.5" y2="76.6"/>
<line x1="452.5" y1="76.6" x2="452.4" y2="113.9"/>
<text x="141.865731" y="164.377956" fill="rgb(102,102,102)"  stroke="rgb(102,102,102)" stroke-width="1" font-size="16" >H</text>
<text x="153.865731" y="172.057956" fill="rgb(102,102,102)"  stroke="rgb(102,102,102)" stroke-width="1" font-size="13" >3</text>
<text x="160.365731" y="164.377956" fill="rgb(102,102,102)"  stroke="rgb(102,102,102)" stroke-width="1" font-size="16" >C</text>
<text x="16.400000" y="276.210421" fill="rgb(102,102,102)"  stroke="rgb(102,102,102)" stroke-width="1" font-size="16" >H</text>
<text x="28.400000" y="281.010421" fill="rgb(102,102,102)"  stroke="rgb(102,102,102)" stroke-width="1" font-size="13" >3</text>
<text x="34.900000" y="276.210421" fill="rgb(102,102,102)"  stroke="rgb(102,102,102)" stroke-width="1" font-size="16" >C</text>
<text x="66.254139" y="294.855699" fill="rgb(102,102,102)"  stroke="rgb(102,102,102)" stroke-width="1" font-size="16" >CH</text>
<text x="90.254139" y="299.655699" fill="rgb(102,102,102)"  stroke="rgb(102,102,102)" stroke-width="1" font-size="13" >3</text>
<text x="394.026640" y="155.242432" fill="rgb(102,102,102)"  stroke="rgb(102,102,102)" stroke-width="1" font-size="16" >CH</text>
<text x="418.026640" y="160.042432" fill="rgb(102,102,102)"  stroke="rgb(102,102,102)" stroke-width="1" font-size="13" >3</text>
<text x="284.863648" y="251.630374" fill="rgb(102,102,102)"  stroke="rgb(102,102,102)" stroke-width="1" font-size="16" >CH</text>
<text x="308.863648" y="256.430374" fill="rgb(102,102,102)"  stroke="rgb(102,102,102)" stroke-width="1" font-size="13" >3</text>
<text x="465.693278" y="51.518382" fill="rgb(255,12,12)"  stroke="rgb(255,12,12)" stroke-width="1" font-size="16" >OH</text>
<text x="269.129428" y="84.775146" fill="rgb(255,12,12)"  stroke="rgb(255,12,12)" stroke-width="1" font-size="16" >HO</text>
<text x="336.453010" y="226.590515" fill="rgb(255,12,12)"  stroke="rgb(255,12,12)" stroke-width="1" font-size="16" >OH</text>
<text x="38.064090" y="228.845803" fill="rgb(255,12,12)"  stroke="rgb(255,12,12)" stroke-width="1" font-size="16" >HO</text>
<text x="210.330134" y="211.777588" fill="rgb(191,191,191)"  stroke="rgb(191,191,191)" stroke-width="1" font-size="16" >H</text>
<text x="394.086568" y="48.320000" fill="rgb(191,191,191)"  stroke="rgb(191,191,191)" stroke-width="1" font-size="16" >H</text>
<text x="484.987201" y="84.875367" fill="rgb(191,191,191)"  stroke="rgb(191,191,191)" stroke-width="1" font-size="16" >H</text>
<text x="252.519405" y="231.707651" fill="rgb(191,191,191)"  stroke="rgb(191,191,191)" stroke-width="1" font-size="16" >H</text>
<text x="318.286955" y="121.489022" fill="rgb(191,191,191)"  stroke="rgb(191,191,191)" stroke-width="1" font-size="16" >H</text>
<text x="349.562507" y="103.505769" fill="rgb(191,191,191)"  stroke="rgb(191,191,191)" stroke-width="1" font-size="16" >H</text>
<text x="300.449420" y="51.433253" fill="rgb(191,191,191)"  stroke="rgb(191,191,191)" stroke-width="1" font-size="16" >H</text>
<text x="300.318046" y="226.569606" fill="rgb(191,191,191)"  stroke="rgb(191,191,191)" stroke-width="1" font-size="16" >H</text>
<text x="317.223866" y="155.925542" fill="rgb(191,191,191)"  stroke="rgb(191,191,191)" stroke-width="1" font-size="16" >H</text>
<text font-size="18.000000" fill ="black" font-family="sans-serif"
x="140.000000" y="20.000000" ></text>
<title> - OBDepict</title>
</svg>
