<?xml version="1.0"?>
<svg xmlns="http://www.w3.org/2000/svg"
xmlns:xlink="http://www.w3.org/1999/xlink" xmlns:cml="http://www.xml-cml.org/schema" width="287.846" height="520" x="0" y="0" font-family="sans-serif" stroke="rgb(0,0,0)" stroke-width="1" >
<line x1="118.3" y1="234.8" x2="143.9" y2="220.0"/>
<line x1="169.6" y1="354.8" x2="143.9" y2="340.0"/>
<line x1="238.8" y1="114.8" x2="213.2" y2="100.0"/>
<line x1="100.3" y1="474.8" x2="74.6" y2="460.0"/>
<line x1="129.1" y1="125.6" x2="143.9" y2="100.0"/>
<line x1="114.3" y1="100.0" x2="143.9" y2="100.0"/>
<line x1="178.6" y1="280.0" x2="204.2" y2="294.8"/>
<line x1="178.6" y1="280.0" x2="178.6" y2="240.0"/>
<line x1="180.1" y1="282.6" x2="145.4" y2="302.6"/>
<line x1="177.1" y1="277.4" x2="142.4" y2="297.4"/>
<line x1="178.6" y1="240.0" x2="204.2" y2="225.2"/>
<line x1="177.1" y1="242.6" x2="142.4" y2="222.6"/>
<line x1="180.1" y1="237.4" x2="145.4" y2="217.4"/>
<line x1="143.9" y1="300.0" x2="118.3" y2="285.2"/>
<line x1="143.9" y1="300.0" x2="143.9" y2="340.0"/>
<line x1="143.9" y1="180.0" x2="118.3" y2="165.2"/>
<line x1="142.4" y1="177.4" x2="177.1" y2="157.4"/>
<line x1="145.4" y1="182.6" x2="180.1" y2="162.6"/>
<line x1="143.9" y1="180.0" x2="143.9" y2="220.0"/>
<line x1="178.6" y1="160.0" x2="204.2" y2="174.8"/>
<line x1="178.6" y1="160.0" x2="178.6" y2="120.0"/>
<line x1="109.3" y1="360.0" x2="83.6" y2="345.2"/>
<line x1="109.3" y1="360.0" x2="109.3" y2="400.0"/>
<line x1="107.8" y1="357.4" x2="142.4" y2="337.4"/>
<line x1="110.8" y1="362.6" x2="145.4" y2="342.6"/>
<line x1="109.3" y1="400.0" x2="83.6" y2="414.8"/>
<line x1="76.1" y1="462.6" x2="50.5" y2="477.4"/>
<line x1="73.1" y1="457.4" x2="47.5" y2="472.2"/>
<line x1="74.6" y1="460.0" x2="74.6" y2="430.4"/>
<line x1="213.2" y1="60.0" x2="238.8" y2="45.2"/>
<line x1="213.2" y1="100.0" x2="213.2" y2="60.0"/>
<line x1="213.2" y1="60.0" x2="178.6" y2="40.0"/>
<line x1="178.6" y1="40.0" x2="143.9" y2="60.0"/>
<line x1="143.9" y1="60.0" x2="143.9" y2="100.0"/>
<line x1="143.9" y1="100.0" x2="178.6" y2="120.0"/>
<line x1="178.6" y1="120.0" x2="213.2" y2="100.0"/>
<line x1="180.2" y1="110.8" x2="204.4" y2="96.8"/>
<text x="85.682032" y="244.800000" fill="rgb(102,102,102)"  stroke="rgb(102,102,102)" stroke-width="1" font-size="16" >H</text>
<text x="97.682032" y="249.600000" fill="rgb(102,102,102)"  stroke="rgb(102,102,102)" stroke-width="1" font-size="13" >3</text>
<text x="104.182032" y="244.800000" fill="rgb(102,102,102)"  stroke="rgb(102,102,102)" stroke-width="1" font-size="16" >C</text>
<text x="172.564065" y="364.800000" fill="rgb(102,102,102)"  stroke="rgb(102,102,102)" stroke-width="1" font-size="16" >CH</text>
<text x="196.564065" y="369.600000" fill="rgb(102,102,102)"  stroke="rgb(102,102,102)" stroke-width="1" font-size="13" >3</text>
<text x="241.846097" y="124.800000" fill="rgb(102,102,102)"  stroke="rgb(102,102,102)" stroke-width="1" font-size="16" >CH</text>
<text x="265.846097" y="129.600000" fill="rgb(102,102,102)"  stroke="rgb(102,102,102)" stroke-width="1" font-size="13" >3</text>
<text x="103.282032" y="484.800000" fill="rgb(102,102,102)"  stroke="rgb(102,102,102)" stroke-width="1" font-size="16" >CH</text>
<text x="127.282032" y="489.600000" fill="rgb(102,102,102)"  stroke="rgb(102,102,102)" stroke-width="1" font-size="13" >3</text>
<text x="100.323048" y="139.441016" fill="rgb(102,102,102)"  stroke="rgb(102,102,102)" stroke-width="1" font-size="16" >H</text>
<text x="112.323048" y="144.241016" fill="rgb(102,102,102)"  stroke="rgb(102,102,102)" stroke-width="1" font-size="13" >3</text>
<text x="118.823048" y="139.441016" fill="rgb(102,102,102)"  stroke="rgb(102,102,102)" stroke-width="1" font-size="16" >C</text>
<text x="80.323048" y="108.320000" fill="rgb(102,102,102)"  stroke="rgb(102,102,102)" stroke-width="1" font-size="16" >H</text>
<text x="92.323048" y="116.000000" fill="rgb(102,102,102)"  stroke="rgb(102,102,102)" stroke-width="1" font-size="13" >3</text>
<text x="98.823048" y="108.320000" fill="rgb(102,102,102)"  stroke="rgb(102,102,102)" stroke-width="1" font-size="16" >C</text>
<text x="36.400000" y="484.800000" fill="rgb(255,12,12)"  stroke="rgb(255,12,12)" stroke-width="1" font-size="16" >O</text>
<text x="241.846097" y="48.320000" fill="rgb(255,12,12)"  stroke="rgb(255,12,12)" stroke-width="1" font-size="16" >OH</text>
<text x="71.041016" y="428.320000" fill="rgb(255,12,12)"  stroke="rgb(255,12,12)" stroke-width="1" font-size="16" >O</text>
<text x="207.205081" y="304.800000" fill="rgb(191,191,191)"  stroke="rgb(191,191,191)" stroke-width="1" font-size="16" >H</text>
<text x="207.205081" y="228.320000" fill="rgb(191,191,191)"  stroke="rgb(191,191,191)" stroke-width="1" font-size="16" >H</text>
<text x="105.682032" y="288.320000" fill="rgb(191,191,191)"  stroke="rgb(191,191,191)" stroke-width="1" font-size="16" >H</text>
<text x="105.682032" y="168.320000" fill="rgb(191,191,191)"  stroke="rgb(191,191,191)" stroke-width="1" font-size="16" >H</text>
<text x="207.205081" y="184.800000" fill="rgb(191,191,191)"  stroke="rgb(191,191,191)" stroke-width="1" font-size="16" >H</text>
<text x="71.041016" y="348.320000" fill="rgb(191,191,191)"  stroke="rgb(191,191,191)" stroke-width="1" font-size="16" >H</text>
<text font-size="18.000000" fill ="black" font-family="sans-serif"
x="140.000000" y="20.000000" ></text>
<title> - OBDepict</title>
</svg>
