<?xml version="1.0"?>
<svg xmlns="http://www.w3.org/2000/svg"
xmlns:xlink="http://www.w3.org/1999/xlink" xmlns:cml="http://www.xml-cml.org/schema" width="315.099" height="274.746" x="0" y="0" font-family="sans-serif" stroke="rgb(0,0,0)" stroke-width="1" >
<line x1="89.9" y1="48.9" x2="75.3" y2="74.3"/>
<line x1="60.7" y1="48.9" x2="75.3" y2="74.3"/>
<line x1="110.2" y1="139.4" x2="111.0" y2="139.4"/>
<line x1="109.8" y1="143.3" x2="111.4" y2="143.3"/>
<line x1="109.4" y1="147.3" x2="111.8" y2="147.3"/>
<line x1="109.0" y1="151.2" x2="112.2" y2="151.2"/>
<line x1="108.6" y1="155.2" x2="112.6" y2="155.2"/>
<line x1="108.2" y1="159.1" x2="113.0" y2="159.1"/>
<line x1="107.8" y1="163.1" x2="113.4" y2="163.1"/>
<line x1="240.6" y1="162.6" x2="240.8" y2="161.9"/>
<line x1="244.3" y1="164.1" x2="244.7" y2="162.5"/>
<line x1="248.0" y1="165.5" x2="248.7" y2="163.2"/>
<line x1="251.8" y1="166.9" x2="252.6" y2="163.8"/>
<line x1="255.5" y1="168.3" x2="256.5" y2="164.4"/>
<line x1="259.2" y1="169.7" x2="260.4" y2="165.1"/>
<line x1="262.9" y1="171.1" x2="264.4" y2="165.7"/>
<polygon points="181.208950 135.395288 185.208098 94.631937 177.208098 94.632105 " />
<polygon points="223.372449 222.138646 220.377659 195.507125 212.650253 197.577677 " />
<line x1="110.6" y1="94.6" x2="110.6" y2="65.4"/>
<line x1="145.9" y1="155.8" x2="131.3" y2="130.4"/>
<line x1="236.9" y1="161.2" x2="257.6" y2="140.5"/>
<line x1="216.5" y1="155.8" x2="216.5" y2="196.5"/>
<line x1="216.5" y1="196.5" x2="236.9" y2="161.2"/>
<line x1="236.9" y1="161.2" x2="222.0" y2="135.4"/>
<line x1="222.0" y1="135.4" x2="181.2" y2="135.4"/>
<line x1="181.2" y1="135.4" x2="216.5" y2="155.8"/>
<line x1="145.9" y1="196.5" x2="181.2" y2="216.9"/>
<line x1="181.2" y1="216.9" x2="216.5" y2="196.5"/>
<line x1="181.2" y1="135.4" x2="145.9" y2="155.8"/>
<line x1="145.9" y1="155.8" x2="145.9" y2="196.5"/>
<line x1="110.6" y1="94.6" x2="110.6" y2="135.4"/>
<line x1="110.6" y1="135.4" x2="145.9" y2="155.8"/>
<line x1="181.2" y1="135.4" x2="181.2" y2="94.6"/>
<line x1="181.2" y1="94.6" x2="145.9" y2="74.3"/>
<line x1="145.9" y1="74.3" x2="110.6" y2="94.6"/>
<line x1="40.0" y1="135.4" x2="75.3" y2="155.8"/>
<line x1="75.3" y1="155.8" x2="110.6" y2="135.4"/>
<line x1="110.6" y1="94.6" x2="75.3" y2="74.3"/>
<line x1="75.3" y1="74.3" x2="40.0" y2="94.6"/>
<line x1="40.0" y1="94.6" x2="40.0" y2="135.4"/>
<text x="89.076392" y="48.320000" fill="rgb(102,102,102)"  stroke="rgb(102,102,102)" stroke-width="1" font-size="16" >CH</text>
<text x="113.076392" y="56.000000" fill="rgb(102,102,102)"  stroke="rgb(102,102,102)" stroke-width="1" font-size="13" >3</text>
<text x="31.925373" y="48.320827" fill="rgb(102,102,102)"  stroke="rgb(102,102,102)" stroke-width="1" font-size="16" >H</text>
<text x="43.925373" y="56.000827" fill="rgb(102,102,102)"  stroke="rgb(102,102,102)" stroke-width="1" font-size="13" >3</text>
<text x="50.425373" y="48.320827" fill="rgb(102,102,102)"  stroke="rgb(102,102,102)" stroke-width="1" font-size="16" >C</text>
<text x="104.605727" y="179.747783" fill="rgb(102,102,102)"  stroke="rgb(102,102,102)" stroke-width="1" font-size="16" >CH</text>
<text x="128.605727" y="184.547783" fill="rgb(102,102,102)"  stroke="rgb(102,102,102)" stroke-width="1" font-size="13" >3</text>
<text x="269.099094" y="176.277837" fill="rgb(102,102,102)"  stroke="rgb(102,102,102)" stroke-width="1" font-size="16" >CH</text>
<text x="293.099094" y="181.077837" fill="rgb(102,102,102)"  stroke="rgb(102,102,102)" stroke-width="1" font-size="13" >3</text>
<text x="258.864718" y="141.593901" fill="rgb(255,12,12)"  stroke="rgb(255,12,12)" stroke-width="1" font-size="16" >OH</text>
<text x="220.750513" y="239.545752" fill="rgb(191,191,191)"  stroke="rgb(191,191,191)" stroke-width="1" font-size="16" >H</text>
<text x="104.603222" y="63.402477" fill="rgb(191,191,191)"  stroke="rgb(191,191,191)" stroke-width="1" font-size="16" >H</text>
<text x="122.531126" y="129.845884" fill="rgb(191,191,191)"  stroke="rgb(191,191,191)" stroke-width="1" font-size="16" >H</text>
<text font-size="18.000000" fill ="black" font-family="sans-serif"
x="140.000000" y="20.000000" ></text>
<title> - OBDepict</title>
</svg>
