<?xml version="1.0"?>
<svg xmlns="http://www.w3.org/2000/svg"
xmlns:xlink="http://www.w3.org/1999/xlink" xmlns:cml="http://www.xml-cml.org/schema" width="395.601" height="250.24" x="0" y="0" font-family="sans-serif" stroke="rgb(0,0,0)" stroke-width="1" >
<line x1="335.6" y1="115.6" x2="295.6" y2="115.6"/>
<line x1="335.6" y1="115.6" x2="350.4" y2="141.2"/>
<line x1="159.4" y1="97.7" x2="180.3" y2="118.6"/>
<polygon points="309.001233 92.389182 292.137131 113.598663 299.065335 117.598663 " />
<line x1="321.2" y1="155.2" x2="321.2" y2="156.0"/>
<line x1="317.2" y1="154.8" x2="317.2" y2="156.4"/>
<line x1="313.2" y1="154.4" x2="313.2" y2="156.8"/>
<line x1="309.2" y1="154.0" x2="309.2" y2="157.2"/>
<line x1="305.2" y1="153.6" x2="305.2" y2="157.6"/>
<line x1="301.2" y1="153.2" x2="301.2" y2="158.0"/>
<line x1="297.2" y1="152.8" x2="297.2" y2="158.4"/>
<line x1="295.6" y1="155.6" x2="310.4" y2="181.2"/>
<polygon points="274.360217 198.808144 264.424318 173.598663 257.496115 177.598663 " />
<line x1="261.0" y1="175.6" x2="246.2" y2="201.2"/>
<line x1="213.9" y1="178.0" x2="213.2" y2="177.6"/>
<line x1="216.2" y1="174.7" x2="214.8" y2="173.9"/>
<line x1="218.6" y1="171.4" x2="216.5" y2="170.2"/>
<line x1="220.9" y1="168.2" x2="218.1" y2="166.6"/>
<line x1="223.3" y1="164.9" x2="219.8" y2="162.9"/>
<line x1="225.6" y1="161.6" x2="221.4" y2="159.2"/>
<line x1="227.9" y1="158.4" x2="223.1" y2="155.6"/>
<line x1="226.3" y1="155.6" x2="196.7" y2="155.6"/>
<line x1="226.3" y1="115.6" x2="230.2" y2="86.3"/>
<line x1="226.3" y1="115.6" x2="197.7" y2="123.3"/>
<line x1="119.9" y1="103.9" x2="159.4" y2="97.7"/>
<line x1="159.4" y1="97.7" x2="165.7" y2="58.2"/>
<line x1="153.2" y1="90.6" x2="157.6" y2="63.0"/>
<line x1="165.7" y1="58.2" x2="139.3" y2="44.7"/>
<line x1="122.7" y1="47.4" x2="101.7" y2="68.3"/>
<line x1="101.7" y1="68.3" x2="119.9" y2="103.9"/>
<line x1="58.2" y1="135.4" x2="98.1" y2="137.5"/>
<line x1="98.1" y1="137.5" x2="119.9" y2="103.9"/>
<line x1="95.3" y1="128.5" x2="110.6" y2="105.0"/>
<line x1="101.7" y1="68.3" x2="61.8" y2="66.2"/>
<line x1="95.4" y1="75.2" x2="67.4" y2="73.7"/>
<line x1="61.8" y1="66.2" x2="40.0" y2="99.7"/>
<line x1="40.0" y1="99.7" x2="58.2" y2="135.4"/>
<line x1="49.1" y1="101.8" x2="61.9" y2="126.8"/>
<line x1="261.0" y1="175.6" x2="226.3" y2="155.6"/>
<line x1="226.3" y1="155.6" x2="226.3" y2="115.6"/>
<line x1="226.3" y1="115.6" x2="252.0" y2="100.8"/>
<line x1="270.0" y1="100.8" x2="295.6" y2="115.6"/>
<line x1="295.6" y1="115.6" x2="295.6" y2="155.6"/>
<line x1="295.6" y1="155.6" x2="261.0" y2="175.6"/>
<text x="114.415014" y="48.320000" fill="rgb(12,12,255)"  stroke="rgb(12,12,255)" stroke-width="1" font-size="16" >HN</text>
<text x="349.601233" y="155.039679" fill="rgb(255,12,12)"  stroke="rgb(255,12,12)" stroke-width="1" font-size="16" >OH</text>
<text x="309.601233" y="195.039679" fill="rgb(255,12,12)"  stroke="rgb(255,12,12)" stroke-width="1" font-size="16" >OH</text>
<text x="225.360217" y="215.039679" fill="rgb(255,12,12)"  stroke="rgb(255,12,12)" stroke-width="1" font-size="16" >HO</text>
<text x="170.719201" y="160.398663" fill="rgb(255,12,12)"  stroke="rgb(255,12,12)" stroke-width="1" font-size="16" >HO</text>
<text x="184.082168" y="130.751425" fill="rgb(255,12,12)"  stroke="rgb(255,12,12)" stroke-width="1" font-size="16" >O</text>
<text x="254.960217" y="103.918663" fill="rgb(255,12,12)"  stroke="rgb(255,12,12)" stroke-width="1" font-size="16" >O</text>
<text x="309.601233" y="89.277647" fill="rgb(191,191,191)"  stroke="rgb(191,191,191)" stroke-width="1" font-size="16" >H</text>
<text x="329.601233" y="160.398663" fill="rgb(191,191,191)"  stroke="rgb(191,191,191)" stroke-width="1" font-size="16" >H</text>
<text x="274.960217" y="215.039679" fill="rgb(191,191,191)"  stroke="rgb(191,191,191)" stroke-width="1" font-size="16" >H</text>
<text x="202.719201" y="195.039679" fill="rgb(191,191,191)"  stroke="rgb(191,191,191)" stroke-width="1" font-size="16" >H</text>
<text x="225.540248" y="84.260869" fill="rgb(191,191,191)"  stroke="rgb(191,191,191)" stroke-width="1" font-size="16" >H</text>
<text font-size="18.000000" fill ="black" font-family="sans-serif"
x="140.000000" y="20.000000" ></text>
<title> - OBDepict</title>
</svg>
