<?xml version="1.0"?>
<svg xmlns="http://www.w3.org/2000/svg"
xmlns:xlink="http://www.w3.org/1999/xlink" xmlns:cml="http://www.xml-cml.org/schema" width="860" height="634.256" x="0" y="0" font-family="sans-serif" stroke="rgb(0,0,0)" stroke-width="1" >
<line x1="814.8" y1="65.6" x2="800.0" y2="40.0"/>
<line x1="249.6" y1="421.1" x2="220.0" y2="421.1"/>
<line x1="418.9" y1="266.4" x2="399.7" y2="266.4"/>
<line x1="389.3" y1="236.8" x2="389.3" y2="256.0"/>
<line x1="359.7" y1="266.4" x2="378.9" y2="266.4"/>
<line x1="800.0" y1="40.0" x2="760.0" y2="40.0"/>
<line x1="220.0" y1="421.1" x2="200.0" y2="455.7"/>
<line x1="760.0" y1="40.0" x2="740.0" y2="74.6"/>
<line x1="200.0" y1="455.7" x2="160.0" y2="455.7"/>
<line x1="740.0" y1="74.6" x2="700.0" y2="74.6"/>
<line x1="160.0" y1="455.7" x2="140.0" y2="421.1"/>
<line x1="700.0" y1="74.6" x2="680.0" y2="109.3"/>
<line x1="140.0" y1="421.1" x2="100.0" y2="421.1"/>
<line x1="680.0" y1="109.3" x2="650.4" y2="109.3"/>
<line x1="682.6" y1="107.8" x2="702.6" y2="142.4"/>
<line x1="677.4" y1="110.8" x2="697.4" y2="145.4"/>
<line x1="100.0" y1="421.1" x2="85.2" y2="395.4"/>
<line x1="102.6" y1="422.6" x2="82.6" y2="457.2"/>
<line x1="97.4" y1="419.6" x2="77.4" y2="454.2"/>
<line x1="700.0" y1="143.9" x2="729.6" y2="143.9"/>
<line x1="700.0" y1="143.9" x2="680.0" y2="178.6"/>
<line x1="80.0" y1="455.7" x2="50.4" y2="455.7"/>
<line x1="80.0" y1="455.7" x2="100.0" y2="490.3"/>
<line x1="680.0" y1="178.6" x2="700.0" y2="213.2"/>
<line x1="100.0" y1="490.3" x2="80.0" y2="525.0"/>
<line x1="700.0" y1="213.2" x2="729.6" y2="213.2"/>
<line x1="702.6" y1="214.7" x2="682.6" y2="249.3"/>
<line x1="697.4" y1="211.7" x2="677.4" y2="246.3"/>
<line x1="80.0" y1="525.0" x2="50.4" y2="525.0"/>
<line x1="82.6" y1="523.5" x2="102.6" y2="558.1"/>
<line x1="77.4" y1="526.5" x2="97.4" y2="561.1"/>
<line x1="680.0" y1="247.8" x2="694.8" y2="273.5"/>
<line x1="680.0" y1="247.8" x2="640.0" y2="247.8"/>
<line x1="100.0" y1="559.6" x2="85.2" y2="585.2"/>
<line x1="100.0" y1="559.6" x2="140.0" y2="559.6"/>
<line x1="640.0" y1="247.8" x2="620.0" y2="282.5"/>
<line x1="140.0" y1="559.6" x2="160.0" y2="525.0"/>
<line x1="620.0" y1="282.5" x2="580.0" y2="282.5"/>
<line x1="160.0" y1="525.0" x2="200.0" y2="525.0"/>
<line x1="580.0" y1="282.5" x2="560.0" y2="317.1"/>
<line x1="200.0" y1="525.0" x2="220.0" y2="490.3"/>
<line x1="560.0" y1="317.1" x2="520.0" y2="317.1"/>
<line x1="220.0" y1="490.3" x2="260.0" y2="490.3"/>
<line x1="520.0" y1="317.1" x2="500.0" y2="351.8"/>
<line x1="260.0" y1="490.3" x2="280.0" y2="455.7"/>
<line x1="500.0" y1="351.8" x2="460.0" y2="351.8"/>
<line x1="280.0" y1="455.7" x2="320.0" y2="455.7"/>
<line x1="460.0" y1="351.8" x2="440.0" y2="386.4"/>
<line x1="320.0" y1="455.7" x2="340.0" y2="490.3"/>
<line x1="389.3" y1="306.4" x2="354.6" y2="326.4"/>
<line x1="389.3" y1="306.4" x2="389.3" y2="276.8"/>
<line x1="354.6" y1="326.4" x2="354.6" y2="356.0"/>
<line x1="440.0" y1="455.7" x2="400.0" y2="455.7"/>
<line x1="440.0" y1="455.7" x2="454.8" y2="430.1"/>
<line x1="380.0" y1="421.1" x2="400.0" y2="455.7"/>
<line x1="380.0" y1="421.1" x2="350.4" y2="421.1"/>
<line x1="400.0" y1="455.7" x2="385.2" y2="481.3"/>
<line x1="440.0" y1="389.4" x2="410.4" y2="389.4"/>
<line x1="440.0" y1="383.4" x2="410.4" y2="383.4"/>
<line x1="440.0" y1="386.4" x2="454.8" y2="412.0"/>
<line x1="342.6" y1="491.8" x2="327.8" y2="517.5"/>
<line x1="337.4" y1="488.8" x2="322.6" y2="514.5"/>
<line x1="340.0" y1="490.3" x2="369.6" y2="490.3"/>
<line x1="292.9" y1="398.6" x2="309.5" y2="389.0"/>
<line x1="295.9" y1="403.8" x2="312.5" y2="394.2"/>
<line x1="305.2" y1="360.8" x2="314.8" y2="377.4"/>
<line x1="345.6" y1="371.6" x2="329.0" y2="381.2"/>
<line x1="334.8" y1="412.0" x2="325.2" y2="395.4"/>
<text x="814.000000" y="79.441016" fill="rgb(102,102,102)"  stroke="rgb(102,102,102)" stroke-width="1" font-size="16" >CH</text>
<text x="838.000000" y="84.241016" fill="rgb(102,102,102)"  stroke="rgb(102,102,102)" stroke-width="1" font-size="13" >3</text>
<text x="254.000000" y="425.851178" fill="rgb(102,102,102)"  stroke="rgb(102,102,102)" stroke-width="1" font-size="16" >CH</text>
<text x="278.000000" y="430.651178" fill="rgb(102,102,102)"  stroke="rgb(102,102,102)" stroke-width="1" font-size="13" >3</text>
<text x="423.282032" y="274.730162" fill="rgb(102,102,102)"  stroke="rgb(102,102,102)" stroke-width="1" font-size="16" >CH</text>
<text x="447.282032" y="282.410162" fill="rgb(102,102,102)"  stroke="rgb(102,102,102)" stroke-width="1" font-size="13" >3</text>
<text x="383.282032" y="234.730162" fill="rgb(102,102,102)"  stroke="rgb(102,102,102)" stroke-width="1" font-size="16" >CH</text>
<text x="407.282032" y="242.410162" fill="rgb(102,102,102)"  stroke="rgb(102,102,102)" stroke-width="1" font-size="13" >3</text>
<text x="325.682032" y="271.210162" fill="rgb(102,102,102)"  stroke="rgb(102,102,102)" stroke-width="1" font-size="16" >H</text>
<text x="337.682032" y="276.010162" fill="rgb(102,102,102)"  stroke="rgb(102,102,102)" stroke-width="1" font-size="13" >3</text>
<text x="344.182032" y="271.210162" fill="rgb(102,102,102)"  stroke="rgb(102,102,102)" stroke-width="1" font-size="16" >C</text>
<text x="384.482032" y="285.610162" fill="rgb(12,12,255)"  stroke="rgb(12,12,255)" stroke-width="1" font-size="16" >+</text>
<text x="383.282032" y="271.210162" fill="rgb(12,12,255)"  stroke="rgb(12,12,255)" stroke-width="1" font-size="16" >N</text>
<text x="396.400000" y="394.730162" fill="rgb(255,12,12)"  stroke="rgb(255,12,12)" stroke-width="1" font-size="16" >O</text>
<text x="316.400000" y="529.774226" fill="rgb(255,12,12)"  stroke="rgb(255,12,12)" stroke-width="1" font-size="16" >O</text>
<text x="281.758984" y="411.210162" fill="rgb(255,12,12)"  stroke="rgb(255,12,12)" stroke-width="1" font-size="16" >O</text>
<text x="295.200000" y="345.369145" fill="rgb(255,12,12)"  stroke="rgb(255,12,12)" stroke-width="1" font-size="32" >-</text>
<text x="296.400000" y="360.089145" fill="rgb(255,12,12)"  stroke="rgb(255,12,12)" stroke-width="1" font-size="16" >O</text>
<text x="454.000000" y="425.851178" fill="rgb(255,12,12)"  stroke="rgb(255,12,12)" stroke-width="1" font-size="16" >O</text>
<text x="348.641016" y="371.210162" fill="rgb(255,12,12)"  stroke="rgb(255,12,12)" stroke-width="1" font-size="16" >O</text>
<text x="336.400000" y="425.851178" fill="rgb(255,12,12)"  stroke="rgb(255,12,12)" stroke-width="1" font-size="16" >O</text>
<text x="374.000000" y="495.133210" fill="rgb(255,12,12)"  stroke="rgb(255,12,12)" stroke-width="1" font-size="16" >O</text>
<text x="314.000000" y="394.730162" fill="rgb(255,127,0)"  stroke="rgb(255,127,0)" stroke-width="1" font-size="16" >P</text>
<text x="636.400000" y="117.602032" fill="rgb(191,191,191)"  stroke="rgb(191,191,191)" stroke-width="1" font-size="16" >H</text>
<text x="76.400000" y="394.730162" fill="rgb(191,191,191)"  stroke="rgb(191,191,191)" stroke-width="1" font-size="16" >H</text>
<text x="734.000000" y="148.723048" fill="rgb(191,191,191)"  stroke="rgb(191,191,191)" stroke-width="1" font-size="16" >H</text>
<text x="36.400000" y="464.012194" fill="rgb(191,191,191)"  stroke="rgb(191,191,191)" stroke-width="1" font-size="16" >H</text>
<text x="734.000000" y="218.005081" fill="rgb(191,191,191)"  stroke="rgb(191,191,191)" stroke-width="1" font-size="16" >H</text>
<text x="36.400000" y="533.294226" fill="rgb(191,191,191)"  stroke="rgb(191,191,191)" stroke-width="1" font-size="16" >H</text>
<text x="694.000000" y="287.287113" fill="rgb(191,191,191)"  stroke="rgb(191,191,191)" stroke-width="1" font-size="16" >H</text>
<text x="76.400000" y="599.056258" fill="rgb(191,191,191)"  stroke="rgb(191,191,191)" stroke-width="1" font-size="16" >H</text>
<text font-size="18.000000" fill ="black" font-family="sans-serif"
x="140.000000" y="20.000000" ></text>
<title> - OBDepict</title>
</svg>
