<?xml version="1.0"?>
<svg xmlns="http://www.w3.org/2000/svg"
xmlns:xlink="http://www.w3.org/1999/xlink" xmlns:cml="http://www.xml-cml.org/schema" width="772.191" height="448.598" x="0" y="0" font-family="sans-serif" stroke="rgb(0,0,0)" stroke-width="1" >
<line x1="377.2" y1="271.0" x2="352.0" y2="256.5"/>
<line x1="429.0" y1="143.5" x2="454.3" y2="158.1"/>
<line x1="249.8" y1="286.4" x2="249.8" y2="315.5"/>
<line x1="556.5" y1="128.2" x2="556.5" y2="99.0"/>
<line x1="172.7" y1="389.1" x2="147.5" y2="374.5"/>
<line x1="98.9" y1="290.3" x2="113.4" y2="315.5"/>
<line x1="128.0" y1="290.3" x2="113.4" y2="315.5"/>
<line x1="644.2" y1="132.8" x2="658.8" y2="158.1"/>
<line x1="673.3" y1="132.8" x2="658.8" y2="158.1"/>
<line x1="624.3" y1="221.0" x2="625.1" y2="221.0"/>
<line x1="623.9" y1="225.0" x2="625.5" y2="225.0"/>
<line x1="623.5" y1="228.9" x2="625.9" y2="228.9"/>
<line x1="623.1" y1="232.8" x2="626.3" y2="232.8"/>
<line x1="622.7" y1="236.8" x2="626.7" y2="236.8"/>
<line x1="622.3" y1="240.7" x2="627.1" y2="240.7"/>
<line x1="621.9" y1="244.6" x2="627.5" y2="244.6"/>
<line x1="386.1" y1="197.4" x2="386.1" y2="168.3"/>
<line x1="387.6" y1="194.8" x2="421.7" y2="214.5"/>
<line x1="384.6" y1="200.0" x2="418.7" y2="219.7"/>
<line x1="386.1" y1="197.4" x2="352.0" y2="217.1"/>
<line x1="420.2" y1="217.1" x2="420.2" y2="246.2"/>
<line x1="420.2" y1="217.1" x2="454.3" y2="197.4"/>
<line x1="317.9" y1="315.5" x2="343.2" y2="330.0"/>
<line x1="314.9" y1="315.5" x2="314.9" y2="276.1"/>
<line x1="320.9" y1="315.5" x2="320.9" y2="276.1"/>
<line x1="317.9" y1="315.5" x2="283.8" y2="335.2"/>
<line x1="488.3" y1="99.0" x2="463.1" y2="84.5"/>
<line x1="491.3" y1="99.0" x2="491.3" y2="138.4"/>
<line x1="485.3" y1="99.0" x2="485.3" y2="138.4"/>
<line x1="488.3" y1="99.0" x2="522.4" y2="79.4"/>
<line x1="352.0" y1="217.1" x2="326.8" y2="202.5"/>
<line x1="355.0" y1="217.1" x2="355.0" y2="256.5"/>
<line x1="349.0" y1="217.1" x2="349.0" y2="256.5"/>
<line x1="454.3" y1="197.4" x2="479.5" y2="212.0"/>
<line x1="451.3" y1="197.4" x2="451.3" y2="158.1"/>
<line x1="457.3" y1="197.4" x2="457.3" y2="158.1"/>
<line x1="317.9" y1="276.1" x2="292.7" y2="261.6"/>
<line x1="317.9" y1="276.1" x2="352.0" y2="256.5"/>
<line x1="488.3" y1="138.4" x2="513.6" y2="152.9"/>
<line x1="488.3" y1="138.4" x2="454.3" y2="158.1"/>
<line x1="283.8" y1="335.2" x2="283.8" y2="364.3"/>
<line x1="282.3" y1="337.8" x2="248.3" y2="318.1"/>
<line x1="285.3" y1="332.6" x2="251.3" y2="312.9"/>
<line x1="522.4" y1="79.4" x2="522.4" y2="50.2"/>
<line x1="523.9" y1="76.8" x2="558.0" y2="96.4"/>
<line x1="520.9" y1="82.0" x2="555.0" y2="101.6"/>
<line x1="215.7" y1="335.2" x2="215.7" y2="364.3"/>
<line x1="214.2" y1="337.8" x2="180.1" y2="318.1"/>
<line x1="217.2" y1="332.6" x2="183.1" y2="312.9"/>
<line x1="215.7" y1="335.2" x2="249.8" y2="315.5"/>
<line x1="181.6" y1="315.5" x2="181.6" y2="286.4"/>
<line x1="181.6" y1="315.5" x2="147.5" y2="335.2"/>
<line x1="590.6" y1="79.4" x2="590.6" y2="50.2"/>
<line x1="592.1" y1="76.8" x2="626.2" y2="96.4"/>
<line x1="589.1" y1="82.0" x2="623.2" y2="101.6"/>
<line x1="590.6" y1="79.4" x2="556.5" y2="99.0"/>
<line x1="624.7" y1="99.0" x2="649.9" y2="84.5"/>
<line x1="625.1" y1="169.9" x2="624.3" y2="169.9"/>
<line x1="625.5" y1="162.0" x2="623.9" y2="162.0"/>
<line x1="625.9" y1="154.1" x2="623.5" y2="154.1"/>
<line x1="626.3" y1="146.3" x2="623.1" y2="146.3"/>
<line x1="626.7" y1="138.4" x2="622.7" y2="138.4"/>
<line x1="627.1" y1="130.5" x2="622.3" y2="130.5"/>
<line x1="627.5" y1="122.6" x2="621.9" y2="122.6"/>
<line x1="54.2" y1="374.9" x2="54.2" y2="374.1"/>
<line x1="58.1" y1="375.3" x2="58.1" y2="373.7"/>
<line x1="62.0" y1="375.7" x2="62.0" y2="373.3"/>
<line x1="66.0" y1="376.1" x2="66.0" y2="372.9"/>
<line x1="69.9" y1="376.5" x2="69.9" y2="372.5"/>
<line x1="73.8" y1="376.9" x2="73.8" y2="372.1"/>
<line x1="77.8" y1="377.3" x2="77.8" y2="371.7"/>
<line x1="79.4" y1="374.5" x2="64.8" y2="399.7"/>
<polygon points="706.019931 239.931909 696.300162 215.096774 689.371959 219.096774 " />
<line x1="692.8" y1="217.1" x2="722.0" y2="217.1"/>
<line x1="599.5" y1="202.5" x2="624.7" y2="217.1"/>
<line x1="624.7" y1="217.1" x2="624.7" y2="177.7"/>
<line x1="624.7" y1="177.7" x2="599.5" y2="192.3"/>
<line x1="113.4" y1="394.2" x2="147.5" y2="374.5"/>
<line x1="147.5" y1="374.5" x2="147.5" y2="335.2"/>
<line x1="140.3" y1="368.5" x2="140.3" y2="341.2"/>
<line x1="147.5" y1="335.2" x2="113.4" y2="315.5"/>
<line x1="113.4" y1="315.5" x2="79.4" y2="335.2"/>
<line x1="79.4" y1="335.2" x2="79.4" y2="374.5"/>
<line x1="79.4" y1="374.5" x2="113.4" y2="394.2"/>
<line x1="692.8" y1="177.7" x2="658.8" y2="158.1"/>
<line x1="658.8" y1="158.1" x2="624.7" y2="177.7"/>
<line x1="624.7" y1="217.1" x2="658.8" y2="236.8"/>
<line x1="658.8" y1="236.8" x2="692.8" y2="217.1"/>
<line x1="692.8" y1="217.1" x2="692.8" y2="177.7"/>
<text x="380.095449" y="280.929032" fill="rgb(102,102,102)"  stroke="rgb(102,102,102)" stroke-width="1" font-size="16" >CH</text>
<text x="404.095449" y="285.729032" fill="rgb(102,102,102)"  stroke="rgb(102,102,102)" stroke-width="1" font-size="13" >3</text>
<text x="396.577740" y="146.707097" fill="rgb(102,102,102)"  stroke="rgb(102,102,102)" stroke-width="1" font-size="16" >H</text>
<text x="408.577740" y="154.387097" fill="rgb(102,102,102)"  stroke="rgb(102,102,102)" stroke-width="1" font-size="13" >3</text>
<text x="415.077740" y="146.707097" fill="rgb(102,102,102)"  stroke="rgb(102,102,102)" stroke-width="1" font-size="16" >C</text>
<text x="243.766289" y="284.449032" fill="rgb(102,102,102)"  stroke="rgb(102,102,102)" stroke-width="1" font-size="16" >CH</text>
<text x="267.766289" y="292.129032" fill="rgb(102,102,102)"  stroke="rgb(102,102,102)" stroke-width="1" font-size="13" >3</text>
<text x="550.506900" y="143.187097" fill="rgb(102,102,102)"  stroke="rgb(102,102,102)" stroke-width="1" font-size="16" >CH</text>
<text x="574.506900" y="147.987097" fill="rgb(102,102,102)"  stroke="rgb(102,102,102)" stroke-width="1" font-size="13" >3</text>
<text x="175.601709" y="398.993548" fill="rgb(102,102,102)"  stroke="rgb(102,102,102)" stroke-width="1" font-size="16" >CH</text>
<text x="199.601709" y="403.793548" fill="rgb(102,102,102)"  stroke="rgb(102,102,102)" stroke-width="1" font-size="13" >3</text>
<text x="70.159709" y="289.721581" fill="rgb(102,102,102)"  stroke="rgb(102,102,102)" stroke-width="1" font-size="16" >H</text>
<text x="82.159709" y="297.401581" fill="rgb(102,102,102)"  stroke="rgb(102,102,102)" stroke-width="1" font-size="13" >3</text>
<text x="88.659709" y="289.721581" fill="rgb(102,102,102)"  stroke="rgb(102,102,102)" stroke-width="1" font-size="16" >C</text>
<text x="127.114548" y="289.721581" fill="rgb(102,102,102)"  stroke="rgb(102,102,102)" stroke-width="1" font-size="16" >CH</text>
<text x="151.114548" y="297.401581" fill="rgb(102,102,102)"  stroke="rgb(102,102,102)" stroke-width="1" font-size="13" >3</text>
<text x="615.476351" y="132.302226" fill="rgb(102,102,102)"  stroke="rgb(102,102,102)" stroke-width="1" font-size="16" >H</text>
<text x="627.476351" y="139.982226" fill="rgb(102,102,102)"  stroke="rgb(102,102,102)" stroke-width="1" font-size="13" >3</text>
<text x="633.976351" y="132.302226" fill="rgb(102,102,102)"  stroke="rgb(102,102,102)" stroke-width="1" font-size="16" >C</text>
<text x="672.431189" y="132.302226" fill="rgb(102,102,102)"  stroke="rgb(102,102,102)" stroke-width="1" font-size="16" >CH</text>
<text x="696.431189" y="139.982226" fill="rgb(102,102,102)"  stroke="rgb(102,102,102)" stroke-width="1" font-size="13" >3</text>
<text x="618.671480" y="261.251613" fill="rgb(102,102,102)"  stroke="rgb(102,102,102)" stroke-width="1" font-size="16" >CH</text>
<text x="642.671480" y="266.051613" fill="rgb(102,102,102)"  stroke="rgb(102,102,102)" stroke-width="1" font-size="13" >3</text>
<text x="44.077419" y="413.398419" fill="rgb(255,12,12)"  stroke="rgb(255,12,12)" stroke-width="1" font-size="16" >HO</text>
<text x="726.190899" y="225.416774" fill="rgb(255,12,12)"  stroke="rgb(255,12,12)" stroke-width="1" font-size="16" >OH</text>
<text x="586.989190" y="202.219355" fill="rgb(255,12,12)"  stroke="rgb(255,12,12)" stroke-width="1" font-size="16" >O</text>
<text x="380.095449" y="166.384516" fill="rgb(191,191,191)"  stroke="rgb(191,191,191)" stroke-width="1" font-size="16" >H</text>
<text x="414.177740" y="261.251613" fill="rgb(191,191,191)"  stroke="rgb(191,191,191)" stroke-width="1" font-size="16" >H</text>
<text x="346.013159" y="339.961290" fill="rgb(191,191,191)"  stroke="rgb(191,191,191)" stroke-width="1" font-size="16" >H</text>
<text x="450.660030" y="87.674839" fill="rgb(191,191,191)"  stroke="rgb(191,191,191)" stroke-width="1" font-size="16" >H</text>
<text x="314.330869" y="205.739355" fill="rgb(191,191,191)"  stroke="rgb(191,191,191)" stroke-width="1" font-size="16" >H</text>
<text x="482.342320" y="221.896774" fill="rgb(191,191,191)"  stroke="rgb(191,191,191)" stroke-width="1" font-size="16" >H</text>
<text x="280.248579" y="264.771613" fill="rgb(191,191,191)"  stroke="rgb(191,191,191)" stroke-width="1" font-size="16" >H</text>
<text x="516.424610" y="162.864516" fill="rgb(191,191,191)"  stroke="rgb(191,191,191)" stroke-width="1" font-size="16" >H</text>
<text x="277.848579" y="379.316129" fill="rgb(191,191,191)"  stroke="rgb(191,191,191)" stroke-width="1" font-size="16" >H</text>
<text x="516.424610" y="48.320000" fill="rgb(191,191,191)"  stroke="rgb(191,191,191)" stroke-width="1" font-size="16" >H</text>
<text x="209.683999" y="379.316129" fill="rgb(191,191,191)"  stroke="rgb(191,191,191)" stroke-width="1" font-size="16" >H</text>
<text x="175.601709" y="284.449032" fill="rgb(191,191,191)"  stroke="rgb(191,191,191)" stroke-width="1" font-size="16" >H</text>
<text x="584.589190" y="48.320000" fill="rgb(191,191,191)"  stroke="rgb(191,191,191)" stroke-width="1" font-size="16" >H</text>
<text x="652.753770" y="87.674839" fill="rgb(191,191,191)"  stroke="rgb(191,191,191)" stroke-width="1" font-size="16" >H</text>
<text x="36.400000" y="379.316129" fill="rgb(191,191,191)"  stroke="rgb(191,191,191)" stroke-width="1" font-size="16" >H</text>
<text x="706.513480" y="255.979064" fill="rgb(191,191,191)"  stroke="rgb(191,191,191)" stroke-width="1" font-size="16" >H</text>
<text font-size="18.000000" fill ="black" font-family="sans-serif"
x="140.000000" y="20.000000" ></text>
<title> - OBDepict</title>
</svg>
