<?xml version="1.0"?>
<svg xmlns="http://www.w3.org/2000/svg"
xmlns:xlink="http://www.w3.org/1999/xlink" xmlns:cml="http://www.xml-cml.org/schema" width="293.205" height="200" x="0" y="0" font-family="sans-serif" stroke="rgb(0,0,0)" stroke-width="1" >
<line x1="244.2" y1="85.2" x2="218.6" y2="100.0"/>
<line x1="114.6" y1="80.0" x2="149.3" y2="100.0"/>
<line x1="114.6" y1="80.0" x2="114.6" y2="50.4"/>
<line x1="114.6" y1="160.0" x2="149.3" y2="140.0"/>
<line x1="114.6" y1="160.0" x2="89.0" y2="145.2"/>
<line x1="183.9" y1="80.0" x2="183.9" y2="50.4"/>
<line x1="109.6" y1="100.0" x2="90.4" y2="100.0"/>
<line x1="80.0" y1="70.4" x2="80.0" y2="89.6"/>
<line x1="50.4" y1="97.0" x2="69.6" y2="97.0"/>
<line x1="50.4" y1="103.0" x2="69.6" y2="103.0"/>
<line x1="80.0" y1="129.6" x2="80.0" y2="110.4"/>
<line x1="218.6" y1="100.0" x2="218.6" y2="129.6"/>
<line x1="209.6" y1="145.2" x2="183.9" y2="160.0"/>
<line x1="204.2" y1="140.0" x2="185.5" y2="150.8"/>
<line x1="183.9" y1="160.0" x2="149.3" y2="140.0"/>
<line x1="149.3" y1="140.0" x2="149.3" y2="100.0"/>
<line x1="156.5" y1="134.0" x2="156.5" y2="106.0"/>
<line x1="149.3" y1="100.0" x2="183.9" y2="80.0"/>
<line x1="183.9" y1="80.0" x2="218.6" y2="100.0"/>
<line x1="185.5" y1="89.2" x2="209.8" y2="103.2"/>
<text x="247.205081" y="88.320000" fill="rgb(102,102,102)"  stroke="rgb(102,102,102)" stroke-width="1" font-size="16" >CH</text>
<text x="271.205081" y="96.000000" fill="rgb(102,102,102)"  stroke="rgb(102,102,102)" stroke-width="1" font-size="13" >3</text>
<text x="212.564065" y="144.800000" fill="rgb(12,12,255)"  stroke="rgb(12,12,255)" stroke-width="1" font-size="16" >N</text>
<text x="108.641016" y="48.320000" fill="rgb(255,12,12)"  stroke="rgb(255,12,12)" stroke-width="1" font-size="16" >OH</text>
<text x="179.123048" y="33.600000" fill="rgb(255,12,12)"  stroke="rgb(255,12,12)" stroke-width="1" font-size="32" >-</text>
<text x="177.923048" y="48.320000" fill="rgb(255,12,12)"  stroke="rgb(255,12,12)" stroke-width="1" font-size="16" >O</text>
<text x="115.200000" y="119.200000" fill="rgb(255,12,12)"  stroke="rgb(255,12,12)" stroke-width="1" font-size="32" >-</text>
<text x="114.000000" y="104.800000" fill="rgb(255,12,12)"  stroke="rgb(255,12,12)" stroke-width="1" font-size="16" >O</text>
<text x="74.000000" y="68.320000" fill="rgb(255,12,12)"  stroke="rgb(255,12,12)" stroke-width="1" font-size="16" >OH</text>
<text x="36.400000" y="108.320000" fill="rgb(255,12,12)"  stroke="rgb(255,12,12)" stroke-width="1" font-size="16" >O</text>
<text x="76.400000" y="144.800000" fill="rgb(255,12,12)"  stroke="rgb(255,12,12)" stroke-width="1" font-size="16" >O</text>
<text x="74.000000" y="104.800000" fill="rgb(255,127,0)"  stroke="rgb(255,127,0)" stroke-width="1" font-size="16" >P</text>
<text font-size="18.000000" fill ="black" font-family="sans-serif"
x="140.000000" y="20.000000" ></text>
<title> - OBDepict</title>
</svg>
