<?xml version="1.0"?>
<svg xmlns="http://www.w3.org/2000/svg"
xmlns:xlink="http://www.w3.org/1999/xlink" xmlns:cml="http://www.xml-cml.org/schema" width="287.846" height="240" x="0" y="0" font-family="sans-serif" stroke="rgb(0,0,0)" stroke-width="1" >
<line x1="143.9" y1="160.0" x2="143.9" y2="189.6"/>
<line x1="71.6" y1="80.0" x2="71.6" y2="50.4"/>
<line x1="77.6" y1="80.0" x2="77.6" y2="50.4"/>
<line x1="74.6" y1="80.0" x2="49.0" y2="94.8"/>
<line x1="74.6" y1="80.0" x2="100.3" y2="94.8"/>
<line x1="247.8" y1="100.0" x2="247.8" y2="140.0"/>
<line x1="240.6" y1="106.0" x2="240.6" y2="134.0"/>
<line x1="247.8" y1="140.0" x2="213.2" y2="160.0"/>
<line x1="213.2" y1="160.0" x2="178.6" y2="140.0"/>
<line x1="211.6" y1="150.8" x2="187.4" y2="136.8"/>
<line x1="178.6" y1="140.0" x2="178.6" y2="100.0"/>
<line x1="178.6" y1="100.0" x2="213.2" y2="80.0"/>
<line x1="187.4" y1="103.2" x2="211.6" y2="89.2"/>
<line x1="213.2" y1="80.0" x2="247.8" y2="100.0"/>
<line x1="143.9" y1="80.0" x2="178.6" y2="100.0"/>
<line x1="178.6" y1="140.0" x2="143.9" y2="160.0"/>
<line x1="143.9" y1="160.0" x2="109.3" y2="140.0"/>
<line x1="109.3" y1="140.0" x2="109.3" y2="110.4"/>
<line x1="118.3" y1="94.8" x2="143.9" y2="80.0"/>
<text x="68.641016" y="48.320000" fill="rgb(12,12,255)"  stroke="rgb(12,12,255)" stroke-width="1" font-size="16" >NH</text>
<text x="16.400000" y="104.800000" fill="rgb(12,12,255)"  stroke="rgb(12,12,255)" stroke-width="1" font-size="16" >H</text>
<text x="28.400000" y="109.600000" fill="rgb(12,12,255)"  stroke="rgb(12,12,255)" stroke-width="1" font-size="13" >2</text>
<text x="34.900000" y="104.800000" fill="rgb(12,12,255)"  stroke="rgb(12,12,255)" stroke-width="1" font-size="16" >N</text>
<text x="103.282032" y="104.800000" fill="rgb(12,12,255)"  stroke="rgb(12,12,255)" stroke-width="1" font-size="16" >N</text>
<text x="137.923048" y="204.800000" fill="rgb(255,12,12)"  stroke="rgb(255,12,12)" stroke-width="1" font-size="16" >OH</text>
<text font-size="18.000000" fill ="black" font-family="sans-serif"
x="140.000000" y="20.000000" ></text>
<title> - OBDepict</title>
</svg>
