<?xml version="1.0"?>
<svg xmlns="http://www.w3.org/2000/svg"
xmlns:xlink="http://www.w3.org/1999/xlink" xmlns:cml="http://www.xml-cml.org/schema" width="300" height="194.641" x="0" y="0" font-family="sans-serif" stroke="rgb(0,0,0)" stroke-width="1" >
<line x1="140.0" y1="114.6" x2="160.0" y2="80.0"/>
<line x1="140.0" y1="114.6" x2="100.0" y2="114.6"/>
<line x1="160.0" y1="80.0" x2="200.0" y2="80.0"/>
<line x1="80.0" y1="80.0" x2="100.0" y2="114.6"/>
<line x1="80.0" y1="80.0" x2="50.4" y2="80.0"/>
<line x1="78.0" y1="127.8" x2="77.6" y2="127.1"/>
<line x1="81.7" y1="126.1" x2="80.9" y2="124.7"/>
<line x1="85.4" y1="124.5" x2="84.2" y2="122.4"/>
<line x1="89.0" y1="122.8" x2="87.4" y2="120.1"/>
<line x1="92.7" y1="121.2" x2="90.7" y2="117.7"/>
<line x1="96.4" y1="119.5" x2="94.0" y2="115.4"/>
<line x1="100.0" y1="117.9" x2="97.2" y2="113.0"/>
<line x1="100.0" y1="114.6" x2="100.0" y2="144.2"/>
<polygon points="223.209481 66.600000 198.000000 76.535898 202.000000 83.464102 " />
<line x1="200.0" y1="80.0" x2="220.0" y2="114.6"/>
<line x1="200.0" y1="80.0" x2="200.0" y2="50.4"/>
<line x1="222.6" y1="116.1" x2="207.8" y2="141.8"/>
<line x1="217.4" y1="113.1" x2="202.6" y2="138.8"/>
<line x1="220.0" y1="114.6" x2="249.6" y2="114.6"/>
<text x="16.400000" y="84.800000" fill="rgb(12,12,255)"  stroke="rgb(12,12,255)" stroke-width="1" font-size="16" >H</text>
<text x="28.400000" y="89.600000" fill="rgb(12,12,255)"  stroke="rgb(12,12,255)" stroke-width="1" font-size="13" >2</text>
<text x="34.900000" y="84.800000" fill="rgb(12,12,255)"  stroke="rgb(12,12,255)" stroke-width="1" font-size="16" >N</text>
<text x="194.000000" y="48.320000" fill="rgb(12,12,255)"  stroke="rgb(12,12,255)" stroke-width="1" font-size="16" >NH</text>
<text x="218.000000" y="56.000000" fill="rgb(12,12,255)"  stroke="rgb(12,12,255)" stroke-width="1" font-size="13" >2</text>
<text x="94.000000" y="159.441016" fill="rgb(255,12,12)"  stroke="rgb(255,12,12)" stroke-width="1" font-size="16" >OH</text>
<text x="196.400000" y="154.082032" fill="rgb(255,12,12)"  stroke="rgb(255,12,12)" stroke-width="1" font-size="16" >O</text>
<text x="254.000000" y="122.961016" fill="rgb(255,12,12)"  stroke="rgb(255,12,12)" stroke-width="1" font-size="16" >OH</text>
<text x="61.758984" y="139.441016" fill="rgb(191,191,191)"  stroke="rgb(191,191,191)" stroke-width="1" font-size="16" >H</text>
<text x="228.641016" y="68.320000" fill="rgb(191,191,191)"  stroke="rgb(191,191,191)" stroke-width="1" font-size="16" >H</text>
<text font-size="18.000000" fill ="black" font-family="sans-serif"
x="140.000000" y="20.000000" ></text>
<title> - OBDepict</title>
</svg>
