<?xml version="1.0"?>
<svg xmlns="http://www.w3.org/2000/svg"
xmlns:xlink="http://www.w3.org/1999/xlink" xmlns:cml="http://www.xml-cml.org/schema" width="260" height="229.282" x="0" y="0" font-family="sans-serif" stroke="rgb(0,0,0)" stroke-width="1" >
<line x1="214.8" y1="180.3" x2="200.0" y2="154.6"/>
<line x1="80.0" y1="115.0" x2="80.0" y2="95.8"/>
<line x1="50.4" y1="85.4" x2="69.6" y2="85.4"/>
<line x1="80.0" y1="55.8" x2="80.0" y2="75.0"/>
<line x1="174.6" y1="100.0" x2="140.0" y2="120.0"/>
<line x1="174.6" y1="100.0" x2="174.6" y2="60.0"/>
<line x1="120.0" y1="85.4" x2="140.0" y2="120.0"/>
<line x1="120.0" y1="85.4" x2="90.4" y2="85.4"/>
<line x1="197.4" y1="153.1" x2="212.2" y2="127.5"/>
<line x1="202.6" y1="156.1" x2="217.4" y2="130.5"/>
<line x1="200.0" y1="154.6" x2="170.4" y2="154.6"/>
<line x1="118.0" y1="133.1" x2="117.6" y2="132.5"/>
<line x1="121.7" y1="131.5" x2="120.9" y2="130.1"/>
<line x1="125.4" y1="129.8" x2="124.2" y2="127.8"/>
<line x1="129.0" y1="128.2" x2="127.4" y2="125.4"/>
<line x1="132.7" y1="126.5" x2="130.7" y2="123.1"/>
<line x1="136.4" y1="124.9" x2="134.0" y2="120.7"/>
<line x1="140.0" y1="123.2" x2="137.2" y2="118.4"/>
<line x1="140.0" y1="120.0" x2="154.8" y2="145.6"/>
<line x1="173.1" y1="62.6" x2="147.5" y2="47.8"/>
<line x1="176.1" y1="57.4" x2="150.5" y2="42.6"/>
<line x1="174.6" y1="60.0" x2="200.3" y2="45.2"/>
<text x="214.000000" y="194.082032" fill="rgb(102,102,102)"  stroke="rgb(102,102,102)" stroke-width="1" font-size="16" >CH</text>
<text x="238.000000" y="198.882032" fill="rgb(102,102,102)"  stroke="rgb(102,102,102)" stroke-width="1" font-size="13" >3</text>
<text x="74.000000" y="130.158984" fill="rgb(102,102,102)"  stroke="rgb(102,102,102)" stroke-width="1" font-size="16" >CH</text>
<text x="98.000000" y="134.958984" fill="rgb(102,102,102)"  stroke="rgb(102,102,102)" stroke-width="1" font-size="13" >3</text>
<text x="16.400000" y="90.158984" fill="rgb(102,102,102)"  stroke="rgb(102,102,102)" stroke-width="1" font-size="16" >H</text>
<text x="28.400000" y="94.958984" fill="rgb(102,102,102)"  stroke="rgb(102,102,102)" stroke-width="1" font-size="13" >3</text>
<text x="34.900000" y="90.158984" fill="rgb(102,102,102)"  stroke="rgb(102,102,102)" stroke-width="1" font-size="16" >C</text>
<text x="74.000000" y="53.678984" fill="rgb(102,102,102)"  stroke="rgb(102,102,102)" stroke-width="1" font-size="16" >CH</text>
<text x="98.000000" y="61.358984" fill="rgb(102,102,102)"  stroke="rgb(102,102,102)" stroke-width="1" font-size="13" >3</text>
<text x="76.100000" y="100.958984" fill="rgb(12,12,255)"  stroke="rgb(12,12,255)" stroke-width="1" font-size="13" >+</text>
<text x="74.000000" y="90.158984" fill="rgb(12,12,255)"  stroke="rgb(12,12,255)" stroke-width="1" font-size="16" >N</text>
<text x="214.000000" y="128.320000" fill="rgb(255,12,12)"  stroke="rgb(255,12,12)" stroke-width="1" font-size="16" >O</text>
<text x="136.400000" y="48.320000" fill="rgb(255,12,12)"  stroke="rgb(255,12,12)" stroke-width="1" font-size="16" >O</text>
<text x="203.282032" y="48.320000" fill="rgb(255,12,12)"  stroke="rgb(255,12,12)" stroke-width="1" font-size="16" >OH</text>
<text x="156.400000" y="159.441016" fill="rgb(255,12,12)"  stroke="rgb(255,12,12)" stroke-width="1" font-size="16" >O</text>
<text x="101.758984" y="144.800000" fill="rgb(191,191,191)"  stroke="rgb(191,191,191)" stroke-width="1" font-size="16" >H</text>
<text font-size="18.000000" fill ="black" font-family="sans-serif"
x="140.000000" y="20.000000" ></text>
<title> - OBDepict</title>
</svg>
