<?xml version="1.0"?>
<svg xmlns="http://www.w3.org/2000/svg"
xmlns:xlink="http://www.w3.org/1999/xlink" xmlns:cml="http://www.xml-cml.org/schema" width="362.057" height="412.502" x="0" y="0" font-family="sans-serif" stroke="rgb(0,0,0)" stroke-width="1" >
<line x1="70.0" y1="152.9" x2="79.1" y2="181.0"/>
<line x1="162.7" y1="49.9" x2="171.8" y2="78.0"/>
<line x1="142.9" y1="71.9" x2="171.8" y2="78.0"/>
<line x1="212.8" y1="262.9" x2="212.8" y2="292.5"/>
<line x1="110.8" y1="229.0" x2="110.1" y2="228.7"/>
<line x1="112.8" y1="225.5" x2="111.4" y2="224.9"/>
<line x1="114.8" y1="222.0" x2="112.6" y2="221.1"/>
<line x1="116.8" y1="218.5" x2="113.9" y2="217.2"/>
<line x1="118.8" y1="215.0" x2="115.2" y2="213.4"/>
<line x1="120.8" y1="211.6" x2="116.4" y2="209.6"/>
<line x1="122.8" y1="208.1" x2="117.7" y2="205.8"/>
<line x1="125.5" y1="129.5" x2="117.2" y2="168.7"/>
<line x1="125.5" y1="129.5" x2="163.5" y2="117.2"/>
<line x1="117.2" y1="168.7" x2="79.1" y2="181.0"/>
<line x1="163.5" y1="117.2" x2="171.8" y2="78.0"/>
<polygon points="52.911548 175.443395 78.294257 184.928019 79.957551 177.102838 " />
<line x1="79.1" y1="181.0" x2="70.8" y2="220.1"/>
<polygon points="212.774746 359.302012 216.774746 332.502012 208.774746 332.502012 " />
<polygon points="295.456778 355.711493 285.520879 330.502012 278.592676 334.502012 " />
<line x1="282.1" y1="332.5" x2="311.7" y2="332.5"/>
<polygon points="50.893155 202.208632 68.132914 223.113912 73.485959 217.168753 " />
<line x1="119.6" y1="295.7" x2="118.9" y2="296.1"/>
<line x1="118.4" y1="291.9" x2="116.9" y2="292.6"/>
<line x1="117.1" y1="288.1" x2="114.9" y2="289.1"/>
<line x1="115.8" y1="284.3" x2="112.9" y2="285.6"/>
<line x1="114.6" y1="280.5" x2="110.9" y2="282.1"/>
<line x1="113.3" y1="276.6" x2="108.9" y2="278.6"/>
<line x1="112.1" y1="272.8" x2="106.9" y2="275.1"/>
<line x1="200.1" y1="259.4" x2="200.5" y2="260.0"/>
<line x1="196.4" y1="261.0" x2="197.2" y2="262.4"/>
<line x1="192.8" y1="262.7" x2="194.0" y2="264.7"/>
<line x1="189.1" y1="264.3" x2="190.7" y2="267.1"/>
<line x1="185.4" y1="266.0" x2="187.4" y2="269.4"/>
<line x1="181.8" y1="267.6" x2="184.2" y2="271.8"/>
<line x1="178.1" y1="269.3" x2="180.9" y2="274.1"/>
<polygon points="116.692713 332.502012 143.492713 336.502012 143.492713 328.502012 " />
<line x1="143.5" y1="332.5" x2="128.7" y2="358.1"/>
<polygon points="120.283232 305.902012 145.492713 295.966114 141.492713 289.037910 " />
<line x1="171.8" y1="78.0" x2="200.0" y2="68.9"/>
<line x1="47.3" y1="252.5" x2="70.8" y2="284.9"/>
<line x1="70.8" y1="284.9" x2="108.9" y2="272.5"/>
<line x1="108.9" y1="272.5" x2="108.9" y2="232.5"/>
<line x1="108.9" y1="232.5" x2="70.8" y2="220.1"/>
<line x1="70.8" y1="220.1" x2="47.3" y2="252.5"/>
<line x1="178.1" y1="352.5" x2="212.8" y2="332.5"/>
<line x1="212.8" y1="332.5" x2="212.8" y2="292.5"/>
<line x1="212.8" y1="292.5" x2="178.1" y2="272.5"/>
<line x1="178.1" y1="272.5" x2="143.5" y2="292.5"/>
<line x1="143.5" y1="292.5" x2="143.5" y2="332.5"/>
<line x1="143.5" y1="332.5" x2="178.1" y2="352.5"/>
<line x1="178.1" y1="272.5" x2="178.1" y2="232.5"/>
<line x1="178.1" y1="232.5" x2="143.5" y2="212.5"/>
<line x1="143.5" y1="212.5" x2="108.9" y2="232.5"/>
<line x1="108.9" y1="272.5" x2="143.5" y2="292.5"/>
<line x1="282.1" y1="292.5" x2="247.4" y2="272.5"/>
<line x1="247.4" y1="272.5" x2="212.8" y2="292.5"/>
<line x1="212.8" y1="332.5" x2="247.4" y2="352.5"/>
<line x1="247.4" y1="352.5" x2="282.1" y2="332.5"/>
<line x1="282.1" y1="332.5" x2="282.1" y2="292.5"/>
<text x="43.165224" y="151.293168" fill="rgb(102,102,102)"  stroke="rgb(102,102,102)" stroke-width="1" font-size="16" >H</text>
<text x="55.165224" y="158.973168" fill="rgb(102,102,102)"  stroke="rgb(102,102,102)" stroke-width="1" font-size="13" >3</text>
<text x="61.665224" y="151.293168" fill="rgb(102,102,102)"  stroke="rgb(102,102,102)" stroke-width="1" font-size="16" >C</text>
<text x="135.882681" y="48.320000" fill="rgb(102,102,102)"  stroke="rgb(102,102,102)" stroke-width="1" font-size="16" >H</text>
<text x="147.882681" y="56.000000" fill="rgb(102,102,102)"  stroke="rgb(102,102,102)" stroke-width="1" font-size="13" >3</text>
<text x="154.382681" y="48.320000" fill="rgb(102,102,102)"  stroke="rgb(102,102,102)" stroke-width="1" font-size="16" >C</text>
<text x="109.117457" y="78.045793" fill="rgb(102,102,102)"  stroke="rgb(102,102,102)" stroke-width="1" font-size="16" >H</text>
<text x="121.117457" y="85.725793" fill="rgb(102,102,102)"  stroke="rgb(102,102,102)" stroke-width="1" font-size="13" >3</text>
<text x="127.617457" y="78.045793" fill="rgb(102,102,102)"  stroke="rgb(102,102,102)" stroke-width="1" font-size="16" >C</text>
<text x="206.774746" y="260.822012" fill="rgb(102,102,102)"  stroke="rgb(102,102,102)" stroke-width="1" font-size="16" >CH</text>
<text x="230.774746" y="268.502012" fill="rgb(102,102,102)"  stroke="rgb(102,102,102)" stroke-width="1" font-size="13" >3</text>
<text x="119.121163" y="204.280194" fill="rgb(102,102,102)"  stroke="rgb(102,102,102)" stroke-width="1" font-size="16" >CH</text>
<text x="143.121163" y="211.960194" fill="rgb(102,102,102)"  stroke="rgb(102,102,102)" stroke-width="1" font-size="13" >3</text>
<text x="316.056778" y="337.302012" fill="rgb(255,12,12)"  stroke="rgb(255,12,12)" stroke-width="1" font-size="16" >OH</text>
<text x="107.892713" y="371.943028" fill="rgb(255,12,12)"  stroke="rgb(255,12,12)" stroke-width="1" font-size="16" >HO</text>
<text x="203.885621" y="74.001581" fill="rgb(255,12,12)"  stroke="rgb(255,12,12)" stroke-width="1" font-size="16" >OH</text>
<text x="36.400000" y="181.018961" fill="rgb(191,191,191)"  stroke="rgb(191,191,191)" stroke-width="1" font-size="16" >H</text>
<text x="206.774746" y="377.302012" fill="rgb(191,191,191)"  stroke="rgb(191,191,191)" stroke-width="1" font-size="16" >H</text>
<text x="296.056778" y="371.943028" fill="rgb(191,191,191)"  stroke="rgb(191,191,191)" stroke-width="1" font-size="16" >H</text>
<text x="37.483643" y="201.696108" fill="rgb(191,191,191)"  stroke="rgb(191,191,191)" stroke-width="1" font-size="16" >H</text>
<text x="119.121163" y="313.843830" fill="rgb(191,191,191)"  stroke="rgb(191,191,191)" stroke-width="1" font-size="16" >H</text>
<text x="206.774746" y="260.822012" fill="rgb(191,191,191)"  stroke="rgb(191,191,191)" stroke-width="1" font-size="16" >H</text>
<text x="99.892713" y="337.302012" fill="rgb(191,191,191)"  stroke="rgb(191,191,191)" stroke-width="1" font-size="16" >H</text>
<text x="105.251697" y="317.302012" fill="rgb(191,191,191)"  stroke="rgb(191,191,191)" stroke-width="1" font-size="16" >H</text>
<text font-size="18.000000" fill ="black" font-family="sans-serif"
x="140.000000" y="20.000000" ></text>
<title> - OBDepict</title>
</svg>
