<?xml version="1.0"?>
<svg xmlns="http://www.w3.org/2000/svg"
xmlns:xlink="http://www.w3.org/1999/xlink" xmlns:cml="http://www.xml-cml.org/schema" width="863.745" height="440.219" x="0" y="0" font-family="sans-serif" stroke="rgb(0,0,0)" stroke-width="1" >
<line x1="418.7" y1="298.7" x2="438.5" y2="276.7"/>
<line x1="409.6" y1="270.6" x2="438.5" y2="276.7"/>
<line x1="739.3" y1="361.1" x2="733.2" y2="390.0"/>
<line x1="739.3" y1="361.1" x2="709.6" y2="334.3"/>
<line x1="738.4" y1="358.2" x2="776.5" y2="345.9"/>
<line x1="740.3" y1="363.9" x2="778.3" y2="351.6"/>
<line x1="709.6" y1="334.3" x2="671.6" y2="346.7"/>
<line x1="777.4" y1="348.7" x2="799.4" y2="368.5"/>
<line x1="777.4" y1="348.7" x2="785.7" y2="309.6"/>
<line x1="582.4" y1="266.4" x2="552.7" y2="239.6"/>
<line x1="582.4" y1="266.4" x2="620.4" y2="254.0"/>
<line x1="552.7" y1="239.6" x2="524.5" y2="248.8"/>
<line x1="688.2" y1="268.4" x2="717.9" y2="295.2"/>
<line x1="688.2" y1="268.4" x2="660.1" y2="277.6"/>
<line x1="717.9" y1="295.2" x2="746.1" y2="286.1"/>
<line x1="300.8" y1="206.5" x2="271.1" y2="179.8"/>
<line x1="300.8" y1="206.5" x2="329.0" y2="197.4"/>
<line x1="446.9" y1="237.6" x2="438.5" y2="276.7"/>
<line x1="446.9" y1="237.6" x2="424.9" y2="217.8"/>
<line x1="622.4" y1="251.8" x2="644.4" y2="271.6"/>
<line x1="618.4" y1="256.3" x2="640.4" y2="276.1"/>
<line x1="620.4" y1="254.0" x2="626.6" y2="225.1"/>
<line x1="674.5" y1="347.3" x2="668.4" y2="376.3"/>
<line x1="668.6" y1="346.1" x2="662.5" y2="375.0"/>
<line x1="671.6" y1="346.7" x2="649.6" y2="326.9"/>
<line x1="784.8" y1="306.8" x2="812.9" y2="297.6"/>
<line x1="786.6" y1="312.5" x2="814.8" y2="303.3"/>
<line x1="785.7" y1="309.6" x2="763.7" y2="289.8"/>
<line x1="238.8" y1="123.7" x2="232.6" y2="94.8"/>
<line x1="275.3" y1="140.0" x2="300.9" y2="125.2"/>
<line x1="468.3" y1="303.5" x2="506.3" y2="291.1"/>
<line x1="468.3" y1="303.5" x2="438.5" y2="276.7"/>
<line x1="468.3" y1="303.5" x2="462.1" y2="332.4"/>
<line x1="76.5" y1="186.2" x2="49.5" y2="174.2"/>
<line x1="503.4" y1="290.5" x2="509.5" y2="261.5"/>
<line x1="509.2" y1="291.7" x2="515.4" y2="262.8"/>
<line x1="506.3" y1="291.1" x2="528.3" y2="310.9"/>
<line x1="212.0" y1="153.5" x2="182.6" y2="150.4"/>
<line x1="280.3" y1="80.0" x2="299.5" y2="80.0"/>
<line x1="309.9" y1="50.4" x2="309.9" y2="69.6"/>
<line x1="339.5" y1="83.0" x2="320.3" y2="83.0"/>
<line x1="339.5" y1="77.0" x2="320.3" y2="77.0"/>
<line x1="318.2" y1="148.9" x2="337.0" y2="152.9"/>
<line x1="356.3" y1="126.7" x2="352.3" y2="145.5"/>
<line x1="350.4" y1="125.5" x2="346.4" y2="144.3"/>
<line x1="431.6" y1="142.7" x2="427.6" y2="161.5"/>
<line x1="453.8" y1="180.8" x2="435.0" y2="176.8"/>
<line x1="455.0" y1="174.9" x2="436.2" y2="170.9"/>
<line x1="341.0" y1="184.0" x2="345.0" y2="165.2"/>
<line x1="419.3" y1="200.6" x2="423.3" y2="181.9"/>
<line x1="309.9" y1="109.6" x2="309.9" y2="90.4"/>
<line x1="376.2" y1="161.2" x2="357.4" y2="157.2"/>
<line x1="396.5" y1="165.5" x2="415.3" y2="169.5"/>
<line x1="152.2" y1="114.6" x2="167.0" y2="140.3"/>
<line x1="165.3" y1="157.0" x2="145.4" y2="179.0"/>
<line x1="145.4" y1="179.0" x2="108.9" y2="162.7"/>
<line x1="108.9" y1="162.7" x2="112.0" y2="133.3"/>
<line x1="123.3" y1="120.8" x2="152.2" y2="114.6"/>
<line x1="126.7" y1="127.4" x2="147.8" y2="122.9"/>
<line x1="271.1" y1="179.8" x2="275.3" y2="140.0"/>
<line x1="275.3" y1="140.0" x2="238.8" y2="123.7"/>
<line x1="238.8" y1="123.7" x2="212.0" y2="153.5"/>
<line x1="212.0" y1="153.5" x2="226.8" y2="179.1"/>
<line x1="242.2" y1="185.9" x2="271.1" y2="179.8"/>
<line x1="145.4" y1="179.0" x2="148.5" y2="208.4"/>
<line x1="138.9" y1="185.7" x2="141.2" y2="207.2"/>
<line x1="141.2" y1="224.9" x2="117.3" y2="242.3"/>
<line x1="117.3" y1="242.3" x2="90.2" y2="230.3"/>
<line x1="114.7" y1="233.3" x2="95.0" y2="224.5"/>
<line x1="79.6" y1="215.7" x2="76.5" y2="186.2"/>
<line x1="76.5" y1="186.2" x2="108.9" y2="162.7"/>
<line x1="85.6" y1="188.5" x2="108.3" y2="172.1"/>
<text x="388.180283" y="311.235277" fill="rgb(102,102,102)"  stroke="rgb(102,102,102)" stroke-width="1" font-size="16" >H</text>
<text x="400.180283" y="316.035277" fill="rgb(102,102,102)"  stroke="rgb(102,102,102)" stroke-width="1" font-size="13" >3</text>
<text x="406.680283" y="311.235277" fill="rgb(102,102,102)"  stroke="rgb(102,102,102)" stroke-width="1" font-size="16" >C</text>
<text x="375.819604" y="276.713016" fill="rgb(102,102,102)"  stroke="rgb(102,102,102)" stroke-width="1" font-size="16" >H</text>
<text x="387.819604" y="284.393016" fill="rgb(102,102,102)"  stroke="rgb(102,102,102)" stroke-width="1" font-size="13" >3</text>
<text x="394.319604" y="276.713016" fill="rgb(102,102,102)"  stroke="rgb(102,102,102)" stroke-width="1" font-size="16" >C</text>
<text x="16.400000" y="178.293460" fill="rgb(12,12,255)"  stroke="rgb(12,12,255)" stroke-width="1" font-size="16" >H</text>
<text x="28.400000" y="185.973460" fill="rgb(12,12,255)"  stroke="rgb(12,12,255)" stroke-width="1" font-size="13" >2</text>
<text x="34.900000" y="178.293460" fill="rgb(12,12,255)"  stroke="rgb(12,12,255)" stroke-width="1" font-size="16" >N</text>
<text x="646.566136" y="285.597213" fill="rgb(12,12,255)"  stroke="rgb(12,12,255)" stroke-width="1" font-size="16" >N</text>
<text x="511.030029" y="260.308124" fill="rgb(12,12,255)"  stroke="rgb(12,12,255)" stroke-width="1" font-size="16" >N</text>
<text x="77.122957" y="230.823802" fill="rgb(12,12,255)"  stroke="rgb(12,12,255)" stroke-width="1" font-size="16" >N</text>
<text x="143.625455" y="223.581858" fill="rgb(12,12,255)"  stroke="rgb(12,12,255)" stroke-width="1" font-size="16" >N</text>
<text x="109.483637" y="131.270640" fill="rgb(12,12,255)"  stroke="rgb(12,12,255)" stroke-width="1" font-size="16" >N</text>
<text x="166.209541" y="154.075189" fill="rgb(12,12,255)"  stroke="rgb(12,12,255)" stroke-width="1" font-size="16" >N</text>
<text x="622.756811" y="223.226085" fill="rgb(255,12,12)"  stroke="rgb(255,12,12)" stroke-width="1" font-size="16" >OH</text>
<text x="659.658994" y="390.614246" fill="rgb(255,12,12)"  stroke="rgb(255,12,12)" stroke-width="1" font-size="16" >O</text>
<text x="626.249669" y="328.243117" fill="rgb(255,12,12)"  stroke="rgb(255,12,12)" stroke-width="1" font-size="16" >HO</text>
<text x="817.744504" y="305.565622" fill="rgb(255,12,12)"  stroke="rgb(255,12,12)" stroke-width="1" font-size="16" >O</text>
<text x="214.839173" y="92.924630" fill="rgb(255,12,12)"  stroke="rgb(255,12,12)" stroke-width="1" font-size="16" >HO</text>
<text x="444.354833" y="347.400612" fill="rgb(255,12,12)"  stroke="rgb(255,12,12)" stroke-width="1" font-size="16" >HO</text>
<text x="530.039354" y="322.679253" fill="rgb(255,12,12)"  stroke="rgb(255,12,12)" stroke-width="1" font-size="16" >OH</text>
<text x="254.338475" y="88.320000" fill="rgb(255,12,12)"  stroke="rgb(255,12,12)" stroke-width="1" font-size="16" >HO</text>
<text x="303.938475" y="48.320000" fill="rgb(255,12,12)"  stroke="rgb(255,12,12)" stroke-width="1" font-size="16" >OH</text>
<text x="343.938475" y="88.320000" fill="rgb(255,12,12)"  stroke="rgb(255,12,12)" stroke-width="1" font-size="16" >O</text>
<text x="292.474938" y="155.063049" fill="rgb(255,12,12)"  stroke="rgb(255,12,12)" stroke-width="1" font-size="16" >HO</text>
<text x="349.517309" y="124.253612" fill="rgb(255,12,12)"  stroke="rgb(255,12,12)" stroke-width="1" font-size="16" >O</text>
<text x="427.769117" y="140.886548" fill="rgb(255,12,12)"  stroke="rgb(255,12,12)" stroke-width="1" font-size="16" >OH</text>
<text x="458.578554" y="184.808919" fill="rgb(255,12,12)"  stroke="rgb(255,12,12)" stroke-width="1" font-size="16" >O</text>
<text x="332.884374" y="198.985420" fill="rgb(255,12,12)"  stroke="rgb(255,12,12)" stroke-width="1" font-size="16" >O</text>
<text x="413.536182" y="215.618356" fill="rgb(255,12,12)"  stroke="rgb(255,12,12)" stroke-width="1" font-size="16" >O</text>
<text x="228.390416" y="192.897343" fill="rgb(255,12,12)"  stroke="rgb(255,12,12)" stroke-width="1" font-size="16" >O</text>
<text x="303.938475" y="124.800000" fill="rgb(255,12,12)"  stroke="rgb(255,12,12)" stroke-width="1" font-size="16" >O</text>
<text x="380.326746" y="168.175984" fill="rgb(255,12,12)"  stroke="rgb(255,12,12)" stroke-width="1" font-size="16" >O</text>
<text x="303.938475" y="84.800000" fill="rgb(255,127,0)"  stroke="rgb(255,127,0)" stroke-width="1" font-size="16" >P</text>
<text x="341.200842" y="163.379516" fill="rgb(255,127,0)"  stroke="rgb(255,127,0)" stroke-width="1" font-size="16" >P</text>
<text x="419.452650" y="176.492452" fill="rgb(255,127,0)"  stroke="rgb(255,127,0)" stroke-width="1" font-size="16" >P</text>
<text x="749.976451" y="291.161078" fill="rgb(178,178,0)"  stroke="rgb(178,178,0)" stroke-width="1" font-size="16" >S</text>
<text x="727.427048" y="405.018790" fill="rgb(191,191,191)"  stroke="rgb(191,191,191)" stroke-width="1" font-size="16" >H</text>
<text x="801.111569" y="380.297430" fill="rgb(191,191,191)"  stroke="rgb(191,191,191)" stroke-width="1" font-size="16" >H</text>
<text font-size="18.000000" fill ="black" font-family="sans-serif"
x="140.000000" y="20.000000" ></text>
<title> - OBDepict</title>
</svg>
