<?xml version="1.0"?>
<svg xmlns="http://www.w3.org/2000/svg"
xmlns:xlink="http://www.w3.org/1999/xlink" xmlns:cml="http://www.xml-cml.org/schema" width="219.685" height="261.554" x="0" y="0" font-family="sans-serif" stroke="rgb(0,0,0)" stroke-width="1" >
<line x1="110.4" y1="141.6" x2="145.0" y2="161.6"/>
<line x1="110.4" y1="141.6" x2="110.4" y2="101.6"/>
<line x1="145.0" y1="161.6" x2="145.0" y2="201.6"/>
<line x1="146.5" y1="204.2" x2="120.9" y2="219.0"/>
<line x1="143.5" y1="199.0" x2="117.9" y2="213.8"/>
<line x1="145.0" y1="201.6" x2="170.7" y2="216.4"/>
<line x1="78.0" y1="78.0" x2="49.9" y2="87.2"/>
<line x1="110.4" y1="101.6" x2="134.3" y2="84.2"/>
<line x1="139.5" y1="68.2" x2="130.4" y2="40.0"/>
<line x1="132.1" y1="68.5" x2="125.4" y2="47.9"/>
<line x1="130.4" y1="40.0" x2="100.8" y2="40.0"/>
<line x1="87.2" y1="49.9" x2="78.0" y2="78.0"/>
<line x1="93.4" y1="54.0" x2="86.7" y2="74.6"/>
<line x1="78.0" y1="78.0" x2="110.4" y2="101.6"/>
<text x="136.763620" y="82.842261" fill="rgb(12,12,255)"  stroke="rgb(12,12,255)" stroke-width="1" font-size="16" >N</text>
<text x="86.802940" y="48.320000" fill="rgb(12,12,255)"  stroke="rgb(12,12,255)" stroke-width="1" font-size="16" >N</text>
<text x="106.802940" y="226.353671" fill="rgb(255,12,12)"  stroke="rgb(255,12,12)" stroke-width="1" font-size="16" >O</text>
<text x="173.684973" y="226.353671" fill="rgb(255,12,12)"  stroke="rgb(255,12,12)" stroke-width="1" font-size="16" >OH</text>
<text x="24.400000" y="95.202940" fill="rgb(255,12,12)"  stroke="rgb(255,12,12)" stroke-width="1" font-size="16" >HO</text>
<text font-size="18.000000" fill ="black" font-family="sans-serif"
x="140.000000" y="20.000000" ></text>
<title> - OBDepict</title>
</svg>
