<?xml version="1.0"?>
<svg xmlns="http://www.w3.org/2000/svg"
xmlns:xlink="http://www.w3.org/1999/xlink" xmlns:cml="http://www.xml-cml.org/schema" width="362.256" height="320.049" x="0" y="0" font-family="sans-serif" stroke="rgb(0,0,0)" stroke-width="1" >
<line x1="210.6" y1="184.1" x2="173.4" y2="194.1"/>
<line x1="106.7" y1="78.5" x2="106.7" y2="50.0"/>
<line x1="73.4" y1="136.3" x2="48.7" y2="150.5"/>
<line x1="275.1" y1="201.4" x2="295.2" y2="221.5"/>
<line x1="257.8" y1="136.9" x2="265.2" y2="109.4"/>
<polygon points="165.881454 258.033074 143.538148 211.333333 136.609945 215.333333 " />
<line x1="140.1" y1="213.3" x2="125.8" y2="238.0"/>
<line x1="285.1" y1="164.2" x2="312.6" y2="156.8"/>
<polygon points="170.063520 219.660696 177.397842 194.596179 169.466283 193.551969 " />
<line x1="140.1" y1="97.8" x2="140.1" y2="136.3"/>
<line x1="132.9" y1="103.8" x2="132.9" y2="130.3"/>
<line x1="140.1" y1="136.3" x2="106.7" y2="155.6"/>
<line x1="106.7" y1="155.6" x2="73.4" y2="136.3"/>
<line x1="105.1" y1="146.3" x2="82.2" y2="133.1"/>
<line x1="73.4" y1="136.3" x2="73.4" y2="97.8"/>
<line x1="73.4" y1="97.8" x2="106.7" y2="78.5"/>
<line x1="82.2" y1="101.0" x2="105.1" y2="87.8"/>
<line x1="106.7" y1="78.5" x2="140.1" y2="97.8"/>
<line x1="173.4" y1="194.1" x2="140.1" y2="213.3"/>
<line x1="140.1" y1="213.3" x2="106.7" y2="194.1"/>
<line x1="106.7" y1="194.1" x2="106.7" y2="155.6"/>
<line x1="140.1" y1="136.3" x2="164.8" y2="150.5"/>
<line x1="173.4" y1="165.6" x2="173.4" y2="194.1"/>
<line x1="237.9" y1="211.3" x2="210.6" y2="184.1"/>
<line x1="238.7" y1="202.0" x2="220.0" y2="183.3"/>
<line x1="210.6" y1="184.1" x2="220.6" y2="146.9"/>
<line x1="220.6" y1="146.9" x2="257.8" y2="136.9"/>
<line x1="228.3" y1="152.3" x2="253.9" y2="145.4"/>
<line x1="257.8" y1="136.9" x2="285.1" y2="164.2"/>
<line x1="285.1" y1="164.2" x2="275.1" y2="201.4"/>
<line x1="276.5" y1="168.1" x2="269.7" y2="193.7"/>
<line x1="275.1" y1="201.4" x2="237.9" y2="211.3"/>
<text x="100.716031" y="48.320000" fill="rgb(255,12,12)"  stroke="rgb(255,12,12)" stroke-width="1" font-size="16" >OH</text>
<text x="24.400000" y="160.355556" fill="rgb(255,12,12)"  stroke="rgb(255,12,12)" stroke-width="1" font-size="16" >HO</text>
<text x="296.317537" y="233.408833" fill="rgb(255,12,12)"  stroke="rgb(255,12,12)" stroke-width="1" font-size="16" >OH</text>
<text x="261.782778" y="108.043358" fill="rgb(255,12,12)"  stroke="rgb(255,12,12)" stroke-width="1" font-size="16" >OH</text>
<text x="105.214787" y="251.491349" fill="rgb(255,12,12)"  stroke="rgb(255,12,12)" stroke-width="1" font-size="16" >HO</text>
<text x="316.256190" y="162.516769" fill="rgb(255,12,12)"  stroke="rgb(255,12,12)" stroke-width="1" font-size="16" >OH</text>
<text x="167.432062" y="163.875556" fill="rgb(255,12,12)"  stroke="rgb(255,12,12)" stroke-width="1" font-size="16" >O</text>
<text x="172.592565" y="284.849364" fill="rgb(191,191,191)"  stroke="rgb(191,191,191)" stroke-width="1" font-size="16" >H</text>
<text x="164.804387" y="237.063061" fill="rgb(191,191,191)"  stroke="rgb(191,191,191)" stroke-width="1" font-size="16" >H</text>
<text font-size="18.000000" fill ="black" font-family="sans-serif"
x="140.000000" y="20.000000" ></text>
<title> - OBDepict</title>
</svg>
