<?xml version="1.0"?>
<svg xmlns="http://www.w3.org/2000/svg"
xmlns:xlink="http://www.w3.org/1999/xlink" xmlns:cml="http://www.xml-cml.org/schema" width="1050.17" height="960.895" x="0" y="0" font-family="sans-serif" stroke="rgb(0,0,0)" stroke-width="1" >
<line x1="47.2" y1="187.3" x2="67.8" y2="166.7"/>
<line x1="1002.6" y1="854.7" x2="1010.2" y2="826.6"/>
<line x1="481.1" y1="918.3" x2="509.2" y2="910.7"/>
<line x1="627.4" y1="99.9" x2="612.8" y2="125.1"/>
<line x1="285.9" y1="60.8" x2="306.5" y2="81.4"/>
<line x1="67.8" y1="166.7" x2="105.8" y2="176.9"/>
<line x1="1010.2" y1="826.6" x2="982.4" y2="798.8"/>
<line x1="509.2" y1="910.7" x2="519.4" y2="872.8"/>
<line x1="612.8" y1="125.1" x2="573.5" y2="125.1"/>
<line x1="306.5" y1="81.4" x2="296.3" y2="119.3"/>
<line x1="105.8" y1="176.9" x2="115.9" y2="214.9"/>
<line x1="982.4" y1="798.8" x2="992.6" y2="760.9"/>
<line x1="519.4" y1="872.8" x2="557.3" y2="862.6"/>
<line x1="573.5" y1="125.1" x2="553.9" y2="159.2"/>
<line x1="296.3" y1="119.3" x2="324.1" y2="147.1"/>
<line x1="115.9" y1="214.9" x2="153.9" y2="225.0"/>
<line x1="992.6" y1="760.9" x2="964.8" y2="733.1"/>
<line x1="557.3" y1="862.6" x2="567.5" y2="824.6"/>
<line x1="553.9" y1="159.2" x2="514.6" y2="159.2"/>
<line x1="324.1" y1="147.1" x2="313.9" y2="185.1"/>
<line x1="153.9" y1="225.0" x2="164.1" y2="263.0"/>
<line x1="964.8" y1="733.1" x2="974.9" y2="695.1"/>
<line x1="567.5" y1="824.6" x2="605.5" y2="814.5"/>
<line x1="514.6" y1="159.2" x2="494.9" y2="193.2"/>
<line x1="313.9" y1="185.1" x2="341.7" y2="212.9"/>
<line x1="164.1" y1="263.0" x2="202.0" y2="273.2"/>
<line x1="974.9" y1="695.1" x2="947.1" y2="667.3"/>
<line x1="605.5" y1="814.5" x2="615.6" y2="776.5"/>
<line x1="494.9" y1="193.2" x2="455.6" y2="193.2"/>
<line x1="341.7" y1="212.9" x2="331.5" y2="250.8"/>
<line x1="202.0" y1="273.2" x2="222.6" y2="252.6"/>
<line x1="204.9" y1="272.4" x2="215.1" y2="310.4"/>
<line x1="199.1" y1="273.9" x2="209.3" y2="311.9"/>
<line x1="212.2" y1="311.1" x2="240.3" y2="318.7"/>
<line x1="212.2" y1="311.1" x2="184.4" y2="338.9"/>
<line x1="184.4" y1="338.9" x2="194.6" y2="376.9"/>
<line x1="194.6" y1="376.9" x2="232.5" y2="387.1"/>
<line x1="947.1" y1="667.3" x2="957.3" y2="629.4"/>
<line x1="615.6" y1="776.5" x2="653.6" y2="766.3"/>
<line x1="455.6" y1="193.2" x2="436.0" y2="227.2"/>
<line x1="331.5" y1="250.8" x2="359.3" y2="278.6"/>
<line x1="232.5" y1="387.1" x2="242.7" y2="425.0"/>
<line x1="957.3" y1="629.4" x2="929.5" y2="601.6"/>
<line x1="653.6" y1="766.3" x2="663.8" y2="728.4"/>
<line x1="436.0" y1="227.2" x2="396.7" y2="227.2"/>
<line x1="359.3" y1="278.6" x2="349.2" y2="316.6"/>
<line x1="242.7" y1="425.0" x2="280.7" y2="435.2"/>
<line x1="929.5" y1="601.6" x2="939.7" y2="563.6"/>
<line x1="663.8" y1="728.4" x2="701.7" y2="718.2"/>
<line x1="396.7" y1="227.2" x2="377.0" y2="261.3"/>
<line x1="349.2" y1="316.6" x2="404.7" y2="372.2"/>
<line x1="280.7" y1="435.2" x2="290.8" y2="473.2"/>
<line x1="939.7" y1="563.6" x2="911.9" y2="535.8"/>
<line x1="701.7" y1="718.2" x2="711.9" y2="680.2"/>
<line x1="377.0" y1="261.3" x2="396.7" y2="295.3"/>
<line x1="404.7" y1="372.2" x2="394.6" y2="410.1"/>
<line x1="290.8" y1="473.2" x2="328.8" y2="483.3"/>
<line x1="911.9" y1="535.8" x2="873.9" y2="546.0"/>
<line x1="711.9" y1="680.2" x2="749.9" y2="670.0"/>
<line x1="396.7" y1="295.3" x2="436.0" y2="295.3"/>
<line x1="394.6" y1="410.1" x2="422.4" y2="437.9"/>
<line x1="328.8" y1="483.3" x2="356.6" y2="455.5"/>
<line x1="846.2" y1="518.2" x2="873.9" y2="546.0"/>
<line x1="846.2" y1="518.2" x2="808.2" y2="528.4"/>
<line x1="760.1" y1="632.1" x2="749.9" y2="670.0"/>
<line x1="760.1" y1="632.1" x2="732.3" y2="604.3"/>
<line x1="455.6" y1="329.3" x2="436.0" y2="295.3"/>
<line x1="455.6" y1="329.3" x2="494.9" y2="329.3"/>
<line x1="450.1" y1="410.1" x2="422.4" y2="437.9"/>
<line x1="450.1" y1="410.1" x2="488.1" y2="420.3"/>
<line x1="800.3" y1="172.3" x2="800.3" y2="133.0"/>
<line x1="800.3" y1="172.3" x2="775.1" y2="186.8"/>
<line x1="755.5" y1="327.0" x2="717.5" y2="316.8"/>
<line x1="755.5" y1="327.0" x2="776.0" y2="306.5"/>
<line x1="646.9" y1="456.4" x2="666.5" y2="490.4"/>
<line x1="646.9" y1="456.4" x2="617.8" y2="456.4"/>
<line x1="641.6" y1="329.3" x2="621.9" y2="363.4"/>
<line x1="641.6" y1="329.3" x2="627.0" y2="304.2"/>
<line x1="880.8" y1="570.2" x2="880.1" y2="570.4"/>
<line x1="880.2" y1="566.3" x2="878.7" y2="566.7"/>
<line x1="879.6" y1="562.4" x2="877.3" y2="563.0"/>
<line x1="878.9" y1="558.5" x2="875.9" y2="559.3"/>
<line x1="878.3" y1="554.6" x2="874.5" y2="555.6"/>
<line x1="877.7" y1="550.7" x2="873.0" y2="551.9"/>
<line x1="877.1" y1="546.8" x2="871.6" y2="548.2"/>
<line x1="873.9" y1="546.0" x2="853.4" y2="566.6"/>
<polygon points="756.694742 695.481659 753.743077 669.011085 746.015671 671.081637 " />
<line x1="749.9" y1="670.0" x2="778.0" y2="677.6"/>
<line x1="435.6" y1="270.1" x2="436.4" y2="270.1"/>
<line x1="435.2" y1="274.1" x2="436.8" y2="274.1"/>
<line x1="434.8" y1="278.0" x2="437.2" y2="278.0"/>
<line x1="434.4" y1="281.9" x2="437.6" y2="281.9"/>
<line x1="434.0" y1="285.9" x2="438.0" y2="285.9"/>
<line x1="433.6" y1="289.8" x2="438.4" y2="289.8"/>
<line x1="433.2" y1="293.7" x2="438.8" y2="293.7"/>
<line x1="436.0" y1="295.3" x2="461.1" y2="280.8"/>
<polygon points="440.976874 456.535539 425.185370 435.087181 419.528516 440.744035 " />
<line x1="422.4" y1="437.9" x2="401.8" y2="458.5"/>
<line x1="685.4" y1="67.1" x2="685.8" y2="66.4"/>
<line x1="688.6" y1="69.4" x2="689.4" y2="68.0"/>
<line x1="691.8" y1="71.7" x2="693.0" y2="69.6"/>
<line x1="695.0" y1="74.0" x2="696.6" y2="71.2"/>
<line x1="698.2" y1="76.3" x2="700.2" y2="72.9"/>
<line x1="701.4" y1="78.6" x2="703.8" y2="74.5"/>
<line x1="704.6" y1="80.9" x2="707.4" y2="76.1"/>
<line x1="707.3" y1="79.3" x2="707.3" y2="50.2"/>
<polygon points="826.666807 132.990301 800.334248 128.990301 800.334248 136.990301 " />
<line x1="800.3" y1="133.0" x2="766.3" y2="113.3"/>
<line x1="800.3" y1="133.0" x2="814.9" y2="107.8"/>
<line x1="711.4" y1="341.2" x2="710.6" y2="341.0"/>
<line x1="712.8" y1="337.6" x2="711.3" y2="337.1"/>
<line x1="714.2" y1="333.9" x2="711.9" y2="333.2"/>
<line x1="715.6" y1="330.2" x2="712.5" y2="329.3"/>
<line x1="717.0" y1="326.5" x2="713.1" y2="325.4"/>
<line x1="718.4" y1="322.8" x2="713.8" y2="321.5"/>
<line x1="719.8" y1="319.1" x2="714.4" y2="317.6"/>
<line x1="717.5" y1="316.8" x2="707.3" y2="278.9"/>
<line x1="717.5" y1="316.8" x2="689.4" y2="324.4"/>
<line x1="682.8" y1="188.9" x2="683.6" y2="188.7"/>
<line x1="683.5" y1="192.8" x2="685.0" y2="192.4"/>
<line x1="684.1" y1="196.7" x2="686.4" y2="196.1"/>
<line x1="684.7" y1="200.6" x2="687.8" y2="199.8"/>
<line x1="685.4" y1="204.5" x2="689.2" y2="203.5"/>
<line x1="686.0" y1="208.4" x2="690.6" y2="207.2"/>
<line x1="686.6" y1="212.3" x2="692.0" y2="210.9"/>
<line x1="689.7" y1="213.1" x2="710.3" y2="192.6"/>
<line x1="651.5" y1="510.6" x2="650.9" y2="510.1"/>
<line x1="654.2" y1="507.7" x2="653.0" y2="506.8"/>
<line x1="656.9" y1="504.9" x2="655.0" y2="503.4"/>
<line x1="659.6" y1="502.0" x2="657.1" y2="500.0"/>
<line x1="662.4" y1="499.1" x2="659.2" y2="496.7"/>
<line x1="665.1" y1="496.2" x2="661.3" y2="493.3"/>
<line x1="667.8" y1="493.4" x2="663.3" y2="489.9"/>
<line x1="647.1" y1="363.0" x2="647.1" y2="363.8"/>
<line x1="643.2" y1="362.6" x2="643.2" y2="364.2"/>
<line x1="639.2" y1="362.2" x2="639.2" y2="364.6"/>
<line x1="635.3" y1="361.8" x2="635.3" y2="365.0"/>
<line x1="631.4" y1="361.4" x2="631.4" y2="365.4"/>
<line x1="627.4" y1="361.0" x2="627.4" y2="365.8"/>
<line x1="623.5" y1="360.6" x2="623.5" y2="366.2"/>
<line x1="806.1" y1="530.5" x2="785.5" y2="509.9"/>
<line x1="810.3" y1="526.2" x2="789.7" y2="505.7"/>
<line x1="808.2" y1="528.4" x2="800.7" y2="556.5"/>
<line x1="486.0" y1="418.2" x2="506.6" y2="397.6"/>
<line x1="490.2" y1="422.4" x2="510.8" y2="401.9"/>
<line x1="488.1" y1="420.3" x2="495.6" y2="448.4"/>
<line x1="353.7" y1="456.3" x2="346.2" y2="428.2"/>
<line x1="359.5" y1="454.8" x2="352.0" y2="426.7"/>
<line x1="356.6" y1="455.5" x2="384.7" y2="463.1"/>
<line x1="733.0" y1="607.2" x2="704.9" y2="614.7"/>
<line x1="731.5" y1="601.4" x2="703.4" y2="608.9"/>
<line x1="732.3" y1="604.3" x2="739.8" y2="576.2"/>
<line x1="492.3" y1="327.8" x2="506.9" y2="302.7"/>
<line x1="497.5" y1="330.8" x2="512.1" y2="305.7"/>
<line x1="494.9" y1="329.3" x2="509.5" y2="354.5"/>
<polygon points="761.052744 529.367206 745.261241 507.918848 739.604387 513.575702 " />
<line x1="742.4" y1="510.7" x2="770.5" y2="503.2"/>
<polygon points="560.739265 454.892666 557.830867 402.156002 549.899308 403.200212 " />
<line x1="553.9" y1="402.7" x2="525.8" y2="395.2"/>
<line x1="746.2" y1="54.1" x2="747.0" y2="54.1"/>
<line x1="745.8" y1="58.1" x2="747.4" y2="58.1"/>
<line x1="745.4" y1="62.0" x2="747.8" y2="62.0"/>
<line x1="745.0" y1="65.9" x2="748.2" y2="65.9"/>
<line x1="744.6" y1="69.9" x2="748.6" y2="69.9"/>
<line x1="744.2" y1="73.8" x2="749.0" y2="73.8"/>
<line x1="743.8" y1="77.7" x2="749.4" y2="77.7"/>
<line x1="746.6" y1="79.3" x2="771.8" y2="64.8"/>
<line x1="735.0" y1="222.9" x2="735.6" y2="223.4"/>
<line x1="732.0" y1="225.3" x2="733.1" y2="226.5"/>
<line x1="728.9" y1="227.8" x2="730.6" y2="229.5"/>
<line x1="725.8" y1="230.3" x2="728.1" y2="232.6"/>
<line x1="722.8" y1="232.8" x2="725.6" y2="235.7"/>
<line x1="719.7" y1="235.3" x2="723.1" y2="238.7"/>
<line x1="716.6" y1="237.8" x2="720.6" y2="241.8"/>
<line x1="717.5" y1="240.9" x2="745.6" y2="248.4"/>
<polygon points="625.808146 541.996761 677.714018 532.229729 675.643466 524.502323 " />
<line x1="676.7" y1="528.4" x2="669.2" y2="556.5"/>
<line x1="787.9" y1="100.4" x2="788.3" y2="101.1"/>
<line x1="784.3" y1="102.0" x2="785.1" y2="103.4"/>
<line x1="780.7" y1="103.7" x2="781.9" y2="105.7"/>
<line x1="777.1" y1="105.3" x2="778.7" y2="108.0"/>
<line x1="773.5" y1="106.9" x2="775.5" y2="110.4"/>
<line x1="769.9" y1="108.5" x2="772.3" y2="112.7"/>
<line x1="766.3" y1="110.1" x2="769.1" y2="115.0"/>
<line x1="731.7" y1="285.0" x2="731.5" y2="285.8"/>
<line x1="728.1" y1="283.6" x2="727.6" y2="285.1"/>
<line x1="724.4" y1="282.2" x2="723.7" y2="284.5"/>
<line x1="720.7" y1="280.8" x2="719.8" y2="283.9"/>
<line x1="717.0" y1="279.4" x2="715.9" y2="283.3"/>
<line x1="713.3" y1="278.0" x2="712.0" y2="282.6"/>
<line x1="709.6" y1="276.6" x2="708.1" y2="282.0"/>
<polygon points="601.068179 320.919954 584.437799 341.724619 591.366002 345.724619 " />
<line x1="587.9" y1="343.7" x2="573.4" y2="318.5"/>
<line x1="708.5" y1="562.9" x2="707.7" y2="562.7"/>
<line x1="709.9" y1="559.2" x2="708.4" y2="558.8"/>
<line x1="711.3" y1="555.6" x2="709.0" y2="554.9"/>
<line x1="712.7" y1="551.9" x2="709.6" y2="551.0"/>
<line x1="714.1" y1="548.2" x2="710.3" y2="547.1"/>
<line x1="715.5" y1="544.5" x2="710.9" y2="543.2"/>
<line x1="716.9" y1="540.8" x2="711.5" y2="539.3"/>
<line x1="714.6" y1="538.5" x2="735.2" y2="559.1"/>
<line x1="540.9" y1="341.8" x2="541.6" y2="341.4"/>
<line x1="542.6" y1="345.4" x2="543.9" y2="344.6"/>
<line x1="544.2" y1="349.0" x2="546.3" y2="347.8"/>
<line x1="545.8" y1="352.6" x2="548.6" y2="351.0"/>
<line x1="547.4" y1="356.2" x2="550.9" y2="354.2"/>
<line x1="549.0" y1="359.8" x2="553.2" y2="357.4"/>
<line x1="550.7" y1="363.4" x2="555.5" y2="360.6"/>
<line x1="553.9" y1="363.4" x2="524.8" y2="363.4"/>
<line x1="575.7" y1="444.3" x2="575.0" y2="443.9"/>
<line x1="578.0" y1="441.1" x2="576.6" y2="440.3"/>
<line x1="580.3" y1="437.9" x2="578.2" y2="436.7"/>
<line x1="582.6" y1="434.7" x2="579.8" y2="433.1"/>
<line x1="584.9" y1="431.5" x2="581.5" y2="429.5"/>
<line x1="587.2" y1="428.3" x2="583.1" y2="425.9"/>
<line x1="589.5" y1="425.1" x2="584.7" y2="422.3"/>
<line x1="587.9" y1="422.3" x2="602.4" y2="447.5"/>
<polygon points="757.695922 465.968776 731.225347 468.920441 733.295900 476.647847 " />
<line x1="732.3" y1="472.8" x2="739.8" y2="444.7"/>
<polygon points="641.589875 261.265344 620.837549 227.649667 614.490722 232.519759 " />
<line x1="614.9" y1="228.9" x2="626.0" y2="202.1"/>
<line x1="620.4" y1="231.2" x2="631.6" y2="204.4"/>
<line x1="617.7" y1="230.1" x2="588.8" y2="233.9"/>
<polygon points="707.343948 147.375950 668.899964 138.280188 667.855754 146.211747 " />
<line x1="670.8" y1="144.1" x2="653.1" y2="167.1"/>
<line x1="666.0" y1="140.4" x2="648.3" y2="163.5"/>
<line x1="668.4" y1="142.2" x2="657.2" y2="115.4"/>
<line x1="641.6" y1="261.3" x2="627.0" y2="286.5"/>
<line x1="707.3" y1="147.4" x2="714.9" y2="175.5"/>
<line x1="528.9" y1="280.6" x2="528.9" y2="299.5"/>
<line x1="499.9" y1="309.7" x2="518.7" y2="309.7"/>
<line x1="525.9" y1="338.8" x2="525.9" y2="319.9"/>
<line x1="531.9" y1="338.8" x2="531.9" y2="319.9"/>
<line x1="694.1" y1="427.6" x2="707.4" y2="414.3"/>
<line x1="694.1" y1="386.5" x2="707.4" y2="399.8"/>
<line x1="737.3" y1="388.6" x2="724.0" y2="401.9"/>
<line x1="733.1" y1="384.3" x2="719.7" y2="397.7"/>
<line x1="558.0" y1="309.7" x2="539.2" y2="309.7"/>
<line x1="735.2" y1="427.6" x2="721.9" y2="414.3"/>
<line x1="553.9" y1="402.7" x2="553.9" y2="363.4"/>
<line x1="553.9" y1="363.4" x2="587.9" y2="343.7"/>
<line x1="587.9" y1="343.7" x2="621.9" y2="363.4"/>
<line x1="621.9" y1="363.4" x2="621.9" y2="392.5"/>
<line x1="613.1" y1="407.8" x2="587.9" y2="422.3"/>
<line x1="587.9" y1="422.3" x2="553.9" y2="402.7"/>
<line x1="666.5" y1="490.4" x2="676.7" y2="528.4"/>
<line x1="676.7" y1="528.4" x2="714.6" y2="538.5"/>
<line x1="714.6" y1="538.5" x2="742.4" y2="510.7"/>
<line x1="742.4" y1="510.7" x2="732.3" y2="472.8"/>
<line x1="732.3" y1="472.8" x2="704.2" y2="465.3"/>
<line x1="687.1" y1="469.8" x2="666.5" y2="490.4"/>
<line x1="687.7" y1="113.3" x2="707.3" y2="79.3"/>
<line x1="707.3" y1="79.3" x2="746.6" y2="79.3"/>
<line x1="746.6" y1="79.3" x2="766.3" y2="113.3"/>
<line x1="766.3" y1="113.3" x2="751.8" y2="138.5"/>
<line x1="736.4" y1="147.4" x2="707.3" y2="147.4"/>
<line x1="707.3" y1="147.4" x2="687.7" y2="113.3"/>
<line x1="651.8" y1="223.3" x2="689.7" y2="213.1"/>
<line x1="689.7" y1="213.1" x2="717.5" y2="240.9"/>
<line x1="717.5" y1="240.9" x2="707.3" y2="278.9"/>
<line x1="707.3" y1="278.9" x2="679.3" y2="286.4"/>
<line x1="662.2" y1="281.8" x2="641.6" y2="261.3"/>
<line x1="641.6" y1="261.3" x2="651.8" y2="223.3"/>
<text x="16.400000" y="199.313369" fill="rgb(102,102,102)"  stroke="rgb(102,102,102)" stroke-width="1" font-size="16" >H</text>
<text x="28.400000" y="204.113369" fill="rgb(102,102,102)"  stroke="rgb(102,102,102)" stroke-width="1" font-size="13" >3</text>
<text x="34.900000" y="199.313369" fill="rgb(102,102,102)"  stroke="rgb(102,102,102)" stroke-width="1" font-size="16" >C</text>
<text x="976.397843" y="869.382947" fill="rgb(102,102,102)"  stroke="rgb(102,102,102)" stroke-width="1" font-size="16" >H</text>
<text x="988.397843" y="874.182947" fill="rgb(102,102,102)"  stroke="rgb(102,102,102)" stroke-width="1" font-size="13" >3</text>
<text x="994.897843" y="869.382947" fill="rgb(102,102,102)"  stroke="rgb(102,102,102)" stroke-width="1" font-size="16" >C</text>
<text x="447.639634" y="925.695160" fill="rgb(102,102,102)"  stroke="rgb(102,102,102)" stroke-width="1" font-size="16" >H</text>
<text x="459.639634" y="930.495160" fill="rgb(102,102,102)"  stroke="rgb(102,102,102)" stroke-width="1" font-size="13" >3</text>
<text x="466.139634" y="925.695160" fill="rgb(102,102,102)"  stroke="rgb(102,102,102)" stroke-width="1" font-size="16" >C</text>
<text x="626.469739" y="99.401282" fill="rgb(102,102,102)"  stroke="rgb(102,102,102)" stroke-width="1" font-size="16" >CH</text>
<text x="650.469739" y="107.081282" fill="rgb(102,102,102)"  stroke="rgb(102,102,102)" stroke-width="1" font-size="13" >3</text>
<text x="255.081309" y="61.883365" fill="rgb(102,102,102)"  stroke="rgb(102,102,102)" stroke-width="1" font-size="16" >H</text>
<text x="267.081309" y="69.563365" fill="rgb(102,102,102)"  stroke="rgb(102,102,102)" stroke-width="1" font-size="13" >3</text>
<text x="273.581309" y="61.883365" fill="rgb(102,102,102)"  stroke="rgb(102,102,102)" stroke-width="1" font-size="16" >C</text>
<text x="774.395945" y="508.895085" fill="rgb(12,12,255)"  stroke="rgb(12,12,255)" stroke-width="1" font-size="16" >N</text>
<text x="512.301957" y="400.825917" fill="rgb(12,12,255)"  stroke="rgb(12,12,255)" stroke-width="1" font-size="16" >N</text>
<text x="750.697436" y="196.743789" fill="rgb(255,12,12)"  stroke="rgb(255,12,12)" stroke-width="1" font-size="16" >HO</text>
<text x="777.270210" y="307.548476" fill="rgb(255,12,12)"  stroke="rgb(255,12,12)" stroke-width="1" font-size="16" >OH</text>
<text x="830.550018" y="578.575717" fill="rgb(255,12,12)"  stroke="rgb(255,12,12)" stroke-width="1" font-size="16" >HO</text>
<text x="781.842505" y="685.018551" fill="rgb(255,12,12)"  stroke="rgb(255,12,12)" stroke-width="1" font-size="16" >OH</text>
<text x="463.994923" y="283.970994" fill="rgb(255,12,12)"  stroke="rgb(255,12,12)" stroke-width="1" font-size="16" >OH</text>
<text x="701.343948" y="48.320000" fill="rgb(255,12,12)"  stroke="rgb(255,12,12)" stroke-width="1" font-size="16" >OH</text>
<text x="813.985411" y="107.273488" fill="rgb(255,12,12)"  stroke="rgb(255,12,12)" stroke-width="1" font-size="16" >OH</text>
<text x="663.953007" y="331.819417" fill="rgb(255,12,12)"  stroke="rgb(255,12,12)" stroke-width="1" font-size="16" >HO</text>
<text x="793.214696" y="585.529157" fill="rgb(255,12,12)"  stroke="rgb(255,12,12)" stroke-width="1" font-size="32" >-</text>
<text x="794.414696" y="571.129157" fill="rgb(255,12,12)"  stroke="rgb(255,12,12)" stroke-width="1" font-size="16" >O</text>
<text x="493.483206" y="477.459989" fill="rgb(255,12,12)"  stroke="rgb(255,12,12)" stroke-width="1" font-size="32" >-</text>
<text x="492.283206" y="463.059989" fill="rgb(255,12,12)"  stroke="rgb(255,12,12)" stroke-width="1" font-size="16" >O</text>
<text x="342.830681" y="425.891227" fill="rgb(255,12,12)"  stroke="rgb(255,12,12)" stroke-width="1" font-size="16" >O</text>
<text x="690.697492" y="619.264479" fill="rgb(255,12,12)"  stroke="rgb(255,12,12)" stroke-width="1" font-size="16" >O</text>
<text x="508.562762" y="303.622157" fill="rgb(255,12,12)"  stroke="rgb(255,12,12)" stroke-width="1" font-size="16" >O</text>
<text x="774.683086" y="67.971163" fill="rgb(255,12,12)"  stroke="rgb(255,12,12)" stroke-width="1" font-size="16" >OH</text>
<text x="749.479269" y="255.893154" fill="rgb(255,12,12)"  stroke="rgb(255,12,12)" stroke-width="1" font-size="16" >OH</text>
<text x="650.906551" y="571.129157" fill="rgb(255,12,12)"  stroke="rgb(255,12,12)" stroke-width="1" font-size="16" >HO</text>
<text x="626.704484" y="202.094099" fill="rgb(255,12,12)"  stroke="rgb(255,12,12)" stroke-width="1" font-size="16" >O</text>
<text x="573.898047" y="254.414696" fill="rgb(255,12,12)"  stroke="rgb(255,12,12)" stroke-width="1" font-size="32" >-</text>
<text x="575.098047" y="240.014696" fill="rgb(255,12,12)"  stroke="rgb(255,12,12)" stroke-width="1" font-size="16" >O</text>
<text x="640.852119" y="178.226599" fill="rgb(255,12,12)"  stroke="rgb(255,12,12)" stroke-width="1" font-size="16" >O</text>
<text x="648.537510" y="99.535353" fill="rgb(255,12,12)"  stroke="rgb(255,12,12)" stroke-width="1" font-size="32" >-</text>
<text x="649.737510" y="114.255353" fill="rgb(255,12,12)"  stroke="rgb(255,12,12)" stroke-width="1" font-size="16" >O</text>
<text x="524.148412" y="263.985481" fill="rgb(255,12,12)"  stroke="rgb(255,12,12)" stroke-width="1" font-size="32" >-</text>
<text x="522.948412" y="278.705481" fill="rgb(255,12,12)"  stroke="rgb(255,12,12)" stroke-width="1" font-size="16" >O</text>
<text x="484.846086" y="328.887806" fill="rgb(255,12,12)"  stroke="rgb(255,12,12)" stroke-width="1" font-size="32" >-</text>
<text x="486.046086" y="314.487806" fill="rgb(255,12,12)"  stroke="rgb(255,12,12)" stroke-width="1" font-size="16" >O</text>
<text x="522.948412" y="353.790132" fill="rgb(255,12,12)"  stroke="rgb(255,12,12)" stroke-width="1" font-size="16" >O</text>
<text x="671.250932" y="439.621013" fill="rgb(255,12,12)"  stroke="rgb(255,12,12)" stroke-width="1" font-size="16" >HO</text>
<text x="671.250932" y="387.559131" fill="rgb(255,12,12)"  stroke="rgb(255,12,12)" stroke-width="1" font-size="16" >HO</text>
<text x="736.432814" y="387.559131" fill="rgb(255,12,12)"  stroke="rgb(255,12,12)" stroke-width="1" font-size="16" >O</text>
<text x="603.953063" y="461.166082" fill="rgb(255,12,12)"  stroke="rgb(255,12,12)" stroke-width="1" font-size="16" >O</text>
<text x="618.338713" y="303.622157" fill="rgb(255,12,12)"  stroke="rgb(255,12,12)" stroke-width="1" font-size="16" >O</text>
<text x="388.566002" y="470.506549" fill="rgb(255,12,12)"  stroke="rgb(255,12,12)" stroke-width="1" font-size="16" >O</text>
<text x="690.697492" y="470.931954" fill="rgb(255,12,12)"  stroke="rgb(255,12,12)" stroke-width="1" font-size="16" >O</text>
<text x="615.938713" y="407.478107" fill="rgb(255,12,12)"  stroke="rgb(255,12,12)" stroke-width="1" font-size="16" >O</text>
<text x="736.432814" y="574.649157" fill="rgb(255,12,12)"  stroke="rgb(255,12,12)" stroke-width="1" font-size="16" >O</text>
<text x="510.962762" y="368.175781" fill="rgb(255,12,12)"  stroke="rgb(255,12,12)" stroke-width="1" font-size="16" >O</text>
<text x="711.516138" y="190.139082" fill="rgb(255,12,12)"  stroke="rgb(255,12,12)" stroke-width="1" font-size="16" >O</text>
<text x="665.780816" y="293.856285" fill="rgb(255,12,12)"  stroke="rgb(255,12,12)" stroke-width="1" font-size="16" >O</text>
<text x="740.646273" y="152.175950" fill="rgb(255,12,12)"  stroke="rgb(255,12,12)" stroke-width="1" font-size="16" >O</text>
<text x="562.250737" y="318.007806" fill="rgb(255,12,12)"  stroke="rgb(255,12,12)" stroke-width="1" font-size="16" >O</text>
<text x="736.432814" y="443.141013" fill="rgb(255,12,12)"  stroke="rgb(255,12,12)" stroke-width="1" font-size="16" >O</text>
<text x="522.948412" y="318.007806" fill="rgb(255,127,0)"  stroke="rgb(255,127,0)" stroke-width="1" font-size="16" >P</text>
<text x="708.641873" y="411.830072" fill="rgb(255,127,0)"  stroke="rgb(255,127,0)" stroke-width="1" font-size="16" >P</text>
<text x="223.815657" y="253.694321" fill="rgb(191,191,191)"  stroke="rgb(191,191,191)" stroke-width="1" font-size="16" >H</text>
<text x="244.160037" y="326.100584" fill="rgb(191,191,191)"  stroke="rgb(191,191,191)" stroke-width="1" font-size="16" >H</text>
<text x="878.113149" y="588.747908" fill="rgb(191,191,191)"  stroke="rgb(191,191,191)" stroke-width="1" font-size="16" >H</text>
<text x="754.051565" y="712.809492" fill="rgb(191,191,191)"  stroke="rgb(191,191,191)" stroke-width="1" font-size="16" >H</text>
<text x="429.958111" y="264.319831" fill="rgb(191,191,191)"  stroke="rgb(191,191,191)" stroke-width="1" font-size="16" >H</text>
<text x="444.147884" y="470.506549" fill="rgb(191,191,191)"  stroke="rgb(191,191,191)" stroke-width="1" font-size="16" >H</text>
<text x="669.707135" y="67.971163" fill="rgb(191,191,191)"  stroke="rgb(191,191,191)" stroke-width="1" font-size="16" >H</text>
<text x="833.636574" y="137.790301" fill="rgb(191,191,191)"  stroke="rgb(191,191,191)" stroke-width="1" font-size="16" >H</text>
<text x="703.743948" y="359.610357" fill="rgb(191,191,191)"  stroke="rgb(191,191,191)" stroke-width="1" font-size="16" >H</text>
<text x="675.953007" y="183.486891" fill="rgb(191,191,191)"  stroke="rgb(191,191,191)" stroke-width="1" font-size="16" >H</text>
<text x="638.980811" y="526.383526" fill="rgb(191,191,191)"  stroke="rgb(191,191,191)" stroke-width="1" font-size="16" >H</text>
<text x="655.241038" y="368.175781" fill="rgb(191,191,191)"  stroke="rgb(191,191,191)" stroke-width="1" font-size="16" >H</text>
<text x="764.223755" y="543.338216" fill="rgb(191,191,191)"  stroke="rgb(191,191,191)" stroke-width="1" font-size="16" >H</text>
<text x="558.125054" y="485.410284" fill="rgb(191,191,191)"  stroke="rgb(191,191,191)" stroke-width="1" font-size="16" >H</text>
<text x="740.646273" y="48.320000" fill="rgb(191,191,191)"  stroke="rgb(191,191,191)" stroke-width="1" font-size="16" >H</text>
<text x="739.307079" y="221.450023" fill="rgb(191,191,191)"  stroke="rgb(191,191,191)" stroke-width="1" font-size="16" >H</text>
<text x="597.152479" y="553.510407" fill="rgb(191,191,191)"  stroke="rgb(191,191,191)" stroke-width="1" font-size="16" >H</text>
<text x="794.334248" y="102.007975" fill="rgb(191,191,191)"  stroke="rgb(191,191,191)" stroke-width="1" font-size="16" >H</text>
<text x="739.307079" y="293.856285" fill="rgb(191,191,191)"  stroke="rgb(191,191,191)" stroke-width="1" font-size="16" >H</text>
<text x="601.553063" y="318.007806" fill="rgb(191,191,191)"  stroke="rgb(191,191,191)" stroke-width="1" font-size="16" >H</text>
<text x="700.869683" y="581.301348" fill="rgb(191,191,191)"  stroke="rgb(191,191,191)" stroke-width="1" font-size="16" >H</text>
<text x="530.613925" y="337.658969" fill="rgb(191,191,191)"  stroke="rgb(191,191,191)" stroke-width="1" font-size="16" >H</text>
<text x="564.650737" y="461.166082" fill="rgb(191,191,191)"  stroke="rgb(191,191,191)" stroke-width="1" font-size="16" >H</text>
<text x="764.223755" y="470.931954" fill="rgb(191,191,191)"  stroke="rgb(191,191,191)" stroke-width="1" font-size="16" >H</text>
<text font-size="18.000000" fill ="black" font-family="sans-serif"
x="140.000000" y="20.000000" ></text>
<title> - OBDepict</title>
</svg>
