<?xml version="1.0"?>
<svg xmlns="http://www.w3.org/2000/svg"
xmlns:xlink="http://www.w3.org/1999/xlink" xmlns:cml="http://www.xml-cml.org/schema" width="357.128" height="260" x="0" y="0" font-family="sans-serif" stroke="rgb(0,0,0)" stroke-width="1" >
<line x1="213.2" y1="209.6" x2="213.2" y2="180.0"/>
<line x1="213.2" y1="70.4" x2="213.2" y2="100.0"/>
<line x1="49.0" y1="85.2" x2="74.6" y2="100.0"/>
<line x1="74.6" y1="100.0" x2="74.6" y2="60.0"/>
<line x1="74.6" y1="60.0" x2="49.0" y2="74.8"/>
<line x1="317.1" y1="160.0" x2="317.1" y2="120.0"/>
<line x1="309.9" y1="154.0" x2="309.9" y2="126.0"/>
<line x1="317.1" y1="120.0" x2="282.5" y2="100.0"/>
<line x1="282.5" y1="100.0" x2="247.8" y2="120.0"/>
<line x1="280.9" y1="109.2" x2="256.6" y2="123.2"/>
<line x1="247.8" y1="120.0" x2="247.8" y2="160.0"/>
<line x1="247.8" y1="160.0" x2="282.5" y2="180.0"/>
<line x1="256.6" y1="156.8" x2="280.9" y2="170.8"/>
<line x1="282.5" y1="180.0" x2="317.1" y2="160.0"/>
<line x1="109.3" y1="120.0" x2="109.3" y2="160.0"/>
<line x1="109.3" y1="160.0" x2="143.9" y2="180.0"/>
<line x1="118.1" y1="156.8" x2="142.3" y2="170.8"/>
<line x1="143.9" y1="180.0" x2="178.6" y2="160.0"/>
<line x1="178.6" y1="160.0" x2="178.6" y2="120.0"/>
<line x1="178.6" y1="120.0" x2="143.9" y2="100.0"/>
<line x1="143.9" y1="100.0" x2="109.3" y2="120.0"/>
<line x1="142.3" y1="109.2" x2="118.1" y2="123.2"/>
<line x1="143.9" y1="60.0" x2="109.3" y2="40.0"/>
<line x1="135.1" y1="63.2" x2="110.9" y2="49.2"/>
<line x1="109.3" y1="40.0" x2="74.6" y2="60.0"/>
<line x1="74.6" y1="100.0" x2="109.3" y2="120.0"/>
<line x1="143.9" y1="100.0" x2="143.9" y2="60.0"/>
<line x1="213.2" y1="180.0" x2="247.8" y2="160.0"/>
<line x1="247.8" y1="120.0" x2="213.2" y2="100.0"/>
<line x1="213.2" y1="100.0" x2="178.6" y2="120.0"/>
<line x1="211.6" y1="109.2" x2="187.4" y2="123.2"/>
<line x1="178.6" y1="160.0" x2="213.2" y2="180.0"/>
<line x1="187.4" y1="156.8" x2="211.6" y2="170.8"/>
<text x="207.205081" y="224.800000" fill="rgb(102,102,102)"  stroke="rgb(102,102,102)" stroke-width="1" font-size="16" >CH</text>
<text x="231.205081" y="229.600000" fill="rgb(102,102,102)"  stroke="rgb(102,102,102)" stroke-width="1" font-size="13" >3</text>
<text x="207.205081" y="68.320000" fill="rgb(102,102,102)"  stroke="rgb(102,102,102)" stroke-width="1" font-size="16" >CH</text>
<text x="231.205081" y="76.000000" fill="rgb(102,102,102)"  stroke="rgb(102,102,102)" stroke-width="1" font-size="13" >3</text>
<text x="36.400000" y="84.800000" fill="rgb(255,12,12)"  stroke="rgb(255,12,12)" stroke-width="1" font-size="16" >O</text>
<text font-size="18.000000" fill ="black" font-family="sans-serif"
x="140.000000" y="20.000000" ></text>
<title> - OBDepict</title>
</svg>
