<?xml version="1.0"?>
<svg xmlns="http://www.w3.org/2000/svg"
xmlns:xlink="http://www.w3.org/1999/xlink" xmlns:cml="http://www.xml-cml.org/schema" width="258.031" height="347.479" x="0" y="0" font-family="sans-serif" stroke="rgb(0,0,0)" stroke-width="1" >
<line x1="208.7" y1="49.5" x2="182.1" y2="62.4"/>
<line x1="157.5" y1="45.8" x2="182.1" y2="62.4"/>
<line x1="54.4" y1="297.6" x2="63.5" y2="269.4"/>
<line x1="91.5" y1="150.6" x2="104.4" y2="177.2"/>
<line x1="143.2" y1="119.8" x2="179.2" y2="102.3"/>
<line x1="143.2" y1="119.8" x2="140.4" y2="159.7"/>
<line x1="176.2" y1="102.1" x2="179.1" y2="62.2"/>
<line x1="182.2" y1="102.5" x2="185.0" y2="62.6"/>
<line x1="140.4" y1="159.7" x2="104.4" y2="177.2"/>
<polygon points="101.553671 217.076043 64.747478 200.911137 62.275342 208.519590 " />
<line x1="78.8" y1="175.8" x2="78.9" y2="175.0"/>
<line x1="82.8" y1="176.4" x2="82.9" y2="174.8"/>
<line x1="86.8" y1="177.1" x2="86.9" y2="174.7"/>
<line x1="90.7" y1="177.8" x2="91.0" y2="174.6"/>
<line x1="94.7" y1="178.5" x2="95.0" y2="174.5"/>
<line x1="98.6" y1="179.2" x2="99.0" y2="174.4"/>
<line x1="102.6" y1="179.9" x2="103.0" y2="174.3"/>
<line x1="104.4" y1="177.2" x2="101.6" y2="217.1"/>
<line x1="103.8" y1="282.6" x2="103.0" y2="282.6"/>
<line x1="103.9" y1="278.6" x2="102.3" y2="278.7"/>
<line x1="104.0" y1="274.5" x2="101.6" y2="274.7"/>
<line x1="104.1" y1="270.5" x2="100.9" y2="270.8"/>
<line x1="104.2" y1="266.5" x2="100.2" y2="266.8"/>
<line x1="104.3" y1="262.5" x2="99.6" y2="262.8"/>
<line x1="104.5" y1="258.5" x2="98.9" y2="258.9"/>
<line x1="136.2" y1="237.1" x2="101.6" y2="217.1"/>
<line x1="101.6" y1="217.1" x2="101.6" y2="257.1"/>
<line x1="101.6" y1="257.1" x2="136.2" y2="237.1"/>
<line x1="63.5" y1="204.7" x2="40.0" y2="237.1"/>
<line x1="40.0" y1="237.1" x2="63.5" y2="269.4"/>
<line x1="49.4" y1="237.7" x2="65.8" y2="260.4"/>
<line x1="63.5" y1="269.4" x2="101.6" y2="257.1"/>
<line x1="101.6" y1="217.1" x2="63.5" y2="204.7"/>
<text x="212.031466" y="53.253883" fill="rgb(102,102,102)"  stroke="rgb(102,102,102)" stroke-width="1" font-size="16" >CH</text>
<text x="236.031466" y="60.933883" fill="rgb(102,102,102)"  stroke="rgb(102,102,102)" stroke-width="1" font-size="13" >3</text>
<text x="125.325338" y="48.320000" fill="rgb(102,102,102)"  stroke="rgb(102,102,102)" stroke-width="1" font-size="16" >H</text>
<text x="137.325338" y="56.000000" fill="rgb(102,102,102)"  stroke="rgb(102,102,102)" stroke-width="1" font-size="13" >3</text>
<text x="143.825338" y="48.320000" fill="rgb(102,102,102)"  stroke="rgb(102,102,102)" stroke-width="1" font-size="16" >C</text>
<text x="27.550730" y="312.278984" fill="rgb(102,102,102)"  stroke="rgb(102,102,102)" stroke-width="1" font-size="16" >H</text>
<text x="39.550730" y="317.078984" fill="rgb(102,102,102)"  stroke="rgb(102,102,102)" stroke-width="1" font-size="13" >3</text>
<text x="46.050730" y="312.278984" fill="rgb(102,102,102)"  stroke="rgb(102,102,102)" stroke-width="1" font-size="16" >C</text>
<text x="63.319970" y="149.520249" fill="rgb(102,102,102)"  stroke="rgb(102,102,102)" stroke-width="1" font-size="16" >H</text>
<text x="75.319970" y="157.200249" fill="rgb(102,102,102)"  stroke="rgb(102,102,102)" stroke-width="1" font-size="13" >3</text>
<text x="81.819970" y="149.520249" fill="rgb(102,102,102)"  stroke="rgb(102,102,102)" stroke-width="1" font-size="16" >C</text>
<text x="60.903808" y="182.649023" fill="rgb(191,191,191)"  stroke="rgb(191,191,191)" stroke-width="1" font-size="16" >H</text>
<text x="98.402249" y="301.774484" fill="rgb(191,191,191)"  stroke="rgb(191,191,191)" stroke-width="1" font-size="16" >H</text>
<text font-size="18.000000" fill ="black" font-family="sans-serif"
x="140.000000" y="20.000000" ></text>
<title> - OBDepict</title>
</svg>
