<?xml version="1.0"?>
<svg xmlns="http://www.w3.org/2000/svg"
xmlns:xlink="http://www.w3.org/1999/xlink" xmlns:cml="http://www.xml-cml.org/schema" width="660.866" height="375.718" x="0" y="0" font-family="sans-serif" stroke="rgb(0,0,0)" stroke-width="1" >
<line x1="177.4" y1="115.4" x2="205.4" y2="122.9"/>
<line x1="243.4" y1="112.7" x2="253.5" y2="74.8"/>
<line x1="243.4" y1="112.7" x2="205.4" y2="122.9"/>
<line x1="253.5" y1="74.8" x2="281.6" y2="67.3"/>
<line x1="594.6" y1="150.1" x2="556.2" y2="142.0"/>
<line x1="594.6" y1="150.1" x2="614.0" y2="128.5"/>
<line x1="93.6" y1="301.7" x2="113.2" y2="267.7"/>
<line x1="93.6" y1="301.7" x2="108.1" y2="326.9"/>
<line x1="195.3" y1="160.8" x2="205.4" y2="122.9"/>
<line x1="195.3" y1="160.8" x2="167.2" y2="168.3"/>
<line x1="205.4" y1="122.9" x2="197.9" y2="94.8"/>
<line x1="564.4" y1="165.7" x2="563.6" y2="166.0"/>
<line x1="563.5" y1="161.9" x2="562.0" y2="162.4"/>
<line x1="562.7" y1="158.0" x2="560.4" y2="158.8"/>
<line x1="561.9" y1="154.2" x2="558.8" y2="155.2"/>
<line x1="561.0" y1="150.3" x2="557.2" y2="151.5"/>
<line x1="560.2" y1="146.5" x2="555.6" y2="147.9"/>
<line x1="559.4" y1="142.6" x2="554.0" y2="144.3"/>
<polygon points="126.379865 290.514718 116.696797 265.743152 109.768593 269.743152 " />
<polygon points="590.097848 109.051603 565.209749 99.672112 563.546456 107.497293 " />
<line x1="564.4" y1="103.6" x2="583.8" y2="82.0"/>
<line x1="67.0" y1="270.1" x2="66.3" y2="269.7"/>
<line x1="69.3" y1="266.9" x2="68.0" y2="266.1"/>
<line x1="71.7" y1="263.7" x2="69.6" y2="262.5"/>
<line x1="74.0" y1="260.5" x2="71.2" y2="258.9"/>
<line x1="76.3" y1="257.3" x2="72.8" y2="255.3"/>
<line x1="78.6" y1="254.1" x2="74.4" y2="251.7"/>
<line x1="80.9" y1="250.9" x2="76.0" y2="248.1"/>
<line x1="79.2" y1="248.1" x2="50.2" y2="248.1"/>
<line x1="551.7" y1="58.4" x2="552.3" y2="58.9"/>
<line x1="548.8" y1="61.0" x2="550.0" y2="62.1"/>
<line x1="545.9" y1="63.7" x2="547.7" y2="65.3"/>
<line x1="543.0" y1="66.3" x2="545.3" y2="68.5"/>
<line x1="540.0" y1="69.0" x2="543.0" y2="71.7"/>
<line x1="537.1" y1="71.6" x2="540.7" y2="74.8"/>
<line x1="534.2" y1="74.3" x2="538.3" y2="78.0"/>
<line x1="535.2" y1="77.3" x2="526.2" y2="49.7"/>
<polygon points="52.950943 208.875228 79.245283 212.875228 79.245283 204.875228 " />
<line x1="79.2" y1="208.9" x2="64.7" y2="183.7"/>
<polygon points="489.763293 64.444539 494.084465 90.688010 501.692917 88.215874 " />
<line x1="497.9" y1="89.5" x2="469.5" y2="83.4"/>
<line x1="100.3" y1="167.7" x2="101.0" y2="167.3"/>
<line x1="101.9" y1="171.3" x2="103.3" y2="170.5"/>
<line x1="103.6" y1="174.9" x2="105.6" y2="173.7"/>
<line x1="105.2" y1="178.5" x2="107.9" y2="176.9"/>
<line x1="106.8" y1="182.1" x2="110.3" y2="180.1"/>
<line x1="108.4" y1="185.7" x2="112.6" y2="183.3"/>
<line x1="110.0" y1="189.3" x2="114.9" y2="186.5"/>
<line x1="113.2" y1="189.3" x2="127.8" y2="164.1"/>
<line x1="319.2" y1="92.4" x2="298.6" y2="71.9"/>
<polygon points="487.666108 154.052904 493.716807 128.153457 485.741469 127.525785 " />
<line x1="489.7" y1="127.8" x2="438.0" y2="101.5"/>
<line x1="167.4" y1="223.8" x2="166.9" y2="224.5"/>
<line x1="164.5" y1="221.1" x2="163.5" y2="222.4"/>
<line x1="161.7" y1="218.4" x2="160.2" y2="220.3"/>
<line x1="158.8" y1="215.7" x2="156.8" y2="218.3"/>
<line x1="155.9" y1="213.0" x2="153.5" y2="216.2"/>
<line x1="153.0" y1="210.3" x2="150.1" y2="214.1"/>
<line x1="150.2" y1="207.6" x2="146.8" y2="212.1"/>
<line x1="147.2" y1="208.9" x2="154.7" y2="180.8"/>
<line x1="413.7" y1="53.4" x2="385.0" y2="48.9"/>
<line x1="406.6" y1="59.6" x2="385.9" y2="56.3"/>
<line x1="370.3" y1="56.4" x2="357.1" y2="82.3"/>
<line x1="357.1" y1="82.3" x2="384.8" y2="110.0"/>
<line x1="384.8" y1="110.0" x2="410.7" y2="96.8"/>
<line x1="418.2" y1="82.1" x2="413.7" y2="53.4"/>
<line x1="357.1" y1="82.3" x2="319.2" y2="92.4"/>
<line x1="353.1" y1="90.8" x2="326.8" y2="97.8"/>
<line x1="319.2" y1="92.4" x2="311.7" y2="120.5"/>
<line x1="316.2" y1="137.6" x2="336.8" y2="158.1"/>
<line x1="322.8" y1="133.9" x2="337.6" y2="148.8"/>
<line x1="336.8" y1="158.1" x2="364.8" y2="150.6"/>
<line x1="377.3" y1="138.1" x2="384.8" y2="110.0"/>
<line x1="370.9" y1="134.2" x2="376.3" y2="114.0"/>
<line x1="535.2" y1="77.3" x2="497.9" y2="89.5"/>
<line x1="497.9" y1="89.5" x2="489.7" y2="127.8"/>
<line x1="489.7" y1="127.8" x2="511.3" y2="147.3"/>
<line x1="528.6" y1="150.9" x2="556.2" y2="142.0"/>
<line x1="556.2" y1="142.0" x2="564.4" y2="103.6"/>
<line x1="564.4" y1="103.6" x2="535.2" y2="77.3"/>
<line x1="79.2" y1="208.9" x2="113.2" y2="189.3"/>
<line x1="113.2" y1="189.3" x2="147.2" y2="208.9"/>
<line x1="147.2" y1="208.9" x2="147.2" y2="237.9"/>
<line x1="138.4" y1="253.2" x2="113.2" y2="267.7"/>
<line x1="113.2" y1="267.7" x2="79.2" y2="248.1"/>
<line x1="79.2" y1="248.1" x2="79.2" y2="208.9"/>
<text x="143.934961" y="121.064310" fill="rgb(102,102,102)"  stroke="rgb(102,102,102)" stroke-width="1" font-size="16" >H</text>
<text x="155.934961" y="128.744310" fill="rgb(102,102,102)"  stroke="rgb(102,102,102)" stroke-width="1" font-size="13" >3</text>
<text x="162.434961" y="121.064310" fill="rgb(102,102,102)"  stroke="rgb(102,102,102)" stroke-width="1" font-size="16" >C</text>
<text x="285.416484" y="72.998850" fill="rgb(12,12,255)"  stroke="rgb(12,12,255)" stroke-width="1" font-size="16" >NH</text>
<text x="305.409664" y="135.137489" fill="rgb(12,12,255)"  stroke="rgb(12,12,255)" stroke-width="1" font-size="16" >N</text>
<text x="368.668302" y="152.730668" fill="rgb(12,12,255)"  stroke="rgb(12,12,255)" stroke-width="1" font-size="16" >N</text>
<text x="371.292108" y="55.624226" fill="rgb(12,12,255)"  stroke="rgb(12,12,255)" stroke-width="1" font-size="16" >N</text>
<text x="416.193532" y="100.525650" fill="rgb(12,12,255)"  stroke="rgb(12,12,255)" stroke-width="1" font-size="16" >N</text>
<text x="614.866449" y="129.287006" fill="rgb(255,12,12)"  stroke="rgb(255,12,12)" stroke-width="1" font-size="16" >OH</text>
<text x="107.232695" y="340.517976" fill="rgb(255,12,12)"  stroke="rgb(255,12,12)" stroke-width="1" font-size="16" >OH</text>
<text x="584.638322" y="82.739773" fill="rgb(255,12,12)"  stroke="rgb(255,12,12)" stroke-width="1" font-size="16" >OH</text>
<text x="24.400000" y="256.440511" fill="rgb(255,12,12)"  stroke="rgb(255,12,12)" stroke-width="1" font-size="16" >HO</text>
<text x="507.485714" y="48.320000" fill="rgb(255,12,12)"  stroke="rgb(255,12,12)" stroke-width="1" font-size="16" >HO</text>
<text x="44.022642" y="183.207816" fill="rgb(255,12,12)"  stroke="rgb(255,12,12)" stroke-width="1" font-size="16" >HO</text>
<text x="443.901012" y="89.612388" fill="rgb(255,12,12)"  stroke="rgb(255,12,12)" stroke-width="1" font-size="16" >HO</text>
<text x="126.855337" y="163.585174" fill="rgb(255,12,12)"  stroke="rgb(255,12,12)" stroke-width="1" font-size="16" >OH</text>
<text x="153.777534" y="179.287195" fill="rgb(255,12,12)"  stroke="rgb(255,12,12)" stroke-width="1" font-size="16" >O</text>
<text x="515.294067" y="158.899841" fill="rgb(255,12,12)"  stroke="rgb(255,12,12)" stroke-width="1" font-size="16" >O</text>
<text x="141.220107" y="252.920511" fill="rgb(255,12,12)"  stroke="rgb(255,12,12)" stroke-width="1" font-size="16" >O</text>
<text x="191.685566" y="93.313704" fill="rgb(191,191,191)"  stroke="rgb(191,191,191)" stroke-width="1" font-size="16" >H</text>
<text x="562.346009" y="184.096864" fill="rgb(191,191,191)"  stroke="rgb(191,191,191)" stroke-width="1" font-size="16" >H</text>
<text x="126.855337" y="306.530564" fill="rgb(191,191,191)"  stroke="rgb(191,191,191)" stroke-width="1" font-size="16" >H</text>
<text x="596.765782" y="116.544255" fill="rgb(191,191,191)"  stroke="rgb(191,191,191)" stroke-width="1" font-size="16" >H</text>
<text x="56.022642" y="286.907923" fill="rgb(191,191,191)"  stroke="rgb(191,191,191)" stroke-width="1" font-size="16" >H</text>
<text x="555.473393" y="56.479553" fill="rgb(191,191,191)"  stroke="rgb(191,191,191)" stroke-width="1" font-size="16" >H</text>
<text x="36.400000" y="213.675228" fill="rgb(191,191,191)"  stroke="rgb(191,191,191)" stroke-width="1" font-size="16" >H</text>
<text x="482.161232" y="60.447459" fill="rgb(191,191,191)"  stroke="rgb(191,191,191)" stroke-width="1" font-size="16" >H</text>
<text x="90.010054" y="163.585174" fill="rgb(191,191,191)"  stroke="rgb(191,191,191)" stroke-width="1" font-size="16" >H</text>
<text x="483.049989" y="171.763924" fill="rgb(191,191,191)"  stroke="rgb(191,191,191)" stroke-width="1" font-size="16" >H</text>
<text x="172.355484" y="237.566242" fill="rgb(191,191,191)"  stroke="rgb(191,191,191)" stroke-width="1" font-size="16" >H</text>
<text font-size="18.000000" fill ="black" font-family="sans-serif"
x="140.000000" y="20.000000" ></text>
<title> - OBDepict</title>
</svg>
