<?xml version="1.0"?>
<svg xmlns="http://www.w3.org/2000/svg"
xmlns:xlink="http://www.w3.org/1999/xlink" xmlns:cml="http://www.xml-cml.org/schema" width="285.258" height="216.542" x="0" y="0" font-family="sans-serif" stroke="rgb(0,0,0)" stroke-width="1" >
<line x1="158.3" y1="59.5" x2="164.2" y2="77.7"/>
<line x1="109.3" y1="100.0" x2="143.9" y2="120.0"/>
<line x1="122.0" y1="133.1" x2="121.6" y2="132.5"/>
<line x1="125.6" y1="131.5" x2="124.8" y2="130.1"/>
<line x1="129.3" y1="129.8" x2="128.1" y2="127.8"/>
<line x1="132.9" y1="128.2" x2="131.3" y2="125.4"/>
<line x1="136.6" y1="126.5" x2="134.6" y2="123.1"/>
<line x1="140.3" y1="124.9" x2="137.9" y2="120.7"/>
<line x1="143.9" y1="123.2" x2="141.1" y2="118.4"/>
<line x1="205.5" y1="140.0" x2="234.9" y2="143.1"/>
<line x1="205.5" y1="140.0" x2="217.5" y2="167.0"/>
<line x1="203.7" y1="97.6" x2="227.7" y2="80.2"/>
<line x1="207.2" y1="102.4" x2="231.2" y2="85.0"/>
<line x1="143.9" y1="120.0" x2="167.4" y2="152.4"/>
<line x1="167.4" y1="152.4" x2="205.5" y2="140.0"/>
<line x1="205.5" y1="140.0" x2="205.5" y2="100.0"/>
<line x1="205.5" y1="100.0" x2="177.3" y2="90.9"/>
<line x1="161.3" y1="96.1" x2="143.9" y2="120.0"/>
<line x1="74.6" y1="40.0" x2="40.0" y2="60.0"/>
<line x1="40.0" y1="60.0" x2="40.0" y2="89.6"/>
<line x1="47.2" y1="66.0" x2="47.2" y2="87.6"/>
<line x1="49.0" y1="105.2" x2="74.6" y2="120.0"/>
<line x1="74.6" y1="120.0" x2="109.3" y2="100.0"/>
<line x1="76.2" y1="110.8" x2="100.5" y2="96.8"/>
<line x1="109.3" y1="100.0" x2="109.3" y2="60.0"/>
<line x1="109.3" y1="60.0" x2="74.6" y2="40.0"/>
<line x1="100.5" y1="63.2" x2="76.2" y2="49.2"/>
<text x="131.473779" y="57.917060" fill="rgb(102,102,102)"  stroke="rgb(102,102,102)" stroke-width="1" font-size="16" >H</text>
<text x="143.473779" y="65.597060" fill="rgb(102,102,102)"  stroke="rgb(102,102,102)" stroke-width="1" font-size="13" >3</text>
<text x="149.973779" y="57.917060" fill="rgb(102,102,102)"  stroke="rgb(102,102,102)" stroke-width="1" font-size="16" >C</text>
<text x="36.400000" y="104.800000" fill="rgb(12,12,255)"  stroke="rgb(12,12,255)" stroke-width="1" font-size="16" >N</text>
<text x="163.834459" y="95.959320" fill="rgb(12,12,255)"  stroke="rgb(12,12,255)" stroke-width="1" font-size="16" >N</text>
<text x="215.746185" y="181.341818" fill="rgb(255,12,12)"  stroke="rgb(255,12,12)" stroke-width="1" font-size="16" >OH</text>
<text x="231.837399" y="84.808590" fill="rgb(255,12,12)"  stroke="rgb(255,12,12)" stroke-width="1" font-size="16" >O</text>
<text x="105.682032" y="144.800000" fill="rgb(191,191,191)"  stroke="rgb(191,191,191)" stroke-width="1" font-size="16" >H</text>
<text x="239.257595" y="148.981139" fill="rgb(191,191,191)"  stroke="rgb(191,191,191)" stroke-width="1" font-size="16" >H</text>
<text font-size="18.000000" fill ="black" font-family="sans-serif"
x="140.000000" y="20.000000" ></text>
<title> - OBDepict</title>
</svg>
