<?xml version="1.0"?>
<svg xmlns="http://www.w3.org/2000/svg"
xmlns:xlink="http://www.w3.org/1999/xlink" xmlns:cml="http://www.xml-cml.org/schema" width="303.923" height="189.282" x="0" y="0" font-family="sans-serif" stroke="rgb(0,0,0)" stroke-width="1" >
<line x1="243.9" y1="114.6" x2="203.9" y2="114.6"/>
<line x1="243.9" y1="114.6" x2="258.7" y2="140.3"/>
<line x1="203.9" y1="114.6" x2="189.1" y2="89.0"/>
<line x1="74.6" y1="80.0" x2="74.6" y2="120.0"/>
<line x1="74.6" y1="80.0" x2="49.0" y2="65.2"/>
<line x1="109.3" y1="140.0" x2="74.6" y2="120.0"/>
<line x1="109.3" y1="140.0" x2="134.9" y2="125.2"/>
<line x1="74.6" y1="120.0" x2="49.0" y2="134.8"/>
<line x1="143.9" y1="50.4" x2="143.9" y2="69.6"/>
<line x1="114.3" y1="77.0" x2="133.5" y2="77.0"/>
<line x1="114.3" y1="83.0" x2="133.5" y2="83.0"/>
<line x1="173.5" y1="80.0" x2="154.3" y2="80.0"/>
<line x1="143.9" y1="109.6" x2="143.9" y2="90.4"/>
<text x="257.923048" y="154.082032" fill="rgb(12,12,255)"  stroke="rgb(12,12,255)" stroke-width="1" font-size="16" >NH</text>
<text x="281.923048" y="158.882032" fill="rgb(12,12,255)"  stroke="rgb(12,12,255)" stroke-width="1" font-size="13" >2</text>
<text x="24.400000" y="68.320000" fill="rgb(255,12,12)"  stroke="rgb(255,12,12)" stroke-width="1" font-size="16" >HO</text>
<text x="24.400000" y="144.800000" fill="rgb(255,12,12)"  stroke="rgb(255,12,12)" stroke-width="1" font-size="16" >HO</text>
<text x="137.923048" y="48.320000" fill="rgb(255,12,12)"  stroke="rgb(255,12,12)" stroke-width="1" font-size="16" >OH</text>
<text x="100.323048" y="84.800000" fill="rgb(255,12,12)"  stroke="rgb(255,12,12)" stroke-width="1" font-size="16" >O</text>
<text x="177.923048" y="88.320000" fill="rgb(255,12,12)"  stroke="rgb(255,12,12)" stroke-width="1" font-size="16" >O</text>
<text x="137.923048" y="124.800000" fill="rgb(255,12,12)"  stroke="rgb(255,12,12)" stroke-width="1" font-size="16" >O</text>
<text x="137.923048" y="88.320000" fill="rgb(255,127,0)"  stroke="rgb(255,127,0)" stroke-width="1" font-size="16" >P</text>
<text font-size="18.000000" fill ="black" font-family="sans-serif"
x="140.000000" y="20.000000" ></text>
<title> - OBDepict</title>
</svg>
